# 3ds Max Wavefront OBJ Exporter v0.97b - (c)2007 guruware
# File Created: 31.01.2021 23:03:24

#
# object No_Neen
#

v  650.1840 0.0000 53.8943
v  651.9490 0.0000 53.2436
v  651.0665 5.0000 53.5689
v  651.9490 10.0000 53.2436
v  650.1840 10.0000 53.8943
v  653.4788 0.0000 52.3469
v  652.7139 5.0000 52.7952
v  653.4788 10.0000 52.3469
v  654.7732 0.0000 51.2043
v  654.1260 5.0000 51.7756
v  654.7732 10.0000 51.2043
v  655.8323 0.0000 49.8156
v  655.3027 5.0000 50.5099
v  655.8323 10.0000 49.8156
v  656.6560 0.0000 48.1811
v  656.2441 5.0000 48.9984
v  656.6560 10.0000 48.1811
v  657.2444 0.0000 46.3005
v  656.9502 5.0000 47.2408
v  657.2444 10.0000 46.3005
v  657.5974 0.0000 44.1740
v  657.4209 5.0000 45.2373
v  657.5974 10.0000 44.1740
v  657.7151 0.0000 41.8015
v  657.6563 5.0000 42.9877
v  657.7151 10.0000 41.8015
v  657.6809 0.0000 40.6298
v  657.6980 5.0000 41.2156
v  657.6809 10.0000 40.6298
v  657.5784 0.0000 39.5028
v  657.6296 5.0000 40.0663
v  657.5784 10.0000 39.5028
v  657.4075 0.0000 38.4205
v  657.4929 5.0000 38.9617
v  657.4075 10.0000 38.4205
v  657.1682 0.0000 37.3830
v  657.2878 5.0000 37.9018
v  657.1682 10.0000 37.3830
v  656.8607 0.0000 36.3902
v  657.0144 5.0000 36.8866
v  656.8607 10.0000 36.3902
v  656.4847 0.0000 35.4421
v  656.6727 5.0000 35.9161
v  656.4847 10.0000 35.4421
v  656.0403 0.0000 34.5387
v  656.2625 5.0000 34.9904
v  656.0403 10.0000 34.5387
v  655.5277 0.0000 33.6800
v  655.7841 5.0000 34.1094
v  655.5277 10.0000 33.6800
v  654.9467 0.0000 32.8661
v  655.2372 5.0000 33.2731
v  654.9467 10.0000 32.8661
v  654.3137 0.0000 32.1140
v  654.6301 5.0000 32.4901
v  654.3137 10.0000 32.1140
v  653.6450 0.0000 31.4410
v  653.9793 5.0000 31.7775
v  653.6450 10.0000 31.4410
v  652.9407 0.0000 30.8469
v  653.2929 5.0000 31.1439
v  652.9407 10.0000 30.8469
v  652.2009 0.0000 30.3319
v  652.5708 5.0000 30.5894
v  652.2009 10.0000 30.3319
v  651.4254 0.0000 29.8958
v  651.8131 5.0000 30.1138
v  651.4254 10.0000 29.8958
v  650.6143 0.0000 29.5388
v  651.0198 5.0000 29.7173
v  650.6143 10.0000 29.5388
v  649.7675 0.0000 29.2608
v  650.1909 5.0000 29.3998
v  649.7675 10.0000 29.2608
v  648.8851 0.0000 29.0618
v  649.3263 5.0000 29.1613
v  648.8851 10.0000 29.0618
v  647.9671 0.0000 28.9418
v  648.4261 5.0000 29.0018
v  647.9671 10.0000 28.9418
v  645.3182 0.0000 28.7003
v  646.6426 5.0000 28.8210
v  645.3182 10.0000 28.7003
v  645.3182 0.0000 4.7115
v  645.3182 5.0000 16.7059
v  645.3182 10.0000 4.7115
v  635.4973 0.0000 4.7115
v  640.4078 5.0000 4.7115
v  635.4973 10.0000 4.7115
v  635.4973 0.0000 30.7932
v  635.4973 5.0000 17.7524
v  635.4973 10.0000 30.7932
v  634.0305 0.0000 31.6414
v  634.7639 5.0000 31.2173
v  634.0305 10.0000 31.6414
v  632.6619 0.0000 32.5268
v  633.3462 5.0000 32.0841
v  632.6619 10.0000 32.5268
v  631.3918 0.0000 33.4494
v  632.0269 5.0000 32.9881
v  631.3918 10.0000 33.4494
v  630.2202 0.0000 34.4092
v  630.8060 5.0000 33.9293
v  630.2202 10.0000 34.4092
v  629.1468 0.0000 35.4063
v  629.6835 5.0000 34.9077
v  629.1468 10.0000 35.4063
v  628.1719 0.0000 36.4405
v  628.6594 5.0000 35.9234
v  628.1719 10.0000 36.4405
v  627.2953 0.0000 37.5119
v  627.7336 5.0000 36.9762
v  627.2953 10.0000 37.5119
v  626.5172 0.0000 38.6205
v  626.9063 5.0000 38.0662
v  626.5172 10.0000 38.6205
v  625.8374 0.0000 39.7664
v  626.1773 5.0000 39.1935
v  625.8374 10.0000 39.7664
v  625.8374 0.0000 19.9611
v  625.8374 5.0000 29.8637
v  625.8374 10.0000 19.9611
v  625.5911 0.0000 16.7267
v  625.7143 5.0000 18.3439
v  625.5911 10.0000 16.7267
v  624.8524 0.0000 13.8729
v  625.2218 5.0000 15.2998
v  624.8524 10.0000 13.8729
v  623.6212 0.0000 11.3996
v  624.2368 5.0000 12.6363
v  623.6212 10.0000 11.3996
v  621.8974 0.0000 9.3068
v  622.7593 5.0000 10.3532
v  621.8974 10.0000 9.3068
v  619.6812 0.0000 7.5946
v  620.7893 5.0000 8.4507
v  619.6812 10.0000 7.5946
v  616.9724 0.0000 6.2628
v  618.3268 5.0000 6.9287
v  616.9724 10.0000 6.2628
v  613.7712 0.0000 5.3115
v  615.3718 5.0000 5.7872
v  613.7712 10.0000 5.3115
v  610.0775 0.0000 4.7408
v  611.9243 5.0000 5.0261
v  610.0775 10.0000 4.7408
v  605.8912 0.0000 4.5505
v  607.9843 5.0000 4.6456
v  605.8912 10.0000 4.5505
v  602.6228 0.0000 4.6708
v  604.2570 5.0000 4.6106
v  602.6228 10.0000 4.6708
v  599.5405 0.0000 5.0315
v  601.0817 5.0000 4.8511
v  599.5405 10.0000 5.0315
v  596.6442 0.0000 5.6328
v  598.0923 5.0000 5.3321
v  596.6442 10.0000 5.6328
v  593.9338 0.0000 6.4745
v  595.2890 5.0000 6.0536
v  593.9338 10.0000 6.4745
v  591.4096 0.0000 7.5568
v  592.6718 5.0000 7.0157
v  591.4096 10.0000 7.5568
v  589.0714 0.0000 8.8796
v  590.2405 5.0000 8.2182
v  589.0714 10.0000 8.8796
v  586.9191 0.0000 10.4428
v  587.9952 5.0000 9.6612
v  586.9191 10.0000 10.4428
v  584.9530 0.0000 12.2466
v  585.9360 5.0000 11.3447
v  584.9530 10.0000 12.2466
v  583.1729 0.0000 14.2909
v  584.0629 5.0000 13.2688
v  583.1729 10.0000 14.2909
v  584.7492 0.0000 14.8847
v  583.9610 5.0000 14.5878
v  584.7492 10.0000 14.8847
v  586.2393 0.0000 15.5224
v  585.4942 5.0000 15.2035
v  586.2393 10.0000 15.5224
v  587.6431 0.0000 16.2039
v  586.9412 5.0000 15.8631
v  587.6431 10.0000 16.2039
v  588.9606 0.0000 16.9292
v  588.3018 5.0000 16.5666
v  588.9606 10.0000 16.9292
v  590.1918 0.0000 17.6985
v  589.5762 5.0000 17.3138
v  590.1918 10.0000 17.6985
v  591.3368 0.0000 18.5115
v  590.7643 5.0000 18.1050
v  591.3368 10.0000 18.5115
v  592.3955 0.0000 19.3684
v  591.8661 5.0000 18.9400
v  592.3955 10.0000 19.3684
v  593.3679 0.0000 20.2692
v  592.8817 5.0000 19.8188
v  593.3679 10.0000 20.2692
v  594.2540 0.0000 21.2138
v  593.8110 5.0000 20.7415
v  594.2540 10.0000 21.2138
v  592.9758 0.0000 21.7538
v  593.6149 5.0000 21.4838
v  592.9758 10.0000 21.7538
v  591.8480 0.0000 22.4366
v  592.4119 5.0000 22.0952
v  591.8480 10.0000 22.4366
v  590.8705 0.0000 23.2624
v  591.3593 5.0000 22.8495
v  590.8705 10.0000 23.2624
v  590.0435 0.0000 24.2311
v  590.4570 5.0000 23.7467
v  590.0435 10.0000 24.2311
v  589.3668 0.0000 25.3427
v  589.7051 5.0000 24.7869
v  589.3668 10.0000 25.3427
v  588.8405 0.0000 26.5972
v  589.1036 5.0000 25.9699
v  588.8405 10.0000 26.5972
v  588.4645 0.0000 27.9947
v  588.6525 5.0000 27.2959
v  588.4645 10.0000 27.9947
v  588.2390 0.0000 29.5351
v  588.3517 5.0000 28.7649
v  588.2390 10.0000 29.5351
v  588.1638 0.0000 31.2184
v  588.2014 5.0000 30.3767
v  588.1638 10.0000 31.2184
v  588.1638 0.0000 43.3310
v  588.1638 5.0000 37.2747
v  588.1638 10.0000 43.3310
v  588.2837 0.0000 45.6329
v  588.2238 5.0000 44.4819
v  588.2837 10.0000 45.6329
v  588.6433 0.0000 47.6640
v  588.4635 5.0000 46.6485
v  588.6433 10.0000 47.6640
v  589.2427 0.0000 49.4243
v  588.9430 5.0000 48.5442
v  589.2427 10.0000 49.4243
v  590.0818 0.0000 50.9138
v  589.6623 5.0000 50.1691
v  590.0818 10.0000 50.9138
v  591.1608 0.0000 52.1325
v  590.6213 5.0000 51.5231
v  591.1608 10.0000 52.1325
v  592.4794 0.0000 53.0803
v  591.8201 5.0000 52.6064
v  592.4794 10.0000 53.0803
v  594.0378 0.0000 53.7574
v  593.2587 5.0000 53.4188
v  594.0378 10.0000 53.7574
v  595.8361 0.0000 54.1636
v  594.9370 5.0000 53.9605
v  595.8361 10.0000 54.1636
v  597.8740 0.0000 54.2990
v  596.8550 5.0000 54.2313
v  597.8740 10.0000 54.2990
v  599.7219 0.0000 54.1898
v  598.7979 5.0000 54.2444
v  599.7219 10.0000 54.1898
v  601.3524 0.0000 53.8623
v  600.5371 5.0000 54.0261
v  601.3524 10.0000 53.8623
v  602.7654 0.0000 53.3165
v  602.0589 5.0000 53.5894
v  602.7654 10.0000 53.3165
v  603.9611 0.0000 52.5524
v  603.3633 5.0000 52.9344
v  603.9611 10.0000 52.5524
v  604.9394 0.0000 51.5699
v  604.4503 5.0000 52.0611
v  604.9394 10.0000 51.5699
v  605.7003 0.0000 50.3691
v  605.3199 5.0000 50.9695
v  605.7003 10.0000 50.3691
v  606.2438 0.0000 48.9499
v  605.9720 5.0000 49.6595
v  606.2438 10.0000 48.9499
v  606.5699 0.0000 47.3125
v  606.4069 5.0000 48.1312
v  606.5699 10.0000 47.3125
v  606.6786 0.0000 45.4567
v  606.6243 5.0000 46.3846
v  606.6786 10.0000 45.4567
v  606.5713 0.0000 43.7645
v  606.6249 5.0000 44.6106
v  606.5713 10.0000 43.7645
v  606.2493 0.0000 42.2715
v  606.4103 5.0000 43.0180
v  606.2493 10.0000 42.2715
v  605.7126 0.0000 40.9775
v  605.9810 5.0000 41.6245
v  605.7126 10.0000 40.9775
v  604.9613 0.0000 39.8826
v  605.3369 5.0000 40.4300
v  604.9613 10.0000 39.8826
v  603.9953 0.0000 38.9868
v  604.4783 5.0000 39.4347
v  603.9953 10.0000 38.9868
v  602.8146 0.0000 38.2900
v  603.4050 5.0000 38.6384
v  602.8146 10.0000 38.2900
v  601.4193 0.0000 37.7923
v  602.1170 5.0000 38.0412
v  601.4193 10.0000 37.7923
v  599.8093 0.0000 37.4937
v  600.6143 5.0000 37.6430
v  599.8093 10.0000 37.4937
v  597.9847 0.0000 37.3942
v  598.8970 5.0000 37.4439
v  597.9847 10.0000 37.3942
v  597.9847 0.0000 31.2360
v  597.9847 5.0000 34.3151
v  597.9847 10.0000 31.2360
v  598.0742 0.0000 29.1326
v  598.0294 5.0000 30.1843
v  598.0742 10.0000 29.1326
v  598.3425 0.0000 27.2766
v  598.2083 5.0000 28.2046
v  598.3425 10.0000 27.2766
v  598.7897 0.0000 25.6681
v  598.5660 5.0000 26.4724
v  598.7897 10.0000 25.6681
v  599.4158 0.0000 24.3071
v  599.1027 5.0000 24.9876
v  599.4158 10.0000 24.3071
v  600.2208 0.0000 23.1935
v  599.8183 5.0000 23.7503
v  600.2208 10.0000 23.1935
v  601.2047 0.0000 22.3274
v  600.7127 5.0000 22.7605
v  601.2047 10.0000 22.3274
v  602.3674 0.0000 21.7088
v  601.7860 5.0000 22.0181
v  602.3674 10.0000 21.7088
v  603.7090 0.0000 21.3376
v  603.0383 5.0000 21.5232
v  603.7090 10.0000 21.3376
v  605.2296 0.0000 21.2138
v  604.4694 5.0000 21.2757
v  605.2296 10.0000 21.2138
v  604.4528 0.0000 20.2707
v  604.8412 5.0000 20.7423
v  604.4528 10.0000 20.2707
v  603.6240 0.0000 19.3621
v  604.0384 5.0000 19.8164
v  603.6240 10.0000 19.3621
v  602.7431 0.0000 18.4880
v  603.1835 5.0000 18.9251
v  602.7431 10.0000 18.4880
v  601.8101 0.0000 17.6485
v  602.2766 5.0000 18.0683
v  601.8101 10.0000 17.6485
v  600.8251 0.0000 16.8435
v  601.3176 5.0000 17.2460
v  600.8251 10.0000 16.8435
v  599.7881 0.0000 16.0731
v  600.3066 5.0000 16.4583
v  599.7881 10.0000 16.0731
v  598.6990 0.0000 15.3371
v  599.2435 5.0000 15.7051
v  598.6990 10.0000 15.3371
v  597.5579 0.0000 14.6358
v  598.1284 5.0000 14.9865
v  597.5579 10.0000 14.6358
v  596.3646 0.0000 13.9689
v  596.9612 5.0000 14.3023
v  596.3646 10.0000 13.9689
v  597.0811 0.0000 13.2762
v  596.7228 5.0000 13.6226
v  597.0811 10.0000 13.2762
v  597.8899 0.0000 12.6650
v  597.4855 5.0000 12.9706
v  597.8899 10.0000 12.6650
v  598.7911 0.0000 12.1353
v  598.3405 5.0000 12.4002
v  598.7911 10.0000 12.1353
v  599.7846 0.0000 11.6871
v  599.2878 5.0000 11.9112
v  599.7846 10.0000 11.6871
v  600.8705 0.0000 11.3204
v  600.3276 5.0000 11.5037
v  600.8705 10.0000 11.3204
v  602.0488 0.0000 11.0352
v  601.4597 5.0000 11.1778
v  602.0488 10.0000 11.0352
v  603.3194 0.0000 10.8314
v  602.6841 5.0000 10.9333
v  603.3194 10.0000 10.8314
v  604.6824 0.0000 10.7092
v  604.0009 5.0000 10.7703
v  604.6824 10.0000 10.7092
v  606.1378 0.0000 10.6684
v  605.4100 5.0000 10.6888
v  606.1378 10.0000 10.6684
v  608.2449 0.0000 10.7861
v  607.1913 5.0000 10.7272
v  608.2449 10.0000 10.7861
v  610.1041 0.0000 11.1389
v  609.1744 5.0000 10.9625
v  610.1041 10.0000 11.1389
v  611.7154 0.0000 11.7269
v  610.9097 5.0000 11.4329
v  611.7154 10.0000 11.7269
v  613.0788 0.0000 12.5502
v  612.3971 5.0000 12.1386
v  613.0788 10.0000 12.5502
v  614.1943 0.0000 13.6087
v  613.6366 5.0000 13.0795
v  614.1943 10.0000 13.6087
v  615.0620 0.0000 14.9025
v  614.6282 5.0000 14.2556
v  615.0620 10.0000 14.9025
v  615.6817 0.0000 16.4314
v  615.3718 5.0000 15.6670
v  615.6817 10.0000 16.4314
v  616.0535 0.0000 18.1956
v  615.8676 5.0000 17.3135
v  616.0535 10.0000 18.1956
v  616.1775 0.0000 20.1950
v  616.1155 5.0000 19.1953
v  616.1775 10.0000 20.1950
v  616.1775 0.0000 54.1380
v  616.1775 5.0000 37.1665
v  616.1775 10.0000 54.1380
v  626.4814 0.0000 54.1380
v  621.3295 5.0000 54.1380
v  626.4814 10.0000 54.1380
v  627.5807 0.0000 50.9130
v  627.0311 5.0000 52.5255
v  627.5807 10.0000 50.9130
v  628.4178 0.0000 48.5811
v  627.9993 5.0000 49.7470
v  628.4178 10.0000 48.5811
v  629.2745 0.0000 46.4790
v  628.8462 5.0000 47.5300
v  629.2745 10.0000 46.4790
v  630.1508 0.0000 44.6067
v  629.7127 5.0000 45.5428
v  630.1508 10.0000 44.6067
v  631.0466 0.0000 42.9642
v  630.5988 5.0000 43.7854
v  631.0466 10.0000 42.9642
v  631.9620 0.0000 41.5516
v  631.5043 5.0000 42.2579
v  631.9620 10.0000 41.5516
v  632.8970 0.0000 40.3687
v  632.4295 5.0000 40.9601
v  632.8970 10.0000 40.3687
v  633.8516 0.0000 39.4157
v  633.3743 5.0000 39.8922
v  633.8516 10.0000 39.4157
v  634.8256 0.0000 38.6925
v  634.3386 5.0000 39.0541
v  634.8256 10.0000 38.6925
v  635.8193 0.0000 38.1992
v  635.3224 5.0000 38.4458
v  635.8193 10.0000 38.1992
v  635.8193 0.0000 44.6869
v  635.8193 5.0000 41.4430
v  635.8193 10.0000 44.6869
v  635.9719 0.0000 46.7042
v  635.8956 5.0000 45.6956
v  635.9719 10.0000 46.7042
v  636.4299 0.0000 48.4843
v  636.2009 5.0000 47.5943
v  636.4299 10.0000 48.4843
v  637.1931 0.0000 50.0270
v  636.8115 5.0000 49.2556
v  637.1931 10.0000 50.0270
v  638.2616 0.0000 51.3323
v  637.7274 5.0000 50.6796
v  638.2616 10.0000 51.3323
v  639.6354 0.0000 52.4003
v  638.9485 5.0000 51.8663
v  639.6354 10.0000 52.4003
v  641.3145 0.0000 53.2310
v  640.4750 5.0000 52.8157
v  641.3145 10.0000 53.2310
v  643.2989 0.0000 53.8243
v  642.3067 5.0000 53.5277
v  643.2989 10.0000 53.8243
v  645.5885 0.0000 54.1803
v  644.4437 5.0000 54.0023
v  645.5885 10.0000 54.1803
v  648.1835 0.0000 54.2990
v  646.8860 5.0000 54.2397
v  648.1835 10.0000 54.2990
v  649.1837 5.0000 54.0966
v  646.6698 0.0000 34.4299
v  647.8624 0.0000 34.7138
v  647.2661 5.0000 34.5719
v  647.8624 10.0000 34.7138
v  646.6698 10.0000 34.4299
v  648.8959 0.0000 35.1872
v  648.3792 5.0000 34.9505
v  648.8959 10.0000 35.1872
v  649.7705 0.0000 35.8498
v  649.3333 5.0000 35.5185
v  649.7705 10.0000 35.8498
v  650.4861 0.0000 36.7017
v  650.1283 5.0000 36.2758
v  650.4861 10.0000 36.7017
v  651.0426 0.0000 37.7430
v  650.7643 5.0000 37.2224
v  651.0426 10.0000 37.7430
v  651.4401 0.0000 38.9736
v  651.2413 5.0000 38.3583
v  651.4401 10.0000 38.9736
v  651.6786 0.0000 40.3935
v  651.5594 5.0000 39.6836
v  651.6786 10.0000 40.3935
v  651.7581 0.0000 42.0027
v  651.7184 5.0000 41.1981
v  651.7581 10.0000 42.0027
v  651.7084 0.0000 43.3332
v  651.7333 5.0000 42.6680
v  651.7084 10.0000 43.3332
v  651.5590 0.0000 44.5072
v  651.6337 5.0000 43.9202
v  651.5590 10.0000 44.5072
v  651.3101 0.0000 45.5246
v  651.4346 5.0000 45.0159
v  651.3101 10.0000 45.5246
v  650.9616 0.0000 46.3855
v  651.1359 5.0000 45.9550
v  650.9616 10.0000 46.3855
v  650.5135 0.0000 47.0899
v  650.7375 5.0000 46.7377
v  650.5135 10.0000 47.0899
v  649.9659 0.0000 47.6377
v  650.2397 5.0000 47.3638
v  649.9659 10.0000 47.6377
v  649.3187 0.0000 48.0290
v  649.6423 5.0000 47.8334
v  649.3187 10.0000 48.0290
v  648.5720 0.0000 48.2638
v  648.9454 5.0000 48.1464
v  648.5720 10.0000 48.2638
v  647.7256 0.0000 48.3421
v  648.1488 5.0000 48.3029
v  647.7256 10.0000 48.3421
v  647.2204 0.0000 48.3063
v  647.4730 5.0000 48.3242
v  647.2204 10.0000 48.3063
v  646.7745 0.0000 48.1990
v  646.9974 5.0000 48.2526
v  646.7745 10.0000 48.1990
v  646.3882 0.0000 48.0201
v  646.5814 5.0000 48.1095
v  646.3882 10.0000 48.0201
v  646.0612 0.0000 47.7696
v  646.2247 5.0000 47.8948
v  646.0612 10.0000 47.7696
v  645.7938 0.0000 47.4476
v  645.9275 5.0000 47.6086
v  645.7938 10.0000 47.4476
v  645.5857 0.0000 47.0541
v  645.6897 5.0000 47.2508
v  645.5857 10.0000 47.0541
v  645.4371 0.0000 46.5890
v  645.5114 5.0000 46.8215
v  645.4371 10.0000 46.5890
v  645.3479 0.0000 46.0523
v  645.3925 5.0000 46.3206
v  645.3479 10.0000 46.0523
v  645.3182 0.0000 45.4441
v  645.3331 5.0000 45.7482
v  645.3182 10.0000 45.4441
v  645.3182 0.0000 34.3352
v  645.3182 5.0000 39.8896
v  645.3182 10.0000 34.3352
v  645.9940 5.0000 34.3825
v  599.5092 0.0000 41.6304
v  600.1707 0.0000 41.7814
v  599.8400 5.0000 41.7059
v  600.1707 10.0000 41.7814
v  599.5092 10.0000 41.6304
v  600.7440 0.0000 42.0329
v  600.4573 5.0000 41.9072
v  600.7440 10.0000 42.0329
v  601.2291 0.0000 42.3851
v  600.9866 5.0000 42.2090
v  601.2291 10.0000 42.3851
v  601.6260 0.0000 42.8379
v  601.4276 5.0000 42.6115
v  601.6260 10.0000 42.8379
v  601.9348 0.0000 43.3914
v  601.7804 5.0000 43.1146
v  601.9348 10.0000 43.3914
v  602.1552 0.0000 44.0454
v  602.0450 5.0000 43.7184
v  602.1552 10.0000 44.0454
v  602.2875 0.0000 44.8001
v  602.2214 5.0000 44.4228
v  602.2875 10.0000 44.8001
v  602.3317 0.0000 45.6554
v  602.3096 5.0000 45.2277
v  602.3317 10.0000 45.6554
v  602.2875 0.0000 46.5234
v  602.3096 5.0000 46.0894
v  602.2875 10.0000 46.5234
v  602.1552 0.0000 47.2892
v  602.2214 5.0000 46.9063
v  602.1552 10.0000 47.2892
v  601.9348 0.0000 47.9530
v  602.0450 5.0000 47.6211
v  601.9348 10.0000 47.9530
v  601.6260 0.0000 48.5146
v  601.7804 5.0000 48.2338
v  601.6260 10.0000 48.5146
v  601.2291 0.0000 48.9741
v  601.4276 5.0000 48.7444
v  601.2291 10.0000 48.9741
v  600.7440 0.0000 49.3315
v  600.9866 5.0000 49.1528
v  600.7440 10.0000 49.3315
v  600.1707 0.0000 49.5868
v  600.4573 5.0000 49.4592
v  600.1707 10.0000 49.5868
v  599.5092 0.0000 49.7400
v  599.8400 5.0000 49.6634
v  599.5092 10.0000 49.7400
v  598.7595 0.0000 49.7910
v  599.1343 5.0000 49.7655
v  598.7595 10.0000 49.7910
v  598.0225 0.0000 49.7400
v  598.3910 5.0000 49.7655
v  598.0225 10.0000 49.7400
v  597.3721 0.0000 49.5868
v  597.6973 5.0000 49.6634
v  597.3721 10.0000 49.5868
v  596.8085 0.0000 49.3315
v  597.0903 5.0000 49.4592
v  596.8085 10.0000 49.3315
v  596.3316 0.0000 48.9741
v  596.5701 5.0000 49.1528
v  596.3316 10.0000 48.9741
v  595.9414 0.0000 48.5146
v  596.1365 5.0000 48.7444
v  595.9414 10.0000 48.5146
v  595.6379 0.0000 47.9530
v  595.7897 5.0000 48.2338
v  595.6379 10.0000 47.9530
v  595.4211 0.0000 47.2892
v  595.5295 5.0000 47.6211
v  595.4211 10.0000 47.2892
v  595.2911 0.0000 46.5234
v  595.3561 5.0000 46.9063
v  595.2911 10.0000 46.5234
v  595.2477 0.0000 45.6554
v  595.2694 5.0000 46.0894
v  595.2477 10.0000 45.6554
v  595.2911 0.0000 44.8001
v  595.2694 5.0000 45.2277
v  595.2911 10.0000 44.8001
v  595.4211 0.0000 44.0454
v  595.3561 5.0000 44.4228
v  595.4211 10.0000 44.0454
v  595.6379 0.0000 43.3914
v  595.5295 5.0000 43.7184
v  595.6379 10.0000 43.3914
v  595.9414 0.0000 42.8379
v  595.7897 5.0000 43.1146
v  595.9414 10.0000 42.8379
v  596.3316 0.0000 42.3851
v  596.1365 5.0000 42.6115
v  596.3316 10.0000 42.3851
v  596.8085 0.0000 42.0329
v  596.5701 5.0000 42.2090
v  596.8085 10.0000 42.0329
v  597.3721 0.0000 41.7814
v  597.0903 5.0000 41.9072
v  597.3721 10.0000 41.7814
v  598.0225 0.0000 41.6304
v  597.6973 5.0000 41.7059
v  598.0225 10.0000 41.6304
v  598.7595 0.0000 41.5801
v  598.3910 5.0000 41.6053
v  598.7595 10.0000 41.5801
v  599.1343 5.0000 41.6053
v  604.2538 0.0000 20.5461
v  598.9984 10.0000 18.0467
v  603.1109 0.0000 20.2241
v  599.4510 0.0000 18.8788
v  598.5598 0.0000 22.2449
v  621.8994 0.0000 22.9690
v  593.5776 0.0000 12.4968
v  636.6655 0.0000 33.4992
v  624.5034 0.0000 39.8639
v  620.5447 0.0000 16.3067
v  619.8043 0.0000 14.1516
v  618.8912 0.0000 11.3625
v  615.9817 0.0000 10.0041
v  613.8845 0.0000 8.9629
v  611.4170 0.0000 8.2295
v  609.4755 0.0000 8.8886
v  607.5878 0.0000 7.6864
v  605.5704 0.0000 8.6427
v  604.1290 0.0000 7.6905
v  602.6637 0.0000 8.8458
v  601.2706 0.0000 8.0145
v  600.0652 0.0000 9.3463
v  599.3721 0.0000 9.6180
v  598.7405 0.0000 9.9439
v  598.1705 0.0000 10.3242
v  597.6620 0.0000 10.7589
v  596.4973 0.0000 16.0528
v  595.6625 0.0000 12.8542
v  621.6042 0.0000 44.8460
v  640.4078 0.0000 17.2291
v  633.6747 0.0000 35.7170
v  632.5723 0.0000 36.4917
v  630.8575 0.0000 37.2081
v  630.0815 0.0000 38.9682
v  628.5317 0.0000 40.0829
v  629.0116 0.0000 42.4458
v  628.4209 0.0000 43.6173
v  627.8433 0.0000 44.9421
v  640.5687 0.0000 40.6663
v  640.6143 0.0000 45.7219
v  640.7967 0.0000 46.9575
v  641.1614 0.0000 48.0386
v  641.2939 0.0000 49.6523
v  643.2012 0.0000 50.2121
v  644.2657 0.0000 50.7113
v  645.5125 0.0000 51.0559
v  646.5278 0.0000 50.2285
v  647.1795 0.0000 51.2819
v  648.6663 0.0000 51.1998
v  650.0059 0.0000 50.8577
v  651.1781 0.0000 50.3143
v  652.1829 0.0000 49.5697
v  653.0201 0.0000 48.6238
v  653.6900 0.0000 47.4767
v  654.1924 0.0000 46.1283
v  654.5273 0.0000 44.5787
v  654.6948 0.0000 42.8279
v  655.2822 0.0000 40.8661
v  655.0546 0.0000 38.9347
v  654.5992 0.0000 37.1864
v  653.9163 0.0000 35.6211
v  653.1149 0.0000 33.7754
v  651.4906 0.0000 32.7313
v  650.1277 0.0000 31.4880
v  648.2304 0.0000 31.2816
v  644.1541 0.0000 31.4401
v  591.7180 0.0000 12.5603
v  590.1873 0.0000 14.0615
v  589.2711 0.0000 12.3924
v  587.4682 0.0000 12.7622
v  585.7151 0.0000 13.2741
v  584.2917 0.0000 13.8074
v  597.9636 0.0000 22.9048
v  597.4865 0.0000 23.7297
v  597.1287 0.0000 24.7195
v  596.8902 0.0000 25.8743
v  596.7709 0.0000 27.1941
v  596.7411 0.0000 29.9480
v  596.9083 0.0000 35.5050
v  596.1449 0.0000 35.0094
v  595.7980 0.0000 35.2106
v  595.5090 0.0000 35.4790
v  595.2778 0.0000 35.8144
v  595.1044 0.0000 36.2169
v  594.9888 0.0000 36.6864
v  590.7181 0.0000 30.9289
v  591.8665 0.0000 46.3689
v  592.1495 0.0000 47.7252
v  592.5959 0.0000 48.8951
v  593.2055 0.0000 49.8785
v  593.9902 0.0000 51.2918
v  595.7535 0.0000 51.5567
v  596.6722 0.0000 51.0273
v  597.2762 0.0000 51.9473
v  598.5945 0.0000 52.0050
v  599.3302 0.0000 51.2403
v  600.1885 0.0000 51.8447
v  601.2581 0.0000 51.5243
v  602.1749 0.0000 51.0436
v  602.9389 0.0000 50.4027
v  603.5501 0.0000 49.6016
v  604.0085 0.0000 48.6403
v  604.3141 0.0000 47.5188
v  604.4669 0.0000 46.2370
v  604.4673 0.0000 44.9192
v  604.3159 0.0000 43.7204
v  604.0129 0.0000 42.6714
v  603.5587 0.0000 41.7723
v  602.9529 0.0000 41.0231
v  602.1957 0.0000 40.4237
v  601.2872 0.0000 39.9742
v  600.2271 0.0000 39.6745
v  599.0157 0.0000 39.5246
v  598.2556 0.0000 40.2016
v  604.2538 10.0000 20.5460
v  584.2917 10.0000 13.8074
v  596.9083 10.0000 35.5050
v  598.2556 10.0000 40.2016
v  603.1109 10.0000 20.2241
v  599.0157 10.0000 39.5246
v  600.2271 10.0000 39.6745
v  601.2872 10.0000 39.9742
v  602.1957 10.0000 40.4237
v  602.9529 10.0000 41.0231
v  603.5587 10.0000 41.7723
v  604.0129 10.0000 42.6714
v  604.3159 10.0000 43.7204
v  604.4673 10.0000 44.9192
v  604.4669 10.0000 46.2370
v  604.3141 10.0000 47.5188
v  604.0085 10.0000 48.6403
v  603.5501 10.0000 49.6016
v  602.9389 10.0000 50.4027
v  602.1749 10.0000 51.0436
v  601.2581 10.0000 51.5243
v  600.1885 10.0000 51.8447
v  599.3302 10.0000 51.2403
v  598.5945 10.0000 52.0050
v  597.2762 10.0000 51.9473
v  596.6722 10.0000 51.0273
v  595.7535 10.0000 51.5567
v  593.9902 10.0000 51.2918
v  593.2055 10.0000 49.8785
v  592.5959 10.0000 48.8951
v  592.1495 10.0000 47.7252
v  591.8665 10.0000 46.3689
v  590.7181 10.0000 30.9289
v  594.9888 10.0000 36.6864
v  595.1044 10.0000 36.2169
v  595.2778 10.0000 35.8144
v  595.5090 10.0000 35.4790
v  595.7980 10.0000 35.2106
v  596.1449 10.0000 35.0094
v  596.7411 10.0000 29.9480
v  596.7709 10.0000 27.1941
v  596.8902 10.0000 25.8743
v  597.1287 10.0000 24.7195
v  597.4865 10.0000 23.7297
v  597.9636 10.0000 22.9048
v  598.5598 10.0000 22.2449
v  597.6620 10.0000 10.7589
v  585.7151 10.0000 13.2741
v  587.4682 10.0000 12.7622
v  589.2711 10.0000 12.3924
v  590.1873 10.0000 14.0615
v  591.7180 10.0000 12.5603
v  593.5776 10.0000 12.4968
v  595.6625 10.0000 12.8542
v  598.1705 10.0000 10.3242
v  598.7405 10.0000 9.9439
v  599.3721 10.0000 9.6180
v  600.0652 10.0000 9.3463
v  601.2706 10.0000 8.0145
v  602.6637 10.0000 8.8458
v  604.1290 10.0000 7.6905
v  605.5704 10.0000 8.6427
v  607.5878 10.0000 7.6864
v  609.4755 10.0000 8.8886
v  611.4170 10.0000 8.2295
v  613.8845 10.0000 8.9629
v  615.9817 10.0000 10.0041
v  618.8912 10.0000 11.3625
v  619.8043 10.0000 14.1516
v  620.5447 10.0000 16.3067
v  620.9149 10.0000 18.7696
v  621.6042 10.0000 44.8460
v  624.0587 10.0000 39.8964
v  627.8433 10.0000 44.9421
v  628.4209 10.0000 43.6173
v  622.6174 10.0000 26.6408
v  623.4776 10.0000 36.1808
v  629.0116 10.0000 42.4458
v  628.5317 10.0000 40.0829
v  630.0815 10.0000 38.9682
v  630.8575 10.0000 37.2081
v  632.5723 10.0000 36.4917
v  633.6747 10.0000 35.7170
v  641.3898 10.0000 20.6503
v  646.3184 10.0000 31.6018
v  636.6655 10.0000 33.4992
v  648.2304 10.0000 31.2816
v  650.1277 10.0000 31.4880
v  651.4906 10.0000 32.7313
v  653.1149 10.0000 33.7754
v  653.9163 10.0000 35.6211
v  654.5992 10.0000 37.1864
v  655.0546 10.0000 38.9347
v  655.2822 10.0000 40.8661
v  654.6948 10.0000 42.8279
v  654.5273 10.0000 44.5787
v  654.1924 10.0000 46.1283
v  653.6900 10.0000 47.4767
v  653.0201 10.0000 48.6238
v  652.1829 10.0000 49.5697
v  651.1781 10.0000 50.3143
v  650.0059 10.0000 50.8577
v  648.6663 10.0000 51.1998
v  647.1795 10.0000 51.2819
v  646.5278 10.0000 50.2285
v  645.5125 10.0000 51.0559
v  644.2657 10.0000 50.7113
v  643.2012 10.0000 50.2121
v  641.2939 10.0000 49.6522
v  641.1614 10.0000 48.0386
v  640.7967 10.0000 46.9575
v  640.6143 10.0000 45.7219
v  640.5687 10.0000 40.6663
# 911 vertices

vn 0.1975 -0.6902 0.6961
vn 0.3103 -0.6877 0.6563
vn 0.3459 0.0000 0.9383
vn 0.3103 0.6877 0.6563
vn 0.1975 0.6902 0.6961
vn 0.4267 -0.6860 0.5893
vn 0.5057 0.0000 0.8627
vn 0.4267 0.6860 0.5893
vn 0.5328 -0.6857 0.4959
vn 0.6618 0.0000 0.7497
vn 0.5328 0.6857 0.4959
vn 0.6160 -0.6869 0.3855
vn 0.7951 0.0000 0.6064
vn 0.6160 0.6869 0.3855
vn 0.6716 -0.6892 0.2721
vn 0.8930 0.0000 0.4500
vn 0.6716 0.6892 0.2721
vn 0.7024 -0.6918 0.1673
vn 0.9544 0.0000 0.2986
vn 0.7024 0.6918 0.1673
vn 0.7155 -0.6944 0.0769
vn 0.9865 0.0000 0.1638
vn 0.7155 0.6944 0.0769
vn 0.7157 -0.6984 0.0073
vn 0.9988 0.0000 0.0495
vn 0.7157 0.6984 0.0073
vn 0.7126 -0.7002 -0.0428
vn 0.9996 0.0000 -0.0292
vn 0.7126 0.7002 -0.0428
vn 0.7089 -0.6998 -0.0881
vn 0.9959 0.0000 -0.0906
vn 0.7089 0.6998 -0.0881
vn 0.7017 -0.6993 -0.1361
vn 0.9878 0.0000 -0.1560
vn 0.7017 0.6993 -0.1361
vn 0.6905 -0.6989 -0.1863
vn 0.9744 0.0000 -0.2247
vn 0.6905 0.6989 -0.1863
vn 0.6749 -0.6985 -0.2379
vn 0.9552 0.0000 -0.2959
vn 0.6749 0.6985 -0.2379
vn 0.6544 -0.6983 -0.2901
vn 0.9296 0.0000 -0.3686
vn 0.6544 0.6983 -0.2901
vn 0.6292 -0.6981 -0.3418
vn 0.8973 0.0000 -0.4413
vn 0.6292 0.6981 -0.3418
vn 0.5993 -0.6980 -0.3919
vn 0.8586 0.0000 -0.5126
vn 0.5993 0.6980 -0.3919
vn 0.5656 -0.6982 -0.4388
vn 0.8139 0.0000 -0.5810
vn 0.5656 0.6982 -0.4388
vn 0.5284 -0.6979 -0.4834
vn 0.7651 0.0000 -0.6440
vn 0.5284 0.6979 -0.4834
vn 0.4858 -0.6973 -0.5270
vn 0.7094 0.0000 -0.7048
vn 0.4858 0.6973 -0.5270
vn 0.4366 -0.6968 -0.5691
vn 0.6448 0.0000 -0.7644
vn 0.4366 0.6968 -0.5691
vn 0.3813 -0.6965 -0.6079
vn 0.5713 0.0000 -0.8207
vn 0.3813 0.6965 -0.6079
vn 0.3208 -0.6963 -0.6421
vn 0.4901 0.0000 -0.8717
vn 0.3208 0.6963 -0.6421
vn 0.2568 -0.6963 -0.6702
vn 0.4029 0.0000 -0.9153
vn 0.2568 0.6963 -0.6702
vn 0.1911 -0.6965 -0.6916
vn 0.3120 0.0000 -0.9501
vn 0.1911 0.6965 -0.6916
vn 0.1255 -0.6969 -0.7061
vn 0.2200 0.0000 -0.9755
vn 0.1255 0.6969 -0.7061
vn 0.0784 -0.7027 -0.7071
vn 0.1296 0.0000 -0.9916
vn 0.0784 0.7027 -0.7071
vn 0.3313 -0.8937 -0.3025
vn 0.0908 0.0000 -0.9959
vn 0.3313 0.8937 -0.3025
vn 0.5774 -0.5774 -0.5774
vn 1.0000 0.0000 -0.0000
vn 0.5774 0.5774 -0.5774
vn -0.5774 -0.5774 -0.5774
vn 0.0000 0.0000 -1.0000
vn -0.5774 0.5774 -0.5774
vn -0.4719 -0.8385 -0.2723
vn -1.0000 0.0000 -0.0000
vn -0.4719 0.8385 -0.2723
vn -0.3720 -0.7015 -0.6078
vn -0.5006 0.0000 -0.8657
vn -0.3720 0.7015 -0.6078
vn -0.4034 -0.7011 -0.5880
vn -0.5432 0.0000 -0.8396
vn -0.4034 0.7011 -0.5880
vn -0.4359 -0.7006 -0.5649
vn -0.5877 0.0000 -0.8091
vn -0.4359 0.7006 -0.5649
vn -0.4694 -0.7002 -0.5380
vn -0.6337 0.0000 -0.7736
vn -0.4694 0.7002 -0.5380
vn -0.5033 -0.6997 -0.5070
vn -0.6806 0.0000 -0.7327
vn -0.5033 0.6997 -0.5070
vn -0.5370 -0.6993 -0.4718
vn -0.7277 0.0000 -0.6859
vn -0.5370 0.6993 -0.4718
vn -0.5699 -0.6989 -0.4322
vn -0.7740 0.0000 -0.6332
vn -0.5699 0.6989 -0.4322
vn -0.6010 -0.6986 -0.3884
vn -0.8185 0.0000 -0.5745
vn -0.6010 0.6986 -0.3884
vn 0.0379 -0.9897 -0.1380
vn -0.8600 0.0000 -0.5102
vn 0.0379 0.9897 -0.1380
vn 0.7149 -0.6987 -0.0272
vn 0.7149 0.6987 -0.0272
vn 0.7162 -0.6877 -0.1190
vn 0.9971 0.0000 -0.0759
vn 0.7162 0.6877 -0.1190
vn 0.6830 -0.6844 -0.2552
vn 0.9681 0.0000 -0.2506
vn 0.6830 0.6844 -0.2552
vn 0.6132 -0.6825 -0.3978
vn 0.8952 0.0000 -0.4456
vn 0.6132 0.6825 -0.3978
vn 0.5085 -0.6828 -0.5246
vn 0.7719 0.0000 -0.6358
vn 0.5085 0.6828 -0.5246
vn 0.3853 -0.6852 -0.6181
vn 0.6114 0.0000 -0.7913
vn 0.3853 0.6852 -0.6181
vn 0.2642 -0.6887 -0.6752
vn 0.4412 0.0000 -0.8974
vn 0.2642 0.6887 -0.6752
vn 0.1583 -0.6922 -0.7042
vn 0.2848 0.0000 -0.9586
vn 0.1583 0.6922 -0.7042
vn 0.0713 -0.6952 -0.7153
vn 0.1527 0.0000 -0.9883
vn 0.0713 0.6952 -0.7153
vn 0.0031 -0.6980 -0.7161
vn 0.0454 0.0000 -0.9990
vn 0.0031 0.6980 -0.7161
vn -0.0548 -0.6982 -0.7138
vn -0.0368 0.0000 -0.9993
vn -0.0548 0.6982 -0.7138
vn -0.1146 -0.6973 -0.7075
vn -0.1162 0.0000 -0.9932
vn -0.1146 0.6973 -0.7075
vn -0.1796 -0.6964 -0.6948
vn -0.2033 0.0000 -0.9791
vn -0.1796 0.6964 -0.6948
vn -0.2484 -0.6956 -0.6741
vn -0.2966 0.0000 -0.9550
vn -0.2484 0.6956 -0.6741
vn -0.3192 -0.6950 -0.6443
vn -0.3941 0.0000 -0.9191
vn -0.3192 0.6950 -0.6443
vn -0.3891 -0.6946 -0.6051
vn -0.4924 0.0000 -0.8704
vn -0.3891 0.6946 -0.6051
vn -0.4554 -0.6945 -0.5571
vn -0.4554 0.6945 -0.5571
vn -0.5152 -0.6947 -0.5020
vn -0.6760 0.0000 -0.7369
vn -0.5152 0.6947 -0.5020
vn -0.8027 -0.5609 0.2025
vn -0.7541 0.0000 -0.6567
vn -0.8027 0.5609 0.2025
vn -0.2619 -0.7121 0.6514
vn -0.3525 0.0000 0.9358
vn -0.2619 0.7121 0.6514
vn -0.2913 -0.7125 0.6383
vn -0.3934 0.0000 0.9194
vn -0.2913 0.7125 0.6383
vn -0.3223 -0.7129 0.6228
vn -0.4367 0.0000 0.8996
vn -0.3223 0.7129 0.6228
vn -0.3548 -0.7134 0.6043
vn -0.4823 0.0000 0.8760
vn -0.3548 0.7134 0.6043
vn -0.3884 -0.7138 0.5827
vn -0.5298 0.0000 0.8481
vn -0.3884 0.7138 0.5827
vn -0.4230 -0.7143 0.5576
vn -0.5790 0.0000 0.8153
vn -0.4230 0.7143 0.5576
vn -0.4579 -0.7147 0.5287
vn -0.6291 0.0000 0.7773
vn -0.4579 0.7147 0.5287
vn -0.4927 -0.7151 0.4958
vn -0.6796 0.0000 0.7336
vn -0.4927 0.7151 0.4958
vn -0.3268 -0.9425 -0.0693
vn -0.7293 0.0000 0.6842
vn -0.3268 0.9425 -0.0693
vn -0.3286 -0.6912 -0.6436
vn -0.3891 0.0000 -0.9212
vn -0.3286 0.6912 -0.6436
vn -0.4224 -0.6899 -0.5880
vn -0.5179 0.0000 -0.8554
vn -0.4224 0.6899 -0.5880
vn -0.5110 -0.6893 -0.5136
vn -0.6453 0.0000 -0.7639
vn -0.5110 0.6893 -0.5136
vn -0.5866 -0.6896 -0.4248
vn -0.7605 0.0000 -0.6493
vn -0.5866 0.6896 -0.4248
vn -0.6441 -0.6907 -0.3288
vn -0.8542 0.0000 -0.5200
vn -0.6441 0.6907 -0.3288
vn -0.6827 -0.6923 -0.2338
vn -0.9221 0.0000 -0.3869
vn -0.6827 0.6923 -0.2338
vn -0.7049 -0.6941 -0.1459
vn -0.9657 0.0000 -0.2598
vn -0.7049 0.6941 -0.1459
vn -0.7149 -0.6959 -0.0681
vn -0.9894 0.0000 -0.1449
vn -0.7149 0.6959 -0.0681
vn -0.7119 -0.7021 -0.0159
vn -0.9990 0.0000 -0.0446
vn -0.7119 0.7021 -0.0159
vn -0.7126 -0.7013 0.0185
vn -0.7126 0.7013 0.0185
vn -0.7158 -0.6935 0.0817
vn -0.9986 0.0000 0.0520
vn -0.7158 0.6935 0.0817
vn -0.7007 -0.6903 0.1802
vn -0.9847 0.0000 0.1744
vn -0.7007 0.6903 0.1802
vn -0.6634 -0.6869 0.2968
vn -0.9466 0.0000 0.3223
vn -0.6634 0.6869 0.2968
vn -0.5941 -0.6841 0.4231
vn -0.8712 0.0000 0.4908
vn -0.5941 0.6841 0.4231
vn -0.4897 -0.6829 0.5421
vn -0.7487 0.0000 0.6629
vn -0.4897 0.6829 0.5421
vn -0.3603 -0.6839 0.6344
vn -0.5837 0.0000 0.8120
vn -0.3603 0.6839 0.6344
vn -0.2259 -0.6866 0.6910
vn -0.3985 0.0000 0.9172
vn -0.2259 0.6866 0.6910
vn -0.1041 -0.6900 0.7163
vn -0.2204 0.0000 0.9754
vn -0.1041 0.6900 0.7163
vn -0.0026 -0.6933 0.7207
vn -0.0663 0.0000 0.9978
vn -0.0026 0.6933 0.7207
vn 0.0926 -0.6918 0.7161
vn 0.0590 0.0000 0.9983
vn 0.0926 0.6918 0.7161
vn 0.2028 -0.6884 0.6964
vn 0.1969 0.0000 0.9804
vn 0.2028 0.6884 0.6964
vn 0.3289 -0.6853 0.6497
vn 0.3603 0.0000 0.9328
vn 0.3289 0.6853 0.6497
vn 0.4580 -0.6833 0.5686
vn 0.5385 0.0000 0.8426
vn 0.4580 0.6833 0.5686
vn 0.5704 -0.6834 0.4557
vn 0.7086 0.0000 0.7056
vn 0.5704 0.6834 0.4557
vn 0.6508 -0.6854 0.3267
vn 0.8447 0.0000 0.5352
vn 0.6508 0.6854 0.3267
vn 0.6967 -0.6886 0.2012
vn 0.9339 0.0000 0.3576
vn 0.6967 0.6886 0.2012
vn 0.7161 -0.6919 0.0918
vn 0.9807 0.0000 0.1953
vn 0.7161 0.6919 0.0918
vn 0.7203 -0.6937 -0.0017
vn 0.9983 0.0000 0.0585
vn 0.7203 0.6937 -0.0017
vn 0.7163 -0.6907 -0.0994
vn 0.9980 0.0000 -0.0633
vn 0.7163 0.6907 -0.0994
vn 0.6933 -0.6873 -0.2166
vn 0.9775 0.0000 -0.2108
vn 0.6933 0.6873 -0.2166
vn 0.6408 -0.6844 -0.3478
vn 0.9237 0.0000 -0.3831
vn 0.6408 0.6844 -0.3478
vn 0.5528 -0.6830 -0.4773
vn 0.8245 0.0000 -0.5658
vn 0.5528 0.6830 -0.4773
vn 0.4360 -0.6838 -0.5851
vn 0.6800 0.0000 -0.7332
vn 0.4360 0.6838 -0.5851
vn 0.3084 -0.6863 -0.6587
vn 0.5082 0.0000 -0.8612
vn 0.3084 0.6863 -0.6587
vn 0.1883 -0.6896 -0.6993
vn 0.3359 0.0000 -0.9419
vn 0.1883 0.6896 -0.6993
vn 0.0856 -0.6929 -0.7159
vn 0.1824 0.0000 -0.9832
vn 0.0856 0.6929 -0.7159
vn 0.3194 -0.8981 -0.3024
vn 0.0545 0.0000 -0.9985
vn 0.3194 0.8981 -0.3024
vn 0.7021 -0.7119 0.0149
vn 0.7021 0.7119 0.0149
vn 0.6924 -0.7187 0.0646
vn 0.9991 0.0000 0.0425
vn 0.6924 0.7187 0.0646
vn 0.6773 -0.7217 0.1425
vn 0.9897 0.0000 0.1431
vn 0.6773 0.7217 0.1425
vn 0.6462 -0.7255 0.2367
vn 0.9635 0.0000 0.2679
vn 0.6462 0.7255 0.2367
vn 0.5905 -0.7297 0.3448
vn 0.9085 0.0000 0.4179
vn 0.5905 0.7297 0.3448
vn 0.5035 -0.7330 0.4574
vn 0.8104 0.0000 0.5858
vn 0.5035 0.7330 0.4574
vn 0.3864 -0.7342 0.5583
vn 0.6608 0.0000 0.7506
vn 0.3864 0.7342 0.5583
vn 0.2521 -0.7326 0.6323
vn 0.4697 0.0000 0.8828
vn 0.2521 0.7326 0.6323
vn 0.1196 -0.7289 0.6741
vn 0.2666 0.0000 0.9638
vn 0.1196 0.7289 0.6741
vn 0.7680 -0.5519 0.3250
vn 0.0811 0.0000 0.9967
vn 0.7680 0.5519 0.3250
vn 0.5385 -0.7015 -0.4669
vn 0.5385 0.7015 -0.4669
vn 0.5144 -0.7015 -0.4932
vn 0.7388 0.0000 -0.6739
vn 0.5144 0.7015 -0.4932
vn 0.4894 -0.7017 -0.5179
vn 0.7043 0.0000 -0.7099
vn 0.4894 0.7017 -0.5179
vn 0.4638 -0.7018 -0.5407
vn 0.6689 0.0000 -0.7433
vn 0.4638 0.7018 -0.5407
vn 0.4378 -0.7019 -0.5618
vn 0.6328 0.0000 -0.7743
vn 0.4378 0.7019 -0.5618
vn 0.4118 -0.7021 -0.5809
vn 0.5964 0.0000 -0.8027
vn 0.4118 0.7021 -0.5809
vn 0.3858 -0.7023 -0.5983
vn 0.5599 0.0000 -0.8286
vn 0.3858 0.7023 -0.5983
vn 0.3600 -0.7025 -0.6139
vn 0.5236 0.0000 -0.8519
vn 0.3600 0.7025 -0.6139
vn 0.3477 -0.9365 -0.0453
vn 0.4879 0.0000 -0.8729
vn 0.3477 0.9365 -0.0453
vn 0.4505 -0.7210 0.5265
vn 0.6951 0.0000 0.7189
vn 0.4505 0.7210 0.5265
vn 0.3855 -0.7204 0.5766
vn 0.6029 0.0000 0.7978
vn 0.3855 0.7204 0.5766
vn 0.3193 -0.7194 0.6169
vn 0.5067 0.0000 0.8621
vn 0.3193 0.7194 0.6169
vn 0.2547 -0.7183 0.6474
vn 0.4112 0.0000 0.9115
vn 0.2547 0.7183 0.6474
vn 0.1937 -0.7172 0.6695
vn 0.3200 0.0000 0.9474
vn 0.1937 0.7172 0.6695
vn 0.1375 -0.7160 0.6844
vn 0.2353 0.0000 0.9719
vn 0.1375 0.7160 0.6844
vn 0.0866 -0.7150 0.6937
vn 0.1583 0.0000 0.9874
vn 0.0866 0.7150 0.6937
vn 0.0411 -0.7141 0.6988
vn 0.0893 0.0000 0.9960
vn 0.0411 0.7141 0.6988
vn -0.0097 -0.7167 0.6974
vn 0.0280 0.0000 0.9996
vn -0.0097 0.7167 0.6974
vn -0.0839 -0.7222 0.6865
vn -0.0557 0.0000 0.9984
vn -0.0839 0.7222 0.6865
vn -0.1826 -0.7258 0.6632
vn -0.1864 0.0000 0.9825
vn -0.1826 0.7258 0.6632
vn -0.2954 -0.7295 0.6169
vn -0.3428 0.0000 0.9394
vn -0.2954 0.7295 0.6169
vn -0.4128 -0.7322 0.5417
vn -0.5169 0.0000 0.8560
vn -0.4128 0.7322 0.5417
vn -0.5199 -0.7328 0.4390
vn -0.6883 0.0000 0.7254
vn -0.5199 0.7328 0.4390
vn -0.6028 -0.7310 0.3199
vn -0.8305 0.0000 0.5570
vn -0.6028 0.7310 0.3199
vn -0.6561 -0.7276 0.2004
vn -0.9268 0.0000 0.3756
vn -0.6561 0.7276 0.2004
vn -0.6837 -0.7239 0.0927
vn -0.9785 0.0000 0.2062
vn -0.6837 0.7239 0.0927
vn -0.6997 -0.7141 0.0217
vn -0.9981 0.0000 0.0619
vn -0.6997 0.7141 0.0217
vn -0.5774 -0.5774 0.5774
vn -0.5774 0.5774 0.5774
vn 0.4670 -0.5966 0.6526
vn 0.0000 0.0000 1.0000
vn 0.4670 0.5966 0.6526
vn 0.6657 -0.7089 0.2329
vn 0.9465 0.0000 0.3226
vn 0.6657 0.7089 0.2329
vn 0.6558 -0.7119 0.2512
vn 0.9412 0.0000 0.3379
vn 0.6558 0.7119 0.2512
vn 0.6425 -0.7129 0.2811
vn 0.9260 0.0000 0.3774
vn 0.6425 0.7129 0.2811
vn 0.6246 -0.7141 0.3161
vn 0.9057 0.0000 0.4239
vn 0.6246 0.7141 0.3161
vn 0.6000 -0.7157 0.3574
vn 0.8779 0.0000 0.4788
vn 0.6000 0.7157 0.3574
vn 0.5659 -0.7178 0.4056
vn 0.8392 0.0000 0.5438
vn 0.5659 0.7178 0.4056
vn 0.5178 -0.7205 0.4611
vn 0.7845 0.0000 0.6201
vn 0.5178 0.7205 0.4611
vn 0.4506 -0.7239 0.5225
vn 0.7065 0.0000 0.7077
vn 0.4506 0.7239 0.5225
vn 0.3584 -0.7276 0.5849
vn 0.5961 0.0000 0.8029
vn 0.3584 0.7276 0.5849
vn -0.1606 -0.9524 0.2590
vn 0.4447 0.0000 0.8957
vn -0.1606 0.9524 0.2590
vn -0.7149 -0.6987 0.0270
vn -0.7149 0.6987 0.0270
vn -0.7162 -0.6878 0.1183
vn -0.9971 0.0000 0.0755
vn -0.7162 0.6878 0.1183
vn -0.6834 -0.6845 0.2538
vn -0.9685 0.0000 0.2491
vn -0.6834 0.6845 0.2538
vn -0.6142 -0.6825 0.3961
vn -0.8963 0.0000 0.4434
vn -0.6142 0.6825 0.3961
vn -0.5101 -0.6828 0.5231
vn -0.7738 0.0000 0.6334
vn -0.5101 0.6828 0.5231
vn -0.3870 -0.6852 0.6171
vn -0.6138 0.0000 0.7895
vn -0.3870 0.6852 0.6171
vn -0.2656 -0.6886 0.6747
vn -0.4434 0.0000 0.8963
vn -0.2656 0.6886 0.6747
vn -0.1592 -0.6921 0.7040
vn -0.2865 0.0000 0.9581
vn -0.1592 0.6921 0.7040
vn -0.0718 -0.6951 0.7153
vn -0.1536 0.0000 0.9881
vn -0.0718 0.6951 0.7153
vn 0.0563 -0.6806 0.7305
vn -0.0457 0.0000 0.9990
vn 0.0563 0.6806 0.7305
vn 0.1983 0.0000 0.9801
vn -0.1040 -0.7260 0.6798
vn -0.2226 -0.7298 0.6464
vn -0.2316 0.0000 0.9728
vn -0.2226 0.7298 0.6464
vn -0.1040 0.7260 0.6798
vn -0.3493 -0.7325 0.5842
vn -0.4164 0.0000 0.9092
vn -0.3493 0.7325 0.5842
vn -0.4687 -0.7331 0.4928
vn -0.6039 0.0000 0.7971
vn -0.4687 0.7331 0.4928
vn -0.5650 -0.7312 0.3822
vn -0.7657 0.0000 0.6431
vn -0.5650 0.7312 0.3822
vn -0.6313 -0.7277 0.2681
vn -0.8819 0.0000 0.4714
vn -0.6313 0.7277 0.2681
vn -0.6702 -0.7239 0.1636
vn -0.9516 0.0000 0.3074
vn -0.6702 0.7239 0.1636
vn -0.6894 -0.7205 0.0747
vn -0.9862 0.0000 0.1657
vn -0.6894 0.7205 0.0747
vn -0.6971 -0.7170 0.0042
vn -0.9988 0.0000 0.0493
vn -0.6971 0.7170 0.0042
vn -0.6945 -0.7173 -0.0571
vn -0.9993 0.0000 -0.0374
vn -0.6945 0.7173 -0.0571
vn -0.6823 -0.7201 -0.1264
vn -0.9920 0.0000 -0.1262
vn -0.6823 0.7201 -0.1264
vn -0.6567 -0.7237 -0.2120
vn -0.9714 0.0000 -0.2376
vn -0.6567 0.7237 -0.2120
vn -0.6094 -0.7281 -0.3138
vn -0.9269 0.0000 -0.3752
vn -0.6094 0.7281 -0.3138
vn -0.5311 -0.7325 -0.4259
vn -0.8438 0.0000 -0.5367
vn -0.5311 0.7325 -0.4259
vn -0.4181 -0.7353 -0.5335
vn -0.7072 0.0000 -0.7070
vn -0.4181 0.7353 -0.5335
vn -0.2791 -0.7350 -0.6180
vn -0.5174 0.0000 -0.8557
vn -0.2791 0.7350 -0.6180
vn -0.1343 -0.7318 -0.6682
vn -0.2999 0.0000 -0.9540
vn -0.1343 0.7318 -0.6682
vn -0.0074 -0.7259 -0.6878
vn -0.0921 0.0000 -0.9958
vn -0.0074 0.7259 -0.6878
vn 0.1051 -0.7262 -0.6794
vn 0.0706 0.0000 -0.9975
vn 0.1051 0.7262 -0.6794
vn 0.2247 -0.7300 -0.6455
vn 0.2341 0.0000 -0.9722
vn 0.2247 0.7300 -0.6455
vn 0.3520 -0.7327 -0.5825
vn 0.4201 0.0000 -0.9075
vn 0.3520 0.7327 -0.5825
vn 0.4713 -0.7331 -0.4903
vn 0.6081 0.0000 -0.7938
vn 0.4713 0.7331 -0.4903
vn 0.5670 -0.7311 -0.3794
vn 0.7692 0.0000 -0.6390
vn 0.5670 0.7311 -0.3794
vn 0.6325 -0.7276 -0.2658
vn 0.8841 0.0000 -0.4674
vn 0.6325 0.7276 -0.2658
vn 0.6708 -0.7237 -0.1620
vn 0.9526 0.0000 -0.3044
vn 0.6708 0.7237 -0.1620
vn 0.6896 -0.7204 -0.0739
vn 0.9865 0.0000 -0.1639
vn 0.6896 0.7204 -0.0739
vn 0.7013 -0.7126 -0.0171
vn 0.9988 0.0000 -0.0488
vn 0.7013 0.7126 -0.0171
vn 0.2788 -0.9126 0.2990
vn 0.2788 0.9126 0.2990
vn -0.0699 0.0000 0.9976
vn -0.0999 -0.7252 0.6812
vn -0.2146 -0.7290 0.6500
vn -0.2225 0.0000 0.9749
vn -0.2146 0.7290 0.6500
vn -0.0999 0.7252 0.6812
vn -0.3389 -0.7320 0.5910
vn -0.4018 0.0000 0.9157
vn -0.3389 0.7320 0.5910
vn -0.4584 -0.7330 0.5025
vn -0.5875 0.0000 0.8092
vn -0.4584 0.7330 0.5025
vn -0.5571 -0.7316 0.3929
vn -0.7520 0.0000 0.6592
vn -0.5571 0.7316 0.3929
vn -0.6265 -0.7283 0.2775
vn -0.8733 0.0000 0.4872
vn -0.6265 0.7283 0.2775
vn -0.6679 -0.7246 0.1701
vn -0.9476 0.0000 0.3195
vn -0.6679 0.7246 0.1701
vn -0.6885 -0.7211 0.0778
vn -0.9850 0.0000 0.1727
vn -0.6885 0.7211 0.0778
vn -0.6952 -0.7188 0.0003
vn -0.9987 0.0000 0.0515
vn -0.6952 0.7188 0.0003
vn -0.6888 -0.7209 -0.0767
vn -0.9987 0.0000 -0.0507
vn -0.6888 0.7209 -0.0767
vn -0.6687 -0.7243 -0.1678
vn -0.9854 0.0000 -0.1702
vn -0.6687 0.7243 -0.1678
vn -0.6282 -0.7281 -0.2743
vn -0.9490 0.0000 -0.3153
vn -0.6282 0.7281 -0.2743
vn -0.5599 -0.7315 -0.3892
vn -0.8763 0.0000 -0.4817
vn -0.5599 0.7315 -0.3892
vn -0.4619 -0.7331 -0.4992
vn -0.7568 0.0000 -0.6537
vn -0.4619 0.7331 -0.4992
vn -0.3425 -0.7322 -0.5887
vn -0.5931 0.0000 -0.8051
vn -0.3425 0.7322 -0.5887
vn -0.2173 -0.7293 -0.6488
vn -0.4068 0.0000 -0.9135
vn -0.2173 0.7293 -0.6488
vn -0.1013 -0.7255 -0.6807
vn -0.2256 0.0000 -0.9742
vn -0.1013 0.7255 -0.6807
vn 0.0004 -0.7229 -0.6910
vn -0.0679 0.0000 -0.9977
vn 0.0004 0.7229 -0.6910
vn 0.1030 -0.7258 -0.6802
vn 0.0691 0.0000 -0.9976
vn 0.1030 0.7258 -0.6802
vn 0.2205 -0.7296 -0.6474
vn 0.2293 0.0000 -0.9734
vn 0.2205 0.7296 -0.6474
vn 0.3467 -0.7324 -0.5860
vn 0.4126 0.0000 -0.9109
vn 0.3467 0.7324 -0.5860
vn 0.4661 -0.7331 -0.4953
vn 0.5997 0.0000 -0.8002
vn 0.4661 0.7331 -0.4953
vn 0.5630 -0.7313 -0.3849
vn 0.7623 0.0000 -0.6473
vn 0.5630 0.7313 -0.3849
vn 0.6301 -0.7279 -0.2705
vn 0.8798 0.0000 -0.4754
vn 0.6301 0.7279 -0.2705
vn 0.6696 -0.7241 -0.1653
vn 0.9506 0.0000 -0.3105
vn 0.6696 0.7241 -0.1653
vn 0.6892 -0.7207 -0.0755
vn 0.9859 0.0000 -0.1674
vn 0.6892 0.7207 -0.0755
vn 0.6954 -0.7186 0.0003
vn 0.9988 0.0000 -0.0499
vn 0.6954 0.7186 0.0003
vn 0.6888 -0.7209 0.0765
vn 0.9987 0.0000 0.0506
vn 0.6888 0.7209 0.0765
vn 0.6688 -0.7243 0.1675
vn 0.9855 0.0000 0.1698
vn 0.6688 0.7243 0.1675
vn 0.6284 -0.7281 0.2738
vn 0.9492 0.0000 0.3146
vn 0.6284 0.7281 0.2738
vn 0.5603 -0.7314 0.3886
vn 0.8768 0.0000 0.4808
vn 0.5603 0.7314 0.3886
vn 0.4625 -0.7331 0.4987
vn 0.7575 0.0000 0.6528
vn 0.4625 0.7331 0.4987
vn 0.3431 -0.7322 0.5883
vn 0.5941 0.0000 0.8044
vn 0.3431 0.7322 0.5883
vn 0.2178 -0.7293 0.6486
vn 0.4076 0.0000 0.9132
vn 0.2178 0.7293 0.6486
vn 0.1016 -0.7255 0.6807
vn 0.2261 0.0000 0.9741
vn 0.1016 0.7255 0.6807
vn 0.0004 -0.7226 0.6912
vn 0.0681 0.0000 0.9977
vn 0.0004 0.7226 0.6912
vn -0.0670 0.0000 0.9978
vn 0.0000 -1.0000 -0.0000
vn 0.0000 1.0000 -0.0000
# 678 vertex normals

o No_Neen
g No_Neen
s 1
f 1//1 2//2 3//3 
f 2//2 4//4 3//3 
f 4//4 5//5 3//3 
f 5//5 1//1 3//3 
s 3
f 2//2 6//6 7//7 
f 6//6 8//8 7//7 
f 8//8 4//4 7//7 
f 4//4 2//2 7//7 
s 2
f 6//6 9//9 10//10 
f 9//9 11//11 10//10 
f 11//11 8//8 10//10 
f 8//8 6//6 10//10 
f 9//9 12//12 13//13 
f 12//12 14//14 13//13 
f 14//14 11//11 13//13 
f 11//11 9//9 13//13 
f 12//12 15//15 16//16 
f 15//15 17//17 16//16 
f 17//17 14//14 16//16 
f 14//14 12//12 16//16 
f 15//15 18//18 19//19 
f 18//18 20//20 19//19 
f 20//20 17//17 19//19 
f 17//17 15//15 19//19 
f 18//18 21//21 22//22 
f 21//21 23//23 22//22 
f 23//23 20//20 22//22 
f 20//20 18//18 22//22 
f 21//21 24//24 25//25 
f 24//24 26//26 25//25 
f 26//26 23//23 25//25 
f 23//23 21//21 25//25 
f 24//24 27//27 28//28 
f 27//27 29//29 28//28 
f 29//29 26//26 28//28 
f 26//26 24//24 28//28 
f 27//27 30//30 31//31 
f 30//30 32//32 31//31 
f 32//32 29//29 31//31 
f 29//29 27//27 31//31 
f 30//30 33//33 34//34 
f 33//33 35//35 34//34 
f 35//35 32//32 34//34 
f 32//32 30//30 34//34 
f 33//33 36//36 37//37 
f 36//36 38//38 37//37 
f 38//38 35//35 37//37 
f 35//35 33//33 37//37 
f 36//36 39//39 40//40 
f 39//39 41//41 40//40 
f 41//41 38//38 40//40 
f 38//38 36//36 40//40 
f 39//39 42//42 43//43 
f 42//42 44//44 43//43 
f 44//44 41//41 43//43 
f 41//41 39//39 43//43 
f 42//42 45//45 46//46 
f 45//45 47//47 46//46 
f 47//47 44//44 46//46 
f 44//44 42//42 46//46 
f 45//45 48//48 49//49 
f 48//48 50//50 49//49 
f 50//50 47//47 49//49 
f 47//47 45//45 49//49 
f 48//48 51//51 52//52 
f 51//51 53//53 52//52 
f 53//53 50//50 52//52 
f 50//50 48//48 52//52 
f 51//51 54//54 55//55 
f 54//54 56//56 55//55 
f 56//56 53//53 55//55 
f 53//53 51//51 55//55 
f 54//54 57//57 58//58 
f 57//57 59//59 58//58 
f 59//59 56//56 58//58 
f 56//56 54//54 58//58 
f 57//57 60//60 61//61 
f 60//60 62//62 61//61 
f 62//62 59//59 61//61 
f 59//59 57//57 61//61 
f 60//60 63//63 64//64 
f 63//63 65//65 64//64 
f 65//65 62//62 64//64 
f 62//62 60//60 64//64 
f 63//63 66//66 67//67 
f 66//66 68//68 67//67 
f 68//68 65//65 67//67 
f 65//65 63//63 67//67 
f 66//66 69//69 70//70 
f 69//69 71//71 70//70 
f 71//71 68//68 70//70 
f 68//68 66//66 70//70 
f 69//69 72//72 73//73 
f 72//72 74//74 73//73 
f 74//74 71//71 73//73 
f 71//71 69//69 73//73 
f 72//72 75//75 76//76 
f 75//75 77//77 76//76 
f 77//77 74//74 76//76 
f 74//74 72//72 76//76 
f 75//75 78//78 79//79 
f 78//78 80//80 79//79 
f 80//80 77//77 79//79 
f 77//77 75//75 79//79 
s 4
f 78//78 81//81 82//82 
f 81//81 83//83 82//82 
f 83//83 80//80 82//82 
f 80//80 78//78 82//82 
s 2
f 81//81 84//84 85//85 
f 84//84 86//86 85//85 
f 86//86 83//83 85//85 
f 83//83 81//81 85//85 
s 4
f 84//84 87//87 88//88 
f 87//87 89//89 88//88 
f 89//89 86//86 88//88 
f 86//86 84//84 88//88 
s 2
f 87//87 90//90 91//91 
f 90//90 92//92 91//91 
f 92//92 89//89 91//91 
f 89//89 87//87 91//91 
s 4
f 90//90 93//93 94//94 
f 93//93 95//95 94//94 
f 95//95 92//92 94//94 
f 92//92 90//90 94//94 
f 93//93 96//96 97//97 
f 96//96 98//98 97//97 
f 98//98 95//95 97//97 
f 95//95 93//93 97//97 
f 96//96 99//99 100//100 
f 99//99 101//101 100//100 
f 101//101 98//98 100//100 
f 98//98 96//96 100//100 
f 99//99 102//102 103//103 
f 102//102 104//104 103//103 
f 104//104 101//101 103//103 
f 101//101 99//99 103//103 
f 102//102 105//105 106//106 
f 105//105 107//107 106//106 
f 107//107 104//104 106//106 
f 104//104 102//102 106//106 
f 105//105 108//108 109//109 
f 108//108 110//110 109//109 
f 110//110 107//107 109//109 
f 107//107 105//105 109//109 
f 108//108 111//111 112//112 
f 111//111 113//113 112//112 
f 113//113 110//110 112//112 
f 110//110 108//108 112//112 
f 111//111 114//114 115//115 
f 114//114 116//116 115//115 
f 116//116 113//113 115//115 
f 113//113 111//111 115//115 
f 114//114 117//117 118//118 
f 117//117 119//119 118//118 
f 119//119 116//116 118//118 
f 116//116 114//114 118//118 
s 2
f 117//117 120//120 121//85 
f 120//120 122//121 121//85 
f 122//121 119//119 121//85 
f 119//119 117//117 121//85 
s 4
f 120//120 123//122 124//123 
f 123//122 125//124 124//123 
f 125//124 122//121 124//123 
f 122//121 120//120 124//123 
f 123//122 126//125 127//126 
f 126//125 128//127 127//126 
f 128//127 125//124 127//126 
f 125//124 123//122 127//126 
f 126//125 129//128 130//129 
f 129//128 131//130 130//129 
f 131//130 128//127 130//129 
f 128//127 126//125 130//129 
f 129//128 132//131 133//132 
f 132//131 134//133 133//132 
f 134//133 131//130 133//132 
f 131//130 129//128 133//132 
f 132//131 135//134 136//135 
f 135//134 137//136 136//135 
f 137//136 134//133 136//135 
f 134//133 132//131 136//135 
f 135//134 138//137 139//138 
f 138//137 140//139 139//138 
f 140//139 137//136 139//138 
f 137//136 135//134 139//138 
f 138//137 141//140 142//141 
f 141//140 143//142 142//141 
f 143//142 140//139 142//141 
f 140//139 138//137 142//141 
f 141//140 144//143 145//144 
f 144//143 146//145 145//144 
f 146//145 143//142 145//144 
f 143//142 141//140 145//144 
f 144//143 147//146 148//147 
f 147//146 149//148 148//147 
f 149//148 146//145 148//147 
f 146//145 144//143 148//147 
f 147//146 150//149 151//150 
f 150//149 152//151 151//150 
f 152//151 149//148 151//150 
f 149//148 147//146 151//150 
f 150//149 153//152 154//153 
f 153//152 155//154 154//153 
f 155//154 152//151 154//153 
f 152//151 150//149 154//153 
f 153//152 156//155 157//156 
f 156//155 158//157 157//156 
f 158//157 155//154 157//156 
f 155//154 153//152 157//156 
f 156//155 159//158 160//159 
f 159//158 161//160 160//159 
f 161//160 158//157 160//159 
f 158//157 156//155 160//159 
f 159//158 162//161 163//162 
f 162//161 164//163 163//162 
f 164//163 161//160 163//162 
f 161//160 159//158 163//162 
f 162//161 165//164 166//165 
f 165//164 167//166 166//165 
f 167//166 164//163 166//165 
f 164//163 162//161 166//165 
f 165//164 168//167 169//100 
f 168//167 170//168 169//100 
f 170//168 167//166 169//100 
f 167//166 165//164 169//100 
f 168//167 171//169 172//170 
f 171//169 173//171 172//170 
f 173//171 170//168 172//170 
f 170//168 168//167 172//170 
f 171//169 174//172 175//173 
f 174//172 176//174 175//173 
f 176//174 173//171 175//173 
f 173//171 171//169 175//173 
s 2
f 174//172 177//175 178//176 
f 177//175 179//177 178//176 
f 179//177 176//174 178//176 
f 176//174 174//172 178//176 
f 177//175 180//178 181//179 
f 180//178 182//180 181//179 
f 182//180 179//177 181//179 
f 179//177 177//175 181//179 
f 180//178 183//181 184//182 
f 183//181 185//183 184//182 
f 185//183 182//180 184//182 
f 182//180 180//178 184//182 
f 183//181 186//184 187//185 
f 186//184 188//186 187//185 
f 188//186 185//183 187//185 
f 185//183 183//181 187//185 
f 186//184 189//187 190//188 
f 189//187 191//189 190//188 
f 191//189 188//186 190//188 
f 188//186 186//184 190//188 
f 189//187 192//190 193//191 
f 192//190 194//192 193//191 
f 194//192 191//189 193//191 
f 191//189 189//187 193//191 
f 192//190 195//193 196//194 
f 195//193 197//195 196//194 
f 197//195 194//192 196//194 
f 194//192 192//190 196//194 
f 195//193 198//196 199//197 
f 198//196 200//198 199//197 
f 200//198 197//195 199//197 
f 197//195 195//193 199//197 
f 198//196 201//199 202//200 
f 201//199 203//201 202//200 
f 203//201 200//198 202//200 
f 200//198 198//196 202//200 
s 4
f 201//199 204//202 205//203 
f 204//202 206//204 205//203 
f 206//204 203//201 205//203 
f 203//201 201//199 205//203 
f 204//202 207//205 208//206 
f 207//205 209//207 208//206 
f 209//207 206//204 208//206 
f 206//204 204//202 208//206 
f 207//205 210//208 211//209 
f 210//208 212//210 211//209 
f 212//210 209//207 211//209 
f 209//207 207//205 211//209 
f 210//208 213//211 214//212 
f 213//211 215//213 214//212 
f 215//213 212//210 214//212 
f 212//210 210//208 214//212 
f 213//211 216//214 217//215 
f 216//214 218//216 217//215 
f 218//216 215//213 217//215 
f 215//213 213//211 217//215 
f 216//214 219//217 220//218 
f 219//217 221//219 220//218 
f 221//219 218//216 220//218 
f 218//216 216//214 220//218 
f 219//217 222//220 223//221 
f 222//220 224//222 223//221 
f 224//222 221//219 223//221 
f 221//219 219//217 223//221 
f 222//220 225//223 226//224 
f 225//223 227//225 226//224 
f 227//225 224//222 226//224 
f 224//222 222//220 226//224 
f 225//223 228//226 229//227 
f 228//226 230//228 229//227 
f 230//228 227//225 229//227 
f 227//225 225//223 229//227 
s 2
f 228//226 231//229 232//91 
f 231//229 233//230 232//91 
f 233//230 230//228 232//91 
f 230//228 228//226 232//91 
s 4
f 231//229 234//231 235//232 
f 234//231 236//233 235//232 
f 236//233 233//230 235//232 
f 233//230 231//229 235//232 
f 234//231 237//234 238//235 
f 237//234 239//236 238//235 
f 239//236 236//233 238//235 
f 236//233 234//231 238//235 
f 237//234 240//237 241//238 
f 240//237 242//239 241//238 
f 242//239 239//236 241//238 
f 239//236 237//234 241//238 
f 240//237 243//240 244//241 
f 243//240 245//242 244//241 
f 245//242 242//239 244//241 
f 242//239 240//237 244//241 
f 243//240 246//243 247//244 
f 246//243 248//245 247//244 
f 248//245 245//242 247//244 
f 245//242 243//240 247//244 
f 246//243 249//246 250//247 
f 249//246 251//248 250//247 
f 251//248 248//245 250//247 
f 248//245 246//243 250//247 
f 249//246 252//249 253//250 
f 252//249 254//251 253//250 
f 254//251 251//248 253//250 
f 251//248 249//246 253//250 
f 252//249 255//252 256//253 
f 255//252 257//254 256//253 
f 257//254 254//251 256//253 
f 254//251 252//249 256//253 
f 255//252 258//255 259//256 
f 258//255 260//257 259//256 
f 260//257 257//254 259//256 
f 257//254 255//252 259//256 
f 258//255 261//258 262//259 
f 261//258 263//260 262//259 
f 263//260 260//257 262//259 
f 260//257 258//255 262//259 
f 261//258 264//261 265//262 
f 264//261 266//263 265//262 
f 266//263 263//260 265//262 
f 263//260 261//258 265//262 
f 264//261 267//264 268//265 
f 267//264 269//266 268//265 
f 269//266 266//263 268//265 
f 266//263 264//261 268//265 
f 267//264 270//267 271//268 
f 270//267 272//269 271//268 
f 272//269 269//266 271//268 
f 269//266 267//264 271//268 
f 270//267 273//270 274//271 
f 273//270 275//272 274//271 
f 275//272 272//269 274//271 
f 272//269 270//267 274//271 
f 273//270 276//273 277//274 
f 276//273 278//275 277//274 
f 278//275 275//272 277//274 
f 275//272 273//270 277//274 
f 276//273 279//276 280//277 
f 279//276 281//278 280//277 
f 281//278 278//275 280//277 
f 278//275 276//273 280//277 
f 279//276 282//279 283//280 
f 282//279 284//281 283//280 
f 284//281 281//278 283//280 
f 281//278 279//276 283//280 
f 282//279 285//282 286//283 
f 285//282 287//284 286//283 
f 287//284 284//281 286//283 
f 284//281 282//279 286//283 
f 285//282 288//285 289//286 
f 288//285 290//287 289//286 
f 290//287 287//284 289//286 
f 287//284 285//282 289//286 
f 288//285 291//288 292//289 
f 291//288 293//290 292//289 
f 293//290 290//287 292//289 
f 290//287 288//285 292//289 
f 291//288 294//291 295//292 
f 294//291 296//293 295//292 
f 296//293 293//290 295//292 
f 293//290 291//288 295//292 
f 294//291 297//294 298//295 
f 297//294 299//296 298//295 
f 299//296 296//293 298//295 
f 296//293 294//291 298//295 
f 297//294 300//297 301//298 
f 300//297 302//299 301//298 
f 302//299 299//296 301//298 
f 299//296 297//294 301//298 
f 300//297 303//300 304//301 
f 303//300 305//302 304//301 
f 305//302 302//299 304//301 
f 302//299 300//297 304//301 
f 303//300 306//303 307//304 
f 306//303 308//305 307//304 
f 308//305 305//302 307//304 
f 305//302 303//300 307//304 
f 306//303 309//306 310//307 
f 309//306 311//308 310//307 
f 311//308 308//305 310//307 
f 308//305 306//303 310//307 
f 309//306 312//309 313//310 
f 312//309 314//311 313//310 
f 314//311 311//308 313//310 
f 311//308 309//306 313//310 
s 2
f 312//309 315//312 316//85 
f 315//312 317//313 316//85 
f 317//313 314//311 316//85 
f 314//311 312//309 316//85 
s 4
f 315//312 318//314 319//315 
f 318//314 320//316 319//315 
f 320//316 317//313 319//315 
f 317//313 315//312 319//315 
f 318//314 321//317 322//318 
f 321//317 323//319 322//318 
f 323//319 320//316 322//318 
f 320//316 318//314 322//318 
f 321//317 324//320 325//321 
f 324//320 326//322 325//321 
f 326//322 323//319 325//321 
f 323//319 321//317 325//321 
f 324//320 327//323 328//324 
f 327//323 329//325 328//324 
f 329//325 326//322 328//324 
f 326//322 324//320 328//324 
f 327//323 330//326 331//327 
f 330//326 332//328 331//327 
f 332//328 329//325 331//327 
f 329//325 327//323 331//327 
f 330//326 333//329 334//330 
f 333//329 335//331 334//330 
f 335//331 332//328 334//330 
f 332//328 330//326 334//330 
f 333//329 336//332 337//333 
f 336//332 338//334 337//333 
f 338//334 335//331 337//333 
f 335//331 333//329 337//333 
f 336//332 339//335 340//336 
f 339//335 341//337 340//336 
f 341//337 338//334 340//336 
f 338//334 336//332 340//336 
f 339//335 342//338 343//339 
f 342//338 344//340 343//339 
f 344//340 341//337 343//339 
f 341//337 339//335 343//339 
s 2
f 342//338 345//341 346//132 
f 345//341 347//342 346//132 
f 347//342 344//340 346//132 
f 344//340 342//338 346//132 
f 345//341 348//343 349//344 
f 348//343 350//345 349//344 
f 350//345 347//342 349//344 
f 347//342 345//341 349//344 
f 348//343 351//346 352//347 
f 351//346 353//348 352//347 
f 353//348 350//345 352//347 
f 350//345 348//343 352//347 
f 351//346 354//349 355//350 
f 354//349 356//351 355//350 
f 356//351 353//348 355//350 
f 353//348 351//346 355//350 
f 354//349 357//352 358//353 
f 357//352 359//354 358//353 
f 359//354 356//351 358//353 
f 356//351 354//349 358//353 
f 357//352 360//355 361//356 
f 360//355 362//357 361//356 
f 362//357 359//354 361//356 
f 359//354 357//352 361//356 
f 360//355 363//358 364//359 
f 363//358 365//360 364//359 
f 365//360 362//357 364//359 
f 362//357 360//355 364//359 
f 363//358 366//361 367//362 
f 366//361 368//363 367//362 
f 368//363 365//360 367//362 
f 365//360 363//358 367//362 
f 366//361 369//364 370//365 
f 369//364 371//366 370//365 
f 371//366 368//363 370//365 
f 368//363 366//361 370//365 
s 4
f 369//364 372//367 373//368 
f 372//367 374//369 373//368 
f 374//369 371//366 373//368 
f 371//366 369//364 373//368 
f 372//367 375//370 376//371 
f 375//370 377//372 376//371 
f 377//372 374//369 376//371 
f 374//369 372//367 376//371 
f 375//370 378//373 379//374 
f 378//373 380//375 379//374 
f 380//375 377//372 379//374 
f 377//372 375//370 379//374 
f 378//373 381//376 382//377 
f 381//376 383//378 382//377 
f 383//378 380//375 382//377 
f 380//375 378//373 382//377 
f 381//376 384//379 385//380 
f 384//379 386//381 385//380 
f 386//381 383//378 385//380 
f 383//378 381//376 385//380 
f 384//379 387//382 388//383 
f 387//382 389//384 388//383 
f 389//384 386//381 388//383 
f 386//381 384//379 388//383 
f 387//382 390//385 391//386 
f 390//385 392//387 391//386 
f 392//387 389//384 391//386 
f 389//384 387//382 391//386 
f 390//385 393//388 394//389 
f 393//388 395//390 394//389 
f 395//390 392//387 394//389 
f 392//387 390//385 394//389 
f 393//388 396//391 397//392 
f 396//391 398//393 397//392 
f 398//393 395//390 397//392 
f 395//390 393//388 397//392 
f 396//391 399//394 400//395 
f 399//394 401//396 400//395 
f 401//396 398//393 400//395 
f 398//393 396//391 400//395 
f 399//394 402//397 403//398 
f 402//397 404//399 403//398 
f 404//399 401//396 403//398 
f 401//396 399//394 403//398 
f 402//397 405//400 406//401 
f 405//400 407//402 406//401 
f 407//402 404//399 406//401 
f 404//399 402//397 406//401 
f 405//400 408//403 409//404 
f 408//403 410//405 409//404 
f 410//405 407//402 409//404 
f 407//402 405//400 409//404 
f 408//403 411//406 412//407 
f 411//406 413//408 412//407 
f 413//408 410//405 412//407 
f 410//405 408//403 412//407 
f 411//406 414//409 415//410 
f 414//409 416//411 415//410 
f 416//411 413//408 415//410 
f 413//408 411//406 415//410 
f 414//409 417//412 418//413 
f 417//412 419//414 418//413 
f 419//414 416//411 418//413 
f 416//411 414//409 418//413 
f 417//412 420//415 421//416 
f 420//415 422//417 421//416 
f 422//417 419//414 421//416 
f 419//414 417//412 421//416 
f 420//415 423//418 424//419 
f 423//418 425//420 424//419 
f 425//420 422//417 424//419 
f 422//417 420//415 424//419 
s 2
f 423//418 426//421 427//91 
f 426//421 428//422 427//91 
f 428//422 425//420 427//91 
f 425//420 423//418 427//91 
s 4
f 426//421 429//423 430//424 
f 429//423 431//425 430//424 
f 431//425 428//422 430//424 
f 428//422 426//421 430//424 
s 2
f 429//423 432//426 433//427 
f 432//426 434//428 433//427 
f 434//428 431//425 433//427 
f 431//425 429//423 433//427 
s 4
f 432//426 435//429 436//430 
f 435//429 437//431 436//430 
f 437//431 434//428 436//430 
f 434//428 432//426 436//430 
f 435//429 438//432 439//433 
f 438//432 440//434 439//433 
f 440//434 437//431 439//433 
f 437//431 435//429 439//433 
f 438//432 441//435 442//436 
f 441//435 443//437 442//436 
f 443//437 440//434 442//436 
f 440//434 438//432 442//436 
f 441//435 444//438 445//439 
f 444//438 446//440 445//439 
f 446//440 443//437 445//439 
f 443//437 441//435 445//439 
f 444//438 447//441 448//442 
f 447//441 449//443 448//442 
f 449//443 446//440 448//442 
f 446//440 444//438 448//442 
f 447//441 450//444 451//445 
f 450//444 452//446 451//445 
f 452//446 449//443 451//445 
f 449//443 447//441 451//445 
f 450//444 453//447 454//448 
f 453//447 455//449 454//448 
f 455//449 452//446 454//448 
f 452//446 450//444 454//448 
f 453//447 456//450 457//451 
f 456//450 458//452 457//451 
f 458//452 455//449 457//451 
f 455//449 453//447 457//451 
f 456//450 459//453 460//454 
f 459//453 461//455 460//454 
f 461//455 458//452 460//454 
f 458//452 456//450 460//454 
s 2
f 459//453 462//456 463//91 
f 462//456 464//457 463//91 
f 464//457 461//455 463//91 
f 461//455 459//453 463//91 
s 4
f 462//456 465//458 466//459 
f 465//458 467//460 466//459 
f 467//460 464//457 466//459 
f 464//457 462//456 466//459 
f 465//458 468//461 469//462 
f 468//461 470//463 469//462 
f 470//463 467//460 469//462 
f 467//460 465//458 469//462 
f 468//461 471//464 472//465 
f 471//464 473//466 472//465 
f 473//466 470//463 472//465 
f 470//463 468//461 472//465 
f 471//464 474//467 475//468 
f 474//467 476//469 475//468 
f 476//469 473//466 475//468 
f 473//466 471//464 475//468 
f 474//467 477//470 478//471 
f 477//470 479//472 478//471 
f 479//472 476//469 478//471 
f 476//469 474//467 478//471 
f 477//470 480//473 481//474 
f 480//473 482//475 481//474 
f 482//475 479//472 481//474 
f 479//472 477//470 481//474 
f 480//473 483//476 484//477 
f 483//476 485//478 484//477 
f 485//478 482//475 484//477 
f 482//475 480//473 484//477 
f 483//476 486//479 487//480 
f 486//479 488//481 487//480 
f 488//481 485//478 487//480 
f 485//478 483//476 487//480 
f 486//479 489//482 490//483 
f 489//482 491//484 490//483 
f 491//484 488//481 490//483 
f 488//481 486//479 490//483 
s 3
f 489//482 1//1 492//485 
f 1//1 5//5 492//485 
f 5//5 491//484 492//485 
f 491//484 489//482 492//485 
s 1
f 493//486 494//487 495//488 
f 494//487 496//489 495//488 
f 496//489 497//490 495//488 
f 497//490 493//486 495//488 
s 3
f 494//487 498//491 499//492 
f 498//491 500//493 499//492 
f 500//493 496//489 499//492 
f 496//489 494//487 499//492 
s 2
f 498//491 501//494 502//495 
f 501//494 503//496 502//495 
f 503//496 500//493 502//495 
f 500//493 498//491 502//495 
f 501//494 504//497 505//498 
f 504//497 506//499 505//498 
f 506//499 503//496 505//498 
f 503//496 501//494 505//498 
f 504//497 507//500 508//501 
f 507//500 509//502 508//501 
f 509//502 506//499 508//501 
f 506//499 504//497 508//501 
f 507//500 510//503 511//504 
f 510//503 512//505 511//504 
f 512//505 509//502 511//504 
f 509//502 507//500 511//504 
f 510//503 513//506 514//507 
f 513//506 515//508 514//507 
f 515//508 512//505 514//507 
f 512//505 510//503 514//507 
f 513//506 516//509 517//510 
f 516//509 518//511 517//510 
f 518//511 515//508 517//510 
f 515//508 513//506 517//510 
f 516//509 519//512 520//513 
f 519//512 521//514 520//513 
f 521//514 518//511 520//513 
f 518//511 516//509 520//513 
f 519//512 522//515 523//516 
f 522//515 524//517 523//516 
f 524//517 521//514 523//516 
f 521//514 519//512 523//516 
f 522//515 525//518 526//519 
f 525//518 527//520 526//519 
f 527//520 524//517 526//519 
f 524//517 522//515 526//519 
f 525//518 528//521 529//522 
f 528//521 530//523 529//522 
f 530//523 527//520 529//522 
f 527//520 525//518 529//522 
f 528//521 531//524 532//525 
f 531//524 533//526 532//525 
f 533//526 530//523 532//525 
f 530//523 528//521 532//525 
f 531//524 534//527 535//528 
f 534//527 536//529 535//528 
f 536//529 533//526 535//528 
f 533//526 531//524 535//528 
f 534//527 537//530 538//531 
f 537//530 539//532 538//531 
f 539//532 536//529 538//531 
f 536//529 534//527 538//531 
f 537//530 540//533 541//534 
f 540//533 542//535 541//534 
f 542//535 539//532 541//534 
f 539//532 537//530 541//534 
f 540//533 543//536 544//537 
f 543//536 545//538 544//537 
f 545//538 542//535 544//537 
f 542//535 540//533 544//537 
f 543//536 546//539 547//540 
f 546//539 548//541 547//540 
f 548//541 545//538 547//540 
f 545//538 543//536 547//540 
f 546//539 549//542 550//543 
f 549//542 551//544 550//543 
f 551//544 548//541 550//543 
f 548//541 546//539 550//543 
f 549//542 552//545 553//546 
f 552//545 554//547 553//546 
f 554//547 551//544 553//546 
f 551//544 549//542 553//546 
f 552//545 555//548 556//549 
f 555//548 557//550 556//549 
f 557//550 554//547 556//549 
f 554//547 552//545 556//549 
f 555//548 558//551 559//552 
f 558//551 560//553 559//552 
f 560//553 557//550 559//552 
f 557//550 555//548 559//552 
f 558//551 561//554 562//555 
f 561//554 563//556 562//555 
f 563//556 560//553 562//555 
f 560//553 558//551 562//555 
f 561//554 564//557 565//558 
f 564//557 566//559 565//558 
f 566//559 563//556 565//558 
f 563//556 561//554 565//558 
f 564//557 567//560 568//561 
f 567//560 569//562 568//561 
f 569//562 566//559 568//561 
f 566//559 564//557 568//561 
f 567//560 570//563 571//564 
f 570//563 572//565 571//564 
f 572//565 569//562 571//564 
f 569//562 567//560 571//564 
s 4
f 570//563 573//566 574//85 
f 573//566 575//567 574//85 
f 575//567 572//565 574//85 
f 572//565 570//563 574//85 
s 3
f 573//566 493//486 576//568 
f 493//486 497//490 576//568 
f 497//490 575//567 576//568 
f 575//567 573//566 576//568 
s 1
f 577//569 578//570 579//571 
f 578//570 580//572 579//571 
f 580//572 581//573 579//571 
f 581//573 577//569 579//571 
s 3
f 578//570 582//574 583//575 
f 582//574 584//576 583//575 
f 584//576 580//572 583//575 
f 580//572 578//570 583//575 
s 2
f 582//574 585//577 586//578 
f 585//577 587//579 586//578 
f 587//579 584//576 586//578 
f 584//576 582//574 586//578 
f 585//577 588//580 589//581 
f 588//580 590//582 589//581 
f 590//582 587//579 589//581 
f 587//579 585//577 589//581 
f 588//580 591//583 592//584 
f 591//583 593//585 592//584 
f 593//585 590//582 592//584 
f 590//582 588//580 592//584 
f 591//583 594//586 595//587 
f 594//586 596//588 595//587 
f 596//588 593//585 595//587 
f 593//585 591//583 595//587 
f 594//586 597//589 598//590 
f 597//589 599//591 598//590 
f 599//591 596//588 598//590 
f 596//588 594//586 598//590 
f 597//589 600//592 601//593 
f 600//592 602//594 601//593 
f 602//594 599//591 601//593 
f 599//591 597//589 601//593 
f 600//592 603//595 604//596 
f 603//595 605//597 604//596 
f 605//597 602//594 604//596 
f 602//594 600//592 604//596 
f 603//595 606//598 607//599 
f 606//598 608//600 607//599 
f 608//600 605//597 607//599 
f 605//597 603//595 607//599 
f 606//598 609//601 610//602 
f 609//601 611//603 610//602 
f 611//603 608//600 610//602 
f 608//600 606//598 610//602 
f 609//601 612//604 613//605 
f 612//604 614//606 613//605 
f 614//606 611//603 613//605 
f 611//603 609//601 613//605 
f 612//604 615//607 616//608 
f 615//607 617//609 616//608 
f 617//609 614//606 616//608 
f 614//606 612//604 616//608 
f 615//607 618//610 619//611 
f 618//610 620//612 619//611 
f 620//612 617//609 619//611 
f 617//609 615//607 619//611 
f 618//610 621//613 622//614 
f 621//613 623//615 622//614 
f 623//615 620//612 622//614 
f 620//612 618//610 622//614 
f 621//613 624//616 625//617 
f 624//616 626//618 625//617 
f 626//618 623//615 625//617 
f 623//615 621//613 625//617 
f 624//616 627//619 628//620 
f 627//619 629//621 628//620 
f 629//621 626//618 628//620 
f 626//618 624//616 628//620 
f 627//619 630//622 631//623 
f 630//622 632//624 631//623 
f 632//624 629//621 631//623 
f 629//621 627//619 631//623 
f 630//622 633//625 634//626 
f 633//625 635//627 634//626 
f 635//627 632//624 634//626 
f 632//624 630//622 634//626 
f 633//625 636//628 637//629 
f 636//628 638//630 637//629 
f 638//630 635//627 637//629 
f 635//627 633//625 637//629 
f 636//628 639//631 640//632 
f 639//631 641//633 640//632 
f 641//633 638//630 640//632 
f 638//630 636//628 640//632 
f 639//631 642//634 643//635 
f 642//634 644//636 643//635 
f 644//636 641//633 643//635 
f 641//633 639//631 643//635 
f 642//634 645//637 646//638 
f 645//637 647//639 646//638 
f 647//639 644//636 646//638 
f 644//636 642//634 646//638 
f 645//637 648//640 649//641 
f 648//640 650//642 649//641 
f 650//642 647//639 649//641 
f 647//639 645//637 649//641 
f 648//640 651//643 652//644 
f 651//643 653//645 652//644 
f 653//645 650//642 652//644 
f 650//642 648//640 652//644 
f 651//643 654//646 655//647 
f 654//646 656//648 655//647 
f 656//648 653//645 655//647 
f 653//645 651//643 655//647 
f 654//646 657//649 658//650 
f 657//649 659//651 658//650 
f 659//651 656//648 658//650 
f 656//648 654//646 658//650 
f 657//649 660//652 661//653 
f 660//652 662//654 661//653 
f 662//654 659//651 661//653 
f 659//651 657//649 661//653 
f 660//652 663//655 664//656 
f 663//655 665//657 664//656 
f 665//657 662//654 664//656 
f 662//654 660//652 664//656 
f 663//655 666//658 667//659 
f 666//658 668//660 667//659 
f 668//660 665//657 667//659 
f 665//657 663//655 667//659 
f 666//658 669//661 670//662 
f 669//661 671//663 670//662 
f 671//663 668//660 670//662 
f 668//660 666//658 670//662 
f 669//661 672//664 673//665 
f 672//664 674//666 673//665 
f 674//666 671//663 673//665 
f 671//663 669//661 673//665 
f 672//664 675//667 676//668 
f 675//667 677//669 676//668 
f 677//669 674//666 676//668 
f 674//666 672//664 676//668 
f 675//667 678//670 679//671 
f 678//670 680//672 679//671 
f 680//672 677//669 679//671 
f 677//669 675//667 679//671 
f 678//670 681//673 682//674 
f 681//673 683//675 682//674 
f 683//675 680//672 682//674 
f 680//672 678//670 682//674 
s 3
f 681//673 577//569 684//676 
f 577//569 581//573 684//676 
f 581//573 683//675 684//676 
f 683//675 681//673 684//676 
s 16
f 339//335 348//343 685//677 
f 348//343 345//341 685//677 
f 345//341 342//338 685//677 
f 342//338 339//335 685//677 
f 353//348 356//351 686//678 
f 356//351 359//354 686//678 
f 359//354 362//357 686//678 
f 362//357 365//360 686//678 
f 365//360 368//363 686//678 
f 368//363 371//366 686//678 
f 371//366 200//198 686//678 
f 200//198 203//201 686//678 
f 203//201 335//331 686//678 
f 335//331 338//334 686//678 
f 338//334 353//348 686//678 
f 339//335 336//332 687//677 
f 336//332 351//346 687//677 
f 351//346 348//343 687//677 
f 348//343 339//335 687//677 
f 336//332 333//329 688//677 
f 333//329 201//199 688//677 
f 201//199 198//196 688//677 
f 198//196 363//358 688//677 
f 363//358 360//355 688//677 
f 360//355 357//352 688//677 
f 357//352 354//349 688//677 
f 354//349 351//346 688//677 
f 351//346 336//332 688//677 
f 333//329 330//326 689//677 
f 330//326 201//199 689//677 
f 201//199 333//329 689//677 
f 123//122 120//120 690//677 
f 120//120 117//117 690//677 
f 117//117 423//418 690//677 
f 423//418 420//415 690//677 
f 420//415 123//122 690//677 
f 195//193 192//190 691//677 
f 192//190 159//158 691//677 
f 159//158 156//155 691//677 
f 156//155 195//193 691//677 
f 96//96 93//93 692//677 
f 93//93 90//90 692//677 
f 90//90 573//566 692//677 
f 459//453 96//96 692//677 
f 117//117 435//429 693//677 
f 435//429 432//426 693//677 
f 432//426 423//418 693//677 
f 423//418 117//117 693//677 
f 420//415 417//412 694//677 
f 417//412 126//125 694//677 
f 126//125 123//122 694//677 
f 123//122 420//415 694//677 
f 417//412 414//409 695//677 
f 414//409 129//128 695//677 
f 129//128 126//125 695//677 
f 126//125 417//412 695//677 
f 414//409 411//406 696//677 
f 411//406 135//134 696//677 
f 135//134 132//131 696//677 
f 132//131 129//128 696//677 
f 129//128 414//409 696//677 
f 411//406 408//403 697//677 
f 408//403 138//137 697//677 
f 138//137 135//134 697//677 
f 135//134 411//406 697//677 
f 408//403 405//400 698//677 
f 405//400 141//140 698//677 
f 141//140 138//137 698//677 
f 138//137 408//403 698//677 
f 405//400 402//397 699//677 
f 402//397 144//143 699//677 
f 144//143 141//140 699//677 
f 141//140 405//400 699//677 
f 402//397 399//394 700//677 
f 399//394 144//143 700//677 
f 144//143 402//397 700//677 
f 399//394 396//391 701//677 
f 396//391 147//146 701//677 
f 147//146 144//143 701//677 
f 144//143 399//394 701//677 
f 396//391 393//388 702//677 
f 393//388 147//146 702//677 
f 147//146 396//391 702//677 
f 393//388 390//385 703//677 
f 390//385 150//149 703//677 
f 150//149 147//146 703//677 
f 147//146 393//388 703//677 
f 390//385 387//382 704//677 
f 387//382 150//149 704//677 
f 150//149 390//385 704//677 
f 387//382 384//379 705//677 
f 384//379 153//152 705//677 
f 153//152 150//149 705//677 
f 150//149 387//382 705//677 
f 384//379 381//376 706//677 
f 381//376 153//152 706//677 
f 153//152 384//379 706//677 
f 381//376 378//373 707//677 
f 378//373 153//152 707//677 
f 153//152 381//376 707//677 
f 378//373 375//370 708//677 
f 375//370 153//152 708//677 
f 153//152 378//373 708//677 
f 375//370 372//367 709//677 
f 372//367 153//152 709//677 
f 153//152 375//370 709//677 
f 372//367 369//364 710//677 
f 369//364 153//152 710//677 
f 153//152 372//367 710//677 
f 369//364 366//361 711//677 
f 366//361 363//358 711//677 
f 363//358 198//196 711//677 
f 198//196 369//364 711//677 
f 369//364 198//196 712//677 
f 198//196 195//193 712//677 
f 195//193 156//155 712//677 
f 156//155 153//152 712//677 
f 153//152 369//364 712//677 
f 432//426 429//423 713//677 
f 429//423 426//421 713//677 
f 426//421 423//418 713//677 
f 423//418 432//426 713//677 
f 90//90 87//87 714//677 
f 87//87 84//84 714//677 
f 84//84 81//81 714//677 
f 81//81 90//90 714//677 
f 459//453 456//450 715//677 
f 456//450 99//99 715//677 
f 99//99 96//96 715//677 
f 96//96 459//453 715//677 
f 456//450 453//447 716//677 
f 453//447 102//102 716//677 
f 102//102 99//99 716//677 
f 99//99 456//450 716//677 
f 453//447 450//444 717//677 
f 450//444 108//108 717//677 
f 108//108 105//105 717//677 
f 105//105 102//102 717//677 
f 102//102 453//447 717//677 
f 450//444 447//441 718//677 
f 447//441 111//111 718//677 
f 111//111 108//108 718//677 
f 108//108 450//444 718//677 
f 447//441 444//438 719//677 
f 444//438 117//117 719//677 
f 117//117 114//114 719//677 
f 114//114 111//111 719//677 
f 111//111 447//441 719//677 
f 444//438 441//435 720//677 
f 441//435 117//117 720//677 
f 117//117 444//438 720//677 
f 441//435 438//432 721//677 
f 438//432 117//117 721//677 
f 117//117 441//435 721//677 
f 438//432 435//429 722//677 
f 435//429 117//117 722//677 
f 117//117 438//432 722//677 
f 462//456 459//453 723//677 
f 459//453 692//677 573//566 723//677 
f 573//566 570//563 723//677 
f 570//563 462//456 723//677 
f 570//563 567//560 724//677 
f 567//560 465//458 724//677 
f 465//458 462//456 724//677 
f 462//456 570//563 724//677 
f 567//560 564//557 725//677 
f 564//557 468//461 725//677 
f 468//461 465//458 725//677 
f 465//458 567//560 725//677 
f 564//557 561//554 726//677 
f 561//554 471//464 726//677 
f 471//464 468//461 726//677 
f 468//461 564//557 726//677 
f 561//554 558//551 727//677 
f 558//551 477//470 727//677 
f 477//470 474//467 727//677 
f 474//467 471//464 727//677 
f 471//464 561//554 727//677 
f 558//551 555//548 728//677 
f 555//548 480//473 728//677 
f 480//473 477//470 728//677 
f 477//470 558//551 728//677 
f 555//548 552//545 729//677 
f 552//545 483//476 729//677 
f 483//476 480//473 729//677 
f 480//473 555//548 729//677 
f 552//545 549//542 730//677 
f 549//542 486//479 730//677 
f 486//479 483//476 730//677 
f 483//476 552//545 730//677 
f 549//542 546//539 731//677 
f 546//539 486//479 731//677 
f 486//479 549//542 731//677 
f 546//539 543//536 732//677 
f 543//536 489//482 732//677 
f 489//482 486//479 732//677 
f 486//479 546//539 732//677 
f 543//536 540//533 733//677 
f 540//533 1//1 733//677 
f 1//1 489//482 733//677 
f 489//482 543//536 733//677 
f 540//533 537//530 734//677 
f 537//530 2//2 734//677 
f 2//2 1//1 734//677 
f 1//1 540//533 734//677 
f 537//530 534//527 735//677 
f 534//527 6//6 735//677 
f 6//6 2//2 735//677 
f 2//2 537//530 735//677 
f 534//527 531//524 736//677 
f 531//524 9//9 736//677 
f 9//9 6//6 736//677 
f 6//6 534//527 736//677 
f 531//524 528//521 737//677 
f 528//521 12//12 737//677 
f 12//12 9//9 737//677 
f 9//9 531//524 737//677 
f 528//521 525//518 738//677 
f 525//518 15//15 738//677 
f 15//15 12//12 738//677 
f 12//12 528//521 738//677 
f 525//518 522//515 739//677 
f 522//515 18//18 739//677 
f 18//18 15//15 739//677 
f 15//15 525//518 739//677 
f 522//515 519//512 740//677 
f 519//512 21//21 740//677 
f 21//21 18//18 740//677 
f 18//18 522//515 740//677 
f 519//512 516//509 741//677 
f 516//509 24//24 741//677 
f 24//24 21//21 741//677 
f 21//21 519//512 741//677 
f 516//509 513//506 742//677 
f 513//506 30//30 742//677 
f 30//30 27//27 742//677 
f 27//27 24//24 742//677 
f 24//24 516//509 742//677 
f 513//506 510//503 743//677 
f 510//503 36//36 743//677 
f 36//36 33//33 743//677 
f 33//33 30//30 743//677 
f 30//30 513//506 743//677 
f 510//503 507//500 744//677 
f 507//500 42//42 744//677 
f 42//42 39//39 744//677 
f 39//39 36//36 744//677 
f 36//36 510//503 744//677 
f 507//500 504//497 745//677 
f 504//497 48//48 745//677 
f 48//48 45//45 745//677 
f 45//45 42//42 745//677 
f 42//42 507//500 745//677 
f 504//497 501//494 746//677 
f 501//494 57//57 746//677 
f 57//57 54//54 746//677 
f 54//54 51//51 746//677 
f 51//51 48//48 746//677 
f 48//48 504//497 746//677 
f 501//494 498//491 747//677 
f 498//491 63//63 747//677 
f 63//63 60//60 747//677 
f 60//60 57//57 747//677 
f 57//57 501//494 747//677 
f 498//491 494//487 748//677 
f 494//487 72//72 748//677 
f 72//72 69//69 748//677 
f 69//69 66//66 748//677 
f 66//66 63//63 748//677 
f 63//63 498//491 748//677 
f 494//487 493//486 749//677 
f 493//486 78//78 749//677 
f 78//78 75//75 749//677 
f 75//75 72//72 749//677 
f 72//72 494//487 749//677 
f 493//486 573//566 750//677 
f 573//566 90//90 750//677 
f 90//90 81//81 750//677 
f 81//81 78//78 750//677 
f 78//78 493//486 750//677 
f 192//190 189//187 751//677 
f 189//187 162//161 751//677 
f 162//161 159//158 751//677 
f 159//158 192//190 751//677 
f 189//187 186//184 752//677 
f 186//184 162//161 752//677 
f 162//161 189//187 752//677 
f 186//184 183//181 753//677 
f 183//181 165//164 753//677 
f 165//164 162//161 753//677 
f 162//161 186//184 753//677 
f 183//181 180//178 754//677 
f 180//178 168//167 754//677 
f 168//167 165//164 754//677 
f 165//164 183//181 754//677 
f 180//178 177//175 755//677 
f 177//175 171//169 755//677 
f 171//169 168//167 755//677 
f 168//167 180//178 755//677 
f 177//175 174//172 756//677 
f 174//172 171//169 756//677 
f 171//169 177//175 756//677 
f 330//326 327//323 757//677 
f 327//323 201//199 757//677 
f 201//199 330//326 757//677 
f 327//323 324//320 758//677 
f 324//320 201//199 758//677 
f 201//199 327//323 758//677 
f 324//320 321//317 759//677 
f 321//317 201//199 759//677 
f 201//199 324//320 759//677 
f 321//317 318//314 760//677 
f 318//314 201//199 760//677 
f 201//199 321//317 760//677 
f 318//314 315//312 761//677 
f 315//312 201//199 761//677 
f 201//199 318//314 761//677 
f 315//312 312//309 762//677 
f 312//309 201//199 762//677 
f 201//199 315//312 762//677 
f 678//670 675//667 763//677 
f 675//667 201//199 763//677 
f 201//199 312//309 763//677 
f 675//667 672//664 764//677 
f 672//664 201//199 764//677 
f 201//199 675//667 764//677 
f 672//664 669//661 765//677 
f 669//661 201//199 765//677 
f 201//199 672//664 765//677 
f 669//661 666//658 766//677 
f 666//658 201//199 766//677 
f 201//199 669//661 766//677 
f 666//658 663//655 767//677 
f 663//655 201//199 767//677 
f 201//199 666//658 767//677 
f 663//655 660//652 768//677 
f 660//652 201//199 768//677 
f 201//199 663//655 768//677 
f 660//652 657//649 769//677 
f 657//649 201//199 769//677 
f 201//199 660//652 769//677 
f 657//649 654//646 770//677 
f 654//646 234//231 770//677 
f 234//231 231//229 770//677 
f 231//229 228//226 770//677 
f 228//226 225//223 770//677 
f 225//223 222//220 770//677 
f 222//220 219//217 770//677 
f 219//217 216//214 770//677 
f 216//214 213//211 770//677 
f 213//211 210//208 770//677 
f 210//208 207//205 770//677 
f 207//205 204//202 770//677 
f 204//202 201//199 770//677 
f 201//199 657//649 770//677 
f 654//646 651//643 771//677 
f 651//643 237//234 771//677 
f 237//234 234//231 771//677 
f 234//231 654//646 771//677 
f 651//643 648//640 772//677 
f 648//640 240//237 772//677 
f 240//237 237//234 772//677 
f 237//234 651//643 772//677 
f 648//640 645//637 773//677 
f 645//637 243//240 773//677 
f 243//240 240//237 773//677 
f 240//237 648//640 773//677 
f 645//637 642//634 774//677 
f 642//634 246//243 774//677 
f 246//243 243//240 774//677 
f 243//240 645//637 774//677 
f 642//634 639//631 775//677 
f 639//631 252//249 775//677 
f 252//249 249//246 775//677 
f 249//246 246//243 775//677 
f 246//243 642//634 775//677 
f 639//631 636//628 776//677 
f 636//628 255//252 776//677 
f 255//252 252//249 776//677 
f 252//249 639//631 776//677 
f 636//628 633//625 777//677 
f 633//625 255//252 777//677 
f 255//252 636//628 777//677 
f 633//625 630//622 778//677 
f 630//622 258//255 778//677 
f 258//255 255//252 778//677 
f 255//252 633//625 778//677 
f 630//622 627//619 779//677 
f 627//619 261//258 779//677 
f 261//258 258//255 779//677 
f 258//255 630//622 779//677 
f 627//619 624//616 780//677 
f 624//616 261//258 780//677 
f 261//258 627//619 780//677 
f 624//616 621//613 781//677 
f 621//613 264//261 781//677 
f 264//261 261//258 781//677 
f 261//258 624//616 781//677 
f 621//613 618//610 782//677 
f 618//610 267//264 782//677 
f 267//264 264//261 782//677 
f 264//261 621//613 782//677 
f 618//610 615//607 783//677 
f 615//607 270//267 783//677 
f 270//267 267//264 783//677 
f 267//264 618//610 783//677 
f 615//607 612//604 784//677 
f 612//604 273//270 784//677 
f 273//270 270//267 784//677 
f 270//267 615//607 784//677 
f 612//604 609//601 785//677 
f 609//601 276//273 785//677 
f 276//273 273//270 785//677 
f 273//270 612//604 785//677 
f 609//601 606//598 786//677 
f 606//598 279//276 786//677 
f 279//276 276//273 786//677 
f 276//273 609//601 786//677 
f 606//598 603//595 787//677 
f 603//595 282//279 787//677 
f 282//279 279//276 787//677 
f 279//276 606//598 787//677 
f 603//595 600//592 788//677 
f 600//592 285//282 788//677 
f 285//282 282//279 788//677 
f 282//279 603//595 788//677 
f 600//592 597//589 789//677 
f 597//589 288//285 789//677 
f 288//285 285//282 789//677 
f 285//282 600//592 789//677 
f 597//589 594//586 790//677 
f 594//586 291//288 790//677 
f 291//288 288//285 790//677 
f 288//285 597//589 790//677 
f 594//586 591//583 791//677 
f 591//583 294//291 791//677 
f 294//291 291//288 791//677 
f 291//288 594//586 791//677 
f 591//583 588//580 792//677 
f 588//580 297//294 792//677 
f 297//294 294//291 792//677 
f 294//291 591//583 792//677 
f 588//580 585//577 793//677 
f 585//577 300//297 793//677 
f 300//297 297//294 793//677 
f 297//294 588//580 793//677 
f 585//577 582//574 794//677 
f 582//574 303//300 794//677 
f 303//300 300//297 794//677 
f 300//297 585//577 794//677 
f 582//574 578//570 795//677 
f 578//570 306//303 795//677 
f 306//303 303//300 795//677 
f 303//300 582//574 795//677 
f 578//570 577//569 796//677 
f 577//569 309//306 796//677 
f 309//306 306//303 796//677 
f 306//303 578//570 796//677 
f 577//569 681//673 797//677 
f 681//673 312//309 797//677 
f 312//309 309//306 797//677 
f 309//306 577//569 797//677 
f 681//673 678//670 798//677 
f 678//670 763//677 312//309 798//677 
f 312//309 681//673 798//677 
f 341//337 344//340 799//678 
f 344//340 347//342 799//678 
f 347//342 350//345 799//678 
f 350//345 341//337 799//678 
f 173//171 176//174 800//678 
f 176//174 179//177 800//678 
f 179//177 173//171 800//678 
f 314//311 801//678 680//672 802//678 
f 680//672 683//675 802//678 
f 683//675 314//311 802//678 
f 338//334 341//337 803//678 
f 341//337 350//345 803//678 
f 350//345 353//348 803//678 
f 353//348 338//334 803//678 
f 683//675 581//573 804//678 
f 581//573 311//308 804//678 
f 311//308 314//311 804//678 
f 314//311 683//675 804//678 
f 581//573 580//572 805//678 
f 580//572 308//305 805//678 
f 308//305 311//308 805//678 
f 311//308 581//573 805//678 
f 580//572 584//576 806//678 
f 584//576 305//302 806//678 
f 305//302 308//305 806//678 
f 308//305 580//572 806//678 
f 584//576 587//579 807//678 
f 587//579 302//299 807//678 
f 302//299 305//302 807//678 
f 305//302 584//576 807//678 
f 587//579 590//582 808//678 
f 590//582 299//296 808//678 
f 299//296 302//299 808//678 
f 302//299 587//579 808//678 
f 590//582 593//585 809//678 
f 593//585 296//293 809//678 
f 296//293 299//296 809//678 
f 299//296 590//582 809//678 
f 593//585 596//588 810//678 
f 596//588 293//290 810//678 
f 293//290 296//293 810//678 
f 296//293 593//585 810//678 
f 596//588 599//591 811//678 
f 599//591 290//287 811//678 
f 290//287 293//290 811//678 
f 293//290 596//588 811//678 
f 599//591 602//594 812//678 
f 602//594 287//284 812//678 
f 287//284 290//287 812//678 
f 290//287 599//591 812//678 
f 602//594 605//597 813//678 
f 605//597 284//281 813//678 
f 284//281 287//284 813//678 
f 287//284 602//594 813//678 
f 605//597 608//600 814//678 
f 608//600 281//278 814//678 
f 281//278 284//281 814//678 
f 284//281 605//597 814//678 
f 608//600 611//603 815//678 
f 611//603 278//275 815//678 
f 278//275 281//278 815//678 
f 281//278 608//600 815//678 
f 611//603 614//606 816//678 
f 614//606 275//272 816//678 
f 275//272 278//275 816//678 
f 278//275 611//603 816//678 
f 614//606 617//609 817//678 
f 617//609 272//269 817//678 
f 272//269 275//272 817//678 
f 275//272 614//606 817//678 
f 617//609 620//612 818//678 
f 620//612 269//266 818//678 
f 269//266 272//269 818//678 
f 272//269 617//609 818//678 
f 620//612 623//615 819//678 
f 623//615 266//263 819//678 
f 266//263 269//266 819//678 
f 269//266 620//612 819//678 
f 623//615 626//618 820//678 
f 626//618 263//260 820//678 
f 263//260 266//263 820//678 
f 266//263 623//615 820//678 
f 626//618 629//621 821//678 
f 629//621 263//260 821//678 
f 263//260 626//618 821//678 
f 629//621 632//624 822//678 
f 632//624 260//257 822//678 
f 260//257 263//260 822//678 
f 263//260 629//621 822//678 
f 632//624 635//627 823//678 
f 635//627 257//254 823//678 
f 257//254 260//257 823//678 
f 260//257 632//624 823//678 
f 635//627 638//630 824//678 
f 638//630 257//254 824//678 
f 257//254 635//627 824//678 
f 638//630 641//633 825//678 
f 641//633 254//251 825//678 
f 254//251 257//254 825//678 
f 257//254 638//630 825//678 
f 641//633 644//636 826//678 
f 644//636 248//245 826//678 
f 248//245 251//248 826//678 
f 251//248 254//251 826//678 
f 254//251 641//633 826//678 
f 644//636 647//639 827//678 
f 647//639 245//242 827//678 
f 245//242 248//245 827//678 
f 248//245 644//636 827//678 
f 647//639 650//642 828//678 
f 650//642 242//239 828//678 
f 242//239 245//242 828//678 
f 245//242 647//639 828//678 
f 650//642 653//645 829//678 
f 653//645 239//236 829//678 
f 239//236 242//239 829//678 
f 242//239 650//642 829//678 
f 653//645 656//648 830//678 
f 656//648 236//233 830//678 
f 236//233 239//236 830//678 
f 239//236 653//645 830//678 
f 656//648 659//651 831//678 
f 659//651 203//201 831//678 
f 203//201 206//204 831//678 
f 206//204 209//207 831//678 
f 209//207 212//210 831//678 
f 212//210 215//213 831//678 
f 215//213 218//216 831//678 
f 218//216 221//219 831//678 
f 221//219 224//222 831//678 
f 224//222 227//225 831//678 
f 227//225 230//228 831//678 
f 230//228 233//230 831//678 
f 233//230 236//233 831//678 
f 236//233 656//648 831//678 
f 659//651 662//654 832//678 
f 662//654 203//201 832//678 
f 203//201 659//651 832//678 
f 662//654 665//657 833//678 
f 665//657 203//201 833//678 
f 203//201 662//654 833//678 
f 665//657 668//660 834//678 
f 668//660 203//201 834//678 
f 203//201 665//657 834//678 
f 668//660 671//663 835//678 
f 671//663 203//201 835//678 
f 203//201 668//660 835//678 
f 671//663 674//666 836//678 
f 674//666 203//201 836//678 
f 203//201 671//663 836//678 
f 674//666 677//669 837//678 
f 677//669 203//201 837//678 
f 203//201 674//666 837//678 
f 677//669 680//672 801//678 
f 314//311 203//201 801//678 
f 203//201 677//669 801//678 
f 314//311 317//313 838//678 
f 317//313 203//201 838//678 
f 203//201 314//311 838//678 
f 317//313 320//316 839//678 
f 320//316 203//201 839//678 
f 203//201 317//313 839//678 
f 320//316 323//319 840//678 
f 323//319 203//201 840//678 
f 203//201 320//316 840//678 
f 323//319 326//322 841//678 
f 326//322 203//201 841//678 
f 203//201 323//319 841//678 
f 326//322 329//325 842//678 
f 329//325 203//201 842//678 
f 203//201 326//322 842//678 
f 329//325 332//328 843//678 
f 332//328 203//201 843//678 
f 203//201 329//325 843//678 
f 332//328 335//331 844//678 
f 335//331 203//201 844//678 
f 203//201 332//328 844//678 
f 371//366 374//369 845//678 
f 374//369 155//154 845//678 
f 155//154 371//366 845//678 
f 179//177 182//180 846//678 
f 182//180 170//168 846//678 
f 170//168 173//171 846//678 
f 173//171 179//177 846//678 
f 182//180 185//183 847//678 
f 185//183 167//166 847//678 
f 167//166 170//168 847//678 
f 170//168 182//180 847//678 
f 185//183 188//186 848//678 
f 188//186 164//163 848//678 
f 164//163 167//166 848//678 
f 167//166 185//183 848//678 
f 188//186 191//189 849//678 
f 191//189 164//163 849//678 
f 164//163 188//186 849//678 
f 191//189 194//192 850//678 
f 194//192 161//160 850//678 
f 161//160 164//163 850//678 
f 164//163 191//189 850//678 
f 194//192 197//195 851//678 
f 197//195 158//157 851//678 
f 158//157 161//160 851//678 
f 161//160 194//192 851//678 
f 197//195 200//198 852//678 
f 200//198 371//366 852//678 
f 371//366 155//154 852//678 
f 155//154 158//157 852//678 
f 158//157 197//195 852//678 
f 374//369 377//372 853//678 
f 377//372 155//154 853//678 
f 155//154 374//369 853//678 
f 377//372 380//375 854//678 
f 380//375 155//154 854//678 
f 155//154 377//372 854//678 
f 380//375 383//378 855//678 
f 383//378 155//154 855//678 
f 155//154 380//375 855//678 
f 383//378 386//381 856//678 
f 386//381 155//154 856//678 
f 155//154 383//378 856//678 
f 386//381 389//384 857//678 
f 389//384 152//151 857//678 
f 152//151 155//154 857//678 
f 155//154 386//381 857//678 
f 389//384 392//387 858//678 
f 392//387 152//151 858//678 
f 152//151 389//384 858//678 
f 392//387 395//390 859//678 
f 395//390 149//148 859//678 
f 149//148 152//151 859//678 
f 152//151 392//387 859//678 
f 395//390 398//393 860//678 
f 398//393 149//148 860//678 
f 149//148 395//390 860//678 
f 398//393 401//396 861//678 
f 401//396 146//145 861//678 
f 146//145 149//148 861//678 
f 149//148 398//393 861//678 
f 401//396 404//399 862//678 
f 404//399 146//145 862//678 
f 146//145 401//396 862//678 
f 404//399 407//402 863//678 
f 407//402 143//142 863//678 
f 143//142 146//145 863//678 
f 146//145 404//399 863//678 
f 407//402 410//405 864//678 
f 410//405 140//139 864//678 
f 140//139 143//142 864//678 
f 143//142 407//402 864//678 
f 410//405 413//408 865//678 
f 413//408 137//136 865//678 
f 137//136 140//139 865//678 
f 140//139 410//405 865//678 
f 413//408 416//411 866//678 
f 416//411 131//130 866//678 
f 131//130 134//133 866//678 
f 134//133 137//136 866//678 
f 137//136 413//408 866//678 
f 416//411 419//414 867//678 
f 419//414 128//127 867//678 
f 128//127 131//130 867//678 
f 131//130 416//411 867//678 
f 419//414 422//417 868//678 
f 422//417 125//124 868//678 
f 125//124 128//127 868//678 
f 128//127 419//414 868//678 
f 422//417 425//420 869//678 
f 425//420 122//121 869//678 
f 122//121 125//124 869//678 
f 125//124 422//417 869//678 
f 425//420 428//422 870//678 
f 428//422 431//425 870//678 
f 431//425 434//428 870//678 
f 434//428 425//420 870//678 
f 434//428 437//431 871//678 
f 437//431 425//420 871//678 
f 425//420 434//428 871//678 
f 437//431 440//434 872//678 
f 440//434 119//119 872//678 
f 119//119 437//431 872//678 
f 440//434 443//437 873//678 
f 443//437 119//119 873//678 
f 119//119 440//434 873//678 
f 119//119 122//121 874//678 
f 122//121 425//420 874//678 
f 425//420 119//119 874//678 
f 119//119 425//420 875//678 
f 425//420 437//431 875//678 
f 437//431 119//119 875//678 
f 443//437 446//440 876//678 
f 446//440 119//119 876//678 
f 119//119 443//437 876//678 
f 446//440 449//443 877//678 
f 449//443 113//113 877//678 
f 113//113 116//116 877//678 
f 116//116 119//119 877//678 
f 119//119 446//440 877//678 
f 449//443 452//446 878//678 
f 452//446 110//110 878//678 
f 110//110 113//113 878//678 
f 113//113 449//443 878//678 
f 452//446 455//449 879//678 
f 455//449 104//104 879//678 
f 104//104 107//107 879//678 
f 107//107 110//110 879//678 
f 110//110 452//446 879//678 
f 455//449 458//452 880//678 
f 458//452 101//101 880//678 
f 101//101 104//104 880//678 
f 104//104 455//449 880//678 
f 458//452 461//455 881//678 
f 461//455 98//98 881//678 
f 98//98 101//101 881//678 
f 101//101 458//452 881//678 
f 575//567 83//83 882//678 
f 83//83 86//86 882//678 
f 86//86 89//89 882//678 
f 89//89 92//92 882//678 
f 92//92 575//567 882//678 
f 575//567 497//490 883//678 
f 497//490 80//80 883//678 
f 80//80 83//83 883//678 
f 83//83 575//567 883//678 
f 92//92 95//95 884//678 
f 95//95 98//98 884//678 
f 98//98 461//455 884//678 
f 575//567 92//92 884//678 
f 497//490 496//489 885//678 
f 496//489 74//74 885//678 
f 74//74 77//77 885//678 
f 77//77 80//80 885//678 
f 80//80 497//490 885//678 
f 496//489 500//493 886//678 
f 500//493 65//65 886//678 
f 65//65 68//68 886//678 
f 68//68 71//71 886//678 
f 71//71 74//74 886//678 
f 74//74 496//489 886//678 
f 500//493 503//496 887//678 
f 503//496 59//59 887//678 
f 59//59 62//62 887//678 
f 62//62 65//65 887//678 
f 65//65 500//493 887//678 
f 503//496 506//499 888//678 
f 506//499 50//50 888//678 
f 50//50 53//53 888//678 
f 53//53 56//56 888//678 
f 56//56 59//59 888//678 
f 59//59 503//496 888//678 
f 506//499 509//502 889//678 
f 509//502 44//44 889//678 
f 44//44 47//47 889//678 
f 47//47 50//50 889//678 
f 50//50 506//499 889//678 
f 509//502 512//505 890//678 
f 512//505 38//38 890//678 
f 38//38 41//41 890//678 
f 41//41 44//44 890//678 
f 44//44 509//502 890//678 
f 512//505 515//508 891//678 
f 515//508 32//32 891//678 
f 32//32 35//35 891//678 
f 35//35 38//38 891//678 
f 38//38 512//505 891//678 
f 515//508 518//511 892//678 
f 518//511 26//26 892//678 
f 26//26 29//29 892//678 
f 29//29 32//32 892//678 
f 32//32 515//508 892//678 
f 518//511 521//514 893//678 
f 521//514 23//23 893//678 
f 23//23 26//26 893//678 
f 26//26 518//511 893//678 
f 521//514 524//517 894//678 
f 524//517 20//20 894//678 
f 20//20 23//23 894//678 
f 23//23 521//514 894//678 
f 524//517 527//520 895//678 
f 527//520 17//17 895//678 
f 17//17 20//20 895//678 
f 20//20 524//517 895//678 
f 527//520 530//523 896//678 
f 530//523 14//14 896//678 
f 14//14 17//17 896//678 
f 17//17 527//520 896//678 
f 530//523 533//526 897//678 
f 533//526 11//11 897//678 
f 11//11 14//14 897//678 
f 14//14 530//523 897//678 
f 533//526 536//529 898//678 
f 536//529 8//8 898//678 
f 8//8 11//11 898//678 
f 11//11 533//526 898//678 
f 536//529 539//532 899//678 
f 539//532 4//4 899//678 
f 4//4 8//8 899//678 
f 8//8 536//529 899//678 
f 539//532 542//535 900//678 
f 542//535 5//5 900//678 
f 5//5 4//4 900//678 
f 4//4 539//532 900//678 
f 542//535 545//538 901//678 
f 545//538 491//484 901//678 
f 491//484 5//5 901//678 
f 5//5 542//535 901//678 
f 545//538 548//541 902//678 
f 548//541 488//481 902//678 
f 488//481 491//484 902//678 
f 491//484 545//538 902//678 
f 548//541 551//544 903//678 
f 551//544 488//481 903//678 
f 488//481 548//541 903//678 
f 551//544 554//547 904//678 
f 554//547 485//478 904//678 
f 485//478 488//481 904//678 
f 488//481 551//544 904//678 
f 554//547 557//550 905//678 
f 557//550 482//475 905//678 
f 482//475 485//478 905//678 
f 485//478 554//547 905//678 
f 557//550 560//553 906//678 
f 560//553 479//472 906//678 
f 479//472 482//475 906//678 
f 482//475 557//550 906//678 
f 560//553 563//556 907//678 
f 563//556 473//466 907//678 
f 473//466 476//469 907//678 
f 476//469 479//472 907//678 
f 479//472 560//553 907//678 
f 563//556 566//559 908//678 
f 566//559 470//463 908//678 
f 470//463 473//466 908//678 
f 473//466 563//556 908//678 
f 566//559 569//562 909//678 
f 569//562 467//460 909//678 
f 467//460 470//463 909//678 
f 470//463 566//559 909//678 
f 569//562 572//565 910//678 
f 572//565 464//457 910//678 
f 464//457 467//460 910//678 
f 467//460 569//562 910//678 
f 572//565 575//567 911//678 
f 575//567 884//678 461//455 911//678 
f 461//455 464//457 911//678 
f 464//457 572//565 911//678 
# 4 polygons - 1818 triangles

