# 3ds Max Wavefront OBJ Exporter v0.97b - (c)2007 guruware
# File Created: 31.01.2021 23:04:07

#
# object Do_Deg
#

v  680.8572 0.0000 52.3342
v  681.5849 0.0000 50.5408
v  681.2211 5.0000 51.4375
v  681.5849 10.0000 50.5408
v  680.8572 10.0000 52.3342
v  682.4328 0.0000 48.7577
v  682.0089 5.0000 49.6492
v  682.4328 10.0000 48.7577
v  683.4009 0.0000 46.9850
v  682.9169 5.0000 47.8713
v  683.4009 10.0000 46.9850
v  684.4894 0.0000 45.2227
v  683.9452 5.0000 46.1038
v  684.4894 10.0000 45.2227
v  685.6981 0.0000 43.4707
v  685.0938 5.0000 44.3467
v  685.6981 10.0000 43.4707
v  687.0270 0.0000 41.7292
v  686.3625 5.0000 42.6000
v  687.0270 10.0000 41.7292
v  688.4761 0.0000 39.9980
v  687.7516 5.0000 40.8636
v  688.4761 10.0000 39.9980
v  690.0455 0.0000 38.2771
v  689.2609 5.0000 39.1376
v  690.0455 10.0000 38.2771
v  691.3697 0.0000 36.8335
v  690.7076 5.0000 37.5553
v  691.3697 10.0000 36.8335
v  692.5380 0.0000 35.4510
v  691.9539 5.0000 36.1423
v  692.5380 10.0000 35.4510
v  693.5507 0.0000 34.1295
v  693.0443 5.0000 34.7902
v  693.5507 10.0000 34.1295
v  694.4074 0.0000 32.8690
v  693.9790 5.0000 33.4993
v  694.4074 10.0000 32.8690
v  695.1085 0.0000 31.6697
v  694.7579 5.0000 32.2693
v  695.1085 10.0000 31.6697
v  695.6537 0.0000 30.5313
v  695.3810 5.0000 31.1005
v  695.6537 10.0000 30.5313
v  696.0432 0.0000 29.4541
v  695.8484 5.0000 29.9927
v  696.0432 10.0000 29.4541
v  696.2768 0.0000 28.4379
v  696.1600 5.0000 28.9460
v  696.2768 10.0000 28.4379
v  696.3547 0.0000 27.4827
v  696.3157 5.0000 27.9603
v  696.3547 10.0000 27.4827
v  696.2490 0.0000 25.6095
v  696.3018 5.0000 26.5461
v  696.2490 10.0000 25.6095
v  695.9318 0.0000 23.9566
v  696.0904 5.0000 24.7831
v  695.9318 10.0000 23.9566
v  695.4033 0.0000 22.5242
v  695.6675 5.0000 23.2404
v  695.4033 10.0000 22.5242
v  694.6632 0.0000 21.3121
v  695.0332 5.0000 21.9181
v  694.6632 10.0000 21.3121
v  693.7118 0.0000 20.3204
v  694.1875 5.0000 20.8162
v  693.7118 10.0000 20.3204
v  692.5488 0.0000 19.5491
v  693.1303 5.0000 19.9347
v  692.5488 10.0000 19.5491
v  691.1746 0.0000 18.9981
v  691.8617 5.0000 19.2736
v  691.1746 10.0000 18.9981
v  689.5887 0.0000 18.6676
v  690.3817 5.0000 18.8328
v  689.5887 10.0000 18.6676
v  687.7916 0.0000 18.5574
v  688.6902 5.0000 18.6125
v  687.7916 10.0000 18.5574
v  685.8043 0.0000 18.6730
v  686.7980 5.0000 18.6152
v  685.8043 10.0000 18.6730
v  684.0508 0.0000 19.0199
v  684.9276 5.0000 18.8464
v  684.0508 10.0000 19.0199
v  682.5312 0.0000 19.5980
v  683.2910 5.0000 19.3089
v  682.5312 10.0000 19.5980
v  681.2453 0.0000 20.4074
v  681.8882 5.0000 20.0027
v  681.2453 10.0000 20.4074
v  680.1932 0.0000 21.4480
v  680.7193 5.0000 20.9277
v  680.1932 10.0000 21.4480
v  679.3749 0.0000 22.7198
v  679.7841 5.0000 22.0839
v  679.3749 10.0000 22.7198
v  678.7905 0.0000 24.2230
v  679.0827 5.0000 23.4714
v  678.7905 10.0000 24.2230
v  678.4398 0.0000 25.9573
v  678.6151 5.0000 25.0901
v  678.4398 10.0000 25.9573
v  678.3229 0.0000 27.9229
v  678.3813 5.0000 26.9401
v  678.3229 10.0000 27.9229
v  678.3845 0.0000 29.0729
v  678.3537 5.0000 28.4979
v  678.3845 10.0000 29.0729
v  678.5693 0.0000 30.1449
v  678.4769 5.0000 29.6089
v  678.5693 10.0000 30.1449
v  678.8774 0.0000 31.1387
v  678.7234 5.0000 30.6418
v  678.8774 10.0000 31.1387
v  679.3087 0.0000 32.0545
v  679.0931 5.0000 31.5966
v  679.3087 10.0000 32.0545
v  679.8633 0.0000 32.8922
v  679.5860 5.0000 32.4733
v  679.8633 10.0000 32.8922
v  680.5411 0.0000 33.6518
v  680.2021 5.0000 33.2720
v  680.5411 10.0000 33.6518
v  681.3421 0.0000 34.3333
v  680.9416 5.0000 33.9926
v  681.3421 10.0000 34.3333
v  682.2664 0.0000 34.9368
v  681.8042 5.0000 34.6351
v  682.2664 10.0000 34.9368
v  683.3138 0.0000 35.4622
v  682.7901 5.0000 35.1995
v  683.3138 10.0000 35.4622
v  682.1645 0.0000 36.8626
v  682.7391 5.0000 36.1624
v  682.1645 10.0000 36.8626
v  681.1235 0.0000 38.1604
v  681.6440 5.0000 37.5115
v  681.1235 10.0000 38.1604
v  680.1911 0.0000 39.3555
v  680.6573 5.0000 38.7579
v  680.1911 10.0000 39.3555
v  679.3671 0.0000 40.4479
v  679.7791 5.0000 39.9017
v  679.3671 10.0000 40.4479
v  678.6516 0.0000 41.4377
v  679.0093 5.0000 40.9428
v  678.6516 10.0000 41.4377
v  678.0445 0.0000 42.3247
v  678.3480 5.0000 41.8812
v  678.0445 10.0000 42.3247
v  677.5458 0.0000 43.1091
v  677.7952 5.0000 42.7169
v  677.5458 10.0000 43.1091
v  677.1556 0.0000 43.7909
v  677.3507 5.0000 43.4500
v  677.1556 10.0000 43.7909
v  676.8739 0.0000 44.3699
v  677.0148 5.0000 44.0804
v  676.8739 10.0000 44.3699
v  676.8577 0.0000 43.4807
v  676.8658 5.0000 43.9253
v  676.8577 10.0000 43.4807
v  676.8093 0.0000 42.5752
v  676.8335 5.0000 43.0280
v  676.8093 10.0000 42.5752
v  676.7285 0.0000 41.6534
v  676.7689 5.0000 42.1143
v  676.7285 10.0000 41.6534
v  676.6155 0.0000 40.7152
v  676.6720 5.0000 41.1843
v  676.6155 10.0000 40.7152
v  676.4702 0.0000 39.7606
v  676.5428 5.0000 40.2379
v  676.4702 10.0000 39.7606
v  676.2925 0.0000 38.7898
v  676.3813 5.0000 39.2752
v  676.2925 10.0000 38.7898
v  676.0826 0.0000 37.8026
v  676.1875 5.0000 38.2962
v  676.0826 10.0000 37.8026
v  675.8403 0.0000 36.7990
v  675.9614 5.0000 37.3008
v  675.8403 10.0000 36.7990
v  675.5658 0.0000 35.7792
v  675.7031 5.0000 36.2891
v  675.5658 10.0000 35.7792
v  675.0294 0.0000 33.8501
v  675.2975 5.0000 34.8146
v  675.0294 10.0000 33.8501
v  674.5560 0.0000 32.0946
v  674.7927 5.0000 32.9723
v  674.5560 10.0000 32.0946
v  674.1459 0.0000 30.5126
v  674.3510 5.0000 31.3036
v  674.1459 10.0000 30.5126
v  673.7988 0.0000 29.1042
v  673.9723 5.0000 29.8084
v  673.7988 10.0000 29.1042
v  673.5148 0.0000 27.8693
v  673.6568 5.0000 28.4867
v  673.5148 10.0000 27.8693
v  673.2939 0.0000 26.8080
v  673.4044 5.0000 27.3386
v  673.2939 10.0000 26.8080
v  673.1362 0.0000 25.9202
v  673.2150 5.0000 26.3641
v  673.1362 10.0000 25.9202
v  673.0415 0.0000 25.2059
v  673.0888 5.0000 25.5631
v  673.0415 10.0000 25.2059
v  673.0099 0.0000 24.6652
v  673.0257 5.0000 24.9356
v  673.0099 10.0000 24.6652
v  673.1890 0.0000 21.7276
v  673.0995 5.0000 23.1964
v  673.1890 10.0000 21.7276
v  673.7263 0.0000 19.1356
v  673.4577 5.0000 20.4316
v  673.7263 10.0000 19.1356
v  674.6219 0.0000 16.8892
v  674.1741 5.0000 18.0124
v  674.6219 10.0000 16.8892
v  675.8756 0.0000 14.9884
v  675.2487 5.0000 15.9388
v  675.8756 10.0000 14.9884
v  677.4875 0.0000 13.4332
v  676.6816 5.0000 14.2108
v  677.4875 10.0000 13.4332
v  679.4577 0.0000 12.2236
v  678.4726 5.0000 12.8284
v  679.4577 10.0000 12.2236
v  681.7861 0.0000 11.3596
v  680.6219 5.0000 11.7916
v  681.7861 10.0000 11.3596
v  684.4726 0.0000 10.8412
v  683.1293 5.0000 11.1004
v  684.4726 10.0000 10.8412
v  687.5174 0.0000 10.6684
v  685.9950 5.0000 10.7548
v  687.5174 10.0000 10.6684
v  690.1831 0.0000 10.8124
v  688.8502 5.0000 10.7404
v  690.1831 10.0000 10.8124
v  692.5352 0.0000 11.2445
v  691.3591 5.0000 11.0285
v  692.5352 10.0000 11.2445
v  694.5736 0.0000 11.9645
v  693.5544 5.0000 11.6045
v  694.5736 10.0000 11.9645
v  696.2985 0.0000 12.9726
v  695.4361 5.0000 12.4686
v  696.2985 10.0000 12.9726
v  697.7098 0.0000 14.2687
v  697.0042 5.0000 13.6207
v  697.7098 10.0000 14.2687
v  698.8074 0.0000 15.8528
v  698.2585 5.0000 15.0608
v  698.8074 10.0000 15.8528
v  699.5914 0.0000 17.7249
v  699.1994 5.0000 16.7889
v  699.5914 10.0000 17.7249
v  700.0618 0.0000 19.8851
v  699.8267 5.0000 18.8050
v  700.0618 10.0000 19.8851
v  700.2186 0.0000 22.3333
v  700.1403 5.0000 21.1092
v  700.2186 10.0000 22.3333
v  700.2186 0.0000 54.1380
v  700.2186 5.0000 38.2356
v  700.2186 10.0000 54.1380
v  710.0396 0.0000 54.1380
v  705.1291 5.0000 54.1380
v  710.0396 10.0000 54.1380
v  710.0396 0.0000 21.8226
v  710.0396 5.0000 37.9803
v  710.0396 10.0000 21.8226
v  709.9656 0.0000 20.0121
v  710.0026 5.0000 20.9174
v  709.9656 10.0000 20.0121
v  709.7437 0.0000 18.2982
v  709.8546 5.0000 19.1552
v  709.7437 10.0000 18.2982
v  709.3738 0.0000 16.6809
v  709.5587 5.0000 17.4895
v  709.3738 10.0000 16.6809
v  708.8559 0.0000 15.1601
v  709.1148 5.0000 15.9205
v  708.8559 10.0000 15.1601
v  708.1901 0.0000 13.7358
v  708.5230 5.0000 14.4479
v  708.1901 10.0000 13.7358
v  707.3763 0.0000 12.4081
v  707.7833 5.0000 13.0720
v  707.3763 10.0000 12.4081
v  706.4147 0.0000 11.1770
v  706.8955 5.0000 11.7925
v  706.4147 10.0000 11.1770
v  705.3050 0.0000 10.0424
v  705.8599 5.0000 10.6097
v  705.3050 10.0000 10.0424
v  704.0474 0.0000 9.0044
v  704.6762 5.0000 9.5234
v  704.0474 10.0000 9.0044
v  702.6619 0.0000 8.0696
v  703.3546 5.0000 8.5370
v  702.6619 10.0000 8.0696
v  701.1687 0.0000 7.2448
v  701.9153 5.0000 7.6572
v  701.1687 10.0000 7.2448
v  699.5677 0.0000 6.5300
v  700.3682 5.0000 6.8874
v  699.5677 10.0000 6.5300
v  697.8589 0.0000 5.9252
v  698.7133 5.0000 6.2276
v  697.8589 10.0000 5.9252
v  696.0424 0.0000 5.4303
v  696.9506 5.0000 5.6777
v  696.0424 10.0000 5.4303
v  694.1180 0.0000 5.0454
v  695.0802 5.0000 5.2378
v  694.1180 10.0000 5.0454
v  692.0860 0.0000 4.7704
v  693.1020 5.0000 4.9079
v  692.0860 10.0000 4.7704
v  689.9461 0.0000 4.6055
v  691.0161 5.0000 4.6880
v  689.9461 10.0000 4.6055
v  687.6985 0.0000 4.5505
v  688.8223 5.0000 4.5780
v  687.6985 10.0000 4.5505
v  685.4651 0.0000 4.6107
v  686.5818 5.0000 4.5806
v  685.4651 10.0000 4.6107
v  683.3141 0.0000 4.7912
v  684.3896 5.0000 4.7009
v  683.3141 10.0000 4.7912
v  681.2457 0.0000 5.0921
v  682.2799 5.0000 4.9416
v  681.2457 10.0000 5.0921
v  679.2598 0.0000 5.5133
v  680.2527 5.0000 5.3027
v  679.2598 10.0000 5.5133
v  677.3563 0.0000 6.0548
v  678.3080 5.0000 5.7840
v  677.3563 10.0000 6.0548
v  675.5353 0.0000 6.7167
v  676.4458 5.0000 6.3858
v  675.5353 10.0000 6.7167
v  673.7968 0.0000 7.4990
v  674.6661 5.0000 7.1078
v  673.7968 10.0000 7.4990
v  672.1408 0.0000 8.4015
v  672.9688 5.0000 7.9502
v  672.1408 10.0000 8.4015
v  670.5673 0.0000 9.4245
v  671.3540 5.0000 8.9130
v  670.5673 10.0000 9.4245
v  669.1201 0.0000 10.5752
v  669.8437 5.0000 9.9998
v  669.1201 10.0000 10.5752
v  667.8432 0.0000 11.8612
v  668.4817 5.0000 11.2182
v  667.8432 10.0000 11.8612
v  666.7366 0.0000 13.2824
v  667.2899 5.0000 12.5718
v  666.7366 10.0000 13.2824
v  665.8002 0.0000 14.8389
v  666.2684 5.0000 14.0607
v  665.8002 10.0000 14.8389
v  665.0341 0.0000 16.5307
v  665.4171 5.0000 15.6848
v  665.0341 10.0000 16.5307
v  664.4382 0.0000 18.3576
v  664.7361 5.0000 17.4442
v  664.4382 10.0000 18.3576
v  664.0125 0.0000 20.3199
v  664.2253 5.0000 19.3388
v  664.0125 10.0000 20.3199
v  663.7571 0.0000 22.4174
v  663.8848 5.0000 21.3686
v  663.7571 10.0000 22.4174
v  663.6720 0.0000 24.6501
v  663.7146 5.0000 23.5338
v  663.6720 10.0000 24.6501
v  663.7232 0.0000 25.6480
v  663.6976 5.0000 25.1491
v  663.7232 10.0000 25.6480
v  663.8768 0.0000 26.8495
v  663.8000 5.0000 26.2487
v  663.8768 10.0000 26.8495
v  664.1326 0.0000 28.2544
v  664.0047 5.0000 27.5519
v  664.1326 10.0000 28.2544
v  664.4909 0.0000 29.8630
v  664.3118 5.0000 29.0587
v  664.4909 10.0000 29.8630
v  664.9515 0.0000 31.6750
v  664.7213 5.0000 30.7690
v  664.9515 10.0000 31.6750
v  665.5145 0.0000 33.6906
v  665.2330 5.0000 32.6828
v  665.5145 10.0000 33.6906
v  666.1799 0.0000 35.9098
v  665.8472 5.0000 34.8002
v  666.1799 10.0000 35.9098
v  666.9476 0.0000 38.3325
v  666.5638 5.0000 37.1212
v  666.9476 10.0000 38.3325
v  667.8177 0.0000 40.9588
v  667.3827 5.0000 39.6456
v  667.8177 10.0000 40.9588
v  668.2172 0.0000 42.3220
v  668.0175 5.0000 41.6404
v  668.2172 10.0000 42.3220
v  668.5761 0.0000 43.7105
v  668.3967 5.0000 43.0163
v  668.5761 10.0000 43.7105
v  668.8944 0.0000 45.1243
v  668.7353 5.0000 44.4174
v  668.8944 10.0000 45.1243
v  669.1721 0.0000 46.5634
v  669.0332 5.0000 45.8439
v  669.1721 10.0000 46.5634
v  669.4091 0.0000 48.0278
v  669.2906 5.0000 47.2956
v  669.4091 10.0000 48.0278
v  669.6055 0.0000 49.5174
v  669.5073 5.0000 48.7726
v  669.6055 10.0000 49.5174
v  669.7612 0.0000 51.0323
v  669.6833 5.0000 50.2749
v  669.7612 10.0000 51.0323
v  669.8764 0.0000 52.5725
v  669.8188 5.0000 51.8024
v  669.8764 10.0000 52.5725
v  669.9509 0.0000 54.1380
v  669.9137 5.0000 53.3553
v  669.9509 10.0000 54.1380
v  680.2498 0.0000 54.1380
v  675.1004 5.0000 54.1380
v  680.2498 10.0000 54.1380
v  680.5535 5.0000 53.2361
v  688.3047 0.0000 23.4379
v  689.0594 0.0000 23.5896
v  688.6821 5.0000 23.5137
v  689.0594 10.0000 23.5896
v  688.3047 10.0000 23.4379
v  689.7135 0.0000 23.8424
v  689.3865 5.0000 23.7160
v  689.7135 10.0000 23.8424
v  690.2670 0.0000 24.1963
v  689.9902 5.0000 24.0193
v  690.2670 10.0000 24.1963
v  690.7197 0.0000 24.6513
v  690.4933 5.0000 24.4238
v  690.7197 10.0000 24.6513
v  691.0719 0.0000 25.2075
v  690.8959 5.0000 24.9294
v  691.0719 10.0000 25.2075
v  691.3235 0.0000 25.8648
v  691.1977 5.0000 25.5361
v  691.3235 10.0000 25.8648
v  691.4744 0.0000 26.6232
v  691.3990 5.0000 26.2440
v  691.4744 10.0000 26.6232
v  691.5247 0.0000 27.4827
v  691.4996 5.0000 27.0529
v  691.5247 10.0000 27.4827
v  691.4730 0.0000 28.3802
v  691.4988 5.0000 27.9315
v  691.4730 10.0000 28.3802
v  691.3175 0.0000 29.1722
v  691.3953 5.0000 28.7762
v  691.3175 10.0000 29.1722
v  691.0585 0.0000 29.8586
v  691.1880 5.0000 29.5154
v  691.0585 10.0000 29.8586
v  690.6959 0.0000 30.4393
v  690.8772 5.0000 30.1489
v  690.6959 10.0000 30.4393
v  690.2297 0.0000 30.9145
v  690.4628 5.0000 30.6769
v  690.2297 10.0000 30.9145
v  689.6599 0.0000 31.2840
v  689.9448 5.0000 31.0993
v  689.6599 10.0000 31.2840
v  688.9864 0.0000 31.5480
v  689.3231 5.0000 31.4160
v  688.9864 10.0000 31.5480
v  688.2094 0.0000 31.7064
v  688.5979 5.0000 31.6272
v  688.2094 10.0000 31.7064
v  687.3287 0.0000 31.7592
v  687.7690 5.0000 31.7328
v  687.3287 10.0000 31.7592
v  686.4861 0.0000 31.7079
v  686.9074 5.0000 31.7336
v  686.4861 10.0000 31.7079
v  685.7426 0.0000 31.5540
v  686.1143 5.0000 31.6310
v  685.7426 10.0000 31.5540
v  685.0982 0.0000 31.2975
v  685.4204 5.0000 31.4257
v  685.0982 10.0000 31.2975
v  684.5530 0.0000 30.9383
v  684.8256 5.0000 31.1179
v  684.5530 10.0000 30.9383
v  684.1069 0.0000 30.4766
v  684.3300 5.0000 30.7075
v  684.1069 10.0000 30.4766
v  683.7599 0.0000 29.9122
v  683.9334 5.0000 30.1944
v  683.7599 10.0000 29.9122
v  683.5121 0.0000 29.2452
v  683.6360 5.0000 29.5787
v  683.5121 10.0000 29.2452
v  683.3634 0.0000 28.4757
v  683.4377 5.0000 28.8605
v  683.3634 10.0000 28.4757
v  683.3138 0.0000 27.6035
v  683.3386 5.0000 28.0396
v  683.3138 10.0000 27.6035
v  683.3649 0.0000 26.7186
v  683.3394 5.0000 27.1610
v  683.3649 10.0000 26.7186
v  683.5181 0.0000 25.9378
v  683.4415 5.0000 26.3282
v  683.5181 10.0000 25.9378
v  683.7733 0.0000 25.2612
v  683.6457 5.0000 25.5995
v  683.7733 10.0000 25.2612
v  684.1307 0.0000 24.6886
v  683.9520 5.0000 24.9749
v  684.1307 10.0000 24.6886
v  684.5903 0.0000 24.2201
v  684.3605 5.0000 24.4544
v  684.5903 10.0000 24.2201
v  685.1519 0.0000 23.8558
v  684.8711 5.0000 24.0380
v  685.1519 10.0000 23.8558
v  685.8156 0.0000 23.5955
v  685.4838 5.0000 23.7256
v  685.8156 10.0000 23.5955
v  686.5815 0.0000 23.4394
v  686.1985 5.0000 23.5174
v  686.5815 10.0000 23.4394
v  687.4495 0.0000 23.3873
v  687.0155 5.0000 23.4133
v  687.4495 10.0000 23.3873
v  687.8771 5.0000 23.4126
v  675.2336 0.0000 53.2957
v  673.5331 10.0000 49.3620
v  673.4983 0.0000 51.9797
v  675.4522 0.0000 50.8562
v  675.9812 0.0000 48.2427
v  671.8184 0.0000 46.3204
v  685.1808 0.0000 32.9080
v  687.1301 0.0000 35.4409
v  689.2383 0.0000 34.6441
v  685.2454 0.0000 38.5130
v  683.2408 0.0000 39.9157
v  681.6794 0.0000 41.9869
v  679.8813 0.0000 43.8117
v  679.9658 0.0000 45.9759
v  689.5219 0.0000 33.3627
v  690.6385 0.0000 33.7791
v  691.4946 0.0000 32.9447
v  692.2209 0.0000 32.0881
v  692.8176 0.0000 31.2091
v  693.2845 0.0000 30.3079
v  693.6218 0.0000 29.3845
v  694.3345 0.0000 28.2475
v  693.9007 0.0000 26.7995
v  693.7447 0.0000 25.5135
v  693.4326 0.0000 24.3883
v  692.9645 0.0000 23.4238
v  692.3404 0.0000 22.6200
v  691.5602 0.0000 21.9770
v  690.4171 0.0000 20.9293
v  688.9843 0.0000 21.8983
v  688.2836 0.0000 21.0125
v  686.9067 0.0000 21.0143
v  685.5630 0.0000 21.1819
v  684.3874 0.0000 21.5173
v  683.3796 0.0000 22.0203
v  682.5399 0.0000 22.6910
v  681.8680 0.0000 23.5294
v  681.3642 0.0000 24.5354
v  681.0283 0.0000 25.7092
v  680.8604 0.0000 27.0506
v  680.8461 0.0000 28.2687
v  680.9573 0.0000 29.2347
v  680.8055 0.0000 30.4991
v  681.5160 0.0000 31.7975
v  682.6357 0.0000 32.3500
v  683.3147 0.0000 33.3936
v  684.7182 0.0000 32.7712
v  672.9495 0.0000 44.8846
v  673.5732 0.0000 43.3088
v  673.3215 0.0000 41.6323
v  672.1994 0.0000 40.4578
v  705.1291 0.0000 38.1080
v  706.0059 0.0000 20.4703
v  705.5253 0.0000 17.5498
v  704.8727 0.0000 14.3431
v  702.4568 0.0000 12.0691
v  700.3773 0.0000 10.3120
v  697.8935 0.0000 8.9274
v  695.0256 0.0000 7.9220
v  691.7737 0.0000 7.2956
v  688.8363 0.0000 7.6592
v  685.6935 0.0000 7.0924
v  682.0156 0.0000 7.5195
v  679.4650 0.0000 8.7878
v  676.7267 0.0000 9.1855
v  673.1647 0.0000 10.7203
v  670.8395 0.0000 13.5193
v  669.1838 0.0000 16.1354
v  668.0800 0.0000 19.2143
v  667.5281 0.0000 22.7561
v  668.3616 0.0000 25.0423
v  668.4444 0.0000 25.9059
v  668.6099 0.0000 26.9580
v  668.8580 0.0000 28.1987
v  669.1890 0.0000 29.6279
v  669.6027 0.0000 31.2456
v  671.4055 0.0000 32.0993
v  670.3199 0.0000 33.8863
v  672.4695 0.0000 37.2777
v  675.2336 10.0000 53.2957
v  677.5751 10.0000 47.9240
v  675.4522 10.0000 50.8562
v  673.4983 10.0000 51.9797
v  679.9658 10.0000 45.9759
v  672.4695 10.0000 37.2777
v  670.3199 10.0000 33.8863
v  672.1994 10.0000 40.4578
v  673.3215 10.0000 41.6323
v  673.5732 10.0000 43.3088
v  672.9495 10.0000 44.8846
v  671.8184 10.0000 46.3204
v  671.4055 10.0000 32.0993
v  669.6027 10.0000 31.2456
v  669.1890 10.0000 29.6279
v  668.8581 10.0000 28.1987
v  668.6099 10.0000 26.9580
v  668.4444 10.0000 25.9059
v  668.3616 10.0000 25.0423
v  667.5281 10.0000 22.7561
v  668.0800 10.0000 19.2143
v  669.1838 10.0000 16.1354
v  670.8395 10.0000 13.5193
v  673.1647 10.0000 10.7203
v  676.7267 10.0000 9.1855
v  679.4650 10.0000 8.7878
v  682.0156 10.0000 7.5195
v  685.6935 10.0000 7.0924
v  688.8363 10.0000 7.6592
v  691.7737 10.0000 7.2956
v  695.0256 10.0000 7.9220
v  697.8935 10.0000 8.9274
v  700.3773 10.0000 10.3120
v  702.4568 10.0000 12.0691
v  704.8727 10.0000 14.3431
v  705.5253 10.0000 17.5498
v  706.0059 10.0000 20.4703
v  705.1291 10.0000 38.1080
v  679.8813 10.0000 43.8117
v  681.6794 10.0000 41.9869
v  683.2408 10.0000 39.9157
v  685.2454 10.0000 38.5130
v  687.2785 10.0000 37.9124
v  685.1808 10.0000 32.9080
v  684.7182 10.0000 32.7712
v  683.3147 10.0000 33.3936
v  682.6357 10.0000 32.3500
v  681.5160 10.0000 31.7975
v  680.8055 10.0000 30.4991
v  680.9573 10.0000 29.2347
v  680.8461 10.0000 28.2687
v  680.8604 10.0000 27.0506
v  681.0283 10.0000 25.7092
v  681.3642 10.0000 24.5354
v  681.8680 10.0000 23.5294
v  682.5399 10.0000 22.6910
v  683.3796 10.0000 22.0203
v  684.3874 10.0000 21.5173
v  685.5630 10.0000 21.1819
v  686.9067 10.0000 21.0143
v  688.2836 10.0000 21.0125
v  688.9843 10.0000 21.8983
v  690.4171 10.0000 20.9293
v  691.5602 10.0000 21.9770
v  692.3404 10.0000 22.6200
v  692.9645 10.0000 23.4238
v  693.4326 10.0000 24.3883
v  693.7447 10.0000 25.5135
v  693.9007 10.0000 26.7995
v  694.3345 10.0000 28.2475
v  693.6218 10.0000 29.3845
v  693.2845 10.0000 30.3079
v  692.8176 10.0000 31.2091
v  692.2209 10.0000 32.0881
v  691.4946 10.0000 32.9447
v  690.6385 10.0000 33.7791
v  689.5219 10.0000 33.3627
v  689.2383 10.0000 34.6441
v  686.7935 10.0000 34.3016
# 710 vertices

vn 0.6565 -0.7140 0.2434
vn 0.6410 -0.7137 0.2822
vn 0.9266 0.0000 0.3760
vn 0.6410 0.7137 0.2822
vn 0.6565 0.7140 0.2434
vn 0.6241 -0.7135 0.3185
vn 0.9031 0.0000 0.4295
vn 0.6241 0.7135 0.3185
vn 0.6060 -0.7132 0.3523
vn 0.8776 0.0000 0.4793
vn 0.6060 0.7132 0.3523
vn 0.5872 -0.7129 0.3835
vn 0.8508 0.0000 0.5255
vn 0.5872 0.7129 0.3835
vn 0.5678 -0.7125 0.4121
vn 0.8231 0.0000 0.5679
vn 0.5678 0.7125 0.4121
vn 0.5483 -0.7122 0.4383
vn 0.7950 0.0000 0.6066
vn 0.5483 0.7122 0.4383
vn 0.5288 -0.7119 0.4621
vn 0.7668 0.0000 0.6419
vn 0.5288 0.7119 0.4621
vn 0.5215 -0.7074 0.4770
vn 0.7389 0.0000 0.6739
vn 0.5215 0.7074 0.4770
vn 0.5341 -0.7026 0.4703
vn 0.7369 0.0000 0.6760
vn 0.5341 0.7026 0.4703
vn 0.5550 -0.7018 0.4467
vn 0.7638 0.0000 0.6455
vn 0.5550 0.7018 0.4467
vn 0.5784 -0.7008 0.4176
vn 0.7938 0.0000 0.6082
vn 0.5784 0.7008 0.4176
vn 0.6043 -0.6995 0.3814
vn 0.8270 0.0000 0.5622
vn 0.6043 0.6995 0.3814
vn 0.6326 -0.6980 0.3356
vn 0.8633 0.0000 0.5046
vn 0.6326 0.6980 0.3356
vn 0.6622 -0.6961 0.2775
vn 0.9019 0.0000 0.4320
vn 0.6622 0.6961 0.2775
vn 0.6909 -0.6938 0.2035
vn 0.9404 0.0000 0.3400
vn 0.6909 0.6938 0.2035
vn 0.7141 -0.6912 0.1106
vn 0.9746 0.0000 0.2241
vn 0.7141 0.6912 0.1106
vn 0.7219 -0.6919 0.0090
vn 0.9967 0.0000 0.0813
vn 0.7219 0.6919 0.0090
vn 0.7160 -0.6924 -0.0885
vn 0.9984 0.0000 -0.0563
vn 0.7160 0.6924 -0.0885
vn 0.6981 -0.6891 -0.1944
vn 0.9821 0.0000 -0.1884
vn 0.6981 0.6891 -0.1944
vn 0.6550 -0.6859 -0.3171
vn 0.9382 0.0000 -0.3462
vn 0.6550 0.6859 -0.3171
vn 0.5782 -0.6836 -0.4454
vn 0.8535 0.0000 -0.5211
vn 0.5782 0.6836 -0.4454
vn 0.4681 -0.6832 -0.5605
vn 0.7216 0.0000 -0.6923
vn 0.4681 0.6832 -0.5605
vn 0.3387 -0.6849 -0.6452
vn 0.5527 0.0000 -0.8334
vn 0.3387 0.6849 -0.6452
vn 0.2099 -0.6879 -0.6948
vn 0.3721 0.0000 -0.9282
vn 0.2099 0.6879 -0.6948
vn 0.0961 -0.6912 -0.7162
vn 0.2041 0.0000 -0.9790
vn 0.0961 0.6912 -0.7162
vn 0.0011 -0.6939 -0.7200
vn 0.0612 0.0000 -0.9981
vn 0.0011 0.6939 -0.7200
vn -0.0912 -0.6920 -0.7161
vn -0.0581 0.0000 -0.9983
vn -0.0912 0.6920 -0.7161
vn -0.2000 -0.6887 -0.6969
vn -0.1941 0.0000 -0.9810
vn -0.2000 0.6887 -0.6969
vn -0.3250 -0.6855 -0.6515
vn -0.3556 0.0000 -0.9347
vn -0.3250 0.6855 -0.6515
vn -0.4538 -0.6834 -0.5718
vn -0.5327 0.0000 -0.8463
vn -0.4538 0.6834 -0.5718
vn -0.5671 -0.6833 -0.4598
vn -0.7032 0.0000 -0.7110
vn -0.5671 0.6833 -0.4598
vn -0.6489 -0.6852 -0.3307
vn -0.8410 0.0000 -0.5411
vn -0.6489 0.6852 -0.3307
vn -0.6961 -0.6883 -0.2041
vn -0.9320 0.0000 -0.3624
vn -0.6961 0.6883 -0.2041
vn -0.7162 -0.6917 -0.0932
vn -0.9802 0.0000 -0.1982
vn -0.7162 0.6917 -0.0932
vn -0.7194 -0.6946 -0.0021
vn -0.9982 0.0000 -0.0594
vn -0.7194 0.6946 -0.0021
vn -0.7153 -0.6942 0.0806
vn -0.9986 0.0000 0.0535
vn -0.7153 0.6942 0.0806
vn -0.7012 -0.6928 0.1684
vn -0.9855 0.0000 0.1699
vn -0.7012 0.6928 0.1684
vn -0.6732 -0.6917 0.2614
vn -0.9552 0.0000 0.2961
vn -0.6732 0.6917 0.2614
vn -0.6298 -0.6912 0.3543
vn -0.9047 0.0000 0.4261
vn -0.6298 0.6912 0.3543
vn -0.5723 -0.6913 0.4411
vn -0.8338 0.0000 0.5520
vn -0.5723 0.6913 0.4411
vn -0.5044 -0.6920 0.5164
vn -0.7462 0.0000 0.6658
vn -0.5044 0.6920 0.5164
vn -0.4314 -0.6931 0.5774
vn -0.6480 0.0000 0.7616
vn -0.4314 0.6931 0.5774
vn -0.3585 -0.6946 0.6237
vn -0.5467 0.0000 0.8373
vn -0.3585 0.6946 0.6237
vn -0.3613 -0.9293 0.0767
vn -0.4483 0.0000 0.8939
vn -0.3613 0.9293 0.0767
vn -0.5501 -0.7058 -0.4463
vn -0.7730 0.0000 -0.6344
vn -0.5501 0.7058 -0.4463
vn -0.5557 -0.7056 -0.4396
vn -0.7801 0.0000 -0.6257
vn -0.5557 0.7056 -0.4396
vn -0.5625 -0.7053 -0.4315
vn -0.7884 0.0000 -0.6151
vn -0.5625 0.7053 -0.4315
vn -0.5706 -0.7048 -0.4214
vn -0.7984 0.0000 -0.6022
vn -0.5706 0.7048 -0.4214
vn -0.5807 -0.7042 -0.4085
vn -0.8104 0.0000 -0.5859
vn -0.5807 0.7042 -0.4085
vn -0.5934 -0.7033 -0.3915
vn -0.8252 0.0000 -0.5648
vn -0.5934 0.7033 -0.3915
vn -0.6098 -0.7019 -0.3681
vn -0.8439 0.0000 -0.5365
vn -0.6098 0.7019 -0.3681
vn -0.6316 -0.6996 -0.3340
vn -0.8679 0.0000 -0.4968
vn -0.6316 0.6996 -0.3340
vn 0.0270 -0.9921 -0.1222
vn -0.8992 0.0000 -0.4375
vn 0.0270 0.9921 -0.1222
vn 0.7106 -0.7032 -0.0255
vn 0.9998 0.0000 -0.0182
vn 0.7106 0.7032 -0.0255
vn 0.7091 -0.7033 -0.0500
vn 0.9986 0.0000 -0.0534
vn 0.7091 0.7033 -0.0500
vn 0.7069 -0.7035 -0.0735
vn 0.9962 0.0000 -0.0873
vn 0.7069 0.7035 -0.0735
vn 0.7041 -0.7036 -0.0960
vn 0.9928 0.0000 -0.1196
vn 0.7041 0.7036 -0.0960
vn 0.7007 -0.7038 -0.1174
vn 0.9886 0.0000 -0.1505
vn 0.7007 0.7038 -0.1174
vn 0.6968 -0.7039 -0.1378
vn 0.9837 0.0000 -0.1800
vn 0.6968 0.7039 -0.1378
vn 0.6925 -0.7040 -0.1572
vn 0.9781 0.0000 -0.2080
vn 0.6925 0.7040 -0.1572
vn 0.6880 -0.7042 -0.1756
vn 0.9721 0.0000 -0.2347
vn 0.6880 0.7042 -0.1756
vn 0.6829 -0.7062 -0.1869
vn 0.9656 0.0000 -0.2599
vn 0.6829 0.7062 -0.1869
vn 0.6811 -0.7080 -0.1865
vn 0.9634 0.0000 -0.2679
vn 0.6811 0.7080 -0.1865
vn 0.6826 -0.7082 -0.1805
vn 0.9655 0.0000 -0.2603
vn 0.6826 0.7082 -0.1805
vn 0.6842 -0.7085 -0.1730
vn 0.9680 0.0000 -0.2510
vn 0.6842 0.7085 -0.1730
vn 0.6861 -0.7089 -0.1634
vn 0.9710 0.0000 -0.2393
vn 0.6861 0.7089 -0.1634
vn 0.6884 -0.7095 -0.1508
vn 0.9746 0.0000 -0.2241
vn 0.6884 0.7095 -0.1508
vn 0.6910 -0.7104 -0.1333
vn 0.9790 0.0000 -0.2038
vn 0.6910 0.7104 -0.1333
vn 0.6938 -0.7121 -0.1076
vn 0.9846 0.0000 -0.1750
vn 0.6938 0.7121 -0.1076
vn 0.6955 -0.7155 -0.0663
vn 0.9913 0.0000 -0.1314
vn 0.6955 0.7155 -0.0663
vn 0.6932 -0.7208 0.0009
vn 0.9983 0.0000 -0.0583
vn 0.6932 0.7208 0.0009
vn 0.6842 -0.7236 0.0913
vn 0.9981 0.0000 0.0609
vn 0.6842 0.7236 0.0913
vn 0.6573 -0.7273 0.1975
vn 0.9792 0.0000 0.2030
vn 0.6573 0.7273 0.1975
vn 0.6051 -0.7307 0.3160
vn 0.9289 0.0000 0.3703
vn 0.6051 0.7307 0.3160
vn 0.5235 -0.7327 0.4349
vn 0.8348 0.0000 0.5506
vn 0.5235 0.7327 0.4349
vn 0.4170 -0.7323 0.5384
vn 0.6943 0.0000 0.7197
vn 0.4170 0.7323 0.5384
vn 0.2992 -0.7297 0.6148
vn 0.5232 0.0000 0.8522
vn 0.2992 0.7297 0.6148
vn 0.1854 -0.7261 0.6621
vn 0.3479 0.0000 0.9375
vn 0.1854 0.7261 0.6621
vn 0.0853 -0.7225 0.6861
vn 0.1895 0.0000 0.9819
vn 0.0853 0.7225 0.6861
vn 0.0009 -0.7198 0.6942
vn 0.0567 0.0000 0.9984
vn 0.0009 0.7198 0.6942
vn -0.0814 -0.7218 0.6874
vn -0.0539 0.0000 0.9985
vn -0.0814 0.7218 0.6874
vn -0.1774 -0.7253 0.6652
vn -0.1807 0.0000 0.9835
vn -0.1774 0.7253 0.6652
vn -0.2880 -0.7290 0.6210
vn -0.3331 0.0000 0.9429
vn -0.2880 0.7290 0.6210
vn -0.4047 -0.7320 0.5482
vn -0.5046 0.0000 0.8634
vn -0.4047 0.7320 0.5482
vn -0.5129 -0.7329 0.4470
vn -0.6764 0.0000 0.7365
vn -0.5129 0.7329 0.4470
vn -0.5981 -0.7314 0.3277
vn -0.8220 0.0000 0.5695
vn -0.5981 0.7314 0.3277
vn -0.6537 -0.7282 0.2062
vn -0.9224 0.0000 0.3863
vn -0.6537 0.7282 0.2062
vn -0.6827 -0.7244 0.0956
vn -0.9771 0.0000 0.2128
vn -0.6827 0.7244 0.0956
vn -0.6994 -0.7144 0.0224
vn -0.9980 0.0000 0.0639
vn -0.6994 0.7144 0.0224
vn -0.5774 -0.5774 0.5774
vn -1.0000 0.0000 -0.0000
vn -0.5774 0.5774 0.5774
vn 0.5774 -0.5774 0.5774
vn 0.0000 0.0000 1.0000
vn 0.5774 0.5774 0.5774
vn 0.7115 -0.7025 -0.0145
vn 1.0000 0.0000 -0.0000
vn 0.7115 0.7025 -0.0145
vn 0.7142 -0.6973 -0.0607
vn 0.9992 0.0000 -0.0408
vn 0.7142 0.6973 -0.0607
vn 0.7064 -0.6965 -0.1262
vn 0.9917 0.0000 -0.1284
vn 0.7064 0.6965 -0.1262
vn 0.6911 -0.6957 -0.1961
vn 0.9748 0.0000 -0.2229
vn 0.6911 0.6957 -0.1961
vn 0.6670 -0.6950 -0.2685
vn 0.9466 0.0000 -0.3223
vn 0.6670 0.6950 -0.2685
vn 0.6335 -0.6947 -0.3408
vn 0.9059 0.0000 -0.4235
vn 0.6335 0.6947 -0.3408
vn 0.5911 -0.6946 -0.4101
vn 0.8526 0.0000 -0.5226
vn 0.5911 0.6946 -0.4101
vn 0.5413 -0.6948 -0.4735
vn 0.7881 0.0000 -0.6156
vn 0.5413 0.6948 -0.4735
vn 0.4863 -0.6953 -0.5291
vn 0.7149 0.0000 -0.6992
vn 0.4863 0.6953 -0.5291
vn 0.4296 -0.6964 -0.5749
vn 0.6366 0.0000 -0.7712
vn 0.4296 0.6964 -0.5749
vn 0.3741 -0.6972 -0.6115
vn 0.5593 0.0000 -0.8290
vn 0.3741 0.6972 -0.6115
vn 0.3195 -0.6977 -0.6412
vn 0.4835 0.0000 -0.8753
vn 0.3195 0.6977 -0.6412
vn 0.2656 -0.6982 -0.6648
vn 0.4077 0.0000 -0.9131
vn 0.2656 0.6982 -0.6648
vn 0.2135 -0.6988 -0.6827
vn 0.3337 0.0000 -0.9427
vn 0.2135 0.6988 -0.6827
vn 0.1641 -0.6995 -0.6956
vn 0.2628 0.0000 -0.9648
vn 0.1641 0.6995 -0.6956
vn 0.1180 -0.7001 -0.7042
vn 0.1961 0.0000 -0.9806
vn 0.1180 0.7001 -0.7042
vn 0.0753 -0.7007 -0.7095
vn 0.1341 0.0000 -0.9910
vn 0.0753 0.7007 -0.7095
vn 0.0361 -0.7012 -0.7120
vn 0.0769 0.0000 -0.9970
vn 0.0361 0.7012 -0.7120
vn -0.0009 -0.7014 -0.7128
vn 0.0245 0.0000 -0.9997
vn -0.0009 0.7014 -0.7128
vn -0.0395 -0.7008 -0.7123
vn -0.0269 0.0000 -0.9996
vn -0.0395 0.7008 -0.7123
vn -0.0813 -0.7003 -0.7092
vn -0.0836 0.0000 -0.9965
vn -0.0813 0.7003 -0.7092
vn -0.1256 -0.6999 -0.7031
vn -0.1439 0.0000 -0.9896
vn -0.1256 0.6999 -0.7031
vn -0.1720 -0.6995 -0.6936
vn -0.2075 0.0000 -0.9782
vn -0.1720 0.6995 -0.6936
vn -0.2201 -0.6992 -0.6803
vn -0.2737 0.0000 -0.9618
vn -0.2201 0.6992 -0.6803
vn -0.2691 -0.6989 -0.6627
vn -0.3416 0.0000 -0.9398
vn -0.2691 0.6989 -0.6627
vn -0.3182 -0.6986 -0.6408
vn -0.4103 0.0000 -0.9119
vn -0.3182 0.6986 -0.6408
vn -0.3665 -0.6985 -0.6146
vn -0.4786 0.0000 -0.8781
vn -0.3665 0.6985 -0.6146
vn -0.4193 -0.6965 -0.5823
vn -0.5450 0.0000 -0.8384
vn -0.4193 0.6965 -0.5823
vn -0.4802 -0.6942 -0.5362
vn -0.6224 0.0000 -0.7827
vn -0.4802 0.6942 -0.5362
vn -0.5406 -0.6938 -0.4758
vn -0.7096 0.0000 -0.7046
vn -0.5406 0.6938 -0.4758
vn -0.5937 -0.6939 -0.4076
vn -0.7890 0.0000 -0.6144
vn -0.5937 0.6939 -0.4076
vn -0.6373 -0.6942 -0.3345
vn -0.8569 0.0000 -0.5155
vn -0.6373 0.6942 -0.3345
vn -0.6703 -0.6949 -0.2602
vn -0.9109 0.0000 -0.4125
vn -0.6703 0.6949 -0.2602
vn -0.6932 -0.6958 -0.1877
vn -0.9507 0.0000 -0.3101
vn -0.6932 0.6958 -0.1877
vn -0.7072 -0.6969 -0.1195
vn -0.9773 0.0000 -0.2120
vn -0.7072 0.6969 -0.1195
vn -0.7139 -0.6979 -0.0570
vn -0.9927 0.0000 -0.1209
vn -0.7139 0.6979 -0.0570
vn -0.7169 -0.6972 0.0047
vn -0.9993 0.0000 -0.0381
vn -0.7169 0.6972 0.0047
vn -0.7126 -0.6987 0.0637
vn -0.9987 0.0000 0.0512
vn -0.7126 0.6987 0.0637
vn -0.7046 -0.7012 0.1091
vn -0.9919 0.0000 0.1268
vn -0.7046 0.7012 0.1091
vn -0.6973 -0.7027 0.1411
vn -0.9838 0.0000 0.1792
vn -0.6973 0.7027 0.1411
vn -0.6911 -0.7038 0.1648
vn -0.9761 0.0000 0.2174
vn -0.6911 0.7038 0.1648
vn -0.6858 -0.7045 0.1829
vn -0.9692 0.0000 0.2464
vn -0.6858 0.7045 0.1829
vn -0.6812 -0.7050 0.1972
vn -0.9631 0.0000 0.2690
vn -0.6812 0.7050 0.1972
vn -0.6774 -0.7054 0.2089
vn -0.9579 0.0000 0.2872
vn -0.6774 0.7054 0.2089
vn -0.6741 -0.7056 0.2184
vn -0.9533 0.0000 0.3021
vn -0.6741 0.7056 0.2184
vn -0.6712 -0.7110 0.2095
vn -0.9493 0.0000 0.3145
vn -0.6712 0.7110 0.2095
vn -0.6782 -0.7107 0.1870
vn -0.9596 0.0000 0.2812
vn -0.6782 0.7107 0.1870
vn -0.6838 -0.7107 0.1653
vn -0.9682 0.0000 0.2502
vn -0.6838 0.7107 0.1653
vn -0.6887 -0.7106 0.1439
vn -0.9756 0.0000 0.2196
vn -0.6887 0.7106 0.1439
vn -0.6929 -0.7105 0.1229
vn -0.9819 0.0000 0.1894
vn -0.6929 0.7105 0.1229
vn -0.6963 -0.7104 0.1022
vn -0.9872 0.0000 0.1598
vn -0.6963 0.7104 0.1022
vn -0.6991 -0.7103 0.0820
vn -0.9914 0.0000 0.1307
vn -0.6991 0.7103 0.0820
vn -0.7012 -0.7103 0.0623
vn -0.9948 0.0000 0.1023
vn -0.7012 0.7103 0.0623
vn -0.7027 -0.7102 0.0430
vn -0.9972 0.0000 0.0746
vn -0.7027 0.7102 0.0430
vn -0.5622 -0.5799 0.5896
vn -0.9989 0.0000 0.0476
vn -0.5622 0.5799 0.5896
vn 0.4684 -0.5964 0.6519
vn 0.4684 0.5964 0.6519
vn 0.9477 0.0000 0.3191
vn -0.0886 -0.7231 0.6850
vn -0.1922 -0.7268 0.6594
vn -0.1970 0.0000 0.9804
vn -0.1922 0.7268 0.6594
vn -0.0886 0.7231 0.6850
vn -0.3087 -0.7303 0.6094
vn -0.3605 0.0000 0.9327
vn -0.3087 0.7303 0.6094
vn -0.4272 -0.7325 0.5300
vn -0.5388 0.0000 0.8425
vn -0.4272 0.7325 0.5300
vn -0.5320 -0.7325 0.4247
vn -0.7088 0.0000 0.7054
vn -0.5320 0.7325 0.4247
vn -0.6107 -0.7302 0.3064
vn -0.8449 0.0000 0.5350
vn -0.6107 0.7302 0.3064
vn -0.6601 -0.7266 0.1905
vn -0.9339 0.0000 0.3575
vn -0.6601 0.7266 0.1905
vn -0.6853 -0.7230 0.0878
vn -0.9808 0.0000 0.1952
vn -0.6853 0.7230 0.0878
vn -0.6936 -0.7204 0.0003
vn -0.9983 0.0000 0.0584
vn -0.6936 0.7204 0.0003
vn -0.6857 -0.7227 -0.0867
vn -0.9983 0.0000 -0.0576
vn -0.6857 0.7227 -0.0867
vn -0.6610 -0.7264 -0.1882
vn -0.9813 0.0000 -0.1926
vn -0.6610 0.7264 -0.1882
vn -0.6126 -0.7300 -0.3031
vn -0.9356 0.0000 -0.3531
vn -0.6126 0.7300 -0.3031
vn -0.5349 -0.7324 -0.4212
vn -0.8482 0.0000 -0.5296
vn -0.5349 0.7324 -0.4212
vn -0.4307 -0.7326 -0.5270
vn -0.7138 0.0000 -0.7003
vn -0.4307 0.7326 -0.5270
vn -0.3120 -0.7305 -0.6075
vn -0.5441 0.0000 -0.8390
vn -0.3120 0.7305 -0.6075
vn -0.1946 -0.7270 -0.6585
vn -0.3650 0.0000 -0.9310
vn -0.1946 0.7270 -0.6585
vn -0.0898 -0.7233 -0.6846
vn -0.1997 0.0000 -0.9798
vn -0.0898 0.7233 -0.6846
vn 0.0003 -0.7209 -0.6930
vn -0.0598 0.0000 -0.9982
vn 0.0003 0.7209 -0.6930
vn 0.0912 -0.7236 -0.6842
vn 0.0608 0.0000 -0.9982
vn 0.0912 0.7236 -0.6842
vn 0.1972 -0.7273 -0.6574
vn 0.2027 0.0000 -0.9792
vn 0.1972 0.7273 -0.6574
vn 0.3157 -0.7307 -0.6053
vn 0.3699 0.0000 -0.9291
vn 0.3157 0.7307 -0.6053
vn 0.4345 -0.7327 -0.5238
vn 0.5501 0.0000 -0.8351
vn 0.4345 0.7327 -0.5238
vn 0.5381 -0.7323 -0.4174
vn 0.7192 0.0000 -0.6948
vn 0.5381 0.7323 -0.4174
vn 0.6146 -0.7297 -0.2995
vn 0.8519 0.0000 -0.5237
vn 0.6146 0.7297 -0.2995
vn 0.6620 -0.7261 -0.1856
vn 0.9374 0.0000 -0.3483
vn 0.6620 0.7261 -0.1856
vn 0.6861 -0.7225 -0.0854
vn 0.9818 0.0000 -0.1897
vn 0.6861 0.7225 -0.0854
vn 0.6938 -0.7202 0.0003
vn 0.9984 0.0000 -0.0567
vn 0.6938 0.7202 0.0003
vn 0.6857 -0.7227 0.0866
vn 0.9983 0.0000 0.0576
vn 0.6857 0.7227 0.0866
vn 0.6611 -0.7264 0.1881
vn 0.9813 0.0000 0.1925
vn 0.6611 0.7264 0.1881
vn 0.6126 -0.7300 0.3031
vn 0.9356 0.0000 0.3530
vn 0.6126 0.7300 0.3031
vn 0.5350 -0.7324 0.4212
vn 0.8483 0.0000 0.5295
vn 0.5350 0.7324 0.4212
vn 0.4308 -0.7326 0.5270
vn 0.7139 0.0000 0.7003
vn 0.4308 0.7326 0.5270
vn 0.3121 -0.7305 0.6074
vn 0.5443 0.0000 0.8389
vn 0.3121 0.7305 0.6074
vn 0.1946 -0.7270 0.6584
vn 0.3650 0.0000 0.9310
vn 0.1946 0.7270 0.6584
vn 0.0899 -0.7233 0.6846
vn 0.1998 0.0000 0.9798
vn 0.0899 0.7233 0.6846
vn 0.0003 -0.7207 0.6932
vn 0.0599 0.0000 0.9982
vn 0.0003 0.7207 0.6932
vn -0.0590 0.0000 0.9983
vn 0.0000 -1.0000 -0.0000
vn 0.0000 1.0000 -0.0000
# 553 vertex normals

o Do_Deg
g Do_Deg
s 1
f 1//1 2//2 3//3 
f 2//2 4//4 3//3 
f 4//4 5//5 3//3 
f 5//5 1//1 3//3 
s 3
f 2//2 6//6 7//7 
f 6//6 8//8 7//7 
f 8//8 4//4 7//7 
f 4//4 2//2 7//7 
s 2
f 6//6 9//9 10//10 
f 9//9 11//11 10//10 
f 11//11 8//8 10//10 
f 8//8 6//6 10//10 
f 9//9 12//12 13//13 
f 12//12 14//14 13//13 
f 14//14 11//11 13//13 
f 11//11 9//9 13//13 
f 12//12 15//15 16//16 
f 15//15 17//17 16//16 
f 17//17 14//14 16//16 
f 14//14 12//12 16//16 
f 15//15 18//18 19//19 
f 18//18 20//20 19//19 
f 20//20 17//17 19//19 
f 17//17 15//15 19//19 
f 18//18 21//21 22//22 
f 21//21 23//23 22//22 
f 23//23 20//20 22//22 
f 20//20 18//18 22//22 
f 21//21 24//24 25//25 
f 24//24 26//26 25//25 
f 26//26 23//23 25//25 
f 23//23 21//21 25//25 
f 24//24 27//27 28//28 
f 27//27 29//29 28//28 
f 29//29 26//26 28//28 
f 26//26 24//24 28//28 
f 27//27 30//30 31//31 
f 30//30 32//32 31//31 
f 32//32 29//29 31//31 
f 29//29 27//27 31//31 
f 30//30 33//33 34//34 
f 33//33 35//35 34//34 
f 35//35 32//32 34//34 
f 32//32 30//30 34//34 
f 33//33 36//36 37//37 
f 36//36 38//38 37//37 
f 38//38 35//35 37//37 
f 35//35 33//33 37//37 
f 36//36 39//39 40//40 
f 39//39 41//41 40//40 
f 41//41 38//38 40//40 
f 38//38 36//36 40//40 
f 39//39 42//42 43//43 
f 42//42 44//44 43//43 
f 44//44 41//41 43//43 
f 41//41 39//39 43//43 
f 42//42 45//45 46//46 
f 45//45 47//47 46//46 
f 47//47 44//44 46//46 
f 44//44 42//42 46//46 
f 45//45 48//48 49//49 
f 48//48 50//50 49//49 
f 50//50 47//47 49//49 
f 47//47 45//45 49//49 
f 48//48 51//51 52//52 
f 51//51 53//53 52//52 
f 53//53 50//50 52//52 
f 50//50 48//48 52//52 
f 51//51 54//54 55//55 
f 54//54 56//56 55//55 
f 56//56 53//53 55//55 
f 53//53 51//51 55//55 
f 54//54 57//57 58//58 
f 57//57 59//59 58//58 
f 59//59 56//56 58//58 
f 56//56 54//54 58//58 
f 57//57 60//60 61//61 
f 60//60 62//62 61//61 
f 62//62 59//59 61//61 
f 59//59 57//57 61//61 
f 60//60 63//63 64//64 
f 63//63 65//65 64//64 
f 65//65 62//62 64//64 
f 62//62 60//60 64//64 
f 63//63 66//66 67//67 
f 66//66 68//68 67//67 
f 68//68 65//65 67//67 
f 65//65 63//63 67//67 
f 66//66 69//69 70//70 
f 69//69 71//71 70//70 
f 71//71 68//68 70//70 
f 68//68 66//66 70//70 
f 69//69 72//72 73//73 
f 72//72 74//74 73//73 
f 74//74 71//71 73//73 
f 71//71 69//69 73//73 
f 72//72 75//75 76//76 
f 75//75 77//77 76//76 
f 77//77 74//74 76//76 
f 74//74 72//72 76//76 
f 75//75 78//78 79//79 
f 78//78 80//80 79//79 
f 80//80 77//77 79//79 
f 77//77 75//75 79//79 
f 78//78 81//81 82//82 
f 81//81 83//83 82//82 
f 83//83 80//80 82//82 
f 80//80 78//78 82//82 
f 81//81 84//84 85//85 
f 84//84 86//86 85//85 
f 86//86 83//83 85//85 
f 83//83 81//81 85//85 
f 84//84 87//87 88//88 
f 87//87 89//89 88//88 
f 89//89 86//86 88//88 
f 86//86 84//84 88//88 
f 87//87 90//90 91//91 
f 90//90 92//92 91//91 
f 92//92 89//89 91//91 
f 89//89 87//87 91//91 
f 90//90 93//93 94//94 
f 93//93 95//95 94//94 
f 95//95 92//92 94//94 
f 92//92 90//90 94//94 
f 93//93 96//96 97//97 
f 96//96 98//98 97//97 
f 98//98 95//95 97//97 
f 95//95 93//93 97//97 
f 96//96 99//99 100//100 
f 99//99 101//101 100//100 
f 101//101 98//98 100//100 
f 98//98 96//96 100//100 
f 99//99 102//102 103//103 
f 102//102 104//104 103//103 
f 104//104 101//101 103//103 
f 101//101 99//99 103//103 
f 102//102 105//105 106//106 
f 105//105 107//107 106//106 
f 107//107 104//104 106//106 
f 104//104 102//102 106//106 
f 105//105 108//108 109//109 
f 108//108 110//110 109//109 
f 110//110 107//107 109//109 
f 107//107 105//105 109//109 
f 108//108 111//111 112//112 
f 111//111 113//113 112//112 
f 113//113 110//110 112//112 
f 110//110 108//108 112//112 
f 111//111 114//114 115//115 
f 114//114 116//116 115//115 
f 116//116 113//113 115//115 
f 113//113 111//111 115//115 
f 114//114 117//117 118//118 
f 117//117 119//119 118//118 
f 119//119 116//116 118//118 
f 116//116 114//114 118//118 
f 117//117 120//120 121//121 
f 120//120 122//122 121//121 
f 122//122 119//119 121//121 
f 119//119 117//117 121//121 
f 120//120 123//123 124//124 
f 123//123 125//125 124//124 
f 125//125 122//122 124//124 
f 122//122 120//120 124//124 
f 123//123 126//126 127//127 
f 126//126 128//128 127//127 
f 128//128 125//125 127//127 
f 125//125 123//123 127//127 
f 126//126 129//129 130//130 
f 129//129 131//131 130//130 
f 131//131 128//128 130//130 
f 128//128 126//126 130//130 
f 129//129 132//132 133//133 
f 132//132 134//134 133//133 
f 134//134 131//131 133//133 
f 131//131 129//129 133//133 
s 4
f 132//132 135//135 136//136 
f 135//135 137//137 136//136 
f 137//137 134//134 136//136 
f 134//134 132//132 136//136 
f 135//135 138//138 139//139 
f 138//138 140//140 139//139 
f 140//140 137//137 139//139 
f 137//137 135//135 139//139 
f 138//138 141//141 142//142 
f 141//141 143//143 142//142 
f 143//143 140//140 142//142 
f 140//140 138//138 142//142 
f 141//141 144//144 145//145 
f 144//144 146//146 145//145 
f 146//146 143//143 145//145 
f 143//143 141//141 145//145 
f 144//144 147//147 148//148 
f 147//147 149//149 148//148 
f 149//149 146//146 148//148 
f 146//146 144//144 148//148 
f 147//147 150//150 151//151 
f 150//150 152//152 151//151 
f 152//152 149//149 151//151 
f 149//149 147//147 151//151 
f 150//150 153//153 154//154 
f 153//153 155//155 154//154 
f 155//155 152//152 154//154 
f 152//152 150//150 154//154 
f 153//153 156//156 157//157 
f 156//156 158//158 157//157 
f 158//158 155//155 157//157 
f 155//155 153//153 157//157 
f 156//156 159//159 160//160 
f 159//159 161//161 160//160 
f 161//161 158//158 160//160 
f 158//158 156//156 160//160 
s 2
f 159//159 162//162 163//163 
f 162//162 164//164 163//163 
f 164//164 161//161 163//163 
f 161//161 159//159 163//163 
f 162//162 165//165 166//166 
f 165//165 167//167 166//166 
f 167//167 164//164 166//166 
f 164//164 162//162 166//166 
f 165//165 168//168 169//169 
f 168//168 170//170 169//169 
f 170//170 167//167 169//169 
f 167//167 165//165 169//169 
f 168//168 171//171 172//172 
f 171//171 173//173 172//172 
f 173//173 170//170 172//172 
f 170//170 168//168 172//172 
f 171//171 174//174 175//175 
f 174//174 176//176 175//175 
f 176//176 173//173 175//175 
f 173//173 171//171 175//175 
f 174//174 177//177 178//178 
f 177//177 179//179 178//178 
f 179//179 176//176 178//178 
f 176//176 174//174 178//178 
f 177//177 180//180 181//181 
f 180//180 182//182 181//181 
f 182//182 179//179 181//181 
f 179//179 177//177 181//181 
f 180//180 183//183 184//184 
f 183//183 185//185 184//184 
f 185//185 182//182 184//184 
f 182//182 180//180 184//184 
f 183//183 186//186 187//187 
f 186//186 188//188 187//187 
f 188//188 185//185 187//187 
f 185//185 183//183 187//187 
f 186//186 189//189 190//190 
f 189//189 191//191 190//190 
f 191//191 188//188 190//190 
f 188//188 186//186 190//190 
f 189//189 192//192 193//193 
f 192//192 194//194 193//193 
f 194//194 191//191 193//193 
f 191//191 189//189 193//193 
f 192//192 195//195 196//196 
f 195//195 197//197 196//196 
f 197//197 194//194 196//196 
f 194//194 192//192 196//196 
f 195//195 198//198 199//199 
f 198//198 200//200 199//199 
f 200//200 197//197 199//199 
f 197//197 195//195 199//199 
f 198//198 201//201 202//202 
f 201//201 203//203 202//202 
f 203//203 200//200 202//202 
f 200//200 198//198 202//202 
f 201//201 204//204 205//205 
f 204//204 206//206 205//205 
f 206//206 203//203 205//205 
f 203//203 201//201 205//205 
f 204//204 207//207 208//208 
f 207//207 209//209 208//208 
f 209//209 206//206 208//208 
f 206//206 204//204 208//208 
f 207//207 210//210 211//211 
f 210//210 212//212 211//211 
f 212//212 209//209 211//211 
f 209//209 207//207 211//211 
f 210//210 213//213 214//214 
f 213//213 215//215 214//214 
f 215//215 212//212 214//214 
f 212//212 210//210 214//214 
f 213//213 216//216 217//217 
f 216//216 218//218 217//217 
f 218//218 215//215 217//217 
f 215//215 213//213 217//217 
f 216//216 219//219 220//220 
f 219//219 221//221 220//220 
f 221//221 218//218 220//220 
f 218//218 216//216 220//220 
f 219//219 222//222 223//223 
f 222//222 224//224 223//223 
f 224//224 221//221 223//223 
f 221//221 219//219 223//223 
f 222//222 225//225 226//226 
f 225//225 227//227 226//226 
f 227//227 224//224 226//226 
f 224//224 222//222 226//226 
f 225//225 228//228 229//229 
f 228//228 230//230 229//229 
f 230//230 227//227 229//229 
f 227//227 225//225 229//229 
f 228//228 231//231 232//232 
f 231//231 233//233 232//232 
f 233//233 230//230 232//232 
f 230//230 228//228 232//232 
f 231//231 234//234 235//235 
f 234//234 236//236 235//235 
f 236//236 233//233 235//235 
f 233//233 231//231 235//235 
f 234//234 237//237 238//238 
f 237//237 239//239 238//238 
f 239//239 236//236 238//238 
f 236//236 234//234 238//238 
f 237//237 240//240 241//241 
f 240//240 242//242 241//241 
f 242//242 239//239 241//241 
f 239//239 237//237 241//241 
f 240//240 243//243 244//244 
f 243//243 245//245 244//244 
f 245//245 242//242 244//244 
f 242//242 240//240 244//244 
f 243//243 246//246 247//247 
f 246//246 248//248 247//247 
f 248//248 245//245 247//247 
f 245//245 243//243 247//247 
f 246//246 249//249 250//250 
f 249//249 251//251 250//250 
f 251//251 248//248 250//250 
f 248//248 246//246 250//250 
f 249//249 252//252 253//253 
f 252//252 254//254 253//253 
f 254//254 251//251 253//253 
f 251//251 249//249 253//253 
f 252//252 255//255 256//256 
f 255//255 257//257 256//256 
f 257//257 254//254 256//256 
f 254//254 252//252 256//256 
f 255//255 258//258 259//259 
f 258//258 260//260 259//259 
f 260//260 257//257 259//259 
f 257//257 255//255 259//259 
f 258//258 261//261 262//262 
f 261//261 263//263 262//262 
f 263//263 260//260 262//262 
f 260//260 258//258 262//262 
f 261//261 264//264 265//265 
f 264//264 266//266 265//265 
f 266//266 263//263 265//265 
f 263//263 261//261 265//265 
f 264//264 267//267 268//268 
f 267//267 269//269 268//268 
f 269//269 266//266 268//268 
f 266//266 264//264 268//268 
s 4
f 267//267 270//270 271//271 
f 270//270 272//272 271//271 
f 272//272 269//269 271//271 
f 269//269 267//267 271//271 
s 2
f 270//270 273//273 274//274 
f 273//273 275//275 274//274 
f 275//275 272//272 274//274 
f 272//272 270//270 274//274 
s 4
f 273//273 276//276 277//277 
f 276//276 278//278 277//277 
f 278//278 275//275 277//277 
f 275//275 273//273 277//277 
s 2
f 276//276 279//279 280//280 
f 279//279 281//281 280//280 
f 281//281 278//278 280//280 
f 278//278 276//276 280//280 
f 279//279 282//282 283//283 
f 282//282 284//284 283//283 
f 284//284 281//281 283//283 
f 281//281 279//279 283//283 
f 282//282 285//285 286//286 
f 285//285 287//287 286//286 
f 287//287 284//284 286//286 
f 284//284 282//282 286//286 
f 285//285 288//288 289//289 
f 288//288 290//290 289//289 
f 290//290 287//287 289//289 
f 287//287 285//285 289//289 
f 288//288 291//291 292//292 
f 291//291 293//293 292//292 
f 293//293 290//290 292//292 
f 290//290 288//288 292//292 
f 291//291 294//294 295//295 
f 294//294 296//296 295//295 
f 296//296 293//293 295//295 
f 293//293 291//291 295//295 
f 294//294 297//297 298//298 
f 297//297 299//299 298//298 
f 299//299 296//296 298//298 
f 296//296 294//294 298//298 
f 297//297 300//300 301//301 
f 300//300 302//302 301//301 
f 302//302 299//299 301//301 
f 299//299 297//297 301//301 
f 300//300 303//303 304//304 
f 303//303 305//305 304//304 
f 305//305 302//302 304//304 
f 302//302 300//300 304//304 
f 303//303 306//306 307//307 
f 306//306 308//308 307//307 
f 308//308 305//305 307//307 
f 305//305 303//303 307//307 
f 306//306 309//309 310//310 
f 309//309 311//311 310//310 
f 311//311 308//308 310//310 
f 308//308 306//306 310//310 
f 309//309 312//312 313//313 
f 312//312 314//314 313//313 
f 314//314 311//311 313//313 
f 311//311 309//309 313//313 
f 312//312 315//315 316//316 
f 315//315 317//317 316//316 
f 317//317 314//314 316//316 
f 314//314 312//312 316//316 
f 315//315 318//318 319//319 
f 318//318 320//320 319//319 
f 320//320 317//317 319//319 
f 317//317 315//315 319//319 
f 318//318 321//321 322//322 
f 321//321 323//323 322//322 
f 323//323 320//320 322//322 
f 320//320 318//318 322//322 
f 321//321 324//324 325//325 
f 324//324 326//326 325//325 
f 326//326 323//323 325//325 
f 323//323 321//321 325//325 
f 324//324 327//327 328//328 
f 327//327 329//329 328//328 
f 329//329 326//326 328//328 
f 326//326 324//324 328//328 
f 327//327 330//330 331//331 
f 330//330 332//332 331//331 
f 332//332 329//329 331//331 
f 329//329 327//327 331//331 
f 330//330 333//333 334//334 
f 333//333 335//335 334//334 
f 335//335 332//332 334//334 
f 332//332 330//330 334//334 
f 333//333 336//336 337//337 
f 336//336 338//338 337//337 
f 338//338 335//335 337//337 
f 335//335 333//333 337//337 
f 336//336 339//339 340//340 
f 339//339 341//341 340//340 
f 341//341 338//338 340//340 
f 338//338 336//336 340//340 
f 339//339 342//342 343//343 
f 342//342 344//344 343//343 
f 344//344 341//341 343//343 
f 341//341 339//339 343//343 
f 342//342 345//345 346//346 
f 345//345 347//347 346//346 
f 347//347 344//344 346//346 
f 344//344 342//342 346//346 
f 345//345 348//348 349//349 
f 348//348 350//350 349//349 
f 350//350 347//347 349//349 
f 347//347 345//345 349//349 
f 348//348 351//351 352//352 
f 351//351 353//353 352//352 
f 353//353 350//350 352//352 
f 350//350 348//348 352//352 
f 351//351 354//354 355//355 
f 354//354 356//356 355//355 
f 356//356 353//353 355//355 
f 353//353 351//351 355//355 
f 354//354 357//357 358//358 
f 357//357 359//359 358//358 
f 359//359 356//356 358//358 
f 356//356 354//354 358//358 
f 357//357 360//360 361//361 
f 360//360 362//362 361//361 
f 362//362 359//359 361//361 
f 359//359 357//357 361//361 
f 360//360 363//363 364//364 
f 363//363 365//365 364//364 
f 365//365 362//362 364//364 
f 362//362 360//360 364//364 
f 363//363 366//366 367//367 
f 366//366 368//368 367//367 
f 368//368 365//365 367//367 
f 365//365 363//363 367//367 
f 366//366 369//369 370//370 
f 369//369 371//371 370//370 
f 371//371 368//368 370//370 
f 368//368 366//366 370//370 
f 369//369 372//372 373//373 
f 372//372 374//374 373//373 
f 374//374 371//371 373//373 
f 371//371 369//369 373//373 
f 372//372 375//375 376//376 
f 375//375 377//377 376//376 
f 377//377 374//374 376//376 
f 374//374 372//372 376//376 
f 375//375 378//378 379//379 
f 378//378 380//380 379//379 
f 380//380 377//377 379//379 
f 377//377 375//375 379//379 
f 378//378 381//381 382//382 
f 381//381 383//383 382//382 
f 383//383 380//380 382//382 
f 380//380 378//378 382//382 
f 381//381 384//384 385//385 
f 384//384 386//386 385//385 
f 386//386 383//383 385//385 
f 383//383 381//381 385//385 
f 384//384 387//387 388//388 
f 387//387 389//389 388//388 
f 389//389 386//386 388//388 
f 386//386 384//384 388//388 
f 387//387 390//390 391//391 
f 390//390 392//392 391//391 
f 392//392 389//389 391//391 
f 389//389 387//387 391//391 
f 390//390 393//393 394//394 
f 393//393 395//395 394//394 
f 395//395 392//392 394//394 
f 392//392 390//390 394//394 
f 393//393 396//396 397//397 
f 396//396 398//398 397//397 
f 398//398 395//395 397//397 
f 395//395 393//393 397//397 
f 396//396 399//399 400//400 
f 399//399 401//401 400//400 
f 401//401 398//398 400//400 
f 398//398 396//396 400//400 
f 399//399 402//402 403//403 
f 402//402 404//404 403//403 
f 404//404 401//401 403//403 
f 401//401 399//399 403//403 
f 402//402 405//405 406//406 
f 405//405 407//407 406//406 
f 407//407 404//404 406//406 
f 404//404 402//402 406//406 
f 405//405 408//408 409//409 
f 408//408 410//410 409//409 
f 410//410 407//407 409//409 
f 407//407 405//405 409//409 
f 408//408 411//411 412//412 
f 411//411 413//413 412//412 
f 413//413 410//410 412//412 
f 410//410 408//408 412//412 
s 4
f 411//411 414//414 415//415 
f 414//414 416//416 415//415 
f 416//416 413//413 415//415 
f 413//413 411//411 415//415 
f 414//414 417//417 418//418 
f 417//417 419//419 418//418 
f 419//419 416//416 418//418 
f 416//416 414//414 418//418 
f 417//417 420//420 421//421 
f 420//420 422//422 421//421 
f 422//422 419//419 421//421 
f 419//419 417//417 421//421 
f 420//420 423//423 424//424 
f 423//423 425//425 424//424 
f 425//425 422//422 424//424 
f 422//422 420//420 424//424 
f 423//423 426//426 427//427 
f 426//426 428//428 427//427 
f 428//428 425//425 427//427 
f 425//425 423//423 427//427 
f 426//426 429//429 430//430 
f 429//429 431//431 430//430 
f 431//431 428//428 430//430 
f 428//428 426//426 430//430 
f 429//429 432//432 433//433 
f 432//432 434//434 433//433 
f 434//434 431//431 433//433 
f 431//431 429//429 433//433 
f 432//432 435//435 436//436 
f 435//435 437//437 436//436 
f 437//437 434//434 436//436 
f 434//434 432//432 436//436 
f 435//435 438//438 439//439 
f 438//438 440//440 439//439 
f 440//440 437//437 439//439 
f 437//437 435//435 439//439 
s 2
f 438//438 441//441 442//274 
f 441//441 443//442 442//274 
f 443//442 440//440 442//274 
f 440//440 438//438 442//274 
s 5
f 441//441 1//1 444//443 
f 1//1 5//5 444//443 
f 5//5 443//442 444//443 
f 443//442 441//441 444//443 
s 1
f 445//444 446//445 447//446 
f 446//445 448//447 447//446 
f 448//447 449//448 447//446 
f 449//448 445//444 447//446 
s 3
f 446//445 450//449 451//450 
f 450//449 452//451 451//450 
f 452//451 448//447 451//450 
f 448//447 446//445 451//450 
s 2
f 450//449 453//452 454//453 
f 453//452 455//454 454//453 
f 455//454 452//451 454//453 
f 452//451 450//449 454//453 
f 453//452 456//455 457//456 
f 456//455 458//457 457//456 
f 458//457 455//454 457//456 
f 455//454 453//452 457//456 
f 456//455 459//458 460//459 
f 459//458 461//460 460//459 
f 461//460 458//457 460//459 
f 458//457 456//455 460//459 
f 459//458 462//461 463//462 
f 462//461 464//463 463//462 
f 464//463 461//460 463//462 
f 461//460 459//458 463//462 
f 462//461 465//464 466//465 
f 465//464 467//466 466//465 
f 467//466 464//463 466//465 
f 464//463 462//461 466//465 
f 465//464 468//467 469//468 
f 468//467 470//469 469//468 
f 470//469 467//466 469//468 
f 467//466 465//464 469//468 
f 468//467 471//470 472//471 
f 471//470 473//472 472//471 
f 473//472 470//469 472//471 
f 470//469 468//467 472//471 
f 471//470 474//473 475//474 
f 474//473 476//475 475//474 
f 476//475 473//472 475//474 
f 473//472 471//470 475//474 
f 474//473 477//476 478//477 
f 477//476 479//478 478//477 
f 479//478 476//475 478//477 
f 476//475 474//473 478//477 
f 477//476 480//479 481//480 
f 480//479 482//481 481//480 
f 482//481 479//478 481//480 
f 479//478 477//476 481//480 
f 480//479 483//482 484//483 
f 483//482 485//484 484//483 
f 485//484 482//481 484//483 
f 482//481 480//479 484//483 
f 483//482 486//485 487//486 
f 486//485 488//487 487//486 
f 488//487 485//484 487//486 
f 485//484 483//482 487//486 
f 486//485 489//488 490//489 
f 489//488 491//490 490//489 
f 491//490 488//487 490//489 
f 488//487 486//485 490//489 
f 489//488 492//491 493//492 
f 492//491 494//493 493//492 
f 494//493 491//490 493//492 
f 491//490 489//488 493//492 
f 492//491 495//494 496//495 
f 495//494 497//496 496//495 
f 497//496 494//493 496//495 
f 494//493 492//491 496//495 
f 495//494 498//497 499//498 
f 498//497 500//499 499//498 
f 500//499 497//496 499//498 
f 497//496 495//494 499//498 
f 498//497 501//500 502//501 
f 501//500 503//502 502//501 
f 503//502 500//499 502//501 
f 500//499 498//497 502//501 
f 501//500 504//503 505//504 
f 504//503 506//505 505//504 
f 506//505 503//502 505//504 
f 503//502 501//500 505//504 
f 504//503 507//506 508//507 
f 507//506 509//508 508//507 
f 509//508 506//505 508//507 
f 506//505 504//503 508//507 
f 507//506 510//509 511//510 
f 510//509 512//511 511//510 
f 512//511 509//508 511//510 
f 509//508 507//506 511//510 
f 510//509 513//512 514//513 
f 513//512 515//514 514//513 
f 515//514 512//511 514//513 
f 512//511 510//509 514//513 
f 513//512 516//515 517//516 
f 516//515 518//517 517//516 
f 518//517 515//514 517//516 
f 515//514 513//512 517//516 
f 516//515 519//518 520//519 
f 519//518 521//520 520//519 
f 521//520 518//517 520//519 
f 518//517 516//515 520//519 
f 519//518 522//521 523//522 
f 522//521 524//523 523//522 
f 524//523 521//520 523//522 
f 521//520 519//518 523//522 
f 522//521 525//524 526//525 
f 525//524 527//526 526//525 
f 527//526 524//523 526//525 
f 524//523 522//521 526//525 
f 525//524 528//527 529//528 
f 528//527 530//529 529//528 
f 530//529 527//526 529//528 
f 527//526 525//524 529//528 
f 528//527 531//530 532//531 
f 531//530 533//532 532//531 
f 533//532 530//529 532//531 
f 530//529 528//527 532//531 
f 531//530 534//533 535//534 
f 534//533 536//535 535//534 
f 536//535 533//532 535//534 
f 533//532 531//530 535//534 
f 534//533 537//536 538//537 
f 537//536 539//538 538//537 
f 539//538 536//535 538//537 
f 536//535 534//533 538//537 
f 537//536 540//539 541//540 
f 540//539 542//541 541//540 
f 542//541 539//538 541//540 
f 539//538 537//536 541//540 
f 540//539 543//542 544//543 
f 543//542 545//544 544//543 
f 545//544 542//541 544//543 
f 542//541 540//539 544//543 
f 543//542 546//545 547//546 
f 546//545 548//547 547//546 
f 548//547 545//544 547//546 
f 545//544 543//542 547//546 
f 546//545 549//548 550//549 
f 549//548 551//550 550//549 
f 551//550 548//547 550//549 
f 548//547 546//545 550//549 
s 3
f 549//548 445//444 552//551 
f 445//444 449//448 552//551 
f 449//448 551//550 552//551 
f 551//550 549//548 552//551 
s 16
f 435//435 1//1 553//552 
f 1//1 441//441 553//552 
f 441//441 438//438 553//552 
f 438//438 435//435 553//552 
f 4//4 428//428 554//553 
f 428//428 431//431 554//553 
f 431//431 4//4 554//553 
f 435//435 432//432 555//552 
f 432//432 1//1 555//552 
f 1//1 435//435 555//552 
f 432//432 429//429 556//552 
f 429//429 2//2 556//552 
f 2//2 1//1 556//552 
f 1//1 432//432 556//552 
f 429//429 426//426 557//552 
f 426//426 159//159 557//552 
f 159//159 6//6 557//552 
f 6//6 2//2 557//552 
f 2//2 429//429 557//552 
f 426//426 423//423 558//552 
f 423//423 159//159 558//552 
f 159//159 426//426 558//552 
f 132//132 559//552 498//497 560//552 
f 498//497 495//494 560//552 
f 495//494 24//24 560//552 
f 24//24 21//21 560//552 
f 21//21 132//132 560//552 
f 495//494 492//491 561//552 
f 492//491 27//27 561//552 
f 27//27 24//24 561//552 
f 24//24 495//494 561//552 
f 21//21 18//18 562//552 
f 18//18 135//135 562//552 
f 135//135 132//132 562//552 
f 132//132 21//21 562//552 
f 18//18 15//15 563//552 
f 15//15 141//141 563//552 
f 141//141 138//138 563//552 
f 138//138 135//135 563//552 
f 135//135 18//18 563//552 
f 15//15 12//12 564//552 
f 12//12 147//147 564//552 
f 147//147 144//144 564//552 
f 144//144 141//141 564//552 
f 141//141 15//15 564//552 
f 12//12 9//9 565//552 
f 9//9 156//156 565//552 
f 156//156 153//153 565//552 
f 153//153 150//150 565//552 
f 150//150 147//147 565//552 
f 147//147 12//12 565//552 
f 9//9 6//6 566//552 
f 6//6 159//159 566//552 
f 159//159 156//156 566//552 
f 156//156 9//9 566//552 
f 492//491 489//488 567//552 
f 489//488 27//27 567//552 
f 27//27 492//491 567//552 
f 489//488 486//485 568//552 
f 486//485 30//30 568//552 
f 30//30 27//27 568//552 
f 27//27 489//488 568//552 
f 486//485 483//482 569//552 
f 483//482 33//33 569//552 
f 33//33 30//30 569//552 
f 30//30 486//485 569//552 
f 483//482 480//479 570//552 
f 480//479 36//36 570//552 
f 36//36 33//33 570//552 
f 33//33 483//482 570//552 
f 480//479 477//476 571//552 
f 477//476 39//39 571//552 
f 39//39 36//36 571//552 
f 36//36 480//479 571//552 
f 477//476 474//473 572//552 
f 474//473 42//42 572//552 
f 42//42 39//39 572//552 
f 39//39 477//476 572//552 
f 474//473 471//470 573//552 
f 471//470 45//45 573//552 
f 45//45 42//42 573//552 
f 42//42 474//473 573//552 
f 471//470 468//467 574//552 
f 468//467 51//51 574//552 
f 51//51 48//48 574//552 
f 48//48 45//45 574//552 
f 45//45 471//470 574//552 
f 468//467 465//464 575//552 
f 465//464 54//54 575//552 
f 54//54 51//51 575//552 
f 51//51 468//467 575//552 
f 465//464 462//461 576//552 
f 462//461 57//57 576//552 
f 57//57 54//54 576//552 
f 54//54 465//464 576//552 
f 462//461 459//458 577//552 
f 459//458 60//60 577//552 
f 60//60 57//57 577//552 
f 57//57 462//461 577//552 
f 459//458 456//455 578//552 
f 456//455 63//63 578//552 
f 63//63 60//60 578//552 
f 60//60 459//458 578//552 
f 456//455 453//452 579//552 
f 453//452 66//66 579//552 
f 66//66 63//63 579//552 
f 63//63 456//455 579//552 
f 453//452 450//449 580//552 
f 450//449 69//69 580//552 
f 69//69 66//66 580//552 
f 66//66 453//452 580//552 
f 450//449 446//445 581//552 
f 446//445 75//75 581//552 
f 75//75 72//72 581//552 
f 72//72 69//69 581//552 
f 69//69 450//449 581//552 
f 446//445 445//444 582//552 
f 445//444 75//75 582//552 
f 75//75 446//445 582//552 
f 445//444 549//548 583//552 
f 549//548 78//78 583//552 
f 78//78 75//75 583//552 
f 75//75 445//444 583//552 
f 549//548 546//545 584//552 
f 546//545 81//81 584//552 
f 81//81 78//78 584//552 
f 78//78 549//548 584//552 
f 546//545 543//542 585//552 
f 543//542 84//84 585//552 
f 84//84 81//81 585//552 
f 81//81 546//545 585//552 
f 543//542 540//539 586//552 
f 540//539 87//87 586//552 
f 87//87 84//84 586//552 
f 84//84 543//542 586//552 
f 540//539 537//536 587//552 
f 537//536 90//90 587//552 
f 90//90 87//87 587//552 
f 87//87 540//539 587//552 
f 537//536 534//533 588//552 
f 534//533 93//93 588//552 
f 93//93 90//90 588//552 
f 90//90 537//536 588//552 
f 534//533 531//530 589//552 
f 531//530 96//96 589//552 
f 96//96 93//93 589//552 
f 93//93 534//533 589//552 
f 531//530 528//527 590//552 
f 528//527 99//99 590//552 
f 99//99 96//96 590//552 
f 96//96 531//530 590//552 
f 528//527 525//524 591//552 
f 525//524 102//102 591//552 
f 102//102 99//99 591//552 
f 99//99 528//527 591//552 
f 525//524 522//521 592//552 
f 522//521 105//105 592//552 
f 105//105 102//102 592//552 
f 102//102 525//524 592//552 
f 522//521 519//518 593//552 
f 519//518 108//108 593//552 
f 108//108 105//105 593//552 
f 105//105 522//521 593//552 
f 519//518 516//515 594//552 
f 516//515 111//111 594//552 
f 111//111 108//108 594//552 
f 108//108 519//518 594//552 
f 516//515 513//512 595//552 
f 513//512 117//117 595//552 
f 117//117 114//114 595//552 
f 114//114 111//111 595//552 
f 111//111 516//515 595//552 
f 513//512 510//509 596//552 
f 510//509 123//123 596//552 
f 123//123 120//120 596//552 
f 120//120 117//117 596//552 
f 117//117 513//512 596//552 
f 510//509 507//506 597//552 
f 507//506 126//126 597//552 
f 126//126 123//123 597//552 
f 123//123 510//509 597//552 
f 507//506 504//503 598//552 
f 504//503 132//132 598//552 
f 132//132 129//129 598//552 
f 129//129 126//126 598//552 
f 126//126 507//506 598//552 
f 504//503 501//500 599//552 
f 501//500 132//132 599//552 
f 132//132 504//503 599//552 
f 501//500 498//497 559//552 
f 132//132 501//500 559//552 
f 423//423 420//420 600//552 
f 420//420 162//162 600//552 
f 162//162 159//159 600//552 
f 159//159 423//423 600//552 
f 420//420 417//417 601//552 
f 417//417 168//168 601//552 
f 168//168 165//165 601//552 
f 165//165 162//162 601//552 
f 162//162 420//420 601//552 
f 417//417 414//414 602//552 
f 414//414 174//174 602//552 
f 174//174 171//171 602//552 
f 171//171 168//168 602//552 
f 168//168 417//417 602//552 
f 414//414 411//411 603//552 
f 411//411 177//177 603//552 
f 177//177 174//174 603//552 
f 174//174 414//414 603//552 
f 276//276 273//273 604//552 
f 273//273 270//270 604//552 
f 270//270 267//267 604//552 
f 267//267 276//276 604//552 
f 267//267 264//264 605//552 
f 264//264 282//282 605//552 
f 282//282 279//279 605//552 
f 279//279 276//276 605//552 
f 276//276 267//267 605//552 
f 264//264 261//261 606//552 
f 261//261 288//288 606//552 
f 288//288 285//285 606//552 
f 285//285 282//282 606//552 
f 282//282 264//264 606//552 
f 261//261 258//258 607//552 
f 258//258 297//297 607//552 
f 297//297 294//294 607//552 
f 294//294 291//291 607//552 
f 291//291 288//288 607//552 
f 288//288 261//261 607//552 
f 258//258 255//255 608//552 
f 255//255 303//303 608//552 
f 303//303 300//300 608//552 
f 300//300 297//297 608//552 
f 297//297 258//258 608//552 
f 255//255 252//252 609//552 
f 252//252 309//309 609//552 
f 309//309 306//306 609//552 
f 306//306 303//303 609//552 
f 303//303 255//255 609//552 
f 252//252 249//249 610//552 
f 249//249 315//315 610//552 
f 315//315 312//312 610//552 
f 312//312 309//309 610//552 
f 309//309 252//252 610//552 
f 249//249 246//246 611//552 
f 246//246 321//321 611//552 
f 321//321 318//318 611//552 
f 318//318 315//315 611//552 
f 315//315 249//249 611//552 
f 246//246 243//243 612//552 
f 243//243 327//327 612//552 
f 327//327 324//324 612//552 
f 324//324 321//321 612//552 
f 321//321 246//246 612//552 
f 243//243 240//240 613//552 
f 240//240 330//330 613//552 
f 330//330 327//327 613//552 
f 327//327 243//243 613//552 
f 240//240 237//237 614//552 
f 237//237 336//336 614//552 
f 336//336 333//333 614//552 
f 333//333 330//330 614//552 
f 330//330 240//240 614//552 
f 237//237 234//234 615//552 
f 234//234 342//342 615//552 
f 342//342 339//339 615//552 
f 339//339 336//336 615//552 
f 336//336 237//237 615//552 
f 234//234 231//231 616//552 
f 231//231 345//345 616//552 
f 345//345 342//342 616//552 
f 342//342 234//234 616//552 
f 231//231 228//228 617//552 
f 228//228 351//351 617//552 
f 351//351 348//348 617//552 
f 348//348 345//345 617//552 
f 345//345 231//231 617//552 
f 228//228 225//225 618//552 
f 225//225 360//360 618//552 
f 360//360 357//357 618//552 
f 357//357 354//354 618//552 
f 354//354 351//351 618//552 
f 351//351 228//228 618//552 
f 225//225 222//222 619//552 
f 222//222 366//366 619//552 
f 366//366 363//363 619//552 
f 363//363 360//360 619//552 
f 360//360 225//225 619//552 
f 222//222 219//219 620//552 
f 219//219 372//372 620//552 
f 372//372 369//369 620//552 
f 369//369 366//366 620//552 
f 366//366 222//222 620//552 
f 219//219 216//216 621//552 
f 216//216 378//378 621//552 
f 378//378 375//375 621//552 
f 375//375 372//372 621//552 
f 372//372 219//219 621//552 
f 216//216 213//213 622//552 
f 213//213 384//384 622//552 
f 384//384 381//381 622//552 
f 381//381 378//378 622//552 
f 378//378 216//216 622//552 
f 213//213 210//210 623//552 
f 210//210 387//387 623//552 
f 387//387 384//384 623//552 
f 384//384 213//213 623//552 
f 210//210 207//207 624//552 
f 207//207 390//390 624//552 
f 390//390 387//387 624//552 
f 387//387 210//210 624//552 
f 207//207 204//204 625//552 
f 204//204 393//393 625//552 
f 393//393 390//390 625//552 
f 390//390 207//207 625//552 
f 204//204 201//201 626//552 
f 201//201 396//396 626//552 
f 396//396 393//393 626//552 
f 393//393 204//204 626//552 
f 201//201 198//198 627//552 
f 198//198 399//399 627//552 
f 399//399 396//396 627//552 
f 396//396 201//201 627//552 
f 198//198 195//195 628//552 
f 195//195 402//402 628//552 
f 402//402 399//399 628//552 
f 399//399 198//198 628//552 
f 195//195 192//192 629//552 
f 192//192 402//402 629//552 
f 402//402 195//195 629//552 
f 192//192 189//189 630//552 
f 189//189 405//405 630//552 
f 405//405 402//402 630//552 
f 402//402 192//192 630//552 
f 189//189 186//186 631//552 
f 186//186 183//183 631//552 
f 183//183 180//180 631//552 
f 180//180 177//177 631//552 
f 177//177 411//411 631//552 
f 411//411 408//408 631//552 
f 408//408 405//405 631//552 
f 405//405 189//189 631//552 
f 437//437 440//440 632//553 
f 440//440 443//442 632//553 
f 443//442 5//5 632//553 
f 5//5 437//437 632//553 
f 4//4 8//8 633//553 
f 8//8 161//161 633//553 
f 161//161 428//428 633//553 
f 428//428 4//4 633//553 
f 431//431 434//434 634//553 
f 434//434 5//5 634//553 
f 5//5 4//4 634//553 
f 4//4 431//431 634//553 
f 434//434 437//437 635//553 
f 437//437 5//5 635//553 
f 5//5 434//434 635//553 
f 8//8 11//11 636//553 
f 11//11 158//158 636//553 
f 158//158 161//161 636//553 
f 161//161 8//8 636//553 
f 179//179 182//182 637//553 
f 182//182 185//185 637//553 
f 185//185 188//188 637//553 
f 188//188 191//191 637//553 
f 191//191 407//407 637//553 
f 407//407 410//410 637//553 
f 410//410 413//413 637//553 
f 413//413 179//179 637//553 
f 191//191 194//194 638//553 
f 194//194 404//404 638//553 
f 404//404 407//407 638//553 
f 407//407 191//191 638//553 
f 413//413 416//416 639//553 
f 416//416 176//176 639//553 
f 176//176 179//179 639//553 
f 179//179 413//413 639//553 
f 416//416 419//419 640//553 
f 419//419 170//170 640//553 
f 170//170 173//173 640//553 
f 173//173 176//176 640//553 
f 176//176 416//416 640//553 
f 419//419 422//422 641//553 
f 422//422 164//164 641//553 
f 164//164 167//167 641//553 
f 167//167 170//170 641//553 
f 170//170 419//419 641//553 
f 422//422 425//425 642//553 
f 425//425 161//161 642//553 
f 161//161 164//164 642//553 
f 164//164 422//422 642//553 
f 425//425 428//428 643//553 
f 428//428 161//161 643//553 
f 161//161 425//425 643//553 
f 194//194 197//197 644//553 
f 197//197 404//404 644//553 
f 404//404 194//194 644//553 
f 197//197 200//200 645//553 
f 200//200 401//401 645//553 
f 401//401 404//404 645//553 
f 404//404 197//197 645//553 
f 200//200 203//203 646//553 
f 203//203 398//398 646//553 
f 398//398 401//401 646//553 
f 401//401 200//200 646//553 
f 203//203 206//206 647//553 
f 206//206 395//395 647//553 
f 395//395 398//398 647//553 
f 398//398 203//203 647//553 
f 206//206 209//209 648//553 
f 209//209 392//392 648//553 
f 392//392 395//395 648//553 
f 395//395 206//206 648//553 
f 209//209 212//212 649//553 
f 212//212 389//389 649//553 
f 389//389 392//392 649//553 
f 392//392 209//209 649//553 
f 212//212 215//215 650//553 
f 215//215 386//386 650//553 
f 386//386 389//389 650//553 
f 389//389 212//212 650//553 
f 215//215 218//218 651//553 
f 218//218 380//380 651//553 
f 380//380 383//383 651//553 
f 383//383 386//386 651//553 
f 386//386 215//215 651//553 
f 218//218 221//221 652//553 
f 221//221 374//374 652//553 
f 374//374 377//377 652//553 
f 377//377 380//380 652//553 
f 380//380 218//218 652//553 
f 221//221 224//224 653//553 
f 224//224 368//368 653//553 
f 368//368 371//371 653//553 
f 371//371 374//374 653//553 
f 374//374 221//221 653//553 
f 224//224 227//227 654//553 
f 227//227 362//362 654//553 
f 362//362 365//365 654//553 
f 365//365 368//368 654//553 
f 368//368 224//224 654//553 
f 227//227 230//230 655//553 
f 230//230 353//353 655//553 
f 353//353 356//356 655//553 
f 356//356 359//359 655//553 
f 359//359 362//362 655//553 
f 362//362 227//227 655//553 
f 230//230 233//233 656//553 
f 233//233 347//347 656//553 
f 347//347 350//350 656//553 
f 350//350 353//353 656//553 
f 353//353 230//230 656//553 
f 233//233 236//236 657//553 
f 236//236 344//344 657//553 
f 344//344 347//347 657//553 
f 347//347 233//233 657//553 
f 236//236 239//239 658//553 
f 239//239 338//338 658//553 
f 338//338 341//341 658//553 
f 341//341 344//344 658//553 
f 344//344 236//236 658//553 
f 239//239 242//242 659//553 
f 242//242 332//332 659//553 
f 332//332 335//335 659//553 
f 335//335 338//338 659//553 
f 338//338 239//239 659//553 
f 242//242 245//245 660//553 
f 245//245 329//329 660//553 
f 329//329 332//332 660//553 
f 332//332 242//242 660//553 
f 245//245 248//248 661//553 
f 248//248 323//323 661//553 
f 323//323 326//326 661//553 
f 326//326 329//329 661//553 
f 329//329 245//245 661//553 
f 248//248 251//251 662//553 
f 251//251 317//317 662//553 
f 317//317 320//320 662//553 
f 320//320 323//323 662//553 
f 323//323 248//248 662//553 
f 251//251 254//254 663//553 
f 254//254 311//311 663//553 
f 311//311 314//314 663//553 
f 314//314 317//317 663//553 
f 317//317 251//251 663//553 
f 254//254 257//257 664//553 
f 257//257 305//305 664//553 
f 305//305 308//308 664//553 
f 308//308 311//311 664//553 
f 311//311 254//254 664//553 
f 257//257 260//260 665//553 
f 260//260 299//299 665//553 
f 299//299 302//302 665//553 
f 302//302 305//305 665//553 
f 305//305 257//257 665//553 
f 260//260 263//263 666//553 
f 263//263 290//290 666//553 
f 290//290 293//293 666//553 
f 293//293 296//296 666//553 
f 296//296 299//299 666//553 
f 299//299 260//260 666//553 
f 263//263 266//266 667//553 
f 266//266 284//284 667//553 
f 284//284 287//287 667//553 
f 287//287 290//290 667//553 
f 290//290 263//263 667//553 
f 266//266 269//269 668//553 
f 269//269 278//278 668//553 
f 278//278 281//281 668//553 
f 281//281 284//284 668//553 
f 284//284 266//266 668//553 
f 269//269 272//272 669//553 
f 272//272 275//275 669//553 
f 275//275 278//278 669//553 
f 278//278 269//269 669//553 
f 11//11 14//14 670//553 
f 14//14 149//149 670//553 
f 149//149 152//152 670//553 
f 152//152 155//155 670//553 
f 155//155 158//158 670//553 
f 158//158 11//11 670//553 
f 14//14 17//17 671//553 
f 17//17 143//143 671//553 
f 143//143 146//146 671//553 
f 146//146 149//149 671//553 
f 149//149 14//14 671//553 
f 17//17 20//20 672//553 
f 20//20 137//137 672//553 
f 137//137 140//140 672//553 
f 140//140 143//143 672//553 
f 143//143 17//17 672//553 
f 20//20 23//23 673//553 
f 23//23 134//134 673//553 
f 134//134 137//137 673//553 
f 137//137 20//20 673//553 
f 23//23 26//26 674//553 
f 26//26 134//134 674//553 
f 134//134 23//23 674//553 
f 500//499 503//502 675//553 
f 503//502 134//134 675//553 
f 503//502 506//505 676//553 
f 506//505 134//134 676//553 
f 134//134 503//502 676//553 
f 506//505 509//508 677//553 
f 509//508 128//128 677//553 
f 128//128 131//131 677//553 
f 131//131 134//134 677//553 
f 134//134 506//505 677//553 
f 509//508 512//511 678//553 
f 512//511 125//125 678//553 
f 125//125 128//128 678//553 
f 128//128 509//508 678//553 
f 512//511 515//514 679//553 
f 515//514 119//119 679//553 
f 119//119 122//122 679//553 
f 122//122 125//125 679//553 
f 125//125 512//511 679//553 
f 515//514 518//517 680//553 
f 518//517 113//113 680//553 
f 113//113 116//116 680//553 
f 116//116 119//119 680//553 
f 119//119 515//514 680//553 
f 518//517 521//520 681//553 
f 521//520 110//110 681//553 
f 110//110 113//113 681//553 
f 113//113 518//517 681//553 
f 521//520 524//523 682//553 
f 524//523 107//107 682//553 
f 107//107 110//110 682//553 
f 110//110 521//520 682//553 
f 524//523 527//526 683//553 
f 527//526 104//104 683//553 
f 104//104 107//107 683//553 
f 107//107 524//523 683//553 
f 527//526 530//529 684//553 
f 530//529 101//101 684//553 
f 101//101 104//104 684//553 
f 104//104 527//526 684//553 
f 530//529 533//532 685//553 
f 533//532 98//98 685//553 
f 98//98 101//101 685//553 
f 101//101 530//529 685//553 
f 533//532 536//535 686//553 
f 536//535 95//95 686//553 
f 95//95 98//98 686//553 
f 98//98 533//532 686//553 
f 536//535 539//538 687//553 
f 539//538 92//92 687//553 
f 92//92 95//95 687//553 
f 95//95 536//535 687//553 
f 539//538 542//541 688//553 
f 542//541 89//89 688//553 
f 89//89 92//92 688//553 
f 92//92 539//538 688//553 
f 542//541 545//544 689//553 
f 545//544 86//86 689//553 
f 86//86 89//89 689//553 
f 89//89 542//541 689//553 
f 545//544 548//547 690//553 
f 548//547 83//83 690//553 
f 83//83 86//86 690//553 
f 86//86 545//544 690//553 
f 548//547 551//550 691//553 
f 551//550 80//80 691//553 
f 80//80 83//83 691//553 
f 83//83 548//547 691//553 
f 551//550 449//448 692//553 
f 449//448 77//77 692//553 
f 77//77 80//80 692//553 
f 80//80 551//550 692//553 
f 449//448 448//447 693//553 
f 448//447 77//77 693//553 
f 77//77 449//448 693//553 
f 448//447 452//451 694//553 
f 452//451 71//71 694//553 
f 71//71 74//74 694//553 
f 74//74 77//77 694//553 
f 77//77 448//447 694//553 
f 452//451 455//454 695//553 
f 455//454 68//68 695//553 
f 68//68 71//71 695//553 
f 71//71 452//451 695//553 
f 455//454 458//457 696//553 
f 458//457 65//65 696//553 
f 65//65 68//68 696//553 
f 68//68 455//454 696//553 
f 458//457 461//460 697//553 
f 461//460 62//62 697//553 
f 62//62 65//65 697//553 
f 65//65 458//457 697//553 
f 461//460 464//463 698//553 
f 464//463 59//59 698//553 
f 59//59 62//62 698//553 
f 62//62 461//460 698//553 
f 464//463 467//466 699//553 
f 467//466 56//56 699//553 
f 56//56 59//59 699//553 
f 59//59 464//463 699//553 
f 467//466 470//469 700//553 
f 470//469 53//53 700//553 
f 53//53 56//56 700//553 
f 56//56 467//466 700//553 
f 470//469 473//472 701//553 
f 473//472 47//47 701//553 
f 47//47 50//50 701//553 
f 50//50 53//53 701//553 
f 53//53 470//469 701//553 
f 473//472 476//475 702//553 
f 476//475 44//44 702//553 
f 44//44 47//47 702//553 
f 47//47 473//472 702//553 
f 476//475 479//478 703//553 
f 479//478 41//41 703//553 
f 41//41 44//44 703//553 
f 44//44 476//475 703//553 
f 479//478 482//481 704//553 
f 482//481 38//38 704//553 
f 38//38 41//41 704//553 
f 41//41 479//478 704//553 
f 482//481 485//484 705//553 
f 485//484 35//35 705//553 
f 35//35 38//38 705//553 
f 38//38 482//481 705//553 
f 485//484 488//487 706//553 
f 488//487 32//32 706//553 
f 32//32 35//35 706//553 
f 35//35 485//484 706//553 
f 488//487 491//490 707//553 
f 491//490 29//29 707//553 
f 29//29 32//32 707//553 
f 32//32 488//487 707//553 
f 491//490 494//493 708//553 
f 494//493 29//29 708//553 
f 29//29 491//490 708//553 
f 494//493 497//496 709//553 
f 497//496 26//26 709//553 
f 26//26 29//29 709//553 
f 29//29 494//493 709//553 
f 497//496 500//499 710//553 
f 500//499 675//553 134//134 710//553 
f 134//134 26//26 710//553 
f 26//26 497//496 710//553 
# 2 polygons - 1416 triangles

