# 3ds Max Wavefront OBJ Exporter v0.97b - (c)2007 guruware
# File Created: 20.02.2021 17:43:40

#
# object To_Tau
#

v  773.7819 0.0000 -22.3589
v  772.9761 0.0000 -20.9960
v  773.3790 5.0000 -21.6775
v  772.9761 10.0000 -20.9960
v  773.7819 10.0000 -22.3589
v  772.2496 0.0000 -19.6808
v  772.6129 5.0000 -20.3384
v  772.2496 10.0000 -19.6808
v  771.6024 0.0000 -18.4133
v  771.9260 5.0000 -19.0471
v  771.6024 10.0000 -18.4133
v  771.0345 0.0000 -17.1935
v  771.3185 5.0000 -17.8034
v  771.0345 10.0000 -17.1935
v  770.5458 0.0000 -16.0215
v  770.7901 5.0000 -16.6075
v  770.5458 10.0000 -16.0215
v  770.1363 0.0000 -14.8971
v  770.3411 5.0000 -15.4593
v  770.1363 10.0000 -14.8971
v  769.8061 0.0000 -13.8204
v  769.9712 5.0000 -14.3587
v  769.8061 10.0000 -13.8204
v  769.5552 0.0000 -12.7914
v  769.6807 5.0000 -13.3059
v  769.5552 10.0000 -12.7914
v  769.2747 0.0000 -13.9342
v  769.4149 5.0000 -13.3628
v  769.2747 10.0000 -13.9342
v  768.9532 0.0000 -15.1141
v  769.1140 5.0000 -14.5241
v  768.9532 10.0000 -15.1141
v  768.5906 0.0000 -16.3312
v  768.7719 5.0000 -15.7226
v  768.5906 10.0000 -16.3312
v  768.1870 0.0000 -17.5853
v  768.3888 5.0000 -16.9582
v  768.1870 10.0000 -17.5853
v  767.7422 0.0000 -18.8767
v  767.9646 5.0000 -18.2310
v  767.7422 10.0000 -18.8767
v  767.2565 0.0000 -20.2052
v  767.4994 5.0000 -19.5409
v  767.2565 10.0000 -20.2052
v  766.7297 0.0000 -21.5708
v  766.9930 5.0000 -20.8880
v  766.7297 10.0000 -21.5708
v  766.1618 0.0000 -22.9736
v  766.4457 5.0000 -22.2722
v  766.1618 10.0000 -22.9736
v  765.5529 0.0000 -24.4135
v  765.8573 5.0000 -23.6935
v  765.5529 10.0000 -24.4135
v  765.0751 0.0000 -25.5824
v  765.3140 5.0000 -24.9979
v  765.0751 10.0000 -25.5824
v  764.6534 0.0000 -26.7334
v  764.8643 5.0000 -26.1579
v  764.6534 10.0000 -26.7334
v  764.2881 0.0000 -27.8666
v  764.4708 5.0000 -27.3000
v  764.2881 10.0000 -27.8666
v  763.9789 0.0000 -28.9818
v  764.1335 5.0000 -28.4242
v  763.9789 10.0000 -28.9818
v  763.7260 0.0000 -30.0792
v  763.8524 5.0000 -29.5305
v  763.7260 10.0000 -30.0792
v  763.5292 0.0000 -31.1586
v  763.6276 5.0000 -30.6189
v  763.5292 10.0000 -31.1586
v  763.3887 0.0000 -32.2202
v  763.4589 5.0000 -31.6894
v  763.3887 10.0000 -32.2202
v  763.3043 0.0000 -33.2639
v  763.3465 5.0000 -32.7421
v  763.3043 10.0000 -33.2639
v  763.2762 0.0000 -34.2897
v  763.2903 5.0000 -33.7768
v  763.2762 10.0000 -34.2897
v  763.3580 0.0000 -36.6966
v  763.3171 5.0000 -35.4932
v  763.3580 10.0000 -36.6966
v  763.6033 0.0000 -38.8848
v  763.4807 5.0000 -37.7907
v  763.6033 10.0000 -38.8848
v  764.0122 0.0000 -40.8543
v  763.8077 5.0000 -39.8696
v  764.0122 10.0000 -40.8543
v  764.5846 0.0000 -42.6053
v  764.2984 5.0000 -41.7298
v  764.5846 10.0000 -42.6053
v  765.3206 0.0000 -44.1375
v  764.9526 5.0000 -43.3714
v  765.3206 10.0000 -44.1375
v  766.2200 0.0000 -45.4512
v  765.7703 5.0000 -44.7944
v  766.2200 10.0000 -45.4512
v  767.2831 0.0000 -46.5462
v  766.7516 5.0000 -45.9987
v  767.2831 10.0000 -46.5462
v  768.5097 0.0000 -47.4225
v  767.8964 5.0000 -46.9844
v  768.5097 10.0000 -47.4225
v  769.8998 0.0000 -48.0803
v  769.2048 5.0000 -47.7514
v  769.8998 10.0000 -48.0803
v  778.3296 0.0000 -44.0553
v  774.1147 5.0000 -46.0678
v  778.3296 10.0000 -44.0553
v  786.5657 0.0000 -48.0803
v  782.4476 5.0000 -46.0678
v  786.5657 10.0000 -48.0803
v  787.0836 0.0000 -48.0498
v  786.8246 5.0000 -48.0650
v  787.0836 10.0000 -48.0498
v  787.5796 0.0000 -47.9583
v  787.3316 5.0000 -48.0040
v  787.5796 10.0000 -47.9583
v  788.0538 0.0000 -47.8059
v  787.8167 5.0000 -47.8821
v  788.0538 10.0000 -47.8059
v  788.5061 0.0000 -47.5925
v  788.2799 5.0000 -47.6992
v  788.5061 10.0000 -47.5925
v  788.9365 0.0000 -47.3182
v  788.7213 5.0000 -47.4554
v  788.9365 10.0000 -47.3182
v  789.3452 0.0000 -46.9829
v  789.1408 5.0000 -47.1505
v  789.3452 10.0000 -46.9829
v  789.7318 0.0000 -46.5866
v  789.5385 5.0000 -46.7848
v  789.7318 10.0000 -46.5866
v  790.0967 0.0000 -46.1294
v  789.9142 5.0000 -46.3580
v  790.0967 10.0000 -46.1294
v  790.4397 0.0000 -45.6112
v  790.2682 5.0000 -45.8703
v  790.4397 10.0000 -45.6112
v  790.7533 0.0000 -45.0565
v  790.5965 5.0000 -45.3339
v  790.7533 10.0000 -45.0565
v  791.0300 0.0000 -44.4899
v  790.8917 5.0000 -44.7732
v  791.0300 10.0000 -44.4899
v  791.2698 0.0000 -43.9113
v  791.1499 5.0000 -44.2006
v  791.2698 10.0000 -43.9113
v  791.4728 0.0000 -43.3208
v  791.3713 5.0000 -43.6161
v  791.4728 10.0000 -43.3208
v  791.6388 0.0000 -42.7183
v  791.5558 5.0000 -43.0196
v  791.6388 10.0000 -42.7183
v  791.7679 0.0000 -42.1039
v  791.7034 5.0000 -42.4111
v  791.7679 10.0000 -42.1039
v  791.8602 0.0000 -41.4775
v  791.8140 5.0000 -41.7907
v  791.8602 10.0000 -41.4775
v  791.9155 0.0000 -40.8391
v  791.8878 5.0000 -41.1583
v  791.9155 10.0000 -40.8391
v  791.9340 0.0000 -40.1888
v  791.9247 5.0000 -40.5140
v  791.9340 10.0000 -40.1888
v  791.9340 0.0000 -5.2547
v  791.9340 5.0000 -22.7218
v  791.9340 10.0000 -5.2547
v  801.7549 0.0000 -5.2547
v  796.8444 5.0000 -5.2547
v  801.7549 10.0000 -5.2547
v  801.7549 0.0000 -38.7750
v  801.7549 5.0000 -22.0149
v  801.7549 10.0000 -38.7750
v  801.7070 0.0000 -40.1000
v  801.7310 5.0000 -39.4375
v  801.7070 10.0000 -40.1000
v  801.5635 0.0000 -41.4004
v  801.6353 5.0000 -40.7502
v  801.5635 10.0000 -41.4004
v  801.3244 0.0000 -42.6763
v  801.4440 5.0000 -42.0384
v  801.3244 10.0000 -42.6763
v  800.9896 0.0000 -43.9277
v  801.1570 5.0000 -43.3020
v  800.9896 10.0000 -43.9277
v  800.5591 0.0000 -45.1547
v  800.7744 5.0000 -44.5412
v  800.5591 10.0000 -45.1547
v  800.0331 0.0000 -46.3571
v  800.2961 5.0000 -45.7559
v  800.0331 10.0000 -46.3571
v  799.4113 0.0000 -47.5350
v  799.7222 5.0000 -46.9460
v  799.4113 10.0000 -47.5350
v  798.6939 0.0000 -48.6884
v  799.0526 5.0000 -48.1117
v  798.6939 10.0000 -48.6884
v  797.8809 0.0000 -49.8173
v  798.2874 5.0000 -49.2528
v  797.8809 10.0000 -49.8173
v  796.9781 0.0000 -50.8719
v  797.4294 5.0000 -50.3446
v  796.9781 10.0000 -50.8719
v  795.9917 0.0000 -51.8024
v  796.4849 5.0000 -51.3372
v  795.9917 10.0000 -51.8024
v  794.9216 0.0000 -52.6089
v  795.4567 5.0000 -52.2057
v  794.9216 10.0000 -52.6089
v  793.7679 0.0000 -53.2913
v  794.3448 5.0000 -52.9501
v  793.7679 10.0000 -53.2913
v  792.5305 0.0000 -53.8496
v  793.1492 5.0000 -53.5704
v  792.5305 10.0000 -53.8496
v  791.2095 0.0000 -54.2839
v  791.8700 5.0000 -54.0667
v  791.2095 10.0000 -54.2839
v  789.8047 0.0000 -54.5940
v  790.5071 5.0000 -54.4389
v  789.8047 10.0000 -54.5940
v  788.3163 0.0000 -54.7802
v  789.0605 5.0000 -54.6871
v  788.3163 10.0000 -54.7802
v  786.7443 0.0000 -54.8422
v  787.5303 5.0000 -54.8112
v  786.7443 10.0000 -54.8422
v  778.3296 0.0000 -51.1392
v  782.5369 5.0000 -52.9907
v  778.3296 10.0000 -51.1392
v  770.0130 0.0000 -54.8422
v  774.1713 5.0000 -52.9907
v  770.0130 10.0000 -54.8422
v  769.0092 0.0000 -54.7761
v  769.5111 5.0000 -54.8091
v  769.0092 10.0000 -54.7761
v  767.9801 0.0000 -54.5777
v  768.4946 5.0000 -54.6769
v  767.9801 10.0000 -54.5777
v  766.9257 0.0000 -54.2471
v  767.4529 5.0000 -54.4124
v  766.9257 10.0000 -54.2471
v  765.8459 0.0000 -53.7843
v  766.3858 5.0000 -54.0157
v  765.8459 10.0000 -53.7843
v  764.7409 0.0000 -53.1892
v  765.2934 5.0000 -53.4867
v  764.7409 10.0000 -53.1892
v  763.6105 0.0000 -52.4619
v  764.1757 5.0000 -52.8255
v  763.6105 10.0000 -52.4619
v  762.4549 0.0000 -51.6023
v  763.0327 5.0000 -52.0321
v  762.4549 10.0000 -51.6023
v  761.2739 0.0000 -50.6105
v  761.8644 5.0000 -51.1064
v  761.2739 10.0000 -50.6105
v  760.0676 0.0000 -49.4865
v  760.6708 5.0000 -50.0485
v  760.0676 10.0000 -49.4865
v  758.9164 0.0000 -48.2435
v  759.4920 5.0000 -48.8650
v  758.9164 10.0000 -48.2435
v  757.9006 0.0000 -46.8951
v  758.4084 5.0000 -47.5693
v  757.9006 10.0000 -46.8951
v  757.0202 0.0000 -45.4411
v  757.4604 5.0000 -46.1681
v  757.0202 10.0000 -45.4411
v  756.2753 0.0000 -43.8816
v  756.6478 5.0000 -44.6614
v  756.2753 10.0000 -43.8816
v  755.6658 0.0000 -42.2165
v  755.9706 5.0000 -43.0491
v  755.6658 10.0000 -42.2165
v  755.1918 0.0000 -40.4460
v  755.4288 5.0000 -41.3313
v  755.1918 10.0000 -40.4460
v  754.8532 0.0000 -38.5699
v  755.0225 5.0000 -39.5079
v  754.8532 10.0000 -38.5699
v  754.6500 0.0000 -36.5882
v  754.7516 5.0000 -37.5790
v  754.6500 10.0000 -36.5882
v  754.5823 0.0000 -34.5010
v  754.6162 5.0000 -35.5446
v  754.5823 10.0000 -34.5010
v  754.6093 0.0000 -33.5459
v  754.5958 5.0000 -34.0235
v  754.6093 10.0000 -33.5459
v  754.6899 0.0000 -32.5520
v  754.6495 5.0000 -33.0490
v  754.6899 10.0000 -32.5520
v  754.8244 0.0000 -31.5195
v  754.7571 5.0000 -32.0358
v  754.8244 10.0000 -31.5195
v  755.0126 0.0000 -30.4483
v  754.9185 5.0000 -30.9839
v  755.0126 10.0000 -30.4483
v  755.2547 0.0000 -29.3383
v  755.1337 5.0000 -29.8933
v  755.2547 10.0000 -29.3383
v  755.5506 0.0000 -28.1897
v  755.4026 5.0000 -28.7640
v  755.5506 10.0000 -28.1897
v  755.9002 0.0000 -27.0024
v  755.7254 5.0000 -27.5960
v  755.9002 10.0000 -27.0024
v  756.3036 0.0000 -25.7763
v  756.1019 5.0000 -26.3893
v  756.3036 10.0000 -25.7763
v  756.7609 0.0000 -24.5116
v  756.5322 5.0000 -25.1440
v  756.7609 10.0000 -24.5116
v  757.5065 0.0000 -22.5056
v  757.1337 5.0000 -23.5086
v  757.5065 10.0000 -22.5056
v  758.1826 0.0000 -20.6601
v  757.8445 5.0000 -21.5828
v  758.1826 10.0000 -20.6601
v  758.7892 0.0000 -18.9750
v  758.4860 5.0000 -19.8176
v  758.7892 10.0000 -18.9750
v  759.3264 0.0000 -17.4505
v  759.0578 5.0000 -18.2128
v  759.3264 10.0000 -17.4505
v  759.7940 0.0000 -16.0865
v  759.5602 5.0000 -16.7685
v  759.7940 10.0000 -16.0865
v  760.1921 0.0000 -14.8830
v  759.9930 5.0000 -15.4848
v  760.1921 10.0000 -14.8830
v  760.5208 0.0000 -13.8400
v  760.3564 5.0000 -14.3615
v  760.5208 10.0000 -13.8400
v  760.7798 0.0000 -12.9575
v  760.6503 5.0000 -13.3987
v  760.7798 10.0000 -12.9575
v  760.9694 0.0000 -12.2355
v  760.8746 5.0000 -12.5965
v  760.9694 10.0000 -12.2355
v  761.1157 0.0000 -11.5788
v  761.0425 5.0000 -11.9072
v  761.1157 10.0000 -11.5788
v  761.2448 0.0000 -10.8925
v  761.1802 5.0000 -11.2356
v  761.2448 10.0000 -10.8925
v  761.3566 0.0000 -10.1763
v  761.3007 5.0000 -10.5344
v  761.3566 10.0000 -10.1763
v  761.4512 0.0000 -9.4304
v  761.4039 5.0000 -9.8034
v  761.4512 10.0000 -9.4304
v  761.5286 0.0000 -8.6548
v  761.4899 5.0000 -9.0426
v  761.5286 10.0000 -8.6548
v  761.5889 0.0000 -7.8494
v  761.5587 5.0000 -8.2521
v  761.5889 10.0000 -7.8494
v  761.6318 0.0000 -7.0142
v  761.6104 5.0000 -7.4318
v  761.6318 10.0000 -7.0142
v  761.6577 0.0000 -6.1493
v  761.6448 5.0000 -6.5818
v  761.6577 10.0000 -6.1493
v  761.6663 0.0000 -5.2547
v  761.6620 5.0000 -5.7020
v  761.6663 10.0000 -5.2547
v  773.7764 0.0000 -5.2547
v  767.7213 5.0000 -5.2547
v  773.7764 10.0000 -5.2547
v  773.8033 0.0000 -5.5309
v  773.7898 5.0000 -5.3928
v  773.8033 10.0000 -5.5309
v  773.8840 0.0000 -5.9046
v  773.8437 5.0000 -5.7177
v  773.8840 10.0000 -5.9046
v  774.0187 0.0000 -6.3757
v  773.9514 5.0000 -6.1401
v  774.0187 10.0000 -6.3757
v  774.2072 0.0000 -6.9442
v  774.1129 5.0000 -6.6599
v  774.2072 10.0000 -6.9442
v  774.4495 0.0000 -7.6101
v  774.3284 5.0000 -7.2771
v  774.4495 10.0000 -7.6101
v  774.7457 0.0000 -8.3735
v  774.5976 5.0000 -7.9918
v  774.7457 10.0000 -8.3735
v  775.0958 0.0000 -9.2343
v  774.9207 5.0000 -8.8039
v  775.0958 10.0000 -9.2343
v  775.4996 0.0000 -10.1925
v  775.2977 5.0000 -9.7134
v  775.4996 10.0000 -10.1925
v  775.9574 0.0000 -11.2481
v  775.7285 5.0000 -10.7203
v  775.9574 10.0000 -11.2481
v  776.5000 0.0000 -12.4012
v  776.2287 5.0000 -11.8246
v  776.5000 10.0000 -12.4012
v  777.1584 0.0000 -13.6516
v  776.8292 5.0000 -13.0264
v  777.1584 10.0000 -13.6516
v  777.9327 0.0000 -14.9996
v  777.5455 5.0000 -14.3256
v  777.9327 10.0000 -14.9996
v  778.8228 0.0000 -16.4449
v  778.3777 5.0000 -15.7222
v  778.8228 10.0000 -16.4449
v  779.8287 0.0000 -17.9877
v  779.3258 5.0000 -17.2163
v  779.8287 10.0000 -17.9877
v  780.9506 0.0000 -19.6278
v  780.3896 5.0000 -18.8077
v  780.9506 10.0000 -19.6278
v  782.1882 0.0000 -21.3655
v  781.5694 5.0000 -20.4966
v  782.1882 10.0000 -21.3655
v  783.5417 0.0000 -23.2005
v  782.8649 5.0000 -22.2830
v  783.5417 10.0000 -23.2005
v  785.0110 0.0000 -25.1330
v  784.2764 5.0000 -24.1667
v  785.0110 10.0000 -25.1330
v  785.4503 0.0000 -25.7512
v  785.2307 5.0000 -25.4421
v  785.4503 10.0000 -25.7512
v  785.8379 0.0000 -26.4006
v  785.6441 5.0000 -26.0759
v  785.8379 10.0000 -26.4006
v  786.1738 0.0000 -27.0811
v  786.0059 5.0000 -26.7409
v  786.1738 10.0000 -27.0811
v  786.4580 0.0000 -27.7929
v  786.3159 5.0000 -27.4370
v  786.4580 10.0000 -27.7929
v  786.6906 0.0000 -28.5358
v  786.5743 5.0000 -28.1644
v  786.6906 10.0000 -28.5358
v  786.8715 0.0000 -29.3100
v  786.7810 5.0000 -28.9229
v  786.8715 10.0000 -29.3100
v  787.0006 0.0000 -30.1153
v  786.9360 5.0000 -29.7126
v  787.0006 10.0000 -30.1153
v  787.0782 0.0000 -30.9518
v  787.0394 5.0000 -30.5335
v  787.0782 10.0000 -30.9518
v  787.1040 0.0000 -31.8194
v  787.0911 5.0000 -31.3856
v  787.1040 10.0000 -31.8194
v  786.9918 0.0000 -33.6779
v  787.0479 5.0000 -32.7486
v  786.9918 10.0000 -33.6779
v  786.6553 0.0000 -35.3177
v  786.8235 5.0000 -34.4978
v  786.6553 10.0000 -35.3177
v  786.0944 0.0000 -36.7388
v  786.3749 5.0000 -36.0282
v  786.0944 10.0000 -36.7388
v  785.3092 0.0000 -37.9413
v  785.7018 5.0000 -37.3401
v  785.3092 10.0000 -37.9413
v  784.2996 0.0000 -38.9252
v  784.8044 5.0000 -38.4333
v  784.2996 10.0000 -38.9252
v  783.0656 0.0000 -39.6904
v  783.6826 5.0000 -39.3078
v  783.0656 10.0000 -39.6904
v  781.6073 0.0000 -40.2370
v  782.3365 5.0000 -39.9637
v  781.6073 10.0000 -40.2370
v  779.9247 0.0000 -40.5650
v  780.7660 5.0000 -40.4010
v  779.9247 10.0000 -40.5650
v  778.0176 0.0000 -40.6743
v  778.9712 5.0000 -40.6197
v  778.0176 10.0000 -40.6743
v  777.2158 0.0000 -40.6454
v  777.6167 5.0000 -40.6598
v  777.2158 10.0000 -40.6454
v  776.4414 0.0000 -40.5585
v  776.8286 5.0000 -40.6019
v  776.4414 10.0000 -40.5585
v  775.6945 0.0000 -40.4137
v  776.0679 5.0000 -40.4861
v  775.6945 10.0000 -40.4137
v  774.9751 0.0000 -40.2110
v  775.3348 5.0000 -40.3123
v  774.9751 10.0000 -40.2110
v  774.2831 0.0000 -39.9503
v  774.6292 5.0000 -40.0806
v  774.2831 10.0000 -39.9503
v  773.6187 0.0000 -39.6317
v  773.9509 5.0000 -39.7910
v  773.6187 10.0000 -39.6317
v  772.9818 0.0000 -39.2553
v  773.3002 5.0000 -39.4435
v  772.9818 10.0000 -39.2553
v  772.3723 0.0000 -38.8209
v  772.6770 5.0000 -39.0381
v  772.3723 10.0000 -38.8209
v  771.7903 0.0000 -38.3285
v  772.0813 5.0000 -38.5747
v  771.7903 10.0000 -38.3285
v  771.2536 0.0000 -37.7887
v  771.5220 5.0000 -38.0586
v  771.2536 10.0000 -37.7887
v  770.7801 0.0000 -37.2116
v  771.0168 5.0000 -37.5001
v  770.7801 10.0000 -37.2116
v  770.3697 0.0000 -36.5974
v  770.5749 5.0000 -36.9045
v  770.3697 10.0000 -36.5974
v  770.0224 0.0000 -35.9460
v  770.1960 5.0000 -36.2717
v  770.0224 10.0000 -35.9460
v  769.7383 0.0000 -35.2574
v  769.8804 5.0000 -35.6017
v  769.7383 10.0000 -35.2574
v  769.5173 0.0000 -34.5316
v  769.6278 5.0000 -34.8945
v  769.5173 10.0000 -34.5316
v  769.3594 0.0000 -33.7687
v  769.4384 5.0000 -34.1502
v  769.3594 10.0000 -33.7687
v  769.2648 0.0000 -32.9686
v  769.3121 5.0000 -33.3687
v  769.2648 10.0000 -32.9686
v  769.2332 0.0000 -32.1314
v  769.2490 5.0000 -32.5500
v  769.2332 10.0000 -32.1314
v  769.3003 0.0000 -30.7093
v  769.2667 5.0000 -31.4203
v  769.3003 10.0000 -30.7093
v  769.5015 0.0000 -29.4105
v  769.4009 5.0000 -30.0599
v  769.5015 10.0000 -29.4105
v  769.8369 0.0000 -28.2350
v  769.6692 5.0000 -28.8228
v  769.8369 10.0000 -28.2350
v  770.3065 0.0000 -27.1826
v  770.0717 5.0000 -27.7088
v  770.3065 10.0000 -27.1826
v  770.9103 0.0000 -26.2535
v  770.6084 5.0000 -26.7181
v  770.9103 10.0000 -26.2535
v  771.6482 0.0000 -25.4477
v  771.2792 5.0000 -25.8506
v  771.6482 10.0000 -25.4477
v  772.5203 0.0000 -24.7651
v  772.0842 5.0000 -25.1064
v  772.5203 10.0000 -24.7651
v  773.5265 0.0000 -24.2057
v  773.0234 5.0000 -24.4854
v  773.5265 10.0000 -24.2057
v  774.6669 0.0000 -23.7695
v  774.0967 5.0000 -23.9876
v  774.6669 10.0000 -23.7695
v  774.2244 5.0000 -23.0642
v  779.0063 0.0000 -36.1133
v  779.7722 0.0000 -35.9542
v  779.3893 5.0000 -36.0338
v  779.7722 10.0000 -35.9542
v  779.0063 10.0000 -36.1133
v  780.4360 0.0000 -35.6890
v  780.1041 5.0000 -35.8216
v  780.4360 10.0000 -35.6890
v  780.9976 0.0000 -35.3176
v  780.7168 5.0000 -35.5033
v  780.9976 10.0000 -35.3176
v  781.4572 0.0000 -34.8402
v  781.2274 5.0000 -35.0789
v  781.4572 10.0000 -34.8402
v  781.8145 0.0000 -34.2567
v  781.6359 5.0000 -34.5485
v  781.8145 10.0000 -34.2567
v  782.0698 0.0000 -33.5672
v  781.9422 5.0000 -33.9120
v  782.0698 10.0000 -33.5672
v  782.2230 0.0000 -32.7715
v  782.1464 5.0000 -33.1693
v  782.2230 10.0000 -32.7715
v  782.2740 0.0000 -31.8697
v  782.2485 5.0000 -32.3206
v  782.2740 10.0000 -31.8697
v  782.2260 0.0000 -30.9806
v  782.2500 5.0000 -31.4252
v  782.2260 10.0000 -30.9806
v  782.0816 0.0000 -30.1961
v  782.1538 5.0000 -30.5884
v  782.0816 10.0000 -30.1961
v  781.8411 0.0000 -29.5162
v  781.9614 5.0000 -29.8562
v  781.8411 10.0000 -29.5162
v  781.5043 0.0000 -28.9409
v  781.6727 5.0000 -29.2286
v  781.5043 10.0000 -28.9409
v  781.0714 0.0000 -28.4703
v  781.2878 5.0000 -28.7056
v  781.0714 10.0000 -28.4703
v  780.5422 0.0000 -28.1042
v  780.8068 5.0000 -28.2872
v  780.5422 10.0000 -28.1042
v  779.9168 0.0000 -27.8427
v  780.2295 5.0000 -27.9734
v  779.9168 10.0000 -27.8427
v  779.1952 0.0000 -27.6858
v  779.5560 5.0000 -27.7642
v  779.1952 10.0000 -27.6858
v  778.3774 0.0000 -27.6335
v  778.7863 5.0000 -27.6596
v  778.3774 10.0000 -27.6335
v  777.4719 0.0000 -27.6873
v  777.9247 5.0000 -27.6604
v  777.4719 10.0000 -27.6873
v  776.6730 0.0000 -27.8486
v  777.0724 5.0000 -27.7679
v  776.6730 10.0000 -27.8486
v  775.9806 0.0000 -28.1176
v  776.3268 5.0000 -27.9831
v  775.9806 10.0000 -28.1176
v  775.3947 0.0000 -28.4941
v  775.6876 5.0000 -28.3058
v  775.3947 10.0000 -28.4941
v  774.9153 0.0000 -28.9782
v  775.1550 5.0000 -28.7362
v  774.9153 10.0000 -28.9782
v  774.5425 0.0000 -29.5699
v  774.7289 5.0000 -29.2741
v  774.5425 10.0000 -29.5699
v  774.2762 0.0000 -30.2692
v  774.4094 5.0000 -29.9195
v  774.2762 10.0000 -30.2692
v  774.1164 0.0000 -31.0760
v  774.1963 5.0000 -30.6726
v  774.1164 10.0000 -31.0760
v  774.0631 0.0000 -31.9905
v  774.0898 5.0000 -31.5333
v  774.0631 10.0000 -31.9905
v  774.1135 0.0000 -32.8669
v  774.0883 5.0000 -32.4287
v  774.1135 10.0000 -32.8669
v  774.2644 0.0000 -33.6402
v  774.1889 5.0000 -33.2536
v  774.2644 10.0000 -33.6402
v  774.5159 0.0000 -34.3104
v  774.3901 5.0000 -33.9753
v  774.5159 10.0000 -34.3104
v  774.8682 0.0000 -34.8775
v  774.6920 5.0000 -34.5940
v  774.8682 10.0000 -34.8775
v  775.3209 0.0000 -35.3415
v  775.0945 5.0000 -35.1095
v  775.3209 10.0000 -35.3415
v  775.8744 0.0000 -35.7024
v  775.5977 5.0000 -35.5219
v  775.8744 10.0000 -35.7024
v  776.5284 0.0000 -35.9602
v  776.2014 5.0000 -35.8313
v  776.5284 10.0000 -35.9602
v  777.2831 0.0000 -36.1148
v  776.9058 5.0000 -36.0375
v  777.2831 10.0000 -36.1148
v  778.1384 0.0000 -36.1664
v  777.7108 5.0000 -36.1406
v  778.1384 10.0000 -36.1664
v  778.5724 5.0000 -36.1399
v  767.7259 0.0000 -5.5474
v  765.7016 10.0000 -6.9227
v  767.7442 0.0000 -6.1498
v  767.7809 0.0000 -6.7860
v  770.0618 0.0000 -7.7364
v  765.8098 0.0000 -8.5651
v  767.8358 0.0000 -7.4560
v  768.3116 0.0000 -9.6763
v  764.0521 0.0000 -11.2867
v  780.8256 0.0000 -24.9713
v  780.8846 0.0000 -26.2430
v  780.5054 0.0000 -22.8756
v  779.7189 0.0000 -21.7497
v  779.0096 0.0000 -20.6887
v  778.3776 0.0000 -19.6926
v  777.8228 0.0000 -18.7616
v  777.3453 0.0000 -17.8954
v  776.9449 0.0000 -17.0942
v  772.7838 0.0000 -17.6166
v  773.3835 0.0000 -10.7394
v  773.1322 0.0000 -10.1330
v  781.3336 0.0000 -26.3824
v  782.5416 0.0000 -26.2270
v  783.2593 0.0000 -27.0738
v  784.1615 0.0000 -27.5380
v  785.0194 0.0000 -28.7387
v  784.5449 0.0000 -30.1505
v  785.1365 0.0000 -31.1474
v  784.6482 0.0000 -32.5346
v  784.4850 0.0000 -33.8335
v  784.1585 0.0000 -34.9701
v  783.6688 0.0000 -35.9443
v  783.0159 0.0000 -36.7561
v  782.1997 0.0000 -37.4056
v  781.2203 0.0000 -37.8927
v  780.0776 0.0000 -38.2174
v  778.7718 0.0000 -38.3798
v  777.4193 0.0000 -38.8319
v  776.1845 0.0000 -38.6516
v  775.0560 0.0000 -38.2911
v  774.0336 0.0000 -37.7504
v  773.1210 0.0000 -37.0314
v  772.3575 0.0000 -36.1571
v  771.7822 0.0000 -35.1503
v  771.3986 0.0000 -34.0130
v  771.2068 0.0000 -32.7452
v  771.6782 0.0000 -31.4768
v  771.7986 0.0000 -30.3663
v  771.6927 0.0000 -28.9334
v  772.6686 0.0000 -27.9961
v  773.0778 0.0000 -26.7877
v  774.3555 0.0000 -26.3956
v  775.2117 0.0000 -25.9853
v  776.2706 0.0000 -26.4351
v  776.8387 0.0000 -26.3634
v  763.9719 0.0000 -11.7542
v  765.2288 0.0000 -12.6350
v  764.9943 0.0000 -13.5603
v  764.7111 0.0000 -14.5607
v  764.3726 0.0000 -15.6599
v  763.9788 0.0000 -16.8579
v  763.5298 0.0000 -18.1547
v  763.0255 0.0000 -19.5504
v  762.4658 0.0000 -21.0449
v  761.5792 0.0000 -23.2904
v  774.1430 0.0000 -49.5292
v  763.2991 0.0000 -22.6824
v  797.8170 0.0000 -25.9146
v  767.8655 0.0000 -52.6149
v  765.3198 0.0000 -50.2444
v  763.4599 0.0000 -48.7393
v  762.6312 0.0000 -46.8297
v  760.7485 0.0000 -45.4645
v  759.5117 0.0000 -42.9998
v  759.6183 0.0000 -40.6004
v  758.3313 0.0000 -38.2371
v  758.9667 0.0000 -35.5189
v  758.0924 0.0000 -33.6305
v  759.0518 0.0000 -32.3889
v  758.4019 0.0000 -30.9370
v  759.5151 0.0000 -29.6915
v  759.7889 0.0000 -28.5633
v  760.1177 0.0000 -27.4068
v  760.5015 0.0000 -26.2220
v  760.9990 0.0000 -24.8333
v  796.7800 0.0000 -40.6321
v  796.6659 0.0000 -41.5983
v  796.4855 0.0000 -42.5464
v  796.2389 0.0000 -43.4762
v  795.9260 0.0000 -44.3877
v  795.5468 0.0000 -45.2810
v  795.1013 0.0000 -46.1562
v  794.5895 0.0000 -47.0130
v  794.0130 0.0000 -47.8392
v  793.3765 0.0000 -48.6037
v  792.6855 0.0000 -49.2818
v  791.9417 0.0000 -49.8674
v  791.1450 0.0000 -50.3605
v  790.2957 0.0000 -50.7611
v  789.3935 0.0000 -51.0691
v  788.4386 0.0000 -51.2846
v  787.6599 0.0000 -50.2627
v  785.4079 0.0000 -51.3783
v  781.0750 0.0000 -47.7583
v  767.7259 10.0000 -5.5474
v  767.7551 10.0000 -7.1961
v  767.7442 10.0000 -6.1498
v  769.9182 10.0000 -7.3249
v  767.9091 10.0000 -8.1599
v  770.0504 10.0000 -9.5514
v  773.1322 10.0000 -10.1330
v  763.0833 10.0000 -21.7186
v  761.5792 10.0000 -23.2904
v  763.0255 10.0000 -19.5504
v  763.5298 10.0000 -18.1547
v  763.9788 10.0000 -16.8579
v  764.3726 10.0000 -15.6599
v  764.7111 10.0000 -14.5607
v  764.9943 10.0000 -13.5603
v  765.2288 10.0000 -12.6350
v  763.9719 10.0000 -11.7542
v  764.0521 10.0000 -11.2867
v  764.1210 10.0000 -10.7994
v  760.9990 10.0000 -24.8333
v  760.5015 10.0000 -26.2220
v  760.1177 10.0000 -27.4068
v  759.7889 10.0000 -28.5633
v  759.5151 10.0000 -29.6915
v  758.4019 10.0000 -30.9370
v  759.0518 10.0000 -32.3889
v  758.0924 10.0000 -33.6305
v  758.9667 10.0000 -35.5189
v  758.3313 10.0000 -38.2371
v  759.6183 10.0000 -40.6004
v  759.5117 10.0000 -42.9998
v  760.7485 10.0000 -45.4645
v  762.6312 10.0000 -46.8297
v  763.4599 10.0000 -48.7393
v  765.3198 10.0000 -50.2444
v  767.8655 10.0000 -52.6149
v  781.0750 10.0000 -47.7583
v  785.4079 10.0000 -51.3783
v  774.1430 10.0000 -49.5292
v  787.6599 10.0000 -50.2627
v  788.4386 10.0000 -51.2846
v  789.3935 10.0000 -51.0691
v  790.2957 10.0000 -50.7611
v  791.1450 10.0000 -50.3605
v  791.9417 10.0000 -49.8674
v  792.6855 10.0000 -49.2818
v  793.3765 10.0000 -48.6037
v  794.0130 10.0000 -47.8392
v  794.5895 10.0000 -47.0130
v  795.1013 10.0000 -46.1562
v  795.5468 10.0000 -45.2810
v  795.9260 10.0000 -44.3877
v  796.2389 10.0000 -43.4762
v  796.4855 10.0000 -42.5464
v  796.6659 10.0000 -41.5983
v  796.7800 10.0000 -40.6321
v  797.8170 10.0000 -25.9146
v  773.3835 10.0000 -10.7394
v  773.1187 10.0000 -18.3360
v  776.9449 10.0000 -17.0942
v  776.2706 10.0000 -26.4351
v  775.2117 10.0000 -25.9853
v  774.3555 10.0000 -26.3956
v  773.0778 10.0000 -26.7877
v  772.6686 10.0000 -27.9961
v  771.6927 10.0000 -28.9334
v  771.7986 10.0000 -30.3663
v  771.6782 10.0000 -31.4768
v  771.2068 10.0000 -32.7452
v  771.3986 10.0000 -34.0130
v  771.7822 10.0000 -35.1503
v  772.3575 10.0000 -36.1571
v  773.1210 10.0000 -37.0314
v  774.0336 10.0000 -37.7504
v  775.0560 10.0000 -38.2911
v  776.1845 10.0000 -38.6516
v  777.4193 10.0000 -38.8319
v  778.7718 10.0000 -38.3798
v  780.0776 10.0000 -38.2174
v  781.2203 10.0000 -37.8927
v  782.1997 10.0000 -37.4056
v  783.0159 10.0000 -36.7561
v  783.6688 10.0000 -35.9443
v  784.1585 10.0000 -34.9701
v  784.4850 10.0000 -33.8335
v  784.6482 10.0000 -32.5346
v  785.1365 10.0000 -31.1474
v  784.5449 10.0000 -30.1505
v  785.0194 10.0000 -28.7387
v  784.1615 10.0000 -27.5380
v  783.2593 10.0000 -27.0738
v  782.5416 10.0000 -26.2270
v  781.3336 10.0000 -26.3824
v  780.8846 10.0000 -26.2430
v  777.3453 10.0000 -17.8954
v  777.8228 10.0000 -18.7616
v  778.3776 10.0000 -19.6926
v  779.0096 10.0000 -20.6887
v  779.7189 10.0000 -21.7497
v  780.5054 10.0000 -22.8756
v  780.8256 10.0000 -24.9713
# 877 vertices

vn -0.6064 -0.7041 -0.3694
vn -0.6167 -0.7038 -0.3525
vn -0.8608 0.0000 -0.5089
vn -0.6167 0.7038 -0.3525
vn -0.6064 0.7041 -0.3694
vn -0.6276 -0.7035 -0.3335
vn -0.8753 0.0000 -0.4835
vn -0.6276 0.7035 -0.3335
vn -0.6391 -0.7030 -0.3119
vn -0.8906 0.0000 -0.4548
vn -0.6391 0.7030 -0.3119
vn -0.6511 -0.7025 -0.2872
vn -0.9065 0.0000 -0.4221
vn -0.6511 0.7025 -0.2872
vn -0.6634 -0.7020 -0.2590
vn -0.9230 0.0000 -0.3848
vn -0.6634 0.7020 -0.2590
vn -0.6759 -0.7013 -0.2265
vn -0.9396 0.0000 -0.3422
vn -0.6759 0.7013 -0.2265
vn -0.6880 -0.7006 -0.1892
vn -0.9560 0.0000 -0.2932
vn -0.6880 0.7006 -0.1892
vn -0.0001 -0.9918 -0.1276
vn -0.9715 0.0000 -0.2369
vn -0.0001 0.9918 -0.1276
vn 0.6873 -0.7043 -0.1780
vn 0.9712 0.0000 -0.2384
vn 0.6873 0.7043 -0.1780
vn 0.6825 -0.7045 -0.1946
vn 0.9648 0.0000 -0.2629
vn 0.6825 0.7045 -0.1946
vn 0.6778 -0.7047 -0.2100
vn 0.9584 0.0000 -0.2855
vn 0.6778 0.7047 -0.2100
vn 0.6730 -0.7048 -0.2242
vn 0.9519 0.0000 -0.3064
vn 0.6730 0.7048 -0.2242
vn 0.6684 -0.7050 -0.2372
vn 0.9455 0.0000 -0.3256
vn 0.6684 0.7050 -0.2372
vn 0.6638 -0.7051 -0.2494
vn 0.9392 0.0000 -0.3434
vn 0.6638 0.7051 -0.2494
vn 0.6593 -0.7053 -0.2606
vn 0.9330 0.0000 -0.3599
vn 0.6593 0.7053 -0.2606
vn 0.6550 -0.7054 -0.2710
vn 0.9269 0.0000 -0.3752
vn 0.6550 0.7054 -0.2710
vn 0.6517 -0.7085 -0.2710
vn 0.9210 0.0000 -0.3895
vn 0.6517 0.7085 -0.2710
vn 0.6554 -0.7113 -0.2539
vn 0.9257 0.0000 -0.3784
vn 0.6554 0.7113 -0.2539
vn 0.6644 -0.7115 -0.2287
vn 0.9390 0.0000 -0.3439
vn 0.6644 0.7115 -0.2287
vn 0.6728 -0.7118 -0.2016
vn 0.9517 0.0000 -0.3069
vn 0.6728 0.7118 -0.2016
vn 0.6805 -0.7121 -0.1727
vn 0.9637 0.0000 -0.2671
vn 0.6805 0.7121 -0.1727
vn 0.6874 -0.7124 -0.1418
vn 0.9744 0.0000 -0.2246
vn 0.6874 0.7124 -0.1418
vn 0.6930 -0.7126 -0.1090
vn 0.9838 0.0000 -0.1793
vn 0.6930 0.7126 -0.1090
vn 0.6973 -0.7129 -0.0743
vn 0.9914 0.0000 -0.1312
vn 0.6973 0.7129 -0.0743
vn 0.7000 -0.7131 -0.0378
vn 0.9968 0.0000 -0.0805
vn 0.7000 0.7131 -0.0378
vn 0.7001 -0.7141 0.0023
vn 0.9996 0.0000 -0.0274
vn 0.7001 0.7141 0.0023
vn 0.6963 -0.7160 0.0508
vn 0.9994 0.0000 0.0340
vn 0.6963 0.7160 0.0508
vn 0.6876 -0.7177 0.1097
vn 0.9938 0.0000 0.1114
vn 0.6876 0.7177 0.1097
vn 0.6708 -0.7198 0.1787
vn 0.9791 0.0000 0.2033
vn 0.6708 0.7198 0.1787
vn 0.6418 -0.7222 0.2577
vn 0.9505 0.0000 0.3107
vn 0.6418 0.7222 0.2577
vn 0.5966 -0.7247 0.3448
vn 0.9014 0.0000 0.4329
vn 0.5966 0.7247 0.3448
vn 0.5317 -0.7267 0.4349
vn 0.8251 0.0000 0.5650
vn 0.5317 0.7267 0.4349
vn 0.4471 -0.7279 0.5199
vn 0.7175 0.0000 0.6966
vn 0.4471 0.7279 0.5199
vn 0.3474 -0.7277 0.5914
vn 0.5813 0.0000 0.8137
vn 0.3474 0.7277 0.5914
vn -0.0010 -0.8176 0.5758
vn 0.4277 0.0000 0.9039
vn -0.0010 0.8176 0.5758
vn 0.0036 -0.6211 0.7838
vn -0.4309 0.0000 0.9024
vn 0.0036 0.6211 0.7838
vn 0.1257 -0.7690 0.6268
vn 0.4391 0.0000 0.8985
vn 0.1257 0.7690 0.6268
vn -0.0833 -0.7213 0.6876
vn -0.0588 0.0000 0.9983
vn -0.0833 0.7213 0.6876
vn -0.1690 -0.7219 0.6711
vn -0.1813 0.0000 0.9834
vn -0.1690 0.7219 0.6711
vn -0.2540 -0.7220 0.6436
vn -0.3060 0.0000 0.9520
vn -0.2540 0.7220 0.6436
vn -0.3344 -0.7216 0.6062
vn -0.4267 0.0000 0.9044
vn -0.3344 0.7216 0.6062
vn -0.4068 -0.7208 0.5611
vn -0.5375 0.0000 0.8433
vn -0.4068 0.7208 0.5611
vn -0.4694 -0.7197 0.5116
vn -0.6344 0.0000 0.7730
vn -0.4694 0.7197 0.5116
vn -0.5214 -0.7185 0.4604
vn -0.7157 0.0000 0.6984
vn -0.5214 0.7185 0.4604
vn -0.5634 -0.7172 0.4100
vn -0.7816 0.0000 0.6237
vn -0.5634 0.7172 0.4100
vn -0.5961 -0.7151 0.3652
vn -0.8339 0.0000 0.5519
vn -0.5961 0.7151 0.3652
vn -0.6196 -0.7140 0.3261
vn -0.8705 0.0000 0.4922
vn -0.6196 0.7140 0.3261
vn -0.6382 -0.7141 0.2878
vn -0.8986 0.0000 0.4388
vn -0.6382 0.7141 0.2878
vn -0.6546 -0.7141 0.2479
vn -0.9238 0.0000 0.3829
vn -0.6546 0.7141 0.2479
vn -0.6687 -0.7142 0.2068
vn -0.9457 0.0000 0.3250
vn -0.6687 0.7142 0.2068
vn -0.6803 -0.7141 0.1651
vn -0.9641 0.0000 0.2657
vn -0.6803 0.7141 0.1651
vn -0.6892 -0.7140 0.1231
vn -0.9786 0.0000 0.2057
vn -0.6892 0.7140 0.1231
vn -0.6955 -0.7139 0.0813
vn -0.9893 0.0000 0.1457
vn -0.6955 0.7139 0.0813
vn -0.6993 -0.7137 0.0402
vn -0.9963 0.0000 0.0864
vn -0.6993 0.7137 0.0402
vn -0.7038 -0.7103 0.0100
vn -0.9996 0.0000 0.0284
vn -0.7038 0.7103 0.0100
vn -0.5774 -0.5774 0.5774
vn -1.0000 0.0000 -0.0000
vn -0.5774 0.5774 0.5774
vn 0.5774 -0.5774 0.5774
vn 0.0000 0.0000 1.0000
vn 0.5774 0.5774 0.5774
vn 0.7110 -0.7031 -0.0128
vn 1.0000 0.0000 -0.0000
vn 0.7110 0.7031 -0.0128
vn 0.7133 -0.6989 -0.0522
vn 0.9993 0.0000 -0.0361
vn 0.7133 0.6989 -0.0522
vn 0.7076 -0.6987 -0.1052
vn 0.9940 0.0000 -0.1097
vn 0.7076 0.6987 -0.1052
vn 0.6977 -0.6986 -0.1585
vn 0.9829 0.0000 -0.1842
vn 0.6977 0.6986 -0.1585
vn 0.6836 -0.6987 -0.2110
vn 0.9660 0.0000 -0.2584
vn 0.6836 0.6987 -0.2110
vn 0.6657 -0.6988 -0.2620
vn 0.9436 0.0000 -0.3311
vn 0.6657 0.6988 -0.2620
vn 0.6443 -0.6990 -0.3105
vn 0.9161 0.0000 -0.4008
vn 0.6443 0.6990 -0.3105
vn 0.6200 -0.6992 -0.3559
vn 0.8844 0.0000 -0.4668
vn 0.6200 0.6992 -0.3559
vn 0.5936 -0.6996 -0.3977
vn 0.8491 0.0000 -0.5282
vn 0.5936 0.6996 -0.3977
vn 0.5632 -0.6978 -0.4426
vn 0.8114 0.0000 -0.5844
vn 0.5632 0.6978 -0.4426
vn 0.5203 -0.6953 -0.4958
vn 0.7597 0.0000 -0.6503
vn 0.5203 0.6953 -0.4958
vn 0.4638 -0.6949 -0.5495
vn 0.6862 0.0000 -0.7274
vn 0.4638 0.6949 -0.5495
vn 0.4002 -0.6948 -0.5977
vn 0.6019 0.0000 -0.7986
vn 0.4002 0.6948 -0.5977
vn 0.3314 -0.6949 -0.6382
vn 0.5091 0.0000 -0.8607
vn 0.3314 0.6949 -0.6382
vn 0.2604 -0.6953 -0.6699
vn 0.4113 0.0000 -0.9115
vn 0.2604 0.6953 -0.6699
vn 0.1898 -0.6960 -0.6925
vn 0.3123 0.0000 -0.9500
vn 0.1898 0.6960 -0.6925
vn 0.1220 -0.6968 -0.7068
vn 0.2156 0.0000 -0.9765
vn 0.1220 0.6968 -0.7068
vn 0.0586 -0.6977 -0.7140
vn 0.1241 0.0000 -0.9923
vn 0.0586 0.6977 -0.7140
vn -0.1401 -0.6598 -0.7383
vn 0.0394 0.0000 -0.9992
vn -0.1401 0.6598 -0.7383
vn 0.0013 -0.8105 -0.5857
vn -0.4028 0.0000 -0.9153
vn 0.0013 0.8105 -0.5857
vn 0.1324 -0.6569 -0.7423
vn 0.4068 0.0000 -0.9135
vn 0.1324 0.6569 -0.7423
vn -0.0921 -0.6934 -0.7147
vn -0.0657 0.0000 -0.9978
vn -0.0921 0.6934 -0.7147
vn -0.1760 -0.6946 -0.6976
vn -0.1893 0.0000 -0.9819
vn -0.1760 0.6946 -0.6976
vn -0.2492 -0.6959 -0.6735
vn -0.2992 0.0000 -0.9542
vn -0.2492 0.6959 -0.6735
vn -0.3115 -0.6972 -0.6456
vn -0.3940 0.0000 -0.9191
vn -0.3115 0.6972 -0.6456
vn -0.3636 -0.6985 -0.6164
vn -0.4741 0.0000 -0.8805
vn -0.3636 0.6985 -0.6164
vn -0.4068 -0.6996 -0.5875
vn -0.5411 0.0000 -0.8409
vn -0.4068 0.6996 -0.5875
vn -0.4426 -0.7005 -0.5598
vn -0.5968 0.0000 -0.8024
vn -0.4426 0.7005 -0.5598
vn -0.4723 -0.7013 -0.5339
vn -0.6431 0.0000 -0.7658
vn -0.4723 0.7013 -0.5339
vn -0.5065 -0.6989 -0.5050
vn -0.6817 0.0000 -0.7316
vn -0.5065 0.6989 -0.5050
vn -0.5510 -0.6959 -0.4607
vn -0.7337 0.0000 -0.6795
vn -0.5510 0.6959 -0.4607
vn -0.5947 -0.6959 -0.4025
vn -0.7987 0.0000 -0.6017
vn -0.5947 0.6959 -0.4025
vn -0.6317 -0.6962 -0.3410
vn -0.8554 0.0000 -0.5179
vn -0.6317 0.6962 -0.3410
vn -0.6613 -0.6966 -0.2782
vn -0.9023 0.0000 -0.4310
vn -0.6613 0.6966 -0.2782
vn -0.6835 -0.6972 -0.2161
vn -0.9391 0.0000 -0.3437
vn -0.6835 0.6972 -0.2161
vn -0.6989 -0.6979 -0.1563
vn -0.9660 0.0000 -0.2586
vn -0.6989 0.6979 -0.1563
vn -0.7085 -0.6986 -0.1001
vn -0.9841 0.0000 -0.1776
vn -0.7085 0.6986 -0.1001
vn -0.7132 -0.6993 -0.0481
vn -0.9948 0.0000 -0.1020
vn -0.7132 0.6993 -0.0481
vn -0.7138 -0.7004 -0.0015
vn -0.9995 0.0000 -0.0324
vn -0.7138 0.7004 -0.0015
vn -0.7119 -0.7012 0.0389
vn -0.9996 0.0000 0.0281
vn -0.7119 0.7012 0.0389
vn -0.7085 -0.7017 0.0749
vn -0.9967 0.0000 0.0809
vn -0.7085 0.7017 0.0749
vn -0.7039 -0.7021 0.1076
vn -0.9916 0.0000 0.1291
vn -0.7039 0.7021 0.1076
vn -0.6982 -0.7026 0.1374
vn -0.9849 0.0000 0.1731
vn -0.6982 0.7026 0.1374
vn -0.6920 -0.7029 0.1645
vn -0.9770 0.0000 0.2131
vn -0.6920 0.7029 0.1645
vn -0.6853 -0.7033 0.1891
vn -0.9684 0.0000 0.2494
vn -0.6853 0.7033 0.1891
vn -0.6784 -0.7036 0.2114
vn -0.9593 0.0000 0.2825
vn -0.6784 0.7036 0.2114
vn -0.6715 -0.7039 0.2318
vn -0.9499 0.0000 0.3126
vn -0.6715 0.7039 0.2318
vn -0.6648 -0.7061 0.2437
vn -0.9404 0.0000 0.3400
vn -0.6648 0.7061 0.2437
vn -0.6629 -0.7076 0.2446
vn -0.9373 0.0000 0.3484
vn -0.6629 0.7076 0.2446
vn -0.6640 -0.7077 0.2412
vn -0.9390 0.0000 0.3440
vn -0.6640 0.7077 0.2412
vn -0.6654 -0.7079 0.2370
vn -0.9409 0.0000 0.3387
vn -0.6654 0.7079 0.2370
vn -0.6670 -0.7081 0.2318
vn -0.9432 0.0000 0.3323
vn -0.6670 0.7081 0.2318
vn -0.6690 -0.7083 0.2253
vn -0.9460 0.0000 0.3243
vn -0.6690 0.7083 0.2253
vn -0.6714 -0.7087 0.2168
vn -0.9494 0.0000 0.3141
vn -0.6714 0.7087 0.2168
vn -0.6744 -0.7093 0.2052
vn -0.9538 0.0000 0.3005
vn -0.6744 0.7093 0.2052
vn -0.6781 -0.7104 0.1885
vn -0.9595 0.0000 0.2817
vn -0.6781 0.7104 0.1885
vn -0.6830 -0.7114 0.1657
vn -0.9672 0.0000 0.2540
vn -0.6830 0.7114 0.1657
vn -0.6889 -0.7109 0.1414
vn -0.9761 0.0000 0.2174
vn -0.6889 0.7109 0.1414
vn -0.6934 -0.7106 0.1193
vn -0.9828 0.0000 0.1848
vn -0.6934 0.7106 0.1193
vn -0.6969 -0.7104 0.0986
vn -0.9880 0.0000 0.1543
vn -0.6969 0.7104 0.0986
vn -0.6996 -0.7101 0.0793
vn -0.9920 0.0000 0.1259
vn -0.6996 0.7101 0.0793
vn -0.7016 -0.7099 0.0612
vn -0.9951 0.0000 0.0993
vn -0.7016 0.7099 0.0612
vn -0.7031 -0.7097 0.0444
vn -0.9972 0.0000 0.0746
vn -0.7031 0.7097 0.0444
vn -0.7041 -0.7095 0.0286
vn -0.9987 0.0000 0.0514
vn -0.7041 0.7095 0.0286
vn -0.7047 -0.7094 0.0139
vn -0.9996 0.0000 0.0298
vn -0.7047 0.7094 0.0139
vn -0.5743 -0.5779 0.5799
vn -1.0000 0.0000 0.0096
vn -0.5743 0.5779 0.5799
vn 0.5461 -0.5826 0.6019
vn 0.5461 0.5826 0.6019
vn 0.6853 -0.7204 0.1071
vn 0.9953 0.0000 0.0970
vn 0.6853 0.7204 0.1071
vn 0.6786 -0.7145 0.1701
vn 0.9774 0.0000 0.2113
vn 0.6786 0.7145 0.1701
vn 0.6711 -0.7118 0.2071
vn 0.9615 0.0000 0.2748
vn 0.6711 0.7118 0.2071
vn 0.6648 -0.7104 0.2311
vn 0.9492 0.0000 0.3147
vn 0.6648 0.7104 0.2311
vn 0.6596 -0.7095 0.2480
vn 0.9397 0.0000 0.3420
vn 0.6596 0.7095 0.2480
vn 0.6555 -0.7089 0.2604
vn 0.9323 0.0000 0.3617
vn 0.6555 0.7089 0.2604
vn 0.6520 -0.7085 0.2700
vn 0.9263 0.0000 0.3767
vn 0.6520 0.7085 0.2700
vn 0.6491 -0.7083 0.2775
vn 0.9215 0.0000 0.3884
vn 0.6491 0.7083 0.2775
vn 0.6412 -0.7106 0.2898
vn 0.9175 0.0000 0.3978
vn 0.6412 0.7106 0.2898
vn 0.6283 -0.7122 0.3131
vn 0.9048 0.0000 0.4258
vn 0.6283 0.7122 0.3131
vn 0.6158 -0.7113 0.3389
vn 0.8848 0.0000 0.4659
vn 0.6159 0.7113 0.3389
vn 0.6047 -0.7106 0.3598
vn 0.8671 0.0000 0.4981
vn 0.6047 0.7106 0.3598
vn 0.5948 -0.7100 0.3770
vn 0.8515 0.0000 0.5244
vn 0.5948 0.7100 0.3770
vn 0.5859 -0.7096 0.3913
vn 0.8377 0.0000 0.5462
vn 0.5859 0.7096 0.3913
vn 0.5781 -0.7093 0.4035
vn 0.8254 0.0000 0.5645
vn 0.5781 0.7093 0.4035
vn 0.5710 -0.7090 0.4139
vn 0.8145 0.0000 0.5801
vn 0.5710 0.7090 0.4139
vn 0.5647 -0.7088 0.4229
vn 0.8048 0.0000 0.5936
vn 0.5647 0.7088 0.4229
vn 0.5726 -0.7035 0.4210
vn 0.7960 0.0000 0.6053
vn 0.5726 0.7035 0.4210
vn 0.5996 -0.6983 0.3911
vn 0.8152 0.0000 0.5792
vn 0.5996 0.6983 0.3911
vn 0.6288 -0.6983 0.3421
vn 0.8587 0.0000 0.5125
vn 0.6288 0.6983 0.3421
vn 0.6538 -0.6984 0.2913
vn 0.8967 0.0000 0.4426
vn 0.6538 0.6984 0.2913
vn 0.6742 -0.6986 0.2397
vn 0.9287 0.0000 0.3709
vn 0.6742 0.6986 0.2397
vn 0.6900 -0.6989 0.1883
vn 0.9543 0.0000 0.2987
vn 0.6900 0.6989 0.1883
vn 0.7014 -0.6993 0.1380
vn 0.9738 0.0000 0.2275
vn 0.7014 0.6993 0.1380
vn 0.7088 -0.6997 0.0896
vn 0.9874 0.0000 0.1584
vn 0.7088 0.6997 0.0896
vn 0.7127 -0.7001 0.0436
vn 0.9957 0.0000 0.0923
vn 0.7127 0.7001 0.0436
vn 0.7169 -0.6971 -0.0109
vn 0.9996 0.0000 0.0298
vn 0.7169 0.6971 -0.0109
vn 0.7162 -0.6915 -0.0946
vn 0.9982 0.0000 -0.0603
vn 0.7162 0.6915 -0.0946
vn 0.6955 -0.6881 -0.2069
vn 0.9796 0.0000 -0.2010
vn 0.6955 0.6881 -0.2069
vn 0.6471 -0.6850 -0.3346
vn 0.9302 0.0000 -0.3671
vn 0.6471 0.6850 -0.3346
vn 0.5639 -0.6832 -0.4639
vn 0.8373 0.0000 -0.5468
vn 0.5639 0.6832 -0.4639
vn 0.4497 -0.6835 -0.5750
vn 0.6979 0.0000 -0.7162
vn 0.4497 0.6835 -0.5750
vn 0.3211 -0.6857 -0.6532
vn 0.5270 0.0000 -0.8498
vn 0.3211 0.6857 -0.6532
vn 0.1972 -0.6889 -0.6975
vn 0.3510 0.0000 -0.9364
vn 0.1972 0.6889 -0.6975
vn 0.0899 -0.6922 -0.7161
vn 0.1913 0.0000 -0.9815
vn 0.0899 0.6922 -0.7161
vn 0.0076 -0.6968 -0.7173
vn 0.0572 0.0000 -0.9984
vn 0.0076 0.6968 -0.7173
vn -0.0528 -0.6987 -0.7134
vn -0.0361 0.0000 -0.9993
vn -0.0528 0.6987 -0.7134
vn -0.1081 -0.6982 -0.7077
vn -0.1115 0.0000 -0.9938
vn -0.1081 0.6982 -0.7077
vn -0.1654 -0.6979 -0.6969
vn -0.1903 0.0000 -0.9817
vn -0.1654 0.6979 -0.6969
vn -0.2236 -0.6976 -0.6807
vn -0.2712 0.0000 -0.9625
vn -0.2236 0.6976 -0.6807
vn -0.2815 -0.6975 -0.6590
vn -0.3525 0.0000 -0.9358
vn -0.2815 0.6975 -0.6590
vn -0.3375 -0.6975 -0.6321
vn -0.4323 0.0000 -0.9017
vn -0.3375 0.6975 -0.6321
vn -0.3906 -0.6976 -0.6007
vn -0.5088 0.0000 -0.8609
vn -0.3906 0.6976 -0.6007
vn -0.4395 -0.6979 -0.5655
vn -0.5804 0.0000 -0.8143
vn -0.4395 0.6979 -0.5655
vn -0.4859 -0.6975 -0.5266
vn -0.6459 0.0000 -0.7635
vn -0.4859 0.6975 -0.5266
vn -0.5324 -0.6965 -0.4811
vn -0.7092 0.0000 -0.7050
vn -0.5324 0.6965 -0.4811
vn -0.5765 -0.6963 -0.4276
vn -0.7730 0.0000 -0.6344
vn -0.5766 0.6962 -0.4276
vn -0.6160 -0.6961 -0.3687
vn -0.8315 0.0000 -0.5556
vn -0.6160 0.6961 -0.3687
vn -0.6493 -0.6962 -0.3061
vn -0.8824 0.0000 -0.4704
vn -0.6493 0.6962 -0.3061
vn -0.6757 -0.6965 -0.2416
vn -0.9244 0.0000 -0.3814
vn -0.6757 0.6965 -0.2416
vn -0.6949 -0.6970 -0.1773
vn -0.9566 0.0000 -0.2913
vn -0.6949 0.6970 -0.1773
vn -0.7073 -0.6975 -0.1148
vn -0.9793 0.0000 -0.2026
vn -0.7073 0.6975 -0.1148
vn -0.7137 -0.6982 -0.0556
vn -0.9931 0.0000 -0.1175
vn -0.7137 0.6982 -0.0556
vn -0.7164 -0.6977 0.0034
vn -0.9993 0.0000 -0.0377
vn -0.7164 0.6977 0.0034
vn -0.7151 -0.6953 0.0721
vn -0.9989 0.0000 0.0471
vn -0.7151 0.6953 0.0721
vn -0.7038 -0.6934 0.1543
vn -0.9882 0.0000 0.1531
vn -0.7038 0.6934 0.1543
vn -0.6789 -0.6915 0.2469
vn -0.9616 0.0000 0.2744
vn -0.6789 0.6915 0.2469
vn -0.6360 -0.6899 0.3458
vn -0.9132 0.0000 0.4075
vn -0.6360 0.6899 0.3458
vn -0.5731 -0.6890 0.4437
vn -0.8385 0.0000 0.5449
vn -0.5731 0.6890 0.4437
vn -0.4923 -0.6890 0.5319
vn -0.7375 0.0000 0.6753
vn -0.4923 0.6890 0.5319
vn -0.4002 -0.6899 0.6032
vn -0.6164 0.0000 0.7874
vn -0.4002 0.6899 0.6032
vn -0.3053 -0.6915 0.6547
vn -0.4859 0.0000 0.8740
vn -0.3053 0.6915 0.6547
vn -0.3571 -0.9264 0.1194
vn -0.3572 0.0000 0.9340
vn -0.3571 0.9264 0.1194
vn -0.8471 0.0000 -0.5315
vn -0.0915 -0.7236 0.6841
vn -0.1979 -0.7273 0.6571
vn -0.2034 0.0000 0.9791
vn -0.1979 0.7273 0.6571
vn -0.0915 0.7236 0.6841
vn -0.3165 -0.7308 0.6048
vn -0.3711 0.0000 0.9286
vn -0.3165 0.7308 0.6048
vn -0.4355 -0.7327 0.5230
vn -0.5515 0.0000 0.8342
vn -0.4355 0.7327 0.5230
vn -0.5388 -0.7323 0.4164
vn -0.7205 0.0000 0.6935
vn -0.5388 0.7323 0.4164
vn -0.6151 -0.7297 0.2987
vn -0.8527 0.0000 0.5223
vn -0.6151 0.7297 0.2987
vn -0.6623 -0.7261 0.1850
vn -0.9378 0.0000 0.3472
vn -0.6623 0.7261 0.1850
vn -0.6862 -0.7224 0.0851
vn -0.9820 0.0000 0.1890
vn -0.6862 0.7224 0.0851
vn -0.6942 -0.7198 0.0009
vn -0.9984 0.0000 0.0565
vn -0.6942 0.7198 0.0009
vn -0.6873 -0.7218 -0.0815
vn -0.9985 0.0000 -0.0540
vn -0.6873 0.7218 -0.0815
vn -0.6651 -0.7253 -0.1776
vn -0.9835 0.0000 -0.1809
vn -0.6651 0.7253 -0.1776
vn -0.6208 -0.7290 -0.2883
vn -0.9427 0.0000 -0.3335
vn -0.6208 0.7290 -0.2883
vn -0.5479 -0.7320 -0.4050
vn -0.8630 0.0000 -0.5052
vn -0.5479 0.7320 -0.4050
vn -0.4466 -0.7329 -0.5132
vn -0.7360 0.0000 -0.6770
vn -0.4466 0.7329 -0.5132
vn -0.3273 -0.7314 -0.5983
vn -0.5690 0.0000 -0.8224
vn -0.3273 0.7314 -0.5983
vn -0.2059 -0.7281 -0.6538
vn -0.3858 0.0000 -0.9226
vn -0.2059 0.7281 -0.6538
vn -0.0955 -0.7244 -0.6827
vn -0.2125 0.0000 -0.9772
vn -0.0955 0.7244 -0.6827
vn -0.0016 -0.7212 -0.6927
vn -0.0638 0.0000 -0.9980
vn -0.0016 0.7212 -0.6927
vn 0.0891 -0.7232 -0.6849
vn 0.0593 0.0000 -0.9982
vn 0.0891 0.7232 -0.6849
vn 0.1930 -0.7269 -0.6591
vn 0.1980 0.0000 -0.9802
vn 0.1930 0.7269 -0.6591
vn 0.3099 -0.7304 -0.6087
vn 0.3621 0.0000 -0.9322
vn 0.3099 0.7304 -0.6087
vn 0.4284 -0.7326 -0.5290
vn 0.5406 0.0000 -0.8413
vn 0.4284 0.7326 -0.5290
vn 0.5331 -0.7325 -0.4235
vn 0.7106 0.0000 -0.7036
vn 0.5331 0.7325 -0.4235
vn 0.6114 -0.7301 -0.3053
vn 0.8461 0.0000 -0.5331
vn 0.6114 0.7301 -0.3053
vn 0.6604 -0.7265 -0.1897
vn 0.9345 0.0000 -0.3559
vn 0.6604 0.7265 -0.1897
vn 0.6854 -0.7229 -0.0874
vn 0.9809 0.0000 -0.1943
vn 0.6854 0.7229 -0.0874
vn 0.6936 -0.7203 -0.0003
vn 0.9983 0.0000 -0.0581
vn 0.6936 0.7203 -0.0003
vn 0.6858 -0.7227 0.0862
vn 0.9984 0.0000 0.0573
vn 0.6858 0.7227 0.0862
vn 0.6614 -0.7263 0.1873
vn 0.9815 0.0000 0.1916
vn 0.6614 0.7263 0.1873
vn 0.6133 -0.7299 0.3019
vn 0.9362 0.0000 0.3514
vn 0.6133 0.7299 0.3019
vn 0.5360 -0.7324 0.4199
vn 0.8495 0.0000 0.5276
vn 0.5360 0.7324 0.4199
vn 0.4320 -0.7326 0.5259
vn 0.7157 0.0000 0.6984
vn 0.4320 0.7326 0.5259
vn 0.3133 -0.7306 0.6067
vn 0.5462 0.0000 0.8377
vn 0.3133 0.7306 0.6067
vn 0.1955 -0.7271 0.6581
vn 0.3667 0.0000 0.9304
vn 0.1955 0.7271 0.6581
vn 0.0903 -0.7234 0.6845
vn 0.2008 0.0000 0.9796
vn 0.0903 0.7234 0.6845
vn -0.0003 -0.7210 0.6929
vn 0.0602 0.0000 0.9982
vn -0.0003 0.7210 0.6929
vn -0.0610 0.0000 0.9981
vn 0.0000 -1.0000 -0.0000
vn 0.0000 1.0000 -0.0000
# 673 vertex normals

o To_Tau
g To_Tau
s 1
f 1//1 2//2 3//3 
f 2//2 4//4 3//3 
f 4//4 5//5 3//3 
f 5//5 1//1 3//3 
s 3
f 2//2 6//6 7//7 
f 6//6 8//8 7//7 
f 8//8 4//4 7//7 
f 4//4 2//2 7//7 
s 2
f 6//6 9//9 10//10 
f 9//9 11//11 10//10 
f 11//11 8//8 10//10 
f 8//8 6//6 10//10 
f 9//9 12//12 13//13 
f 12//12 14//14 13//13 
f 14//14 11//11 13//13 
f 11//11 9//9 13//13 
f 12//12 15//15 16//16 
f 15//15 17//17 16//16 
f 17//17 14//14 16//16 
f 14//14 12//12 16//16 
f 15//15 18//18 19//19 
f 18//18 20//20 19//19 
f 20//20 17//17 19//19 
f 17//17 15//15 19//19 
f 18//18 21//21 22//22 
f 21//21 23//23 22//22 
f 23//23 20//20 22//22 
f 20//20 18//18 22//22 
f 21//21 24//24 25//25 
f 24//24 26//26 25//25 
f 26//26 23//23 25//25 
f 23//23 21//21 25//25 
s 4
f 24//24 27//27 28//28 
f 27//27 29//29 28//28 
f 29//29 26//26 28//28 
f 26//26 24//24 28//28 
f 27//27 30//30 31//31 
f 30//30 32//32 31//31 
f 32//32 29//29 31//31 
f 29//29 27//27 31//31 
f 30//30 33//33 34//34 
f 33//33 35//35 34//34 
f 35//35 32//32 34//34 
f 32//32 30//30 34//34 
f 33//33 36//36 37//37 
f 36//36 38//38 37//37 
f 38//38 35//35 37//37 
f 35//35 33//33 37//37 
f 36//36 39//39 40//40 
f 39//39 41//41 40//40 
f 41//41 38//38 40//40 
f 38//38 36//36 40//40 
f 39//39 42//42 43//43 
f 42//42 44//44 43//43 
f 44//44 41//41 43//43 
f 41//41 39//39 43//43 
f 42//42 45//45 46//46 
f 45//45 47//47 46//46 
f 47//47 44//44 46//46 
f 44//44 42//42 46//46 
f 45//45 48//48 49//49 
f 48//48 50//50 49//49 
f 50//50 47//47 49//49 
f 47//47 45//45 49//49 
f 48//48 51//51 52//52 
f 51//51 53//53 52//52 
f 53//53 50//50 52//52 
f 50//50 48//48 52//52 
f 51//51 54//54 55//55 
f 54//54 56//56 55//55 
f 56//56 53//53 55//55 
f 53//53 51//51 55//55 
f 54//54 57//57 58//58 
f 57//57 59//59 58//58 
f 59//59 56//56 58//58 
f 56//56 54//54 58//58 
f 57//57 60//60 61//61 
f 60//60 62//62 61//61 
f 62//62 59//59 61//61 
f 59//59 57//57 61//61 
f 60//60 63//63 64//64 
f 63//63 65//65 64//64 
f 65//65 62//62 64//64 
f 62//62 60//60 64//64 
f 63//63 66//66 67//67 
f 66//66 68//68 67//67 
f 68//68 65//65 67//67 
f 65//65 63//63 67//67 
f 66//66 69//69 70//70 
f 69//69 71//71 70//70 
f 71//71 68//68 70//70 
f 68//68 66//66 70//70 
f 69//69 72//72 73//73 
f 72//72 74//74 73//73 
f 74//74 71//71 73//73 
f 71//71 69//69 73//73 
f 72//72 75//75 76//76 
f 75//75 77//77 76//76 
f 77//77 74//74 76//76 
f 74//74 72//72 76//76 
f 75//75 78//78 79//79 
f 78//78 80//80 79//79 
f 80//80 77//77 79//79 
f 77//77 75//75 79//79 
f 78//78 81//81 82//82 
f 81//81 83//83 82//82 
f 83//83 80//80 82//82 
f 80//80 78//78 82//82 
f 81//81 84//84 85//85 
f 84//84 86//86 85//85 
f 86//86 83//83 85//85 
f 83//83 81//81 85//85 
f 84//84 87//87 88//88 
f 87//87 89//89 88//88 
f 89//89 86//86 88//88 
f 86//86 84//84 88//88 
f 87//87 90//90 91//91 
f 90//90 92//92 91//91 
f 92//92 89//89 91//91 
f 89//89 87//87 91//91 
f 90//90 93//93 94//94 
f 93//93 95//95 94//94 
f 95//95 92//92 94//94 
f 92//92 90//90 94//94 
f 93//93 96//96 97//97 
f 96//96 98//98 97//97 
f 98//98 95//95 97//97 
f 95//95 93//93 97//97 
f 96//96 99//99 100//100 
f 99//99 101//101 100//100 
f 101//101 98//98 100//100 
f 98//98 96//96 100//100 
f 99//99 102//102 103//103 
f 102//102 104//104 103//103 
f 104//104 101//101 103//103 
f 101//101 99//99 103//103 
f 102//102 105//105 106//106 
f 105//105 107//107 106//106 
f 107//107 104//104 106//106 
f 104//104 102//102 106//106 
s 2
f 105//105 108//108 109//109 
f 108//108 110//110 109//109 
f 110//110 107//107 109//109 
f 107//107 105//105 109//109 
s 4
f 108//108 111//111 112//112 
f 111//111 113//113 112//112 
f 113//113 110//110 112//112 
f 110//110 108//108 112//112 
s 2
f 111//111 114//114 115//115 
f 114//114 116//116 115//115 
f 116//116 113//113 115//115 
f 113//113 111//111 115//115 
f 114//114 117//117 118//118 
f 117//117 119//119 118//118 
f 119//119 116//116 118//118 
f 116//116 114//114 118//118 
f 117//117 120//120 121//121 
f 120//120 122//122 121//121 
f 122//122 119//119 121//121 
f 119//119 117//117 121//121 
f 120//120 123//123 124//124 
f 123//123 125//125 124//124 
f 125//125 122//122 124//124 
f 122//122 120//120 124//124 
f 123//123 126//126 127//127 
f 126//126 128//128 127//127 
f 128//128 125//125 127//127 
f 125//125 123//123 127//127 
f 126//126 129//129 130//130 
f 129//129 131//131 130//130 
f 131//131 128//128 130//130 
f 128//128 126//126 130//130 
f 129//129 132//132 133//133 
f 132//132 134//134 133//133 
f 134//134 131//131 133//133 
f 131//131 129//129 133//133 
f 132//132 135//135 136//136 
f 135//135 137//137 136//136 
f 137//137 134//134 136//136 
f 134//134 132//132 136//136 
f 135//135 138//138 139//139 
f 138//138 140//140 139//139 
f 140//140 137//137 139//139 
f 137//137 135//135 139//139 
f 138//138 141//141 142//142 
f 141//141 143//143 142//142 
f 143//143 140//140 142//142 
f 140//140 138//138 142//142 
f 141//141 144//144 145//145 
f 144//144 146//146 145//145 
f 146//146 143//143 145//145 
f 143//143 141//141 145//145 
f 144//144 147//147 148//148 
f 147//147 149//149 148//148 
f 149//149 146//146 148//148 
f 146//146 144//144 148//148 
f 147//147 150//150 151//151 
f 150//150 152//152 151//151 
f 152//152 149//149 151//151 
f 149//149 147//147 151//151 
f 150//150 153//153 154//154 
f 153//153 155//155 154//154 
f 155//155 152//152 154//154 
f 152//152 150//150 154//154 
f 153//153 156//156 157//157 
f 156//156 158//158 157//157 
f 158//158 155//155 157//157 
f 155//155 153//153 157//157 
f 156//156 159//159 160//160 
f 159//159 161//161 160//160 
f 161//161 158//158 160//160 
f 158//158 156//156 160//160 
f 159//159 162//162 163//163 
f 162//162 164//164 163//163 
f 164//164 161//161 163//163 
f 161//161 159//159 163//163 
f 162//162 165//165 166//166 
f 165//165 167//167 166//166 
f 167//167 164//164 166//166 
f 164//164 162//162 166//166 
s 4
f 165//165 168//168 169//169 
f 168//168 170//170 169//169 
f 170//170 167//167 169//169 
f 167//167 165//165 169//169 
s 2
f 168//168 171//171 172//172 
f 171//171 173//173 172//172 
f 173//173 170//170 172//172 
f 170//170 168//168 172//172 
s 4
f 171//171 174//174 175//175 
f 174//174 176//176 175//175 
f 176//176 173//173 175//175 
f 173//173 171//171 175//175 
s 2
f 174//174 177//177 178//178 
f 177//177 179//179 178//178 
f 179//179 176//176 178//178 
f 176//176 174//174 178//178 
f 177//177 180//180 181//181 
f 180//180 182//182 181//181 
f 182//182 179//179 181//181 
f 179//179 177//177 181//181 
f 180//180 183//183 184//184 
f 183//183 185//185 184//184 
f 185//185 182//182 184//184 
f 182//182 180//180 184//184 
f 183//183 186//186 187//187 
f 186//186 188//188 187//187 
f 188//188 185//185 187//187 
f 185//185 183//183 187//187 
f 186//186 189//189 190//190 
f 189//189 191//191 190//190 
f 191//191 188//188 190//190 
f 188//188 186//186 190//190 
f 189//189 192//192 193//193 
f 192//192 194//194 193//193 
f 194//194 191//191 193//193 
f 191//191 189//189 193//193 
f 192//192 195//195 196//196 
f 195//195 197//197 196//196 
f 197//197 194//194 196//196 
f 194//194 192//192 196//196 
f 195//195 198//198 199//199 
f 198//198 200//200 199//199 
f 200//200 197//197 199//199 
f 197//197 195//195 199//199 
f 198//198 201//201 202//202 
f 201//201 203//203 202//202 
f 203//203 200//200 202//202 
f 200//200 198//198 202//202 
f 201//201 204//204 205//205 
f 204//204 206//206 205//205 
f 206//206 203//203 205//205 
f 203//203 201//201 205//205 
f 204//204 207//207 208//208 
f 207//207 209//209 208//208 
f 209//209 206//206 208//208 
f 206//206 204//204 208//208 
f 207//207 210//210 211//211 
f 210//210 212//212 211//211 
f 212//212 209//209 211//211 
f 209//209 207//207 211//211 
f 210//210 213//213 214//214 
f 213//213 215//215 214//214 
f 215//215 212//212 214//214 
f 212//212 210//210 214//214 
f 213//213 216//216 217//217 
f 216//216 218//218 217//217 
f 218//218 215//215 217//217 
f 215//215 213//213 217//217 
f 216//216 219//219 220//220 
f 219//219 221//221 220//220 
f 221//221 218//218 220//220 
f 218//218 216//216 220//220 
f 219//219 222//222 223//223 
f 222//222 224//224 223//223 
f 224//224 221//221 223//223 
f 221//221 219//219 223//223 
f 222//222 225//225 226//226 
f 225//225 227//227 226//226 
f 227//227 224//224 226//226 
f 224//224 222//222 226//226 
f 225//225 228//228 229//229 
f 228//228 230//230 229//229 
f 230//230 227//227 229//229 
f 227//227 225//225 229//229 
s 4
f 228//228 231//231 232//232 
f 231//231 233//233 232//232 
f 233//233 230//230 232//232 
f 230//230 228//228 232//232 
s 2
f 231//231 234//234 235//235 
f 234//234 236//236 235//235 
f 236//236 233//233 235//235 
f 233//233 231//231 235//235 
s 4
f 234//234 237//237 238//238 
f 237//237 239//239 238//238 
f 239//239 236//236 238//238 
f 236//236 234//234 238//238 
f 237//237 240//240 241//241 
f 240//240 242//242 241//241 
f 242//242 239//239 241//241 
f 239//239 237//237 241//241 
f 240//240 243//243 244//244 
f 243//243 245//245 244//244 
f 245//245 242//242 244//244 
f 242//242 240//240 244//244 
f 243//243 246//246 247//247 
f 246//246 248//248 247//247 
f 248//248 245//245 247//247 
f 245//245 243//243 247//247 
f 246//246 249//249 250//250 
f 249//249 251//251 250//250 
f 251//251 248//248 250//250 
f 248//248 246//246 250//250 
f 249//249 252//252 253//253 
f 252//252 254//254 253//253 
f 254//254 251//251 253//253 
f 251//251 249//249 253//253 
f 252//252 255//255 256//256 
f 255//255 257//257 256//256 
f 257//257 254//254 256//256 
f 254//254 252//252 256//256 
f 255//255 258//258 259//259 
f 258//258 260//260 259//259 
f 260//260 257//257 259//259 
f 257//257 255//255 259//259 
f 258//258 261//261 262//262 
f 261//261 263//263 262//262 
f 263//263 260//260 262//262 
f 260//260 258//258 262//262 
f 261//261 264//264 265//265 
f 264//264 266//266 265//265 
f 266//266 263//263 265//265 
f 263//263 261//261 265//265 
f 264//264 267//267 268//268 
f 267//267 269//269 268//268 
f 269//269 266//266 268//268 
f 266//266 264//264 268//268 
f 267//267 270//270 271//271 
f 270//270 272//272 271//271 
f 272//272 269//269 271//271 
f 269//269 267//267 271//271 
f 270//270 273//273 274//274 
f 273//273 275//275 274//274 
f 275//275 272//272 274//274 
f 272//272 270//270 274//274 
f 273//273 276//276 277//277 
f 276//276 278//278 277//277 
f 278//278 275//275 277//277 
f 275//275 273//273 277//277 
f 276//276 279//279 280//280 
f 279//279 281//281 280//280 
f 281//281 278//278 280//280 
f 278//278 276//276 280//280 
f 279//279 282//282 283//283 
f 282//282 284//284 283//283 
f 284//284 281//281 283//283 
f 281//281 279//279 283//283 
f 282//282 285//285 286//286 
f 285//285 287//287 286//286 
f 287//287 284//284 286//286 
f 284//284 282//282 286//286 
f 285//285 288//288 289//289 
f 288//288 290//290 289//289 
f 290//290 287//287 289//289 
f 287//287 285//285 289//289 
f 288//288 291//291 292//292 
f 291//291 293//293 292//292 
f 293//293 290//290 292//292 
f 290//290 288//288 292//292 
f 291//291 294//294 295//295 
f 294//294 296//296 295//295 
f 296//296 293//293 295//295 
f 293//293 291//291 295//295 
f 294//294 297//297 298//298 
f 297//297 299//299 298//298 
f 299//299 296//296 298//298 
f 296//296 294//294 298//298 
f 297//297 300//300 301//301 
f 300//300 302//302 301//301 
f 302//302 299//299 301//301 
f 299//299 297//297 301//301 
f 300//300 303//303 304//304 
f 303//303 305//305 304//304 
f 305//305 302//302 304//304 
f 302//302 300//300 304//304 
f 303//303 306//306 307//307 
f 306//306 308//308 307//307 
f 308//308 305//305 307//307 
f 305//305 303//303 307//307 
f 306//306 309//309 310//310 
f 309//309 311//311 310//310 
f 311//311 308//308 310//310 
f 308//308 306//306 310//310 
f 309//309 312//312 313//313 
f 312//312 314//314 313//313 
f 314//314 311//311 313//313 
f 311//311 309//309 313//313 
f 312//312 315//315 316//316 
f 315//315 317//317 316//316 
f 317//317 314//314 316//316 
f 314//314 312//312 316//316 
f 315//315 318//318 319//319 
f 318//318 320//320 319//319 
f 320//320 317//317 319//319 
f 317//317 315//315 319//319 
f 318//318 321//321 322//322 
f 321//321 323//323 322//322 
f 323//323 320//320 322//322 
f 320//320 318//318 322//322 
f 321//321 324//324 325//325 
f 324//324 326//326 325//325 
f 326//326 323//323 325//325 
f 323//323 321//321 325//325 
f 324//324 327//327 328//328 
f 327//327 329//329 328//328 
f 329//329 326//326 328//328 
f 326//326 324//324 328//328 
f 327//327 330//330 331//331 
f 330//330 332//332 331//331 
f 332//332 329//329 331//331 
f 329//329 327//327 331//331 
f 330//330 333//333 334//334 
f 333//333 335//335 334//334 
f 335//335 332//332 334//334 
f 332//332 330//330 334//334 
f 333//333 336//336 337//337 
f 336//336 338//338 337//337 
f 338//338 335//335 337//337 
f 335//335 333//333 337//337 
f 336//336 339//339 340//340 
f 339//339 341//341 340//340 
f 341//341 338//338 340//340 
f 338//338 336//336 340//340 
f 339//339 342//342 343//343 
f 342//342 344//344 343//343 
f 344//344 341//341 343//343 
f 341//341 339//339 343//343 
f 342//342 345//345 346//346 
f 345//345 347//347 346//346 
f 347//347 344//344 346//346 
f 344//344 342//342 346//346 
f 345//345 348//348 349//349 
f 348//348 350//350 349//349 
f 350//350 347//347 349//349 
f 347//347 345//345 349//349 
f 348//348 351//351 352//352 
f 351//351 353//353 352//352 
f 353//353 350//350 352//352 
f 350//350 348//348 352//352 
f 351//351 354//354 355//355 
f 354//354 356//356 355//355 
f 356//356 353//353 355//355 
f 353//353 351//351 355//355 
f 354//354 357//357 358//358 
f 357//357 359//359 358//358 
f 359//359 356//356 358//358 
f 356//356 354//354 358//358 
f 357//357 360//360 361//361 
f 360//360 362//362 361//361 
f 362//362 359//359 361//361 
f 359//359 357//357 361//361 
f 360//360 363//363 364//364 
f 363//363 365//365 364//364 
f 365//365 362//362 364//364 
f 362//362 360//360 364//364 
f 363//363 366//366 367//367 
f 366//366 368//368 367//367 
f 368//368 365//365 367//367 
f 365//365 363//363 367//367 
f 366//366 369//369 370//370 
f 369//369 371//371 370//370 
f 371//371 368//368 370//370 
f 368//368 366//366 370//370 
s 2
f 369//369 372//372 373//172 
f 372//372 374//373 373//172 
f 374//373 371//371 373//172 
f 371//371 369//369 373//172 
s 4
f 372//372 375//374 376//375 
f 375//374 377//376 376//375 
f 377//376 374//373 376//375 
f 374//373 372//372 376//375 
f 375//374 378//377 379//378 
f 378//377 380//379 379//378 
f 380//379 377//376 379//378 
f 377//376 375//374 379//378 
f 378//377 381//380 382//381 
f 381//380 383//382 382//381 
f 383//382 380//379 382//381 
f 380//379 378//377 382//381 
f 381//380 384//383 385//384 
f 384//383 386//385 385//384 
f 386//385 383//382 385//384 
f 383//382 381//380 385//384 
f 384//383 387//386 388//387 
f 387//386 389//388 388//387 
f 389//388 386//385 388//387 
f 386//385 384//383 388//387 
f 387//386 390//389 391//390 
f 390//389 392//391 391//390 
f 392//391 389//388 391//390 
f 389//388 387//386 391//390 
f 390//389 393//392 394//393 
f 393//392 395//394 394//393 
f 395//394 392//391 394//393 
f 392//391 390//389 394//393 
f 393//392 396//395 397//396 
f 396//395 398//397 397//396 
f 398//397 395//394 397//396 
f 395//394 393//392 397//396 
f 396//395 399//398 400//399 
f 399//398 401//400 400//399 
f 401//400 398//397 400//399 
f 398//397 396//395 400//399 
f 399//398 402//401 403//402 
f 402//401 404//403 403//402 
f 404//403 401//400 403//402 
f 401//400 399//398 403//402 
f 402//401 405//404 406//405 
f 405//404 407//406 406//405 
f 407//406 404//403 406//405 
f 404//403 402//401 406//405 
f 405//404 408//407 409//408 
f 408//407 410//409 409//408 
f 410//409 407//406 409//408 
f 407//406 405//404 409//408 
f 408//407 411//410 412//411 
f 411//410 413//412 412//411 
f 413//412 410//409 412//411 
f 410//409 408//407 412//411 
f 411//410 414//413 415//414 
f 414//413 416//415 415//414 
f 416//415 413//412 415//414 
f 413//412 411//410 415//414 
f 414//413 417//416 418//417 
f 417//416 419//418 418//417 
f 419//418 416//415 418//417 
f 416//415 414//413 418//417 
f 417//416 420//419 421//420 
f 420//419 422//421 421//420 
f 422//421 419//418 421//420 
f 419//418 417//416 421//420 
f 420//419 423//422 424//423 
f 423//422 425//424 424//423 
f 425//424 422//421 424//423 
f 422//421 420//419 424//423 
f 423//422 426//425 427//426 
f 426//425 428//427 427//426 
f 428//427 425//424 427//426 
f 425//424 423//422 427//426 
f 426//425 429//428 430//429 
f 429//428 431//430 430//429 
f 431//430 428//427 430//429 
f 428//427 426//425 430//429 
f 429//428 432//431 433//432 
f 432//431 434//433 433//432 
f 434//433 431//430 433//432 
f 431//430 429//428 433//432 
f 432//431 435//434 436//435 
f 435//434 437//436 436//435 
f 437//436 434//433 436//435 
f 434//433 432//431 436//435 
f 435//434 438//437 439//438 
f 438//437 440//439 439//438 
f 440//439 437//436 439//438 
f 437//436 435//434 439//438 
f 438//437 441//440 442//441 
f 441//440 443//442 442//441 
f 443//442 440//439 442//441 
f 440//439 438//437 442//441 
f 441//440 444//443 445//444 
f 444//443 446//445 445//444 
f 446//445 443//442 445//444 
f 443//442 441//440 445//444 
f 444//443 447//446 448//447 
f 447//446 449//448 448//447 
f 449//448 446//445 448//447 
f 446//445 444//443 448//447 
f 447//446 450//449 451//450 
f 450//449 452//451 451//450 
f 452//451 449//448 451//450 
f 449//448 447//446 451//450 
f 450//449 453//452 454//453 
f 453//452 455//454 454//453 
f 455//454 452//451 454//453 
f 452//451 450//449 454//453 
f 453//452 456//455 457//456 
f 456//455 458//457 457//456 
f 458//457 455//454 457//456 
f 455//454 453//452 457//456 
f 456//455 459//458 460//459 
f 459//458 461//460 460//459 
f 461//460 458//457 460//459 
f 458//457 456//455 460//459 
f 459//458 462//461 463//462 
f 462//461 464//463 463//462 
f 464//463 461//460 463//462 
f 461//460 459//458 463//462 
f 462//461 465//464 466//465 
f 465//464 467//466 466//465 
f 467//466 464//463 466//465 
f 464//463 462//461 466//465 
f 465//464 468//467 469//468 
f 468//467 470//469 469//468 
f 470//469 467//466 469//468 
f 467//466 465//464 469//468 
f 468//467 471//470 472//471 
f 471//470 473//472 472//471 
f 473//472 470//469 472//471 
f 470//469 468//467 472//471 
f 471//470 474//473 475//474 
f 474//473 476//475 475//474 
f 476//475 473//472 475//474 
f 473//472 471//470 475//474 
f 474//473 477//476 478//477 
f 477//476 479//478 478//477 
f 479//478 476//475 478//477 
f 476//475 474//473 478//477 
f 477//476 480//479 481//480 
f 480//479 482//481 481//480 
f 482//481 479//478 481//480 
f 479//478 477//476 481//480 
f 480//479 483//482 484//483 
f 483//482 485//484 484//483 
f 485//484 482//481 484//483 
f 482//481 480//479 484//483 
f 483//482 486//485 487//486 
f 486//485 488//487 487//486 
f 488//487 485//484 487//486 
f 485//484 483//482 487//486 
f 486//485 489//488 490//489 
f 489//488 491//490 490//489 
f 491//490 488//487 490//489 
f 488//487 486//485 490//489 
f 489//488 492//491 493//492 
f 492//491 494//493 493//492 
f 494//493 491//490 493//492 
f 491//490 489//488 493//492 
f 492//491 495//494 496//495 
f 495//494 497//496 496//495 
f 497//496 494//493 496//495 
f 494//493 492//491 496//495 
f 495//494 498//497 499//498 
f 498//497 500//499 499//498 
f 500//499 497//496 499//498 
f 497//496 495//494 499//498 
f 498//497 501//500 502//501 
f 501//500 503//502 502//501 
f 503//502 500//499 502//501 
f 500//499 498//497 502//501 
f 501//500 504//503 505//504 
f 504//503 506//505 505//504 
f 506//505 503//502 505//504 
f 503//502 501//500 505//504 
f 504//503 507//506 508//507 
f 507//506 509//508 508//507 
f 509//508 506//505 508//507 
f 506//505 504//503 508//507 
f 507//506 510//509 511//510 
f 510//509 512//511 511//510 
f 512//511 509//508 511//510 
f 509//508 507//506 511//510 
f 510//509 513//512 514//513 
f 513//512 515//514 514//513 
f 515//514 512//511 514//513 
f 512//511 510//509 514//513 
f 513//512 516//515 517//516 
f 516//515 518//517 517//516 
f 518//517 515//514 517//516 
f 515//514 513//512 517//516 
f 516//515 519//518 520//519 
f 519//518 521//520 520//519 
f 521//520 518//517 520//519 
f 518//517 516//515 520//519 
f 519//518 522//521 523//522 
f 522//521 524//523 523//522 
f 524//523 521//520 523//522 
f 521//520 519//518 523//522 
f 522//521 525//524 526//525 
f 525//524 527//526 526//525 
f 527//526 524//523 526//525 
f 524//523 522//521 526//525 
f 525//524 528//527 529//528 
f 528//527 530//529 529//528 
f 530//529 527//526 529//528 
f 527//526 525//524 529//528 
f 528//527 531//530 532//531 
f 531//530 533//532 532//531 
f 533//532 530//529 532//531 
f 530//529 528//527 532//531 
f 531//530 534//533 535//534 
f 534//533 536//535 535//534 
f 536//535 533//532 535//534 
f 533//532 531//530 535//534 
f 534//533 537//536 538//537 
f 537//536 539//538 538//537 
f 539//538 536//535 538//537 
f 536//535 534//533 538//537 
f 537//536 540//539 541//540 
f 540//539 542//541 541//540 
f 542//541 539//538 541//540 
f 539//538 537//536 541//540 
f 540//539 543//542 544//543 
f 543//542 545//544 544//543 
f 545//544 542//541 544//543 
f 542//541 540//539 544//543 
f 543//542 546//545 547//546 
f 546//545 548//547 547//546 
f 548//547 545//544 547//546 
f 545//544 543//542 547//546 
f 546//545 549//548 550//549 
f 549//548 551//550 550//549 
f 551//550 548//547 550//549 
f 548//547 546//545 550//549 
f 549//548 552//551 553//552 
f 552//551 554//553 553//552 
f 554//553 551//550 553//552 
f 551//550 549//548 553//552 
f 552//551 555//554 556//555 
f 555//554 557//556 556//555 
f 557//556 554//553 556//555 
f 554//553 552//551 556//555 
f 555//554 558//557 559//558 
f 558//557 560//559 559//558 
f 560//559 557//556 559//558 
f 557//556 555//554 559//558 
f 558//557 561//560 562//561 
f 561//560 563//562 562//561 
f 563//562 560//559 562//561 
f 560//559 558//557 562//561 
s 3
f 561//560 1//1 564//563 
f 1//1 5//5 564//563 
f 5//5 563//562 564//563 
f 563//562 561//560 564//563 
s 1
f 565//564 566//565 567//566 
f 566//565 568//567 567//566 
f 568//567 569//568 567//566 
f 569//568 565//564 567//566 
s 3
f 566//565 570//569 571//570 
f 570//569 572//571 571//570 
f 572//571 568//567 571//570 
f 568//567 566//565 571//570 
s 2
f 570//569 573//572 574//573 
f 573//572 575//574 574//573 
f 575//574 572//571 574//573 
f 572//571 570//569 574//573 
f 573//572 576//575 577//576 
f 576//575 578//577 577//576 
f 578//577 575//574 577//576 
f 575//574 573//572 577//576 
f 576//575 579//578 580//579 
f 579//578 581//580 580//579 
f 581//580 578//577 580//579 
f 578//577 576//575 580//579 
f 579//578 582//581 583//582 
f 582//581 584//583 583//582 
f 584//583 581//580 583//582 
f 581//580 579//578 583//582 
f 582//581 585//584 586//585 
f 585//584 587//586 586//585 
f 587//586 584//583 586//585 
f 584//583 582//581 586//585 
f 585//584 588//587 589//588 
f 588//587 590//589 589//588 
f 590//589 587//586 589//588 
f 587//586 585//584 589//588 
f 588//587 591//590 592//591 
f 591//590 593//592 592//591 
f 593//592 590//589 592//591 
f 590//589 588//587 592//591 
f 591//590 594//593 595//594 
f 594//593 596//595 595//594 
f 596//595 593//592 595//594 
f 593//592 591//590 595//594 
f 594//593 597//596 598//597 
f 597//596 599//598 598//597 
f 599//598 596//595 598//597 
f 596//595 594//593 598//597 
f 597//596 600//599 601//600 
f 600//599 602//601 601//600 
f 602//601 599//598 601//600 
f 599//598 597//596 601//600 
f 600//599 603//602 604//603 
f 603//602 605//604 604//603 
f 605//604 602//601 604//603 
f 602//601 600//599 604//603 
f 603//602 606//605 607//606 
f 606//605 608//607 607//606 
f 608//607 605//604 607//606 
f 605//604 603//602 607//606 
f 606//605 609//608 610//609 
f 609//608 611//610 610//609 
f 611//610 608//607 610//609 
f 608//607 606//605 610//609 
f 609//608 612//611 613//612 
f 612//611 614//613 613//612 
f 614//613 611//610 613//612 
f 611//610 609//608 613//612 
f 612//611 615//614 616//615 
f 615//614 617//616 616//615 
f 617//616 614//613 616//615 
f 614//613 612//611 616//615 
f 615//614 618//617 619//618 
f 618//617 620//619 619//618 
f 620//619 617//616 619//618 
f 617//616 615//614 619//618 
f 618//617 621//620 622//621 
f 621//620 623//622 622//621 
f 623//622 620//619 622//621 
f 620//619 618//617 622//621 
f 621//620 624//623 625//624 
f 624//623 626//625 625//624 
f 626//625 623//622 625//624 
f 623//622 621//620 625//624 
f 624//623 627//626 628//627 
f 627//626 629//628 628//627 
f 629//628 626//625 628//627 
f 626//625 624//623 628//627 
f 627//626 630//629 631//630 
f 630//629 632//631 631//630 
f 632//631 629//628 631//630 
f 629//628 627//626 631//630 
f 630//629 633//632 634//633 
f 633//632 635//634 634//633 
f 635//634 632//631 634//633 
f 632//631 630//629 634//633 
f 633//632 636//635 637//636 
f 636//635 638//637 637//636 
f 638//637 635//634 637//636 
f 635//634 633//632 637//636 
f 636//635 639//638 640//639 
f 639//638 641//640 640//639 
f 641//640 638//637 640//639 
f 638//637 636//635 640//639 
f 639//638 642//641 643//642 
f 642//641 644//643 643//642 
f 644//643 641//640 643//642 
f 641//640 639//638 643//642 
f 642//641 645//644 646//645 
f 645//644 647//646 646//645 
f 647//646 644//643 646//645 
f 644//643 642//641 646//645 
f 645//644 648//647 649//648 
f 648//647 650//649 649//648 
f 650//649 647//646 649//648 
f 647//646 645//644 649//648 
f 648//647 651//650 652//651 
f 651//650 653//652 652//651 
f 653//652 650//649 652//651 
f 650//649 648//647 652//651 
f 651//650 654//653 655//654 
f 654//653 656//655 655//654 
f 656//655 653//652 655//654 
f 653//652 651//650 655//654 
f 654//653 657//656 658//657 
f 657//656 659//658 658//657 
f 659//658 656//655 658//657 
f 656//655 654//653 658//657 
f 657//656 660//659 661//660 
f 660//659 662//661 661//660 
f 662//661 659//658 661//660 
f 659//658 657//656 661//660 
f 660//659 663//662 664//663 
f 663//662 665//664 664//663 
f 665//664 662//661 664//663 
f 662//661 660//659 664//663 
f 663//662 666//665 667//666 
f 666//665 668//667 667//666 
f 668//667 665//664 667//666 
f 665//664 663//662 667//666 
f 666//665 669//668 670//669 
f 669//668 671//670 670//669 
f 671//670 668//667 670//669 
f 668//667 666//665 670//669 
s 3
f 669//668 565//564 672//671 
f 565//564 569//568 672//671 
f 569//568 671//670 672//671 
f 671//670 669//668 672//671 
s 16
f 366//366 375//374 673//672 
f 375//374 372//372 673//672 
f 372//372 369//369 673//672 
f 369//369 366//366 673//672 
f 380//379 362//362 674//673 
f 362//362 365//365 674//673 
f 365//365 380//379 674//673 
f 366//366 363//363 675//672 
f 363//363 378//377 675//672 
f 378//377 375//374 675//672 
f 375//374 366//366 675//672 
f 363//363 360//360 676//672 
f 360//360 381//380 676//672 
f 381//380 378//377 676//672 
f 378//377 363//363 676//672 
f 357//357 387//386 677//672 
f 387//386 384//383 677//672 
f 384//383 357//357 677//672 
f 357//357 354//354 678//672 
f 354//354 387//386 678//672 
f 387//386 357//357 678//672 
f 384//383 381//380 679//672 
f 381//380 360//360 679//672 
f 360//360 357//357 679//672 
f 357//357 384//383 679//672 
f 354//354 351//351 680//672 
f 351//351 24//24 680//672 
f 24//24 390//389 680//672 
f 390//389 387//386 680//672 
f 387//386 354//354 680//672 
f 351//351 348//348 681//672 
f 348//348 24//24 681//672 
f 24//24 351//351 681//672 
f 615//614 612//611 682//672 
f 612//611 683//672 423//422 682//672 
f 423//422 420//419 682//672 
f 420//419 615//614 682//672 
f 612//611 609//608 683//672 
f 609//608 423//422 683//672 
f 420//419 417//416 684//672 
f 417//416 615//614 684//672 
f 615//614 420//419 684//672 
f 417//416 414//413 685//672 
f 414//413 615//614 685//672 
f 615//614 417//416 685//672 
f 414//413 411//410 686//672 
f 411//410 615//614 686//672 
f 615//614 414//413 686//672 
f 411//410 408//407 687//672 
f 408//407 615//614 687//672 
f 615//614 411//410 687//672 
f 408//407 405//404 688//672 
f 405//404 615//614 688//672 
f 615//614 408//407 688//672 
f 405//404 402//401 689//672 
f 402//401 615//614 689//672 
f 615//614 405//404 689//672 
f 402//401 399//398 690//672 
f 399//398 615//614 690//672 
f 615//614 402//401 690//672 
f 399//398 396//395 691//672 
f 396//395 24//24 691//672 
f 24//24 21//21 691//672 
f 21//21 18//18 691//672 
f 18//18 15//15 691//672 
f 15//15 12//12 691//672 
f 12//12 9//9 691//672 
f 9//9 6//6 691//672 
f 6//6 2//2 691//672 
f 2//2 1//1 691//672 
f 1//1 561//560 691//672 
f 561//560 615//614 691//672 
f 615//614 399//398 691//672 
f 396//395 393//392 692//672 
f 393//392 24//24 692//672 
f 24//24 396//395 692//672 
f 393//392 390//389 693//672 
f 390//389 24//24 693//672 
f 24//24 393//392 693//672 
f 609//608 606//605 694//672 
f 606//605 423//422 694//672 
f 423//422 609//608 694//672 
f 606//605 603//602 695//672 
f 603//602 426//425 695//672 
f 426//425 423//422 695//672 
f 423//422 606//605 695//672 
f 603//602 600//599 696//672 
f 600//599 429//428 696//672 
f 429//428 426//425 696//672 
f 426//425 603//602 696//672 
f 600//599 597//596 697//672 
f 597//596 435//434 697//672 
f 435//434 432//431 697//672 
f 432//431 429//428 697//672 
f 429//428 600//599 697//672 
f 597//596 594//593 698//672 
f 594//593 444//443 698//672 
f 444//443 441//440 698//672 
f 441//440 438//437 698//672 
f 438//437 435//434 698//672 
f 435//434 597//596 698//672 
f 594//593 591//590 699//672 
f 591//590 447//446 699//672 
f 447//446 444//443 699//672 
f 444//443 594//593 699//672 
f 591//590 588//587 700//672 
f 588//587 453//452 700//672 
f 453//452 450//449 700//672 
f 450//449 447//446 700//672 
f 447//446 591//590 700//672 
f 588//587 585//584 701//672 
f 585//584 456//455 701//672 
f 456//455 453//452 701//672 
f 453//452 588//587 701//672 
f 585//584 582//581 702//672 
f 582//581 459//458 702//672 
f 459//458 456//455 702//672 
f 456//455 585//584 702//672 
f 582//581 579//578 703//672 
f 579//578 462//461 703//672 
f 462//461 459//458 703//672 
f 459//458 582//581 703//672 
f 579//578 576//575 704//672 
f 576//575 465//464 704//672 
f 465//464 462//461 704//672 
f 462//461 579//578 704//672 
f 576//575 573//572 705//672 
f 573//572 468//467 705//672 
f 468//467 465//464 705//672 
f 465//464 576//575 705//672 
f 573//572 570//569 706//672 
f 570//569 471//470 706//672 
f 471//470 468//467 706//672 
f 468//467 573//572 706//672 
f 570//569 566//565 707//672 
f 566//565 474//473 707//672 
f 474//473 471//470 707//672 
f 471//470 570//569 707//672 
f 566//565 565//564 708//672 
f 565//564 477//476 708//672 
f 477//476 474//473 708//672 
f 474//473 566//565 708//672 
f 565//564 669//668 709//672 
f 669//668 480//479 709//672 
f 480//479 477//476 709//672 
f 477//476 565//564 709//672 
f 669//668 666//665 710//672 
f 666//665 486//485 710//672 
f 486//485 483//482 710//672 
f 483//482 480//479 710//672 
f 480//479 669//668 710//672 
f 666//665 663//662 711//672 
f 663//662 492//491 711//672 
f 492//491 489//488 711//672 
f 489//488 486//485 711//672 
f 486//485 666//665 711//672 
f 663//662 660//659 712//672 
f 660//659 498//497 712//672 
f 498//497 495//494 712//672 
f 495//494 492//491 712//672 
f 492//491 663//662 712//672 
f 660//659 657//656 713//672 
f 657//656 504//503 713//672 
f 504//503 501//500 713//672 
f 501//500 498//497 713//672 
f 498//497 660//659 713//672 
f 657//656 654//653 714//672 
f 654//653 510//509 714//672 
f 510//509 507//506 714//672 
f 507//506 504//503 714//672 
f 504//503 657//656 714//672 
f 654//653 651//650 715//672 
f 651//650 516//515 715//672 
f 516//515 513//512 715//672 
f 513//512 510//509 715//672 
f 510//509 654//653 715//672 
f 651//650 648//647 716//672 
f 648//647 522//521 716//672 
f 522//521 519//518 716//672 
f 519//518 516//515 716//672 
f 516//515 651//650 716//672 
f 648//647 645//644 717//672 
f 645//644 528//527 717//672 
f 528//527 525//524 717//672 
f 525//524 522//521 717//672 
f 522//521 648//647 717//672 
f 645//644 642//641 718//672 
f 642//641 534//533 718//672 
f 534//533 531//530 718//672 
f 531//530 528//527 718//672 
f 528//527 645//644 718//672 
f 642//641 639//638 719//672 
f 639//638 537//536 719//672 
f 537//536 534//533 719//672 
f 534//533 642//641 719//672 
f 639//638 636//635 720//672 
f 636//635 540//539 720//672 
f 540//539 537//536 720//672 
f 537//536 639//638 720//672 
f 636//635 633//632 721//672 
f 633//632 546//545 721//672 
f 546//545 543//542 721//672 
f 543//542 540//539 721//672 
f 540//539 636//635 721//672 
f 633//632 630//629 722//672 
f 630//629 549//548 722//672 
f 549//548 546//545 722//672 
f 546//545 633//632 722//672 
f 630//629 627//626 723//672 
f 627//626 555//554 723//672 
f 555//554 552//551 723//672 
f 552//551 549//548 723//672 
f 549//548 630//629 723//672 
f 627//626 624//623 724//672 
f 624//623 558//557 724//672 
f 558//557 555//554 724//672 
f 555//554 627//626 724//672 
f 624//623 621//620 725//672 
f 621//620 561//560 725//672 
f 561//560 558//557 725//672 
f 558//557 624//623 725//672 
f 621//620 618//617 726//672 
f 618//617 561//560 726//672 
f 561//560 621//620 726//672 
f 618//617 615//614 727//672 
f 615//614 561//560 727//672 
f 561//560 618//617 727//672 
f 348//348 345//345 728//672 
f 345//345 24//24 728//672 
f 24//24 348//348 728//672 
f 345//345 342//342 729//672 
f 342//342 27//27 729//672 
f 27//27 24//24 729//672 
f 24//24 345//345 729//672 
f 342//342 339//339 730//672 
f 339//339 30//30 730//672 
f 30//30 27//27 730//672 
f 27//27 342//342 730//672 
f 339//339 336//336 731//672 
f 336//336 33//33 731//672 
f 33//33 30//30 731//672 
f 30//30 339//339 731//672 
f 336//336 333//333 732//672 
f 333//333 36//36 732//672 
f 36//36 33//33 732//672 
f 33//33 336//336 732//672 
f 333//333 330//330 733//672 
f 330//330 39//39 733//672 
f 39//39 36//36 733//672 
f 36//36 333//333 733//672 
f 330//330 327//327 734//672 
f 327//327 42//42 734//672 
f 42//42 39//39 734//672 
f 39//39 330//330 734//672 
f 327//327 324//324 735//672 
f 324//324 45//45 735//672 
f 45//45 42//42 735//672 
f 42//42 327//327 735//672 
f 324//324 321//321 736//672 
f 321//321 48//48 736//672 
f 48//48 45//45 736//672 
f 45//45 324//324 736//672 
f 321//321 318//318 737//672 
f 318//318 54//54 737//672 
f 54//54 51//51 737//672 
f 51//51 321//321 737//672 
f 234//234 231//231 738//672 
f 231//231 108//108 738//672 
f 108//108 105//105 738//672 
f 105//105 234//234 738//672 
f 51//51 48//48 739//672 
f 48//48 321//321 739//672 
f 321//321 51//51 739//672 
f 177//177 174//174 740//672 
f 174//174 171//171 740//672 
f 171//171 168//168 740//672 
f 168//168 165//165 740//672 
f 165//165 177//177 740//672 
f 105//105 102//102 741//672 
f 102//102 249//249 741//672 
f 249//249 246//246 741//672 
f 246//246 243//243 741//672 
f 243//243 240//240 741//672 
f 240//240 237//237 741//672 
f 237//237 234//234 741//672 
f 234//234 105//105 741//672 
f 102//102 99//99 742//672 
f 99//99 255//255 742//672 
f 255//255 252//252 742//672 
f 252//252 249//249 742//672 
f 249//249 102//102 742//672 
f 99//99 96//96 743//672 
f 96//96 261//261 743//672 
f 261//261 258//258 743//672 
f 258//258 255//255 743//672 
f 255//255 99//99 743//672 
f 96//96 93//93 744//672 
f 93//93 264//264 744//672 
f 264//264 261//261 744//672 
f 261//261 96//96 744//672 
f 93//93 90//90 745//672 
f 90//90 270//270 745//672 
f 270//270 267//267 745//672 
f 267//267 264//264 745//672 
f 264//264 93//93 745//672 
f 90//90 87//87 746//672 
f 87//87 276//276 746//672 
f 276//276 273//273 746//672 
f 273//273 270//270 746//672 
f 270//270 90//90 746//672 
f 87//87 84//84 747//672 
f 84//84 279//279 747//672 
f 279//279 276//276 747//672 
f 276//276 87//87 747//672 
f 84//84 81//81 748//672 
f 81//81 285//285 748//672 
f 285//285 282//282 748//672 
f 282//282 279//279 748//672 
f 279//279 84//84 748//672 
f 81//81 78//78 749//672 
f 78//78 288//288 749//672 
f 288//288 285//285 749//672 
f 285//285 81//81 749//672 
f 78//78 75//75 750//672 
f 75//75 294//294 750//672 
f 294//294 291//291 750//672 
f 291//291 288//288 750//672 
f 288//288 78//78 750//672 
f 75//75 72//72 751//672 
f 72//72 297//297 751//672 
f 297//297 294//294 751//672 
f 294//294 75//75 751//672 
f 72//72 69//69 752//672 
f 69//69 303//303 752//672 
f 303//303 300//300 752//672 
f 300//300 297//297 752//672 
f 297//297 72//72 752//672 
f 69//69 66//66 753//672 
f 66//66 306//306 753//672 
f 306//306 303//303 753//672 
f 303//303 69//69 753//672 
f 66//66 63//63 754//672 
f 63//63 309//309 754//672 
f 309//309 306//306 754//672 
f 306//306 66//66 754//672 
f 63//63 60//60 755//672 
f 60//60 312//312 755//672 
f 312//312 309//309 755//672 
f 309//309 63//63 755//672 
f 60//60 57//57 756//672 
f 57//57 315//315 756//672 
f 315//315 312//312 756//672 
f 312//312 60//60 756//672 
f 57//57 54//54 757//672 
f 54//54 318//318 757//672 
f 318//318 315//315 757//672 
f 315//315 57//57 757//672 
f 165//165 162//162 758//672 
f 162//162 180//180 758//672 
f 180//180 177//177 758//672 
f 177//177 165//165 758//672 
f 162//162 159//159 759//672 
f 159//159 183//183 759//672 
f 183//183 180//180 759//672 
f 180//180 162//162 759//672 
f 159//159 156//156 760//672 
f 156//156 186//186 760//672 
f 186//186 183//183 760//672 
f 183//183 159//159 760//672 
f 156//156 153//153 761//672 
f 153//153 189//189 761//672 
f 189//189 186//186 761//672 
f 186//186 156//156 761//672 
f 153//153 150//150 762//672 
f 150//150 192//192 762//672 
f 192//192 189//189 762//672 
f 189//189 153//153 762//672 
f 150//150 147//147 763//672 
f 147//147 195//195 763//672 
f 195//195 192//192 763//672 
f 192//192 150//150 763//672 
f 147//147 144//144 764//672 
f 144//144 198//198 764//672 
f 198//198 195//195 764//672 
f 195//195 147//147 764//672 
f 144//144 141//141 765//672 
f 141//141 201//201 765//672 
f 201//201 198//198 765//672 
f 198//198 144//144 765//672 
f 141//141 138//138 766//672 
f 138//138 204//204 766//672 
f 204//204 201//201 766//672 
f 201//201 141//141 766//672 
f 138//138 135//135 767//672 
f 135//135 207//207 767//672 
f 207//207 204//204 767//672 
f 204//204 138//138 767//672 
f 135//135 132//132 768//672 
f 132//132 210//210 768//672 
f 210//210 207//207 768//672 
f 207//207 135//135 768//672 
f 132//132 129//129 769//672 
f 129//129 213//213 769//672 
f 213//213 210//210 769//672 
f 210//210 132//132 769//672 
f 129//129 126//126 770//672 
f 126//126 216//216 770//672 
f 216//216 213//213 770//672 
f 213//213 129//129 770//672 
f 126//126 123//123 771//672 
f 123//123 219//219 771//672 
f 219//219 216//216 771//672 
f 216//216 126//126 771//672 
f 123//123 120//120 772//672 
f 120//120 222//222 772//672 
f 222//222 219//219 772//672 
f 219//219 123//123 772//672 
f 120//120 117//117 773//672 
f 117//117 225//225 773//672 
f 225//225 222//222 773//672 
f 222//222 120//120 773//672 
f 117//117 114//114 774//672 
f 114//114 225//225 774//672 
f 225//225 117//117 774//672 
f 114//114 111//111 775//672 
f 111//111 231//231 775//672 
f 231//231 228//228 775//672 
f 228//228 225//225 775//672 
f 225//225 114//114 775//672 
f 111//111 108//108 776//672 
f 108//108 231//231 776//672 
f 231//231 111//111 776//672 
f 368//368 371//371 777//673 
f 371//371 374//373 777//673 
f 374//373 377//376 777//673 
f 377//376 368//368 777//673 
f 380//379 383//382 778//673 
f 383//382 359//359 778//673 
f 359//359 362//362 778//673 
f 362//362 380//379 778//673 
f 365//365 368//368 779//673 
f 368//368 377//376 779//673 
f 377//376 380//379 779//673 
f 380//379 365//365 779//673 
f 383//382 386//385 780//673 
f 386//385 359//359 780//673 
f 359//359 383//382 780//673 
f 386//385 389//388 781//673 
f 389//388 356//356 781//673 
f 356//356 359//359 781//673 
f 359//359 386//385 781//673 
f 389//388 392//391 782//673 
f 392//391 26//26 782//673 
f 26//26 356//356 782//673 
f 356//356 389//388 782//673 
f 392//391 395//394 783//673 
f 395//394 26//26 783//673 
f 26//26 392//391 783//673 
f 47//47 50//50 784//673 
f 50//50 53//53 784//673 
f 53//53 323//323 784//673 
f 323//323 326//326 784//673 
f 326//326 47//47 784//673 
f 53//53 56//56 785//673 
f 56//56 320//320 785//673 
f 320//320 323//323 785//673 
f 323//323 53//53 785//673 
f 326//326 329//329 786//673 
f 329//329 44//44 786//673 
f 44//44 47//47 786//673 
f 47//47 326//326 786//673 
f 329//329 332//332 787//673 
f 332//332 41//41 787//673 
f 41//41 44//44 787//673 
f 44//44 329//329 787//673 
f 332//332 335//335 788//673 
f 335//335 38//38 788//673 
f 38//38 41//41 788//673 
f 41//41 332//332 788//673 
f 335//335 338//338 789//673 
f 338//338 35//35 789//673 
f 35//35 38//38 789//673 
f 38//38 335//335 789//673 
f 338//338 341//341 790//673 
f 341//341 32//32 790//673 
f 32//32 35//35 790//673 
f 35//35 338//338 790//673 
f 341//341 344//344 791//673 
f 344//344 29//29 791//673 
f 29//29 32//32 791//673 
f 32//32 341//341 791//673 
f 344//344 347//347 792//673 
f 347//347 26//26 792//673 
f 26//26 29//29 792//673 
f 29//29 344//344 792//673 
f 347//347 350//350 793//673 
f 350//350 26//26 793//673 
f 26//26 347//347 793//673 
f 350//350 353//353 794//673 
f 353//353 26//26 794//673 
f 26//26 350//350 794//673 
f 353//353 356//356 795//673 
f 356//356 26//26 795//673 
f 26//26 353//353 795//673 
f 56//56 59//59 796//673 
f 59//59 317//317 796//673 
f 317//317 320//320 796//673 
f 320//320 56//56 796//673 
f 59//59 62//62 797//673 
f 62//62 314//314 797//673 
f 314//314 317//317 797//673 
f 317//317 59//59 797//673 
f 62//62 65//65 798//673 
f 65//65 311//311 798//673 
f 311//311 314//314 798//673 
f 314//314 62//62 798//673 
f 65//65 68//68 799//673 
f 68//68 308//308 799//673 
f 308//308 311//311 799//673 
f 311//311 65//65 799//673 
f 68//68 71//71 800//673 
f 71//71 305//305 800//673 
f 305//305 308//308 800//673 
f 308//308 68//68 800//673 
f 71//71 74//74 801//673 
f 74//74 299//299 801//673 
f 299//299 302//302 801//673 
f 302//302 305//305 801//673 
f 305//305 71//71 801//673 
f 74//74 77//77 802//673 
f 77//77 296//296 802//673 
f 296//296 299//299 802//673 
f 299//299 74//74 802//673 
f 77//77 80//80 803//673 
f 80//80 290//290 803//673 
f 290//290 293//293 803//673 
f 293//293 296//296 803//673 
f 296//296 77//77 803//673 
f 80//80 83//83 804//673 
f 83//83 287//287 804//673 
f 287//287 290//290 804//673 
f 290//290 80//80 804//673 
f 83//83 86//86 805//673 
f 86//86 281//281 805//673 
f 281//281 284//284 805//673 
f 284//284 287//287 805//673 
f 287//287 83//83 805//673 
f 86//86 89//89 806//673 
f 89//89 278//278 806//673 
f 278//278 281//281 806//673 
f 281//281 86//86 806//673 
f 89//89 92//92 807//673 
f 92//92 272//272 807//673 
f 272//272 275//275 807//673 
f 275//275 278//278 807//673 
f 278//278 89//89 807//673 
f 92//92 95//95 808//673 
f 95//95 266//266 808//673 
f 266//266 269//269 808//673 
f 269//269 272//272 808//673 
f 272//272 92//92 808//673 
f 95//95 98//98 809//673 
f 98//98 263//263 809//673 
f 263//263 266//266 809//673 
f 266//266 95//95 809//673 
f 98//98 101//101 810//673 
f 101//101 257//257 810//673 
f 257//257 260//260 810//673 
f 260//260 263//263 810//673 
f 263//263 98//98 810//673 
f 101//101 104//104 811//673 
f 104//104 251//251 811//673 
f 251//251 254//254 811//673 
f 254//254 257//257 811//673 
f 257//257 101//101 811//673 
f 104//104 107//107 812//673 
f 107//107 236//236 812//673 
f 236//236 239//239 812//673 
f 239//239 242//242 812//673 
f 242//242 245//245 812//673 
f 245//245 248//248 812//673 
f 248//248 251//251 812//673 
f 251//251 104//104 812//673 
f 110//110 113//113 813//673 
f 113//113 233//233 813//673 
f 233//233 110//110 813//673 
f 113//113 116//116 814//673 
f 116//116 227//227 814//673 
f 227//227 230//230 814//673 
f 230//230 233//233 814//673 
f 233//233 113//113 814//673 
f 233//233 236//236 815//673 
f 236//236 107//107 815//673 
f 107//107 110//110 815//673 
f 110//110 233//233 815//673 
f 116//116 119//119 816//673 
f 119//119 227//227 816//673 
f 227//227 116//116 816//673 
f 119//119 122//122 817//673 
f 122//122 224//224 817//673 
f 224//224 227//227 817//673 
f 227//227 119//119 817//673 
f 122//122 125//125 818//673 
f 125//125 221//221 818//673 
f 221//221 224//224 818//673 
f 224//224 122//122 818//673 
f 125//125 128//128 819//673 
f 128//128 218//218 819//673 
f 218//218 221//221 819//673 
f 221//221 125//125 819//673 
f 128//128 131//131 820//673 
f 131//131 215//215 820//673 
f 215//215 218//218 820//673 
f 218//218 128//128 820//673 
f 131//131 134//134 821//673 
f 134//134 212//212 821//673 
f 212//212 215//215 821//673 
f 215//215 131//131 821//673 
f 134//134 137//137 822//673 
f 137//137 209//209 822//673 
f 209//209 212//212 822//673 
f 212//212 134//134 822//673 
f 137//137 140//140 823//673 
f 140//140 206//206 823//673 
f 206//206 209//209 823//673 
f 209//209 137//137 823//673 
f 140//140 143//143 824//673 
f 143//143 203//203 824//673 
f 203//203 206//206 824//673 
f 206//206 140//140 824//673 
f 143//143 146//146 825//673 
f 146//146 200//200 825//673 
f 200//200 203//203 825//673 
f 203//203 143//143 825//673 
f 146//146 149//149 826//673 
f 149//149 197//197 826//673 
f 197//197 200//200 826//673 
f 200//200 146//146 826//673 
f 149//149 152//152 827//673 
f 152//152 194//194 827//673 
f 194//194 197//197 827//673 
f 197//197 149//149 827//673 
f 152//152 155//155 828//673 
f 155//155 191//191 828//673 
f 191//191 194//194 828//673 
f 194//194 152//152 828//673 
f 155//155 158//158 829//673 
f 158//158 188//188 829//673 
f 188//188 191//191 829//673 
f 191//191 155//155 829//673 
f 158//158 161//161 830//673 
f 161//161 185//185 830//673 
f 185//185 188//188 830//673 
f 188//188 158//158 830//673 
f 161//161 164//164 831//673 
f 164//164 182//182 831//673 
f 182//182 185//185 831//673 
f 185//185 161//161 831//673 
f 164//164 167//167 832//673 
f 167//167 179//179 832//673 
f 179//179 182//182 832//673 
f 182//182 164//164 832//673 
f 167//167 170//170 833//673 
f 170//170 173//173 833//673 
f 173//173 176//176 833//673 
f 176//176 179//179 833//673 
f 179//179 167//167 833//673 
f 395//394 398//397 834//673 
f 398//397 26//26 834//673 
f 26//26 395//394 834//673 
f 398//397 401//400 835//673 
f 401//400 617//616 835//673 
f 617//616 620//619 835//673 
f 620//619 563//562 835//673 
f 563//562 5//5 835//673 
f 5//5 4//4 835//673 
f 4//4 8//8 835//673 
f 8//8 11//11 835//673 
f 11//11 14//14 835//673 
f 14//14 17//17 835//673 
f 17//17 20//20 835//673 
f 20//20 23//23 835//673 
f 23//23 26//26 835//673 
f 26//26 398//397 835//673 
f 401//400 404//403 836//673 
f 404//403 617//616 836//673 
f 617//616 401//400 836//673 
f 620//619 623//622 837//673 
f 623//622 563//562 837//673 
f 563//562 620//619 837//673 
f 623//622 626//625 838//673 
f 626//625 560//559 838//673 
f 560//559 563//562 838//673 
f 563//562 623//622 838//673 
f 626//625 629//628 839//673 
f 629//628 557//556 839//673 
f 557//556 560//559 839//673 
f 560//559 626//625 839//673 
f 629//628 632//631 840//673 
f 632//631 551//550 840//673 
f 551//550 554//553 840//673 
f 554//553 557//556 840//673 
f 557//556 629//628 840//673 
f 632//631 635//634 841//673 
f 635//634 548//547 841//673 
f 548//547 551//550 841//673 
f 551//550 632//631 841//673 
f 635//634 638//637 842//673 
f 638//637 542//541 842//673 
f 542//541 545//544 842//673 
f 545//544 548//547 842//673 
f 548//547 635//634 842//673 
f 638//637 641//640 843//673 
f 641//640 539//538 843//673 
f 539//538 542//541 843//673 
f 542//541 638//637 843//673 
f 641//640 644//643 844//673 
f 644//643 536//535 844//673 
f 536//535 539//538 844//673 
f 539//538 641//640 844//673 
f 644//643 647//646 845//673 
f 647//646 530//529 845//673 
f 530//529 533//532 845//673 
f 533//532 536//535 845//673 
f 536//535 644//643 845//673 
f 647//646 650//649 846//673 
f 650//649 524//523 846//673 
f 524//523 527//526 846//673 
f 527//526 530//529 846//673 
f 530//529 647//646 846//673 
f 650//649 653//652 847//673 
f 653//652 518//517 847//673 
f 518//517 521//520 847//673 
f 521//520 524//523 847//673 
f 524//523 650//649 847//673 
f 653//652 656//655 848//673 
f 656//655 512//511 848//673 
f 512//511 515//514 848//673 
f 515//514 518//517 848//673 
f 518//517 653//652 848//673 
f 656//655 659//658 849//673 
f 659//658 506//505 849//673 
f 506//505 509//508 849//673 
f 509//508 512//511 849//673 
f 512//511 656//655 849//673 
f 659//658 662//661 850//673 
f 662//661 500//499 850//673 
f 500//499 503//502 850//673 
f 503//502 506//505 850//673 
f 506//505 659//658 850//673 
f 662//661 665//664 851//673 
f 665//664 494//493 851//673 
f 494//493 497//496 851//673 
f 497//496 500//499 851//673 
f 500//499 662//661 851//673 
f 665//664 668//667 852//673 
f 668//667 488//487 852//673 
f 488//487 491//490 852//673 
f 491//490 494//493 852//673 
f 494//493 665//664 852//673 
f 668//667 671//670 853//673 
f 671//670 482//481 853//673 
f 482//481 485//484 853//673 
f 485//484 488//487 853//673 
f 488//487 668//667 853//673 
f 671//670 569//568 854//673 
f 569//568 479//478 854//673 
f 479//478 482//481 854//673 
f 482//481 671//670 854//673 
f 569//568 568//567 855//673 
f 568//567 476//475 855//673 
f 476//475 479//478 855//673 
f 479//478 569//568 855//673 
f 568//567 572//571 856//673 
f 572//571 473//472 856//673 
f 473//472 476//475 856//673 
f 476//475 568//567 856//673 
f 572//571 575//574 857//673 
f 575//574 470//469 857//673 
f 470//469 473//472 857//673 
f 473//472 572//571 857//673 
f 575//574 578//577 858//673 
f 578//577 467//466 858//673 
f 467//466 470//469 858//673 
f 470//469 575//574 858//673 
f 578//577 581//580 859//673 
f 581//580 464//463 859//673 
f 464//463 467//466 859//673 
f 467//466 578//577 859//673 
f 581//580 584//583 860//673 
f 584//583 461//460 860//673 
f 461//460 464//463 860//673 
f 464//463 581//580 860//673 
f 584//583 587//586 861//673 
f 587//586 458//457 861//673 
f 458//457 461//460 861//673 
f 461//460 584//583 861//673 
f 587//586 590//589 862//673 
f 590//589 455//454 862//673 
f 455//454 458//457 862//673 
f 458//457 587//586 862//673 
f 590//589 593//592 863//673 
f 593//592 449//448 863//673 
f 449//448 452//451 863//673 
f 452//451 455//454 863//673 
f 455//454 590//589 863//673 
f 593//592 596//595 864//673 
f 596//595 446//445 864//673 
f 446//445 449//448 864//673 
f 449//448 593//592 864//673 
f 596//595 599//598 865//673 
f 599//598 437//436 865//673 
f 437//436 440//439 865//673 
f 440//439 443//442 865//673 
f 443//442 446//445 865//673 
f 446//445 596//595 865//673 
f 599//598 602//601 866//673 
f 602//601 431//430 866//673 
f 431//430 434//433 866//673 
f 434//433 437//436 866//673 
f 437//436 599//598 866//673 
f 602//601 605//604 867//673 
f 605//604 428//427 867//673 
f 428//427 431//430 867//673 
f 431//430 602//601 867//673 
f 605//604 608//607 868//673 
f 608//607 425//424 868//673 
f 425//424 428//427 868//673 
f 428//427 605//604 868//673 
f 608//607 611//610 869//673 
f 611//610 425//424 869//673 
f 425//424 608//607 869//673 
f 611//610 614//613 870//673 
f 425//424 611//610 870//673 
f 404//403 407//406 871//673 
f 407//406 617//616 871//673 
f 617//616 404//403 871//673 
f 407//406 410//409 872//673 
f 410//409 617//616 872//673 
f 617//616 407//406 872//673 
f 410//409 413//412 873//673 
f 413//412 617//616 873//673 
f 617//616 410//409 873//673 
f 413//412 416//415 874//673 
f 416//415 617//616 874//673 
f 617//616 413//412 874//673 
f 416//415 419//418 875//673 
f 419//418 617//616 875//673 
f 617//616 416//415 875//673 
f 419//418 422//421 876//673 
f 422//421 617//616 876//673 
f 617//616 419//418 876//673 
f 422//421 425//424 877//673 
f 425//424 870//673 614//613 877//673 
f 614//613 617//616 877//673 
f 617//616 422//421 877//673 
# 2 polygons - 1750 triangles

