# 3ds Max Wavefront OBJ Exporter v0.97b - (c)2007 guruware
# File Created: 20.02.2021 17:44:01

#
# object To_Tung
#

v  822.3746 0.0000 -37.6409
v  821.2020 0.0000 -36.9606
v  821.7883 5.0000 -37.3007
v  821.2020 10.0000 -36.9606
v  822.3746 10.0000 -37.6409
v  820.1858 0.0000 -36.1379
v  820.6939 5.0000 -36.5492
v  820.1858 10.0000 -36.1379
v  819.3259 0.0000 -35.1728
v  819.7559 5.0000 -35.6553
v  819.3259 10.0000 -35.1728
v  818.6224 0.0000 -34.0654
v  818.9742 5.0000 -34.6191
v  818.6224 10.0000 -34.0654
v  818.0753 0.0000 -32.8156
v  818.3488 5.0000 -33.4405
v  818.0753 10.0000 -32.8156
v  817.6844 0.0000 -31.4234
v  817.8798 5.0000 -32.1195
v  817.6844 10.0000 -31.4234
v  817.4499 0.0000 -29.8889
v  817.5671 5.0000 -30.6562
v  817.4499 10.0000 -29.8889
v  817.3717 0.0000 -28.2120
v  817.4108 5.0000 -29.0505
v  817.3717 10.0000 -28.2120
v  817.3717 0.0000 -16.9220
v  817.3717 5.0000 -22.5670
v  817.3717 10.0000 -16.9220
v  817.4881 0.0000 -14.4395
v  817.4299 5.0000 -15.6808
v  817.4881 10.0000 -14.4395
v  817.8373 0.0000 -12.2491
v  817.6627 5.0000 -13.3443
v  817.8373 10.0000 -12.2491
v  818.4193 0.0000 -10.3507
v  818.1283 5.0000 -11.2999
v  818.4193 10.0000 -10.3507
v  819.2341 0.0000 -8.7444
v  818.8267 5.0000 -9.5476
v  819.2341 10.0000 -8.7444
v  820.2817 0.0000 -7.4302
v  819.7579 5.0000 -8.0873
v  820.2817 10.0000 -7.4302
v  821.5621 0.0000 -6.4079
v  820.9219 5.0000 -6.9190
v  821.5621 10.0000 -6.4079
v  823.0753 0.0000 -5.6778
v  822.3187 5.0000 -6.0429
v  823.0753 10.0000 -5.6778
v  824.8214 0.0000 -5.2397
v  823.9484 5.0000 -5.4588
v  824.8214 10.0000 -5.2397
v  826.8002 0.0000 -5.0937
v  825.8107 5.0000 -5.1667
v  826.8002 10.0000 -5.0937
v  827.6309 0.0000 -5.1213
v  827.2156 5.0000 -5.1075
v  827.6309 10.0000 -5.1213
v  828.4417 0.0000 -5.2041
v  828.0363 5.0000 -5.1627
v  828.4417 10.0000 -5.2041
v  829.2325 0.0000 -5.3422
v  828.8371 5.0000 -5.2731
v  829.2325 10.0000 -5.3422
v  830.0032 0.0000 -5.5354
v  829.6179 5.0000 -5.4388
v  830.0032 10.0000 -5.5354
v  830.7540 0.0000 -5.7839
v  830.3786 5.0000 -5.6597
v  830.7540 10.0000 -5.7839
v  831.4847 0.0000 -6.0876
v  831.1194 5.0000 -5.9358
v  831.4847 10.0000 -6.0876
v  832.1956 0.0000 -6.4466
v  831.8401 5.0000 -6.2671
v  832.1956 10.0000 -6.4466
v  832.8863 0.0000 -6.8607
v  832.5409 5.0000 -6.6536
v  832.8863 10.0000 -6.8607
v  833.5571 0.0000 -7.3301
v  833.2217 5.0000 -7.0954
v  833.5571 10.0000 -7.3301
v  834.1811 0.0000 -7.8546
v  833.8691 5.0000 -7.5923
v  834.1811 10.0000 -7.8546
v  834.7318 0.0000 -8.4344
v  834.4564 5.0000 -8.1445
v  834.7318 10.0000 -8.4344
v  835.2090 0.0000 -9.0695
v  834.9703 5.0000 -8.7519
v  835.2090 10.0000 -9.0695
v  835.6128 0.0000 -9.7597
v  835.4109 5.0000 -9.4146
v  835.6128 10.0000 -9.7597
v  835.9432 0.0000 -10.5051
v  835.7780 5.0000 -10.1324
v  835.9432 10.0000 -10.5051
v  836.2001 0.0000 -11.3058
v  836.0717 5.0000 -10.9055
v  836.2001 10.0000 -11.3058
v  836.3837 0.0000 -12.1617
v  836.2919 5.0000 -11.7338
v  836.3837 10.0000 -12.1617
v  836.4938 0.0000 -13.0728
v  836.4387 5.0000 -12.6173
v  836.4938 10.0000 -13.0728
v  836.5305 0.0000 -14.0392
v  836.5121 5.0000 -13.5560
v  836.5305 10.0000 -14.0392
v  836.4152 0.0000 -15.8786
v  836.4728 5.0000 -14.9589
v  836.4152 10.0000 -15.8786
v  836.0694 0.0000 -17.5016
v  836.2423 5.0000 -16.6901
v  836.0694 10.0000 -17.5016
v  835.4930 0.0000 -18.9082
v  835.7812 5.0000 -18.2049
v  835.4930 10.0000 -18.9082
v  834.6860 0.0000 -20.0985
v  835.0895 5.0000 -19.5034
v  834.6860 10.0000 -20.0985
v  833.6484 0.0000 -21.0723
v  834.1672 5.0000 -20.5854
v  833.6484 10.0000 -21.0723
v  832.3803 0.0000 -21.8297
v  833.0144 5.0000 -21.4510
v  832.3803 10.0000 -21.8297
v  830.8817 0.0000 -22.3707
v  831.6310 5.0000 -22.1002
v  830.8817 10.0000 -22.3707
v  829.1524 0.0000 -22.6953
v  830.0170 5.0000 -22.5330
v  829.1524 10.0000 -22.6953
v  827.1926 0.0000 -22.8035
v  828.1725 5.0000 -22.7494
v  827.1926 10.0000 -22.8035
v  827.1926 0.0000 -28.2749
v  827.1926 5.0000 -25.5392
v  827.1926 10.0000 -28.2749
v  827.2230 0.0000 -29.0765
v  827.2078 5.0000 -28.6757
v  827.2230 10.0000 -29.0765
v  827.3143 0.0000 -29.8700
v  827.2687 5.0000 -29.4732
v  827.3143 10.0000 -29.8700
v  827.4665 0.0000 -30.6555
v  827.3904 5.0000 -30.2628
v  827.4665 10.0000 -30.6555
v  827.6796 0.0000 -31.4330
v  827.5731 5.0000 -31.0443
v  827.6796 10.0000 -31.4330
v  827.9535 0.0000 -32.2025
v  827.8165 5.0000 -31.8178
v  827.9535 10.0000 -32.2025
v  828.2883 0.0000 -32.9640
v  828.1209 5.0000 -32.5833
v  828.2883 10.0000 -32.9640
v  828.6840 0.0000 -33.7175
v  828.4861 5.0000 -33.3407
v  828.6840 10.0000 -33.7175
v  829.1405 0.0000 -34.4629
v  828.9122 5.0000 -34.0902
v  829.1405 10.0000 -34.4629
v  829.6579 0.0000 -35.2004
v  829.3992 5.0000 -34.8317
v  829.6579 10.0000 -35.2004
v  830.2039 0.0000 -35.8931
v  829.9308 5.0000 -35.5467
v  830.2039 10.0000 -35.8931
v  830.7461 0.0000 -36.5043
v  830.4750 5.0000 -36.1987
v  830.7461 10.0000 -36.5043
v  831.2846 0.0000 -37.0340
v  831.0154 5.0000 -36.7691
v  831.2846 10.0000 -37.0340
v  831.8195 0.0000 -37.4822
v  831.5521 5.0000 -37.2581
v  831.8195 10.0000 -37.4822
v  832.3505 0.0000 -37.8489
v  832.0850 5.0000 -37.6655
v  832.3505 10.0000 -37.8489
v  832.8779 0.0000 -38.1341
v  832.6142 5.0000 -37.9915
v  832.8779 10.0000 -38.1341
v  833.4015 0.0000 -38.3379
v  833.1396 5.0000 -38.2360
v  833.4015 10.0000 -38.3379
v  833.9214 0.0000 -38.4601
v  833.6614 5.0000 -38.3990
v  833.9214 10.0000 -38.4601
v  834.4375 0.0000 -38.5008
v  834.1794 5.0000 -38.4805
v  834.4375 10.0000 -38.5008
v  833.5824 0.0000 -39.4827
v  834.0099 5.0000 -38.9918
v  833.5824 10.0000 -39.4827
v  832.6951 0.0000 -40.4070
v  833.1387 5.0000 -39.9449
v  832.6951 10.0000 -40.4070
v  831.7758 0.0000 -41.2736
v  832.2354 5.0000 -40.8403
v  831.7758 10.0000 -41.2736
v  830.8243 0.0000 -42.0826
v  831.3000 5.0000 -41.6781
v  830.8243 10.0000 -42.0826
v  829.8406 0.0000 -42.8339
v  830.3325 5.0000 -42.4582
v  829.8406 10.0000 -42.8339
v  828.8250 0.0000 -43.5276
v  829.3328 5.0000 -43.1807
v  828.8250 10.0000 -43.5276
v  827.7771 0.0000 -44.1636
v  828.3010 5.0000 -43.8456
v  827.7771 10.0000 -44.1636
v  826.6972 0.0000 -44.7420
v  827.2371 5.0000 -44.4528
v  826.6972 10.0000 -44.7420
v  825.5851 0.0000 -45.2628
v  826.1412 5.0000 -45.0024
v  825.5851 10.0000 -45.2628
v  826.3171 0.0000 -45.9893
v  825.9511 5.0000 -45.6260
v  826.3171 10.0000 -45.9893
v  827.1500 0.0000 -46.6303
v  826.7335 5.0000 -46.3098
v  827.1500 10.0000 -46.6303
v  828.0840 0.0000 -47.1858
v  827.6170 5.0000 -46.9080
v  828.0840 10.0000 -47.1858
v  829.1189 0.0000 -47.6559
v  828.6014 5.0000 -47.4209
v  829.1189 10.0000 -47.6559
v  830.2548 0.0000 -48.0405
v  829.6868 5.0000 -47.8482
v  830.2548 10.0000 -48.0405
v  831.4918 0.0000 -48.3396
v  830.8733 5.0000 -48.1901
v  831.4918 10.0000 -48.3396
v  832.8297 0.0000 -48.5533
v  832.1607 5.0000 -48.4465
v  832.8297 10.0000 -48.5533
v  834.2686 0.0000 -48.6815
v  833.5491 5.0000 -48.6174
v  834.2686 10.0000 -48.6815
v  835.8085 0.0000 -48.7242
v  835.0386 5.0000 -48.7029
v  835.8085 10.0000 -48.7242
v  838.1564 0.0000 -48.6055
v  836.9825 5.0000 -48.6649
v  838.1564 10.0000 -48.6055
v  840.2280 0.0000 -48.2492
v  839.1922 5.0000 -48.4273
v  840.2280 10.0000 -48.2492
v  842.0234 0.0000 -47.6554
v  841.1257 5.0000 -47.9523
v  842.0234 10.0000 -47.6554
v  843.5427 0.0000 -46.8241
v  842.7831 5.0000 -47.2397
v  843.5427 10.0000 -46.8241
v  844.7856 0.0000 -45.7552
v  844.1641 5.0000 -46.2896
v  844.7856 10.0000 -45.7552
v  845.7524 0.0000 -44.4488
v  845.2690 5.0000 -45.1020
v  845.7524 10.0000 -44.4488
v  846.4429 0.0000 -42.9050
v  846.0977 5.0000 -43.6769
v  846.4429 10.0000 -42.9050
v  846.8573 0.0000 -41.1235
v  846.6501 5.0000 -42.0142
v  846.8573 10.0000 -41.1235
v  846.9954 0.0000 -39.1046
v  846.9263 5.0000 -40.1141
v  846.9954 10.0000 -39.1046
v  846.9954 0.0000 -5.2547
v  846.9954 5.0000 -22.1796
v  846.9954 10.0000 -5.2547
v  856.8163 0.0000 -5.2547
v  851.9058 5.0000 -5.2547
v  856.8163 10.0000 -5.2547
v  856.8163 0.0000 -39.2555
v  856.8163 5.0000 -22.2551
v  856.8163 10.0000 -39.2555
v  856.7441 0.0000 -40.8716
v  856.7802 5.0000 -40.0636
v  856.7441 10.0000 -40.8716
v  856.5275 0.0000 -42.4038
v  856.6358 5.0000 -41.6377
v  856.5275 10.0000 -42.4038
v  856.1664 0.0000 -43.8521
v  856.3469 5.0000 -43.1280
v  856.1664 10.0000 -43.8521
v  855.6610 0.0000 -45.2164
v  855.9137 5.0000 -44.5343
v  855.6610 10.0000 -45.2164
v  855.0111 0.0000 -46.4969
v  855.3361 5.0000 -45.8567
v  855.0111 10.0000 -46.4969
v  854.2169 0.0000 -47.6934
v  854.6140 5.0000 -47.0951
v  854.2169 10.0000 -47.6934
v  853.2781 0.0000 -48.8060
v  853.7475 5.0000 -48.2497
v  853.2781 10.0000 -48.8060
v  852.1951 0.0000 -49.8347
v  852.7366 5.0000 -49.3204
v  852.1951 10.0000 -49.8347
v  850.9675 0.0000 -50.7795
v  851.5813 5.0000 -50.3071
v  850.9675 10.0000 -50.7795
v  849.6224 0.0000 -51.6322
v  850.2950 5.0000 -51.2058
v  849.6224 10.0000 -51.6322
v  848.1865 0.0000 -52.3845
v  848.9044 5.0000 -52.0083
v  848.1865 10.0000 -52.3845
v  846.6597 0.0000 -53.0365
v  847.4231 5.0000 -52.7105
v  846.6597 10.0000 -53.0365
v  845.0421 0.0000 -53.5883
v  845.8510 5.0000 -53.3124
v  845.0421 10.0000 -53.5883
v  843.3338 0.0000 -54.0397
v  844.1879 5.0000 -53.8140
v  843.3338 10.0000 -54.0397
v  841.5346 0.0000 -54.3908
v  842.4342 5.0000 -54.2152
v  841.5346 10.0000 -54.3908
v  839.6446 0.0000 -54.6416
v  840.5896 5.0000 -54.5162
v  839.6446 10.0000 -54.6416
v  837.6638 0.0000 -54.7920
v  838.6542 5.0000 -54.7168
v  837.6638 10.0000 -54.7920
v  835.5922 0.0000 -54.8422
v  836.6280 5.0000 -54.8171
v  835.5922 10.0000 -54.8422
v  832.3644 0.0000 -54.7199
v  833.9783 5.0000 -54.7811
v  832.3644 10.0000 -54.7199
v  829.2988 0.0000 -54.3532
v  830.8316 5.0000 -54.5366
v  829.2988 10.0000 -54.3532
v  826.3954 0.0000 -53.7420
v  827.8471 5.0000 -54.0476
v  826.3954 10.0000 -53.7420
v  823.6542 0.0000 -52.8863
v  825.0248 5.0000 -53.3142
v  823.6542 10.0000 -52.8863
v  821.0751 0.0000 -51.7862
v  822.3647 5.0000 -52.3363
v  821.0751 10.0000 -51.7862
v  818.6583 0.0000 -50.4416
v  819.8667 5.0000 -51.1139
v  818.6583 10.0000 -50.4416
v  816.4036 0.0000 -48.8525
v  817.5309 5.0000 -49.6470
v  816.4036 10.0000 -48.8525
v  814.3111 0.0000 -47.0189
v  815.3574 5.0000 -47.9357
v  814.3111 10.0000 -47.0189
v  812.3807 0.0000 -44.9408
v  813.3459 5.0000 -45.9798
v  812.3807 10.0000 -44.9408
v  813.9914 0.0000 -44.3609
v  813.1860 5.0000 -44.6508
v  813.9914 10.0000 -44.3609
v  815.5139 0.0000 -43.7381
v  814.7526 5.0000 -44.0495
v  815.5139 10.0000 -43.7381
v  816.9482 0.0000 -43.0725
v  816.2311 5.0000 -43.4053
v  816.9482 10.0000 -43.0725
v  818.2944 0.0000 -42.3641
v  817.6213 5.0000 -42.7183
v  818.2944 10.0000 -42.3641
v  819.5526 0.0000 -41.6127
v  818.9235 5.0000 -41.9884
v  819.5526 10.0000 -41.6127
v  820.7225 0.0000 -40.8186
v  820.1375 5.0000 -41.2156
v  820.7225 10.0000 -40.8186
v  821.8043 0.0000 -39.9815
v  821.2634 5.0000 -40.4000
v  821.8043 10.0000 -39.9815
v  822.7979 0.0000 -39.1016
v  822.3011 5.0000 -39.5416
v  822.7979 10.0000 -39.1016
v  823.7035 0.0000 -38.1789
v  823.2507 5.0000 -38.6402
v  823.7035 10.0000 -38.1789
v  823.0390 5.0000 -37.9099
v  828.5104 0.0000 -17.9250
v  829.2203 0.0000 -17.7793
v  828.8654 5.0000 -17.8521
v  829.2203 10.0000 -17.7793
v  828.5104 10.0000 -17.9250
v  829.8356 0.0000 -17.5364
v  829.5280 5.0000 -17.6578
v  829.8356 10.0000 -17.5364
v  830.3563 0.0000 -17.1964
v  830.0959 5.0000 -17.3664
v  830.3563 10.0000 -17.1964
v  830.7823 0.0000 -16.7592
v  830.5693 5.0000 -16.9778
v  830.7823 10.0000 -16.7592
v  831.1136 0.0000 -16.2249
v  830.9479 5.0000 -16.4921
v  831.1136 10.0000 -16.2249
v  831.3502 0.0000 -15.5935
v  831.2319 5.0000 -15.9092
v  831.3502 10.0000 -15.5935
v  831.4922 0.0000 -14.8649
v  831.4212 5.0000 -15.2292
v  831.4922 10.0000 -14.8649
v  831.5396 0.0000 -14.0392
v  831.5159 5.0000 -14.4520
v  831.5396 10.0000 -14.0392
v  831.4922 0.0000 -13.1754
v  831.5159 5.0000 -13.6073
v  831.4922 10.0000 -13.1754
v  831.3502 0.0000 -12.4133
v  831.4212 5.0000 -12.7943
v  831.3502 10.0000 -12.4133
v  831.1136 0.0000 -11.7528
v  831.2319 5.0000 -12.0830
v  831.1136 10.0000 -11.7528
v  830.7823 0.0000 -11.1939
v  830.9479 5.0000 -11.4733
v  830.7823 10.0000 -11.1939
v  830.3563 0.0000 -10.7366
v  830.5693 5.0000 -10.9652
v  830.3563 10.0000 -10.7366
v  829.8356 0.0000 -10.3809
v  830.0959 5.0000 -10.5587
v  829.8356 10.0000 -10.3809
v  829.2203 0.0000 -10.1269
v  829.5280 5.0000 -10.2539
v  829.2203 10.0000 -10.1269
v  828.5104 0.0000 -9.9744
v  828.8654 5.0000 -10.0507
v  828.5104 10.0000 -9.9744
v  827.7058 0.0000 -9.9236
v  828.1081 5.0000 -9.9490
v  827.7058 10.0000 -9.9236
v  826.8885 0.0000 -9.9744
v  827.2971 5.0000 -9.9490
v  826.8885 10.0000 -9.9744
v  826.1674 0.0000 -10.1269
v  826.5279 5.0000 -10.0507
v  826.1674 10.0000 -10.1269
v  825.5424 0.0000 -10.3809
v  825.8549 5.0000 -10.2539
v  825.5424 10.0000 -10.3809
v  825.0135 0.0000 -10.7366
v  825.2780 5.0000 -10.5587
v  825.0135 10.0000 -10.7366
v  824.5809 0.0000 -11.1939
v  824.7972 5.0000 -10.9652
v  824.5809 10.0000 -11.1939
v  824.2443 0.0000 -11.7528
v  824.4126 5.0000 -11.4733
v  824.2443 10.0000 -11.7528
v  824.0039 0.0000 -12.4133
v  824.1241 5.0000 -12.0830
v  824.0039 10.0000 -12.4133
v  823.8597 0.0000 -13.1754
v  823.9318 5.0000 -12.7943
v  823.8597 10.0000 -13.1754
v  823.8116 0.0000 -14.0392
v  823.8357 5.0000 -13.6073
v  823.8116 10.0000 -14.0392
v  823.8597 0.0000 -14.8649
v  823.8357 5.0000 -14.4520
v  823.8597 10.0000 -14.8649
v  824.0039 0.0000 -15.5935
v  823.9318 5.0000 -15.2292
v  824.0039 10.0000 -15.5935
v  824.2443 0.0000 -16.2249
v  824.1241 5.0000 -15.9092
v  824.2443 10.0000 -16.2249
v  824.5809 0.0000 -16.7592
v  824.4126 5.0000 -16.4921
v  824.5809 10.0000 -16.7592
v  825.0135 0.0000 -17.1964
v  824.7972 5.0000 -16.9778
v  825.0135 10.0000 -17.1964
v  825.5424 0.0000 -17.5364
v  825.2780 5.0000 -17.3664
v  825.5424 10.0000 -17.5364
v  826.1674 0.0000 -17.7793
v  825.8549 5.0000 -17.6578
v  826.1674 10.0000 -17.7793
v  826.8885 0.0000 -17.9250
v  826.5279 5.0000 -17.8521
v  826.8885 10.0000 -17.9250
v  827.7058 0.0000 -17.9736
v  827.2971 5.0000 -17.9493
v  827.7058 10.0000 -17.9736
v  828.1081 5.0000 -17.9493
v  851.9058 0.0000 -22.2174
v  813.5611 10.0000 -45.4402
v  852.7881 0.0000 -40.5518
v  852.7777 0.0000 -43.6663
v  850.9403 0.0000 -46.0700
v  849.3958 0.0000 -47.9249
v  847.4210 0.0000 -49.4751
v  845.0909 0.0000 -50.6978
v  842.4324 0.0000 -51.5847
v  839.8909 0.0000 -51.4718
v  837.3731 0.0000 -52.3211
v  834.5084 0.0000 -51.7420
v  833.1542 0.0000 -50.6516
v  831.4962 0.0000 -51.4915
v  830.3484 0.0000 -50.2445
v  828.7670 0.0000 -50.9479
v  826.8131 0.0000 -50.3675
v  826.2961 0.0000 -48.9008
v  824.5491 0.0000 -49.3230
v  818.9819 0.0000 -47.1813
v  833.9804 0.0000 -38.8146
v  813.5611 0.0000 -45.4402
v  833.6351 0.0000 -38.7602
v  833.2872 0.0000 -38.6516
v  832.8765 0.0000 -38.9682
v  832.1602 0.0000 -39.2529
v  831.4260 0.0000 -39.4681
v  830.6739 0.0000 -39.6137
v  827.6992 0.0000 -40.0290
v  827.8550 0.0000 -36.4241
v  824.9323 0.0000 -42.6503
v  822.7040 0.0000 -42.0210
v  821.9534 0.0000 -42.5647
v  821.1440 0.0000 -43.0799
v  820.2759 0.0000 -43.5665
v  819.3491 0.0000 -44.0245
v  827.5006 0.0000 -35.9474
v  827.1760 0.0000 -35.4531
v  826.8919 0.0000 -34.9535
v  824.7043 0.0000 -35.5894
v  823.2693 0.0000 -34.3814
v  822.2339 0.0000 -32.8285
v  822.6351 0.0000 -31.1911
v  822.4179 0.0000 -30.0647
v  822.3093 0.0000 -28.8631
v  824.4811 0.0000 -24.2674
v  823.0272 0.0000 -21.1759
v  822.6425 0.0000 -20.9816
v  822.3220 0.0000 -20.7226
v  822.0656 0.0000 -20.3987
v  821.8733 0.0000 -20.0102
v  821.7451 0.0000 -19.5568
v  819.9806 0.0000 -17.6955
v  820.7492 0.0000 -13.4758
v  821.0300 0.0000 -12.0471
v  821.4754 0.0000 -10.8153
v  822.0853 0.0000 -9.7803
v  822.8596 0.0000 -8.9421
v  823.7983 0.0000 -8.3008
v  824.9016 0.0000 -7.8563
v  826.1693 0.0000 -7.6087
v  827.2563 0.0000 -7.5283
v  828.3043 0.0000 -7.1131
v  829.5441 0.0000 -7.3526
v  830.6981 0.0000 -7.7652
v  831.7662 0.0000 -8.3510
v  832.7217 0.0000 -9.1099
v  833.4899 0.0000 -10.0420
v  834.0439 0.0000 -11.1473
v  833.8566 0.0000 -12.2641
v  834.4880 0.0000 -13.2977
v  833.9944 0.0000 -14.7055
v  833.8318 0.0000 -15.9596
v  833.5065 0.0000 -17.0571
v  833.0187 0.0000 -17.9977
v  832.3682 0.0000 -18.7816
v  831.5552 0.0000 -19.4087
v  830.5795 0.0000 -19.8790
v  829.4412 0.0000 -20.1926
v  828.1403 0.0000 -20.3493
v  827.2623 0.0000 -19.5673
v  826.7495 0.0000 -19.5026
v  815.0550 10.0000 -45.9926
v  820.0716 10.0000 -47.0204
v  820.2759 10.0000 -43.5665
v  824.5491 10.0000 -49.3230
v  826.2961 10.0000 -48.9008
v  826.8131 10.0000 -50.3675
v  828.7670 10.0000 -50.9479
v  830.3484 10.0000 -50.2445
v  831.4962 10.0000 -51.4915
v  833.1542 10.0000 -50.6516
v  834.5084 10.0000 -51.7420
v  837.3731 10.0000 -52.3211
v  839.8909 10.0000 -51.4718
v  842.4324 10.0000 -51.5847
v  845.0909 10.0000 -50.6978
v  847.4210 10.0000 -49.4751
v  849.3958 10.0000 -47.9249
v  850.9403 10.0000 -46.0700
v  852.7777 10.0000 -43.6663
v  852.7881 10.0000 -40.5518
v  851.9058 10.0000 -22.2174
v  821.1440 10.0000 -43.0799
v  821.9534 10.0000 -42.5647
v  822.7040 10.0000 -42.0210
v  824.9323 10.0000 -42.6503
v  827.6992 10.0000 -40.0290
v  824.9625 10.0000 -22.9989
v  830.6739 10.0000 -39.6137
v  831.4260 10.0000 -39.4681
v  832.1602 10.0000 -39.2529
v  832.8765 10.0000 -38.9682
v  833.2872 10.0000 -38.6516
v  833.6351 10.0000 -38.7602
v  833.9804 10.0000 -38.8146
v  827.2623 10.0000 -19.5673
v  822.3093 10.0000 -28.8631
v  822.4179 10.0000 -30.0647
v  822.6351 10.0000 -31.1911
v  822.2339 10.0000 -32.8285
v  823.2693 10.0000 -34.3814
v  824.7043 10.0000 -35.5894
v  826.8919 10.0000 -34.9535
v  827.1760 10.0000 -35.4531
v  827.5006 10.0000 -35.9474
v  827.8550 10.0000 -36.4241
v  828.1403 10.0000 -20.3493
v  829.4412 10.0000 -20.1926
v  830.5795 10.0000 -19.8790
v  831.5552 10.0000 -19.4087
v  832.3682 10.0000 -18.7816
v  833.0187 10.0000 -17.9977
v  833.5065 10.0000 -17.0571
v  833.8318 10.0000 -15.9596
v  833.9944 10.0000 -14.7055
v  834.4880 10.0000 -13.2977
v  833.8566 10.0000 -12.2641
v  834.0439 10.0000 -11.1473
v  833.4899 10.0000 -10.0420
v  832.7217 10.0000 -9.1099
v  831.7662 10.0000 -8.3510
v  830.6981 10.0000 -7.7652
v  829.5441 10.0000 -7.3526
v  828.3043 10.0000 -7.1131
v  827.2563 10.0000 -7.5283
v  826.1693 10.0000 -7.6087
v  824.9016 10.0000 -7.8563
v  823.7983 10.0000 -8.3008
v  822.8596 10.0000 -8.9421
v  822.0853 10.0000 -9.7803
v  821.4754 10.0000 -10.8153
v  821.0300 10.0000 -12.0471
v  820.7492 10.0000 -13.4758
v  819.9806 10.0000 -17.6955
v  821.7451 10.0000 -19.5568
v  821.8733 10.0000 -20.0102
v  822.0656 10.0000 -20.3987
v  822.3220 10.0000 -20.7226
v  822.6425 10.0000 -20.9816
v  823.0272 10.0000 -21.1759
# 662 vertices

vn -0.3176 -0.6916 -0.6487
vn -0.4105 -0.6901 -0.5960
vn -0.5019 0.0000 -0.8650
vn -0.4105 0.6901 -0.5960
vn -0.3176 0.6916 -0.6487
vn -0.5000 -0.6893 -0.5242
vn -0.6292 0.0000 -0.7772
vn -0.5000 0.6893 -0.5242
vn -0.5781 -0.6894 -0.4366
vn -0.7466 0.0000 -0.6652
vn -0.5781 0.6894 -0.4366
vn -0.6386 -0.6903 -0.3401
vn -0.8441 0.0000 -0.5362
vn -0.6386 0.6903 -0.3401
vn -0.6800 -0.6918 -0.2430
vn -0.9160 0.0000 -0.4011
vn -0.6800 0.6918 -0.2430
vn -0.7041 -0.6936 -0.1520
vn -0.9628 0.0000 -0.2703
vn -0.7041 0.6936 -0.1520
vn -0.7150 -0.6955 -0.0711
vn -0.9885 0.0000 -0.1511
vn -0.7150 0.6955 -0.0711
vn -0.7121 -0.7019 -0.0166
vn -0.9989 0.0000 -0.0466
vn -0.7121 0.7019 -0.0166
vn -0.7121 -0.7019 0.0167
vn -1.0000 0.0000 -0.0000
vn -0.7121 0.7019 0.0167
vn -0.7154 -0.6948 0.0736
vn -0.9989 0.0000 0.0468
vn -0.7154 0.6948 0.0736
vn -0.7035 -0.6918 0.1631
vn -0.9875 0.0000 0.1574
vn -0.7035 0.6918 0.1631
vn -0.6728 -0.6883 0.2714
vn -0.9561 0.0000 0.2931
vn -0.6728 0.6883 0.2714
vn -0.6129 -0.6849 0.3939
vn -0.8918 0.0000 0.4524
vn -0.6129 0.6849 0.3939
vn -0.5168 -0.6828 0.5164
vn -0.7820 0.0000 0.6233
vn -0.5168 0.6828 0.5164
vn -0.3891 -0.6828 0.6184
vn -0.6239 0.0000 0.7815
vn -0.3891 0.6828 0.6184
vn -0.2483 -0.6849 0.6850
vn -0.4346 0.0000 0.9006
vn -0.2483 0.6849 0.6850
vn -0.1154 -0.6883 0.7162
vn -0.2434 0.0000 0.9699
vn -0.1154 0.6883 0.7162
vn -0.0145 -0.6953 0.7186
vn -0.0736 0.0000 0.9973
vn -0.0145 0.6953 0.7186
vn 0.0482 -0.6995 0.7130
vn 0.0332 0.0000 0.9994
vn 0.0482 0.6995 0.7130
vn 0.0979 -0.6992 0.7082
vn 0.1016 0.0000 0.9948
vn 0.0979 0.6992 0.7082
vn 0.1486 -0.6990 0.6995
vn 0.1720 0.0000 0.9851
vn 0.1486 0.6990 0.6995
vn 0.1995 -0.6989 0.6869
vn 0.2432 0.0000 0.9700
vn 0.1995 0.6989 0.6869
vn 0.2498 -0.6988 0.6702
vn 0.3142 0.0000 0.9494
vn 0.2498 0.6988 0.6702
vn 0.2986 -0.6989 0.6499
vn 0.3838 0.0000 0.9234
vn 0.2986 0.6989 0.6499
vn 0.3452 -0.6990 0.6262
vn 0.4508 0.0000 0.8926
vn 0.3452 0.6990 0.6262
vn 0.3890 -0.6993 0.5998
vn 0.5142 0.0000 0.8577
vn 0.3890 0.6993 0.5998
vn 0.4365 -0.6973 0.5685
vn 0.5733 0.0000 0.8193
vn 0.4365 0.6973 0.5685
vn 0.4930 -0.6947 0.5238
vn 0.6435 0.0000 0.7655
vn 0.4930 0.6947 0.5238
vn 0.5494 -0.6944 0.4647
vn 0.7251 0.0000 0.6886
vn 0.5494 0.6944 0.4647
vn 0.5992 -0.6944 0.3985
vn 0.7994 0.0000 0.6008
vn 0.5992 0.6944 0.3985
vn 0.6402 -0.6947 0.3278
vn 0.8631 0.0000 0.5050
vn 0.6402 0.6947 0.3278
vn 0.6717 -0.6953 0.2558
vn 0.9142 0.0000 0.4052
vn 0.6717 0.6953 0.2558
vn 0.6936 -0.6961 0.1852
vn 0.9522 0.0000 0.3056
vn 0.6936 0.6961 0.1852
vn 0.7072 -0.6970 0.1183
vn 0.9778 0.0000 0.2097
vn 0.7072 0.6970 0.1183
vn 0.7139 -0.6980 0.0566
vn 0.9928 0.0000 0.1200
vn 0.7139 0.6980 0.0566
vn 0.7180 -0.6960 -0.0088
vn 0.9993 0.0000 0.0380
vn 0.7180 0.6960 -0.0088
vn 0.7162 -0.6909 -0.0982
vn 0.9980 0.0000 -0.0626
vn 0.7162 0.6909 -0.0982
vn 0.6938 -0.6875 -0.2142
vn 0.9780 0.0000 -0.2084
vn 0.6938 0.6875 -0.2142
vn 0.6423 -0.6846 -0.3446
vn 0.9253 0.0000 -0.3792
vn 0.6423 0.6846 -0.3446
vn 0.5556 -0.6831 -0.4741
vn 0.8277 0.0000 -0.5612
vn 0.5556 0.6831 -0.4741
vn 0.4394 -0.6837 -0.5827
vn 0.6844 0.0000 -0.7291
vn 0.4394 0.6837 -0.5827
vn 0.3114 -0.6862 -0.6574
vn 0.5128 0.0000 -0.8585
vn 0.3114 0.6862 -0.6574
vn 0.1904 -0.6895 -0.6988
vn 0.3395 0.0000 -0.9406
vn 0.1904 0.6895 -0.6988
vn 0.0866 -0.6927 -0.7160
vn 0.1845 0.0000 -0.9828
vn 0.0866 0.6927 -0.7160
vn 0.3196 -0.8980 -0.3024
vn 0.0551 0.0000 -0.9985
vn 0.3196 0.8980 -0.3024
vn 0.7027 -0.7114 0.0133
vn 1.0000 0.0000 -0.0000
vn 0.7027 0.7114 0.0133
vn 0.6962 -0.7158 0.0532
vn 0.9993 0.0000 0.0379
vn 0.6962 0.7158 0.0532
vn 0.6901 -0.7159 0.1064
vn 0.9934 0.0000 0.1143
vn 0.6901 0.7159 0.1064
vn 0.6800 -0.7158 0.1588
vn 0.9817 0.0000 0.1902
vn 0.6800 0.7158 0.1588
vn 0.6663 -0.7156 0.2096
vn 0.9644 0.0000 0.2643
vn 0.6663 0.7156 0.2096
vn 0.6494 -0.7153 0.2580
vn 0.9421 0.0000 0.3354
vn 0.6494 0.7153 0.2580
vn 0.6299 -0.7150 0.3034
vn 0.9154 0.0000 0.4025
vn 0.6299 0.7150 0.3034
vn 0.6083 -0.7146 0.3455
vn 0.8854 0.0000 0.4649
vn 0.6083 0.7146 0.3455
vn 0.5852 -0.7142 0.3840
vn 0.8528 0.0000 0.5223
vn 0.5852 0.7142 0.3840
vn 0.5622 -0.7134 0.4183
vn 0.8186 0.0000 0.5744
vn 0.5622 0.7134 0.4183
vn 0.5373 -0.7137 0.4494
vn 0.7854 0.0000 0.6190
vn 0.5373 0.7137 0.4494
vn 0.5070 -0.7148 0.4816
vn 0.7480 0.0000 0.6637
vn 0.5070 0.7148 0.4816
vn 0.4692 -0.7162 0.5166
vn 0.7012 0.0000 0.7129
vn 0.4692 0.7162 0.5166
vn 0.4219 -0.7177 0.5539
vn 0.6423 0.0000 0.7664
vn 0.4219 0.7177 0.5539
vn 0.3630 -0.7195 0.5920
vn 0.5682 0.0000 0.8229
vn 0.3630 0.7195 0.5920
vn 0.2908 -0.7214 0.6285
vn 0.4757 0.0000 0.8796
vn 0.2908 0.7214 0.6285
vn 0.2048 -0.7232 0.6596
vn 0.3626 0.0000 0.9319
vn 0.2048 0.7232 0.6596
vn 0.1063 -0.7246 0.6809
vn 0.2289 0.0000 0.9735
vn 0.1063 0.7246 0.6809
vn 0.7725 -0.5510 0.3155
vn 0.0787 0.0000 0.9969
vn 0.7725 0.5510 0.3155
vn 0.5258 -0.7017 -0.4808
vn 0.7541 0.0000 -0.6568
vn 0.5258 0.7017 -0.4808
vn 0.5016 -0.7015 -0.5062
vn 0.7214 0.0000 -0.6925
vn 0.5016 0.7015 -0.5062
vn 0.4755 -0.7014 -0.5310
vn 0.6859 0.0000 -0.7277
vn 0.4755 0.7014 -0.5310
vn 0.4474 -0.7013 -0.5550
vn 0.6477 0.0000 -0.7619
vn 0.4474 0.7013 -0.5550
vn 0.4176 -0.7012 -0.5779
vn 0.6070 0.0000 -0.7947
vn 0.4176 0.7012 -0.5779
vn 0.3862 -0.7011 -0.5994
vn 0.5640 0.0000 -0.8258
vn 0.3862 0.7011 -0.5994
vn 0.3535 -0.7011 -0.6193
vn 0.5189 0.0000 -0.8548
vn 0.3535 0.7011 -0.6193
vn 0.3196 -0.7011 -0.6374
vn 0.4721 0.0000 -0.8815
vn 0.3196 0.7011 -0.6374
vn 0.3299 -0.9423 -0.0573
vn 0.4241 0.0000 -0.9056
vn 0.3299 0.9423 -0.0573
vn 0.4559 -0.7215 0.5211
vn 0.7045 0.0000 0.7098
vn 0.4559 0.7215 0.5211
vn 0.3893 -0.7208 0.5736
vn 0.6099 0.0000 0.7925
vn 0.3893 0.7208 0.5736
vn 0.3215 -0.7197 0.6153
vn 0.5112 0.0000 0.8594
vn 0.3215 0.7197 0.6153
vn 0.2557 -0.7185 0.6468
vn 0.4135 0.0000 0.9105
vn 0.2557 0.7185 0.6468
vn 0.1938 -0.7173 0.6693
vn 0.3207 0.0000 0.9472
vn 0.1938 0.7173 0.6693
vn 0.1372 -0.7161 0.6844
vn 0.2351 0.0000 0.9720
vn 0.1372 0.7161 0.6844
vn 0.0862 -0.7150 0.6938
vn 0.1577 0.0000 0.9875
vn 0.0862 0.7150 0.6938
vn 0.0408 -0.7140 0.6989
vn 0.0887 0.0000 0.9961
vn 0.0408 0.7140 0.6989
vn -0.0080 -0.7160 0.6980
vn 0.0277 0.0000 0.9996
vn -0.0080 0.7160 0.6980
vn -0.0764 -0.7208 0.6889
vn -0.0505 0.0000 0.9987
vn -0.0764 0.7208 0.6889
vn -0.1672 -0.7243 0.6690
vn -0.1695 0.0000 0.9855
vn -0.1672 0.7243 0.6690
vn -0.2733 -0.7281 0.6287
vn -0.3140 0.0000 0.9494
vn -0.2733 0.7281 0.6287
vn -0.3881 -0.7314 0.5607
vn -0.4800 0.0000 0.8772
vn -0.3881 0.7314 0.5607
vn -0.4982 -0.7331 0.4630
vn -0.6520 0.0000 0.7582
vn -0.4982 0.7331 0.4630
vn -0.5880 -0.7323 0.3436
vn -0.8038 0.0000 0.5949
vn -0.5880 0.7323 0.3436
vn -0.6484 -0.7293 0.2182
vn -0.9128 0.0000 0.4083
vn -0.6484 0.7293 0.2182
vn -0.6806 -0.7256 0.1018
vn -0.9740 0.0000 0.2265
vn -0.6806 0.7256 0.1018
vn -0.6988 -0.7149 0.0239
vn -0.9977 0.0000 0.0682
vn -0.6988 0.7149 0.0239
vn -0.5774 -0.5774 0.5774
vn -0.5774 0.5774 0.5774
vn 0.5774 -0.5774 0.5774
vn 0.0000 0.0000 1.0000
vn 0.5774 0.5774 0.5774
vn 0.7119 -0.7021 -0.0159
vn 0.7119 0.7021 -0.0159
vn 0.7145 -0.6965 -0.0663
vn 0.9990 0.0000 -0.0446
vn 0.7145 0.6965 -0.0663
vn 0.7052 -0.6956 -0.1374
vn 0.9902 0.0000 -0.1400
vn 0.7052 0.6956 -0.1374
vn 0.6871 -0.6949 -0.2122
vn 0.9703 0.0000 -0.2419
vn 0.6871 0.6949 -0.2122
vn 0.6593 -0.6944 -0.2883
vn 0.9377 0.0000 -0.3474
vn 0.6593 0.6944 -0.2883
vn 0.6218 -0.6942 -0.3625
vn 0.8917 0.0000 -0.4526
vn 0.6218 0.6942 -0.3625
vn 0.5757 -0.6944 -0.4317
vn 0.8331 0.0000 -0.5531
vn 0.5757 0.6944 -0.4317
vn 0.5232 -0.6949 -0.4933
vn 0.7643 0.0000 -0.6448
vn 0.5232 0.6949 -0.4933
vn 0.4671 -0.6956 -0.5458
vn 0.6887 0.0000 -0.7251
vn 0.4671 0.6956 -0.5458
vn 0.4111 -0.6970 -0.5875
vn 0.6099 0.0000 -0.7925
vn 0.4111 0.6970 -0.5875
vn 0.3582 -0.6980 -0.6201
vn 0.5354 0.0000 -0.8446
vn 0.3582 0.6980 -0.6201
vn 0.3069 -0.6983 -0.6466
vn 0.4641 0.0000 -0.8858
vn 0.3069 0.6983 -0.6466
vn 0.2561 -0.6988 -0.6679
vn 0.3928 0.0000 -0.9196
vn 0.2561 0.6988 -0.6679
vn 0.2068 -0.6993 -0.6843
vn 0.3228 0.0000 -0.9465
vn 0.2068 0.6993 -0.6843
vn 0.1597 -0.6998 -0.6963
vn 0.2555 0.0000 -0.9668
vn 0.1597 0.6998 -0.6963
vn 0.1154 -0.7003 -0.7044
vn 0.1915 0.0000 -0.9815
vn 0.1154 0.7003 -0.7044
vn 0.0740 -0.7008 -0.7095
vn 0.1315 0.0000 -0.9913
vn 0.0740 0.7008 -0.7095
vn 0.0356 -0.7013 -0.7119
vn 0.0757 0.0000 -0.9971
vn 0.0356 0.7013 -0.7119
vn -0.0049 -0.7002 -0.7139
vn 0.0242 0.0000 -0.9997
vn -0.0049 0.7002 -0.7139
vn -0.0561 -0.6981 -0.7138
vn -0.0378 0.0000 -0.9993
vn -0.0561 0.6981 -0.7138
vn -0.1165 -0.6973 -0.7073
vn -0.1188 0.0000 -0.9929
vn -0.1165 0.6973 -0.7073
vn -0.1810 -0.6966 -0.6943
vn -0.2060 0.0000 -0.9786
vn -0.1810 0.6966 -0.6943
vn -0.2482 -0.6960 -0.6738
vn -0.2980 0.0000 -0.9546
vn -0.2482 0.6960 -0.6738
vn -0.3160 -0.6955 -0.6452
vn -0.3924 0.0000 -0.9198
vn -0.3160 0.6955 -0.6452
vn -0.3823 -0.6954 -0.6086
vn -0.4862 0.0000 -0.8739
vn -0.3823 0.6954 -0.6086
vn -0.4444 -0.6954 -0.5647
vn -0.5761 0.0000 -0.8174
vn -0.4444 0.6954 -0.5647
vn -0.5005 -0.6957 -0.5152
vn -0.6590 0.0000 -0.7521
vn -0.5005 0.6957 -0.5152
vn -0.8057 -0.5591 0.1957
vn -0.7327 0.0000 -0.6806
vn -0.8057 0.5591 0.1957
vn -0.2519 -0.7119 0.6555
vn -0.3388 0.0000 0.9409
vn -0.2519 0.7119 0.6555
vn -0.2806 -0.7123 0.6433
vn -0.3786 0.0000 0.9256
vn -0.2806 0.7123 0.6433
vn -0.3110 -0.7128 0.6287
vn -0.4209 0.0000 0.9071
vn -0.3110 0.7128 0.6287
vn -0.3430 -0.7132 0.6113
vn -0.4657 0.0000 0.8849
vn -0.3430 0.7132 0.6113
vn -0.3764 -0.7137 0.5907
vn -0.5127 0.0000 0.8586
vn -0.3764 0.7137 0.5907
vn -0.4109 -0.7142 0.5666
vn -0.5616 0.0000 0.8274
vn -0.4109 0.7142 0.5666
vn -0.4461 -0.7146 0.5388
vn -0.6120 0.0000 0.7909
vn -0.4461 0.7146 0.5388
vn -0.4815 -0.7151 0.5068
vn -0.6630 0.0000 0.7487
vn -0.4815 0.7151 0.5068
vn -0.3171 -0.9461 -0.0660
vn -0.7137 0.0000 0.7004
vn -0.3171 0.9461 -0.0660
vn -0.3752 0.0000 -0.9269
vn -0.0904 -0.7234 0.6844
vn -0.1958 -0.7271 0.6580
vn -0.2011 0.0000 0.9796
vn -0.1958 0.7271 0.6580
vn -0.0904 0.7234 0.6844
vn -0.3136 -0.7306 0.6065
vn -0.3671 0.0000 0.9302
vn -0.3136 0.7306 0.6065
vn -0.4324 -0.7326 0.5256
vn -0.5468 0.0000 0.8373
vn -0.4324 0.7326 0.5256
vn -0.5364 -0.7324 0.4195
vn -0.7162 0.0000 0.6979
vn -0.5364 0.7324 0.4195
vn -0.6135 -0.7299 0.3015
vn -0.8499 0.0000 0.5270
vn -0.6135 0.7299 0.3015
vn -0.6615 -0.7263 0.1870
vn -0.9364 0.0000 0.3509
vn -0.6615 0.7263 0.1870
vn -0.6858 -0.7226 0.0861
vn -0.9815 0.0000 0.1913
vn -0.6858 0.7226 0.0861
vn -0.6941 -0.7199 0.0009
vn -0.9984 0.0000 0.0572
vn -0.6941 0.7199 0.0009
vn -0.6870 -0.7220 -0.0825
vn -0.9985 0.0000 -0.0547
vn -0.6870 0.7220 -0.0825
vn -0.6643 -0.7255 -0.1797
vn -0.9831 0.0000 -0.1832
vn -0.6643 0.7255 -0.1797
vn -0.6192 -0.7292 -0.2912
vn -0.9414 0.0000 -0.3373
vn -0.6192 0.7292 -0.2912
vn -0.5454 -0.7321 -0.4082
vn -0.8602 0.0000 -0.5099
vn -0.5454 0.7321 -0.4082
vn -0.4435 -0.7329 -0.5159
vn -0.7317 0.0000 -0.6816
vn -0.4435 0.7329 -0.5159
vn -0.3243 -0.7312 -0.6001
vn -0.5641 0.0000 -0.8257
vn -0.3243 0.7312 -0.6001
vn -0.2036 -0.7279 -0.6547
vn -0.3816 0.0000 -0.9243
vn -0.2036 0.7279 -0.6547
vn -0.0944 -0.7242 -0.6831
vn -0.2099 0.0000 -0.9777
vn -0.0944 0.7242 -0.6831
vn -0.0003 -0.7215 -0.6925
vn -0.0630 0.0000 -0.9980
vn -0.0003 0.7215 -0.6925
vn 0.0930 -0.7239 -0.6836
vn 0.0620 0.0000 -0.9981
vn 0.0930 0.7239 -0.6836
vn 0.2009 -0.7276 -0.6559
vn 0.2068 0.0000 -0.9784
vn 0.2009 0.7276 -0.6559
vn 0.3206 -0.7310 -0.6024
vn 0.3766 0.0000 -0.9264
vn 0.3206 0.7310 -0.6024
vn 0.4397 -0.7328 -0.5193
vn 0.5581 0.0000 -0.8298
vn 0.4397 0.7328 -0.5193
vn 0.5423 -0.7322 -0.4121
vn 0.7264 0.0000 -0.6873
vn 0.5423 0.7322 -0.4121
vn 0.6173 -0.7294 -0.2948
vn 0.8567 0.0000 -0.5158
vn 0.6173 0.7294 -0.2948
vn 0.6634 -0.7258 -0.1822
vn 0.9397 0.0000 -0.3420
vn 0.6634 0.7258 -0.1822
vn 0.6866 -0.7222 -0.0837
vn 0.9826 0.0000 -0.1859
vn 0.6866 0.7222 -0.0837
vn 0.6938 -0.7201 0.0009
vn 0.9985 0.0000 -0.0556
vn 0.6938 0.7201 0.0009
vn 0.6854 -0.7229 0.0874
vn 0.9983 0.0000 0.0581
vn 0.6854 0.7229 0.0874
vn 0.6605 -0.7265 0.1896
vn 0.9810 0.0000 0.1942
vn 0.6605 0.7265 0.1896
vn 0.6114 -0.7301 0.3052
vn 0.9346 0.0000 0.3558
vn 0.6114 0.7301 0.3052
vn 0.5331 -0.7325 0.4234
vn 0.8461 0.0000 0.5330
vn 0.5331 0.7325 0.4234
vn 0.4285 -0.7326 0.5289
vn 0.7107 0.0000 0.7035
vn 0.4285 0.7326 0.5289
vn 0.3100 -0.7304 0.6087
vn 0.5408 0.0000 0.8411
vn 0.3100 0.7304 0.6087
vn 0.1931 -0.7269 0.6591
vn 0.3622 0.0000 0.9321
vn 0.1931 0.7269 0.6591
vn 0.0891 -0.7232 0.6849
vn 0.1981 0.0000 0.9802
vn 0.0891 0.7232 0.6849
vn -0.0003 -0.7208 0.6931
vn 0.0593 0.0000 0.9982
vn -0.0003 0.7208 0.6931
vn -0.0603 0.0000 0.9982
vn 0.0000 -1.0000 -0.0000
vn 0.0000 1.0000 -0.0000
# 501 vertex normals

o To_Tung
g To_Tung
s 1
f 1//1 2//2 3//3 
f 2//2 4//4 3//3 
f 4//4 5//5 3//3 
f 5//5 1//1 3//3 
s 3
f 2//2 6//6 7//7 
f 6//6 8//8 7//7 
f 8//8 4//4 7//7 
f 4//4 2//2 7//7 
s 2
f 6//6 9//9 10//10 
f 9//9 11//11 10//10 
f 11//11 8//8 10//10 
f 8//8 6//6 10//10 
f 9//9 12//12 13//13 
f 12//12 14//14 13//13 
f 14//14 11//11 13//13 
f 11//11 9//9 13//13 
f 12//12 15//15 16//16 
f 15//15 17//17 16//16 
f 17//17 14//14 16//16 
f 14//14 12//12 16//16 
f 15//15 18//18 19//19 
f 18//18 20//20 19//19 
f 20//20 17//17 19//19 
f 17//17 15//15 19//19 
f 18//18 21//21 22//22 
f 21//21 23//23 22//22 
f 23//23 20//20 22//22 
f 20//20 18//18 22//22 
f 21//21 24//24 25//25 
f 24//24 26//26 25//25 
f 26//26 23//23 25//25 
f 23//23 21//21 25//25 
s 4
f 24//24 27//27 28//28 
f 27//27 29//29 28//28 
f 29//29 26//26 28//28 
f 26//26 24//24 28//28 
s 2
f 27//27 30//30 31//31 
f 30//30 32//32 31//31 
f 32//32 29//29 31//31 
f 29//29 27//27 31//31 
f 30//30 33//33 34//34 
f 33//33 35//35 34//34 
f 35//35 32//32 34//34 
f 32//32 30//30 34//34 
f 33//33 36//36 37//37 
f 36//36 38//38 37//37 
f 38//38 35//35 37//37 
f 35//35 33//33 37//37 
f 36//36 39//39 40//40 
f 39//39 41//41 40//40 
f 41//41 38//38 40//40 
f 38//38 36//36 40//40 
f 39//39 42//42 43//43 
f 42//42 44//44 43//43 
f 44//44 41//41 43//43 
f 41//41 39//39 43//43 
f 42//42 45//45 46//46 
f 45//45 47//47 46//46 
f 47//47 44//44 46//46 
f 44//44 42//42 46//46 
f 45//45 48//48 49//49 
f 48//48 50//50 49//49 
f 50//50 47//47 49//49 
f 47//47 45//45 49//49 
f 48//48 51//51 52//52 
f 51//51 53//53 52//52 
f 53//53 50//50 52//52 
f 50//50 48//48 52//52 
f 51//51 54//54 55//55 
f 54//54 56//56 55//55 
f 56//56 53//53 55//55 
f 53//53 51//51 55//55 
f 54//54 57//57 58//58 
f 57//57 59//59 58//58 
f 59//59 56//56 58//58 
f 56//56 54//54 58//58 
f 57//57 60//60 61//61 
f 60//60 62//62 61//61 
f 62//62 59//59 61//61 
f 59//59 57//57 61//61 
f 60//60 63//63 64//64 
f 63//63 65//65 64//64 
f 65//65 62//62 64//64 
f 62//62 60//60 64//64 
f 63//63 66//66 67//67 
f 66//66 68//68 67//67 
f 68//68 65//65 67//67 
f 65//65 63//63 67//67 
f 66//66 69//69 70//70 
f 69//69 71//71 70//70 
f 71//71 68//68 70//70 
f 68//68 66//66 70//70 
f 69//69 72//72 73//73 
f 72//72 74//74 73//73 
f 74//74 71//71 73//73 
f 71//71 69//69 73//73 
f 72//72 75//75 76//76 
f 75//75 77//77 76//76 
f 77//77 74//74 76//76 
f 74//74 72//72 76//76 
f 75//75 78//78 79//79 
f 78//78 80//80 79//79 
f 80//80 77//77 79//79 
f 77//77 75//75 79//79 
f 78//78 81//81 82//82 
f 81//81 83//83 82//82 
f 83//83 80//80 82//82 
f 80//80 78//78 82//82 
f 81//81 84//84 85//85 
f 84//84 86//86 85//85 
f 86//86 83//83 85//85 
f 83//83 81//81 85//85 
f 84//84 87//87 88//88 
f 87//87 89//89 88//88 
f 89//89 86//86 88//88 
f 86//86 84//84 88//88 
f 87//87 90//90 91//91 
f 90//90 92//92 91//91 
f 92//92 89//89 91//91 
f 89//89 87//87 91//91 
f 90//90 93//93 94//94 
f 93//93 95//95 94//94 
f 95//95 92//92 94//94 
f 92//92 90//90 94//94 
f 93//93 96//96 97//97 
f 96//96 98//98 97//97 
f 98//98 95//95 97//97 
f 95//95 93//93 97//97 
f 96//96 99//99 100//100 
f 99//99 101//101 100//100 
f 101//101 98//98 100//100 
f 98//98 96//96 100//100 
f 99//99 102//102 103//103 
f 102//102 104//104 103//103 
f 104//104 101//101 103//103 
f 101//101 99//99 103//103 
f 102//102 105//105 106//106 
f 105//105 107//107 106//106 
f 107//107 104//104 106//106 
f 104//104 102//102 106//106 
f 105//105 108//108 109//109 
f 108//108 110//110 109//109 
f 110//110 107//107 109//109 
f 107//107 105//105 109//109 
f 108//108 111//111 112//112 
f 111//111 113//113 112//112 
f 113//113 110//110 112//112 
f 110//110 108//108 112//112 
f 111//111 114//114 115//115 
f 114//114 116//116 115//115 
f 116//116 113//113 115//115 
f 113//113 111//111 115//115 
f 114//114 117//117 118//118 
f 117//117 119//119 118//118 
f 119//119 116//116 118//118 
f 116//116 114//114 118//118 
f 117//117 120//120 121//121 
f 120//120 122//122 121//121 
f 122//122 119//119 121//121 
f 119//119 117//117 121//121 
f 120//120 123//123 124//124 
f 123//123 125//125 124//124 
f 125//125 122//122 124//124 
f 122//122 120//120 124//124 
f 123//123 126//126 127//127 
f 126//126 128//128 127//127 
f 128//128 125//125 127//127 
f 125//125 123//123 127//127 
f 126//126 129//129 130//130 
f 129//129 131//131 130//130 
f 131//131 128//128 130//130 
f 128//128 126//126 130//130 
f 129//129 132//132 133//133 
f 132//132 134//134 133//133 
f 134//134 131//131 133//133 
f 131//131 129//129 133//133 
f 132//132 135//135 136//136 
f 135//135 137//137 136//136 
f 137//137 134//134 136//136 
f 134//134 132//132 136//136 
s 4
f 135//135 138//138 139//139 
f 138//138 140//140 139//139 
f 140//140 137//137 139//139 
f 137//137 135//135 139//139 
s 2
f 138//138 141//141 142//142 
f 141//141 143//143 142//142 
f 143//143 140//140 142//142 
f 140//140 138//138 142//142 
f 141//141 144//144 145//145 
f 144//144 146//146 145//145 
f 146//146 143//143 145//145 
f 143//143 141//141 145//145 
f 144//144 147//147 148//148 
f 147//147 149//149 148//148 
f 149//149 146//146 148//148 
f 146//146 144//144 148//148 
f 147//147 150//150 151//151 
f 150//150 152//152 151//151 
f 152//152 149//149 151//151 
f 149//149 147//147 151//151 
f 150//150 153//153 154//154 
f 153//153 155//155 154//154 
f 155//155 152//152 154//154 
f 152//152 150//150 154//154 
f 153//153 156//156 157//157 
f 156//156 158//158 157//157 
f 158//158 155//155 157//157 
f 155//155 153//153 157//157 
f 156//156 159//159 160//160 
f 159//159 161//161 160//160 
f 161//161 158//158 160//160 
f 158//158 156//156 160//160 
f 159//159 162//162 163//163 
f 162//162 164//164 163//163 
f 164//164 161//161 163//163 
f 161//161 159//159 163//163 
f 162//162 165//165 166//166 
f 165//165 167//167 166//166 
f 167//167 164//164 166//166 
f 164//164 162//162 166//166 
f 165//165 168//168 169//169 
f 168//168 170//170 169//169 
f 170//170 167//167 169//169 
f 167//167 165//165 169//169 
f 168//168 171//171 172//172 
f 171//171 173//173 172//172 
f 173//173 170//170 172//172 
f 170//170 168//168 172//172 
f 171//171 174//174 175//175 
f 174//174 176//176 175//175 
f 176//176 173//173 175//175 
f 173//173 171//171 175//175 
f 174//174 177//177 178//178 
f 177//177 179//179 178//178 
f 179//179 176//176 178//178 
f 176//176 174//174 178//178 
f 177//177 180//180 181//181 
f 180//180 182//182 181//181 
f 182//182 179//179 181//181 
f 179//179 177//177 181//181 
f 180//180 183//183 184//184 
f 183//183 185//185 184//184 
f 185//185 182//182 184//184 
f 182//182 180//180 184//184 
f 183//183 186//186 187//187 
f 186//186 188//188 187//187 
f 188//188 185//185 187//187 
f 185//185 183//183 187//187 
f 186//186 189//189 190//190 
f 189//189 191//191 190//190 
f 191//191 188//188 190//190 
f 188//188 186//186 190//190 
f 189//189 192//192 193//193 
f 192//192 194//194 193//193 
f 194//194 191//191 193//193 
f 191//191 189//189 193//193 
s 4
f 192//192 195//195 196//196 
f 195//195 197//197 196//196 
f 197//197 194//194 196//196 
f 194//194 192//192 196//196 
f 195//195 198//198 199//199 
f 198//198 200//200 199//199 
f 200//200 197//197 199//199 
f 197//197 195//195 199//199 
f 198//198 201//201 202//202 
f 201//201 203//203 202//202 
f 203//203 200//200 202//202 
f 200//200 198//198 202//202 
f 201//201 204//204 205//205 
f 204//204 206//206 205//205 
f 206//206 203//203 205//205 
f 203//203 201//201 205//205 
f 204//204 207//207 208//208 
f 207//207 209//209 208//208 
f 209//209 206//206 208//208 
f 206//206 204//204 208//208 
f 207//207 210//210 211//211 
f 210//210 212//212 211//211 
f 212//212 209//209 211//211 
f 209//209 207//207 211//211 
f 210//210 213//213 214//214 
f 213//213 215//215 214//214 
f 215//215 212//212 214//214 
f 212//212 210//210 214//214 
f 213//213 216//216 217//217 
f 216//216 218//218 217//217 
f 218//218 215//215 217//217 
f 215//215 213//213 217//217 
f 216//216 219//219 220//220 
f 219//219 221//221 220//220 
f 221//221 218//218 220//220 
f 218//218 216//216 220//220 
s 2
f 219//219 222//222 223//223 
f 222//222 224//224 223//223 
f 224//224 221//221 223//223 
f 221//221 219//219 223//223 
f 222//222 225//225 226//226 
f 225//225 227//227 226//226 
f 227//227 224//224 226//226 
f 224//224 222//222 226//226 
f 225//225 228//228 229//229 
f 228//228 230//230 229//229 
f 230//230 227//227 229//229 
f 227//227 225//225 229//229 
f 228//228 231//231 232//232 
f 231//231 233//233 232//232 
f 233//233 230//230 232//232 
f 230//230 228//228 232//232 
f 231//231 234//234 235//235 
f 234//234 236//236 235//235 
f 236//236 233//233 235//235 
f 233//233 231//231 235//235 
f 234//234 237//237 238//238 
f 237//237 239//239 238//238 
f 239//239 236//236 238//238 
f 236//236 234//234 238//238 
f 237//237 240//240 241//241 
f 240//240 242//242 241//241 
f 242//242 239//239 241//241 
f 239//239 237//237 241//241 
f 240//240 243//243 244//244 
f 243//243 245//245 244//244 
f 245//245 242//242 244//244 
f 242//242 240//240 244//244 
f 243//243 246//246 247//247 
f 246//246 248//248 247//247 
f 248//248 245//245 247//247 
f 245//245 243//243 247//247 
f 246//246 249//249 250//250 
f 249//249 251//251 250//250 
f 251//251 248//248 250//250 
f 248//248 246//246 250//250 
f 249//249 252//252 253//253 
f 252//252 254//254 253//253 
f 254//254 251//251 253//253 
f 251//251 249//249 253//253 
f 252//252 255//255 256//256 
f 255//255 257//257 256//256 
f 257//257 254//254 256//256 
f 254//254 252//252 256//256 
f 255//255 258//258 259//259 
f 258//258 260//260 259//259 
f 260//260 257//257 259//259 
f 257//257 255//255 259//259 
f 258//258 261//261 262//262 
f 261//261 263//263 262//262 
f 263//263 260//260 262//262 
f 260//260 258//258 262//262 
f 261//261 264//264 265//265 
f 264//264 266//266 265//265 
f 266//266 263//263 265//265 
f 263//263 261//261 265//265 
f 264//264 267//267 268//268 
f 267//267 269//269 268//268 
f 269//269 266//266 268//268 
f 266//266 264//264 268//268 
f 267//267 270//270 271//271 
f 270//270 272//272 271//271 
f 272//272 269//269 271//271 
f 269//269 267//267 271//271 
f 270//270 273//273 274//274 
f 273//273 275//275 274//274 
f 275//275 272//272 274//274 
f 272//272 270//270 274//274 
s 4
f 273//273 276//276 277//28 
f 276//276 278//277 277//28 
f 278//277 275//275 277//28 
f 275//275 273//273 277//28 
s 2
f 276//276 279//278 280//279 
f 279//278 281//280 280//279 
f 281//280 278//277 280//279 
f 278//277 276//276 280//279 
s 4
f 279//278 282//281 283//139 
f 282//281 284//282 283//139 
f 284//282 281//280 283//139 
f 281//280 279//278 283//139 
s 2
f 282//281 285//283 286//284 
f 285//283 287//285 286//284 
f 287//285 284//282 286//284 
f 284//282 282//281 286//284 
f 285//283 288//286 289//287 
f 288//286 290//288 289//287 
f 290//288 287//285 289//287 
f 287//285 285//283 289//287 
f 288//286 291//289 292//290 
f 291//289 293//291 292//290 
f 293//291 290//288 292//290 
f 290//288 288//286 292//290 
f 291//289 294//292 295//293 
f 294//292 296//294 295//293 
f 296//294 293//291 295//293 
f 293//291 291//289 295//293 
f 294//292 297//295 298//296 
f 297//295 299//297 298//296 
f 299//297 296//294 298//296 
f 296//294 294//292 298//296 
f 297//295 300//298 301//299 
f 300//298 302//300 301//299 
f 302//300 299//297 301//299 
f 299//297 297//295 301//299 
f 300//298 303//301 304//302 
f 303//301 305//303 304//302 
f 305//303 302//300 304//302 
f 302//300 300//298 304//302 
f 303//301 306//304 307//305 
f 306//304 308//306 307//305 
f 308//306 305//303 307//305 
f 305//303 303//301 307//305 
f 306//304 309//307 310//308 
f 309//307 311//309 310//308 
f 311//309 308//306 310//308 
f 308//306 306//304 310//308 
f 309//307 312//310 313//311 
f 312//310 314//312 313//311 
f 314//312 311//309 313//311 
f 311//309 309//307 313//311 
f 312//310 315//313 316//314 
f 315//313 317//315 316//314 
f 317//315 314//312 316//314 
f 314//312 312//310 316//314 
f 315//313 318//316 319//317 
f 318//316 320//318 319//317 
f 320//318 317//315 319//317 
f 317//315 315//313 319//317 
f 318//316 321//319 322//320 
f 321//319 323//321 322//320 
f 323//321 320//318 322//320 
f 320//318 318//316 322//320 
f 321//319 324//322 325//323 
f 324//322 326//324 325//323 
f 326//324 323//321 325//323 
f 323//321 321//319 325//323 
f 324//322 327//325 328//326 
f 327//325 329//327 328//326 
f 329//327 326//324 328//326 
f 326//324 324//322 328//326 
f 327//325 330//328 331//329 
f 330//328 332//330 331//329 
f 332//330 329//327 331//329 
f 329//327 327//325 331//329 
f 330//328 333//331 334//332 
f 333//331 335//333 334//332 
f 335//333 332//330 334//332 
f 332//330 330//328 334//332 
f 333//331 336//334 337//335 
f 336//334 338//336 337//335 
f 338//336 335//333 337//335 
f 335//333 333//331 337//335 
f 336//334 339//337 340//338 
f 339//337 341//339 340//338 
f 341//339 338//336 340//338 
f 338//336 336//334 340//338 
f 339//337 342//340 343//341 
f 342//340 344//342 343//341 
f 344//342 341//339 343//341 
f 341//339 339//337 343//341 
f 342//340 345//343 346//344 
f 345//343 347//345 346//344 
f 347//345 344//342 346//344 
f 344//342 342//340 346//344 
f 345//343 348//346 349//347 
f 348//346 350//348 349//347 
f 350//348 347//345 349//347 
f 347//345 345//343 349//347 
f 348//346 351//349 352//350 
f 351//349 353//351 352//350 
f 353//351 350//348 352//350 
f 350//348 348//346 352//350 
f 351//349 354//352 355//353 
f 354//352 356//354 355//353 
f 356//354 353//351 355//353 
f 353//351 351//349 355//353 
f 354//352 357//355 358//356 
f 357//355 359//357 358//356 
f 359//357 356//354 358//356 
f 356//354 354//352 358//356 
f 357//355 360//358 361//359 
f 360//358 362//360 361//359 
f 362//360 359//357 361//359 
f 359//357 357//355 361//359 
f 360//358 363//361 364//362 
f 363//361 365//363 364//362 
f 365//363 362//360 364//362 
f 362//360 360//358 364//362 
s 4
f 363//361 366//364 367//365 
f 366//364 368//366 367//365 
f 368//366 365//363 367//365 
f 365//363 363//361 367//365 
f 366//364 369//367 370//368 
f 369//367 371//369 370//368 
f 371//369 368//366 370//368 
f 368//366 366//364 370//368 
f 369//367 372//370 373//371 
f 372//370 374//372 373//371 
f 374//372 371//369 373//371 
f 371//369 369//367 373//371 
f 372//370 375//373 376//374 
f 375//373 377//375 376//374 
f 377//375 374//372 376//374 
f 374//372 372//370 376//374 
f 375//373 378//376 379//377 
f 378//376 380//378 379//377 
f 380//378 377//375 379//377 
f 377//375 375//373 379//377 
f 378//376 381//379 382//380 
f 381//379 383//381 382//380 
f 383//381 380//378 382//380 
f 380//378 378//376 382//380 
f 381//379 384//382 385//383 
f 384//382 386//384 385//383 
f 386//384 383//381 385//383 
f 383//381 381//379 385//383 
f 384//382 387//385 388//386 
f 387//385 389//387 388//386 
f 389//387 386//384 388//386 
f 386//384 384//382 388//386 
f 387//385 390//388 391//389 
f 390//388 392//390 391//389 
f 392//390 389//387 391//389 
f 389//387 387//385 391//389 
s 3
f 390//388 1//1 393//391 
f 1//1 5//5 393//391 
f 5//5 392//390 393//391 
f 392//390 390//388 393//391 
s 1
f 394//392 395//393 396//394 
f 395//393 397//395 396//394 
f 397//395 398//396 396//394 
f 398//396 394//392 396//394 
s 3
f 395//393 399//397 400//398 
f 399//397 401//399 400//398 
f 401//399 397//395 400//398 
f 397//395 395//393 400//398 
s 2
f 399//397 402//400 403//401 
f 402//400 404//402 403//401 
f 404//402 401//399 403//401 
f 401//399 399//397 403//401 
f 402//400 405//403 406//404 
f 405//403 407//405 406//404 
f 407//405 404//402 406//404 
f 404//402 402//400 406//404 
f 405//403 408//406 409//407 
f 408//406 410//408 409//407 
f 410//408 407//405 409//407 
f 407//405 405//403 409//407 
f 408//406 411//409 412//410 
f 411//409 413//411 412//410 
f 413//411 410//408 412//410 
f 410//408 408//406 412//410 
f 411//409 414//412 415//413 
f 414//412 416//414 415//413 
f 416//414 413//411 415//413 
f 413//411 411//409 415//413 
f 414//412 417//415 418//416 
f 417//415 419//417 418//416 
f 419//417 416//414 418//416 
f 416//414 414//412 418//416 
f 417//415 420//418 421//419 
f 420//418 422//420 421//419 
f 422//420 419//417 421//419 
f 419//417 417//415 421//419 
f 420//418 423//421 424//422 
f 423//421 425//423 424//422 
f 425//423 422//420 424//422 
f 422//420 420//418 424//422 
f 423//421 426//424 427//425 
f 426//424 428//426 427//425 
f 428//426 425//423 427//425 
f 425//423 423//421 427//425 
f 426//424 429//427 430//428 
f 429//427 431//429 430//428 
f 431//429 428//426 430//428 
f 428//426 426//424 430//428 
f 429//427 432//430 433//431 
f 432//430 434//432 433//431 
f 434//432 431//429 433//431 
f 431//429 429//427 433//431 
f 432//430 435//433 436//434 
f 435//433 437//435 436//434 
f 437//435 434//432 436//434 
f 434//432 432//430 436//434 
f 435//433 438//436 439//437 
f 438//436 440//438 439//437 
f 440//438 437//435 439//437 
f 437//435 435//433 439//437 
f 438//436 441//439 442//440 
f 441//439 443//441 442//440 
f 443//441 440//438 442//440 
f 440//438 438//436 442//440 
f 441//439 444//442 445//443 
f 444//442 446//444 445//443 
f 446//444 443//441 445//443 
f 443//441 441//439 445//443 
f 444//442 447//445 448//446 
f 447//445 449//447 448//446 
f 449//447 446//444 448//446 
f 446//444 444//442 448//446 
f 447//445 450//448 451//449 
f 450//448 452//450 451//449 
f 452//450 449//447 451//449 
f 449//447 447//445 451//449 
f 450//448 453//451 454//452 
f 453//451 455//453 454//452 
f 455//453 452//450 454//452 
f 452//450 450//448 454//452 
f 453//451 456//454 457//455 
f 456//454 458//456 457//455 
f 458//456 455//453 457//455 
f 455//453 453//451 457//455 
f 456//454 459//457 460//458 
f 459//457 461//459 460//458 
f 461//459 458//456 460//458 
f 458//456 456//454 460//458 
f 459//457 462//460 463//461 
f 462//460 464//462 463//461 
f 464//462 461//459 463//461 
f 461//459 459//457 463//461 
f 462//460 465//463 466//464 
f 465//463 467//465 466//464 
f 467//465 464//462 466//464 
f 464//462 462//460 466//464 
f 465//463 468//466 469//467 
f 468//466 470//468 469//467 
f 470//468 467//465 469//467 
f 467//465 465//463 469//467 
f 468//466 471//469 472//470 
f 471//469 473//471 472//470 
f 473//471 470//468 472//470 
f 470//468 468//466 472//470 
f 471//469 474//472 475//473 
f 474//472 476//474 475//473 
f 476//474 473//471 475//473 
f 473//471 471//469 475//473 
f 474//472 477//475 478//476 
f 477//475 479//477 478//476 
f 479//477 476//474 478//476 
f 476//474 474//472 478//476 
f 477//475 480//478 481//479 
f 480//478 482//480 481//479 
f 482//480 479//477 481//479 
f 479//477 477//475 481//479 
f 480//478 483//481 484//482 
f 483//481 485//483 484//482 
f 485//483 482//480 484//482 
f 482//480 480//478 484//482 
f 483//481 486//484 487//485 
f 486//484 488//486 487//485 
f 488//486 485//483 487//485 
f 485//483 483//481 487//485 
f 486//484 489//487 490//488 
f 489//487 491//489 490//488 
f 491//489 488//486 490//488 
f 488//486 486//484 490//488 
f 489//487 492//490 493//491 
f 492//490 494//492 493//491 
f 494//492 491//489 493//491 
f 491//489 489//487 493//491 
f 492//490 495//493 496//494 
f 495//493 497//495 496//494 
f 497//495 494//492 496//494 
f 494//492 492//490 496//494 
f 495//493 498//496 499//497 
f 498//496 500//498 499//497 
f 500//498 497//495 499//497 
f 497//495 495//493 499//497 
s 3
f 498//496 394//392 501//499 
f 394//392 398//396 501//499 
f 398//396 500//498 501//499 
f 500//498 498//496 501//499 
s 16
f 282//281 279//278 502//500 
f 279//278 276//276 502//500 
f 276//276 273//273 502//500 
f 273//273 282//281 502//500 
f 362//360 365//363 503//501 
f 365//363 368//366 503//501 
f 368//366 362//360 503//501 
f 273//273 270//270 504//500 
f 270//270 288//286 504//500 
f 288//286 285//283 504//500 
f 285//283 282//281 504//500 
f 282//281 273//273 504//500 
f 270//270 267//267 505//500 
f 267//267 297//295 505//500 
f 297//295 294//292 505//500 
f 294//292 291//289 505//500 
f 291//289 288//286 505//500 
f 288//286 270//270 505//500 
f 267//267 264//264 506//500 
f 264//264 303//301 506//500 
f 303//301 300//298 506//500 
f 300//298 297//295 506//500 
f 297//295 267//267 506//500 
f 264//264 261//261 507//500 
f 261//261 309//307 507//500 
f 309//307 306//304 507//500 
f 306//304 303//301 507//500 
f 303//301 264//264 507//500 
f 261//261 258//258 508//500 
f 258//258 315//313 508//500 
f 315//313 312//310 508//500 
f 312//310 309//307 508//500 
f 309//307 261//261 508//500 
f 258//258 255//255 509//500 
f 255//255 321//319 509//500 
f 321//319 318//316 509//500 
f 318//316 315//313 509//500 
f 315//313 258//258 509//500 
f 255//255 252//252 510//500 
f 252//252 327//325 510//500 
f 327//325 324//322 510//500 
f 324//322 321//319 510//500 
f 321//319 255//255 510//500 
f 252//252 249//249 511//500 
f 249//249 330//328 511//500 
f 330//328 327//325 511//500 
f 327//325 252//252 511//500 
f 249//249 246//246 512//500 
f 246//246 336//334 512//500 
f 336//334 333//331 512//500 
f 333//331 330//328 512//500 
f 330//328 249//249 512//500 
f 246//246 243//243 513//500 
f 243//243 339//337 513//500 
f 339//337 336//334 513//500 
f 336//334 246//246 513//500 
f 243//243 240//240 514//500 
f 240//240 339//337 514//500 
f 339//337 243//243 514//500 
f 240//240 237//237 515//500 
f 237//237 342//340 515//500 
f 342//340 339//337 515//500 
f 339//337 240//240 515//500 
f 237//237 234//234 516//500 
f 234//234 342//340 516//500 
f 342//340 237//237 516//500 
f 234//234 231//231 517//500 
f 231//231 345//343 517//500 
f 345//343 342//340 517//500 
f 342//340 234//234 517//500 
f 231//231 228//228 518//500 
f 228//228 348//346 518//500 
f 348//346 345//343 518//500 
f 345//343 231//231 518//500 
f 228//228 225//225 519//500 
f 225//225 348//346 519//500 
f 348//346 228//228 519//500 
f 225//225 222//222 520//500 
f 222//222 351//349 520//500 
f 351//349 348//346 520//500 
f 348//346 225//225 520//500 
f 222//222 219//219 521//500 
f 219//219 369//367 521//500 
f 369//367 366//364 521//500 
f 366//364 360//358 521//500 
f 360//358 357//355 521//500 
f 357//355 354//352 521//500 
f 354//352 351//349 521//500 
f 351//349 222//222 521//500 
f 195//195 192//192 522//500 
f 192//192 189//189 522//500 
f 189//189 195//195 522//500 
f 366//364 363//361 523//500 
f 363//361 360//358 523//500 
f 360//358 366//364 523//500 
f 189//189 186//186 524//500 
f 186//186 195//195 524//500 
f 195//195 189//189 524//500 
f 186//186 183//183 525//500 
f 183//183 195//195 525//500 
f 195//195 186//186 525//500 
f 183//183 180//180 526//500 
f 180//180 198//198 526//500 
f 198//198 195//195 526//500 
f 195//195 183//183 526//500 
f 180//180 177//177 527//500 
f 177//177 201//201 527//500 
f 201//201 198//198 527//500 
f 198//198 180//180 527//500 
f 177//177 174//174 528//500 
f 174//174 204//204 528//500 
f 204//204 201//201 528//500 
f 201//201 177//177 528//500 
f 174//174 171//171 529//500 
f 171//171 207//207 529//500 
f 207//207 204//204 529//500 
f 204//204 174//174 529//500 
f 171//171 168//168 530//500 
f 168//168 390//388 530//500 
f 390//388 387//385 530//500 
f 387//385 213//213 530//500 
f 213//213 210//210 530//500 
f 210//210 207//207 530//500 
f 207//207 171//171 530//500 
f 168//168 165//165 531//500 
f 165//165 390//388 531//500 
f 390//388 168//168 531//500 
f 387//385 384//382 532//500 
f 384//382 219//219 532//500 
f 219//219 216//216 532//500 
f 216//216 213//213 532//500 
f 213//213 387//385 532//500 
f 384//382 381//379 533//500 
f 381//379 219//219 533//500 
f 219//219 384//382 533//500 
f 381//379 378//376 534//500 
f 378//376 219//219 534//500 
f 219//219 381//379 534//500 
f 378//376 375//373 535//500 
f 375//373 219//219 535//500 
f 219//219 378//376 535//500 
f 375//373 372//370 536//500 
f 372//370 219//219 536//500 
f 219//219 375//373 536//500 
f 372//370 369//367 537//500 
f 369//367 219//219 537//500 
f 219//219 372//370 537//500 
f 165//165 162//162 538//500 
f 162//162 390//388 538//500 
f 390//388 165//165 538//500 
f 162//162 159//159 539//500 
f 159//159 390//388 539//500 
f 390//388 162//162 539//500 
f 159//159 156//156 540//500 
f 156//156 390//388 540//500 
f 390//388 159//159 540//500 
f 156//156 153//153 541//500 
f 153//153 2//2 541//500 
f 2//2 1//1 541//500 
f 1//1 390//388 541//500 
f 390//388 156//156 541//500 
f 153//153 150//150 542//500 
f 150//150 9//9 542//500 
f 9//9 6//6 542//500 
f 6//6 2//2 542//500 
f 2//2 153//153 542//500 
f 150//150 147//147 543//500 
f 147//147 15//15 543//500 
f 15//15 12//12 543//500 
f 12//12 9//9 543//500 
f 9//9 150//150 543//500 
f 147//147 144//144 544//500 
f 144//144 18//18 544//500 
f 18//18 15//15 544//500 
f 15//15 147//147 544//500 
f 144//144 141//141 545//500 
f 141//141 21//21 545//500 
f 21//21 18//18 545//500 
f 18//18 144//144 545//500 
f 141//141 138//138 546//500 
f 138//138 24//24 546//500 
f 24//24 21//21 546//500 
f 21//21 141//141 546//500 
f 138//138 135//135 547//500 
f 135//135 492//490 547//500 
f 24//24 138//138 547//500 
f 24//24 547//500 492//490 548//500 
f 492//490 489//487 548//500 
f 489//487 24//24 548//500 
f 489//487 486//484 549//500 
f 486//484 24//24 549//500 
f 24//24 489//487 549//500 
f 486//484 483//481 550//500 
f 483//481 24//24 550//500 
f 24//24 486//484 550//500 
f 483//481 480//478 551//500 
f 480//478 24//24 551//500 
f 24//24 483//481 551//500 
f 480//478 477//475 552//500 
f 477//475 24//24 552//500 
f 24//24 480//478 552//500 
f 477//475 474//472 553//500 
f 474//472 24//24 553//500 
f 24//24 477//475 553//500 
f 474//472 471//469 554//500 
f 471//469 30//30 554//500 
f 30//30 27//27 554//500 
f 27//27 24//24 554//500 
f 24//24 474//472 554//500 
f 471//469 468//466 555//500 
f 468//466 33//33 555//500 
f 33//33 30//30 555//500 
f 30//30 471//469 555//500 
f 468//466 465//463 556//500 
f 465//463 36//36 556//500 
f 36//36 33//33 556//500 
f 33//33 468//466 556//500 
f 465//463 462//460 557//500 
f 462//460 39//39 557//500 
f 39//39 36//36 557//500 
f 36//36 465//463 557//500 
f 462//460 459//457 558//500 
f 459//457 42//42 558//500 
f 42//42 39//39 558//500 
f 39//39 462//460 558//500 
f 459//457 456//454 559//500 
f 456//454 45//45 559//500 
f 45//45 42//42 559//500 
f 42//42 459//457 559//500 
f 456//454 453//451 560//500 
f 453//451 48//48 560//500 
f 48//48 45//45 560//500 
f 45//45 456//454 560//500 
f 453//451 450//448 561//500 
f 450//448 51//51 561//500 
f 51//51 48//48 561//500 
f 48//48 453//451 561//500 
f 450//448 447//445 562//500 
f 447//445 54//54 562//500 
f 54//54 51//51 562//500 
f 51//51 450//448 562//500 
f 447//445 444//442 563//500 
f 444//442 57//57 563//500 
f 57//57 54//54 563//500 
f 54//54 447//445 563//500 
f 444//442 441//439 564//500 
f 441//439 63//63 564//500 
f 63//63 60//60 564//500 
f 60//60 57//57 564//500 
f 57//57 444//442 564//500 
f 441//439 438//436 565//500 
f 438//436 69//69 565//500 
f 69//69 66//66 565//500 
f 66//66 63//63 565//500 
f 63//63 441//439 565//500 
f 438//436 435//433 566//500 
f 435//433 75//75 566//500 
f 75//75 72//72 566//500 
f 72//72 69//69 566//500 
f 69//69 438//436 566//500 
f 435//433 432//430 567//500 
f 432//430 81//81 567//500 
f 81//81 78//78 567//500 
f 78//78 75//75 567//500 
f 75//75 435//433 567//500 
f 432//430 429//427 568//500 
f 429//427 87//87 568//500 
f 87//87 84//84 568//500 
f 84//84 81//81 568//500 
f 81//81 432//430 568//500 
f 429//427 426//424 569//500 
f 426//424 93//93 569//500 
f 93//93 90//90 569//500 
f 90//90 87//87 569//500 
f 87//87 429//427 569//500 
f 426//424 423//421 570//500 
f 423//421 99//99 570//500 
f 99//99 96//96 570//500 
f 96//96 93//93 570//500 
f 93//93 426//424 570//500 
f 423//421 420//418 571//500 
f 420//418 102//102 571//500 
f 102//102 99//99 571//500 
f 99//99 423//421 571//500 
f 420//418 417//415 572//500 
f 417//415 108//108 572//500 
f 108//108 105//105 572//500 
f 105//105 102//102 572//500 
f 102//102 420//418 572//500 
f 417//415 414//412 573//500 
f 414//412 111//111 573//500 
f 111//111 108//108 573//500 
f 108//108 417//415 573//500 
f 414//412 411//409 574//500 
f 411//409 114//114 574//500 
f 114//114 111//111 574//500 
f 111//111 414//412 574//500 
f 411//409 408//406 575//500 
f 408//406 117//117 575//500 
f 117//117 114//114 575//500 
f 114//114 411//409 575//500 
f 408//406 405//403 576//500 
f 405//403 120//120 576//500 
f 120//120 117//117 576//500 
f 117//117 408//406 576//500 
f 405//403 402//400 577//500 
f 402//400 123//123 577//500 
f 123//123 120//120 577//500 
f 120//120 405//403 577//500 
f 402//400 399//397 578//500 
f 399//397 126//126 578//500 
f 126//126 123//123 578//500 
f 123//123 402//400 578//500 
f 399//397 395//393 579//500 
f 395//393 129//129 579//500 
f 129//129 126//126 579//500 
f 126//126 399//397 579//500 
f 395//393 394//392 580//500 
f 394//392 132//132 580//500 
f 132//132 129//129 580//500 
f 129//129 395//393 580//500 
f 394//392 498//496 581//500 
f 498//496 135//135 581//500 
f 135//135 132//132 581//500 
f 132//132 394//392 581//500 
f 498//496 495//493 582//500 
f 495//493 135//135 582//500 
f 135//135 498//496 582//500 
f 495//493 492//490 583//500 
f 492//490 135//135 583//500 
f 135//135 495//493 583//500 
f 368//366 371//369 584//501 
f 371//369 359//357 584//501 
f 359//357 362//360 584//501 
f 362//360 368//366 584//501 
f 371//369 374//372 585//501 
f 374//372 221//221 585//501 
f 221//221 224//224 585//501 
f 224//224 353//351 585//501 
f 353//351 356//354 585//501 
f 356//354 359//357 585//501 
f 359//357 371//369 585//501 
f 374//372 377//375 586//501 
f 377//375 221//221 586//501 
f 221//221 374//372 586//501 
f 224//224 227//227 587//501 
f 227//227 350//348 587//501 
f 350//348 353//351 587//501 
f 353//351 224//224 587//501 
f 227//227 230//230 588//501 
f 230//230 350//348 588//501 
f 350//348 227//227 588//501 
f 230//230 233//233 589//501 
f 233//233 347//345 589//501 
f 347//345 350//348 589//501 
f 350//348 230//230 589//501 
f 233//233 236//236 590//501 
f 236//236 344//342 590//501 
f 344//342 347//345 590//501 
f 347//345 233//233 590//501 
f 236//236 239//239 591//501 
f 239//239 344//342 591//501 
f 344//342 236//236 591//501 
f 239//239 242//242 592//501 
f 242//242 341//339 592//501 
f 341//339 344//342 592//501 
f 344//342 239//239 592//501 
f 242//242 245//245 593//501 
f 245//245 341//339 593//501 
f 341//339 242//242 593//501 
f 245//245 248//248 594//501 
f 248//248 338//336 594//501 
f 338//336 341//339 594//501 
f 341//339 245//245 594//501 
f 248//248 251//251 595//501 
f 251//251 332//330 595//501 
f 332//330 335//333 595//501 
f 335//333 338//336 595//501 
f 338//336 248//248 595//501 
f 251//251 254//254 596//501 
f 254//254 329//327 596//501 
f 329//327 332//330 596//501 
f 332//330 251//251 596//501 
f 254//254 257//257 597//501 
f 257//257 323//321 597//501 
f 323//321 326//324 597//501 
f 326//324 329//327 597//501 
f 329//327 254//254 597//501 
f 257//257 260//260 598//501 
f 260//260 317//315 598//501 
f 317//315 320//318 598//501 
f 320//318 323//321 598//501 
f 323//321 257//257 598//501 
f 260//260 263//263 599//501 
f 263//263 311//309 599//501 
f 311//309 314//312 599//501 
f 314//312 317//315 599//501 
f 317//315 260//260 599//501 
f 263//263 266//266 600//501 
f 266//266 305//303 600//501 
f 305//303 308//306 600//501 
f 308//306 311//309 600//501 
f 311//309 263//263 600//501 
f 266//266 269//269 601//501 
f 269//269 299//297 601//501 
f 299//297 302//300 601//501 
f 302//300 305//303 601//501 
f 305//303 266//266 601//501 
f 269//269 272//272 602//501 
f 272//272 290//288 602//501 
f 290//288 293//291 602//501 
f 293//291 296//294 602//501 
f 296//294 299//297 602//501 
f 299//297 269//269 602//501 
f 272//272 275//275 603//501 
f 275//275 284//282 603//501 
f 284//282 287//285 603//501 
f 287//285 290//288 603//501 
f 290//288 272//272 603//501 
f 275//275 278//277 604//501 
f 278//277 281//280 604//501 
f 281//280 284//282 604//501 
f 284//282 275//275 604//501 
f 377//375 380//378 605//501 
f 380//378 221//221 605//501 
f 221//221 377//375 605//501 
f 380//378 383//381 606//501 
f 383//381 221//221 606//501 
f 221//221 380//378 606//501 
f 383//381 386//384 607//501 
f 386//384 221//221 607//501 
f 221//221 383//381 607//501 
f 386//384 389//387 608//501 
f 389//387 215//215 608//501 
f 215//215 218//218 608//501 
f 218//218 221//221 608//501 
f 221//221 386//384 608//501 
f 389//387 392//390 609//501 
f 392//390 170//170 609//501 
f 170//170 173//173 609//501 
f 173//173 209//209 609//501 
f 209//209 212//212 609//501 
f 212//212 215//215 609//501 
f 215//215 389//387 609//501 
f 494//492 497//495 610//501 
f 497//495 137//137 610//501 
f 137//137 140//140 610//501 
f 140//140 26//26 610//501 
f 173//173 176//176 611//501 
f 176//176 206//206 611//501 
f 206//206 209//209 611//501 
f 209//209 173//173 611//501 
f 176//176 179//179 612//501 
f 179//179 203//203 612//501 
f 203//203 206//206 612//501 
f 206//206 176//176 612//501 
f 179//179 182//182 613//501 
f 182//182 200//200 613//501 
f 200//200 203//203 613//501 
f 203//203 179//179 613//501 
f 182//182 185//185 614//501 
f 185//185 197//197 614//501 
f 197//197 200//200 614//501 
f 200//200 182//182 614//501 
f 185//185 188//188 615//501 
f 188//188 197//197 615//501 
f 197//197 185//185 615//501 
f 188//188 191//191 616//501 
f 191//191 197//197 616//501 
f 197//197 188//188 616//501 
f 191//191 194//194 617//501 
f 194//194 197//197 617//501 
f 197//197 191//191 617//501 
f 497//495 500//498 618//501 
f 500//498 137//137 618//501 
f 137//137 497//495 618//501 
f 140//140 143//143 619//501 
f 143//143 23//23 619//501 
f 23//23 26//26 619//501 
f 26//26 140//140 619//501 
f 143//143 146//146 620//501 
f 146//146 20//20 620//501 
f 20//20 23//23 620//501 
f 23//23 143//143 620//501 
f 146//146 149//149 621//501 
f 149//149 17//17 621//501 
f 17//17 20//20 621//501 
f 20//20 146//146 621//501 
f 149//149 152//152 622//501 
f 152//152 11//11 622//501 
f 11//11 14//14 622//501 
f 14//14 17//17 622//501 
f 17//17 149//149 622//501 
f 152//152 155//155 623//501 
f 155//155 4//4 623//501 
f 4//4 8//8 623//501 
f 8//8 11//11 623//501 
f 11//11 152//152 623//501 
f 155//155 158//158 624//501 
f 158//158 392//390 624//501 
f 392//390 5//5 624//501 
f 5//5 4//4 624//501 
f 4//4 155//155 624//501 
f 158//158 161//161 625//501 
f 161//161 392//390 625//501 
f 392//390 158//158 625//501 
f 161//161 164//164 626//501 
f 164//164 392//390 626//501 
f 392//390 161//161 626//501 
f 164//164 167//167 627//501 
f 167//167 392//390 627//501 
f 392//390 164//164 627//501 
f 167//167 170//170 628//501 
f 170//170 392//390 628//501 
f 392//390 167//167 628//501 
f 500//498 398//396 629//501 
f 398//396 134//134 629//501 
f 134//134 137//137 629//501 
f 137//137 500//498 629//501 
f 398//396 397//395 630//501 
f 397//395 131//131 630//501 
f 131//131 134//134 630//501 
f 134//134 398//396 630//501 
f 397//395 401//399 631//501 
f 401//399 128//128 631//501 
f 128//128 131//131 631//501 
f 131//131 397//395 631//501 
f 401//399 404//402 632//501 
f 404//402 125//125 632//501 
f 125//125 128//128 632//501 
f 128//128 401//399 632//501 
f 404//402 407//405 633//501 
f 407//405 122//122 633//501 
f 122//122 125//125 633//501 
f 125//125 404//402 633//501 
f 407//405 410//408 634//501 
f 410//408 119//119 634//501 
f 119//119 122//122 634//501 
f 122//122 407//405 634//501 
f 410//408 413//411 635//501 
f 413//411 116//116 635//501 
f 116//116 119//119 635//501 
f 119//119 410//408 635//501 
f 413//411 416//414 636//501 
f 416//414 113//113 636//501 
f 113//113 116//116 636//501 
f 116//116 413//411 636//501 
f 416//414 419//417 637//501 
f 419//417 110//110 637//501 
f 110//110 113//113 637//501 
f 113//113 416//414 637//501 
f 419//417 422//420 638//501 
f 422//420 104//104 638//501 
f 104//104 107//107 638//501 
f 107//107 110//110 638//501 
f 110//110 419//417 638//501 
f 422//420 425//423 639//501 
f 425//423 101//101 639//501 
f 101//101 104//104 639//501 
f 104//104 422//420 639//501 
f 425//423 428//426 640//501 
f 428//426 95//95 640//501 
f 95//95 98//98 640//501 
f 98//98 101//101 640//501 
f 101//101 425//423 640//501 
f 428//426 431//429 641//501 
f 431//429 89//89 641//501 
f 89//89 92//92 641//501 
f 92//92 95//95 641//501 
f 95//95 428//426 641//501 
f 431//429 434//432 642//501 
f 434//432 83//83 642//501 
f 83//83 86//86 642//501 
f 86//86 89//89 642//501 
f 89//89 431//429 642//501 
f 434//432 437//435 643//501 
f 437//435 77//77 643//501 
f 77//77 80//80 643//501 
f 80//80 83//83 643//501 
f 83//83 434//432 643//501 
f 437//435 440//438 644//501 
f 440//438 71//71 644//501 
f 71//71 74//74 644//501 
f 74//74 77//77 644//501 
f 77//77 437//435 644//501 
f 440//438 443//441 645//501 
f 443//441 65//65 645//501 
f 65//65 68//68 645//501 
f 68//68 71//71 645//501 
f 71//71 440//438 645//501 
f 443//441 446//444 646//501 
f 446//444 59//59 646//501 
f 59//59 62//62 646//501 
f 62//62 65//65 646//501 
f 65//65 443//441 646//501 
f 446//444 449//447 647//501 
f 449//447 56//56 647//501 
f 56//56 59//59 647//501 
f 59//59 446//444 647//501 
f 449//447 452//450 648//501 
f 452//450 53//53 648//501 
f 53//53 56//56 648//501 
f 56//56 449//447 648//501 
f 452//450 455//453 649//501 
f 455//453 50//50 649//501 
f 50//50 53//53 649//501 
f 53//53 452//450 649//501 
f 455//453 458//456 650//501 
f 458//456 47//47 650//501 
f 47//47 50//50 650//501 
f 50//50 455//453 650//501 
f 458//456 461//459 651//501 
f 461//459 44//44 651//501 
f 44//44 47//47 651//501 
f 47//47 458//456 651//501 
f 461//459 464//462 652//501 
f 464//462 41//41 652//501 
f 41//41 44//44 652//501 
f 44//44 461//459 652//501 
f 464//462 467//465 653//501 
f 467//465 38//38 653//501 
f 38//38 41//41 653//501 
f 41//41 464//462 653//501 
f 467//465 470//468 654//501 
f 470//468 35//35 654//501 
f 35//35 38//38 654//501 
f 38//38 467//465 654//501 
f 470//468 473//471 655//501 
f 473//471 32//32 655//501 
f 32//32 35//35 655//501 
f 35//35 470//468 655//501 
f 473//471 476//474 656//501 
f 476//474 26//26 656//501 
f 26//26 29//29 656//501 
f 29//29 32//32 656//501 
f 32//32 473//471 656//501 
f 476//474 479//477 657//501 
f 479//477 26//26 657//501 
f 26//26 476//474 657//501 
f 479//477 482//480 658//501 
f 482//480 26//26 658//501 
f 26//26 479//477 658//501 
f 482//480 485//483 659//501 
f 485//483 26//26 659//501 
f 26//26 482//480 659//501 
f 485//483 488//486 660//501 
f 488//486 26//26 660//501 
f 26//26 485//483 660//501 
f 488//486 491//489 661//501 
f 491//489 26//26 661//501 
f 26//26 488//486 661//501 
f 491//489 494//492 662//501 
f 494//492 610//501 26//26 662//501 
f 26//26 491//489 662//501 
# 2 polygons - 1320 triangles

