# 3ds Max Wavefront OBJ Exporter v0.97b - (c)2007 guruware
# File Created: 20.02.2021 17:45:02

#
# object To_Tong
#

v  759.2513 0.0000 26.8790
v  759.2513 0.0000 47.3761
v  759.2513 5.0000 37.1275
v  759.2513 10.0000 47.3761
v  759.2513 10.0000 26.8790
v  754.9043 0.0000 47.3761
v  757.0778 5.0000 47.3761
v  754.9043 10.0000 47.3761
v  754.9043 0.0000 54.1380
v  754.9043 5.0000 50.7570
v  754.9043 10.0000 54.1380
v  786.7342 0.0000 54.1380
v  770.8193 5.0000 54.1380
v  786.7342 10.0000 54.1380
v  788.4675 0.0000 54.0041
v  787.6009 5.0000 54.0710
v  788.4675 10.0000 54.0041
v  789.9969 0.0000 53.6022
v  789.2322 5.0000 53.8031
v  789.9969 10.0000 53.6022
v  791.3224 0.0000 52.9325
v  790.6597 5.0000 53.2673
v  791.3224 10.0000 52.9325
v  792.4440 0.0000 51.9948
v  791.8832 5.0000 52.4637
v  792.4440 10.0000 51.9948
v  793.3616 0.0000 50.7893
v  792.9028 5.0000 51.3921
v  793.3616 10.0000 50.7893
v  794.0753 0.0000 49.3159
v  793.7184 5.0000 50.0526
v  794.0753 10.0000 49.3159
v  794.5851 0.0000 47.5746
v  794.3302 5.0000 48.4452
v  794.5851 10.0000 47.5746
v  794.8910 0.0000 45.5653
v  794.7380 5.0000 46.5699
v  794.8910 10.0000 45.5653
v  794.9929 0.0000 43.2882
v  794.9420 5.0000 44.4268
v  794.9929 10.0000 43.2882
v  794.9929 0.0000 30.6876
v  794.9929 5.0000 36.9879
v  794.9929 10.0000 30.6876
v  794.9565 0.0000 29.6807
v  794.9747 5.0000 30.1842
v  794.9565 10.0000 29.6807
v  794.8471 0.0000 28.7230
v  794.9018 5.0000 29.2019
v  794.8471 10.0000 28.7230
v  794.6648 0.0000 27.8143
v  794.7559 5.0000 28.2687
v  794.6648 10.0000 27.8143
v  794.4095 0.0000 26.9548
v  794.5372 5.0000 27.3846
v  794.4095 10.0000 26.9548
v  794.0814 0.0000 26.1444
v  794.2455 5.0000 26.5496
v  794.0814 10.0000 26.1444
v  793.6804 0.0000 25.3830
v  793.8809 5.0000 25.7637
v  793.6804 10.0000 25.3830
v  793.2064 0.0000 24.6708
v  793.4434 5.0000 25.0269
v  793.2064 10.0000 24.6708
v  792.6594 0.0000 24.0076
v  792.9329 5.0000 24.3392
v  792.6594 10.0000 24.0076
v  792.0396 0.0000 23.3936
v  792.3495 5.0000 23.7006
v  792.0396 10.0000 23.3936
v  791.3066 0.0000 22.8030
v  791.6732 5.0000 23.0983
v  791.3066 10.0000 22.8030
v  790.4203 0.0000 22.2102
v  790.8635 5.0000 22.5066
v  790.4203 10.0000 22.2102
v  789.3807 0.0000 21.6152
v  789.9006 5.0000 21.9127
v  789.3807 10.0000 21.6152
v  788.1878 0.0000 21.0180
v  788.7843 5.0000 21.3166
v  788.1878 10.0000 21.0180
v  786.8416 0.0000 20.4186
v  787.5147 5.0000 20.7183
v  786.8416 10.0000 20.4186
v  785.3420 0.0000 19.8170
v  786.0917 5.0000 20.1178
v  785.3420 10.0000 19.8170
v  783.6890 0.0000 19.2132
v  784.5155 5.0000 19.5151
v  783.6890 10.0000 19.2132
v  781.8828 0.0000 18.6071
v  782.7859 5.0000 18.9101
v  781.8828 10.0000 18.6071
v  779.9232 0.0000 17.9989
v  780.9030 5.0000 18.3030
v  779.9232 10.0000 17.9989
v  777.9384 0.0000 17.4204
v  778.9308 5.0000 17.7097
v  777.9384 10.0000 17.4204
v  776.0562 0.0000 16.9037
v  776.9973 5.0000 17.1621
v  776.0562 10.0000 16.9037
v  774.2767 0.0000 16.4487
v  775.1664 5.0000 16.6762
v  774.2767 10.0000 16.4487
v  772.5999 0.0000 16.0555
v  773.4383 5.0000 16.2521
v  772.5999 10.0000 16.0555
v  771.0258 0.0000 15.7240
v  771.8129 5.0000 15.8897
v  771.0258 10.0000 15.7240
v  769.5545 0.0000 15.4542
v  770.2902 5.0000 15.5891
v  769.5545 10.0000 15.4542
v  768.1859 0.0000 15.2462
v  768.8702 5.0000 15.3502
v  768.1859 10.0000 15.2462
v  766.9199 0.0000 15.0999
v  767.5529 5.0000 15.1731
v  766.9199 10.0000 15.0999
v  765.7567 0.0000 15.0154
v  766.3383 5.0000 15.0577
v  765.7567 10.0000 15.0154
v  765.7838 0.0000 14.5547
v  765.7703 5.0000 14.7850
v  765.7838 10.0000 14.5547
v  765.8655 0.0000 14.1105
v  765.8246 5.0000 14.3326
v  765.8655 10.0000 14.1105
v  766.0015 0.0000 13.6828
v  765.9335 5.0000 13.8966
v  766.0015 10.0000 13.6828
v  766.1919 0.0000 13.2717
v  766.0967 5.0000 13.4773
v  766.1919 10.0000 13.2717
v  766.4368 0.0000 12.8772
v  766.3143 5.0000 13.0745
v  766.4368 10.0000 12.8772
v  766.7360 0.0000 12.4992
v  766.5864 5.0000 12.6882
v  766.7360 10.0000 12.4992
v  767.0897 0.0000 12.1378
v  766.9128 5.0000 12.3185
v  767.0897 10.0000 12.1378
v  767.4978 0.0000 11.7929
v  767.2938 5.0000 11.9654
v  767.4978 10.0000 11.7929
v  767.9603 0.0000 11.4646
v  767.7291 5.0000 11.6288
v  767.9603 10.0000 11.4646
v  768.4474 0.0000 11.1624
v  768.2039 5.0000 11.3135
v  768.4474 10.0000 11.1624
v  768.9293 0.0000 10.8957
v  768.6884 5.0000 11.0290
v  768.9293 10.0000 10.8957
v  769.4059 0.0000 10.6645
v  769.1676 5.0000 10.7801
v  769.4059 10.0000 10.6645
v  769.8774 0.0000 10.4689
v  769.6417 5.0000 10.5667
v  769.8774 10.0000 10.4689
v  770.3436 0.0000 10.3089
v  770.1105 5.0000 10.3889
v  770.3436 10.0000 10.3089
v  770.8046 0.0000 10.1845
v  770.5741 5.0000 10.2467
v  770.8046 10.0000 10.1845
v  771.2604 0.0000 10.0956
v  771.0325 5.0000 10.1400
v  771.2604 10.0000 10.0956
v  771.7109 0.0000 10.0422
v  771.4857 5.0000 10.0689
v  771.7109 10.0000 10.0422
v  772.1563 0.0000 10.0244
v  771.9337 5.0000 10.0333
v  772.1563 10.0000 10.0244
v  772.8535 0.0000 10.0536
v  772.5049 5.0000 10.0390
v  772.8535 10.0000 10.0536
v  773.7116 0.0000 10.1410
v  773.2825 5.0000 10.0973
v  773.7116 10.0000 10.1410
v  774.7309 0.0000 10.2866
v  774.2213 5.0000 10.2138
v  774.7309 10.0000 10.2866
v  775.9112 0.0000 10.4905
v  775.3210 5.0000 10.3886
v  775.9112 10.0000 10.4905
v  777.2526 0.0000 10.7527
v  776.5819 5.0000 10.6216
v  777.2526 10.0000 10.7527
v  778.7550 0.0000 11.0732
v  778.0038 5.0000 10.9129
v  778.7550 10.0000 11.0732
v  780.4185 0.0000 11.4519
v  779.5868 5.0000 11.2625
v  780.4185 10.0000 11.4519
v  782.2430 0.0000 11.8888
v  781.3308 5.0000 11.6704
v  782.2430 10.0000 11.8888
v  784.2287 0.0000 12.3841
v  783.2358 5.0000 12.1365
v  784.2287 10.0000 12.3841
v  785.1014 0.0000 12.5984
v  784.6650 5.0000 12.4913
v  785.1014 10.0000 12.5984
v  785.9489 0.0000 12.7876
v  785.5251 5.0000 12.6930
v  785.9489 10.0000 12.7876
v  786.7708 0.0000 12.9515
v  786.3599 5.0000 12.8695
v  786.7708 10.0000 12.9515
v  787.5674 0.0000 13.0902
v  787.1691 5.0000 13.0208
v  787.5674 10.0000 13.0902
v  788.3386 0.0000 13.2037
v  787.9530 5.0000 13.1469
v  788.3386 10.0000 13.2037
v  789.0844 0.0000 13.2919
v  788.7115 5.0000 13.2478
v  789.0844 10.0000 13.2919
v  789.8047 0.0000 13.3550
v  789.4445 5.0000 13.3235
v  789.8047 10.0000 13.3550
v  790.4996 0.0000 13.3928
v  790.1522 5.0000 13.3739
v  790.4996 10.0000 13.3928
v  791.1692 0.0000 13.4054
v  790.8344 5.0000 13.3991
v  791.1692 10.0000 13.4054
v  792.1904 0.0000 13.3668
v  791.6798 5.0000 13.3861
v  792.1904 10.0000 13.3668
v  793.1608 0.0000 13.2509
v  792.6756 5.0000 13.3088
v  793.1608 10.0000 13.2509
v  794.0806 0.0000 13.0577
v  793.6207 5.0000 13.1543
v  794.0806 10.0000 13.0577
v  794.9497 0.0000 12.7873
v  794.5151 5.0000 12.9225
v  794.9497 10.0000 12.7873
v  795.7681 0.0000 12.4395
v  795.3589 5.0000 12.6134
v  795.7681 10.0000 12.4395
v  796.5358 0.0000 12.0146
v  796.1520 5.0000 12.2271
v  796.5358 10.0000 12.0146
v  797.2529 0.0000 11.5123
v  796.8943 5.0000 11.7634
v  797.2529 10.0000 11.5123
v  797.9193 0.0000 10.9328
v  797.5861 5.0000 11.2226
v  797.9193 10.0000 10.9328
v  798.5349 0.0000 10.2760
v  798.2271 5.0000 10.6044
v  798.5349 10.0000 10.2760
v  795.5187 0.0000 4.5505
v  797.0268 5.0000 7.4133
v  795.5187 10.0000 4.5505
v  794.9336 0.0000 5.1925
v  795.2261 5.0000 4.8715
v  794.9336 10.0000 5.1925
v  794.2785 0.0000 5.7590
v  794.6061 5.0000 5.4757
v  794.2785 10.0000 5.7590
v  793.5535 0.0000 6.2499
v  793.9160 5.0000 6.0045
v  793.5535 10.0000 6.2499
v  792.7584 0.0000 6.6653
v  793.1559 5.0000 6.4576
v  792.7584 10.0000 6.6653
v  791.8932 0.0000 7.0052
v  792.3258 5.0000 6.8353
v  791.8932 10.0000 7.0052
v  790.9582 0.0000 7.2696
v  791.4257 5.0000 7.1374
v  790.9582 10.0000 7.2696
v  789.9531 0.0000 7.4584
v  790.4556 5.0000 7.3640
v  789.9531 10.0000 7.4584
v  788.8780 0.0000 7.5717
v  789.4155 5.0000 7.5151
v  788.8780 10.0000 7.5717
v  787.7329 0.0000 7.6095
v  788.3054 5.0000 7.5906
v  787.7329 10.0000 7.6095
v  787.2522 0.0000 7.5917
v  787.4926 5.0000 7.6006
v  787.2522 10.0000 7.5917
v  786.6955 0.0000 7.5384
v  786.9738 5.0000 7.5651
v  786.6955 10.0000 7.5384
v  786.0628 0.0000 7.4496
v  786.3792 5.0000 7.4940
v  786.0628 10.0000 7.4496
v  785.3542 0.0000 7.3252
v  785.7085 5.0000 7.3874
v  785.3542 10.0000 7.3252
v  784.5696 0.0000 7.1654
v  784.9619 5.0000 7.2453
v  784.5696 10.0000 7.1654
v  783.7090 0.0000 6.9699
v  784.1393 5.0000 7.0677
v  783.7090 10.0000 6.9699
v  782.7725 0.0000 6.7390
v  783.2408 5.0000 6.8545
v  782.7725 10.0000 6.7390
v  781.7601 0.0000 6.4725
v  782.2663 5.0000 6.6058
v  781.7601 10.0000 6.4725
v  780.6716 0.0000 6.1705
v  781.2158 5.0000 6.3215
v  780.6716 10.0000 6.1705
v  779.4312 0.0000 5.8305
v  780.0514 5.0000 6.0005
v  779.4312 10.0000 5.8305
v  778.2578 0.0000 5.5305
v  778.8445 5.0000 5.6805
v  778.2578 10.0000 5.5305
v  777.1514 0.0000 5.2705
v  777.7046 5.0000 5.4005
v  777.1514 10.0000 5.2705
v  776.1122 0.0000 5.0505
v  776.6318 5.0000 5.1605
v  776.1122 10.0000 5.0505
v  775.1401 0.0000 4.8705
v  775.6262 5.0000 4.9605
v  775.1401 10.0000 4.8705
v  774.2350 0.0000 4.7305
v  774.6876 5.0000 4.8005
v  774.2350 10.0000 4.7305
v  773.3971 0.0000 4.6305
v  773.8160 5.0000 4.6805
v  773.3971 10.0000 4.6305
v  772.6262 0.0000 4.5705
v  773.0116 5.0000 4.6005
v  772.6262 10.0000 4.5705
v  771.9224 0.0000 4.5505
v  772.2743 5.0000 4.5605
v  771.9224 10.0000 4.5505
v  770.4955 0.0000 4.6024
v  771.2090 5.0000 4.5765
v  770.4955 10.0000 4.6024
v  769.1120 0.0000 4.7581
v  769.8038 5.0000 4.6803
v  769.1120 10.0000 4.7581
v  767.7716 0.0000 5.0177
v  768.4418 5.0000 4.8879
v  767.7716 10.0000 5.0177
v  766.4745 0.0000 5.3811
v  767.1230 5.0000 5.1994
v  766.4745 10.0000 5.3811
v  765.2206 0.0000 5.8483
v  765.8475 5.0000 5.6147
v  765.2206 10.0000 5.8483
v  764.0099 0.0000 6.4193
v  764.6153 5.0000 6.1338
v  764.0099 10.0000 6.4193
v  762.8425 0.0000 7.0942
v  763.4263 5.0000 6.7567
v  762.8425 10.0000 7.0942
v  761.7183 0.0000 7.8728
v  762.2805 5.0000 7.4835
v  761.7183 10.0000 7.8728
v  760.6374 0.0000 8.7553
v  761.1779 5.0000 8.3141
v  760.6374 10.0000 8.7553
v  759.6250 0.0000 9.7228
v  760.1312 5.0000 9.2391
v  759.6250 10.0000 9.7228
v  758.7064 0.0000 10.7565
v  759.1656 5.0000 10.2397
v  758.7064 10.0000 10.7565
v  757.8817 0.0000 11.8564
v  758.2941 5.0000 11.3064
v  757.8817 10.0000 11.8564
v  757.1508 0.0000 13.0224
v  757.5162 5.0000 12.4394
v  757.1508 10.0000 13.0224
v  756.5138 0.0000 14.2546
v  756.8323 5.0000 13.6385
v  756.5138 10.0000 14.2546
v  755.9706 0.0000 15.5530
v  756.2422 5.0000 14.9038
v  755.9706 10.0000 15.5530
v  755.5214 0.0000 16.9176
v  755.7460 5.0000 16.2353
v  755.5214 10.0000 16.9176
v  755.1659 0.0000 18.3484
v  755.3436 5.0000 17.6330
v  755.1659 10.0000 18.3484
v  754.9043 0.0000 19.8453
v  755.0352 5.0000 19.0969
v  754.9043 10.0000 19.8453
v  756.7086 0.0000 19.8693
v  755.8065 5.0000 19.8573
v  756.7086 10.0000 19.8693
v  758.5382 0.0000 19.9412
v  757.6234 5.0000 19.9052
v  758.5382 10.0000 19.9412
v  760.3931 0.0000 20.0610
v  759.4656 5.0000 20.0011
v  760.3931 10.0000 20.0610
v  762.2733 0.0000 20.2287
v  761.3331 5.0000 20.1449
v  762.2733 10.0000 20.2287
v  764.1786 0.0000 20.4444
v  763.2260 5.0000 20.3365
v  764.1786 10.0000 20.4444
v  766.1094 0.0000 20.7079
v  765.1440 5.0000 20.5761
v  766.1094 10.0000 20.7079
v  768.0654 0.0000 21.0194
v  767.0873 5.0000 20.8637
v  768.0654 10.0000 21.0194
v  770.0466 0.0000 21.3788
v  769.0560 5.0000 21.1991
v  770.0466 10.0000 21.3788
v  772.0532 0.0000 21.7861
v  771.0499 5.0000 21.5825
v  772.0532 10.0000 21.7861
v  773.9851 0.0000 22.2185
v  773.0191 5.0000 22.0023
v  773.9851 10.0000 22.2185
v  775.7424 0.0000 22.6531
v  774.8638 5.0000 22.4358
v  775.7424 10.0000 22.6531
v  777.3252 0.0000 23.0899
v  776.5338 5.0000 22.8715
v  777.3252 10.0000 23.0899
v  778.7333 0.0000 23.5289
v  778.0293 5.0000 23.3094
v  778.7333 10.0000 23.5289
v  779.9670 0.0000 23.9701
v  779.3502 5.0000 23.7495
v  779.9670 10.0000 23.9701
v  781.0261 0.0000 24.4135
v  780.4965 5.0000 24.1918
v  781.0261 10.0000 24.4135
v  781.9105 0.0000 24.8592
v  781.4683 5.0000 24.6363
v  781.9105 10.0000 24.8592
v  782.6204 0.0000 25.3070
v  782.2655 5.0000 25.0831
v  782.6204 10.0000 25.3070
v  783.1558 0.0000 25.7570
v  782.8881 5.0000 25.5320
v  783.1558 10.0000 25.7570
v  783.5789 0.0000 26.2362
v  783.3674 5.0000 25.9966
v  783.5789 10.0000 26.2362
v  783.9523 0.0000 26.7714
v  783.7656 5.0000 26.5038
v  783.9523 10.0000 26.7714
v  784.2759 0.0000 27.3628
v  784.1141 5.0000 27.0671
v  784.2759 10.0000 27.3628
v  784.5497 0.0000 28.0102
v  784.4128 5.0000 27.6865
v  784.5497 10.0000 28.0102
v  784.7737 0.0000 28.7138
v  784.6617 5.0000 28.3620
v  784.7737 10.0000 28.7138
v  784.9480 0.0000 29.4734
v  784.8609 5.0000 29.0936
v  784.9480 10.0000 29.4734
v  785.0724 0.0000 30.2891
v  785.0103 5.0000 29.8812
v  785.0724 10.0000 30.2891
v  785.1472 0.0000 31.1609
v  785.1098 5.0000 30.7250
v  785.1472 10.0000 31.1609
v  785.1720 0.0000 32.0888
v  785.1595 5.0000 31.6248
v  785.1720 10.0000 32.0888
v  785.1720 0.0000 42.1210
v  785.1720 5.0000 37.1049
v  785.1720 10.0000 42.1210
v  785.1068 0.0000 43.2239
v  785.1394 5.0000 42.6724
v  785.1068 10.0000 43.2239
v  784.9110 0.0000 44.1971
v  785.0089 5.0000 43.7105
v  784.9110 10.0000 44.1971
v  784.5848 0.0000 45.0405
v  784.7479 5.0000 44.6188
v  784.5848 10.0000 45.0405
v  784.1281 0.0000 45.7541
v  784.3564 5.0000 45.3973
v  784.1281 10.0000 45.7541
v  783.5408 0.0000 46.3380
v  783.8344 5.0000 46.0461
v  783.5408 10.0000 46.3380
v  782.8230 0.0000 46.7922
v  783.1819 5.0000 46.5651
v  782.8230 10.0000 46.7922
v  781.9747 0.0000 47.1166
v  782.3989 5.0000 46.9544
v  781.9747 10.0000 47.1166
v  780.9960 0.0000 47.3112
v  781.4854 5.0000 47.2139
v  780.9960 10.0000 47.3112
v  779.8867 0.0000 47.3761
v  780.4414 5.0000 47.3436
v  779.8867 10.0000 47.3761
v  769.0722 0.0000 47.3761
v  774.4795 5.0000 47.3761
v  769.0722 10.0000 47.3761
v  769.0722 0.0000 24.6753
v  769.0722 5.0000 36.0257
v  769.0722 10.0000 24.6753
v  764.1617 5.0000 25.7771
v  763.9485 0.0000 50.7570
v  765.7411 10.0000 17.8169
v  764.1617 0.0000 36.5766
v  773.7361 0.0000 49.0666
v  782.5390 0.0000 49.6084
v  783.2350 0.0000 49.5219
v  783.8440 0.0000 49.3489
v  785.3914 0.0000 50.3181
v  788.3166 0.0000 50.7710
v  789.7188 0.0000 48.5789
v  789.5391 0.0000 46.5320
v  790.8973 0.0000 44.7698
v  788.4239 0.0000 42.8777
v  790.0825 0.0000 37.0464
v  788.4374 0.0000 31.3124
v  791.0032 0.0000 30.1083
v  789.8831 0.0000 29.0750
v  791.0930 0.0000 27.4139
v  790.1516 0.0000 25.6965
v  788.5184 0.0000 24.7560
v  787.0073 0.0000 24.4899
v  786.2750 0.0000 23.9102
v  785.4410 0.0000 23.3574
v  784.4899 0.0000 22.8249
v  783.3905 0.0000 22.2991
v  782.2086 0.0000 22.8286
v  781.6412 0.0000 21.5510
v  780.1266 0.0000 21.0263
v  778.4800 0.0000 20.5095
v  777.0020 0.0000 21.0545
v  775.9305 0.0000 19.7989
v  773.7942 0.0000 18.6825
v  771.4314 0.0000 18.7361
v  769.6731 0.0000 18.3941
v  767.7670 0.0000 17.5055
v  765.7411 0.0000 17.8169
v  780.2073 0.0000 8.1997
v  759.7267 0.0000 18.1814
v  781.7985 0.0000 9.1381
v  778.4241 0.0000 8.2967
v  777.1432 0.0000 8.0111
v  775.8092 0.0000 7.1937
v  774.4544 0.0000 7.5072
v  773.5493 0.0000 7.3889
v  772.5911 0.0000 6.7659
v  771.9299 0.0000 8.2057
v  771.3473 0.0000 7.3227
v  770.4182 0.0000 7.4101
v  770.0867 0.0000 8.4172
v  769.2761 0.0000 7.6384
v  768.3823 0.0000 7.8831
v  768.2699 0.0000 8.9804
v  767.2679 0.0000 8.3219
v  766.4095 0.0000 8.7236
v  766.4894 0.0000 9.8923
v  765.3600 0.0000 9.3611
v  764.5967 0.0000 9.9010
v  763.8821 0.0000 10.5012
v  763.2228 0.0000 11.1568
v  762.6312 0.0000 11.8585
v  762.1138 0.0000 12.6015
v  761.6705 0.0000 13.3860
v  761.9429 0.0000 16.2534
v  782.9082 0.0000 8.5326
v  783.5073 0.0000 8.6747
v  784.0989 0.0000 9.6909
v  785.1868 0.0000 9.9393
v  785.9521 0.0000 10.0935
v  786.6668 0.0000 10.2173
v  787.3308 0.0000 10.3107
v  788.3203 0.0000 10.9534
v  789.6440 0.0000 11.0140
v  790.9541 0.0000 10.9786
v  792.4567 0.0000 10.7900
v  793.8900 0.0000 10.3910
v  794.6539 0.0000 9.3423
v  795.9080 0.0000 9.2937
v  796.4166 0.0000 8.0401
v  796.3290 0.0000 6.6730
v  758.4817 0.0000 18.0856
v  756.6505 0.0000 17.3072
v  755.5751 0.0000 18.7452
v  755.5751 10.0000 18.7452
v  767.7670 10.0000 17.5055
v  769.6731 10.0000 18.3941
v  771.4314 10.0000 18.7361
v  773.7942 10.0000 18.6825
v  775.9305 10.0000 19.7989
v  777.0020 10.0000 21.0545
v  778.4800 10.0000 20.5095
v  780.1266 10.0000 21.0263
v  781.6412 10.0000 21.5510
v  782.2086 10.0000 22.8286
v  783.3905 10.0000 22.2991
v  784.4899 10.0000 22.8249
v  785.4410 10.0000 23.3574
v  786.2750 10.0000 23.9102
v  787.0073 10.0000 24.4899
v  788.5184 10.0000 24.7560
v  790.1516 10.0000 25.6965
v  791.0930 10.0000 27.4139
v  789.8831 10.0000 29.0750
v  791.0032 10.0000 30.1083
v  788.4374 10.0000 31.3124
v  790.0825 10.0000 37.0464
v  788.4239 10.0000 42.8777
v  790.8973 10.0000 44.7698
v  789.5391 10.0000 46.5320
v  789.7188 10.0000 48.5789
v  788.3166 10.0000 50.7710
v  785.3914 10.0000 50.3181
v  783.8440 10.0000 49.3489
v  783.2350 10.0000 49.5219
v  782.5390 10.0000 49.6084
v  767.4589 10.0000 49.6301
v  764.1617 10.0000 36.5766
v  761.6705 10.0000 13.3860
v  756.6505 10.0000 17.3072
v  758.4817 10.0000 18.0856
v  759.7267 10.0000 18.1814
v  761.9428 10.0000 16.2534
v  762.1138 10.0000 12.6015
v  762.6312 10.0000 11.8585
v  763.2228 10.0000 11.1568
v  763.8821 10.0000 10.5012
v  764.5967 10.0000 9.9010
v  765.3600 10.0000 9.3611
v  766.4894 10.0000 9.8923
v  766.4095 10.0000 8.7236
v  767.2679 10.0000 8.3218
v  768.2699 10.0000 8.9804
v  768.3823 10.0000 7.8831
v  769.2761 10.0000 7.6384
v  770.0867 10.0000 8.4172
v  770.4182 10.0000 7.4101
v  771.3473 10.0000 7.3227
v  771.9299 10.0000 8.2057
v  772.5911 10.0000 6.7659
v  773.5493 10.0000 7.3889
v  774.4544 10.0000 7.5072
v  775.8092 10.0000 7.1937
v  777.1432 10.0000 8.0111
v  778.4241 10.0000 8.2967
v  780.2073 10.0000 8.1997
v  782.9082 10.0000 8.5326
v  796.3290 10.0000 6.6730
v  781.7985 10.0000 9.1381
v  796.4166 10.0000 8.0401
v  795.9080 10.0000 9.2937
v  794.6539 10.0000 9.3423
v  793.8900 10.0000 10.3910
v  792.4567 10.0000 10.7900
v  790.9541 10.0000 10.9786
v  789.6440 10.0000 11.0140
v  788.3203 10.0000 10.9534
v  787.3308 10.0000 10.3107
v  786.6668 10.0000 10.2173
v  785.9521 10.0000 10.0935
v  785.1868 10.0000 9.9393
v  784.0989 10.0000 9.6909
v  783.5073 10.0000 8.6747
# 677 vertices

vn -0.6304 -0.5899 -0.5046
vn -0.3015 -0.9045 -0.3015
vn -1.0000 0.0000 -0.0000
vn -0.3015 0.9045 -0.3015
vn -0.6304 0.5899 -0.5046
vn -0.5774 -0.5774 -0.5774
vn 0.0000 0.0000 -1.0000
vn -0.5774 0.5774 -0.5774
vn -0.5774 -0.5774 0.5774
vn -0.5774 0.5774 0.5774
vn 0.0276 -0.6985 0.7150
vn 0.0000 0.0000 1.0000
vn 0.0276 0.6985 0.7150
vn 0.1207 -0.6874 0.7161
vn 0.0770 0.0000 0.9970
vn 0.1207 0.6874 0.7161
vn 0.2586 -0.6842 0.6820
vn 0.2541 0.0000 0.9672
vn 0.2586 0.6842 0.6820
vn 0.4019 -0.6823 0.6107
vn 0.4510 0.0000 0.8925
vn 0.4019 0.6823 0.6107
vn 0.5283 -0.6828 0.5047
vn 0.6414 0.0000 0.7672
vn 0.5283 0.6828 0.5047
vn 0.6205 -0.6854 0.3812
vn 0.7957 0.0000 0.6057
vn 0.6205 0.6854 0.3812
vn 0.6764 -0.6889 0.2607
vn 0.9000 0.0000 0.4359
vn 0.6764 0.6889 0.2607
vn 0.7045 -0.6924 0.1560
vn 0.9597 0.0000 0.2810
vn 0.7045 0.6924 0.1560
vn 0.7152 -0.6953 0.0703
vn 0.9886 0.0000 0.1505
vn 0.7152 0.6953 0.0703
vn 0.7119 -0.7021 0.0159
vn 0.9990 0.0000 0.0447
vn 0.7119 0.7021 0.0159
vn 0.7110 -0.7031 -0.0129
vn 1.0000 0.0000 -0.0000
vn 0.7110 0.7031 -0.0129
vn 0.7136 -0.6985 -0.0536
vn 0.9993 0.0000 -0.0362
vn 0.7136 0.6985 -0.0536
vn 0.7077 -0.6977 -0.1112
vn 0.9935 0.0000 -0.1135
vn 0.7077 0.6977 -0.1112
vn 0.6959 -0.6971 -0.1727
vn 0.9805 0.0000 -0.1967
vn 0.6959 0.6971 -0.1727
vn 0.6773 -0.6965 -0.2371
vn 0.9586 0.0000 -0.2846
vn 0.6773 0.6965 -0.2371
vn 0.6512 -0.6960 -0.3024
vn 0.9269 0.0000 -0.3753
vn 0.6512 0.6960 -0.3024
vn 0.6175 -0.6958 -0.3668
vn 0.8847 0.0000 -0.4661
vn 0.6175 0.6958 -0.3668
vn 0.5768 -0.6958 -0.4280
vn 0.8325 0.0000 -0.5540
vn 0.5768 0.6958 -0.4280
vn 0.5303 -0.6960 -0.4841
vn 0.7715 0.0000 -0.6363
vn 0.5303 0.6960 -0.4841
vn 0.4787 -0.6958 -0.5355
vn 0.7038 0.0000 -0.7104
vn 0.4787 0.6958 -0.5355
vn 0.4246 -0.6973 -0.5776
vn 0.6274 0.0000 -0.7787
vn 0.4246 0.6973 -0.5776
vn 0.3764 -0.6993 -0.6076
vn 0.5560 0.0000 -0.8312
vn 0.3764 0.6993 -0.6076
vn 0.3369 -0.7009 -0.6287
vn 0.4967 0.0000 -0.8679
vn 0.3369 0.7009 -0.6287
vn 0.3043 -0.7020 -0.6438
vn 0.4477 0.0000 -0.8942
vn 0.3043 0.7020 -0.6438
vn 0.2771 -0.7029 -0.6551
vn 0.4067 0.0000 -0.9135
vn 0.2771 0.7029 -0.6551
vn 0.2542 -0.7036 -0.6636
vn 0.3723 0.0000 -0.9281
vn 0.2542 0.7036 -0.6636
vn 0.2348 -0.7041 -0.6701
vn 0.3431 0.0000 -0.9393
vn 0.2348 0.7041 -0.6701
vn 0.2181 -0.7046 -0.6753
vn 0.3181 0.0000 -0.9481
vn 0.2181 0.7046 -0.6753
vn 0.2043 -0.7052 -0.6790
vn 0.2964 0.0000 -0.9551
vn 0.2043 0.7052 -0.6790
vn 0.1930 -0.7054 -0.6821
vn 0.2798 0.0000 -0.9601
vn 0.1930 0.7053 -0.6821
vn 0.1817 -0.7051 -0.6854
vn 0.2647 0.0000 -0.9643
vn 0.1817 0.7051 -0.6854
vn 0.1688 -0.7049 -0.6890
vn 0.2477 0.0000 -0.9688
vn 0.1688 0.7049 -0.6890
vn 0.1541 -0.7046 -0.6927
vn 0.2283 0.0000 -0.9736
vn 0.1541 0.7046 -0.6927
vn 0.1372 -0.7042 -0.6967
vn 0.2061 0.0000 -0.9785
vn 0.1372 0.7042 -0.6967
vn 0.1175 -0.7037 -0.7007
vn 0.1803 0.0000 -0.9836
vn 0.1175 0.7037 -0.7007
vn 0.0942 -0.7031 -0.7048
vn 0.1503 0.0000 -0.9886
vn 0.0942 0.7031 -0.7048
vn 0.0667 -0.7024 -0.7087
vn 0.1148 0.0000 -0.9934
vn 0.0667 0.7024 -0.7087
vn 0.3232 -0.9029 -0.2833
vn 0.0725 0.0000 -0.9974
vn 0.3232 0.9029 -0.2833
vn 0.6877 -0.7212 0.0832
vn 0.9983 0.0000 0.0589
vn 0.6877 0.7212 0.0832
vn 0.6717 -0.7216 0.1678
vn 0.9835 0.0000 0.1807
vn 0.6717 0.7216 0.1678
vn 0.6453 -0.7215 0.2509
vn 0.9530 0.0000 0.3031
vn 0.6453 0.7215 0.2509
vn 0.6098 -0.7210 0.3289
vn 0.9074 0.0000 0.4204
vn 0.6098 0.7210 0.3289
vn 0.5676 -0.7202 0.3989
vn 0.8497 0.0000 0.5273
vn 0.5676 0.7202 0.3989
vn 0.5215 -0.7191 0.4593
vn 0.7840 0.0000 0.6208
vn 0.5215 0.7191 0.4593
vn 0.4740 -0.7179 0.5099
vn 0.7147 0.0000 0.6994
vn 0.4740 0.7179 0.5099
vn 0.4273 -0.7167 0.5511
vn 0.6455 0.0000 0.7638
vn 0.4273 0.7167 0.5511
vn 0.3873 -0.7141 0.5831
vn 0.5788 0.0000 0.8154
vn 0.3873 0.7141 0.5831
vn 0.3549 -0.7128 0.6050
vn 0.5273 0.0000 0.8497
vn 0.3549 0.7128 0.6050
vn 0.3227 -0.7132 0.6222
vn 0.4842 0.0000 0.8749
vn 0.3227 0.7132 0.6222
vn 0.2871 -0.7137 0.6389
vn 0.4363 0.0000 0.8998
vn 0.2871 0.7137 0.6389
vn 0.2478 -0.7142 0.6546
vn 0.3832 0.0000 0.9237
vn 0.2478 0.7142 0.6546
vn 0.2048 -0.7147 0.6688
vn 0.3246 0.0000 0.9458
vn 0.2048 0.7147 0.6688
vn 0.1581 -0.7152 0.6808
vn 0.2606 0.0000 0.9654
vn 0.1581 0.7152 0.6808
vn 0.1080 -0.7156 0.6901
vn 0.1914 0.0000 0.9815
vn 0.1080 0.7156 0.6901
vn 0.0550 -0.7160 0.6959
vn 0.1176 0.0000 0.9931
vn 0.0550 0.7160 0.6959
vn -0.0006 -0.7164 0.6977
vn 0.0399 0.0000 0.9992
vn -0.0006 0.7164 0.6977
vn -0.0501 -0.7139 0.6985
vn -0.0418 0.0000 0.9991
vn -0.0501 0.7139 0.6985
vn -0.0853 -0.7117 0.6973
vn -0.1013 0.0000 0.9949
vn -0.0853 0.7117 0.6973
vn -0.1097 -0.7104 0.6952
vn -0.1415 0.0000 0.9899
vn -0.1097 0.7104 0.6952
vn -0.1276 -0.7096 0.6930
vn -0.1702 0.0000 0.9854
vn -0.1276 0.7096 0.6930
vn -0.1412 -0.7090 0.6909
vn -0.1918 0.0000 0.9814
vn -0.1412 0.7090 0.6909
vn -0.1519 -0.7087 0.6890
vn -0.2086 0.0000 0.9780
vn -0.1519 0.7087 0.6890
vn -0.1605 -0.7084 0.6873
vn -0.2220 0.0000 0.9751
vn -0.1605 0.7084 0.6873
vn -0.1677 -0.7082 0.6859
vn -0.2329 0.0000 0.9725
vn -0.1677 0.7082 0.6859
vn -0.1700 -0.7067 0.6868
vn -0.2420 0.0000 0.9703
vn -0.1700 0.7067 0.6868
vn -0.1619 -0.7047 0.6908
vn -0.2385 0.0000 0.9711
vn -0.1619 0.7047 0.6908
vn -0.1467 -0.7046 0.6943
vn -0.2178 0.0000 0.9760
vn -0.1467 0.7046 0.6943
vn -0.1303 -0.7044 0.6978
vn -0.1956 0.0000 0.9807
vn -0.1303 0.7044 0.6978
vn -0.1126 -0.7042 0.7011
vn -0.1715 0.0000 0.9852
vn -0.1126 0.7042 0.7011
vn -0.0934 -0.7039 0.7041
vn -0.1456 0.0000 0.9893
vn -0.0934 0.7039 0.7041
vn -0.0727 -0.7037 0.7068
vn -0.1175 0.0000 0.9931
vn -0.0727 0.7037 0.7068
vn -0.0503 -0.7034 0.7090
vn -0.0872 0.0000 0.9962
vn -0.0503 0.7034 0.7090
vn -0.0260 -0.7031 0.7106
vn -0.0543 0.0000 0.9985
vn -0.0260 0.7031 0.7106
vn 0.0068 -0.7008 0.7133
vn -0.0188 0.0000 0.9998
vn 0.0068 0.7008 0.7133
vn 0.0560 -0.6981 0.7138
vn 0.0378 0.0000 0.9993
vn 0.0560 0.6981 0.7138
vn 0.1163 -0.6973 0.7073
vn 0.1186 0.0000 0.9929
vn 0.1163 0.6973 0.7073
vn 0.1805 -0.6966 0.6944
vn 0.2055 0.0000 0.9787
vn 0.1805 0.6966 0.6944
vn 0.2474 -0.6960 0.6741
vn 0.2971 0.0000 0.9548
vn 0.2474 0.6960 0.6741
vn 0.3149 -0.6956 0.6457
vn 0.3910 0.0000 0.9204
vn 0.3149 0.6956 0.6457
vn 0.3807 -0.6954 0.6095
vn 0.4843 0.0000 0.8749
vn 0.3807 0.6954 0.6095
vn 0.4425 -0.6955 0.5661
vn 0.5737 0.0000 0.8191
vn 0.4425 0.6955 0.5661
vn 0.4983 -0.6958 0.5172
vn 0.6562 0.0000 0.7546
vn 0.4983 0.6958 0.5172
vn 0.7951 -0.5969 0.1073
vn 0.7296 0.0000 0.6839
vn 0.7951 0.5969 0.1073
vn 0.1049 -0.5613 -0.8210
vn 0.1049 0.5613 -0.8210
vn -0.4838 -0.7207 -0.4965
vn -0.7391 0.0000 -0.6736
vn -0.4838 0.7207 -0.4965
vn -0.4219 -0.7206 -0.5502
vn -0.6541 0.0000 -0.7564
vn -0.4219 0.7206 -0.5502
vn -0.3557 -0.7201 -0.5957
vn -0.5607 0.0000 -0.8280
vn -0.3557 0.7201 -0.5957
vn -0.2883 -0.7194 -0.6320
vn -0.4631 0.0000 -0.8863
vn -0.2883 0.7194 -0.6320
vn -0.2221 -0.7184 -0.6592
vn -0.3657 0.0000 -0.9307
vn -0.2221 0.7184 -0.6592
vn -0.1592 -0.7174 -0.6783
vn -0.2720 0.0000 -0.9623
vn -0.1592 0.7174 -0.6783
vn -0.1011 -0.7163 -0.6904
vn -0.1846 0.0000 -0.9828
vn -0.1011 0.7163 -0.6904
vn -0.0482 -0.7153 -0.6972
vn -0.1048 0.0000 -0.9945
vn -0.0482 0.7153 -0.6972
vn 0.0014 -0.7151 -0.6991
vn -0.0330 0.0000 -0.9995
vn 0.0014 0.7151 -0.6991
vn 0.0463 -0.7137 -0.6989
vn 0.0369 0.0000 -0.9993
vn 0.0463 0.7137 -0.6989
vn 0.0823 -0.7121 -0.6972
vn 0.0953 0.0000 -0.9954
vn 0.0823 0.7121 -0.6972
vn 0.1097 -0.7110 -0.6946
vn 0.1390 0.0000 -0.9903
vn 0.1097 0.7110 -0.6946
vn 0.1311 -0.7102 -0.6917
vn 0.1728 0.0000 -0.9849
vn 0.1311 0.7102 -0.6917
vn 0.1484 -0.7096 -0.6888
vn 0.1997 0.0000 -0.9799
vn 0.1484 0.7096 -0.6888
vn 0.1625 -0.7092 -0.6860
vn 0.2214 0.0000 -0.9752
vn 0.1625 0.7092 -0.6860
vn 0.1742 -0.7089 -0.6835
vn 0.2394 0.0000 -0.9709
vn 0.1742 0.7089 -0.6835
vn 0.1841 -0.7086 -0.6812
vn 0.2545 0.0000 -0.9671
vn 0.1841 0.7086 -0.6812
vn 0.1881 -0.7068 -0.6820
vn 0.2674 0.0000 -0.9636
vn 0.1881 0.7068 -0.6820
vn 0.1815 -0.7052 -0.6854
vn 0.2643 0.0000 -0.9644
vn 0.1815 0.7052 -0.6854
vn 0.1690 -0.7049 -0.6889
vn 0.1690 0.7049 -0.6889
vn 0.1547 -0.7046 -0.6925
vn 0.2288 0.0000 -0.9735
vn 0.1547 0.7046 -0.6925
vn 0.1382 -0.7042 -0.6964
vn 0.2071 0.0000 -0.9783
vn 0.1382 0.7042 -0.6964
vn 0.1190 -0.7038 -0.7004
vn 0.1821 0.0000 -0.9833
vn 0.1190 0.7038 -0.7004
vn 0.0965 -0.7032 -0.7044
vn 0.1529 0.0000 -0.9882
vn 0.0965 0.7032 -0.7044
vn 0.0698 -0.7025 -0.7082
vn 0.1185 0.0000 -0.9930
vn 0.0698 0.7025 -0.7082
vn 0.0378 -0.7016 -0.7116
vn 0.0776 0.0000 -0.9970
vn 0.0378 0.7016 -0.7116
vn -0.0028 -0.6999 -0.7142
vn 0.0284 0.0000 -0.9996
vn -0.0028 0.6999 -0.7142
vn -0.0531 -0.6987 -0.7135
vn -0.0364 0.0000 -0.9993
vn -0.0531 0.6987 -0.7135
vn -0.1082 -0.6983 -0.7076
vn -0.1119 0.0000 -0.9937
vn -0.1082 0.6983 -0.7076
vn -0.1648 -0.6980 -0.6969
vn -0.1901 0.0000 -0.9818
vn -0.1648 0.6980 -0.6969
vn -0.2218 -0.6978 -0.6810
vn -0.2698 0.0000 -0.9629
vn -0.2218 0.6978 -0.6810
vn -0.2781 -0.6978 -0.6601
vn -0.3492 0.0000 -0.9371
vn -0.2781 0.6978 -0.6601
vn -0.3323 -0.6978 -0.6345
vn -0.4266 0.0000 -0.9044
vn -0.3323 0.6978 -0.6345
vn -0.3834 -0.6980 -0.6048
vn -0.5005 0.0000 -0.8658
vn -0.3834 0.6980 -0.6048
vn -0.4304 -0.6983 -0.5719
vn -0.5694 0.0000 -0.8221
vn -0.4304 0.6983 -0.5719
vn -0.4739 -0.6984 -0.5363
vn -0.6324 0.0000 -0.7746
vn -0.4739 0.6984 -0.5363
vn -0.5154 -0.6980 -0.4971
vn -0.6909 0.0000 -0.7230
vn -0.5154 0.6980 -0.4971
vn -0.5547 -0.6979 -0.4531
vn -0.7475 0.0000 -0.6643
vn -0.5547 0.6979 -0.4531
vn -0.5905 -0.6978 -0.4054
vn -0.8001 0.0000 -0.5999
vn -0.5905 0.6978 -0.4054
vn -0.6220 -0.6979 -0.3549
vn -0.8473 0.0000 -0.5311
vn -0.6220 0.6979 -0.3549
vn -0.6488 -0.6981 -0.3028
vn -0.8883 0.0000 -0.4592
vn -0.6488 0.6981 -0.3028
vn -0.6705 -0.6984 -0.2502
vn -0.9225 0.0000 -0.3859
vn -0.6705 0.6984 -0.2502
vn -0.6873 -0.6988 -0.1982
vn -0.9498 0.0000 -0.3127
vn -0.6873 0.6988 -0.1982
vn -0.6994 -0.6993 -0.1478
vn -0.9705 0.0000 -0.2411
vn -0.6994 0.6993 -0.1478
vn -0.6328 -0.5694 0.5247
vn -0.9851 0.0000 -0.1721
vn -0.6328 0.5694 0.5247
vn -0.0185 -0.7100 0.7039
vn -0.0133 0.0000 0.9999
vn -0.0185 0.7100 0.7039
vn -0.0365 -0.7100 0.7033
vn -0.0393 0.0000 0.9992
vn -0.0365 0.7100 0.7033
vn -0.0540 -0.7099 0.7023
vn -0.0645 0.0000 0.9979
vn -0.0540 0.7099 0.7023
vn -0.0709 -0.7098 0.7008
vn -0.0889 0.0000 0.9960
vn -0.0709 0.7098 0.7008
vn -0.0873 -0.7097 0.6991
vn -0.1125 0.0000 0.9937
vn -0.0873 0.7097 0.6991
vn -0.1031 -0.7096 0.6970
vn -0.1353 0.0000 0.9908
vn -0.1031 0.7096 0.6970
vn -0.1183 -0.7095 0.6947
vn -0.1573 0.0000 0.9876
vn -0.1183 0.7095 0.6947
vn -0.1330 -0.7095 0.6921
vn -0.1785 0.0000 0.9839
vn -0.1330 0.7095 0.6921
vn -0.1471 -0.7094 0.6893
vn -0.1989 0.0000 0.9800
vn -0.1471 0.7094 0.6893
vn -0.1615 -0.7096 0.6858
vn -0.2184 0.0000 0.9759
vn -0.1615 0.7096 0.6858
vn -0.1782 -0.7101 0.6811
vn -0.2401 0.0000 0.9708
vn -0.1782 0.7101 0.6811
vn -0.1983 -0.7108 0.6748
vn -0.2660 0.0000 0.9640
vn -0.1983 0.7108 0.6748
vn -0.2228 -0.7118 0.6661
vn -0.2976 0.0000 0.9547
vn -0.2228 0.7118 0.6661
vn -0.2535 -0.7131 0.6536
vn -0.3368 0.0000 0.9416
vn -0.2535 0.7131 0.6536
vn -0.2924 -0.7151 0.6349
vn -0.3862 0.0000 0.9224
vn -0.2924 0.7151 0.6349
vn -0.3426 -0.7181 0.6058
vn -0.4499 0.0000 0.8931
vn -0.3426 0.7181 0.6058
vn -0.4077 -0.7228 0.5581
vn -0.5335 0.0000 0.8458
vn -0.4077 0.7228 0.5581
vn -0.4817 -0.7242 0.4935
vn -0.6435 0.0000 0.7655
vn -0.4817 0.7242 0.4935
vn -0.5454 -0.7202 0.4288
vn -0.7496 0.0000 0.6619
vn -0.5454 0.7202 0.4288
vn -0.5903 -0.7195 0.3659
vn -0.8202 0.0000 0.5721
vn -0.5903 0.7195 0.3659
vn -0.6261 -0.7186 0.3027
vn -0.8772 0.0000 0.4800
vn -0.6261 0.7186 0.3027
vn -0.6532 -0.7176 0.2416
vn -0.9210 0.0000 0.3895
vn -0.6532 0.7176 0.2416
vn -0.6729 -0.7165 0.1840
vn -0.9529 0.0000 0.3034
vn -0.6729 0.7165 0.1840
vn -0.6862 -0.7155 0.1309
vn -0.9747 0.0000 0.2236
vn -0.6862 0.7155 0.1309
vn -0.6946 -0.7146 0.0826
vn -0.9886 0.0000 0.1508
vn -0.6946 0.7146 0.0826
vn -0.6993 -0.7138 0.0393
vn -0.9964 0.0000 0.0853
vn -0.6993 0.7138 0.0393
vn -0.7040 -0.7101 0.0094
vn -0.9996 0.0000 0.0268
vn -0.7040 0.7101 0.0094
vn -0.7000 -0.7138 -0.0207
vn -0.7000 0.7138 -0.0207
vn -0.6850 -0.7231 -0.0887
vn -0.9983 0.0000 -0.0591
vn -0.6850 0.7231 -0.0887
vn -0.6594 -0.7268 -0.1923
vn -0.9804 0.0000 -0.1972
vn -0.6594 0.7268 -0.1923
vn -0.6093 -0.7303 -0.3089
vn -0.9327 0.0000 -0.3608
vn -0.6093 0.7303 -0.3089
vn -0.5298 -0.7325 -0.4274
vn -0.8423 0.0000 -0.5391
vn -0.5298 0.7325 -0.4274
vn -0.4245 -0.7325 -0.5322
vn -0.7051 0.0000 -0.7091
vn -0.4245 0.7325 -0.5322
vn -0.3062 -0.7301 -0.6108
vn -0.5347 0.0000 -0.8451
vn -0.3062 0.7301 -0.6108
vn -0.1904 -0.7266 -0.6602
vn -0.3572 0.0000 -0.9340
vn -0.1904 0.7266 -0.6602
vn -0.0878 -0.7229 -0.6853
vn -0.1950 0.0000 -0.9808
vn -0.0878 0.7229 -0.6853
vn -0.0205 -0.7137 -0.7001
vn -0.0584 0.0000 -0.9983
vn -0.0205 0.7137 -0.7001
vn 0.3015 -0.9045 -0.3015
vn 0.3015 0.9045 -0.3015
vn 0.5149 -0.5666 -0.6433
vn 0.5149 0.5666 -0.6433
vn -0.2189 0.0000 -0.9757
vn 0.0000 -1.0000 -0.0000
vn 0.0000 1.0000 -0.0000
# 512 vertex normals

o To_Tong
g To_Tong
s 1
f 1//1 2//2 3//3 
f 2//2 4//4 3//3 
f 4//4 5//5 3//3 
f 5//5 1//1 3//3 
s 4
f 2//2 6//6 7//7 
f 6//6 8//8 7//7 
f 8//8 4//4 7//7 
f 4//4 2//2 7//7 
s 2
f 6//6 9//9 10//3 
f 9//9 11//10 10//3 
f 11//10 8//8 10//3 
f 8//8 6//6 10//3 
s 4
f 9//9 12//11 13//12 
f 12//11 14//13 13//12 
f 14//13 11//10 13//12 
f 11//10 9//9 13//12 
s 2
f 12//11 15//14 16//15 
f 15//14 17//16 16//15 
f 17//16 14//13 16//15 
f 14//13 12//11 16//15 
f 15//14 18//17 19//18 
f 18//17 20//19 19//18 
f 20//19 17//16 19//18 
f 17//16 15//14 19//18 
f 18//17 21//20 22//21 
f 21//20 23//22 22//21 
f 23//22 20//19 22//21 
f 20//19 18//17 22//21 
f 21//20 24//23 25//24 
f 24//23 26//25 25//24 
f 26//25 23//22 25//24 
f 23//22 21//20 25//24 
f 24//23 27//26 28//27 
f 27//26 29//28 28//27 
f 29//28 26//25 28//27 
f 26//25 24//23 28//27 
f 27//26 30//29 31//30 
f 30//29 32//31 31//30 
f 32//31 29//28 31//30 
f 29//28 27//26 31//30 
f 30//29 33//32 34//33 
f 33//32 35//34 34//33 
f 35//34 32//31 34//33 
f 32//31 30//29 34//33 
f 33//32 36//35 37//36 
f 36//35 38//37 37//36 
f 38//37 35//34 37//36 
f 35//34 33//32 37//36 
f 36//35 39//38 40//39 
f 39//38 41//40 40//39 
f 41//40 38//37 40//39 
f 38//37 36//35 40//39 
s 4
f 39//38 42//41 43//42 
f 42//41 44//43 43//42 
f 44//43 41//40 43//42 
f 41//40 39//38 43//42 
s 2
f 42//41 45//44 46//45 
f 45//44 47//46 46//45 
f 47//46 44//43 46//45 
f 44//43 42//41 46//45 
f 45//44 48//47 49//48 
f 48//47 50//49 49//48 
f 50//49 47//46 49//48 
f 47//46 45//44 49//48 
f 48//47 51//50 52//51 
f 51//50 53//52 52//51 
f 53//52 50//49 52//51 
f 50//49 48//47 52//51 
f 51//50 54//53 55//54 
f 54//53 56//55 55//54 
f 56//55 53//52 55//54 
f 53//52 51//50 55//54 
f 54//53 57//56 58//57 
f 57//56 59//58 58//57 
f 59//58 56//55 58//57 
f 56//55 54//53 58//57 
f 57//56 60//59 61//60 
f 60//59 62//61 61//60 
f 62//61 59//58 61//60 
f 59//58 57//56 61//60 
f 60//59 63//62 64//63 
f 63//62 65//64 64//63 
f 65//64 62//61 64//63 
f 62//61 60//59 64//63 
f 63//62 66//65 67//66 
f 66//65 68//67 67//66 
f 68//67 65//64 67//66 
f 65//64 63//62 67//66 
f 66//65 69//68 70//69 
f 69//68 71//70 70//69 
f 71//70 68//67 70//69 
f 68//67 66//65 70//69 
f 69//68 72//71 73//72 
f 72//71 74//73 73//72 
f 74//73 71//70 73//72 
f 71//70 69//68 73//72 
f 72//71 75//74 76//75 
f 75//74 77//76 76//75 
f 77//76 74//73 76//75 
f 74//73 72//71 76//75 
f 75//74 78//77 79//78 
f 78//77 80//79 79//78 
f 80//79 77//76 79//78 
f 77//76 75//74 79//78 
f 78//77 81//80 82//81 
f 81//80 83//82 82//81 
f 83//82 80//79 82//81 
f 80//79 78//77 82//81 
f 81//80 84//83 85//84 
f 84//83 86//85 85//84 
f 86//85 83//82 85//84 
f 83//82 81//80 85//84 
f 84//83 87//86 88//87 
f 87//86 89//88 88//87 
f 89//88 86//85 88//87 
f 86//85 84//83 88//87 
f 87//86 90//89 91//90 
f 90//89 92//91 91//90 
f 92//91 89//88 91//90 
f 89//88 87//86 91//90 
f 90//89 93//92 94//93 
f 93//92 95//94 94//93 
f 95//94 92//91 94//93 
f 92//91 90//89 94//93 
f 93//92 96//95 97//96 
f 96//95 98//97 97//96 
f 98//97 95//94 97//96 
f 95//94 93//92 97//96 
f 96//95 99//98 100//99 
f 99//98 101//100 100//99 
f 101//100 98//97 100//99 
f 98//97 96//95 100//99 
f 99//98 102//101 103//102 
f 102//101 104//103 103//102 
f 104//103 101//100 103//102 
f 101//100 99//98 103//102 
f 102//101 105//104 106//105 
f 105//104 107//106 106//105 
f 107//106 104//103 106//105 
f 104//103 102//101 106//105 
f 105//104 108//107 109//108 
f 108//107 110//109 109//108 
f 110//109 107//106 109//108 
f 107//106 105//104 109//108 
f 108//107 111//110 112//111 
f 111//110 113//112 112//111 
f 113//112 110//109 112//111 
f 110//109 108//107 112//111 
f 111//110 114//113 115//114 
f 114//113 116//115 115//114 
f 116//115 113//112 115//114 
f 113//112 111//110 115//114 
f 114//113 117//116 118//117 
f 117//116 119//118 118//117 
f 119//118 116//115 118//117 
f 116//115 114//113 118//117 
f 117//116 120//119 121//120 
f 120//119 122//121 121//120 
f 122//121 119//118 121//120 
f 119//118 117//116 121//120 
f 120//119 123//122 124//123 
f 123//122 125//124 124//123 
f 125//124 122//121 124//123 
f 122//121 120//119 124//123 
s 4
f 123//122 126//125 127//126 
f 126//125 128//127 127//126 
f 128//127 125//124 127//126 
f 125//124 123//122 127//126 
f 126//125 129//128 130//129 
f 129//128 131//130 130//129 
f 131//130 128//127 130//129 
f 128//127 126//125 130//129 
f 129//128 132//131 133//132 
f 132//131 134//133 133//132 
f 134//133 131//130 133//132 
f 131//130 129//128 133//132 
f 132//131 135//134 136//135 
f 135//134 137//136 136//135 
f 137//136 134//133 136//135 
f 134//133 132//131 136//135 
f 135//134 138//137 139//138 
f 138//137 140//139 139//138 
f 140//139 137//136 139//138 
f 137//136 135//134 139//138 
f 138//137 141//140 142//141 
f 141//140 143//142 142//141 
f 143//142 140//139 142//141 
f 140//139 138//137 142//141 
f 141//140 144//143 145//144 
f 144//143 146//145 145//144 
f 146//145 143//142 145//144 
f 143//142 141//140 145//144 
f 144//143 147//146 148//147 
f 147//146 149//148 148//147 
f 149//148 146//145 148//147 
f 146//145 144//143 148//147 
f 147//146 150//149 151//150 
f 150//149 152//151 151//150 
f 152//151 149//148 151//150 
f 149//148 147//146 151//150 
f 150//149 153//152 154//153 
f 153//152 155//154 154//153 
f 155//154 152//151 154//153 
f 152//151 150//149 154//153 
f 153//152 156//155 157//156 
f 156//155 158//157 157//156 
f 158//157 155//154 157//156 
f 155//154 153//152 157//156 
f 156//155 159//158 160//159 
f 159//158 161//160 160//159 
f 161//160 158//157 160//159 
f 158//157 156//155 160//159 
f 159//158 162//161 163//162 
f 162//161 164//163 163//162 
f 164//163 161//160 163//162 
f 161//160 159//158 163//162 
f 162//161 165//164 166//165 
f 165//164 167//166 166//165 
f 167//166 164//163 166//165 
f 164//163 162//161 166//165 
f 165//164 168//167 169//168 
f 168//167 170//169 169//168 
f 170//169 167//166 169//168 
f 167//166 165//164 169//168 
f 168//167 171//170 172//171 
f 171//170 173//172 172//171 
f 173//172 170//169 172//171 
f 170//169 168//167 172//171 
f 171//170 174//173 175//174 
f 174//173 176//175 175//174 
f 176//175 173//172 175//174 
f 173//172 171//170 175//174 
f 174//173 177//176 178//177 
f 177//176 179//178 178//177 
f 179//178 176//175 178//177 
f 176//175 174//173 178//177 
f 177//176 180//179 181//180 
f 180//179 182//181 181//180 
f 182//181 179//178 181//180 
f 179//178 177//176 181//180 
f 180//179 183//182 184//183 
f 183//182 185//184 184//183 
f 185//184 182//181 184//183 
f 182//181 180//179 184//183 
f 183//182 186//185 187//186 
f 186//185 188//187 187//186 
f 188//187 185//184 187//186 
f 185//184 183//182 187//186 
f 186//185 189//188 190//189 
f 189//188 191//190 190//189 
f 191//190 188//187 190//189 
f 188//187 186//185 190//189 
f 189//188 192//191 193//192 
f 192//191 194//193 193//192 
f 194//193 191//190 193//192 
f 191//190 189//188 193//192 
f 192//191 195//194 196//195 
f 195//194 197//196 196//195 
f 197//196 194//193 196//195 
f 194//193 192//191 196//195 
f 195//194 198//197 199//198 
f 198//197 200//199 199//198 
f 200//199 197//196 199//198 
f 197//196 195//194 199//198 
f 198//197 201//200 202//201 
f 201//200 203//202 202//201 
f 203//202 200//199 202//201 
f 200//199 198//197 202//201 
f 201//200 204//203 205//204 
f 204//203 206//205 205//204 
f 206//205 203//202 205//204 
f 203//202 201//200 205//204 
f 204//203 207//206 208//207 
f 207//206 209//208 208//207 
f 209//208 206//205 208//207 
f 206//205 204//203 208//207 
f 207//206 210//209 211//210 
f 210//209 212//211 211//210 
f 212//211 209//208 211//210 
f 209//208 207//206 211//210 
f 210//209 213//212 214//213 
f 213//212 215//214 214//213 
f 215//214 212//211 214//213 
f 212//211 210//209 214//213 
f 213//212 216//215 217//216 
f 216//215 218//217 217//216 
f 218//217 215//214 217//216 
f 215//214 213//212 217//216 
f 216//215 219//218 220//219 
f 219//218 221//220 220//219 
f 221//220 218//217 220//219 
f 218//217 216//215 220//219 
f 219//218 222//221 223//222 
f 222//221 224//223 223//222 
f 224//223 221//220 223//222 
f 221//220 219//218 223//222 
f 222//221 225//224 226//225 
f 225//224 227//226 226//225 
f 227//226 224//223 226//225 
f 224//223 222//221 226//225 
f 225//224 228//227 229//228 
f 228//227 230//229 229//228 
f 230//229 227//226 229//228 
f 227//226 225//224 229//228 
f 228//227 231//230 232//231 
f 231//230 233//232 232//231 
f 233//232 230//229 232//231 
f 230//229 228//227 232//231 
f 231//230 234//233 235//234 
f 234//233 236//235 235//234 
f 236//235 233//232 235//234 
f 233//232 231//230 235//234 
f 234//233 237//236 238//237 
f 237//236 239//238 238//237 
f 239//238 236//235 238//237 
f 236//235 234//233 238//237 
f 237//236 240//239 241//240 
f 240//239 242//241 241//240 
f 242//241 239//238 241//240 
f 239//238 237//236 241//240 
f 240//239 243//242 244//243 
f 243//242 245//244 244//243 
f 245//244 242//241 244//243 
f 242//241 240//239 244//243 
f 243//242 246//245 247//246 
f 246//245 248//247 247//246 
f 248//247 245//244 247//246 
f 245//244 243//242 247//246 
f 246//245 249//248 250//249 
f 249//248 251//250 250//249 
f 251//250 248//247 250//249 
f 248//247 246//245 250//249 
f 249//248 252//251 253//252 
f 252//251 254//253 253//252 
f 254//253 251//250 253//252 
f 251//250 249//248 253//252 
f 252//251 255//254 256//255 
f 255//254 257//256 256//255 
f 257//256 254//253 256//255 
f 254//253 252//251 256//255 
f 255//254 258//257 259//258 
f 258//257 260//259 259//258 
f 260//259 257//256 259//258 
f 257//256 255//254 259//258 
s 2
f 258//257 261//260 262//60 
f 261//260 263//261 262//60 
f 263//261 260//259 262//60 
f 260//259 258//257 262//60 
s 4
f 261//260 264//262 265//263 
f 264//262 266//264 265//263 
f 266//264 263//261 265//263 
f 263//261 261//260 265//263 
f 264//262 267//265 268//266 
f 267//265 269//267 268//266 
f 269//267 266//264 268//266 
f 266//264 264//262 268//266 
f 267//265 270//268 271//269 
f 270//268 272//270 271//269 
f 272//270 269//267 271//269 
f 269//267 267//265 271//269 
f 270//268 273//271 274//272 
f 273//271 275//273 274//272 
f 275//273 272//270 274//272 
f 272//270 270//268 274//272 
f 273//271 276//274 277//275 
f 276//274 278//276 277//275 
f 278//276 275//273 277//275 
f 275//273 273//271 277//275 
f 276//274 279//277 280//278 
f 279//277 281//279 280//278 
f 281//279 278//276 280//278 
f 278//276 276//274 280//278 
f 279//277 282//280 283//281 
f 282//280 284//282 283//281 
f 284//282 281//279 283//281 
f 281//279 279//277 283//281 
f 282//280 285//283 286//284 
f 285//283 287//285 286//284 
f 287//285 284//282 286//284 
f 284//282 282//280 286//284 
f 285//283 288//286 289//287 
f 288//286 290//288 289//287 
f 290//288 287//285 289//287 
f 287//285 285//283 289//287 
f 288//286 291//289 292//290 
f 291//289 293//291 292//290 
f 293//291 290//288 292//290 
f 290//288 288//286 292//290 
f 291//289 294//292 295//293 
f 294//292 296//294 295//293 
f 296//294 293//291 295//293 
f 293//291 291//289 295//293 
f 294//292 297//295 298//296 
f 297//295 299//297 298//296 
f 299//297 296//294 298//296 
f 296//294 294//292 298//296 
f 297//295 300//298 301//299 
f 300//298 302//300 301//299 
f 302//300 299//297 301//299 
f 299//297 297//295 301//299 
f 300//298 303//301 304//302 
f 303//301 305//303 304//302 
f 305//303 302//300 304//302 
f 302//300 300//298 304//302 
f 303//301 306//304 307//305 
f 306//304 308//306 307//305 
f 308//306 305//303 307//305 
f 305//303 303//301 307//305 
f 306//304 309//307 310//308 
f 309//307 311//309 310//308 
f 311//309 308//306 310//308 
f 308//306 306//304 310//308 
f 309//307 312//310 313//311 
f 312//310 314//312 313//311 
f 314//312 311//309 313//311 
f 311//309 309//307 313//311 
f 312//310 315//313 316//314 
f 315//313 317//315 316//314 
f 317//315 314//312 316//314 
f 314//312 312//310 316//314 
f 315//313 318//316 319//317 
f 318//316 320//318 319//317 
f 320//318 317//315 319//317 
f 317//315 315//313 319//317 
f 318//316 321//319 322//105 
f 321//319 323//320 322//105 
f 323//320 320//318 322//105 
f 320//318 318//316 322//105 
f 321//319 324//321 325//322 
f 324//321 326//323 325//322 
f 326//323 323//320 325//322 
f 323//320 321//319 325//322 
f 324//321 327//324 328//325 
f 327//324 329//326 328//325 
f 329//326 326//323 328//325 
f 326//323 324//321 328//325 
f 327//324 330//327 331//328 
f 330//327 332//329 331//328 
f 332//329 329//326 331//328 
f 329//326 327//324 331//328 
f 330//327 333//330 334//331 
f 333//330 335//332 334//331 
f 335//332 332//329 334//331 
f 332//329 330//327 334//331 
f 333//330 336//333 337//334 
f 336//333 338//335 337//334 
f 338//335 335//332 337//334 
f 335//332 333//330 337//334 
f 336//333 339//336 340//337 
f 339//336 341//338 340//337 
f 341//338 338//335 340//337 
f 338//335 336//333 340//337 
f 339//336 342//339 343//340 
f 342//339 344//341 343//340 
f 344//341 341//338 343//340 
f 341//338 339//336 343//340 
f 342//339 345//342 346//343 
f 345//342 347//344 346//343 
f 347//344 344//341 346//343 
f 344//341 342//339 346//343 
f 345//342 348//345 349//346 
f 348//345 350//347 349//346 
f 350//347 347//344 349//346 
f 347//344 345//342 349//346 
f 348//345 351//348 352//349 
f 351//348 353//350 352//349 
f 353//350 350//347 352//349 
f 350//347 348//345 352//349 
f 351//348 354//351 355//352 
f 354//351 356//353 355//352 
f 356//353 353//350 355//352 
f 353//350 351//348 355//352 
f 354//351 357//354 358//355 
f 357//354 359//356 358//355 
f 359//356 356//353 358//355 
f 356//353 354//351 358//355 
f 357//354 360//357 361//358 
f 360//357 362//359 361//358 
f 362//359 359//356 361//358 
f 359//356 357//354 361//358 
f 360//357 363//360 364//361 
f 363//360 365//362 364//361 
f 365//362 362//359 364//361 
f 362//359 360//357 364//361 
f 363//360 366//363 367//364 
f 366//363 368//365 367//364 
f 368//365 365//362 367//364 
f 365//362 363//360 367//364 
f 366//363 369//366 370//367 
f 369//366 371//368 370//367 
f 371//368 368//365 370//367 
f 368//365 366//363 370//367 
f 369//366 372//369 373//370 
f 372//369 374//371 373//370 
f 374//371 371//368 373//370 
f 371//368 369//366 373//370 
f 372//369 375//372 376//373 
f 375//372 377//374 376//373 
f 377//374 374//371 376//373 
f 374//371 372//369 376//373 
f 375//372 378//375 379//376 
f 378//375 380//377 379//376 
f 380//377 377//374 379//376 
f 377//374 375//372 379//376 
f 378//375 381//378 382//379 
f 381//378 383//380 382//379 
f 383//380 380//377 382//379 
f 380//377 378//375 382//379 
f 381//378 384//381 385//382 
f 384//381 386//383 385//382 
f 386//383 383//380 385//382 
f 383//380 381//378 385//382 
f 384//381 387//384 388//385 
f 387//384 389//386 388//385 
f 389//386 386//383 388//385 
f 386//383 384//381 388//385 
f 387//384 390//387 391//388 
f 390//387 392//389 391//388 
f 392//389 389//386 391//388 
f 389//386 387//384 391//388 
f 390//387 393//390 394//391 
f 393//390 395//392 394//391 
f 395//392 392//389 394//391 
f 392//389 390//387 394//391 
f 393//390 396//393 397//394 
f 396//393 398//395 397//394 
f 398//395 395//392 397//394 
f 395//392 393//390 397//394 
s 2
f 396//393 399//396 400//397 
f 399//396 401//398 400//397 
f 401//398 398//395 400//397 
f 398//395 396//393 400//397 
f 399//396 402//399 403//400 
f 402//399 404//401 403//400 
f 404//401 401//398 403//400 
f 401//398 399//396 403//400 
f 402//399 405//402 406//403 
f 405//402 407//404 406//403 
f 407//404 404//401 406//403 
f 404//401 402//399 406//403 
f 405//402 408//405 409//406 
f 408//405 410//407 409//406 
f 410//407 407//404 409//406 
f 407//404 405//402 409//406 
f 408//405 411//408 412//409 
f 411//408 413//410 412//409 
f 413//410 410//407 412//409 
f 410//407 408//405 412//409 
f 411//408 414//411 415//412 
f 414//411 416//413 415//412 
f 416//413 413//410 415//412 
f 413//410 411//408 415//412 
f 414//411 417//414 418//415 
f 417//414 419//416 418//415 
f 419//416 416//413 418//415 
f 416//413 414//411 418//415 
f 417//414 420//417 421//418 
f 420//417 422//419 421//418 
f 422//419 419//416 421//418 
f 419//416 417//414 421//418 
f 420//417 423//420 424//421 
f 423//420 425//422 424//421 
f 425//422 422//419 424//421 
f 422//419 420//417 424//421 
f 423//420 426//423 427//424 
f 426//423 428//425 427//424 
f 428//425 425//422 427//424 
f 425//422 423//420 427//424 
f 426//423 429//426 430//427 
f 429//426 431//428 430//427 
f 431//428 428//425 430//427 
f 428//425 426//423 430//427 
f 429//426 432//429 433//430 
f 432//429 434//431 433//430 
f 434//431 431//428 433//430 
f 431//428 429//426 433//430 
f 432//429 435//432 436//433 
f 435//432 437//434 436//433 
f 437//434 434//431 436//433 
f 434//431 432//429 436//433 
f 435//432 438//435 439//436 
f 438//435 440//437 439//436 
f 440//437 437//434 439//436 
f 437//434 435//432 439//436 
f 438//435 441//438 442//439 
f 441//438 443//440 442//439 
f 443//440 440//437 442//439 
f 440//437 438//435 442//439 
f 441//438 444//441 445//442 
f 444//441 446//443 445//442 
f 446//443 443//440 445//442 
f 443//440 441//438 445//442 
f 444//441 447//444 448//445 
f 447//444 449//446 448//445 
f 449//446 446//443 448//445 
f 446//443 444//441 448//445 
f 447//444 450//447 451//448 
f 450//447 452//449 451//448 
f 452//449 449//446 451//448 
f 449//446 447//444 451//448 
f 450//447 453//450 454//451 
f 453//450 455//452 454//451 
f 455//452 452//449 454//451 
f 452//449 450//447 454//451 
f 453//450 456//453 457//454 
f 456//453 458//455 457//454 
f 458//455 455//452 457//454 
f 455//452 453//450 457//454 
f 456//453 459//456 460//457 
f 459//456 461//458 460//457 
f 461//458 458//455 460//457 
f 458//455 456//453 460//457 
f 459//456 462//459 463//460 
f 462//459 464//461 463//460 
f 464//461 461//458 463//460 
f 461//458 459//456 463//460 
f 462//459 465//462 466//463 
f 465//462 467//464 466//463 
f 467//464 464//461 466//463 
f 464//461 462//459 466//463 
f 465//462 468//465 469//466 
f 468//465 470//467 469//466 
f 470//467 467//464 469//466 
f 467//464 465//462 469//466 
f 468//465 471//468 472//469 
f 471//468 473//470 472//469 
f 473//470 470//467 472//469 
f 470//467 468//465 472//469 
f 471//468 474//471 475//472 
f 474//471 476//473 475//472 
f 476//473 473//470 475//472 
f 473//470 471//468 475//472 
f 474//471 477//474 478//475 
f 477//474 479//476 478//475 
f 479//476 476//473 478//475 
f 476//473 474//471 478//475 
s 4
f 477//474 480//477 481//3 
f 480//477 482//478 481//3 
f 482//478 479//476 481//3 
f 479//476 477//474 481//3 
s 2
f 480//477 483//479 484//480 
f 483//479 485//481 484//480 
f 485//481 482//478 484//480 
f 482//478 480//477 484//480 
f 483//479 486//482 487//483 
f 486//482 488//484 487//483 
f 488//484 485//481 487//483 
f 485//481 483//479 487//483 
f 486//482 489//485 490//486 
f 489//485 491//487 490//486 
f 491//487 488//484 490//486 
f 488//484 486//482 490//486 
f 489//485 492//488 493//489 
f 492//488 494//490 493//489 
f 494//490 491//487 493//489 
f 491//487 489//485 493//489 
f 492//488 495//491 496//492 
f 495//491 497//493 496//492 
f 497//493 494//490 496//492 
f 494//490 492//488 496//492 
f 495//491 498//494 499//495 
f 498//494 500//496 499//495 
f 500//496 497//493 499//495 
f 497//493 495//491 499//495 
f 498//494 501//497 502//498 
f 501//497 503//499 502//498 
f 503//499 500//496 502//498 
f 500//496 498//494 502//498 
f 501//497 504//500 505//501 
f 504//500 506//502 505//501 
f 506//502 503//499 505//501 
f 503//499 501//497 505//501 
f 504//500 507//503 508//504 
f 507//503 509//505 508//504 
f 509//505 506//502 508//504 
f 506//502 504//500 508//504 
s 4
f 507//503 510//506 511//7 
f 510//506 512//507 511//7 
f 512//507 509//505 511//7 
f 509//505 507//503 511//7 
s 2
f 510//506 513//508 514//42 
f 513//508 515//509 514//42 
f 515//509 512//507 514//42 
f 512//507 510//506 514//42 
s 4
f 513//508 1//1 516//510 
f 1//1 5//5 516//510 
f 5//5 515//509 516//510 
f 515//509 513//508 516//510 
s 16
f 6//6 2//2 517//511 
f 2//2 12//11 517//511 
f 12//11 9//9 517//511 
f 9//9 6//6 517//511 
f 122//121 125//124 518//512 
f 125//124 413//410 518//512 
f 413//410 416//413 518//512 
f 416//413 122//121 518//512 
f 2//2 1//1 519//511 
f 1//1 513//508 519//511 
f 513//508 510//506 519//511 
f 510//506 2//2 519//511 
f 510//506 507//503 520//511 
f 507//503 12//11 520//511 
f 12//11 2//2 520//511 
f 2//2 510//506 520//511 
f 507//503 504//500 521//511 
f 504//500 12//11 521//511 
f 12//11 507//503 521//511 
f 504//500 501//497 522//511 
f 501//497 12//11 522//511 
f 12//11 504//500 522//511 
f 501//497 498//494 523//511 
f 498//494 12//11 523//511 
f 12//11 501//497 523//511 
f 498//494 495//491 524//511 
f 495//491 15//14 524//511 
f 15//14 12//11 524//511 
f 12//11 498//494 524//511 
f 495//491 492//488 525//511 
f 492//488 24//23 525//511 
f 24//23 21//20 525//511 
f 21//20 18//17 525//511 
f 18//17 15//14 525//511 
f 15//14 495//491 525//511 
f 492//488 489//485 526//511 
f 489//485 30//29 526//511 
f 30//29 27//26 526//511 
f 27//26 24//23 526//511 
f 24//23 492//488 526//511 
f 489//485 486//482 527//511 
f 486//482 33//32 527//511 
f 33//32 30//29 527//511 
f 30//29 489//485 527//511 
f 486//482 483//479 528//511 
f 483//479 39//38 528//511 
f 39//38 36//35 528//511 
f 36//35 33//32 528//511 
f 33//32 486//482 528//511 
f 483//479 480//477 529//511 
f 480//477 39//38 529//511 
f 39//38 483//479 529//511 
f 480//477 477//474 530//511 
f 477//474 42//41 530//511 
f 42//41 39//38 530//511 
f 39//38 480//477 530//511 
f 477//474 474//471 531//511 
f 474//471 42//41 531//511 
f 42//41 477//474 531//511 
f 474//471 471//468 532//511 
f 471//468 48//47 532//511 
f 48//47 45//44 532//511 
f 45//44 42//41 532//511 
f 42//41 474//471 532//511 
f 471//468 468//465 533//511 
f 468//465 51//50 533//511 
f 51//50 48//47 533//511 
f 48//47 471//468 533//511 
f 468//465 465//462 534//511 
f 465//462 60//59 534//511 
f 60//59 57//56 534//511 
f 57//56 54//53 534//511 
f 54//53 51//50 534//511 
f 51//50 468//465 534//511 
f 465//462 462//459 535//511 
f 462//459 69//68 535//511 
f 69//68 66//65 535//511 
f 66//65 63//62 535//511 
f 63//62 60//59 535//511 
f 60//59 465//462 535//511 
f 462//459 459//456 536//511 
f 459//456 75//74 536//511 
f 75//74 72//71 536//511 
f 72//71 69//68 536//511 
f 69//68 462//459 536//511 
f 459//456 456//453 537//511 
f 456//453 78//77 537//511 
f 78//77 75//74 537//511 
f 75//74 459//456 537//511 
f 456//453 453//450 538//511 
f 453//450 81//80 538//511 
f 81//80 78//77 538//511 
f 78//77 456//453 538//511 
f 453//450 450//447 539//511 
f 450//447 84//83 539//511 
f 84//83 81//80 539//511 
f 81//80 453//450 539//511 
f 450//447 447//444 540//511 
f 447//444 87//86 540//511 
f 87//86 84//83 540//511 
f 84//83 450//447 540//511 
f 447//444 444//441 541//511 
f 444//441 90//89 541//511 
f 90//89 87//86 541//511 
f 87//86 447//444 541//511 
f 444//441 441//438 542//511 
f 441//438 90//89 542//511 
f 90//89 444//441 542//511 
f 441//438 438//435 543//511 
f 438//435 93//92 543//511 
f 93//92 90//89 543//511 
f 90//89 441//438 543//511 
f 438//435 435//432 544//511 
f 435//432 96//95 544//511 
f 96//95 93//92 544//511 
f 93//92 438//435 544//511 
f 435//432 432//429 545//511 
f 432//429 99//98 545//511 
f 99//98 96//95 545//511 
f 96//95 435//432 545//511 
f 432//429 429//426 546//511 
f 429//426 99//98 546//511 
f 99//98 432//429 546//511 
f 429//426 426//423 547//511 
f 426//423 102//101 547//511 
f 102//101 99//98 547//511 
f 99//98 429//426 547//511 
f 426//423 423//420 548//511 
f 423//420 108//107 548//511 
f 108//107 105//104 548//511 
f 105//104 102//101 548//511 
f 102//101 426//423 548//511 
f 423//420 420//417 549//511 
f 420//417 111//110 549//511 
f 111//110 108//107 549//511 
f 108//107 423//420 549//511 
f 420//417 417//414 550//511 
f 417//414 114//113 550//511 
f 114//113 111//110 550//511 
f 111//110 420//417 550//511 
f 417//414 414//411 551//511 
f 414//411 120//119 551//511 
f 120//119 117//116 551//511 
f 117//116 114//113 551//511 
f 114//113 417//414 551//511 
f 414//411 411//408 552//511 
f 411//408 123//122 552//511 
f 123//122 120//119 552//511 
f 120//119 414//411 552//511 
f 318//316 315//313 553//511 
f 315//313 312//310 553//511 
f 312//310 198//197 553//511 
f 198//197 195//194 553//511 
f 195//194 318//316 553//511 
f 408//405 405//402 554//511 
f 405//402 384//381 554//511 
f 384//381 408//405 554//511 
f 312//310 309//307 555//511 
f 309//307 201//200 555//511 
f 201//200 198//197 555//511 
f 198//197 312//310 555//511 
f 195//194 192//191 556//511 
f 192//191 321//319 556//511 
f 321//319 318//316 556//511 
f 318//316 195//194 556//511 
f 192//191 189//188 557//511 
f 189//188 324//321 557//511 
f 324//321 321//319 557//511 
f 321//319 192//191 557//511 
f 189//188 186//185 558//511 
f 186//185 330//327 558//511 
f 330//327 327//324 558//511 
f 327//324 324//321 558//511 
f 324//321 189//188 558//511 
f 186//185 183//182 559//511 
f 183//182 333//330 559//511 
f 333//330 330//327 559//511 
f 330//327 186//185 559//511 
f 183//182 180//179 560//511 
f 180//179 336//333 560//511 
f 336//333 333//330 560//511 
f 333//330 183//182 560//511 
f 180//179 177//176 561//511 
f 177//176 342//339 561//511 
f 342//339 339//336 561//511 
f 339//336 336//333 561//511 
f 336//333 180//179 561//511 
f 177//176 174//173 562//511 
f 174//173 342//339 562//511 
f 342//339 177//176 562//511 
f 174//173 171//170 563//511 
f 171//170 345//342 563//511 
f 345//342 342//339 563//511 
f 342//339 174//173 563//511 
f 171//170 168//167 564//511 
f 168//167 348//345 564//511 
f 348//345 345//342 564//511 
f 345//342 171//170 564//511 
f 168//167 165//164 565//511 
f 165//164 348//345 565//511 
f 348//345 168//167 565//511 
f 165//164 162//161 566//511 
f 162//161 351//348 566//511 
f 351//348 348//345 566//511 
f 348//345 165//164 566//511 
f 162//161 159//158 567//511 
f 159//158 354//351 567//511 
f 354//351 351//348 567//511 
f 351//348 162//161 567//511 
f 159//158 156//155 568//511 
f 156//155 354//351 568//511 
f 354//351 159//158 568//511 
f 156//155 153//152 569//511 
f 153//152 357//354 569//511 
f 357//354 354//351 569//511 
f 354//351 156//155 569//511 
f 153//152 150//149 570//511 
f 150//149 360//357 570//511 
f 360//357 357//354 570//511 
f 357//354 153//152 570//511 
f 150//149 147//146 571//511 
f 147//146 360//357 571//511 
f 360//357 150//149 571//511 
f 147//146 144//143 572//511 
f 144//143 363//360 572//511 
f 363//360 360//357 572//511 
f 360//357 147//146 572//511 
f 144//143 141//140 573//511 
f 141//140 366//363 573//511 
f 366//363 363//360 573//511 
f 363//360 144//143 573//511 
f 141//140 138//137 574//511 
f 138//137 369//366 574//511 
f 369//366 366//363 574//511 
f 366//363 141//140 574//511 
f 138//137 135//134 575//511 
f 135//134 372//369 575//511 
f 372//369 369//366 575//511 
f 369//366 138//137 575//511 
f 135//134 132//131 576//511 
f 132//131 375//372 576//511 
f 375//372 372//369 576//511 
f 372//369 135//134 576//511 
f 132//131 129//128 577//511 
f 129//128 378//375 577//511 
f 378//375 375//372 577//511 
f 375//372 132//131 577//511 
f 129//128 126//125 578//511 
f 126//125 381//378 578//511 
f 381//378 378//375 578//511 
f 378//375 129//128 578//511 
f 126//125 123//122 579//511 
f 123//122 411//408 579//511 
f 411//408 408//405 579//511 
f 408//405 384//381 579//511 
f 384//381 381//378 579//511 
f 381//378 126//125 579//511 
f 309//307 306//304 580//511 
f 306//304 201//200 580//511 
f 201//200 309//307 580//511 
f 306//304 303//301 581//511 
f 303//301 201//200 581//511 
f 201//200 306//304 581//511 
f 303//301 300//298 582//511 
f 300//298 204//203 582//511 
f 204//203 201//200 582//511 
f 201//200 303//301 582//511 
f 300//298 297//295 583//511 
f 297//295 207//206 583//511 
f 207//206 204//203 583//511 
f 204//203 300//298 583//511 
f 297//295 294//292 584//511 
f 294//292 210//209 584//511 
f 210//209 207//206 584//511 
f 207//206 297//295 584//511 
f 294//292 291//289 585//511 
f 291//289 213//212 585//511 
f 213//212 210//209 585//511 
f 210//209 294//292 585//511 
f 291//289 288//286 586//511 
f 288//286 216//215 586//511 
f 216//215 213//212 586//511 
f 213//212 291//289 586//511 
f 288//286 285//283 587//511 
f 285//283 222//221 587//511 
f 222//221 219//218 587//511 
f 219//218 216//215 587//511 
f 216//215 288//286 587//511 
f 285//283 282//280 588//511 
f 282//280 228//227 588//511 
f 228//227 225//224 588//511 
f 225//224 222//221 588//511 
f 222//221 285//283 588//511 
f 282//280 279//277 589//511 
f 279//277 234//233 589//511 
f 234//233 231//230 589//511 
f 231//230 228//227 589//511 
f 228//227 282//280 589//511 
f 279//277 276//274 590//511 
f 276//274 240//239 590//511 
f 240//239 237//236 590//511 
f 237//236 234//233 590//511 
f 234//233 279//277 590//511 
f 276//274 273//271 591//511 
f 273//271 246//245 591//511 
f 246//245 243//242 591//511 
f 243//242 240//239 591//511 
f 240//239 276//274 591//511 
f 273//271 270//268 592//511 
f 270//268 249//248 592//511 
f 249//248 246//245 592//511 
f 246//245 273//271 592//511 
f 270//268 267//265 593//511 
f 267//265 255//254 593//511 
f 255//254 252//251 593//511 
f 252//251 249//248 593//511 
f 249//248 270//268 593//511 
f 267//265 264//262 594//511 
f 264//262 258//257 594//511 
f 258//257 255//254 594//511 
f 255//254 267//265 594//511 
f 264//262 261//260 595//511 
f 261//260 258//257 595//511 
f 258//257 264//262 595//511 
f 405//402 402//399 596//511 
f 402//399 384//381 596//511 
f 384//381 405//402 596//511 
f 402//399 399//396 597//511 
f 399//396 390//387 597//511 
f 390//387 387//384 597//511 
f 387//384 384//381 597//511 
f 384//381 402//399 597//511 
f 399//396 396//393 598//511 
f 396//393 393//390 598//511 
f 393//390 390//387 598//511 
f 390//387 399//396 598//511 
f 392//389 395//392 599//512 
f 395//392 398//395 599//512 
f 398//395 401//398 599//512 
f 401//398 392//389 599//512 
f 416//413 419//416 600//512 
f 419//416 116//115 600//512 
f 116//115 119//118 600//512 
f 119//118 122//121 600//512 
f 122//121 416//413 600//512 
f 419//416 422//419 601//512 
f 422//419 113//112 601//512 
f 113//112 116//115 601//512 
f 116//115 419//416 601//512 
f 422//419 425//422 602//512 
f 425//422 110//109 602//512 
f 110//109 113//112 602//512 
f 113//112 422//419 602//512 
f 425//422 428//425 603//512 
f 428//425 104//103 603//512 
f 104//103 107//106 603//512 
f 107//106 110//109 603//512 
f 110//109 425//422 603//512 
f 428//425 431//428 604//512 
f 431//428 101//100 604//512 
f 101//100 104//103 604//512 
f 104//103 428//425 604//512 
f 431//428 434//431 605//512 
f 434//431 101//100 605//512 
f 101//100 431//428 605//512 
f 434//431 437//434 606//512 
f 437//434 98//97 606//512 
f 98//97 101//100 606//512 
f 101//100 434//431 606//512 
f 437//434 440//437 607//512 
f 440//437 95//94 607//512 
f 95//94 98//97 607//512 
f 98//97 437//434 607//512 
f 440//437 443//440 608//512 
f 443//440 92//91 608//512 
f 92//91 95//94 608//512 
f 95//94 440//437 608//512 
f 443//440 446//443 609//512 
f 446//443 92//91 609//512 
f 92//91 443//440 609//512 
f 446//443 449//446 610//512 
f 449//446 89//88 610//512 
f 89//88 92//91 610//512 
f 92//91 446//443 610//512 
f 449//446 452//449 611//512 
f 452//449 86//85 611//512 
f 86//85 89//88 611//512 
f 89//88 449//446 611//512 
f 452//449 455//452 612//512 
f 455//452 83//82 612//512 
f 83//82 86//85 612//512 
f 86//85 452//449 612//512 
f 455//452 458//455 613//512 
f 458//455 80//79 613//512 
f 80//79 83//82 613//512 
f 83//82 455//452 613//512 
f 458//455 461//458 614//512 
f 461//458 77//76 614//512 
f 77//76 80//79 614//512 
f 80//79 458//455 614//512 
f 461//458 464//461 615//512 
f 464//461 71//70 615//512 
f 71//70 74//73 615//512 
f 74//73 77//76 615//512 
f 77//76 461//458 615//512 
f 464//461 467//464 616//512 
f 467//464 62//61 616//512 
f 62//61 65//64 616//512 
f 65//64 68//67 616//512 
f 68//67 71//70 616//512 
f 71//70 464//461 616//512 
f 467//464 470//467 617//512 
f 470//467 53//52 617//512 
f 53//52 56//55 617//512 
f 56//55 59//58 617//512 
f 59//58 62//61 617//512 
f 62//61 467//464 617//512 
f 470//467 473//470 618//512 
f 473//470 50//49 618//512 
f 50//49 53//52 618//512 
f 53//52 470//467 618//512 
f 473//470 476//473 619//512 
f 476//473 44//43 619//512 
f 44//43 47//46 619//512 
f 47//46 50//49 619//512 
f 50//49 473//470 619//512 
f 476//473 479//476 620//512 
f 479//476 44//43 620//512 
f 44//43 476//473 620//512 
f 479//476 482//478 621//512 
f 482//478 41//40 621//512 
f 41//40 44//43 621//512 
f 44//43 479//476 621//512 
f 482//478 485//481 622//512 
f 485//481 41//40 622//512 
f 41//40 482//478 622//512 
f 485//481 488//484 623//512 
f 488//484 35//34 623//512 
f 35//34 38//37 623//512 
f 38//37 41//40 623//512 
f 41//40 485//481 623//512 
f 488//484 491//487 624//512 
f 491//487 32//31 624//512 
f 32//31 35//34 624//512 
f 35//34 488//484 624//512 
f 491//487 494//490 625//512 
f 494//490 26//25 625//512 
f 26//25 29//28 625//512 
f 29//28 32//31 625//512 
f 32//31 491//487 625//512 
f 494//490 497//493 626//512 
f 497//493 17//16 626//512 
f 17//16 20//19 626//512 
f 20//19 23//22 626//512 
f 23//22 26//25 626//512 
f 26//25 494//490 626//512 
f 497//493 500//496 627//512 
f 500//496 14//13 627//512 
f 14//13 17//16 627//512 
f 17//16 497//493 627//512 
f 500//496 503//499 628//512 
f 503//499 14//13 628//512 
f 14//13 500//496 628//512 
f 503//499 506//502 629//512 
f 506//502 14//13 629//512 
f 14//13 503//499 629//512 
f 506//502 509//505 630//512 
f 509//505 14//13 630//512 
f 14//13 506//502 630//512 
f 509//505 512//507 631//512 
f 512//507 4//4 631//512 
f 4//4 8//8 631//512 
f 8//8 11//10 631//512 
f 11//10 14//13 631//512 
f 14//13 509//505 631//512 
f 512//507 515//509 632//512 
f 515//509 5//5 632//512 
f 5//5 4//4 632//512 
f 4//4 512//507 632//512 
f 128//127 131//130 633//512 
f 131//130 380//377 633//512 
f 380//377 383//380 633//512 
f 383//380 128//127 633//512 
f 401//398 404//401 634//512 
f 404//401 386//383 634//512 
f 386//383 389//386 634//512 
f 389//386 392//389 634//512 
f 392//389 401//398 634//512 
f 404//401 407//404 635//512 
f 407//404 386//383 635//512 
f 386//383 404//401 635//512 
f 407//404 410//407 636//512 
f 410//407 386//383 636//512 
f 386//383 407//404 636//512 
f 410//407 413//410 637//512 
f 413//410 125//124 637//512 
f 125//124 128//127 637//512 
f 128//127 383//380 637//512 
f 383//380 386//383 637//512 
f 386//383 410//407 637//512 
f 131//130 134//133 638//512 
f 134//133 377//374 638//512 
f 377//374 380//377 638//512 
f 380//377 131//130 638//512 
f 134//133 137//136 639//512 
f 137//136 374//371 639//512 
f 374//371 377//374 639//512 
f 377//374 134//133 639//512 
f 137//136 140//139 640//512 
f 140//139 371//368 640//512 
f 371//368 374//371 640//512 
f 374//371 137//136 640//512 
f 140//139 143//142 641//512 
f 143//142 368//365 641//512 
f 368//365 371//368 641//512 
f 371//368 140//139 641//512 
f 143//142 146//145 642//512 
f 146//145 365//362 642//512 
f 365//362 368//365 642//512 
f 368//365 143//142 642//512 
f 146//145 149//148 643//512 
f 149//148 362//359 643//512 
f 362//359 365//362 643//512 
f 365//362 146//145 643//512 
f 149//148 152//151 644//512 
f 152//151 362//359 644//512 
f 362//359 149//148 644//512 
f 152//151 155//154 645//512 
f 155//154 359//356 645//512 
f 359//356 362//359 645//512 
f 362//359 152//151 645//512 
f 155//154 158//157 646//512 
f 158//157 356//353 646//512 
f 356//353 359//356 646//512 
f 359//356 155//154 646//512 
f 158//157 161//160 647//512 
f 161//160 356//353 647//512 
f 356//353 158//157 647//512 
f 161//160 164//163 648//512 
f 164//163 353//350 648//512 
f 353//350 356//353 648//512 
f 356//353 161//160 648//512 
f 164//163 167//166 649//512 
f 167//166 350//347 649//512 
f 350//347 353//350 649//512 
f 353//350 164//163 649//512 
f 167//166 170//169 650//512 
f 170//169 350//347 650//512 
f 350//347 167//166 650//512 
f 170//169 173//172 651//512 
f 173//172 347//344 651//512 
f 347//344 350//347 651//512 
f 350//347 170//169 651//512 
f 173//172 176//175 652//512 
f 176//175 344//341 652//512 
f 344//341 347//344 652//512 
f 347//344 173//172 652//512 
f 176//175 179//178 653//512 
f 179//178 344//341 653//512 
f 344//341 176//175 653//512 
f 179//178 182//181 654//512 
f 182//181 338//335 654//512 
f 338//335 341//338 654//512 
f 341//338 344//341 654//512 
f 344//341 179//178 654//512 
f 182//181 185//184 655//512 
f 185//184 335//332 655//512 
f 335//332 338//335 655//512 
f 338//335 182//181 655//512 
f 185//184 188//187 656//512 
f 188//187 332//329 656//512 
f 332//329 335//332 656//512 
f 335//332 185//184 656//512 
f 188//187 191//190 657//512 
f 191//190 326//323 657//512 
f 326//323 329//326 657//512 
f 329//326 332//329 657//512 
f 332//329 188//187 657//512 
f 191//190 194//193 658//512 
f 194//193 323//320 658//512 
f 323//320 326//323 658//512 
f 326//323 191//190 658//512 
f 194//193 197//196 659//512 
f 197//196 320//318 659//512 
f 320//318 323//320 659//512 
f 323//320 194//193 659//512 
f 197//196 200//199 660//512 
f 200//199 314//312 660//512 
f 314//312 317//315 660//512 
f 317//315 320//318 660//512 
f 320//318 197//196 660//512 
f 203//202 308//306 661//512 
f 308//306 311//309 661//512 
f 311//309 203//202 661//512 
f 260//259 263//261 662//512 
f 263//261 266//264 662//512 
f 266//264 260//259 662//512 
f 311//309 314//312 663//512 
f 314//312 200//199 663//512 
f 200//199 203//202 663//512 
f 203//202 311//309 663//512 
f 266//264 269//267 664//512 
f 269//267 257//256 664//512 
f 257//256 260//259 664//512 
f 260//259 266//264 664//512 
f 269//267 272//270 665//512 
f 272//270 251//250 665//512 
f 251//250 254//253 665//512 
f 254//253 257//256 665//512 
f 257//256 269//267 665//512 
f 272//270 275//273 666//512 
f 275//273 248//247 666//512 
f 248//247 251//250 666//512 
f 251//250 272//270 666//512 
f 275//273 278//276 667//512 
f 278//276 242//241 667//512 
f 242//241 245//244 667//512 
f 245//244 248//247 667//512 
f 248//247 275//273 667//512 
f 278//276 281//279 668//512 
f 281//279 236//235 668//512 
f 236//235 239//238 668//512 
f 239//238 242//241 668//512 
f 242//241 278//276 668//512 
f 281//279 284//282 669//512 
f 284//282 230//229 669//512 
f 230//229 233//232 669//512 
f 233//232 236//235 669//512 
f 236//235 281//279 669//512 
f 284//282 287//285 670//512 
f 287//285 224//223 670//512 
f 224//223 227//226 670//512 
f 227//226 230//229 670//512 
f 230//229 284//282 670//512 
f 287//285 290//288 671//512 
f 290//288 218//217 671//512 
f 218//217 221//220 671//512 
f 221//220 224//223 671//512 
f 224//223 287//285 671//512 
f 290//288 293//291 672//512 
f 293//291 215//214 672//512 
f 215//214 218//217 672//512 
f 218//217 290//288 672//512 
f 293//291 296//294 673//512 
f 296//294 212//211 673//512 
f 212//211 215//214 673//512 
f 215//214 293//291 673//512 
f 296//294 299//297 674//512 
f 299//297 209//208 674//512 
f 209//208 212//211 674//512 
f 212//211 296//294 674//512 
f 299//297 302//300 675//512 
f 302//300 206//205 675//512 
f 206//205 209//208 675//512 
f 209//208 299//297 675//512 
f 302//300 305//303 676//512 
f 305//303 203//202 676//512 
f 203//202 206//205 676//512 
f 206//205 302//300 676//512 
f 305//303 308//306 677//512 
f 308//306 203//202 677//512 
f 203//202 305//303 677//512 
# 0 polygons - 1350 triangles

