# 3ds Max Wavefront OBJ Exporter v0.97b - (c)2007 guruware
# File Created: 20.02.2021 17:45:24

#
# object Mo_Maa
#

v  825.0845 0.0000 54.0198
v  826.3747 0.0000 50.6557
v  825.7296 5.0000 52.3377
v  826.3747 10.0000 50.6557
v  825.0845 10.0000 54.0198
v  827.7810 0.0000 47.5769
v  827.0778 5.0000 49.1163
v  827.7810 10.0000 47.5769
v  829.3035 0.0000 44.7833
v  828.5422 5.0000 46.1801
v  829.3035 10.0000 44.7833
v  830.9421 0.0000 42.2751
v  830.1228 5.0000 43.5292
v  830.9421 10.0000 42.2751
v  832.6968 0.0000 40.0521
v  831.8195 5.0000 41.1636
v  832.6968 10.0000 40.0521
v  834.5677 0.0000 38.1145
v  833.6323 5.0000 39.0833
v  834.5677 10.0000 38.1145
v  836.5549 0.0000 36.4621
v  835.5613 5.0000 37.2883
v  836.5549 10.0000 36.4621
v  838.6581 0.0000 35.0950
v  837.6064 5.0000 35.7786
v  838.6581 10.0000 35.0950
v  840.8774 0.0000 34.0132
v  839.7678 5.0000 34.5541
v  840.8774 10.0000 34.0132
v  840.8774 0.0000 43.4794
v  840.8774 5.0000 38.7463
v  840.8774 10.0000 43.4794
v  840.9077 0.0000 44.4265
v  840.8926 5.0000 43.9529
v  840.9077 10.0000 44.4265
v  840.9985 0.0000 45.3514
v  840.9531 5.0000 44.8890
v  840.9985 10.0000 45.3514
v  841.1497 0.0000 46.2542
v  841.0741 5.0000 45.8028
v  841.1497 10.0000 46.2542
v  841.3615 0.0000 47.1349
v  841.2556 5.0000 46.6946
v  841.3615 10.0000 47.1349
v  841.6337 0.0000 47.9934
v  841.4976 5.0000 47.5642
v  841.6337 10.0000 47.9934
v  841.9664 0.0000 48.8298
v  841.8000 5.0000 48.4116
v  841.9664 10.0000 48.8298
v  842.3597 0.0000 49.6440
v  842.1631 5.0000 49.2369
v  842.3597 10.0000 49.6440
v  842.8134 0.0000 50.4361
v  842.5865 5.0000 50.0401
v  842.8134 10.0000 50.4361
v  843.3276 0.0000 51.2061
v  843.0706 5.0000 50.8211
v  843.3276 10.0000 51.2061
v  843.9039 0.0000 51.9228
v  843.6158 5.0000 51.5644
v  843.9039 10.0000 51.9228
v  844.5436 0.0000 52.5552
v  844.2238 5.0000 52.2390
v  844.5436 10.0000 52.5552
v  845.2468 0.0000 53.1033
v  844.8952 5.0000 52.8292
v  845.2468 10.0000 53.1033
v  846.0134 0.0000 53.5670
v  845.6301 5.0000 53.3351
v  846.0134 10.0000 53.5670
v  846.8436 0.0000 53.9464
v  846.4285 5.0000 53.7567
v  846.8436 10.0000 53.9464
v  847.7372 0.0000 54.2416
v  847.2904 5.0000 54.0940
v  847.7372 10.0000 54.2416
v  848.6943 0.0000 54.4524
v  848.2158 5.0000 54.3470
v  848.6943 10.0000 54.4524
v  849.7149 0.0000 54.5788
v  849.2047 5.0000 54.5156
v  849.7149 10.0000 54.5788
v  850.7990 0.0000 54.6210
v  850.2570 5.0000 54.5999
v  850.7990 10.0000 54.6210
v  852.0128 0.0000 54.5682
v  851.4059 5.0000 54.5946
v  852.0128 10.0000 54.5682
v  853.1541 0.0000 54.4097
v  852.5834 5.0000 54.4890
v  853.1541 10.0000 54.4097
v  854.2230 0.0000 54.1457
v  853.6885 5.0000 54.2777
v  854.2230 10.0000 54.1457
v  855.2195 0.0000 53.7760
v  854.7213 5.0000 53.9608
v  855.2195 10.0000 53.7760
v  856.1436 0.0000 53.3007
v  855.6815 5.0000 53.5384
v  856.1436 10.0000 53.3007
v  856.9952 0.0000 52.7198
v  856.5694 5.0000 53.0102
v  856.9952 10.0000 52.7198
v  857.7744 0.0000 52.0332
v  857.3848 5.0000 52.3765
v  857.7744 10.0000 52.0332
v  858.4812 0.0000 51.2410
v  858.1278 5.0000 51.6371
v  858.4812 10.0000 51.2410
v  859.1155 0.0000 50.3432
v  858.7984 5.0000 50.7921
v  859.1155 10.0000 50.3432
v  859.6805 0.0000 49.3755
v  859.3980 5.0000 49.8594
v  859.6805 10.0000 49.3755
v  860.1790 0.0000 48.3736
v  859.9297 5.0000 48.8745
v  860.1790 10.0000 48.3736
v  860.6110 0.0000 47.3375
v  860.3950 5.0000 47.8555
v  860.6110 10.0000 47.3375
v  860.9765 0.0000 46.2672
v  860.7937 5.0000 46.8023
v  860.9765 10.0000 46.2672
v  861.2756 0.0000 45.1627
v  861.1260 5.0000 45.7150
v  861.2756 10.0000 45.1627
v  861.5082 0.0000 44.0240
v  861.3918 5.0000 44.5934
v  861.5082 10.0000 44.0240
v  861.6743 0.0000 42.8512
v  861.5912 5.0000 43.4376
v  861.6743 10.0000 42.8512
v  861.7740 0.0000 41.6441
v  861.7242 5.0000 42.2476
v  861.7740 10.0000 41.6441
v  861.8073 0.0000 40.4028
v  861.7906 5.0000 41.0235
v  861.8073 10.0000 40.4028
v  861.7709 0.0000 39.0535
v  861.7891 5.0000 39.7281
v  861.7709 10.0000 39.0535
v  861.6620 0.0000 37.7637
v  861.7164 5.0000 38.4086
v  861.6620 10.0000 37.7637
v  861.4803 0.0000 36.5334
v  861.5712 5.0000 37.1485
v  861.4803 10.0000 36.5334
v  861.2261 0.0000 35.3627
v  861.3532 5.0000 35.9480
v  861.2261 10.0000 35.3627
v  860.8992 0.0000 34.2515
v  861.0627 5.0000 34.8071
v  860.8992 10.0000 34.2515
v  860.4997 0.0000 33.1998
v  860.6995 5.0000 33.7257
v  860.4997 10.0000 33.1998
v  860.0275 0.0000 32.2077
v  860.2636 5.0000 32.7038
v  860.0275 10.0000 32.2077
v  859.4827 0.0000 31.2751
v  859.7551 5.0000 31.7414
v  859.4827 10.0000 31.2751
v  858.8652 0.0000 30.4021
v  859.1740 5.0000 30.8386
v  858.8652 10.0000 30.4021
v  858.1833 0.0000 29.6056
v  858.5243 5.0000 30.0038
v  858.1833 10.0000 29.6056
v  857.4449 0.0000 28.9029
v  857.8141 5.0000 29.2543
v  857.4449 10.0000 28.9029
v  856.6503 0.0000 28.2938
v  857.0476 5.0000 28.5984
v  856.6503 10.0000 28.2938
v  855.7992 0.0000 27.7785
v  856.2247 5.0000 28.0362
v  855.7992 10.0000 27.7785
v  854.8918 0.0000 27.3569
v  855.3455 5.0000 27.5677
v  854.8918 10.0000 27.3569
v  853.9280 0.0000 27.0289
v  854.4099 5.0000 27.1929
v  853.9280 10.0000 27.0289
v  852.9078 0.0000 26.7947
v  853.4179 5.0000 26.9118
v  852.9078 10.0000 26.7947
v  851.8313 0.0000 26.6541
v  852.3696 5.0000 26.7244
v  851.8313 10.0000 26.6541
v  850.6984 0.0000 26.6073
v  851.2648 5.0000 26.6307
v  850.6984 10.0000 26.6073
v  850.6984 0.0000 4.7115
v  850.6984 5.0000 15.6594
v  850.6984 10.0000 4.7115
v  840.8774 0.0000 4.7115
v  845.7879 5.0000 4.7115
v  840.8774 10.0000 4.7115
v  840.8774 0.0000 27.2513
v  840.8774 5.0000 15.9814
v  840.8774 10.0000 27.2513
v  840.1208 0.0000 27.3072
v  840.4991 5.0000 27.2792
v  840.1208 10.0000 27.3072
v  839.3190 0.0000 27.4749
v  839.7199 5.0000 27.3911
v  839.3190 10.0000 27.4749
v  838.4719 0.0000 27.7545
v  838.8954 5.0000 27.6147
v  838.4719 10.0000 27.7545
v  837.5795 0.0000 28.1460
v  838.0256 5.0000 27.9502
v  837.5795 10.0000 28.1460
v  836.6418 0.0000 28.6492
v  837.1107 5.0000 28.3976
v  836.6418 10.0000 28.6492
v  835.6590 0.0000 29.2643
v  836.1505 5.0000 28.9568
v  835.6590 10.0000 29.2643
v  834.6309 0.0000 29.9912
v  835.1450 5.0000 29.6278
v  834.6309 10.0000 29.9912
v  833.5575 0.0000 30.8300
v  834.0942 5.0000 30.4106
v  833.5575 10.0000 30.8300
v  832.4389 0.0000 31.7806
v  832.9982 5.0000 31.3053
v  832.4389 10.0000 31.7806
v  831.3358 0.0000 32.7771
v  831.8873 5.0000 32.2789
v  831.3358 10.0000 32.7771
v  830.3091 0.0000 33.7536
v  830.8224 5.0000 33.2654
v  830.3091 10.0000 33.7536
v  829.3588 0.0000 34.7100
v  829.8340 5.0000 34.2318
v  829.3588 10.0000 34.7100
v  828.4849 0.0000 35.6464
v  828.9218 5.0000 35.1782
v  828.4849 10.0000 35.6464
v  827.6873 0.0000 36.5628
v  828.0861 5.0000 36.1046
v  827.6873 10.0000 36.5628
v  826.9661 0.0000 37.4592
v  827.3267 5.0000 37.0110
v  826.9661 10.0000 37.4592
v  826.3212 0.0000 38.3355
v  826.6436 5.0000 37.8973
v  826.3212 10.0000 38.3355
v  825.7527 0.0000 39.1918
v  826.0370 5.0000 38.7636
v  825.7527 10.0000 39.1918
v  825.2606 0.0000 40.0280
v  825.5067 5.0000 39.6099
v  825.2606 10.0000 40.0280
v  825.2606 0.0000 15.9940
v  825.2606 5.0000 28.0110
v  825.2606 10.0000 15.9940
v  825.1270 0.0000 13.5922
v  825.1938 5.0000 14.7931
v  825.1270 10.0000 13.5922
v  824.7261 0.0000 11.4731
v  824.9265 5.0000 12.5327
v  824.7261 10.0000 11.4731
v  824.0579 0.0000 9.6365
v  824.3920 5.0000 10.5548
v  824.0579 10.0000 9.6365
v  823.1224 0.0000 8.0824
v  823.5901 5.0000 8.8595
v  823.1224 10.0000 8.0824
v  821.9197 0.0000 6.8109
v  822.5211 5.0000 7.4467
v  821.9197 10.0000 6.8109
v  820.4497 0.0000 5.8220
v  821.1847 5.0000 6.3165
v  820.4497 10.0000 5.8220
v  818.7124 0.0000 5.1156
v  819.5811 5.0000 5.4688
v  818.7124 10.0000 5.1156
v  816.7078 0.0000 4.6918
v  817.7101 5.0000 4.9037
v  816.7078 10.0000 4.6918
v  814.4360 0.0000 4.5505
v  815.5719 5.0000 4.6211
v  814.4360 10.0000 4.5505
v  813.4367 0.0000 4.5853
v  813.9363 5.0000 4.5679
v  813.4367 10.0000 4.5853
v  812.4960 0.0000 4.6896
v  812.9664 5.0000 4.6374
v  812.4960 10.0000 4.6896
v  811.6139 0.0000 4.8634
v  812.0549 5.0000 4.7765
v  811.6139 10.0000 4.8634
v  810.7904 0.0000 5.1068
v  811.2021 5.0000 4.9851
v  810.7904 10.0000 5.1068
v  810.0255 0.0000 5.4197
v  810.4080 5.0000 5.2632
v  810.0255 10.0000 5.4197
v  809.3193 0.0000 5.8021
v  809.6724 5.0000 5.6109
v  809.3193 10.0000 5.8021
v  808.6716 0.0000 6.2541
v  808.9954 5.0000 6.0281
v  808.6716 10.0000 6.2541
v  808.0825 0.0000 6.7757
v  808.3771 5.0000 6.5149
v  808.0825 10.0000 6.7757
v  807.5521 0.0000 7.3667
v  807.8173 5.0000 7.0712
v  807.5521 10.0000 7.3667
v  807.0787 0.0000 8.0014
v  807.3154 5.0000 7.6841
v  807.0787 10.0000 8.0014
v  806.6611 0.0000 8.6538
v  806.8699 5.0000 8.3276
v  806.6611 10.0000 8.6538
v  806.2991 0.0000 9.3240
v  806.4801 5.0000 8.9889
v  806.2991 10.0000 9.3240
v  805.9929 0.0000 10.0119
v  806.1460 5.0000 9.6679
v  805.9929 10.0000 10.0119
v  805.7423 0.0000 10.7175
v  805.8676 5.0000 10.3647
v  805.7423 10.0000 10.7175
v  805.5474 0.0000 11.4409
v  805.6448 5.0000 11.0792
v  805.5474 10.0000 11.4409
v  805.4082 0.0000 12.1820
v  805.4778 5.0000 11.8114
v  805.4082 10.0000 12.1820
v  805.3246 0.0000 12.9408
v  805.3665 5.0000 12.5614
v  805.3246 10.0000 12.9408
v  805.2968 0.0000 13.7173
v  805.3107 5.0000 13.3291
v  805.2968 10.0000 13.7173
v  805.4221 0.0000 15.5779
v  805.3594 5.0000 14.6476
v  805.4221 10.0000 15.5779
v  805.7977 0.0000 17.2196
v  805.6099 5.0000 16.3987
v  805.7977 10.0000 17.2196
v  806.4238 0.0000 18.6423
v  806.1108 5.0000 17.9309
v  806.4238 10.0000 18.6423
v  807.3004 0.0000 19.8462
v  806.8621 5.0000 19.2443
v  807.3004 10.0000 19.8462
v  808.4274 0.0000 20.8312
v  807.8638 5.0000 20.3387
v  808.4274 10.0000 20.8312
v  809.8047 0.0000 21.5973
v  809.1161 5.0000 21.2143
v  809.8047 10.0000 21.5973
v  811.4326 0.0000 22.1445
v  810.6187 5.0000 21.8709
v  811.4326 10.0000 22.1445
v  813.3110 0.0000 22.4729
v  812.3718 5.0000 22.3087
v  813.3110 10.0000 22.4729
v  815.4397 0.0000 22.5823
v  814.3754 5.0000 22.5276
v  815.4397 10.0000 22.5823
v  815.4397 0.0000 54.1380
v  815.4397 5.0000 38.3602
v  815.4397 10.0000 54.1380
v  820.2621 5.0000 54.0789
v  815.5132 0.0000 9.7511
v  816.2885 0.0000 9.8972
v  815.9009 5.0000 9.8242
v  816.2885 10.0000 9.8972
v  815.5132 10.0000 9.7511
v  816.9603 0.0000 10.1407
v  816.6243 5.0000 10.0190
v  816.9603 10.0000 10.1407
v  817.5287 0.0000 10.4816
v  817.2445 5.0000 10.3112
v  817.5287 10.0000 10.4816
v  817.9938 0.0000 10.9199
v  817.7613 5.0000 10.7007
v  817.9938 10.0000 10.9199
v  818.3556 0.0000 11.4555
v  818.1747 5.0000 11.1877
v  818.3556 10.0000 11.4555
v  818.6140 0.0000 12.0886
v  818.4848 5.0000 11.7721
v  818.6140 10.0000 12.0886
v  818.7690 0.0000 12.8191
v  818.6915 5.0000 12.4538
v  818.7690 10.0000 12.8191
v  818.8207 0.0000 13.6469
v  818.7949 5.0000 13.2330
v  818.8207 10.0000 13.6469
v  818.7690 0.0000 14.4748
v  818.7949 5.0000 14.0608
v  818.7690 10.0000 14.4748
v  818.6140 0.0000 15.2052
v  818.6915 5.0000 14.8400
v  818.6140 10.0000 15.2052
v  818.3556 0.0000 15.8383
v  818.4848 5.0000 15.5217
v  818.3556 10.0000 15.8383
v  817.9938 0.0000 16.3739
v  818.1747 5.0000 16.1061
v  817.9938 10.0000 16.3739
v  817.5287 0.0000 16.8122
v  817.7613 5.0000 16.5931
v  817.5287 10.0000 16.8122
v  816.9603 0.0000 17.1531
v  817.2445 5.0000 16.9827
v  816.9603 10.0000 17.1531
v  816.2885 0.0000 17.3966
v  816.6243 5.0000 17.2748
v  816.2885 10.0000 17.3966
v  815.5132 0.0000 17.5427
v  815.9009 5.0000 17.4696
v  815.5132 10.0000 17.5427
v  814.6347 0.0000 17.5914
v  815.0740 5.0000 17.5670
v  814.6347 10.0000 17.5914
v  813.7562 0.0000 17.5427
v  814.1954 5.0000 17.5670
v  813.7562 10.0000 17.5427
v  812.9810 0.0000 17.3966
v  813.3686 5.0000 17.4696
v  812.9810 10.0000 17.3966
v  812.3092 0.0000 17.1531
v  812.6451 5.0000 17.2748
v  812.3092 10.0000 17.1531
v  811.7407 0.0000 16.8122
v  812.0250 5.0000 16.9827
v  811.7407 10.0000 16.8122
v  811.2756 0.0000 16.3739
v  811.5082 5.0000 16.5931
v  811.2756 10.0000 16.3739
v  810.9139 0.0000 15.8383
v  811.0947 5.0000 16.1061
v  810.9139 10.0000 15.8383
v  810.6555 0.0000 15.2052
v  810.7847 5.0000 15.5217
v  810.6555 10.0000 15.2052
v  810.5004 0.0000 14.4748
v  810.5779 5.0000 14.8400
v  810.5004 10.0000 14.4748
v  810.4488 0.0000 13.6469
v  810.4746 5.0000 14.0608
v  810.4488 10.0000 13.6469
v  810.5004 0.0000 12.8191
v  810.4746 5.0000 13.2330
v  810.5004 10.0000 12.8191
v  810.6555 0.0000 12.0886
v  810.5779 5.0000 12.4538
v  810.6555 10.0000 12.0886
v  810.9139 0.0000 11.4555
v  810.7847 5.0000 11.7721
v  810.9139 10.0000 11.4555
v  811.2756 0.0000 10.9199
v  811.0947 5.0000 11.1877
v  811.2756 10.0000 10.9199
v  811.7407 0.0000 10.4816
v  811.5082 5.0000 10.7007
v  811.7407 10.0000 10.4816
v  812.3092 0.0000 10.1407
v  812.0250 5.0000 10.3112
v  812.3092 10.0000 10.1407
v  812.9810 0.0000 9.8972
v  812.6451 5.0000 10.0190
v  812.9810 10.0000 9.8972
v  813.7562 0.0000 9.7511
v  813.3686 5.0000 9.8242
v  813.7562 10.0000 9.7511
v  814.6347 0.0000 9.7024
v  814.1954 5.0000 9.7268
v  814.6347 10.0000 9.7024
v  815.0740 5.0000 9.7268
v  851.8134 0.0000 33.4640
v  852.7973 0.0000 33.7484
v  852.3054 5.0000 33.6062
v  852.7973 10.0000 33.7484
v  851.8134 10.0000 33.4640
v  853.6500 0.0000 34.2223
v  853.2236 5.0000 33.9853
v  853.6500 10.0000 34.2223
v  854.3715 0.0000 34.8858
v  854.0107 5.0000 34.5540
v  854.3715 10.0000 34.8858
v  854.9619 0.0000 35.7388
v  854.6667 5.0000 35.3123
v  854.9619 10.0000 35.7388
v  855.4210 0.0000 36.7815
v  855.1914 5.0000 36.2602
v  855.4210 10.0000 36.7815
v  855.7490 0.0000 38.0137
v  855.5850 5.0000 37.3976
v  855.7490 10.0000 38.0137
v  855.9457 0.0000 39.4355
v  855.8474 5.0000 38.7246
v  855.9457 10.0000 39.4355
v  856.0113 0.0000 41.0468
v  855.9785 5.0000 40.2411
v  856.0113 10.0000 41.0468
v  855.9708 0.0000 42.4428
v  855.9910 5.0000 41.7448
v  855.9708 10.0000 42.4428
v  855.8492 0.0000 43.6745
v  855.9100 5.0000 43.0586
v  855.8492 10.0000 43.6745
v  855.6465 0.0000 44.7420
v  855.7479 5.0000 44.2082
v  855.6465 10.0000 44.7420
v  855.3629 0.0000 45.6452
v  855.5047 5.0000 45.1936
v  855.3629 10.0000 45.6452
v  854.9981 0.0000 46.3842
v  855.1805 5.0000 46.0147
v  854.9981 10.0000 46.3842
v  854.5522 0.0000 46.9590
v  854.7751 5.0000 46.6716
v  854.5522 10.0000 46.9590
v  854.0254 0.0000 47.3696
v  854.2888 5.0000 47.1643
v  854.0254 10.0000 47.3696
v  853.4174 0.0000 47.6160
v  853.7214 5.0000 47.4928
v  853.4174 10.0000 47.6160
v  852.7285 0.0000 47.6981
v  853.0729 5.0000 47.6570
v  852.7285 10.0000 47.6981
v  852.3024 0.0000 47.6660
v  852.5154 5.0000 47.6820
v  852.3024 10.0000 47.6660
v  851.9265 0.0000 47.5697
v  852.1144 5.0000 47.6179
v  851.9265 10.0000 47.5697
v  851.6006 0.0000 47.4093
v  851.7635 5.0000 47.4895
v  851.6006 10.0000 47.4093
v  851.3250 0.0000 47.1848
v  851.4628 5.0000 47.2970
v  851.3250 10.0000 47.1848
v  851.0994 0.0000 46.8960
v  851.2122 5.0000 47.0404
v  851.0994 10.0000 46.8960
v  850.9240 0.0000 46.5431
v  851.0117 5.0000 46.7196
v  850.9240 10.0000 46.5431
v  850.7986 0.0000 46.1261
v  850.8613 5.0000 46.3346
v  850.7986 10.0000 46.1261
v  850.7234 0.0000 45.6448
v  850.7610 5.0000 45.8855
v  850.7234 10.0000 45.6448
v  850.6984 0.0000 45.0994
v  850.7109 5.0000 45.3721
v  850.6984 10.0000 45.0994
v  850.6984 0.0000 33.3692
v  850.6984 5.0000 39.2343
v  850.6984 10.0000 33.3692
v  851.2559 5.0000 33.4166
v  818.0906 0.0000 32.9411
v  822.2622 10.0000 33.1993
v  822.9940 0.0000 17.9255
v  822.8619 0.0000 34.5650
v  820.2023 0.0000 29.0686
v  820.4780 0.0000 28.7440
v  820.6847 0.0000 28.3544
v  820.8225 0.0000 27.8999
v  843.7050 0.0000 38.9986
v  844.9863 0.0000 45.8970
v  838.6895 0.0000 29.4395
v  835.2499 0.0000 32.2372
v  833.0413 0.0000 34.5776
v  831.0835 0.0000 36.4553
v  828.8497 0.0000 38.3885
v  827.5160 0.0000 40.9227
v  827.4484 0.0000 44.1294
v  826.4721 0.0000 46.0868
v  845.2968 0.0000 47.1458
v  845.7724 0.0000 48.3158
v  846.4136 0.0000 49.4008
v  847.0220 0.0000 50.8715
v  848.7024 0.0000 51.8002
v  850.5471 0.0000 51.7262
v  851.7601 0.0000 51.1062
v  852.5494 0.0000 51.0855
v  853.7485 0.0000 51.5291
v  855.1602 0.0000 50.9564
v  856.3657 0.0000 50.0645
v  857.3655 0.0000 48.8606
v  858.1663 0.0000 47.4232
v  858.1492 0.0000 45.9980
v  859.0512 0.0000 44.7741
v  858.7506 0.0000 43.2481
v  859.4475 0.0000 41.6775
v  858.8838 0.0000 39.9846
v  859.3216 0.0000 38.1599
v  858.9551 0.0000 36.1885
v  857.9454 0.0000 34.9929
v  858.0347 0.0000 32.9516
v  856.5030 0.0000 31.6037
v  855.2684 0.0000 30.5892
v  853.6896 0.0000 29.3619
v  845.7879 0.0000 15.8204
v  849.8044 0.0000 29.0234
v  821.5417 0.0000 11.5043
v  821.0375 0.0000 10.3158
v  820.3479 0.0000 9.3172
v  819.4730 0.0000 8.5086
v  818.4128 0.0000 7.8900
v  817.1672 0.0000 7.4613
v  816.1699 0.0000 8.1134
v  815.3229 0.0000 7.1740
v  814.0659 0.0000 7.1473
v  812.8568 0.0000 6.7573
v  811.5440 0.0000 7.0856
v  810.4133 0.0000 7.6197
v  809.4645 0.0000 8.3596
v  808.2968 0.0000 9.2869
v  807.9207 0.0000 10.7195
v  807.5707 0.0000 11.8496
v  807.3958 0.0000 13.0612
v  807.9170 0.0000 14.3542
v  808.0939 0.0000 15.6194
v  808.4477 0.0000 16.7263
v  808.9784 0.0000 17.6752
v  809.6860 0.0000 18.4659
v  810.5705 0.0000 19.0985
v  811.6319 0.0000 19.5729
v  812.8702 0.0000 19.8892
v  814.2854 0.0000 20.0473
v  815.1959 0.0000 19.2388
v  815.7471 0.0000 19.1739
v  816.2295 0.0000 19.0440
v  826.4721 10.0000 46.0868
v  820.8225 10.0000 27.8999
v  820.6847 10.0000 28.3544
v  820.4780 10.0000 28.7440
v  820.2023 10.0000 29.0686
v  819.8578 10.0000 29.3284
v  817.8425 10.0000 33.0579
v  815.7471 10.0000 19.1739
v  815.1959 10.0000 19.2388
v  814.2854 10.0000 20.0473
v  812.8702 10.0000 19.8892
v  811.6319 10.0000 19.5729
v  810.5705 10.0000 19.0985
v  809.6860 10.0000 18.4659
v  808.9784 10.0000 17.6752
v  808.4477 10.0000 16.7263
v  808.0939 10.0000 15.6194
v  807.9170 10.0000 14.3542
v  807.3958 10.0000 13.0612
v  807.5707 10.0000 11.8496
v  807.9207 10.0000 10.7195
v  808.2968 10.0000 9.2869
v  809.4645 10.0000 8.3596
v  810.4133 10.0000 7.6197
v  811.5440 10.0000 7.0856
v  812.8568 10.0000 6.7573
v  814.0659 10.0000 7.1473
v  815.3229 10.0000 7.1740
v  816.1699 10.0000 8.1134
v  817.1672 10.0000 7.4613
v  818.4128 10.0000 7.8900
v  819.4730 10.0000 8.5086
v  820.3479 10.0000 9.3172
v  821.0375 10.0000 10.3158
v  821.5417 10.0000 11.5043
v  822.9940 10.0000 17.9255
v  823.4854 10.0000 34.7769
v  827.4484 10.0000 44.1294
v  827.5160 10.0000 40.9227
v  828.8497 10.0000 38.3885
v  831.0835 10.0000 36.4553
v  833.0413 10.0000 34.5776
v  835.2499 10.0000 32.2372
v  838.6895 10.0000 29.4395
v  849.8044 10.0000 29.0234
v  843.7050 10.0000 38.9986
v  845.7879 10.0000 15.8204
v  853.6896 10.0000 29.3619
v  855.2684 10.0000 30.5892
v  856.5030 10.0000 31.6037
v  858.0347 10.0000 32.9516
v  857.9454 10.0000 34.9929
v  858.9551 10.0000 36.1885
v  859.3216 10.0000 38.1600
v  858.8838 10.0000 39.9846
v  859.4475 10.0000 41.6775
v  858.7506 10.0000 43.2481
v  859.0512 10.0000 44.7741
v  858.1492 10.0000 45.9980
v  858.1663 10.0000 47.4232
v  857.3655 10.0000 48.8606
v  856.3657 10.0000 50.0645
v  855.1602 10.0000 50.9564
v  853.7485 10.0000 51.5291
v  852.5494 10.0000 51.0855
v  851.7601 10.0000 51.1062
v  850.5471 10.0000 51.7263
v  848.7023 10.0000 51.8002
v  847.0220 10.0000 50.8715
v  846.4136 10.0000 49.4008
v  845.7724 10.0000 48.3158
v  845.2968 10.0000 47.1458
v  844.9863 10.0000 45.8970
# 711 vertices

vn 0.4573 -0.5999 0.6565
vn 0.6454 -0.7142 0.2709
vn 0.9337 0.0000 0.3581
vn 0.6454 0.7142 0.2709
vn 0.4573 0.5999 0.6565
vn 0.6252 -0.7151 0.3127
vn 0.9096 0.0000 0.4155
vn 0.6252 0.7151 0.3127
vn 0.5990 -0.7162 0.3581
vn 0.8781 0.0000 0.4785
vn 0.5990 0.7162 0.3581
vn 0.5657 -0.7173 0.4068
vn 0.8372 0.0000 0.5469
vn 0.5657 0.7173 0.4068
vn 0.5238 -0.7185 0.4576
vn 0.7849 0.0000 0.6196
vn 0.5238 0.7185 0.4576
vn 0.4725 -0.7196 0.5089
vn 0.7194 0.0000 0.6946
vn 0.4725 0.7196 0.5089
vn 0.4113 -0.7205 0.5582
vn 0.6394 0.0000 0.7689
vn 0.4113 0.7205 0.5582
vn 0.3412 -0.7212 0.6029
vn 0.5450 0.0000 0.8384
vn 0.3412 0.7212 0.6029
vn -0.1626 -0.9518 0.2601
vn 0.4382 0.0000 0.8989
vn -0.1626 0.9518 0.2601
vn -0.7106 -0.7035 0.0113
vn -1.0000 0.0000 -0.0000
vn -0.7106 0.7035 0.0113
vn -0.7129 -0.6998 0.0463
vn -0.9995 0.0000 0.0319
vn -0.7129 0.6998 0.0463
vn -0.7084 -0.6995 0.0940
vn -0.9952 0.0000 0.0976
vn -0.7084 0.6995 0.0940
vn -0.7004 -0.6993 0.1427
vn -0.9863 0.0000 0.1652
vn -0.7004 0.6993 0.1427
vn -0.6887 -0.6992 0.1917
vn -0.9723 0.0000 0.2338
vn -0.6887 0.6992 0.1917
vn -0.6734 -0.6991 0.2404
vn -0.9532 0.0000 0.3023
vn -0.6734 0.6991 0.2404
vn -0.6545 -0.6992 0.2878
vn -0.9292 0.0000 0.3697
vn -0.6545 0.6992 0.2878
vn -0.6324 -0.6993 0.3333
vn -0.9005 0.0000 0.4349
vn -0.6324 0.6993 0.3333
vn -0.6076 -0.6995 0.3763
vn -0.8677 0.0000 0.4971
vn -0.6076 0.6995 0.3763
vn -0.5779 -0.6973 0.4240
vn -0.8316 0.0000 0.5554
vn -0.5779 0.6973 0.4240
vn -0.5341 -0.6945 0.4820
vn -0.7794 0.0000 0.6266
vn -0.5341 0.6945 0.4820
vn -0.4751 -0.6941 0.5408
vn -0.7030 0.0000 0.7112
vn -0.4751 0.6941 0.5408
vn -0.4083 -0.6941 0.5929
vn -0.6147 0.0000 0.7887
vn -0.4083 0.6941 0.5929
vn -0.3364 -0.6944 0.6362
vn -0.5176 0.0000 0.8556
vn -0.3364 0.6944 0.6362
vn -0.2626 -0.6950 0.6694
vn -0.4157 0.0000 0.9095
vn -0.2626 0.6950 0.6694
vn -0.1901 -0.6958 0.6926
vn -0.3136 0.0000 0.9496
vn -0.1901 0.6958 0.6926
vn -0.1214 -0.6967 0.7070
vn -0.2151 0.0000 0.9766
vn -0.1214 0.6967 0.7070
vn -0.0580 -0.6977 0.7140
vn -0.1230 0.0000 0.9924
vn -0.0580 0.6977 0.7140
vn 0.0017 -0.6980 0.7161
vn -0.0389 0.0000 0.9992
vn 0.0017 0.6980 0.7161
vn 0.0650 -0.6966 0.7145
vn 0.0435 0.0000 0.9991
vn 0.0650 0.6966 0.7145
vn 0.1357 -0.6956 0.7055
vn 0.1375 0.0000 0.9905
vn 0.1357 0.6956 0.7055
vn 0.2117 -0.6946 0.6875
vn 0.2398 0.0000 0.9708
vn 0.2117 0.6946 0.6875
vn 0.2904 -0.6939 0.6589
vn 0.3478 0.0000 0.9376
vn 0.2904 0.6939 0.6589
vn 0.3685 -0.6935 0.6191
vn 0.4574 0.0000 0.8893
vn 0.3685 0.6935 0.6191
vn 0.4420 -0.6935 0.5690
vn 0.5635 0.0000 0.8261
vn 0.4420 0.6935 0.5690
vn 0.5076 -0.6939 0.5108
vn 0.6611 0.0000 0.7503
vn 0.5076 0.6939 0.5108
vn 0.5631 -0.6946 0.4478
vn 0.7462 0.0000 0.6657
vn 0.5631 0.6946 0.4478
vn 0.6026 -0.6975 0.3878
vn 0.8167 0.0000 0.5771
vn 0.6026 0.6975 0.3878
vn 0.6287 -0.6997 0.3394
vn 0.8636 0.0000 0.5042
vn 0.6287 0.6997 0.3394
vn 0.6499 -0.6997 0.2968
vn 0.8953 0.0000 0.4454
vn 0.6499 0.6997 0.2968
vn 0.6681 -0.6998 0.2530
vn 0.9230 0.0000 0.3848
vn 0.6681 0.6998 0.2530
vn 0.6830 -0.6999 0.2089
vn 0.9463 0.0000 0.3232
vn 0.6830 0.6999 0.2089
vn 0.6948 -0.7001 0.1649
vn 0.9652 0.0000 0.2614
vn 0.6948 0.7001 0.1649
vn 0.7034 -0.7003 0.1216
vn 0.9798 0.0000 0.2001
vn 0.7034 0.7003 0.1216
vn 0.7091 -0.7006 0.0794
vn 0.9901 0.0000 0.1403
vn 0.7091 0.7006 0.0794
vn 0.7122 -0.7009 0.0389
vn 0.9966 0.0000 0.0823
vn 0.7122 0.7009 0.0389
vn 0.7130 -0.7011 -0.0001
vn 0.9996 0.0000 0.0268
vn 0.7130 0.7011 -0.0001
vn 0.7123 -0.7007 -0.0396
vn 0.9996 0.0000 -0.0269
vn 0.7123 0.7007 -0.0396
vn 0.7092 -0.7002 -0.0822
vn 0.9965 0.0000 -0.0842
vn 0.7092 0.7002 -0.0822
vn 0.7030 -0.6996 -0.1281
vn 0.9893 0.0000 -0.1460
vn 0.7030 0.6996 -0.1281
vn 0.6928 -0.6991 -0.1769
vn 0.9772 0.0000 -0.2122
vn 0.6928 0.6991 -0.1769
vn 0.6782 -0.6985 -0.2282
vn 0.9594 0.0000 -0.2822
vn 0.6782 0.6985 -0.2282
vn 0.6585 -0.6981 -0.2812
vn 0.9348 0.0000 -0.3551
vn 0.6585 0.6981 -0.2812
vn 0.6333 -0.6977 -0.3349
vn 0.9030 0.0000 -0.4297
vn 0.6333 0.6977 -0.3349
vn 0.6025 -0.6975 -0.3880
vn 0.8635 0.0000 -0.5044
vn 0.6025 0.6975 -0.3880
vn 0.5658 -0.6968 -0.4408
vn 0.8164 0.0000 -0.5774
vn 0.5658 0.6968 -0.4408
vn 0.5210 -0.6958 -0.4943
vn 0.7596 0.0000 -0.6504
vn 0.5210 0.6958 -0.4943
vn 0.4670 -0.6953 -0.5463
vn 0.6894 0.0000 -0.7243
vn 0.4670 0.6953 -0.5463
vn 0.4055 -0.6950 -0.5938
vn 0.6083 0.0000 -0.7937
vn 0.4055 0.6950 -0.5938
vn 0.3382 -0.6950 -0.6345
vn 0.5180 0.0000 -0.8554
vn 0.3382 0.6950 -0.6345
vn 0.2676 -0.6953 -0.6671
vn 0.4214 0.0000 -0.9069
vn 0.2676 0.6953 -0.6671
vn 0.1963 -0.6958 -0.6909
vn 0.3221 0.0000 -0.9467
vn 0.1963 0.6958 -0.6909
vn 0.1269 -0.6965 -0.7063
vn 0.2238 0.0000 -0.9746
vn 0.1269 0.6965 -0.7063
vn 0.0613 -0.6973 -0.7142
vn 0.1295 0.0000 -0.9916
vn 0.0613 0.6973 -0.7142
vn 0.3150 -0.8997 -0.3023
vn 0.0413 0.0000 -0.9991
vn 0.3150 0.8997 -0.3023
vn 0.5774 -0.5774 -0.5774
vn 1.0000 0.0000 -0.0000
vn 0.5774 0.5774 -0.5774
vn -0.5774 -0.5774 -0.5774
vn 0.0000 0.0000 -1.0000
vn -0.5774 0.5774 -0.5774
vn -0.3257 -0.8958 -0.3025
vn -0.3257 0.8958 -0.3025
vn -0.1007 -0.6925 -0.7144
vn -0.0737 0.0000 -0.9973
vn -0.1007 0.6925 -0.7144
vn -0.1867 -0.6947 -0.6947
vn -0.2048 0.0000 -0.9788
vn -0.1867 0.6947 -0.6947
vn -0.2568 -0.6966 -0.6699
vn -0.3134 0.0000 -0.9496
vn -0.2568 0.6966 -0.6699
vn -0.3133 -0.6983 -0.6436
vn -0.4017 0.0000 -0.9158
vn -0.3133 0.6983 -0.6436
vn -0.3586 -0.6997 -0.6179
vn -0.4729 0.0000 -0.8811
vn -0.3586 0.6997 -0.6179
vn -0.3953 -0.7008 -0.5938
vn -0.5305 0.0000 -0.8477
vn -0.3953 0.7008 -0.5938
vn -0.4251 -0.7018 -0.5717
vn -0.5773 0.0000 -0.8165
vn -0.4251 0.7018 -0.5717
vn -0.4496 -0.7025 -0.5516
vn -0.6157 0.0000 -0.7880
vn -0.4496 0.7025 -0.5516
vn -0.4682 -0.7037 -0.5344
vn -0.6476 0.0000 -0.7620
vn -0.4682 0.7037 -0.5344
vn -0.4826 -0.7042 -0.5207
vn -0.6704 0.0000 -0.7420
vn -0.4826 0.7042 -0.5207
vn -0.4967 -0.7039 -0.5077
vn -0.6892 0.0000 -0.7246
vn -0.4967 0.7039 -0.5077
vn -0.5118 -0.7036 -0.4929
vn -0.7094 0.0000 -0.7048
vn -0.5118 0.7036 -0.4929
vn -0.5281 -0.7032 -0.4760
vn -0.7311 0.0000 -0.6823
vn -0.5281 0.7032 -0.4760
vn -0.5455 -0.7028 -0.4566
vn -0.7543 0.0000 -0.6565
vn -0.5455 0.7028 -0.4566
vn -0.5641 -0.7023 -0.4342
vn -0.7791 0.0000 -0.6269
vn -0.5641 0.7023 -0.4342
vn -0.5839 -0.7017 -0.4083
vn -0.8054 0.0000 -0.5927
vn -0.5839 0.7017 -0.4083
vn -0.6046 -0.7011 -0.3782
vn -0.8331 0.0000 -0.5531
vn -0.6046 0.7011 -0.3782
vn 0.0373 -0.9899 -0.1371
vn -0.8618 0.0000 -0.5072
vn 0.0373 0.9899 -0.1371
vn 0.7130 -0.7009 -0.0198
vn 0.7130 0.7009 -0.0198
vn 0.7160 -0.6926 -0.0873
vn 0.9985 0.0000 -0.0556
vn 0.7160 0.6926 -0.0873
vn 0.6986 -0.6893 -0.1918
vn 0.9826 0.0000 -0.1859
vn 0.6986 0.6893 -0.1918
vn 0.6566 -0.6861 -0.3134
vn 0.9397 0.0000 -0.3419
vn 0.6566 0.6861 -0.3134
vn 0.5811 -0.6837 -0.4415
vn 0.8568 0.0000 -0.5157
vn 0.5811 0.6837 -0.4415
vn 0.4720 -0.6831 -0.5573
vn 0.7265 0.0000 -0.6872
vn 0.4720 0.6831 -0.5573
vn 0.3425 -0.6847 -0.6434
vn 0.5582 0.0000 -0.8297
vn 0.3425 0.6847 -0.6434
vn 0.2127 -0.6877 -0.6942
vn 0.3767 0.0000 -0.9264
vn 0.2127 0.6877 -0.6942
vn 0.0975 -0.6910 -0.7162
vn 0.2069 0.0000 -0.9784
vn 0.0975 0.6910 -0.7162
vn 0.0098 -0.6964 -0.7176
vn 0.0621 0.0000 -0.9981
vn 0.0098 0.6964 -0.7176
vn -0.0519 -0.6987 -0.7135
vn -0.0348 0.0000 -0.9994
vn -0.0519 0.6987 -0.7135
vn -0.1088 -0.6978 -0.7080
vn -0.1102 0.0000 -0.9939
vn -0.1088 0.6978 -0.7080
vn -0.1712 -0.6968 -0.6965
vn -0.1934 0.0000 -0.9811
vn -0.1712 0.6968 -0.6965
vn -0.2380 -0.6959 -0.6775
vn -0.2834 0.0000 -0.9590
vn -0.2380 0.6959 -0.6775
vn -0.3077 -0.6952 -0.6497
vn -0.3786 0.0000 -0.9255
vn -0.3077 0.6952 -0.6497
vn -0.3777 -0.6946 -0.6122
vn -0.4762 0.0000 -0.8794
vn -0.3777 0.6946 -0.6122
vn -0.4452 -0.6944 -0.5654
vn -0.5723 0.0000 -0.8201
vn -0.4452 0.6944 -0.5654
vn -0.5071 -0.6944 -0.5105
vn -0.6629 0.0000 -0.7487
vn -0.5071 0.6944 -0.5105
vn -0.5548 -0.6970 -0.4543
vn -0.7442 0.0000 -0.6679
vn -0.5548 0.6970 -0.4543
vn -0.5880 -0.6992 -0.4067
vn -0.8016 0.0000 -0.5978
vn -0.5880 0.6992 -0.4067
vn -0.6163 -0.6989 -0.3630
vn -0.8422 0.0000 -0.5391
vn -0.6163 0.6989 -0.3630
vn -0.6421 -0.6986 -0.3157
vn -0.8799 0.0000 -0.4752
vn -0.6421 0.6986 -0.3157
vn -0.6646 -0.6985 -0.2655
vn -0.9135 0.0000 -0.4067
vn -0.6646 0.6985 -0.2655
vn -0.6832 -0.6984 -0.2130
vn -0.9423 0.0000 -0.3346
vn -0.6832 0.6984 -0.2130
vn -0.6977 -0.6985 -0.1593
vn -0.9656 0.0000 -0.2602
vn -0.6977 0.6985 -0.1593
vn -0.7077 -0.6986 -0.1053
vn -0.9828 0.0000 -0.1846
vn -0.7077 0.6986 -0.1053
vn -0.7133 -0.6989 -0.0520
vn -0.9940 0.0000 -0.1094
vn -0.7133 0.6989 -0.0520
vn -0.7182 -0.6957 0.0113
vn -0.9994 0.0000 -0.0358
vn -0.7182 0.6957 0.0113
vn -0.7163 -0.6898 0.1054
vn -0.9977 0.0000 0.0672
vn -0.7163 0.6898 0.1054
vn -0.6904 -0.6864 0.2286
vn -0.9748 0.0000 0.2231
vn -0.6904 0.6864 0.2286
vn -0.6325 -0.6838 0.3638
vn -0.9153 0.0000 0.4028
vn -0.6325 0.6838 0.3638
vn -0.5390 -0.6829 0.4931
vn -0.8084 0.0000 0.5886
vn -0.5390 0.6829 0.4931
vn -0.4195 -0.6842 0.5966
vn -0.6581 0.0000 0.7529
vn -0.4195 0.6842 0.5966
vn -0.2936 -0.6871 0.6646
vn -0.4861 0.0000 0.8739
vn -0.2936 0.6871 0.6646
vn -0.1780 -0.6905 0.7011
vn -0.3186 0.0000 0.9479
vn -0.1780 0.6905 0.7011
vn -0.0807 -0.6937 0.7158
vn -0.1722 0.0000 0.9851
vn -0.0807 0.6937 0.7158
vn -0.3183 -0.8985 0.3024
vn -0.0513 0.0000 0.9987
vn -0.3183 0.8985 0.3024
vn -0.5741 -0.5767 0.5812
vn -0.5741 0.5767 0.5812
vn 0.0123 0.0000 0.9999
vn -0.0834 -0.7221 0.6867
vn -0.1815 -0.7257 0.6636
vn -0.1852 0.0000 0.9827
vn -0.1815 0.7257 0.6636
vn -0.0834 0.7221 0.6867
vn -0.2938 -0.7294 0.6178
vn -0.3407 0.0000 0.9402
vn -0.2938 0.7294 0.6178
vn -0.4111 -0.7321 0.5431
vn -0.5143 0.0000 0.8576
vn -0.4111 0.7321 0.5431
vn -0.5184 -0.7328 0.4407
vn -0.6858 0.0000 0.7278
vn -0.5184 0.7328 0.4407
vn -0.6018 -0.7311 0.3216
vn -0.8287 0.0000 0.5597
vn -0.6018 0.7311 0.3216
vn -0.6556 -0.7277 0.2016
vn -0.9259 0.0000 0.3779
vn -0.6556 0.7277 0.2016
vn -0.6835 -0.7240 0.0933
vn -0.9782 0.0000 0.2076
vn -0.6835 0.7240 0.0933
vn -0.6925 -0.7214 0.0000
vn -0.9981 0.0000 0.0623
vn -0.6925 0.7214 0.0000
vn -0.6835 -0.7240 -0.0933
vn -0.9981 0.0000 -0.0623
vn -0.6835 0.7240 -0.0933
vn -0.6556 -0.7277 -0.2016
vn -0.9782 0.0000 -0.2076
vn -0.6556 0.7277 -0.2016
vn -0.6018 -0.7311 -0.3216
vn -0.9258 0.0000 -0.3779
vn -0.6018 0.7311 -0.3216
vn -0.5184 -0.7328 -0.4407
vn -0.8287 0.0000 -0.5597
vn -0.5184 0.7328 -0.4407
vn -0.4111 -0.7321 -0.5431
vn -0.6858 0.0000 -0.7278
vn -0.4111 0.7321 -0.5431
vn -0.2938 -0.7294 -0.6178
vn -0.5143 0.0000 -0.8576
vn -0.2938 0.7294 -0.6178
vn -0.1815 -0.7257 -0.6636
vn -0.3407 0.0000 -0.9402
vn -0.1815 0.7257 -0.6636
vn -0.0834 -0.7221 -0.6867
vn -0.1852 0.0000 -0.9827
vn -0.0834 0.7221 -0.6867
vn 0.0000 -0.7198 -0.6942
vn -0.0553 0.0000 -0.9985
vn 0.0000 0.7198 -0.6942
vn 0.0834 -0.7221 -0.6867
vn 0.0553 0.0000 -0.9985
vn 0.0834 0.7221 -0.6867
vn 0.1815 -0.7257 -0.6636
vn 0.1852 0.0000 -0.9827
vn 0.1815 0.7257 -0.6636
vn 0.2938 -0.7294 -0.6178
vn 0.3407 0.0000 -0.9402
vn 0.2938 0.7294 -0.6178
vn 0.4111 -0.7321 -0.5431
vn 0.5143 0.0000 -0.8576
vn 0.4111 0.7321 -0.5431
vn 0.5184 -0.7328 -0.4407
vn 0.6858 0.0000 -0.7278
vn 0.5184 0.7328 -0.4407
vn 0.6018 -0.7311 -0.3216
vn 0.8287 0.0000 -0.5597
vn 0.6018 0.7311 -0.3216
vn 0.6556 -0.7277 -0.2016
vn 0.9258 0.0000 -0.3779
vn 0.6556 0.7277 -0.2016
vn 0.6835 -0.7240 -0.0933
vn 0.9782 0.0000 -0.2076
vn 0.6835 0.7240 -0.0933
vn 0.6925 -0.7214 0.0000
vn 0.9981 0.0000 -0.0623
vn 0.6925 0.7214 0.0000
vn 0.6835 -0.7240 0.0933
vn 0.9981 0.0000 0.0623
vn 0.6835 0.7240 0.0933
vn 0.6556 -0.7277 0.2016
vn 0.9782 0.0000 0.2076
vn 0.6556 0.7277 0.2016
vn 0.6018 -0.7311 0.3216
vn 0.9258 0.0000 0.3779
vn 0.6018 0.7311 0.3216
vn 0.5184 -0.7328 0.4407
vn 0.8287 0.0000 0.5597
vn 0.5184 0.7328 0.4407
vn 0.4111 -0.7321 0.5431
vn 0.6858 0.0000 0.7278
vn 0.4111 0.7321 0.5431
vn 0.2938 -0.7294 0.6178
vn 0.5143 0.0000 0.8576
vn 0.2938 0.7294 0.6178
vn 0.1815 -0.7257 0.6636
vn 0.3407 0.0000 0.9402
vn 0.1815 0.7257 0.6636
vn 0.0834 -0.7221 0.6867
vn 0.1852 0.0000 0.9827
vn 0.0834 0.7221 0.6867
vn 0.0000 -0.7198 0.6942
vn 0.0553 0.0000 0.9985
vn 0.0000 0.7198 0.6942
vn -0.0553 0.0000 0.9985
vn -0.1244 -0.7299 0.6722
vn -0.2612 -0.7334 0.6276
vn -0.2777 0.0000 0.9607
vn -0.2612 0.7334 0.6276
vn -0.1244 0.7299 0.6722
vn -0.3972 -0.7346 0.5501
vn -0.4858 0.0000 0.8741
vn -0.3972 0.7346 0.5501
vn -0.5131 -0.7329 0.4467
vn -0.6769 0.0000 0.7361
vn -0.5131 0.7329 0.4467
vn -0.5972 -0.7292 0.3341
vn -0.8223 0.0000 0.5690
vn -0.5972 0.7292 0.3341
vn -0.6500 -0.7249 0.2281
vn -0.9152 0.0000 0.4030
vn -0.6500 0.7249 0.2281
vn -0.6791 -0.7212 0.1368
vn -0.9664 0.0000 0.2572
vn -0.6791 0.7212 0.1368
vn -0.6931 -0.7182 0.0619
vn -0.9906 0.0000 0.1371
vn -0.6931 0.7182 0.0619
vn -0.6991 -0.7150 0.0041
vn -0.9992 0.0000 0.0407
vn -0.6991 0.7150 0.0041
vn -0.6977 -0.7150 -0.0445
vn -0.9996 0.0000 -0.0290
vn -0.6977 0.7150 -0.0445
vn -0.6897 -0.7173 -0.0993
vn -0.9952 0.0000 -0.0982
vn -0.6897 0.7173 -0.0993
vn -0.6726 -0.7205 -0.1689
vn -0.9825 0.0000 -0.1865
vn -0.6726 0.7205 -0.1689
vn -0.6394 -0.7249 -0.2564
vn -0.9540 0.0000 -0.2997
vn -0.6394 0.7249 -0.2564
vn -0.5790 -0.7304 -0.3623
vn -0.8967 0.0000 -0.4426
vn -0.5790 0.7304 -0.3623
vn -0.4791 -0.7362 -0.4780
vn -0.7902 0.0000 -0.6129
vn -0.4791 0.7362 -0.4780
vn -0.3365 -0.7395 -0.5830
vn -0.6147 0.0000 -0.7888
vn -0.3365 0.7395 -0.5830
vn -0.1681 -0.7383 -0.6532
vn -0.3756 0.0000 -0.9268
vn -0.1681 0.7383 -0.6532
vn -0.0149 -0.7295 -0.6838
vn -0.1183 0.0000 -0.9930
vn -0.0149 0.7295 -0.6838
vn 0.1113 -0.7274 -0.6772
vn 0.0751 0.0000 -0.9972
vn 0.1113 0.7274 -0.6772
vn 0.2365 -0.7311 -0.6400
vn 0.2480 0.0000 -0.9688
vn 0.2365 0.7311 -0.6400
vn 0.3671 -0.7334 -0.5721
vn 0.4417 0.0000 -0.8972
vn 0.3671 0.7334 -0.5721
vn 0.4858 -0.7332 -0.4760
vn 0.6316 0.0000 -0.7753
vn 0.4858 0.7332 -0.4760
vn 0.5778 -0.7305 -0.3641
vn 0.7880 0.0000 -0.6156
vn 0.5778 0.7305 -0.3641
vn 0.6388 -0.7267 -0.2527
vn 0.8955 0.0000 -0.4452
vn 0.6388 0.7267 -0.2527
vn 0.6738 -0.7228 -0.1531
vn 0.9577 0.0000 -0.2878
vn 0.6738 0.7228 -0.1531
vn 0.6909 -0.7196 -0.0696
vn 0.9880 0.0000 -0.1544
vn 0.6909 0.7196 -0.0696
vn 0.7017 -0.7123 -0.0161
vn 0.9989 0.0000 -0.0459
vn 0.7017 0.7123 -0.0161
vn 0.2740 -0.9143 0.2983
vn 0.2740 0.9143 0.2983
vn -0.0847 0.0000 0.9964
vn 0.0000 -1.0000 -0.0000
vn 0.0000 1.0000 -0.0000
# 562 vertex normals

o Mo_Maa
g Mo_Maa
s 1
f 1//1 2//2 3//3 
f 2//2 4//4 3//3 
f 4//4 5//5 3//3 
f 5//5 1//1 3//3 
s 3
f 2//2 6//6 7//7 
f 6//6 8//8 7//7 
f 8//8 4//4 7//7 
f 4//4 2//2 7//7 
s 2
f 6//6 9//9 10//10 
f 9//9 11//11 10//10 
f 11//11 8//8 10//10 
f 8//8 6//6 10//10 
f 9//9 12//12 13//13 
f 12//12 14//14 13//13 
f 14//14 11//11 13//13 
f 11//11 9//9 13//13 
f 12//12 15//15 16//16 
f 15//15 17//17 16//16 
f 17//17 14//14 16//16 
f 14//14 12//12 16//16 
f 15//15 18//18 19//19 
f 18//18 20//20 19//19 
f 20//20 17//17 19//19 
f 17//17 15//15 19//19 
f 18//18 21//21 22//22 
f 21//21 23//23 22//22 
f 23//23 20//20 22//22 
f 20//20 18//18 22//22 
f 21//21 24//24 25//25 
f 24//24 26//26 25//25 
f 26//26 23//23 25//25 
f 23//23 21//21 25//25 
f 24//24 27//27 28//28 
f 27//27 29//29 28//28 
f 29//29 26//26 28//28 
f 26//26 24//24 28//28 
s 4
f 27//27 30//30 31//31 
f 30//30 32//32 31//31 
f 32//32 29//29 31//31 
f 29//29 27//27 31//31 
s 2
f 30//30 33//33 34//34 
f 33//33 35//35 34//34 
f 35//35 32//32 34//34 
f 32//32 30//30 34//34 
f 33//33 36//36 37//37 
f 36//36 38//38 37//37 
f 38//38 35//35 37//37 
f 35//35 33//33 37//37 
f 36//36 39//39 40//40 
f 39//39 41//41 40//40 
f 41//41 38//38 40//40 
f 38//38 36//36 40//40 
f 39//39 42//42 43//43 
f 42//42 44//44 43//43 
f 44//44 41//41 43//43 
f 41//41 39//39 43//43 
f 42//42 45//45 46//46 
f 45//45 47//47 46//46 
f 47//47 44//44 46//46 
f 44//44 42//42 46//46 
f 45//45 48//48 49//49 
f 48//48 50//50 49//49 
f 50//50 47//47 49//49 
f 47//47 45//45 49//49 
f 48//48 51//51 52//52 
f 51//51 53//53 52//52 
f 53//53 50//50 52//52 
f 50//50 48//48 52//52 
f 51//51 54//54 55//55 
f 54//54 56//56 55//55 
f 56//56 53//53 55//55 
f 53//53 51//51 55//55 
f 54//54 57//57 58//58 
f 57//57 59//59 58//58 
f 59//59 56//56 58//58 
f 56//56 54//54 58//58 
f 57//57 60//60 61//61 
f 60//60 62//62 61//61 
f 62//62 59//59 61//61 
f 59//59 57//57 61//61 
f 60//60 63//63 64//64 
f 63//63 65//65 64//64 
f 65//65 62//62 64//64 
f 62//62 60//60 64//64 
f 63//63 66//66 67//67 
f 66//66 68//68 67//67 
f 68//68 65//65 67//67 
f 65//65 63//63 67//67 
f 66//66 69//69 70//70 
f 69//69 71//71 70//70 
f 71//71 68//68 70//70 
f 68//68 66//66 70//70 
f 69//69 72//72 73//73 
f 72//72 74//74 73//73 
f 74//74 71//71 73//73 
f 71//71 69//69 73//73 
f 72//72 75//75 76//76 
f 75//75 77//77 76//76 
f 77//77 74//74 76//76 
f 74//74 72//72 76//76 
f 75//75 78//78 79//79 
f 78//78 80//80 79//79 
f 80//80 77//77 79//79 
f 77//77 75//75 79//79 
f 78//78 81//81 82//82 
f 81//81 83//83 82//82 
f 83//83 80//80 82//82 
f 80//80 78//78 82//82 
f 81//81 84//84 85//85 
f 84//84 86//86 85//85 
f 86//86 83//83 85//85 
f 83//83 81//81 85//85 
f 84//84 87//87 88//88 
f 87//87 89//89 88//88 
f 89//89 86//86 88//88 
f 86//86 84//84 88//88 
f 87//87 90//90 91//91 
f 90//90 92//92 91//91 
f 92//92 89//89 91//91 
f 89//89 87//87 91//91 
f 90//90 93//93 94//94 
f 93//93 95//95 94//94 
f 95//95 92//92 94//94 
f 92//92 90//90 94//94 
f 93//93 96//96 97//97 
f 96//96 98//98 97//97 
f 98//98 95//95 97//97 
f 95//95 93//93 97//97 
f 96//96 99//99 100//100 
f 99//99 101//101 100//100 
f 101//101 98//98 100//100 
f 98//98 96//96 100//100 
f 99//99 102//102 103//103 
f 102//102 104//104 103//103 
f 104//104 101//101 103//103 
f 101//101 99//99 103//103 
f 102//102 105//105 106//106 
f 105//105 107//107 106//106 
f 107//107 104//104 106//106 
f 104//104 102//102 106//106 
f 105//105 108//108 109//109 
f 108//108 110//110 109//109 
f 110//110 107//107 109//109 
f 107//107 105//105 109//109 
f 108//108 111//111 112//112 
f 111//111 113//113 112//112 
f 113//113 110//110 112//112 
f 110//110 108//108 112//112 
f 111//111 114//114 115//115 
f 114//114 116//116 115//115 
f 116//116 113//113 115//115 
f 113//113 111//111 115//115 
f 114//114 117//117 118//118 
f 117//117 119//119 118//118 
f 119//119 116//116 118//118 
f 116//116 114//114 118//118 
f 117//117 120//120 121//121 
f 120//120 122//122 121//121 
f 122//122 119//119 121//121 
f 119//119 117//117 121//121 
f 120//120 123//123 124//124 
f 123//123 125//125 124//124 
f 125//125 122//122 124//124 
f 122//122 120//120 124//124 
f 123//123 126//126 127//127 
f 126//126 128//128 127//127 
f 128//128 125//125 127//127 
f 125//125 123//123 127//127 
f 126//126 129//129 130//130 
f 129//129 131//131 130//130 
f 131//131 128//128 130//130 
f 128//128 126//126 130//130 
f 129//129 132//132 133//133 
f 132//132 134//134 133//133 
f 134//134 131//131 133//133 
f 131//131 129//129 133//133 
f 132//132 135//135 136//136 
f 135//135 137//137 136//136 
f 137//137 134//134 136//136 
f 134//134 132//132 136//136 
f 135//135 138//138 139//139 
f 138//138 140//140 139//139 
f 140//140 137//137 139//139 
f 137//137 135//135 139//139 
f 138//138 141//141 142//142 
f 141//141 143//143 142//142 
f 143//143 140//140 142//142 
f 140//140 138//138 142//142 
f 141//141 144//144 145//145 
f 144//144 146//146 145//145 
f 146//146 143//143 145//145 
f 143//143 141//141 145//145 
f 144//144 147//147 148//148 
f 147//147 149//149 148//148 
f 149//149 146//146 148//148 
f 146//146 144//144 148//148 
f 147//147 150//150 151//151 
f 150//150 152//152 151//151 
f 152//152 149//149 151//151 
f 149//149 147//147 151//151 
f 150//150 153//153 154//154 
f 153//153 155//155 154//154 
f 155//155 152//152 154//154 
f 152//152 150//150 154//154 
f 153//153 156//156 157//157 
f 156//156 158//158 157//157 
f 158//158 155//155 157//157 
f 155//155 153//153 157//157 
f 156//156 159//159 160//160 
f 159//159 161//161 160//160 
f 161//161 158//158 160//160 
f 158//158 156//156 160//160 
f 159//159 162//162 163//163 
f 162//162 164//164 163//163 
f 164//164 161//161 163//163 
f 161//161 159//159 163//163 
f 162//162 165//165 166//166 
f 165//165 167//167 166//166 
f 167//167 164//164 166//166 
f 164//164 162//162 166//166 
f 165//165 168//168 169//169 
f 168//168 170//170 169//169 
f 170//170 167//167 169//169 
f 167//167 165//165 169//169 
f 168//168 171//171 172//172 
f 171//171 173//173 172//172 
f 173//173 170//170 172//172 
f 170//170 168//168 172//172 
f 171//171 174//174 175//175 
f 174//174 176//176 175//175 
f 176//176 173//173 175//175 
f 173//173 171//171 175//175 
f 174//174 177//177 178//178 
f 177//177 179//179 178//178 
f 179//179 176//176 178//178 
f 176//176 174//174 178//178 
f 177//177 180//180 181//181 
f 180//180 182//182 181//181 
f 182//182 179//179 181//181 
f 179//179 177//177 181//181 
f 180//180 183//183 184//184 
f 183//183 185//185 184//184 
f 185//185 182//182 184//184 
f 182//182 180//180 184//184 
f 183//183 186//186 187//187 
f 186//186 188//188 187//187 
f 188//188 185//185 187//187 
f 185//185 183//183 187//187 
f 186//186 189//189 190//190 
f 189//189 191//191 190//190 
f 191//191 188//188 190//190 
f 188//188 186//186 190//190 
f 189//189 192//192 193//193 
f 192//192 194//194 193//193 
f 194//194 191//191 193//193 
f 191//191 189//189 193//193 
s 4
f 192//192 195//195 196//196 
f 195//195 197//197 196//196 
f 197//197 194//194 196//196 
f 194//194 192//192 196//196 
s 2
f 195//195 198//198 199//199 
f 198//198 200//200 199//199 
f 200//200 197//197 199//199 
f 197//197 195//195 199//199 
s 4
f 198//198 201//201 202//31 
f 201//201 203//202 202//31 
f 203//202 200//200 202//31 
f 200//200 198//198 202//31 
s 2
f 201//201 204//203 205//204 
f 204//203 206//205 205//204 
f 206//205 203//202 205//204 
f 203//202 201//201 205//204 
f 204//203 207//206 208//207 
f 207//206 209//208 208//207 
f 209//208 206//205 208//207 
f 206//205 204//203 208//207 
f 207//206 210//209 211//210 
f 210//209 212//211 211//210 
f 212//211 209//208 211//210 
f 209//208 207//206 211//210 
f 210//209 213//212 214//213 
f 213//212 215//214 214//213 
f 215//214 212//211 214//213 
f 212//211 210//209 214//213 
f 213//212 216//215 217//216 
f 216//215 218//217 217//216 
f 218//217 215//214 217//216 
f 215//214 213//212 217//216 
f 216//215 219//218 220//219 
f 219//218 221//220 220//219 
f 221//220 218//217 220//219 
f 218//217 216//215 220//219 
f 219//218 222//221 223//222 
f 222//221 224//223 223//222 
f 224//223 221//220 223//222 
f 221//220 219//218 223//222 
f 222//221 225//224 226//225 
f 225//224 227//226 226//225 
f 227//226 224//223 226//225 
f 224//223 222//221 226//225 
f 225//224 228//227 229//228 
f 228//227 230//229 229//228 
f 230//229 227//226 229//228 
f 227//226 225//224 229//228 
f 228//227 231//230 232//231 
f 231//230 233//232 232//231 
f 233//232 230//229 232//231 
f 230//229 228//227 232//231 
f 231//230 234//233 235//234 
f 234//233 236//235 235//234 
f 236//235 233//232 235//234 
f 233//232 231//230 235//234 
f 234//233 237//236 238//237 
f 237//236 239//238 238//237 
f 239//238 236//235 238//237 
f 236//235 234//233 238//237 
f 237//236 240//239 241//240 
f 240//239 242//241 241//240 
f 242//241 239//238 241//240 
f 239//238 237//236 241//240 
f 240//239 243//242 244//243 
f 243//242 245//244 244//243 
f 245//244 242//241 244//243 
f 242//241 240//239 244//243 
f 243//242 246//245 247//246 
f 246//245 248//247 247//246 
f 248//247 245//244 247//246 
f 245//244 243//242 247//246 
f 246//245 249//248 250//249 
f 249//248 251//250 250//249 
f 251//250 248//247 250//249 
f 248//247 246//245 250//249 
f 249//248 252//251 253//252 
f 252//251 254//253 253//252 
f 254//253 251//250 253//252 
f 251//250 249//248 253//252 
f 252//251 255//254 256//255 
f 255//254 257//256 256//255 
f 257//256 254//253 256//255 
f 254//253 252//251 256//255 
s 4
f 255//254 258//257 259//196 
f 258//257 260//258 259//196 
f 260//258 257//256 259//196 
f 257//256 255//254 259//196 
s 2
f 258//257 261//259 262//260 
f 261//259 263//261 262//260 
f 263//261 260//258 262//260 
f 260//258 258//257 262//260 
f 261//259 264//262 265//263 
f 264//262 266//264 265//263 
f 266//264 263//261 265//263 
f 263//261 261//259 265//263 
f 264//262 267//265 268//266 
f 267//265 269//267 268//266 
f 269//267 266//264 268//266 
f 266//264 264//262 268//266 
f 267//265 270//268 271//269 
f 270//268 272//270 271//269 
f 272//270 269//267 271//269 
f 269//267 267//265 271//269 
f 270//268 273//271 274//272 
f 273//271 275//273 274//272 
f 275//273 272//270 274//272 
f 272//270 270//268 274//272 
f 273//271 276//274 277//275 
f 276//274 278//276 277//275 
f 278//276 275//273 277//275 
f 275//273 273//271 277//275 
f 276//274 279//277 280//278 
f 279//277 281//279 280//278 
f 281//279 278//276 280//278 
f 278//276 276//274 280//278 
f 279//277 282//280 283//281 
f 282//280 284//282 283//281 
f 284//282 281//279 283//281 
f 281//279 279//277 283//281 
f 282//280 285//283 286//284 
f 285//283 287//285 286//284 
f 287//285 284//282 286//284 
f 284//282 282//280 286//284 
f 285//283 288//286 289//287 
f 288//286 290//288 289//287 
f 290//288 287//285 289//287 
f 287//285 285//283 289//287 
f 288//286 291//289 292//290 
f 291//289 293//291 292//290 
f 293//291 290//288 292//290 
f 290//288 288//286 292//290 
f 291//289 294//292 295//293 
f 294//292 296//294 295//293 
f 296//294 293//291 295//293 
f 293//291 291//289 295//293 
f 294//292 297//295 298//296 
f 297//295 299//297 298//296 
f 299//297 296//294 298//296 
f 296//294 294//292 298//296 
f 297//295 300//298 301//299 
f 300//298 302//300 301//299 
f 302//300 299//297 301//299 
f 299//297 297//295 301//299 
f 300//298 303//301 304//302 
f 303//301 305//303 304//302 
f 305//303 302//300 304//302 
f 302//300 300//298 304//302 
f 303//301 306//304 307//305 
f 306//304 308//306 307//305 
f 308//306 305//303 307//305 
f 305//303 303//301 307//305 
f 306//304 309//307 310//308 
f 309//307 311//309 310//308 
f 311//309 308//306 310//308 
f 308//306 306//304 310//308 
f 309//307 312//310 313//311 
f 312//310 314//312 313//311 
f 314//312 311//309 313//311 
f 311//309 309//307 313//311 
f 312//310 315//313 316//314 
f 315//313 317//315 316//314 
f 317//315 314//312 316//314 
f 314//312 312//310 316//314 
f 315//313 318//316 319//317 
f 318//316 320//318 319//317 
f 320//318 317//315 319//317 
f 317//315 315//313 319//317 
f 318//316 321//319 322//320 
f 321//319 323//321 322//320 
f 323//321 320//318 322//320 
f 320//318 318//316 322//320 
f 321//319 324//322 325//323 
f 324//322 326//324 325//323 
f 326//324 323//321 325//323 
f 323//321 321//319 325//323 
f 324//322 327//325 328//326 
f 327//325 329//327 328//326 
f 329//327 326//324 328//326 
f 326//324 324//322 328//326 
f 327//325 330//328 331//329 
f 330//328 332//330 331//329 
f 332//330 329//327 331//329 
f 329//327 327//325 331//329 
f 330//328 333//331 334//332 
f 333//331 335//333 334//332 
f 335//333 332//330 334//332 
f 332//330 330//328 334//332 
f 333//331 336//334 337//335 
f 336//334 338//336 337//335 
f 338//336 335//333 337//335 
f 335//333 333//331 337//335 
f 336//334 339//337 340//338 
f 339//337 341//339 340//338 
f 341//339 338//336 340//338 
f 338//336 336//334 340//338 
f 339//337 342//340 343//341 
f 342//340 344//342 343//341 
f 344//342 341//339 343//341 
f 341//339 339//337 343//341 
f 342//340 345//343 346//344 
f 345//343 347//345 346//344 
f 347//345 344//342 346//344 
f 344//342 342//340 346//344 
f 345//343 348//346 349//347 
f 348//346 350//348 349//347 
f 350//348 347//345 349//347 
f 347//345 345//343 349//347 
f 348//346 351//349 352//350 
f 351//349 353//351 352//350 
f 353//351 350//348 352//350 
f 350//348 348//346 352//350 
f 351//349 354//352 355//353 
f 354//352 356//354 355//353 
f 356//354 353//351 355//353 
f 353//351 351//349 355//353 
f 354//352 357//355 358//356 
f 357//355 359//357 358//356 
f 359//357 356//354 358//356 
f 356//354 354//352 358//356 
f 357//355 360//358 361//359 
f 360//358 362//360 361//359 
f 362//360 359//357 361//359 
f 359//357 357//355 361//359 
f 360//358 363//361 364//362 
f 363//361 365//363 364//362 
f 365//363 362//360 364//362 
f 362//360 360//358 364//362 
f 363//361 366//364 367//365 
f 366//364 368//366 367//365 
f 368//366 365//363 367//365 
f 365//363 363//361 367//365 
s 4
f 366//364 369//367 370//31 
f 369//367 371//368 370//31 
f 371//368 368//366 370//31 
f 368//366 366//364 370//31 
s 2
f 369//367 1//1 372//369 
f 1//1 5//5 372//369 
f 5//5 371//368 372//369 
f 371//368 369//367 372//369 
s 1
f 373//370 374//371 375//372 
f 374//371 376//373 375//372 
f 376//373 377//374 375//372 
f 377//374 373//370 375//372 
s 3
f 374//371 378//375 379//376 
f 378//375 380//377 379//376 
f 380//377 376//373 379//376 
f 376//373 374//371 379//376 
s 2
f 378//375 381//378 382//379 
f 381//378 383//380 382//379 
f 383//380 380//377 382//379 
f 380//377 378//375 382//379 
f 381//378 384//381 385//382 
f 384//381 386//383 385//382 
f 386//383 383//380 385//382 
f 383//380 381//378 385//382 
f 384//381 387//384 388//385 
f 387//384 389//386 388//385 
f 389//386 386//383 388//385 
f 386//383 384//381 388//385 
f 387//384 390//387 391//388 
f 390//387 392//389 391//388 
f 392//389 389//386 391//388 
f 389//386 387//384 391//388 
f 390//387 393//390 394//391 
f 393//390 395//392 394//391 
f 395//392 392//389 394//391 
f 392//389 390//387 394//391 
f 393//390 396//393 397//394 
f 396//393 398//395 397//394 
f 398//395 395//392 397//394 
f 395//392 393//390 397//394 
f 396//393 399//396 400//397 
f 399//396 401//398 400//397 
f 401//398 398//395 400//397 
f 398//395 396//393 400//397 
f 399//396 402//399 403//400 
f 402//399 404//401 403//400 
f 404//401 401//398 403//400 
f 401//398 399//396 403//400 
f 402//399 405//402 406//403 
f 405//402 407//404 406//403 
f 407//404 404//401 406//403 
f 404//401 402//399 406//403 
f 405//402 408//405 409//406 
f 408//405 410//407 409//406 
f 410//407 407//404 409//406 
f 407//404 405//402 409//406 
f 408//405 411//408 412//409 
f 411//408 413//410 412//409 
f 413//410 410//407 412//409 
f 410//407 408//405 412//409 
f 411//408 414//411 415//412 
f 414//411 416//413 415//412 
f 416//413 413//410 415//412 
f 413//410 411//408 415//412 
f 414//411 417//414 418//415 
f 417//414 419//416 418//415 
f 419//416 416//413 418//415 
f 416//413 414//411 418//415 
f 417//414 420//417 421//418 
f 420//417 422//419 421//418 
f 422//419 419//416 421//418 
f 419//416 417//414 421//418 
f 420//417 423//420 424//421 
f 423//420 425//422 424//421 
f 425//422 422//419 424//421 
f 422//419 420//417 424//421 
f 423//420 426//423 427//424 
f 426//423 428//425 427//424 
f 428//425 425//422 427//424 
f 425//422 423//420 427//424 
f 426//423 429//426 430//427 
f 429//426 431//428 430//427 
f 431//428 428//425 430//427 
f 428//425 426//423 430//427 
f 429//426 432//429 433//430 
f 432//429 434//431 433//430 
f 434//431 431//428 433//430 
f 431//428 429//426 433//430 
f 432//429 435//432 436//433 
f 435//432 437//434 436//433 
f 437//434 434//431 436//433 
f 434//431 432//429 436//433 
f 435//432 438//435 439//436 
f 438//435 440//437 439//436 
f 440//437 437//434 439//436 
f 437//434 435//432 439//436 
f 438//435 441//438 442//439 
f 441//438 443//440 442//439 
f 443//440 440//437 442//439 
f 440//437 438//435 442//439 
f 441//438 444//441 445//442 
f 444//441 446//443 445//442 
f 446//443 443//440 445//442 
f 443//440 441//438 445//442 
f 444//441 447//444 448//445 
f 447//444 449//446 448//445 
f 449//446 446//443 448//445 
f 446//443 444//441 448//445 
f 447//444 450//447 451//448 
f 450//447 452//449 451//448 
f 452//449 449//446 451//448 
f 449//446 447//444 451//448 
f 450//447 453//450 454//451 
f 453//450 455//452 454//451 
f 455//452 452//449 454//451 
f 452//449 450//447 454//451 
f 453//450 456//453 457//454 
f 456//453 458//455 457//454 
f 458//455 455//452 457//454 
f 455//452 453//450 457//454 
f 456//453 459//456 460//457 
f 459//456 461//458 460//457 
f 461//458 458//455 460//457 
f 458//455 456//453 460//457 
f 459//456 462//459 463//460 
f 462//459 464//461 463//460 
f 464//461 461//458 463//460 
f 461//458 459//456 463//460 
f 462//459 465//462 466//463 
f 465//462 467//464 466//463 
f 467//464 464//461 466//463 
f 464//461 462//459 466//463 
f 465//462 468//465 469//466 
f 468//465 470//467 469//466 
f 470//467 467//464 469//466 
f 467//464 465//462 469//466 
f 468//465 471//468 472//469 
f 471//468 473//470 472//469 
f 473//470 470//467 472//469 
f 470//467 468//465 472//469 
f 471//468 474//471 475//472 
f 474//471 476//473 475//472 
f 476//473 473//470 475//472 
f 473//470 471//468 475//472 
f 474//471 477//474 478//475 
f 477//474 479//476 478//475 
f 479//476 476//473 478//475 
f 476//473 474//471 478//475 
s 3
f 477//474 373//370 480//477 
f 373//370 377//374 480//477 
f 377//374 479//476 480//477 
f 479//476 477//474 480//477 
s 1
f 481//478 482//479 483//480 
f 482//479 484//481 483//480 
f 484//481 485//482 483//480 
f 485//482 481//478 483//480 
s 3
f 482//479 486//483 487//484 
f 486//483 488//485 487//484 
f 488//485 484//481 487//484 
f 484//481 482//479 487//484 
s 2
f 486//483 489//486 490//487 
f 489//486 491//488 490//487 
f 491//488 488//485 490//487 
f 488//485 486//483 490//487 
f 489//486 492//489 493//490 
f 492//489 494//491 493//490 
f 494//491 491//488 493//490 
f 491//488 489//486 493//490 
f 492//489 495//492 496//493 
f 495//492 497//494 496//493 
f 497//494 494//491 496//493 
f 494//491 492//489 496//493 
f 495//492 498//495 499//496 
f 498//495 500//497 499//496 
f 500//497 497//494 499//496 
f 497//494 495//492 499//496 
f 498//495 501//498 502//499 
f 501//498 503//500 502//499 
f 503//500 500//497 502//499 
f 500//497 498//495 502//499 
f 501//498 504//501 505//502 
f 504//501 506//503 505//502 
f 506//503 503//500 505//502 
f 503//500 501//498 505//502 
f 504//501 507//504 508//505 
f 507//504 509//506 508//505 
f 509//506 506//503 508//505 
f 506//503 504//501 508//505 
f 507//504 510//507 511//508 
f 510//507 512//509 511//508 
f 512//509 509//506 511//508 
f 509//506 507//504 511//508 
f 510//507 513//510 514//511 
f 513//510 515//512 514//511 
f 515//512 512//509 514//511 
f 512//509 510//507 514//511 
f 513//510 516//513 517//514 
f 516//513 518//515 517//514 
f 518//515 515//512 517//514 
f 515//512 513//510 517//514 
f 516//513 519//516 520//517 
f 519//516 521//518 520//517 
f 521//518 518//515 520//517 
f 518//515 516//513 520//517 
f 519//516 522//519 523//520 
f 522//519 524//521 523//520 
f 524//521 521//518 523//520 
f 521//518 519//516 523//520 
f 522//519 525//522 526//523 
f 525//522 527//524 526//523 
f 527//524 524//521 526//523 
f 524//521 522//519 526//523 
f 525//522 528//525 529//526 
f 528//525 530//527 529//526 
f 530//527 527//524 529//526 
f 527//524 525//522 529//526 
f 528//525 531//528 532//529 
f 531//528 533//530 532//529 
f 533//530 530//527 532//529 
f 530//527 528//525 532//529 
f 531//528 534//531 535//532 
f 534//531 536//533 535//532 
f 536//533 533//530 535//532 
f 533//530 531//528 535//532 
f 534//531 537//534 538//535 
f 537//534 539//536 538//535 
f 539//536 536//533 538//535 
f 536//533 534//531 538//535 
f 537//534 540//537 541//538 
f 540//537 542//539 541//538 
f 542//539 539//536 541//538 
f 539//536 537//534 541//538 
f 540//537 543//540 544//541 
f 543//540 545//542 544//541 
f 545//542 542//539 544//541 
f 542//539 540//537 544//541 
f 543//540 546//543 547//544 
f 546//543 548//545 547//544 
f 548//545 545//542 547//544 
f 545//542 543//540 547//544 
f 546//543 549//546 550//547 
f 549//546 551//548 550//547 
f 551//548 548//545 550//547 
f 548//545 546//543 550//547 
f 549//546 552//549 553//550 
f 552//549 554//551 553//550 
f 554//551 551//548 553//550 
f 551//548 549//546 553//550 
f 552//549 555//552 556//553 
f 555//552 557//554 556//553 
f 557//554 554//551 556//553 
f 554//551 552//549 556//553 
f 555//552 558//555 559//556 
f 558//555 560//557 559//556 
f 560//557 557//554 559//556 
f 557//554 555//552 559//556 
s 4
f 558//555 561//558 562//196 
f 561//558 563//559 562//196 
f 563//559 560//557 562//196 
f 560//557 558//555 562//196 
s 3
f 561//558 481//478 564//560 
f 481//478 485//482 564//560 
f 485//482 563//559 564//560 
f 563//559 561//558 564//560 
s 16
f 1//1 369//367 565//561 
f 369//367 366//364 565//561 
f 366//364 414//411 565//561 
f 414//411 411//408 565//561 
f 411//408 1//1 565//561 
f 5//5 4//4 566//562 
f 4//4 398//395 566//562 
f 398//395 401//398 566//562 
f 401//398 5//5 566//562 
f 264//262 261//259 567//561 
f 261//259 258//257 567//561 
f 258//257 255//254 567//561 
f 255//254 568//561 396//393 567//561 
f 396//393 393//390 567//561 
f 393//390 264//262 567//561 
f 411//408 408//405 569//561 
f 408//405 1//1 569//561 
f 1//1 411//408 569//561 
f 408//405 405//402 570//561 
f 405//402 1//1 570//561 
f 1//1 408//405 570//561 
f 405//402 402//399 571//561 
f 402//399 1//1 571//561 
f 1//1 405//402 571//561 
f 402//399 399//396 572//561 
f 399//396 1//1 572//561 
f 1//1 402//399 572//561 
f 399//396 396//393 568//561 
f 255//254 2//2 568//561 
f 2//2 1//1 568//561 
f 1//1 399//396 568//561 
f 561//558 558//555 573//561 
f 558//555 36//36 573//561 
f 36//36 33//33 573//561 
f 33//33 30//30 573//561 
f 30//30 27//27 573//561 
f 27//27 201//201 573//561 
f 558//555 555//552 574//561 
f 555//552 42//42 574//561 
f 42//42 39//39 574//561 
f 39//39 36//36 574//561 
f 36//36 558//555 574//561 
f 27//27 24//24 575//561 
f 24//24 219//218 575//561 
f 219//218 216//215 575//561 
f 216//215 213//212 575//561 
f 213//212 210//209 575//561 
f 210//209 207//206 575//561 
f 207//206 204//203 575//561 
f 204//203 201//201 575//561 
f 201//201 27//27 575//561 
f 24//24 21//21 576//561 
f 21//21 228//227 576//561 
f 228//227 225//224 576//561 
f 225//224 222//221 576//561 
f 222//221 219//218 576//561 
f 219//218 24//24 576//561 
f 21//21 18//18 577//561 
f 18//18 234//233 577//561 
f 234//233 231//230 577//561 
f 231//230 228//227 577//561 
f 228//227 21//21 577//561 
f 18//18 15//15 578//561 
f 15//15 240//239 578//561 
f 240//239 237//236 578//561 
f 237//236 234//233 578//561 
f 234//233 18//18 578//561 
f 15//15 12//12 579//561 
f 12//12 249//248 579//561 
f 249//248 246//245 579//561 
f 246//245 243//242 579//561 
f 243//242 240//239 579//561 
f 240//239 15//15 579//561 
f 12//12 9//9 580//561 
f 9//9 255//254 580//561 
f 255//254 252//251 580//561 
f 252//251 249//248 580//561 
f 249//248 12//12 580//561 
f 9//9 6//6 581//561 
f 6//6 255//254 581//561 
f 255//254 9//9 581//561 
f 6//6 2//2 582//561 
f 2//2 255//254 582//561 
f 255//254 6//6 582//561 
f 555//552 552//549 583//561 
f 552//549 48//48 583//561 
f 48//48 45//45 583//561 
f 45//45 42//42 583//561 
f 42//42 555//552 583//561 
f 552//549 549//546 584//561 
f 549//546 54//54 584//561 
f 54//54 51//51 584//561 
f 51//51 48//48 584//561 
f 48//48 552//549 584//561 
f 549//546 546//543 585//561 
f 546//543 60//60 585//561 
f 60//60 57//57 585//561 
f 57//57 54//54 585//561 
f 54//54 549//546 585//561 
f 546//543 543//540 586//561 
f 543//540 69//69 586//561 
f 69//69 66//66 586//561 
f 66//66 63//63 586//561 
f 63//63 60//60 586//561 
f 60//60 546//543 586//561 
f 543//540 540//537 587//561 
f 540//537 78//78 587//561 
f 78//78 75//75 587//561 
f 75//75 72//72 587//561 
f 72//72 69//69 587//561 
f 69//69 543//540 587//561 
f 540//537 537//534 588//561 
f 537//534 84//84 588//561 
f 84//84 81//81 588//561 
f 81//81 78//78 588//561 
f 78//78 540//537 588//561 
f 537//534 534//531 589//561 
f 534//531 87//87 589//561 
f 87//87 84//84 589//561 
f 84//84 537//534 589//561 
f 534//531 531//528 590//561 
f 531//528 90//90 590//561 
f 90//90 87//87 590//561 
f 87//87 534//531 590//561 
f 531//528 528//525 591//561 
f 528//525 96//96 591//561 
f 96//96 93//93 591//561 
f 93//93 90//90 591//561 
f 90//90 531//528 591//561 
f 528//525 525//522 592//561 
f 525//522 102//102 592//561 
f 102//102 99//99 592//561 
f 99//99 96//96 592//561 
f 96//96 528//525 592//561 
f 525//522 522//519 593//561 
f 522//519 108//108 593//561 
f 108//108 105//105 593//561 
f 105//105 102//102 593//561 
f 102//102 525//522 593//561 
f 522//519 519//516 594//561 
f 519//516 114//114 594//561 
f 114//114 111//111 594//561 
f 111//111 108//108 594//561 
f 108//108 522//519 594//561 
f 519//516 516//513 595//561 
f 516//513 120//120 595//561 
f 120//120 117//117 595//561 
f 117//117 114//114 595//561 
f 114//114 519//516 595//561 
f 516//513 513//510 596//561 
f 513//510 123//123 596//561 
f 123//123 120//120 596//561 
f 120//120 516//513 596//561 
f 513//510 510//507 597//561 
f 510//507 129//129 597//561 
f 129//129 126//126 597//561 
f 126//126 123//123 597//561 
f 123//123 513//510 597//561 
f 510//507 507//504 598//561 
f 507//504 132//132 598//561 
f 132//132 129//129 598//561 
f 129//129 510//507 598//561 
f 507//504 504//501 599//561 
f 504//501 138//138 599//561 
f 138//138 135//135 599//561 
f 135//135 132//132 599//561 
f 132//132 507//504 599//561 
f 504//501 501//498 600//561 
f 501//498 141//141 600//561 
f 141//141 138//138 600//561 
f 138//138 504//501 600//561 
f 501//498 498//495 601//561 
f 498//495 147//147 601//561 
f 147//147 144//144 601//561 
f 144//144 141//141 601//561 
f 141//141 501//498 601//561 
f 498//495 495//492 602//561 
f 495//492 153//153 602//561 
f 153//153 150//150 602//561 
f 150//150 147//147 602//561 
f 147//147 498//495 602//561 
f 495//492 492//489 603//561 
f 492//489 156//156 603//561 
f 156//156 153//153 603//561 
f 153//153 495//492 603//561 
f 492//489 489//486 604//561 
f 489//486 165//165 604//561 
f 165//165 162//162 604//561 
f 162//162 159//159 604//561 
f 159//159 156//156 604//561 
f 156//156 492//489 604//561 
f 489//486 486//483 605//561 
f 486//483 171//171 605//561 
f 171//171 168//168 605//561 
f 168//168 165//165 605//561 
f 165//165 489//486 605//561 
f 486//483 482//479 606//561 
f 482//479 177//177 606//561 
f 177//177 174//174 606//561 
f 174//174 171//171 606//561 
f 171//171 486//483 606//561 
f 482//479 481//478 607//561 
f 481//478 186//186 607//561 
f 186//186 183//183 607//561 
f 183//183 180//180 607//561 
f 180//180 177//177 607//561 
f 177//177 482//479 607//561 
f 201//201 198//198 608//561 
f 198//198 195//195 608//561 
f 195//195 192//192 608//561 
f 192//192 201//201 608//561 
f 192//192 189//189 609//561 
f 189//189 186//186 609//561 
f 186//186 481//478 609//561 
f 481//478 561//558 609//561 
f 561//558 573//561 201//201 609//561 
f 201//201 192//192 609//561 
f 393//390 390//387 610//561 
f 390//387 267//265 610//561 
f 267//265 264//262 610//561 
f 264//262 393//390 610//561 
f 390//387 387//384 611//561 
f 387//384 270//268 611//561 
f 270//268 267//265 611//561 
f 267//265 390//387 611//561 
f 387//384 384//381 612//561 
f 384//381 273//271 612//561 
f 273//271 270//268 612//561 
f 270//268 387//384 612//561 
f 384//381 381//378 613//561 
f 381//378 276//274 613//561 
f 276//274 273//271 613//561 
f 273//271 384//381 613//561 
f 381//378 378//375 614//561 
f 378//375 279//277 614//561 
f 279//277 276//274 614//561 
f 276//274 381//378 614//561 
f 378//375 374//371 615//561 
f 374//371 282//280 615//561 
f 282//280 279//277 615//561 
f 279//277 378//375 615//561 
f 374//371 373//370 616//561 
f 373//370 282//280 616//561 
f 282//280 374//371 616//561 
f 373//370 477//474 617//561 
f 477//474 285//283 617//561 
f 285//283 282//280 617//561 
f 282//280 373//370 617//561 
f 477//474 474//471 618//561 
f 474//471 288//286 618//561 
f 288//286 285//283 618//561 
f 285//283 477//474 618//561 
f 474//471 471//468 619//561 
f 471//468 294//292 619//561 
f 294//292 291//289 619//561 
f 291//289 288//286 619//561 
f 288//286 474//471 619//561 
f 471//468 468//465 620//561 
f 468//465 300//298 620//561 
f 300//298 297//295 620//561 
f 297//295 294//292 620//561 
f 294//292 471//468 620//561 
f 468//465 465//462 621//561 
f 465//462 306//304 621//561 
f 306//304 303//301 621//561 
f 303//301 300//298 621//561 
f 300//298 468//465 621//561 
f 465//462 462//459 622//561 
f 462//459 312//310 622//561 
f 312//310 309//307 622//561 
f 309//307 306//304 622//561 
f 306//304 465//462 622//561 
f 462//459 459//456 623//561 
f 459//456 321//319 623//561 
f 321//319 318//316 623//561 
f 318//316 315//313 623//561 
f 315//313 312//310 623//561 
f 312//310 462//459 623//561 
f 459//456 456//453 624//561 
f 456//453 327//325 624//561 
f 327//325 324//322 624//561 
f 324//322 321//319 624//561 
f 321//319 459//456 624//561 
f 456//453 453//450 625//561 
f 453//450 333//331 625//561 
f 333//331 330//328 625//561 
f 330//328 327//325 625//561 
f 327//325 456//453 625//561 
f 453//450 450//447 626//561 
f 450//447 339//337 626//561 
f 339//337 336//334 626//561 
f 336//334 333//331 626//561 
f 333//331 453//450 626//561 
f 450//447 447//444 627//561 
f 447//444 342//340 627//561 
f 342//340 339//337 627//561 
f 339//337 450//447 627//561 
f 447//444 444//441 628//561 
f 444//441 345//343 628//561 
f 345//343 342//340 628//561 
f 342//340 447//444 628//561 
f 444//441 441//438 629//561 
f 441//438 348//346 629//561 
f 348//346 345//343 629//561 
f 345//343 444//441 629//561 
f 441//438 438//435 630//561 
f 438//435 351//349 630//561 
f 351//349 348//346 630//561 
f 348//346 441//438 630//561 
f 438//435 435//432 631//561 
f 435//432 354//352 631//561 
f 354//352 351//349 631//561 
f 351//349 438//435 631//561 
f 435//432 432//429 632//561 
f 432//429 357//355 632//561 
f 357//355 354//352 632//561 
f 354//352 435//432 632//561 
f 432//429 429//426 633//561 
f 429//426 360//358 633//561 
f 360//358 357//355 633//561 
f 357//355 432//429 633//561 
f 429//426 426//423 634//561 
f 426//423 363//361 634//561 
f 363//361 360//358 634//561 
f 360//358 429//426 634//561 
f 426//423 423//420 635//561 
f 423//420 366//364 635//561 
f 366//364 363//361 635//561 
f 363//361 426//423 635//561 
f 423//420 420//417 636//561 
f 420//417 366//364 636//561 
f 366//364 423//420 636//561 
f 420//417 417//414 637//561 
f 417//414 366//364 637//561 
f 366//364 420//417 637//561 
f 417//414 414//411 638//561 
f 414//411 366//364 638//561 
f 366//364 417//414 638//561 
f 4//4 8//8 639//562 
f 8//8 257//256 639//562 
f 257//256 4//4 639//562 
f 401//398 404//401 640//562 
f 404//401 5//5 640//562 
f 5//5 401//398 640//562 
f 404//401 407//404 641//562 
f 407//404 5//5 641//562 
f 5//5 404//401 641//562 
f 407//404 410//407 642//562 
f 410//407 5//5 642//562 
f 5//5 407//404 642//562 
f 410//407 413//410 643//562 
f 413//410 5//5 643//562 
f 5//5 410//407 643//562 
f 413//410 416//413 644//562 
f 416//413 5//5 644//562 
f 5//5 413//410 644//562 
f 416//413 419//416 645//562 
f 419//416 368//366 645//562 
f 368//366 371//368 645//562 
f 371//368 5//5 645//562 
f 5//5 416//413 645//562 
f 419//416 422//419 646//562 
f 422//419 368//366 646//562 
f 368//366 419//416 646//562 
f 422//419 425//422 647//562 
f 425//422 368//366 647//562 
f 368//366 422//419 647//562 
f 425//422 428//425 648//562 
f 428//425 365//363 648//562 
f 365//363 368//366 648//562 
f 368//366 425//422 648//562 
f 428//425 431//428 649//562 
f 431//428 362//360 649//562 
f 362//360 365//363 649//562 
f 365//363 428//425 649//562 
f 431//428 434//431 650//562 
f 434//431 359//357 650//562 
f 359//357 362//360 650//562 
f 362//360 431//428 650//562 
f 434//431 437//434 651//562 
f 437//434 356//354 651//562 
f 356//354 359//357 651//562 
f 359//357 434//431 651//562 
f 437//434 440//437 652//562 
f 440//437 353//351 652//562 
f 353//351 356//354 652//562 
f 356//354 437//434 652//562 
f 440//437 443//440 653//562 
f 443//440 350//348 653//562 
f 350//348 353//351 653//562 
f 353//351 440//437 653//562 
f 443//440 446//443 654//562 
f 446//443 347//345 654//562 
f 347//345 350//348 654//562 
f 350//348 443//440 654//562 
f 446//443 449//446 655//562 
f 449//446 344//342 655//562 
f 344//342 347//345 655//562 
f 347//345 446//443 655//562 
f 449//446 452//449 656//562 
f 452//449 341//339 656//562 
f 341//339 344//342 656//562 
f 344//342 449//446 656//562 
f 452//449 455//452 657//562 
f 455//452 335//333 657//562 
f 335//333 338//336 657//562 
f 338//336 341//339 657//562 
f 341//339 452//449 657//562 
f 455//452 458//455 658//562 
f 458//455 329//327 658//562 
f 329//327 332//330 658//562 
f 332//330 335//333 658//562 
f 335//333 455//452 658//562 
f 458//455 461//458 659//562 
f 461//458 323//321 659//562 
f 323//321 326//324 659//562 
f 326//324 329//327 659//562 
f 329//327 458//455 659//562 
f 461//458 464//461 660//562 
f 464//461 314//312 660//562 
f 314//312 317//315 660//562 
f 317//315 320//318 660//562 
f 320//318 323//321 660//562 
f 323//321 461//458 660//562 
f 464//461 467//464 661//562 
f 467//464 308//306 661//562 
f 308//306 311//309 661//562 
f 311//309 314//312 661//562 
f 314//312 464//461 661//562 
f 467//464 470//467 662//562 
f 470//467 302//300 662//562 
f 302//300 305//303 662//562 
f 305//303 308//306 662//562 
f 308//306 467//464 662//562 
f 470//467 473//470 663//562 
f 473//470 296//294 663//562 
f 296//294 299//297 663//562 
f 299//297 302//300 663//562 
f 302//300 470//467 663//562 
f 473//470 476//473 664//562 
f 476//473 290//288 664//562 
f 290//288 293//291 664//562 
f 293//291 296//294 664//562 
f 296//294 473//470 664//562 
f 476//473 479//476 665//562 
f 479//476 287//285 665//562 
f 287//285 290//288 665//562 
f 290//288 476//473 665//562 
f 479//476 377//374 666//562 
f 377//374 284//282 666//562 
f 284//282 287//285 666//562 
f 287//285 479//476 666//562 
f 377//374 376//373 667//562 
f 376//373 284//282 667//562 
f 284//282 377//374 667//562 
f 376//373 380//377 668//562 
f 380//377 281//279 668//562 
f 281//279 284//282 668//562 
f 284//282 376//373 668//562 
f 380//377 383//380 669//562 
f 383//380 278//276 669//562 
f 278//276 281//279 669//562 
f 281//279 380//377 669//562 
f 383//380 386//383 670//562 
f 386//383 275//273 670//562 
f 275//273 278//276 670//562 
f 278//276 383//380 670//562 
f 386//383 389//386 671//562 
f 389//386 272//270 671//562 
f 272//270 275//273 671//562 
f 275//273 386//383 671//562 
f 389//386 392//389 672//562 
f 392//389 269//267 672//562 
f 269//267 272//270 672//562 
f 272//270 389//386 672//562 
f 392//389 395//392 673//562 
f 395//392 266//264 673//562 
f 266//264 269//267 673//562 
f 269//267 392//389 673//562 
f 395//392 398//395 674//562 
f 398//395 675//562 257//256 674//562 
f 257//256 260//258 674//562 
f 260//258 263//261 674//562 
f 263//261 266//264 674//562 
f 266//264 395//392 674//562 
f 8//8 11//11 676//562 
f 11//11 257//256 676//562 
f 257//256 8//8 676//562 
f 398//395 4//4 675//562 
f 4//4 257//256 675//562 
f 11//11 14//14 677//562 
f 14//14 251//250 677//562 
f 251//250 254//253 677//562 
f 254//253 257//256 677//562 
f 257//256 11//11 677//562 
f 14//14 17//17 678//562 
f 17//17 242//241 678//562 
f 242//241 245//244 678//562 
f 245//244 248//247 678//562 
f 248//247 251//250 678//562 
f 251//250 14//14 678//562 
f 17//17 20//20 679//562 
f 20//20 236//235 679//562 
f 236//235 239//238 679//562 
f 239//238 242//241 679//562 
f 242//241 17//17 679//562 
f 20//20 23//23 680//562 
f 23//23 230//229 680//562 
f 230//229 233//232 680//562 
f 233//232 236//235 680//562 
f 236//235 20//20 680//562 
f 23//23 26//26 681//562 
f 26//26 221//220 681//562 
f 221//220 224//223 681//562 
f 224//223 227//226 681//562 
f 227//226 230//229 681//562 
f 230//229 23//23 681//562 
f 26//26 29//29 682//562 
f 29//29 203//202 682//562 
f 203//202 206//205 682//562 
f 206//205 209//208 682//562 
f 209//208 212//211 682//562 
f 212//211 215//214 682//562 
f 215//214 218//217 682//562 
f 218//217 221//220 682//562 
f 221//220 26//26 682//562 
f 188//188 191//191 683//562 
f 191//191 194//194 683//562 
f 194//194 203//202 683//562 
f 203//202 684//562 563//559 683//562 
f 563//559 485//482 683//562 
f 485//482 188//188 683//562 
f 194//194 197//197 685//562 
f 197//197 200//200 685//562 
f 200//200 203//202 685//562 
f 203//202 194//194 685//562 
f 485//482 484//481 686//562 
f 484//481 179//179 686//562 
f 179//179 182//182 686//562 
f 182//182 185//185 686//562 
f 185//185 188//188 686//562 
f 188//188 485//482 686//562 
f 484//481 488//485 687//562 
f 488//485 173//173 687//562 
f 173//173 176//176 687//562 
f 176//176 179//179 687//562 
f 179//179 484//481 687//562 
f 488//485 491//488 688//562 
f 491//488 167//167 688//562 
f 167//167 170//170 688//562 
f 170//170 173//173 688//562 
f 173//173 488//485 688//562 
f 491//488 494//491 689//562 
f 494//491 158//158 689//562 
f 158//158 161//161 689//562 
f 161//161 164//164 689//562 
f 164//164 167//167 689//562 
f 167//167 491//488 689//562 
f 494//491 497//494 690//562 
f 497//494 155//155 690//562 
f 155//155 158//158 690//562 
f 158//158 494//491 690//562 
f 497//494 500//497 691//562 
f 500//497 149//149 691//562 
f 149//149 152//152 691//562 
f 152//152 155//155 691//562 
f 155//155 497//494 691//562 
f 500//497 503//500 692//562 
f 503//500 143//143 692//562 
f 143//143 146//146 692//562 
f 146//146 149//149 692//562 
f 149//149 500//497 692//562 
f 503//500 506//503 693//562 
f 506//503 140//140 693//562 
f 140//140 143//143 693//562 
f 143//143 503//500 693//562 
f 506//503 509//506 694//562 
f 509//506 134//134 694//562 
f 134//134 137//137 694//562 
f 137//137 140//140 694//562 
f 140//140 506//503 694//562 
f 509//506 512//509 695//562 
f 512//509 131//131 695//562 
f 131//131 134//134 695//562 
f 134//134 509//506 695//562 
f 512//509 515//512 696//562 
f 515//512 125//125 696//562 
f 125//125 128//128 696//562 
f 128//128 131//131 696//562 
f 131//131 512//509 696//562 
f 515//512 518//515 697//562 
f 518//515 122//122 697//562 
f 122//122 125//125 697//562 
f 125//125 515//512 697//562 
f 518//515 521//518 698//562 
f 521//518 116//116 698//562 
f 116//116 119//119 698//562 
f 119//119 122//122 698//562 
f 122//122 518//515 698//562 
f 521//518 524//521 699//562 
f 524//521 110//110 699//562 
f 110//110 113//113 699//562 
f 113//113 116//116 699//562 
f 116//116 521//518 699//562 
f 524//521 527//524 700//562 
f 527//524 104//104 700//562 
f 104//104 107//107 700//562 
f 107//107 110//110 700//562 
f 110//110 524//521 700//562 
f 527//524 530//527 701//562 
f 530//527 98//98 701//562 
f 98//98 101//101 701//562 
f 101//101 104//104 701//562 
f 104//104 527//524 701//562 
f 530//527 533//530 702//562 
f 533//530 92//92 702//562 
f 92//92 95//95 702//562 
f 95//95 98//98 702//562 
f 98//98 530//527 702//562 
f 533//530 536//533 703//562 
f 536//533 89//89 703//562 
f 89//89 92//92 703//562 
f 92//92 533//530 703//562 
f 536//533 539//536 704//562 
f 539//536 86//86 704//562 
f 86//86 89//89 704//562 
f 89//89 536//533 704//562 
f 539//536 542//539 705//562 
f 542//539 80//80 705//562 
f 80//80 83//83 705//562 
f 83//83 86//86 705//562 
f 86//86 539//536 705//562 
f 542//539 545//542 706//562 
f 545//542 71//71 706//562 
f 71//71 74//74 706//562 
f 74//74 77//77 706//562 
f 77//77 80//80 706//562 
f 80//80 542//539 706//562 
f 545//542 548//545 707//562 
f 548//545 62//62 707//562 
f 62//62 65//65 707//562 
f 65//65 68//68 707//562 
f 68//68 71//71 707//562 
f 71//71 545//542 707//562 
f 548//545 551//548 708//562 
f 551//548 56//56 708//562 
f 56//56 59//59 708//562 
f 59//59 62//62 708//562 
f 62//62 548//545 708//562 
f 551//548 554//551 709//562 
f 554//551 50//50 709//562 
f 50//50 53//53 709//562 
f 53//53 56//56 709//562 
f 56//56 551//548 709//562 
f 554//551 557//554 710//562 
f 557//554 44//44 710//562 
f 44//44 47//47 710//562 
f 47//47 50//50 710//562 
f 50//50 554//551 710//562 
f 557//554 560//557 711//562 
f 560//557 38//38 711//562 
f 38//38 41//41 711//562 
f 41//41 44//44 711//562 
f 44//44 557//554 711//562 
f 560//557 563//559 684//562 
f 203//202 29//29 684//562 
f 29//29 32//32 684//562 
f 32//32 35//35 684//562 
f 35//35 38//38 684//562 
f 38//38 560//557 684//562 
# 4 polygons - 1418 triangles

