# 3ds Max Wavefront OBJ Exporter v0.97b - (c)2007 guruware
# File Created: 20.02.2021 17:45:46

#
# object Bo_Bai_Mai
#

v  906.8868 0.0000 41.8468
v  906.8320 0.0000 43.0072
v  906.8594 5.0000 42.4270
v  906.8320 10.0000 43.0072
v  906.8868 10.0000 41.8468
v  906.6674 0.0000 44.0312
v  906.7497 5.0000 43.5192
v  906.6674 10.0000 44.0312
v  906.3932 0.0000 44.9186
v  906.5303 5.0000 44.4749
v  906.3932 10.0000 44.9186
v  906.0093 0.0000 45.6695
v  906.2012 5.0000 45.2941
v  906.0093 10.0000 45.6695
v  905.5156 0.0000 46.2839
v  905.7625 5.0000 45.9767
v  905.5156 10.0000 46.2839
v  904.9124 0.0000 46.7617
v  905.2140 5.0000 46.5228
v  904.9124 10.0000 46.7617
v  904.1993 0.0000 47.1030
v  904.5558 5.0000 46.9324
v  904.1993 10.0000 47.1030
v  903.3766 0.0000 47.3078
v  903.7880 5.0000 47.2054
v  903.3766 10.0000 47.3078
v  902.4442 0.0000 47.3761
v  902.9105 5.0000 47.3419
v  902.4442 10.0000 47.3761
v  888.2110 0.0000 47.3761
v  895.3276 5.0000 47.3761
v  888.2110 10.0000 47.3761
v  888.2110 0.0000 15.9789
v  888.2110 5.0000 31.6775
v  888.2110 10.0000 15.9789
v  888.0766 0.0000 13.5803
v  888.1438 5.0000 14.7796
v  888.0766 10.0000 13.5803
v  887.6735 0.0000 11.4640
v  887.8750 5.0000 12.5221
v  887.6735 10.0000 11.4640
v  887.0015 0.0000 9.6298
v  887.3375 5.0000 10.5469
v  887.0015 10.0000 9.6298
v  886.0609 0.0000 8.0778
v  886.5312 5.0000 8.8538
v  886.0609 10.0000 8.0778
v  884.8514 0.0000 6.8080
v  885.4561 5.0000 7.4429
v  884.8514 10.0000 6.8080
v  883.3732 0.0000 5.8203
v  884.1123 5.0000 6.3141
v  883.3732 10.0000 5.8203
v  881.6262 0.0000 5.1149
v  882.4997 5.0000 5.4676
v  881.6262 10.0000 5.1149
v  879.6105 0.0000 4.6916
v  880.6183 5.0000 4.9032
v  879.6105 10.0000 4.6916
v  877.3260 0.0000 4.5505
v  878.4683 5.0000 4.6210
v  877.3260 10.0000 4.5505
v  876.3394 0.0000 4.5853
v  876.8326 5.0000 4.5679
v  876.3394 10.0000 4.5853
v  875.4099 0.0000 4.6896
v  875.8746 5.0000 4.6374
v  875.4099 10.0000 4.6896
v  874.5375 0.0000 4.8634
v  874.9736 5.0000 4.7765
v  874.5375 10.0000 4.8634
v  873.7222 0.0000 5.1068
v  874.1298 5.0000 4.9851
v  873.7222 10.0000 5.1068
v  872.9640 0.0000 5.4197
v  873.3431 5.0000 5.2632
v  872.9640 10.0000 5.4197
v  872.2629 0.0000 5.8021
v  872.6135 5.0000 5.6109
v  872.2629 10.0000 5.8021
v  871.6190 0.0000 6.2541
v  871.9409 5.0000 6.0281
v  871.6190 10.0000 6.2541
v  871.0322 0.0000 6.7757
v  871.3256 5.0000 6.5149
v  871.0322 10.0000 6.7757
v  870.5024 0.0000 7.3667
v  870.7673 5.0000 7.0712
v  870.5024 10.0000 7.3667
v  870.0291 0.0000 8.0014
v  870.2657 5.0000 7.6841
v  870.0291 10.0000 8.0014
v  869.6115 0.0000 8.6538
v  869.8203 5.0000 8.3276
v  869.6115 10.0000 8.6538
v  869.2495 0.0000 9.3240
v  869.4305 5.0000 8.9889
v  869.2495 10.0000 9.3240
v  868.9432 0.0000 10.0119
v  869.0964 5.0000 9.6679
v  868.9432 10.0000 10.0119
v  868.6927 0.0000 10.7175
v  868.8180 5.0000 10.3647
v  868.6927 10.0000 10.7175
v  868.4977 0.0000 11.4409
v  868.5952 5.0000 11.0792
v  868.4977 10.0000 11.4409
v  868.3586 0.0000 12.1820
v  868.4282 5.0000 11.8114
v  868.3586 10.0000 12.1820
v  868.2750 0.0000 12.9408
v  868.3168 5.0000 12.5614
v  868.2750 10.0000 12.9408
v  868.2472 0.0000 13.7173
v  868.2611 5.0000 13.3291
v  868.2472 10.0000 13.7173
v  868.3724 0.0000 15.5779
v  868.3098 5.0000 14.6476
v  868.3724 10.0000 15.5779
v  868.7480 0.0000 17.2196
v  868.5602 5.0000 16.3987
v  868.7480 10.0000 17.2196
v  869.3742 0.0000 18.6423
v  869.0612 5.0000 17.9309
v  869.3742 10.0000 18.6423
v  870.2507 0.0000 19.8462
v  869.8124 5.0000 19.2443
v  870.2507 10.0000 19.8462
v  871.3777 0.0000 20.8312
v  870.8142 5.0000 20.3387
v  871.3777 10.0000 20.8312
v  872.7551 0.0000 21.5973
v  872.0664 5.0000 21.2143
v  872.7551 10.0000 21.5973
v  874.3830 0.0000 22.1445
v  873.5691 5.0000 21.8709
v  874.3830 10.0000 22.1445
v  876.2614 0.0000 22.4729
v  875.3221 5.0000 22.3087
v  876.2614 10.0000 22.4729
v  878.3901 0.0000 22.5823
v  877.3257 5.0000 22.5276
v  878.3901 10.0000 22.5823
v  878.3901 0.0000 47.3761
v  878.3901 5.0000 34.9792
v  878.3901 10.0000 47.3761
v  872.4332 0.0000 47.3761
v  875.4116 5.0000 47.3761
v  872.4332 10.0000 47.3761
v  872.4332 0.0000 54.1380
v  872.4332 5.0000 50.7570
v  872.4332 10.0000 54.1380
v  908.2628 0.0000 54.1380
v  890.3480 5.0000 54.1380
v  908.2628 10.0000 54.1380
v  909.1876 0.0000 54.1056
v  908.7252 5.0000 54.1218
v  909.1876 10.0000 54.1056
v  910.0580 0.0000 54.0084
v  909.6229 5.0000 54.0570
v  910.0580 10.0000 54.0084
v  910.8740 0.0000 53.8463
v  910.4661 5.0000 53.9274
v  910.8740 10.0000 53.8463
v  911.6356 0.0000 53.6195
v  911.2548 5.0000 53.7329
v  911.6356 10.0000 53.6195
v  912.3428 0.0000 53.3278
v  911.9892 5.0000 53.4736
v  912.3428 10.0000 53.3278
v  912.9955 0.0000 52.9713
v  912.6691 5.0000 53.1496
v  912.9955 10.0000 52.9713
v  913.5939 0.0000 52.5500
v  913.2947 5.0000 52.7607
v  913.5939 10.0000 52.5500
v  914.1378 0.0000 52.0639
v  913.8658 5.0000 52.3070
v  914.1378 10.0000 52.0639
v  914.6273 0.0000 51.5130
v  914.3826 5.0000 51.7884
v  914.6273 10.0000 51.5130
v  915.0639 0.0000 50.9210
v  914.8456 5.0000 51.2170
v  915.0639 10.0000 50.9210
v  915.4492 0.0000 50.3119
v  915.2566 5.0000 50.6165
v  915.4492 10.0000 50.3119
v  915.7831 0.0000 49.6857
v  915.6161 5.0000 49.9988
v  915.7831 10.0000 49.6857
v  916.0656 0.0000 49.0422
v  915.9243 5.0000 49.3639
v  916.0656 10.0000 49.0422
v  916.2968 0.0000 48.3816
v  916.1812 5.0000 48.7119
v  916.2968 10.0000 48.3816
v  916.4766 0.0000 47.7038
v  916.3867 5.0000 48.0427
v  916.4766 10.0000 47.7038
v  916.6050 0.0000 47.0088
v  916.5408 5.0000 47.3563
v  916.6050 10.0000 47.0088
v  916.6820 0.0000 46.2967
v  916.6435 5.0000 46.6527
v  916.6820 10.0000 46.2967
v  916.7077 0.0000 45.5674
v  916.6949 5.0000 45.9320
v  916.7077 10.0000 45.5674
v  916.7077 0.0000 4.7115
v  916.7077 5.0000 25.1394
v  916.7077 10.0000 4.7115
v  906.8868 0.0000 4.7115
v  911.7972 5.0000 4.7115
v  906.8868 10.0000 4.7115
v  906.8868 5.0000 23.2791
v  878.4159 0.0000 9.7511
v  879.2023 0.0000 9.8972
v  878.8091 5.0000 9.8242
v  879.2023 10.0000 9.8972
v  878.4159 10.0000 9.7511
v  879.8838 0.0000 10.1407
v  879.5430 5.0000 10.0190
v  879.8838 10.0000 10.1407
v  880.4604 0.0000 10.4816
v  880.1721 5.0000 10.3112
v  880.4604 10.0000 10.4816
v  880.9323 0.0000 10.9199
v  880.6964 5.0000 10.7007
v  880.9323 10.0000 10.9199
v  881.2993 0.0000 11.4555
v  881.1158 5.0000 11.1877
v  881.2993 10.0000 11.4555
v  881.5613 0.0000 12.0886
v  881.4303 5.0000 11.7721
v  881.5613 10.0000 12.0886
v  881.7186 0.0000 12.8191
v  881.6400 5.0000 12.4538
v  881.7186 10.0000 12.8191
v  881.7711 0.0000 13.6469
v  881.7449 5.0000 13.2330
v  881.7711 10.0000 13.6469
v  881.7186 0.0000 14.4748
v  881.7449 5.0000 14.0608
v  881.7186 10.0000 14.4748
v  881.5613 0.0000 15.2052
v  881.6400 5.0000 14.8400
v  881.5613 10.0000 15.2052
v  881.2993 0.0000 15.8383
v  881.4303 5.0000 15.5217
v  881.2993 10.0000 15.8383
v  880.9323 0.0000 16.3739
v  881.1158 5.0000 16.1061
v  880.9323 10.0000 16.3739
v  880.4604 0.0000 16.8122
v  880.6964 5.0000 16.5931
v  880.4604 10.0000 16.8122
v  879.8838 0.0000 17.1531
v  880.1721 5.0000 16.9827
v  879.8838 10.0000 17.1531
v  879.2023 0.0000 17.3966
v  879.5430 5.0000 17.2748
v  879.2023 10.0000 17.3966
v  878.4159 0.0000 17.5427
v  878.8091 5.0000 17.4696
v  878.4159 10.0000 17.5427
v  877.5247 0.0000 17.5914
v  877.9703 5.0000 17.5670
v  877.5247 10.0000 17.5914
v  876.6589 0.0000 17.5427
v  877.0918 5.0000 17.5670
v  876.6589 10.0000 17.5427
v  875.8948 0.0000 17.3966
v  876.2769 5.0000 17.4696
v  875.8948 10.0000 17.3966
v  875.2327 0.0000 17.1531
v  875.5638 5.0000 17.2748
v  875.2327 10.0000 17.1531
v  874.6725 0.0000 16.8122
v  874.9526 5.0000 16.9827
v  874.6725 10.0000 16.8122
v  874.2141 0.0000 16.3739
v  874.4432 5.0000 16.5931
v  874.2141 10.0000 16.3739
v  873.8575 0.0000 15.8383
v  874.0358 5.0000 16.1061
v  873.8575 10.0000 15.8383
v  873.6029 0.0000 15.2052
v  873.7302 5.0000 15.5217
v  873.6029 10.0000 15.2052
v  873.4501 0.0000 14.4748
v  873.5265 5.0000 14.8400
v  873.4501 10.0000 14.4748
v  873.3992 0.0000 13.6469
v  873.4246 5.0000 14.0608
v  873.3992 10.0000 13.6469
v  873.4501 0.0000 12.8191
v  873.4246 5.0000 13.2330
v  873.4501 10.0000 12.8191
v  873.6029 0.0000 12.0886
v  873.5265 5.0000 12.4538
v  873.6029 10.0000 12.0886
v  873.8575 0.0000 11.4555
v  873.7302 5.0000 11.7721
v  873.8575 10.0000 11.4555
v  874.2141 0.0000 10.9199
v  874.0358 5.0000 11.1877
v  874.2141 10.0000 10.9199
v  874.6725 0.0000 10.4816
v  874.4432 5.0000 10.7007
v  874.6725 10.0000 10.4816
v  875.2327 0.0000 10.1407
v  874.9526 5.0000 10.3112
v  875.2327 10.0000 10.1407
v  875.8948 0.0000 9.8972
v  875.5638 5.0000 10.0190
v  875.8948 10.0000 9.8972
v  876.6589 0.0000 9.7511
v  876.2769 5.0000 9.8242
v  876.6589 10.0000 9.7511
v  877.5247 0.0000 9.7024
v  877.0918 5.0000 9.7268
v  877.5247 10.0000 9.7024
v  877.9703 5.0000 9.7268
v  882.8798 0.0000 50.7570
v  911.7972 10.0000 24.2093
v  880.8517 0.0000 33.7193
v  881.9431 0.0000 27.4384
v  894.3270 0.0000 49.0666
v  904.6946 0.0000 49.6073
v  905.2796 0.0000 49.5163
v  905.7915 0.0000 49.3342
v  908.1351 0.0000 51.5240
v  911.3035 0.0000 51.3161
v  912.7702 0.0000 48.8660
v  913.5981 0.0000 46.7690
v  911.7223 0.0000 44.7256
v  910.1422 0.0000 43.4738
v  911.7972 0.0000 24.2093
v  882.4324 0.0000 27.3086
v  882.8517 0.0000 27.1138
v  883.2012 0.0000 26.8541
v  883.4808 0.0000 26.5294
v  883.6906 0.0000 26.1399
v  883.8303 0.0000 25.6853
v  885.5977 0.0000 21.0114
v  884.8099 0.0000 12.8776
v  884.4888 0.0000 11.5004
v  883.9808 0.0000 10.3129
v  883.2859 0.0000 9.3153
v  882.4044 0.0000 8.5074
v  881.3359 0.0000 7.8894
v  880.0807 0.0000 7.4611
v  879.0762 0.0000 8.1133
v  878.2193 0.0000 7.1739
v  876.9622 0.0000 7.1473
v  875.7681 0.0000 6.7573
v  874.4702 0.0000 7.0856
v  873.3502 0.0000 7.6197
v  872.4080 0.0000 8.3596
v  871.2440 0.0000 9.2869
v  870.8691 0.0000 10.7195
v  870.5204 0.0000 11.8496
v  870.3460 0.0000 13.0612
v  870.8672 0.0000 14.3542
v  871.0433 0.0000 15.6194
v  871.3957 0.0000 16.7263
v  871.9241 0.0000 17.6752
v  872.6287 0.0000 18.4659
v  873.5095 0.0000 19.0985
v  874.5664 0.0000 19.5729
v  875.7995 0.0000 19.8892
v  877.2087 0.0000 20.0473
v  878.1102 0.0000 19.2388
v  910.1422 10.0000 43.4738
v  911.7223 10.0000 44.7256
v  913.5981 10.0000 46.7690
v  912.7702 10.0000 48.8660
v  911.3035 10.0000 51.3161
v  908.1351 10.0000 51.5240
v  905.7915 10.0000 49.3342
v  905.2796 10.0000 49.5163
v  904.6946 10.0000 49.6073
v  887.0291 10.0000 49.6301
v  880.6354 10.0000 26.2731
v  877.2087 10.0000 20.0473
v  881.6637 10.0000 39.1115
v  875.7995 10.0000 19.8892
v  874.5664 10.0000 19.5729
v  873.5095 10.0000 19.0985
v  872.6287 10.0000 18.4659
v  871.9241 10.0000 17.6752
v  871.3957 10.0000 16.7263
v  871.0433 10.0000 15.6194
v  870.8672 10.0000 14.3542
v  870.3460 10.0000 13.0612
v  870.5204 10.0000 11.8496
v  870.8691 10.0000 10.7195
v  871.2440 10.0000 9.2869
v  872.4080 10.0000 8.3596
v  873.3502 10.0000 7.6197
v  874.4702 10.0000 7.0856
v  875.7681 10.0000 6.7573
v  876.9622 10.0000 7.1473
v  878.2193 10.0000 7.1739
v  879.0762 10.0000 8.1133
v  880.0807 10.0000 7.4611
v  881.3359 10.0000 7.8894
v  882.4044 10.0000 8.5074
v  883.2859 10.0000 9.3153
v  883.9808 10.0000 10.3129
v  884.4888 10.0000 11.5004
v  884.8099 10.0000 12.8776
v  885.5977 10.0000 21.0114
v  883.8303 10.0000 25.6853
v  883.6906 10.0000 26.1399
v  883.4808 10.0000 26.5294
v  883.2012 10.0000 26.8541
v  882.8517 10.0000 27.1138
v  882.4324 10.0000 27.3086
v  881.9431 10.0000 27.4384
# 421 vertices

vn -0.7015 -0.7125 -0.0166
vn -0.6903 -0.7199 -0.0716
vn -0.9989 0.0000 -0.0472
vn -0.6903 0.7199 -0.0716
vn -0.7015 0.7125 -0.0166
vn -0.6725 -0.7232 -0.1571
vn -0.9873 0.0000 -0.1587
vn -0.6725 0.7232 -0.1571
vn -0.6360 -0.7271 -0.2586
vn -0.9554 0.0000 -0.2952
vn -0.6360 0.7271 -0.2586
vn -0.5729 -0.7308 -0.3711
vn -0.8904 0.0000 -0.4552
vn -0.5729 0.7308 -0.3711
vn -0.4792 -0.7332 -0.4825
vn -0.7796 0.0000 -0.6263
vn -0.4792 0.7332 -0.4825
vn -0.3602 -0.7331 -0.5769
vn -0.6209 0.0000 -0.7839
vn -0.3602 0.7331 -0.5769
vn -0.2311 -0.7306 -0.6425
vn -0.4318 0.0000 -0.9020
vn -0.2311 0.7306 -0.6425
vn -0.1084 -0.7268 -0.6782
vn -0.2416 0.0000 -0.9704
vn -0.1084 0.7268 -0.6782
vn -0.0255 -0.7154 -0.6982
vn -0.0730 0.0000 -0.9973
vn -0.0255 0.7154 -0.6982
vn 0.3015 -0.9045 -0.3015
vn 0.0000 0.0000 -1.0000
vn 0.3015 0.9045 -0.3015
vn 0.7130 -0.7009 -0.0200
vn 1.0000 0.0000 -0.0000
vn 0.7130 0.7009 -0.0200
vn 0.7160 -0.6925 -0.0879
vn 0.9984 0.0000 -0.0559
vn 0.7160 0.6925 -0.0879
vn 0.6983 -0.6892 -0.1930
vn 0.9823 0.0000 -0.1871
vn 0.6983 0.6892 -0.1930
vn 0.6558 -0.6860 -0.3152
vn 0.9390 0.0000 -0.3440
vn 0.6558 0.6860 -0.3152
vn 0.5797 -0.6836 -0.4434
vn 0.8552 0.0000 -0.5183
vn 0.5797 0.6836 -0.4434
vn 0.4701 -0.6831 -0.5588
vn 0.7241 0.0000 -0.6897
vn 0.4701 0.6831 -0.5588
vn 0.3407 -0.6848 -0.6442
vn 0.5555 0.0000 -0.8315
vn 0.3407 0.6848 -0.6442
vn 0.2113 -0.6878 -0.6945
vn 0.3744 0.0000 -0.9273
vn 0.2113 0.6878 -0.6945
vn 0.0968 -0.6911 -0.7162
vn 0.2055 0.0000 -0.9787
vn 0.0968 0.6911 -0.7162
vn 0.0095 -0.6964 -0.7176
vn 0.0616 0.0000 -0.9981
vn 0.0095 0.6964 -0.7176
vn -0.0525 -0.6986 -0.7136
vn -0.0352 0.0000 -0.9994
vn -0.0525 0.6986 -0.7136
vn -0.1100 -0.6977 -0.7079
vn -0.1115 0.0000 -0.9938
vn -0.1100 0.6977 -0.7079
vn -0.1729 -0.6967 -0.6962
vn -0.1954 0.0000 -0.9807
vn -0.1729 0.6967 -0.6962
vn -0.2400 -0.6959 -0.6769
vn -0.2860 0.0000 -0.9582
vn -0.2400 0.6959 -0.6769
vn -0.3097 -0.6952 -0.6487
vn -0.3815 0.0000 -0.9244
vn -0.3097 0.6952 -0.6487
vn -0.3795 -0.6947 -0.6111
vn -0.4789 0.0000 -0.8779
vn -0.3795 0.6947 -0.6111
vn -0.4464 -0.6944 -0.5643
vn -0.5745 0.0000 -0.8185
vn -0.4464 0.6944 -0.5643
vn -0.5077 -0.6946 -0.5098
vn -0.6643 0.0000 -0.7475
vn -0.5077 0.6946 -0.5098
vn -0.5549 -0.6971 -0.4540
vn -0.7447 0.0000 -0.6674
vn -0.5549 0.6971 -0.4540
vn -0.5880 -0.6992 -0.4067
vn -0.8016 0.0000 -0.5978
vn -0.5880 0.6992 -0.4067
vn -0.6163 -0.6989 -0.3630
vn -0.8422 0.0000 -0.5391
vn -0.6163 0.6989 -0.3630
vn -0.6421 -0.6986 -0.3157
vn -0.8799 0.0000 -0.4752
vn -0.6421 0.6986 -0.3157
vn -0.6646 -0.6985 -0.2655
vn -0.9135 0.0000 -0.4067
vn -0.6646 0.6985 -0.2655
vn -0.6832 -0.6984 -0.2130
vn -0.9423 0.0000 -0.3346
vn -0.6832 0.6984 -0.2130
vn -0.6977 -0.6985 -0.1593
vn -0.9656 0.0000 -0.2602
vn -0.6977 0.6985 -0.1593
vn -0.7077 -0.6987 -0.1053
vn -0.9828 0.0000 -0.1846
vn -0.7077 0.6987 -0.1053
vn -0.7133 -0.6989 -0.0520
vn -0.9940 0.0000 -0.1094
vn -0.7133 0.6989 -0.0520
vn -0.7182 -0.6957 0.0113
vn -0.9994 0.0000 -0.0358
vn -0.7182 0.6957 0.0113
vn -0.7163 -0.6898 0.1054
vn -0.9977 0.0000 0.0672
vn -0.7163 0.6898 0.1054
vn -0.6904 -0.6864 0.2286
vn -0.9748 0.0000 0.2231
vn -0.6904 0.6864 0.2286
vn -0.6325 -0.6838 0.3638
vn -0.9153 0.0000 0.4028
vn -0.6325 0.6838 0.3638
vn -0.5390 -0.6829 0.4931
vn -0.8084 0.0000 0.5886
vn -0.5390 0.6829 0.4931
vn -0.4195 -0.6842 0.5965
vn -0.6581 0.0000 0.7529
vn -0.4195 0.6842 0.5965
vn -0.2936 -0.6871 0.6646
vn -0.4861 0.0000 0.8739
vn -0.2936 0.6871 0.6646
vn -0.1780 -0.6905 0.7011
vn -0.3186 0.0000 0.9479
vn -0.1780 0.6905 0.7011
vn -0.0807 -0.6937 0.7158
vn -0.1722 0.0000 0.9851
vn -0.0807 0.6937 0.7158
vn -0.3183 -0.8985 0.3024
vn -0.0513 0.0000 0.9987
vn -0.3183 0.8985 0.3024
vn -0.3015 -0.9045 -0.3015
vn -1.0000 0.0000 -0.0000
vn -0.3015 0.9045 -0.3015
vn -0.5774 -0.5774 -0.5774
vn -0.5774 0.5774 -0.5774
vn -0.5774 -0.5774 0.5774
vn -0.5774 0.5774 0.5774
vn 0.0125 -0.7032 0.7109
vn 0.0000 0.0000 1.0000
vn 0.0125 0.7032 0.7109
vn 0.0523 -0.6986 0.7136
vn 0.0350 0.0000 0.9994
vn 0.0523 0.6986 0.7136
vn 0.1096 -0.6977 0.7080
vn 0.1110 0.0000 0.9938
vn 0.1096 0.6977 0.7080
vn 0.1724 -0.6967 0.6963
vn 0.1948 0.0000 0.9808
vn 0.1724 0.6967 0.6963
vn 0.2397 -0.6958 0.6770
vn 0.2855 0.0000 0.9584
vn 0.2397 0.6958 0.6770
vn 0.3098 -0.6951 0.6488
vn 0.3813 0.0000 0.9245
vn 0.3098 0.6951 0.6488
vn 0.3801 -0.6946 0.6108
vn 0.4793 0.0000 0.8776
vn 0.3801 0.6946 0.6108
vn 0.4477 -0.6943 0.5635
vn 0.5757 0.0000 0.8177
vn 0.4477 0.6943 0.5635
vn 0.5096 -0.6944 0.5081
vn 0.6664 0.0000 0.7456
vn 0.5096 0.6944 0.5081
vn 0.5571 -0.6970 0.4514
vn 0.7475 0.0000 0.6642
vn 0.5571 0.6970 0.4514
vn 0.5902 -0.6991 0.4036
vn 0.8048 0.0000 0.5936
vn 0.5902 0.6991 0.4036
vn 0.6183 -0.6989 0.3597
vn 0.8451 0.0000 0.5346
vn 0.6183 0.6989 0.3597
vn 0.6437 -0.6986 0.3123
vn 0.8824 0.0000 0.4705
vn 0.6437 0.6986 0.3123
vn 0.6658 -0.6985 0.2622
vn 0.9156 0.0000 0.4020
vn 0.6658 0.6985 0.2622
vn 0.6841 -0.6985 0.2101
vn 0.9439 0.0000 0.3303
vn 0.6841 0.6985 0.2101
vn 0.6981 -0.6986 0.1568
vn 0.9666 0.0000 0.2564
vn 0.6981 0.6986 0.1568
vn 0.7078 -0.6988 0.1035
vn 0.9833 0.0000 0.1817
vn 0.7078 0.6988 0.1035
vn 0.7133 -0.6990 0.0511
vn 0.9942 0.0000 0.1076
vn 0.7133 0.6990 0.0511
vn 0.7109 -0.7032 0.0125
vn 0.9994 0.0000 0.0352
vn 0.7109 0.7032 0.0125
vn 0.5774 -0.5774 -0.5774
vn 0.5774 0.5774 -0.5774
vn -0.0822 -0.7219 0.6871
vn -0.1792 -0.7255 0.6645
vn -0.1827 0.0000 0.9832
vn -0.1792 0.7255 0.6645
vn -0.0822 0.7219 0.6871
vn -0.2906 -0.7292 0.6196
vn -0.3364 0.0000 0.9417
vn -0.2906 0.7292 0.6196
vn -0.4075 -0.7320 0.5459
vn -0.5089 0.0000 0.8608
vn -0.4075 0.7320 0.5459
vn -0.5153 -0.7329 0.4442
vn -0.6806 0.0000 0.7327
vn -0.5153 0.7329 0.4442
vn -0.5997 -0.7312 0.3250
vn -0.8250 0.0000 0.5652
vn -0.5997 0.7312 0.3250
vn -0.6545 -0.7280 0.2041
vn -0.9239 0.0000 0.3826
vn -0.6545 0.7280 0.2041
vn -0.6830 -0.7242 0.0946
vn -0.9776 0.0000 0.2105
vn -0.6830 0.7242 0.0946
vn -0.6923 -0.7216 -0.0000
vn -0.9980 0.0000 0.0632
vn -0.6923 0.7216 -0.0000
vn -0.6830 -0.7242 -0.0946
vn -0.9980 0.0000 -0.0632
vn -0.6830 0.7242 -0.0946
vn -0.6545 -0.7280 -0.2041
vn -0.9776 0.0000 -0.2105
vn -0.6545 0.7280 -0.2041
vn -0.5997 -0.7312 -0.3250
vn -0.9239 0.0000 -0.3825
vn -0.5997 0.7312 -0.3250
vn -0.5153 -0.7329 -0.4442
vn -0.8250 0.0000 -0.5652
vn -0.5153 0.7329 -0.4442
vn -0.4075 -0.7320 -0.5459
vn -0.6806 0.0000 -0.7327
vn -0.4075 0.7320 -0.5459
vn -0.2906 -0.7292 -0.6196
vn -0.5089 0.0000 -0.8608
vn -0.2906 0.7292 -0.6196
vn -0.1792 -0.7255 -0.6645
vn -0.3364 0.0000 -0.9417
vn -0.1792 0.7255 -0.6645
vn -0.0822 -0.7219 -0.6871
vn -0.1827 0.0000 -0.9832
vn -0.0822 0.7219 -0.6871
vn 0.0006 -0.7198 -0.6942
vn -0.0546 0.0000 -0.9985
vn 0.0006 0.7198 -0.6942
vn 0.0845 -0.7223 -0.6863
vn 0.0562 0.0000 -0.9984
vn 0.0845 0.7223 -0.6863
vn 0.1839 -0.7259 -0.6627
vn 0.1878 0.0000 -0.9822
vn 0.1839 0.7259 -0.6627
vn 0.2971 -0.7296 -0.6159
vn 0.3451 0.0000 -0.9386
vn 0.2971 0.7296 -0.6159
vn 0.4147 -0.7322 -0.5402
vn 0.5198 0.0000 -0.8543
vn 0.4147 0.7322 -0.5402
vn 0.5216 -0.7327 -0.4371
vn 0.6911 0.0000 -0.7228
vn 0.5216 0.7327 -0.4371
vn 0.6039 -0.7309 -0.3181
vn 0.8325 0.0000 -0.5541
vn 0.6039 0.7309 -0.3181
vn 0.6566 -0.7275 -0.1991
vn 0.9278 0.0000 -0.3732
vn 0.6566 0.7275 -0.1991
vn 0.6839 -0.7238 -0.0921
vn 0.9788 0.0000 -0.2047
vn 0.6839 0.7238 -0.0921
vn 0.6927 -0.7212 -0.0000
vn 0.9981 0.0000 -0.0614
vn 0.6927 0.7212 -0.0000
vn 0.6839 -0.7238 0.0921
vn 0.9981 0.0000 0.0614
vn 0.6839 0.7238 0.0921
vn 0.6566 -0.7275 0.1991
vn 0.9788 0.0000 0.2048
vn 0.6566 0.7275 0.1991
vn 0.6039 -0.7309 0.3181
vn 0.9277 0.0000 0.3732
vn 0.6039 0.7309 0.3181
vn 0.5216 -0.7327 0.4371
vn 0.8325 0.0000 0.5541
vn 0.5216 0.7327 0.4371
vn 0.4147 -0.7322 0.5402
vn 0.6911 0.0000 0.7228
vn 0.4147 0.7322 0.5402
vn 0.2971 -0.7296 0.6159
vn 0.5198 0.0000 0.8543
vn 0.2971 0.7296 0.6159
vn 0.1839 -0.7259 0.6627
vn 0.3451 0.0000 0.9386
vn 0.1839 0.7259 0.6627
vn 0.0845 -0.7223 0.6863
vn 0.1878 0.0000 0.9822
vn 0.0845 0.7223 0.6863
vn 0.0006 -0.7198 0.6942
vn 0.0562 0.0000 0.9984
vn 0.0006 0.7198 0.6942
vn -0.0546 0.0000 0.9985
vn 0.0000 -1.0000 -0.0000
vn 0.0000 1.0000 -0.0000
# 319 vertex normals

o Bo_Bai_Mai
g Bo_Bai_Mai
s 1
f 1//1 2//2 3//3 
f 2//2 4//4 3//3 
f 4//4 5//5 3//3 
f 5//5 1//1 3//3 
s 3
f 2//2 6//6 7//7 
f 6//6 8//8 7//7 
f 8//8 4//4 7//7 
f 4//4 2//2 7//7 
s 2
f 6//6 9//9 10//10 
f 9//9 11//11 10//10 
f 11//11 8//8 10//10 
f 8//8 6//6 10//10 
f 9//9 12//12 13//13 
f 12//12 14//14 13//13 
f 14//14 11//11 13//13 
f 11//11 9//9 13//13 
f 12//12 15//15 16//16 
f 15//15 17//17 16//16 
f 17//17 14//14 16//16 
f 14//14 12//12 16//16 
f 15//15 18//18 19//19 
f 18//18 20//20 19//19 
f 20//20 17//17 19//19 
f 17//17 15//15 19//19 
f 18//18 21//21 22//22 
f 21//21 23//23 22//22 
f 23//23 20//20 22//22 
f 20//20 18//18 22//22 
f 21//21 24//24 25//25 
f 24//24 26//26 25//25 
f 26//26 23//23 25//25 
f 23//23 21//21 25//25 
f 24//24 27//27 28//28 
f 27//27 29//29 28//28 
f 29//29 26//26 28//28 
f 26//26 24//24 28//28 
s 4
f 27//27 30//30 31//31 
f 30//30 32//32 31//31 
f 32//32 29//29 31//31 
f 29//29 27//27 31//31 
s 2
f 30//30 33//33 34//34 
f 33//33 35//35 34//34 
f 35//35 32//32 34//34 
f 32//32 30//30 34//34 
s 4
f 33//33 36//36 37//37 
f 36//36 38//38 37//37 
f 38//38 35//35 37//37 
f 35//35 33//33 37//37 
f 36//36 39//39 40//40 
f 39//39 41//41 40//40 
f 41//41 38//38 40//40 
f 38//38 36//36 40//40 
f 39//39 42//42 43//43 
f 42//42 44//44 43//43 
f 44//44 41//41 43//43 
f 41//41 39//39 43//43 
f 42//42 45//45 46//46 
f 45//45 47//47 46//46 
f 47//47 44//44 46//46 
f 44//44 42//42 46//46 
f 45//45 48//48 49//49 
f 48//48 50//50 49//49 
f 50//50 47//47 49//49 
f 47//47 45//45 49//49 
f 48//48 51//51 52//52 
f 51//51 53//53 52//52 
f 53//53 50//50 52//52 
f 50//50 48//48 52//52 
f 51//51 54//54 55//55 
f 54//54 56//56 55//55 
f 56//56 53//53 55//55 
f 53//53 51//51 55//55 
f 54//54 57//57 58//58 
f 57//57 59//59 58//58 
f 59//59 56//56 58//58 
f 56//56 54//54 58//58 
f 57//57 60//60 61//61 
f 60//60 62//62 61//61 
f 62//62 59//59 61//61 
f 59//59 57//57 61//61 
f 60//60 63//63 64//64 
f 63//63 65//65 64//64 
f 65//65 62//62 64//64 
f 62//62 60//60 64//64 
f 63//63 66//66 67//67 
f 66//66 68//68 67//67 
f 68//68 65//65 67//67 
f 65//65 63//63 67//67 
f 66//66 69//69 70//70 
f 69//69 71//71 70//70 
f 71//71 68//68 70//70 
f 68//68 66//66 70//70 
f 69//69 72//72 73//73 
f 72//72 74//74 73//73 
f 74//74 71//71 73//73 
f 71//71 69//69 73//73 
f 72//72 75//75 76//76 
f 75//75 77//77 76//76 
f 77//77 74//74 76//76 
f 74//74 72//72 76//76 
f 75//75 78//78 79//79 
f 78//78 80//80 79//79 
f 80//80 77//77 79//79 
f 77//77 75//75 79//79 
f 78//78 81//81 82//82 
f 81//81 83//83 82//82 
f 83//83 80//80 82//82 
f 80//80 78//78 82//82 
f 81//81 84//84 85//85 
f 84//84 86//86 85//85 
f 86//86 83//83 85//85 
f 83//83 81//81 85//85 
f 84//84 87//87 88//88 
f 87//87 89//89 88//88 
f 89//89 86//86 88//88 
f 86//86 84//84 88//88 
f 87//87 90//90 91//91 
f 90//90 92//92 91//91 
f 92//92 89//89 91//91 
f 89//89 87//87 91//91 
f 90//90 93//93 94//94 
f 93//93 95//95 94//94 
f 95//95 92//92 94//94 
f 92//92 90//90 94//94 
f 93//93 96//96 97//97 
f 96//96 98//98 97//97 
f 98//98 95//95 97//97 
f 95//95 93//93 97//97 
f 96//96 99//99 100//100 
f 99//99 101//101 100//100 
f 101//101 98//98 100//100 
f 98//98 96//96 100//100 
f 99//99 102//102 103//103 
f 102//102 104//104 103//103 
f 104//104 101//101 103//103 
f 101//101 99//99 103//103 
f 102//102 105//105 106//106 
f 105//105 107//107 106//106 
f 107//107 104//104 106//106 
f 104//104 102//102 106//106 
f 105//105 108//108 109//109 
f 108//108 110//110 109//109 
f 110//110 107//107 109//109 
f 107//107 105//105 109//109 
f 108//108 111//111 112//112 
f 111//111 113//113 112//112 
f 113//113 110//110 112//112 
f 110//110 108//108 112//112 
f 111//111 114//114 115//115 
f 114//114 116//116 115//115 
f 116//116 113//113 115//115 
f 113//113 111//111 115//115 
f 114//114 117//117 118//118 
f 117//117 119//119 118//118 
f 119//119 116//116 118//118 
f 116//116 114//114 118//118 
f 117//117 120//120 121//121 
f 120//120 122//122 121//121 
f 122//122 119//119 121//121 
f 119//119 117//117 121//121 
f 120//120 123//123 124//124 
f 123//123 125//125 124//124 
f 125//125 122//122 124//124 
f 122//122 120//120 124//124 
f 123//123 126//126 127//127 
f 126//126 128//128 127//127 
f 128//128 125//125 127//127 
f 125//125 123//123 127//127 
f 126//126 129//129 130//130 
f 129//129 131//131 130//130 
f 131//131 128//128 130//130 
f 128//128 126//126 130//130 
f 129//129 132//132 133//133 
f 132//132 134//134 133//133 
f 134//134 131//131 133//133 
f 131//131 129//129 133//133 
f 132//132 135//135 136//136 
f 135//135 137//137 136//136 
f 137//137 134//134 136//136 
f 134//134 132//132 136//136 
f 135//135 138//138 139//139 
f 138//138 140//140 139//139 
f 140//140 137//137 139//139 
f 137//137 135//135 139//139 
f 138//138 141//141 142//142 
f 141//141 143//143 142//142 
f 143//143 140//140 142//142 
f 140//140 138//138 142//142 
s 2
f 141//141 144//144 145//145 
f 144//144 146//146 145//145 
f 146//146 143//143 145//145 
f 143//143 141//141 145//145 
s 4
f 144//144 147//147 148//31 
f 147//147 149//148 148//31 
f 149//148 146//146 148//31 
f 146//146 144//144 148//31 
s 2
f 147//147 150//149 151//145 
f 150//149 152//150 151//145 
f 152//150 149//148 151//145 
f 149//148 147//147 151//145 
s 4
f 150//149 153//151 154//152 
f 153//151 155//153 154//152 
f 155//153 152//150 154//152 
f 152//150 150//149 154//152 
s 2
f 153//151 156//154 157//155 
f 156//154 158//156 157//155 
f 158//156 155//153 157//155 
f 155//153 153//151 157//155 
f 156//154 159//157 160//158 
f 159//157 161//159 160//158 
f 161//159 158//156 160//158 
f 158//156 156//154 160//158 
f 159//157 162//160 163//161 
f 162//160 164//162 163//161 
f 164//162 161//159 163//161 
f 161//159 159//157 163//161 
f 162//160 165//163 166//164 
f 165//163 167//165 166//164 
f 167//165 164//162 166//164 
f 164//162 162//160 166//164 
f 165//163 168//166 169//167 
f 168//166 170//168 169//167 
f 170//168 167//165 169//167 
f 167//165 165//163 169//167 
f 168//166 171//169 172//170 
f 171//169 173//171 172//170 
f 173//171 170//168 172//170 
f 170//168 168//166 172//170 
f 171//169 174//172 175//173 
f 174//172 176//174 175//173 
f 176//174 173//171 175//173 
f 173//171 171//169 175//173 
f 174//172 177//175 178//176 
f 177//175 179//177 178//176 
f 179//177 176//174 178//176 
f 176//174 174//172 178//176 
f 177//175 180//178 181//179 
f 180//178 182//180 181//179 
f 182//180 179//177 181//179 
f 179//177 177//175 181//179 
f 180//178 183//181 184//182 
f 183//181 185//183 184//182 
f 185//183 182//180 184//182 
f 182//180 180//178 184//182 
f 183//181 186//184 187//185 
f 186//184 188//186 187//185 
f 188//186 185//183 187//185 
f 185//183 183//181 187//185 
f 186//184 189//187 190//188 
f 189//187 191//189 190//188 
f 191//189 188//186 190//188 
f 188//186 186//184 190//188 
f 189//187 192//190 193//191 
f 192//190 194//192 193//191 
f 194//192 191//189 193//191 
f 191//189 189//187 193//191 
f 192//190 195//193 196//194 
f 195//193 197//195 196//194 
f 197//195 194//192 196//194 
f 194//192 192//190 196//194 
f 195//193 198//196 199//197 
f 198//196 200//198 199//197 
f 200//198 197//195 199//197 
f 197//195 195//193 199//197 
f 198//196 201//199 202//200 
f 201//199 203//201 202//200 
f 203//201 200//198 202//200 
f 200//198 198//196 202//200 
f 201//199 204//202 205//203 
f 204//202 206//204 205//203 
f 206//204 203//201 205//203 
f 203//201 201//199 205//203 
f 204//202 207//205 208//206 
f 207//205 209//207 208//206 
f 209//207 206//204 208//206 
f 206//204 204//202 208//206 
s 4
f 207//205 210//208 211//34 
f 210//208 212//209 211//34 
f 212//209 209//207 211//34 
f 209//207 207//205 211//34 
s 2
f 210//208 213//147 214//31 
f 213//147 215//148 214//31 
f 215//148 212//209 214//31 
f 212//209 210//208 214//31 
s 4
f 213//147 1//1 216//145 
f 1//1 5//5 216//145 
f 5//5 215//148 216//145 
f 215//148 213//147 216//145 
s 1
f 217//210 218//211 219//212 
f 218//211 220//213 219//212 
f 220//213 221//214 219//212 
f 221//214 217//210 219//212 
s 3
f 218//211 222//215 223//216 
f 222//215 224//217 223//216 
f 224//217 220//213 223//216 
f 220//213 218//211 223//216 
s 2
f 222//215 225//218 226//219 
f 225//218 227//220 226//219 
f 227//220 224//217 226//219 
f 224//217 222//215 226//219 
f 225//218 228//221 229//222 
f 228//221 230//223 229//222 
f 230//223 227//220 229//222 
f 227//220 225//218 229//222 
f 228//221 231//224 232//225 
f 231//224 233//226 232//225 
f 233//226 230//223 232//225 
f 230//223 228//221 232//225 
f 231//224 234//227 235//228 
f 234//227 236//229 235//228 
f 236//229 233//226 235//228 
f 233//226 231//224 235//228 
f 234//227 237//230 238//231 
f 237//230 239//232 238//231 
f 239//232 236//229 238//231 
f 236//229 234//227 238//231 
f 237//230 240//233 241//234 
f 240//233 242//235 241//234 
f 242//235 239//232 241//234 
f 239//232 237//230 241//234 
f 240//233 243//236 244//237 
f 243//236 245//238 244//237 
f 245//238 242//235 244//237 
f 242//235 240//233 244//237 
f 243//236 246//239 247//240 
f 246//239 248//241 247//240 
f 248//241 245//238 247//240 
f 245//238 243//236 247//240 
f 246//239 249//242 250//243 
f 249//242 251//244 250//243 
f 251//244 248//241 250//243 
f 248//241 246//239 250//243 
f 249//242 252//245 253//246 
f 252//245 254//247 253//246 
f 254//247 251//244 253//246 
f 251//244 249//242 253//246 
f 252//245 255//248 256//249 
f 255//248 257//250 256//249 
f 257//250 254//247 256//249 
f 254//247 252//245 256//249 
f 255//248 258//251 259//252 
f 258//251 260//253 259//252 
f 260//253 257//250 259//252 
f 257//250 255//248 259//252 
f 258//251 261//254 262//255 
f 261//254 263//256 262//255 
f 263//256 260//253 262//255 
f 260//253 258//251 262//255 
f 261//254 264//257 265//258 
f 264//257 266//259 265//258 
f 266//259 263//256 265//258 
f 263//256 261//254 265//258 
f 264//257 267//260 268//261 
f 267//260 269//262 268//261 
f 269//262 266//259 268//261 
f 266//259 264//257 268//261 
f 267//260 270//263 271//264 
f 270//263 272//265 271//264 
f 272//265 269//262 271//264 
f 269//262 267//260 271//264 
f 270//263 273//266 274//267 
f 273//266 275//268 274//267 
f 275//268 272//265 274//267 
f 272//265 270//263 274//267 
f 273//266 276//269 277//270 
f 276//269 278//271 277//270 
f 278//271 275//268 277//270 
f 275//268 273//266 277//270 
f 276//269 279//272 280//273 
f 279//272 281//274 280//273 
f 281//274 278//271 280//273 
f 278//271 276//269 280//273 
f 279//272 282//275 283//276 
f 282//275 284//277 283//276 
f 284//277 281//274 283//276 
f 281//274 279//272 283//276 
f 282//275 285//278 286//279 
f 285//278 287//280 286//279 
f 287//280 284//277 286//279 
f 284//277 282//275 286//279 
f 285//278 288//281 289//282 
f 288//281 290//283 289//282 
f 290//283 287//280 289//282 
f 287//280 285//278 289//282 
f 288//281 291//284 292//285 
f 291//284 293//286 292//285 
f 293//286 290//283 292//285 
f 290//283 288//281 292//285 
f 291//284 294//287 295//288 
f 294//287 296//289 295//288 
f 296//289 293//286 295//288 
f 293//286 291//284 295//288 
f 294//287 297//290 298//291 
f 297//290 299//292 298//291 
f 299//292 296//289 298//291 
f 296//289 294//287 298//291 
f 297//290 300//293 301//294 
f 300//293 302//295 301//294 
f 302//295 299//292 301//294 
f 299//292 297//290 301//294 
f 300//293 303//296 304//297 
f 303//296 305//298 304//297 
f 305//298 302//295 304//297 
f 302//295 300//293 304//297 
f 303//296 306//299 307//300 
f 306//299 308//301 307//300 
f 308//301 305//298 307//300 
f 305//298 303//296 307//300 
f 306//299 309//302 310//303 
f 309//302 311//304 310//303 
f 311//304 308//301 310//303 
f 308//301 306//299 310//303 
f 309//302 312//305 313//306 
f 312//305 314//307 313//306 
f 314//307 311//304 313//306 
f 311//304 309//302 313//306 
f 312//305 315//308 316//309 
f 315//308 317//310 316//309 
f 317//310 314//307 316//309 
f 314//307 312//305 316//309 
f 315//308 318//311 319//312 
f 318//311 320//313 319//312 
f 320//313 317//310 319//312 
f 317//310 315//308 319//312 
f 318//311 321//314 322//315 
f 321//314 323//316 322//315 
f 323//316 320//313 322//315 
f 320//313 318//311 322//315 
s 3
f 321//314 217//210 324//317 
f 217//210 221//214 324//317 
f 221//214 323//316 324//317 
f 323//316 321//314 324//317 
s 16
f 153//151 150//149 325//318 
f 150//149 147//147 325//318 
f 147//147 144//144 325//318 
f 144//144 153//151 325//318 
f 212//209 215//148 326//319 
f 215//148 5//5 326//319 
f 5//5 209//207 326//319 
f 209//207 212//209 326//319 
f 144//144 141//141 327//318 
f 141//141 264//257 327//318 
f 30//30 144//144 327//318 
f 30//30 327//318 264//257 328//318 
f 264//257 261//254 328//318 
f 261//254 30//30 328//318 
f 30//30 27//27 329//318 
f 27//27 153//151 329//318 
f 153//151 144//144 329//318 
f 144//144 30//30 329//318 
f 27//27 24//24 330//318 
f 24//24 153//151 330//318 
f 153//151 27//27 330//318 
f 24//24 21//21 331//318 
f 21//21 153//151 331//318 
f 153//151 24//24 331//318 
f 21//21 18//18 332//318 
f 18//18 153//151 332//318 
f 153//151 21//21 332//318 
f 18//18 15//15 333//318 
f 15//15 162//160 333//318 
f 162//160 159//157 333//318 
f 159//157 156//154 333//318 
f 156//154 153//151 333//318 
f 153//151 18//18 333//318 
f 15//15 12//12 334//318 
f 12//12 180//178 334//318 
f 180//178 177//175 334//318 
f 177//175 174//172 334//318 
f 174//172 171//169 334//318 
f 171//169 168//166 334//318 
f 168//166 165//163 334//318 
f 165//163 162//160 334//318 
f 162//160 15//15 334//318 
f 12//12 9//9 335//318 
f 9//9 192//190 335//318 
f 192//190 189//187 335//318 
f 189//187 186//184 335//318 
f 186//184 183//181 335//318 
f 183//181 180//178 335//318 
f 180//178 12//12 335//318 
f 9//9 6//6 336//318 
f 6//6 204//202 336//318 
f 204//202 201//199 336//318 
f 201//199 198//196 336//318 
f 198//196 195//193 336//318 
f 195//193 192//190 336//318 
f 192//190 9//9 336//318 
f 6//6 2//2 337//318 
f 2//2 207//205 337//318 
f 207//205 204//202 337//318 
f 204//202 6//6 337//318 
f 2//2 1//1 338//318 
f 1//1 207//205 338//318 
f 207//205 2//2 338//318 
f 1//1 213//147 339//318 
f 213//147 210//208 339//318 
f 210//208 207//205 339//318 
f 207//205 1//1 339//318 
f 261//254 258//251 340//318 
f 258//251 30//30 340//318 
f 30//30 261//254 340//318 
f 258//251 255//248 341//318 
f 255//248 30//30 341//318 
f 30//30 258//251 341//318 
f 255//248 252//245 342//318 
f 252//245 30//30 342//318 
f 30//30 255//248 342//318 
f 252//245 249//242 343//318 
f 249//242 30//30 343//318 
f 30//30 252//245 343//318 
f 249//242 246//239 344//318 
f 246//239 30//30 344//318 
f 30//30 249//242 344//318 
f 246//239 243//236 345//318 
f 243//236 30//30 345//318 
f 30//30 246//239 345//318 
f 243//236 240//233 346//318 
f 240//233 36//36 346//318 
f 36//36 33//33 346//318 
f 33//33 30//30 346//318 
f 30//30 243//236 346//318 
f 240//233 237//230 347//318 
f 237//230 39//39 347//318 
f 39//39 36//36 347//318 
f 36//36 240//233 347//318 
f 237//230 234//227 348//318 
f 234//227 42//42 348//318 
f 42//42 39//39 348//318 
f 39//39 237//230 348//318 
f 234//227 231//224 349//318 
f 231//224 45//45 349//318 
f 45//45 42//42 349//318 
f 42//42 234//227 349//318 
f 231//224 228//221 350//318 
f 228//221 48//48 350//318 
f 48//48 45//45 350//318 
f 45//45 231//224 350//318 
f 228//221 225//218 351//318 
f 225//218 51//51 351//318 
f 51//51 48//48 351//318 
f 48//48 228//221 351//318 
f 225//218 222//215 352//318 
f 222//215 54//54 352//318 
f 54//54 51//51 352//318 
f 51//51 225//218 352//318 
f 222//215 218//211 353//318 
f 218//211 57//57 353//318 
f 57//57 54//54 353//318 
f 54//54 222//215 353//318 
f 218//211 217//210 354//318 
f 217//210 57//57 354//318 
f 57//57 218//211 354//318 
f 217//210 321//314 355//318 
f 321//314 60//60 355//318 
f 60//60 57//57 355//318 
f 57//57 217//210 355//318 
f 321//314 318//311 356//318 
f 318//311 63//63 356//318 
f 63//63 60//60 356//318 
f 60//60 321//314 356//318 
f 318//311 315//308 357//318 
f 315//308 69//69 357//318 
f 69//69 66//66 357//318 
f 66//66 63//63 357//318 
f 63//63 318//311 357//318 
f 315//308 312//305 358//318 
f 312//305 75//75 358//318 
f 75//75 72//72 358//318 
f 72//72 69//69 358//318 
f 69//69 315//308 358//318 
f 312//305 309//302 359//318 
f 309//302 81//81 359//318 
f 81//81 78//78 359//318 
f 78//78 75//75 359//318 
f 75//75 312//305 359//318 
f 309//302 306//299 360//318 
f 306//299 87//87 360//318 
f 87//87 84//84 360//318 
f 84//84 81//81 360//318 
f 81//81 309//302 360//318 
f 306//299 303//296 361//318 
f 303//296 96//96 361//318 
f 96//96 93//93 361//318 
f 93//93 90//90 361//318 
f 90//90 87//87 361//318 
f 87//87 306//299 361//318 
f 303//296 300//293 362//318 
f 300//293 102//102 362//318 
f 102//102 99//99 362//318 
f 99//99 96//96 362//318 
f 96//96 303//296 362//318 
f 300//293 297//290 363//318 
f 297//290 108//108 363//318 
f 108//108 105//105 363//318 
f 105//105 102//102 363//318 
f 102//102 300//293 363//318 
f 297//290 294//287 364//318 
f 294//287 114//114 364//318 
f 114//114 111//111 364//318 
f 111//111 108//108 364//318 
f 108//108 297//290 364//318 
f 294//287 291//284 365//318 
f 291//284 117//117 365//318 
f 117//117 114//114 365//318 
f 114//114 294//287 365//318 
f 291//284 288//281 366//318 
f 288//281 120//120 366//318 
f 120//120 117//117 366//318 
f 117//117 291//284 366//318 
f 288//281 285//278 367//318 
f 285//278 123//123 367//318 
f 123//123 120//120 367//318 
f 120//120 288//281 367//318 
f 285//278 282//275 368//318 
f 282//275 126//126 368//318 
f 126//126 123//123 368//318 
f 123//123 285//278 368//318 
f 282//275 279//272 369//318 
f 279//272 129//129 369//318 
f 129//129 126//126 369//318 
f 126//126 282//275 369//318 
f 279//272 276//269 370//318 
f 276//269 132//132 370//318 
f 132//132 129//129 370//318 
f 129//129 279//272 370//318 
f 276//269 273//266 371//318 
f 273//266 135//135 371//318 
f 135//135 132//132 371//318 
f 132//132 276//269 371//318 
f 273//266 270//263 372//318 
f 270//263 138//138 372//318 
f 138//138 135//135 372//318 
f 135//135 273//266 372//318 
f 270//263 267//260 373//318 
f 267//260 141//141 373//318 
f 141//141 138//138 373//318 
f 138//138 270//263 373//318 
f 267//260 264//257 374//318 
f 264//257 141//141 374//318 
f 141//141 267//260 374//318 
f 5//5 4//4 375//319 
f 4//4 209//207 375//319 
f 209//207 5//5 375//319 
f 4//4 8//8 376//319 
f 8//8 206//204 376//319 
f 206//204 209//207 376//319 
f 209//207 4//4 376//319 
f 8//8 11//11 377//319 
f 11//11 194//192 377//319 
f 194//192 197//195 377//319 
f 197//195 200//198 377//319 
f 200//198 203//201 377//319 
f 203//201 206//204 377//319 
f 206//204 8//8 377//319 
f 11//11 14//14 378//319 
f 14//14 182//180 378//319 
f 182//180 185//183 378//319 
f 185//183 188//186 378//319 
f 188//186 191//189 378//319 
f 191//189 194//192 378//319 
f 194//192 11//11 378//319 
f 14//14 17//17 379//319 
f 17//17 164//162 379//319 
f 164//162 167//165 379//319 
f 167//165 170//168 379//319 
f 170//168 173//171 379//319 
f 173//171 176//174 379//319 
f 176//174 179//177 379//319 
f 179//177 182//180 379//319 
f 182//180 14//14 379//319 
f 17//17 20//20 380//319 
f 20//20 155//153 380//319 
f 155//153 158//156 380//319 
f 158//156 161//159 380//319 
f 161//159 164//162 380//319 
f 164//162 17//17 380//319 
f 20//20 23//23 381//319 
f 23//23 155//153 381//319 
f 155//153 20//20 381//319 
f 23//23 26//26 382//319 
f 26//26 155//153 382//319 
f 155//153 23//23 382//319 
f 26//26 29//29 383//319 
f 29//29 155//153 383//319 
f 155//153 26//26 383//319 
f 29//29 32//32 384//319 
f 32//32 146//146 384//319 
f 146//146 149//148 384//319 
f 149//148 152//150 384//319 
f 152//150 155//153 384//319 
f 155//153 29//29 384//319 
f 266//259 269//262 385//319 
f 269//262 143//143 385//319 
f 143//143 32//32 385//319 
f 269//262 272//265 386//319 
f 272//265 140//140 386//319 
f 140//140 143//143 386//319 
f 143//143 269//262 386//319 
f 143//143 146//146 387//319 
f 146//146 32//32 387//319 
f 32//32 143//143 387//319 
f 272//265 275//268 388//319 
f 275//268 137//137 388//319 
f 137//137 140//140 388//319 
f 140//140 272//265 388//319 
f 275//268 278//271 389//319 
f 278//271 134//134 389//319 
f 134//134 137//137 389//319 
f 137//137 275//268 389//319 
f 278//271 281//274 390//319 
f 281//274 131//131 390//319 
f 131//131 134//134 390//319 
f 134//134 278//271 390//319 
f 281//274 284//277 391//319 
f 284//277 128//128 391//319 
f 128//128 131//131 391//319 
f 131//131 281//274 391//319 
f 284//277 287//280 392//319 
f 287//280 125//125 392//319 
f 125//125 128//128 392//319 
f 128//128 284//277 392//319 
f 287//280 290//283 393//319 
f 290//283 122//122 393//319 
f 122//122 125//125 393//319 
f 125//125 287//280 393//319 
f 290//283 293//286 394//319 
f 293//286 119//119 394//319 
f 119//119 122//122 394//319 
f 122//122 290//283 394//319 
f 293//286 296//289 395//319 
f 296//289 116//116 395//319 
f 116//116 119//119 395//319 
f 119//119 293//286 395//319 
f 296//289 299//292 396//319 
f 299//292 110//110 396//319 
f 110//110 113//113 396//319 
f 113//113 116//116 396//319 
f 116//116 296//289 396//319 
f 299//292 302//295 397//319 
f 302//295 104//104 397//319 
f 104//104 107//107 397//319 
f 107//107 110//110 397//319 
f 110//110 299//292 397//319 
f 302//295 305//298 398//319 
f 305//298 98//98 398//319 
f 98//98 101//101 398//319 
f 101//101 104//104 398//319 
f 104//104 302//295 398//319 
f 305//298 308//301 399//319 
f 308//301 89//89 399//319 
f 89//89 92//92 399//319 
f 92//92 95//95 399//319 
f 95//95 98//98 399//319 
f 98//98 305//298 399//319 
f 308//301 311//304 400//319 
f 311//304 83//83 400//319 
f 83//83 86//86 400//319 
f 86//86 89//89 400//319 
f 89//89 308//301 400//319 
f 311//304 314//307 401//319 
f 314//307 77//77 401//319 
f 77//77 80//80 401//319 
f 80//80 83//83 401//319 
f 83//83 311//304 401//319 
f 314//307 317//310 402//319 
f 317//310 71//71 402//319 
f 71//71 74//74 402//319 
f 74//74 77//77 402//319 
f 77//77 314//307 402//319 
f 317//310 320//313 403//319 
f 320//313 65//65 403//319 
f 65//65 68//68 403//319 
f 68//68 71//71 403//319 
f 71//71 317//310 403//319 
f 320//313 323//316 404//319 
f 323//316 62//62 404//319 
f 62//62 65//65 404//319 
f 65//65 320//313 404//319 
f 323//316 221//214 405//319 
f 221//214 59//59 405//319 
f 59//59 62//62 405//319 
f 62//62 323//316 405//319 
f 221//214 220//213 406//319 
f 220//213 59//59 406//319 
f 59//59 221//214 406//319 
f 220//213 224//217 407//319 
f 224//217 56//56 407//319 
f 56//56 59//59 407//319 
f 59//59 220//213 407//319 
f 224//217 227//220 408//319 
f 227//220 53//53 408//319 
f 53//53 56//56 408//319 
f 56//56 224//217 408//319 
f 227//220 230//223 409//319 
f 230//223 50//50 409//319 
f 50//50 53//53 409//319 
f 53//53 227//220 409//319 
f 230//223 233//226 410//319 
f 233//226 47//47 410//319 
f 47//47 50//50 410//319 
f 50//50 230//223 410//319 
f 233//226 236//229 411//319 
f 236//229 44//44 411//319 
f 44//44 47//47 411//319 
f 47//47 233//226 411//319 
f 236//229 239//232 412//319 
f 239//232 41//41 412//319 
f 41//41 44//44 412//319 
f 44//44 236//229 412//319 
f 239//232 242//235 413//319 
f 242//235 38//38 413//319 
f 38//38 41//41 413//319 
f 41//41 239//232 413//319 
f 242//235 245//238 414//319 
f 245//238 32//32 414//319 
f 32//32 35//35 414//319 
f 35//35 38//38 414//319 
f 38//38 242//235 414//319 
f 245//238 248//241 415//319 
f 248//241 32//32 415//319 
f 32//32 245//238 415//319 
f 248//241 251//244 416//319 
f 251//244 32//32 416//319 
f 32//32 248//241 416//319 
f 251//244 254//247 417//319 
f 254//247 32//32 417//319 
f 32//32 251//244 417//319 
f 254//247 257//250 418//319 
f 257//250 32//32 418//319 
f 32//32 254//247 418//319 
f 257//250 260//253 419//319 
f 260//253 32//32 419//319 
f 32//32 257//250 419//319 
f 260//253 263//256 420//319 
f 263//256 32//32 420//319 
f 32//32 260//253 420//319 
f 263//256 266//259 421//319 
f 266//259 385//319 32//32 421//319 
f 32//32 263//256 421//319 
# 2 polygons - 838 triangles

