# 3ds Max Wavefront OBJ Exporter v0.97b - (c)2007 guruware
# File Created: 21.02.2021 20:19:20

#
# object Po_Paan
#

v  1176.0433 0.0000 29.7061
v  1185.8114 0.0000 29.7061
v  1180.9274 5.0000 29.7061
v  1185.8114 10.0000 29.7061
v  1176.0433 10.0000 29.7061
v  1185.8114 0.0000 -19.7204
v  1185.8114 5.0000 4.9928
v  1185.8114 10.0000 -19.7204
v  1175.9905 0.0000 -19.7204
v  1180.9010 5.0000 -19.7204
v  1175.9905 10.0000 -19.7204
v  1175.9905 0.0000 7.4581
v  1175.9905 5.0000 -6.1312
v  1175.9905 10.0000 7.4581
v  1167.7871 0.0000 -19.7204
v  1171.8888 5.0000 -6.1312
v  1167.7871 10.0000 -19.7204
v  1161.6893 0.0000 -19.7204
v  1164.7383 5.0000 -19.7204
v  1161.6893 10.0000 -19.7204
v  1153.7727 0.0000 7.4581
v  1157.7310 5.0000 -6.1312
v  1153.7727 10.0000 7.4581
v  1153.7727 0.0000 -8.8732
v  1153.7727 5.0000 -0.7075
v  1153.7727 10.0000 -8.8732
v  1153.6433 0.0000 -11.1836
v  1153.7080 5.0000 -10.0284
v  1153.6433 10.0000 -11.1836
v  1153.2549 0.0000 -13.2221
v  1153.4490 5.0000 -12.2028
v  1153.2549 10.0000 -13.2221
v  1152.6074 0.0000 -14.9889
v  1152.9312 5.0000 -14.1055
v  1152.6074 10.0000 -14.9889
v  1151.7012 0.0000 -16.4838
v  1152.1543 5.0000 -15.7364
v  1151.7012 10.0000 -16.4838
v  1150.5359 0.0000 -17.7070
v  1151.1184 5.0000 -17.0954
v  1150.5359 10.0000 -17.7070
v  1149.1116 0.0000 -18.6583
v  1149.8237 5.0000 -18.1826
v  1149.1116 10.0000 -18.6583
v  1147.4285 0.0000 -19.3378
v  1148.2700 5.0000 -18.9981
v  1147.4285 10.0000 -19.3378
v  1145.4863 0.0000 -19.7455
v  1146.4573 5.0000 -19.5417
v  1145.4863 10.0000 -19.7455
v  1143.2852 0.0000 -19.8814
v  1144.3857 5.0000 -19.8135
v  1143.2852 10.0000 -19.8814
v  1142.3617 0.0000 -19.8514
v  1142.8235 5.0000 -19.8664
v  1142.3617 10.0000 -19.8514
v  1141.4763 0.0000 -19.7613
v  1141.9191 5.0000 -19.8063
v  1141.4763 10.0000 -19.7613
v  1140.6292 0.0000 -19.6110
v  1141.0527 5.0000 -19.6861
v  1140.6292 10.0000 -19.6110
v  1139.8199 0.0000 -19.4007
v  1140.2246 5.0000 -19.5058
v  1139.8199 10.0000 -19.4007
v  1139.0490 0.0000 -19.1303
v  1139.4344 5.0000 -19.2655
v  1139.0490 10.0000 -19.1303
v  1138.3160 0.0000 -18.7997
v  1138.6825 5.0000 -18.9650
v  1138.3160 10.0000 -18.7997
v  1137.6212 0.0000 -18.4091
v  1137.9686 5.0000 -18.6044
v  1137.6212 10.0000 -18.4091
v  1136.9645 0.0000 -17.9584
v  1137.2928 5.0000 -18.1838
v  1136.9645 10.0000 -17.9584
v  1136.3459 0.0000 -17.4476
v  1136.6553 5.0000 -17.7030
v  1136.3459 10.0000 -17.4476
v  1135.7797 0.0000 -16.8863
v  1136.0627 5.0000 -17.1670
v  1135.7797 10.0000 -16.8863
v  1135.2800 0.0000 -16.2842
v  1135.5298 5.0000 -16.5853
v  1135.2800 10.0000 -16.2842
v  1134.8470 0.0000 -15.6413
v  1135.0635 5.0000 -15.9627
v  1134.8470 10.0000 -15.6413
v  1134.4806 0.0000 -14.9575
v  1134.6638 5.0000 -15.2994
v  1134.4806 10.0000 -14.9575
v  1134.1809 0.0000 -14.2328
v  1134.3307 5.0000 -14.5952
v  1134.1809 10.0000 -14.2328
v  1133.9478 0.0000 -13.4674
v  1134.0643 5.0000 -13.8501
v  1133.9478 10.0000 -13.4674
v  1133.7811 0.0000 -12.6611
v  1133.8644 5.0000 -13.0642
v  1133.7811 10.0000 -12.6611
v  1133.6813 0.0000 -11.8139
v  1133.7312 5.0000 -12.2375
v  1133.6813 10.0000 -11.8139
v  1133.6479 0.0000 -10.9259
v  1133.6646 5.0000 -11.3699
v  1133.6479 10.0000 -10.9259
v  1133.7751 0.0000 -9.1224
v  1133.7115 5.0000 -10.0241
v  1133.7751 10.0000 -9.1224
v  1134.1567 0.0000 -7.5310
v  1133.9659 5.0000 -8.3267
v  1134.1567 10.0000 -7.5310
v  1134.7928 0.0000 -6.1519
v  1134.4747 5.0000 -6.8414
v  1134.7928 10.0000 -6.1519
v  1135.6832 0.0000 -4.9849
v  1135.2380 5.0000 -5.5684
v  1135.6832 10.0000 -4.9849
v  1136.8281 0.0000 -4.0301
v  1136.2557 5.0000 -4.5075
v  1136.8281 10.0000 -4.0301
v  1138.2274 0.0000 -3.2874
v  1137.5278 5.0000 -3.6587
v  1138.2274 10.0000 -3.2874
v  1139.8811 0.0000 -2.7570
v  1139.0543 5.0000 -3.0222
v  1139.8811 10.0000 -2.7570
v  1141.7893 0.0000 -2.4387
v  1140.8352 5.0000 -2.5978
v  1141.7893 10.0000 -2.4387
v  1143.9518 0.0000 -2.3326
v  1142.8706 5.0000 -2.3857
v  1143.9518 10.0000 -2.3326
v  1143.9518 0.0000 29.7061
v  1143.9518 5.0000 13.6867
v  1143.9518 10.0000 29.7061
v  1153.9489 0.0000 29.7061
v  1148.9503 5.0000 29.7061
v  1153.9489 10.0000 29.7061
v  1164.8011 0.0000 -7.5424
v  1159.3750 5.0000 11.0818
v  1164.8011 10.0000 -7.5424
v  1170.4222 5.0000 11.0818
v  1144.0393 0.0000 -15.0032
v  1144.7734 0.0000 -14.8582
v  1144.4064 5.0000 -14.9307
v  1144.7734 10.0000 -14.8582
v  1144.0393 10.0000 -15.0032
v  1145.4098 0.0000 -14.6166
v  1145.0916 5.0000 -14.7374
v  1145.4098 10.0000 -14.6166
v  1145.9481 0.0000 -14.2783
v  1145.6790 5.0000 -14.4474
v  1145.9481 10.0000 -14.2783
v  1146.3887 0.0000 -13.8434
v  1146.1685 5.0000 -14.0608
v  1146.3887 10.0000 -13.8434
v  1146.7313 0.0000 -13.3118
v  1146.5599 5.0000 -13.5776
v  1146.7313 10.0000 -13.3118
v  1146.9760 0.0000 -12.6836
v  1146.8536 5.0000 -12.9977
v  1146.9760 10.0000 -12.6836
v  1147.1228 0.0000 -11.9587
v  1147.0494 5.0000 -12.3212
v  1147.1228 10.0000 -11.9587
v  1147.1718 0.0000 -11.1372
v  1147.1473 5.0000 -11.5480
v  1147.1718 10.0000 -11.1372
v  1147.1213 0.0000 -10.3030
v  1147.1466 5.0000 -10.7201
v  1147.1213 10.0000 -10.3030
v  1146.9701 0.0000 -9.5670
v  1147.0457 5.0000 -9.9350
v  1146.9701 10.0000 -9.5670
v  1146.7179 0.0000 -8.9291
v  1146.8440 5.0000 -9.2480
v  1146.7179 10.0000 -8.9291
v  1146.3649 0.0000 -8.3893
v  1146.5414 5.0000 -8.6592
v  1146.3649 10.0000 -8.3893
v  1145.9109 0.0000 -7.9477
v  1146.1378 5.0000 -8.1685
v  1145.9109 10.0000 -7.9477
v  1145.3561 0.0000 -7.6042
v  1145.6335 5.0000 -7.7759
v  1145.3561 10.0000 -7.6042
v  1144.7004 0.0000 -7.3589
v  1145.0282 5.0000 -7.4815
v  1144.7004 10.0000 -7.3589
v  1143.9438 0.0000 -7.2116
v  1144.3221 5.0000 -7.2852
v  1143.9438 10.0000 -7.2116
v  1143.0864 0.0000 -7.1626
v  1143.5151 5.0000 -7.1871
v  1143.0864 10.0000 -7.1626
v  1142.2544 0.0000 -7.2116
v  1142.6704 5.0000 -7.1871
v  1142.2544 10.0000 -7.2116
v  1141.5203 0.0000 -7.3589
v  1141.8873 5.0000 -7.2852
v  1141.5203 10.0000 -7.3589
v  1140.8839 0.0000 -7.6042
v  1141.2020 5.0000 -7.4815
v  1140.8839 10.0000 -7.6042
v  1140.3455 0.0000 -7.9477
v  1140.6147 5.0000 -7.7759
v  1140.3455 10.0000 -7.9477
v  1139.9050 0.0000 -8.3893
v  1140.1252 5.0000 -8.1685
v  1139.9050 10.0000 -8.3893
v  1139.5624 0.0000 -8.9291
v  1139.7336 5.0000 -8.6592
v  1139.5624 10.0000 -8.9291
v  1139.3176 0.0000 -9.5670
v  1139.4401 5.0000 -9.2480
v  1139.3176 10.0000 -9.5670
v  1139.1708 0.0000 -10.3030
v  1139.2443 5.0000 -9.9350
v  1139.1708 10.0000 -10.3030
v  1139.1218 0.0000 -11.1372
v  1139.1464 5.0000 -10.7201
v  1139.1218 10.0000 -11.1372
v  1139.1724 0.0000 -11.9587
v  1139.1471 5.0000 -11.5480
v  1139.1724 10.0000 -11.9587
v  1139.3236 0.0000 -12.6836
v  1139.2479 5.0000 -12.3212
v  1139.3236 10.0000 -12.6836
v  1139.5758 0.0000 -13.3118
v  1139.4497 5.0000 -12.9977
v  1139.5758 10.0000 -13.3118
v  1139.9288 0.0000 -13.8434
v  1139.7523 5.0000 -13.5776
v  1139.9288 10.0000 -13.8434
v  1140.3828 0.0000 -14.2783
v  1140.1558 5.0000 -14.0608
v  1140.3828 10.0000 -14.2783
v  1140.9376 0.0000 -14.6166
v  1140.6602 5.0000 -14.4474
v  1140.9376 10.0000 -14.6166
v  1141.5933 0.0000 -14.8582
v  1141.2654 5.0000 -14.7374
v  1141.5933 10.0000 -14.8582
v  1142.3497 0.0000 -15.0032
v  1141.9716 5.0000 -14.9307
v  1142.3497 10.0000 -15.0032
v  1143.2072 0.0000 -15.0515
v  1142.7784 5.0000 -15.0273
v  1143.2072 10.0000 -15.0515
v  1143.6233 5.0000 -15.0273
v  1171.1555 0.0000 2.4753
v  1179.9294 10.0000 5.4859
v  1147.8153 0.0000 8.1643
v  1179.9294 0.0000 5.4859
v  1136.2097 0.0000 -14.8568
v  1138.4281 0.0000 -14.6805
v  1148.6829 0.0000 -2.9596
v  1160.3998 0.0000 -1.9638
v  1148.9518 0.0000 -3.2868
v  1149.1536 0.0000 -3.6793
v  1149.2881 0.0000 -4.1373
v  1151.0963 0.0000 -6.8078
v  1150.2982 0.0000 -11.8754
v  1149.9902 0.0000 -13.2133
v  1149.5039 0.0000 -14.3670
v  1148.8392 0.0000 -15.3365
v  1147.9961 0.0000 -16.1217
v  1146.9745 0.0000 -16.7227
v  1145.7744 0.0000 -17.1395
v  1144.3960 0.0000 -17.3721
v  1143.5105 0.0000 -16.6454
v  1142.5360 0.0000 -17.9097
v  1141.5121 0.0000 -17.3084
v  1140.4058 0.0000 -17.5234
v  1139.2614 0.0000 -17.0468
v  1137.8372 0.0000 -16.4705
v  1136.0812 0.0000 -13.0007
v  1135.8809 0.0000 -11.6994
v  1136.4290 0.0000 -10.3721
v  1136.6051 0.0000 -9.1309
v  1136.9574 0.0000 -8.0447
v  1137.4858 0.0000 -7.1138
v  1138.1904 0.0000 -6.3380
v  1139.0713 0.0000 -5.7173
v  1140.1282 0.0000 -5.2519
v  1141.3612 0.0000 -4.9415
v  1142.7705 0.0000 -4.7864
v  1143.6608 0.0000 -5.5689
v  1144.1987 0.0000 -5.6344
v  1144.6694 0.0000 -5.7652
v  1160.3998 10.0000 -1.9638
v  1148.9063 10.0000 16.1344
v  1171.1555 10.0000 2.4753
v  1138.4281 10.0000 -14.6805
v  1137.8372 10.0000 -16.4705
v  1139.2614 10.0000 -17.0468
v  1140.4058 10.0000 -17.5233
v  1141.5121 10.0000 -17.3084
v  1142.5360 10.0000 -17.9098
v  1143.5105 10.0000 -16.6454
v  1144.3960 10.0000 -17.3721
v  1145.7744 10.0000 -17.1395
v  1146.9745 10.0000 -16.7227
v  1147.9961 10.0000 -16.1217
v  1148.8392 10.0000 -15.3365
v  1149.5039 10.0000 -14.3670
v  1149.9902 10.0000 -13.2133
v  1150.2982 10.0000 -11.8754
v  1151.0963 10.0000 -6.8078
v  1149.2881 10.0000 -4.1373
v  1149.1536 10.0000 -3.6793
v  1148.9518 10.0000 -3.2868
v  1148.6829 10.0000 -2.9596
v  1148.3466 10.0000 -2.6979
v  1146.9453 10.0000 -2.4594
v  1144.1987 10.0000 -5.6344
v  1143.6608 10.0000 -5.5689
v  1142.7705 10.0000 -4.7864
v  1141.3612 10.0000 -4.9415
v  1140.1282 10.0000 -5.2519
v  1139.0713 10.0000 -5.7173
v  1138.1904 10.0000 -6.3380
v  1137.4858 10.0000 -7.1138
v  1136.9574 10.0000 -8.0447
v  1136.6051 10.0000 -9.1309
v  1136.4290 10.0000 -10.3721
v  1135.8809 10.0000 -11.6994
v  1136.0812 10.0000 -13.0007
v  1136.2097 10.0000 -14.8568
# 331 vertices

vn -0.4795 -0.5944 0.6456
vn 0.5774 -0.5774 0.5774
vn 0.0000 0.0000 1.0000
vn 0.5774 0.5774 0.5774
vn -0.4795 0.5944 0.6456
vn 0.5774 -0.5774 -0.5774
vn 1.0000 0.0000 -0.0000
vn 0.5774 0.5774 -0.5774
vn -0.5774 -0.5774 -0.5774
vn 0.0000 0.0000 -1.0000
vn -0.5774 0.5774 -0.5774
vn -0.0112 -0.9971 -0.0756
vn -1.0000 0.0000 -0.0000
vn -0.0112 0.9971 -0.0756
vn 0.4795 -0.5944 -0.6456
vn 0.9573 0.0000 -0.2890
vn 0.4795 0.5944 -0.6456
vn -0.4829 -0.5937 -0.6436
vn -0.4829 0.5937 -0.6436
vn 0.0104 -0.9973 -0.0730
vn -0.9601 0.0000 -0.2797
vn 0.0104 0.9973 -0.0730
vn 0.7130 -0.7009 -0.0200
vn 0.7130 0.7009 -0.0200
vn 0.7160 -0.6925 -0.0879
vn 0.9984 0.0000 -0.0560
vn 0.7160 0.6925 -0.0879
vn 0.6983 -0.6892 -0.1931
vn 0.9823 0.0000 -0.1872
vn 0.6983 0.6892 -0.1931
vn 0.6558 -0.6860 -0.3153
vn 0.9389 0.0000 -0.3441
vn 0.6558 0.6860 -0.3153
vn 0.5796 -0.6836 -0.4435
vn 0.8551 0.0000 -0.5184
vn 0.5796 0.6836 -0.4435
vn 0.4701 -0.6831 -0.5589
vn 0.7240 0.0000 -0.6898
vn 0.4701 0.6831 -0.5589
vn 0.3406 -0.6848 -0.6443
vn 0.5554 0.0000 -0.8316
vn 0.3406 0.6848 -0.6443
vn 0.2113 -0.6878 -0.6945
vn 0.3744 0.0000 -0.9273
vn 0.2113 0.6878 -0.6945
vn 0.0968 -0.6911 -0.7162
vn 0.2055 0.0000 -0.9787
vn 0.0968 0.6911 -0.7162
vn 0.0105 -0.6967 -0.7173
vn 0.0616 0.0000 -0.9981
vn 0.0105 0.6967 -0.7173
vn -0.0478 -0.6994 -0.7131
vn -0.0325 0.0000 -0.9995
vn -0.0478 0.6994 -0.7131
vn -0.0987 -0.6989 -0.7084
vn -0.1013 0.0000 -0.9949
vn -0.0987 0.6989 -0.7084
vn -0.1526 -0.6983 -0.6993
vn -0.1746 0.0000 -0.9846
vn -0.1526 0.6983 -0.6993
vn -0.2088 -0.6979 -0.6851
vn -0.2516 0.0000 -0.9678
vn -0.2088 0.6979 -0.6851
vn -0.2661 -0.6975 -0.6653
vn -0.3310 0.0000 -0.9436
vn -0.2661 0.6975 -0.6653
vn -0.3233 -0.6973 -0.6397
vn -0.4111 0.0000 -0.9116
vn -0.3233 0.6973 -0.6397
vn -0.3789 -0.6972 -0.6086
vn -0.4900 0.0000 -0.8717
vn -0.3789 0.6972 -0.6086
vn -0.4314 -0.6973 -0.5724
vn -0.5659 0.0000 -0.8245
vn -0.4314 0.6973 -0.5724
vn -0.4812 -0.6970 -0.5316
vn -0.6367 0.0000 -0.7711
vn -0.4812 0.6970 -0.5316
vn -0.5294 -0.6963 -0.4846
vn -0.7040 0.0000 -0.7102
vn -0.5294 0.6963 -0.4846
vn -0.5748 -0.6960 -0.4303
vn -0.7696 0.0000 -0.6386
vn -0.5748 0.6960 -0.4303
vn -0.6151 -0.6959 -0.3706
vn -0.8294 0.0000 -0.5586
vn -0.6151 0.6959 -0.3706
vn -0.6489 -0.6961 -0.3072
vn -0.8814 0.0000 -0.4723
vn -0.6489 0.6961 -0.3072
vn -0.6756 -0.6964 -0.2420
vn -0.9240 0.0000 -0.3823
vn -0.6756 0.6964 -0.2420
vn -0.6949 -0.6969 -0.1772
vn -0.9566 0.0000 -0.2914
vn -0.6949 0.6969 -0.1772
vn -0.7073 -0.6975 -0.1146
vn -0.9793 0.0000 -0.2023
vn -0.7073 0.6975 -0.1146
vn -0.7137 -0.6982 -0.0554
vn -0.9931 0.0000 -0.1171
vn -0.7137 0.6982 -0.0554
vn -0.7187 -0.6952 0.0118
vn -0.9993 0.0000 -0.0375
vn -0.7187 0.6952 0.0118
vn -0.7163 -0.6890 0.1104
vn -0.9975 0.0000 0.0704
vn -0.7163 0.6890 0.1104
vn -0.6878 -0.6857 0.2385
vn -0.9724 0.0000 0.2332
vn -0.6878 0.6857 0.2385
vn -0.6256 -0.6832 0.3766
vn -0.9081 0.0000 0.4188
vn -0.6256 0.6832 0.3766
vn -0.5277 -0.6828 0.5053
vn -0.7950 0.0000 0.6066
vn -0.5277 0.6828 0.5053
vn -0.4065 -0.6846 0.6051
vn -0.6405 0.0000 0.7680
vn -0.4065 0.6846 0.6051
vn -0.2822 -0.6877 0.6689
vn -0.4688 0.0000 0.8833
vn -0.2822 0.6877 0.6689
vn -0.1703 -0.6911 0.7024
vn -0.3054 0.0000 0.9522
vn -0.1703 0.6911 0.7024
vn -0.0770 -0.6943 0.7156
vn -0.1645 0.0000 0.9864
vn -0.0770 0.6943 0.7156
vn -0.3176 -0.8987 0.3024
vn -0.0490 0.0000 0.9988
vn -0.3176 0.8987 0.3024
vn -0.5774 -0.5774 0.5774
vn -0.5774 0.5774 0.5774
vn 0.4829 -0.5937 0.6437
vn 0.4829 0.5937 0.6437
vn 0.0007 -0.9880 0.1546
vn 0.9601 0.0000 0.2797
vn 0.0007 0.9880 0.1546
vn -0.9573 0.0000 0.2889
vn -0.0872 -0.7228 0.6855
vn -0.1892 -0.7265 0.6606
vn -0.1937 0.0000 0.9811
vn -0.1892 0.7265 0.6606
vn -0.0872 0.7228 0.6855
vn -0.3046 -0.7301 0.6118
vn -0.3550 0.0000 0.9349
vn -0.3046 0.7301 0.6118
vn -0.4228 -0.7324 0.5337
vn -0.5320 0.0000 0.8467
vn -0.4228 0.7324 0.5337
vn -0.5284 -0.7326 0.4291
vn -0.7026 0.0000 0.7116
vn -0.5284 0.7326 0.4291
vn -0.6083 -0.7304 0.3105
vn -0.8405 0.0000 0.5418
vn -0.6083 0.7304 0.3105
vn -0.6589 -0.7269 0.1935
vn -0.9318 0.0000 0.3630
vn -0.6589 0.7269 0.1935
vn -0.6848 -0.7232 0.0893
vn -0.9801 0.0000 0.1985
vn -0.6848 0.7232 0.0893
vn -0.6931 -0.7208 -0.0003
vn -0.9982 0.0000 0.0595
vn -0.6931 0.7208 -0.0003
vn -0.6844 -0.7235 -0.0906
vn -0.9982 0.0000 -0.0604
vn -0.6844 0.7235 -0.0906
vn -0.6579 -0.7272 -0.1960
vn -0.9795 0.0000 -0.2014
vn -0.6579 0.7272 -0.1960
vn -0.6063 -0.7306 -0.3140
vn -0.9300 0.0000 -0.3676
vn -0.6063 0.7306 -0.3140
vn -0.5253 -0.7327 -0.4328
vn -0.8369 0.0000 -0.5474
vn -0.5253 0.7327 -0.4328
vn -0.4191 -0.7323 -0.5367
vn -0.6973 0.0000 -0.7168
vn -0.4191 0.7323 -0.5367
vn -0.3012 -0.7298 -0.6137
vn -0.5264 0.0000 -0.8502
vn -0.3012 0.7298 -0.6137
vn -0.1868 -0.7262 -0.6616
vn -0.3505 0.0000 -0.9366
vn -0.1868 0.7262 -0.6616
vn -0.0860 -0.7226 -0.6859
vn -0.1910 0.0000 -0.9816
vn -0.0860 0.7226 -0.6859
vn 0.0006 -0.7204 -0.6936
vn -0.0571 0.0000 -0.9984
vn 0.0006 0.7204 -0.6936
vn 0.0884 -0.7231 -0.6851
vn 0.0589 0.0000 -0.9983
vn 0.0884 0.7231 -0.6851
vn 0.1918 -0.7267 -0.6596
vn 0.1966 0.0000 -0.9805
vn 0.1918 0.7267 -0.6596
vn 0.3081 -0.7303 -0.6097
vn 0.3598 0.0000 -0.9330
vn 0.3081 0.7303 -0.6097
vn 0.4266 -0.7325 -0.5305
vn 0.5378 0.0000 -0.8430
vn 0.4266 0.7325 -0.5305
vn 0.5315 -0.7325 -0.4253
vn 0.7080 0.0000 -0.7062
vn 0.5315 0.7325 -0.4253
vn 0.6104 -0.7302 -0.3070
vn 0.8443 0.0000 -0.5359
vn 0.6104 0.7302 -0.3070
vn 0.6599 -0.7267 -0.1909
vn 0.9336 0.0000 -0.3582
vn 0.6599 0.7267 -0.1909
vn 0.6852 -0.7230 -0.0880
vn 0.9807 0.0000 -0.1956
vn 0.6852 0.7230 -0.0880
vn 0.6931 -0.7208 0.0009
vn 0.9983 0.0000 -0.0586
vn 0.6931 0.7208 0.0009
vn 0.6840 -0.7237 0.0919
vn 0.9981 0.0000 0.0613
vn 0.6840 0.7237 0.0919
vn 0.6568 -0.7274 0.1987
vn 0.9789 0.0000 0.2043
vn 0.6568 0.7274 0.1987
vn 0.6042 -0.7308 0.3176
vn 0.9280 0.0000 0.3725
vn 0.6042 0.7308 0.3176
vn 0.5220 -0.7327 0.4366
vn 0.8330 0.0000 0.5533
vn 0.5220 0.7327 0.4366
vn 0.4153 -0.7323 0.5398
vn 0.6918 0.0000 0.7220
vn 0.4153 0.7323 0.5398
vn 0.2976 -0.7296 0.6157
vn 0.5206 0.0000 0.8538
vn 0.2976 0.7296 0.6157
vn 0.1842 -0.7260 0.6626
vn 0.3458 0.0000 0.9383
vn 0.1842 0.7260 0.6626
vn 0.0847 -0.7224 0.6863
vn 0.1882 0.0000 0.9821
vn 0.0847 0.7224 0.6863
vn -0.0006 -0.7202 0.6938
vn 0.0563 0.0000 0.9984
vn -0.0006 0.7202 0.6938
vn -0.0580 0.0000 0.9983
vn 0.0000 -1.0000 -0.0000
vn 0.0000 1.0000 -0.0000
# 250 vertex normals

o Po_Paan
g Po_Paan
s 1
f 1//1 2//2 3//3 
f 2//2 4//4 3//3 
f 4//4 5//5 3//3 
f 5//5 1//1 3//3 
s 4
f 2//2 6//6 7//7 
f 6//6 8//8 7//7 
f 8//8 4//4 7//7 
f 4//4 2//2 7//7 
s 2
f 6//6 9//9 10//10 
f 9//9 11//11 10//10 
f 11//11 8//8 10//10 
f 8//8 6//6 10//10 
s 4
f 9//9 12//12 13//13 
f 12//12 14//14 13//13 
f 14//14 11//11 13//13 
f 11//11 9//9 13//13 
s 2
f 12//12 15//15 16//16 
f 15//15 17//17 16//16 
f 17//17 14//14 16//16 
f 14//14 12//12 16//16 
s 4
f 15//15 18//18 19//10 
f 18//18 20//19 19//10 
f 20//19 17//17 19//10 
f 17//17 15//15 19//10 
s 2
f 18//18 21//20 22//21 
f 21//20 23//22 22//21 
f 23//22 20//19 22//21 
f 20//19 18//18 22//21 
s 4
f 21//20 24//23 25//7 
f 24//23 26//24 25//7 
f 26//24 23//22 25//7 
f 23//22 21//20 25//7 
s 2
f 24//23 27//25 28//26 
f 27//25 29//27 28//26 
f 29//27 26//24 28//26 
f 26//24 24//23 28//26 
f 27//25 30//28 31//29 
f 30//28 32//30 31//29 
f 32//30 29//27 31//29 
f 29//27 27//25 31//29 
f 30//28 33//31 34//32 
f 33//31 35//33 34//32 
f 35//33 32//30 34//32 
f 32//30 30//28 34//32 
f 33//31 36//34 37//35 
f 36//34 38//36 37//35 
f 38//36 35//33 37//35 
f 35//33 33//31 37//35 
f 36//34 39//37 40//38 
f 39//37 41//39 40//38 
f 41//39 38//36 40//38 
f 38//36 36//34 40//38 
f 39//37 42//40 43//41 
f 42//40 44//42 43//41 
f 44//42 41//39 43//41 
f 41//39 39//37 43//41 
f 42//40 45//43 46//44 
f 45//43 47//45 46//44 
f 47//45 44//42 46//44 
f 44//42 42//40 46//44 
f 45//43 48//46 49//47 
f 48//46 50//48 49//47 
f 50//48 47//45 49//47 
f 47//45 45//43 49//47 
f 48//46 51//49 52//50 
f 51//49 53//51 52//50 
f 53//51 50//48 52//50 
f 50//48 48//46 52//50 
f 51//49 54//52 55//53 
f 54//52 56//54 55//53 
f 56//54 53//51 55//53 
f 53//51 51//49 55//53 
f 54//52 57//55 58//56 
f 57//55 59//57 58//56 
f 59//57 56//54 58//56 
f 56//54 54//52 58//56 
f 57//55 60//58 61//59 
f 60//58 62//60 61//59 
f 62//60 59//57 61//59 
f 59//57 57//55 61//59 
f 60//58 63//61 64//62 
f 63//61 65//63 64//62 
f 65//63 62//60 64//62 
f 62//60 60//58 64//62 
f 63//61 66//64 67//65 
f 66//64 68//66 67//65 
f 68//66 65//63 67//65 
f 65//63 63//61 67//65 
f 66//64 69//67 70//68 
f 69//67 71//69 70//68 
f 71//69 68//66 70//68 
f 68//66 66//64 70//68 
f 69//67 72//70 73//71 
f 72//70 74//72 73//71 
f 74//72 71//69 73//71 
f 71//69 69//67 73//71 
f 72//70 75//73 76//74 
f 75//73 77//75 76//74 
f 77//75 74//72 76//74 
f 74//72 72//70 76//74 
f 75//73 78//76 79//77 
f 78//76 80//78 79//77 
f 80//78 77//75 79//77 
f 77//75 75//73 79//77 
f 78//76 81//79 82//80 
f 81//79 83//81 82//80 
f 83//81 80//78 82//80 
f 80//78 78//76 82//80 
f 81//79 84//82 85//83 
f 84//82 86//84 85//83 
f 86//84 83//81 85//83 
f 83//81 81//79 85//83 
f 84//82 87//85 88//86 
f 87//85 89//87 88//86 
f 89//87 86//84 88//86 
f 86//84 84//82 88//86 
f 87//85 90//88 91//89 
f 90//88 92//90 91//89 
f 92//90 89//87 91//89 
f 89//87 87//85 91//89 
f 90//88 93//91 94//92 
f 93//91 95//93 94//92 
f 95//93 92//90 94//92 
f 92//90 90//88 94//92 
f 93//91 96//94 97//95 
f 96//94 98//96 97//95 
f 98//96 95//93 97//95 
f 95//93 93//91 97//95 
f 96//94 99//97 100//98 
f 99//97 101//99 100//98 
f 101//99 98//96 100//98 
f 98//96 96//94 100//98 
f 99//97 102//100 103//101 
f 102//100 104//102 103//101 
f 104//102 101//99 103//101 
f 101//99 99//97 103//101 
f 102//100 105//103 106//104 
f 105//103 107//105 106//104 
f 107//105 104//102 106//104 
f 104//102 102//100 106//104 
f 105//103 108//106 109//107 
f 108//106 110//108 109//107 
f 110//108 107//105 109//107 
f 107//105 105//103 109//107 
f 108//106 111//109 112//110 
f 111//109 113//111 112//110 
f 113//111 110//108 112//110 
f 110//108 108//106 112//110 
f 111//109 114//112 115//113 
f 114//112 116//114 115//113 
f 116//114 113//111 115//113 
f 113//111 111//109 115//113 
f 114//112 117//115 118//116 
f 117//115 119//117 118//116 
f 119//117 116//114 118//116 
f 116//114 114//112 118//116 
f 117//115 120//118 121//119 
f 120//118 122//120 121//119 
f 122//120 119//117 121//119 
f 119//117 117//115 121//119 
f 120//118 123//121 124//122 
f 123//121 125//123 124//122 
f 125//123 122//120 124//122 
f 122//120 120//118 124//122 
f 123//121 126//124 127//125 
f 126//124 128//126 127//125 
f 128//126 125//123 127//125 
f 125//123 123//121 127//125 
f 126//124 129//127 130//128 
f 129//127 131//129 130//128 
f 131//129 128//126 130//128 
f 128//126 126//124 130//128 
f 129//127 132//130 133//131 
f 132//130 134//132 133//131 
f 134//132 131//129 133//131 
f 131//129 129//127 133//131 
s 4
f 132//130 135//133 136//13 
f 135//133 137//134 136//13 
f 137//134 134//132 136//13 
f 134//132 132//130 136//13 
s 2
f 135//133 138//135 139//3 
f 138//135 140//136 139//3 
f 140//136 137//134 139//3 
f 137//134 135//133 139//3 
s 4
f 138//135 141//137 142//138 
f 141//137 143//139 142//138 
f 143//139 140//136 142//138 
f 140//136 138//135 142//138 
s 2
f 141//137 1//1 144//140 
f 1//1 5//5 144//140 
f 5//5 143//139 144//140 
f 143//139 141//137 144//140 
s 1
f 145//141 146//142 147//143 
f 146//142 148//144 147//143 
f 148//144 149//145 147//143 
f 149//145 145//141 147//143 
s 3
f 146//142 150//146 151//147 
f 150//146 152//148 151//147 
f 152//148 148//144 151//147 
f 148//144 146//142 151//147 
s 2
f 150//146 153//149 154//150 
f 153//149 155//151 154//150 
f 155//151 152//148 154//150 
f 152//148 150//146 154//150 
f 153//149 156//152 157//153 
f 156//152 158//154 157//153 
f 158//154 155//151 157//153 
f 155//151 153//149 157//153 
f 156//152 159//155 160//156 
f 159//155 161//157 160//156 
f 161//157 158//154 160//156 
f 158//154 156//152 160//156 
f 159//155 162//158 163//159 
f 162//158 164//160 163//159 
f 164//160 161//157 163//159 
f 161//157 159//155 163//159 
f 162//158 165//161 166//162 
f 165//161 167//163 166//162 
f 167//163 164//160 166//162 
f 164//160 162//158 166//162 
f 165//161 168//164 169//165 
f 168//164 170//166 169//165 
f 170//166 167//163 169//165 
f 167//163 165//161 169//165 
f 168//164 171//167 172//168 
f 171//167 173//169 172//168 
f 173//169 170//166 172//168 
f 170//166 168//164 172//168 
f 171//167 174//170 175//171 
f 174//170 176//172 175//171 
f 176//172 173//169 175//171 
f 173//169 171//167 175//171 
f 174//170 177//173 178//174 
f 177//173 179//175 178//174 
f 179//175 176//172 178//174 
f 176//172 174//170 178//174 
f 177//173 180//176 181//177 
f 180//176 182//178 181//177 
f 182//178 179//175 181//177 
f 179//175 177//173 181//177 
f 180//176 183//179 184//180 
f 183//179 185//181 184//180 
f 185//181 182//178 184//180 
f 182//178 180//176 184//180 
f 183//179 186//182 187//183 
f 186//182 188//184 187//183 
f 188//184 185//181 187//183 
f 185//181 183//179 187//183 
f 186//182 189//185 190//186 
f 189//185 191//187 190//186 
f 191//187 188//184 190//186 
f 188//184 186//182 190//186 
f 189//185 192//188 193//189 
f 192//188 194//190 193//189 
f 194//190 191//187 193//189 
f 191//187 189//185 193//189 
f 192//188 195//191 196//192 
f 195//191 197//193 196//192 
f 197//193 194//190 196//192 
f 194//190 192//188 196//192 
f 195//191 198//194 199//195 
f 198//194 200//196 199//195 
f 200//196 197//193 199//195 
f 197//193 195//191 199//195 
f 198//194 201//197 202//198 
f 201//197 203//199 202//198 
f 203//199 200//196 202//198 
f 200//196 198//194 202//198 
f 201//197 204//200 205//201 
f 204//200 206//202 205//201 
f 206//202 203//199 205//201 
f 203//199 201//197 205//201 
f 204//200 207//203 208//204 
f 207//203 209//205 208//204 
f 209//205 206//202 208//204 
f 206//202 204//200 208//204 
f 207//203 210//206 211//207 
f 210//206 212//208 211//207 
f 212//208 209//205 211//207 
f 209//205 207//203 211//207 
f 210//206 213//209 214//210 
f 213//209 215//211 214//210 
f 215//211 212//208 214//210 
f 212//208 210//206 214//210 
f 213//209 216//212 217//213 
f 216//212 218//214 217//213 
f 218//214 215//211 217//213 
f 215//211 213//209 217//213 
f 216//212 219//215 220//216 
f 219//215 221//217 220//216 
f 221//217 218//214 220//216 
f 218//214 216//212 220//216 
f 219//215 222//218 223//219 
f 222//218 224//220 223//219 
f 224//220 221//217 223//219 
f 221//217 219//215 223//219 
f 222//218 225//221 226//222 
f 225//221 227//223 226//222 
f 227//223 224//220 226//222 
f 224//220 222//218 226//222 
f 225//221 228//224 229//225 
f 228//224 230//226 229//225 
f 230//226 227//223 229//225 
f 227//223 225//221 229//225 
f 228//224 231//227 232//228 
f 231//227 233//229 232//228 
f 233//229 230//226 232//228 
f 230//226 228//224 232//228 
f 231//227 234//230 235//231 
f 234//230 236//232 235//231 
f 236//232 233//229 235//231 
f 233//229 231//227 235//231 
f 234//230 237//233 238//234 
f 237//233 239//235 238//234 
f 239//235 236//232 238//234 
f 236//232 234//230 238//234 
f 237//233 240//236 241//237 
f 240//236 242//238 241//237 
f 242//238 239//235 241//237 
f 239//235 237//233 241//237 
f 240//236 243//239 244//240 
f 243//239 245//241 244//240 
f 245//241 242//238 244//240 
f 242//238 240//236 244//240 
f 243//239 246//242 247//243 
f 246//242 248//244 247//243 
f 248//244 245//241 247//243 
f 245//241 243//239 247//243 
f 246//242 249//245 250//246 
f 249//245 251//247 250//246 
f 251//247 248//244 250//246 
f 248//244 246//242 250//246 
s 3
f 249//245 145//141 252//248 
f 145//141 149//145 252//248 
f 149//145 251//247 252//248 
f 251//247 249//245 252//248 
s 16
f 1//1 141//137 253//249 
f 141//137 15//15 253//249 
f 15//15 12//12 253//249 
f 12//12 1//1 253//249 
f 8//8 11//11 254//250 
f 11//11 14//14 254//250 
f 14//14 5//5 254//250 
f 5//5 4//4 254//250 
f 4//4 8//8 254//250 
f 138//135 135//133 255//249 
f 135//133 132//130 255//249 
f 132//130 186//182 255//249 
f 186//182 183//179 255//249 
f 183//179 21//20 255//249 
f 21//20 138//135 255//249 
f 12//12 9//9 256//249 
f 9//9 6//6 256//249 
f 6//6 2//2 256//249 
f 2//2 1//1 256//249 
f 1//1 12//12 256//249 
f 93//91 90//88 257//249 
f 90//88 87//85 257//249 
f 87//85 84//82 257//249 
f 84//82 81//79 257//249 
f 81//79 258//249 231//227 257//249 
f 231//227 228//224 257//249 
f 228//224 93//91 257//249 
f 183//179 180//176 259//249 
f 180//176 21//20 259//249 
f 21//20 183//179 259//249 
f 21//20 18//18 260//249 
f 18//18 15//15 260//249 
f 15//15 141//137 260//249 
f 141//137 138//135 260//249 
f 138//135 21//20 260//249 
f 180//176 177//173 261//249 
f 177//173 21//20 261//249 
f 21//20 180//176 261//249 
f 177//173 174//170 262//249 
f 174//170 21//20 262//249 
f 21//20 177//173 262//249 
f 174//170 171//167 263//249 
f 171//167 21//20 263//249 
f 21//20 174//170 263//249 
f 171//167 168//164 264//249 
f 168//164 27//25 264//249 
f 27//25 24//23 264//249 
f 24//23 21//20 264//249 
f 21//20 171//167 264//249 
f 168//164 165//161 265//249 
f 165//161 30//28 265//249 
f 30//28 27//25 265//249 
f 27//25 168//164 265//249 
f 165//161 162//158 266//249 
f 162//158 33//31 266//249 
f 33//31 30//28 266//249 
f 30//28 165//161 266//249 
f 162//158 159//155 267//249 
f 159//155 36//34 267//249 
f 36//34 33//31 267//249 
f 33//31 162//158 267//249 
f 159//155 156//152 268//249 
f 156//152 39//37 268//249 
f 39//37 36//34 268//249 
f 36//34 159//155 268//249 
f 156//152 153//149 269//249 
f 153//149 42//40 269//249 
f 42//40 39//37 269//249 
f 39//37 156//152 269//249 
f 153//149 150//146 270//249 
f 150//146 45//43 270//249 
f 45//43 42//40 270//249 
f 42//40 153//149 270//249 
f 150//146 146//142 271//249 
f 146//142 48//46 271//249 
f 48//46 45//43 271//249 
f 45//43 150//146 271//249 
f 146//142 145//141 272//249 
f 145//141 51//49 272//249 
f 51//49 48//46 272//249 
f 48//46 146//142 272//249 
f 145//141 249//245 273//249 
f 249//245 51//49 273//249 
f 51//49 145//141 273//249 
f 249//245 246//242 274//249 
f 246//242 57//55 274//249 
f 57//55 54//52 274//249 
f 54//52 51//49 274//249 
f 51//49 249//245 274//249 
f 246//242 243//239 275//249 
f 243//239 60//58 275//249 
f 60//58 57//55 275//249 
f 57//55 246//242 275//249 
f 243//239 240//236 276//249 
f 240//236 66//64 276//249 
f 66//64 63//61 276//249 
f 63//61 60//58 276//249 
f 60//58 243//239 276//249 
f 240//236 237//233 277//249 
f 237//233 72//70 277//249 
f 72//70 69//67 277//249 
f 69//67 66//64 277//249 
f 66//64 240//236 277//249 
f 237//233 234//230 278//249 
f 234//230 81//79 278//249 
f 81//79 78//76 278//249 
f 78//76 75//73 278//249 
f 75//73 72//70 278//249 
f 72//70 237//233 278//249 
f 234//230 231//227 258//249 
f 81//79 234//230 258//249 
f 228//224 225//221 279//249 
f 225//221 99//97 279//249 
f 99//97 96//94 279//249 
f 96//94 93//91 279//249 
f 93//91 228//224 279//249 
f 225//221 222//218 280//249 
f 222//218 105//103 280//249 
f 105//103 102//100 280//249 
f 102//100 99//97 280//249 
f 99//97 225//221 280//249 
f 222//218 219//215 281//249 
f 219//215 108//106 281//249 
f 108//106 105//103 281//249 
f 105//103 222//218 281//249 
f 219//215 216//212 282//249 
f 216//212 111//109 282//249 
f 111//109 108//106 282//249 
f 108//106 219//215 282//249 
f 216//212 213//209 283//249 
f 213//209 114//112 283//249 
f 114//112 111//109 283//249 
f 111//109 216//212 283//249 
f 213//209 210//206 284//249 
f 210//206 117//115 284//249 
f 117//115 114//112 284//249 
f 114//112 213//209 284//249 
f 210//206 207//203 285//249 
f 207//203 120//118 285//249 
f 120//118 117//115 285//249 
f 117//115 210//206 285//249 
f 207//203 204//200 286//249 
f 204//200 123//121 286//249 
f 123//121 120//118 286//249 
f 120//118 207//203 286//249 
f 204//200 201//197 287//249 
f 201//197 126//124 287//249 
f 126//124 123//121 287//249 
f 123//121 204//200 287//249 
f 201//197 198//194 288//249 
f 198//194 129//127 288//249 
f 129//127 126//124 288//249 
f 126//124 201//197 288//249 
f 198//194 195//191 289//249 
f 195//191 132//130 289//249 
f 132//130 129//127 289//249 
f 129//127 198//194 289//249 
f 195//191 192//188 290//249 
f 192//188 132//130 290//249 
f 132//130 195//191 290//249 
f 192//188 189//185 291//249 
f 189//185 132//130 291//249 
f 132//130 192//188 291//249 
f 189//185 186//182 292//249 
f 186//182 132//130 292//249 
f 132//130 189//185 292//249 
f 17//17 20//19 293//250 
f 20//19 23//22 293//250 
f 23//22 140//136 293//250 
f 140//136 143//139 293//250 
f 143//139 17//17 293//250 
f 23//22 134//132 294//250 
f 134//132 137//134 294//250 
f 137//134 140//136 294//250 
f 140//136 23//22 294//250 
f 143//139 5//5 295//250 
f 5//5 14//14 295//250 
f 14//14 17//17 295//250 
f 17//17 143//139 295//250 
f 233//229 236//232 296//250 
f 236//232 83//81 296//250 
f 236//232 239//235 297//250 
f 239//235 74//72 297//250 
f 74//72 77//75 297//250 
f 77//75 80//78 297//250 
f 80//78 83//81 297//250 
f 83//81 236//232 297//250 
f 239//235 242//238 298//250 
f 242//238 68//66 298//250 
f 68//66 71//69 298//250 
f 71//69 74//72 298//250 
f 74//72 239//235 298//250 
f 242//238 245//241 299//250 
f 245//241 62//60 299//250 
f 62//60 65//63 299//250 
f 65//63 68//66 299//250 
f 68//66 242//238 299//250 
f 245//241 248//244 300//250 
f 248//244 59//57 300//250 
f 59//57 62//60 300//250 
f 62//60 245//241 300//250 
f 248//244 251//247 301//250 
f 251//247 53//51 301//250 
f 53//51 56//54 301//250 
f 56//54 59//57 301//250 
f 59//57 248//244 301//250 
f 251//247 149//145 302//250 
f 149//145 53//51 302//250 
f 53//51 251//247 302//250 
f 149//145 148//144 303//250 
f 148//144 50//48 303//250 
f 50//48 53//51 303//250 
f 53//51 149//145 303//250 
f 148//144 152//148 304//250 
f 152//148 47//45 304//250 
f 47//45 50//48 304//250 
f 50//48 148//144 304//250 
f 152//148 155//151 305//250 
f 155//151 44//42 305//250 
f 44//42 47//45 305//250 
f 47//45 152//148 305//250 
f 155//151 158//154 306//250 
f 158//154 41//39 306//250 
f 41//39 44//42 306//250 
f 44//42 155//151 306//250 
f 158//154 161//157 307//250 
f 161//157 38//36 307//250 
f 38//36 41//39 307//250 
f 41//39 158//154 307//250 
f 161//157 164//160 308//250 
f 164//160 35//33 308//250 
f 35//33 38//36 308//250 
f 38//36 161//157 308//250 
f 164//160 167//163 309//250 
f 167//163 32//30 309//250 
f 32//30 35//33 309//250 
f 35//33 164//160 309//250 
f 167//163 170//166 310//250 
f 170//166 29//27 310//250 
f 29//27 32//30 310//250 
f 32//30 167//163 310//250 
f 170//166 173//169 311//250 
f 173//169 23//22 311//250 
f 23//22 26//24 311//250 
f 26//24 29//27 311//250 
f 29//27 170//166 311//250 
f 173//169 176//172 312//250 
f 176//172 23//22 312//250 
f 23//22 173//169 312//250 
f 176//172 179//175 313//250 
f 179//175 23//22 313//250 
f 23//22 176//172 313//250 
f 179//175 182//178 314//250 
f 182//178 23//22 314//250 
f 23//22 179//175 314//250 
f 182//178 185//181 315//250 
f 185//181 23//22 315//250 
f 23//22 182//178 315//250 
f 185//181 188//184 316//250 
f 188//184 23//22 316//250 
f 23//22 185//181 316//250 
f 188//184 191//187 317//250 
f 191//187 134//132 317//250 
f 134//132 23//22 317//250 
f 23//22 188//184 317//250 
f 191//187 194//190 318//250 
f 194//190 134//132 318//250 
f 134//132 191//187 318//250 
f 194//190 197//193 319//250 
f 197//193 134//132 319//250 
f 134//132 194//190 319//250 
f 197//193 200//196 320//250 
f 200//196 131//129 320//250 
f 131//129 134//132 320//250 
f 134//132 197//193 320//250 
f 200//196 203//199 321//250 
f 203//199 128//126 321//250 
f 128//126 131//129 321//250 
f 131//129 200//196 321//250 
f 203//199 206//202 322//250 
f 206//202 125//123 322//250 
f 125//123 128//126 322//250 
f 128//126 203//199 322//250 
f 206//202 209//205 323//250 
f 209//205 122//120 323//250 
f 122//120 125//123 323//250 
f 125//123 206//202 323//250 
f 209//205 212//208 324//250 
f 212//208 119//117 324//250 
f 119//117 122//120 324//250 
f 122//120 209//205 324//250 
f 212//208 215//211 325//250 
f 215//211 116//114 325//250 
f 116//114 119//117 325//250 
f 119//117 212//208 325//250 
f 215//211 218//214 326//250 
f 218//214 113//111 326//250 
f 113//111 116//114 326//250 
f 116//114 215//211 326//250 
f 218//214 221//217 327//250 
f 221//217 110//108 327//250 
f 110//108 113//111 327//250 
f 113//111 218//214 327//250 
f 221//217 224//220 328//250 
f 224//220 107//105 328//250 
f 107//105 110//108 328//250 
f 110//108 221//217 328//250 
f 224//220 227//223 329//250 
f 227//223 101//99 329//250 
f 101//99 104//102 329//250 
f 104//102 107//105 329//250 
f 107//105 224//220 329//250 
f 227//223 230//226 330//250 
f 230//226 95//93 330//250 
f 95//93 98//96 330//250 
f 98//96 101//99 330//250 
f 101//99 227//223 330//250 
f 230//226 233//229 331//250 
f 233//229 296//250 83//81 331//250 
f 83//81 86//84 331//250 
f 86//84 89//87 331//250 
f 89//87 92//90 331//250 
f 92//90 95//93 331//250 
f 95//93 230//226 331//250 
# 2 polygons - 658 triangles

