# 3ds Max Wavefront OBJ Exporter v0.97b - (c)2007 guruware
# File Created: 21.02.2021 20:19:46

#
# object Fo_Fan
#

v  1238.1510 0.0000 29.7061
v  1247.7958 0.0000 29.7061
v  1242.9734 5.0000 29.7061
v  1247.7958 10.0000 29.7061
v  1238.1510 10.0000 29.7061
v  1247.7958 0.0000 -48.5392
v  1247.7958 5.0000 -9.4165
v  1247.7958 10.0000 -48.5392
v  1237.9749 0.0000 -48.5392
v  1242.8854 5.0000 -48.5392
v  1237.9749 10.0000 -48.5392
v  1237.9749 0.0000 7.4581
v  1237.9749 5.0000 -20.5405
v  1237.9749 10.0000 7.4581
v  1229.5652 0.0000 -19.7204
v  1233.7700 5.0000 -6.1312
v  1229.5652 10.0000 -19.7204
v  1223.5127 0.0000 -19.7204
v  1226.5389 5.0000 -19.7204
v  1223.5127 10.0000 -19.7204
v  1215.5961 0.0000 7.4581
v  1219.5544 5.0000 -6.1312
v  1215.5961 10.0000 7.4581
v  1215.5961 0.0000 -8.8732
v  1215.5961 5.0000 -0.7075
v  1215.5961 10.0000 -8.8732
v  1215.4640 0.0000 -11.1836
v  1215.5300 5.0000 -10.0284
v  1215.4640 10.0000 -11.1836
v  1215.0675 0.0000 -13.2221
v  1215.2657 5.0000 -12.2028
v  1215.0675 10.0000 -13.2221
v  1214.4067 0.0000 -14.9889
v  1214.7372 5.0000 -14.1055
v  1214.4067 10.0000 -14.9889
v  1213.4818 0.0000 -16.4838
v  1213.9442 5.0000 -15.7364
v  1213.4818 10.0000 -16.4838
v  1212.2925 0.0000 -17.7070
v  1212.8871 5.0000 -17.0954
v  1212.2925 10.0000 -17.7070
v  1210.8389 0.0000 -18.6583
v  1211.5657 5.0000 -18.1826
v  1210.8389 10.0000 -18.6583
v  1209.1208 0.0000 -19.3378
v  1209.9799 5.0000 -18.9981
v  1209.1208 10.0000 -19.3378
v  1207.1387 0.0000 -19.7455
v  1208.1298 5.0000 -19.5417
v  1207.1387 10.0000 -19.7455
v  1204.8922 0.0000 -19.8814
v  1206.0155 5.0000 -19.8135
v  1204.8922 10.0000 -19.8814
v  1202.9487 0.0000 -19.7709
v  1203.9205 5.0000 -19.8262
v  1202.9487 10.0000 -19.7709
v  1201.2340 0.0000 -19.4392
v  1202.0914 5.0000 -19.6050
v  1201.2340 10.0000 -19.4392
v  1199.7478 0.0000 -18.8864
v  1200.4908 5.0000 -19.1628
v  1199.7478 10.0000 -18.8864
v  1198.4904 0.0000 -18.1124
v  1199.1190 5.0000 -18.4994
v  1198.4904 10.0000 -18.1124
v  1197.4614 0.0000 -17.1174
v  1197.9758 5.0000 -17.6149
v  1197.4614 10.0000 -17.1174
v  1196.6611 0.0000 -15.9012
v  1197.0613 5.0000 -16.5093
v  1196.6611 10.0000 -15.9012
v  1196.0896 0.0000 -14.4639
v  1196.3754 5.0000 -15.1825
v  1196.0896 10.0000 -14.4639
v  1195.7466 0.0000 -12.8055
v  1195.9181 5.0000 -13.6347
v  1195.7466 10.0000 -12.8055
v  1195.6323 0.0000 -10.9259
v  1195.6895 5.0000 -11.8657
v  1195.6323 10.0000 -10.9259
v  1195.7576 0.0000 -9.1224
v  1195.6949 5.0000 -10.0241
v  1195.7576 10.0000 -9.1224
v  1196.1332 0.0000 -7.5310
v  1195.9453 5.0000 -8.3267
v  1196.1332 10.0000 -7.5310
v  1196.7593 0.0000 -6.1519
v  1196.4463 5.0000 -6.8414
v  1196.7593 10.0000 -6.1519
v  1197.6359 0.0000 -4.9849
v  1197.1975 5.0000 -5.5684
v  1197.6359 10.0000 -4.9849
v  1198.7628 0.0000 -4.0301
v  1198.1993 5.0000 -4.5075
v  1198.7628 10.0000 -4.0301
v  1200.1403 0.0000 -3.2874
v  1199.4515 5.0000 -3.6587
v  1200.1403 10.0000 -3.2874
v  1201.7682 0.0000 -2.7570
v  1200.9542 5.0000 -3.0222
v  1201.7682 10.0000 -2.7570
v  1203.6465 0.0000 -2.4387
v  1202.7073 5.0000 -2.5978
v  1203.6465 10.0000 -2.4387
v  1205.7751 0.0000 -2.3326
v  1204.7108 5.0000 -2.3857
v  1205.7751 10.0000 -2.3326
v  1205.7751 0.0000 29.7061
v  1205.7751 5.0000 13.6867
v  1205.7751 10.0000 29.7061
v  1215.7722 0.0000 29.7061
v  1210.7737 5.0000 29.7061
v  1215.7722 10.0000 29.7061
v  1226.6245 0.0000 -7.5424
v  1221.1984 5.0000 11.0818
v  1226.6245 10.0000 -7.5424
v  1232.3877 5.0000 11.0818
v  1205.8785 0.0000 -15.0032
v  1206.6090 0.0000 -14.8582
v  1206.2438 5.0000 -14.9307
v  1206.6090 10.0000 -14.8582
v  1205.8785 10.0000 -15.0032
v  1207.2421 0.0000 -14.6166
v  1206.9255 5.0000 -14.7374
v  1207.2421 10.0000 -14.6166
v  1207.7777 0.0000 -14.2783
v  1207.5099 5.0000 -14.4474
v  1207.7777 10.0000 -14.2783
v  1208.2161 0.0000 -13.8434
v  1207.9968 5.0000 -14.0608
v  1208.2161 10.0000 -13.8434
v  1208.5569 0.0000 -13.3118
v  1208.3865 5.0000 -13.5776
v  1208.5569 10.0000 -13.3118
v  1208.8004 0.0000 -12.6836
v  1208.6786 5.0000 -12.9977
v  1208.8004 10.0000 -12.6836
v  1208.9464 0.0000 -11.9587
v  1208.8734 5.0000 -12.3212
v  1208.9464 10.0000 -11.9587
v  1208.9951 0.0000 -11.1372
v  1208.9708 5.0000 -11.5480
v  1208.9951 10.0000 -11.1372
v  1208.9464 0.0000 -10.3030
v  1208.9708 5.0000 -10.7201
v  1208.9464 10.0000 -10.3030
v  1208.8004 0.0000 -9.5670
v  1208.8734 5.0000 -9.9350
v  1208.8004 10.0000 -9.5670
v  1208.5569 0.0000 -8.9291
v  1208.6786 5.0000 -9.2480
v  1208.5569 10.0000 -8.9291
v  1208.2161 0.0000 -8.3893
v  1208.3865 5.0000 -8.6592
v  1208.2161 10.0000 -8.3893
v  1207.7777 0.0000 -7.9477
v  1207.9968 5.0000 -8.1685
v  1207.7777 10.0000 -7.9477
v  1207.2421 0.0000 -7.6042
v  1207.5099 5.0000 -7.7759
v  1207.2421 10.0000 -7.6042
v  1206.6090 0.0000 -7.3589
v  1206.9255 5.0000 -7.4815
v  1206.6090 10.0000 -7.3589
v  1205.8785 0.0000 -7.2116
v  1206.2438 5.0000 -7.2852
v  1205.8785 10.0000 -7.2116
v  1205.0507 0.0000 -7.1626
v  1205.4646 5.0000 -7.1871
v  1205.0507 10.0000 -7.1626
v  1204.2229 0.0000 -7.2116
v  1204.6367 5.0000 -7.1871
v  1204.2229 10.0000 -7.2116
v  1203.4924 0.0000 -7.3589
v  1203.8577 5.0000 -7.2852
v  1203.4924 10.0000 -7.3589
v  1202.8594 0.0000 -7.6042
v  1203.1759 5.0000 -7.4815
v  1202.8594 10.0000 -7.6042
v  1202.3237 0.0000 -7.9477
v  1202.5916 5.0000 -7.7759
v  1202.3237 10.0000 -7.9477
v  1201.8854 0.0000 -8.3893
v  1202.1045 5.0000 -8.1685
v  1201.8854 10.0000 -8.3893
v  1201.5446 0.0000 -8.9291
v  1201.7150 5.0000 -8.6592
v  1201.5446 10.0000 -8.9291
v  1201.3010 0.0000 -9.5670
v  1201.4227 5.0000 -9.2480
v  1201.3010 10.0000 -9.5670
v  1201.1549 0.0000 -10.3030
v  1201.2280 5.0000 -9.9350
v  1201.1549 10.0000 -10.3030
v  1201.1062 0.0000 -11.1372
v  1201.1306 5.0000 -10.7201
v  1201.1062 10.0000 -11.1372
v  1201.1549 0.0000 -11.9587
v  1201.1306 5.0000 -11.5480
v  1201.1549 10.0000 -11.9587
v  1201.3010 0.0000 -12.6836
v  1201.2280 5.0000 -12.3212
v  1201.3010 10.0000 -12.6836
v  1201.5446 0.0000 -13.3118
v  1201.4227 5.0000 -12.9977
v  1201.5446 10.0000 -13.3118
v  1201.8854 0.0000 -13.8434
v  1201.7150 5.0000 -13.5776
v  1201.8854 10.0000 -13.8434
v  1202.3237 0.0000 -14.2783
v  1202.1045 5.0000 -14.0608
v  1202.3237 10.0000 -14.2783
v  1202.8594 0.0000 -14.6166
v  1202.5916 5.0000 -14.4474
v  1202.8594 10.0000 -14.6166
v  1203.4924 0.0000 -14.8582
v  1203.1759 5.0000 -14.7374
v  1203.4924 10.0000 -14.8582
v  1204.2229 0.0000 -15.0032
v  1203.8577 5.0000 -14.9307
v  1204.2229 10.0000 -15.0032
v  1205.0507 0.0000 -15.0515
v  1204.6367 5.0000 -15.0273
v  1205.0507 10.0000 -15.0515
v  1205.4646 5.0000 -15.0273
v  1231.1656 0.0000 -1.9638
v  1241.9385 10.0000 -6.0416
v  1209.4617 0.0000 8.2624
v  1206.0876 0.0000 -5.6344
v  1241.9385 0.0000 -6.0416
v  1210.2053 0.0000 -2.6979
v  1220.3763 0.0000 2.4753
v  1210.5299 0.0000 -2.9596
v  1210.7897 0.0000 -3.2868
v  1210.9845 0.0000 -3.6793
v  1211.1143 0.0000 -4.1373
v  1212.9196 0.0000 -6.8078
v  1212.1183 0.0000 -11.8754
v  1211.8053 0.0000 -13.2133
v  1211.3114 0.0000 -14.3670
v  1210.6367 0.0000 -15.3365
v  1209.7813 0.0000 -16.1217
v  1208.7449 0.0000 -16.7227
v  1207.5277 0.0000 -17.1395
v  1206.5421 0.0000 -16.5356
v  1205.7400 0.0000 -17.4204
v  1204.2787 0.0000 -17.4267
v  1203.5547 0.0000 -16.5441
v  1202.6337 0.0000 -17.1712
v  1200.9310 0.0000 -17.0666
v  1200.0402 0.0000 -15.8379
v  1199.3882 0.0000 -15.0434
v  1198.8990 0.0000 -14.0901
v  1198.5730 0.0000 -12.9779
v  1198.4100 0.0000 -11.7068
v  1198.4127 0.0000 -10.3721
v  1198.5867 0.0000 -9.1309
v  1198.9346 0.0000 -8.0447
v  1199.4563 0.0000 -7.1138
v  1200.1520 0.0000 -6.3380
v  1201.0215 0.0000 -5.7173
v  1202.0651 0.0000 -5.2519
v  1203.2825 0.0000 -4.9415
v  1204.6738 0.0000 -4.7864
v  1205.5681 0.0000 -5.5689
v  1220.3763 10.0000 2.4753
v  1210.7296 10.0000 16.1344
v  1231.1656 10.0000 -1.9638
v  1206.0876 10.0000 -5.6344
v  1205.5681 10.0000 -5.5689
v  1204.6738 10.0000 -4.7864
v  1203.2825 10.0000 -4.9415
v  1202.0651 10.0000 -5.2519
v  1201.0215 10.0000 -5.7173
v  1200.1520 10.0000 -6.3380
v  1199.4563 10.0000 -7.1138
v  1198.9346 10.0000 -8.0447
v  1198.5867 10.0000 -9.1309
v  1198.4127 10.0000 -10.3721
v  1198.4100 10.0000 -11.7068
v  1198.5730 10.0000 -12.9779
v  1198.8990 10.0000 -14.0901
v  1199.3882 10.0000 -15.0434
v  1200.0402 10.0000 -15.8379
v  1200.9310 10.0000 -17.0666
v  1202.6337 10.0000 -17.1712
v  1203.5547 10.0000 -16.5441
v  1204.2787 10.0000 -17.4267
v  1205.7400 10.0000 -17.4204
v  1206.5421 10.0000 -16.5356
v  1207.5277 10.0000 -17.1395
v  1208.7449 10.0000 -16.7227
v  1209.7813 10.0000 -16.1217
v  1210.6367 10.0000 -15.3365
v  1211.3114 10.0000 -14.3670
v  1211.8053 10.0000 -13.2133
v  1212.1183 10.0000 -11.8754
v  1212.9196 10.0000 -6.8078
v  1211.1143 10.0000 -4.1373
v  1210.9845 10.0000 -3.6793
v  1210.7897 10.0000 -3.2868
v  1210.5299 10.0000 -2.9596
v  1210.2053 10.0000 -2.6979
v  1208.8055 10.0000 -2.4594
# 304 vertices

vn -0.4771 -0.5948 0.6470
vn 0.5774 -0.5774 0.5774
vn 0.0000 0.0000 1.0000
vn 0.5774 0.5774 0.5774
vn -0.4771 0.5948 0.6470
vn 0.5774 -0.5774 -0.5774
vn 1.0000 0.0000 -0.0000
vn 0.5774 0.5774 -0.5774
vn -0.5774 -0.5774 -0.5774
vn 0.0000 0.0000 -1.0000
vn -0.5774 0.5774 -0.5774
vn -0.0117 -0.9969 -0.0774
vn -1.0000 0.0000 -0.0000
vn -0.0117 0.9969 -0.0774
vn 0.4771 -0.5948 -0.6470
vn 0.9553 0.0000 -0.2956
vn 0.4771 0.5948 -0.6470
vn -0.4829 -0.5937 -0.6436
vn -0.4829 0.5937 -0.6436
vn 0.0104 -0.9973 -0.0730
vn -0.9601 0.0000 -0.2797
vn 0.0104 0.9973 -0.0730
vn 0.7131 -0.7007 -0.0204
vn 0.7131 0.7007 -0.0204
vn 0.7161 -0.6922 -0.0897
vn 0.9984 0.0000 -0.0571
vn 0.7161 0.6922 -0.0897
vn 0.6976 -0.6889 -0.1968
vn 0.9816 0.0000 -0.1909
vn 0.6976 0.6889 -0.1968
vn 0.6535 -0.6857 -0.3205
vn 0.9366 0.0000 -0.3503
vn 0.6535 0.6857 -0.3205
vn 0.5754 -0.6835 -0.4491
vn 0.8504 0.0000 -0.5262
vn 0.5754 0.6835 -0.4491
vn 0.4645 -0.6832 -0.5634
vn 0.7169 0.0000 -0.6971
vn 0.4645 0.6832 -0.5634
vn 0.3352 -0.6850 -0.6468
vn 0.5476 0.0000 -0.8367
vn 0.3352 0.6850 -0.6468
vn 0.2073 -0.6881 -0.6954
vn 0.3678 0.0000 -0.9299
vn 0.2073 0.6881 -0.6954
vn 0.0948 -0.6914 -0.7162
vn 0.2015 0.0000 -0.9795
vn 0.0948 0.6914 -0.7162
vn 0.0013 -0.6942 -0.7198
vn 0.0604 0.0000 -0.9982
vn 0.0013 0.6942 -0.7198
vn -0.0892 -0.6923 -0.7161
vn -0.0568 0.0000 -0.9984
vn -0.0892 0.6923 -0.7161
vn -0.1958 -0.6890 -0.6978
vn -0.1899 0.0000 -0.9818
vn -0.1958 0.6890 -0.6978
vn -0.3191 -0.6858 -0.6541
vn -0.3486 0.0000 -0.9373
vn -0.3191 0.6858 -0.6541
vn -0.4476 -0.6835 -0.5765
vn -0.5241 0.0000 -0.8516
vn -0.4476 0.6835 -0.5765
vn -0.5622 -0.6832 -0.4660
vn -0.6952 0.0000 -0.7188
vn -0.5622 0.6832 -0.4660
vn -0.6462 -0.6849 -0.3366
vn -0.8354 0.0000 -0.5497
vn -0.6462 0.6849 -0.3366
vn -0.6952 -0.6880 -0.2084
vn -0.9292 0.0000 -0.3695
vn -0.6952 0.6880 -0.2084
vn -0.7162 -0.6914 -0.0953
vn -0.9793 0.0000 -0.2025
vn -0.7162 0.6914 -0.0953
vn -0.7212 -0.6928 0.0031
vn -0.9982 0.0000 -0.0607
vn -0.7212 0.6928 0.0031
vn -0.7163 -0.6893 0.1087
vn -0.9976 0.0000 0.0693
vn -0.7163 0.6893 0.1087
vn -0.6887 -0.6859 0.2351
vn -0.9732 0.0000 0.2298
vn -0.6887 0.6859 0.2351
vn -0.6280 -0.6834 0.3723
vn -0.9106 0.0000 0.4134
vn -0.6280 0.6834 0.3723
vn -0.5315 -0.6828 0.5012
vn -0.7996 0.0000 0.6006
vn -0.5315 0.6828 0.5012
vn -0.4109 -0.6844 0.6023
vn -0.6464 0.0000 0.7630
vn -0.4109 0.6844 0.6023
vn -0.2860 -0.6875 0.6675
vn -0.4746 0.0000 0.8802
vn -0.2860 0.6875 0.6675
vn -0.1728 -0.6909 0.7020
vn -0.3098 0.0000 0.9508
vn -0.1728 0.6909 0.7020
vn -0.0782 -0.6941 0.7157
vn -0.1671 0.0000 0.9859
vn -0.0782 0.6941 0.7157
vn -0.3178 -0.8986 0.3024
vn -0.0498 0.0000 0.9988
vn -0.3178 0.8986 0.3024
vn -0.5774 -0.5774 0.5774
vn -0.5774 0.5774 0.5774
vn 0.4829 -0.5937 0.6437
vn 0.4829 0.5937 0.6437
vn 0.0013 -0.9877 0.1566
vn 0.9601 0.0000 0.2797
vn 0.0013 0.9877 0.1566
vn -0.9553 0.0000 0.2956
vn -0.0876 -0.7229 0.6854
vn -0.1901 -0.7266 0.6603
vn -0.1947 0.0000 0.9809
vn -0.1901 0.7266 0.6603
vn -0.0876 0.7229 0.6854
vn -0.3058 -0.7301 0.6111
vn -0.3566 0.0000 0.9343
vn -0.3058 0.7301 0.6111
vn -0.4241 -0.7325 0.5326
vn -0.5339 0.0000 0.8455
vn -0.4241 0.7325 0.5326
vn -0.5294 -0.7326 0.4279
vn -0.7044 0.0000 0.7098
vn -0.5294 0.7326 0.4279
vn -0.6090 -0.7303 0.3094
vn -0.8418 0.0000 0.5398
vn -0.6090 0.7303 0.3094
vn -0.6592 -0.7268 0.1927
vn -0.9324 0.0000 0.3614
vn -0.6592 0.7268 0.1927
vn -0.6849 -0.7232 0.0889
vn -0.9803 0.0000 0.1976
vn -0.6849 0.7232 0.0889
vn -0.6934 -0.7206 0.0003
vn -0.9982 0.0000 0.0592
vn -0.6934 0.7206 0.0003
vn -0.6854 -0.7229 -0.0876
vn -0.9983 0.0000 -0.0583
vn -0.6854 0.7229 -0.0876
vn -0.6603 -0.7266 -0.1901
vn -0.9809 0.0000 -0.1947
vn -0.6603 0.7266 -0.1901
vn -0.6111 -0.7301 -0.3058
vn -0.9343 0.0000 -0.3566
vn -0.6111 0.7301 -0.3058
vn -0.5326 -0.7325 -0.4241
vn -0.8455 0.0000 -0.5340
vn -0.5326 0.7325 -0.4241
vn -0.4279 -0.7326 -0.5294
vn -0.7098 0.0000 -0.7044
vn -0.4279 0.7326 -0.5294
vn -0.3093 -0.7303 -0.6090
vn -0.5398 0.0000 -0.8418
vn -0.3093 0.7303 -0.6090
vn -0.1926 -0.7268 -0.6593
vn -0.3614 0.0000 -0.9324
vn -0.1926 0.7268 -0.6593
vn -0.0889 -0.7232 -0.6849
vn -0.1976 0.0000 -0.9803
vn -0.0889 0.7232 -0.6849
vn 0.0000 -0.7207 -0.6933
vn -0.0592 0.0000 -0.9982
vn 0.0000 0.7207 -0.6933
vn 0.0889 -0.7232 -0.6849
vn 0.0592 0.0000 -0.9982
vn 0.0889 0.7232 -0.6849
vn 0.1926 -0.7268 -0.6592
vn 0.1976 0.0000 -0.9803
vn 0.1926 0.7268 -0.6592
vn 0.3093 -0.7303 -0.6090
vn 0.3614 0.0000 -0.9324
vn 0.3093 0.7303 -0.6090
vn 0.4279 -0.7326 -0.5294
vn 0.5398 0.0000 -0.8418
vn 0.4279 0.7326 -0.5294
vn 0.5326 -0.7325 -0.4241
vn 0.7098 0.0000 -0.7044
vn 0.5326 0.7325 -0.4241
vn 0.6111 -0.7301 -0.3058
vn 0.8455 0.0000 -0.5340
vn 0.6111 0.7301 -0.3058
vn 0.6603 -0.7266 -0.1901
vn 0.9343 0.0000 -0.3566
vn 0.6603 0.7266 -0.1901
vn 0.6854 -0.7229 -0.0876
vn 0.9809 0.0000 -0.1947
vn 0.6854 0.7229 -0.0876
vn 0.6934 -0.7206 0.0003
vn 0.9983 0.0000 -0.0583
vn 0.6934 0.7206 0.0003
vn 0.6849 -0.7232 0.0889
vn 0.9982 0.0000 0.0592
vn 0.6849 0.7232 0.0889
vn 0.6592 -0.7268 0.1927
vn 0.9803 0.0000 0.1976
vn 0.6592 0.7268 0.1927
vn 0.6090 -0.7303 0.3094
vn 0.9324 0.0000 0.3614
vn 0.6090 0.7303 0.3094
vn 0.5294 -0.7326 0.4279
vn 0.8418 0.0000 0.5398
vn 0.5294 0.7326 0.4279
vn 0.4241 -0.7325 0.5326
vn 0.7044 0.0000 0.7098
vn 0.4241 0.7325 0.5326
vn 0.3058 -0.7301 0.6111
vn 0.5339 0.0000 0.8455
vn 0.3058 0.7301 0.6111
vn 0.1901 -0.7266 0.6603
vn 0.3566 0.0000 0.9343
vn 0.1901 0.7266 0.6603
vn 0.0876 -0.7229 0.6854
vn 0.1947 0.0000 0.9809
vn 0.0876 0.7229 0.6854
vn -0.0000 -0.7205 0.6935
vn 0.0583 0.0000 0.9983
vn -0.0000 0.7205 0.6935
vn -0.0583 0.0000 0.9983
vn 0.0000 -1.0000 -0.0000
vn 0.0000 1.0000 -0.0000
# 223 vertex normals

o Fo_Fan
g Fo_Fan
s 1
f 1//1 2//2 3//3 
f 2//2 4//4 3//3 
f 4//4 5//5 3//3 
f 5//5 1//1 3//3 
s 4
f 2//2 6//6 7//7 
f 6//6 8//8 7//7 
f 8//8 4//4 7//7 
f 4//4 2//2 7//7 
s 2
f 6//6 9//9 10//10 
f 9//9 11//11 10//10 
f 11//11 8//8 10//10 
f 8//8 6//6 10//10 
s 4
f 9//9 12//12 13//13 
f 12//12 14//14 13//13 
f 14//14 11//11 13//13 
f 11//11 9//9 13//13 
s 2
f 12//12 15//15 16//16 
f 15//15 17//17 16//16 
f 17//17 14//14 16//16 
f 14//14 12//12 16//16 
s 4
f 15//15 18//18 19//10 
f 18//18 20//19 19//10 
f 20//19 17//17 19//10 
f 17//17 15//15 19//10 
s 2
f 18//18 21//20 22//21 
f 21//20 23//22 22//21 
f 23//22 20//19 22//21 
f 20//19 18//18 22//21 
s 4
f 21//20 24//23 25//7 
f 24//23 26//24 25//7 
f 26//24 23//22 25//7 
f 23//22 21//20 25//7 
s 2
f 24//23 27//25 28//26 
f 27//25 29//27 28//26 
f 29//27 26//24 28//26 
f 26//24 24//23 28//26 
f 27//25 30//28 31//29 
f 30//28 32//30 31//29 
f 32//30 29//27 31//29 
f 29//27 27//25 31//29 
f 30//28 33//31 34//32 
f 33//31 35//33 34//32 
f 35//33 32//30 34//32 
f 32//30 30//28 34//32 
f 33//31 36//34 37//35 
f 36//34 38//36 37//35 
f 38//36 35//33 37//35 
f 35//33 33//31 37//35 
f 36//34 39//37 40//38 
f 39//37 41//39 40//38 
f 41//39 38//36 40//38 
f 38//36 36//34 40//38 
f 39//37 42//40 43//41 
f 42//40 44//42 43//41 
f 44//42 41//39 43//41 
f 41//39 39//37 43//41 
f 42//40 45//43 46//44 
f 45//43 47//45 46//44 
f 47//45 44//42 46//44 
f 44//42 42//40 46//44 
f 45//43 48//46 49//47 
f 48//46 50//48 49//47 
f 50//48 47//45 49//47 
f 47//45 45//43 49//47 
f 48//46 51//49 52//50 
f 51//49 53//51 52//50 
f 53//51 50//48 52//50 
f 50//48 48//46 52//50 
f 51//49 54//52 55//53 
f 54//52 56//54 55//53 
f 56//54 53//51 55//53 
f 53//51 51//49 55//53 
f 54//52 57//55 58//56 
f 57//55 59//57 58//56 
f 59//57 56//54 58//56 
f 56//54 54//52 58//56 
f 57//55 60//58 61//59 
f 60//58 62//60 61//59 
f 62//60 59//57 61//59 
f 59//57 57//55 61//59 
f 60//58 63//61 64//62 
f 63//61 65//63 64//62 
f 65//63 62//60 64//62 
f 62//60 60//58 64//62 
f 63//61 66//64 67//65 
f 66//64 68//66 67//65 
f 68//66 65//63 67//65 
f 65//63 63//61 67//65 
f 66//64 69//67 70//68 
f 69//67 71//69 70//68 
f 71//69 68//66 70//68 
f 68//66 66//64 70//68 
f 69//67 72//70 73//71 
f 72//70 74//72 73//71 
f 74//72 71//69 73//71 
f 71//69 69//67 73//71 
f 72//70 75//73 76//74 
f 75//73 77//75 76//74 
f 77//75 74//72 76//74 
f 74//72 72//70 76//74 
f 75//73 78//76 79//77 
f 78//76 80//78 79//77 
f 80//78 77//75 79//77 
f 77//75 75//73 79//77 
f 78//76 81//79 82//80 
f 81//79 83//81 82//80 
f 83//81 80//78 82//80 
f 80//78 78//76 82//80 
f 81//79 84//82 85//83 
f 84//82 86//84 85//83 
f 86//84 83//81 85//83 
f 83//81 81//79 85//83 
f 84//82 87//85 88//86 
f 87//85 89//87 88//86 
f 89//87 86//84 88//86 
f 86//84 84//82 88//86 
f 87//85 90//88 91//89 
f 90//88 92//90 91//89 
f 92//90 89//87 91//89 
f 89//87 87//85 91//89 
f 90//88 93//91 94//92 
f 93//91 95//93 94//92 
f 95//93 92//90 94//92 
f 92//90 90//88 94//92 
f 93//91 96//94 97//95 
f 96//94 98//96 97//95 
f 98//96 95//93 97//95 
f 95//93 93//91 97//95 
f 96//94 99//97 100//98 
f 99//97 101//99 100//98 
f 101//99 98//96 100//98 
f 98//96 96//94 100//98 
f 99//97 102//100 103//101 
f 102//100 104//102 103//101 
f 104//102 101//99 103//101 
f 101//99 99//97 103//101 
f 102//100 105//103 106//104 
f 105//103 107//105 106//104 
f 107//105 104//102 106//104 
f 104//102 102//100 106//104 
s 4
f 105//103 108//106 109//13 
f 108//106 110//107 109//13 
f 110//107 107//105 109//13 
f 107//105 105//103 109//13 
s 2
f 108//106 111//108 112//3 
f 111//108 113//109 112//3 
f 113//109 110//107 112//3 
f 110//107 108//106 112//3 
s 4
f 111//108 114//110 115//111 
f 114//110 116//112 115//111 
f 116//112 113//109 115//111 
f 113//109 111//108 115//111 
s 2
f 114//110 1//1 117//113 
f 1//1 5//5 117//113 
f 5//5 116//112 117//113 
f 116//112 114//110 117//113 
s 1
f 118//114 119//115 120//116 
f 119//115 121//117 120//116 
f 121//117 122//118 120//116 
f 122//118 118//114 120//116 
s 3
f 119//115 123//119 124//120 
f 123//119 125//121 124//120 
f 125//121 121//117 124//120 
f 121//117 119//115 124//120 
s 2
f 123//119 126//122 127//123 
f 126//122 128//124 127//123 
f 128//124 125//121 127//123 
f 125//121 123//119 127//123 
f 126//122 129//125 130//126 
f 129//125 131//127 130//126 
f 131//127 128//124 130//126 
f 128//124 126//122 130//126 
f 129//125 132//128 133//129 
f 132//128 134//130 133//129 
f 134//130 131//127 133//129 
f 131//127 129//125 133//129 
f 132//128 135//131 136//132 
f 135//131 137//133 136//132 
f 137//133 134//130 136//132 
f 134//130 132//128 136//132 
f 135//131 138//134 139//135 
f 138//134 140//136 139//135 
f 140//136 137//133 139//135 
f 137//133 135//131 139//135 
f 138//134 141//137 142//138 
f 141//137 143//139 142//138 
f 143//139 140//136 142//138 
f 140//136 138//134 142//138 
f 141//137 144//140 145//141 
f 144//140 146//142 145//141 
f 146//142 143//139 145//141 
f 143//139 141//137 145//141 
f 144//140 147//143 148//144 
f 147//143 149//145 148//144 
f 149//145 146//142 148//144 
f 146//142 144//140 148//144 
f 147//143 150//146 151//147 
f 150//146 152//148 151//147 
f 152//148 149//145 151//147 
f 149//145 147//143 151//147 
f 150//146 153//149 154//150 
f 153//149 155//151 154//150 
f 155//151 152//148 154//150 
f 152//148 150//146 154//150 
f 153//149 156//152 157//153 
f 156//152 158//154 157//153 
f 158//154 155//151 157//153 
f 155//151 153//149 157//153 
f 156//152 159//155 160//156 
f 159//155 161//157 160//156 
f 161//157 158//154 160//156 
f 158//154 156//152 160//156 
f 159//155 162//158 163//159 
f 162//158 164//160 163//159 
f 164//160 161//157 163//159 
f 161//157 159//155 163//159 
f 162//158 165//161 166//162 
f 165//161 167//163 166//162 
f 167//163 164//160 166//162 
f 164//160 162//158 166//162 
f 165//161 168//164 169//165 
f 168//164 170//166 169//165 
f 170//166 167//163 169//165 
f 167//163 165//161 169//165 
f 168//164 171//167 172//168 
f 171//167 173//169 172//168 
f 173//169 170//166 172//168 
f 170//166 168//164 172//168 
f 171//167 174//170 175//171 
f 174//170 176//172 175//171 
f 176//172 173//169 175//171 
f 173//169 171//167 175//171 
f 174//170 177//173 178//174 
f 177//173 179//175 178//174 
f 179//175 176//172 178//174 
f 176//172 174//170 178//174 
f 177//173 180//176 181//177 
f 180//176 182//178 181//177 
f 182//178 179//175 181//177 
f 179//175 177//173 181//177 
f 180//176 183//179 184//180 
f 183//179 185//181 184//180 
f 185//181 182//178 184//180 
f 182//178 180//176 184//180 
f 183//179 186//182 187//183 
f 186//182 188//184 187//183 
f 188//184 185//181 187//183 
f 185//181 183//179 187//183 
f 186//182 189//185 190//186 
f 189//185 191//187 190//186 
f 191//187 188//184 190//186 
f 188//184 186//182 190//186 
f 189//185 192//188 193//189 
f 192//188 194//190 193//189 
f 194//190 191//187 193//189 
f 191//187 189//185 193//189 
f 192//188 195//191 196//192 
f 195//191 197//193 196//192 
f 197//193 194//190 196//192 
f 194//190 192//188 196//192 
f 195//191 198//194 199//195 
f 198//194 200//196 199//195 
f 200//196 197//193 199//195 
f 197//193 195//191 199//195 
f 198//194 201//197 202//198 
f 201//197 203//199 202//198 
f 203//199 200//196 202//198 
f 200//196 198//194 202//198 
f 201//197 204//200 205//201 
f 204//200 206//202 205//201 
f 206//202 203//199 205//201 
f 203//199 201//197 205//201 
f 204//200 207//203 208//204 
f 207//203 209//205 208//204 
f 209//205 206//202 208//204 
f 206//202 204//200 208//204 
f 207//203 210//206 211//207 
f 210//206 212//208 211//207 
f 212//208 209//205 211//207 
f 209//205 207//203 211//207 
f 210//206 213//209 214//210 
f 213//209 215//211 214//210 
f 215//211 212//208 214//210 
f 212//208 210//206 214//210 
f 213//209 216//212 217//213 
f 216//212 218//214 217//213 
f 218//214 215//211 217//213 
f 215//211 213//209 217//213 
f 216//212 219//215 220//216 
f 219//215 221//217 220//216 
f 221//217 218//214 220//216 
f 218//214 216//212 220//216 
f 219//215 222//218 223//219 
f 222//218 224//220 223//219 
f 224//220 221//217 223//219 
f 221//217 219//215 223//219 
s 3
f 222//218 118//114 225//221 
f 118//114 122//118 225//221 
f 122//118 224//220 225//221 
f 224//220 222//218 225//221 
s 16
f 1//1 114//110 226//222 
f 114//110 18//18 226//222 
f 18//18 15//15 226//222 
f 15//15 12//12 226//222 
f 12//12 1//1 226//222 
f 8//8 11//11 227//223 
f 11//11 14//14 227//223 
f 14//14 5//5 227//223 
f 5//5 4//4 227//223 
f 4//4 8//8 227//223 
f 111//108 108//106 228//222 
f 108//106 105//103 228//222 
f 105//103 229//222 162//158 228//222 
f 162//158 159//155 228//222 
f 159//155 21//20 228//222 
f 21//20 111//108 228//222 
f 12//12 9//9 230//222 
f 9//9 6//6 230//222 
f 6//6 2//2 230//222 
f 2//2 1//1 230//222 
f 1//1 12//12 230//222 
f 159//155 156//152 231//222 
f 156//152 21//20 231//222 
f 21//20 159//155 231//222 
f 21//20 18//18 232//222 
f 18//18 114//110 232//222 
f 114//110 111//108 232//222 
f 111//108 21//20 232//222 
f 156//152 153//149 233//222 
f 153//149 21//20 233//222 
f 21//20 156//152 233//222 
f 153//149 150//146 234//222 
f 150//146 21//20 234//222 
f 21//20 153//149 234//222 
f 150//146 147//143 235//222 
f 147//143 21//20 235//222 
f 21//20 150//146 235//222 
f 147//143 144//140 236//222 
f 144//140 21//20 236//222 
f 21//20 147//143 236//222 
f 144//140 141//137 237//222 
f 141//137 27//25 237//222 
f 27//25 24//23 237//222 
f 24//23 21//20 237//222 
f 21//20 144//140 237//222 
f 141//137 138//134 238//222 
f 138//134 30//28 238//222 
f 30//28 27//25 238//222 
f 27//25 141//137 238//222 
f 138//134 135//131 239//222 
f 135//131 33//31 239//222 
f 33//31 30//28 239//222 
f 30//28 138//134 239//222 
f 135//131 132//128 240//222 
f 132//128 36//34 240//222 
f 36//34 33//31 240//222 
f 33//31 135//131 240//222 
f 132//128 129//125 241//222 
f 129//125 39//37 241//222 
f 39//37 36//34 241//222 
f 36//34 132//128 241//222 
f 129//125 126//122 242//222 
f 126//122 42//40 242//222 
f 42//40 39//37 242//222 
f 39//37 129//125 242//222 
f 126//122 123//119 243//222 
f 123//119 45//43 243//222 
f 45//43 42//40 243//222 
f 42//40 126//122 243//222 
f 123//119 119//115 244//222 
f 119//115 48//46 244//222 
f 48//46 45//43 244//222 
f 45//43 123//119 244//222 
f 119//115 118//114 245//222 
f 118//114 48//46 245//222 
f 48//46 119//115 245//222 
f 118//114 222//218 246//222 
f 222//218 51//49 246//222 
f 51//49 48//46 246//222 
f 48//46 118//114 246//222 
f 222//218 219//215 247//222 
f 219//215 54//52 247//222 
f 54//52 51//49 247//222 
f 51//49 222//218 247//222 
f 219//215 216//212 248//222 
f 216//212 54//52 248//222 
f 54//52 219//215 248//222 
f 216//212 213//209 249//222 
f 213//209 57//55 249//222 
f 57//55 54//52 249//222 
f 54//52 216//212 249//222 
f 213//209 210//206 250//222 
f 210//206 63//61 250//222 
f 63//61 60//58 250//222 
f 60//58 57//55 250//222 
f 57//55 213//209 250//222 
f 210//206 207//203 251//222 
f 207//203 66//64 251//222 
f 66//64 63//61 251//222 
f 63//61 210//206 251//222 
f 207//203 204//200 252//222 
f 204//200 69//67 252//222 
f 69//67 66//64 252//222 
f 66//64 207//203 252//222 
f 204//200 201//197 253//222 
f 201//197 72//70 253//222 
f 72//70 69//67 253//222 
f 69//67 204//200 253//222 
f 201//197 198//194 254//222 
f 198//194 75//73 254//222 
f 75//73 72//70 254//222 
f 72//70 201//197 254//222 
f 198//194 195//191 255//222 
f 195//191 78//76 255//222 
f 78//76 75//73 255//222 
f 75//73 198//194 255//222 
f 195//191 192//188 256//222 
f 192//188 81//79 256//222 
f 81//79 78//76 256//222 
f 78//76 195//191 256//222 
f 192//188 189//185 257//222 
f 189//185 84//82 257//222 
f 84//82 81//79 257//222 
f 81//79 192//188 257//222 
f 189//185 186//182 258//222 
f 186//182 87//85 258//222 
f 87//85 84//82 258//222 
f 84//82 189//185 258//222 
f 186//182 183//179 259//222 
f 183//179 90//88 259//222 
f 90//88 87//85 259//222 
f 87//85 186//182 259//222 
f 183//179 180//176 260//222 
f 180//176 93//91 260//222 
f 93//91 90//88 260//222 
f 90//88 183//179 260//222 
f 180//176 177//173 261//222 
f 177//173 96//94 261//222 
f 96//94 93//91 261//222 
f 93//91 180//176 261//222 
f 177//173 174//170 262//222 
f 174//170 99//97 262//222 
f 99//97 96//94 262//222 
f 96//94 177//173 262//222 
f 174//170 171//167 263//222 
f 171//167 102//100 263//222 
f 102//100 99//97 263//222 
f 99//97 174//170 263//222 
f 171//167 168//164 264//222 
f 168//164 105//103 264//222 
f 105//103 102//100 264//222 
f 102//100 171//167 264//222 
f 168//164 165//161 265//222 
f 165//161 105//103 265//222 
f 105//103 168//164 265//222 
f 165//161 162//158 229//222 
f 105//103 165//161 229//222 
f 20//19 23//22 266//223 
f 23//22 113//109 266//223 
f 113//109 116//112 266//223 
f 116//112 20//19 266//223 
f 23//22 107//105 267//223 
f 107//105 110//107 267//223 
f 110//107 113//109 267//223 
f 113//109 23//22 267//223 
f 116//112 5//5 268//223 
f 5//5 14//14 268//223 
f 14//14 17//17 268//223 
f 17//17 20//19 268//223 
f 20//19 116//112 268//223 
f 164//160 167//163 269//223 
f 167//163 107//105 269//223 
f 167//163 170//166 270//223 
f 170//166 107//105 270//223 
f 107//105 167//163 270//223 
f 170//166 173//169 271//223 
f 173//169 104//102 271//223 
f 104//102 107//105 271//223 
f 107//105 170//166 271//223 
f 173//169 176//172 272//223 
f 176//172 101//99 272//223 
f 101//99 104//102 272//223 
f 104//102 173//169 272//223 
f 176//172 179//175 273//223 
f 179//175 98//96 273//223 
f 98//96 101//99 273//223 
f 101//99 176//172 273//223 
f 179//175 182//178 274//223 
f 182//178 95//93 274//223 
f 95//93 98//96 274//223 
f 98//96 179//175 274//223 
f 182//178 185//181 275//223 
f 185//181 92//90 275//223 
f 92//90 95//93 275//223 
f 95//93 182//178 275//223 
f 185//181 188//184 276//223 
f 188//184 89//87 276//223 
f 89//87 92//90 276//223 
f 92//90 185//181 276//223 
f 188//184 191//187 277//223 
f 191//187 86//84 277//223 
f 86//84 89//87 277//223 
f 89//87 188//184 277//223 
f 191//187 194//190 278//223 
f 194//190 83//81 278//223 
f 83//81 86//84 278//223 
f 86//84 191//187 278//223 
f 194//190 197//193 279//223 
f 197//193 80//78 279//223 
f 80//78 83//81 279//223 
f 83//81 194//190 279//223 
f 197//193 200//196 280//223 
f 200//196 77//75 280//223 
f 77//75 80//78 280//223 
f 80//78 197//193 280//223 
f 200//196 203//199 281//223 
f 203//199 74//72 281//223 
f 74//72 77//75 281//223 
f 77//75 200//196 281//223 
f 203//199 206//202 282//223 
f 206//202 71//69 282//223 
f 71//69 74//72 282//223 
f 74//72 203//199 282//223 
f 206//202 209//205 283//223 
f 209//205 68//66 283//223 
f 68//66 71//69 283//223 
f 71//69 206//202 283//223 
f 209//205 212//208 284//223 
f 212//208 65//63 284//223 
f 65//63 68//66 284//223 
f 68//66 209//205 284//223 
f 212//208 215//211 285//223 
f 215//211 59//57 285//223 
f 59//57 62//60 285//223 
f 62//60 65//63 285//223 
f 65//63 212//208 285//223 
f 215//211 218//214 286//223 
f 218//214 56//54 286//223 
f 56//54 59//57 286//223 
f 59//57 215//211 286//223 
f 218//214 221//217 287//223 
f 221//217 56//54 287//223 
f 56//54 218//214 287//223 
f 221//217 224//220 288//223 
f 224//220 53//51 288//223 
f 53//51 56//54 288//223 
f 56//54 221//217 288//223 
f 224//220 122//118 289//223 
f 122//118 50//48 289//223 
f 50//48 53//51 289//223 
f 53//51 224//220 289//223 
f 122//118 121//117 290//223 
f 121//117 50//48 290//223 
f 50//48 122//118 290//223 
f 121//117 125//121 291//223 
f 125//121 47//45 291//223 
f 47//45 50//48 291//223 
f 50//48 121//117 291//223 
f 125//121 128//124 292//223 
f 128//124 44//42 292//223 
f 44//42 47//45 292//223 
f 47//45 125//121 292//223 
f 128//124 131//127 293//223 
f 131//127 41//39 293//223 
f 41//39 44//42 293//223 
f 44//42 128//124 293//223 
f 131//127 134//130 294//223 
f 134//130 38//36 294//223 
f 38//36 41//39 294//223 
f 41//39 131//127 294//223 
f 134//130 137//133 295//223 
f 137//133 35//33 295//223 
f 35//33 38//36 295//223 
f 38//36 134//130 295//223 
f 137//133 140//136 296//223 
f 140//136 32//30 296//223 
f 32//30 35//33 296//223 
f 35//33 137//133 296//223 
f 140//136 143//139 297//223 
f 143//139 29//27 297//223 
f 29//27 32//30 297//223 
f 32//30 140//136 297//223 
f 143//139 146//142 298//223 
f 146//142 23//22 298//223 
f 23//22 26//24 298//223 
f 26//24 29//27 298//223 
f 29//27 143//139 298//223 
f 146//142 149//145 299//223 
f 149//145 23//22 299//223 
f 23//22 146//142 299//223 
f 149//145 152//148 300//223 
f 152//148 23//22 300//223 
f 23//22 149//145 300//223 
f 152//148 155//151 301//223 
f 155//151 23//22 301//223 
f 23//22 152//148 301//223 
f 155//151 158//154 302//223 
f 158//154 23//22 302//223 
f 23//22 155//151 302//223 
f 158//154 161//157 303//223 
f 161//157 23//22 303//223 
f 23//22 158//154 303//223 
f 161//157 164//160 304//223 
f 164//160 269//223 107//105 304//223 
f 107//105 23//22 304//223 
f 23//22 161//157 304//223 
# 2 polygons - 604 triangles

