# 3ds Max Wavefront OBJ Exporter v0.97b - (c)2007 guruware
# File Created: 21.02.2021 20:20:09

#
# object Po_San_Pao
#

v  1304.6282 0.0000 29.7061
v  1304.6282 0.0000 -4.2948
v  1304.6282 5.0000 12.7056
v  1304.6282 10.0000 -4.2948
v  1304.6282 10.0000 29.7061
v  1304.3854 0.0000 -7.5661
v  1304.5068 5.0000 -5.9304
v  1304.3854 10.0000 -7.5661
v  1303.6569 0.0000 -10.4525
v  1304.0211 5.0000 -9.0093
v  1303.6569 10.0000 -10.4525
v  1302.4427 0.0000 -12.9540
v  1303.0498 5.0000 -11.7033
v  1302.4427 10.0000 -12.9540
v  1300.7429 0.0000 -15.0707
v  1301.5928 5.0000 -14.0124
v  1300.7429 10.0000 -15.0707
v  1298.5574 0.0000 -16.8026
v  1299.6501 5.0000 -15.9367
v  1298.5574 10.0000 -16.8026
v  1295.8862 0.0000 -18.1496
v  1297.2218 5.0000 -17.4761
v  1295.8862 10.0000 -18.1496
v  1292.7294 0.0000 -19.1117
v  1294.3079 5.0000 -18.6307
v  1292.7294 10.0000 -19.1117
v  1289.0869 0.0000 -19.6890
v  1290.9082 5.0000 -19.4004
v  1289.0869 10.0000 -19.6890
v  1284.9587 0.0000 -19.8814
v  1287.0228 5.0000 -19.7852
v  1284.9587 10.0000 -19.8814
v  1281.6079 0.0000 -19.7592
v  1283.2833 5.0000 -19.8203
v  1281.6079 10.0000 -19.7592
v  1278.4515 0.0000 -19.3925
v  1280.0298 5.0000 -19.5758
v  1278.4515 10.0000 -19.3925
v  1275.4897 0.0000 -18.7813
v  1276.9707 5.0000 -19.0869
v  1275.4897 10.0000 -18.7813
v  1272.7224 0.0000 -17.9256
v  1274.1061 5.0000 -18.3534
v  1272.7224 10.0000 -17.9256
v  1270.1494 0.0000 -16.8255
v  1271.4359 5.0000 -17.3755
v  1270.1494 10.0000 -16.8255
v  1267.7710 0.0000 -15.4808
v  1268.9602 5.0000 -16.1531
v  1267.7710 10.0000 -15.4808
v  1265.5870 0.0000 -13.8917
v  1266.6791 5.0000 -14.6863
v  1265.5870 10.0000 -13.8917
v  1263.5977 0.0000 -12.0581
v  1264.5924 5.0000 -12.9749
v  1263.5977 10.0000 -12.0581
v  1261.8026 0.0000 -9.9800
v  1262.7001 5.0000 -11.0191
v  1261.8026 10.0000 -9.9800
v  1263.2118 0.0000 -9.4946
v  1262.5072 5.0000 -9.7373
v  1263.2118 10.0000 -9.4946
v  1264.5804 0.0000 -8.9426
v  1263.8961 5.0000 -9.2186
v  1264.5804 10.0000 -8.9426
v  1265.9087 0.0000 -8.3242
v  1265.2445 5.0000 -8.6334
v  1265.9087 10.0000 -8.3242
v  1267.1963 0.0000 -7.6394
v  1266.5525 5.0000 -7.9818
v  1267.1963 10.0000 -7.6394
v  1268.4435 0.0000 -6.8880
v  1267.8199 5.0000 -7.2637
v  1268.4435 10.0000 -6.8880
v  1269.6501 0.0000 -6.0702
v  1269.0469 5.0000 -6.4791
v  1269.6501 10.0000 -6.0702
v  1270.8164 0.0000 -5.1860
v  1270.2333 5.0000 -5.6281
v  1270.8164 10.0000 -5.1860
v  1271.9420 0.0000 -4.2353
v  1271.3793 5.0000 -4.7106
v  1271.9420 10.0000 -4.2353
v  1273.0272 0.0000 -3.2181
v  1272.4846 5.0000 -3.7267
v  1273.0272 10.0000 -3.2181
v  1271.7190 0.0000 -2.6653
v  1272.3730 5.0000 -2.9417
v  1271.7190 10.0000 -2.6653
v  1270.5646 0.0000 -1.9783
v  1271.1417 5.0000 -2.3218
v  1270.5646 10.0000 -1.9783
v  1269.5641 0.0000 -1.1573
v  1270.0643 5.0000 -1.5678
v  1269.5641 10.0000 -1.1573
v  1268.7175 0.0000 -0.2021
v  1269.1409 5.0000 -0.6797
v  1268.7175 10.0000 -0.2021
v  1268.0249 0.0000 0.8871
v  1268.3712 5.0000 0.3425
v  1268.0249 10.0000 0.8871
v  1267.4862 0.0000 2.1105
v  1267.7556 5.0000 1.4988
v  1267.4862 10.0000 2.1105
v  1267.1014 0.0000 3.4679
v  1267.2938 5.0000 2.7892
v  1267.1014 10.0000 3.4679
v  1266.8705 0.0000 4.9595
v  1266.9860 5.0000 4.2137
v  1266.8705 10.0000 4.9595
v  1266.7936 0.0000 6.5852
v  1266.8320 5.0000 5.7723
v  1266.7936 10.0000 6.5852
v  1266.7936 0.0000 12.9622
v  1266.7936 5.0000 9.7737
v  1266.7936 10.0000 12.9622
v  1265.2393 0.0000 13.0677
v  1266.0164 5.0000 13.0150
v  1265.2393 10.0000 13.0677
v  1263.8678 0.0000 13.3841
v  1264.5535 5.0000 13.2259
v  1263.8678 10.0000 13.3841
v  1262.6792 0.0000 13.9114
v  1263.2734 5.0000 13.6478
v  1262.6792 10.0000 13.9114
v  1261.6735 0.0000 14.6497
v  1262.1763 5.0000 14.2806
v  1261.6735 10.0000 14.6497
v  1260.8506 0.0000 15.5989
v  1261.2620 5.0000 15.1243
v  1260.8506 10.0000 15.5989
v  1260.2106 0.0000 16.7591
v  1260.5305 5.0000 16.1790
v  1260.2106 10.0000 16.7591
v  1259.7534 0.0000 18.1302
v  1259.9819 5.0000 17.4447
v  1259.7534 10.0000 18.1302
v  1259.4791 0.0000 19.7122
v  1259.6162 5.0000 18.9212
v  1259.4791 10.0000 19.7122
v  1259.3877 0.0000 21.5052
v  1259.4333 5.0000 20.6087
v  1259.3877 10.0000 21.5052
v  1259.4929 0.0000 23.2602
v  1259.4403 5.0000 22.3827
v  1259.4929 10.0000 23.2602
v  1259.8086 0.0000 24.8087
v  1259.6508 5.0000 24.0344
v  1259.8086 10.0000 24.8087
v  1260.3346 0.0000 26.1507
v  1260.0715 5.0000 25.4797
v  1260.3346 10.0000 26.1507
v  1261.0712 0.0000 27.2862
v  1260.7029 5.0000 26.7185
v  1261.0712 10.0000 27.2862
v  1262.0182 0.0000 28.2153
v  1261.5447 5.0000 27.7508
v  1262.0182 10.0000 28.2153
v  1263.1755 0.0000 28.9380
v  1262.5969 5.0000 28.5766
v  1263.1755 10.0000 28.9380
v  1264.5435 0.0000 29.4541
v  1263.8595 5.0000 29.1960
v  1264.5435 10.0000 29.4541
v  1266.1218 0.0000 29.7638
v  1265.3326 5.0000 29.6090
v  1266.1218 10.0000 29.7638
v  1267.9105 0.0000 29.8671
v  1267.0161 5.0000 29.8154
v  1267.9105 10.0000 29.8671
v  1269.7373 0.0000 29.7501
v  1268.8239 5.0000 29.8086
v  1269.7373 10.0000 29.7501
v  1271.3491 0.0000 29.3991
v  1270.5432 5.0000 29.5746
v  1271.3491 10.0000 29.3991
v  1272.7461 0.0000 28.8141
v  1272.0476 5.0000 29.1066
v  1272.7461 10.0000 28.8141
v  1273.9281 0.0000 27.9952
v  1273.3370 5.0000 28.4047
v  1273.9281 10.0000 27.9952
v  1274.8951 0.0000 26.9423
v  1274.4116 5.0000 27.4687
v  1274.8951 10.0000 26.9423
v  1275.6473 0.0000 25.6554
v  1275.2712 5.0000 26.2988
v  1275.6473 10.0000 25.6554
v  1276.1847 0.0000 24.1345
v  1275.9160 5.0000 24.8949
v  1276.1847 10.0000 24.1345
v  1276.5071 0.0000 22.3796
v  1276.3458 5.0000 23.2571
v  1276.5071 10.0000 22.3796
v  1276.6145 0.0000 20.3908
v  1276.5608 5.0000 21.3852
v  1276.6145 10.0000 20.3908
v  1276.6145 0.0000 6.7764
v  1276.6145 5.0000 13.5836
v  1276.6145 10.0000 6.7764
v  1276.6486 0.0000 5.7964
v  1276.6316 5.0000 6.2864
v  1276.6486 10.0000 5.7964
v  1276.7509 0.0000 4.8558
v  1276.6997 5.0000 5.3261
v  1276.7509 10.0000 4.8558
v  1276.9214 0.0000 3.9543
v  1276.8362 5.0000 4.4050
v  1276.9214 10.0000 3.9543
v  1277.1600 0.0000 3.0920
v  1277.0408 5.0000 3.5232
v  1277.1600 10.0000 3.0920
v  1277.4670 0.0000 2.2690
v  1277.3135 5.0000 2.6805
v  1277.4670 10.0000 2.2690
v  1277.8420 0.0000 1.4852
v  1277.6545 5.0000 1.8771
v  1277.8420 10.0000 1.4852
v  1278.2854 0.0000 0.7407
v  1278.0637 5.0000 1.1129
v  1278.2854 10.0000 0.7407
v  1278.7969 0.0000 0.0353
v  1278.5411 5.0000 0.3880
v  1278.7969 10.0000 0.0353
v  1279.3766 0.0000 -0.6308
v  1279.0868 5.0000 -0.2978
v  1279.3766 10.0000 -0.6308
v  1279.9756 0.0000 -1.2414
v  1279.6760 5.0000 -0.9361
v  1279.9756 10.0000 -1.2414
v  1280.5448 0.0000 -1.7802
v  1280.2603 5.0000 -1.5108
v  1280.5448 10.0000 -1.7802
v  1281.0845 0.0000 -2.2471
v  1280.8146 5.0000 -2.0136
v  1281.0845 10.0000 -2.2471
v  1281.5944 0.0000 -2.6422
v  1281.3394 5.0000 -2.4446
v  1281.5944 10.0000 -2.6422
v  1282.0745 0.0000 -2.9654
v  1281.8345 5.0000 -2.8038
v  1282.0745 10.0000 -2.9654
v  1282.5250 0.0000 -3.2168
v  1282.2998 5.0000 -3.0911
v  1282.5250 10.0000 -3.2168
v  1282.9458 0.0000 -3.3964
v  1282.7355 5.0000 -3.3066
v  1282.9458 10.0000 -3.3964
v  1283.3369 0.0000 -3.5042
v  1283.1414 5.0000 -3.4503
v  1283.3369 10.0000 -3.5042
v  1283.6984 0.0000 -3.5401
v  1283.5177 5.0000 -3.5221
v  1283.6984 10.0000 -3.5401
v  1282.8467 0.0000 -4.5454
v  1283.2726 5.0000 -4.0427
v  1282.8467 10.0000 -4.5454
v  1281.9666 0.0000 -5.4871
v  1282.4066 5.0000 -5.0162
v  1281.9666 10.0000 -5.4871
v  1281.0579 0.0000 -6.3654
v  1281.5122 5.0000 -5.9263
v  1281.0579 10.0000 -6.3654
v  1280.1206 0.0000 -7.1802
v  1280.5892 5.0000 -6.7728
v  1280.1206 10.0000 -7.1802
v  1279.1550 0.0000 -7.9315
v  1279.6378 5.0000 -7.5559
v  1279.1550 10.0000 -7.9315
v  1278.1608 0.0000 -8.6194
v  1278.6578 5.0000 -8.2755
v  1278.1608 10.0000 -8.6194
v  1277.1381 0.0000 -9.2437
v  1277.6494 5.0000 -8.9316
v  1277.1381 10.0000 -9.2437
v  1276.0868 0.0000 -9.8046
v  1276.6124 5.0000 -9.5242
v  1276.0868 10.0000 -9.8046
v  1275.0071 0.0000 -10.3020
v  1275.5469 5.0000 -10.0533
v  1275.0071 10.0000 -10.3020
v  1275.8478 0.0000 -11.0285
v  1275.4274 5.0000 -10.6653
v  1275.8478 10.0000 -11.0285
v  1276.7534 0.0000 -11.6695
v  1276.3005 5.0000 -11.3490
v  1276.7534 10.0000 -11.6695
v  1277.7239 0.0000 -12.2251
v  1277.2386 5.0000 -11.9473
v  1277.7239 10.0000 -12.2251
v  1278.7592 0.0000 -12.6952
v  1278.2415 5.0000 -12.4601
v  1278.7592 10.0000 -12.6952
v  1279.8594 0.0000 -13.0798
v  1279.3092 5.0000 -12.8875
v  1279.8594 10.0000 -13.0798
v  1281.0243 0.0000 -13.3789
v  1280.4418 5.0000 -13.2293
v  1281.0243 10.0000 -13.3789
v  1282.2542 0.0000 -13.5926
v  1281.6393 5.0000 -13.4857
v  1282.2542 10.0000 -13.5926
v  1283.5488 0.0000 -13.7208
v  1282.9015 5.0000 -13.6567
v  1283.5488 10.0000 -13.7208
v  1284.9084 0.0000 -13.7635
v  1284.2286 5.0000 -13.7421
v  1284.9084 10.0000 -13.7635
v  1286.9860 0.0000 -13.6447
v  1285.9471 5.0000 -13.7041
v  1286.9860 10.0000 -13.6447
v  1288.8191 0.0000 -13.2885
v  1287.9026 5.0000 -13.4666
v  1288.8191 10.0000 -13.2885
v  1290.4078 0.0000 -12.6947
v  1289.6134 5.0000 -12.9916
v  1290.4078 10.0000 -12.6947
v  1291.7521 0.0000 -11.8633
v  1291.0800 5.0000 -12.2790
v  1291.7521 10.0000 -11.8633
v  1292.8519 0.0000 -10.7945
v  1292.3020 5.0000 -11.3289
v  1292.8519 10.0000 -10.7945
v  1293.7074 0.0000 -9.4881
v  1293.2797 5.0000 -10.1413
v  1293.7074 10.0000 -9.4881
v  1294.3185 0.0000 -7.9442
v  1294.0129 5.0000 -8.7162
v  1294.3185 10.0000 -7.9442
v  1294.6851 0.0000 -6.1628
v  1294.5018 5.0000 -7.0535
v  1294.6851 10.0000 -6.1628
v  1294.8073 0.0000 -4.1439
v  1294.7462 5.0000 -5.1533
v  1294.8073 10.0000 -4.1439
v  1294.8073 0.0000 29.7061
v  1294.8073 5.0000 12.7811
v  1294.8073 10.0000 29.7061
v  1299.7178 5.0000 29.7061
v  1268.4930 0.0000 17.5192
v  1269.1135 0.0000 17.6665
v  1268.8032 5.0000 17.5929
v  1269.1135 10.0000 17.6665
v  1268.4930 10.0000 17.5192
v  1269.6512 0.0000 17.9118
v  1269.3824 5.0000 17.7891
v  1269.6512 10.0000 17.9118
v  1270.1063 0.0000 18.2553
v  1269.8788 5.0000 18.0836
v  1270.1063 10.0000 18.2553
v  1270.4786 0.0000 18.6969
v  1270.2925 5.0000 18.4761
v  1270.4786 10.0000 18.6969
v  1270.7682 0.0000 19.2367
v  1270.6234 5.0000 18.9668
v  1270.7682 10.0000 19.2367
v  1270.9751 0.0000 19.8746
v  1270.8716 5.0000 19.5556
v  1270.9751 10.0000 19.8746
v  1271.0991 0.0000 20.6106
v  1271.0371 5.0000 20.2426
v  1271.0991 10.0000 20.6106
v  1271.1405 0.0000 21.4448
v  1271.1199 5.0000 21.0277
v  1271.1405 10.0000 21.4448
v  1271.0991 0.0000 22.2663
v  1271.1199 5.0000 21.8556
v  1271.0991 10.0000 22.2663
v  1270.9751 0.0000 22.9912
v  1271.0371 5.0000 22.6288
v  1270.9751 10.0000 22.9912
v  1270.7682 0.0000 23.6194
v  1270.8716 5.0000 23.3053
v  1270.7682 10.0000 23.6194
v  1270.4786 0.0000 24.1510
v  1270.6234 5.0000 23.8852
v  1270.4786 10.0000 24.1510
v  1270.1063 0.0000 24.5859
v  1270.2925 5.0000 24.3685
v  1270.1063 10.0000 24.5859
v  1269.6512 0.0000 24.9242
v  1269.8788 5.0000 24.7550
v  1269.6512 10.0000 24.9242
v  1269.1135 0.0000 25.1658
v  1269.3824 5.0000 25.0450
v  1269.1135 10.0000 25.1658
v  1268.4930 0.0000 25.3108
v  1268.8032 5.0000 25.2383
v  1268.4930 10.0000 25.3108
v  1267.7898 0.0000 25.3591
v  1268.1414 5.0000 25.3349
v  1267.7898 10.0000 25.3591
v  1267.0739 0.0000 25.3108
v  1267.4318 5.0000 25.3349
v  1267.0739 10.0000 25.3108
v  1266.4421 0.0000 25.1658
v  1266.7579 5.0000 25.2383
v  1266.4421 10.0000 25.1658
v  1265.8947 0.0000 24.9242
v  1266.1685 5.0000 25.0450
v  1265.8947 10.0000 24.9242
v  1265.4314 0.0000 24.5859
v  1265.6631 5.0000 24.7550
v  1265.4314 10.0000 24.5859
v  1265.0524 0.0000 24.1510
v  1265.2419 5.0000 24.3685
v  1265.0524 10.0000 24.1510
v  1264.7576 0.0000 23.6194
v  1264.9050 5.0000 23.8852
v  1264.7576 10.0000 23.6194
v  1264.5471 0.0000 22.9912
v  1264.6523 5.0000 23.3053
v  1264.5471 10.0000 22.9912
v  1264.4208 0.0000 22.2663
v  1264.4839 5.0000 22.6288
v  1264.4208 10.0000 22.2663
v  1264.3787 0.0000 21.4448
v  1264.3997 5.0000 21.8556
v  1264.3787 10.0000 21.4448
v  1264.4207 0.0000 20.6106
v  1264.3997 5.0000 21.0277
v  1264.4207 10.0000 20.6106
v  1264.5470 0.0000 19.8746
v  1264.4839 5.0000 20.2426
v  1264.5470 10.0000 19.8746
v  1264.7576 0.0000 19.2367
v  1264.6523 5.0000 19.5556
v  1264.7576 10.0000 19.2367
v  1265.0524 0.0000 18.6969
v  1264.9050 5.0000 18.9668
v  1265.0524 10.0000 18.6969
v  1265.4314 0.0000 18.2553
v  1265.2419 5.0000 18.4761
v  1265.4314 10.0000 18.2553
v  1265.8947 0.0000 17.9118
v  1265.6631 5.0000 18.0836
v  1265.8947 10.0000 17.9118
v  1266.4421 0.0000 17.6665
v  1266.1685 5.0000 17.7891
v  1266.4421 10.0000 17.6665
v  1267.0739 0.0000 17.5192
v  1266.7579 5.0000 17.5929
v  1267.0739 10.0000 17.5192
v  1267.7898 0.0000 17.4702
v  1267.4318 5.0000 17.4947
v  1267.7898 10.0000 17.4702
v  1268.1414 5.0000 17.4947
v  1299.7178 0.0000 12.7434
v  1262.8707 10.0000 -10.5109
v  1299.6265 0.0000 -5.5419
v  1299.2615 0.0000 -8.0314
v  1298.5314 0.0000 -10.2097
v  1297.6605 0.0000 -13.0220
v  1294.7620 0.0000 -14.4025
v  1292.6938 0.0000 -15.4548
v  1290.2607 0.0000 -16.1960
v  1288.2974 0.0000 -15.5407
v  1286.4850 0.0000 -16.7447
v  1283.7560 0.0000 -16.7812
v  1282.4703 0.0000 -15.6908
v  1280.8345 0.0000 -16.5308
v  1279.7784 0.0000 -15.2837
v  1278.1399 0.0000 -15.9872
v  1277.3242 0.0000 -14.5672
v  1275.6724 0.0000 -15.1504
v  1273.8683 0.0000 -14.3623
v  1268.2190 0.0000 -12.2530
v  1283.2941 0.0000 -3.8632
v  1262.8707 0.0000 -10.5109
v  1283.0432 0.0000 -3.8153
v  1282.7726 0.0000 -3.7195
v  1282.3533 0.0000 -4.0537
v  1281.8784 0.0000 -3.6982
v  1281.4258 0.0000 -4.1854
v  1280.7019 0.0000 -4.3932
v  1278.7402 0.0000 -6.5430
v  1276.0817 0.0000 -3.8261
v  1277.0669 0.0000 -1.2712
v  1273.4630 0.0000 -7.3820
v  1271.8245 0.0000 -7.1861
v  1271.0336 0.0000 -7.7534
v  1270.2156 0.0000 -8.2765
v  1269.3706 0.0000 -8.7552
v  1268.4987 0.0000 -9.1896
v  1276.7031 0.0000 -0.8141
v  1276.3849 0.0000 -0.3307
v  1276.1121 0.0000 0.1787
v  1275.8848 0.0000 0.7143
v  1275.7029 0.0000 1.2761
v  1275.5665 0.0000 1.8640
v  1275.4756 0.0000 2.4780
v  1275.4301 0.0000 3.1182
v  1273.6992 0.0000 13.2009
v  1271.7004 0.0000 12.4224
v  1271.5902 0.0000 11.9644
v  1271.4247 0.0000 11.5718
v  1271.2041 0.0000 11.2447
v  1268.9554 0.0000 4.4553
v  1268.5195 0.0000 16.1802
v  1268.1334 0.0000 16.0493
v  1267.6921 0.0000 15.9839
v  1267.2191 0.0000 15.9839
v  1266.3872 0.0000 15.3039
v  1265.3610 0.0000 15.5075
v  1263.9093 0.0000 15.6225
v  1263.2520 0.0000 16.8002
v  1262.7178 0.0000 17.5729
v  1262.3171 0.0000 18.5001
v  1262.0500 0.0000 19.5819
v  1261.9165 0.0000 20.8182
v  1261.9199 0.0000 22.1191
v  1262.0673 0.0000 23.3316
v  1262.3619 0.0000 24.3925
v  1262.8040 0.0000 25.3018
v  1263.3933 0.0000 26.0596
v  1264.1300 0.0000 26.6658
v  1265.0139 0.0000 27.1205
v  1266.0453 0.0000 27.4236
v  1267.2240 0.0000 27.5752
v  1268.4827 0.0000 27.5717
v  1269.6732 0.0000 27.4064
v  1270.7150 0.0000 27.0758
v  1271.6079 0.0000 26.5799
v  1272.3521 0.0000 25.9186
v  1272.9474 0.0000 25.0920
v  1273.3938 0.0000 24.1001
v  1273.6915 0.0000 22.9429
v  1273.8403 0.0000 21.6204
v  1264.2443 10.0000 -11.0968
v  1269.2645 10.0000 -12.1136
v  1269.3706 10.0000 -8.7552
v  1273.8683 10.0000 -14.3623
v  1275.6724 10.0000 -15.1504
v  1277.3242 10.0000 -14.5672
v  1278.1399 10.0000 -15.9872
v  1279.7784 10.0000 -15.2837
v  1280.8345 10.0000 -16.5308
v  1282.4703 10.0000 -15.6908
v  1283.7560 10.0000 -16.7812
v  1286.4850 10.0000 -16.7447
v  1288.2974 10.0000 -15.5407
v  1290.2607 10.0000 -16.1960
v  1292.6938 10.0000 -15.4548
v  1294.7620 10.0000 -14.4025
v  1297.6605 10.0000 -13.0220
v  1298.5314 10.0000 -10.2097
v  1299.2615 10.0000 -8.0314
v  1299.6265 10.0000 -5.5419
v  1299.7178 10.0000 12.7434
v  1270.2156 10.0000 -8.2765
v  1271.0336 10.0000 -7.7534
v  1271.8245 10.0000 -7.1861
v  1273.4630 10.0000 -7.3820
v  1277.3501 10.0000 -5.9172
v  1269.0190 10.0000 4.5157
v  1280.7019 10.0000 -4.3932
v  1281.4258 10.0000 -4.1854
v  1281.8784 10.0000 -3.6982
v  1282.3533 10.0000 -4.0537
v  1282.7726 10.0000 -3.7195
v  1283.0432 10.0000 -3.8153
v  1283.2941 10.0000 -3.8632
v  1273.8403 10.0000 21.6204
v  1273.6992 10.0000 13.2009
v  1271.4247 10.0000 11.5718
v  1271.5902 10.0000 11.9644
v  1271.7004 10.0000 12.4224
v  1275.4301 10.0000 3.1182
v  1275.4756 10.0000 2.4780
v  1275.5665 10.0000 1.8640
v  1275.7029 10.0000 1.2761
v  1275.8848 10.0000 0.7143
v  1276.1121 10.0000 0.1787
v  1276.3849 10.0000 -0.3307
v  1276.7031 10.0000 -0.8141
v  1277.0669 10.0000 -1.2712
v  1277.4598 10.0000 -1.6968
v  1273.6915 10.0000 22.9429
v  1273.3938 10.0000 24.1001
v  1272.9474 10.0000 25.0920
v  1272.3521 10.0000 25.9186
v  1271.6079 10.0000 26.5799
v  1270.7150 10.0000 27.0758
v  1269.6732 10.0000 27.4064
v  1268.4827 10.0000 27.5717
v  1267.2240 10.0000 27.5752
v  1266.0453 10.0000 27.4236
v  1265.0139 10.0000 27.1205
v  1264.1300 10.0000 26.6658
v  1263.3933 10.0000 26.0596
v  1262.8040 10.0000 25.3018
v  1262.3619 10.0000 24.3925
v  1262.0673 10.0000 23.3316
v  1261.9199 10.0000 22.1191
v  1261.9165 10.0000 20.8182
v  1262.0500 10.0000 19.5819
v  1262.3171 10.0000 18.5001
v  1262.7178 10.0000 17.5729
v  1263.2520 10.0000 16.8002
v  1263.9093 10.0000 15.6225
v  1265.3610 10.0000 15.5075
v  1266.3872 10.0000 15.3039
v  1267.2191 10.0000 15.9839
v  1267.6921 10.0000 15.9839
v  1268.1334 10.0000 16.0493
v  1268.5195 10.0000 16.1802
v  1268.8505 10.0000 16.3764
# 607 vertices

vn 0.5774 -0.5774 0.5774
vn 0.7148 -0.6989 -0.0265
vn 1.0000 0.0000 -0.0000
vn 0.7148 0.6989 -0.0265
vn 0.5774 0.5774 0.5774
vn 0.7162 -0.6882 -0.1161
vn 0.9973 0.0000 -0.0740
vn 0.7162 0.6882 -0.1161
vn 0.6846 -0.6848 -0.2496
vn 0.9696 0.0000 -0.2447
vn 0.6846 0.6848 -0.2496
vn 0.6174 -0.6827 -0.3907
vn 0.8996 0.0000 -0.4367
vn 0.6174 0.6827 -0.3907
vn 0.5149 -0.6828 -0.5183
vn 0.7797 0.0000 -0.6261
vn 0.5149 0.6828 -0.5183
vn 0.3923 -0.6850 -0.6139
vn 0.6211 0.0000 -0.7838
vn 0.3923 0.6850 -0.6139
vn 0.2700 -0.6884 -0.6732
vn 0.4503 0.0000 -0.8929
vn 0.2700 0.6884 -0.6732
vn 0.1622 -0.6918 -0.7036
vn 0.2915 0.0000 -0.9566
vn 0.1622 0.6918 -0.7036
vn 0.0731 -0.6949 -0.7154
vn 0.1565 0.0000 -0.9877
vn 0.0731 0.6949 -0.7154
vn 0.0036 -0.6979 -0.7162
vn 0.0466 0.0000 -0.9989
vn 0.0036 0.6979 -0.7162
vn -0.0544 -0.6983 -0.7137
vn -0.0365 0.0000 -0.9993
vn -0.0544 0.6983 -0.7137
vn -0.1139 -0.6974 -0.7076
vn -0.1154 0.0000 -0.9933
vn -0.1139 0.6974 -0.7076
vn -0.1787 -0.6964 -0.6950
vn -0.2021 0.0000 -0.9794
vn -0.1787 0.6964 -0.6950
vn -0.2477 -0.6956 -0.6744
vn -0.2954 0.0000 -0.9554
vn -0.2477 0.6956 -0.6744
vn -0.3188 -0.6949 -0.6446
vn -0.3932 0.0000 -0.9195
vn -0.3188 0.6949 -0.6446
vn -0.3894 -0.6945 -0.6051
vn -0.4921 0.0000 -0.8705
vn -0.3894 0.6945 -0.6051
vn -0.4563 -0.6943 -0.5565
vn -0.5884 0.0000 -0.8086
vn -0.4563 0.6943 -0.5565
vn -0.5169 -0.6945 -0.5005
vn -0.6777 0.0000 -0.7353
vn -0.5169 0.6945 -0.5005
vn -0.8000 -0.5599 0.2156
vn -0.7568 0.0000 -0.6537
vn -0.8000 0.5599 0.2156
vn -0.2454 -0.7130 0.6569
vn -0.3257 0.0000 0.9455
vn -0.2454 0.7130 0.6569
vn -0.2792 -0.7131 0.6431
vn -0.3740 0.0000 0.9274
vn -0.2792 0.7131 0.6431
vn -0.3127 -0.7131 0.6275
vn -0.4221 0.0000 0.9066
vn -0.3127 0.7131 0.6275
vn -0.3456 -0.7132 0.6099
vn -0.4696 0.0000 0.8829
vn -0.3456 0.7132 0.6099
vn -0.3776 -0.7132 0.5906
vn -0.5160 0.0000 0.8566
vn -0.3776 0.7132 0.5906
vn -0.4086 -0.7131 0.5697
vn -0.5610 0.0000 0.8278
vn -0.4086 0.7131 0.5697
vn -0.4381 -0.7131 0.5473
vn -0.6042 0.0000 0.7968
vn -0.4381 0.7131 0.5473
vn -0.4661 -0.7130 0.5238
vn -0.6452 0.0000 0.7640
vn -0.4661 0.7130 0.5238
vn -0.3117 -0.9486 -0.0556
vn -0.6839 0.0000 0.7296
vn -0.3117 0.9486 -0.0556
vn -0.3258 -0.6920 -0.6442
vn -0.3892 0.0000 -0.9211
vn -0.3258 0.6920 -0.6442
vn -0.4155 -0.6906 -0.5920
vn -0.5114 0.0000 -0.8594
vn -0.4155 0.6906 -0.5920
vn -0.5022 -0.6897 -0.5216
vn -0.6344 0.0000 -0.7730
vn -0.5022 0.6897 -0.5216
vn -0.5783 -0.6897 -0.4358
vn -0.7484 0.0000 -0.6633
vn -0.5783 0.6897 -0.4358
vn -0.6381 -0.6905 -0.3408
vn -0.8438 0.0000 -0.5366
vn -0.6381 0.6905 -0.3408
vn -0.6794 -0.6918 -0.2445
vn -0.9152 0.0000 -0.4030
vn -0.6794 0.6918 -0.2445
vn -0.7038 -0.6936 -0.1536
vn -0.9621 0.0000 -0.2727
vn -0.7038 0.6936 -0.1536
vn -0.7151 -0.6953 -0.0721
vn -0.9882 0.0000 -0.1530
vn -0.7151 0.6953 -0.0721
vn -0.7122 -0.7018 -0.0168
vn -0.9989 0.0000 -0.0473
vn -0.7122 0.7018 -0.0168
vn -0.3237 -0.8965 -0.3025
vn -1.0000 0.0000 -0.0000
vn -0.3237 0.8965 -0.3025
vn -0.1062 -0.6897 -0.7163
vn -0.0677 0.0000 -0.9977
vn -0.1062 0.6897 -0.7163
vn -0.2303 -0.6863 -0.6899
vn -0.2248 0.0000 -0.9744
vn -0.2303 0.6863 -0.6899
vn -0.3660 -0.6837 -0.6314
vn -0.4055 0.0000 -0.9141
vn -0.3660 0.6837 -0.6314
vn -0.4952 -0.6829 -0.5371
vn -0.5917 0.0000 -0.8061
vn -0.4952 0.6829 -0.5371
vn -0.5981 -0.6843 -0.4173
vn -0.7556 0.0000 -0.6550
vn -0.5981 0.6843 -0.4173
vn -0.6654 -0.6872 -0.2916
vn -0.8756 0.0000 -0.4830
vn -0.6654 0.6872 -0.2916
vn -0.7013 -0.6906 -0.1767
vn -0.9487 0.0000 -0.3163
vn -0.7013 0.6906 -0.1767
vn -0.7157 -0.6938 -0.0800
vn -0.9853 0.0000 -0.1708
vn -0.7157 0.6938 -0.0800
vn -0.7191 -0.6948 0.0032
vn -0.9987 0.0000 -0.0509
vn -0.7191 0.6948 0.0032
vn -0.7162 -0.6916 0.0940
vn -0.9982 0.0000 0.0598
vn -0.7162 0.6916 0.0940
vn -0.6958 -0.6882 0.2056
vn -0.9798 0.0000 0.1997
vn -0.6958 0.6882 0.2056
vn -0.6480 -0.6851 0.3328
vn -0.9310 0.0000 0.3650
vn -0.6480 0.6851 0.3328
vn -0.5654 -0.6833 0.4621
vn -0.8390 0.0000 0.5442
vn -0.5654 0.6833 0.4621
vn -0.4516 -0.6835 0.5735
vn -0.7003 0.0000 0.7138
vn -0.4516 0.6835 0.5735
vn -0.3228 -0.6856 0.6525
vn -0.5296 0.0000 0.8482
vn -0.3228 0.6856 0.6525
vn -0.1985 -0.6888 0.6973
vn -0.3530 0.0000 0.9356
vn -0.1985 0.6888 0.6973
vn -0.0905 -0.6921 0.7161
vn -0.1925 0.0000 0.9813
vn -0.0905 0.6921 0.7161
vn 0.0023 -0.6937 0.7203
vn -0.0576 0.0000 0.9983
vn 0.0023 0.6937 0.7203
vn 0.1003 -0.6906 0.7163
vn 0.0639 0.0000 0.9980
vn 0.1003 0.6906 0.7163
vn 0.2185 -0.6872 0.6928
vn 0.2128 0.0000 0.9771
vn 0.2185 0.6872 0.6928
vn 0.3504 -0.6843 0.6395
vn 0.3862 0.0000 0.9224
vn 0.3504 0.6843 0.6395
vn 0.4799 -0.6830 0.5506
vn 0.5695 0.0000 0.8220
vn 0.4799 0.6830 0.5506
vn 0.5870 -0.6838 0.4334
vn 0.7365 0.0000 0.6765
vn 0.5870 0.6838 0.4334
vn 0.6597 -0.6864 0.3060
vn 0.8633 0.0000 0.5046
vn 0.6597 0.6864 0.3060
vn 0.6996 -0.6898 0.1866
vn 0.9429 0.0000 0.3331
vn 0.6996 0.6898 0.1866
vn 0.7159 -0.6930 0.0847
vn 0.9835 0.0000 0.1807
vn 0.7159 0.6930 0.0847
vn 0.7128 -0.7011 0.0192
vn 0.9985 0.0000 0.0540
vn 0.7128 0.7011 0.0192
vn 0.7030 -0.7110 0.0122
vn 0.7030 0.7110 0.0122
vn 0.6969 -0.7155 0.0499
vn 0.9994 0.0000 0.0348
vn 0.6969 0.7155 0.0499
vn 0.6904 -0.7161 0.1027
vn 0.9941 0.0000 0.1081
vn 0.6904 0.7161 0.1027
vn 0.6794 -0.7166 0.1580
vn 0.9826 0.0000 0.1858
vn 0.6794 0.7166 0.1580
vn 0.6631 -0.7170 0.2150
vn 0.9638 0.0000 0.2668
vn 0.6631 0.7170 0.2150
vn 0.6413 -0.7173 0.2724
vn 0.9370 0.0000 0.3494
vn 0.6413 0.7173 0.2724
vn 0.6141 -0.7174 0.3289
vn 0.9020 0.0000 0.4317
vn 0.6141 0.7174 0.3289
vn 0.5819 -0.7174 0.3831
vn 0.8592 0.0000 0.5116
vn 0.5819 0.7174 0.3831
vn 0.5454 -0.7172 0.4337
vn 0.8095 0.0000 0.5871
vn 0.5454 0.7172 0.4337
vn 0.5143 -0.7139 0.4753
vn 0.7543 0.0000 0.6565
vn 0.5143 0.7139 0.4753
vn 0.4925 -0.7113 0.5014
vn 0.7139 0.0000 0.7003
vn 0.4925 0.7113 0.5014
vn 0.4711 -0.7122 0.5205
vn 0.6874 0.0000 0.7263
vn 0.4711 0.7122 0.5205
vn 0.4441 -0.7132 0.5422
vn 0.6544 0.0000 0.7562
vn 0.4441 0.7132 0.5422
vn 0.4097 -0.7147 0.5669
vn 0.6125 0.0000 0.7905
vn 0.4097 0.7147 0.5669
vn 0.3650 -0.7166 0.5943
vn 0.5584 0.0000 0.8296
vn 0.3650 0.7166 0.5943
vn 0.3061 -0.7192 0.6238
vn 0.4873 0.0000 0.8732
vn 0.3061 0.7192 0.6238
vn 0.2280 -0.7226 0.6526
vn 0.3925 0.0000 0.9197
vn 0.2280 0.7226 0.6526
vn 0.1256 -0.7267 0.6754
vn 0.2656 0.0000 0.9641
vn 0.1256 0.7267 0.6754
vn 0.7729 -0.5521 0.3127
vn 0.0989 0.0000 0.9951
vn 0.7729 0.5521 0.3127
vn 0.5322 -0.7017 -0.4737
vn 0.7630 0.0000 -0.6464
vn 0.5322 0.7017 -0.4737
vn 0.5082 -0.7014 -0.4997
vn 0.7306 0.0000 -0.6828
vn 0.5082 0.7014 -0.4997
vn 0.4818 -0.7012 -0.5255
vn 0.6950 0.0000 -0.7190
vn 0.4818 0.7012 -0.5255
vn 0.4531 -0.7010 -0.5507
vn 0.6561 0.0000 -0.7547
vn 0.4531 0.7010 -0.5507
vn 0.4221 -0.7009 -0.5750
vn 0.6141 0.0000 -0.7893
vn 0.4221 0.7009 -0.5750
vn 0.3890 -0.7007 -0.5981
vn 0.5689 0.0000 -0.8224
vn 0.3890 0.7007 -0.5981
vn 0.3540 -0.7006 -0.6195
vn 0.5211 0.0000 -0.8535
vn 0.3540 0.7006 -0.6195
vn 0.3174 -0.7006 -0.6391
vn 0.4707 0.0000 -0.8823
vn 0.3174 0.7006 -0.6391
vn 0.3111 -0.9493 -0.0440
vn 0.4184 0.0000 -0.9083
vn 0.3111 0.9493 -0.0440
vn 0.4290 -0.7181 0.5479
vn 0.6538 0.0000 0.7567
vn 0.4290 0.7181 0.5479
vn 0.3744 -0.7181 0.5867
vn 0.5777 0.0000 0.8162
vn 0.3744 0.7181 0.5867
vn 0.3172 -0.7178 0.6198
vn 0.4968 0.0000 0.8679
vn 0.3172 0.7178 0.6198
vn 0.2592 -0.7174 0.6467
vn 0.4134 0.0000 0.9105
vn 0.2592 0.7174 0.6467
vn 0.2019 -0.7168 0.6674
vn 0.3300 0.0000 0.9440
vn 0.2019 0.7168 0.6674
vn 0.1466 -0.7161 0.6824
vn 0.2487 0.0000 0.9686
vn 0.1466 0.7161 0.6824
vn 0.0943 -0.7155 0.6923
vn 0.1712 0.0000 0.9852
vn 0.0943 0.7155 0.6923
vn 0.0455 -0.7148 0.6979
vn 0.0985 0.0000 0.9951
vn 0.0455 0.7148 0.6979
vn -0.0089 -0.7172 0.6968
vn 0.0314 0.0000 0.9995
vn -0.0089 0.7172 0.6968
vn -0.0859 -0.7226 0.6859
vn -0.0571 0.0000 0.9984
vn -0.0859 0.7226 0.6859
vn -0.1866 -0.7262 0.6617
vn -0.1908 0.0000 0.9816
vn -0.1866 0.7262 0.6617
vn -0.3009 -0.7298 0.6138
vn -0.3501 0.0000 0.9367
vn -0.3009 0.7298 0.6138
vn -0.4188 -0.7323 0.5369
vn -0.5260 0.0000 0.8505
vn -0.4188 0.7323 0.5369
vn -0.5250 -0.7327 0.4331
vn -0.6969 0.0000 0.7172
vn -0.5250 0.7327 0.4331
vn -0.6062 -0.7306 0.3143
vn -0.8366 0.0000 0.5478
vn -0.6062 0.7306 0.3143
vn -0.6578 -0.7272 0.1962
vn -0.9298 0.0000 0.3680
vn -0.6578 0.7272 0.1962
vn -0.6844 -0.7235 0.0907
vn -0.9795 0.0000 0.2016
vn -0.6844 0.7235 0.0907
vn -0.6999 -0.7140 0.0212
vn -0.9982 0.0000 0.0604
vn -0.6999 0.7140 0.0212
vn -0.5774 -0.5774 0.5774
vn -0.5774 0.5774 0.5774
vn 0.0000 0.0000 1.0000
vn -0.1037 -0.7259 0.6799
vn -0.2219 -0.7297 0.6468
vn -0.2308 0.0000 0.9730
vn -0.2219 0.7297 0.6468
vn -0.1037 0.7259 0.6799
vn -0.3484 -0.7325 0.5848
vn -0.4151 0.0000 0.9098
vn -0.3484 0.7325 0.5848
vn -0.4678 -0.7331 0.4937
vn -0.6025 0.0000 0.7981
vn -0.4678 0.7331 0.4937
vn -0.5643 -0.7312 0.3831
vn -0.7646 0.0000 0.6446
vn -0.5643 0.7312 0.3831
vn -0.6309 -0.7278 0.2690
vn -0.8812 0.0000 0.4727
vn -0.6309 0.7278 0.2690
vn -0.6700 -0.7240 0.1642
vn -0.9512 0.0000 0.3085
vn -0.6700 0.7240 0.1642
vn -0.6893 -0.7206 0.0749
vn -0.9861 0.0000 0.1663
vn -0.6893 0.7206 0.0749
vn -0.6955 -0.7185 -0.0003
vn -0.9988 0.0000 0.0495
vn -0.6955 0.7185 -0.0003
vn -0.6890 -0.7208 -0.0761
vn -0.9987 0.0000 -0.0503
vn -0.6890 0.7208 -0.0761
vn -0.6692 -0.7242 -0.1665
vn -0.9857 0.0000 -0.1688
vn -0.6692 0.7242 -0.1665
vn -0.6292 -0.7280 -0.2723
vn -0.9498 0.0000 -0.3127
vn -0.6292 0.7280 -0.2723
vn -0.5615 -0.7314 -0.3870
vn -0.8782 0.0000 -0.4784
vn -0.5615 0.7314 -0.3870
vn -0.4641 -0.7331 -0.4972
vn -0.7597 0.0000 -0.6503
vn -0.4641 0.7331 -0.4972
vn -0.3447 -0.7323 -0.5873
vn -0.5966 0.0000 -0.8025
vn -0.3447 0.7323 -0.5873
vn -0.2190 -0.7294 -0.6481
vn -0.4098 0.0000 -0.9122
vn -0.2190 0.7294 -0.6481
vn -0.1022 -0.7257 -0.6804
vn -0.2275 0.0000 -0.9738
vn -0.1022 0.7257 -0.6804
vn -0.0004 -0.7227 -0.6911
vn -0.0686 0.0000 -0.9976
vn -0.0004 0.7227 -0.6911
vn 0.1005 -0.7253 -0.6810
vn 0.0673 0.0000 -0.9977
vn 0.1005 0.7253 -0.6810
vn 0.2157 -0.7291 -0.6495
vn 0.2237 0.0000 -0.9747
vn 0.2157 0.7291 -0.6495
vn 0.3404 -0.7321 -0.5901
vn 0.4038 0.0000 -0.9149
vn 0.3404 0.7321 -0.5901
vn 0.4598 -0.7331 -0.5012
vn 0.5897 0.0000 -0.8076
vn 0.4598 0.7331 -0.5012
vn 0.5582 -0.7315 -0.3915
vn 0.7539 0.0000 -0.6570
vn 0.5582 0.7315 -0.3915
vn 0.6272 -0.7283 -0.2762
vn 0.8745 0.0000 -0.4850
vn 0.6272 0.7283 -0.2762
vn 0.6682 -0.7245 -0.1692
vn 0.9482 0.0000 -0.3178
vn 0.6682 0.7245 -0.1692
vn 0.6886 -0.7210 -0.0774
vn 0.9851 0.0000 -0.1717
vn 0.6886 0.7210 -0.0774
vn 0.6953 -0.7187 -0.0003
vn 0.9987 0.0000 -0.0512
vn 0.6953 0.7187 -0.0003
vn 0.6889 -0.7208 0.0762
vn 0.9987 0.0000 0.0504
vn 0.6889 0.7208 0.0762
vn 0.6691 -0.7242 0.1669
vn 0.9856 0.0000 0.1692
vn 0.6691 0.7242 0.1669
vn 0.6289 -0.7280 0.2729
vn 0.9496 0.0000 0.3135
vn 0.6289 0.7280 0.2729
vn 0.5611 -0.7314 0.3876
vn 0.8776 0.0000 0.4793
vn 0.5611 0.7314 0.3876
vn 0.4635 -0.7331 0.4977
vn 0.7588 0.0000 0.6513
vn 0.4635 0.7331 0.4977
vn 0.3441 -0.7323 0.5877
vn 0.5956 0.0000 0.8033
vn 0.3441 0.7323 0.5877
vn 0.2185 -0.7294 0.6483
vn 0.4090 0.0000 0.9126
vn 0.2185 0.7294 0.6483
vn 0.1019 -0.7256 0.6805
vn 0.2270 0.0000 0.9739
vn 0.1019 0.7256 0.6805
vn -0.0004 -0.7230 0.6909
vn 0.0684 0.0000 0.9977
vn -0.0004 0.7230 0.6909
vn -0.0696 0.0000 0.9976
vn 0.0000 -1.0000 -0.0000
vn 0.0000 1.0000 -0.0000
# 447 vertex normals

o Po_San_Pao
g Po_San_Pao
s 1
f 1//1 2//2 3//3 
f 2//2 4//4 3//3 
f 4//4 5//5 3//3 
f 5//5 1//1 3//3 
s 4
f 2//2 6//6 7//7 
f 6//6 8//8 7//7 
f 8//8 4//4 7//7 
f 4//4 2//2 7//7 
f 6//6 9//9 10//10 
f 9//9 11//11 10//10 
f 11//11 8//8 10//10 
f 8//8 6//6 10//10 
f 9//9 12//12 13//13 
f 12//12 14//14 13//13 
f 14//14 11//11 13//13 
f 11//11 9//9 13//13 
f 12//12 15//15 16//16 
f 15//15 17//17 16//16 
f 17//17 14//14 16//16 
f 14//14 12//12 16//16 
f 15//15 18//18 19//19 
f 18//18 20//20 19//19 
f 20//20 17//17 19//19 
f 17//17 15//15 19//19 
f 18//18 21//21 22//22 
f 21//21 23//23 22//22 
f 23//23 20//20 22//22 
f 20//20 18//18 22//22 
f 21//21 24//24 25//25 
f 24//24 26//26 25//25 
f 26//26 23//23 25//25 
f 23//23 21//21 25//25 
f 24//24 27//27 28//28 
f 27//27 29//29 28//28 
f 29//29 26//26 28//28 
f 26//26 24//24 28//28 
f 27//27 30//30 31//31 
f 30//30 32//32 31//31 
f 32//32 29//29 31//31 
f 29//29 27//27 31//31 
f 30//30 33//33 34//34 
f 33//33 35//35 34//34 
f 35//35 32//32 34//34 
f 32//32 30//30 34//34 
f 33//33 36//36 37//37 
f 36//36 38//38 37//37 
f 38//38 35//35 37//37 
f 35//35 33//33 37//37 
f 36//36 39//39 40//40 
f 39//39 41//41 40//40 
f 41//41 38//38 40//40 
f 38//38 36//36 40//40 
f 39//39 42//42 43//43 
f 42//42 44//44 43//43 
f 44//44 41//41 43//43 
f 41//41 39//39 43//43 
f 42//42 45//45 46//46 
f 45//45 47//47 46//46 
f 47//47 44//44 46//46 
f 44//44 42//42 46//46 
f 45//45 48//48 49//49 
f 48//48 50//50 49//49 
f 50//50 47//47 49//49 
f 47//47 45//45 49//49 
f 48//48 51//51 52//52 
f 51//51 53//53 52//52 
f 53//53 50//50 52//52 
f 50//50 48//48 52//52 
f 51//51 54//54 55//55 
f 54//54 56//56 55//55 
f 56//56 53//53 55//55 
f 53//53 51//51 55//55 
f 54//54 57//57 58//58 
f 57//57 59//59 58//58 
f 59//59 56//56 58//58 
f 56//56 54//54 58//58 
s 2
f 57//57 60//60 61//61 
f 60//60 62//62 61//61 
f 62//62 59//59 61//61 
f 59//59 57//57 61//61 
f 60//60 63//63 64//64 
f 63//63 65//65 64//64 
f 65//65 62//62 64//64 
f 62//62 60//60 64//64 
f 63//63 66//66 67//67 
f 66//66 68//68 67//67 
f 68//68 65//65 67//67 
f 65//65 63//63 67//67 
f 66//66 69//69 70//70 
f 69//69 71//71 70//70 
f 71//71 68//68 70//70 
f 68//68 66//66 70//70 
f 69//69 72//72 73//73 
f 72//72 74//74 73//73 
f 74//74 71//71 73//73 
f 71//71 69//69 73//73 
f 72//72 75//75 76//76 
f 75//75 77//77 76//76 
f 77//77 74//74 76//76 
f 74//74 72//72 76//76 
f 75//75 78//78 79//79 
f 78//78 80//80 79//79 
f 80//80 77//77 79//79 
f 77//77 75//75 79//79 
f 78//78 81//81 82//82 
f 81//81 83//83 82//82 
f 83//83 80//80 82//82 
f 80//80 78//78 82//82 
f 81//81 84//84 85//85 
f 84//84 86//86 85//85 
f 86//86 83//83 85//85 
f 83//83 81//81 85//85 
s 4
f 84//84 87//87 88//88 
f 87//87 89//89 88//88 
f 89//89 86//86 88//88 
f 86//86 84//84 88//88 
f 87//87 90//90 91//91 
f 90//90 92//92 91//91 
f 92//92 89//89 91//91 
f 89//89 87//87 91//91 
f 90//90 93//93 94//94 
f 93//93 95//95 94//94 
f 95//95 92//92 94//94 
f 92//92 90//90 94//94 
f 93//93 96//96 97//97 
f 96//96 98//98 97//97 
f 98//98 95//95 97//97 
f 95//95 93//93 97//97 
f 96//96 99//99 100//100 
f 99//99 101//101 100//100 
f 101//101 98//98 100//100 
f 98//98 96//96 100//100 
f 99//99 102//102 103//103 
f 102//102 104//104 103//103 
f 104//104 101//101 103//103 
f 101//101 99//99 103//103 
f 102//102 105//105 106//106 
f 105//105 107//107 106//106 
f 107//107 104//104 106//106 
f 104//104 102//102 106//106 
f 105//105 108//108 109//109 
f 108//108 110//110 109//109 
f 110//110 107//107 109//109 
f 107//107 105//105 109//109 
f 108//108 111//111 112//112 
f 111//111 113//113 112//112 
f 113//113 110//110 112//112 
f 110//110 108//108 112//112 
s 2
f 111//111 114//114 115//115 
f 114//114 116//116 115//115 
f 116//116 113//113 115//115 
f 113//113 111//111 115//115 
s 4
f 114//114 117//117 118//118 
f 117//117 119//119 118//118 
f 119//119 116//116 118//118 
f 116//116 114//114 118//118 
f 117//117 120//120 121//121 
f 120//120 122//122 121//121 
f 122//122 119//119 121//121 
f 119//119 117//117 121//121 
f 120//120 123//123 124//124 
f 123//123 125//125 124//124 
f 125//125 122//122 124//124 
f 122//122 120//120 124//124 
f 123//123 126//126 127//127 
f 126//126 128//128 127//127 
f 128//128 125//125 127//127 
f 125//125 123//123 127//127 
f 126//126 129//129 130//130 
f 129//129 131//131 130//130 
f 131//131 128//128 130//130 
f 128//128 126//126 130//130 
f 129//129 132//132 133//133 
f 132//132 134//134 133//133 
f 134//134 131//131 133//133 
f 131//131 129//129 133//133 
f 132//132 135//135 136//136 
f 135//135 137//137 136//136 
f 137//137 134//134 136//136 
f 134//134 132//132 136//136 
f 135//135 138//138 139//139 
f 138//138 140//140 139//139 
f 140//140 137//137 139//139 
f 137//137 135//135 139//139 
f 138//138 141//141 142//142 
f 141//141 143//143 142//142 
f 143//143 140//140 142//142 
f 140//140 138//138 142//142 
f 141//141 144//144 145//145 
f 144//144 146//146 145//145 
f 146//146 143//143 145//145 
f 143//143 141//141 145//145 
f 144//144 147//147 148//148 
f 147//147 149//149 148//148 
f 149//149 146//146 148//148 
f 146//146 144//144 148//148 
f 147//147 150//150 151//151 
f 150//150 152//152 151//151 
f 152//152 149//149 151//151 
f 149//149 147//147 151//151 
f 150//150 153//153 154//154 
f 153//153 155//155 154//154 
f 155//155 152//152 154//154 
f 152//152 150//150 154//154 
f 153//153 156//156 157//157 
f 156//156 158//158 157//157 
f 158//158 155//155 157//157 
f 155//155 153//153 157//157 
f 156//156 159//159 160//160 
f 159//159 161//161 160//160 
f 161//161 158//158 160//160 
f 158//158 156//156 160//160 
f 159//159 162//162 163//163 
f 162//162 164//164 163//163 
f 164//164 161//161 163//163 
f 161//161 159//159 163//163 
f 162//162 165//165 166//166 
f 165//165 167//167 166//166 
f 167//167 164//164 166//166 
f 164//164 162//162 166//166 
f 165//165 168//168 169//169 
f 168//168 170//170 169//169 
f 170//170 167//167 169//169 
f 167//167 165//165 169//169 
f 168//168 171//171 172//172 
f 171//171 173//173 172//172 
f 173//173 170//170 172//172 
f 170//170 168//168 172//172 
f 171//171 174//174 175//175 
f 174//174 176//176 175//175 
f 176//176 173//173 175//175 
f 173//173 171//171 175//175 
f 174//174 177//177 178//178 
f 177//177 179//179 178//178 
f 179//179 176//176 178//178 
f 176//176 174//174 178//178 
f 177//177 180//180 181//181 
f 180//180 182//182 181//181 
f 182//182 179//179 181//181 
f 179//179 177//177 181//181 
f 180//180 183//183 184//184 
f 183//183 185//185 184//184 
f 185//185 182//182 184//184 
f 182//182 180//180 184//184 
f 183//183 186//186 187//187 
f 186//186 188//188 187//187 
f 188//188 185//185 187//187 
f 185//185 183//183 187//187 
f 186//186 189//189 190//190 
f 189//189 191//191 190//190 
f 191//191 188//188 190//190 
f 188//188 186//186 190//190 
f 189//189 192//192 193//193 
f 192//192 194//194 193//193 
f 194//194 191//191 193//193 
f 191//191 189//189 193//193 
f 192//192 195//195 196//196 
f 195//195 197//197 196//196 
f 197//197 194//194 196//196 
f 194//194 192//192 196//196 
s 2
f 195//195 198//198 199//3 
f 198//198 200//199 199//3 
f 200//199 197//197 199//3 
f 197//197 195//195 199//3 
s 4
f 198//198 201//200 202//201 
f 201//200 203//202 202//201 
f 203//202 200//199 202//201 
f 200//199 198//198 202//201 
f 201//200 204//203 205//204 
f 204//203 206//205 205//204 
f 206//205 203//202 205//204 
f 203//202 201//200 205//204 
f 204//203 207//206 208//207 
f 207//206 209//208 208//207 
f 209//208 206//205 208//207 
f 206//205 204//203 208//207 
f 207//206 210//209 211//210 
f 210//209 212//211 211//210 
f 212//211 209//208 211//210 
f 209//208 207//206 211//210 
f 210//209 213//212 214//213 
f 213//212 215//214 214//213 
f 215//214 212//211 214//213 
f 212//211 210//209 214//213 
f 213//212 216//215 217//216 
f 216//215 218//217 217//216 
f 218//217 215//214 217//216 
f 215//214 213//212 217//216 
f 216//215 219//218 220//219 
f 219//218 221//220 220//219 
f 221//220 218//217 220//219 
f 218//217 216//215 220//219 
f 219//218 222//221 223//222 
f 222//221 224//223 223//222 
f 224//223 221//220 223//222 
f 221//220 219//218 223//222 
f 222//221 225//224 226//225 
f 225//224 227//226 226//225 
f 227//226 224//223 226//225 
f 224//223 222//221 226//225 
f 225//224 228//227 229//228 
f 228//227 230//229 229//228 
f 230//229 227//226 229//228 
f 227//226 225//224 229//228 
f 228//227 231//230 232//231 
f 231//230 233//232 232//231 
f 233//232 230//229 232//231 
f 230//229 228//227 232//231 
f 231//230 234//233 235//234 
f 234//233 236//235 235//234 
f 236//235 233//232 235//234 
f 233//232 231//230 235//234 
f 234//233 237//236 238//237 
f 237//236 239//238 238//237 
f 239//238 236//235 238//237 
f 236//235 234//233 238//237 
f 237//236 240//239 241//240 
f 240//239 242//241 241//240 
f 242//241 239//238 241//240 
f 239//238 237//236 241//240 
f 240//239 243//242 244//243 
f 243//242 245//244 244//243 
f 245//244 242//241 244//243 
f 242//241 240//239 244//243 
f 243//242 246//245 247//246 
f 246//245 248//247 247//246 
f 248//247 245//244 247//246 
f 245//244 243//242 247//246 
f 246//245 249//248 250//249 
f 249//248 251//250 250//249 
f 251//250 248//247 250//249 
f 248//247 246//245 250//249 
f 249//248 252//251 253//252 
f 252//251 254//253 253//252 
f 254//253 251//250 253//252 
f 251//250 249//248 253//252 
s 2
f 252//251 255//254 256//255 
f 255//254 257//256 256//255 
f 257//256 254//253 256//255 
f 254//253 252//251 256//255 
f 255//254 258//257 259//258 
f 258//257 260//259 259//258 
f 260//259 257//256 259//258 
f 257//256 255//254 259//258 
f 258//257 261//260 262//261 
f 261//260 263//262 262//261 
f 263//262 260//259 262//261 
f 260//259 258//257 262//261 
f 261//260 264//263 265//264 
f 264//263 266//265 265//264 
f 266//265 263//262 265//264 
f 263//262 261//260 265//264 
f 264//263 267//266 268//267 
f 267//266 269//268 268//267 
f 269//268 266//265 268//267 
f 266//265 264//263 268//267 
f 267//266 270//269 271//270 
f 270//269 272//271 271//270 
f 272//271 269//268 271//270 
f 269//268 267//266 271//270 
f 270//269 273//272 274//273 
f 273//272 275//274 274//273 
f 275//274 272//271 274//273 
f 272//271 270//269 274//273 
f 273//272 276//275 277//276 
f 276//275 278//277 277//276 
f 278//277 275//274 277//276 
f 275//274 273//272 277//276 
f 276//275 279//278 280//279 
f 279//278 281//280 280//279 
f 281//280 278//277 280//279 
f 278//277 276//275 280//279 
s 4
f 279//278 282//281 283//282 
f 282//281 284//283 283//282 
f 284//283 281//280 283//282 
f 281//280 279//278 283//282 
f 282//281 285//284 286//285 
f 285//284 287//286 286//285 
f 287//286 284//283 286//285 
f 284//283 282//281 286//285 
f 285//284 288//287 289//288 
f 288//287 290//289 289//288 
f 290//289 287//286 289//288 
f 287//286 285//284 289//288 
f 288//287 291//290 292//291 
f 291//290 293//292 292//291 
f 293//292 290//289 292//291 
f 290//289 288//287 292//291 
f 291//290 294//293 295//294 
f 294//293 296//295 295//294 
f 296//295 293//292 295//294 
f 293//292 291//290 295//294 
f 294//293 297//296 298//297 
f 297//296 299//298 298//297 
f 299//298 296//295 298//297 
f 296//295 294//293 298//297 
f 297//296 300//299 301//300 
f 300//299 302//301 301//300 
f 302//301 299//298 301//300 
f 299//298 297//296 301//300 
f 300//299 303//302 304//303 
f 303//302 305//304 304//303 
f 305//304 302//301 304//303 
f 302//301 300//299 304//303 
f 303//302 306//305 307//306 
f 306//305 308//307 307//306 
f 308//307 305//304 307//306 
f 305//304 303//302 307//306 
f 306//305 309//308 310//309 
f 309//308 311//310 310//309 
f 311//310 308//307 310//309 
f 308//307 306//305 310//309 
f 309//308 312//311 313//312 
f 312//311 314//313 313//312 
f 314//313 311//310 313//312 
f 311//310 309//308 313//312 
f 312//311 315//314 316//315 
f 315//314 317//316 316//315 
f 317//316 314//313 316//315 
f 314//313 312//311 316//315 
f 315//314 318//317 319//318 
f 318//317 320//319 319//318 
f 320//319 317//316 319//318 
f 317//316 315//314 319//318 
f 318//317 321//320 322//321 
f 321//320 323//322 322//321 
f 323//322 320//319 322//321 
f 320//319 318//317 322//321 
f 321//320 324//323 325//324 
f 324//323 326//325 325//324 
f 326//325 323//322 325//324 
f 323//322 321//320 325//324 
f 324//323 327//326 328//327 
f 327//326 329//328 328//327 
f 329//328 326//325 328//327 
f 326//325 324//323 328//327 
f 327//326 330//329 331//330 
f 330//329 332//331 331//330 
f 332//331 329//328 331//330 
f 329//328 327//326 331//330 
f 330//329 333//332 334//333 
f 333//332 335//334 334//333 
f 335//334 332//331 334//333 
f 332//331 330//329 334//333 
s 2
f 333//332 336//335 337//115 
f 336//335 338//336 337//115 
f 338//336 335//334 337//115 
f 335//334 333//332 337//115 
s 4
f 336//335 1//1 339//337 
f 1//1 5//5 339//337 
f 5//5 338//336 339//337 
f 338//336 336//335 339//337 
s 1
f 340//338 341//339 342//340 
f 341//339 343//341 342//340 
f 343//341 344//342 342//340 
f 344//342 340//338 342//340 
s 3
f 341//339 345//343 346//344 
f 345//343 347//345 346//344 
f 347//345 343//341 346//344 
f 343//341 341//339 346//344 
s 2
f 345//343 348//346 349//347 
f 348//346 350//348 349//347 
f 350//348 347//345 349//347 
f 347//345 345//343 349//347 
f 348//346 351//349 352//350 
f 351//349 353//351 352//350 
f 353//351 350//348 352//350 
f 350//348 348//346 352//350 
f 351//349 354//352 355//353 
f 354//352 356//354 355//353 
f 356//354 353//351 355//353 
f 353//351 351//349 355//353 
f 354//352 357//355 358//356 
f 357//355 359//357 358//356 
f 359//357 356//354 358//356 
f 356//354 354//352 358//356 
f 357//355 360//358 361//359 
f 360//358 362//360 361//359 
f 362//360 359//357 361//359 
f 359//357 357//355 361//359 
f 360//358 363//361 364//362 
f 363//361 365//363 364//362 
f 365//363 362//360 364//362 
f 362//360 360//358 364//362 
f 363//361 366//364 367//365 
f 366//364 368//366 367//365 
f 368//366 365//363 367//365 
f 365//363 363//361 367//365 
f 366//364 369//367 370//368 
f 369//367 371//369 370//368 
f 371//369 368//366 370//368 
f 368//366 366//364 370//368 
f 369//367 372//370 373//371 
f 372//370 374//372 373//371 
f 374//372 371//369 373//371 
f 371//369 369//367 373//371 
f 372//370 375//373 376//374 
f 375//373 377//375 376//374 
f 377//375 374//372 376//374 
f 374//372 372//370 376//374 
f 375//373 378//376 379//377 
f 378//376 380//378 379//377 
f 380//378 377//375 379//377 
f 377//375 375//373 379//377 
f 378//376 381//379 382//380 
f 381//379 383//381 382//380 
f 383//381 380//378 382//380 
f 380//378 378//376 382//380 
f 381//379 384//382 385//383 
f 384//382 386//384 385//383 
f 386//384 383//381 385//383 
f 383//381 381//379 385//383 
f 384//382 387//385 388//386 
f 387//385 389//387 388//386 
f 389//387 386//384 388//386 
f 386//384 384//382 388//386 
f 387//385 390//388 391//389 
f 390//388 392//390 391//389 
f 392//390 389//387 391//389 
f 389//387 387//385 391//389 
f 390//388 393//391 394//392 
f 393//391 395//393 394//392 
f 395//393 392//390 394//392 
f 392//390 390//388 394//392 
f 393//391 396//394 397//395 
f 396//394 398//396 397//395 
f 398//396 395//393 397//395 
f 395//393 393//391 397//395 
f 396//394 399//397 400//398 
f 399//397 401//399 400//398 
f 401//399 398//396 400//398 
f 398//396 396//394 400//398 
f 399//397 402//400 403//401 
f 402//400 404//402 403//401 
f 404//402 401//399 403//401 
f 401//399 399//397 403//401 
f 402//400 405//403 406//404 
f 405//403 407//405 406//404 
f 407//405 404//402 406//404 
f 404//402 402//400 406//404 
f 405//403 408//406 409//407 
f 408//406 410//408 409//407 
f 410//408 407//405 409//407 
f 407//405 405//403 409//407 
f 408//406 411//409 412//410 
f 411//409 413//411 412//410 
f 413//411 410//408 412//410 
f 410//408 408//406 412//410 
f 411//409 414//412 415//413 
f 414//412 416//414 415//413 
f 416//414 413//411 415//413 
f 413//411 411//409 415//413 
f 414//412 417//415 418//416 
f 417//415 419//417 418//416 
f 419//417 416//414 418//416 
f 416//414 414//412 418//416 
f 417//415 420//418 421//419 
f 420//418 422//420 421//419 
f 422//420 419//417 421//419 
f 419//417 417//415 421//419 
f 420//418 423//421 424//422 
f 423//421 425//423 424//422 
f 425//423 422//420 424//422 
f 422//420 420//418 424//422 
f 423//421 426//424 427//425 
f 426//424 428//426 427//425 
f 428//426 425//423 427//425 
f 425//423 423//421 427//425 
f 426//424 429//427 430//428 
f 429//427 431//429 430//428 
f 431//429 428//426 430//428 
f 428//426 426//424 430//428 
f 429//427 432//430 433//431 
f 432//430 434//432 433//431 
f 434//432 431//429 433//431 
f 431//429 429//427 433//431 
f 432//430 435//433 436//434 
f 435//433 437//435 436//434 
f 437//435 434//432 436//434 
f 434//432 432//430 436//434 
f 435//433 438//436 439//437 
f 438//436 440//438 439//437 
f 440//438 437//435 439//437 
f 437//435 435//433 439//437 
f 438//436 441//439 442//440 
f 441//439 443//441 442//440 
f 443//441 440//438 442//440 
f 440//438 438//436 442//440 
f 441//439 444//442 445//443 
f 444//442 446//444 445//443 
f 446//444 443//441 445//443 
f 443//441 441//439 445//443 
s 3
f 444//442 340//338 447//445 
f 340//338 344//342 447//445 
f 344//342 446//444 447//445 
f 446//444 444//442 447//445 
s 16
f 2//2 1//1 448//446 
f 1//1 336//335 448//446 
f 336//335 333//332 448//446 
f 333//332 2//2 448//446 
f 56//56 59//59 449//447 
f 59//59 62//62 449//447 
f 62//62 56//56 449//447 
f 333//332 330//329 450//446 
f 330//329 6//6 450//446 
f 6//6 2//2 450//446 
f 2//2 333//332 450//446 
f 330//329 327//326 451//446 
f 327//326 9//9 451//446 
f 9//9 6//6 451//446 
f 6//6 330//329 451//446 
f 327//326 324//323 452//446 
f 324//323 12//12 452//446 
f 12//12 9//9 452//446 
f 9//9 327//326 452//446 
f 324//323 321//320 453//446 
f 321//320 18//18 453//446 
f 18//18 15//15 453//446 
f 15//15 12//12 453//446 
f 12//12 324//323 453//446 
f 321//320 318//317 454//446 
f 318//317 21//21 454//446 
f 21//21 18//18 454//446 
f 18//18 321//320 454//446 
f 318//317 315//314 455//446 
f 315//314 24//24 455//446 
f 24//24 21//21 455//446 
f 21//21 318//317 455//446 
f 315//314 312//311 456//446 
f 312//311 27//27 456//446 
f 27//27 24//24 456//446 
f 24//24 315//314 456//446 
f 312//311 309//308 457//446 
f 309//308 27//27 457//446 
f 27//27 312//311 457//446 
f 309//308 306//305 458//446 
f 306//305 30//30 458//446 
f 30//30 27//27 458//446 
f 27//27 309//308 458//446 
f 306//305 303//302 459//446 
f 303//302 33//33 459//446 
f 33//33 30//30 459//446 
f 30//30 306//305 459//446 
f 303//302 300//299 460//446 
f 300//299 33//33 460//446 
f 33//33 303//302 460//446 
f 300//299 297//296 461//446 
f 297//296 36//36 461//446 
f 36//36 33//33 461//446 
f 33//33 300//299 461//446 
f 297//296 294//293 462//446 
f 294//293 36//36 462//446 
f 36//36 297//296 462//446 
f 294//293 291//290 463//446 
f 291//290 39//39 463//446 
f 39//39 36//36 463//446 
f 36//36 294//293 463//446 
f 291//290 288//287 464//446 
f 288//287 39//39 464//446 
f 39//39 291//290 464//446 
f 288//287 285//284 465//446 
f 285//284 42//42 465//446 
f 42//42 39//39 465//446 
f 39//39 288//287 465//446 
f 285//284 282//281 466//446 
f 282//281 45//45 466//446 
f 45//45 42//42 466//446 
f 42//42 285//284 466//446 
f 282//281 279//278 467//446 
f 279//278 63//63 467//446 
f 63//63 60//60 467//446 
f 60//60 54//54 467//446 
f 54//54 51//51 467//446 
f 51//51 48//48 467//446 
f 48//48 45//45 467//446 
f 45//45 282//281 467//446 
f 255//254 252//251 468//446 
f 252//251 249//248 468//446 
f 249//248 255//254 468//446 
f 60//60 57//57 469//446 
f 57//57 54//54 469//446 
f 54//54 60//60 469//446 
f 249//248 246//245 470//446 
f 246//245 255//254 470//446 
f 255//254 249//248 470//446 
f 246//245 243//242 471//446 
f 243//242 255//254 471//446 
f 255//254 246//245 471//446 
f 243//242 240//239 472//446 
f 240//239 258//257 472//446 
f 258//257 255//254 472//446 
f 255//254 243//242 472//446 
f 240//239 237//236 473//446 
f 237//236 258//257 473//446 
f 258//257 240//239 473//446 
f 237//236 234//233 474//446 
f 234//233 261//260 474//446 
f 261//260 258//257 474//446 
f 258//257 237//236 474//446 
f 234//233 231//230 475//446 
f 231//230 264//263 475//446 
f 264//263 261//260 475//446 
f 261//260 234//233 475//446 
f 231//230 228//227 476//446 
f 228//227 276//275 476//446 
f 276//275 273//272 476//446 
f 273//272 270//269 476//446 
f 270//269 267//266 476//446 
f 267//266 264//263 476//446 
f 264//263 231//230 476//446 
f 228//227 225//224 477//446 
f 225//224 84//84 477//446 
f 84//84 81//81 477//446 
f 81//81 276//275 477//446 
f 276//275 228//227 477//446 
f 225//224 222//221 478//446 
f 222//221 84//84 478//446 
f 84//84 225//224 478//446 
f 81//81 78//78 479//446 
f 78//78 279//278 479//446 
f 279//278 276//275 479//446 
f 276//275 81//81 479//446 
f 78//78 75//75 480//446 
f 75//75 279//278 480//446 
f 279//278 78//78 480//446 
f 75//75 72//72 481//446 
f 72//72 279//278 481//446 
f 279//278 75//75 481//446 
f 72//72 69//69 482//446 
f 69//69 279//278 482//446 
f 279//278 72//72 482//446 
f 69//69 66//66 483//446 
f 66//66 279//278 483//446 
f 279//278 69//69 483//446 
f 66//66 63//63 484//446 
f 63//63 279//278 484//446 
f 279//278 66//66 484//446 
f 222//221 219//218 485//446 
f 219//218 84//84 485//446 
f 84//84 222//221 485//446 
f 219//218 216//215 486//446 
f 216//215 84//84 486//446 
f 84//84 219//218 486//446 
f 216//215 213//212 487//446 
f 213//212 84//84 487//446 
f 84//84 216//215 487//446 
f 213//212 210//209 488//446 
f 210//209 84//84 488//446 
f 84//84 213//212 488//446 
f 210//209 207//206 489//446 
f 207//206 84//84 489//446 
f 84//84 210//209 489//446 
f 207//206 204//203 490//446 
f 204//203 84//84 490//446 
f 84//84 207//206 490//446 
f 204//203 201//200 491//446 
f 201//200 84//84 491//446 
f 84//84 204//203 491//446 
f 201//200 198//198 492//446 
f 198//198 84//84 492//446 
f 84//84 201//200 492//446 
f 198//198 195//195 493//446 
f 363//361 360//358 493//446 
f 360//358 84//84 493//446 
f 84//84 198//198 493//446 
f 360//358 357//355 494//446 
f 357//355 84//84 494//446 
f 84//84 360//358 494//446 
f 357//355 354//352 495//446 
f 354//352 84//84 495//446 
f 84//84 357//355 495//446 
f 354//352 351//349 496//446 
f 351//349 84//84 496//446 
f 84//84 354//352 496//446 
f 351//349 348//346 497//446 
f 348//346 84//84 497//446 
f 84//84 351//349 497//446 
f 348//346 345//343 498//446 
f 345//343 114//114 498//446 
f 114//114 111//111 498//446 
f 111//111 108//108 498//446 
f 108//108 105//105 498//446 
f 105//105 102//102 498//446 
f 102//102 99//99 498//446 
f 99//99 96//96 498//446 
f 96//96 93//93 498//446 
f 93//93 90//90 498//446 
f 90//90 87//87 498//446 
f 87//87 84//84 498//446 
f 84//84 348//346 498//446 
f 345//343 341//339 499//446 
f 341//339 114//114 499//446 
f 114//114 345//343 499//446 
f 341//339 340//338 500//446 
f 340//338 114//114 500//446 
f 114//114 341//339 500//446 
f 340//338 444//442 501//446 
f 444//442 114//114 501//446 
f 114//114 340//338 501//446 
f 444//442 441//439 502//446 
f 441//439 114//114 502//446 
f 114//114 444//442 502//446 
f 441//439 438//436 503//446 
f 438//436 117//117 503//446 
f 117//117 114//114 503//446 
f 114//114 441//439 503//446 
f 438//436 435//433 504//446 
f 435//433 120//120 504//446 
f 120//120 117//117 504//446 
f 117//117 438//436 504//446 
f 435//433 432//430 505//446 
f 432//430 126//126 505//446 
f 126//126 123//123 505//446 
f 123//123 120//120 505//446 
f 120//120 435//433 505//446 
f 432//430 429//427 506//446 
f 429//427 129//129 506//446 
f 129//129 126//126 506//446 
f 126//126 432//430 506//446 
f 429//427 426//424 507//446 
f 426//424 132//132 507//446 
f 132//132 129//129 507//446 
f 129//129 429//427 507//446 
f 426//424 423//421 508//446 
f 423//421 135//135 508//446 
f 135//135 132//132 508//446 
f 132//132 426//424 508//446 
f 423//421 420//418 509//446 
f 420//418 138//138 509//446 
f 138//138 135//135 509//446 
f 135//135 423//421 509//446 
f 420//418 417//415 510//446 
f 417//415 141//141 510//446 
f 141//141 138//138 510//446 
f 138//138 420//418 510//446 
f 417//415 414//412 511//446 
f 414//412 144//144 511//446 
f 144//144 141//141 511//446 
f 141//141 417//415 511//446 
f 414//412 411//409 512//446 
f 411//409 147//147 512//446 
f 147//147 144//144 512//446 
f 144//144 414//412 512//446 
f 411//409 408//406 513//446 
f 408//406 150//150 513//446 
f 150//150 147//147 513//446 
f 147//147 411//409 513//446 
f 408//406 405//403 514//446 
f 405//403 153//153 514//446 
f 153//153 150//150 514//446 
f 150//150 408//406 514//446 
f 405//403 402//400 515//446 
f 402//400 156//156 515//446 
f 156//156 153//153 515//446 
f 153//153 405//403 515//446 
f 402//400 399//397 516//446 
f 399//397 159//159 516//446 
f 159//159 156//156 516//446 
f 156//156 402//400 516//446 
f 399//397 396//394 517//446 
f 396//394 162//162 517//446 
f 162//162 159//159 517//446 
f 159//159 399//397 517//446 
f 396//394 393//391 518//446 
f 393//391 165//165 518//446 
f 165//165 162//162 518//446 
f 162//162 396//394 518//446 
f 393//391 390//388 519//446 
f 390//388 168//168 519//446 
f 168//168 165//165 519//446 
f 165//165 393//391 519//446 
f 390//388 387//385 520//446 
f 387//385 171//171 520//446 
f 171//171 168//168 520//446 
f 168//168 390//388 520//446 
f 387//385 384//382 521//446 
f 384//382 174//174 521//446 
f 174//174 171//171 521//446 
f 171//171 387//385 521//446 
f 384//382 381//379 522//446 
f 381//379 177//177 522//446 
f 177//177 174//174 522//446 
f 174//174 384//382 522//446 
f 381//379 378//376 523//446 
f 378//376 180//180 523//446 
f 180//180 177//177 523//446 
f 177//177 381//379 523//446 
f 378//376 375//373 524//446 
f 375//373 183//183 524//446 
f 183//183 180//180 524//446 
f 180//180 378//376 524//446 
f 375//373 372//370 525//446 
f 372//370 186//186 525//446 
f 186//186 183//183 525//446 
f 183//183 375//373 525//446 
f 372//370 369//367 526//446 
f 369//367 189//189 526//446 
f 189//189 186//186 526//446 
f 186//186 372//370 526//446 
f 369//367 366//364 527//446 
f 366//364 192//192 527//446 
f 192//192 189//189 527//446 
f 189//189 369//367 527//446 
f 366//364 363//361 528//446 
f 363//361 493//446 195//195 528//446 
f 195//195 192//192 528//446 
f 192//192 366//364 528//446 
f 62//62 65//65 529//447 
f 65//65 53//53 529//447 
f 53//53 56//56 529//447 
f 56//56 62//62 529//447 
f 65//65 68//68 530//447 
f 68//68 281//280 530//447 
f 281//280 284//283 530//447 
f 284//283 47//47 530//447 
f 47//47 50//50 530//447 
f 50//50 53//53 530//447 
f 53//53 65//65 530//447 
f 68//68 71//71 531//447 
f 71//71 281//280 531//447 
f 281//280 68//68 531//447 
f 284//283 287//286 532//447 
f 287//286 44//44 532//447 
f 44//44 47//47 532//447 
f 47//47 284//283 532//447 
f 287//286 290//289 533//447 
f 290//289 41//41 533//447 
f 41//41 44//44 533//447 
f 44//44 287//286 533//447 
f 290//289 293//292 534//447 
f 293//292 41//41 534//447 
f 41//41 290//289 534//447 
f 293//292 296//295 535//447 
f 296//295 38//38 535//447 
f 38//38 41//41 535//447 
f 41//41 293//292 535//447 
f 296//295 299//298 536//447 
f 299//298 38//38 536//447 
f 38//38 296//295 536//447 
f 299//298 302//301 537//447 
f 302//301 35//35 537//447 
f 35//35 38//38 537//447 
f 38//38 299//298 537//447 
f 302//301 305//304 538//447 
f 305//304 35//35 538//447 
f 35//35 302//301 538//447 
f 305//304 308//307 539//447 
f 308//307 32//32 539//447 
f 32//32 35//35 539//447 
f 35//35 305//304 539//447 
f 308//307 311//310 540//447 
f 311//310 29//29 540//447 
f 29//29 32//32 540//447 
f 32//32 308//307 540//447 
f 311//310 314//313 541//447 
f 314//313 29//29 541//447 
f 29//29 311//310 541//447 
f 314//313 317//316 542//447 
f 317//316 26//26 542//447 
f 26//26 29//29 542//447 
f 29//29 314//313 542//447 
f 317//316 320//319 543//447 
f 320//319 23//23 543//447 
f 23//23 26//26 543//447 
f 26//26 317//316 543//447 
f 320//319 323//322 544//447 
f 323//322 20//20 544//447 
f 20//20 23//23 544//447 
f 23//23 320//319 544//447 
f 323//322 326//325 545//447 
f 326//325 14//14 545//447 
f 14//14 17//17 545//447 
f 17//17 20//20 545//447 
f 20//20 323//322 545//447 
f 326//325 329//328 546//447 
f 329//328 11//11 546//447 
f 11//11 14//14 546//447 
f 14//14 326//325 546//447 
f 329//328 332//331 547//447 
f 332//331 8//8 547//447 
f 8//8 11//11 547//447 
f 11//11 329//328 547//447 
f 332//331 335//334 548//447 
f 335//334 4//4 548//447 
f 4//4 8//8 548//447 
f 8//8 332//331 548//447 
f 335//334 338//336 549//447 
f 338//336 5//5 549//447 
f 5//5 4//4 549//447 
f 4//4 335//334 549//447 
f 71//71 74//74 550//447 
f 74//74 281//280 550//447 
f 281//280 71//71 550//447 
f 74//74 77//77 551//447 
f 77//77 281//280 551//447 
f 281//280 74//74 551//447 
f 77//77 80//80 552//447 
f 80//80 281//280 552//447 
f 281//280 77//77 552//447 
f 80//80 83//83 553//447 
f 83//83 278//277 553//447 
f 278//277 281//280 553//447 
f 281//280 80//80 553//447 
f 83//83 86//86 554//447 
f 86//86 230//229 554//447 
f 230//229 233//232 554//447 
f 233//232 266//265 554//447 
f 266//265 269//268 554//447 
f 269//268 272//271 554//447 
f 272//271 275//274 554//447 
f 275//274 278//277 554//447 
f 278//277 83//83 554//447 
f 86//86 89//89 555//447 
f 89//89 92//92 555//447 
f 92//92 95//95 555//447 
f 95//95 98//98 555//447 
f 98//98 101//101 555//447 
f 101//101 104//104 555//447 
f 104//104 107//107 555//447 
f 107//107 110//110 555//447 
f 110//110 113//113 555//447 
f 113//113 116//116 555//447 
f 116//116 350//348 555//447 
f 350//348 353//351 555//447 
f 353//351 86//86 555//447 
f 233//232 236//235 556//447 
f 236//235 263//262 556//447 
f 263//262 266//265 556//447 
f 266//265 233//232 556//447 
f 236//235 239//238 557//447 
f 239//238 260//259 557//447 
f 260//259 263//262 557//447 
f 263//262 236//235 557//447 
f 239//238 242//241 558//447 
f 242//241 260//259 558//447 
f 260//259 239//238 558//447 
f 242//241 245//244 559//447 
f 245//244 257//256 559//447 
f 257//256 260//259 559//447 
f 260//259 242//241 559//447 
f 245//244 248//247 560//447 
f 248//247 257//256 560//447 
f 257//256 245//244 560//447 
f 248//247 251//250 561//447 
f 251//250 257//256 561//447 
f 257//256 248//247 561//447 
f 251//250 254//253 562//447 
f 254//253 257//256 562//447 
f 257//256 251//250 562//447 
f 194//194 197//197 563//447 
f 197//197 564//447 365//363 563//447 
f 365//363 368//366 563//447 
f 368//366 194//194 563//447 
f 353//351 356//354 565//447 
f 356//354 86//86 565//447 
f 86//86 353//351 565//447 
f 356//354 359//357 566//447 
f 359//357 86//86 566//447 
f 86//86 356//354 566//447 
f 359//357 362//360 567//447 
f 362//360 86//86 567//447 
f 86//86 359//357 567//447 
f 362//360 365//363 564//447 
f 197//197 200//199 564//447 
f 200//199 86//86 564//447 
f 86//86 362//360 564//447 
f 200//199 203//202 568//447 
f 203//202 86//86 568//447 
f 86//86 200//199 568//447 
f 203//202 206//205 569//447 
f 206//205 86//86 569//447 
f 86//86 203//202 569//447 
f 206//205 209//208 570//447 
f 209//208 86//86 570//447 
f 86//86 206//205 570//447 
f 209//208 212//211 571//447 
f 212//211 86//86 571//447 
f 86//86 209//208 571//447 
f 212//211 215//214 572//447 
f 215//214 86//86 572//447 
f 86//86 212//211 572//447 
f 215//214 218//217 573//447 
f 218//217 86//86 573//447 
f 86//86 215//214 573//447 
f 218//217 221//220 574//447 
f 221//220 86//86 574//447 
f 86//86 218//217 574//447 
f 221//220 224//223 575//447 
f 224//223 86//86 575//447 
f 86//86 221//220 575//447 
f 224//223 227//226 576//447 
f 227//226 86//86 576//447 
f 86//86 224//223 576//447 
f 227//226 230//229 577//447 
f 230//229 86//86 577//447 
f 86//86 227//226 577//447 
f 368//366 371//369 578//447 
f 371//369 191//191 578//447 
f 191//191 194//194 578//447 
f 194//194 368//366 578//447 
f 371//369 374//372 579//447 
f 374//372 188//188 579//447 
f 188//188 191//191 579//447 
f 191//191 371//369 579//447 
f 374//372 377//375 580//447 
f 377//375 185//185 580//447 
f 185//185 188//188 580//447 
f 188//188 374//372 580//447 
f 377//375 380//378 581//447 
f 380//378 182//182 581//447 
f 182//182 185//185 581//447 
f 185//185 377//375 581//447 
f 380//378 383//381 582//447 
f 383//381 179//179 582//447 
f 179//179 182//182 582//447 
f 182//182 380//378 582//447 
f 383//381 386//384 583//447 
f 386//384 176//176 583//447 
f 176//176 179//179 583//447 
f 179//179 383//381 583//447 
f 386//384 389//387 584//447 
f 389//387 173//173 584//447 
f 173//173 176//176 584//447 
f 176//176 386//384 584//447 
f 389//387 392//390 585//447 
f 392//390 170//170 585//447 
f 170//170 173//173 585//447 
f 173//173 389//387 585//447 
f 392//390 395//393 586//447 
f 395//393 167//167 586//447 
f 167//167 170//170 586//447 
f 170//170 392//390 586//447 
f 395//393 398//396 587//447 
f 398//396 164//164 587//447 
f 164//164 167//167 587//447 
f 167//167 395//393 587//447 
f 398//396 401//399 588//447 
f 401//399 161//161 588//447 
f 161//161 164//164 588//447 
f 164//164 398//396 588//447 
f 401//399 404//402 589//447 
f 404//402 158//158 589//447 
f 158//158 161//161 589//447 
f 161//161 401//399 589//447 
f 404//402 407//405 590//447 
f 407//405 155//155 590//447 
f 155//155 158//158 590//447 
f 158//158 404//402 590//447 
f 407//405 410//408 591//447 
f 410//408 152//152 591//447 
f 152//152 155//155 591//447 
f 155//155 407//405 591//447 
f 410//408 413//411 592//447 
f 413//411 149//149 592//447 
f 149//149 152//152 592//447 
f 152//152 410//408 592//447 
f 413//411 416//414 593//447 
f 416//414 146//146 593//447 
f 146//146 149//149 593//447 
f 149//149 413//411 593//447 
f 416//414 419//417 594//447 
f 419//417 143//143 594//447 
f 143//143 146//146 594//447 
f 146//146 416//414 594//447 
f 419//417 422//420 595//447 
f 422//420 140//140 595//447 
f 140//140 143//143 595//447 
f 143//143 419//417 595//447 
f 422//420 425//423 596//447 
f 425//423 137//137 596//447 
f 137//137 140//140 596//447 
f 140//140 422//420 596//447 
f 425//423 428//426 597//447 
f 428//426 134//134 597//447 
f 134//134 137//137 597//447 
f 137//137 425//423 597//447 
f 428//426 431//429 598//447 
f 431//429 131//131 598//447 
f 131//131 134//134 598//447 
f 134//134 428//426 598//447 
f 431//429 434//432 599//447 
f 434//432 128//128 599//447 
f 128//128 131//131 599//447 
f 131//131 431//429 599//447 
f 434//432 437//435 600//447 
f 437//435 122//122 600//447 
f 122//122 125//125 600//447 
f 125//125 128//128 600//447 
f 128//128 434//432 600//447 
f 437//435 440//438 601//447 
f 440//438 119//119 601//447 
f 119//119 122//122 601//447 
f 122//122 437//435 601//447 
f 440//438 443//441 602//447 
f 443//441 116//116 602//447 
f 116//116 119//119 602//447 
f 119//119 440//438 602//447 
f 443//441 446//444 603//447 
f 446//444 116//116 603//447 
f 116//116 443//441 603//447 
f 446//444 344//342 604//447 
f 344//342 116//116 604//447 
f 116//116 446//444 604//447 
f 344//342 343//341 605//447 
f 343//341 116//116 605//447 
f 116//116 344//342 605//447 
f 343//341 347//345 606//447 
f 347//345 116//116 606//447 
f 116//116 343//341 606//447 
f 347//345 350//348 607//447 
f 350//348 116//116 607//447 
f 116//116 347//345 607//447 
# 2 polygons - 1210 triangles

