# 3ds Max Wavefront OBJ Exporter v0.97b - (c)2007 guruware
# File Created: 10.09.2021 11:02:49

#
# object No_Nee
#

v  1364.8945 0.0000 -22.2387
v  1365.3157 0.0000 -21.7462
v  1365.1051 5.0000 -21.9925
v  1365.3157 10.0000 -21.7462
v  1364.8945 10.0000 -22.2387
v  1365.7755 0.0000 -21.1650
v  1365.5455 5.0000 -21.4556
v  1365.7755 10.0000 -21.1650
v  1366.2742 0.0000 -20.4951
v  1366.0248 5.0000 -20.8301
v  1366.2742 10.0000 -20.4951
v  1366.8116 0.0000 -19.7365
v  1366.5430 5.0000 -20.1158
v  1366.8116 10.0000 -19.7365
v  1367.3879 0.0000 -18.8892
v  1367.0999 5.0000 -19.3129
v  1367.3879 10.0000 -18.8892
v  1368.0032 0.0000 -17.9532
v  1367.6956 5.0000 -18.4212
v  1368.0032 10.0000 -17.9532
v  1368.6571 0.0000 -16.9286
v  1368.3301 5.0000 -17.4409
v  1368.6571 10.0000 -16.9286
v  1369.3499 0.0000 -15.8152
v  1369.0035 5.0000 -16.3719
v  1369.3499 10.0000 -15.8152
v  1370.8041 0.0000 -13.5650
v  1370.0770 5.0000 -14.6901
v  1370.8041 10.0000 -13.5650
v  1372.2374 0.0000 -11.5795
v  1371.5208 5.0000 -12.5723
v  1372.2374 10.0000 -11.5795
v  1373.6499 0.0000 -9.8588
v  1372.9436 5.0000 -10.7192
v  1373.6499 10.0000 -9.8588
v  1375.0415 0.0000 -8.4028
v  1374.3457 5.0000 -9.1308
v  1375.0415 10.0000 -8.4028
v  1376.4122 0.0000 -7.2115
v  1375.7268 5.0000 -7.8071
v  1376.4122 10.0000 -7.2115
v  1377.7621 0.0000 -6.2850
v  1377.0872 5.0000 -6.7482
v  1377.7621 10.0000 -6.2850
v  1379.0911 0.0000 -5.6231
v  1378.4265 5.0000 -5.9541
v  1379.0911 10.0000 -5.6231
v  1380.3992 0.0000 -5.2260
v  1379.7451 5.0000 -5.4246
v  1380.3992 10.0000 -5.2260
v  1381.6864 0.0000 -5.0937
v  1381.0427 5.0000 -5.1599
v  1381.6864 10.0000 -5.0937
v  1383.4883 0.0000 -5.2068
v  1382.5874 5.0000 -5.1502
v  1383.4883 10.0000 -5.2068
v  1385.0782 0.0000 -5.5460
v  1384.2833 5.0000 -5.3764
v  1385.0782 10.0000 -5.5460
v  1386.4562 0.0000 -6.1114
v  1385.7672 5.0000 -5.8287
v  1386.4562 10.0000 -6.1114
v  1387.6222 0.0000 -6.9029
v  1387.0392 5.0000 -6.5072
v  1387.6222 10.0000 -6.9029
v  1388.5762 0.0000 -7.9206
v  1388.0992 5.0000 -7.4118
v  1388.5762 10.0000 -7.9206
v  1389.3181 0.0000 -9.1645
v  1388.9471 5.0000 -8.5426
v  1389.3181 10.0000 -9.1645
v  1389.8481 0.0000 -10.6345
v  1389.5831 5.0000 -9.8995
v  1389.8481 10.0000 -10.6345
v  1390.1661 0.0000 -12.3307
v  1390.0071 5.0000 -11.4826
v  1390.1661 10.0000 -12.3307
v  1390.2721 0.0000 -14.2530
v  1390.2191 5.0000 -13.2918
v  1390.2721 10.0000 -14.2530
v  1390.2721 0.0000 -54.6812
v  1390.2721 5.0000 -34.4671
v  1390.2721 10.0000 -54.6812
v  1380.4512 0.0000 -54.6812
v  1385.3617 5.0000 -54.6812
v  1380.4512 10.0000 -54.6812
v  1380.4512 0.0000 -18.1974
v  1380.4512 5.0000 -36.4393
v  1380.4512 10.0000 -18.1974
v  1380.4341 0.0000 -17.4240
v  1380.4426 5.0000 -17.8107
v  1380.4341 10.0000 -17.4240
v  1380.3827 0.0000 -16.7415
v  1380.4083 5.0000 -17.0827
v  1380.3827 10.0000 -16.7415
v  1380.2969 0.0000 -16.1500
v  1380.3398 5.0000 -16.4458
v  1380.2969 10.0000 -16.1500
v  1380.1769 0.0000 -15.6495
v  1380.2369 5.0000 -15.8998
v  1380.1769 10.0000 -15.6495
v  1380.0226 0.0000 -15.2401
v  1380.0997 5.0000 -15.4448
v  1380.0226 10.0000 -15.2401
v  1379.8341 0.0000 -14.9216
v  1379.9283 5.0000 -15.0808
v  1379.8341 10.0000 -14.9216
v  1379.6112 0.0000 -14.6941
v  1379.7227 5.0000 -14.8078
v  1379.6112 10.0000 -14.6941
v  1379.3540 0.0000 -14.5576
v  1379.4827 5.0000 -14.6258
v  1379.3540 10.0000 -14.5576
v  1379.0626 0.0000 -14.5121
v  1379.2084 5.0000 -14.5348
v  1379.0626 10.0000 -14.5121
v  1378.8807 0.0000 -14.6055
v  1378.9717 5.0000 -14.5588
v  1378.8807 10.0000 -14.6055
v  1378.5767 0.0000 -14.8857
v  1378.7286 5.0000 -14.7456
v  1378.5767 10.0000 -14.8857
v  1378.1503 0.0000 -15.3527
v  1378.3634 5.0000 -15.1192
v  1378.1503 10.0000 -15.3527
v  1377.6017 0.0000 -16.0065
v  1377.8760 5.0000 -15.6796
v  1377.6017 10.0000 -16.0065
v  1376.9309 0.0000 -16.8472
v  1377.2662 5.0000 -16.4269
v  1376.9309 10.0000 -16.8472
v  1376.1378 0.0000 -17.8746
v  1376.5343 5.0000 -17.3609
v  1376.1378 10.0000 -17.8746
v  1375.2225 0.0000 -19.0889
v  1375.6802 5.0000 -18.4817
v  1375.2225 10.0000 -19.0889
v  1374.1849 0.0000 -20.4899
v  1374.7037 5.0000 -19.7894
v  1374.1849 10.0000 -20.4899
v  1373.0251 0.0000 -22.0778
v  1373.6051 5.0000 -21.2838
v  1373.0251 10.0000 -22.0778
v  1371.8348 0.0000 -23.6746
v  1372.4299 5.0000 -22.8762
v  1371.8348 10.0000 -23.6746
v  1370.7056 0.0000 -25.1026
v  1371.2703 5.0000 -24.3886
v  1370.7056 10.0000 -25.1026
v  1369.6375 0.0000 -26.3617
v  1370.1715 5.0000 -25.7321
v  1369.6375 10.0000 -26.3617
v  1368.6305 0.0000 -27.4519
v  1369.1340 5.0000 -26.9068
v  1368.6305 10.0000 -27.4519
v  1367.6847 0.0000 -28.3734
v  1368.1576 5.0000 -27.9127
v  1367.6847 10.0000 -28.3734
v  1366.7999 0.0000 -29.1259
v  1367.2423 5.0000 -28.7496
v  1366.7999 10.0000 -29.1259
v  1365.9763 0.0000 -29.7096
v  1366.3881 5.0000 -29.4178
v  1365.9763 10.0000 -29.7096
v  1365.2137 0.0000 -30.1244
v  1365.5950 5.0000 -29.9170
v  1365.2137 10.0000 -30.1244
v  1364.5123 0.0000 -30.3704
v  1364.8630 5.0000 -30.2474
v  1364.5123 10.0000 -30.3704
v  1364.5123 0.0000 -43.8440
v  1364.5123 5.0000 -37.1072
v  1364.5123 10.0000 -43.8440
v  1364.3802 0.0000 -46.1522
v  1364.4463 5.0000 -44.9981
v  1364.3802 10.0000 -46.1522
v  1363.9838 0.0000 -48.1890
v  1364.1820 5.0000 -47.1706
v  1363.9838 10.0000 -48.1890
v  1363.3230 0.0000 -49.9541
v  1363.6534 5.0000 -49.0715
v  1363.3230 10.0000 -49.9541
v  1362.3981 0.0000 -51.4477
v  1362.8606 5.0000 -50.7009
v  1362.3981 10.0000 -51.4477
v  1361.2087 0.0000 -52.6697
v  1361.8033 5.0000 -52.0587
v  1361.2087 10.0000 -52.6697
v  1359.7551 0.0000 -53.6202
v  1360.4819 5.0000 -53.1449
v  1359.7551 10.0000 -53.6202
v  1358.0372 0.0000 -54.2991
v  1358.8961 5.0000 -53.9596
v  1358.0372 10.0000 -54.2991
v  1356.0549 0.0000 -54.7064
v  1357.0461 5.0000 -54.5027
v  1356.0549 10.0000 -54.7064
v  1353.8085 0.0000 -54.8422
v  1354.9318 5.0000 -54.7743
v  1353.8085 10.0000 -54.8422
v  1352.9309 0.0000 -54.8121
v  1353.3698 5.0000 -54.8272
v  1352.9309 10.0000 -54.8121
v  1352.0883 0.0000 -54.7220
v  1352.5095 5.0000 -54.7671
v  1352.0883 10.0000 -54.7220
v  1351.2803 0.0000 -54.5718
v  1351.6843 5.0000 -54.6469
v  1351.2803 10.0000 -54.5718
v  1350.5073 0.0000 -54.3614
v  1350.8938 5.0000 -54.4666
v  1350.5073 10.0000 -54.3614
v  1349.7690 0.0000 -54.0910
v  1350.1382 5.0000 -54.2262
v  1349.7690 10.0000 -54.0910
v  1349.0658 0.0000 -53.7605
v  1349.4175 5.0000 -53.9257
v  1349.0658 10.0000 -53.7605
v  1348.3972 0.0000 -53.3699
v  1348.7314 5.0000 -53.5652
v  1348.3972 10.0000 -53.3699
v  1347.7635 0.0000 -52.9191
v  1348.0804 5.0000 -53.1445
v  1347.7635 10.0000 -52.9191
v  1347.1648 0.0000 -52.4083
v  1347.4642 5.0000 -52.6637
v  1347.1648 10.0000 -52.4083
v  1346.6157 0.0000 -51.8471
v  1346.8903 5.0000 -52.1277
v  1346.6157 10.0000 -51.8471
v  1346.1312 0.0000 -51.2450
v  1346.3735 5.0000 -51.5460
v  1346.1312 10.0000 -51.2450
v  1345.7113 0.0000 -50.6020
v  1345.9213 5.0000 -50.9235
v  1345.7113 10.0000 -50.6020
v  1345.3561 0.0000 -49.9182
v  1345.5337 5.0000 -50.2601
v  1345.3561 10.0000 -49.9182
v  1345.0653 0.0000 -49.1936
v  1345.2107 5.0000 -49.5559
v  1345.0653 10.0000 -49.1936
v  1344.8392 0.0000 -48.4281
v  1344.9523 5.0000 -48.8108
v  1344.8392 10.0000 -48.4281
v  1344.6777 0.0000 -47.6218
v  1344.7585 5.0000 -48.0249
v  1344.6777 10.0000 -47.6218
v  1344.5808 0.0000 -46.7746
v  1344.6293 5.0000 -47.1982
v  1344.5808 10.0000 -46.7746
v  1344.5486 0.0000 -45.8867
v  1344.5647 5.0000 -46.3306
v  1344.5486 10.0000 -45.8867
v  1344.6738 0.0000 -44.0831
v  1344.6112 5.0000 -44.9849
v  1344.6738 10.0000 -44.0831
v  1345.0494 0.0000 -42.4918
v  1344.8616 5.0000 -43.2874
v  1345.0494 10.0000 -42.4918
v  1345.6755 0.0000 -41.1126
v  1345.3625 5.0000 -41.8022
v  1345.6755 10.0000 -41.1126
v  1346.5521 0.0000 -39.9456
v  1346.1139 5.0000 -40.5291
v  1346.5521 10.0000 -39.9456
v  1347.6791 0.0000 -38.9908
v  1347.1156 5.0000 -39.4682
v  1347.6791 10.0000 -38.9908
v  1349.0565 0.0000 -38.2482
v  1348.3678 5.0000 -38.6195
v  1349.0565 10.0000 -38.2482
v  1350.6844 0.0000 -37.7177
v  1349.8705 5.0000 -37.9829
v  1350.6844 10.0000 -37.7177
v  1352.5627 0.0000 -37.3995
v  1351.6235 5.0000 -37.5586
v  1352.5627 10.0000 -37.3995
v  1354.6915 0.0000 -37.2934
v  1353.6271 5.0000 -37.3464
v  1354.6915 10.0000 -37.2934
v  1354.6915 0.0000 -31.4974
v  1354.6915 5.0000 -34.3954
v  1354.6915 10.0000 -31.4974
v  1353.3999 0.0000 -31.4441
v  1354.0457 5.0000 -31.4707
v  1353.3999 10.0000 -31.4441
v  1352.1785 0.0000 -31.2841
v  1352.7892 5.0000 -31.3641
v  1352.1785 10.0000 -31.2841
v  1351.0270 0.0000 -31.0174
v  1351.6027 5.0000 -31.1507
v  1351.0270 10.0000 -31.0174
v  1349.9456 0.0000 -30.6440
v  1350.4862 5.0000 -30.8307
v  1349.9456 10.0000 -30.6440
v  1348.9341 0.0000 -30.1639
v  1349.4398 5.0000 -30.4039
v  1348.9341 10.0000 -30.1639
v  1347.9927 0.0000 -29.5772
v  1348.4634 5.0000 -29.8705
v  1347.9927 10.0000 -29.5772
v  1347.1213 0.0000 -28.8838
v  1347.5570 5.0000 -29.2305
v  1347.1213 10.0000 -28.8838
v  1346.3201 0.0000 -28.0837
v  1346.7207 5.0000 -28.4837
v  1346.3201 10.0000 -28.0837
v  1345.5887 0.0000 -27.1769
v  1345.9543 5.0000 -27.6303
v  1345.5887 10.0000 -27.1769
v  1344.9312 0.0000 -26.2071
v  1345.2600 5.0000 -26.6920
v  1344.9312 10.0000 -26.2071
v  1344.3510 0.0000 -25.2181
v  1344.6411 5.0000 -25.7126
v  1344.3510 10.0000 -25.2181
v  1343.8481 0.0000 -24.2097
v  1344.0996 5.0000 -24.7139
v  1343.8481 10.0000 -24.2097
v  1343.4226 0.0000 -23.1821
v  1343.6354 5.0000 -23.6959
v  1343.4226 10.0000 -23.1821
v  1343.0745 0.0000 -22.1352
v  1343.2485 5.0000 -22.6587
v  1343.0745 10.0000 -22.1352
v  1342.8037 0.0000 -21.0690
v  1342.9391 5.0000 -21.6021
v  1342.8037 10.0000 -21.0690
v  1342.6104 0.0000 -19.9835
v  1342.7070 5.0000 -20.5263
v  1342.6104 10.0000 -19.9835
v  1342.4943 0.0000 -18.8788
v  1342.5522 5.0000 -19.4311
v  1342.4943 10.0000 -18.8788
v  1342.4556 0.0000 -17.7547
v  1342.4750 5.0000 -18.3167
v  1342.4556 10.0000 -17.7547
v  1342.5906 0.0000 -15.0974
v  1342.5231 5.0000 -16.4261
v  1342.5906 10.0000 -15.0974
v  1342.9957 0.0000 -12.7528
v  1342.7932 5.0000 -13.9251
v  1342.9957 10.0000 -12.7528
v  1343.6709 0.0000 -10.7208
v  1343.3334 5.0000 -11.7368
v  1343.6709 10.0000 -10.7208
v  1344.6162 0.0000 -9.0014
v  1344.1436 5.0000 -9.8611
v  1344.6162 10.0000 -9.0014
v  1345.8314 0.0000 -7.5946
v  1345.2238 5.0000 -8.2980
v  1345.8314 10.0000 -7.5946
v  1347.3169 0.0000 -6.5005
v  1346.5742 5.0000 -7.0475
v  1347.3169 10.0000 -6.5005
v  1349.0723 0.0000 -5.7189
v  1348.1946 5.0000 -6.1097
v  1349.0723 10.0000 -5.7189
v  1351.0978 0.0000 -5.2500
v  1350.0851 5.0000 -5.4845
v  1351.0978 10.0000 -5.2500
v  1353.3934 0.0000 -5.0937
v  1352.2456 5.0000 -5.1718
v  1353.3934 10.0000 -5.0937
v  1355.7271 0.0000 -5.2215
v  1354.5602 5.0000 -5.1576
v  1355.7271 10.0000 -5.2215
v  1357.7861 0.0000 -5.6049
v  1356.7566 5.0000 -5.4132
v  1357.7861 10.0000 -5.6049
v  1359.5706 0.0000 -6.2439
v  1358.6783 5.0000 -5.9244
v  1359.5706 10.0000 -6.2439
v  1361.0806 0.0000 -7.1385
v  1360.3256 5.0000 -6.6912
v  1361.0806 10.0000 -7.1385
v  1362.3160 0.0000 -8.2887
v  1361.6984 5.0000 -7.7136
v  1362.3160 10.0000 -8.2887
v  1363.2770 0.0000 -9.6944
v  1362.7965 5.0000 -8.9915
v  1363.2770 10.0000 -9.6944
v  1363.9633 0.0000 -11.3558
v  1363.6201 5.0000 -10.5251
v  1363.9633 10.0000 -11.3558
v  1364.3751 0.0000 -13.2728
v  1364.1692 5.0000 -12.3143
v  1364.3751 10.0000 -13.2728
v  1364.5123 0.0000 -15.4454
v  1364.4437 5.0000 -14.3591
v  1364.5123 10.0000 -15.4454
v  1364.5123 0.0000 -22.6425
v  1364.5123 5.0000 -19.0439
v  1364.5123 10.0000 -22.6425
v  1364.7035 5.0000 -22.4406
v  1354.7948 0.0000 -49.9639
v  1355.5253 0.0000 -49.8189
v  1355.1600 5.0000 -49.8914
v  1355.5253 10.0000 -49.8189
v  1354.7948 10.0000 -49.9639
v  1356.1583 0.0000 -49.5773
v  1355.8418 5.0000 -49.6981
v  1356.1583 10.0000 -49.5773
v  1356.6940 0.0000 -49.2390
v  1356.4261 5.0000 -49.4082
v  1356.6940 10.0000 -49.2390
v  1357.1323 0.0000 -48.8041
v  1356.9132 5.0000 -49.0216
v  1357.1323 10.0000 -48.8041
v  1357.4731 0.0000 -48.2726
v  1357.3027 5.0000 -48.5383
v  1357.4731 10.0000 -48.2726
v  1357.7167 0.0000 -47.6443
v  1357.5950 5.0000 -47.9584
v  1357.7167 10.0000 -47.6443
v  1357.8628 0.0000 -46.9195
v  1357.7897 5.0000 -47.2819
v  1357.8628 10.0000 -46.9195
v  1357.9115 0.0000 -46.0980
v  1357.8871 5.0000 -46.5087
v  1357.9115 10.0000 -46.0980
v  1357.8628 0.0000 -45.2638
v  1357.8871 5.0000 -45.6809
v  1357.8628 10.0000 -45.2638
v  1357.7167 0.0000 -44.5277
v  1357.7897 5.0000 -44.8958
v  1357.7167 10.0000 -44.5277
v  1357.4731 0.0000 -43.8898
v  1357.5950 5.0000 -44.2088
v  1357.4731 10.0000 -43.8898
v  1357.1323 0.0000 -43.3501
v  1357.3027 5.0000 -43.6199
v  1357.1323 10.0000 -43.3501
v  1356.6940 0.0000 -42.9084
v  1356.9132 5.0000 -43.1292
v  1356.6940 10.0000 -42.9084
v  1356.1583 0.0000 -42.5649
v  1356.4261 5.0000 -42.7367
v  1356.1583 10.0000 -42.5649
v  1355.5253 0.0000 -42.3196
v  1355.8418 5.0000 -42.4423
v  1355.5253 10.0000 -42.3196
v  1354.7948 0.0000 -42.1724
v  1355.1600 5.0000 -42.2460
v  1354.7948 10.0000 -42.1724
v  1353.9670 0.0000 -42.1233
v  1354.3809 5.0000 -42.1479
v  1353.9670 10.0000 -42.1233
v  1353.1392 0.0000 -42.1724
v  1353.5531 5.0000 -42.1479
v  1353.1392 10.0000 -42.1724
v  1352.4087 0.0000 -42.3196
v  1352.7739 5.0000 -42.2460
v  1352.4087 10.0000 -42.3196
v  1351.7756 0.0000 -42.5649
v  1352.0922 5.0000 -42.4423
v  1351.7756 10.0000 -42.5649
v  1351.2400 0.0000 -42.9084
v  1351.5078 5.0000 -42.7367
v  1351.2400 10.0000 -42.9084
v  1350.8016 0.0000 -43.3501
v  1351.0208 5.0000 -43.1292
v  1350.8016 10.0000 -43.3501
v  1350.4608 0.0000 -43.8898
v  1350.6312 5.0000 -43.6199
v  1350.4608 10.0000 -43.8898
v  1350.2173 0.0000 -44.5277
v  1350.3391 5.0000 -44.2088
v  1350.2173 10.0000 -44.5277
v  1350.0712 0.0000 -45.2638
v  1350.1443 5.0000 -44.8958
v  1350.0712 10.0000 -45.2638
v  1350.0225 0.0000 -46.0980
v  1350.0469 5.0000 -45.6809
v  1350.0225 10.0000 -46.0980
v  1350.0712 0.0000 -46.9195
v  1350.0469 5.0000 -46.5087
v  1350.0712 10.0000 -46.9195
v  1350.2173 0.0000 -47.6443
v  1350.1443 5.0000 -47.2819
v  1350.2173 10.0000 -47.6443
v  1350.4608 0.0000 -48.2726
v  1350.3391 5.0000 -47.9585
v  1350.4608 10.0000 -48.2726
v  1350.8016 0.0000 -48.8041
v  1350.6312 5.0000 -48.5383
v  1350.8016 10.0000 -48.8041
v  1351.2400 0.0000 -49.2390
v  1351.0208 5.0000 -49.0216
v  1351.2400 10.0000 -49.2390
v  1351.7756 0.0000 -49.5773
v  1351.5078 5.0000 -49.4082
v  1351.7756 10.0000 -49.5773
v  1352.4087 0.0000 -49.8189
v  1352.0922 5.0000 -49.6981
v  1352.4087 10.0000 -49.8189
v  1353.1392 0.0000 -49.9639
v  1352.7739 5.0000 -49.8914
v  1353.1392 10.0000 -49.9639
v  1353.9670 0.0000 -50.0122
v  1353.5531 5.0000 -49.9881
v  1353.9670 10.0000 -50.0122
v  1354.3809 5.0000 -49.9881
v  1348.9670 0.0000 -18.8859
v  1349.1818 0.0000 -20.2946
v  1349.0745 5.0000 -19.5902
v  1349.1818 10.0000 -20.2946
v  1348.9670 10.0000 -18.8859
v  1349.5396 0.0000 -21.5155
v  1349.3606 5.0000 -20.9051
v  1349.5396 10.0000 -21.5155
v  1350.0404 0.0000 -22.5486
v  1349.7899 5.0000 -22.0321
v  1350.0404 10.0000 -22.5486
v  1350.6844 0.0000 -23.3938
v  1350.3624 5.0000 -22.9712
v  1350.6844 10.0000 -23.3938
v  1351.4716 0.0000 -24.0512
v  1351.0780 5.0000 -23.7225
v  1351.4716 10.0000 -24.0512
v  1352.4017 0.0000 -24.5208
v  1351.9366 5.0000 -24.2860
v  1352.4017 10.0000 -24.5208
v  1353.4751 0.0000 -24.8026
v  1352.9384 5.0000 -24.6617
v  1353.4751 10.0000 -24.8026
v  1354.6915 0.0000 -24.8965
v  1354.0833 5.0000 -24.8495
v  1354.6915 10.0000 -24.8965
v  1354.6915 0.0000 -14.9523
v  1354.6915 5.0000 -19.9244
v  1354.6915 10.0000 -14.9523
v  1354.6600 0.0000 -14.3362
v  1354.6758 5.0000 -14.6443
v  1354.6600 10.0000 -14.3362
v  1354.5659 0.0000 -13.7925
v  1354.6130 5.0000 -14.0644
v  1354.5659 10.0000 -13.7925
v  1354.4089 0.0000 -13.3214
v  1354.4874 5.0000 -13.5570
v  1354.4089 10.0000 -13.3214
v  1354.1891 0.0000 -12.9227
v  1354.2990 5.0000 -13.1220
v  1354.1891 10.0000 -12.9227
v  1353.9065 0.0000 -12.5965
v  1354.0479 5.0000 -12.7596
v  1353.9065 10.0000 -12.5965
v  1353.5612 0.0000 -12.3428
v  1353.7339 5.0000 -12.4697
v  1353.5612 10.0000 -12.3428
v  1353.1530 0.0000 -12.1616
v  1353.3571 5.0000 -12.2522
v  1353.1530 10.0000 -12.1616
v  1352.6820 0.0000 -12.0529
v  1352.9175 5.0000 -12.1072
v  1352.6820 10.0000 -12.0529
v  1352.1482 0.0000 -12.0166
v  1352.4150 5.0000 -12.0347
v  1352.1482 10.0000 -12.0166
v  1351.4656 0.0000 -12.0817
v  1351.8069 5.0000 -12.0492
v  1351.4656 10.0000 -12.0817
v  1350.8632 0.0000 -12.2770
v  1351.1644 5.0000 -12.1794
v  1350.8632 10.0000 -12.2770
v  1350.3412 0.0000 -12.6025
v  1350.6022 5.0000 -12.4397
v  1350.3412 10.0000 -12.6025
v  1349.8994 0.0000 -13.0581
v  1350.1204 5.0000 -12.8303
v  1349.8994 10.0000 -13.0581
v  1349.5381 0.0000 -13.6440
v  1349.7188 5.0000 -13.3511
v  1349.5381 10.0000 -13.6440
v  1349.2570 0.0000 -14.3600
v  1349.3975 5.0000 -14.0020
v  1349.2570 10.0000 -14.3600
v  1349.0562 0.0000 -15.2063
v  1349.1565 5.0000 -14.7832
v  1349.0562 10.0000 -15.2063
v  1348.9357 0.0000 -16.1827
v  1348.9960 5.0000 -15.6945
v  1348.9357 10.0000 -16.1827
v  1348.8955 0.0000 -17.2893
v  1348.9156 5.0000 -16.7360
v  1348.8955 10.0000 -17.2893
v  1348.9313 5.0000 -18.0876
v  1353.6873 0.0000 -28.7849
v  1354.8789 10.0000 -35.6358
v  1351.8055 0.0000 -28.4538
v  1354.8999 0.0000 -34.0017
v  1362.1938 0.0000 -43.5955
v  1365.1077 0.0000 -27.3030
v  1360.7216 0.0000 -48.1767
v  1360.2278 0.0000 -49.3297
v  1359.5531 0.0000 -50.2985
v  1358.6975 0.0000 -51.0833
v  1357.6611 0.0000 -51.6839
v  1356.4440 0.0000 -52.1004
v  1355.4584 0.0000 -51.4964
v  1354.6564 0.0000 -52.3812
v  1353.4614 0.0000 -52.4076
v  1352.3695 0.0000 -52.7777
v  1351.1482 0.0000 -52.4841
v  1350.0496 0.0000 -52.0075
v  1348.6638 0.0000 -51.4313
v  1347.9442 0.0000 -50.1541
v  1347.3622 0.0000 -49.1261
v  1346.9741 0.0000 -47.9615
v  1346.7802 0.0000 -46.6601
v  1347.3290 0.0000 -45.3329
v  1347.5029 0.0000 -44.0916
v  1347.8508 0.0000 -43.0055
v  1348.3726 0.0000 -42.0745
v  1349.0682 0.0000 -41.2987
v  1349.9377 0.0000 -40.6781
v  1350.9813 0.0000 -40.2126
v  1352.1987 0.0000 -39.9023
v  1353.5901 0.0000 -39.7471
v  1354.4844 0.0000 -40.5297
v  1355.0039 0.0000 -40.5951
v  1350.1492 0.0000 -27.7914
v  1348.7180 0.0000 -26.7979
v  1347.5129 0.0000 -25.4820
v  1346.5420 0.0000 -23.9398
v  1345.8134 0.0000 -22.2674
v  1345.3275 0.0000 -20.4736
v  1345.0846 0.0000 -18.5584
v  1345.7194 0.0000 -16.5810
v  1346.8608 0.0000 -15.4955
v  1345.9749 0.0000 -14.3541
v  1346.3654 0.0000 -12.8694
v  1346.9312 0.0000 -11.6061
v  1347.6721 0.0000 -10.5642
v  1348.5881 0.0000 -9.7436
v  1349.9631 0.0000 -8.3656
v  1351.5706 0.0000 -9.7828
v  1352.3303 0.0000 -8.6033
v  1353.7389 0.0000 -8.6324
v  1355.0568 0.0000 -8.8327
v  1356.2061 0.0000 -9.1970
v  1357.1868 0.0000 -9.7254
v  1359.0543 0.0000 -10.2731
v  1359.0537 0.0000 -12.0410
v  1359.3911 0.0000 -13.1893
v  1359.5598 0.0000 -14.5017
v  1358.3485 0.0000 -27.1369
v  1359.1216 0.0000 -36.0386
v  1359.4463 0.0000 -36.3003
v  1359.7059 0.0000 -36.6275
v  1359.9008 0.0000 -37.0200
v  1362.6910 0.0000 -29.7496
v  1361.2466 0.0000 -33.6682
v  1368.9629 0.0000 -25.7231
v  1364.8572 0.0000 -26.9933
v  1364.4342 0.0000 -27.6468
v  1364.0370 0.0000 -28.2412
v  1363.6658 0.0000 -28.7765
v  1363.3203 0.0000 -29.2527
v  1361.7163 0.0000 -33.5682
v  1372.9191 0.0000 -18.4646
v  1372.8785 0.0000 -16.5859
v  1374.6243 0.0000 -16.0956
v  1374.3936 0.0000 -14.4996
v  1375.9965 0.0000 -14.3129
v  1375.6536 0.0000 -12.9192
v  1377.0358 0.0000 -13.1167
v  1376.6094 0.0000 -10.9181
v  1378.6802 0.0000 -8.9026
v  1380.9078 0.0000 -8.9556
v  1384.3809 0.0000 -8.7576
v  1385.5198 0.0000 -11.5763
v  1385.0535 0.0000 -13.4637
v  1385.2280 0.0000 -14.5958
v  1383.6505 0.0000 -15.7148
v  1383.6963 0.0000 -16.1395
v  1383.7191 0.0000 -16.6248
v  1385.3617 0.0000 -35.4532
v  1354.4844 10.0000 -40.5297
v  1359.1216 10.0000 -36.0386
v  1361.2466 10.0000 -33.6682
v  1358.3485 10.0000 -27.1369
v  1359.5598 10.0000 -14.5017
v  1359.3911 10.0000 -13.1893
v  1359.0537 10.0000 -12.0410
v  1359.0543 10.0000 -10.2731
v  1357.1868 10.0000 -9.7254
v  1356.2061 10.0000 -9.1970
v  1355.0568 10.0000 -8.8327
v  1353.7389 10.0000 -8.6324
v  1352.3303 10.0000 -8.6033
v  1351.5706 10.0000 -9.7828
v  1349.9631 10.0000 -8.3656
v  1348.5881 10.0000 -9.7436
v  1347.6721 10.0000 -10.5642
v  1346.9312 10.0000 -11.6061
v  1346.3654 10.0000 -12.8694
v  1345.9749 10.0000 -14.3541
v  1346.8608 10.0000 -15.4955
v  1345.7194 10.0000 -16.5810
v  1345.0846 10.0000 -18.5584
v  1345.3275 10.0000 -20.4736
v  1345.8134 10.0000 -22.2674
v  1346.5420 10.0000 -23.9398
v  1347.5129 10.0000 -25.4820
v  1348.7180 10.0000 -26.7979
v  1350.1492 10.0000 -27.7914
v  1351.8055 10.0000 -28.4538
v  1353.6873 10.0000 -28.7849
v  1361.4961 10.0000 -33.8367
v  1359.9008 10.0000 -37.0200
v  1359.7059 10.0000 -36.6275
v  1359.4463 10.0000 -36.3003
v  1363.0009 10.0000 -29.6697
v  1363.3203 10.0000 -29.2527
v  1363.6658 10.0000 -28.7765
v  1364.0370 10.0000 -28.2412
v  1364.4342 10.0000 -27.6468
v  1364.8572 10.0000 -26.9933
v  1385.3617 10.0000 -35.4532
v  1383.7191 10.0000 -16.6248
v  1383.6963 10.0000 -16.1395
v  1383.6505 10.0000 -15.7148
v  1385.2280 10.0000 -14.5958
v  1385.0535 10.0000 -13.4637
v  1385.5198 10.0000 -11.5763
v  1384.3809 10.0000 -8.7576
v  1380.9078 10.0000 -8.9556
v  1378.6802 10.0000 -8.9026
v  1376.6094 10.0000 -10.9181
v  1377.0358 10.0000 -13.1167
v  1375.6536 10.0000 -12.9192
v  1375.9965 10.0000 -14.3129
v  1374.3936 10.0000 -14.4996
v  1374.6243 10.0000 -16.0956
v  1372.8785 10.0000 -16.5859
v  1372.9191 10.0000 -18.4646
v  1368.9629 10.0000 -25.7231
v  1365.1077 10.0000 -27.3030
v  1353.5901 10.0000 -39.7471
v  1352.1987 10.0000 -39.9023
v  1350.9813 10.0000 -40.2126
v  1349.9377 10.0000 -40.6781
v  1349.0682 10.0000 -41.2987
v  1348.3726 10.0000 -42.0745
v  1347.8508 10.0000 -43.0055
v  1347.5029 10.0000 -44.0916
v  1347.3290 10.0000 -45.3329
v  1346.7802 10.0000 -46.6601
v  1346.9742 10.0000 -47.9615
v  1347.3622 10.0000 -49.1261
v  1347.9441 10.0000 -50.1541
v  1348.6638 10.0000 -51.4313
v  1350.0496 10.0000 -52.0075
v  1351.1482 10.0000 -52.4841
v  1352.3695 10.0000 -52.7778
v  1353.4614 10.0000 -52.4076
v  1354.6564 10.0000 -52.3812
v  1355.4584 10.0000 -51.4964
v  1356.4440 10.0000 -52.1004
v  1357.6611 10.0000 -51.6839
v  1358.6975 10.0000 -51.0833
v  1359.5531 10.0000 -50.2985
v  1360.2278 10.0000 -49.3297
v  1360.7216 10.0000 -48.1767
v  1362.1938 10.0000 -43.5955
# 767 vertices

vn -0.5214 -0.7128 0.4691
vn -0.5428 -0.7114 0.4465
vn -0.7601 0.0000 0.6498
vn -0.5428 0.7114 0.4465
vn -0.5214 0.7128 0.4691
vn -0.5583 -0.7104 0.4285
vn -0.7842 0.0000 0.6205
vn -0.5583 0.7104 0.4285
vn -0.5700 -0.7098 0.4140
vn -0.8021 0.0000 0.5971
vn -0.5700 0.7098 0.4140
vn -0.5791 -0.7093 0.4020
vn -0.8159 0.0000 0.5781
vn -0.5791 0.7093 0.4020
vn -0.5863 -0.7089 0.3920
vn -0.8268 0.0000 0.5624
vn -0.5863 0.7089 0.3920
vn -0.5922 -0.7086 0.3836
vn -0.8357 0.0000 0.5492
vn -0.5922 0.7086 0.3836
vn -0.5971 -0.7084 0.3763
vn -0.8430 0.0000 0.5380
vn -0.5971 0.7084 0.3763
vn -0.5988 -0.7052 0.3797
vn -0.8491 0.0000 0.5283
vn -0.5988 0.7052 0.3797
vn -0.5885 -0.7014 0.4022
vn -0.8399 0.0000 0.5428
vn -0.5885 0.7014 0.4022
vn -0.5656 -0.7002 0.4357
vn -0.8108 0.0000 0.5853
vn -0.5656 0.7002 0.4357
vn -0.5355 -0.6987 0.4744
vn -0.7729 0.0000 0.6345
vn -0.5355 0.6987 0.4744
vn -0.4950 -0.6968 0.5190
vn -0.7229 0.0000 0.6909
vn -0.4950 0.6968 0.5190
vn -0.4403 -0.6945 0.5690
vn -0.6560 0.0000 0.7548
vn -0.4403 0.6945 0.5690
vn -0.3662 -0.6918 0.6224
vn -0.5659 0.0000 0.8245
vn -0.3662 0.6918 0.6224
vn -0.2678 -0.6888 0.6737
vn -0.4458 0.0000 0.8951
vn -0.2678 0.6888 0.6737
vn -0.1435 -0.6861 0.7132
vn -0.2905 0.0000 0.9569
vn -0.1435 0.6861 0.7132
vn -0.0144 -0.6890 0.7246
vn -0.1023 0.0000 0.9948
vn -0.0144 0.6890 0.7246
vn 0.0983 -0.6909 0.7162
vn 0.0626 0.0000 0.9980
vn 0.0983 0.6909 0.7162
vn 0.2144 -0.6875 0.6938
vn 0.2087 0.0000 0.9780
vn 0.2144 0.6875 0.6938
vn 0.3449 -0.6846 0.6422
vn 0.3796 0.0000 0.9252
vn 0.3449 0.6846 0.6422
vn 0.4744 -0.6831 0.5553
vn 0.5617 0.0000 0.8274
vn 0.4744 0.6831 0.5553
vn 0.5829 -0.6837 0.4390
vn 0.7296 0.0000 0.6839
vn 0.5829 0.6837 0.4390
vn 0.6575 -0.6862 0.3111
vn 0.8588 0.0000 0.5123
vn 0.6575 0.6862 0.3111
vn 0.6989 -0.6895 0.1902
vn 0.9407 0.0000 0.3392
vn 0.6989 0.6895 0.1902
vn 0.7160 -0.6927 0.0865
vn 0.9829 0.0000 0.1843
vn 0.7160 0.6927 0.0865
vn 0.7129 -0.7010 0.0196
vn 0.9985 0.0000 0.0551
vn 0.7129 0.7010 0.0196
vn 0.5774 -0.5774 -0.5774
vn 1.0000 0.0000 -0.0000
vn 0.5774 0.5774 -0.5774
vn -0.5774 -0.5774 -0.5774
vn 0.0000 0.0000 -1.0000
vn -0.5774 0.5774 -0.5774
vn -0.7046 -0.7096 -0.0078
vn -1.0000 0.0000 -0.0000
vn -0.7046 0.7096 -0.0078
vn -0.7002 -0.7131 -0.0341
vn -0.9998 0.0000 -0.0222
vn -0.7002 0.7131 -0.0341
vn -0.6950 -0.7149 -0.0765
vn -0.9972 0.0000 -0.0751
vn -0.6950 0.7149 -0.0765
vn -0.6840 -0.7175 -0.1313
vn -0.9897 0.0000 -0.1434
vn -0.6840 0.7175 -0.1313
vn -0.6620 -0.7214 -0.2032
vn -0.9724 0.0000 -0.2332
vn -0.6620 0.7214 -0.2032
vn -0.6188 -0.7272 -0.2970
vn -0.9358 0.0000 -0.3526
vn -0.6188 0.7272 -0.2970
vn -0.5377 -0.7351 -0.4129
vn -0.8605 0.0000 -0.5095
vn -0.5377 0.7351 -0.4129
vn -0.4005 -0.7433 -0.5359
vn -0.7143 0.0000 -0.6998
vn -0.4005 0.7433 -0.5359
vn -0.2102 -0.7464 -0.6314
vn -0.4688 0.0000 -0.8833
vn -0.2102 0.7464 -0.6314
vn 0.0988 -0.7838 -0.6131
vn -0.1543 0.0000 -0.9880
vn 0.0988 0.7838 -0.6131
vn 0.3858 -0.7387 -0.5527
vn 0.4568 0.0000 -0.8895
vn 0.3858 0.7387 -0.5527
vn 0.4941 -0.7170 -0.4918
vn 0.6776 0.0000 -0.7354
vn 0.4941 0.7170 -0.4918
vn 0.5285 -0.7118 -0.4626
vn 0.7385 0.0000 -0.6742
vn 0.5285 0.7118 -0.4626
vn 0.5451 -0.7099 -0.4460
vn 0.7661 0.0000 -0.6428
vn 0.5451 0.7099 -0.4460
vn 0.5548 -0.7089 -0.4354
vn 0.7816 0.0000 -0.6237
vn 0.5548 0.7089 -0.4354
vn 0.5612 -0.7084 -0.4281
vn 0.7916 0.0000 -0.6110
vn 0.5612 0.7084 -0.4281
vn 0.5657 -0.7081 -0.4227
vn 0.7985 0.0000 -0.6019
vn 0.5657 0.7081 -0.4227
vn 0.5690 -0.7078 -0.4185
vn 0.8036 0.0000 -0.5951
vn 0.5690 0.7078 -0.4185
vn 0.5699 -0.7060 -0.4205
vn 0.8075 0.0000 -0.5898
vn 0.5699 0.7060 -0.4205
vn 0.5634 -0.7039 -0.4326
vn 0.8018 0.0000 -0.5977
vn 0.5634 0.7039 -0.4326
vn 0.5500 -0.7033 -0.4505
vn 0.7844 0.0000 -0.6203
vn 0.5500 0.7033 -0.4505
vn 0.5330 -0.7024 -0.4718
vn 0.7626 0.0000 -0.6469
vn 0.5330 0.7024 -0.4718
vn 0.5108 -0.7012 -0.4974
vn 0.7346 0.0000 -0.6785
vn 0.5108 0.7012 -0.4974
vn 0.4811 -0.6996 -0.5284
vn 0.6978 0.0000 -0.7163
vn 0.4811 0.6996 -0.5284
vn 0.4399 -0.6973 -0.5659
vn 0.6479 0.0000 -0.7617
vn 0.4399 0.6973 -0.5659
vn 0.3808 -0.6940 -0.6110
vn 0.5782 0.0000 -0.8159
vn 0.3808 0.6940 -0.6110
vn 0.2939 -0.6895 -0.6620
vn 0.4779 0.0000 -0.8784
vn 0.2939 0.6895 -0.6620
vn 0.6543 0.5972 -0.4639
vn 0.3309 0.0000 -0.9436
vn 0.6543 -0.5972 -0.4639
vn 0.7131 -0.7007 -0.0204
vn 0.7131 0.7007 -0.0204
vn 0.7161 -0.6922 -0.0898
vn 0.9984 0.0000 -0.0572
vn 0.7161 0.6922 -0.0898
vn 0.6976 -0.6889 -0.1970
vn 0.9816 0.0000 -0.1911
vn 0.6976 0.6889 -0.1970
vn 0.6534 -0.6857 -0.3208
vn 0.9365 0.0000 -0.3506
vn 0.6534 0.6857 -0.3208
vn 0.5752 -0.6835 -0.4494
vn 0.8502 0.0000 -0.5265
vn 0.5752 0.6835 -0.4494
vn 0.4643 -0.6832 -0.5636
vn 0.7166 0.0000 -0.6975
vn 0.4643 0.6832 -0.5636
vn 0.3349 -0.6850 -0.6470
vn 0.5473 0.0000 -0.8370
vn 0.3349 0.6850 -0.6470
vn 0.2072 -0.6881 -0.6954
vn 0.3675 0.0000 -0.9300
vn 0.2072 0.6881 -0.6954
vn 0.0947 -0.6914 -0.7162
vn 0.2013 0.0000 -0.9795
vn 0.0947 0.6914 -0.7162
vn 0.0094 -0.6966 -0.7174
vn 0.0603 0.0000 -0.9982
vn 0.0094 0.6966 -0.7174
vn -0.0503 -0.6991 -0.7133
vn -0.0342 0.0000 -0.9994
vn -0.0503 0.6991 -0.7133
vn -0.1035 -0.6985 -0.7081
vn -0.1064 0.0000 -0.9943
vn -0.1035 0.6985 -0.7081
vn -0.1596 -0.6980 -0.6981
vn -0.1828 0.0000 -0.9831
vn -0.1596 0.6980 -0.6981
vn -0.2175 -0.6976 -0.6827
vn -0.2625 0.0000 -0.9649
vn -0.2175 0.6976 -0.6827
vn -0.2760 -0.6973 -0.6615
vn -0.3440 0.0000 -0.9390
vn -0.2760 0.6973 -0.6615
vn -0.3336 -0.6972 -0.6345
vn -0.4253 0.0000 -0.9050
vn -0.3336 0.6972 -0.6345
vn -0.3890 -0.6972 -0.6022
vn -0.5045 0.0000 -0.8634
vn -0.3890 0.6972 -0.6022
vn -0.4407 -0.6973 -0.5652
vn -0.5796 0.0000 -0.8149
vn -0.4407 0.6973 -0.5652
vn -0.4894 -0.6971 -0.5239
vn -0.6490 0.0000 -0.7608
vn -0.4894 0.6971 -0.5239
vn -0.5367 -0.6964 -0.4765
vn -0.7148 0.0000 -0.6993
vn -0.5367 0.6964 -0.4765
vn -0.5809 -0.6961 -0.4218
vn -0.7791 0.0000 -0.6269
vn -0.5809 0.6961 -0.4218
vn -0.6199 -0.6961 -0.3622
vn -0.8373 0.0000 -0.5468
vn -0.6199 0.6961 -0.3622
vn -0.6523 -0.6963 -0.2995
vn -0.8874 0.0000 -0.4611
vn -0.6523 0.6963 -0.2995
vn -0.6777 -0.6966 -0.2354
vn -0.9281 0.0000 -0.3723
vn -0.6777 0.6966 -0.2354
vn -0.6959 -0.6972 -0.1721
vn -0.9590 0.0000 -0.2833
vn -0.6959 0.6972 -0.1721
vn -0.7076 -0.6978 -0.1111
vn -0.9805 0.0000 -0.1964
vn -0.7076 0.6978 -0.1111
vn -0.7136 -0.6985 -0.0537
vn -0.9935 0.0000 -0.1136
vn -0.7136 0.6985 -0.0537
vn -0.7185 -0.6954 0.0118
vn -0.9993 0.0000 -0.0363
vn -0.7185 0.6954 0.0118
vn -0.7163 -0.6893 0.1087
vn -0.9976 0.0000 0.0693
vn -0.7163 0.6893 0.1087
vn -0.6887 -0.6859 0.2351
vn -0.9732 0.0000 0.2298
vn -0.6887 0.6859 0.2351
vn -0.6280 -0.6834 0.3723
vn -0.9106 0.0000 0.4134
vn -0.6280 0.6834 0.3723
vn -0.5315 -0.6828 0.5012
vn -0.7996 0.0000 0.6006
vn -0.5315 0.6828 0.5012
vn -0.4109 -0.6844 0.6023
vn -0.6464 0.0000 0.7630
vn -0.4109 0.6844 0.6023
vn -0.2860 -0.6875 0.6675
vn -0.4746 0.0000 0.8802
vn -0.2860 0.6875 0.6675
vn -0.1728 -0.6909 0.7020
vn -0.3098 0.0000 0.9508
vn -0.1728 0.6909 0.7020
vn -0.0782 -0.6941 0.7157
vn -0.1671 0.0000 0.9859
vn -0.0782 0.6941 0.7157
vn -0.3178 -0.8986 0.3024
vn -0.0498 0.0000 0.9988
vn -0.3178 0.8986 0.3024
vn -0.3150 -0.8997 -0.3023
vn -0.3150 0.8997 -0.3023
vn -0.0614 -0.6972 -0.7142
vn -0.0413 0.0000 -0.9991
vn -0.0614 0.6972 -0.7142
vn -0.1277 -0.6963 -0.7063
vn -0.1299 0.0000 -0.9915
vn -0.1277 0.6963 -0.7063
vn -0.1986 -0.6955 -0.6905
vn -0.2256 0.0000 -0.9742
vn -0.1986 0.6955 -0.6905
vn -0.2719 -0.6949 -0.6657
vn -0.3264 0.0000 -0.9452
vn -0.2719 0.6949 -0.6657
vn -0.3451 -0.6945 -0.6313
vn -0.4288 0.0000 -0.9034
vn -0.3451 0.6945 -0.6313
vn -0.4150 -0.6944 -0.5878
vn -0.5290 0.0000 -0.8486
vn -0.4150 0.6944 -0.5878
vn -0.4788 -0.6947 -0.5368
vn -0.6227 0.0000 -0.7825
vn -0.4788 0.6947 -0.5368
vn -0.5345 -0.6952 -0.4806
vn -0.7066 0.0000 -0.7076
vn -0.5345 0.6952 -0.4806
vn -0.5756 -0.6979 -0.4261
vn -0.7784 0.0000 -0.6278
vn -0.5756 0.6979 -0.4261
vn -0.6040 -0.6998 -0.3814
vn -0.8277 0.0000 -0.5612
vn -0.6040 0.6998 -0.3814
vn -0.6283 -0.6995 -0.3404
vn -0.8625 0.0000 -0.5060
vn -0.6283 0.6995 -0.3404
vn -0.6505 -0.6993 -0.2964
vn -0.8949 0.0000 -0.4463
vn -0.6505 0.6993 -0.2964
vn -0.6699 -0.6991 -0.2497
vn -0.9239 0.0000 -0.3826
vn -0.6699 0.6991 -0.2497
vn -0.6862 -0.6991 -0.2010
vn -0.9489 0.0000 -0.3155
vn -0.6862 0.6991 -0.2010
vn -0.6990 -0.6991 -0.1508
vn -0.9692 0.0000 -0.2461
vn -0.6990 0.6991 -0.1508
vn -0.7079 -0.6991 -0.1001
vn -0.9845 0.0000 -0.1754
vn -0.7079 0.6991 -0.1001
vn -0.7131 -0.6993 -0.0497
vn -0.9945 0.0000 -0.1045
vn -0.7131 0.6993 -0.0497
vn -0.7164 -0.6976 0.0059
vn -0.9994 0.0000 -0.0344
vn -0.7164 0.6976 0.0059
vn -0.7157 -0.6938 0.0797
vn -0.9987 0.0000 0.0508
vn -0.7157 0.6938 0.0797
vn -0.7014 -0.6907 0.1761
vn -0.9854 0.0000 0.1703
vn -0.7014 0.6907 0.1761
vn -0.6657 -0.6872 0.2907
vn -0.9490 0.0000 0.3153
vn -0.6657 0.6872 0.2907
vn -0.5987 -0.6843 0.4163
vn -0.8763 0.0000 0.4818
vn -0.5987 0.6843 0.4163
vn -0.4961 -0.6829 0.5362
vn -0.7567 0.0000 0.6537
vn -0.4961 0.6829 0.5362
vn -0.3670 -0.6836 0.6309
vn -0.5931 0.0000 0.8051
vn -0.3670 0.6836 0.6309
vn -0.2310 -0.6862 0.6897
vn -0.4067 0.0000 0.9136
vn -0.2310 0.6862 0.6897
vn -0.1066 -0.6896 0.7163
vn -0.2255 0.0000 0.9742
vn -0.1066 0.6896 0.7163
vn -0.0048 -0.6936 0.7204
vn -0.0679 0.0000 0.9977
vn -0.0048 0.6936 0.7204
vn 0.0859 -0.6929 0.7159
vn 0.0547 0.0000 0.9985
vn 0.0859 0.6928 0.7160
vn 0.1890 -0.6896 0.6991
vn 0.1831 0.0000 0.9831
vn 0.1890 0.6896 0.6991
vn 0.3094 -0.6863 0.6583
vn 0.3371 0.0000 0.9415
vn 0.3094 0.6863 0.6583
vn 0.4371 -0.6838 0.5843
vn 0.5097 0.0000 0.8603
vn 0.4371 0.6838 0.5843
vn 0.5537 -0.6831 0.4763
vn 0.6814 0.0000 0.7319
vn 0.5537 0.6831 0.4763
vn 0.6413 -0.6845 0.3467
vn 0.8256 0.0000 0.5643
vn 0.6413 0.6845 0.3467
vn 0.6935 -0.6874 0.2158
vn 0.9242 0.0000 0.3818
vn 0.6935 0.6874 0.2158
vn 0.7163 -0.6908 0.0990
vn 0.9777 0.0000 0.2100
vn 0.7163 0.6908 0.0990
vn 0.7137 -0.7001 0.0225
vn 0.9980 0.0000 0.0631
vn 0.7137 0.7001 0.0225
vn 0.0762 -0.9786 0.1912
vn 0.0762 0.9786 0.1912
vn -0.7262 0.0000 0.6874
vn -0.0876 -0.7229 0.6854
vn -0.1901 -0.7266 0.6603
vn -0.1947 0.0000 0.9809
vn -0.1901 0.7266 0.6603
vn -0.0876 0.7229 0.6854
vn -0.3058 -0.7301 0.6111
vn -0.3566 0.0000 0.9343
vn -0.3058 0.7301 0.6111
vn -0.4241 -0.7325 0.5326
vn -0.5339 0.0000 0.8455
vn -0.4241 0.7325 0.5326
vn -0.5294 -0.7326 0.4279
vn -0.7044 0.0000 0.7098
vn -0.5294 0.7326 0.4279
vn -0.6090 -0.7303 0.3093
vn -0.8418 0.0000 0.5398
vn -0.6090 0.7303 0.3093
vn -0.6592 -0.7268 0.1927
vn -0.9324 0.0000 0.3614
vn -0.6592 0.7268 0.1927
vn -0.6849 -0.7232 0.0889
vn -0.9803 0.0000 0.1976
vn -0.6849 0.7232 0.0889
vn -0.6934 -0.7206 0.0003
vn -0.9982 0.0000 0.0592
vn -0.6934 0.7206 0.0003
vn -0.6854 -0.7229 -0.0876
vn -0.9983 0.0000 -0.0583
vn -0.6854 0.7229 -0.0876
vn -0.6603 -0.7266 -0.1901
vn -0.9809 0.0000 -0.1947
vn -0.6603 0.7266 -0.1901
vn -0.6111 -0.7301 -0.3058
vn -0.9343 0.0000 -0.3566
vn -0.6111 0.7301 -0.3058
vn -0.5326 -0.7325 -0.4241
vn -0.8455 0.0000 -0.5340
vn -0.5326 0.7325 -0.4241
vn -0.4279 -0.7326 -0.5294
vn -0.7098 0.0000 -0.7044
vn -0.4279 0.7326 -0.5294
vn -0.3093 -0.7303 -0.6090
vn -0.5398 0.0000 -0.8418
vn -0.3093 0.7303 -0.6090
vn -0.1926 -0.7268 -0.6593
vn -0.3614 0.0000 -0.9324
vn -0.1926 0.7268 -0.6593
vn -0.0889 -0.7232 -0.6849
vn -0.1976 0.0000 -0.9803
vn -0.0889 0.7232 -0.6849
vn 0.0000 -0.7207 -0.6933
vn -0.0592 0.0000 -0.9982
vn 0.0000 0.7207 -0.6933
vn 0.0889 -0.7232 -0.6849
vn 0.0592 0.0000 -0.9982
vn 0.0889 0.7232 -0.6849
vn 0.1926 -0.7268 -0.6592
vn 0.1976 0.0000 -0.9803
vn 0.1926 0.7268 -0.6592
vn 0.3093 -0.7303 -0.6090
vn 0.3614 0.0000 -0.9324
vn 0.3093 0.7303 -0.6090
vn 0.4279 -0.7326 -0.5294
vn 0.5398 0.0000 -0.8418
vn 0.4279 0.7326 -0.5294
vn 0.5326 -0.7325 -0.4241
vn 0.7098 0.0000 -0.7044
vn 0.5326 0.7325 -0.4241
vn 0.6111 -0.7301 -0.3058
vn 0.8455 0.0000 -0.5340
vn 0.6111 0.7301 -0.3058
vn 0.6603 -0.7266 -0.1901
vn 0.9343 0.0000 -0.3566
vn 0.6603 0.7266 -0.1901
vn 0.6854 -0.7229 -0.0876
vn 0.9809 0.0000 -0.1947
vn 0.6854 0.7229 -0.0876
vn 0.6934 -0.7206 0.0003
vn 0.9983 0.0000 -0.0583
vn 0.6934 0.7206 0.0003
vn 0.6849 -0.7232 0.0889
vn 0.9982 0.0000 0.0592
vn 0.6849 0.7232 0.0889
vn 0.6592 -0.7268 0.1927
vn 0.9803 0.0000 0.1976
vn 0.6592 0.7268 0.1927
vn 0.6090 -0.7303 0.3094
vn 0.9324 0.0000 0.3614
vn 0.6090 0.7303 0.3094
vn 0.5294 -0.7325 0.4279
vn 0.8418 0.0000 0.5398
vn 0.5294 0.7325 0.4279
vn 0.4240 -0.7325 0.5326
vn 0.7044 0.0000 0.7098
vn 0.4240 0.7325 0.5326
vn 0.3058 -0.7301 0.6111
vn 0.5339 0.0000 0.8455
vn 0.3058 0.7301 0.6111
vn 0.1901 -0.7266 0.6603
vn 0.3566 0.0000 0.9343
vn 0.1901 0.7266 0.6603
vn 0.0876 -0.7229 0.6854
vn 0.1947 0.0000 0.9809
vn 0.0876 0.7229 0.6854
vn -0.0000 -0.7205 0.6935
vn 0.0583 0.0000 0.9983
vn -0.0000 0.7205 0.6935
vn -0.0583 0.0000 0.9983
vn 0.6914 -0.7193 0.0680
vn 0.6750 -0.7225 0.1496
vn 0.9886 0.0000 0.1506
vn 0.6750 0.7225 0.1496
vn 0.6914 0.7193 0.0680
vn 0.6413 -0.7263 0.2474
vn 0.9596 0.0000 0.2812
vn 0.6413 0.7263 0.2474
vn 0.5820 -0.7302 0.3578
vn 0.8998 0.0000 0.4363
vn 0.5820 0.7302 0.3578
vn 0.4915 -0.7331 0.4700
vn 0.7954 0.0000 0.6060
vn 0.4915 0.7331 0.4700
vn 0.3733 -0.7337 0.5678
vn 0.6410 0.0000 0.7675
vn 0.3733 0.7337 0.5678
vn 0.2415 -0.7316 0.6376
vn 0.4506 0.0000 0.8927
vn 0.2415 0.7316 0.6376
vn 0.1139 -0.7279 0.6762
vn 0.2539 0.0000 0.9672
vn 0.1139 0.7279 0.6762
vn -0.2765 -0.9134 0.2987
vn 0.0770 0.0000 0.9970
vn -0.2765 0.9134 0.2987
vn -0.7011 -0.7129 -0.0178
vn -0.7011 0.7129 -0.0178
vn -0.6887 -0.7209 -0.0769
vn -0.9987 0.0000 -0.0509
vn -0.6887 0.7209 -0.0769
vn -0.6685 -0.7244 -0.1683
vn -0.9853 0.0000 -0.1707
vn -0.6685 0.7244 -0.1683
vn -0.6278 -0.7282 -0.2749
vn -0.9487 0.0000 -0.3161
vn -0.6278 0.7282 -0.2749
vn -0.5593 -0.7315 -0.3900
vn -0.8757 0.0000 -0.4828
vn -0.5593 0.7315 -0.3900
vn -0.4612 -0.7331 -0.4999
vn -0.7558 0.0000 -0.6548
vn -0.4612 0.7331 -0.4999
vn -0.3418 -0.7322 -0.5892
vn -0.5920 0.0000 -0.8059
vn -0.3418 0.7322 -0.5892
vn -0.2168 -0.7292 -0.6491
vn -0.4058 0.0000 -0.9140
vn -0.2168 0.7292 -0.6491
vn -0.1010 -0.7254 -0.6808
vn -0.2250 0.0000 -0.9744
vn -0.1010 0.7254 -0.6808
vn 0.0094 -0.7259 -0.6878
vn -0.0677 0.0000 -0.9977
vn 0.0094 0.7259 -0.6878
vn 0.1381 -0.7325 -0.6666
vn 0.0949 0.0000 -0.9955
vn 0.1381 0.7325 -0.6666
vn 0.2858 -0.7356 -0.6142
vn 0.3084 0.0000 -0.9513
vn 0.2858 0.7356 -0.6142
vn 0.4256 -0.7355 -0.5272
vn 0.5291 0.0000 -0.8486
vn 0.4256 0.7355 -0.5272
vn 0.5374 -0.7323 -0.4182
vn 0.7180 0.0000 -0.6960
vn 0.5374 0.7323 -0.4182
vn 0.6135 -0.7278 -0.3066
vn 0.8511 0.0000 -0.5250
vn 0.6135 0.7278 -0.3066
vn 0.6589 -0.7233 -0.2064
vn 0.9308 0.0000 -0.3654
vn 0.6589 0.7233 -0.2064
vn 0.6833 -0.7197 -0.1228
vn 0.9730 0.0000 -0.2309
vn 0.6833 0.7197 -0.1228
vn 0.6949 -0.7170 -0.0554
vn 0.9925 0.0000 -0.1225
vn 0.6949 0.7170 -0.0554
vn 0.6977 -0.7163 0.0030
vn 0.9993 0.0000 -0.0363
vn 0.6977 0.7163 0.0030
vn 0.9990 0.0000 0.0448
vn 0.0000 -1.0000 -0.0000
vn 0.0000 1.0000 -0.0000
# 586 vertex normals

o No_Nee
g No_Nee
s 1
f 1//1 2//2 3//3 
f 2//2 4//4 3//3 
f 4//4 5//5 3//3 
f 5//5 1//1 3//3 
s 3
f 2//2 6//6 7//7 
f 6//6 8//8 7//7 
f 8//8 4//4 7//7 
f 4//4 2//2 7//7 
s 2
f 6//6 9//9 10//10 
f 9//9 11//11 10//10 
f 11//11 8//8 10//10 
f 8//8 6//6 10//10 
f 9//9 12//12 13//13 
f 12//12 14//14 13//13 
f 14//14 11//11 13//13 
f 11//11 9//9 13//13 
f 12//12 15//15 16//16 
f 15//15 17//17 16//16 
f 17//17 14//14 16//16 
f 14//14 12//12 16//16 
f 15//15 18//18 19//19 
f 18//18 20//20 19//19 
f 20//20 17//17 19//19 
f 17//17 15//15 19//19 
f 18//18 21//21 22//22 
f 21//21 23//23 22//22 
f 23//23 20//20 22//22 
f 20//20 18//18 22//22 
f 21//21 24//24 25//25 
f 24//24 26//26 25//25 
f 26//26 23//23 25//25 
f 23//23 21//21 25//25 
f 24//24 27//27 28//28 
f 27//27 29//29 28//28 
f 29//29 26//26 28//28 
f 26//26 24//24 28//28 
f 27//27 30//30 31//31 
f 30//30 32//32 31//31 
f 32//32 29//29 31//31 
f 29//29 27//27 31//31 
f 30//30 33//33 34//34 
f 33//33 35//35 34//34 
f 35//35 32//32 34//34 
f 32//32 30//30 34//34 
f 33//33 36//36 37//37 
f 36//36 38//38 37//37 
f 38//38 35//35 37//37 
f 35//35 33//33 37//37 
f 36//36 39//39 40//40 
f 39//39 41//41 40//40 
f 41//41 38//38 40//40 
f 38//38 36//36 40//40 
f 39//39 42//42 43//43 
f 42//42 44//44 43//43 
f 44//44 41//41 43//43 
f 41//41 39//39 43//43 
f 42//42 45//45 46//46 
f 45//45 47//47 46//46 
f 47//47 44//44 46//46 
f 44//44 42//42 46//46 
f 45//45 48//48 49//49 
f 48//48 50//50 49//49 
f 50//50 47//47 49//49 
f 47//47 45//45 49//49 
f 48//48 51//51 52//52 
f 51//51 53//53 52//52 
f 53//53 50//50 52//52 
f 50//50 48//48 52//52 
f 51//51 54//54 55//55 
f 54//54 56//56 55//55 
f 56//56 53//53 55//55 
f 53//53 51//51 55//55 
f 54//54 57//57 58//58 
f 57//57 59//59 58//58 
f 59//59 56//56 58//58 
f 56//56 54//54 58//58 
f 57//57 60//60 61//61 
f 60//60 62//62 61//61 
f 62//62 59//59 61//61 
f 59//59 57//57 61//61 
f 60//60 63//63 64//64 
f 63//63 65//65 64//64 
f 65//65 62//62 64//64 
f 62//62 60//60 64//64 
f 63//63 66//66 67//67 
f 66//66 68//68 67//67 
f 68//68 65//65 67//67 
f 65//65 63//63 67//67 
f 66//66 69//69 70//70 
f 69//69 71//71 70//70 
f 71//71 68//68 70//70 
f 68//68 66//66 70//70 
f 69//69 72//72 73//73 
f 72//72 74//74 73//73 
f 74//74 71//71 73//73 
f 71//71 69//69 73//73 
f 72//72 75//75 76//76 
f 75//75 77//77 76//76 
f 77//77 74//74 76//76 
f 74//74 72//72 76//76 
f 75//75 78//78 79//79 
f 78//78 80//80 79//79 
f 80//80 77//77 79//79 
f 77//77 75//75 79//79 
s 4
f 78//78 81//81 82//82 
f 81//81 83//83 82//82 
f 83//83 80//80 82//82 
f 80//80 78//78 82//82 
s 2
f 81//81 84//84 85//85 
f 84//84 86//86 85//85 
f 86//86 83//83 85//85 
f 83//83 81//81 85//85 
s 4
f 84//84 87//87 88//88 
f 87//87 89//89 88//88 
f 89//89 86//86 88//88 
f 86//86 84//84 88//88 
s 2
f 87//87 90//90 91//91 
f 90//90 92//92 91//91 
f 92//92 89//89 91//91 
f 89//89 87//87 91//91 
f 90//90 93//93 94//94 
f 93//93 95//95 94//94 
f 95//95 92//92 94//94 
f 92//92 90//90 94//94 
f 93//93 96//96 97//97 
f 96//96 98//98 97//97 
f 98//98 95//95 97//97 
f 95//95 93//93 97//97 
f 96//96 99//99 100//100 
f 99//99 101//101 100//100 
f 101//101 98//98 100//100 
f 98//98 96//96 100//100 
f 99//99 102//102 103//103 
f 102//102 104//104 103//103 
f 104//104 101//101 103//103 
f 101//101 99//99 103//103 
f 102//102 105//105 106//106 
f 105//105 107//107 106//106 
f 107//107 104//104 106//106 
f 104//104 102//102 106//106 
f 105//105 108//108 109//109 
f 108//108 110//110 109//109 
f 110//110 107//107 109//109 
f 107//107 105//105 109//109 
f 108//108 111//111 112//112 
f 111//111 113//113 112//112 
f 113//113 110//110 112//112 
f 110//110 108//108 112//112 
f 111//111 114//114 115//115 
f 114//114 116//116 115//115 
f 116//116 113//113 115//115 
f 113//113 111//111 115//115 
f 114//114 117//117 118//118 
f 117//117 119//119 118//118 
f 119//119 116//116 118//118 
f 116//116 114//114 118//118 
f 117//117 120//120 121//121 
f 120//120 122//122 121//121 
f 122//122 119//119 121//121 
f 119//119 117//117 121//121 
f 120//120 123//123 124//124 
f 123//123 125//125 124//124 
f 125//125 122//122 124//124 
f 122//122 120//120 124//124 
f 123//123 126//126 127//127 
f 126//126 128//128 127//127 
f 128//128 125//125 127//127 
f 125//125 123//123 127//127 
f 126//126 129//129 130//130 
f 129//129 131//131 130//130 
f 131//131 128//128 130//130 
f 128//128 126//126 130//130 
f 129//129 132//132 133//133 
f 132//132 134//134 133//133 
f 134//134 131//131 133//133 
f 131//131 129//129 133//133 
f 132//132 135//135 136//136 
f 135//135 137//137 136//136 
f 137//137 134//134 136//136 
f 134//134 132//132 136//136 
f 135//135 138//138 139//139 
f 138//138 140//140 139//139 
f 140//140 137//137 139//139 
f 137//137 135//135 139//139 
f 138//138 141//141 142//142 
f 141//141 143//143 142//142 
f 143//143 140//140 142//142 
f 140//140 138//138 142//142 
f 141//141 144//144 145//145 
f 144//144 146//146 145//145 
f 146//146 143//143 145//145 
f 143//143 141//141 145//145 
f 144//144 147//147 148//148 
f 147//147 149//149 148//148 
f 149//149 146//146 148//148 
f 146//146 144//144 148//148 
f 147//147 150//150 151//151 
f 150//150 152//152 151//151 
f 152//152 149//149 151//151 
f 149//149 147//147 151//151 
f 150//150 153//153 154//154 
f 153//153 155//155 154//154 
f 155//155 152//152 154//154 
f 152//152 150//150 154//154 
f 153//153 156//156 157//157 
f 156//156 158//158 157//157 
f 158//158 155//155 157//157 
f 155//155 153//153 157//157 
f 156//156 159//159 160//160 
f 159//159 161//161 160//160 
f 161//161 158//158 160//160 
f 158//158 156//156 160//160 
f 159//159 162//162 163//163 
f 162//162 164//164 163//163 
f 164//164 161//161 163//163 
f 161//161 159//159 163//163 
f 162//162 165//165 166//166 
f 165//165 167//167 166//166 
f 167//167 164//164 166//166 
f 164//164 162//162 166//166 
f 165//165 168//168 169//169 
f 168//168 170//170 169//169 
f 170//170 167//167 169//169 
f 167//167 165//165 169//169 
s 4
f 168//168 171//171 172//82 
f 171//171 173//172 172//82 
f 173//172 170//170 172//82 
f 170//170 168//168 172//82 
s 2
f 171//171 174//173 175//174 
f 174//173 176//175 175//174 
f 176//175 173//172 175//174 
f 173//172 171//171 175//174 
f 174//173 177//176 178//177 
f 177//176 179//178 178//177 
f 179//178 176//175 178//177 
f 176//175 174//173 178//177 
f 177//176 180//179 181//180 
f 180//179 182//181 181//180 
f 182//181 179//178 181//180 
f 179//178 177//176 181//180 
f 180//179 183//182 184//183 
f 183//182 185//184 184//183 
f 185//184 182//181 184//183 
f 182//181 180//179 184//183 
f 183//182 186//185 187//186 
f 186//185 188//187 187//186 
f 188//187 185//184 187//186 
f 185//184 183//182 187//186 
f 186//185 189//188 190//189 
f 189//188 191//190 190//189 
f 191//190 188//187 190//189 
f 188//187 186//185 190//189 
f 189//188 192//191 193//192 
f 192//191 194//193 193//192 
f 194//193 191//190 193//192 
f 191//190 189//188 193//192 
f 192//191 195//194 196//195 
f 195//194 197//196 196//195 
f 197//196 194//193 196//195 
f 194//193 192//191 196//195 
f 195//194 198//197 199//198 
f 198//197 200//199 199//198 
f 200//199 197//196 199//198 
f 197//196 195//194 199//198 
f 198//197 201//200 202//201 
f 201//200 203//202 202//201 
f 203//202 200//199 202//201 
f 200//199 198//197 202//201 
f 201//200 204//203 205//204 
f 204//203 206//205 205//204 
f 206//205 203//202 205//204 
f 203//202 201//200 205//204 
f 204//203 207//206 208//207 
f 207//206 209//208 208//207 
f 209//208 206//205 208//207 
f 206//205 204//203 208//207 
f 207//206 210//209 211//210 
f 210//209 212//211 211//210 
f 212//211 209//208 211//210 
f 209//208 207//206 211//210 
f 210//209 213//212 214//213 
f 213//212 215//214 214//213 
f 215//214 212//211 214//213 
f 212//211 210//209 214//213 
f 213//212 216//215 217//216 
f 216//215 218//217 217//216 
f 218//217 215//214 217//216 
f 215//214 213//212 217//216 
f 216//215 219//218 220//219 
f 219//218 221//220 220//219 
f 221//220 218//217 220//219 
f 218//217 216//215 220//219 
f 219//218 222//221 223//222 
f 222//221 224//223 223//222 
f 224//223 221//220 223//222 
f 221//220 219//218 223//222 
f 222//221 225//224 226//225 
f 225//224 227//226 226//225 
f 227//226 224//223 226//225 
f 224//223 222//221 226//225 
f 225//224 228//227 229//228 
f 228//227 230//229 229//228 
f 230//229 227//226 229//228 
f 227//226 225//224 229//228 
f 228//227 231//230 232//231 
f 231//230 233//232 232//231 
f 233//232 230//229 232//231 
f 230//229 228//227 232//231 
f 231//230 234//233 235//234 
f 234//233 236//235 235//234 
f 236//235 233//232 235//234 
f 233//232 231//230 235//234 
f 234//233 237//236 238//237 
f 237//236 239//238 238//237 
f 239//238 236//235 238//237 
f 236//235 234//233 238//237 
f 237//236 240//239 241//240 
f 240//239 242//241 241//240 
f 242//241 239//238 241//240 
f 239//238 237//236 241//240 
f 240//239 243//242 244//243 
f 243//242 245//244 244//243 
f 245//244 242//241 244//243 
f 242//241 240//239 244//243 
f 243//242 246//245 247//246 
f 246//245 248//247 247//246 
f 248//247 245//244 247//246 
f 245//244 243//242 247//246 
f 246//245 249//248 250//249 
f 249//248 251//250 250//249 
f 251//250 248//247 250//249 
f 248//247 246//245 250//249 
f 249//248 252//251 253//252 
f 252//251 254//253 253//252 
f 254//253 251//250 253//252 
f 251//250 249//248 253//252 
f 252//251 255//254 256//255 
f 255//254 257//256 256//255 
f 257//256 254//253 256//255 
f 254//253 252//251 256//255 
f 255//254 258//257 259//258 
f 258//257 260//259 259//258 
f 260//259 257//256 259//258 
f 257//256 255//254 259//258 
f 258//257 261//260 262//261 
f 261//260 263//262 262//261 
f 263//262 260//259 262//261 
f 260//259 258//257 262//261 
f 261//260 264//263 265//264 
f 264//263 266//265 265//264 
f 266//265 263//262 265//264 
f 263//262 261//260 265//264 
f 264//263 267//266 268//267 
f 267//266 269//268 268//267 
f 269//268 266//265 268//267 
f 266//265 264//263 268//267 
f 267//266 270//269 271//270 
f 270//269 272//271 271//270 
f 272//271 269//268 271//270 
f 269//268 267//266 271//270 
f 270//269 273//272 274//273 
f 273//272 275//274 274//273 
f 275//274 272//271 274//273 
f 272//271 270//269 274//273 
f 273//272 276//275 277//276 
f 276//275 278//277 277//276 
f 278//277 275//274 277//276 
f 275//274 273//272 277//276 
f 276//275 279//278 280//279 
f 279//278 281//280 280//279 
f 281//280 278//277 280//279 
f 278//277 276//275 280//279 
s 4
f 279//278 282//281 283//88 
f 282//281 284//282 283//88 
f 284//282 281//280 283//88 
f 281//280 279//278 283//88 
s 2
f 282//281 285//283 286//284 
f 285//283 287//285 286//284 
f 287//285 284//282 286//284 
f 284//282 282//281 286//284 
f 285//283 288//286 289//287 
f 288//286 290//288 289//287 
f 290//288 287//285 289//287 
f 287//285 285//283 289//287 
f 288//286 291//289 292//290 
f 291//289 293//291 292//290 
f 293//291 290//288 292//290 
f 290//288 288//286 292//290 
f 291//289 294//292 295//293 
f 294//292 296//294 295//293 
f 296//294 293//291 295//293 
f 293//291 291//289 295//293 
f 294//292 297//295 298//296 
f 297//295 299//297 298//296 
f 299//297 296//294 298//296 
f 296//294 294//292 298//296 
f 297//295 300//298 301//299 
f 300//298 302//300 301//299 
f 302//300 299//297 301//299 
f 299//297 297//295 301//299 
f 300//298 303//301 304//302 
f 303//301 305//303 304//302 
f 305//303 302//300 304//302 
f 302//300 300//298 304//302 
f 303//301 306//304 307//305 
f 306//304 308//306 307//305 
f 308//306 305//303 307//305 
f 305//303 303//301 307//305 
f 306//304 309//307 310//308 
f 309//307 311//309 310//308 
f 311//309 308//306 310//308 
f 308//306 306//304 310//308 
f 309//307 312//310 313//311 
f 312//310 314//312 313//311 
f 314//312 311//309 313//311 
f 311//309 309//307 313//311 
f 312//310 315//313 316//314 
f 315//313 317//315 316//314 
f 317//315 314//312 316//314 
f 314//312 312//310 316//314 
f 315//313 318//316 319//317 
f 318//316 320//318 319//317 
f 320//318 317//315 319//317 
f 317//315 315//313 319//317 
f 318//316 321//319 322//320 
f 321//319 323//321 322//320 
f 323//321 320//318 322//320 
f 320//318 318//316 322//320 
f 321//319 324//322 325//323 
f 324//322 326//324 325//323 
f 326//324 323//321 325//323 
f 323//321 321//319 325//323 
f 324//322 327//325 328//326 
f 327//325 329//327 328//326 
f 329//327 326//324 328//326 
f 326//324 324//322 328//326 
f 327//325 330//328 331//329 
f 330//328 332//330 331//329 
f 332//330 329//327 331//329 
f 329//327 327//325 331//329 
f 330//328 333//331 334//332 
f 333//331 335//333 334//332 
f 335//333 332//330 334//332 
f 332//330 330//328 334//332 
f 333//331 336//334 337//335 
f 336//334 338//336 337//335 
f 338//336 335//333 337//335 
f 335//333 333//331 337//335 
f 336//334 339//337 340//338 
f 339//337 341//339 340//338 
f 341//339 338//336 340//338 
f 338//336 336//334 340//338 
f 339//337 342//340 343//341 
f 342//340 344//342 343//341 
f 344//342 341//339 343//341 
f 341//339 339//337 343//341 
f 342//340 345//343 346//344 
f 345//343 347//345 346//344 
f 347//345 344//342 346//344 
f 344//342 342//340 346//344 
f 345//343 348//346 349//347 
f 348//346 350//348 349//347 
f 350//348 347//345 349//347 
f 347//345 345//343 349//347 
f 348//346 351//349 352//350 
f 351//349 353//351 352//350 
f 353//351 350//348 352//350 
f 350//348 348//346 352//350 
f 351//349 354//352 355//353 
f 354//352 356//354 355//353 
f 356//354 353//351 355//353 
f 353//351 351//349 355//353 
f 354//352 357//355 358//356 
f 357//355 359//357 358//356 
f 359//357 356//354 358//356 
f 356//354 354//352 358//356 
f 357//355 360//358 361//359 
f 360//358 362//360 361//359 
f 362//360 359//357 361//359 
f 359//357 357//355 361//359 
f 360//358 363//361 364//362 
f 363//361 365//363 364//362 
f 365//363 362//360 364//362 
f 362//360 360//358 364//362 
f 363//361 366//364 367//365 
f 366//364 368//366 367//365 
f 368//366 365//363 367//365 
f 365//363 363//361 367//365 
f 366//364 369//367 370//368 
f 369//367 371//369 370//368 
f 371//369 368//366 370//368 
f 368//366 366//364 370//368 
f 369//367 372//370 373//371 
f 372//370 374//372 373//371 
f 374//372 371//369 373//371 
f 371//369 369//367 373//371 
f 372//370 375//373 376//374 
f 375//373 377//375 376//374 
f 377//375 374//372 376//374 
f 374//372 372//370 376//374 
f 375//373 378//376 379//377 
f 378//376 380//378 379//377 
f 380//378 377//375 379//377 
f 377//375 375//373 379//377 
f 378//376 381//379 382//380 
f 381//379 383//381 382//380 
f 383//381 380//378 382//380 
f 380//378 378//376 382//380 
f 381//379 384//382 385//383 
f 384//382 386//384 385//383 
f 386//384 383//381 385//383 
f 383//381 381//379 385//383 
f 384//382 387//385 388//386 
f 387//385 389//387 388//386 
f 389//387 386//384 388//386 
f 386//384 384//382 388//386 
f 387//385 390//388 391//389 
f 390//388 392//390 391//389 
f 392//390 389//387 391//389 
f 389//387 387//385 391//389 
s 4
f 390//388 393//391 394//82 
f 393//391 395//392 394//82 
f 395//392 392//390 394//82 
f 392//390 390//388 394//82 
s 3
f 393//391 1//1 396//393 
f 1//1 5//5 396//393 
f 5//5 395//392 396//393 
f 395//392 393//391 396//393 
s 1
f 397//394 398//395 399//396 
f 398//395 400//397 399//396 
f 400//397 401//398 399//396 
f 401//398 397//394 399//396 
s 3
f 398//395 402//399 403//400 
f 402//399 404//401 403//400 
f 404//401 400//397 403//400 
f 400//397 398//395 403//400 
s 2
f 402//399 405//402 406//403 
f 405//402 407//404 406//403 
f 407//404 404//401 406//403 
f 404//401 402//399 406//403 
f 405//402 408//405 409//406 
f 408//405 410//407 409//406 
f 410//407 407//404 409//406 
f 407//404 405//402 409//406 
f 408//405 411//408 412//409 
f 411//408 413//410 412//409 
f 413//410 410//407 412//409 
f 410//407 408//405 412//409 
f 411//408 414//411 415//412 
f 414//411 416//413 415//412 
f 416//413 413//410 415//412 
f 413//410 411//408 415//412 
f 414//411 417//414 418//415 
f 417//414 419//416 418//415 
f 419//416 416//413 418//415 
f 416//413 414//411 418//415 
f 417//414 420//417 421//418 
f 420//417 422//419 421//418 
f 422//419 419//416 421//418 
f 419//416 417//414 421//418 
f 420//417 423//420 424//421 
f 423//420 425//422 424//421 
f 425//422 422//419 424//421 
f 422//419 420//417 424//421 
f 423//420 426//423 427//424 
f 426//423 428//425 427//424 
f 428//425 425//422 427//424 
f 425//422 423//420 427//424 
f 426//423 429//426 430//427 
f 429//426 431//428 430//427 
f 431//428 428//425 430//427 
f 428//425 426//423 430//427 
f 429//426 432//429 433//430 
f 432//429 434//431 433//430 
f 434//431 431//428 433//430 
f 431//428 429//426 433//430 
f 432//429 435//432 436//433 
f 435//432 437//434 436//433 
f 437//434 434//431 436//433 
f 434//431 432//429 436//433 
f 435//432 438//435 439//436 
f 438//435 440//437 439//436 
f 440//437 437//434 439//436 
f 437//434 435//432 439//436 
f 438//435 441//438 442//439 
f 441//438 443//440 442//439 
f 443//440 440//437 442//439 
f 440//437 438//435 442//439 
f 441//438 444//441 445//442 
f 444//441 446//443 445//442 
f 446//443 443//440 445//442 
f 443//440 441//438 445//442 
f 444//441 447//444 448//445 
f 447//444 449//446 448//445 
f 449//446 446//443 448//445 
f 446//443 444//441 448//445 
f 447//444 450//447 451//448 
f 450//447 452//449 451//448 
f 452//449 449//446 451//448 
f 449//446 447//444 451//448 
f 450//447 453//450 454//451 
f 453//450 455//452 454//451 
f 455//452 452//449 454//451 
f 452//449 450//447 454//451 
f 453//450 456//453 457//454 
f 456//453 458//455 457//454 
f 458//455 455//452 457//454 
f 455//452 453//450 457//454 
f 456//453 459//456 460//457 
f 459//456 461//458 460//457 
f 461//458 458//455 460//457 
f 458//455 456//453 460//457 
f 459//456 462//459 463//460 
f 462//459 464//461 463//460 
f 464//461 461//458 463//460 
f 461//458 459//456 463//460 
f 462//459 465//462 466//463 
f 465//462 467//464 466//463 
f 467//464 464//461 466//463 
f 464//461 462//459 466//463 
f 465//462 468//465 469//466 
f 468//465 470//467 469//466 
f 470//467 467//464 469//466 
f 467//464 465//462 469//466 
f 468//465 471//468 472//469 
f 471//468 473//470 472//469 
f 473//470 470//467 472//469 
f 470//467 468//465 472//469 
f 471//468 474//471 475//472 
f 474//471 476//473 475//472 
f 476//473 473//470 475//472 
f 473//470 471//468 475//472 
f 474//471 477//474 478//475 
f 477//474 479//476 478//475 
f 479//476 476//473 478//475 
f 476//473 474//471 478//475 
f 477//474 480//477 481//478 
f 480//477 482//479 481//478 
f 482//479 479//476 481//478 
f 479//476 477//474 481//478 
f 480//477 483//480 484//481 
f 483//480 485//482 484//481 
f 485//482 482//479 484//481 
f 482//479 480//477 484//481 
f 483//480 486//483 487//484 
f 486//483 488//485 487//484 
f 488//485 485//482 487//484 
f 485//482 483//480 487//484 
f 486//483 489//486 490//487 
f 489//486 491//488 490//487 
f 491//488 488//485 490//487 
f 488//485 486//483 490//487 
f 489//486 492//489 493//490 
f 492//489 494//491 493//490 
f 494//491 491//488 493//490 
f 491//488 489//486 493//490 
f 492//489 495//492 496//493 
f 495//492 497//494 496//493 
f 497//494 494//491 496//493 
f 494//491 492//489 496//493 
f 495//492 498//495 499//496 
f 498//495 500//497 499//496 
f 500//497 497//494 499//496 
f 497//494 495//492 499//496 
f 498//495 501//498 502//499 
f 501//498 503//500 502//499 
f 503//500 500//497 502//499 
f 500//497 498//495 502//499 
s 3
f 501//498 397//394 504//501 
f 397//394 401//398 504//501 
f 401//398 503//500 504//501 
f 503//500 501//498 504//501 
s 1
f 505//502 506//503 507//504 
f 506//503 508//505 507//504 
f 508//505 509//506 507//504 
f 509//506 505//502 507//504 
s 3
f 506//503 510//507 511//508 
f 510//507 512//509 511//508 
f 512//509 508//505 511//508 
f 508//505 506//503 511//508 
s 2
f 510//507 513//510 514//511 
f 513//510 515//512 514//511 
f 515//512 512//509 514//511 
f 512//509 510//507 514//511 
f 513//510 516//513 517//514 
f 516//513 518//515 517//514 
f 518//515 515//512 517//514 
f 515//512 513//510 517//514 
f 516//513 519//516 520//517 
f 519//516 521//518 520//517 
f 521//518 518//515 520//517 
f 518//515 516//513 520//517 
f 519//516 522//519 523//520 
f 522//519 524//521 523//520 
f 524//521 521//518 523//520 
f 521//518 519//516 523//520 
f 522//519 525//522 526//523 
f 525//522 527//524 526//523 
f 527//524 524//521 526//523 
f 524//521 522//519 526//523 
f 525//522 528//525 529//526 
f 528//525 530//527 529//526 
f 530//527 527//524 529//526 
f 527//524 525//522 529//526 
s 4
f 528//525 531//528 532//88 
f 531//528 533//529 532//88 
f 533//529 530//527 532//88 
f 530//527 528//525 532//88 
s 2
f 531//528 534//530 535//531 
f 534//530 536//532 535//531 
f 536//532 533//529 535//531 
f 533//529 531//528 535//531 
f 534//530 537//533 538//534 
f 537//533 539//535 538//534 
f 539//535 536//532 538//534 
f 536//532 534//530 538//534 
f 537//533 540//536 541//537 
f 540//536 542//538 541//537 
f 542//538 539//535 541//537 
f 539//535 537//533 541//537 
f 540//536 543//539 544//540 
f 543//539 545//541 544//540 
f 545//541 542//538 544//540 
f 542//538 540//536 544//540 
f 543//539 546//542 547//543 
f 546//542 548//544 547//543 
f 548//544 545//541 547//543 
f 545//541 543//539 547//543 
f 546//542 549//545 550//546 
f 549//545 551//547 550//546 
f 551//547 548//544 550//546 
f 548//544 546//542 550//546 
f 549//545 552//548 553//549 
f 552//548 554//550 553//549 
f 554//550 551//547 553//549 
f 551//547 549//545 553//549 
f 552//548 555//551 556//552 
f 555//551 557//553 556//552 
f 557//553 554//550 556//552 
f 554//550 552//548 556//552 
f 555//551 558//554 559//555 
f 558//554 560//556 559//555 
f 560//556 557//553 559//555 
f 557//553 555//551 559//555 
f 558//554 561//557 562//558 
f 561//557 563//559 562//558 
f 563//559 560//556 562//558 
f 560//556 558//554 562//558 
f 561//557 564//560 565//561 
f 564//560 566//562 565//561 
f 566//562 563//559 565//561 
f 563//559 561//557 565//561 
f 564//560 567//563 568//564 
f 567//563 569//565 568//564 
f 569//565 566//562 568//564 
f 566//562 564//560 568//564 
f 567//563 570//566 571//567 
f 570//566 572//568 571//567 
f 572//568 569//565 571//567 
f 569//565 567//563 571//567 
f 570//566 573//569 574//570 
f 573//569 575//571 574//570 
f 575//571 572//568 574//570 
f 572//568 570//566 574//570 
f 573//569 576//572 577//573 
f 576//572 578//574 577//573 
f 578//574 575//571 577//573 
f 575//571 573//569 577//573 
f 576//572 579//575 580//576 
f 579//575 581//577 580//576 
f 581//577 578//574 580//576 
f 578//574 576//572 580//576 
f 579//575 582//578 583//579 
f 582//578 584//580 583//579 
f 584//580 581//577 583//579 
f 581//577 579//575 583//579 
f 582//578 585//581 586//582 
f 585//581 587//583 586//582 
f 587//583 584//580 586//582 
f 584//580 582//578 586//582 
s 3
f 585//581 505//502 588//584 
f 505//502 509//506 588//584 
f 509//506 587//583 588//584 
f 587//583 585//581 588//584 
s 16
f 528//525 525//522 589//585 
f 525//522 288//286 589//585 
f 288//286 285//283 589//585 
f 285//283 282//281 589//585 
f 282//281 528//525 589//585 
f 443//440 446//443 590//586 
f 446//443 281//280 590//586 
f 281//280 284//282 590//586 
f 284//282 530//527 590//586 
f 525//522 522//519 591//585 
f 522//519 294//292 591//585 
f 294//292 291//289 591//585 
f 291//289 288//286 591//585 
f 288//286 525//522 591//585 
f 282//281 279//278 592//585 
f 279//278 441//438 592//585 
f 528//525 282//281 592//585 
f 177//176 174//173 593//585 
f 174//173 171//171 593//585 
f 171//171 168//168 593//585 
f 168//168 594//585 420//417 593//585 
f 420//417 417//414 593//585 
f 417//414 177//176 593//585 
f 417//414 414//411 595//585 
f 414//411 180//179 595//585 
f 180//179 177//176 595//585 
f 177//176 417//414 595//585 
f 414//411 411//408 596//585 
f 411//408 183//182 596//585 
f 183//182 180//179 596//585 
f 180//179 414//411 596//585 
f 411//408 408//405 597//585 
f 408//405 186//185 597//585 
f 186//185 183//182 597//585 
f 183//182 411//408 597//585 
f 408//405 405//402 598//585 
f 405//402 189//188 598//585 
f 189//188 186//185 598//585 
f 186//185 408//405 598//585 
f 405//402 402//399 599//585 
f 402//399 192//191 599//585 
f 192//191 189//188 599//585 
f 189//188 405//402 599//585 
f 402//399 398//395 600//585 
f 398//395 195//194 600//585 
f 195//194 192//191 600//585 
f 192//191 402//399 600//585 
f 398//395 397//394 601//585 
f 397//394 195//194 601//585 
f 195//194 398//395 601//585 
f 397//394 501//498 602//585 
f 501//498 198//197 602//585 
f 198//197 195//194 602//585 
f 195//194 397//394 602//585 
f 501//498 498//495 603//585 
f 498//495 201//200 603//585 
f 201//200 198//197 603//585 
f 198//197 501//498 603//585 
f 498//495 495//492 604//585 
f 495//492 207//206 604//585 
f 207//206 204//203 604//585 
f 204//203 201//200 604//585 
f 201//200 498//495 604//585 
f 495//492 492//489 605//585 
f 492//489 213//212 605//585 
f 213//212 210//209 605//585 
f 210//209 207//206 605//585 
f 207//206 495//492 605//585 
f 492//489 489//486 606//585 
f 489//486 219//218 606//585 
f 219//218 216//215 606//585 
f 216//215 213//212 606//585 
f 213//212 492//489 606//585 
f 489//486 486//483 607//585 
f 486//483 228//227 607//585 
f 228//227 225//224 607//585 
f 225//224 222//221 607//585 
f 222//221 219//218 607//585 
f 219//218 489//486 607//585 
f 486//483 483//480 608//585 
f 483//480 234//233 608//585 
f 234//233 231//230 608//585 
f 231//230 228//227 608//585 
f 228//227 486//483 608//585 
f 483//480 480//477 609//585 
f 480//477 240//239 609//585 
f 240//239 237//236 609//585 
f 237//236 234//233 609//585 
f 234//233 483//480 609//585 
f 480//477 477//474 610//585 
f 477//474 246//245 610//585 
f 246//245 243//242 610//585 
f 243//242 240//239 610//585 
f 240//239 480//477 610//585 
f 477//474 474//471 611//585 
f 474//471 252//251 611//585 
f 252//251 249//248 611//585 
f 249//248 246//245 611//585 
f 246//245 477//474 611//585 
f 474//471 471//468 612//585 
f 471//468 255//254 612//585 
f 255//254 252//251 612//585 
f 252//251 474//471 612//585 
f 471//468 468//465 613//585 
f 468//465 258//257 613//585 
f 258//257 255//254 613//585 
f 255//254 471//468 613//585 
f 468//465 465//462 614//585 
f 465//462 261//260 614//585 
f 261//260 258//257 614//585 
f 258//257 468//465 614//585 
f 465//462 462//459 615//585 
f 462//459 264//263 615//585 
f 264//263 261//260 615//585 
f 261//260 465//462 615//585 
f 462//459 459//456 616//585 
f 459//456 267//266 616//585 
f 267//266 264//263 616//585 
f 264//263 462//459 616//585 
f 459//456 456//453 617//585 
f 456//453 270//269 617//585 
f 270//269 267//266 617//585 
f 267//266 459//456 617//585 
f 456//453 453//450 618//585 
f 453//450 273//272 618//585 
f 273//272 270//269 618//585 
f 270//269 456//453 618//585 
f 453//450 450//447 619//585 
f 450//447 276//275 619//585 
f 276//275 273//272 619//585 
f 273//272 453//450 619//585 
f 450//447 447//444 620//585 
f 447//444 279//278 620//585 
f 279//278 276//275 620//585 
f 276//275 450//447 620//585 
f 447//444 444//441 621//585 
f 444//441 279//278 621//585 
f 279//278 447//444 621//585 
f 444//441 441//438 622//585 
f 441//438 279//278 622//585 
f 279//278 444//441 622//585 
f 522//519 519//516 623//585 
f 519//516 300//298 623//585 
f 300//298 297//295 623//585 
f 297//295 294//292 623//585 
f 294//292 522//519 623//585 
f 519//516 516//513 624//585 
f 516//513 306//304 624//585 
f 306//304 303//301 624//585 
f 303//301 300//298 624//585 
f 300//298 519//516 624//585 
f 516//513 513//510 625//585 
f 513//510 312//310 625//585 
f 312//310 309//307 625//585 
f 309//307 306//304 625//585 
f 306//304 516//513 625//585 
f 513//510 510//507 626//585 
f 510//507 318//316 626//585 
f 318//316 315//313 626//585 
f 315//313 312//310 626//585 
f 312//310 513//510 626//585 
f 510//507 506//503 627//585 
f 506//503 324//322 627//585 
f 324//322 321//319 627//585 
f 321//319 318//316 627//585 
f 318//316 510//507 627//585 
f 506//503 505//502 628//585 
f 505//502 330//328 628//585 
f 330//328 327//325 628//585 
f 327//325 324//322 628//585 
f 324//322 506//503 628//585 
f 505//502 585//581 629//585 
f 585//581 336//334 629//585 
f 336//334 333//331 629//585 
f 333//331 330//328 629//585 
f 330//328 505//502 629//585 
f 585//581 582//578 630//585 
f 582//578 339//337 630//585 
f 339//337 336//334 630//585 
f 336//334 585//581 630//585 
f 582//578 579//575 631//585 
f 579//575 339//337 631//585 
f 339//337 582//578 631//585 
f 579//575 576//572 632//585 
f 576//572 342//340 632//585 
f 342//340 339//337 632//585 
f 339//337 579//575 632//585 
f 576//572 573//569 633//585 
f 573//569 345//343 633//585 
f 345//343 342//340 633//585 
f 342//340 576//572 633//585 
f 573//569 570//566 634//585 
f 570//566 348//346 634//585 
f 348//346 345//343 634//585 
f 345//343 573//569 634//585 
f 570//566 567//563 635//585 
f 567//563 351//349 635//585 
f 351//349 348//346 635//585 
f 348//346 570//566 635//585 
f 567//563 564//560 636//585 
f 564//560 354//352 636//585 
f 354//352 351//349 636//585 
f 351//349 567//563 636//585 
f 564//560 561//557 637//585 
f 561//557 360//358 637//585 
f 360//358 357//355 637//585 
f 357//355 354//352 637//585 
f 354//352 564//560 637//585 
f 561//557 558//554 638//585 
f 558//554 360//358 638//585 
f 360//358 561//557 638//585 
f 558//554 555//551 639//585 
f 555//551 363//361 639//585 
f 363//361 360//358 639//585 
f 360//358 558//554 639//585 
f 555//551 552//548 640//585 
f 552//548 366//364 640//585 
f 366//364 363//361 640//585 
f 363//361 555//551 640//585 
f 552//548 549//545 641//585 
f 549//545 369//367 641//585 
f 369//367 366//364 641//585 
f 366//364 552//548 641//585 
f 549//545 546//542 642//585 
f 546//542 372//370 642//585 
f 372//370 369//367 642//585 
f 369//367 549//545 642//585 
f 546//542 543//539 643//585 
f 543//539 375//373 643//585 
f 375//373 372//370 643//585 
f 372//370 546//542 643//585 
f 543//539 540//536 644//585 
f 540//536 381//379 644//585 
f 381//379 378//376 644//585 
f 378//376 375//373 644//585 
f 375//373 543//539 644//585 
f 540//536 537//533 645//585 
f 537//533 384//382 645//585 
f 384//382 381//379 645//585 
f 381//379 540//536 645//585 
f 537//533 534//530 646//585 
f 534//530 387//385 646//585 
f 387//385 384//382 646//585 
f 384//382 537//533 646//585 
f 534//530 531//528 647//585 
f 531//528 390//388 647//585 
f 390//388 387//385 647//585 
f 387//385 534//530 647//585 
f 531//528 528//525 648//585 
f 528//525 592//585 441//438 648//585 
f 441//438 438//435 648//585 
f 438//435 393//391 648//585 
f 393//391 390//388 648//585 
f 390//388 531//528 648//585 
f 438//435 435//432 649//585 
f 435//432 393//391 649//585 
f 393//391 438//435 649//585 
f 435//432 432//429 650//585 
f 432//429 393//391 650//585 
f 393//391 435//432 650//585 
f 432//429 429//426 651//585 
f 429//426 393//391 651//585 
f 393//391 432//429 651//585 
f 429//426 426//423 652//585 
f 426//423 393//391 652//585 
f 393//391 429//426 652//585 
f 423//420 2//2 653//585 
f 2//2 1//1 653//585 
f 1//1 423//420 653//585 
f 168//168 24//24 594//585 
f 24//24 21//21 594//585 
f 21//21 420//417 594//585 
f 1//1 393//391 654//585 
f 393//391 426//423 654//585 
f 426//423 423//420 654//585 
f 423//420 1//1 654//585 
f 168//168 165//165 655//585 
f 165//165 162//162 655//585 
f 162//162 159//159 655//585 
f 159//159 156//156 655//585 
f 156//156 153//153 655//585 
f 153//153 150//150 655//585 
f 150//150 147//147 655//585 
f 147//147 144//144 655//585 
f 144//144 141//141 655//585 
f 141//141 138//138 655//585 
f 138//138 24//24 655//585 
f 24//24 168//168 655//585 
f 21//21 18//18 656//585 
f 18//18 420//417 656//585 
f 420//417 21//21 656//585 
f 18//18 15//15 657//585 
f 15//15 420//417 657//585 
f 420//417 18//18 657//585 
f 15//15 12//12 658//585 
f 12//12 420//417 658//585 
f 420//417 15//15 658//585 
f 12//12 9//9 659//585 
f 9//9 420//417 659//585 
f 420//417 12//12 659//585 
f 9//9 6//6 660//585 
f 6//6 420//417 660//585 
f 420//417 9//9 660//585 
f 6//6 2//2 661//585 
f 2//2 423//420 661//585 
f 423//420 420//417 661//585 
f 420//417 6//6 661//585 
f 138//138 135//135 662//585 
f 135//135 24//24 662//585 
f 24//24 138//138 662//585 
f 135//135 132//132 663//585 
f 132//132 27//27 663//585 
f 27//27 24//24 663//585 
f 24//24 135//135 663//585 
f 132//132 129//129 664//585 
f 129//129 27//27 664//585 
f 27//27 132//132 664//585 
f 129//129 126//126 665//585 
f 126//126 30//30 665//585 
f 30//30 27//27 665//585 
f 27//27 129//129 665//585 
f 126//126 123//123 666//585 
f 123//123 30//30 666//585 
f 30//30 126//126 666//585 
f 123//123 120//120 667//585 
f 120//120 33//33 667//585 
f 33//33 30//30 667//585 
f 30//30 123//123 667//585 
f 120//120 117//117 668//585 
f 117//117 33//33 668//585 
f 33//33 120//120 668//585 
f 117//117 114//114 669//585 
f 114//114 39//39 669//585 
f 39//39 36//36 669//585 
f 36//36 33//33 669//585 
f 33//33 117//117 669//585 
f 114//114 111//111 670//585 
f 111//111 48//48 670//585 
f 48//48 45//45 670//585 
f 45//45 42//42 670//585 
f 42//42 39//39 670//585 
f 39//39 114//114 670//585 
f 111//111 108//108 671//585 
f 108//108 54//54 671//585 
f 54//54 51//51 671//585 
f 51//51 48//48 671//585 
f 48//48 111//111 671//585 
f 108//108 105//105 672//585 
f 105//105 66//66 672//585 
f 66//66 63//63 672//585 
f 63//63 60//60 672//585 
f 60//60 57//57 672//585 
f 57//57 54//54 672//585 
f 54//54 108//108 672//585 
f 105//105 102//102 673//585 
f 102//102 72//72 673//585 
f 72//72 69//69 673//585 
f 69//69 66//66 673//585 
f 66//66 105//105 673//585 
f 102//102 99//99 674//585 
f 99//99 75//75 674//585 
f 75//75 72//72 674//585 
f 72//72 102//102 674//585 
f 99//99 96//96 675//585 
f 96//96 78//78 675//585 
f 78//78 75//75 675//585 
f 75//75 99//99 675//585 
f 96//96 93//93 676//585 
f 93//93 78//78 676//585 
f 78//78 96//96 676//585 
f 93//93 90//90 677//585 
f 90//90 78//78 677//585 
f 78//78 93//93 677//585 
f 90//90 87//87 678//585 
f 87//87 78//78 678//585 
f 78//78 90//90 678//585 
f 87//87 84//84 679//585 
f 84//84 81//81 679//585 
f 81//81 78//78 679//585 
f 78//78 87//87 679//585 
f 446//443 449//446 680//586 
f 449//446 281//280 680//586 
f 281//280 446//443 680//586 
f 395//392 437//434 681//586 
f 437//434 440//437 681//586 
f 440//437 395//392 681//586 
f 395//392 5//5 682//586 
f 5//5 425//422 682//586 
f 425//422 428//425 682//586 
f 428//425 395//392 682//586 
f 440//437 443//440 683//586 
f 443//440 590//586 530//527 683//586 
f 530//527 533//529 683//586 
f 533//529 392//390 683//586 
f 392//390 395//392 683//586 
f 395//392 440//437 683//586 
f 533//529 536//532 684//586 
f 536//532 389//387 684//586 
f 389//387 392//390 684//586 
f 392//390 533//529 684//586 
f 536//532 539//535 685//586 
f 539//535 386//384 685//586 
f 386//384 389//387 685//586 
f 389//387 536//532 685//586 
f 539//535 542//538 686//586 
f 542//538 383//381 686//586 
f 383//381 386//384 686//586 
f 386//384 539//535 686//586 
f 542//538 545//541 687//586 
f 545//541 377//375 687//586 
f 377//375 380//378 687//586 
f 380//378 383//381 687//586 
f 383//381 542//538 687//586 
f 545//541 548//544 688//586 
f 548//544 374//372 688//586 
f 374//372 377//375 688//586 
f 377//375 545//541 688//586 
f 548//544 551//547 689//586 
f 551//547 371//369 689//586 
f 371//369 374//372 689//586 
f 374//372 548//544 689//586 
f 551//547 554//550 690//586 
f 554//550 368//366 690//586 
f 368//366 371//369 690//586 
f 371//369 551//547 690//586 
f 554//550 557//553 691//586 
f 557//553 365//363 691//586 
f 365//363 368//366 691//586 
f 368//366 554//550 691//586 
f 557//553 560//556 692//586 
f 560//556 362//360 692//586 
f 362//360 365//363 692//586 
f 365//363 557//553 692//586 
f 560//556 563//559 693//586 
f 563//559 362//360 693//586 
f 362//360 560//556 693//586 
f 563//559 566//562 694//586 
f 566//562 356//354 694//586 
f 356//354 359//357 694//586 
f 359//357 362//360 694//586 
f 362//360 563//559 694//586 
f 566//562 569//565 695//586 
f 569//565 353//351 695//586 
f 353//351 356//354 695//586 
f 356//354 566//562 695//586 
f 569//565 572//568 696//586 
f 572//568 350//348 696//586 
f 350//348 353//351 696//586 
f 353//351 569//565 696//586 
f 572//568 575//571 697//586 
f 575//571 347//345 697//586 
f 347//345 350//348 697//586 
f 350//348 572//568 697//586 
f 575//571 578//574 698//586 
f 578//574 344//342 698//586 
f 344//342 347//345 698//586 
f 347//345 575//571 698//586 
f 578//574 581//577 699//586 
f 581//577 341//339 699//586 
f 341//339 344//342 699//586 
f 344//342 578//574 699//586 
f 581//577 584//580 700//586 
f 584//580 341//339 700//586 
f 341//339 581//577 700//586 
f 584//580 587//583 701//586 
f 587//583 338//336 701//586 
f 338//336 341//339 701//586 
f 341//339 584//580 701//586 
f 587//583 509//506 702//586 
f 509//506 332//330 702//586 
f 332//330 335//333 702//586 
f 335//333 338//336 702//586 
f 338//336 587//583 702//586 
f 509//506 508//505 703//586 
f 508//505 326//324 703//586 
f 326//324 329//327 703//586 
f 329//327 332//330 703//586 
f 332//330 509//506 703//586 
f 508//505 512//509 704//586 
f 512//509 320//318 704//586 
f 320//318 323//321 704//586 
f 323//321 326//324 704//586 
f 326//324 508//505 704//586 
f 512//509 515//512 705//586 
f 515//512 314//312 705//586 
f 314//312 317//315 705//586 
f 317//315 320//318 705//586 
f 320//318 512//509 705//586 
f 515//512 518//515 706//586 
f 518//515 308//306 706//586 
f 308//306 311//309 706//586 
f 311//309 314//312 706//586 
f 314//312 515//512 706//586 
f 518//515 521//518 707//586 
f 521//518 302//300 707//586 
f 302//300 305//303 707//586 
f 305//303 308//306 707//586 
f 308//306 518//515 707//586 
f 521//518 524//521 708//586 
f 524//521 296//294 708//586 
f 296//294 299//297 708//586 
f 299//297 302//300 708//586 
f 302//300 521//518 708//586 
f 524//521 527//524 709//586 
f 527//524 290//288 709//586 
f 290//288 293//291 709//586 
f 293//291 296//294 709//586 
f 296//294 524//521 709//586 
f 527//524 530//527 710//586 
f 530//527 284//282 710//586 
f 284//282 287//285 710//586 
f 287//285 290//288 710//586 
f 290//288 527//524 710//586 
f 5//5 4//4 711//586 
f 4//4 422//419 711//586 
f 422//419 425//422 711//586 
f 425//422 5//5 711//586 
f 428//425 431//428 712//586 
f 431//428 395//392 712//586 
f 395//392 428//425 712//586 
f 431//428 434//431 713//586 
f 434//431 395//392 713//586 
f 395//392 431//428 713//586 
f 434//431 437//434 714//586 
f 437//434 395//392 714//586 
f 395//392 434//431 714//586 
f 4//4 8//8 715//586 
f 8//8 422//419 715//586 
f 422//419 4//4 715//586 
f 8//8 11//11 716//586 
f 11//11 422//419 716//586 
f 422//419 8//8 716//586 
f 11//11 14//14 717//586 
f 14//14 422//419 717//586 
f 422//419 11//11 717//586 
f 14//14 17//17 718//586 
f 17//17 422//419 718//586 
f 422//419 14//14 718//586 
f 17//17 20//20 719//586 
f 20//20 422//419 719//586 
f 422//419 17//17 719//586 
f 20//20 23//23 720//586 
f 23//23 422//419 720//586 
f 422//419 20//20 720//586 
f 80//80 83//83 721//586 
f 83//83 86//86 721//586 
f 86//86 89//89 721//586 
f 89//89 80//80 721//586 
f 89//89 92//92 722//586 
f 92//92 80//80 722//586 
f 80//80 89//89 722//586 
f 92//92 95//95 723//586 
f 95//95 80//80 723//586 
f 80//80 92//92 723//586 
f 95//95 98//98 724//586 
f 98//98 80//80 724//586 
f 80//80 95//95 724//586 
f 98//98 101//101 725//586 
f 101//101 77//77 725//586 
f 77//77 80//80 725//586 
f 80//80 98//98 725//586 
f 101//101 104//104 726//586 
f 104//104 74//74 726//586 
f 74//74 77//77 726//586 
f 77//77 101//101 726//586 
f 104//104 107//107 727//586 
f 107//107 68//68 727//586 
f 68//68 71//71 727//586 
f 71//71 74//74 727//586 
f 74//74 104//104 727//586 
f 107//107 110//110 728//586 
f 110//110 56//56 728//586 
f 56//56 59//59 728//586 
f 59//59 62//62 728//586 
f 62//62 65//65 728//586 
f 65//65 68//68 728//586 
f 68//68 107//107 728//586 
f 110//110 113//113 729//586 
f 113//113 50//50 729//586 
f 50//50 53//53 729//586 
f 53//53 56//56 729//586 
f 56//56 110//110 729//586 
f 113//113 116//116 730//586 
f 116//116 41//41 730//586 
f 41//41 44//44 730//586 
f 44//44 47//47 730//586 
f 47//47 50//50 730//586 
f 50//50 113//113 730//586 
f 116//116 119//119 731//586 
f 119//119 35//35 731//586 
f 35//35 38//38 731//586 
f 38//38 41//41 731//586 
f 41//41 116//116 731//586 
f 119//119 122//122 732//586 
f 122//122 35//35 732//586 
f 35//35 119//119 732//586 
f 122//122 125//125 733//586 
f 125//125 32//32 733//586 
f 32//32 35//35 733//586 
f 35//35 122//122 733//586 
f 125//125 128//128 734//586 
f 128//128 32//32 734//586 
f 32//32 125//125 734//586 
f 128//128 131//131 735//586 
f 131//131 29//29 735//586 
f 29//29 32//32 735//586 
f 32//32 128//128 735//586 
f 131//131 134//134 736//586 
f 134//134 29//29 736//586 
f 29//29 131//131 736//586 
f 134//134 137//137 737//586 
f 137//137 26//26 737//586 
f 26//26 29//29 737//586 
f 29//29 134//134 737//586 
f 137//137 140//140 738//586 
f 140//140 26//26 738//586 
f 26//26 137//137 738//586 
f 140//140 143//143 739//586 
f 143//143 146//146 739//586 
f 146//146 149//149 739//586 
f 149//149 152//152 739//586 
f 152//152 155//155 739//586 
f 155//155 158//158 739//586 
f 158//158 161//161 739//586 
f 161//161 164//164 739//586 
f 164//164 167//167 739//586 
f 167//167 170//170 739//586 
f 170//170 26//26 739//586 
f 26//26 140//140 739//586 
f 422//419 23//23 740//586 
f 23//23 26//26 740//586 
f 26//26 170//170 740//586 
f 449//446 452//449 741//586 
f 452//449 278//277 741//586 
f 278//277 281//280 741//586 
f 281//280 449//446 741//586 
f 452//449 455//452 742//586 
f 455//452 275//274 742//586 
f 275//274 278//277 742//586 
f 278//277 452//449 742//586 
f 455//452 458//455 743//586 
f 458//455 272//271 743//586 
f 272//271 275//274 743//586 
f 275//274 455//452 743//586 
f 458//455 461//458 744//586 
f 461//458 269//268 744//586 
f 269//268 272//271 744//586 
f 272//271 458//455 744//586 
f 461//458 464//461 745//586 
f 464//461 266//265 745//586 
f 266//265 269//268 745//586 
f 269//268 461//458 745//586 
f 464//461 467//464 746//586 
f 467//464 263//262 746//586 
f 263//262 266//265 746//586 
f 266//265 464//461 746//586 
f 467//464 470//467 747//586 
f 470//467 260//259 747//586 
f 260//259 263//262 747//586 
f 263//262 467//464 747//586 
f 470//467 473//470 748//586 
f 473//470 257//256 748//586 
f 257//256 260//259 748//586 
f 260//259 470//467 748//586 
f 473//470 476//473 749//586 
f 476//473 254//253 749//586 
f 254//253 257//256 749//586 
f 257//256 473//470 749//586 
f 476//473 479//476 750//586 
f 479//476 248//247 750//586 
f 248//247 251//250 750//586 
f 251//250 254//253 750//586 
f 254//253 476//473 750//586 
f 479//476 482//479 751//586 
f 482//479 242//241 751//586 
f 242//241 245//244 751//586 
f 245//244 248//247 751//586 
f 248//247 479//476 751//586 
f 482//479 485//482 752//586 
f 485//482 236//235 752//586 
f 236//235 239//238 752//586 
f 239//238 242//241 752//586 
f 242//241 482//479 752//586 
f 485//482 488//485 753//586 
f 488//485 230//229 753//586 
f 230//229 233//232 753//586 
f 233//232 236//235 753//586 
f 236//235 485//482 753//586 
f 488//485 491//488 754//586 
f 491//488 221//220 754//586 
f 221//220 224//223 754//586 
f 224//223 227//226 754//586 
f 227//226 230//229 754//586 
f 230//229 488//485 754//586 
f 491//488 494//491 755//586 
f 494//491 215//214 755//586 
f 215//214 218//217 755//586 
f 218//217 221//220 755//586 
f 221//220 491//488 755//586 
f 494//491 497//494 756//586 
f 497//494 209//208 756//586 
f 209//208 212//211 756//586 
f 212//211 215//214 756//586 
f 215//214 494//491 756//586 
f 497//494 500//497 757//586 
f 500//497 203//202 757//586 
f 203//202 206//205 757//586 
f 206//205 209//208 757//586 
f 209//208 497//494 757//586 
f 500//497 503//500 758//586 
f 503//500 200//199 758//586 
f 200//199 203//202 758//586 
f 203//202 500//497 758//586 
f 503//500 401//398 759//586 
f 401//398 197//196 759//586 
f 197//196 200//199 759//586 
f 200//199 503//500 759//586 
f 401//398 400//397 760//586 
f 400//397 197//196 760//586 
f 197//196 401//398 760//586 
f 400//397 404//401 761//586 
f 404//401 194//193 761//586 
f 194//193 197//196 761//586 
f 197//196 400//397 761//586 
f 404//401 407//404 762//586 
f 407//404 191//190 762//586 
f 191//190 194//193 762//586 
f 194//193 404//401 762//586 
f 407//404 410//407 763//586 
f 410//407 188//187 763//586 
f 188//187 191//190 763//586 
f 191//190 407//404 763//586 
f 410//407 413//410 764//586 
f 413//410 185//184 764//586 
f 185//184 188//187 764//586 
f 188//187 410//407 764//586 
f 413//410 416//413 765//586 
f 416//413 182//181 765//586 
f 182//181 185//184 765//586 
f 185//184 413//410 765//586 
f 416//413 419//416 766//586 
f 419//416 179//178 766//586 
f 179//178 182//181 766//586 
f 182//181 416//413 766//586 
f 419//416 422//419 767//586 
f 422//419 740//586 170//170 767//586 
f 170//170 173//172 767//586 
f 173//172 176//175 767//586 
f 176//175 179//178 767//586 
f 179//178 419//416 767//586 
# 4 polygons - 1530 triangles

