# 3ds Max Wavefront OBJ Exporter v0.97b - (c)2007 guruware
# File Created: 10.09.2021 11:03:35

#
# object Yo_Yag
#

v  1419.8918 0.0000 -30.2959
v  1418.5720 0.0000 -30.5552
v  1419.2319 5.0000 -30.4255
v  1418.5720 10.0000 -30.5552
v  1419.8918 10.0000 -30.2959
v  1417.4283 0.0000 -30.9873
v  1418.0002 5.0000 -30.7712
v  1417.4283 10.0000 -30.9873
v  1416.4604 0.0000 -31.5923
v  1416.9443 5.0000 -31.2898
v  1416.4604 10.0000 -31.5923
v  1415.6686 0.0000 -32.3702
v  1416.0646 5.0000 -31.9813
v  1415.6686 10.0000 -32.3702
v  1415.0527 0.0000 -33.3209
v  1415.3607 5.0000 -32.8456
v  1415.0527 10.0000 -33.3209
v  1414.6128 0.0000 -34.4445
v  1414.8328 5.0000 -33.8827
v  1414.6128 10.0000 -34.4445
v  1414.3489 0.0000 -35.7410
v  1414.4808 5.0000 -35.0928
v  1414.3489 10.0000 -35.7410
v  1414.2609 0.0000 -37.2103
v  1414.3048 5.0000 -36.4757
v  1414.2609 10.0000 -37.2103
v  1414.4294 0.0000 -37.1602
v  1414.3452 5.0000 -37.1853
v  1414.4294 10.0000 -37.1602
v  1414.6144 0.0000 -37.1159
v  1414.5220 5.0000 -37.1381
v  1414.6144 10.0000 -37.1159
v  1414.8157 0.0000 -37.0776
v  1414.7151 5.0000 -37.0968
v  1414.8157 10.0000 -37.0776
v  1415.0333 0.0000 -37.0451
v  1414.9246 5.0000 -37.0614
v  1415.0333 10.0000 -37.0451
v  1415.2672 0.0000 -37.0186
v  1415.1503 5.0000 -37.0319
v  1415.2672 10.0000 -37.0186
v  1415.5176 0.0000 -36.9979
v  1415.3925 5.0000 -37.0082
v  1415.5176 10.0000 -36.9979
v  1415.7842 0.0000 -36.9832
v  1415.6509 5.0000 -36.9905
v  1415.7842 10.0000 -36.9832
v  1416.0671 0.0000 -36.9743
v  1415.9257 5.0000 -36.9787
v  1416.0671 10.0000 -36.9743
v  1416.3665 0.0000 -36.9714
v  1416.2168 5.0000 -36.9728
v  1416.3665 10.0000 -36.9714
v  1418.2223 0.0000 -37.0750
v  1417.2943 5.0000 -37.0232
v  1418.2223 10.0000 -37.0750
v  1419.8597 0.0000 -37.3858
v  1419.0410 5.0000 -37.2304
v  1419.8597 10.0000 -37.3858
v  1421.2788 0.0000 -37.9038
v  1420.5692 5.0000 -37.6448
v  1421.2788 10.0000 -37.9038
v  1422.4796 0.0000 -38.6291
v  1421.8793 5.0000 -38.2664
v  1422.4796 10.0000 -38.6291
v  1423.4622 0.0000 -39.5615
v  1422.9709 5.0000 -39.0953
v  1423.4622 10.0000 -39.5615
v  1424.2263 0.0000 -40.7012
v  1423.8442 5.0000 -40.1313
v  1424.2263 10.0000 -40.7012
v  1424.7721 0.0000 -42.0480
v  1424.4991 5.0000 -41.3746
v  1424.7721 10.0000 -42.0480
v  1425.0996 0.0000 -43.6021
v  1424.9358 5.0000 -42.8251
v  1425.0996 10.0000 -43.6021
v  1425.2087 0.0000 -45.3634
v  1425.1542 5.0000 -44.4828
v  1425.2087 10.0000 -45.3634
v  1425.0967 0.0000 -47.3528
v  1425.1527 5.0000 -46.3581
v  1425.0967 10.0000 -47.3528
v  1424.7603 0.0000 -49.1081
v  1424.9285 5.0000 -48.2304
v  1424.7603 10.0000 -49.1081
v  1424.1997 0.0000 -50.6294
v  1424.4800 5.0000 -49.8688
v  1424.1997 10.0000 -50.6294
v  1423.4149 0.0000 -51.9166
v  1423.8074 5.0000 -51.2730
v  1423.4149 10.0000 -51.9166
v  1422.4059 0.0000 -52.9698
v  1422.9104 5.0000 -52.4432
v  1422.4059 10.0000 -52.9698
v  1421.1726 0.0000 -53.7890
v  1421.7893 5.0000 -53.3794
v  1421.1726 10.0000 -53.7890
v  1419.7151 0.0000 -54.3741
v  1420.4438 5.0000 -54.0815
v  1419.7151 10.0000 -54.3741
v  1418.0334 0.0000 -54.7252
v  1418.8743 5.0000 -54.5496
v  1418.0334 10.0000 -54.7252
v  1416.1274 0.0000 -54.8422
v  1417.0804 5.0000 -54.7837
v  1416.1274 10.0000 -54.8422
v  1415.0160 0.0000 -54.8031
v  1415.5718 5.0000 -54.8226
v  1415.0160 10.0000 -54.8031
v  1413.9536 0.0000 -54.6857
v  1414.4849 5.0000 -54.7444
v  1413.9536 10.0000 -54.6857
v  1412.9402 0.0000 -54.4900
v  1413.4469 5.0000 -54.5878
v  1412.9402 10.0000 -54.4900
v  1411.9758 0.0000 -54.2161
v  1412.4580 5.0000 -54.3530
v  1411.9758 10.0000 -54.2161
v  1411.0604 0.0000 -53.8639
v  1411.5181 5.0000 -54.0400
v  1411.0604 10.0000 -53.8639
v  1410.1940 0.0000 -53.4334
v  1410.6272 5.0000 -53.6487
v  1410.1940 10.0000 -53.4334
v  1409.3766 0.0000 -52.9247
v  1409.7853 5.0000 -53.1791
v  1409.3766 10.0000 -52.9247
v  1408.6083 0.0000 -52.3378
v  1408.9924 5.0000 -52.6312
v  1408.6083 10.0000 -52.3378
v  1407.8889 0.0000 -51.6725
v  1408.2485 5.0000 -52.0051
v  1407.8889 10.0000 -51.6725
v  1407.2325 0.0000 -50.9439
v  1407.5608 5.0000 -51.3082
v  1407.2325 10.0000 -50.9439
v  1406.6536 0.0000 -50.1669
v  1406.9431 5.0000 -50.5554
v  1406.6536 10.0000 -50.1669
v  1406.1517 0.0000 -49.3414
v  1406.4026 5.0000 -49.7542
v  1406.1517 10.0000 -49.3414
v  1405.7271 0.0000 -48.4675
v  1405.9393 5.0000 -48.9044
v  1405.7271 10.0000 -48.4675
v  1405.3796 0.0000 -47.5451
v  1405.5533 5.0000 -48.0063
v  1405.3796 10.0000 -47.5451
v  1405.1094 0.0000 -46.5742
v  1405.2445 5.0000 -47.0597
v  1405.1094 10.0000 -46.5742
v  1404.9164 0.0000 -45.5550
v  1405.0129 5.0000 -46.0646
v  1404.9164 10.0000 -45.5550
v  1404.8005 0.0000 -44.4872
v  1404.8585 5.0000 -45.0211
v  1404.8005 10.0000 -44.4872
v  1404.7620 0.0000 -43.3710
v  1404.7813 5.0000 -43.9291
v  1404.7620 10.0000 -43.3710
v  1404.7620 0.0000 -39.1448
v  1404.7620 5.0000 -41.2579
v  1404.7620 10.0000 -39.1448
v  1404.7958 0.0000 -38.1043
v  1404.7788 5.0000 -38.6246
v  1404.7958 10.0000 -38.1043
v  1404.8971 0.0000 -37.1025
v  1404.8464 5.0000 -37.6034
v  1404.8971 10.0000 -37.1025
v  1405.0659 0.0000 -36.1395
v  1404.9814 5.0000 -36.6210
v  1405.0659 10.0000 -36.1395
v  1405.3024 0.0000 -35.2153
v  1405.1842 5.0000 -35.6774
v  1405.3024 10.0000 -35.2153
v  1405.6063 0.0000 -34.3298
v  1405.4543 5.0000 -34.7725
v  1405.6063 10.0000 -34.3298
v  1405.9779 0.0000 -33.4831
v  1405.7921 5.0000 -33.9064
v  1405.9779 10.0000 -33.4831
v  1406.4169 0.0000 -32.6751
v  1406.1974 5.0000 -33.0791
v  1406.4169 10.0000 -32.6751
v  1406.9236 0.0000 -31.9059
v  1406.6702 5.0000 -32.2905
v  1406.9236 10.0000 -31.9059
v  1407.4977 0.0000 -31.1754
v  1407.2106 5.0000 -31.5407
v  1407.4977 10.0000 -31.1754
v  1408.1261 0.0000 -30.5016
v  1407.8119 5.0000 -30.8385
v  1408.1261 10.0000 -30.5016
v  1408.7953 0.0000 -29.9023
v  1408.4607 5.0000 -30.2020
v  1408.7953 10.0000 -29.9023
v  1409.5052 0.0000 -29.3776
v  1409.1503 5.0000 -29.6400
v  1409.5052 10.0000 -29.3776
v  1410.2561 0.0000 -28.9274
v  1409.8807 5.0000 -29.1525
v  1410.2561 10.0000 -28.9274
v  1411.0479 0.0000 -28.5517
v  1410.6520 5.0000 -28.7396
v  1411.0479 10.0000 -28.5517
v  1411.8804 0.0000 -28.2506
v  1411.4641 5.0000 -28.4012
v  1411.8804 10.0000 -28.2506
v  1412.7538 0.0000 -28.0240
v  1412.3171 5.0000 -28.1373
v  1412.7538 10.0000 -28.0240
v  1413.6681 0.0000 -27.8720
v  1413.2109 5.0000 -27.9480
v  1413.6681 10.0000 -27.8720
v  1414.6232 0.0000 -27.7945
v  1414.1456 5.0000 -27.8332
v  1414.6232 10.0000 -27.7945
v  1413.7786 0.0000 -27.7072
v  1414.2008 5.0000 -27.7508
v  1413.7786 10.0000 -27.7072
v  1412.9656 0.0000 -27.5528
v  1413.3721 5.0000 -27.6300
v  1412.9656 10.0000 -27.5528
v  1412.1842 0.0000 -27.3313
v  1412.5750 5.0000 -27.4421
v  1412.1842 10.0000 -27.3313
v  1411.4344 0.0000 -27.0426
v  1411.8093 5.0000 -27.1870
v  1411.4344 10.0000 -27.0426
v  1410.7163 0.0000 -26.6868
v  1411.0753 5.0000 -26.8647
v  1410.7163 10.0000 -26.6868
v  1410.0297 0.0000 -26.2639
v  1410.3729 5.0000 -26.4753
v  1410.0297 10.0000 -26.2639
v  1409.3746 0.0000 -25.7737
v  1409.7021 5.0000 -26.0188
v  1409.3746 10.0000 -25.7737
v  1408.7511 0.0000 -25.2165
v  1409.0629 5.0000 -25.4951
v  1408.7511 10.0000 -25.2165
v  1408.1593 0.0000 -24.5921
v  1408.4552 5.0000 -24.9043
v  1408.1593 10.0000 -24.5921
v  1407.6152 0.0000 -23.9214
v  1407.8872 5.0000 -24.2568
v  1407.6152 10.0000 -23.9214
v  1407.1351 0.0000 -23.2254
v  1407.3752 5.0000 -23.5734
v  1407.1351 10.0000 -23.2254
v  1406.7191 0.0000 -22.5039
v  1406.9271 5.0000 -22.8646
v  1406.7191 10.0000 -22.5039
v  1406.3671 0.0000 -21.7570
v  1406.5431 5.0000 -22.1304
v  1406.3671 10.0000 -21.7570
v  1406.0790 0.0000 -20.9847
v  1406.2230 5.0000 -21.3708
v  1406.0790 10.0000 -20.9847
v  1405.8550 0.0000 -20.1870
v  1405.9670 5.0000 -20.5859
v  1405.8550 10.0000 -20.1870
v  1405.6949 0.0000 -19.3639
v  1405.7750 5.0000 -19.7755
v  1405.6949 10.0000 -19.3639
v  1405.5990 0.0000 -18.5154
v  1405.6470 5.0000 -18.9397
v  1405.5990 10.0000 -18.5154
v  1405.5670 0.0000 -17.6415
v  1405.5830 5.0000 -18.0784
v  1405.5670 10.0000 -17.6415
v  1405.5670 0.0000 -5.2547
v  1405.5670 5.0000 -11.4481
v  1405.5670 10.0000 -5.2547
v  1434.3530 0.0000 -5.2547
v  1419.9600 5.0000 -5.2547
v  1434.3530 10.0000 -5.2547
v  1436.5900 0.0000 -5.3843
v  1435.4714 5.0000 -5.3195
v  1436.5900 10.0000 -5.3843
v  1438.5637 0.0000 -5.7732
v  1437.5769 5.0000 -5.5788
v  1438.5637 10.0000 -5.7732
v  1440.2744 0.0000 -6.4214
v  1439.4191 5.0000 -6.0973
v  1440.2744 10.0000 -6.4214
v  1441.7219 0.0000 -7.3288
v  1440.9982 5.0000 -6.8751
v  1441.7219 10.0000 -7.3288
v  1442.9061 0.0000 -8.4955
v  1442.3140 5.0000 -7.9121
v  1442.9061 10.0000 -8.4955
v  1443.8273 0.0000 -9.9214
v  1443.3667 5.0000 -9.2084
v  1443.8273 10.0000 -9.9214
v  1444.4852 0.0000 -11.6066
v  1444.1563 5.0000 -10.7640
v  1444.4852 10.0000 -11.6066
v  1444.8800 0.0000 -13.5511
v  1444.6826 5.0000 -12.5788
v  1444.8800 10.0000 -13.5511
v  1445.0116 0.0000 -15.7548
v  1444.9458 5.0000 -14.6529
v  1445.0116 10.0000 -15.7548
v  1445.0116 0.0000 -54.6812
v  1445.0116 5.0000 -35.2180
v  1445.0116 10.0000 -54.6812
v  1435.1907 0.0000 -54.6812
v  1440.1011 5.0000 -54.6812
v  1435.1907 10.0000 -54.6812
v  1435.1907 0.0000 -17.4252
v  1435.1907 5.0000 -36.0532
v  1435.1907 10.0000 -17.4252
v  1435.1200 0.0000 -16.2900
v  1435.1553 5.0000 -16.8576
v  1435.1200 10.0000 -16.2900
v  1434.9080 0.0000 -15.2884
v  1435.0139 5.0000 -15.7892
v  1434.9080 10.0000 -15.2884
v  1434.5544 0.0000 -14.4204
v  1434.7312 5.0000 -14.8544
v  1434.5544 10.0000 -14.4204
v  1434.0597 0.0000 -13.6859
v  1434.3071 5.0000 -14.0532
v  1434.0597 10.0000 -13.6859
v  1433.4236 0.0000 -13.0850
v  1433.7416 5.0000 -13.3854
v  1433.4236 10.0000 -13.0850
v  1432.6460 0.0000 -12.6176
v  1433.0348 5.0000 -12.8513
v  1432.6460 10.0000 -12.6176
v  1431.7271 0.0000 -12.2837
v  1432.1865 5.0000 -12.4506
v  1431.7271 10.0000 -12.2837
v  1430.6667 0.0000 -12.0834
v  1431.1969 5.0000 -12.1835
v  1430.6667 10.0000 -12.0834
v  1429.4652 0.0000 -12.0166
v  1430.0660 5.0000 -12.0500
v  1429.4652 10.0000 -12.0166
v  1415.3878 0.0000 -12.0166
v  1422.4265 5.0000 -12.0166
v  1415.3878 10.0000 -12.0166
v  1415.3878 0.0000 -16.9598
v  1415.3878 5.0000 -14.4882
v  1415.3878 10.0000 -16.9598
v  1415.4585 0.0000 -18.5917
v  1415.4232 5.0000 -17.7757
v  1415.4585 10.0000 -18.5917
v  1415.6705 0.0000 -20.0317
v  1415.5645 5.0000 -19.3117
v  1415.6705 10.0000 -20.0317
v  1416.0238 0.0000 -21.2796
v  1415.8472 5.0000 -20.6556
v  1416.0238 10.0000 -21.2796
v  1416.5183 0.0000 -22.3356
v  1416.2710 5.0000 -21.8076
v  1416.5183 10.0000 -22.3356
v  1417.1542 0.0000 -23.1995
v  1416.8363 5.0000 -22.7676
v  1417.1542 10.0000 -23.1995
v  1417.9314 0.0000 -23.8715
v  1417.5428 5.0000 -23.5355
v  1417.9314 10.0000 -23.8715
v  1418.8500 0.0000 -24.3515
v  1418.3906 5.0000 -24.1115
v  1418.8500 10.0000 -24.3515
v  1419.9097 0.0000 -24.6395
v  1419.3798 5.0000 -24.4955
v  1419.9097 10.0000 -24.6395
v  1421.1108 0.0000 -24.7355
v  1420.5103 5.0000 -24.6875
v  1421.1108 10.0000 -24.7355
v  1426.6577 0.0000 -24.7355
v  1423.8843 5.0000 -24.7355
v  1426.6577 10.0000 -24.7355
v  1426.6577 0.0000 -30.2094
v  1426.6577 5.0000 -27.4725
v  1426.6577 10.0000 -30.2094
v  1421.3876 0.0000 -30.2094
v  1424.0227 5.0000 -30.2094
v  1421.3876 10.0000 -30.2094
v  1420.6396 5.0000 -30.2526
v  1416.9641 0.0000 -49.6423
v  1417.6890 0.0000 -49.4983
v  1417.3265 5.0000 -49.5703
v  1417.6890 10.0000 -49.4983
v  1416.9641 10.0000 -49.6423
v  1418.3171 0.0000 -49.2584
v  1418.0031 5.0000 -49.3783
v  1418.3171 10.0000 -49.2584
v  1418.8488 0.0000 -48.9225
v  1418.5829 5.0000 -49.0905
v  1418.8488 10.0000 -48.9225
v  1419.2836 0.0000 -48.4907
v  1419.0662 5.0000 -48.7066
v  1419.2836 10.0000 -48.4907
v  1419.6219 0.0000 -47.9629
v  1419.4528 5.0000 -48.2268
v  1419.6219 10.0000 -47.9629
v  1419.8635 0.0000 -47.3391
v  1419.7427 5.0000 -47.6510
v  1419.8635 10.0000 -47.3391
v  1420.0085 0.0000 -46.6193
v  1419.9360 5.0000 -46.9792
v  1420.0085 10.0000 -46.6193
v  1420.0568 0.0000 -45.8036
v  1420.0327 5.0000 -46.2115
v  1420.0568 10.0000 -45.8036
v  1420.0085 0.0000 -44.9636
v  1420.0327 5.0000 -45.3836
v  1420.0085 10.0000 -44.9636
v  1419.8635 0.0000 -44.2225
v  1419.9360 5.0000 -44.5931
v  1419.8635 10.0000 -44.2225
v  1419.6219 0.0000 -43.5801
v  1419.7427 5.0000 -43.9013
v  1419.6219 10.0000 -43.5801
v  1419.2836 0.0000 -43.0366
v  1419.4528 5.0000 -43.3084
v  1419.2836 10.0000 -43.0366
v  1418.8488 0.0000 -42.5919
v  1419.0662 5.0000 -42.8142
v  1418.8488 10.0000 -42.5919
v  1418.3171 0.0000 -42.2460
v  1418.5829 5.0000 -42.4190
v  1418.3171 10.0000 -42.2460
v  1417.6890 0.0000 -41.9990
v  1418.0031 5.0000 -42.1225
v  1417.6890 10.0000 -41.9990
v  1416.9641 0.0000 -41.8507
v  1417.3265 5.0000 -41.9248
v  1416.9641 10.0000 -41.8507
v  1416.1426 0.0000 -41.8013
v  1416.5533 5.0000 -41.8260
v  1416.1426 10.0000 -41.8013
v  1415.3083 0.0000 -41.8507
v  1415.7255 5.0000 -41.8260
v  1415.3083 10.0000 -41.8507
v  1414.5723 0.0000 -41.9990
v  1414.9403 5.0000 -41.9248
v  1414.5723 10.0000 -41.9990
v  1413.9344 0.0000 -42.2460
v  1414.2533 5.0000 -42.1225
v  1413.9344 10.0000 -42.2460
v  1413.3947 0.0000 -42.5919
v  1413.6646 5.0000 -42.4190
v  1413.3947 10.0000 -42.5919
v  1412.9530 0.0000 -43.0366
v  1413.1738 5.0000 -42.8143
v  1412.9530 10.0000 -43.0366
v  1412.6095 0.0000 -43.5801
v  1412.7813 5.0000 -43.3084
v  1412.6095 10.0000 -43.5801
v  1412.3641 0.0000 -44.2225
v  1412.4868 5.0000 -43.9013
v  1412.3641 10.0000 -44.2225
v  1412.2169 0.0000 -44.9636
v  1412.2905 5.0000 -44.5931
v  1412.2169 10.0000 -44.9636
v  1412.1678 0.0000 -45.8036
v  1412.1924 5.0000 -45.3836
v  1412.1678 10.0000 -45.8036
v  1412.2169 0.0000 -46.6193
v  1412.1924 5.0000 -46.2115
v  1412.2169 10.0000 -46.6193
v  1412.3641 0.0000 -47.3391
v  1412.2905 5.0000 -46.9792
v  1412.3641 10.0000 -47.3391
v  1412.6095 0.0000 -47.9629
v  1412.4868 5.0000 -47.6510
v  1412.6095 10.0000 -47.9629
v  1412.9530 0.0000 -48.4907
v  1412.7813 5.0000 -48.2268
v  1412.9530 10.0000 -48.4907
v  1413.3947 0.0000 -48.9225
v  1413.1738 5.0000 -48.7066
v  1413.3947 10.0000 -48.9225
v  1413.9344 0.0000 -49.2584
v  1413.6646 5.0000 -49.0905
v  1413.9344 10.0000 -49.2584
v  1414.5723 0.0000 -49.4983
v  1414.2533 5.0000 -49.3783
v  1414.5723 10.0000 -49.4983
v  1415.3083 0.0000 -49.6423
v  1414.9403 5.0000 -49.5703
v  1415.3083 10.0000 -49.6423
v  1416.1426 0.0000 -49.6902
v  1415.7255 5.0000 -49.6662
v  1416.1426 10.0000 -49.6902
v  1416.5533 5.0000 -49.6662
v  1413.6719 0.0000 -26.2063
v  1440.1011 10.0000 -35.6356
v  1407.8083 0.0000 -39.2215
v  1410.3699 0.0000 -41.5911
v  1419.3059 0.0000 -27.4605
v  1411.3676 0.0000 -24.5926
v  1409.6700 0.0000 -22.4730
v  1409.1875 0.0000 -20.1527
v  1409.5415 0.0000 -18.2145
v  1410.4774 0.0000 -12.9681
v  1416.8066 0.0000 -9.7626
v  1421.8997 0.0000 -9.7849
v  1425.5785 0.0000 -8.7191
v  1432.9087 0.0000 -10.0520
v  1434.2532 0.0000 -9.0854
v  1436.5823 0.0000 -8.8700
v  1439.5574 0.0000 -10.0456
v  1439.4437 0.0000 -12.8092
v  1440.8810 0.0000 -14.4982
v  1438.4407 0.0000 -16.4900
v  1440.1011 0.0000 -35.6356
v  1420.5750 0.0000 -27.4701
v  1417.4941 0.0000 -26.6432
v  1416.5696 0.0000 -24.9552
v  1423.9535 0.0000 -27.4725
v  1411.9584 0.0000 -39.3987
v  1414.7139 0.0000 -40.3533
v  1408.9169 0.0000 -35.7272
v  1408.7692 0.0000 -33.3935
v  1410.5983 0.0000 -31.4537
v  1412.2352 0.0000 -30.1331
v  1414.1758 0.0000 -29.3173
v  1416.1707 0.0000 -30.1247
v  1416.8745 0.0000 -29.7790
v  1415.2037 0.0000 -37.9305
v  1416.7524 0.0000 -38.9345
v  1418.1837 0.0000 -39.5776
v  1419.2861 0.0000 -39.8836
v  1420.2311 0.0000 -40.3427
v  1421.0186 0.0000 -40.9548
v  1421.6484 0.0000 -41.7198
v  1422.7167 0.0000 -42.8308
v  1421.6572 0.0000 -44.2627
v  1422.5934 0.0000 -44.9332
v  1422.5927 0.0000 -46.2848
v  1422.4323 0.0000 -47.6048
v  1422.1113 0.0000 -48.7599
v  1421.6300 0.0000 -49.7499
v  1420.9883 0.0000 -50.5749
v  1420.1860 0.0000 -51.2349
v  1419.2235 0.0000 -51.7299
v  1418.1003 0.0000 -52.0600
v  1416.8169 0.0000 -52.2250
v  1415.6486 0.0000 -52.2444
v  1414.3582 0.0000 -52.6239
v  1413.3557 0.0000 -51.8657
v  1412.1118 0.0000 -51.9389
v  1410.9053 0.0000 -51.2218
v  1409.8584 0.0000 -50.2816
v  1409.0023 0.0000 -49.1508
v  1408.3679 0.0000 -47.8625
v  1407.9580 0.0000 -46.4195
v  1408.5255 0.0000 -45.2024
v  1408.5359 0.0000 -44.2611
v  1408.6244 0.0000 -42.5796
v  1410.1082 0.0000 -41.9205
v  1438.4407 10.0000 -16.4900
v  1440.8810 10.0000 -14.4982
v  1439.4437 10.0000 -12.8092
v  1439.5574 10.0000 -10.0456
v  1436.5823 10.0000 -8.8700
v  1434.2532 10.0000 -9.0854
v  1432.9087 10.0000 -10.0520
v  1425.5785 10.0000 -8.7191
v  1421.8997 10.0000 -9.7849
v  1416.8066 10.0000 -9.7626
v  1410.4774 10.0000 -12.9681
v  1409.5415 10.0000 -18.2145
v  1409.1875 10.0000 -20.1527
v  1409.6700 10.0000 -22.4730
v  1411.3676 10.0000 -24.5926
v  1413.5360 10.0000 -25.9794
v  1415.8718 10.0000 -25.6432
v  1417.4810 10.0000 -27.5120
v  1419.1106 10.0000 -26.5154
v  1416.1707 10.0000 -30.1247
v  1414.1758 10.0000 -29.3173
v  1412.2352 10.0000 -30.1331
v  1410.5983 10.0000 -31.4537
v  1408.7692 10.0000 -33.3935
v  1408.6368 10.0000 -37.7826
v  1410.3699 10.0000 -41.5911
v  1410.1082 10.0000 -41.9205
v  1408.6244 10.0000 -42.5796
v  1408.5359 10.0000 -44.2611
v  1408.5255 10.0000 -45.2024
v  1407.9580 10.0000 -46.4195
v  1408.3679 10.0000 -47.8625
v  1409.0023 10.0000 -49.1508
v  1409.8584 10.0000 -50.2816
v  1410.9053 10.0000 -51.2218
v  1412.1118 10.0000 -51.9389
v  1413.3557 10.0000 -51.8657
v  1414.3582 10.0000 -52.6239
v  1415.6486 10.0000 -52.2444
v  1416.8169 10.0000 -52.2250
v  1418.1003 10.0000 -52.0600
v  1419.2235 10.0000 -51.7299
v  1420.1860 10.0000 -51.2349
v  1420.9883 10.0000 -50.5749
v  1421.6300 10.0000 -49.7499
v  1422.1113 10.0000 -48.7599
v  1422.4323 10.0000 -47.6048
v  1422.5927 10.0000 -46.2848
v  1422.5934 10.0000 -44.9332
v  1421.6572 10.0000 -44.2627
v  1422.7167 10.0000 -42.8308
v  1421.6484 10.0000 -41.7198
v  1421.0186 10.0000 -40.9548
v  1420.2311 10.0000 -40.3427
v  1419.2861 10.0000 -39.8836
v  1418.1837 10.0000 -39.5776
v  1416.7524 10.0000 -38.9345
v  1415.2037 10.0000 -37.9305
v  1414.7139 10.0000 -40.3533
v  1414.2559 10.0000 -40.4851
v  1420.5750 10.0000 -27.4701
v  1423.9535 10.0000 -27.4725
v  1419.4579 10.0000 -28.4968
# 621 vertices

vn 0.0868 -0.7228 -0.6856
vn 0.1884 -0.7264 -0.6610
vn 0.1928 0.0000 -0.9812
vn 0.1884 0.7264 -0.6610
vn 0.0868 0.7228 -0.6856
vn 0.3034 -0.7300 -0.6124
vn 0.3534 0.0000 -0.9355
vn 0.3034 0.7300 -0.6124
vn 0.4215 -0.7324 -0.5347
vn 0.5301 0.0000 -0.8479
vn 0.4215 0.7324 -0.5347
vn 0.5273 -0.7326 -0.4304
vn 0.7008 0.0000 -0.7134
vn 0.5273 0.7326 -0.4304
vn 0.6076 -0.7305 -0.3117
vn 0.8393 0.0000 -0.5437
vn 0.6076 0.7305 -0.3117
vn 0.6585 -0.7270 -0.1944
vn 0.9312 0.0000 -0.3646
vn 0.6585 0.7270 -0.1944
vn 0.6847 -0.7233 -0.0897
vn 0.9799 0.0000 -0.1995
vn 0.6847 0.7233 -0.0897
vn 0.2085 -0.9421 0.2628
vn 0.9982 0.0000 -0.0598
vn 0.2085 0.9421 0.2628
vn -0.1847 -0.7011 0.6888
vn -0.2851 0.0000 0.9585
vn -0.1847 0.7011 0.6888
vn -0.1496 -0.7019 0.6964
vn -0.2327 0.0000 0.9725
vn -0.1496 0.7019 0.6964
vn -0.1191 -0.7026 0.7015
vn -0.1872 0.0000 0.9823
vn -0.1191 0.7026 0.7015
vn -0.0925 -0.7032 0.7050
vn -0.1475 0.0000 0.9891
vn -0.0925 0.7032 0.7050
vn -0.0693 -0.7037 0.7071
vn -0.1128 0.0000 0.9936
vn -0.0693 0.7037 0.7071
vn -0.0488 -0.7041 0.7084
vn -0.0823 0.0000 0.9966
vn -0.0488 0.7041 0.7084
vn -0.0307 -0.7044 0.7091
vn -0.0552 0.0000 0.9985
vn -0.0307 0.7044 0.7091
vn -0.0146 -0.7047 0.7093
vn -0.0313 0.0000 0.9995
vn -0.0146 0.7047 0.7093
vn 0.0164 -0.6998 0.7142
vn -0.0099 0.0000 1.0000
vn 0.0164 0.6998 0.7142
vn 0.0876 -0.6926 0.7160
vn 0.0557 0.0000 0.9984
vn 0.0876 0.6926 0.7160
vn 0.1924 -0.6893 0.6985
vn 0.1865 0.0000 0.9825
vn 0.1924 0.6893 0.6985
vn 0.3143 -0.6860 0.6562
vn 0.3429 0.0000 0.9394
vn 0.3143 0.6860 0.6562
vn 0.4424 -0.6836 0.5804
vn 0.5170 0.0000 0.8560
vn 0.4424 0.6836 0.5804
vn 0.5581 -0.6831 0.4711
vn 0.6884 0.0000 0.7253
vn 0.5581 0.6831 0.4711
vn 0.6438 -0.6847 0.3416
vn 0.8306 0.0000 0.5569
vn 0.6438 0.6847 0.3416
vn 0.6943 -0.6877 0.2120
vn 0.9268 0.0000 0.3756
vn 0.6943 0.6877 0.2120
vn 0.7162 -0.6911 0.0971
vn 0.9785 0.0000 0.2062
vn 0.7162 0.6911 0.0971
vn 0.7199 -0.6941 0.0020
vn 0.9981 0.0000 0.0619
vn 0.7199 0.6941 0.0020
vn 0.7160 -0.6924 -0.0884
vn 0.9984 0.0000 -0.0563
vn 0.7160 0.6924 -0.0884
vn 0.6981 -0.6892 -0.1941
vn 0.9821 0.0000 -0.1882
vn 0.6981 0.6892 -0.1941
vn 0.6552 -0.6859 -0.3167
vn 0.9383 0.0000 -0.3458
vn 0.6552 0.6859 -0.3167
vn 0.5785 -0.6836 -0.4450
vn 0.8538 0.0000 -0.5206
vn 0.5785 0.6836 -0.4450
vn 0.4685 -0.6832 -0.5602
vn 0.7221 0.0000 -0.6918
vn 0.4685 0.6832 -0.5602
vn 0.3391 -0.6848 -0.6450
vn 0.5533 0.0000 -0.8330
vn 0.3391 0.6848 -0.6450
vn 0.2102 -0.6879 -0.6948
vn 0.3726 0.0000 -0.9280
vn 0.2102 0.6879 -0.6948
vn 0.0962 -0.6912 -0.7162
vn 0.2043 0.0000 -0.9789
vn 0.0962 0.6912 -0.7162
vn 0.0094 -0.6964 -0.7176
vn 0.0613 0.0000 -0.9981
vn 0.0094 0.6964 -0.7176
vn -0.0519 -0.6988 -0.7135
vn -0.0352 0.0000 -0.9994
vn -0.0519 0.6988 -0.7135
vn -0.1073 -0.6981 -0.7079
vn -0.1098 0.0000 -0.9940
vn -0.1073 0.6981 -0.7079
vn -0.1660 -0.6976 -0.6970
vn -0.1896 0.0000 -0.9819
vn -0.1660 0.6976 -0.6970
vn -0.2269 -0.6971 -0.6802
vn -0.2732 0.0000 -0.9620
vn -0.2269 0.6971 -0.6802
vn -0.2887 -0.6967 -0.6567
vn -0.3591 0.0000 -0.9333
vn -0.2887 0.6967 -0.6567
vn -0.3496 -0.6965 -0.6266
vn -0.4449 0.0000 -0.8956
vn -0.3496 0.6965 -0.6266
vn -0.4078 -0.6965 -0.5904
vn -0.5284 0.0000 -0.8490
vn -0.4078 0.6965 -0.5904
vn -0.4618 -0.6967 -0.5490
vn -0.6071 0.0000 -0.7947
vn -0.4618 0.6967 -0.5490
vn -0.5104 -0.6970 -0.5037
vn -0.6789 0.0000 -0.7342
vn -0.5104 0.6970 -0.5037
vn -0.5546 -0.6968 -0.4548
vn -0.7430 0.0000 -0.6693
vn -0.5546 0.6968 -0.4548
vn -0.5948 -0.6967 -0.4011
vn -0.8018 0.0000 -0.5975
vn -0.5948 0.6967 -0.4011
vn -0.6298 -0.6967 -0.3435
vn -0.8545 0.0000 -0.5195
vn -0.6298 0.6967 -0.3435
vn -0.6588 -0.6969 -0.2834
vn -0.8994 0.0000 -0.4370
vn -0.6588 0.6969 -0.2834
vn -0.6814 -0.6973 -0.2227
vn -0.9358 0.0000 -0.3525
vn -0.6814 0.6973 -0.2227
vn -0.6976 -0.6977 -0.1628
vn -0.9634 0.0000 -0.2681
vn -0.6976 0.6977 -0.1628
vn -0.7080 -0.6983 -0.1053
vn -0.9825 0.0000 -0.1861
vn -0.7080 0.6983 -0.1053
vn -0.7134 -0.6989 -0.0510
vn -0.9942 0.0000 -0.1078
vn -0.7134 0.6989 -0.0510
vn -0.7108 -0.7032 -0.0123
vn -0.9994 0.0000 -0.0346
vn -0.7108 0.7032 -0.0123
vn -0.7106 -0.7035 0.0115
vn -1.0000 0.0000 -0.0000
vn -0.7106 0.7035 0.0115
vn -0.7131 -0.6995 0.0476
vn -0.9995 0.0000 0.0324
vn -0.7131 0.6995 0.0476
vn -0.7084 -0.6990 0.0978
vn -0.9949 0.0000 0.1006
vn -0.7084 0.6990 0.0978
vn -0.6995 -0.6986 0.1506
vn -0.9850 0.0000 0.1727
vn -0.6995 0.6986 0.1506
vn -0.6859 -0.6982 0.2051
vn -0.9688 0.0000 0.2478
vn -0.6859 0.6982 0.2051
vn -0.6672 -0.6979 0.2604
vn -0.9458 0.0000 0.3247
vn -0.6672 0.6979 0.2604
vn -0.6433 -0.6977 0.3152
vn -0.9157 0.0000 0.4018
vn -0.6433 0.6977 0.3152
vn -0.6144 -0.6977 0.3684
vn -0.8786 0.0000 0.4775
vn -0.6144 0.6977 0.3684
vn -0.5812 -0.6978 0.4187
vn -0.8351 0.0000 0.5500
vn -0.5812 0.6978 0.4187
vn -0.5440 -0.6977 0.4660
vn -0.7862 0.0000 0.6180
vn -0.5440 0.6977 0.4660
vn -0.5018 -0.6971 0.5120
vn -0.7313 0.0000 0.6820
vn -0.5018 0.6971 0.5120
vn -0.4530 -0.6967 0.5563
vn -0.6671 0.0000 0.7450
vn -0.4530 0.6967 0.5563
vn -0.3982 -0.6964 0.5970
vn -0.5943 0.0000 0.8042
vn -0.3982 0.6964 0.5970
vn -0.3388 -0.6963 0.6327
vn -0.5142 0.0000 0.8577
vn -0.3388 0.6963 0.6327
vn -0.2762 -0.6965 0.6623
vn -0.4287 0.0000 0.9035
vn -0.2762 0.6965 0.6623
vn -0.2123 -0.6968 0.6852
vn -0.3401 0.0000 0.9404
vn -0.2123 0.6968 0.6852
vn -0.1490 -0.6972 0.7012
vn -0.2511 0.0000 0.9680
vn -0.1490 0.6972 0.7012
vn -0.0878 -0.6978 0.7109
vn -0.1641 0.0000 0.9864
vn -0.0878 0.6978 0.7109
vn -0.0472 -0.9989 0.0005
vn -0.0809 0.0000 0.9967
vn -0.0472 0.9989 0.0005
vn -0.1037 -0.6977 -0.7088
vn -0.1027 0.0000 -0.9947
vn -0.1037 0.6977 -0.7088
vn -0.1648 -0.6973 -0.6976
vn -0.1866 0.0000 -0.9824
vn -0.1648 0.6973 -0.6976
vn -0.2269 -0.6970 -0.6803
vn -0.2728 0.0000 -0.9621
vn -0.2269 0.6970 -0.6803
vn -0.2884 -0.6969 -0.6567
vn -0.3593 0.0000 -0.9332
vn -0.2884 0.6969 -0.6567
vn -0.3476 -0.6969 -0.6273
vn -0.4439 0.0000 -0.8961
vn -0.3476 0.6969 -0.6273
vn -0.4032 -0.6971 -0.5929
vn -0.5245 0.0000 -0.8514
vn -0.4032 0.6971 -0.5929
vn -0.4539 -0.6974 -0.5546
vn -0.5991 0.0000 -0.8007
vn -0.4539 0.6974 -0.5546
vn -0.4990 -0.6979 -0.5138
vn -0.6664 0.0000 -0.7456
vn -0.4990 0.6979 -0.5138
vn -0.5379 -0.6985 -0.4719
vn -0.7258 0.0000 -0.6879
vn -0.5379 0.6985 -0.4719
vn -0.5729 -0.6985 -0.4289
vn -0.7766 0.0000 -0.6300
vn -0.5729 0.6985 -0.4289
vn -0.6053 -0.6981 -0.3824
vn -0.8232 0.0000 -0.5677
vn -0.6053 0.6981 -0.3824
vn -0.6346 -0.6979 -0.3318
vn -0.8663 0.0000 -0.4996
vn -0.6346 0.6979 -0.3318
vn -0.6601 -0.6978 -0.2781
vn -0.9046 0.0000 -0.4264
vn -0.6601 0.6978 -0.2781
vn -0.6809 -0.6979 -0.2222
vn -0.9370 0.0000 -0.3495
vn -0.6809 0.6979 -0.2222
vn -0.6967 -0.6980 -0.1653
vn -0.9628 0.0000 -0.2704
vn -0.6967 0.6980 -0.1653
vn -0.7075 -0.6983 -0.1086
vn -0.9816 0.0000 -0.1908
vn -0.7075 0.6983 -0.1086
vn -0.7135 -0.6986 -0.0534
vn -0.9937 0.0000 -0.1124
vn -0.7135 0.6986 -0.0534
vn -0.7111 -0.7030 -0.0130
vn -0.9993 0.0000 -0.0366
vn -0.7111 0.7030 -0.0130
vn -0.5774 -0.5774 0.5774
vn -0.5774 0.5774 0.5774
vn 0.0206 -0.7007 0.7132
vn 0.0000 0.0000 1.0000
vn 0.0206 0.7007 0.7132
vn 0.0909 -0.6921 0.7161
vn 0.0579 0.0000 0.9983
vn 0.0909 0.6921 0.7161
vn 0.1992 -0.6887 0.6971
vn 0.1933 0.0000 0.9811
vn 0.1992 0.6887 0.6971
vn 0.3239 -0.6855 0.6520
vn 0.3543 0.0000 0.9351
vn 0.3239 0.6855 0.6520
vn 0.4527 -0.6834 0.5727
vn 0.5312 0.0000 0.8473
vn 0.4527 0.6834 0.5727
vn 0.5663 -0.6833 0.4609
vn 0.7018 0.0000 0.7124
vn 0.5663 0.6833 0.4609
vn 0.6484 -0.6852 0.3317
vn 0.8400 0.0000 0.5426
vn 0.6484 0.6852 0.3317
vn 0.6959 -0.6883 0.2048
vn 0.9315 0.0000 0.3637
vn 0.6959 0.6883 0.2048
vn 0.7162 -0.6916 0.0936
vn 0.9800 0.0000 0.1990
vn 0.7162 0.6916 0.0936
vn 0.7134 -0.7005 0.0213
vn 0.9982 0.0000 0.0596
vn 0.7134 0.7005 0.0213
vn 0.5774 -0.5774 -0.5774
vn 1.0000 0.0000 -0.0000
vn 0.5774 0.5774 -0.5774
vn -0.5774 -0.5774 -0.5774
vn 0.0000 0.0000 -1.0000
vn -0.5774 0.5774 -0.5774
vn -0.6996 -0.7142 -0.0218
vn -0.6996 0.7142 -0.0218
vn -0.6835 -0.7240 -0.0931
vn -0.9981 0.0000 -0.0622
vn -0.6835 0.7240 -0.0931
vn -0.6558 -0.7277 -0.2012
vn -0.9783 0.0000 -0.2071
vn -0.6558 0.7277 -0.2012
vn -0.6021 -0.7310 -0.3210
vn -0.9262 0.0000 -0.3771
vn -0.6021 0.7310 -0.3210
vn -0.5190 -0.7328 -0.4401
vn -0.8294 0.0000 -0.5587
vn -0.5190 0.7328 -0.4401
vn -0.4117 -0.7322 -0.5426
vn -0.6867 0.0000 -0.7269
vn -0.4117 0.7322 -0.5426
vn -0.2944 -0.7294 -0.6175
vn -0.5152 0.0000 -0.8571
vn -0.2944 0.7294 -0.6175
vn -0.1819 -0.7258 -0.6635
vn -0.3415 0.0000 -0.9399
vn -0.1819 0.7258 -0.6635
vn -0.0836 -0.7222 -0.6867
vn -0.1856 0.0000 -0.9826
vn -0.0836 0.7222 -0.6867
vn -0.0194 -0.7134 -0.7005
vn -0.0555 0.0000 -0.9985
vn -0.0194 0.7134 -0.7005
vn 0.3015 -0.9045 -0.3015
vn 0.3015 0.9045 -0.3015
vn 0.7020 -0.7120 0.0152
vn 0.7020 0.7120 0.0152
vn 0.6920 -0.7189 0.0657
vn 0.9991 0.0000 0.0433
vn 0.6920 0.7189 0.0657
vn 0.6766 -0.7220 0.1449
vn 0.9893 0.0000 0.1456
vn 0.6766 0.7220 0.1449
vn 0.6445 -0.7258 0.2404
vn 0.9622 0.0000 0.2724
vn 0.6445 0.7258 0.2404
vn 0.5876 -0.7299 0.3493
vn 0.9056 0.0000 0.4241
vn 0.5876 0.7299 0.3493
vn 0.4994 -0.7331 0.4617
vn 0.8054 0.0000 0.5928
vn 0.4994 0.7331 0.4617
vn 0.3819 -0.7340 0.5616
vn 0.6540 0.0000 0.7565
vn 0.3819 0.7340 0.5616
vn 0.2485 -0.7322 0.6341
vn 0.4631 0.0000 0.8863
vn 0.2485 0.7322 0.6341
vn 0.1176 -0.7286 0.6748
vn 0.2622 0.0000 0.9650
vn 0.1176 0.7286 0.6748
vn 0.0278 -0.7162 0.6973
vn 0.0797 0.0000 0.9968
vn 0.0278 0.7162 0.6973
vn 0.5774 -0.5774 0.5774
vn 0.5774 0.5774 0.5774
vn 0.0202 -0.7137 -0.7002
vn 0.0202 0.7137 -0.7002
vn 0.0577 0.0000 -0.9983
vn -0.0876 -0.7229 0.6853
vn -0.1902 -0.7266 0.6602
vn -0.1948 0.0000 0.9808
vn -0.1902 0.7266 0.6602
vn -0.0876 0.7229 0.6853
vn -0.3059 -0.7301 0.6110
vn -0.3568 0.0000 0.9342
vn -0.3059 0.7301 0.6110
vn -0.4242 -0.7325 0.5325
vn -0.5342 0.0000 0.8454
vn -0.4242 0.7325 0.5325
vn -0.5295 -0.7326 0.4277
vn -0.7046 0.0000 0.7096
vn -0.5295 0.7326 0.4277
vn -0.6091 -0.7303 0.3092
vn -0.8419 0.0000 0.5396
vn -0.6091 0.7303 0.3092
vn -0.6593 -0.7268 0.1926
vn -0.9325 0.0000 0.3612
vn -0.6593 0.7268 0.1926
vn -0.6850 -0.7231 0.0888
vn -0.9803 0.0000 0.1975
vn -0.6850 0.7231 0.0888
vn -0.6935 -0.7205 0.0006
vn -0.9982 0.0000 0.0591
vn -0.6935 0.7205 0.0006
vn -0.6858 -0.7227 -0.0864
vn -0.9983 0.0000 -0.0574
vn -0.6858 0.7227 -0.0864
vn -0.6612 -0.7263 -0.1876
vn -0.9814 0.0000 -0.1920
vn -0.6612 0.7263 -0.1876
vn -0.6130 -0.7299 -0.3024
vn -0.9360 0.0000 -0.3521
vn -0.6130 0.7299 -0.3024
vn -0.5356 -0.7324 -0.4204
vn -0.8490 0.0000 -0.5284
vn -0.5356 0.7324 -0.4204
vn -0.4315 -0.7326 -0.5264
vn -0.7149 0.0000 -0.6992
vn -0.4315 0.7326 -0.5264
vn -0.3128 -0.7305 -0.6070
vn -0.5454 0.0000 -0.8382
vn -0.3128 0.7305 -0.6070
vn -0.1951 -0.7271 -0.6582
vn -0.3660 0.0000 -0.9306
vn -0.1951 0.7271 -0.6582
vn -0.0901 -0.7234 -0.6845
vn -0.2004 0.0000 -0.9797
vn -0.0901 0.7234 -0.6845
vn -0.0003 -0.7208 -0.6932
vn -0.0600 0.0000 -0.9982
vn -0.0003 0.7208 -0.6932
vn 0.0888 -0.7231 -0.6850
vn 0.0591 0.0000 -0.9983
vn 0.0888 0.7231 -0.6850
vn 0.1925 -0.7268 -0.6593
vn 0.1974 0.0000 -0.9803
vn 0.1925 0.7268 -0.6593
vn 0.3092 -0.7303 -0.6091
vn 0.3612 0.0000 -0.9325
vn 0.3092 0.7303 -0.6091
vn 0.4277 -0.7326 -0.5296
vn 0.5395 0.0000 -0.8420
vn 0.4277 0.7326 -0.5296
vn 0.5325 -0.7325 -0.4242
vn 0.7096 0.0000 -0.7046
vn 0.5325 0.7325 -0.4242
vn 0.6110 -0.7301 -0.3059
vn 0.8453 0.0000 -0.5342
vn 0.6110 0.7301 -0.3059
vn 0.6602 -0.7266 -0.1902
vn 0.9342 0.0000 -0.3568
vn 0.6602 0.7266 -0.1902
vn 0.6853 -0.7229 -0.0877
vn 0.9808 0.0000 -0.1948
vn 0.6853 0.7229 -0.0877
vn 0.6933 -0.7207 0.0006
vn 0.9983 0.0000 -0.0583
vn 0.6933 0.7207 0.0006
vn 0.6845 -0.7234 0.0901
vn 0.9982 0.0000 0.0600
vn 0.6845 0.7234 0.0901
vn 0.6582 -0.7271 0.1952
vn 0.9797 0.0000 0.2004
vn 0.6582 0.7271 0.1952
vn 0.6070 -0.7305 0.3128
vn 0.9306 0.0000 0.3660
vn 0.6070 0.7305 0.3128
vn 0.5263 -0.7326 0.4315
vn 0.8381 0.0000 0.5455
vn 0.5263 0.7326 0.4315
vn 0.4204 -0.7324 0.5356
vn 0.6991 0.0000 0.7150
vn 0.4204 0.7324 0.5356
vn 0.3023 -0.7299 0.6130
vn 0.5283 0.0000 0.8490
vn 0.3023 0.7299 0.6130
vn 0.1876 -0.7263 0.6613
vn 0.3520 0.0000 0.9360
vn 0.1876 0.7263 0.6613
vn 0.0864 -0.7227 0.6858
vn 0.1919 0.0000 0.9814
vn 0.0864 0.7227 0.6858
vn -0.0003 -0.7204 0.6936
vn 0.0574 0.0000 0.9983
vn -0.0003 0.7204 0.6936
vn -0.0583 0.0000 0.9983
vn 0.0000 -1.0000 -0.0000
vn 0.0000 1.0000 -0.0000
# 485 vertex normals

o Yo_Yag
g Yo_Yag
s 1
f 1//1 2//2 3//3 
f 2//2 4//4 3//3 
f 4//4 5//5 3//3 
f 5//5 1//1 3//3 
s 3
f 2//2 6//6 7//7 
f 6//6 8//8 7//7 
f 8//8 4//4 7//7 
f 4//4 2//2 7//7 
s 2
f 6//6 9//9 10//10 
f 9//9 11//11 10//10 
f 11//11 8//8 10//10 
f 8//8 6//6 10//10 
f 9//9 12//12 13//13 
f 12//12 14//14 13//13 
f 14//14 11//11 13//13 
f 11//11 9//9 13//13 
f 12//12 15//15 16//16 
f 15//15 17//17 16//16 
f 17//17 14//14 16//16 
f 14//14 12//12 16//16 
f 15//15 18//18 19//19 
f 18//18 20//20 19//19 
f 20//20 17//17 19//19 
f 17//17 15//15 19//19 
f 18//18 21//21 22//22 
f 21//21 23//23 22//22 
f 23//23 20//20 22//22 
f 20//20 18//18 22//22 
f 21//21 24//24 25//25 
f 24//24 26//26 25//25 
f 26//26 23//23 25//25 
f 23//23 21//21 25//25 
s 4
f 24//24 27//27 28//28 
f 27//27 29//29 28//28 
f 29//29 26//26 28//28 
f 26//26 24//24 28//28 
f 27//27 30//30 31//31 
f 30//30 32//32 31//31 
f 32//32 29//29 31//31 
f 29//29 27//27 31//31 
f 30//30 33//33 34//34 
f 33//33 35//35 34//34 
f 35//35 32//32 34//34 
f 32//32 30//30 34//34 
f 33//33 36//36 37//37 
f 36//36 38//38 37//37 
f 38//38 35//35 37//37 
f 35//35 33//33 37//37 
f 36//36 39//39 40//40 
f 39//39 41//41 40//40 
f 41//41 38//38 40//40 
f 38//38 36//36 40//40 
f 39//39 42//42 43//43 
f 42//42 44//44 43//43 
f 44//44 41//41 43//43 
f 41//41 39//39 43//43 
f 42//42 45//45 46//46 
f 45//45 47//47 46//46 
f 47//47 44//44 46//46 
f 44//44 42//42 46//46 
f 45//45 48//48 49//49 
f 48//48 50//50 49//49 
f 50//50 47//47 49//49 
f 47//47 45//45 49//49 
f 48//48 51//51 52//52 
f 51//51 53//53 52//52 
f 53//53 50//50 52//52 
f 50//50 48//48 52//52 
f 51//51 54//54 55//55 
f 54//54 56//56 55//55 
f 56//56 53//53 55//55 
f 53//53 51//51 55//55 
f 54//54 57//57 58//58 
f 57//57 59//59 58//58 
f 59//59 56//56 58//58 
f 56//56 54//54 58//58 
f 57//57 60//60 61//61 
f 60//60 62//62 61//61 
f 62//62 59//59 61//61 
f 59//59 57//57 61//61 
f 60//60 63//63 64//64 
f 63//63 65//65 64//64 
f 65//65 62//62 64//64 
f 62//62 60//60 64//64 
f 63//63 66//66 67//67 
f 66//66 68//68 67//67 
f 68//68 65//65 67//67 
f 65//65 63//63 67//67 
f 66//66 69//69 70//70 
f 69//69 71//71 70//70 
f 71//71 68//68 70//70 
f 68//68 66//66 70//70 
f 69//69 72//72 73//73 
f 72//72 74//74 73//73 
f 74//74 71//71 73//73 
f 71//71 69//69 73//73 
f 72//72 75//75 76//76 
f 75//75 77//77 76//76 
f 77//77 74//74 76//76 
f 74//74 72//72 76//76 
f 75//75 78//78 79//79 
f 78//78 80//80 79//79 
f 80//80 77//77 79//79 
f 77//77 75//75 79//79 
f 78//78 81//81 82//82 
f 81//81 83//83 82//82 
f 83//83 80//80 82//82 
f 80//80 78//78 82//82 
f 81//81 84//84 85//85 
f 84//84 86//86 85//85 
f 86//86 83//83 85//85 
f 83//83 81//81 85//85 
f 84//84 87//87 88//88 
f 87//87 89//89 88//88 
f 89//89 86//86 88//88 
f 86//86 84//84 88//88 
f 87//87 90//90 91//91 
f 90//90 92//92 91//91 
f 92//92 89//89 91//91 
f 89//89 87//87 91//91 
f 90//90 93//93 94//94 
f 93//93 95//95 94//94 
f 95//95 92//92 94//94 
f 92//92 90//90 94//94 
f 93//93 96//96 97//97 
f 96//96 98//98 97//97 
f 98//98 95//95 97//97 
f 95//95 93//93 97//97 
f 96//96 99//99 100//100 
f 99//99 101//101 100//100 
f 101//101 98//98 100//100 
f 98//98 96//96 100//100 
f 99//99 102//102 103//103 
f 102//102 104//104 103//103 
f 104//104 101//101 103//103 
f 101//101 99//99 103//103 
f 102//102 105//105 106//106 
f 105//105 107//107 106//106 
f 107//107 104//104 106//106 
f 104//104 102//102 106//106 
f 105//105 108//108 109//109 
f 108//108 110//110 109//109 
f 110//110 107//107 109//109 
f 107//107 105//105 109//109 
f 108//108 111//111 112//112 
f 111//111 113//113 112//112 
f 113//113 110//110 112//112 
f 110//110 108//108 112//112 
f 111//111 114//114 115//115 
f 114//114 116//116 115//115 
f 116//116 113//113 115//115 
f 113//113 111//111 115//115 
f 114//114 117//117 118//118 
f 117//117 119//119 118//118 
f 119//119 116//116 118//118 
f 116//116 114//114 118//118 
f 117//117 120//120 121//121 
f 120//120 122//122 121//121 
f 122//122 119//119 121//121 
f 119//119 117//117 121//121 
f 120//120 123//123 124//124 
f 123//123 125//125 124//124 
f 125//125 122//122 124//124 
f 122//122 120//120 124//124 
f 123//123 126//126 127//127 
f 126//126 128//128 127//127 
f 128//128 125//125 127//127 
f 125//125 123//123 127//127 
f 126//126 129//129 130//130 
f 129//129 131//131 130//130 
f 131//131 128//128 130//130 
f 128//128 126//126 130//130 
f 129//129 132//132 133//133 
f 132//132 134//134 133//133 
f 134//134 131//131 133//133 
f 131//131 129//129 133//133 
f 132//132 135//135 136//136 
f 135//135 137//137 136//136 
f 137//137 134//134 136//136 
f 134//134 132//132 136//136 
f 135//135 138//138 139//139 
f 138//138 140//140 139//139 
f 140//140 137//137 139//139 
f 137//137 135//135 139//139 
f 138//138 141//141 142//142 
f 141//141 143//143 142//142 
f 143//143 140//140 142//142 
f 140//140 138//138 142//142 
f 141//141 144//144 145//145 
f 144//144 146//146 145//145 
f 146//146 143//143 145//145 
f 143//143 141//141 145//145 
f 144//144 147//147 148//148 
f 147//147 149//149 148//148 
f 149//149 146//146 148//148 
f 146//146 144//144 148//148 
f 147//147 150//150 151//151 
f 150//150 152//152 151//151 
f 152//152 149//149 151//151 
f 149//149 147//147 151//151 
f 150//150 153//153 154//154 
f 153//153 155//155 154//154 
f 155//155 152//152 154//154 
f 152//152 150//150 154//154 
f 153//153 156//156 157//157 
f 156//156 158//158 157//157 
f 158//158 155//155 157//157 
f 155//155 153//153 157//157 
f 156//156 159//159 160//160 
f 159//159 161//161 160//160 
f 161//161 158//158 160//160 
f 158//158 156//156 160//160 
s 2
f 159//159 162//162 163//163 
f 162//162 164//164 163//163 
f 164//164 161//161 163//163 
f 161//161 159//159 163//163 
s 4
f 162//162 165//165 166//166 
f 165//165 167//167 166//166 
f 167//167 164//164 166//166 
f 164//164 162//162 166//166 
f 165//165 168//168 169//169 
f 168//168 170//170 169//169 
f 170//170 167//167 169//169 
f 167//167 165//165 169//169 
f 168//168 171//171 172//172 
f 171//171 173//173 172//172 
f 173//173 170//170 172//172 
f 170//170 168//168 172//172 
f 171//171 174//174 175//175 
f 174//174 176//176 175//175 
f 176//176 173//173 175//175 
f 173//173 171//171 175//175 
f 174//174 177//177 178//178 
f 177//177 179//179 178//178 
f 179//179 176//176 178//178 
f 176//176 174//174 178//178 
f 177//177 180//180 181//181 
f 180//180 182//182 181//181 
f 182//182 179//179 181//181 
f 179//179 177//177 181//181 
f 180//180 183//183 184//184 
f 183//183 185//185 184//184 
f 185//185 182//182 184//184 
f 182//182 180//180 184//184 
f 183//183 186//186 187//187 
f 186//186 188//188 187//187 
f 188//188 185//185 187//187 
f 185//185 183//183 187//187 
f 186//186 189//189 190//190 
f 189//189 191//191 190//190 
f 191//191 188//188 190//190 
f 188//188 186//186 190//190 
f 189//189 192//192 193//193 
f 192//192 194//194 193//193 
f 194//194 191//191 193//193 
f 191//191 189//189 193//193 
f 192//192 195//195 196//196 
f 195//195 197//197 196//196 
f 197//197 194//194 196//196 
f 194//194 192//192 196//196 
f 195//195 198//198 199//199 
f 198//198 200//200 199//199 
f 200//200 197//197 199//199 
f 197//197 195//195 199//199 
f 198//198 201//201 202//202 
f 201//201 203//203 202//202 
f 203//203 200//200 202//202 
f 200//200 198//198 202//202 
f 201//201 204//204 205//205 
f 204//204 206//206 205//205 
f 206//206 203//203 205//205 
f 203//203 201//201 205//205 
f 204//204 207//207 208//208 
f 207//207 209//209 208//208 
f 209//209 206//206 208//208 
f 206//206 204//204 208//208 
f 207//207 210//210 211//211 
f 210//210 212//212 211//211 
f 212//212 209//209 211//211 
f 209//209 207//207 211//211 
f 210//210 213//213 214//214 
f 213//213 215//215 214//214 
f 215//215 212//212 214//214 
f 212//212 210//210 214//214 
f 213//213 216//216 217//217 
f 216//216 218//218 217//217 
f 218//218 215//215 217//217 
f 215//215 213//213 217//217 
s 2
f 216//216 219//219 220//220 
f 219//219 221//221 220//220 
f 221//221 218//218 220//220 
f 218//218 216//216 220//220 
f 219//219 222//222 223//223 
f 222//222 224//224 223//223 
f 224//224 221//221 223//223 
f 221//221 219//219 223//223 
f 222//222 225//225 226//226 
f 225//225 227//227 226//226 
f 227//227 224//224 226//226 
f 224//224 222//222 226//226 
f 225//225 228//228 229//229 
f 228//228 230//230 229//229 
f 230//230 227//227 229//229 
f 227//227 225//225 229//229 
f 228//228 231//231 232//232 
f 231//231 233//233 232//232 
f 233//233 230//230 232//232 
f 230//230 228//228 232//232 
f 231//231 234//234 235//235 
f 234//234 236//236 235//235 
f 236//236 233//233 235//235 
f 233//233 231//231 235//235 
f 234//234 237//237 238//238 
f 237//237 239//239 238//238 
f 239//239 236//236 238//238 
f 236//236 234//234 238//238 
f 237//237 240//240 241//241 
f 240//240 242//242 241//241 
f 242//242 239//239 241//241 
f 239//239 237//237 241//241 
f 240//240 243//243 244//244 
f 243//243 245//245 244//244 
f 245//245 242//242 244//244 
f 242//242 240//240 244//244 
f 243//243 246//246 247//247 
f 246//246 248//248 247//247 
f 248//248 245//245 247//247 
f 245//245 243//243 247//247 
f 246//246 249//249 250//250 
f 249//249 251//251 250//250 
f 251//251 248//248 250//250 
f 248//248 246//246 250//250 
f 249//249 252//252 253//253 
f 252//252 254//254 253//253 
f 254//254 251//251 253//253 
f 251//251 249//249 253//253 
f 252//252 255//255 256//256 
f 255//255 257//257 256//256 
f 257//257 254//254 256//256 
f 254//254 252//252 256//256 
f 255//255 258//258 259//259 
f 258//258 260//260 259//259 
f 260//260 257//257 259//259 
f 257//257 255//255 259//259 
f 258//258 261//261 262//262 
f 261//261 263//263 262//262 
f 263//263 260//260 262//262 
f 260//260 258//258 262//262 
f 261//261 264//264 265//265 
f 264//264 266//266 265//265 
f 266//266 263//263 265//265 
f 263//263 261//261 265//265 
f 264//264 267//267 268//268 
f 267//267 269//269 268//268 
f 269//269 266//266 268//268 
f 266//266 264//264 268//268 
f 267//267 270//270 271//271 
f 270//270 272//272 271//271 
f 272//272 269//269 271//271 
f 269//269 267//267 271//271 
s 4
f 270//270 273//273 274//163 
f 273//273 275//274 274//163 
f 275//274 272//272 274//163 
f 272//272 270//270 274//163 
s 2
f 273//273 276//275 277//276 
f 276//275 278//277 277//276 
f 278//277 275//274 277//276 
f 275//274 273//273 277//276 
s 4
f 276//275 279//278 280//279 
f 279//278 281//280 280//279 
f 281//280 278//277 280//279 
f 278//277 276//275 280//279 
f 279//278 282//281 283//282 
f 282//281 284//283 283//282 
f 284//283 281//280 283//282 
f 281//280 279//278 283//282 
f 282//281 285//284 286//285 
f 285//284 287//286 286//285 
f 287//286 284//283 286//285 
f 284//283 282//281 286//285 
f 285//284 288//287 289//288 
f 288//287 290//289 289//288 
f 290//289 287//286 289//288 
f 287//286 285//284 289//288 
f 288//287 291//290 292//291 
f 291//290 293//292 292//291 
f 293//292 290//289 292//291 
f 290//289 288//287 292//291 
f 291//290 294//293 295//294 
f 294//293 296//295 295//294 
f 296//295 293//292 295//294 
f 293//292 291//290 295//294 
f 294//293 297//296 298//297 
f 297//296 299//298 298//297 
f 299//298 296//295 298//297 
f 296//295 294//293 298//297 
f 297//296 300//299 301//300 
f 300//299 302//301 301//300 
f 302//301 299//298 301//300 
f 299//298 297//296 301//300 
f 300//299 303//302 304//303 
f 303//302 305//304 304//303 
f 305//304 302//301 304//303 
f 302//301 300//299 304//303 
s 2
f 303//302 306//305 307//306 
f 306//305 308//307 307//306 
f 308//307 305//304 307//306 
f 305//304 303//302 307//306 
s 4
f 306//305 309//308 310//309 
f 309//308 311//310 310//309 
f 311//310 308//307 310//309 
f 308//307 306//305 310//309 
s 2
f 309//308 312//311 313//163 
f 312//311 314//312 313//163 
f 314//312 311//310 313//163 
f 311//310 309//308 313//163 
s 4
f 312//311 315//313 316//314 
f 315//313 317//315 316//314 
f 317//315 314//312 316//314 
f 314//312 312//311 316//314 
f 315//313 318//316 319//317 
f 318//316 320//318 319//317 
f 320//318 317//315 319//317 
f 317//315 315//313 319//317 
f 318//316 321//319 322//320 
f 321//319 323//321 322//320 
f 323//321 320//318 322//320 
f 320//318 318//316 322//320 
f 321//319 324//322 325//323 
f 324//322 326//324 325//323 
f 326//324 323//321 325//323 
f 323//321 321//319 325//323 
f 324//322 327//325 328//326 
f 327//325 329//327 328//326 
f 329//327 326//324 328//326 
f 326//324 324//322 328//326 
f 327//325 330//328 331//329 
f 330//328 332//330 331//329 
f 332//330 329//327 331//329 
f 329//327 327//325 331//329 
f 330//328 333//331 334//332 
f 333//331 335//333 334//332 
f 335//333 332//330 334//332 
f 332//330 330//328 334//332 
f 333//331 336//334 337//335 
f 336//334 338//336 337//335 
f 338//336 335//333 337//335 
f 335//333 333//331 337//335 
f 336//334 339//337 340//338 
f 339//337 341//339 340//338 
f 341//339 338//336 340//338 
f 338//336 336//334 340//338 
s 2
f 339//337 342//340 343//309 
f 342//340 344//341 343//309 
f 344//341 341//339 343//309 
f 341//339 339//337 343//309 
s 4
f 342//340 345//342 346//306 
f 345//342 347//343 346//306 
f 347//343 344//341 346//306 
f 344//341 342//340 346//306 
s 2
f 345//342 348//344 349//345 
f 348//344 350//346 349//345 
f 350//346 347//343 349//345 
f 347//343 345//342 349//345 
f 348//344 351//347 352//348 
f 351//347 353//349 352//348 
f 353//349 350//346 352//348 
f 350//346 348//344 352//348 
f 351//347 354//350 355//351 
f 354//350 356//352 355//351 
f 356//352 353//349 355//351 
f 353//349 351//347 355//351 
f 354//350 357//353 358//354 
f 357//353 359//355 358//354 
f 359//355 356//352 358//354 
f 356//352 354//350 358//354 
f 357//353 360//356 361//357 
f 360//356 362//358 361//357 
f 362//358 359//355 361//357 
f 359//355 357//353 361//357 
f 360//356 363//359 364//360 
f 363//359 365//361 364//360 
f 365//361 362//358 364//360 
f 362//358 360//356 364//360 
f 363//359 366//362 367//363 
f 366//362 368//364 367//363 
f 368//364 365//361 367//363 
f 365//361 363//359 367//363 
f 366//362 369//365 370//366 
f 369//365 371//367 370//366 
f 371//367 368//364 370//366 
f 368//364 366//362 370//366 
f 369//365 372//368 373//369 
f 372//368 374//370 373//369 
f 374//370 371//367 373//369 
f 371//367 369//365 373//369 
s 4
f 372//368 375//371 376//276 
f 375//371 377//372 376//276 
f 377//372 374//370 376//276 
f 374//370 372//368 376//276 
s 2
f 375//371 378//305 379//306 
f 378//305 380//307 379//306 
f 380//307 377//372 379//306 
f 377//372 375//371 379//306 
s 4
f 378//305 381//373 382//309 
f 381//373 383//374 382//309 
f 383//374 380//307 382//309 
f 380//307 378//305 382//309 
s 3
f 381//373 1//1 384//375 
f 1//1 5//5 384//375 
f 5//5 383//374 384//375 
f 383//374 381//373 384//375 
s 1
f 385//376 386//377 387//378 
f 386//377 388//379 387//378 
f 388//379 389//380 387//378 
f 389//380 385//376 387//378 
s 3
f 386//377 390//381 391//382 
f 390//381 392//383 391//382 
f 392//383 388//379 391//382 
f 388//379 386//377 391//382 
s 2
f 390//381 393//384 394//385 
f 393//384 395//386 394//385 
f 395//386 392//383 394//385 
f 392//383 390//381 394//385 
f 393//384 396//387 397//388 
f 396//387 398//389 397//388 
f 398//389 395//386 397//388 
f 395//386 393//384 397//388 
f 396//387 399//390 400//391 
f 399//390 401//392 400//391 
f 401//392 398//389 400//391 
f 398//389 396//387 400//391 
f 399//390 402//393 403//394 
f 402//393 404//395 403//394 
f 404//395 401//392 403//394 
f 401//392 399//390 403//394 
f 402//393 405//396 406//397 
f 405//396 407//398 406//397 
f 407//398 404//395 406//397 
f 404//395 402//393 406//397 
f 405//396 408//399 409//400 
f 408//399 410//401 409//400 
f 410//401 407//398 409//400 
f 407//398 405//396 409//400 
f 408//399 411//402 412//403 
f 411//402 413//404 412//403 
f 413//404 410//401 412//403 
f 410//401 408//399 412//403 
f 411//402 414//405 415//406 
f 414//405 416//407 415//406 
f 416//407 413//404 415//406 
f 413//404 411//402 415//406 
f 414//405 417//408 418//409 
f 417//408 419//410 418//409 
f 419//410 416//407 418//409 
f 416//407 414//405 418//409 
f 417//408 420//411 421//412 
f 420//411 422//413 421//412 
f 422//413 419//410 421//412 
f 419//410 417//408 421//412 
f 420//411 423//414 424//415 
f 423//414 425//416 424//415 
f 425//416 422//413 424//415 
f 422//413 420//411 424//415 
f 423//414 426//417 427//418 
f 426//417 428//419 427//418 
f 428//419 425//416 427//418 
f 425//416 423//414 427//418 
f 426//417 429//420 430//421 
f 429//420 431//422 430//421 
f 431//422 428//419 430//421 
f 428//419 426//417 430//421 
f 429//420 432//423 433//424 
f 432//423 434//425 433//424 
f 434//425 431//422 433//424 
f 431//422 429//420 433//424 
f 432//423 435//426 436//427 
f 435//426 437//428 436//427 
f 437//428 434//425 436//427 
f 434//425 432//423 436//427 
f 435//426 438//429 439//430 
f 438//429 440//431 439//430 
f 440//431 437//428 439//430 
f 437//428 435//426 439//430 
f 438//429 441//432 442//433 
f 441//432 443//434 442//433 
f 443//434 440//431 442//433 
f 440//431 438//429 442//433 
f 441//432 444//435 445//436 
f 444//435 446//437 445//436 
f 446//437 443//434 445//436 
f 443//434 441//432 445//436 
f 444//435 447//438 448//439 
f 447//438 449//440 448//439 
f 449//440 446//437 448//439 
f 446//437 444//435 448//439 
f 447//438 450//441 451//442 
f 450//441 452//443 451//442 
f 452//443 449//440 451//442 
f 449//440 447//438 451//442 
f 450//441 453//444 454//445 
f 453//444 455//446 454//445 
f 455//446 452//443 454//445 
f 452//443 450//441 454//445 
f 453//444 456//447 457//448 
f 456//447 458//449 457//448 
f 458//449 455//446 457//448 
f 455//446 453//444 457//448 
f 456//447 459//450 460//451 
f 459//450 461//452 460//451 
f 461//452 458//449 460//451 
f 458//449 456//447 460//451 
f 459//450 462//453 463//454 
f 462//453 464//455 463//454 
f 464//455 461//452 463//454 
f 461//452 459//450 463//454 
f 462//453 465//456 466//457 
f 465//456 467//458 466//457 
f 467//458 464//455 466//457 
f 464//455 462//453 466//457 
f 465//456 468//459 469//460 
f 468//459 470//461 469//460 
f 470//461 467//458 469//460 
f 467//458 465//456 469//460 
f 468//459 471//462 472//463 
f 471//462 473//464 472//463 
f 473//464 470//461 472//463 
f 470//461 468//459 472//463 
f 471//462 474//465 475//466 
f 474//465 476//467 475//466 
f 476//467 473//464 475//466 
f 473//464 471//462 475//466 
f 474//465 477//468 478//469 
f 477//468 479//470 478//469 
f 479//470 476//467 478//469 
f 476//467 474//465 478//469 
f 477//468 480//471 481//472 
f 480//471 482//473 481//472 
f 482//473 479//470 481//472 
f 479//470 477//468 481//472 
f 480//471 483//474 484//475 
f 483//474 485//476 484//475 
f 485//476 482//473 484//475 
f 482//473 480//471 484//475 
f 483//474 486//477 487//478 
f 486//477 488//479 487//478 
f 488//479 485//476 487//478 
f 485//476 483//474 487//478 
f 486//477 489//480 490//481 
f 489//480 491//482 490//481 
f 491//482 488//479 490//481 
f 488//479 486//477 490//481 
s 3
f 489//480 385//376 492//483 
f 385//376 389//380 492//483 
f 389//380 491//482 492//483 
f 491//482 489//480 492//483 
s 16
f 231//231 228//228 493//484 
f 228//228 225//225 493//484 
f 225//225 222//222 493//484 
f 222//222 219//219 493//484 
f 219//219 216//216 493//484 
f 216//216 360//356 493//484 
f 360//356 357//353 493//484 
f 357//353 231//231 493//484 
f 308//307 311//310 494//485 
f 311//310 314//312 494//485 
f 314//312 305//304 494//485 
f 305//304 308//307 494//485 
f 171//171 168//168 495//484 
f 168//168 165//165 495//484 
f 165//165 162//162 495//484 
f 162//162 496//484 447//438 495//484 
f 447//438 444//435 495//484 
f 444//435 171//171 495//484 
f 2//2 1//1 497//484 
f 1//1 369//365 497//484 
f 369//365 366//362 497//484 
f 366//362 2//2 497//484 
f 357//353 354//350 498//484 
f 354//350 243//243 498//484 
f 243//243 240//240 498//484 
f 240//240 237//237 498//484 
f 237//237 234//234 498//484 
f 234//234 231//231 498//484 
f 231//231 357//353 498//484 
f 354//350 351//347 499//484 
f 351//347 255//255 499//484 
f 255//255 252//252 499//484 
f 252//252 249//249 499//484 
f 249//249 246//246 499//484 
f 246//246 243//243 499//484 
f 243//243 354//350 499//484 
f 351//347 348//344 500//484 
f 348//344 264//264 500//484 
f 264//264 261//261 500//484 
f 261//261 258//258 500//484 
f 258//258 255//255 500//484 
f 255//255 351//347 500//484 
f 348//344 345//342 501//484 
f 345//342 270//270 501//484 
f 270//270 267//267 501//484 
f 267//267 264//264 501//484 
f 264//264 348//344 501//484 
f 345//342 342//340 502//484 
f 342//340 273//273 502//484 
f 273//273 270//270 502//484 
f 270//270 345//342 502//484 
f 342//340 339//337 503//484 
f 339//337 273//273 503//484 
f 273//273 342//340 503//484 
f 339//337 336//334 504//484 
f 336//334 273//273 504//484 
f 273//273 339//337 504//484 
f 336//334 333//331 505//484 
f 333//331 276//275 505//484 
f 276//275 273//273 505//484 
f 273//273 336//334 505//484 
f 333//331 330//328 506//484 
f 330//328 276//275 506//484 
f 276//275 333//331 506//484 
f 330//328 327//325 507//484 
f 327//325 279//278 507//484 
f 279//278 276//275 507//484 
f 276//275 330//328 507//484 
f 327//325 324//322 508//484 
f 324//322 285//284 508//484 
f 285//284 282//281 508//484 
f 282//281 279//278 508//484 
f 279//278 327//325 508//484 
f 324//322 321//319 509//484 
f 321//319 294//293 509//484 
f 294//293 291//290 509//484 
f 291//290 288//287 509//484 
f 288//287 285//284 509//484 
f 285//284 324//322 509//484 
f 321//319 318//316 510//484 
f 318//316 297//296 510//484 
f 297//296 294//293 510//484 
f 294//293 321//319 510//484 
f 318//316 315//313 511//484 
f 315//313 303//302 511//484 
f 303//302 300//299 511//484 
f 300//299 297//296 511//484 
f 297//296 318//316 511//484 
f 315//313 312//311 512//484 
f 312//311 303//302 512//484 
f 303//302 315//313 512//484 
f 312//311 309//308 513//484 
f 309//308 306//305 513//484 
f 306//305 303//302 513//484 
f 303//302 312//311 513//484 
f 1//1 381//373 514//484 
f 381//373 372//368 514//484 
f 372//368 369//365 514//484 
f 369//365 1//1 514//484 
f 366//362 363//359 515//484 
f 363//359 216//216 515//484 
f 216//216 2//2 515//484 
f 2//2 366//362 515//484 
f 363//359 360//356 516//484 
f 360//356 216//216 516//484 
f 216//216 363//359 516//484 
f 381//373 378//305 517//484 
f 378//305 375//371 517//484 
f 375//371 372//368 517//484 
f 372//368 381//373 517//484 
f 444//435 441//432 518//484 
f 441//432 24//24 518//484 
f 24//24 171//171 518//484 
f 171//171 444//435 518//484 
f 441//432 438//429 519//484 
f 438//429 24//24 519//484 
f 24//24 441//432 519//484 
f 24//24 21//21 520//484 
f 21//21 177//177 520//484 
f 177//177 174//174 520//484 
f 174//174 171//171 520//484 
f 171//171 24//24 520//484 
f 21//21 18//18 521//484 
f 18//18 189//189 521//484 
f 189//189 186//186 521//484 
f 186//186 183//183 521//484 
f 183//183 180//180 521//484 
f 180//180 177//177 521//484 
f 177//177 21//21 521//484 
f 18//18 15//15 522//484 
f 15//15 198//198 522//484 
f 198//198 195//195 522//484 
f 195//195 192//192 522//484 
f 192//192 189//189 522//484 
f 189//189 18//18 522//484 
f 15//15 12//12 523//484 
f 12//12 207//207 523//484 
f 207//207 204//204 523//484 
f 204//204 201//201 523//484 
f 201//201 198//198 523//484 
f 198//198 15//15 523//484 
f 12//12 9//9 524//484 
f 9//9 216//216 524//484 
f 216//216 213//213 524//484 
f 213//213 210//210 524//484 
f 210//210 207//207 524//484 
f 207//207 12//12 524//484 
f 9//9 6//6 525//484 
f 6//6 216//216 525//484 
f 216//216 9//9 525//484 
f 6//6 2//2 526//484 
f 2//2 216//216 526//484 
f 216//216 6//6 526//484 
f 438//429 435//426 527//484 
f 435//426 48//48 527//484 
f 48//48 45//45 527//484 
f 45//45 42//42 527//484 
f 42//42 39//39 527//484 
f 39//39 36//36 527//484 
f 36//36 33//33 527//484 
f 33//33 30//30 527//484 
f 30//30 27//27 527//484 
f 27//27 24//24 527//484 
f 24//24 438//429 527//484 
f 435//426 432//423 528//484 
f 432//423 54//54 528//484 
f 54//54 51//51 528//484 
f 51//51 48//48 528//484 
f 48//48 435//426 528//484 
f 432//423 429//420 529//484 
f 429//420 57//57 529//484 
f 57//57 54//54 529//484 
f 54//54 432//423 529//484 
f 429//420 426//417 530//484 
f 426//417 60//60 530//484 
f 60//60 57//57 530//484 
f 57//57 429//420 530//484 
f 426//417 423//414 531//484 
f 423//414 63//63 531//484 
f 63//63 60//60 531//484 
f 60//60 426//417 531//484 
f 423//414 420//411 532//484 
f 420//411 66//66 532//484 
f 66//66 63//63 532//484 
f 63//63 423//414 532//484 
f 420//411 417//408 533//484 
f 417//408 69//69 533//484 
f 69//69 66//66 533//484 
f 66//66 420//411 533//484 
f 417//408 414//405 534//484 
f 414//405 75//75 534//484 
f 75//75 72//72 534//484 
f 72//72 69//69 534//484 
f 69//69 417//408 534//484 
f 414//405 411//402 535//484 
f 411//402 75//75 535//484 
f 75//75 414//405 535//484 
f 411//402 408//399 536//484 
f 408//399 78//78 536//484 
f 78//78 75//75 536//484 
f 75//75 411//402 536//484 
f 408//399 405//396 537//484 
f 405//396 81//81 537//484 
f 81//81 78//78 537//484 
f 78//78 408//399 537//484 
f 405//396 402//393 538//484 
f 402//393 84//84 538//484 
f 84//84 81//81 538//484 
f 81//81 405//396 538//484 
f 402//393 399//390 539//484 
f 399//390 87//87 539//484 
f 87//87 84//84 539//484 
f 84//84 402//393 539//484 
f 399//390 396//387 540//484 
f 396//387 90//90 540//484 
f 90//90 87//87 540//484 
f 87//87 399//390 540//484 
f 396//387 393//384 541//484 
f 393//384 93//93 541//484 
f 93//93 90//90 541//484 
f 90//90 396//387 541//484 
f 393//384 390//381 542//484 
f 390//381 96//96 542//484 
f 96//96 93//93 542//484 
f 93//93 393//384 542//484 
f 390//381 386//377 543//484 
f 386//377 99//99 543//484 
f 99//99 96//96 543//484 
f 96//96 390//381 543//484 
f 386//377 385//376 544//484 
f 385//376 102//102 544//484 
f 102//102 99//99 544//484 
f 99//99 386//377 544//484 
f 385//376 489//480 545//484 
f 489//480 105//105 545//484 
f 105//105 102//102 545//484 
f 102//102 385//376 545//484 
f 489//480 486//477 546//484 
f 486//477 108//108 546//484 
f 108//108 105//105 546//484 
f 105//105 489//480 546//484 
f 486//477 483//474 547//484 
f 483//474 114//114 547//484 
f 114//114 111//111 547//484 
f 111//111 108//108 547//484 
f 108//108 486//477 547//484 
f 483//474 480//471 548//484 
f 480//471 117//117 548//484 
f 117//117 114//114 548//484 
f 114//114 483//474 548//484 
f 480//471 477//468 549//484 
f 477//468 123//123 549//484 
f 123//123 120//120 549//484 
f 120//120 117//117 549//484 
f 117//117 480//471 549//484 
f 477//468 474//465 550//484 
f 474//465 129//129 550//484 
f 129//129 126//126 550//484 
f 126//126 123//123 550//484 
f 123//123 477//468 550//484 
f 474//465 471//462 551//484 
f 471//462 135//135 551//484 
f 135//135 132//132 551//484 
f 132//132 129//129 551//484 
f 129//129 474//465 551//484 
f 471//462 468//459 552//484 
f 468//459 141//141 552//484 
f 141//141 138//138 552//484 
f 138//138 135//135 552//484 
f 135//135 471//462 552//484 
f 468//459 465//456 553//484 
f 465//456 147//147 553//484 
f 147//147 144//144 553//484 
f 144//144 141//141 553//484 
f 141//141 468//459 553//484 
f 465//456 462//453 554//484 
f 462//453 153//153 554//484 
f 153//153 150//150 554//484 
f 150//150 147//147 554//484 
f 147//147 465//456 554//484 
f 462//453 459//450 555//484 
f 459//450 156//156 555//484 
f 156//156 153//153 555//484 
f 153//153 462//453 555//484 
f 459//450 456//447 556//484 
f 456//447 159//159 556//484 
f 159//159 156//156 556//484 
f 156//156 459//450 556//484 
f 456//447 453//444 557//484 
f 453//444 162//162 557//484 
f 162//162 159//159 557//484 
f 159//159 456//447 557//484 
f 453//444 450//441 558//484 
f 450//441 162//162 558//484 
f 162//162 453//444 558//484 
f 450//441 447//438 496//484 
f 162//162 450//441 496//484 
f 314//312 317//315 559//485 
f 317//315 305//304 559//485 
f 305//304 314//312 559//485 
f 317//315 320//318 560//485 
f 320//318 299//298 560//485 
f 299//298 302//301 560//485 
f 302//301 305//304 560//485 
f 305//304 317//315 560//485 
f 320//318 323//321 561//485 
f 323//321 296//295 561//485 
f 296//295 299//298 561//485 
f 299//298 320//318 561//485 
f 323//321 326//324 562//485 
f 326//324 287//286 562//485 
f 287//286 290//289 562//485 
f 290//289 293//292 562//485 
f 293//292 296//295 562//485 
f 296//295 323//321 562//485 
f 326//324 329//327 563//485 
f 329//327 281//280 563//485 
f 281//280 284//283 563//485 
f 284//283 287//286 563//485 
f 287//286 326//324 563//485 
f 329//327 332//330 564//485 
f 332//330 278//277 564//485 
f 278//277 281//280 564//485 
f 281//280 329//327 564//485 
f 332//330 335//333 565//485 
f 335//333 278//277 565//485 
f 278//277 332//330 565//485 
f 335//333 338//336 566//485 
f 338//336 275//274 566//485 
f 275//274 278//277 566//485 
f 278//277 335//333 566//485 
f 338//336 341//339 567//485 
f 341//339 275//274 567//485 
f 275//274 338//336 567//485 
f 341//339 344//341 568//485 
f 344//341 275//274 568//485 
f 275//274 341//339 568//485 
f 344//341 347//343 569//485 
f 347//343 272//272 569//485 
f 272//272 275//274 569//485 
f 275//274 344//341 569//485 
f 347//343 350//346 570//485 
f 350//346 266//266 570//485 
f 266//266 269//269 570//485 
f 269//269 272//272 570//485 
f 272//272 347//343 570//485 
f 350//346 353//349 571//485 
f 353//349 257//257 571//485 
f 257//257 260//260 571//485 
f 260//260 263//263 571//485 
f 263//263 266//266 571//485 
f 266//266 350//346 571//485 
f 353//349 356//352 572//485 
f 356//352 245//245 572//485 
f 245//245 248//248 572//485 
f 248//248 251//251 572//485 
f 251//251 254//254 572//485 
f 254//254 257//257 572//485 
f 257//257 353//349 572//485 
f 356//352 359//355 573//485 
f 359//355 233//233 573//485 
f 233//233 236//236 573//485 
f 236//236 239//239 573//485 
f 239//239 242//242 573//485 
f 242//242 245//245 573//485 
f 245//245 356//352 573//485 
f 359//355 362//358 574//485 
f 362//358 221//221 574//485 
f 221//221 224//224 574//485 
f 224//224 227//227 574//485 
f 227//227 230//230 574//485 
f 230//230 233//233 574//485 
f 233//233 359//355 574//485 
f 362//358 365//361 575//485 
f 365//361 218//218 575//485 
f 218//218 221//221 575//485 
f 221//221 362//358 575//485 
f 365//361 368//364 576//485 
f 368//364 4//4 576//485 
f 4//4 8//8 576//485 
f 8//8 218//218 576//485 
f 218//218 365//361 576//485 
f 368//364 371//367 577//485 
f 371//367 4//4 577//485 
f 4//4 368//364 577//485 
f 8//8 11//11 578//485 
f 11//11 218//218 578//485 
f 218//218 8//8 578//485 
f 11//11 14//14 579//485 
f 14//14 209//209 579//485 
f 209//209 212//212 579//485 
f 212//212 215//215 579//485 
f 215//215 218//218 579//485 
f 218//218 11//11 579//485 
f 14//14 17//17 580//485 
f 17//17 200//200 580//485 
f 200//200 203//203 580//485 
f 203//203 206//206 580//485 
f 206//206 209//209 580//485 
f 209//209 14//14 580//485 
f 17//17 20//20 581//485 
f 20//20 191//191 581//485 
f 191//191 194//194 581//485 
f 194//194 197//197 581//485 
f 197//197 200//200 581//485 
f 200//200 17//17 581//485 
f 20//20 23//23 582//485 
f 23//23 179//179 582//485 
f 179//179 182//182 582//485 
f 182//182 185//185 582//485 
f 185//185 188//188 582//485 
f 188//188 191//191 582//485 
f 191//191 20//20 582//485 
f 23//23 26//26 583//485 
f 26//26 446//437 583//485 
f 446//437 449//440 583//485 
f 449//440 584//485 164//164 583//485 
f 164//164 167//167 583//485 
f 167//167 170//170 583//485 
f 170//170 173//173 583//485 
f 173//173 176//176 583//485 
f 176//176 179//179 583//485 
f 179//179 23//23 583//485 
f 449//440 452//443 584//485 
f 452//443 164//164 584//485 
f 452//443 455//446 585//485 
f 455//446 164//164 585//485 
f 164//164 452//443 585//485 
f 455//446 458//449 586//485 
f 458//449 161//161 586//485 
f 161//161 164//164 586//485 
f 164//164 455//446 586//485 
f 458//449 461//452 587//485 
f 461//452 158//158 587//485 
f 158//158 161//161 587//485 
f 161//161 458//449 587//485 
f 461//452 464//455 588//485 
f 464//455 155//155 588//485 
f 155//155 158//158 588//485 
f 158//158 461//452 588//485 
f 464//455 467//458 589//485 
f 467//458 149//149 589//485 
f 149//149 152//152 589//485 
f 152//152 155//155 589//485 
f 155//155 464//455 589//485 
f 467//458 470//461 590//485 
f 470//461 143//143 590//485 
f 143//143 146//146 590//485 
f 146//146 149//149 590//485 
f 149//149 467//458 590//485 
f 470//461 473//464 591//485 
f 473//464 137//137 591//485 
f 137//137 140//140 591//485 
f 140//140 143//143 591//485 
f 143//143 470//461 591//485 
f 473//464 476//467 592//485 
f 476//467 131//131 592//485 
f 131//131 134//134 592//485 
f 134//134 137//137 592//485 
f 137//137 473//464 592//485 
f 476//467 479//470 593//485 
f 479//470 125//125 593//485 
f 125//125 128//128 593//485 
f 128//128 131//131 593//485 
f 131//131 476//467 593//485 
f 479//470 482//473 594//485 
f 482//473 119//119 594//485 
f 119//119 122//122 594//485 
f 122//122 125//125 594//485 
f 125//125 479//470 594//485 
f 482//473 485//476 595//485 
f 485//476 116//116 595//485 
f 116//116 119//119 595//485 
f 119//119 482//473 595//485 
f 485//476 488//479 596//485 
f 488//479 110//110 596//485 
f 110//110 113//113 596//485 
f 113//113 116//116 596//485 
f 116//116 485//476 596//485 
f 488//479 491//482 597//485 
f 491//482 107//107 597//485 
f 107//107 110//110 597//485 
f 110//110 488//479 597//485 
f 491//482 389//380 598//485 
f 389//380 104//104 598//485 
f 104//104 107//107 598//485 
f 107//107 491//482 598//485 
f 389//380 388//379 599//485 
f 388//379 101//101 599//485 
f 101//101 104//104 599//485 
f 104//104 389//380 599//485 
f 388//379 392//383 600//485 
f 392//383 98//98 600//485 
f 98//98 101//101 600//485 
f 101//101 388//379 600//485 
f 392//383 395//386 601//485 
f 395//386 95//95 601//485 
f 95//95 98//98 601//485 
f 98//98 392//383 601//485 
f 395//386 398//389 602//485 
f 398//389 92//92 602//485 
f 92//92 95//95 602//485 
f 95//95 395//386 602//485 
f 398//389 401//392 603//485 
f 401//392 89//89 603//485 
f 89//89 92//92 603//485 
f 92//92 398//389 603//485 
f 401//392 404//395 604//485 
f 404//395 86//86 604//485 
f 86//86 89//89 604//485 
f 89//89 401//392 604//485 
f 404//395 407//398 605//485 
f 407//398 83//83 605//485 
f 83//83 86//86 605//485 
f 86//86 404//395 605//485 
f 407//398 410//401 606//485 
f 410//401 80//80 606//485 
f 80//80 83//83 606//485 
f 83//83 407//398 606//485 
f 410//401 413//404 607//485 
f 413//404 77//77 607//485 
f 77//77 80//80 607//485 
f 80//80 410//401 607//485 
f 413//404 416//407 608//485 
f 416//407 77//77 608//485 
f 77//77 413//404 608//485 
f 416//407 419//410 609//485 
f 419//410 71//71 609//485 
f 71//71 74//74 609//485 
f 74//74 77//77 609//485 
f 77//77 416//407 609//485 
f 419//410 422//413 610//485 
f 422//413 68//68 610//485 
f 68//68 71//71 610//485 
f 71//71 419//410 610//485 
f 422//413 425//416 611//485 
f 425//416 65//65 611//485 
f 65//65 68//68 611//485 
f 68//68 422//413 611//485 
f 425//416 428//419 612//485 
f 428//419 62//62 612//485 
f 62//62 65//65 612//485 
f 65//65 425//416 612//485 
f 428//419 431//422 613//485 
f 431//422 59//59 613//485 
f 59//59 62//62 613//485 
f 62//62 428//419 613//485 
f 431//422 434//425 614//485 
f 434//425 56//56 614//485 
f 56//56 59//59 614//485 
f 59//59 431//422 614//485 
f 434//425 437//428 615//485 
f 437//428 50//50 615//485 
f 50//50 53//53 615//485 
f 53//53 56//56 615//485 
f 56//56 434//425 615//485 
f 437//428 440//431 616//485 
f 440//431 26//26 616//485 
f 26//26 29//29 616//485 
f 29//29 32//32 616//485 
f 32//32 35//35 616//485 
f 35//35 38//38 616//485 
f 38//38 41//41 616//485 
f 41//41 44//44 616//485 
f 44//44 47//47 616//485 
f 47//47 50//50 616//485 
f 50//50 437//428 616//485 
f 440//431 443//434 617//485 
f 443//434 26//26 617//485 
f 26//26 440//431 617//485 
f 443//434 446//437 618//485 
f 446//437 26//26 618//485 
f 26//26 443//434 618//485 
f 371//367 374//370 619//485 
f 374//370 383//374 619//485 
f 383//374 5//5 619//485 
f 5//5 371//367 619//485 
f 374//370 377//372 620//485 
f 377//372 380//307 620//485 
f 380//307 383//374 620//485 
f 383//374 374//370 620//485 
f 5//5 4//4 621//485 
f 4//4 371//367 621//485 
f 371//367 5//5 621//485 
# 2 polygons - 1238 triangles

