# 3ds Max Wavefront OBJ Exporter v0.97b - (c)2007 guruware
# File Created: 10.09.2021 11:04:00

#
# object Ro_Rua
#

v  1478.3025 0.0000 -22.6879
v  1476.4242 0.0000 -22.3409
v  1477.3633 5.0000 -22.5144
v  1476.4242 10.0000 -22.3409
v  1478.3025 10.0000 -22.6879
v  1474.7963 0.0000 -21.7626
v  1475.6102 5.0000 -22.0517
v  1474.7963 10.0000 -21.7626
v  1473.4188 0.0000 -20.9530
v  1474.1075 5.0000 -21.3578
v  1473.4188 10.0000 -20.9530
v  1472.2919 0.0000 -19.9121
v  1472.8553 5.0000 -20.4326
v  1472.2919 10.0000 -19.9121
v  1471.4153 0.0000 -18.6399
v  1471.8535 5.0000 -19.2760
v  1471.4153 10.0000 -18.6399
v  1470.7892 0.0000 -17.1364
v  1471.1023 5.0000 -17.8881
v  1470.7892 10.0000 -17.1364
v  1470.4136 0.0000 -15.4016
v  1470.6013 5.0000 -16.2690
v  1470.4136 10.0000 -15.4016
v  1470.2883 0.0000 -13.4354
v  1470.3510 5.0000 -14.4185
v  1470.2883 10.0000 -13.4354
v  1470.4019 0.0000 -11.6847
v  1470.3451 5.0000 -12.5600
v  1470.4019 10.0000 -11.6847
v  1470.7423 0.0000 -10.1399
v  1470.5720 5.0000 -10.9123
v  1470.7423 10.0000 -10.1399
v  1471.3099 0.0000 -8.8011
v  1471.0261 5.0000 -9.4705
v  1471.3099 10.0000 -8.8011
v  1472.1045 0.0000 -7.6683
v  1471.7072 5.0000 -8.2347
v  1472.1045 10.0000 -7.6683
v  1473.1261 0.0000 -6.7414
v  1472.6154 5.0000 -7.2049
v  1473.1261 10.0000 -6.7414
v  1474.3748 0.0000 -6.0205
v  1473.7505 5.0000 -6.3810
v  1474.3748 10.0000 -6.0205
v  1475.8505 0.0000 -5.5056
v  1475.1125 5.0000 -5.7631
v  1475.8505 10.0000 -5.5056
v  1477.5531 0.0000 -5.1967
v  1476.7018 5.0000 -5.3511
v  1477.5531 10.0000 -5.1967
v  1479.4828 0.0000 -5.0937
v  1478.5179 5.0000 -5.1452
v  1479.4828 10.0000 -5.0937
v  1481.7430 0.0000 -5.2295
v  1480.6129 5.0000 -5.1616
v  1481.7430 10.0000 -5.2295
v  1483.7373 0.0000 -5.6368
v  1482.7402 5.0000 -5.4331
v  1483.7373 10.0000 -5.6368
v  1485.4658 0.0000 -6.3157
v  1484.6016 5.0000 -5.9763
v  1485.4658 10.0000 -6.3157
v  1486.9282 0.0000 -7.2662
v  1486.1970 5.0000 -6.7909
v  1486.9282 10.0000 -7.2662
v  1488.1249 0.0000 -8.4882
v  1487.5266 5.0000 -7.8772
v  1488.1249 10.0000 -8.4882
v  1489.0555 0.0000 -9.9818
v  1488.5902 5.0000 -9.2350
v  1489.0555 10.0000 -9.9818
v  1489.7203 0.0000 -11.7469
v  1489.3879 5.0000 -10.8643
v  1489.7203 10.0000 -11.7469
v  1490.1191 0.0000 -13.7836
v  1489.9197 5.0000 -12.7653
v  1490.1191 10.0000 -13.7836
v  1490.2521 0.0000 -16.0919
v  1490.1857 5.0000 -14.9378
v  1490.2521 10.0000 -16.0919
v  1490.2521 0.0000 -32.4710
v  1490.2521 5.0000 -24.2814
v  1490.2521 10.0000 -32.4710
v  1490.1420 0.0000 -33.6244
v  1490.1970 5.0000 -33.0477
v  1490.1420 10.0000 -33.6244
v  1489.8113 0.0000 -34.7480
v  1489.9766 5.0000 -34.1862
v  1489.8113 10.0000 -34.7480
v  1489.2604 0.0000 -35.8417
v  1489.5359 5.0000 -35.2948
v  1489.2604 10.0000 -35.8417
v  1488.4890 0.0000 -36.9056
v  1488.8748 5.0000 -36.3737
v  1488.4890 10.0000 -36.9056
v  1487.4973 0.0000 -37.9397
v  1487.9932 5.0000 -37.4226
v  1487.4973 10.0000 -37.9397
v  1486.2853 0.0000 -38.9439
v  1486.8914 5.0000 -38.4418
v  1486.2853 10.0000 -38.9439
v  1484.8528 0.0000 -39.9182
v  1485.5691 5.0000 -39.4311
v  1484.8528 10.0000 -39.9182
v  1483.2000 0.0000 -40.8627
v  1484.0264 5.0000 -40.3905
v  1483.2000 10.0000 -40.8627
v  1481.3268 0.0000 -41.7774
v  1482.2633 5.0000 -41.3201
v  1481.3268 10.0000 -41.7774
v  1479.3657 0.0000 -42.6272
v  1480.3462 5.0000 -42.2023
v  1479.3657 10.0000 -42.6272
v  1477.4492 0.0000 -43.3770
v  1478.4075 5.0000 -43.0021
v  1477.4492 10.0000 -43.3770
v  1475.5775 0.0000 -44.0268
v  1476.5134 5.0000 -43.7019
v  1475.5775 10.0000 -44.0268
v  1473.7504 0.0000 -44.5766
v  1474.6639 5.0000 -44.3017
v  1473.7504 10.0000 -44.5766
v  1471.9680 0.0000 -45.0265
v  1472.8591 5.0000 -44.8016
v  1471.9680 10.0000 -45.0265
v  1470.2302 0.0000 -45.3764
v  1471.0991 5.0000 -45.2015
v  1470.2302 10.0000 -45.3764
v  1468.5371 0.0000 -45.6263
v  1469.3837 5.0000 -45.5014
v  1468.5371 10.0000 -45.6263
v  1466.8885 0.0000 -45.7763
v  1467.7128 5.0000 -45.7013
v  1466.8885 10.0000 -45.7763
v  1465.2848 0.0000 -45.8263
v  1466.0867 5.0000 -45.8013
v  1465.2848 10.0000 -45.8263
v  1465.6635 0.0000 -46.5696
v  1465.4741 5.0000 -46.1980
v  1465.6635 10.0000 -46.5696
v  1466.1299 0.0000 -47.2256
v  1465.8967 5.0000 -46.8976
v  1466.1299 10.0000 -47.2256
v  1466.6840 0.0000 -47.7940
v  1466.4070 5.0000 -47.5098
v  1466.6840 10.0000 -47.7940
v  1467.3258 0.0000 -48.2750
v  1467.0049 5.0000 -48.0345
v  1467.3258 10.0000 -48.2750
v  1468.0553 0.0000 -48.6686
v  1467.6906 5.0000 -48.4718
v  1468.0553 10.0000 -48.6686
v  1468.8726 0.0000 -48.9747
v  1468.4640 5.0000 -48.8216
v  1468.8726 10.0000 -48.9747
v  1469.7775 0.0000 -49.1933
v  1469.3251 5.0000 -49.0840
v  1469.7775 10.0000 -49.1933
v  1470.7701 0.0000 -49.3245
v  1470.2738 5.0000 -49.2589
v  1470.7701 10.0000 -49.3245
v  1471.8505 0.0000 -49.3682
v  1471.3103 5.0000 -49.3464
v  1471.8505 10.0000 -49.3682
v  1472.5643 0.0000 -49.3470
v  1472.2074 5.0000 -49.3576
v  1472.5643 10.0000 -49.3470
v  1473.3407 0.0000 -49.2833
v  1472.9525 5.0000 -49.3151
v  1473.3407 10.0000 -49.2833
v  1474.1797 0.0000 -49.1771
v  1473.7603 5.0000 -49.2302
v  1474.1797 10.0000 -49.1771
v  1475.0812 0.0000 -49.0284
v  1474.6304 5.0000 -49.1027
v  1475.0812 10.0000 -49.0284
v  1476.0452 0.0000 -48.8372
v  1475.5631 5.0000 -48.9328
v  1476.0452 10.0000 -48.8372
v  1477.0718 0.0000 -48.6035
v  1476.5585 5.0000 -48.7203
v  1477.0718 10.0000 -48.6035
v  1478.1609 0.0000 -48.3273
v  1477.6163 5.0000 -48.4654
v  1478.1609 10.0000 -48.3273
v  1479.3126 0.0000 -48.0087
v  1478.7367 5.0000 -48.1680
v  1479.3126 10.0000 -48.0087
v  1480.5269 0.0000 -47.6476
v  1479.9197 5.0000 -47.8281
v  1480.5269 10.0000 -47.6476
v  1481.7249 0.0000 -47.2991
v  1481.1259 5.0000 -47.4733
v  1481.7249 10.0000 -47.2991
v  1482.8560 0.0000 -46.9916
v  1482.2904 5.0000 -47.1454
v  1482.8560 10.0000 -46.9916
v  1483.9200 0.0000 -46.7252
v  1483.3879 5.0000 -46.8584
v  1483.9200 10.0000 -46.7252
v  1484.9172 0.0000 -46.4997
v  1484.4187 5.0000 -46.6124
v  1484.9172 10.0000 -46.4997
v  1485.8474 0.0000 -46.3152
v  1485.3823 5.0000 -46.4075
v  1485.8474 10.0000 -46.3152
v  1486.7107 0.0000 -46.1717
v  1486.2791 5.0000 -46.2435
v  1486.7107 10.0000 -46.1717
v  1487.5070 0.0000 -46.0693
v  1487.1089 5.0000 -46.1205
v  1487.5070 10.0000 -46.0693
v  1488.2363 0.0000 -46.0078
v  1487.8717 5.0000 -46.0385
v  1488.2363 10.0000 -46.0078
v  1488.8987 0.0000 -45.9873
v  1488.5675 5.0000 -45.9975
v  1488.8987 10.0000 -45.9873
v  1489.5684 0.0000 -46.0242
v  1489.2335 5.0000 -46.0058
v  1489.5684 10.0000 -46.0242
v  1490.2646 0.0000 -46.1351
v  1489.9165 5.0000 -46.0797
v  1490.2646 10.0000 -46.1351
v  1490.9878 0.0000 -46.3199
v  1490.6262 5.0000 -46.2275
v  1490.9878 10.0000 -46.3199
v  1491.7375 0.0000 -46.5786
v  1491.3627 5.0000 -46.4492
v  1491.7375 10.0000 -46.5786
v  1492.5140 0.0000 -46.9112
v  1492.1257 5.0000 -46.7449
v  1492.5140 10.0000 -46.9112
v  1493.3173 0.0000 -47.3177
v  1492.9156 5.0000 -47.1145
v  1493.3173 10.0000 -47.3177
v  1494.1471 0.0000 -47.7982
v  1493.7322 5.0000 -47.5580
v  1494.1471 10.0000 -47.7982
v  1495.0038 0.0000 -48.3526
v  1494.5754 5.0000 -48.0754
v  1495.0038 10.0000 -48.3526
v  1495.8871 0.0000 -48.9808
v  1495.4454 5.0000 -48.6667
v  1495.8871 10.0000 -48.9808
v  1492.8130 0.0000 -54.8422
v  1494.3500 5.0000 -51.9115
v  1492.8130 10.0000 -54.8422
v  1492.3535 0.0000 -54.2678
v  1492.5833 5.0000 -54.5550
v  1492.3535 10.0000 -54.2678
v  1491.8850 0.0000 -53.7609
v  1492.1193 5.0000 -54.0143
v  1491.8850 10.0000 -53.7609
v  1491.4076 0.0000 -53.3216
v  1491.6462 5.0000 -53.5413
v  1491.4076 10.0000 -53.3216
v  1490.9213 0.0000 -52.9500
v  1491.1644 5.0000 -53.1358
v  1490.9213 10.0000 -52.9500
v  1490.4260 0.0000 -52.6459
v  1490.6736 5.0000 -52.7979
v  1490.4260 10.0000 -52.6459
v  1489.9218 0.0000 -52.4093
v  1490.1738 5.0000 -52.5276
v  1489.9218 10.0000 -52.4093
v  1489.4086 0.0000 -52.2404
v  1489.6652 5.0000 -52.3248
v  1489.4086 10.0000 -52.2404
v  1488.8865 0.0000 -52.1390
v  1489.1475 5.0000 -52.1897
v  1488.8865 10.0000 -52.1390
v  1488.3553 0.0000 -52.1052
v  1488.6208 5.0000 -52.1221
v  1488.3553 10.0000 -52.1052
v  1487.7065 0.0000 -52.1221
v  1488.0310 5.0000 -52.1137
v  1487.7065 10.0000 -52.1221
v  1486.9923 0.0000 -52.1728
v  1487.3495 5.0000 -52.1475
v  1486.9923 10.0000 -52.1728
v  1486.2126 0.0000 -52.2573
v  1486.6025 5.0000 -52.2150
v  1486.2126 10.0000 -52.2573
v  1485.3674 0.0000 -52.3755
v  1485.7900 5.0000 -52.3164
v  1485.3674 10.0000 -52.3755
v  1484.4568 0.0000 -52.5276
v  1484.9121 5.0000 -52.4516
v  1484.4568 10.0000 -52.5276
v  1483.4807 0.0000 -52.7134
v  1483.9688 5.0000 -52.6205
v  1483.4807 10.0000 -52.7134
v  1482.4391 0.0000 -52.9331
v  1482.9598 5.0000 -52.8232
v  1482.4391 10.0000 -52.9331
v  1481.3320 0.0000 -53.1865
v  1481.8856 5.0000 -53.0598
v  1481.3320 10.0000 -53.1865
v  1480.1595 0.0000 -53.4737
v  1480.7457 5.0000 -53.3301
v  1480.1595 10.0000 -53.4737
v  1478.9875 0.0000 -53.7609
v  1479.5735 5.0000 -53.6173
v  1478.9875 10.0000 -53.7609
v  1477.8810 0.0000 -54.0143
v  1478.4342 5.0000 -53.8876
v  1477.8810 10.0000 -54.0143
v  1476.8397 0.0000 -54.2340
v  1477.3604 5.0000 -54.1242
v  1476.8397 10.0000 -54.2340
v  1475.8640 0.0000 -54.4198
v  1476.3519 5.0000 -54.3269
v  1475.8640 10.0000 -54.4198
v  1474.9536 0.0000 -54.5719
v  1475.4088 5.0000 -54.4958
v  1474.9536 10.0000 -54.5719
v  1474.1086 0.0000 -54.6901
v  1474.5311 5.0000 -54.6310
v  1474.1086 10.0000 -54.6901
v  1473.3291 0.0000 -54.7746
v  1473.7189 5.0000 -54.7324
v  1473.3291 10.0000 -54.7746
v  1472.6150 0.0000 -54.8253
v  1472.9720 5.0000 -54.7999
v  1472.6150 10.0000 -54.8253
v  1471.9662 0.0000 -54.8422
v  1472.2905 5.0000 -54.8337
v  1471.9662 10.0000 -54.8422
v  1470.5140 0.0000 -54.7934
v  1471.2401 5.0000 -54.8178
v  1470.5140 10.0000 -54.7934
v  1469.1035 0.0000 -54.6471
v  1469.8088 5.0000 -54.7202
v  1469.1035 10.0000 -54.6471
v  1467.7347 0.0000 -54.4032
v  1468.4191 5.0000 -54.5251
v  1467.7347 10.0000 -54.4032
v  1466.4076 0.0000 -54.0618
v  1467.0712 5.0000 -54.2325
v  1466.4076 10.0000 -54.0618
v  1465.1221 0.0000 -53.6228
v  1465.7648 5.0000 -53.8423
v  1465.1221 10.0000 -53.6228
v  1463.8783 0.0000 -53.0863
v  1464.5001 5.0000 -53.3546
v  1463.8783 10.0000 -53.0863
v  1462.6761 0.0000 -52.4522
v  1463.2772 5.0000 -52.7693
v  1462.6761 10.0000 -52.4522
v  1461.5157 0.0000 -51.7206
v  1462.0959 5.0000 -52.0864
v  1461.5157 10.0000 -51.7206
v  1460.3970 0.0000 -50.8914
v  1460.9563 5.0000 -51.3060
v  1460.3970 10.0000 -50.8914
v  1459.3563 0.0000 -49.9869
v  1459.8767 5.0000 -50.4392
v  1459.3563 10.0000 -49.9869
v  1458.4302 0.0000 -49.0291
v  1458.8933 5.0000 -49.5080
v  1458.4302 10.0000 -49.0291
v  1457.6187 0.0000 -48.0182
v  1458.0244 5.0000 -48.5237
v  1457.6187 10.0000 -48.0182
v  1456.9216 0.0000 -46.9541
v  1457.2701 5.0000 -47.4861
v  1456.9216 10.0000 -46.9541
v  1456.3391 0.0000 -45.8367
v  1456.6304 5.0000 -46.3954
v  1456.3391 10.0000 -45.8367
v  1455.8711 0.0000 -44.6662
v  1456.1051 5.0000 -45.2514
v  1455.8711 10.0000 -44.6662
v  1455.5177 0.0000 -43.4424
v  1455.6945 5.0000 -44.0543
v  1455.5177 10.0000 -43.4424
v  1455.2788 0.0000 -42.1655
v  1455.3983 5.0000 -42.8039
v  1455.2788 10.0000 -42.1655
v  1455.1544 0.0000 -40.8353
v  1455.2167 5.0000 -41.5004
v  1455.1544 10.0000 -40.8353
v  1456.0576 0.0000 -40.8957
v  1455.6060 5.0000 -40.8655
v  1456.0576 10.0000 -40.8957
v  1457.3656 0.0000 -40.8789
v  1456.7117 5.0000 -40.8873
v  1457.3656 10.0000 -40.8789
v  1458.6960 0.0000 -40.8287
v  1458.0309 5.0000 -40.8538
v  1458.6960 10.0000 -40.8287
v  1460.0488 0.0000 -40.7449
v  1459.3724 5.0000 -40.7868
v  1460.0488 10.0000 -40.7449
v  1461.4240 0.0000 -40.6276
v  1460.7363 5.0000 -40.6863
v  1461.4240 10.0000 -40.6276
v  1462.8213 0.0000 -40.4768
v  1462.1227 5.0000 -40.5522
v  1462.8213 10.0000 -40.4768
v  1464.2411 0.0000 -40.2925
v  1463.5313 5.0000 -40.3847
v  1464.2411 10.0000 -40.2925
v  1465.6831 0.0000 -40.0747
v  1464.9622 5.0000 -40.1836
v  1465.6831 10.0000 -40.0747
v  1467.1476 0.0000 -39.8234
v  1466.4154 5.0000 -39.9490
v  1467.1476 10.0000 -39.8234
v  1468.6343 0.0000 -39.5385
v  1467.8910 5.0000 -39.6810
v  1468.6343 10.0000 -39.5385
v  1470.0802 0.0000 -39.2269
v  1469.3573 5.0000 -39.3827
v  1470.0802 10.0000 -39.2269
v  1471.4221 0.0000 -38.8952
v  1470.7511 5.0000 -39.0610
v  1471.4221 10.0000 -38.8952
v  1472.6599 0.0000 -38.5433
v  1472.0410 5.0000 -38.7192
v  1472.6599 10.0000 -38.5433
v  1473.7938 0.0000 -38.1714
v  1473.2269 5.0000 -38.3574
v  1473.7938 10.0000 -38.1714
v  1474.8237 0.0000 -37.7794
v  1474.3087 5.0000 -37.9754
v  1474.8237 10.0000 -37.7794
v  1475.7495 0.0000 -37.3673
v  1475.2866 5.0000 -37.5733
v  1475.7495 10.0000 -37.3673
v  1476.5714 0.0000 -36.9351
v  1476.1604 5.0000 -37.1512
v  1476.5714 10.0000 -36.9351
v  1477.2892 0.0000 -36.4828
v  1476.9303 5.0000 -36.7089
v  1477.2892 10.0000 -36.4828
v  1477.9031 0.0000 -36.0104
v  1477.5961 5.0000 -36.2466
v  1477.9031 10.0000 -36.0104
v  1478.4336 0.0000 -35.5041
v  1478.1683 5.0000 -35.7573
v  1478.4336 10.0000 -35.5041
v  1478.9019 0.0000 -34.9502
v  1478.6677 5.0000 -35.2272
v  1478.9019 10.0000 -34.9502
v  1479.3076 0.0000 -34.3487
v  1479.1047 5.0000 -34.6495
v  1479.3076 10.0000 -34.3487
v  1479.6509 0.0000 -33.6995
v  1479.4792 5.0000 -34.0241
v  1479.6509 10.0000 -33.6995
v  1479.9318 0.0000 -33.0027
v  1479.7914 5.0000 -33.3511
v  1479.9318 10.0000 -33.0027
v  1480.1503 0.0000 -32.2582
v  1480.0410 5.0000 -32.6305
v  1480.1503 10.0000 -32.2582
v  1480.3064 0.0000 -31.4661
v  1480.2283 5.0000 -31.8622
v  1480.3064 10.0000 -31.4661
v  1480.4000 0.0000 -30.6264
v  1480.3531 5.0000 -31.0463
v  1480.4000 10.0000 -30.6264
v  1480.4312 0.0000 -29.7390
v  1480.4156 5.0000 -30.1827
v  1480.4312 10.0000 -29.7390
v  1480.4312 0.0000 -22.8035
v  1480.4312 5.0000 -26.2713
v  1480.4312 10.0000 -22.8035
v  1479.3668 5.0000 -22.7457
v  1478.6841 0.0000 -9.9744
v  1477.9238 0.0000 -10.1269
v  1478.3040 5.0000 -10.0507
v  1477.9238 10.0000 -10.1269
v  1478.6841 10.0000 -9.9744
v  1477.2649 0.0000 -10.3809
v  1477.5944 5.0000 -10.2539
v  1477.2649 10.0000 -10.3809
v  1476.7074 0.0000 -10.7366
v  1476.9861 5.0000 -10.5587
v  1476.7074 10.0000 -10.7366
v  1476.2512 0.0000 -11.1939
v  1476.4792 5.0000 -10.9652
v  1476.2512 10.0000 -11.1939
v  1475.8964 0.0000 -11.7528
v  1476.0739 5.0000 -11.4733
v  1475.8964 10.0000 -11.7528
v  1475.6429 0.0000 -12.4133
v  1475.7697 5.0000 -12.0830
v  1475.6429 10.0000 -12.4133
v  1475.4910 0.0000 -13.1754
v  1475.5670 5.0000 -12.7943
v  1475.4910 10.0000 -13.1754
v  1475.4402 0.0000 -14.0392
v  1475.4656 5.0000 -13.6073
v  1475.4402 10.0000 -14.0392
v  1475.4910 0.0000 -14.8649
v  1475.4656 5.0000 -14.4520
v  1475.4910 10.0000 -14.8649
v  1475.6429 0.0000 -15.5935
v  1475.5669 5.0000 -15.2292
v  1475.6429 10.0000 -15.5935
v  1475.8964 0.0000 -16.2249
v  1475.7697 5.0000 -15.9092
v  1475.8964 10.0000 -16.2249
v  1476.2512 0.0000 -16.7592
v  1476.0739 5.0000 -16.4921
v  1476.2512 10.0000 -16.7592
v  1476.7074 0.0000 -17.1964
v  1476.4792 5.0000 -16.9778
v  1476.7074 10.0000 -17.1964
v  1477.2649 0.0000 -17.5364
v  1476.9861 5.0000 -17.3664
v  1477.2649 10.0000 -17.5364
v  1477.9238 0.0000 -17.7793
v  1477.5944 5.0000 -17.6578
v  1477.9238 10.0000 -17.7793
v  1478.6841 0.0000 -17.9250
v  1478.3040 5.0000 -17.8521
v  1478.6841 10.0000 -17.9250
v  1479.5457 0.0000 -17.9736
v  1479.1149 5.0000 -17.9493
v  1479.5457 10.0000 -17.9736
v  1480.4073 0.0000 -17.9250
v  1479.9766 5.0000 -17.9493
v  1480.4073 10.0000 -17.9250
v  1481.1676 0.0000 -17.7793
v  1480.7875 5.0000 -17.8521
v  1481.1676 10.0000 -17.7793
v  1481.8265 0.0000 -17.5364
v  1481.4971 5.0000 -17.6578
v  1481.8265 10.0000 -17.5364
v  1482.3840 0.0000 -17.1964
v  1482.1053 5.0000 -17.3664
v  1482.3840 10.0000 -17.1964
v  1482.8402 0.0000 -16.7592
v  1482.6122 5.0000 -16.9778
v  1482.8402 10.0000 -16.7592
v  1483.1951 0.0000 -16.2249
v  1483.0176 5.0000 -16.4921
v  1483.1951 10.0000 -16.2249
v  1483.4485 0.0000 -15.5935
v  1483.3218 5.0000 -15.9092
v  1483.4485 10.0000 -15.5935
v  1483.6005 0.0000 -14.8649
v  1483.5244 5.0000 -15.2292
v  1483.6005 10.0000 -14.8649
v  1483.6511 0.0000 -14.0392
v  1483.6259 5.0000 -14.4520
v  1483.6511 10.0000 -14.0392
v  1483.6005 0.0000 -13.1754
v  1483.6259 5.0000 -13.6073
v  1483.6005 10.0000 -13.1754
v  1483.4485 0.0000 -12.4133
v  1483.5244 5.0000 -12.7943
v  1483.4485 10.0000 -12.4133
v  1483.1951 0.0000 -11.7528
v  1483.3218 5.0000 -12.0830
v  1483.1951 10.0000 -11.7528
v  1482.8402 0.0000 -11.1939
v  1483.0176 5.0000 -11.4733
v  1482.8402 10.0000 -11.1939
v  1482.3840 0.0000 -10.7366
v  1482.6122 5.0000 -10.9652
v  1482.3840 10.0000 -10.7366
v  1481.8265 0.0000 -10.3809
v  1482.1053 5.0000 -10.5587
v  1481.8265 10.0000 -10.3809
v  1481.1676 0.0000 -10.1269
v  1481.4971 5.0000 -10.2539
v  1481.1676 10.0000 -10.1269
v  1480.4073 0.0000 -9.9744
v  1480.7875 5.0000 -10.0507
v  1480.4073 10.0000 -9.9744
v  1479.5457 0.0000 -9.9236
v  1479.9766 5.0000 -9.9490
v  1479.5457 10.0000 -9.9236
v  1479.1149 5.0000 -9.9490
v  1482.8218 0.0000 -24.0658
v  1480.6687 0.0000 -19.5026
v  1464.1157 10.0000 -42.1985
v  1480.1281 0.0000 -19.5673
v  1479.2408 0.0000 -20.3475
v  1477.8336 0.0000 -20.1832
v  1476.6023 0.0000 -19.8548
v  1475.5469 0.0000 -19.3621
v  1474.6674 0.0000 -18.7052
v  1473.9636 0.0000 -17.8841
v  1473.4359 0.0000 -16.8987
v  1473.0841 0.0000 -15.7491
v  1472.9082 0.0000 -14.4353
v  1472.9053 0.0000 -13.0837
v  1473.8452 0.0000 -12.4245
v  1472.7987 0.0000 -10.9584
v  1473.8905 0.0000 -9.8540
v  1474.5474 0.0000 -9.0850
v  1475.4647 0.0000 -7.8770
v  1477.1481 0.0000 -7.8025
v  1478.0537 0.0000 -8.4327
v  1478.8164 0.0000 -7.5471
v  1480.2947 0.0000 -7.5553
v  1481.1060 0.0000 -8.4436
v  1482.1187 0.0000 -7.8435
v  1483.3534 0.0000 -8.2675
v  1484.4045 0.0000 -8.8781
v  1485.2721 0.0000 -9.6752
v  1485.9559 0.0000 -10.6590
v  1486.4562 0.0000 -11.8293
v  1486.7728 0.0000 -13.1863
v  1486.9058 0.0000 -14.6949
v  1485.7670 0.0000 -15.5168
v  1486.7869 0.0000 -20.0953
v  1485.4291 0.0000 -21.8184
v  1485.1588 0.0000 -22.1422
v  1484.8209 0.0000 -22.4013
v  1483.6945 0.0000 -30.9455
v  1483.6528 0.0000 -31.5212
v  1486.1324 0.0000 -32.9135
v  1485.8567 0.0000 -35.1160
v  1483.3413 0.0000 -35.8964
v  1482.5242 0.0000 -36.7276
v  1481.5656 0.0000 -37.5200
v  1480.1785 0.0000 -37.1057
v  1480.2158 0.0000 -38.5387
v  1478.9712 0.0000 -39.2244
v  1477.7421 0.0000 -38.6817
v  1477.2839 0.0000 -40.0766
v  1476.0074 0.0000 -39.5079
v  1475.4110 0.0000 -40.8386
v  1473.9454 0.0000 -41.3295
v  1472.6108 0.0000 -40.6717
v  1471.8052 0.0000 -41.9313
v  1470.2281 0.0000 -42.2921
v  1468.6373 0.0000 -42.5912
v  1467.0641 0.0000 -42.8252
v  1465.5244 0.0000 -42.9924
v  1464.1157 0.0000 -42.1985
v  1479.1552 0.0000 -50.8927
v  1459.3804 0.0000 -44.6050
v  1480.3328 0.0000 -50.5791
v  1478.0253 0.0000 -51.1765
v  1476.9594 0.0000 -51.4222
v  1475.9575 0.0000 -51.6298
v  1475.0197 0.0000 -51.7993
v  1474.1456 0.0000 -51.9306
v  1473.1915 0.0000 -52.5841
v  1472.2490 0.0000 -52.0957
v  1471.2753 0.0000 -52.0821
v  1470.0413 0.0000 -51.9896
v  1468.8721 0.0000 -51.8046
v  1467.2384 0.0000 -51.9462
v  1466.0953 0.0000 -50.9132
v  1465.1411 0.0000 -50.4019
v  1464.2515 0.0000 -49.7981
v  1462.6124 0.0000 -49.2788
v  1462.1837 0.0000 -47.8530
v  1461.9901 0.0000 -43.9900
v  1481.5057 0.0000 -50.2666
v  1482.6251 0.0000 -49.9843
v  1483.6783 0.0000 -49.7395
v  1484.6654 0.0000 -49.5320
v  1485.5862 0.0000 -49.3619
v  1486.4408 0.0000 -49.2293
v  1487.2291 0.0000 -49.1340
v  1487.9513 0.0000 -49.0761
v  1488.7891 0.0000 -48.4527
v  1489.8231 0.0000 -48.5717
v  1490.9139 0.0000 -48.8919
v  1491.5447 0.0000 -49.8210
v  1492.2029 0.0000 -50.1779
v  1492.8699 0.0000 -50.6056
v  1493.5459 0.0000 -51.1040
v  1493.3752 0.0000 -52.3365
v  1493.6846 0.0000 -52.6969
v  1457.9248 0.0000 -44.4765
v  1457.0680 0.0000 -43.0526
v  1456.0182 0.0000 -42.4097
v  1455.4969 0.0000 -41.2988
v  1455.4969 10.0000 -41.2988
v  1465.5244 10.0000 -42.9924
v  1467.0641 10.0000 -42.8252
v  1468.6373 10.0000 -42.5912
v  1470.2281 10.0000 -42.2921
v  1471.8052 10.0000 -41.9313
v  1472.6108 10.0000 -40.6717
v  1473.9454 10.0000 -41.3295
v  1475.4110 10.0000 -40.8386
v  1476.0074 10.0000 -39.5079
v  1477.2839 10.0000 -40.0766
v  1477.7421 10.0000 -38.6817
v  1478.9712 10.0000 -39.2244
v  1480.2158 10.0000 -38.5387
v  1480.1785 10.0000 -37.1057
v  1481.5656 10.0000 -37.5200
v  1482.5242 10.0000 -36.7276
v  1483.3413 10.0000 -35.8964
v  1485.8567 10.0000 -35.1160
v  1486.1324 10.0000 -32.9135
v  1483.6528 10.0000 -31.5212
v  1483.6945 10.0000 -30.9455
v  1482.8218 10.0000 -24.0658
v  1484.8209 10.0000 -22.4013
v  1485.1588 10.0000 -22.1422
v  1485.4291 10.0000 -21.8184
v  1486.7869 10.0000 -20.0953
v  1485.7670 10.0000 -15.5168
v  1486.9058 10.0000 -14.6949
v  1486.7728 10.0000 -13.1863
v  1486.4562 10.0000 -11.8293
v  1485.9559 10.0000 -10.6590
v  1485.2721 10.0000 -9.6752
v  1484.4045 10.0000 -8.8781
v  1483.3534 10.0000 -8.2675
v  1482.1187 10.0000 -7.8435
v  1481.1060 10.0000 -8.4436
v  1480.2947 10.0000 -7.5553
v  1478.8164 10.0000 -7.5471
v  1478.0537 10.0000 -8.4327
v  1477.1481 10.0000 -7.8025
v  1475.4647 10.0000 -7.8770
v  1474.5474 10.0000 -9.0850
v  1473.8905 10.0000 -9.8540
v  1472.7987 10.0000 -10.9584
v  1473.8452 10.0000 -12.4245
v  1472.9053 10.0000 -13.0837
v  1472.9082 10.0000 -14.4353
v  1473.0841 10.0000 -15.7491
v  1473.4359 10.0000 -16.8987
v  1473.9637 10.0000 -17.8841
v  1474.6674 10.0000 -18.7052
v  1475.5469 10.0000 -19.3621
v  1476.6023 10.0000 -19.8548
v  1477.8336 10.0000 -20.1832
v  1479.2408 10.0000 -20.3475
v  1480.1281 10.0000 -19.5673
v  1480.6687 10.0000 -19.5026
v  1462.1837 10.0000 -47.8530
v  1456.0182 10.0000 -42.4097
v  1457.0680 10.0000 -43.0526
v  1457.9248 10.0000 -44.4765
v  1459.3804 10.0000 -44.6050
v  1461.9901 10.0000 -43.9900
v  1462.6124 10.0000 -49.2788
v  1464.2515 10.0000 -49.7981
v  1465.1411 10.0000 -50.4019
v  1466.0953 10.0000 -50.9132
v  1467.2384 10.0000 -51.9462
v  1468.8721 10.0000 -51.8046
v  1470.0413 10.0000 -51.9896
v  1471.2753 10.0000 -52.0821
v  1472.2490 10.0000 -52.0957
v  1473.1915 10.0000 -52.5841
v  1474.1456 10.0000 -51.9306
v  1475.0197 10.0000 -51.7993
v  1475.9575 10.0000 -51.6298
v  1476.9594 10.0000 -51.4222
v  1478.0253 10.0000 -51.1765
v  1480.2681 10.0000 -51.5563
v  1493.6846 10.0000 -52.6969
v  1479.1552 10.0000 -50.8927
v  1493.3752 10.0000 -52.3365
v  1493.5459 10.0000 -51.1040
v  1492.8699 10.0000 -50.6056
v  1492.2029 10.0000 -50.1779
v  1491.5447 10.0000 -49.8210
v  1490.9139 10.0000 -48.8919
v  1489.8231 10.0000 -48.5717
v  1488.7891 10.0000 -48.4527
v  1487.9513 10.0000 -49.0761
v  1487.2291 10.0000 -49.1340
v  1486.4408 10.0000 -49.2293
v  1485.5862 10.0000 -49.3619
v  1484.6654 10.0000 -49.5320
v  1483.6783 10.0000 -49.7395
v  1482.6251 10.0000 -49.9843
v  1481.0670 10.0000 -49.8150
# 777 vertices

vn -0.0852 -0.6929 -0.7159
vn -0.1875 -0.6897 -0.6994
vn -0.1816 0.0000 -0.9834
vn -0.1875 0.6897 -0.6994
vn -0.0852 0.6929 -0.7159
vn -0.3074 -0.6864 -0.6591
vn -0.3347 0.0000 -0.9423
vn -0.3074 0.6864 -0.6591
vn -0.4349 -0.6838 -0.5859
vn -0.5067 0.0000 -0.8621
vn -0.4349 0.6838 -0.5859
vn -0.5519 -0.6830 -0.4784
vn -0.6785 0.0000 -0.7346
vn -0.5519 0.6830 -0.4784
vn -0.6402 -0.6844 -0.3489
vn -0.8235 0.0000 -0.5674
vn -0.6402 0.6844 -0.3489
vn -0.6931 -0.6873 -0.2174
vn -0.9232 0.0000 -0.3844
vn -0.6931 0.6873 -0.2174
vn -0.7163 -0.6907 -0.0998
vn -0.9773 0.0000 -0.2116
vn -0.7163 0.6907 -0.0998
vn -0.7210 -0.6930 0.0004
vn -0.9980 0.0000 -0.0636
vn -0.7210 0.6930 0.0004
vn -0.7163 -0.6904 0.1016
vn -0.9979 0.0000 0.0647
vn -0.7163 0.6904 0.1016
vn -0.6922 -0.6870 0.2210
vn -0.9766 0.0000 0.2153
vn -0.6922 0.6870 0.2210
vn -0.6378 -0.6842 0.3537
vn -0.9207 0.0000 0.3903
vn -0.6378 0.6842 0.3537
vn -0.5478 -0.6830 0.4832
vn -0.8187 0.0000 0.5742
vn -0.5478 0.6830 0.4832
vn -0.4299 -0.6839 0.5894
vn -0.6719 0.0000 0.7406
vn -0.4299 0.6839 0.5894
vn -0.3029 -0.6866 0.6610
vn -0.5000 0.0000 0.8660
vn -0.3029 0.6866 0.6610
vn -0.1844 -0.6900 0.7000
vn -0.3295 0.0000 0.9442
vn -0.1844 0.6900 0.7000
vn -0.0837 -0.6932 0.7159
vn -0.1785 0.0000 0.9839
vn -0.0837 0.6932 0.7159
vn 0.0024 -0.6946 0.7194
vn -0.0533 0.0000 0.9986
vn 0.0024 0.6946 0.7194
vn 0.0942 -0.6915 0.7162
vn 0.0600 0.0000 0.9982
vn 0.0942 0.6915 0.7162
vn 0.2060 -0.6882 0.6957
vn 0.2001 0.0000 0.9798
vn 0.2060 0.6882 0.6957
vn 0.3333 -0.6851 0.6477
vn 0.3656 0.0000 0.9308
vn 0.3333 0.6851 0.6477
vn 0.4626 -0.6833 0.5650
vn 0.5449 0.0000 0.8385
vn 0.4626 0.6833 0.5650
vn 0.5740 -0.6835 0.4511
vn 0.7145 0.0000 0.6996
vn 0.5740 0.6835 0.4511
vn 0.6527 -0.6856 0.3223
vn 0.8487 0.0000 0.5288
vn 0.6527 0.6856 0.3223
vn 0.6973 -0.6888 0.1981
vn 0.9358 0.0000 0.3525
vn 0.6973 0.6888 0.1981
vn 0.7161 -0.6921 0.0903
vn 0.9814 0.0000 0.1922
vn 0.7161 0.6921 0.0903
vn 0.7132 -0.7007 0.0205
vn 0.9983 0.0000 0.0575
vn 0.7132 0.7007 0.0205
vn 0.7167 -0.6965 -0.0342
vn 1.0000 0.0000 -0.0000
vn 0.7167 0.6965 -0.0342
vn 0.7142 -0.6863 -0.1379
vn 0.9955 0.0000 -0.0951
vn 0.7142 0.6863 -0.1379
vn 0.6755 -0.6874 -0.2670
vn 0.9593 0.0000 -0.2823
vn 0.6755 0.6874 -0.2670
vn 0.6186 -0.6895 -0.3767
vn 0.8931 0.0000 -0.4499
vn 0.6186 0.6895 -0.3767
vn 0.5540 -0.6920 -0.4628
vn 0.8096 0.0000 -0.5870
vn 0.5540 0.6920 -0.4628
vn 0.4900 -0.6945 -0.5269
vn 0.7217 0.0000 -0.6922
vn 0.4900 0.6945 -0.5269
vn 0.4311 -0.6966 -0.5735
vn 0.6380 0.0000 -0.7701
vn 0.4311 0.6966 -0.5735
vn 0.3791 -0.6984 -0.6070
vn 0.5624 0.0000 -0.8268
vn 0.3791 0.6984 -0.6070
vn 0.3341 -0.6999 -0.6313
vn 0.4962 0.0000 -0.8682
vn 0.3341 0.6999 -0.6313
vn 0.2979 -0.7020 -0.6468
vn 0.4388 0.0000 -0.8986
vn 0.2979 0.7020 -0.6468
vn 0.2710 -0.7031 -0.6575
vn 0.3976 0.0000 -0.9176
vn 0.2710 0.7031 -0.6575
vn 0.2463 -0.7028 -0.6674
vn 0.3644 0.0000 -0.9313
vn 0.2463 0.7028 -0.6674
vn 0.2193 -0.7024 -0.6771
vn 0.3280 0.0000 -0.9447
vn 0.2193 0.7024 -0.6771
vn 0.1898 -0.7021 -0.6864
vn 0.2882 0.0000 -0.9576
vn 0.1898 0.7021 -0.6864
vn 0.1575 -0.7017 -0.6949
vn 0.2447 0.0000 -0.9696
vn 0.1575 0.7017 -0.6949
vn 0.1224 -0.7013 -0.7023
vn 0.1974 0.0000 -0.9803
vn 0.1224 0.7013 -0.7023
vn 0.0844 -0.7009 -0.7083
vn 0.1460 0.0000 -0.9893
vn 0.0844 0.7009 -0.7083
vn 0.0435 -0.7005 -0.7124
vn 0.0906 0.0000 -0.9959
vn 0.0435 0.7005 -0.7124
vn 0.2672 -0.9506 -0.1581
vn 0.0312 0.0000 -0.9995
vn 0.2672 0.9506 -0.1581
vn 0.5900 -0.7240 0.3574
vn 0.8910 0.0000 0.4539
vn 0.5900 0.7240 0.3574
vn 0.5289 -0.7249 0.4413
vn 0.8150 0.0000 0.5795
vn 0.5289 0.7249 0.4413
vn 0.4545 -0.7250 0.5175
vn 0.7161 0.0000 0.6980
vn 0.4545 0.7250 0.5175
vn 0.3715 -0.7242 0.5810
vn 0.5997 0.0000 0.8002
vn 0.3715 0.7242 0.5810
vn 0.2859 -0.7228 0.6292
vn 0.4748 0.0000 0.8801
vn 0.2859 0.7228 0.6292
vn 0.2033 -0.7210 0.6624
vn 0.3508 0.0000 0.9365
vn 0.2033 0.7210 0.6624
vn 0.1273 -0.7192 0.6831
vn 0.2349 0.0000 0.9720
vn 0.1273 0.7192 0.6831
vn 0.0598 -0.7175 0.6940
vn 0.1310 0.0000 0.9914
vn 0.0598 0.7175 0.6940
vn 0.0037 -0.7151 0.6990
vn 0.0404 0.0000 0.9992
vn 0.0037 0.7151 0.6990
vn -0.0391 -0.7130 0.7000
vn -0.0297 0.0000 0.9996
vn -0.0391 0.7130 0.7000
vn -0.0728 -0.7121 0.6983
vn -0.0818 0.0000 0.9966
vn -0.0728 0.7121 0.6983
vn -0.1014 -0.7114 0.6955
vn -0.1256 0.0000 0.9921
vn -0.1014 0.7114 0.6955
vn -0.1257 -0.7108 0.6921
vn -0.1628 0.0000 0.9867
vn -0.1257 0.7108 0.6921
vn -0.1466 -0.7103 0.6885
vn -0.1945 0.0000 0.9809
vn -0.1466 0.7103 0.6885
vn -0.1647 -0.7099 0.6848
vn -0.2220 0.0000 0.9751
vn -0.1647 0.7099 0.6848
vn -0.1806 -0.7095 0.6811
vn -0.2458 0.0000 0.9693
vn -0.1806 0.7095 0.6811
vn -0.1945 -0.7093 0.6776
vn -0.2667 0.0000 0.9638
vn -0.1945 0.7093 0.6776
vn -0.1997 -0.7064 0.6790
vn -0.2851 0.0000 0.9585
vn -0.1997 0.7064 0.6790
vn -0.1920 -0.7051 0.6826
vn -0.2793 0.0000 0.9602
vn -0.1920 0.7051 0.6826
vn -0.1792 -0.7049 0.6863
vn -0.2623 0.0000 0.9650
vn -0.1792 0.7049 0.6863
vn -0.1645 -0.7045 0.6904
vn -0.2429 0.0000 0.9700
vn -0.1645 0.7045 0.6904
vn -0.1474 -0.7041 0.6946
vn -0.2205 0.0000 0.9754
vn -0.1474 0.7041 0.6946
vn -0.1274 -0.7036 0.6991
vn -0.1274 0.7036 0.6991
vn -0.1037 -0.7030 0.7036
vn -0.1640 0.0000 0.9865
vn -0.1037 0.7030 0.7036
vn -0.0754 -0.7022 0.7080
vn -0.1276 0.0000 0.9918
vn -0.0754 0.7022 0.7080
vn -0.0410 -0.7012 0.7118
vn -0.0840 0.0000 0.9965
vn -0.0410 0.7012 0.7118
vn 0.0087 -0.6976 0.7165
vn -0.0309 0.0000 0.9995
vn 0.0087 0.6976 0.7165
vn 0.0764 -0.6957 0.7142
vn 0.0551 0.0000 0.9985
vn 0.0764 0.6957 0.7142
vn 0.1453 -0.6969 0.7023
vn 0.1572 0.0000 0.9876
vn 0.1453 0.6969 0.7023
vn 0.2056 -0.6980 0.6860
vn 0.2476 0.0000 0.9689
vn 0.2056 0.6980 0.6860
vn 0.2576 -0.6990 0.6671
vn 0.3262 0.0000 0.9453
vn 0.2576 0.6990 0.6671
vn 0.3020 -0.7000 0.6471
vn 0.3938 0.0000 0.9192
vn 0.3020 0.7000 0.6471
vn 0.3399 -0.7008 0.6271
vn 0.4516 0.0000 0.8922
vn 0.3399 0.7008 0.6271
vn 0.3722 -0.7016 0.6077
vn 0.5010 0.0000 0.8654
vn 0.3722 0.7016 0.6077
vn 0.3998 -0.7022 0.5891
vn 0.5433 0.0000 0.8395
vn 0.3998 0.7022 0.5891
vn 0.7889 -0.5848 0.1887
vn 0.5796 0.0000 0.8149
vn 0.7889 0.5848 0.1887
vn 0.0794 -0.5587 -0.8256
vn 0.8856 0.0000 -0.4645
vn 0.0794 0.5587 -0.8256
vn -0.5298 -0.7152 -0.4558
vn -0.7809 0.0000 -0.6247
vn -0.5298 0.7152 -0.4558
vn -0.4928 -0.7163 -0.4939
vn -0.7344 0.0000 -0.6788
vn -0.4928 0.7163 -0.4939
vn -0.4478 -0.7175 -0.5336
vn -0.6771 0.0000 -0.7359
vn -0.4478 0.7175 -0.5336
vn -0.3935 -0.7188 -0.5732
vn -0.6072 0.0000 -0.7945
vn -0.3935 0.7188 -0.5732
vn -0.3295 -0.7199 -0.6109
vn -0.5232 0.0000 -0.8522
vn -0.3295 0.7199 -0.6109
vn -0.2560 -0.7209 -0.6440
vn -0.4247 0.0000 -0.9053
vn -0.2560 0.7209 -0.6440
vn -0.1746 -0.7216 -0.6700
vn -0.3127 0.0000 -0.9498
vn -0.1746 0.7216 -0.6700
vn -0.0881 -0.7218 -0.6865
vn -0.1906 0.0000 -0.9817
vn -0.0881 0.7218 -0.6865
vn -0.0131 -0.7173 -0.6966
vn -0.0635 0.0000 -0.9980
vn -0.0131 0.7173 -0.6966
vn 0.0340 -0.7122 -0.7012
vn 0.0260 0.0000 -0.9997
vn 0.0340 0.7122 -0.7012
vn 0.0627 -0.7113 -0.7001
vn 0.0708 0.0000 -0.9975
vn 0.0627 0.7113 -0.7001
vn 0.0867 -0.7106 -0.6982
vn 0.1077 0.0000 -0.9942
vn 0.0867 0.7106 -0.6982
vn 0.1068 -0.7101 -0.6960
vn 0.1386 0.0000 -0.9904
vn 0.1068 0.7101 -0.6960
vn 0.1239 -0.7097 -0.6936
vn 0.1647 0.0000 -0.9863
vn 0.1239 0.7097 -0.6936
vn 0.1386 -0.7093 -0.6911
vn 0.1870 0.0000 -0.9824
vn 0.1386 0.7093 -0.6911
vn 0.1514 -0.7090 -0.6887
vn 0.2063 0.0000 -0.9785
vn 0.1514 0.7090 -0.6887
vn 0.1626 -0.7088 -0.6864
vn 0.2231 0.0000 -0.9748
vn 0.1626 0.7088 -0.6864
vn 0.1683 -0.7071 -0.6868
vn 0.2379 0.0000 -0.9713
vn 0.1683 0.7071 -0.6868
vn 0.1635 -0.7054 -0.6897
vn 0.2380 0.0000 -0.9713
vn 0.1635 0.7054 -0.6897
vn 0.1523 -0.7052 -0.6925
vn 0.2232 0.0000 -0.9748
vn 0.1523 0.7052 -0.6925
vn 0.1396 -0.7049 -0.6954
vn 0.2064 0.0000 -0.9785
vn 0.1396 0.7049 -0.6954
vn 0.1249 -0.7046 -0.6986
vn 0.1871 0.0000 -0.9823
vn 0.1249 0.7046 -0.6986
vn 0.1077 -0.7041 -0.7018
vn 0.1648 0.0000 -0.9863
vn 0.1077 0.7041 -0.7018
vn 0.0875 -0.7036 -0.7052
vn 0.1386 0.0000 -0.9903
vn 0.0875 0.7036 -0.7052
vn 0.0635 -0.7030 -0.7084
vn 0.0635 0.7030 -0.7084
vn 0.0345 -0.7021 -0.7112
vn 0.0345 0.7021 -0.7112
vn -0.0027 -0.7005 -0.7137
vn -0.0027 0.7005 -0.7137
vn -0.0489 -0.6993 -0.7131
vn -0.0336 0.0000 -0.9994
vn -0.0489 0.6993 -0.7131
vn -0.0997 -0.6990 -0.7081
vn -0.1032 0.0000 -0.9947
vn -0.0997 0.6990 -0.7081
vn -0.1520 -0.6987 -0.6991
vn -0.1754 0.0000 -0.9845
vn -0.1520 0.6987 -0.6991
vn -0.2049 -0.6985 -0.6856
vn -0.2491 0.0000 -0.9685
vn -0.2049 0.6985 -0.6856
vn -0.2576 -0.6984 -0.6677
vn -0.3232 0.0000 -0.9463
vn -0.2576 0.6984 -0.6677
vn -0.3089 -0.6984 -0.6456
vn -0.3961 0.0000 -0.9182
vn -0.3089 0.6984 -0.6456
vn -0.3580 -0.6985 -0.6196
vn -0.4665 0.0000 -0.8845
vn -0.3580 0.6985 -0.6196
vn -0.4040 -0.6987 -0.5904
vn -0.5333 0.0000 -0.8459
vn -0.4040 0.6987 -0.5904
vn -0.4481 -0.6985 -0.5580
vn -0.5954 0.0000 -0.8034
vn -0.4481 0.6985 -0.5580
vn -0.4931 -0.6975 -0.5200
vn -0.6560 0.0000 -0.7547
vn -0.4931 0.6975 -0.5200
vn -0.5380 -0.6969 -0.4743
vn -0.7189 0.0000 -0.6951
vn -0.5380 0.6969 -0.4743
vn -0.5807 -0.6964 -0.4217
vn -0.7798 0.0000 -0.6260
vn -0.5807 0.6964 -0.4217
vn -0.6194 -0.6961 -0.3631
vn -0.8365 0.0000 -0.5479
vn -0.6194 0.6961 -0.3631
vn -0.6525 -0.6960 -0.2996
vn -0.8867 0.0000 -0.4623
vn -0.6525 0.6960 -0.2996
vn -0.6790 -0.6961 -0.2331
vn -0.9285 0.0000 -0.3712
vn -0.6790 0.6961 -0.2331
vn -0.6982 -0.6964 -0.1657
vn -0.9607 0.0000 -0.2775
vn -0.6982 0.6964 -0.1657
vn -0.7102 -0.6969 -0.0994
vn -0.9829 0.0000 -0.1839
vn -0.7102 0.6969 -0.0994
vn -0.5889 -0.5694 0.5735
vn -0.9957 0.0000 -0.0931
vn -0.5889 0.5694 0.5735
vn 0.0188 -0.7162 0.6977
vn 0.0667 0.0000 0.9978
vn 0.0188 0.7162 0.6977
vn -0.0178 -0.7099 0.7041
vn -0.0128 0.0000 0.9999
vn -0.0178 0.7099 0.7041
vn -0.0351 -0.7098 0.7035
vn -0.0378 0.0000 0.9993
vn -0.0351 0.7098 0.7035
vn -0.0517 -0.7097 0.7026
vn -0.0618 0.0000 0.9981
vn -0.0517 0.7097 0.7026
vn -0.0677 -0.7096 0.7013
vn -0.0850 0.0000 0.9964
vn -0.0677 0.7096 0.7013
vn -0.0832 -0.7095 0.6997
vn -0.1073 0.0000 0.9942
vn -0.0832 0.7095 0.6997
vn -0.0980 -0.7095 0.6979
vn -0.1287 0.0000 0.9917
vn -0.0980 0.7095 0.6979
vn -0.1123 -0.7094 0.6958
vn -0.1493 0.0000 0.9888
vn -0.1123 0.7094 0.6958
vn -0.1259 -0.7093 0.6936
vn -0.1692 0.0000 0.9856
vn -0.1259 0.7093 0.6936
vn -0.1405 -0.7097 0.6903
vn -0.1882 0.0000 0.9821
vn -0.1405 0.7097 0.6903
vn -0.1586 -0.7105 0.6856
vn -0.2107 0.0000 0.9776
vn -0.1586 0.7105 0.6856
vn -0.1805 -0.7110 0.6796
vn -0.2400 0.0000 0.9708
vn -0.1805 0.7110 0.6796
vn -0.2056 -0.7116 0.6718
vn -0.2734 0.0000 0.9619
vn -0.2056 0.7116 0.6718
vn -0.2342 -0.7124 0.6615
vn -0.3117 0.0000 0.9502
vn -0.2342 0.7124 0.6615
vn -0.2672 -0.7134 0.6478
vn -0.3557 0.0000 0.9346
vn -0.2672 0.7134 0.6478
vn -0.3052 -0.7145 0.6295
vn -0.4067 0.0000 0.9136
vn -0.3052 0.7145 0.6295
vn -0.3488 -0.7160 0.6047
vn -0.4654 0.0000 0.8851
vn -0.3488 0.7160 0.6047
vn -0.3983 -0.7178 0.5710
vn -0.5331 0.0000 0.8461
vn -0.3983 0.7178 0.5710
vn -0.4523 -0.7192 0.5274
vn -0.6099 0.0000 0.7925
vn -0.4523 0.7192 0.5274
vn -0.5057 -0.7194 0.4762
vn -0.6903 0.0000 0.7235
vn -0.5057 0.7194 0.4762
vn -0.5539 -0.7195 0.4190
vn -0.7637 0.0000 0.6455
vn -0.5539 0.7195 0.4190
vn -0.5958 -0.7193 0.3571
vn -0.8290 0.0000 0.5592
vn -0.5958 0.7193 0.3571
vn -0.6304 -0.7189 0.2928
vn -0.8840 0.0000 0.4675
vn -0.6304 0.7189 0.2928
vn -0.6572 -0.7183 0.2283
vn -0.9275 0.0000 0.3739
vn -0.6572 0.7183 0.2283
vn -0.6766 -0.7175 0.1656
vn -0.9595 0.0000 0.2816
vn -0.6766 0.7175 0.1656
vn -0.6893 -0.7166 0.1062
vn -0.9811 0.0000 0.1933
vn -0.6893 0.7166 0.1062
vn -0.6965 -0.7157 0.0510
vn -0.9938 0.0000 0.1108
vn -0.6965 0.7157 0.0510
vn -0.7030 -0.7111 0.0124
vn -0.9994 0.0000 0.0352
vn -0.7030 0.7111 0.0124
vn -0.3193 -0.8981 -0.3024
vn -1.0000 0.0000 -0.0000
vn -0.3193 0.8981 -0.3024
vn -0.0543 0.0000 -0.9985
vn 0.0884 -0.7231 -0.6851
vn 0.1918 -0.7267 -0.6596
vn 0.1966 0.0000 -0.9805
vn 0.1918 0.7267 -0.6596
vn 0.0884 0.7231 -0.6851
vn 0.3081 -0.7303 -0.6097
vn 0.3597 0.0000 -0.9331
vn 0.3081 0.7303 -0.6097
vn 0.4266 -0.7325 -0.5305
vn 0.5378 0.0000 -0.8431
vn 0.4266 0.7325 -0.5305
vn 0.5315 -0.7325 -0.4254
vn 0.7080 0.0000 -0.7062
vn 0.5315 0.7325 -0.4254
vn 0.6104 -0.7302 -0.3070
vn 0.8442 0.0000 -0.5360
vn 0.6104 0.7302 -0.3070
vn 0.6599 -0.7267 -0.1909
vn 0.9336 0.0000 -0.3582
vn 0.6599 0.7267 -0.1909
vn 0.6852 -0.7230 -0.0880
vn 0.9807 0.0000 -0.1957
vn 0.6852 0.7230 -0.0880
vn 0.6931 -0.7208 0.0009
vn 0.9983 0.0000 -0.0586
vn 0.6931 0.7208 0.0009
vn 0.6840 -0.7237 0.0919
vn 0.9981 0.0000 0.0613
vn 0.6840 0.7237 0.0919
vn 0.6568 -0.7274 0.1987
vn 0.9789 0.0000 0.2043
vn 0.6568 0.7274 0.1987
vn 0.6042 -0.7308 0.3176
vn 0.9280 0.0000 0.3725
vn 0.6042 0.7308 0.3176
vn 0.5221 -0.7327 0.4365
vn 0.8331 0.0000 0.5532
vn 0.5221 0.7327 0.4365
vn 0.4153 -0.7323 0.5397
vn 0.6919 0.0000 0.7220
vn 0.4153 0.7323 0.5397
vn 0.2977 -0.7296 0.6157
vn 0.5207 0.0000 0.8538
vn 0.2977 0.7296 0.6157
vn 0.1843 -0.7260 0.6626
vn 0.3458 0.0000 0.9383
vn 0.1843 0.7260 0.6626
vn 0.0847 -0.7224 0.6863
vn 0.1882 0.0000 0.9821
vn 0.0847 0.7224 0.6863
vn -0.0000 -0.7200 0.6940
vn 0.0563 0.0000 0.9984
vn 0.0000 0.7200 0.6940
vn -0.0847 -0.7224 0.6863
vn -0.0563 0.0000 0.9984
vn -0.0847 0.7224 0.6863
vn -0.1843 -0.7260 0.6626
vn -0.1843 0.7260 0.6626
vn -0.2977 -0.7296 0.6157
vn -0.3458 0.0000 0.9383
vn -0.2977 0.7296 0.6157
vn -0.4153 -0.7323 0.5397
vn -0.5207 0.0000 0.8538
vn -0.4153 0.7323 0.5397
vn -0.5221 -0.7327 0.4365
vn -0.6919 0.0000 0.7220
vn -0.5221 0.7327 0.4365
vn -0.6042 -0.7308 0.3176
vn -0.8331 0.0000 0.5532
vn -0.6042 0.7308 0.3176
vn -0.6568 -0.7274 0.1987
vn -0.9280 0.0000 0.3725
vn -0.6568 0.7274 0.1987
vn -0.6840 -0.7237 0.0919
vn -0.9789 0.0000 0.2043
vn -0.6840 0.7237 0.0919
vn -0.6931 -0.7208 0.0009
vn -0.9981 0.0000 0.0613
vn -0.6931 0.7208 0.0009
vn -0.6852 -0.7230 -0.0880
vn -0.9983 0.0000 -0.0586
vn -0.6852 0.7230 -0.0880
vn -0.6599 -0.7267 -0.1909
vn -0.9807 0.0000 -0.1956
vn -0.6599 0.7267 -0.1909
vn -0.6104 -0.7302 -0.3070
vn -0.9336 0.0000 -0.3582
vn -0.6104 0.7302 -0.3070
vn -0.5315 -0.7325 -0.4254
vn -0.8443 0.0000 -0.5359
vn -0.5315 0.7325 -0.4254
vn -0.4266 -0.7325 -0.5305
vn -0.7080 0.0000 -0.7062
vn -0.4266 0.7325 -0.5305
vn -0.3081 -0.7303 -0.6097
vn -0.5378 0.0000 -0.8431
vn -0.3081 0.7303 -0.6097
vn -0.1918 -0.7267 -0.6596
vn -0.3597 0.0000 -0.9331
vn -0.1918 0.7267 -0.6596
vn -0.0884 -0.7231 -0.6851
vn -0.1966 0.0000 -0.9805
vn -0.0884 0.7231 -0.6851
vn -0.0000 -0.7206 -0.6934
vn -0.0589 0.0000 -0.9983
vn -0.0000 0.7206 -0.6934
vn 0.0589 0.0000 -0.9983
vn 0.0000 -1.0000 -0.0000
vn 0.0000 1.0000 -0.0000
# 576 vertex normals

o Ro_Rua
g Ro_Rua
s 1
f 1//1 2//2 3//3 
f 2//2 4//4 3//3 
f 4//4 5//5 3//3 
f 5//5 1//1 3//3 
s 3
f 2//2 6//6 7//7 
f 6//6 8//8 7//7 
f 8//8 4//4 7//7 
f 4//4 2//2 7//7 
s 2
f 6//6 9//9 10//10 
f 9//9 11//11 10//10 
f 11//11 8//8 10//10 
f 8//8 6//6 10//10 
f 9//9 12//12 13//13 
f 12//12 14//14 13//13 
f 14//14 11//11 13//13 
f 11//11 9//9 13//13 
f 12//12 15//15 16//16 
f 15//15 17//17 16//16 
f 17//17 14//14 16//16 
f 14//14 12//12 16//16 
f 15//15 18//18 19//19 
f 18//18 20//20 19//19 
f 20//20 17//17 19//19 
f 17//17 15//15 19//19 
f 18//18 21//21 22//22 
f 21//21 23//23 22//22 
f 23//23 20//20 22//22 
f 20//20 18//18 22//22 
f 21//21 24//24 25//25 
f 24//24 26//26 25//25 
f 26//26 23//23 25//25 
f 23//23 21//21 25//25 
f 24//24 27//27 28//28 
f 27//27 29//29 28//28 
f 29//29 26//26 28//28 
f 26//26 24//24 28//28 
f 27//27 30//30 31//31 
f 30//30 32//32 31//31 
f 32//32 29//29 31//31 
f 29//29 27//27 31//31 
f 30//30 33//33 34//34 
f 33//33 35//35 34//34 
f 35//35 32//32 34//34 
f 32//32 30//30 34//34 
f 33//33 36//36 37//37 
f 36//36 38//38 37//37 
f 38//38 35//35 37//37 
f 35//35 33//33 37//37 
f 36//36 39//39 40//40 
f 39//39 41//41 40//40 
f 41//41 38//38 40//40 
f 38//38 36//36 40//40 
f 39//39 42//42 43//43 
f 42//42 44//44 43//43 
f 44//44 41//41 43//43 
f 41//41 39//39 43//43 
f 42//42 45//45 46//46 
f 45//45 47//47 46//46 
f 47//47 44//44 46//46 
f 44//44 42//42 46//46 
f 45//45 48//48 49//49 
f 48//48 50//50 49//49 
f 50//50 47//47 49//49 
f 47//47 45//45 49//49 
f 48//48 51//51 52//52 
f 51//51 53//53 52//52 
f 53//53 50//50 52//52 
f 50//50 48//48 52//52 
f 51//51 54//54 55//55 
f 54//54 56//56 55//55 
f 56//56 53//53 55//55 
f 53//53 51//51 55//55 
f 54//54 57//57 58//58 
f 57//57 59//59 58//58 
f 59//59 56//56 58//58 
f 56//56 54//54 58//58 
f 57//57 60//60 61//61 
f 60//60 62//62 61//61 
f 62//62 59//59 61//61 
f 59//59 57//57 61//61 
f 60//60 63//63 64//64 
f 63//63 65//65 64//64 
f 65//65 62//62 64//64 
f 62//62 60//60 64//64 
f 63//63 66//66 67//67 
f 66//66 68//68 67//67 
f 68//68 65//65 67//67 
f 65//65 63//63 67//67 
f 66//66 69//69 70//70 
f 69//69 71//71 70//70 
f 71//71 68//68 70//70 
f 68//68 66//66 70//70 
f 69//69 72//72 73//73 
f 72//72 74//74 73//73 
f 74//74 71//71 73//73 
f 71//71 69//69 73//73 
f 72//72 75//75 76//76 
f 75//75 77//77 76//76 
f 77//77 74//74 76//76 
f 74//74 72//72 76//76 
f 75//75 78//78 79//79 
f 78//78 80//80 79//79 
f 80//80 77//77 79//79 
f 77//77 75//75 79//79 
s 4
f 78//78 81//81 82//82 
f 81//81 83//83 82//82 
f 83//83 80//80 82//82 
f 80//80 78//78 82//82 
s 2
f 81//81 84//84 85//85 
f 84//84 86//86 85//85 
f 86//86 83//83 85//85 
f 83//83 81//81 85//85 
f 84//84 87//87 88//88 
f 87//87 89//89 88//88 
f 89//89 86//86 88//88 
f 86//86 84//84 88//88 
f 87//87 90//90 91//91 
f 90//90 92//92 91//91 
f 92//92 89//89 91//91 
f 89//89 87//87 91//91 
f 90//90 93//93 94//94 
f 93//93 95//95 94//94 
f 95//95 92//92 94//94 
f 92//92 90//90 94//94 
f 93//93 96//96 97//97 
f 96//96 98//98 97//97 
f 98//98 95//95 97//97 
f 95//95 93//93 97//97 
f 96//96 99//99 100//100 
f 99//99 101//101 100//100 
f 101//101 98//98 100//100 
f 98//98 96//96 100//100 
f 99//99 102//102 103//103 
f 102//102 104//104 103//103 
f 104//104 101//101 103//103 
f 101//101 99//99 103//103 
f 102//102 105//105 106//106 
f 105//105 107//107 106//106 
f 107//107 104//104 106//106 
f 104//104 102//102 106//106 
f 105//105 108//108 109//109 
f 108//108 110//110 109//109 
f 110//110 107//107 109//109 
f 107//107 105//105 109//109 
f 108//108 111//111 112//112 
f 111//111 113//113 112//112 
f 113//113 110//110 112//112 
f 110//110 108//108 112//112 
f 111//111 114//114 115//115 
f 114//114 116//116 115//115 
f 116//116 113//113 115//115 
f 113//113 111//111 115//115 
f 114//114 117//117 118//118 
f 117//117 119//119 118//118 
f 119//119 116//116 118//118 
f 116//116 114//114 118//118 
f 117//117 120//120 121//121 
f 120//120 122//122 121//121 
f 122//122 119//119 121//121 
f 119//119 117//117 121//121 
f 120//120 123//123 124//124 
f 123//123 125//125 124//124 
f 125//125 122//122 124//124 
f 122//122 120//120 124//124 
f 123//123 126//126 127//127 
f 126//126 128//128 127//127 
f 128//128 125//125 127//127 
f 125//125 123//123 127//127 
f 126//126 129//129 130//130 
f 129//129 131//131 130//130 
f 131//131 128//128 130//130 
f 128//128 126//126 130//130 
f 129//129 132//132 133//133 
f 132//132 134//134 133//133 
f 134//134 131//131 133//133 
f 131//131 129//129 133//133 
f 132//132 135//135 136//136 
f 135//135 137//137 136//136 
f 137//137 134//134 136//136 
f 134//134 132//132 136//136 
s 4
f 135//135 138//138 139//139 
f 138//138 140//140 139//139 
f 140//140 137//137 139//139 
f 137//137 135//135 139//139 
f 138//138 141//141 142//142 
f 141//141 143//143 142//142 
f 143//143 140//140 142//142 
f 140//140 138//138 142//142 
f 141//141 144//144 145//145 
f 144//144 146//146 145//145 
f 146//146 143//143 145//145 
f 143//143 141//141 145//145 
f 144//144 147//147 148//148 
f 147//147 149//149 148//148 
f 149//149 146//146 148//148 
f 146//146 144//144 148//148 
f 147//147 150//150 151//151 
f 150//150 152//152 151//151 
f 152//152 149//149 151//151 
f 149//149 147//147 151//151 
f 150//150 153//153 154//154 
f 153//153 155//155 154//154 
f 155//155 152//152 154//154 
f 152//152 150//150 154//154 
f 153//153 156//156 157//157 
f 156//156 158//158 157//157 
f 158//158 155//155 157//157 
f 155//155 153//153 157//157 
f 156//156 159//159 160//160 
f 159//159 161//161 160//160 
f 161//161 158//158 160//160 
f 158//158 156//156 160//160 
f 159//159 162//162 163//163 
f 162//162 164//164 163//163 
f 164//164 161//161 163//163 
f 161//161 159//159 163//163 
f 162//162 165//165 166//166 
f 165//165 167//167 166//166 
f 167//167 164//164 166//166 
f 164//164 162//162 166//166 
f 165//165 168//168 169//169 
f 168//168 170//170 169//169 
f 170//170 167//167 169//169 
f 167//167 165//165 169//169 
f 168//168 171//171 172//172 
f 171//171 173//173 172//172 
f 173//173 170//170 172//172 
f 170//170 168//168 172//172 
f 171//171 174//174 175//175 
f 174//174 176//176 175//175 
f 176//176 173//173 175//175 
f 173//173 171//171 175//175 
f 174//174 177//177 178//178 
f 177//177 179//179 178//178 
f 179//179 176//176 178//178 
f 176//176 174//174 178//178 
f 177//177 180//180 181//181 
f 180//180 182//182 181//181 
f 182//182 179//179 181//181 
f 179//179 177//177 181//181 
f 180//180 183//183 184//184 
f 183//183 185//185 184//184 
f 185//185 182//182 184//184 
f 182//182 180//180 184//184 
f 183//183 186//186 187//187 
f 186//186 188//188 187//187 
f 188//188 185//185 187//187 
f 185//185 183//183 187//187 
f 186//186 189//189 190//190 
f 189//189 191//191 190//190 
f 191//191 188//188 190//190 
f 188//188 186//186 190//190 
s 2
f 189//189 192//192 193//193 
f 192//192 194//194 193//193 
f 194//194 191//191 193//193 
f 191//191 189//189 193//193 
f 192//192 195//195 196//196 
f 195//195 197//197 196//196 
f 197//197 194//194 196//196 
f 194//194 192//192 196//196 
f 195//195 198//198 199//199 
f 198//198 200//200 199//199 
f 200//200 197//197 199//199 
f 197//197 195//195 199//199 
f 198//198 201//201 202//202 
f 201//201 203//203 202//202 
f 203//203 200//200 202//202 
f 200//200 198//198 202//202 
f 201//201 204//204 205//178 
f 204//204 206//205 205//178 
f 206//205 203//203 205//178 
f 203//203 201//201 205//178 
f 204//204 207//206 208//207 
f 207//206 209//208 208//207 
f 209//208 206//205 208//207 
f 206//205 204//204 208//207 
f 207//206 210//209 211//210 
f 210//209 212//211 211//210 
f 212//211 209//208 211//210 
f 209//208 207//206 211//210 
f 210//209 213//212 214//213 
f 213//212 215//214 214//213 
f 215//214 212//211 214//213 
f 212//211 210//209 214//213 
f 213//212 216//215 217//216 
f 216//215 218//217 217//216 
f 218//217 215//214 217//216 
f 215//214 213//212 217//216 
f 216//215 219//218 220//219 
f 219//218 221//220 220//219 
f 221//220 218//217 220//219 
f 218//217 216//215 220//219 
f 219//218 222//221 223//222 
f 222//221 224//223 223//222 
f 224//223 221//220 223//222 
f 221//220 219//218 223//222 
f 222//221 225//224 226//225 
f 225//224 227//226 226//225 
f 227//226 224//223 226//225 
f 224//223 222//221 226//225 
f 225//224 228//227 229//228 
f 228//227 230//229 229//228 
f 230//229 227//226 229//228 
f 227//226 225//224 229//228 
f 228//227 231//230 232//231 
f 231//230 233//232 232//231 
f 233//232 230//229 232//231 
f 230//229 228//227 232//231 
f 231//230 234//233 235//234 
f 234//233 236//235 235//234 
f 236//235 233//232 235//234 
f 233//232 231//230 235//234 
f 234//233 237//236 238//237 
f 237//236 239//238 238//237 
f 239//238 236//235 238//237 
f 236//235 234//233 238//237 
f 237//236 240//239 241//240 
f 240//239 242//241 241//240 
f 242//241 239//238 241//240 
f 239//238 237//236 241//240 
f 240//239 243//242 244//243 
f 243//242 245//244 244//243 
f 245//244 242//241 244//243 
f 242//241 240//239 244//243 
s 4
f 243//242 246//245 247//246 
f 246//245 248//247 247//246 
f 248//247 245//244 247//246 
f 245//244 243//242 247//246 
s 2
f 246//245 249//248 250//249 
f 249//248 251//250 250//249 
f 251//250 248//247 250//249 
f 248//247 246//245 250//249 
f 249//248 252//251 253//252 
f 252//251 254//253 253//252 
f 254//253 251//250 253//252 
f 251//250 249//248 253//252 
f 252//251 255//254 256//255 
f 255//254 257//256 256//255 
f 257//256 254//253 256//255 
f 254//253 252//251 256//255 
f 255//254 258//257 259//258 
f 258//257 260//259 259//258 
f 260//259 257//256 259//258 
f 257//256 255//254 259//258 
f 258//257 261//260 262//261 
f 261//260 263//262 262//261 
f 263//262 260//259 262//261 
f 260//259 258//257 262//261 
f 261//260 264//263 265//264 
f 264//263 266//265 265//264 
f 266//265 263//262 265//264 
f 263//262 261//260 265//264 
f 264//263 267//266 268//267 
f 267//266 269//268 268//267 
f 269//268 266//265 268//267 
f 266//265 264//263 268//267 
f 267//266 270//269 271//270 
f 270//269 272//271 271//270 
f 272//271 269//268 271//270 
f 269//268 267//266 271//270 
f 270//269 273//272 274//273 
f 273//272 275//274 274//273 
f 275//274 272//271 274//273 
f 272//271 270//269 274//273 
f 273//272 276//275 277//276 
f 276//275 278//277 277//276 
f 278//277 275//274 277//276 
f 275//274 273//272 277//276 
f 276//275 279//278 280//279 
f 279//278 281//280 280//279 
f 281//280 278//277 280//279 
f 278//277 276//275 280//279 
f 279//278 282//281 283//282 
f 282//281 284//283 283//282 
f 284//283 281//280 283//282 
f 281//280 279//278 283//282 
f 282//281 285//284 286//285 
f 285//284 287//286 286//285 
f 287//286 284//283 286//285 
f 284//283 282//281 286//285 
f 285//284 288//287 289//288 
f 288//287 290//289 289//288 
f 290//289 287//286 289//288 
f 287//286 285//284 289//288 
f 288//287 291//290 292//291 
f 291//290 293//292 292//291 
f 293//292 290//289 292//291 
f 290//289 288//287 292//291 
f 291//290 294//293 295//294 
f 294//293 296//295 295//294 
f 296//295 293//292 295//294 
f 293//292 291//290 295//294 
f 294//293 297//296 298//297 
f 297//296 299//298 298//297 
f 299//298 296//295 298//297 
f 296//295 294//293 298//297 
f 297//296 300//299 301//300 
f 300//299 302//301 301//300 
f 302//301 299//298 301//300 
f 299//298 297//296 301//300 
f 300//299 303//302 304//303 
f 303//302 305//304 304//303 
f 305//304 302//301 304//303 
f 302//301 300//299 304//303 
f 303//302 306//305 307//306 
f 306//305 308//307 307//306 
f 308//307 305//304 307//306 
f 305//304 303//302 307//306 
f 306//305 309//308 310//309 
f 309//308 311//310 310//309 
f 311//310 308//307 310//309 
f 308//307 306//305 310//309 
f 309//308 312//311 313//312 
f 312//311 314//313 313//312 
f 314//313 311//310 313//312 
f 311//310 309//308 313//312 
f 312//311 315//314 316//315 
f 315//314 317//316 316//315 
f 317//316 314//313 316//315 
f 314//313 312//311 316//315 
f 315//314 318//317 319//318 
f 318//317 320//319 319//318 
f 320//319 317//316 319//318 
f 317//316 315//314 319//318 
f 318//317 321//320 322//282 
f 321//320 323//321 322//282 
f 323//321 320//319 322//282 
f 320//319 318//317 322//282 
f 321//320 324//322 325//279 
f 324//322 326//323 325//279 
f 326//323 323//321 325//279 
f 323//321 321//320 325//279 
f 324//322 327//324 328//276 
f 327//324 329//325 328//276 
f 329//325 326//323 328//276 
f 326//323 324//322 328//276 
f 327//324 330//326 331//327 
f 330//326 332//328 331//327 
f 332//328 329//325 331//327 
f 329//325 327//324 331//327 
f 330//326 333//329 334//330 
f 333//329 335//331 334//330 
f 335//331 332//328 334//330 
f 332//328 330//326 334//330 
f 333//329 336//332 337//333 
f 336//332 338//334 337//333 
f 338//334 335//331 337//333 
f 335//331 333//329 337//333 
f 336//332 339//335 340//336 
f 339//335 341//337 340//336 
f 341//337 338//334 340//336 
f 338//334 336//332 340//336 
f 339//335 342//338 343//339 
f 342//338 344//340 343//339 
f 344//340 341//337 343//339 
f 341//337 339//335 343//339 
f 342//338 345//341 346//342 
f 345//341 347//343 346//342 
f 347//343 344//340 346//342 
f 344//340 342//338 346//342 
f 345//341 348//344 349//345 
f 348//344 350//346 349//345 
f 350//346 347//343 349//345 
f 347//343 345//341 349//345 
f 348//344 351//347 352//348 
f 351//347 353//349 352//348 
f 353//349 350//346 352//348 
f 350//346 348//344 352//348 
f 351//347 354//350 355//351 
f 354//350 356//352 355//351 
f 356//352 353//349 355//351 
f 353//349 351//347 355//351 
f 354//350 357//353 358//354 
f 357//353 359//355 358//354 
f 359//355 356//352 358//354 
f 356//352 354//350 358//354 
f 357//353 360//356 361//357 
f 360//356 362//358 361//357 
f 362//358 359//355 361//357 
f 359//355 357//353 361//357 
f 360//356 363//359 364//360 
f 363//359 365//361 364//360 
f 365//361 362//358 364//360 
f 362//358 360//356 364//360 
f 363//359 366//362 367//363 
f 366//362 368//364 367//363 
f 368//364 365//361 367//363 
f 365//361 363//359 367//363 
f 366//362 369//365 370//366 
f 369//365 371//367 370//366 
f 371//367 368//364 370//366 
f 368//364 366//362 370//366 
f 369//365 372//368 373//369 
f 372//368 374//370 373//369 
f 374//370 371//367 373//369 
f 371//367 369//365 373//369 
f 372//368 375//371 376//372 
f 375//371 377//373 376//372 
f 377//373 374//370 376//372 
f 374//370 372//368 376//372 
f 375//371 378//374 379//375 
f 378//374 380//376 379//375 
f 380//376 377//373 379//375 
f 377//373 375//371 379//375 
f 378//374 381//377 382//378 
f 381//377 383//379 382//378 
f 383//379 380//376 382//378 
f 380//376 378//374 382//378 
s 4
f 381//377 384//380 385//381 
f 384//380 386//382 385//381 
f 386//382 383//379 385//381 
f 383//379 381//377 385//381 
s 2
f 384//380 387//383 388//384 
f 387//383 389//385 388//384 
f 389//385 386//382 388//384 
f 386//382 384//380 388//384 
f 387//383 390//386 391//387 
f 390//386 392//388 391//387 
f 392//388 389//385 391//387 
f 389//385 387//383 391//387 
f 390//386 393//389 394//390 
f 393//389 395//391 394//390 
f 395//391 392//388 394//390 
f 392//388 390//386 394//390 
f 393//389 396//392 397//393 
f 396//392 398//394 397//393 
f 398//394 395//391 397//393 
f 395//391 393//389 397//393 
f 396//392 399//395 400//396 
f 399//395 401//397 400//396 
f 401//397 398//394 400//396 
f 398//394 396//392 400//396 
f 399//395 402//398 403//399 
f 402//398 404//400 403//399 
f 404//400 401//397 403//399 
f 401//397 399//395 403//399 
f 402//398 405//401 406//402 
f 405//401 407//403 406//402 
f 407//403 404//400 406//402 
f 404//400 402//398 406//402 
f 405//401 408//404 409//405 
f 408//404 410//406 409//405 
f 410//406 407//403 409//405 
f 407//403 405//401 409//405 
f 408//404 411//407 412//408 
f 411//407 413//409 412//408 
f 413//409 410//406 412//408 
f 410//406 408//404 412//408 
f 411//407 414//410 415//411 
f 414//410 416//412 415//411 
f 416//412 413//409 415//411 
f 413//409 411//407 415//411 
f 414//410 417//413 418//414 
f 417//413 419//415 418//414 
f 419//415 416//412 418//414 
f 416//412 414//410 418//414 
f 417//413 420//416 421//417 
f 420//416 422//418 421//417 
f 422//418 419//415 421//417 
f 419//415 417//413 421//417 
f 420//416 423//419 424//420 
f 423//419 425//421 424//420 
f 425//421 422//418 424//420 
f 422//418 420//416 424//420 
f 423//419 426//422 427//423 
f 426//422 428//424 427//423 
f 428//424 425//421 427//423 
f 425//421 423//419 427//423 
f 426//422 429//425 430//426 
f 429//425 431//427 430//426 
f 431//427 428//424 430//426 
f 428//424 426//422 430//426 
f 429//425 432//428 433//429 
f 432//428 434//430 433//429 
f 434//430 431//427 433//429 
f 431//427 429//425 433//429 
f 432//428 435//431 436//432 
f 435//431 437//433 436//432 
f 437//433 434//430 436//432 
f 434//430 432//428 436//432 
f 435//431 438//434 439//435 
f 438//434 440//436 439//435 
f 440//436 437//433 439//435 
f 437//433 435//431 439//435 
f 438//434 441//437 442//438 
f 441//437 443//439 442//438 
f 443//439 440//436 442//438 
f 440//436 438//434 442//438 
f 441//437 444//440 445//441 
f 444//440 446//442 445//441 
f 446//442 443//439 445//441 
f 443//439 441//437 445//441 
f 444//440 447//443 448//444 
f 447//443 449//445 448//444 
f 449//445 446//442 448//444 
f 446//442 444//440 448//444 
f 447//443 450//446 451//447 
f 450//446 452//448 451//447 
f 452//448 449//445 451//447 
f 449//445 447//443 451//447 
f 450//446 453//449 454//450 
f 453//449 455//451 454//450 
f 455//451 452//448 454//450 
f 452//448 450//446 454//450 
f 453//449 456//452 457//453 
f 456//452 458//454 457//453 
f 458//454 455//451 457//453 
f 455//451 453//449 457//453 
f 456//452 459//455 460//456 
f 459//455 461//457 460//456 
f 461//457 458//454 460//456 
f 458//454 456//452 460//456 
f 459//455 462//458 463//459 
f 462//458 464//460 463//459 
f 464//460 461//457 463//459 
f 461//457 459//455 463//459 
f 462//458 465//461 466//462 
f 465//461 467//463 466//462 
f 467//463 464//460 466//462 
f 464//460 462//458 466//462 
s 4
f 465//461 468//464 469//465 
f 468//464 470//466 469//465 
f 470//466 467//463 469//465 
f 467//463 465//461 469//465 
s 3
f 468//464 1//1 471//467 
f 1//1 5//5 471//467 
f 5//5 470//466 471//467 
f 470//466 468//464 471//467 
s 1
f 472//468 473//469 474//470 
f 473//469 475//471 474//470 
f 475//471 476//472 474//470 
f 476//472 472//468 474//470 
s 3
f 473//469 477//473 478//474 
f 477//473 479//475 478//474 
f 479//475 475//471 478//474 
f 475//471 473//469 478//474 
s 2
f 477//473 480//476 481//477 
f 480//476 482//478 481//477 
f 482//478 479//475 481//477 
f 479//475 477//473 481//477 
f 480//476 483//479 484//480 
f 483//479 485//481 484//480 
f 485//481 482//478 484//480 
f 482//478 480//476 484//480 
f 483//479 486//482 487//483 
f 486//482 488//484 487//483 
f 488//484 485//481 487//483 
f 485//481 483//479 487//483 
f 486//482 489//485 490//486 
f 489//485 491//487 490//486 
f 491//487 488//484 490//486 
f 488//484 486//482 490//486 
f 489//485 492//488 493//489 
f 492//488 494//490 493//489 
f 494//490 491//487 493//489 
f 491//487 489//485 493//489 
f 492//488 495//491 496//492 
f 495//491 497//493 496//492 
f 497//493 494//490 496//492 
f 494//490 492//488 496//492 
f 495//491 498//494 499//495 
f 498//494 500//496 499//495 
f 500//496 497//493 499//495 
f 497//493 495//491 499//495 
f 498//494 501//497 502//498 
f 501//497 503//499 502//498 
f 503//499 500//496 502//498 
f 500//496 498//494 502//498 
f 501//497 504//500 505//501 
f 504//500 506//502 505//501 
f 506//502 503//499 505//501 
f 503//499 501//497 505//501 
f 504//500 507//503 508//504 
f 507//503 509//505 508//504 
f 509//505 506//502 508//504 
f 506//502 504//500 508//504 
f 507//503 510//506 511//507 
f 510//506 512//508 511//507 
f 512//508 509//505 511//507 
f 509//505 507//503 511//507 
f 510//506 513//509 514//510 
f 513//509 515//511 514//510 
f 515//511 512//508 514//510 
f 512//508 510//506 514//510 
f 513//509 516//512 517//513 
f 516//512 518//514 517//513 
f 518//514 515//511 517//513 
f 515//511 513//509 517//513 
f 516//512 519//515 520//516 
f 519//515 521//517 520//516 
f 521//517 518//514 520//516 
f 518//514 516//512 520//516 
f 519//515 522//518 523//519 
f 522//518 524//520 523//519 
f 524//520 521//517 523//519 
f 521//517 519//515 523//519 
f 522//518 525//521 526//522 
f 525//521 527//523 526//522 
f 527//523 524//520 526//522 
f 524//520 522//518 526//522 
f 525//521 528//524 529//408 
f 528//524 530//525 529//408 
f 530//525 527//523 529//408 
f 527//523 525//521 529//408 
f 528//524 531//526 532//527 
f 531//526 533//528 532//527 
f 533//528 530//525 532//527 
f 530//525 528//524 532//527 
f 531//526 534//529 535//530 
f 534//529 536//531 535//530 
f 536//531 533//528 535//530 
f 533//528 531//526 535//530 
f 534//529 537//532 538//533 
f 537//532 539//534 538//533 
f 539//534 536//531 538//533 
f 536//531 534//529 538//533 
f 537//532 540//535 541//536 
f 540//535 542//537 541//536 
f 542//537 539//534 541//536 
f 539//534 537//532 541//536 
f 540//535 543//538 544//539 
f 543//538 545//540 544//539 
f 545//540 542//537 544//539 
f 542//537 540//535 544//539 
f 543//538 546//541 547//542 
f 546//541 548//543 547//542 
f 548//543 545//540 547//542 
f 545//540 543//538 547//542 
f 546//541 549//544 550//545 
f 549//544 551//546 550//545 
f 551//546 548//543 550//545 
f 548//543 546//541 550//545 
f 549//544 552//547 553//548 
f 552//547 554//549 553//548 
f 554//549 551//546 553//548 
f 551//546 549//544 553//548 
f 552//547 555//550 556//551 
f 555//550 557//552 556//551 
f 557//552 554//549 556//551 
f 554//549 552//547 556//551 
f 555//550 558//553 559//554 
f 558//553 560//555 559//554 
f 560//555 557//552 559//554 
f 557//552 555//550 559//554 
f 558//553 561//556 562//557 
f 561//556 563//558 562//557 
f 563//558 560//555 562//557 
f 560//555 558//553 562//557 
f 561//556 564//559 565//560 
f 564//559 566//561 565//560 
f 566//561 563//558 565//560 
f 563//558 561//556 565//560 
f 564//559 567//562 568//563 
f 567//562 569//564 568//563 
f 569//564 566//561 568//563 
f 566//561 564//559 568//563 
f 567//562 570//565 571//566 
f 570//565 572//567 571//566 
f 572//567 569//564 571//566 
f 569//564 567//562 571//566 
f 570//565 573//568 574//569 
f 573//568 575//570 574//569 
f 575//570 572//567 574//569 
f 572//567 570//565 574//569 
f 573//568 576//571 577//572 
f 576//571 578//573 577//572 
f 578//573 575//570 577//572 
f 575//570 573//568 577//572 
s 3
f 576//571 472//468 579//574 
f 472//468 476//472 579//574 
f 476//472 578//573 579//574 
f 578//573 576//571 579//574 
s 16
f 468//464 580//575 528//524 581//575 
f 528//524 525//521 581//575 
f 525//521 468//464 581//575 
f 137//137 401//397 582//576 
f 401//397 404//400 582//576 
f 404//400 137//137 582//576 
f 525//521 522//518 583//575 
f 522//518 468//464 583//575 
f 468//464 525//521 583//575 
f 522//518 519//515 584//575 
f 519//515 1//1 584//575 
f 1//1 468//464 584//575 
f 468//464 522//518 584//575 
f 519//515 516//512 585//575 
f 516//512 2//2 585//575 
f 2//2 1//1 585//575 
f 1//1 519//515 585//575 
f 516//512 513//509 586//575 
f 513//509 6//6 586//575 
f 6//6 2//2 586//575 
f 2//2 516//512 586//575 
f 513//509 510//506 587//575 
f 510//506 9//9 587//575 
f 9//9 6//6 587//575 
f 6//6 513//509 587//575 
f 510//506 507//503 588//575 
f 507//503 12//12 588//575 
f 12//12 9//9 588//575 
f 9//9 510//506 588//575 
f 507//503 504//500 589//575 
f 504//500 15//15 589//575 
f 15//15 12//12 589//575 
f 12//12 507//503 589//575 
f 504//500 501//497 590//575 
f 501//497 18//18 590//575 
f 18//18 15//15 590//575 
f 15//15 504//500 590//575 
f 501//497 498//494 591//575 
f 498//494 21//21 591//575 
f 21//21 18//18 591//575 
f 18//18 501//497 591//575 
f 498//494 495//491 592//575 
f 495//491 24//24 592//575 
f 24//24 21//21 592//575 
f 21//21 498//494 592//575 
f 495//491 492//488 593//575 
f 492//488 27//27 593//575 
f 27//27 24//24 593//575 
f 24//24 495//491 593//575 
f 492//488 489//485 594//575 
f 489//485 27//27 594//575 
f 27//27 492//488 594//575 
f 489//485 486//482 595//575 
f 486//482 33//33 595//575 
f 33//33 30//30 595//575 
f 30//30 27//27 595//575 
f 27//27 489//485 595//575 
f 486//482 483//479 596//575 
f 483//479 36//36 596//575 
f 36//36 33//33 596//575 
f 33//33 486//482 596//575 
f 483//479 480//476 597//575 
f 480//476 39//39 597//575 
f 39//39 36//36 597//575 
f 36//36 483//479 597//575 
f 480//476 477//473 598//575 
f 477//473 45//45 598//575 
f 45//45 42//42 598//575 
f 42//42 39//39 598//575 
f 39//39 480//476 598//575 
f 477//473 473//469 599//575 
f 473//469 48//48 599//575 
f 48//48 45//45 599//575 
f 45//45 477//473 599//575 
f 473//469 472//468 600//575 
f 472//468 48//48 600//575 
f 48//48 473//469 600//575 
f 472//468 576//571 601//575 
f 576//571 51//51 601//575 
f 51//51 48//48 601//575 
f 48//48 472//468 601//575 
f 576//571 573//568 602//575 
f 573//568 54//54 602//575 
f 54//54 51//51 602//575 
f 51//51 576//571 602//575 
f 573//568 570//565 603//575 
f 570//565 54//54 603//575 
f 54//54 573//568 603//575 
f 570//565 567//562 604//575 
f 567//562 57//57 604//575 
f 57//57 54//54 604//575 
f 54//54 570//565 604//575 
f 567//562 564//559 605//575 
f 564//559 60//60 605//575 
f 60//60 57//57 605//575 
f 57//57 567//562 605//575 
f 564//559 561//556 606//575 
f 561//556 63//63 606//575 
f 63//63 60//60 606//575 
f 60//60 564//559 606//575 
f 561//556 558//553 607//575 
f 558//553 66//66 607//575 
f 66//66 63//63 607//575 
f 63//63 561//556 607//575 
f 558//553 555//550 608//575 
f 555//550 69//69 608//575 
f 69//69 66//66 608//575 
f 66//66 558//553 608//575 
f 555//550 552//547 609//575 
f 552//547 72//72 609//575 
f 72//72 69//69 609//575 
f 69//69 555//550 609//575 
f 552//547 549//544 610//575 
f 549//544 75//75 610//575 
f 75//75 72//72 610//575 
f 72//72 552//547 610//575 
f 549//544 546//541 611//575 
f 546//541 78//78 611//575 
f 78//78 75//75 611//575 
f 75//75 549//544 611//575 
f 546//541 543//538 612//575 
f 543//538 78//78 612//575 
f 78//78 546//541 612//575 
f 543//538 540//535 613//575 
f 540//535 81//81 613//575 
f 81//81 78//78 613//575 
f 78//78 543//538 613//575 
f 540//535 537//532 614//575 
f 537//532 81//81 614//575 
f 81//81 540//535 614//575 
f 537//532 534//529 615//575 
f 534//529 81//81 615//575 
f 81//81 537//532 615//575 
f 534//529 531//526 616//575 
f 531//526 81//81 616//575 
f 81//81 534//529 616//575 
f 531//526 528//524 580//575 
f 468//464 465//461 580//575 
f 465//461 81//81 580//575 
f 81//81 531//526 580//575 
f 465//461 462//458 617//575 
f 462//458 81//81 617//575 
f 81//81 465//461 617//575 
f 462//458 459//455 618//575 
f 459//455 81//81 618//575 
f 81//81 462//458 618//575 
f 459//455 456//452 619//575 
f 456//452 87//87 619//575 
f 87//87 84//84 619//575 
f 84//84 81//81 619//575 
f 81//81 459//455 619//575 
f 456//452 453//449 620//575 
f 453//449 96//96 620//575 
f 96//96 93//93 620//575 
f 93//93 90//90 620//575 
f 90//90 87//87 620//575 
f 87//87 456//452 620//575 
f 453//449 450//446 621//575 
f 450//446 99//99 621//575 
f 99//99 96//96 621//575 
f 96//96 453//449 621//575 
f 450//446 447//443 622//575 
f 447//443 102//102 622//575 
f 102//102 99//99 622//575 
f 99//99 450//446 622//575 
f 447//443 444//440 623//575 
f 444//440 105//105 623//575 
f 105//105 102//102 623//575 
f 102//102 447//443 623//575 
f 444//440 441//437 624//575 
f 441//437 105//105 624//575 
f 105//105 444//440 624//575 
f 441//437 438//434 625//575 
f 438//434 108//108 625//575 
f 108//108 105//105 625//575 
f 105//105 441//437 625//575 
f 438//434 435//431 626//575 
f 435//431 111//111 626//575 
f 111//111 108//108 626//575 
f 108//108 438//434 626//575 
f 435//431 432//428 627//575 
f 432//428 111//111 627//575 
f 111//111 435//431 627//575 
f 432//428 429//425 628//575 
f 429//425 114//114 628//575 
f 114//114 111//111 628//575 
f 111//111 432//428 628//575 
f 429//425 426//422 629//575 
f 426//422 114//114 629//575 
f 114//114 429//425 629//575 
f 426//422 423//419 630//575 
f 423//419 117//117 630//575 
f 117//117 114//114 630//575 
f 114//114 426//422 630//575 
f 423//419 420//416 631//575 
f 420//416 120//120 631//575 
f 120//120 117//117 631//575 
f 117//117 423//419 631//575 
f 420//416 417//413 632//575 
f 417//413 120//120 632//575 
f 120//120 420//416 632//575 
f 417//413 414//410 633//575 
f 414//410 123//123 633//575 
f 123//123 120//120 633//575 
f 120//120 417//413 633//575 
f 414//410 411//407 634//575 
f 411//407 126//126 634//575 
f 126//126 123//123 634//575 
f 123//123 414//410 634//575 
f 411//407 408//404 635//575 
f 408//404 129//129 635//575 
f 129//129 126//126 635//575 
f 126//126 411//407 635//575 
f 408//404 405//401 636//575 
f 405//401 132//132 636//575 
f 132//132 129//129 636//575 
f 129//129 408//404 636//575 
f 405//401 402//398 637//575 
f 402//398 135//135 637//575 
f 135//135 132//132 637//575 
f 132//132 405//401 637//575 
f 402//398 399//395 638//575 
f 399//395 135//135 638//575 
f 135//135 402//398 638//575 
f 303//302 300//299 639//575 
f 300//299 186//186 639//575 
f 186//186 183//183 639//575 
f 183//183 303//302 639//575 
f 396//392 393//389 640//575 
f 393//389 363//359 640//575 
f 363//359 360//356 640//575 
f 360//356 396//392 640//575 
f 300//299 297//296 641//575 
f 297//296 189//189 641//575 
f 189//189 186//186 641//575 
f 186//186 300//299 641//575 
f 183//183 180//180 642//575 
f 180//180 306//305 642//575 
f 306//305 303//302 642//575 
f 303//302 183//183 642//575 
f 180//180 177//177 643//575 
f 177//177 309//308 643//575 
f 309//308 306//305 643//575 
f 306//305 180//180 643//575 
f 177//177 174//174 644//575 
f 174//174 312//311 644//575 
f 312//311 309//308 644//575 
f 309//308 177//177 644//575 
f 174//174 171//171 645//575 
f 171//171 315//314 645//575 
f 315//314 312//311 645//575 
f 312//311 174//174 645//575 
f 171//171 168//168 646//575 
f 168//168 318//317 646//575 
f 318//317 315//314 646//575 
f 315//314 171//171 646//575 
f 168//168 165//165 647//575 
f 165//165 324//322 647//575 
f 324//322 321//320 647//575 
f 321//320 318//317 647//575 
f 318//317 168//168 647//575 
f 165//165 162//162 648//575 
f 162//162 327//324 648//575 
f 327//324 324//322 648//575 
f 324//322 165//165 648//575 
f 162//162 159//159 649//575 
f 159//159 330//326 649//575 
f 330//326 327//324 649//575 
f 327//324 162//162 649//575 
f 159//159 156//156 650//575 
f 156//156 333//329 650//575 
f 333//329 330//326 650//575 
f 330//326 159//159 650//575 
f 156//156 153//153 651//575 
f 153//153 336//332 651//575 
f 336//332 333//329 651//575 
f 333//329 156//156 651//575 
f 153//153 150//150 652//575 
f 150//150 342//338 652//575 
f 342//338 339//335 652//575 
f 339//335 336//332 652//575 
f 336//332 153//153 652//575 
f 150//150 147//147 653//575 
f 147//147 345//341 653//575 
f 345//341 342//338 653//575 
f 342//338 150//150 653//575 
f 147//147 144//144 654//575 
f 144//144 348//344 654//575 
f 348//344 345//341 654//575 
f 345//341 147//147 654//575 
f 144//144 141//141 655//575 
f 141//141 351//347 655//575 
f 351//347 348//344 655//575 
f 348//344 144//144 655//575 
f 141//141 138//138 656//575 
f 138//138 357//353 656//575 
f 357//353 354//350 656//575 
f 354//350 351//347 656//575 
f 351//347 141//141 656//575 
f 138//138 135//135 657//575 
f 135//135 360//356 657//575 
f 360//356 357//353 657//575 
f 357//353 138//138 657//575 
f 135//135 399//395 658//575 
f 399//395 396//392 658//575 
f 396//392 360//356 658//575 
f 360//356 135//135 658//575 
f 297//296 294//293 659//575 
f 294//293 192//192 659//575 
f 192//192 189//189 659//575 
f 189//189 297//296 659//575 
f 294//293 291//290 660//575 
f 291//290 195//195 660//575 
f 195//195 192//192 660//575 
f 192//192 294//293 660//575 
f 291//290 288//287 661//575 
f 288//287 198//198 661//575 
f 198//198 195//195 661//575 
f 195//195 291//290 661//575 
f 288//287 285//284 662//575 
f 285//284 201//201 662//575 
f 201//201 198//198 662//575 
f 198//198 288//287 662//575 
f 285//284 282//281 663//575 
f 282//281 204//204 663//575 
f 204//204 201//201 663//575 
f 201//201 285//284 663//575 
f 282//281 279//278 664//575 
f 279//278 207//206 664//575 
f 207//206 204//204 664//575 
f 204//204 282//281 664//575 
f 279//278 276//275 665//575 
f 276//275 210//209 665//575 
f 210//209 207//206 665//575 
f 207//206 279//278 665//575 
f 276//275 273//272 666//575 
f 273//272 213//212 666//575 
f 213//212 210//209 666//575 
f 210//209 276//275 666//575 
f 273//272 270//269 667//575 
f 270//269 219//218 667//575 
f 219//218 216//215 667//575 
f 216//215 213//212 667//575 
f 213//212 273//272 667//575 
f 270//269 267//266 668//575 
f 267//266 225//224 668//575 
f 225//224 222//221 668//575 
f 222//221 219//218 668//575 
f 219//218 270//269 668//575 
f 267//266 264//263 669//575 
f 264//263 231//230 669//575 
f 231//230 228//227 669//575 
f 228//227 225//224 669//575 
f 225//224 267//266 669//575 
f 264//263 261//260 670//575 
f 261//260 234//233 670//575 
f 234//233 231//230 670//575 
f 231//230 264//263 670//575 
f 261//260 258//257 671//575 
f 258//257 237//236 671//575 
f 237//236 234//233 671//575 
f 234//233 261//260 671//575 
f 258//257 255//254 672//575 
f 255//254 240//239 672//575 
f 240//239 237//236 672//575 
f 237//236 258//257 672//575 
f 255//254 252//251 673//575 
f 252//251 243//242 673//575 
f 243//242 240//239 673//575 
f 240//239 255//254 673//575 
f 252//251 249//248 674//575 
f 249//248 243//242 674//575 
f 243//242 252//251 674//575 
f 249//248 246//245 675//575 
f 246//245 243//242 675//575 
f 243//242 249//248 675//575 
f 393//389 390//386 676//575 
f 390//386 369//365 676//575 
f 369//365 366//362 676//575 
f 366//362 363//359 676//575 
f 363//359 393//389 676//575 
f 390//386 387//383 677//575 
f 387//383 372//368 677//575 
f 372//368 369//365 677//575 
f 369//365 390//386 677//575 
f 387//383 384//380 678//575 
f 384//380 378//374 678//575 
f 378//374 375//371 678//575 
f 375//371 372//368 678//575 
f 372//368 387//383 678//575 
f 384//380 381//377 679//575 
f 381//377 378//374 679//575 
f 378//374 384//380 679//575 
f 380//376 383//379 680//576 
f 383//379 386//382 680//576 
f 386//382 380//376 680//576 
f 404//400 407//403 681//576 
f 407//403 134//134 681//576 
f 134//134 137//137 681//576 
f 137//137 404//400 681//576 
f 407//403 410//406 682//576 
f 410//406 131//131 682//576 
f 131//131 134//134 682//576 
f 134//134 407//403 682//576 
f 410//406 413//409 683//576 
f 413//409 128//128 683//576 
f 128//128 131//131 683//576 
f 131//131 410//406 683//576 
f 413//409 416//412 684//576 
f 416//412 125//125 684//576 
f 125//125 128//128 684//576 
f 128//128 413//409 684//576 
f 416//412 419//415 685//576 
f 419//415 122//122 685//576 
f 122//122 125//125 685//576 
f 125//125 416//412 685//576 
f 419//415 422//418 686//576 
f 422//418 122//122 686//576 
f 122//122 419//415 686//576 
f 422//418 425//421 687//576 
f 425//421 119//119 687//576 
f 119//119 122//122 687//576 
f 122//122 422//418 687//576 
f 425//421 428//424 688//576 
f 428//424 116//116 688//576 
f 116//116 119//119 688//576 
f 119//119 425//421 688//576 
f 428//424 431//427 689//576 
f 431//427 116//116 689//576 
f 116//116 428//424 689//576 
f 431//427 434//430 690//576 
f 434//430 113//113 690//576 
f 113//113 116//116 690//576 
f 116//116 431//427 690//576 
f 434//430 437//433 691//576 
f 437//433 113//113 691//576 
f 113//113 434//430 691//576 
f 437//433 440//436 692//576 
f 440//436 110//110 692//576 
f 110//110 113//113 692//576 
f 113//113 437//433 692//576 
f 440//436 443//439 693//576 
f 443//439 107//107 693//576 
f 107//107 110//110 693//576 
f 110//110 440//436 693//576 
f 443//439 446//442 694//576 
f 446//442 107//107 694//576 
f 107//107 443//439 694//576 
f 446//442 449//445 695//576 
f 449//445 104//104 695//576 
f 104//104 107//107 695//576 
f 107//107 446//442 695//576 
f 449//445 452//448 696//576 
f 452//448 101//101 696//576 
f 101//101 104//104 696//576 
f 104//104 449//445 696//576 
f 452//448 455//451 697//576 
f 455//451 98//98 697//576 
f 98//98 101//101 697//576 
f 101//101 452//448 697//576 
f 455//451 458//454 698//576 
f 458//454 89//89 698//576 
f 89//89 92//92 698//576 
f 92//92 95//95 698//576 
f 95//95 98//98 698//576 
f 98//98 455//451 698//576 
f 458//454 461//457 699//576 
f 461//457 83//83 699//576 
f 83//83 86//86 699//576 
f 86//86 89//89 699//576 
f 89//89 458//454 699//576 
f 461//457 464//460 700//576 
f 464//460 83//83 700//576 
f 83//83 461//457 700//576 
f 464//460 467//463 701//576 
f 467//463 83//83 701//576 
f 83//83 464//460 701//576 
f 467//463 470//466 702//576 
f 530//525 533//528 702//576 
f 533//528 83//83 702//576 
f 83//83 467//463 702//576 
f 533//528 536//531 703//576 
f 536//531 83//83 703//576 
f 83//83 533//528 703//576 
f 536//531 539//534 704//576 
f 539//534 83//83 704//576 
f 83//83 536//531 704//576 
f 539//534 542//537 705//576 
f 542//537 83//83 705//576 
f 83//83 539//534 705//576 
f 542//537 545//540 706//576 
f 545//540 80//80 706//576 
f 80//80 83//83 706//576 
f 83//83 542//537 706//576 
f 545//540 548//543 707//576 
f 548//543 80//80 707//576 
f 80//80 545//540 707//576 
f 548//543 551//546 708//576 
f 551//546 77//77 708//576 
f 77//77 80//80 708//576 
f 80//80 548//543 708//576 
f 551//546 554//549 709//576 
f 554//549 74//74 709//576 
f 74//74 77//77 709//576 
f 77//77 551//546 709//576 
f 554//549 557//552 710//576 
f 557//552 71//71 710//576 
f 71//71 74//74 710//576 
f 74//74 554//549 710//576 
f 557//552 560//555 711//576 
f 560//555 68//68 711//576 
f 68//68 71//71 711//576 
f 71//71 557//552 711//576 
f 560//555 563//558 712//576 
f 563//558 65//65 712//576 
f 65//65 68//68 712//576 
f 68//68 560//555 712//576 
f 563//558 566//561 713//576 
f 566//561 62//62 713//576 
f 62//62 65//65 713//576 
f 65//65 563//558 713//576 
f 566//561 569//564 714//576 
f 569//564 59//59 714//576 
f 59//59 62//62 714//576 
f 62//62 566//561 714//576 
f 569//564 572//567 715//576 
f 572//567 56//56 715//576 
f 56//56 59//59 715//576 
f 59//59 569//564 715//576 
f 572//567 575//570 716//576 
f 575//570 56//56 716//576 
f 56//56 572//567 716//576 
f 575//570 578//573 717//576 
f 578//573 53//53 717//576 
f 53//53 56//56 717//576 
f 56//56 575//570 717//576 
f 578//573 476//472 718//576 
f 476//472 50//50 718//576 
f 50//50 53//53 718//576 
f 53//53 578//573 718//576 
f 476//472 475//471 719//576 
f 475//471 50//50 719//576 
f 50//50 476//472 719//576 
f 475//471 479//475 720//576 
f 479//475 47//47 720//576 
f 47//47 50//50 720//576 
f 50//50 475//471 720//576 
f 479//475 482//478 721//576 
f 482//478 41//41 721//576 
f 41//41 44//44 721//576 
f 44//44 47//47 721//576 
f 47//47 479//475 721//576 
f 482//478 485//481 722//576 
f 485//481 38//38 722//576 
f 38//38 41//41 722//576 
f 41//41 482//478 722//576 
f 485//481 488//484 723//576 
f 488//484 35//35 723//576 
f 35//35 38//38 723//576 
f 38//38 485//481 723//576 
f 488//484 491//487 724//576 
f 491//487 29//29 724//576 
f 29//29 32//32 724//576 
f 32//32 35//35 724//576 
f 35//35 488//484 724//576 
f 491//487 494//490 725//576 
f 494//490 29//29 725//576 
f 29//29 491//487 725//576 
f 494//490 497//493 726//576 
f 497//493 26//26 726//576 
f 26//26 29//29 726//576 
f 29//29 494//490 726//576 
f 497//493 500//496 727//576 
f 500//496 23//23 727//576 
f 23//23 26//26 727//576 
f 26//26 497//493 727//576 
f 500//496 503//499 728//576 
f 503//499 20//20 728//576 
f 20//20 23//23 728//576 
f 23//23 500//496 728//576 
f 503//499 506//502 729//576 
f 506//502 17//17 729//576 
f 17//17 20//20 729//576 
f 20//20 503//499 729//576 
f 506//502 509//505 730//576 
f 509//505 14//14 730//576 
f 14//14 17//17 730//576 
f 17//17 506//502 730//576 
f 509//505 512//508 731//576 
f 512//508 11//11 731//576 
f 11//11 14//14 731//576 
f 14//14 509//505 731//576 
f 512//508 515//511 732//576 
f 515//511 8//8 732//576 
f 8//8 11//11 732//576 
f 11//11 512//508 732//576 
f 515//511 518//514 733//576 
f 518//514 4//4 733//576 
f 4//4 8//8 733//576 
f 8//8 515//511 733//576 
f 518//514 521//517 734//576 
f 521//517 5//5 734//576 
f 5//5 4//4 734//576 
f 4//4 518//514 734//576 
f 521//517 524//520 735//576 
f 524//520 470//466 735//576 
f 470//466 5//5 735//576 
f 5//5 521//517 735//576 
f 524//520 527//523 736//576 
f 527//523 470//466 736//576 
f 470//466 524//520 736//576 
f 527//523 530//525 737//576 
f 530//525 702//576 470//466 737//576 
f 470//466 527//523 737//576 
f 137//137 140//140 738//576 
f 140//140 359//355 738//576 
f 359//355 362//358 738//576 
f 362//358 137//137 738//576 
f 386//382 389//385 739//576 
f 389//385 374//370 739//576 
f 374//370 377//373 739//576 
f 377//373 380//376 739//576 
f 380//376 386//382 739//576 
f 389//385 392//388 740//576 
f 392//388 371//367 740//576 
f 371//367 374//370 740//576 
f 374//370 389//385 740//576 
f 392//388 395//391 741//576 
f 395//391 365//361 741//576 
f 365//361 368//364 741//576 
f 368//364 371//367 741//576 
f 371//367 392//388 741//576 
f 395//391 398//394 742//576 
f 398//394 362//358 742//576 
f 362//358 365//361 742//576 
f 365//361 395//391 742//576 
f 398//394 401//397 743//576 
f 401//397 137//137 743//576 
f 137//137 362//358 743//576 
f 362//358 398//394 743//576 
f 140//140 143//143 744//576 
f 143//143 353//349 744//576 
f 353//349 356//352 744//576 
f 356//352 359//355 744//576 
f 359//355 140//140 744//576 
f 143//143 146//146 745//576 
f 146//146 350//346 745//576 
f 350//346 353//349 745//576 
f 353//349 143//143 745//576 
f 146//146 149//149 746//576 
f 149//149 347//343 746//576 
f 347//343 350//346 746//576 
f 350//346 146//146 746//576 
f 149//149 152//152 747//576 
f 152//152 344//340 747//576 
f 344//340 347//343 747//576 
f 347//343 149//149 747//576 
f 152//152 155//155 748//576 
f 155//155 338//334 748//576 
f 338//334 341//337 748//576 
f 341//337 344//340 748//576 
f 344//340 152//152 748//576 
f 155//155 158//158 749//576 
f 158//158 335//331 749//576 
f 335//331 338//334 749//576 
f 338//334 155//155 749//576 
f 158//158 161//161 750//576 
f 161//161 332//328 750//576 
f 332//328 335//331 750//576 
f 335//331 158//158 750//576 
f 161//161 164//164 751//576 
f 164//164 329//325 751//576 
f 329//325 332//328 751//576 
f 332//328 161//161 751//576 
f 164//164 167//167 752//576 
f 167//167 326//323 752//576 
f 326//323 329//325 752//576 
f 329//325 164//164 752//576 
f 167//167 170//170 753//576 
f 170//170 320//319 753//576 
f 320//319 323//321 753//576 
f 323//321 326//323 753//576 
f 326//323 167//167 753//576 
f 170//170 173//173 754//576 
f 173//173 317//316 754//576 
f 317//316 320//319 754//576 
f 320//319 170//170 754//576 
f 173//173 176//176 755//576 
f 176//176 314//313 755//576 
f 314//313 317//316 755//576 
f 317//316 173//173 755//576 
f 176//176 179//179 756//576 
f 179//179 311//310 756//576 
f 311//310 314//313 756//576 
f 314//313 176//176 756//576 
f 179//179 182//182 757//576 
f 182//182 308//307 757//576 
f 308//307 311//310 757//576 
f 311//310 179//179 757//576 
f 182//182 185//185 758//576 
f 185//185 305//304 758//576 
f 305//304 308//307 758//576 
f 308//307 182//182 758//576 
f 188//188 299//298 759//576 
f 299//298 302//301 759//576 
f 302//301 188//188 759//576 
f 245//244 248//247 760//576 
f 248//247 251//250 760//576 
f 251//250 245//244 760//576 
f 302//301 305//304 761//576 
f 305//304 185//185 761//576 
f 185//185 188//188 761//576 
f 188//188 302//301 761//576 
f 251//250 254//253 762//576 
f 254//253 245//244 762//576 
f 245//244 251//250 762//576 
f 254//253 257//256 763//576 
f 257//256 242//241 763//576 
f 242//241 245//244 763//576 
f 245//244 254//253 763//576 
f 257//256 260//259 764//576 
f 260//259 239//238 764//576 
f 239//238 242//241 764//576 
f 242//241 257//256 764//576 
f 260//259 263//262 765//576 
f 263//262 236//235 765//576 
f 236//235 239//238 765//576 
f 239//238 260//259 765//576 
f 263//262 266//265 766//576 
f 266//265 233//232 766//576 
f 233//232 236//235 766//576 
f 236//235 263//262 766//576 
f 266//265 269//268 767//576 
f 269//268 227//226 767//576 
f 227//226 230//229 767//576 
f 230//229 233//232 767//576 
f 233//232 266//265 767//576 
f 269//268 272//271 768//576 
f 272//271 221//220 768//576 
f 221//220 224//223 768//576 
f 224//223 227//226 768//576 
f 227//226 269//268 768//576 
f 272//271 275//274 769//576 
f 275//274 215//214 769//576 
f 215//214 218//217 769//576 
f 218//217 221//220 769//576 
f 221//220 272//271 769//576 
f 275//274 278//277 770//576 
f 278//277 212//211 770//576 
f 212//211 215//214 770//576 
f 215//214 275//274 770//576 
f 278//277 281//280 771//576 
f 281//280 209//208 771//576 
f 209//208 212//211 771//576 
f 212//211 278//277 771//576 
f 281//280 284//283 772//576 
f 284//283 206//205 772//576 
f 206//205 209//208 772//576 
f 209//208 281//280 772//576 
f 284//283 287//286 773//576 
f 287//286 203//203 773//576 
f 203//203 206//205 773//576 
f 206//205 284//283 773//576 
f 287//286 290//289 774//576 
f 290//289 200//200 774//576 
f 200//200 203//203 774//576 
f 203//203 287//286 774//576 
f 290//289 293//292 775//576 
f 293//292 197//197 775//576 
f 197//197 200//200 775//576 
f 200//200 290//289 775//576 
f 293//292 296//295 776//576 
f 296//295 194//194 776//576 
f 194//194 197//197 776//576 
f 197//197 293//292 776//576 
f 296//295 299//298 777//576 
f 299//298 188//188 777//576 
f 188//188 191//191 777//576 
f 191//191 194//194 777//576 
f 194//194 296//295 777//576 
# 2 polygons - 1550 triangles

