# 3ds Max Wavefront OBJ Exporter v0.97b - (c)2007 guruware
# File Created: 10.09.2021 11:04:31

#
# object Lo_Ling
#

v  1354.1279 0.0000 32.8837
v  1354.1781 0.0000 31.2961
v  1354.1531 5.0000 32.0899
v  1354.1781 10.0000 31.2961
v  1354.1279 10.0000 32.8837
v  1354.3282 0.0000 29.8953
v  1354.2532 5.0000 30.5957
v  1354.3282 10.0000 29.8953
v  1354.5786 0.0000 28.6813
v  1354.4534 5.0000 29.2883
v  1354.5786 10.0000 28.6813
v  1354.9290 0.0000 27.6540
v  1354.7538 5.0000 28.1676
v  1354.9290 10.0000 27.6540
v  1355.3795 0.0000 26.8135
v  1355.1543 5.0000 27.2337
v  1355.3795 10.0000 26.8135
v  1355.9303 0.0000 26.1598
v  1355.6549 5.0000 26.4866
v  1355.9303 10.0000 26.1598
v  1356.5811 0.0000 25.6928
v  1356.2557 5.0000 25.9263
v  1356.5811 10.0000 25.6928
v  1357.3320 0.0000 25.4127
v  1356.9565 5.0000 25.5528
v  1357.3320 10.0000 25.4127
v  1358.1831 0.0000 25.3193
v  1357.7576 5.0000 25.3660
v  1358.1831 10.0000 25.3193
v  1359.4835 0.0000 25.4345
v  1358.8334 5.0000 25.3769
v  1359.4835 10.0000 25.4345
v  1360.7596 0.0000 25.7802
v  1360.1216 5.0000 25.6074
v  1360.7596 10.0000 25.7802
v  1362.0114 0.0000 26.3564
v  1361.3855 5.0000 26.0683
v  1362.0114 10.0000 26.3564
v  1363.2386 0.0000 27.1631
v  1362.6250 5.0000 26.7597
v  1363.2386 10.0000 27.1631
v  1364.4417 0.0000 28.2002
v  1363.8402 5.0000 27.6816
v  1364.4417 10.0000 28.2002
v  1365.6204 0.0000 29.4678
v  1365.0310 5.0000 28.8340
v  1365.6204 10.0000 29.4678
v  1366.7747 0.0000 30.9659
v  1366.1975 5.0000 30.2168
v  1366.7747 10.0000 30.9659
v  1367.9047 0.0000 32.6944
v  1367.3397 5.0000 31.8301
v  1367.9047 10.0000 32.6944
v  1369.0103 0.0000 34.6534
v  1368.4575 5.0000 33.6739
v  1369.0103 10.0000 34.6534
v  1370.0430 0.0000 36.6885
v  1369.5266 5.0000 35.6710
v  1370.0430 10.0000 36.6885
v  1370.9542 0.0000 38.6453
v  1370.4985 5.0000 37.6669
v  1370.9542 10.0000 38.6453
v  1371.7439 0.0000 40.5239
v  1371.3490 5.0000 39.5846
v  1371.7439 10.0000 40.5239
v  1372.4121 0.0000 42.3241
v  1372.0780 5.0000 41.4240
v  1372.4121 10.0000 42.3241
v  1372.9589 0.0000 44.0460
v  1372.6854 5.0000 43.1850
v  1372.9589 10.0000 44.0460
v  1373.3840 0.0000 45.6896
v  1373.1714 5.0000 44.8678
v  1373.3840 10.0000 45.6896
v  1373.6877 0.0000 47.2550
v  1373.5359 5.0000 46.4723
v  1373.6877 10.0000 47.2550
v  1373.8700 0.0000 48.7420
v  1373.7789 5.0000 47.9985
v  1373.8700 10.0000 48.7420
v  1373.9308 0.0000 50.1508
v  1373.9004 5.0000 49.4464
v  1373.9308 10.0000 50.1508
v  1373.9308 0.0000 54.1380
v  1373.9308 5.0000 52.1444
v  1373.9308 10.0000 54.1380
v  1383.7517 0.0000 54.1380
v  1378.8412 5.0000 54.1380
v  1383.7517 10.0000 54.1380
v  1383.7517 0.0000 23.8779
v  1383.7517 5.0000 39.0079
v  1383.7517 10.0000 23.8779
v  1383.6906 0.0000 21.6694
v  1383.7211 5.0000 22.7736
v  1383.6906 10.0000 21.6694
v  1383.5071 0.0000 19.5979
v  1383.5988 5.0000 20.6336
v  1383.5071 10.0000 19.5979
v  1383.2013 0.0000 17.6632
v  1383.3542 5.0000 18.6305
v  1383.2013 10.0000 17.6632
v  1382.7733 0.0000 15.8655
v  1382.9873 5.0000 16.7643
v  1382.7733 10.0000 15.8655
v  1382.2229 0.0000 14.2046
v  1382.4980 5.0000 15.0350
v  1382.2229 10.0000 14.2046
v  1381.5503 0.0000 12.6806
v  1381.8866 5.0000 13.4426
v  1381.5503 10.0000 12.6806
v  1380.7552 0.0000 11.2936
v  1381.1528 5.0000 11.9871
v  1380.7552 10.0000 11.2936
v  1379.8380 0.0000 10.0434
v  1380.2966 5.0000 10.6685
v  1379.8380 10.0000 10.0434
v  1378.7985 0.0000 8.9302
v  1379.3182 5.0000 9.4868
v  1378.7985 10.0000 8.9302
v  1377.6179 0.0000 7.9434
v  1378.2083 5.0000 8.4368
v  1377.6179 10.0000 7.9434
v  1376.2780 0.0000 7.0727
v  1376.9480 5.0000 7.5081
v  1376.2780 10.0000 7.0727
v  1374.7783 0.0000 6.3181
v  1375.5281 5.0000 6.6954
v  1374.7783 10.0000 6.3181
v  1373.1190 0.0000 5.6796
v  1373.9486 5.0000 5.9989
v  1373.1190 10.0000 5.6796
v  1371.3003 0.0000 5.1572
v  1372.2097 5.0000 5.4184
v  1371.3003 10.0000 5.1572
v  1369.3219 0.0000 4.7509
v  1370.3112 5.0000 4.9541
v  1369.3219 10.0000 4.7509
v  1367.1840 0.0000 4.4607
v  1368.2529 5.0000 4.6058
v  1367.1840 10.0000 4.4607
v  1364.8865 0.0000 4.2865
v  1366.0353 5.0000 4.3736
v  1364.8865 10.0000 4.2865
v  1362.4294 0.0000 4.2285
v  1363.6580 5.0000 4.2575
v  1362.4294 10.0000 4.2285
v  1358.8590 0.0000 4.3428
v  1360.6443 5.0000 4.2856
v  1358.8590 10.0000 4.3428
v  1355.5840 0.0000 4.6855
v  1357.2214 5.0000 4.5141
v  1355.5840 10.0000 4.6855
v  1352.6041 0.0000 5.2568
v  1354.0940 5.0000 4.9712
v  1352.6041 10.0000 5.2568
v  1349.9196 0.0000 6.0566
v  1351.2618 5.0000 5.6567
v  1349.9196 10.0000 6.0566
v  1347.5303 0.0000 7.0850
v  1348.7249 5.0000 6.5708
v  1347.5303 10.0000 7.0850
v  1345.4363 0.0000 8.3418
v  1346.4833 5.0000 7.7134
v  1345.4363 10.0000 8.3418
v  1343.6376 0.0000 9.8271
v  1344.5370 5.0000 9.0845
v  1343.6376 10.0000 9.8271
v  1342.1343 0.0000 11.5410
v  1342.8860 5.0000 10.6841
v  1342.1343 10.0000 11.5410
v  1340.9261 0.0000 13.4834
v  1341.5302 5.0000 12.5122
v  1340.9261 10.0000 13.4834
v  1347.0818 0.0000 17.2694
v  1344.0039 5.0000 15.3764
v  1347.0818 10.0000 17.2694
v  1347.9585 0.0000 15.8502
v  1347.5201 5.0000 16.5598
v  1347.9585 10.0000 15.8502
v  1349.0601 0.0000 14.5980
v  1348.5093 5.0000 15.2241
v  1349.0601 10.0000 14.5980
v  1350.3867 0.0000 13.5127
v  1349.7234 5.0000 14.0554
v  1350.3867 10.0000 13.5127
v  1351.9384 0.0000 12.5945
v  1351.1626 5.0000 13.0536
v  1351.9384 10.0000 12.5945
v  1353.7148 0.0000 11.8431
v  1352.8267 5.0000 12.2188
v  1353.7148 10.0000 11.8431
v  1355.7164 0.0000 11.2588
v  1354.7157 5.0000 11.5509
v  1355.7164 10.0000 11.2588
v  1357.9430 0.0000 10.8414
v  1356.8297 5.0000 11.0501
v  1357.9430 10.0000 10.8414
v  1360.3944 0.0000 10.5909
v  1359.1687 5.0000 10.7161
v  1360.3944 10.0000 10.5909
v  1363.0709 0.0000 10.5074
v  1361.7327 5.0000 10.5492
v  1363.0709 10.0000 10.5074
v  1365.3502 0.0000 10.6506
v  1364.2106 5.0000 10.5790
v  1365.3502 10.0000 10.6506
v  1367.3612 0.0000 11.0801
v  1366.3557 5.0000 10.8654
v  1367.3612 10.0000 11.0801
v  1369.1042 0.0000 11.7960
v  1368.2327 5.0000 11.4381
v  1369.1042 10.0000 11.7960
v  1370.5790 0.0000 12.7982
v  1369.8416 5.0000 12.2971
v  1370.5790 10.0000 12.7982
v  1371.7856 0.0000 14.0867
v  1371.1823 5.0000 13.4425
v  1371.7856 10.0000 14.0867
v  1372.7241 0.0000 15.6616
v  1372.2549 5.0000 14.8742
v  1372.7241 10.0000 15.6616
v  1373.3945 0.0000 17.5229
v  1373.0593 5.0000 16.5922
v  1373.3945 10.0000 17.5229
v  1373.7968 0.0000 19.6704
v  1373.5956 5.0000 18.5966
v  1373.7968 10.0000 19.6704
v  1373.9308 0.0000 22.1044
v  1373.8638 5.0000 20.8874
v  1373.9308 10.0000 22.1044
v  1373.9308 0.0000 31.0448
v  1373.9308 5.0000 26.5746
v  1373.9308 10.0000 31.0448
v  1373.9022 0.0000 30.9132
v  1373.9165 5.0000 30.9790
v  1373.9022 10.0000 30.9132
v  1373.8163 0.0000 30.7074
v  1373.8593 5.0000 30.8103
v  1373.8163 10.0000 30.7074
v  1373.6732 0.0000 30.4274
v  1373.7448 5.0000 30.5674
v  1373.6732 10.0000 30.4274
v  1373.4729 0.0000 30.0731
v  1373.5730 5.0000 30.2502
v  1373.4729 10.0000 30.0731
v  1373.2153 0.0000 29.6446
v  1373.3441 5.0000 29.8588
v  1373.2153 10.0000 29.6446
v  1372.9005 0.0000 29.1419
v  1373.0579 5.0000 29.3932
v  1372.9005 10.0000 29.1419
v  1372.5284 0.0000 28.5649
v  1372.7145 5.0000 28.8534
v  1372.5284 10.0000 28.5649
v  1372.0991 0.0000 27.9138
v  1372.3138 5.0000 28.2394
v  1372.0991 10.0000 27.9138
v  1371.6127 0.0000 27.1884
v  1371.8560 5.0000 27.5511
v  1371.6127 10.0000 27.1884
v  1371.0837 0.0000 26.4401
v  1371.3483 5.0000 26.8142
v  1371.0837 10.0000 26.4401
v  1370.5273 0.0000 25.7203
v  1370.8055 5.0000 26.0802
v  1370.5273 10.0000 25.7203
v  1369.9435 0.0000 25.0290
v  1370.2354 5.0000 25.3747
v  1369.9435 10.0000 25.0290
v  1369.3320 0.0000 24.3662
v  1369.6377 5.0000 24.6976
v  1369.3320 10.0000 24.3662
v  1368.6930 0.0000 23.7318
v  1369.0125 5.0000 24.0490
v  1368.6930 10.0000 23.7318
v  1368.0265 0.0000 23.1260
v  1368.3597 5.0000 23.4289
v  1368.0265 10.0000 23.1260
v  1367.3325 0.0000 22.5486
v  1367.6796 5.0000 22.8373
v  1367.3325 10.0000 22.5486
v  1366.6111 0.0000 21.9997
v  1366.9718 5.0000 22.2741
v  1366.6111 10.0000 21.9997
v  1365.8621 0.0000 21.4792
v  1366.2366 5.0000 21.7394
v  1365.8621 10.0000 21.4792
v  1365.0903 0.0000 21.0012
v  1365.4762 5.0000 21.2402
v  1365.0903 10.0000 21.0012
v  1364.3008 0.0000 20.5793
v  1364.6956 5.0000 20.7902
v  1364.3008 10.0000 20.5793
v  1363.4935 0.0000 20.2137
v  1363.8972 5.0000 20.3965
v  1363.4935 10.0000 20.2137
v  1362.6685 0.0000 19.9044
v  1363.0811 5.0000 20.0591
v  1362.6685 10.0000 19.9044
v  1361.8256 0.0000 19.6513
v  1362.2471 5.0000 19.7779
v  1361.8256 10.0000 19.6513
v  1360.9650 0.0000 19.4544
v  1361.3953 5.0000 19.5529
v  1360.9650 10.0000 19.4544
v  1360.0865 0.0000 19.3138
v  1360.5258 5.0000 19.3841
v  1360.0865 10.0000 19.3138
v  1359.1903 0.0000 19.2295
v  1359.6384 5.0000 19.2717
v  1359.1903 10.0000 19.2295
v  1358.2762 0.0000 19.2014
v  1358.7333 5.0000 19.2154
v  1358.2762 10.0000 19.2014
v  1355.3444 0.0000 19.4230
v  1356.8103 5.0000 19.3122
v  1355.3444 10.0000 19.4230
v  1352.7576 0.0000 20.0878
v  1354.0510 5.0000 19.7554
v  1352.7576 10.0000 20.0878
v  1350.5156 0.0000 21.1959
v  1351.6366 5.0000 20.6419
v  1350.5156 10.0000 21.1959
v  1348.6185 0.0000 22.7473
v  1349.5670 5.0000 21.9716
v  1348.6185 10.0000 22.7473
v  1347.0664 0.0000 24.7419
v  1347.8425 5.0000 23.7446
v  1347.0664 10.0000 24.7419
v  1345.8593 0.0000 27.1797
v  1346.4628 5.0000 25.9608
v  1345.8593 10.0000 27.1797
v  1344.9969 0.0000 30.0608
v  1345.4281 5.0000 28.6203
v  1344.9969 10.0000 30.0608
v  1344.4795 0.0000 33.3851
v  1344.7383 5.0000 31.7230
v  1344.4795 10.0000 33.3851
v  1344.3071 0.0000 37.1527
v  1344.3933 5.0000 35.2689
v  1344.3071 10.0000 37.1527
v  1344.4459 0.0000 40.8189
v  1344.3765 5.0000 38.9858
v  1344.4459 10.0000 40.8189
v  1344.8624 0.0000 44.0537
v  1344.6542 5.0000 42.4363
v  1344.8624 10.0000 44.0537
v  1345.5565 0.0000 46.8573
v  1345.2095 5.0000 45.4555
v  1345.5565 10.0000 46.8573
v  1346.5283 0.0000 49.2295
v  1346.0424 5.0000 48.0434
v  1346.5283 10.0000 49.2295
v  1347.7777 0.0000 51.1705
v  1347.1530 5.0000 50.2000
v  1347.7777 10.0000 51.1705
v  1349.3047 0.0000 52.6801
v  1348.5413 5.0000 51.9253
v  1349.3047 10.0000 52.6801
v  1351.1095 0.0000 53.7584
v  1350.2072 5.0000 53.2192
v  1351.1095 10.0000 53.7584
v  1353.1918 0.0000 54.4053
v  1352.1506 5.0000 54.0819
v  1353.1918 10.0000 54.4053
v  1355.5518 0.0000 54.6210
v  1354.3718 5.0000 54.5132
v  1355.5518 10.0000 54.6210
v  1357.4832 0.0000 54.5113
v  1356.5175 5.0000 54.5661
v  1357.4832 10.0000 54.5113
v  1359.1873 0.0000 54.1822
v  1358.3352 5.0000 54.3468
v  1359.1873 10.0000 54.1822
v  1360.6641 0.0000 53.6338
v  1359.9257 5.0000 53.9080
v  1360.6641 10.0000 53.6338
v  1361.9137 0.0000 52.8659
v  1361.2889 5.0000 53.2498
v  1361.9137 10.0000 52.8659
v  1362.9362 0.0000 51.8787
v  1362.4249 5.0000 52.3723
v  1362.9362 10.0000 51.8787
v  1363.7314 0.0000 50.6721
v  1363.3339 5.0000 51.2754
v  1363.7314 10.0000 50.6721
v  1364.2994 0.0000 49.2461
v  1364.0154 5.0000 49.9591
v  1364.2994 10.0000 49.2461
v  1364.6403 0.0000 47.6007
v  1364.4698 5.0000 48.4234
v  1364.6403 10.0000 47.6007
v  1364.7539 0.0000 45.7359
v  1364.6970 5.0000 46.6683
v  1364.7539 10.0000 45.7359
v  1364.6227 0.0000 43.8838
v  1364.6882 5.0000 44.8098
v  1364.6227 10.0000 43.8838
v  1364.2291 0.0000 42.2496
v  1364.4259 5.0000 43.0667
v  1364.2291 10.0000 42.2496
v  1363.5732 0.0000 40.8333
v  1363.9011 5.0000 41.5414
v  1363.5732 10.0000 40.8333
v  1362.6549 0.0000 39.6349
v  1363.1141 5.0000 40.2341
v  1362.6549 10.0000 39.6349
v  1361.4742 0.0000 38.6543
v  1362.0646 5.0000 39.1446
v  1361.4742 10.0000 38.6543
v  1360.0313 0.0000 37.8917
v  1360.7528 5.0000 38.2730
v  1360.0313 10.0000 37.8917
v  1358.3259 0.0000 37.3470
v  1359.1786 5.0000 37.6193
v  1358.3259 10.0000 37.3470
v  1356.3582 0.0000 37.0201
v  1357.3420 5.0000 37.1835
v  1356.3582 10.0000 37.0201
v  1354.1279 0.0000 36.9112
v  1355.2430 5.0000 36.9656
v  1354.1279 10.0000 36.9112
v  1354.1279 5.0000 34.8974
v  1356.1235 0.0000 41.7904
v  1356.8634 0.0000 41.9384
v  1356.4934 5.0000 41.8644
v  1356.8634 10.0000 41.9384
v  1356.1235 10.0000 41.7904
v  1357.5045 0.0000 42.1850
v  1357.1840 5.0000 42.0617
v  1357.5045 10.0000 42.1850
v  1358.0470 0.0000 42.5302
v  1357.7758 5.0000 42.3576
v  1358.0470 10.0000 42.5302
v  1358.4908 0.0000 42.9741
v  1358.2689 5.0000 42.7522
v  1358.4908 10.0000 42.9741
v  1358.8361 0.0000 43.5166
v  1358.6635 5.0000 43.2453
v  1358.8361 10.0000 43.5166
v  1359.0826 0.0000 44.1577
v  1358.9594 5.0000 43.8372
v  1359.0826 10.0000 44.1577
v  1359.2306 0.0000 44.8975
v  1359.1566 5.0000 44.5276
v  1359.2306 10.0000 44.8975
v  1359.2799 0.0000 45.7359
v  1359.2552 5.0000 45.3167
v  1359.2799 10.0000 45.7359
v  1359.2306 0.0000 46.5870
v  1359.2552 5.0000 46.1614
v  1359.2306 10.0000 46.5870
v  1359.0826 0.0000 47.3379
v  1359.1566 5.0000 46.9625
v  1359.0826 10.0000 47.3379
v  1358.8361 0.0000 47.9888
v  1358.9594 5.0000 47.6633
v  1358.8361 10.0000 47.9888
v  1358.4908 0.0000 48.5395
v  1358.6635 5.0000 48.2641
v  1358.4908 10.0000 48.5395
v  1358.0470 0.0000 48.9900
v  1358.2689 5.0000 48.7647
v  1358.0470 10.0000 48.9900
v  1357.5045 0.0000 49.3405
v  1357.7758 5.0000 49.1653
v  1357.5045 10.0000 49.3405
v  1356.8633 0.0000 49.5908
v  1357.1840 5.0000 49.4656
v  1356.8633 10.0000 49.5908
v  1356.1235 0.0000 49.7410
v  1356.4934 5.0000 49.6659
v  1356.1235 10.0000 49.7410
v  1355.2852 0.0000 49.7910
v  1355.7043 5.0000 49.7660
v  1355.2852 10.0000 49.7910
v  1354.4341 0.0000 49.7410
v  1354.8596 5.0000 49.7660
v  1354.4341 10.0000 49.7410
v  1353.6831 0.0000 49.5908
v  1354.0586 5.0000 49.6659
v  1353.6831 10.0000 49.5908
v  1353.0323 0.0000 49.3405
v  1353.3577 5.0000 49.4656
v  1353.0323 10.0000 49.3405
v  1352.4816 0.0000 48.9900
v  1352.7570 5.0000 49.1653
v  1352.4816 10.0000 48.9900
v  1352.0310 0.0000 48.5395
v  1352.2563 5.0000 48.7647
v  1352.0310 10.0000 48.5395
v  1351.6805 0.0000 47.9888
v  1351.8558 5.0000 48.2641
v  1351.6805 10.0000 47.9888
v  1351.4303 0.0000 47.3379
v  1351.5554 5.0000 47.6633
v  1351.4303 10.0000 47.3379
v  1351.2800 0.0000 46.5870
v  1351.3552 5.0000 46.9625
v  1351.2800 10.0000 46.5870
v  1351.2300 0.0000 45.7359
v  1351.2550 5.0000 46.1614
v  1351.2300 10.0000 45.7359
v  1351.2800 0.0000 44.8975
v  1351.2550 5.0000 45.3167
v  1351.2800 10.0000 44.8975
v  1351.4303 0.0000 44.1577
v  1351.3552 5.0000 44.5276
v  1351.4303 10.0000 44.1577
v  1351.6805 0.0000 43.5166
v  1351.5554 5.0000 43.8371
v  1351.6805 10.0000 43.5166
v  1352.0310 0.0000 42.9741
v  1351.8558 5.0000 43.2453
v  1352.0310 10.0000 42.9741
v  1352.4816 0.0000 42.5302
v  1352.2563 5.0000 42.7522
v  1352.4816 10.0000 42.5302
v  1353.0323 0.0000 42.1850
v  1352.7570 5.0000 42.3576
v  1353.0323 10.0000 42.1850
v  1353.6831 0.0000 41.9384
v  1353.3577 5.0000 42.0617
v  1353.6831 10.0000 41.9384
v  1354.4341 0.0000 41.7904
v  1354.0586 5.0000 41.8644
v  1354.4341 10.0000 41.7904
v  1355.2852 0.0000 41.7411
v  1354.8596 5.0000 41.7658
v  1355.2852 10.0000 41.7411
v  1355.7043 5.0000 41.7658
v  1378.8412 0.0000 45.5762
v  1344.5251 10.0000 14.5360
v  1377.1842 0.0000 40.9236
v  1377.1031 0.0000 39.9583
v  1376.9412 0.0000 38.9408
v  1376.6982 0.0000 37.8712
v  1376.3743 0.0000 36.7493
v  1375.9692 0.0000 35.5753
v  1375.4833 0.0000 34.3490
v  1374.9163 0.0000 33.0706
v  1374.2683 0.0000 31.7399
v  1372.3657 0.0000 31.2698
v  1371.0050 0.0000 29.4448
v  1375.5642 0.0000 29.8587
v  1378.8259 0.0000 24.6741
v  1379.6252 0.0000 20.1411
v  1378.2915 0.0000 17.6805
v  1378.9034 0.0000 14.5381
v  1376.7803 0.0000 12.0031
v  1375.0118 0.0000 10.1662
v  1372.7717 0.0000 8.7329
v  1370.0414 0.0000 7.6928
v  1367.3043 0.0000 7.7356
v  1364.5842 0.0000 6.8268
v  1361.1885 0.0000 7.4174
v  1358.1951 0.0000 7.6151
v  1356.4144 0.0000 8.9286
v  1354.4048 0.0000 8.2611
v  1352.0442 0.0000 8.9378
v  1349.0422 0.0000 9.5181
v  1347.1302 0.0000 11.5699
v  1345.6976 0.0000 12.9541
v  1344.5251 0.0000 14.5360
v  1369.1238 0.0000 27.9565
v  1368.0930 0.0000 26.0859
v  1366.3906 0.0000 24.4616
v  1364.5626 0.0000 23.5999
v  1363.0541 0.0000 22.3059
v  1361.1405 0.0000 22.0450
v  1359.3641 0.0000 21.3255
v  1357.2839 0.0000 22.3391
v  1355.5038 0.0000 22.6541
v  1353.9462 0.0000 23.2841
v  1352.6110 0.0000 24.2291
v  1351.4984 0.0000 25.4892
v  1350.6083 0.0000 27.0642
v  1351.5886 0.0000 28.5854
v  1349.8406 0.0000 29.6080
v  1349.4457 0.0000 31.9064
v  1354.0818 0.0000 40.2133
v  1353.6145 0.0000 40.3449
v  1353.2140 0.0000 40.5421
v  1350.2592 0.0000 37.6395
v  1349.3396 0.0000 41.2144
v  1349.1393 0.0000 41.6090
v  1349.0059 0.0000 42.0693
v  1346.9470 0.0000 43.2527
v  1348.6487 0.0000 47.1024
v  1349.7462 0.0000 47.7182
v  1349.3542 0.0000 48.9317
v  1350.4965 0.0000 49.2329
v  1350.3988 0.0000 50.3450
v  1351.4821 0.0000 51.1922
v  1352.7542 0.0000 51.7737
v  1353.7697 0.0000 51.2457
v  1354.6157 0.0000 52.1396
v  1356.1110 0.0000 52.1661
v  1356.8234 0.0000 51.2810
v  1357.7595 0.0000 51.9062
v  1359.4633 0.0000 51.8025
v  1360.3469 0.0000 50.5685
v  1360.9987 0.0000 49.7697
v  1361.4874 0.0000 48.8112
v  1361.8132 0.0000 47.6929
v  1361.9762 0.0000 46.4149
v  1361.9718 0.0000 45.0633
v  1361.7913 0.0000 43.7971
v  1361.4303 0.0000 42.6893
v  1360.8888 0.0000 41.7397
v  1360.1667 0.0000 40.9484
v  1359.2643 0.0000 40.3153
v  1358.1813 0.0000 39.8405
v  1356.9177 0.0000 39.5240
v  1355.9222 0.0000 40.1839
v  1355.0514 0.0000 39.3657
v  1345.6976 10.0000 12.9541
v  1347.1302 10.0000 11.5699
v  1349.0422 10.0000 9.5181
v  1352.0442 10.0000 8.9378
v  1354.4048 10.0000 8.2611
v  1356.4144 10.0000 8.9286
v  1358.1951 10.0000 7.6151
v  1361.1885 10.0000 7.4174
v  1364.5842 10.0000 6.8268
v  1367.3043 10.0000 7.7356
v  1370.0414 10.0000 7.6928
v  1372.7717 10.0000 8.7329
v  1375.0118 10.0000 10.1662
v  1376.7803 10.0000 12.0031
v  1378.9034 10.0000 14.5381
v  1378.2915 10.0000 17.6805
v  1379.6252 10.0000 20.1411
v  1378.8259 10.0000 24.6741
v  1354.0818 10.0000 40.2133
v  1374.1840 10.0000 31.5662
v  1374.9163 10.0000 33.0706
v  1375.4833 10.0000 34.3490
v  1375.9692 10.0000 35.5753
v  1376.3743 10.0000 36.7493
v  1376.6982 10.0000 37.8712
v  1376.9412 10.0000 38.9408
v  1377.1031 10.0000 39.9583
v  1377.1842 10.0000 40.9236
v  1378.8412 10.0000 45.5762
v  1355.0513 10.0000 39.3657
v  1355.9222 10.0000 40.1839
v  1356.9177 10.0000 39.5240
v  1358.1813 10.0000 39.8405
v  1359.2643 10.0000 40.3153
v  1360.1667 10.0000 40.9484
v  1360.8888 10.0000 41.7397
v  1361.4303 10.0000 42.6893
v  1361.7913 10.0000 43.7971
v  1361.9718 10.0000 45.0633
v  1361.9762 10.0000 46.4149
v  1361.8132 10.0000 47.6929
v  1361.4874 10.0000 48.8112
v  1360.9987 10.0000 49.7697
v  1360.3469 10.0000 50.5685
v  1359.4633 10.0000 51.8025
v  1357.7595 10.0000 51.9062
v  1356.8234 10.0000 51.2810
v  1356.1110 10.0000 52.1661
v  1354.6157 10.0000 52.1396
v  1353.7697 10.0000 51.2457
v  1352.7542 10.0000 51.7737
v  1351.4821 10.0000 51.1922
v  1350.3988 10.0000 50.3450
v  1350.4965 10.0000 49.2329
v  1349.3542 10.0000 48.9317
v  1349.7462 10.0000 47.7182
v  1348.6487 10.0000 47.1024
v  1346.9470 10.0000 43.2527
v  1349.0059 10.0000 42.0693
v  1349.1393 10.0000 41.6090
v  1349.3396 10.0000 41.2144
v  1350.2592 10.0000 37.6395
v  1353.2140 10.0000 40.5421
v  1349.4457 10.0000 31.9064
v  1349.8406 10.0000 29.6080
v  1351.5886 10.0000 28.5854
v  1350.6083 10.0000 27.0642
v  1351.4984 10.0000 25.4892
v  1352.6110 10.0000 24.2291
v  1353.9462 10.0000 23.2841
v  1355.5038 10.0000 22.6541
v  1357.2839 10.0000 22.3391
v  1359.3641 10.0000 21.3255
v  1361.1405 10.0000 22.0450
v  1363.0541 10.0000 22.3059
v  1364.5626 10.0000 23.5999
v  1366.3906 10.0000 24.4616
v  1368.0930 10.0000 26.0859
v  1369.1238 10.0000 27.9565
v  1371.0050 10.0000 29.4448
v  1372.3657 10.0000 31.2698
v  1353.6145 10.0000 40.3449
# 698 vertices

vn 0.7034 -0.7107 0.0111
vn 0.6968 -0.7157 0.0483
vn 0.9995 0.0000 0.0315
vn 0.6968 0.7157 0.0483
vn 0.7034 0.7107 0.0111
vn 0.6876 -0.7181 0.1075
vn 0.9943 0.0000 0.1066
vn 0.6876 0.7181 0.1075
vn 0.6681 -0.7215 0.1821
vn 0.9794 0.0000 0.2019
vn 0.6681 0.7215 0.1821
vn 0.6306 -0.7259 0.2744
vn 0.9464 0.0000 0.3229
vn 0.6306 0.7259 0.2744
vn 0.5645 -0.7312 0.3830
vn 0.8813 0.0000 0.4725
vn 0.5645 0.7312 0.3830
vn 0.4597 -0.7361 0.4969
vn 0.7648 0.0000 0.6443
vn 0.4597 0.7361 0.4969
vn 0.3173 -0.7381 0.5954
vn 0.5829 0.0000 0.8125
vn 0.3173 0.7381 0.5954
vn 0.1564 -0.7360 0.6587
vn 0.3495 0.0000 0.9369
vn 0.1564 0.7360 0.6587
vn 0.0071 -0.7300 0.6834
vn 0.1091 0.0000 0.9940
vn 0.0071 0.7300 0.6834
vn -0.1205 -0.7275 0.6755
vn -0.0883 0.0000 0.9961
vn -0.1205 0.7275 0.6755
vn -0.2344 -0.7264 0.6461
vn -0.2615 0.0000 0.9652
vn -0.2344 0.7264 0.6461
vn -0.3344 -0.7244 0.6029
vn -0.4181 0.0000 0.9084
vn -0.3344 0.7244 0.6029
vn -0.4168 -0.7220 0.5523
vn -0.5492 0.0000 0.8357
vn -0.4168 0.7220 0.5523
vn -0.4816 -0.7197 0.5001
vn -0.6530 0.0000 0.7574
vn -0.4816 0.7197 0.5001
vn -0.5314 -0.7177 0.4501
vn -0.7323 0.0000 0.6810
vn -0.5314 0.7177 0.4501
vn -0.5691 -0.7159 0.4044
vn -0.7921 0.0000 0.6104
vn -0.5691 0.7159 0.4044
vn -0.5978 -0.7145 0.3635
vn -0.8370 0.0000 0.5472
vn -0.5978 0.7145 0.3635
vn -0.6189 -0.7121 0.3315
vn -0.8709 0.0000 0.4915
vn -0.6189 0.7121 0.3315
vn -0.6324 -0.7109 0.3076
vn -0.8918 0.0000 0.4525
vn -0.6324 0.7109 0.3076
vn -0.6426 -0.7114 0.2846
vn -0.9065 0.0000 0.4221
vn -0.6426 0.7114 0.2846
vn -0.6530 -0.7119 0.2583
vn -0.9219 0.0000 0.3875
vn -0.6530 0.7119 0.2583
vn -0.6634 -0.7125 0.2283
vn -0.9375 0.0000 0.3480
vn -0.6634 0.7125 0.2283
vn -0.6735 -0.7133 0.1939
vn -0.9531 0.0000 0.3026
vn -0.6735 0.7133 0.1939
vn -0.6828 -0.7141 0.1544
vn -0.9681 0.0000 0.2505
vn -0.6828 0.7141 0.1544
vn -0.6905 -0.7150 0.1092
vn -0.9817 0.0000 0.1905
vn -0.6905 0.7150 0.1092
vn -0.6956 -0.7161 0.0575
vn -0.9926 0.0000 0.1216
vn -0.6956 0.7161 0.0575
vn -0.7020 -0.7120 0.0151
vn -0.9991 0.0000 0.0431
vn -0.7020 0.7120 0.0151
vn -0.5774 -0.5774 0.5774
vn -1.0000 0.0000 -0.0000
vn -0.5774 0.5774 0.5774
vn 0.5774 -0.5774 0.5774
vn 0.0000 0.0000 1.0000
vn 0.5774 0.5774 0.5774
vn 0.7101 -0.7040 -0.0098
vn 1.0000 0.0000 -0.0000
vn 0.7101 0.7040 -0.0098
vn 0.7126 -0.7003 -0.0414
vn 0.9996 0.0000 -0.0277
vn 0.7126 0.7003 -0.0414
vn 0.7093 -0.6995 -0.0874
vn 0.9961 0.0000 -0.0882
vn 0.7093 0.6995 -0.0874
vn 0.7020 -0.6985 -0.1388
vn 0.9877 0.0000 -0.1561
vn 0.7020 0.6985 -0.1388
vn 0.6893 -0.6975 -0.1959
vn 0.9728 0.0000 -0.2316
vn 0.6893 0.6975 -0.1959
vn 0.6696 -0.6965 -0.2580
vn 0.9492 0.0000 -0.3146
vn 0.6696 0.6965 -0.2580
vn 0.6412 -0.6955 -0.3242
vn 0.9148 0.0000 -0.4038
vn 0.6412 0.6955 -0.3242
vn 0.6030 -0.6947 -0.3922
vn 0.8676 0.0000 -0.4973
vn 0.6030 0.6947 -0.3922
vn 0.5543 -0.6941 -0.4594
vn 0.8063 0.0000 -0.5916
vn 0.5543 0.6941 -0.4594
vn 0.4953 -0.6935 -0.5232
vn 0.7309 0.0000 -0.6825
vn 0.4953 0.6935 -0.5232
vn 0.4279 -0.6938 -0.5792
vn 0.6413 0.0000 -0.7673
vn 0.4279 0.6938 -0.5792
vn 0.3580 -0.6949 -0.6236
vn 0.5448 0.0000 -0.8385
vn 0.3580 0.6949 -0.6236
vn 0.2906 -0.6962 -0.6564
vn 0.4495 0.0000 -0.8933
vn 0.2906 0.6962 -0.6564
vn 0.2278 -0.6974 -0.6795
vn 0.3591 0.0000 -0.9333
vn 0.2278 0.6974 -0.6795
vn 0.1709 -0.6985 -0.6949
vn 0.2761 0.0000 -0.9611
vn 0.1709 0.6985 -0.6949
vn 0.1200 -0.6996 -0.7044
vn 0.2012 0.0000 -0.9796
vn 0.1200 0.6996 -0.7044
vn 0.0750 -0.7005 -0.7097
vn 0.1345 0.0000 -0.9909
vn 0.0750 0.7005 -0.7097
vn 0.0354 -0.7013 -0.7120
vn 0.0756 0.0000 -0.9971
vn 0.0354 0.7013 -0.7120
vn -0.0030 -0.7009 -0.7133
vn 0.0236 0.0000 -0.9997
vn -0.0030 0.7009 -0.7133
vn -0.0487 -0.6991 -0.7134
vn -0.0320 0.0000 -0.9995
vn -0.0487 0.6991 -0.7134
vn -0.1048 -0.6977 -0.7087
vn -0.1041 0.0000 -0.9946
vn -0.1048 0.6977 -0.7087
vn -0.1703 -0.6960 -0.6975
vn -0.1883 0.0000 -0.9821
vn -0.1703 0.6960 -0.6975
vn -0.2455 -0.6942 -0.6766
vn -0.2855 0.0000 -0.9584
vn -0.2455 0.6942 -0.6766
vn -0.3290 -0.6923 -0.6422
vn -0.3953 0.0000 -0.9185
vn -0.3290 0.6923 -0.6422
vn -0.4175 -0.6907 -0.5905
vn -0.5146 0.0000 -0.8574
vn -0.4175 0.6907 -0.5905
vn -0.5045 -0.6895 -0.5197
vn -0.6367 0.0000 -0.7711
vn -0.5045 0.6895 -0.5197
vn -0.5820 -0.6892 -0.4317
vn -0.7518 0.0000 -0.6594
vn -0.5820 0.6892 -0.4317
vn -0.7949 -0.5771 0.1874
vn -0.8491 0.0000 -0.5282
vn -0.7949 0.5771 0.1874
vn 0.1885 -0.5775 0.7944
vn -0.5239 0.0000 0.8518
vn 0.1885 0.5775 0.7944
vn 0.5522 -0.7265 0.4090
vn 0.8508 0.0000 0.5255
vn 0.5522 0.7265 0.4090
vn 0.4775 -0.7260 0.4949
vn 0.7508 0.0000 0.6605
vn 0.4775 0.7260 0.4949
vn 0.3949 -0.7245 0.5649
vn 0.6332 0.0000 0.7740
vn 0.3949 0.7245 0.5649
vn 0.3114 -0.7225 0.6172
vn 0.5093 0.0000 0.8606
vn 0.3114 0.7225 0.6172
vn 0.2327 -0.7204 0.6534
vn 0.3895 0.0000 0.9210
vn 0.2327 0.7204 0.6534
vn 0.1618 -0.7184 0.6766
vn 0.2803 0.0000 0.9599
vn 0.1618 0.7184 0.6766
vn 0.0998 -0.7166 0.6903
vn 0.1843 0.0000 0.9829
vn 0.0998 0.7166 0.6903
vn 0.0464 -0.7151 0.6974
vn 0.1016 0.0000 0.9948
vn 0.0464 0.7151 0.6974
vn -0.0110 -0.7178 0.6961
vn 0.0312 0.0000 0.9995
vn -0.0110 0.7178 0.6961
vn -0.0939 -0.7241 0.6833
vn -0.0627 0.0000 0.9980
vn -0.0939 0.7241 0.6833
vn -0.2027 -0.7278 0.6551
vn -0.2089 0.0000 0.9779
vn -0.2027 0.7278 0.6551
vn -0.3231 -0.7311 0.6009
vn -0.3799 0.0000 0.9250
vn -0.3231 0.7311 0.6009
vn -0.4422 -0.7328 0.5171
vn -0.5621 0.0000 0.8271
vn -0.4422 0.7328 0.5171
vn -0.5443 -0.7321 0.4095
vn -0.7299 0.0000 0.6835
vn -0.5443 0.7321 0.4095
vn -0.6186 -0.7293 0.2924
vn -0.8590 0.0000 0.5119
vn -0.6186 0.7293 0.2924
vn -0.6640 -0.7256 0.1805
vn -0.9408 0.0000 0.3389
vn -0.6640 0.7256 0.1805
vn -0.6869 -0.7220 0.0829
vn -0.9829 0.0000 0.1841
vn -0.6869 0.7220 0.0829
vn -0.7005 -0.7134 0.0193
vn -0.9985 0.0000 0.0550
vn -0.7005 0.7134 0.0193
vn -0.0059 -0.9985 -0.0549
vn -0.0059 0.9985 -0.0549
vn 0.6929 -0.6873 -0.2179
vn 0.9772 0.0000 -0.2125
vn 0.6929 0.6873 -0.2179
vn 0.6493 -0.6985 -0.3008
vn 0.9229 0.0000 -0.3850
vn 0.6493 0.6985 -0.3008
vn 0.6269 -0.7024 -0.3372
vn 0.8905 0.0000 -0.4550
vn 0.6269 0.7024 -0.3372
vn 0.6134 -0.7041 -0.3577
vn 0.8705 0.0000 -0.4922
vn 0.6134 0.7041 -0.3577
vn 0.6044 -0.7051 -0.3709
vn 0.8571 0.0000 -0.5152
vn 0.6044 0.7051 -0.3709
vn 0.5981 -0.7056 -0.3801
vn 0.8475 0.0000 -0.5307
vn 0.5981 0.7056 -0.3801
vn 0.5933 -0.7060 -0.3868
vn 0.8404 0.0000 -0.5420
vn 0.5933 0.7060 -0.3868
vn 0.5896 -0.7062 -0.3920
vn 0.8349 0.0000 -0.5504
vn 0.5896 0.7062 -0.3920
vn 0.5846 -0.7044 -0.4026
vn 0.8305 0.0000 -0.5570
vn 0.5846 0.7044 -0.4026
vn 0.5724 -0.7023 -0.4232
vn 0.8166 0.0000 -0.5772
vn 0.5724 0.7023 -0.4232
vn 0.5537 -0.7023 -0.4475
vn 0.7912 0.0000 -0.6116
vn 0.5537 0.7023 -0.4475
vn 0.5337 -0.7022 -0.4712
vn 0.7639 0.0000 -0.6453
vn 0.5337 0.7022 -0.4712
vn 0.5126 -0.7022 -0.4941
vn 0.7350 0.0000 -0.6780
vn 0.5126 0.7022 -0.4941
vn 0.4904 -0.7022 -0.5162
vn 0.7045 0.0000 -0.7097
vn 0.4904 0.7022 -0.5162
vn 0.4673 -0.7022 -0.5372
vn 0.6727 0.0000 -0.7399
vn 0.4673 0.7022 -0.5372
vn 0.4433 -0.7022 -0.5571
vn 0.6396 0.0000 -0.7687
vn 0.4433 0.7022 -0.5571
vn 0.4187 -0.7023 -0.5757
vn 0.6055 0.0000 -0.7959
vn 0.4187 0.7023 -0.5757
vn 0.3913 -0.7012 -0.5960
vn 0.5706 0.0000 -0.8212
vn 0.3913 0.7012 -0.5960
vn 0.3565 -0.7000 -0.6188
vn 0.5266 0.0000 -0.8501
vn 0.3565 0.7000 -0.6188
vn 0.3158 -0.6998 -0.6407
vn 0.4713 0.0000 -0.8820
vn 0.3158 0.6998 -0.6407
vn 0.2729 -0.6997 -0.6603
vn 0.4125 0.0000 -0.9109
vn 0.2729 0.6997 -0.6603
vn 0.2283 -0.6996 -0.6770
vn 0.3511 0.0000 -0.9364
vn 0.2283 0.6996 -0.6770
vn 0.1825 -0.6997 -0.6908
vn 0.2876 0.0000 -0.9578
vn 0.1825 0.6997 -0.6908
vn 0.1362 -0.6997 -0.7013
vn 0.2230 0.0000 -0.9748
vn 0.1362 0.6997 -0.7013
vn 0.0900 -0.6999 -0.7086
vn 0.1580 0.0000 -0.9874
vn 0.0900 0.6999 -0.7086
vn 0.0445 -0.7001 -0.7127
vn 0.0937 0.0000 -0.9956
vn 0.0445 0.7001 -0.7127
vn -0.0161 -0.6954 -0.7185
vn 0.0308 0.0000 -0.9995
vn -0.0161 0.6954 -0.7185
vn -0.1182 -0.6878 -0.7162
vn -0.0754 0.0000 -0.9972
vn -0.1182 0.6878 -0.7162
vn -0.2536 -0.6845 -0.6835
vn -0.2489 0.0000 -0.9685
vn -0.2536 0.6845 -0.6835
vn -0.3958 -0.6825 -0.6144
vn -0.4431 0.0000 -0.8965
vn -0.3958 0.6825 -0.6144
vn -0.5228 -0.6828 -0.5103
vn -0.6330 0.0000 -0.7741
vn -0.5228 0.6828 -0.5103
vn -0.6169 -0.6852 -0.3872
vn -0.7892 0.0000 -0.6141
vn -0.6169 0.6852 -0.3872
vn -0.6747 -0.6886 -0.2658
vn -0.8961 0.0000 -0.4438
vn -0.6747 0.6886 -0.2658
vn -0.7040 -0.6921 -0.1594
vn -0.9580 0.0000 -0.2867
vn -0.7040 0.6921 -0.1594
vn -0.7153 -0.6951 -0.0718
vn -0.9881 0.0000 -0.1538
vn -0.7153 0.6951 -0.0718
vn -0.7163 -0.6978 -0.0028
vn -0.9990 0.0000 -0.0457
vn -0.7163 0.6978 -0.0028
vn -0.7145 -0.6971 0.0594
vn -0.9993 0.0000 0.0378
vn -0.7145 0.6971 0.0594
vn -0.7072 -0.6944 0.1326
vn -0.9918 0.0000 0.1277
vn -0.7072 0.6944 0.1326
vn -0.6871 -0.6910 0.2245
vn -0.9707 0.0000 0.2403
vn -0.6871 0.6910 0.2245
vn -0.6443 -0.6871 0.3358
vn -0.9254 0.0000 0.3791
vn -0.6443 0.6871 0.3358
vn -0.5670 -0.6833 0.4600
vn -0.8409 0.0000 0.5413
vn -0.5670 0.6833 0.4600
vn -0.4484 -0.6810 0.5789
vn -0.7030 0.0000 0.7112
vn -0.4484 0.6810 0.5789
vn -0.2984 -0.6814 0.6683
vn -0.5129 0.0000 0.8584
vn -0.2984 0.6814 0.6683
vn -0.1422 -0.6842 0.7153
vn -0.2967 0.0000 0.9550
vn -0.1422 0.6842 0.7153
vn -0.0124 -0.6909 0.7229
vn -0.0910 0.0000 0.9959
vn -0.0124 0.6909 0.7229
vn 0.0891 -0.6923 0.7161
vn 0.0567 0.0000 0.9984
vn 0.0891 0.6923 0.7161
vn 0.1955 -0.6890 0.6978
vn 0.1896 0.0000 0.9819
vn 0.1955 0.6890 0.6978
vn 0.3187 -0.6858 0.6543
vn 0.3481 0.0000 0.9374
vn 0.3187 0.6858 0.6543
vn 0.4472 -0.6835 0.5769
vn 0.5235 0.0000 0.8520
vn 0.4472 0.6835 0.5769
vn 0.5619 -0.6832 0.4664
vn 0.6946 0.0000 0.7194
vn 0.5619 0.6832 0.4664
vn 0.6460 -0.6849 0.3370
vn 0.8350 0.0000 0.5503
vn 0.6460 0.6849 0.3370
vn 0.6951 -0.6880 0.2087
vn 0.9290 0.0000 0.3701
vn 0.6951 0.6880 0.2087
vn 0.7162 -0.6913 0.0955
vn 0.9792 0.0000 0.2028
vn 0.7162 0.6913 0.0955
vn 0.7213 -0.6926 -0.0036
vn 0.9981 0.0000 0.0608
vn 0.7213 0.6926 -0.0036
vn 0.7163 -0.6890 -0.1108
vn 0.9975 0.0000 -0.0707
vn 0.7163 0.6890 -0.1108
vn 0.6875 -0.6856 -0.2393
vn 0.9722 0.0000 -0.2341
vn 0.6875 0.6856 -0.2393
vn 0.6249 -0.6832 -0.3778
vn 0.9074 0.0000 -0.4202
vn 0.6249 0.6832 -0.3778
vn 0.5266 -0.6828 -0.5064
vn 0.7938 0.0000 -0.6082
vn 0.5266 0.6828 -0.5064
vn 0.4053 -0.6846 -0.6058
vn 0.6389 0.0000 -0.7693
vn 0.4053 0.6846 -0.6058
vn 0.2811 -0.6877 -0.6693
vn 0.4673 0.0000 -0.8841
vn 0.2811 0.6877 -0.6693
vn 0.1696 -0.6912 -0.7025
vn 0.3043 0.0000 -0.9526
vn 0.1696 0.6912 -0.7025
vn 0.0766 -0.6943 -0.7156
vn 0.1639 0.0000 -0.9865
vn 0.0766 0.6943 -0.7156
vn 0.3175 -0.8988 -0.3024
vn 0.0488 0.0000 -0.9988
vn 0.3175 0.8988 -0.3024
vn -0.0882 -0.7230 0.6852
vn -0.1914 -0.7267 0.6598
vn -0.1961 0.0000 0.9806
vn -0.1914 0.7267 0.6598
vn -0.0882 0.7230 0.6852
vn -0.3076 -0.7302 0.6101
vn -0.3590 0.0000 0.9333
vn -0.3076 0.7302 0.6101
vn -0.4260 -0.7325 0.5310
vn -0.5369 0.0000 0.8437
vn -0.4260 0.7325 0.5310
vn -0.5310 -0.7325 0.4260
vn -0.7071 0.0000 0.7071
vn -0.5310 0.7325 0.4260
vn -0.6101 -0.7302 0.3076
vn -0.8436 0.0000 0.5369
vn -0.6101 0.7302 0.3076
vn -0.6598 -0.7267 0.1913
vn -0.9334 0.0000 0.3590
vn -0.6598 0.7267 0.1913
vn -0.6852 -0.7230 0.0882
vn -0.9806 0.0000 0.1961
vn -0.6852 0.7230 0.0882
vn -0.6935 -0.7205 0.0003
vn -0.9983 0.0000 0.0587
vn -0.6935 0.7205 0.0003
vn -0.6856 -0.7228 -0.0870
vn -0.9983 0.0000 -0.0578
vn -0.6856 0.7228 -0.0870
vn -0.6608 -0.7264 -0.1888
vn -0.9811 0.0000 -0.1933
vn -0.6608 0.7264 -0.1888
vn -0.6121 -0.7300 -0.3041
vn -0.9351 0.0000 -0.3543
vn -0.6121 0.7300 -0.3041
vn -0.5341 -0.7324 -0.4222
vn -0.8473 0.0000 -0.5312
vn -0.5341 0.7324 -0.4222
vn -0.4297 -0.7326 -0.5279
vn -0.7124 0.0000 -0.7018
vn -0.4297 0.7326 -0.5279
vn -0.3111 -0.7304 -0.6080
vn -0.5426 0.0000 -0.8400
vn -0.3111 0.7304 -0.6080
vn -0.1939 -0.7270 -0.6587
vn -0.3637 0.0000 -0.9315
vn -0.1939 0.7270 -0.6587
vn -0.0895 -0.7233 -0.6847
vn -0.1990 0.0000 -0.9800
vn -0.0895 0.7233 -0.6847
vn -0.0003 -0.7207 -0.6933
vn -0.0596 0.0000 -0.9982
vn -0.0003 0.7207 -0.6933
vn 0.0882 -0.7230 -0.6852
vn 0.0587 0.0000 -0.9983
vn 0.0882 0.7230 -0.6852
vn 0.1913 -0.7267 -0.6598
vn 0.1961 0.0000 -0.9806
vn 0.1913 0.7267 -0.6598
vn 0.3076 -0.7302 -0.6101
vn 0.3590 0.0000 -0.9333
vn 0.3076 0.7302 -0.6101
vn 0.4260 -0.7325 -0.5310
vn 0.5369 0.0000 -0.8437
vn 0.4260 0.7325 -0.5310
vn 0.5310 -0.7325 -0.4260
vn 0.7071 0.0000 -0.7071
vn 0.5310 0.7325 -0.4260
vn 0.6101 -0.7302 -0.3076
vn 0.8437 0.0000 -0.5369
vn 0.6101 0.7302 -0.3076
vn 0.6598 -0.7267 -0.1914
vn 0.9333 0.0000 -0.3590
vn 0.6598 0.7267 -0.1914
vn 0.6852 -0.7230 -0.0882
vn 0.9806 0.0000 -0.1961
vn 0.6852 0.7230 -0.0882
vn 0.6933 -0.7207 0.0003
vn 0.9983 0.0000 -0.0587
vn 0.6933 0.7207 0.0003
vn 0.6847 -0.7233 0.0895
vn 0.9982 0.0000 0.0596
vn 0.6847 0.7233 0.0895
vn 0.6587 -0.7270 0.1939
vn 0.9800 0.0000 0.1990
vn 0.6587 0.7270 0.1939
vn 0.6080 -0.7304 0.3111
vn 0.9315 0.0000 0.3637
vn 0.6080 0.7304 0.3111
vn 0.5279 -0.7326 0.4297
vn 0.8400 0.0000 0.5426
vn 0.5279 0.7326 0.4297
vn 0.4222 -0.7324 0.5341
vn 0.7018 0.0000 0.7124
vn 0.4222 0.7324 0.5341
vn 0.3041 -0.7300 0.6121
vn 0.5311 0.0000 0.8473
vn 0.3041 0.7300 0.6121
vn 0.1888 -0.7264 0.6608
vn 0.3543 0.0000 0.9351
vn 0.1888 0.7264 0.6608
vn 0.0870 -0.7228 0.6856
vn 0.1933 0.0000 0.9811
vn 0.0870 0.7228 0.6856
vn -0.0003 -0.7205 0.6935
vn 0.0579 0.0000 0.9983
vn -0.0003 0.7205 0.6935
vn -0.0587 0.0000 0.9983
vn 0.0000 -1.0000 -0.0000
vn 0.0000 1.0000 -0.0000
# 531 vertex normals

o Lo_Ling
g Lo_Ling
s 1
f 1//1 2//2 3//3 
f 2//2 4//4 3//3 
f 4//4 5//5 3//3 
f 5//5 1//1 3//3 
s 3
f 2//2 6//6 7//7 
f 6//6 8//8 7//7 
f 8//8 4//4 7//7 
f 4//4 2//2 7//7 
s 2
f 6//6 9//9 10//10 
f 9//9 11//11 10//10 
f 11//11 8//8 10//10 
f 8//8 6//6 10//10 
f 9//9 12//12 13//13 
f 12//12 14//14 13//13 
f 14//14 11//11 13//13 
f 11//11 9//9 13//13 
f 12//12 15//15 16//16 
f 15//15 17//17 16//16 
f 17//17 14//14 16//16 
f 14//14 12//12 16//16 
f 15//15 18//18 19//19 
f 18//18 20//20 19//19 
f 20//20 17//17 19//19 
f 17//17 15//15 19//19 
f 18//18 21//21 22//22 
f 21//21 23//23 22//22 
f 23//23 20//20 22//22 
f 20//20 18//18 22//22 
f 21//21 24//24 25//25 
f 24//24 26//26 25//25 
f 26//26 23//23 25//25 
f 23//23 21//21 25//25 
f 24//24 27//27 28//28 
f 27//27 29//29 28//28 
f 29//29 26//26 28//28 
f 26//26 24//24 28//28 
f 27//27 30//30 31//31 
f 30//30 32//32 31//31 
f 32//32 29//29 31//31 
f 29//29 27//27 31//31 
f 30//30 33//33 34//34 
f 33//33 35//35 34//34 
f 35//35 32//32 34//34 
f 32//32 30//30 34//34 
f 33//33 36//36 37//37 
f 36//36 38//38 37//37 
f 38//38 35//35 37//37 
f 35//35 33//33 37//37 
f 36//36 39//39 40//40 
f 39//39 41//41 40//40 
f 41//41 38//38 40//40 
f 38//38 36//36 40//40 
f 39//39 42//42 43//43 
f 42//42 44//44 43//43 
f 44//44 41//41 43//43 
f 41//41 39//39 43//43 
f 42//42 45//45 46//46 
f 45//45 47//47 46//46 
f 47//47 44//44 46//46 
f 44//44 42//42 46//46 
f 45//45 48//48 49//49 
f 48//48 50//50 49//49 
f 50//50 47//47 49//49 
f 47//47 45//45 49//49 
f 48//48 51//51 52//52 
f 51//51 53//53 52//52 
f 53//53 50//50 52//52 
f 50//50 48//48 52//52 
f 51//51 54//54 55//55 
f 54//54 56//56 55//55 
f 56//56 53//53 55//55 
f 53//53 51//51 55//55 
f 54//54 57//57 58//58 
f 57//57 59//59 58//58 
f 59//59 56//56 58//58 
f 56//56 54//54 58//58 
f 57//57 60//60 61//61 
f 60//60 62//62 61//61 
f 62//62 59//59 61//61 
f 59//59 57//57 61//61 
f 60//60 63//63 64//64 
f 63//63 65//65 64//64 
f 65//65 62//62 64//64 
f 62//62 60//60 64//64 
f 63//63 66//66 67//67 
f 66//66 68//68 67//67 
f 68//68 65//65 67//67 
f 65//65 63//63 67//67 
f 66//66 69//69 70//70 
f 69//69 71//71 70//70 
f 71//71 68//68 70//70 
f 68//68 66//66 70//70 
f 69//69 72//72 73//73 
f 72//72 74//74 73//73 
f 74//74 71//71 73//73 
f 71//71 69//69 73//73 
f 72//72 75//75 76//76 
f 75//75 77//77 76//76 
f 77//77 74//74 76//76 
f 74//74 72//72 76//76 
f 75//75 78//78 79//79 
f 78//78 80//80 79//79 
f 80//80 77//77 79//79 
f 77//77 75//75 79//79 
f 78//78 81//81 82//82 
f 81//81 83//83 82//82 
f 83//83 80//80 82//82 
f 80//80 78//78 82//82 
s 4
f 81//81 84//84 85//85 
f 84//84 86//86 85//85 
f 86//86 83//83 85//85 
f 83//83 81//81 85//85 
s 2
f 84//84 87//87 88//88 
f 87//87 89//89 88//88 
f 89//89 86//86 88//88 
f 86//86 84//84 88//88 
s 4
f 87//87 90//90 91//91 
f 90//90 92//92 91//91 
f 92//92 89//89 91//91 
f 89//89 87//87 91//91 
s 2
f 90//90 93//93 94//94 
f 93//93 95//95 94//94 
f 95//95 92//92 94//94 
f 92//92 90//90 94//94 
f 93//93 96//96 97//97 
f 96//96 98//98 97//97 
f 98//98 95//95 97//97 
f 95//95 93//93 97//97 
f 96//96 99//99 100//100 
f 99//99 101//101 100//100 
f 101//101 98//98 100//100 
f 98//98 96//96 100//100 
f 99//99 102//102 103//103 
f 102//102 104//104 103//103 
f 104//104 101//101 103//103 
f 101//101 99//99 103//103 
f 102//102 105//105 106//106 
f 105//105 107//107 106//106 
f 107//107 104//104 106//106 
f 104//104 102//102 106//106 
f 105//105 108//108 109//109 
f 108//108 110//110 109//109 
f 110//110 107//107 109//109 
f 107//107 105//105 109//109 
f 108//108 111//111 112//112 
f 111//111 113//113 112//112 
f 113//113 110//110 112//112 
f 110//110 108//108 112//112 
f 111//111 114//114 115//115 
f 114//114 116//116 115//115 
f 116//116 113//113 115//115 
f 113//113 111//111 115//115 
f 114//114 117//117 118//118 
f 117//117 119//119 118//118 
f 119//119 116//116 118//118 
f 116//116 114//114 118//118 
f 117//117 120//120 121//121 
f 120//120 122//122 121//121 
f 122//122 119//119 121//121 
f 119//119 117//117 121//121 
f 120//120 123//123 124//124 
f 123//123 125//125 124//124 
f 125//125 122//122 124//124 
f 122//122 120//120 124//124 
f 123//123 126//126 127//127 
f 126//126 128//128 127//127 
f 128//128 125//125 127//127 
f 125//125 123//123 127//127 
f 126//126 129//129 130//130 
f 129//129 131//131 130//130 
f 131//131 128//128 130//130 
f 128//128 126//126 130//130 
f 129//129 132//132 133//133 
f 132//132 134//134 133//133 
f 134//134 131//131 133//133 
f 131//131 129//129 133//133 
f 132//132 135//135 136//136 
f 135//135 137//137 136//136 
f 137//137 134//134 136//136 
f 134//134 132//132 136//136 
f 135//135 138//138 139//139 
f 138//138 140//140 139//139 
f 140//140 137//137 139//139 
f 137//137 135//135 139//139 
f 138//138 141//141 142//142 
f 141//141 143//143 142//142 
f 143//143 140//140 142//142 
f 140//140 138//138 142//142 
f 141//141 144//144 145//145 
f 144//144 146//146 145//145 
f 146//146 143//143 145//145 
f 143//143 141//141 145//145 
f 144//144 147//147 148//148 
f 147//147 149//149 148//148 
f 149//149 146//146 148//148 
f 146//146 144//144 148//148 
f 147//147 150//150 151//151 
f 150//150 152//152 151//151 
f 152//152 149//149 151//151 
f 149//149 147//147 151//151 
f 150//150 153//153 154//154 
f 153//153 155//155 154//154 
f 155//155 152//152 154//154 
f 152//152 150//150 154//154 
f 153//153 156//156 157//157 
f 156//156 158//158 157//157 
f 158//158 155//155 157//157 
f 155//155 153//153 157//157 
f 156//156 159//159 160//160 
f 159//159 161//161 160//160 
f 161//161 158//158 160//160 
f 158//158 156//156 160//160 
f 159//159 162//162 163//163 
f 162//162 164//164 163//163 
f 164//164 161//161 163//163 
f 161//161 159//159 163//163 
f 162//162 165//165 166//166 
f 165//165 167//167 166//166 
f 167//167 164//164 166//166 
f 164//164 162//162 166//166 
f 165//165 168//168 169//169 
f 168//168 170//170 169//169 
f 170//170 167//167 169//169 
f 167//167 165//165 169//169 
f 168//168 171//171 172//172 
f 171//171 173//173 172//172 
f 173//173 170//170 172//172 
f 170//170 168//168 172//172 
s 4
f 171//171 174//174 175//175 
f 174//174 176//176 175//175 
f 176//176 173//173 175//175 
f 173//173 171//171 175//175 
s 2
f 174//174 177//177 178//178 
f 177//177 179//179 178//178 
f 179//179 176//176 178//178 
f 176//176 174//174 178//178 
f 177//177 180//180 181//181 
f 180//180 182//182 181//181 
f 182//182 179//179 181//181 
f 179//179 177//177 181//181 
f 180//180 183//183 184//184 
f 183//183 185//185 184//184 
f 185//185 182//182 184//184 
f 182//182 180//180 184//184 
f 183//183 186//186 187//187 
f 186//186 188//188 187//187 
f 188//188 185//185 187//187 
f 185//185 183//183 187//187 
f 186//186 189//189 190//190 
f 189//189 191//191 190//190 
f 191//191 188//188 190//190 
f 188//188 186//186 190//190 
f 189//189 192//192 193//193 
f 192//192 194//194 193//193 
f 194//194 191//191 193//193 
f 191//191 189//189 193//193 
f 192//192 195//195 196//196 
f 195//195 197//197 196//196 
f 197//197 194//194 196//196 
f 194//194 192//192 196//196 
f 195//195 198//198 199//199 
f 198//198 200//200 199//199 
f 200//200 197//197 199//199 
f 197//197 195//195 199//199 
f 198//198 201//201 202//202 
f 201//201 203//203 202//202 
f 203//203 200//200 202//202 
f 200//200 198//198 202//202 
f 201//201 204//204 205//205 
f 204//204 206//206 205//205 
f 206//206 203//203 205//205 
f 203//203 201//201 205//205 
f 204//204 207//207 208//208 
f 207//207 209//209 208//208 
f 209//209 206//206 208//208 
f 206//206 204//204 208//208 
f 207//207 210//210 211//211 
f 210//210 212//212 211//211 
f 212//212 209//209 211//211 
f 209//209 207//207 211//211 
f 210//210 213//213 214//214 
f 213//213 215//215 214//214 
f 215//215 212//212 214//214 
f 212//212 210//210 214//214 
f 213//213 216//216 217//217 
f 216//216 218//218 217//217 
f 218//218 215//215 217//217 
f 215//215 213//213 217//217 
f 216//216 219//219 220//220 
f 219//219 221//221 220//220 
f 221//221 218//218 220//220 
f 218//218 216//216 220//220 
f 219//219 222//222 223//223 
f 222//222 224//224 223//223 
f 224//224 221//221 223//223 
f 221//221 219//219 223//223 
f 222//222 225//225 226//226 
f 225//225 227//227 226//226 
f 227//227 224//224 226//226 
f 224//224 222//222 226//226 
f 225//225 228//228 229//229 
f 228//228 230//230 229//229 
f 230//230 227//227 229//229 
f 227//227 225//225 229//229 
s 4
f 228//228 231//231 232//85 
f 231//231 233//232 232//85 
f 233//232 230//230 232//85 
f 230//230 228//228 232//85 
s 2
f 231//231 234//233 235//234 
f 234//233 236//235 235//234 
f 236//235 233//232 235//234 
f 233//232 231//231 235//234 
f 234//233 237//236 238//237 
f 237//236 239//238 238//237 
f 239//238 236//235 238//237 
f 236//235 234//233 238//237 
f 237//236 240//239 241//240 
f 240//239 242//241 241//240 
f 242//241 239//238 241//240 
f 239//238 237//236 241//240 
f 240//239 243//242 244//243 
f 243//242 245//244 244//243 
f 245//244 242//241 244//243 
f 242//241 240//239 244//243 
f 243//242 246//245 247//246 
f 246//245 248//247 247//246 
f 248//247 245//244 247//246 
f 245//244 243//242 247//246 
f 246//245 249//248 250//249 
f 249//248 251//250 250//249 
f 251//250 248//247 250//249 
f 248//247 246//245 250//249 
f 249//248 252//251 253//252 
f 252//251 254//253 253//252 
f 254//253 251//250 253//252 
f 251//250 249//248 253//252 
f 252//251 255//254 256//255 
f 255//254 257//256 256//255 
f 257//256 254//253 256//255 
f 254//253 252//251 256//255 
f 255//254 258//257 259//258 
f 258//257 260//259 259//258 
f 260//259 257//256 259//258 
f 257//256 255//254 259//258 
f 258//257 261//260 262//261 
f 261//260 263//262 262//261 
f 263//262 260//259 262//261 
f 260//259 258//257 262//261 
f 261//260 264//263 265//264 
f 264//263 266//265 265//264 
f 266//265 263//262 265//264 
f 263//262 261//260 265//264 
f 264//263 267//266 268//267 
f 267//266 269//268 268//267 
f 269//268 266//265 268//267 
f 266//265 264//263 268//267 
f 267//266 270//269 271//270 
f 270//269 272//271 271//270 
f 272//271 269//268 271//270 
f 269//268 267//266 271//270 
f 270//269 273//272 274//273 
f 273//272 275//274 274//273 
f 275//274 272//271 274//273 
f 272//271 270//269 274//273 
f 273//272 276//275 277//276 
f 276//275 278//277 277//276 
f 278//277 275//274 277//276 
f 275//274 273//272 277//276 
f 276//275 279//278 280//279 
f 279//278 281//280 280//279 
f 281//280 278//277 280//279 
f 278//277 276//275 280//279 
f 279//278 282//281 283//282 
f 282//281 284//283 283//282 
f 284//283 281//280 283//282 
f 281//280 279//278 283//282 
f 282//281 285//284 286//285 
f 285//284 287//286 286//285 
f 287//286 284//283 286//285 
f 284//283 282//281 286//285 
f 285//284 288//287 289//288 
f 288//287 290//289 289//288 
f 290//289 287//286 289//288 
f 287//286 285//284 289//288 
f 288//287 291//290 292//291 
f 291//290 293//292 292//291 
f 293//292 290//289 292//291 
f 290//289 288//287 292//291 
f 291//290 294//293 295//294 
f 294//293 296//295 295//294 
f 296//295 293//292 295//294 
f 293//292 291//290 295//294 
f 294//293 297//296 298//297 
f 297//296 299//298 298//297 
f 299//298 296//295 298//297 
f 296//295 294//293 298//297 
f 297//296 300//299 301//300 
f 300//299 302//301 301//300 
f 302//301 299//298 301//300 
f 299//298 297//296 301//300 
f 300//299 303//302 304//303 
f 303//302 305//304 304//303 
f 305//304 302//301 304//303 
f 302//301 300//299 304//303 
f 303//302 306//305 307//306 
f 306//305 308//307 307//306 
f 308//307 305//304 307//306 
f 305//304 303//302 307//306 
f 306//305 309//308 310//309 
f 309//308 311//310 310//309 
f 311//310 308//307 310//309 
f 308//307 306//305 310//309 
f 309//308 312//311 313//312 
f 312//311 314//313 313//312 
f 314//313 311//310 313//312 
f 311//310 309//308 313//312 
f 312//311 315//314 316//315 
f 315//314 317//316 316//315 
f 317//316 314//313 316//315 
f 314//313 312//311 316//315 
f 315//314 318//317 319//318 
f 318//317 320//319 319//318 
f 320//319 317//316 319//318 
f 317//316 315//314 319//318 
f 318//317 321//320 322//321 
f 321//320 323//322 322//321 
f 323//322 320//319 322//321 
f 320//319 318//317 322//321 
f 321//320 324//323 325//324 
f 324//323 326//325 325//324 
f 326//325 323//322 325//324 
f 323//322 321//320 325//324 
f 324//323 327//326 328//327 
f 327//326 329//328 328//327 
f 329//328 326//325 328//327 
f 326//325 324//323 328//327 
f 327//326 330//329 331//330 
f 330//329 332//331 331//330 
f 332//331 329//328 331//330 
f 329//328 327//326 331//330 
f 330//329 333//332 334//333 
f 333//332 335//334 334//333 
f 335//334 332//331 334//333 
f 332//331 330//329 334//333 
f 333//332 336//335 337//336 
f 336//335 338//337 337//336 
f 338//337 335//334 337//336 
f 335//334 333//332 337//336 
f 336//335 339//338 340//339 
f 339//338 341//340 340//339 
f 341//340 338//337 340//339 
f 338//337 336//335 340//339 
f 339//338 342//341 343//342 
f 342//341 344//343 343//342 
f 344//343 341//340 343//342 
f 341//340 339//338 343//342 
f 342//341 345//344 346//345 
f 345//344 347//346 346//345 
f 347//346 344//343 346//345 
f 344//343 342//341 346//345 
f 345//344 348//347 349//348 
f 348//347 350//349 349//348 
f 350//349 347//346 349//348 
f 347//346 345//344 349//348 
f 348//347 351//350 352//351 
f 351//350 353//352 352//351 
f 353//352 350//349 352//351 
f 350//349 348//347 352//351 
f 351//350 354//353 355//354 
f 354//353 356//355 355//354 
f 356//355 353//352 355//354 
f 353//352 351//350 355//354 
f 354//353 357//356 358//357 
f 357//356 359//358 358//357 
f 359//358 356//355 358//357 
f 356//355 354//353 358//357 
f 357//356 360//359 361//360 
f 360//359 362//361 361//360 
f 362//361 359//358 361//360 
f 359//358 357//356 361//360 
f 360//359 363//362 364//363 
f 363//362 365//364 364//363 
f 365//364 362//361 364//363 
f 362//361 360//359 364//363 
f 363//362 366//365 367//366 
f 366//365 368//367 367//366 
f 368//367 365//364 367//366 
f 365//364 363//362 367//366 
f 366//365 369//368 370//369 
f 369//368 371//370 370//369 
f 371//370 368//367 370//369 
f 368//367 366//365 370//369 
f 369//368 372//371 373//372 
f 372//371 374//373 373//372 
f 374//373 371//370 373//372 
f 371//370 369//368 373//372 
f 372//371 375//374 376//375 
f 375//374 377//376 376//375 
f 377//376 374//373 376//375 
f 374//373 372//371 376//375 
f 375//374 378//377 379//378 
f 378//377 380//379 379//378 
f 380//379 377//376 379//378 
f 377//376 375//374 379//378 
f 378//377 381//380 382//381 
f 381//380 383//382 382//381 
f 383//382 380//379 382//381 
f 380//379 378//377 382//381 
f 381//380 384//383 385//384 
f 384//383 386//385 385//384 
f 386//385 383//382 385//384 
f 383//382 381//380 385//384 
f 384//383 387//386 388//387 
f 387//386 389//388 388//387 
f 389//388 386//385 388//387 
f 386//385 384//383 388//387 
f 387//386 390//389 391//390 
f 390//389 392//391 391//390 
f 392//391 389//388 391//390 
f 389//388 387//386 391//390 
f 390//389 393//392 394//393 
f 393//392 395//394 394//393 
f 395//394 392//391 394//393 
f 392//391 390//389 394//393 
f 393//392 396//395 397//396 
f 396//395 398//397 397//396 
f 398//397 395//394 397//396 
f 395//394 393//392 397//396 
f 396//395 399//398 400//399 
f 399//398 401//400 400//399 
f 401//400 398//397 400//399 
f 398//397 396//395 400//399 
f 399//398 402//401 403//402 
f 402//401 404//403 403//402 
f 404//403 401//400 403//402 
f 401//400 399//398 403//402 
f 402//401 405//404 406//405 
f 405//404 407//406 406//405 
f 407//406 404//403 406//405 
f 404//403 402//401 406//405 
f 405//404 408//407 409//408 
f 408//407 410//409 409//408 
f 410//409 407//406 409//408 
f 407//406 405//404 409//408 
f 408//407 411//410 412//411 
f 411//410 413//412 412//411 
f 413//412 410//409 412//411 
f 410//409 408//407 412//411 
f 411//410 414//413 415//414 
f 414//413 416//415 415//414 
f 416//415 413//412 415//414 
f 413//412 411//410 415//414 
f 414//413 417//416 418//417 
f 417//416 419//418 418//417 
f 419//418 416//415 418//417 
f 416//415 414//413 418//417 
f 417//416 420//419 421//420 
f 420//419 422//421 421//420 
f 422//421 419//418 421//420 
f 419//418 417//416 421//420 
s 4
f 420//419 1//1 423//91 
f 1//1 5//5 423//91 
f 5//5 422//421 423//91 
f 422//421 420//419 423//91 
s 1
f 424//422 425//423 426//424 
f 425//423 427//425 426//424 
f 427//425 428//426 426//424 
f 428//426 424//422 426//424 
s 3
f 425//423 429//427 430//428 
f 429//427 431//429 430//428 
f 431//429 427//425 430//428 
f 427//425 425//423 430//428 
s 2
f 429//427 432//430 433//431 
f 432//430 434//432 433//431 
f 434//432 431//429 433//431 
f 431//429 429//427 433//431 
f 432//430 435//433 436//434 
f 435//433 437//435 436//434 
f 437//435 434//432 436//434 
f 434//432 432//430 436//434 
f 435//433 438//436 439//437 
f 438//436 440//438 439//437 
f 440//438 437//435 439//437 
f 437//435 435//433 439//437 
f 438//436 441//439 442//440 
f 441//439 443//441 442//440 
f 443//441 440//438 442//440 
f 440//438 438//436 442//440 
f 441//439 444//442 445//443 
f 444//442 446//444 445//443 
f 446//444 443//441 445//443 
f 443//441 441//439 445//443 
f 444//442 447//445 448//446 
f 447//445 449//447 448//446 
f 449//447 446//444 448//446 
f 446//444 444//442 448//446 
f 447//445 450//448 451//449 
f 450//448 452//450 451//449 
f 452//450 449//447 451//449 
f 449//447 447//445 451//449 
f 450//448 453//451 454//452 
f 453//451 455//453 454//452 
f 455//453 452//450 454//452 
f 452//450 450//448 454//452 
f 453//451 456//454 457//455 
f 456//454 458//456 457//455 
f 458//456 455//453 457//455 
f 455//453 453//451 457//455 
f 456//454 459//457 460//458 
f 459//457 461//459 460//458 
f 461//459 458//456 460//458 
f 458//456 456//454 460//458 
f 459//457 462//460 463//461 
f 462//460 464//462 463//461 
f 464//462 461//459 463//461 
f 461//459 459//457 463//461 
f 462//460 465//463 466//464 
f 465//463 467//465 466//464 
f 467//465 464//462 466//464 
f 464//462 462//460 466//464 
f 465//463 468//466 469//467 
f 468//466 470//468 469//467 
f 470//468 467//465 469//467 
f 467//465 465//463 469//467 
f 468//466 471//469 472//470 
f 471//469 473//471 472//470 
f 473//471 470//468 472//470 
f 470//468 468//466 472//470 
f 471//469 474//472 475//473 
f 474//472 476//474 475//473 
f 476//474 473//471 475//473 
f 473//471 471//469 475//473 
f 474//472 477//475 478//476 
f 477//475 479//477 478//476 
f 479//477 476//474 478//476 
f 476//474 474//472 478//476 
f 477//475 480//478 481//479 
f 480//478 482//480 481//479 
f 482//480 479//477 481//479 
f 479//477 477//475 481//479 
f 480//478 483//481 484//482 
f 483//481 485//483 484//482 
f 485//483 482//480 484//482 
f 482//480 480//478 484//482 
f 483//481 486//484 487//485 
f 486//484 488//486 487//485 
f 488//486 485//483 487//485 
f 485//483 483//481 487//485 
f 486//484 489//487 490//488 
f 489//487 491//489 490//488 
f 491//489 488//486 490//488 
f 488//486 486//484 490//488 
f 489//487 492//490 493//491 
f 492//490 494//492 493//491 
f 494//492 491//489 493//491 
f 491//489 489//487 493//491 
f 492//490 495//493 496//494 
f 495//493 497//495 496//494 
f 497//495 494//492 496//494 
f 494//492 492//490 496//494 
f 495//493 498//496 499//497 
f 498//496 500//498 499//497 
f 500//498 497//495 499//497 
f 497//495 495//493 499//497 
f 498//496 501//499 502//500 
f 501//499 503//501 502//500 
f 503//501 500//498 502//500 
f 500//498 498//496 502//500 
f 501//499 504//502 505//503 
f 504//502 506//504 505//503 
f 506//504 503//501 505//503 
f 503//501 501//499 505//503 
f 504//502 507//505 508//506 
f 507//505 509//507 508//506 
f 509//507 506//504 508//506 
f 506//504 504//502 508//506 
f 507//505 510//508 511//509 
f 510//508 512//510 511//509 
f 512//510 509//507 511//509 
f 509//507 507//505 511//509 
f 510//508 513//511 514//512 
f 513//511 515//513 514//512 
f 515//513 512//510 514//512 
f 512//510 510//508 514//512 
f 513//511 516//514 517//515 
f 516//514 518//516 517//515 
f 518//516 515//513 517//515 
f 515//513 513//511 517//515 
f 516//514 519//517 520//518 
f 519//517 521//519 520//518 
f 521//519 518//516 520//518 
f 518//516 516//514 520//518 
f 519//517 522//520 523//521 
f 522//520 524//522 523//521 
f 524//522 521//519 523//521 
f 521//519 519//517 523//521 
f 522//520 525//523 526//524 
f 525//523 527//525 526//524 
f 527//525 524//522 526//524 
f 524//522 522//520 526//524 
f 525//523 528//526 529//527 
f 528//526 530//528 529//527 
f 530//528 527//525 529//527 
f 527//525 525//523 529//527 
s 3
f 528//526 424//422 531//529 
f 424//422 428//426 531//529 
f 428//426 530//528 531//529 
f 530//528 528//526 531//529 
s 16
f 90//90 87//87 532//530 
f 87//87 84//84 532//530 
f 84//84 81//81 532//530 
f 81//81 90//90 532//530 
f 170//170 173//173 533//531 
f 173//173 176//176 533//531 
f 176//176 179//179 533//531 
f 179//179 170//170 533//531 
f 81//81 78//78 534//530 
f 78//78 90//90 534//530 
f 90//90 81//81 534//530 
f 78//78 75//75 535//530 
f 75//75 90//90 535//530 
f 90//90 78//78 535//530 
f 75//75 72//72 536//530 
f 72//72 90//90 536//530 
f 90//90 75//75 536//530 
f 72//72 69//69 537//530 
f 69//69 90//90 537//530 
f 90//90 72//72 537//530 
f 69//69 66//66 538//530 
f 66//66 90//90 538//530 
f 90//90 69//69 538//530 
f 66//66 63//63 539//530 
f 63//63 90//90 539//530 
f 90//90 66//66 539//530 
f 63//63 60//60 540//530 
f 60//60 90//90 540//530 
f 90//90 63//63 540//530 
f 60//60 57//57 541//530 
f 57//57 90//90 541//530 
f 90//90 60//60 541//530 
f 57//57 54//54 542//530 
f 54//54 90//90 542//530 
f 90//90 57//57 542//530 
f 54//54 51//51 543//530 
f 51//51 246//245 543//530 
f 246//245 243//242 543//530 
f 243//242 240//239 543//530 
f 240//239 237//236 543//530 
f 237//236 234//233 543//530 
f 234//233 231//231 543//530 
f 231//231 54//54 543//530 
f 51//51 48//48 544//530 
f 48//48 258//257 544//530 
f 258//257 255//254 544//530 
f 255//254 252//251 544//530 
f 252//251 249//248 544//530 
f 249//248 246//245 544//530 
f 246//245 51//51 544//530 
f 231//231 90//90 545//530 
f 90//90 54//54 545//530 
f 54//54 231//231 545//530 
f 231//231 228//228 546//530 
f 228//228 93//93 546//530 
f 93//93 90//90 546//530 
f 90//90 231//231 546//530 
f 228//228 225//225 547//530 
f 225//225 99//99 547//530 
f 99//99 96//96 547//530 
f 96//96 93//93 547//530 
f 93//93 228//228 547//530 
f 225//225 222//222 548//530 
f 222//222 102//102 548//530 
f 102//102 99//99 548//530 
f 99//99 225//225 548//530 
f 222//222 219//219 549//530 
f 219//219 111//111 549//530 
f 111//111 108//108 549//530 
f 108//108 105//105 549//530 
f 105//105 102//102 549//530 
f 102//102 222//222 549//530 
f 219//219 216//216 550//530 
f 216//216 117//117 550//530 
f 117//117 114//114 550//530 
f 114//114 111//111 550//530 
f 111//111 219//219 550//530 
f 216//216 213//213 551//530 
f 213//213 123//123 551//530 
f 123//123 120//120 551//530 
f 120//120 117//117 551//530 
f 117//117 216//216 551//530 
f 213//213 210//210 552//530 
f 210//210 129//129 552//530 
f 129//129 126//126 552//530 
f 126//126 123//123 552//530 
f 123//123 213//213 552//530 
f 210//210 207//207 553//530 
f 207//207 135//135 553//530 
f 135//135 132//132 553//530 
f 132//132 129//129 553//530 
f 129//129 210//210 553//530 
f 207//207 204//204 554//530 
f 204//204 138//138 554//530 
f 138//138 135//135 554//530 
f 135//135 207//207 554//530 
f 204//204 201//201 555//530 
f 201//201 144//144 555//530 
f 144//144 141//141 555//530 
f 141//141 138//138 555//530 
f 138//138 204//204 555//530 
f 201//201 198//198 556//530 
f 198//198 147//147 556//530 
f 147//147 144//144 556//530 
f 144//144 201//201 556//530 
f 198//198 195//195 557//530 
f 195//195 150//150 557//530 
f 150//150 147//147 557//530 
f 147//147 198//198 557//530 
f 195//195 192//192 558//530 
f 192//192 150//150 558//530 
f 150//150 195//195 558//530 
f 192//192 189//189 559//530 
f 189//189 153//153 559//530 
f 153//153 150//150 559//530 
f 150//150 192//192 559//530 
f 189//189 186//186 560//530 
f 186//186 156//156 560//530 
f 156//156 153//153 560//530 
f 153//153 189//189 560//530 
f 186//186 183//183 561//530 
f 183//183 162//162 561//530 
f 162//162 159//159 561//530 
f 159//159 156//156 561//530 
f 156//156 186//186 561//530 
f 183//183 180//180 562//530 
f 180//180 165//165 562//530 
f 165//165 162//162 562//530 
f 162//162 183//183 562//530 
f 180//180 177//177 563//530 
f 177//177 168//168 563//530 
f 168//168 165//165 563//530 
f 165//165 180//180 563//530 
f 177//177 174//174 564//530 
f 174//174 171//171 564//530 
f 171//171 168//168 564//530 
f 168//168 177//177 564//530 
f 48//48 45//45 565//530 
f 45//45 264//263 565//530 
f 264//263 261//260 565//530 
f 261//260 258//257 565//530 
f 258//257 48//48 565//530 
f 45//45 42//42 566//530 
f 42//42 273//272 566//530 
f 273//272 270//269 566//530 
f 270//269 267//266 566//530 
f 267//266 264//263 566//530 
f 264//263 45//45 566//530 
f 42//42 39//39 567//530 
f 39//39 282//281 567//530 
f 282//281 279//278 567//530 
f 279//278 276//275 567//530 
f 276//275 273//272 567//530 
f 273//272 42//42 567//530 
f 39//39 36//36 568//530 
f 36//36 288//287 568//530 
f 288//287 285//284 568//530 
f 285//284 282//281 568//530 
f 282//281 39//39 568//530 
f 36//36 33//33 569//530 
f 33//33 297//296 569//530 
f 297//296 294//293 569//530 
f 294//293 291//290 569//530 
f 291//290 288//287 569//530 
f 288//287 36//36 569//530 
f 33//33 30//30 570//530 
f 30//30 303//302 570//530 
f 303//302 300//299 570//530 
f 300//299 297//296 570//530 
f 297//296 33//33 570//530 
f 30//30 27//27 571//530 
f 27//27 312//311 571//530 
f 312//311 309//308 571//530 
f 309//308 306//305 571//530 
f 306//305 303//302 571//530 
f 303//302 30//30 571//530 
f 27//27 24//24 572//530 
f 24//24 315//314 572//530 
f 315//314 312//311 572//530 
f 312//311 27//27 572//530 
f 24//24 21//21 573//530 
f 21//21 318//317 573//530 
f 318//317 315//314 573//530 
f 315//314 24//24 573//530 
f 21//21 18//18 574//530 
f 18//18 321//320 574//530 
f 321//320 318//317 574//530 
f 318//317 21//21 574//530 
f 18//18 15//15 575//530 
f 15//15 324//323 575//530 
f 324//323 321//320 575//530 
f 321//320 18//18 575//530 
f 15//15 12//12 576//530 
f 12//12 327//326 576//530 
f 327//326 324//323 576//530 
f 324//323 15//15 576//530 
f 12//12 9//9 577//530 
f 9//9 330//329 577//530 
f 330//329 327//326 577//530 
f 327//326 12//12 577//530 
f 9//9 6//6 578//530 
f 6//6 330//329 578//530 
f 330//329 9//9 578//530 
f 6//6 2//2 579//530 
f 2//2 333//332 579//530 
f 333//332 330//329 579//530 
f 330//329 6//6 579//530 
f 2//2 1//1 580//530 
f 1//1 336//335 580//530 
f 336//335 333//332 580//530 
f 333//332 2//2 580//530 
f 420//419 581//530 522//520 582//530 
f 522//520 519//517 582//530 
f 519//517 420//419 582//530 
f 519//517 516//514 583//530 
f 516//514 420//419 583//530 
f 420//419 519//517 583//530 
f 516//514 513//511 584//530 
f 513//511 339//338 584//530 
f 339//338 336//335 584//530 
f 336//335 1//1 584//530 
f 1//1 420//419 584//530 
f 420//419 516//514 584//530 
f 513//511 510//508 585//530 
f 510//508 339//338 585//530 
f 339//338 513//511 585//530 
f 510//508 507//505 586//530 
f 507//505 339//338 586//530 
f 339//338 510//508 586//530 
f 507//505 504//502 587//530 
f 504//502 339//338 587//530 
f 339//338 507//505 587//530 
f 504//502 501//499 588//530 
f 501//499 348//347 588//530 
f 348//347 345//344 588//530 
f 345//344 342//341 588//530 
f 342//341 339//338 588//530 
f 339//338 504//502 588//530 
f 501//499 498//496 589//530 
f 498//496 351//350 589//530 
f 351//350 348//347 589//530 
f 348//347 501//499 589//530 
f 498//496 495//493 590//530 
f 495//493 351//350 590//530 
f 351//350 498//496 590//530 
f 495//493 492//490 591//530 
f 492//490 354//353 591//530 
f 354//353 351//350 591//530 
f 351//350 495//493 591//530 
f 492//490 489//487 592//530 
f 489//487 354//353 592//530 
f 354//353 492//490 592//530 
f 489//487 486//484 593//530 
f 486//484 357//356 593//530 
f 357//356 354//353 593//530 
f 354//353 489//487 593//530 
f 486//484 483//481 594//530 
f 483//481 360//359 594//530 
f 360//359 357//356 594//530 
f 357//356 486//484 594//530 
f 483//481 480//478 595//530 
f 480//478 363//362 595//530 
f 363//362 360//359 595//530 
f 360//359 483//481 595//530 
f 480//478 477//475 596//530 
f 477//475 363//362 596//530 
f 363//362 480//478 596//530 
f 477//475 474//472 597//530 
f 474//472 366//365 597//530 
f 366//365 363//362 597//530 
f 363//362 477//475 597//530 
f 474//472 471//469 598//530 
f 471//469 369//368 598//530 
f 369//368 366//365 598//530 
f 366//365 474//472 598//530 
f 471//469 468//466 599//530 
f 468//466 369//368 599//530 
f 369//368 471//469 599//530 
f 468//466 465//463 600//530 
f 465//463 372//371 600//530 
f 372//371 369//368 600//530 
f 369//368 468//466 600//530 
f 465//463 462//460 601//530 
f 462//460 378//377 601//530 
f 378//377 375//374 601//530 
f 375//374 372//371 601//530 
f 372//371 465//463 601//530 
f 462//460 459//457 602//530 
f 459//457 381//380 602//530 
f 381//380 378//377 602//530 
f 378//377 462//460 602//530 
f 459//457 456//454 603//530 
f 456//454 384//383 603//530 
f 384//383 381//380 603//530 
f 381//380 459//457 603//530 
f 456//454 453//451 604//530 
f 453//451 387//386 604//530 
f 387//386 384//383 604//530 
f 384//383 456//454 604//530 
f 453//451 450//448 605//530 
f 450//448 390//389 605//530 
f 390//389 387//386 605//530 
f 387//386 453//451 605//530 
f 450//448 447//445 606//530 
f 447//445 393//392 606//530 
f 393//392 390//389 606//530 
f 390//389 450//448 606//530 
f 447//445 444//442 607//530 
f 444//442 396//395 607//530 
f 396//395 393//392 607//530 
f 393//392 447//445 607//530 
f 444//442 441//439 608//530 
f 441//439 399//398 608//530 
f 399//398 396//395 608//530 
f 396//395 444//442 608//530 
f 441//439 438//436 609//530 
f 438//436 402//401 609//530 
f 402//401 399//398 609//530 
f 399//398 441//439 609//530 
f 438//436 435//433 610//530 
f 435//433 405//404 610//530 
f 405//404 402//401 610//530 
f 402//401 438//436 610//530 
f 435//433 432//430 611//530 
f 432//430 408//407 611//530 
f 408//407 405//404 611//530 
f 405//404 435//433 611//530 
f 432//430 429//427 612//530 
f 429//427 411//410 612//530 
f 411//410 408//407 612//530 
f 408//407 432//430 612//530 
f 429//427 425//423 613//530 
f 425//423 414//413 613//530 
f 414//413 411//410 613//530 
f 411//410 429//427 613//530 
f 425//423 424//422 614//530 
f 424//422 417//416 614//530 
f 417//416 414//413 614//530 
f 414//413 425//423 614//530 
f 424//422 528//526 615//530 
f 528//526 417//416 615//530 
f 417//416 424//422 615//530 
f 528//526 525//523 616//530 
f 525//523 420//419 616//530 
f 420//419 417//416 616//530 
f 417//416 528//526 616//530 
f 525//523 522//520 581//530 
f 420//419 525//523 581//530 
f 179//179 182//182 617//531 
f 182//182 167//167 617//531 
f 167//167 170//170 617//531 
f 170//170 179//179 617//531 
f 182//182 185//185 618//531 
f 185//185 164//164 618//531 
f 164//164 167//167 618//531 
f 167//167 182//182 618//531 
f 185//185 188//188 619//531 
f 188//188 158//158 619//531 
f 158//158 161//161 619//531 
f 161//161 164//164 619//531 
f 164//164 185//185 619//531 
f 188//188 191//191 620//531 
f 191//191 155//155 620//531 
f 155//155 158//158 620//531 
f 158//158 188//188 620//531 
f 191//191 194//194 621//531 
f 194//194 152//152 621//531 
f 152//152 155//155 621//531 
f 155//155 191//191 621//531 
f 194//194 197//197 622//531 
f 197//197 152//152 622//531 
f 152//152 194//194 622//531 
f 197//197 200//200 623//531 
f 200//200 149//149 623//531 
f 149//149 152//152 623//531 
f 152//152 197//197 623//531 
f 200//200 203//203 624//531 
f 203//203 146//146 624//531 
f 146//146 149//149 624//531 
f 149//149 200//200 624//531 
f 203//203 206//206 625//531 
f 206//206 140//140 625//531 
f 140//140 143//143 625//531 
f 143//143 146//146 625//531 
f 146//146 203//203 625//531 
f 206//206 209//209 626//531 
f 209//209 137//137 626//531 
f 137//137 140//140 626//531 
f 140//140 206//206 626//531 
f 209//209 212//212 627//531 
f 212//212 131//131 627//531 
f 131//131 134//134 627//531 
f 134//134 137//137 627//531 
f 137//137 209//209 627//531 
f 212//212 215//215 628//531 
f 215//215 125//125 628//531 
f 125//125 128//128 628//531 
f 128//128 131//131 628//531 
f 131//131 212//212 628//531 
f 215//215 218//218 629//531 
f 218//218 119//119 629//531 
f 119//119 122//122 629//531 
f 122//122 125//125 629//531 
f 125//125 215//215 629//531 
f 218//218 221//221 630//531 
f 221//221 113//113 630//531 
f 113//113 116//116 630//531 
f 116//116 119//119 630//531 
f 119//119 218//218 630//531 
f 221//221 224//224 631//531 
f 224//224 104//104 631//531 
f 104//104 107//107 631//531 
f 107//107 110//110 631//531 
f 110//110 113//113 631//531 
f 113//113 221//221 631//531 
f 224//224 227//227 632//531 
f 227//227 101//101 632//531 
f 101//101 104//104 632//531 
f 104//104 224//224 632//531 
f 227//227 230//230 633//531 
f 230//230 95//95 633//531 
f 95//95 98//98 633//531 
f 98//98 101//101 633//531 
f 101//101 227//227 633//531 
f 230//230 233//232 634//531 
f 233//232 92//92 634//531 
f 92//92 95//95 634//531 
f 95//95 230//230 634//531 
f 524//522 527//525 635//531 
f 527//525 422//421 635//531 
f 233//232 56//56 636//531 
f 56//56 59//59 636//531 
f 59//59 92//92 636//531 
f 92//92 233//232 636//531 
f 59//59 62//62 637//531 
f 62//62 92//92 637//531 
f 92//92 59//59 637//531 
f 62//62 65//65 638//531 
f 65//65 92//92 638//531 
f 92//92 62//62 638//531 
f 65//65 68//68 639//531 
f 68//68 92//92 639//531 
f 92//92 65//65 639//531 
f 68//68 71//71 640//531 
f 71//71 92//92 640//531 
f 92//92 68//68 640//531 
f 71//71 74//74 641//531 
f 74//74 92//92 641//531 
f 92//92 71//71 641//531 
f 74//74 77//77 642//531 
f 77//77 92//92 642//531 
f 92//92 74//74 642//531 
f 77//77 80//80 643//531 
f 80//80 92//92 643//531 
f 92//92 77//77 643//531 
f 80//80 83//83 644//531 
f 83//83 92//92 644//531 
f 92//92 80//80 644//531 
f 83//83 86//86 645//531 
f 86//86 89//89 645//531 
f 89//89 92//92 645//531 
f 92//92 83//83 645//531 
f 527//525 530//528 646//531 
f 530//528 419//418 646//531 
f 419//418 422//421 646//531 
f 422//421 527//525 646//531 
f 530//528 428//426 647//531 
f 428//426 419//418 647//531 
f 419//418 530//528 647//531 
f 428//426 427//425 648//531 
f 427//425 416//415 648//531 
f 416//415 419//418 648//531 
f 419//418 428//426 648//531 
f 427//425 431//429 649//531 
f 431//429 413//412 649//531 
f 413//412 416//415 649//531 
f 416//415 427//425 649//531 
f 431//429 434//432 650//531 
f 434//432 410//409 650//531 
f 410//409 413//412 650//531 
f 413//412 431//429 650//531 
f 434//432 437//435 651//531 
f 437//435 407//406 651//531 
f 407//406 410//409 651//531 
f 410//409 434//432 651//531 
f 437//435 440//438 652//531 
f 440//438 404//403 652//531 
f 404//403 407//406 652//531 
f 407//406 437//435 652//531 
f 440//438 443//441 653//531 
f 443//441 401//400 653//531 
f 401//400 404//403 653//531 
f 404//403 440//438 653//531 
f 443//441 446//444 654//531 
f 446//444 398//397 654//531 
f 398//397 401//400 654//531 
f 401//400 443//441 654//531 
f 446//444 449//447 655//531 
f 449//447 395//394 655//531 
f 395//394 398//397 655//531 
f 398//397 446//444 655//531 
f 449//447 452//450 656//531 
f 452//450 392//391 656//531 
f 392//391 395//394 656//531 
f 395//394 449//447 656//531 
f 452//450 455//453 657//531 
f 455//453 389//388 657//531 
f 389//388 392//391 657//531 
f 392//391 452//450 657//531 
f 455//453 458//456 658//531 
f 458//456 386//385 658//531 
f 386//385 389//388 658//531 
f 389//388 455//453 658//531 
f 458//456 461//459 659//531 
f 461//459 383//382 659//531 
f 383//382 386//385 659//531 
f 386//385 458//456 659//531 
f 461//459 464//462 660//531 
f 464//462 380//379 660//531 
f 380//379 383//382 660//531 
f 383//382 461//459 660//531 
f 464//462 467//465 661//531 
f 467//465 374//373 661//531 
f 374//373 377//376 661//531 
f 377//376 380//379 661//531 
f 380//379 464//462 661//531 
f 467//465 470//468 662//531 
f 470//468 371//370 662//531 
f 371//370 374//373 662//531 
f 374//373 467//465 662//531 
f 470//468 473//471 663//531 
f 473//471 371//370 663//531 
f 371//370 470//468 663//531 
f 473//471 476//474 664//531 
f 476//474 368//367 664//531 
f 368//367 371//370 664//531 
f 371//370 473//471 664//531 
f 476//474 479//477 665//531 
f 479//477 365//364 665//531 
f 365//364 368//367 665//531 
f 368//367 476//474 665//531 
f 479//477 482//480 666//531 
f 482//480 365//364 666//531 
f 365//364 479//477 666//531 
f 482//480 485//483 667//531 
f 485//483 362//361 667//531 
f 362//361 365//364 667//531 
f 365//364 482//480 667//531 
f 485//483 488//486 668//531 
f 488//486 359//358 668//531 
f 359//358 362//361 668//531 
f 362//361 485//483 668//531 
f 488//486 491//489 669//531 
f 491//489 356//355 669//531 
f 356//355 359//358 669//531 
f 359//358 488//486 669//531 
f 491//489 494//492 670//531 
f 494//492 356//355 670//531 
f 356//355 491//489 670//531 
f 494//492 497//495 671//531 
f 497//495 353//352 671//531 
f 353//352 356//355 671//531 
f 356//355 494//492 671//531 
f 497//495 500//498 672//531 
f 500//498 353//352 672//531 
f 353//352 497//495 672//531 
f 500//498 503//501 673//531 
f 503//501 350//349 673//531 
f 350//349 353//352 673//531 
f 353//352 500//498 673//531 
f 503//501 506//504 674//531 
f 506//504 341//340 674//531 
f 341//340 344//343 674//531 
f 344//343 347//346 674//531 
f 347//346 350//349 674//531 
f 350//349 503//501 674//531 
f 506//504 509//507 675//531 
f 509//507 341//340 675//531 
f 341//340 506//504 675//531 
f 509//507 512//510 676//531 
f 512//510 341//340 676//531 
f 341//340 509//507 676//531 
f 512//510 515//513 677//531 
f 515//513 341//340 677//531 
f 341//340 512//510 677//531 
f 515//513 518//516 678//531 
f 518//516 422//421 678//531 
f 422//421 5//5 678//531 
f 5//5 338//337 678//531 
f 338//337 341//340 678//531 
f 341//340 515//513 678//531 
f 518//516 521//519 679//531 
f 521//519 422//421 679//531 
f 422//421 518//516 679//531 
f 5//5 4//4 680//531 
f 4//4 335//334 680//531 
f 335//334 338//337 680//531 
f 338//337 5//5 680//531 
f 4//4 8//8 681//531 
f 8//8 332//331 681//531 
f 332//331 335//334 681//531 
f 335//334 4//4 681//531 
f 8//8 11//11 682//531 
f 11//11 332//331 682//531 
f 332//331 8//8 682//531 
f 11//11 14//14 683//531 
f 14//14 329//328 683//531 
f 329//328 332//331 683//531 
f 332//331 11//11 683//531 
f 14//14 17//17 684//531 
f 17//17 326//325 684//531 
f 326//325 329//328 684//531 
f 329//328 14//14 684//531 
f 17//17 20//20 685//531 
f 20//20 323//322 685//531 
f 323//322 326//325 685//531 
f 326//325 17//17 685//531 
f 20//20 23//23 686//531 
f 23//23 320//319 686//531 
f 320//319 323//322 686//531 
f 323//322 20//20 686//531 
f 23//23 26//26 687//531 
f 26//26 317//316 687//531 
f 317//316 320//319 687//531 
f 320//319 23//23 687//531 
f 26//26 29//29 688//531 
f 29//29 314//313 688//531 
f 314//313 317//316 688//531 
f 317//316 26//26 688//531 
f 29//29 32//32 689//531 
f 32//32 305//304 689//531 
f 305//304 308//307 689//531 
f 308//307 311//310 689//531 
f 311//310 314//313 689//531 
f 314//313 29//29 689//531 
f 32//32 35//35 690//531 
f 35//35 299//298 690//531 
f 299//298 302//301 690//531 
f 302//301 305//304 690//531 
f 305//304 32//32 690//531 
f 35//35 38//38 691//531 
f 38//38 290//289 691//531 
f 290//289 293//292 691//531 
f 293//292 296//295 691//531 
f 296//295 299//298 691//531 
f 299//298 35//35 691//531 
f 38//38 41//41 692//531 
f 41//41 284//283 692//531 
f 284//283 287//286 692//531 
f 287//286 290//289 692//531 
f 290//289 38//38 692//531 
f 41//41 44//44 693//531 
f 44//44 275//274 693//531 
f 275//274 278//277 693//531 
f 278//277 281//280 693//531 
f 281//280 284//283 693//531 
f 284//283 41//41 693//531 
f 44//44 47//47 694//531 
f 47//47 266//265 694//531 
f 266//265 269//268 694//531 
f 269//268 272//271 694//531 
f 272//271 275//274 694//531 
f 275//274 44//44 694//531 
f 47//47 50//50 695//531 
f 50//50 260//259 695//531 
f 260//259 263//262 695//531 
f 263//262 266//265 695//531 
f 266//265 47//47 695//531 
f 50//50 53//53 696//531 
f 53//53 248//247 696//531 
f 248//247 251//250 696//531 
f 251//250 254//253 696//531 
f 254//253 257//256 696//531 
f 257//256 260//259 696//531 
f 260//259 50//50 696//531 
f 53//53 56//56 697//531 
f 56//56 233//232 697//531 
f 233//232 236//235 697//531 
f 236//235 239//238 697//531 
f 239//238 242//241 697//531 
f 242//241 245//244 697//531 
f 245//244 248//247 697//531 
f 248//247 53//53 697//531 
f 521//519 524//522 698//531 
f 524//522 635//531 422//421 698//531 
f 422//421 521//519 698//531 
# 2 polygons - 1392 triangles

