# 3ds Max Wavefront OBJ Exporter v0.97b - (c)2007 guruware
# File Created: 10.09.2021 11:10:50

#
# object So_Sua
#

v  1614.9203 0.0000 -45.5043
v  1613.7480 0.0000 -44.8305
v  1614.3342 5.0000 -45.1674
v  1613.7480 10.0000 -44.8305
v  1614.9203 10.0000 -45.5043
v  1612.4819 0.0000 -44.1596
v  1613.1150 5.0000 -44.4951
v  1612.4819 10.0000 -44.1596
v  1611.1221 0.0000 -43.4918
v  1611.8020 5.0000 -43.8257
v  1611.1221 10.0000 -43.4918
v  1609.6682 0.0000 -42.8269
v  1610.3951 5.0000 -43.1594
v  1609.6682 10.0000 -42.8269
v  1608.1206 0.0000 -42.1651
v  1608.8944 5.0000 -42.4960
v  1608.1206 10.0000 -42.1651
v  1606.4791 0.0000 -41.5061
v  1607.2998 5.0000 -41.8356
v  1606.4791 10.0000 -41.5061
v  1604.7437 0.0000 -40.8502
v  1605.6115 5.0000 -41.1782
v  1604.7437 10.0000 -40.8502
v  1602.9146 0.0000 -40.1973
v  1603.8291 5.0000 -40.5238
v  1602.9146 10.0000 -40.1973
v  1600.9915 0.0000 -39.5473
v  1601.9530 5.0000 -39.8723
v  1600.9915 10.0000 -39.5473
v  1599.0068 0.0000 -38.7436
v  1599.9991 5.0000 -39.1454
v  1599.0068 10.0000 -38.7436
v  1597.2556 0.0000 -37.6973
v  1598.1312 5.0000 -38.2205
v  1597.2556 10.0000 -37.6973
v  1595.7380 0.0000 -36.4087
v  1596.4968 5.0000 -37.0530
v  1595.7380 10.0000 -36.4087
v  1594.4539 0.0000 -34.8776
v  1595.0959 5.0000 -35.6432
v  1594.4539 10.0000 -34.8776
v  1593.4032 0.0000 -33.1041
v  1593.9285 5.0000 -33.9909
v  1593.4032 10.0000 -33.1041
v  1592.5859 0.0000 -31.0882
v  1592.9946 5.0000 -32.0962
v  1592.5859 10.0000 -31.0882
v  1592.0023 0.0000 -28.8299
v  1592.2941 5.0000 -29.9590
v  1592.0023 10.0000 -28.8299
v  1591.6520 0.0000 -26.3291
v  1591.8271 5.0000 -27.5795
v  1591.6520 10.0000 -26.3291
v  1591.5353 0.0000 -23.5859
v  1591.5936 5.0000 -24.9575
v  1591.5353 10.0000 -23.5859
v  1591.6759 0.0000 -19.7048
v  1591.6056 5.0000 -21.6453
v  1591.6759 10.0000 -19.7048
v  1592.0977 0.0000 -16.2803
v  1591.8867 5.0000 -17.9925
v  1592.0977 10.0000 -16.2803
v  1592.8007 0.0000 -13.3124
v  1592.4491 5.0000 -14.7964
v  1592.8007 10.0000 -13.3124
v  1593.7848 0.0000 -10.8011
v  1593.2927 5.0000 -12.0568
v  1593.7848 10.0000 -10.8011
v  1595.0502 0.0000 -8.7465
v  1594.4175 5.0000 -9.7738
v  1595.0502 10.0000 -8.7465
v  1596.5967 0.0000 -7.1484
v  1595.8234 5.0000 -7.9474
v  1596.5967 10.0000 -7.1484
v  1598.4244 0.0000 -6.0069
v  1597.5105 5.0000 -6.5776
v  1598.4244 10.0000 -6.0069
v  1600.5333 0.0000 -5.3220
v  1599.4789 5.0000 -5.6644
v  1600.5333 10.0000 -5.3220
v  1602.9235 0.0000 -5.0937
v  1601.7284 5.0000 -5.2078
v  1602.9235 10.0000 -5.0937
v  1604.8584 0.0000 -5.2078
v  1603.8909 5.0000 -5.1508
v  1604.8584 10.0000 -5.2078
v  1606.5658 0.0000 -5.5502
v  1605.7120 5.0000 -5.3790
v  1606.5658 10.0000 -5.5502
v  1608.0454 0.0000 -6.1209
v  1607.3055 5.0000 -5.8356
v  1608.0454 10.0000 -6.1209
v  1609.2975 0.0000 -6.9198
v  1608.6715 5.0000 -6.5204
v  1609.2975 10.0000 -6.9198
v  1610.3219 0.0000 -7.9470
v  1609.8097 5.0000 -7.4334
v  1610.3219 10.0000 -7.9470
v  1611.1187 0.0000 -9.2025
v  1610.7203 5.0000 -8.5748
v  1611.1187 10.0000 -9.2025
v  1611.6877 0.0000 -10.6862
v  1611.4032 5.0000 -9.9444
v  1611.6877 10.0000 -10.6862
v  1612.0293 0.0000 -12.3982
v  1611.8585 5.0000 -11.5422
v  1612.0293 10.0000 -12.3982
v  1612.1431 0.0000 -14.3385
v  1612.0862 5.0000 -13.3684
v  1612.1431 10.0000 -14.3385
v  1612.0099 0.0000 -16.1151
v  1612.0765 5.0000 -15.2268
v  1612.0099 10.0000 -16.1151
v  1611.6104 0.0000 -17.6827
v  1611.8102 5.0000 -16.8989
v  1611.6104 10.0000 -17.6827
v  1610.9446 0.0000 -19.0413
v  1611.2775 5.0000 -18.3620
v  1610.9446 10.0000 -19.0413
v  1610.0123 0.0000 -20.1909
v  1610.4784 5.0000 -19.6161
v  1610.0123 10.0000 -20.1909
v  1608.8138 0.0000 -21.1314
v  1609.4131 5.0000 -20.6611
v  1608.8138 10.0000 -21.1314
v  1607.3489 0.0000 -21.8629
v  1608.0813 5.0000 -21.4972
v  1607.3489 10.0000 -21.8629
v  1605.6177 0.0000 -22.3855
v  1606.4833 5.0000 -22.1242
v  1605.6177 10.0000 -22.3855
v  1603.6201 0.0000 -22.6990
v  1604.6189 5.0000 -22.5422
v  1603.6201 10.0000 -22.6990
v  1601.3562 0.0000 -22.8035
v  1602.4882 5.0000 -22.7513
v  1601.3562 10.0000 -22.8035
v  1601.3562 0.0000 -26.4989
v  1601.3562 5.0000 -24.6512
v  1601.3562 10.0000 -26.4989
v  1601.4071 0.0000 -28.0886
v  1601.3816 5.0000 -27.2938
v  1601.4071 10.0000 -28.0886
v  1601.5598 0.0000 -29.4913
v  1601.4834 5.0000 -28.7900
v  1601.5598 10.0000 -29.4913
v  1601.8143 0.0000 -30.7070
v  1601.6870 5.0000 -30.0991
v  1601.8143 10.0000 -30.7070
v  1602.1707 0.0000 -31.7356
v  1601.9924 5.0000 -31.2213
v  1602.1707 10.0000 -31.7356
v  1602.6288 0.0000 -32.5772
v  1602.3997 5.0000 -32.1564
v  1602.6288 10.0000 -32.5772
v  1603.1887 0.0000 -33.2318
v  1602.9087 5.0000 -32.9045
v  1603.1887 10.0000 -33.2318
v  1603.8503 0.0000 -33.6993
v  1603.5195 5.0000 -33.4656
v  1603.8503 10.0000 -33.6993
v  1604.6139 0.0000 -33.9799
v  1604.2322 5.0000 -33.8396
v  1604.6139 10.0000 -33.9799
v  1605.4792 0.0000 -34.0734
v  1605.0466 5.0000 -34.0266
v  1605.4792 10.0000 -34.0734
v  1606.8002 0.0000 -33.9583
v  1606.1398 5.0000 -34.0158
v  1606.8002 10.0000 -33.9583
v  1608.0964 0.0000 -33.6129
v  1607.4484 5.0000 -33.7856
v  1608.0964 10.0000 -33.6129
v  1609.3680 0.0000 -33.0374
v  1608.7323 5.0000 -33.3252
v  1609.3680 10.0000 -33.0374
v  1610.6151 0.0000 -32.2316
v  1609.9916 5.0000 -32.6345
v  1610.6151 10.0000 -32.2316
v  1611.8374 0.0000 -31.1956
v  1611.2262 5.0000 -31.7136
v  1611.8374 10.0000 -31.1956
v  1613.0350 0.0000 -29.9294
v  1612.4362 5.0000 -30.5625
v  1613.0350 10.0000 -29.9294
v  1614.2080 0.0000 -28.4329
v  1613.6215 5.0000 -29.1811
v  1614.2080 10.0000 -28.4329
v  1615.3563 0.0000 -26.7062
v  1614.7821 5.0000 -27.5696
v  1615.3563 10.0000 -26.7062
v  1616.4800 0.0000 -24.7493
v  1615.9181 5.0000 -25.7278
v  1616.4800 10.0000 -24.7493
v  1617.5295 0.0000 -22.7162
v  1617.0048 5.0000 -23.7327
v  1617.5295 10.0000 -22.7162
v  1618.4557 0.0000 -20.7608
v  1617.9927 5.0000 -21.7385
v  1618.4557 10.0000 -20.7608
v  1619.2583 0.0000 -18.8831
v  1618.8571 5.0000 -19.8219
v  1619.2583 10.0000 -18.8831
v  1619.9375 0.0000 -17.0831
v  1619.5979 5.0000 -17.9831
v  1619.9375 10.0000 -17.0831
v  1620.4932 0.0000 -15.3609
v  1620.2153 5.0000 -16.2220
v  1620.4932 10.0000 -15.3609
v  1620.9253 0.0000 -13.7165
v  1620.7092 5.0000 -14.5387
v  1620.9253 10.0000 -13.7165
v  1621.2340 0.0000 -12.1497
v  1621.0797 5.0000 -12.9331
v  1621.2340 10.0000 -12.1497
v  1621.4192 0.0000 -10.6607
v  1621.3267 5.0000 -11.4052
v  1621.4192 10.0000 -10.6607
v  1621.4810 0.0000 -9.2495
v  1621.4501 5.0000 -9.9551
v  1621.4810 10.0000 -9.2495
v  1621.4810 0.0000 -5.2547
v  1621.4810 5.0000 -7.2521
v  1621.4810 10.0000 -5.2547
v  1631.3019 0.0000 -5.2547
v  1626.3915 5.0000 -5.2547
v  1631.3019 10.0000 -5.2547
v  1631.3019 0.0000 -38.1713
v  1631.3019 5.0000 -21.7130
v  1631.3019 10.0000 -38.1713
v  1631.2614 0.0000 -39.6059
v  1631.2816 5.0000 -38.8886
v  1631.2614 10.0000 -39.6059
v  1631.1398 0.0000 -40.9838
v  1631.2006 5.0000 -40.2949
v  1631.1398 10.0000 -40.9838
v  1630.9371 0.0000 -42.3050
v  1631.0385 5.0000 -41.6444
v  1630.9371 10.0000 -42.3050
v  1630.6534 0.0000 -43.5695
v  1630.7953 5.0000 -42.9372
v  1630.6534 10.0000 -43.5695
v  1630.2887 0.0000 -44.7772
v  1630.4711 5.0000 -44.1734
v  1630.2887 10.0000 -44.7772
v  1629.8429 0.0000 -45.9283
v  1630.0658 5.0000 -45.3528
v  1629.8429 10.0000 -45.9283
v  1629.3159 0.0000 -47.0226
v  1629.5793 5.0000 -46.4755
v  1629.3159 10.0000 -47.0226
v  1628.7080 0.0000 -48.0603
v  1629.0120 5.0000 -47.5415
v  1628.7080 10.0000 -48.0603
v  1628.0190 0.0000 -49.0412
v  1628.3635 5.0000 -48.5508
v  1628.0190 10.0000 -49.0412
v  1629.2585 0.0000 -49.8885
v  1628.6388 5.0000 -49.4649
v  1629.2585 10.0000 -49.8885
v  1630.3958 0.0000 -50.8193
v  1629.8271 5.0000 -50.3539
v  1630.3958 10.0000 -50.8193
v  1631.4304 0.0000 -51.8335
v  1630.9131 5.0000 -51.3264
v  1631.4304 10.0000 -51.8335
v  1632.3628 0.0000 -52.9313
v  1631.8966 5.0000 -52.3824
v  1632.3628 10.0000 -52.9313
v  1633.1926 0.0000 -54.1125
v  1632.7777 5.0000 -53.5219
v  1633.1926 10.0000 -54.1125
v  1633.9200 0.0000 -55.3772
v  1633.5564 5.0000 -54.7448
v  1633.9200 10.0000 -55.3772
v  1634.5450 0.0000 -56.7253
v  1634.2325 5.0000 -56.0513
v  1634.5450 10.0000 -56.7253
v  1635.0676 0.0000 -58.1570
v  1634.8064 5.0000 -57.4412
v  1635.0676 10.0000 -58.1570
v  1635.4878 0.0000 -59.6721
v  1635.2777 5.0000 -58.9146
v  1635.4878 10.0000 -59.6721
v  1626.1499 0.0000 -59.6721
v  1630.8188 5.0000 -59.6721
v  1626.1499 10.0000 -59.6721
v  1626.1112 0.0000 -58.6645
v  1626.1306 5.0000 -59.1683
v  1626.1112 10.0000 -58.6645
v  1625.9951 0.0000 -57.7076
v  1626.0532 5.0000 -58.1860
v  1625.9951 10.0000 -57.7076
v  1625.8016 0.0000 -56.8016
v  1625.8984 5.0000 -57.2546
v  1625.8016 10.0000 -56.8016
v  1625.5308 0.0000 -55.9463
v  1625.6663 5.0000 -56.3739
v  1625.5308 10.0000 -55.9463
v  1625.1825 0.0000 -55.1419
v  1625.3567 5.0000 -55.5441
v  1625.1825 10.0000 -55.1419
v  1624.7568 0.0000 -54.3883
v  1624.9697 5.0000 -54.7651
v  1624.7568 10.0000 -54.3883
v  1624.2538 0.0000 -53.6854
v  1624.5054 5.0000 -54.0368
v  1624.2538 10.0000 -53.6854
v  1623.6733 0.0000 -53.0334
v  1623.9636 5.0000 -53.3594
v  1623.6733 10.0000 -53.0334
v  1623.0155 0.0000 -52.4322
v  1623.3445 5.0000 -52.7328
v  1623.0155 10.0000 -52.4322
v  1622.0903 0.0000 -52.9380
v  1622.5529 5.0000 -52.6851
v  1622.0903 10.0000 -52.9380
v  1621.0220 0.0000 -53.3843
v  1621.5562 5.0000 -53.1612
v  1621.0220 10.0000 -53.3843
v  1619.8107 0.0000 -53.7711
v  1620.4164 5.0000 -53.5777
v  1619.8107 10.0000 -53.7711
v  1618.4562 0.0000 -54.0984
v  1619.1334 5.0000 -53.9347
v  1618.4562 10.0000 -54.0984
v  1616.9585 0.0000 -54.3662
v  1617.7073 5.0000 -54.2323
v  1616.9585 10.0000 -54.3662
v  1615.3177 0.0000 -54.5744
v  1616.1382 5.0000 -54.4703
v  1615.3177 10.0000 -54.5744
v  1613.5339 0.0000 -54.7232
v  1614.4259 5.0000 -54.6488
v  1613.5339 10.0000 -54.7232
v  1611.6069 0.0000 -54.8124
v  1612.5704 5.0000 -54.7678
v  1611.6069 10.0000 -54.8124
v  1609.5369 0.0000 -54.8422
v  1610.5719 5.0000 -54.8273
v  1609.5369 10.0000 -54.8422
v  1606.2756 0.0000 -54.7328
v  1607.9063 5.0000 -54.7875
v  1606.2756 10.0000 -54.7328
v  1603.2401 0.0000 -54.4047
v  1604.7578 5.0000 -54.5687
v  1603.2401 10.0000 -54.4047
v  1600.4304 0.0000 -53.8577
v  1601.8353 5.0000 -54.1312
v  1600.4304 10.0000 -53.8577
v  1597.8467 0.0000 -53.0921
v  1599.1385 5.0000 -53.4749
v  1597.8467 10.0000 -53.0921
v  1595.4886 0.0000 -52.1076
v  1596.6677 5.0000 -52.5999
v  1595.4886 10.0000 -52.1076
v  1593.3566 0.0000 -50.9044
v  1594.4226 5.0000 -51.5060
v  1593.3566 10.0000 -50.9044
v  1591.4503 0.0000 -49.4825
v  1592.4034 5.0000 -50.1935
v  1591.4503 10.0000 -49.4825
v  1589.7699 0.0000 -47.8417
v  1590.6101 5.0000 -48.6621
v  1589.7699 10.0000 -47.8417
v  1588.3153 0.0000 -45.9822
v  1589.0426 5.0000 -46.9120
v  1588.3153 10.0000 -45.9822
v  1594.4131 0.0000 -42.1233
v  1591.3643 5.0000 -44.0528
v  1594.4131 10.0000 -42.1233
v  1595.6172 0.0000 -43.5087
v  1595.0151 5.0000 -42.8160
v  1595.6172 10.0000 -43.5087
v  1596.9073 0.0000 -44.7311
v  1596.2623 5.0000 -44.1199
v  1596.9073 10.0000 -44.7311
v  1598.2836 0.0000 -45.7905
v  1597.5955 5.0000 -45.2608
v  1598.2836 10.0000 -45.7905
v  1599.7457 0.0000 -46.6869
v  1599.0146 5.0000 -46.2387
v  1599.7457 10.0000 -46.6869
v  1601.2939 0.0000 -47.4204
v  1600.5198 5.0000 -47.0536
v  1601.2939 10.0000 -47.4204
v  1602.9282 0.0000 -47.9908
v  1602.1111 5.0000 -47.7056
v  1602.9282 10.0000 -47.9908
v  1604.6484 0.0000 -48.3983
v  1603.7883 5.0000 -48.1945
v  1604.6484 10.0000 -48.3983
v  1606.4547 0.0000 -48.6428
v  1605.5516 5.0000 -48.5205
v  1606.4547 10.0000 -48.6428
v  1608.3470 0.0000 -48.7242
v  1607.4009 5.0000 -48.6835
v  1608.3470 10.0000 -48.7242
v  1609.5176 0.0000 -48.7062
v  1608.9324 5.0000 -48.7152
v  1609.5176 10.0000 -48.7062
v  1610.6436 0.0000 -48.6522
v  1610.0806 5.0000 -48.6792
v  1610.6436 10.0000 -48.6522
v  1611.7246 0.0000 -48.5621
v  1611.1841 5.0000 -48.6072
v  1611.7246 10.0000 -48.5621
v  1612.7611 0.0000 -48.4360
v  1612.2429 5.0000 -48.4991
v  1612.7611 10.0000 -48.4360
v  1613.7528 0.0000 -48.2739
v  1613.2570 5.0000 -48.3550
v  1613.7528 10.0000 -48.2739
v  1614.6998 0.0000 -48.0758
v  1614.2263 5.0000 -48.1749
v  1614.6998 10.0000 -48.0758
v  1615.6021 0.0000 -47.8416
v  1615.1509 5.0000 -47.9587
v  1615.6021 10.0000 -47.8416
v  1616.4596 0.0000 -47.5714
v  1616.0308 5.0000 -47.7065
v  1616.4596 10.0000 -47.5714
v  1617.2723 0.0000 -47.2652
v  1616.8660 5.0000 -47.4183
v  1617.2723 10.0000 -47.2652
v  1616.0963 5.0000 -46.3847
v  1620.9066 0.0000 -42.3887
v  1621.0411 0.0000 -41.7353
v  1620.9739 5.0000 -42.0620
v  1621.0411 10.0000 -41.7353
v  1620.9066 10.0000 -42.3887
v  1621.1578 0.0000 -41.0838
v  1621.0995 5.0000 -41.4095
v  1621.1578 10.0000 -41.0838
v  1621.2566 0.0000 -40.4343
v  1621.2073 5.0000 -40.7590
v  1621.2566 10.0000 -40.4343
v  1621.3374 0.0000 -39.7866
v  1621.2970 5.0000 -40.1104
v  1621.3374 10.0000 -39.7866
v  1621.4001 0.0000 -39.1409
v  1621.3688 5.0000 -39.4638
v  1621.4001 10.0000 -39.1409
v  1621.4451 0.0000 -38.4972
v  1621.4226 5.0000 -38.8190
v  1621.4451 10.0000 -38.4972
v  1621.4720 0.0000 -37.8553
v  1621.4585 5.0000 -38.1762
v  1621.4720 10.0000 -37.8553
v  1621.4810 0.0000 -37.2154
v  1621.4766 5.0000 -37.5353
v  1621.4810 10.0000 -37.2154
v  1621.4810 0.0000 -28.4435
v  1621.4810 5.0000 -32.8294
v  1621.4810 10.0000 -28.4435
v  1620.7416 0.0000 -29.7123
v  1621.1113 5.0000 -29.0779
v  1620.7416 10.0000 -29.7123
v  1619.9244 0.0000 -30.9372
v  1620.3330 5.0000 -30.3248
v  1619.9244 10.0000 -30.9372
v  1619.0294 0.0000 -32.1182
v  1619.4769 5.0000 -31.5277
v  1619.0294 10.0000 -32.1182
v  1618.0565 0.0000 -33.2553
v  1618.5430 5.0000 -32.6868
v  1618.0565 10.0000 -33.2553
v  1617.0059 0.0000 -34.3485
v  1617.5313 5.0000 -33.8019
v  1617.0059 10.0000 -34.3485
v  1615.8773 0.0000 -35.3977
v  1616.4417 5.0000 -34.8731
v  1615.8773 10.0000 -35.3977
v  1614.6710 0.0000 -36.4031
v  1615.2742 5.0000 -35.9004
v  1614.6710 10.0000 -36.4031
v  1613.3868 0.0000 -37.3645
v  1614.0289 5.0000 -36.8838
v  1613.3868 10.0000 -37.3645
v  1612.0249 0.0000 -38.2820
v  1612.7058 5.0000 -37.8232
v  1612.0249 10.0000 -38.2820
v  1613.3540 0.0000 -38.9122
v  1612.6895 5.0000 -38.5971
v  1613.3540 10.0000 -38.9122
v  1614.5934 0.0000 -39.5172
v  1613.9736 5.0000 -39.2147
v  1614.5934 10.0000 -39.5172
v  1615.7429 0.0000 -40.0969
v  1615.1681 5.0000 -39.8070
v  1615.7429 10.0000 -40.0969
v  1616.8026 0.0000 -40.6513
v  1616.2727 5.0000 -40.3741
v  1616.8026 10.0000 -40.6513
v  1617.7726 0.0000 -41.1804
v  1617.2876 5.0000 -40.9158
v  1617.7726 10.0000 -41.1804
v  1618.6526 0.0000 -41.6842
v  1618.2125 5.0000 -41.4323
v  1618.6526 10.0000 -41.6842
v  1619.4429 0.0000 -42.1628
v  1619.0477 5.0000 -41.9235
v  1619.4429 10.0000 -42.1628
v  1620.1433 0.0000 -42.6160
v  1619.7931 5.0000 -42.3894
v  1620.1433 10.0000 -42.6160
v  1620.7540 0.0000 -43.0440
v  1620.4486 5.0000 -42.8300
v  1620.7540 10.0000 -43.0440
v  1620.8303 5.0000 -42.7164
v  1603.7075 0.0000 -17.9242
v  1604.4772 0.0000 -17.7763
v  1604.0924 5.0000 -17.8503
v  1604.4772 10.0000 -17.7763
v  1603.7075 10.0000 -17.9242
v  1605.1442 0.0000 -17.5297
v  1604.8107 5.0000 -17.6530
v  1605.1442 10.0000 -17.5297
v  1605.7085 0.0000 -17.1845
v  1605.4263 5.0000 -17.3571
v  1605.7085 10.0000 -17.1845
v  1606.1703 0.0000 -16.7406
v  1605.9393 5.0000 -16.9625
v  1606.1703 10.0000 -16.7406
v  1606.5294 0.0000 -16.1981
v  1606.3499 5.0000 -16.4694
v  1606.5294 10.0000 -16.1981
v  1606.7859 0.0000 -15.5570
v  1606.6576 5.0000 -15.8775
v  1606.7859 10.0000 -15.5570
v  1606.9398 0.0000 -14.8172
v  1606.8629 5.0000 -15.1871
v  1606.9398 10.0000 -14.8172
v  1606.9911 0.0000 -13.9788
v  1606.9655 5.0000 -14.3980
v  1606.9911 10.0000 -13.9788
v  1606.9398 0.0000 -13.1277
v  1606.9655 5.0000 -13.5532
v  1606.9398 10.0000 -13.1277
v  1606.7859 0.0000 -12.3768
v  1606.8629 5.0000 -12.7522
v  1606.7859 10.0000 -12.3768
v  1606.5294 0.0000 -11.7259
v  1606.6576 5.0000 -12.0513
v  1606.5294 10.0000 -11.7259
v  1606.1703 0.0000 -11.1752
v  1606.3499 5.0000 -11.4506
v  1606.1703 10.0000 -11.1752
v  1605.7085 0.0000 -10.7247
v  1605.9393 5.0000 -10.9499
v  1605.7085 10.0000 -10.7247
v  1605.1442 0.0000 -10.3742
v  1605.4263 5.0000 -10.5494
v  1605.1442 10.0000 -10.3742
v  1604.4772 0.0000 -10.1239
v  1604.8107 5.0000 -10.2491
v  1604.4772 10.0000 -10.1239
v  1603.7075 0.0000 -9.9737
v  1604.0924 5.0000 -10.0488
v  1603.7075 10.0000 -9.9737
v  1602.8353 0.0000 -9.9236
v  1603.2715 5.0000 -9.9487
v  1602.8353 10.0000 -9.9236
v  1601.9504 0.0000 -9.9737
v  1602.3929 5.0000 -9.9487
v  1601.9504 10.0000 -9.9737
v  1601.1697 0.0000 -10.1239
v  1601.5601 5.0000 -10.0488
v  1601.1697 10.0000 -10.1239
v  1600.4930 0.0000 -10.3742
v  1600.8314 5.0000 -10.2491
v  1600.4930 10.0000 -10.3742
v  1599.9205 0.0000 -10.7247
v  1600.2068 5.0000 -10.5494
v  1599.9205 10.0000 -10.7247
v  1599.4520 0.0000 -11.1752
v  1599.6863 5.0000 -10.9499
v  1599.4520 10.0000 -11.1752
v  1599.0876 0.0000 -11.7259
v  1599.2699 5.0000 -11.4506
v  1599.0876 10.0000 -11.7259
v  1598.8274 0.0000 -12.3768
v  1598.9575 5.0000 -12.0513
v  1598.8274 10.0000 -12.3768
v  1598.6713 0.0000 -13.1277
v  1598.7494 5.0000 -12.7522
v  1598.6713 10.0000 -13.1277
v  1598.6193 0.0000 -13.9788
v  1598.6453 5.0000 -13.5532
v  1598.6193 10.0000 -13.9788
v  1598.6713 0.0000 -14.8172
v  1598.6453 5.0000 -14.3980
v  1598.6713 10.0000 -14.8172
v  1598.8274 0.0000 -15.5570
v  1598.7494 5.0000 -15.1871
v  1598.8274 10.0000 -15.5570
v  1599.0876 0.0000 -16.1981
v  1598.9575 5.0000 -15.8775
v  1599.0876 10.0000 -16.1981
v  1599.4520 0.0000 -16.7406
v  1599.2699 5.0000 -16.4694
v  1599.4520 10.0000 -16.7406
v  1599.9205 0.0000 -17.1845
v  1599.6863 5.0000 -16.9625
v  1599.9205 10.0000 -17.1845
v  1600.4930 0.0000 -17.5297
v  1600.2068 5.0000 -17.3571
v  1600.4930 10.0000 -17.5297
v  1601.1697 0.0000 -17.7763
v  1600.8314 5.0000 -17.6530
v  1601.1697 10.0000 -17.7763
v  1601.9504 0.0000 -17.9242
v  1601.5601 5.0000 -17.8503
v  1601.9504 10.0000 -17.9242
v  1602.8353 0.0000 -17.9736
v  1602.3929 5.0000 -17.9489
v  1602.8353 10.0000 -17.9736
v  1603.2715 5.0000 -17.9489
v  1609.9379 0.0000 -41.0913
v  1592.0289 10.0000 -44.8640
v  1626.3915 0.0000 -14.4825
v  1608.3042 0.0000 -37.9049
v  1610.9384 0.0000 -41.5336
v  1611.8763 0.0000 -41.9778
v  1612.7516 0.0000 -42.4240
v  1614.8699 0.0000 -41.1218
v  1618.4226 0.0000 -43.3510
v  1619.1852 0.0000 -51.5047
v  1620.7831 0.0000 -48.9199
v  1616.8690 0.0000 -50.9694
v  1615.7534 0.0000 -50.0945
v  1615.1823 0.0000 -51.3226
v  1613.8414 0.0000 -51.5019
v  1612.4066 0.0000 -51.6334
v  1611.3251 0.0000 -50.6756
v  1610.3263 0.0000 -51.7533
v  1609.1339 0.0000 -50.7576
v  1607.6536 0.0000 -51.7355
v  1605.1547 0.0000 -51.5446
v  1602.8118 0.0000 -51.1629
v  1600.6248 0.0000 -50.5902
v  1598.5938 0.0000 -49.8267
v  1596.7186 0.0000 -48.8724
v  1594.9995 0.0000 -47.7271
v  1593.4362 0.0000 -46.3910
v  1592.0289 0.0000 -44.8640
v  1605.8756 0.0000 -37.5970
v  1604.4379 0.0000 -37.2752
v  1603.0925 0.0000 -36.8560
v  1601.7593 0.0000 -36.3055
v  1599.5636 0.0000 -35.7317
v  1598.7478 0.0000 -33.8998
v  1597.9604 0.0000 -32.6061
v  1597.3408 0.0000 -31.0977
v  1596.8888 0.0000 -29.3745
v  1596.6044 0.0000 -27.4366
v  1597.7189 0.0000 -22.3219
v  1601.0063 0.0000 -19.3698
v  1596.9692 0.0000 -19.1703
v  1596.6917 0.0000 -18.8415
v  1596.4835 0.0000 -18.4470
v  1596.3446 0.0000 -17.9867
v  1594.2333 0.0000 -16.9466
v  1595.9690 0.0000 -12.8050
v  1597.0945 0.0000 -12.1019
v  1596.6875 0.0000 -10.9126
v  1597.5466 0.0000 -9.6990
v  1598.6564 0.0000 -9.6828
v  1598.8586 0.0000 -8.5635
v  1600.1552 0.0000 -7.9567
v  1601.2179 0.0000 -8.4732
v  1602.0607 0.0000 -7.5783
v  1603.5812 0.0000 -7.5497
v  1604.9022 0.0000 -7.7139
v  1606.0581 0.0000 -8.0423
v  1607.0490 0.0000 -8.5349
v  1607.8745 0.0000 -9.1917
v  1608.5350 0.0000 -10.0127
v  1609.0304 0.0000 -10.9979
v  1609.3607 0.0000 -12.1472
v  1609.5259 0.0000 -13.4608
v  1609.5210 0.0000 -14.8124
v  1609.3365 0.0000 -16.0430
v  1608.9675 0.0000 -17.1198
v  1608.4142 0.0000 -18.0427
v  1607.6763 0.0000 -18.8118
v  1606.7538 0.0000 -19.4271
v  1605.6470 0.0000 -19.8886
v  1604.3556 0.0000 -20.1963
v  1603.3877 0.0000 -19.5323
v  1602.4406 0.0000 -20.3501
v  1601.4922 0.0000 -19.5013
v  1625.3154 0.0000 -51.9200
v  1624.7340 0.0000 -19.3605
v  1624.6517 0.0000 -20.3273
v  1624.4871 0.0000 -21.3458
v  1624.2401 0.0000 -22.4162
v  1623.9109 0.0000 -23.5385
v  1623.4993 0.0000 -24.7125
v  1623.0052 0.0000 -25.9384
v  1622.4291 0.0000 -27.2161
v  1618.4968 0.0000 -25.3030
v  1618.5148 0.0000 -27.4028
v  1624.7546 0.0000 -34.6101
v  1623.4375 0.0000 -29.7770
v  1624.7516 0.0000 -37.7473
v  1626.3701 0.0000 -38.5324
v  1624.7023 0.0000 -39.0813
v  1626.2847 0.0000 -39.8793
v  1626.1677 0.0000 -40.8774
v  1624.4506 0.0000 -41.2744
v  1625.9474 0.0000 -42.1734
v  1625.7224 0.0000 -43.1177
v  1626.0582 0.0000 -47.3031
v  1617.8519 0.0000 -29.5814
v  1616.0823 0.0000 -30.9339
v  1615.1625 0.0000 -32.8253
v  1613.2502 0.0000 -33.8070
v  1612.0132 0.0000 -35.4637
v  1609.8298 0.0000 -34.9774
v  1626.5720 0.0000 -51.7509
v  1628.2048 0.0000 -52.4143
v  1628.6266 0.0000 -53.9632
v  1629.2219 0.0000 -54.9479
v  1629.7274 0.0000 -55.9997
v  1630.1429 0.0000 -57.1186
v  1631.4724 0.0000 -58.5782
v  1593.4362 10.0000 -46.3910
v  1594.9995 10.0000 -47.7271
v  1596.7186 10.0000 -48.8724
v  1598.5938 10.0000 -49.8267
v  1600.6248 10.0000 -50.5902
v  1602.8118 10.0000 -51.1629
v  1605.1547 10.0000 -51.5446
v  1607.6536 10.0000 -51.7355
v  1609.1339 10.0000 -50.7576
v  1610.3263 10.0000 -51.7533
v  1611.3251 10.0000 -50.6756
v  1612.4066 10.0000 -51.6334
v  1613.8414 10.0000 -51.5019
v  1615.1823 10.0000 -51.3226
v  1615.7534 10.0000 -50.0945
v  1616.8690 10.0000 -50.9694
v  1619.1852 10.0000 -51.5047
v  1624.1678 10.0000 -48.5434
v  1618.4226 10.0000 -43.3510
v  1626.2216 10.0000 -44.6322
v  1631.4724 10.0000 -58.5782
v  1630.1429 10.0000 -57.1186
v  1629.7274 10.0000 -55.9997
v  1629.2219 10.0000 -54.9479
v  1628.6266 10.0000 -53.9632
v  1628.2048 10.0000 -52.4143
v  1626.5720 10.0000 -51.7509
v  1625.3154 10.0000 -51.9200
v  1624.9026 10.0000 -51.5023
v  1625.7224 10.0000 -43.1177
v  1625.9474 10.0000 -42.1734
v  1624.4506 10.0000 -41.2744
v  1626.1677 10.0000 -40.8774
v  1626.2847 10.0000 -39.8793
v  1624.7023 10.0000 -39.0813
v  1626.3701 10.0000 -38.5324
v  1624.7516 10.0000 -37.7473
v  1624.7546 10.0000 -34.6101
v  1608.6803 10.0000 -38.8915
v  1609.8298 10.0000 -34.9774
v  1622.1920 10.0000 -27.5229
v  1623.0052 10.0000 -25.9384
v  1623.4993 10.0000 -24.7125
v  1623.9109 10.0000 -23.5385
v  1624.2401 10.0000 -22.4162
v  1624.4871 10.0000 -21.3458
v  1624.6517 10.0000 -20.3273
v  1624.7340 10.0000 -19.3605
v  1626.3915 10.0000 -14.4825
v  1612.0132 10.0000 -35.4637
v  1613.2502 10.0000 -33.8070
v  1615.1625 10.0000 -32.8253
v  1616.0823 10.0000 -30.9339
v  1617.8519 10.0000 -29.5814
v  1618.5148 10.0000 -27.4028
v  1618.4968 10.0000 -25.3030
v  1614.8699 10.0000 -41.1218
v  1612.7516 10.0000 -42.4240
v  1611.8763 10.0000 -41.9778
v  1610.9384 10.0000 -41.5336
v  1609.9379 10.0000 -41.0913
v  1606.5299 10.0000 -37.4819
v  1604.9844 10.0000 -37.2698
v  1601.0063 10.0000 -19.3698
v  1601.4922 10.0000 -19.5013
v  1602.4406 10.0000 -20.3501
v  1603.3877 10.0000 -19.5323
v  1604.3556 10.0000 -20.1963
v  1605.6470 10.0000 -19.8886
v  1606.7538 10.0000 -19.4271
v  1607.6763 10.0000 -18.8118
v  1608.4142 10.0000 -18.0427
v  1608.9675 10.0000 -17.1198
v  1609.3365 10.0000 -16.0430
v  1609.5210 10.0000 -14.8124
v  1609.5259 10.0000 -13.4608
v  1609.3607 10.0000 -12.1472
v  1609.0304 10.0000 -10.9979
v  1608.5350 10.0000 -10.0127
v  1607.8745 10.0000 -9.1917
v  1607.0490 10.0000 -8.5349
v  1606.0581 10.0000 -8.0423
v  1604.9022 10.0000 -7.7139
v  1603.5812 10.0000 -7.5497
v  1602.0607 10.0000 -7.5783
v  1601.2179 10.0000 -8.4732
v  1600.1552 10.0000 -7.9567
v  1598.8586 10.0000 -8.5635
v  1598.6564 10.0000 -9.6828
v  1597.5466 10.0000 -9.6990
v  1596.6875 10.0000 -10.9126
v  1597.0945 10.0000 -12.1019
v  1595.9690 10.0000 -12.8050
v  1594.2333 10.0000 -16.9466
v  1596.3446 10.0000 -17.9867
v  1596.4835 10.0000 -18.4470
v  1596.6917 10.0000 -18.8415
v  1596.9692 10.0000 -19.1703
v  1597.7189 10.0000 -22.3219
v  1596.6044 10.0000 -27.4366
v  1596.8888 10.0000 -29.3745
v  1597.3408 10.0000 -31.0977
v  1597.9604 10.0000 -32.6061
v  1598.7478 10.0000 -33.8998
v  1599.5636 10.0000 -35.7317
v  1601.7593 10.0000 -36.3055
v  1603.0925 10.0000 -36.8560
v  1604.3359 10.0000 -36.0835
# 835 vertices

vn -0.3810 -0.7210 -0.5788
vn -0.3399 -0.7110 -0.6156
vn -0.4983 0.0000 -0.8670
vn -0.3399 0.7110 -0.6156
vn -0.3810 0.7210 -0.5788
vn -0.3198 -0.7106 -0.6267
vn -0.4682 0.0000 -0.8836
vn -0.3198 0.7106 -0.6267
vn -0.3016 -0.7102 -0.6361
vn -0.4408 0.0000 -0.8976
vn -0.3016 0.7102 -0.6361
vn -0.2849 -0.7099 -0.6441
vn -0.4159 0.0000 -0.9094
vn -0.2849 0.7099 -0.6441
vn -0.2698 -0.7096 -0.6509
vn -0.3932 0.0000 -0.9194
vn -0.2698 0.7096 -0.6509
vn -0.2559 -0.7094 -0.6567
vn -0.3725 0.0000 -0.9280
vn -0.2559 0.7094 -0.6567
vn -0.2431 -0.7092 -0.6618
vn -0.3536 0.0000 -0.9354
vn -0.2431 0.7092 -0.6618
vn -0.2314 -0.7090 -0.6661
vn -0.3362 0.0000 -0.9418
vn -0.2314 0.7090 -0.6661
vn -0.2483 -0.7005 -0.6690
vn -0.3202 0.0000 -0.9474
vn -0.2483 0.7005 -0.6690
vn -0.3223 -0.6902 -0.6478
vn -0.3754 0.0000 -0.9269
vn -0.3223 0.6902 -0.6478
vn -0.4219 -0.6890 -0.5894
vn -0.5129 0.0000 -0.8585
vn -0.4219 0.6890 -0.5894
vn -0.5143 -0.6886 -0.5112
vn -0.6473 0.0000 -0.7623
vn -0.5143 0.6886 -0.5112
vn -0.5912 -0.6892 -0.4188
vn -0.7662 0.0000 -0.6426
vn -0.5912 0.6892 -0.4188
vn -0.6480 -0.6907 -0.3210
vn -0.8604 0.0000 -0.5097
vn -0.6480 0.6907 -0.3210
vn -0.6850 -0.6925 -0.2263
vn -0.9268 0.0000 -0.3757
vn -0.6850 0.6925 -0.2263
vn -0.7057 -0.6945 -0.1401
vn -0.9682 0.0000 -0.2502
vn -0.7057 0.6945 -0.1401
vn -0.7147 -0.6964 -0.0651
vn -0.9903 0.0000 -0.1387
vn -0.7147 0.6964 -0.0651
vn -0.7157 -0.6984 -0.0023
vn -0.9991 0.0000 -0.0425
vn -0.7157 0.6984 -0.0023
vn -0.7143 -0.6975 0.0568
vn -0.9993 0.0000 0.0362
vn -0.7143 0.6975 0.0568
vn -0.7078 -0.6949 0.1270
vn -0.9925 0.0000 0.1222
vn -0.7078 0.6949 0.1270
vn -0.6894 -0.6916 0.2155
vn -0.9731 0.0000 0.2305
vn -0.6894 0.6916 0.2155
vn -0.6497 -0.6876 0.3241
vn -0.9311 0.0000 0.3649
vn -0.6497 0.6876 0.3241
vn -0.5764 -0.6835 0.4478
vn -0.8515 0.0000 0.5244
vn -0.5764 0.6835 0.4478
vn -0.4606 -0.6808 0.5696
vn -0.7186 0.0000 0.6954
vn -0.4606 0.6808 0.5696
vn -0.3095 -0.6807 0.6640
vn -0.5297 0.0000 0.8482
vn -0.3095 0.6807 0.6640
vn -0.1484 -0.6833 0.7149
vn -0.3089 0.0000 0.9511
vn -0.1484 0.6833 0.7149
vn -0.0131 -0.6902 0.7235
vn -0.0951 0.0000 0.9955
vn -0.0131 0.6902 0.7235
vn 0.0925 -0.6918 0.7161
vn 0.0589 0.0000 0.9983
vn 0.0925 0.6918 0.7161
vn 0.2025 -0.6885 0.6964
vn 0.1966 0.0000 0.9805
vn 0.2025 0.6885 0.6964
vn 0.3285 -0.6853 0.6499
vn 0.3598 0.0000 0.9330
vn 0.3285 0.6853 0.6499
vn 0.4576 -0.6833 0.5689
vn 0.5379 0.0000 0.8430
vn 0.4576 0.6833 0.5689
vn 0.5701 -0.6834 0.4561
vn 0.7081 0.0000 0.7061
vn 0.5701 0.6834 0.4561
vn 0.6506 -0.6854 0.3271
vn 0.8443 0.0000 0.5358
vn 0.6506 0.6854 0.3271
vn 0.6966 -0.6886 0.2015
vn 0.9337 0.0000 0.3581
vn 0.6966 0.6886 0.2015
vn 0.7161 -0.6919 0.0920
vn 0.9807 0.0000 0.1956
vn 0.7161 0.6919 0.0920
vn 0.7215 -0.6924 -0.0059
vn 0.9983 0.0000 0.0586
vn 0.7215 0.6924 -0.0059
vn 0.7162 -0.6880 -0.1172
vn 0.9972 0.0000 -0.0747
vn 0.7162 0.6880 -0.1172
vn 0.6840 -0.6847 -0.2517
vn 0.9690 0.0000 -0.2470
vn 0.6840 0.6847 -0.2517
vn 0.6158 -0.6826 -0.3934
vn 0.8980 0.0000 -0.4401
vn 0.6158 0.6826 -0.3934
vn 0.5125 -0.6828 -0.5207
vn 0.7767 0.0000 -0.6299
vn 0.5125 0.6828 -0.5207
vn 0.3896 -0.6851 -0.6155
vn 0.6174 0.0000 -0.7867
vn 0.3896 0.6851 -0.6155
vn 0.2678 -0.6885 -0.6740
vn 0.4468 0.0000 -0.8946
vn 0.2678 0.6885 -0.6740
vn 0.1606 -0.6920 -0.7038
vn 0.2890 0.0000 -0.9573
vn 0.1606 0.6920 -0.7038
vn 0.0724 -0.6950 -0.7154
vn 0.1551 0.0000 -0.9879
vn 0.0724 0.6950 -0.7154
vn 0.3166 -0.8991 -0.3023
vn 0.0461 0.0000 -0.9989
vn 0.3166 0.8991 -0.3023
vn 0.7034 -0.7107 0.0113
vn 1.0000 0.0000 -0.0000
vn 0.7034 0.7107 0.0113
vn 0.6966 -0.7158 0.0490
vn 0.9995 0.0000 0.0320
vn 0.6966 0.7158 0.0490
vn 0.6871 -0.7183 0.1091
vn 0.9941 0.0000 0.1082
vn 0.6871 0.7183 0.1091
vn 0.6672 -0.7217 0.1846
vn 0.9788 0.0000 0.2049
vn 0.6672 0.7217 0.1846
vn 0.6289 -0.7261 0.2778
vn 0.9449 0.0000 0.3273
vn 0.6289 0.7261 0.2778
vn 0.5617 -0.7314 0.3868
vn 0.8783 0.0000 0.4781
vn 0.5617 0.7314 0.3868
vn 0.4560 -0.7360 0.5003
vn 0.7599 0.0000 0.6500
vn 0.4560 0.7360 0.5003
vn 0.3139 -0.7378 0.5976
vn 0.5771 0.0000 0.8167
vn 0.3139 0.7378 0.5976
vn 0.1544 -0.7356 0.6596
vn 0.3449 0.0000 0.9386
vn 0.1544 0.7356 0.6596
vn 0.0071 -0.7296 0.6838
vn 0.1074 0.0000 0.9942
vn 0.0071 0.7296 0.6838
vn -0.1186 -0.7271 0.6762
vn -0.0868 0.0000 0.9962
vn -0.1186 0.7271 0.6762
vn -0.2310 -0.7261 0.6476
vn -0.2574 0.0000 0.9663
vn -0.2310 0.7261 0.6476
vn -0.3302 -0.7242 0.6054
vn -0.4123 0.0000 0.9110
vn -0.3302 0.7242 0.6054
vn -0.4123 -0.7220 0.5557
vn -0.5427 0.0000 0.8399
vn -0.4123 0.7220 0.5557
vn -0.4774 -0.7197 0.5041
vn -0.6466 0.0000 0.7628
vn -0.4774 0.7197 0.5041
vn -0.5276 -0.7177 0.4545
vn -0.7265 0.0000 0.6872
vn -0.5276 0.7177 0.4545
vn -0.5658 -0.7160 0.4089
vn -0.7870 0.0000 0.6169
vn -0.5658 0.7160 0.4089
vn -0.5949 -0.7146 0.3681
vn -0.8327 0.0000 0.5538
vn -0.5949 0.7146 0.3681
vn -0.6164 -0.7122 0.3359
vn -0.8672 0.0000 0.4980
vn -0.6164 0.7122 0.3359
vn -0.6303 -0.7110 0.3118
vn -0.8886 0.0000 0.4587
vn -0.6303 0.7110 0.3118
vn -0.6408 -0.7114 0.2886
vn -0.9038 0.0000 0.4280
vn -0.6408 0.7114 0.2886
vn -0.6515 -0.7120 0.2620
vn -0.9195 0.0000 0.3931
vn -0.6515 0.7120 0.2620
vn -0.6622 -0.7126 0.2316
vn -0.9356 0.0000 0.3530
vn -0.6622 0.7126 0.2316
vn -0.6726 -0.7134 0.1967
vn -0.9517 0.0000 0.3071
vn -0.6726 0.7134 0.1967
vn -0.6822 -0.7142 0.1567
vn -0.9672 0.0000 0.2542
vn -0.6822 0.7142 0.1567
vn -0.6901 -0.7152 0.1108
vn -0.9811 0.0000 0.1933
vn -0.6901 0.7152 0.1108
vn -0.6954 -0.7162 0.0584
vn -0.9924 0.0000 0.1234
vn -0.6954 0.7162 0.0584
vn -0.7020 -0.7121 0.0153
vn -0.9990 0.0000 0.0437
vn -0.7020 0.7121 0.0153
vn -0.5774 -0.5774 0.5774
vn -1.0000 0.0000 -0.0000
vn -0.5774 0.5774 0.5774
vn 0.5774 -0.5774 0.5774
vn 0.0000 0.0000 1.0000
vn 0.5774 0.5774 0.5774
vn 0.7102 -0.7039 -0.0100
vn 0.7102 0.7039 -0.0100
vn 0.7125 -0.7004 -0.0415
vn 0.9996 0.0000 -0.0282
vn 0.7125 0.7004 -0.0415
vn 0.7090 -0.7000 -0.0856
vn 0.9961 0.0000 -0.0879
vn 0.7090 0.7000 -0.0856
vn 0.7023 -0.6995 -0.1325
vn 0.9884 0.0000 -0.1516
vn 0.7023 0.6995 -0.1325
vn 0.6916 -0.6990 -0.1818
vn 0.9757 0.0000 -0.2189
vn 0.6916 0.6990 -0.1818
vn 0.6765 -0.6986 -0.2328
vn 0.9573 0.0000 -0.2891
vn 0.6765 0.6986 -0.2328
vn 0.6567 -0.6983 -0.2847
vn 0.9325 0.0000 -0.3612
vn 0.6567 0.6983 -0.2847
vn 0.6320 -0.6981 -0.3366
vn 0.9010 0.0000 -0.4338
vn 0.6320 0.6981 -0.3366
vn 0.6025 -0.6980 -0.3871
vn 0.8628 0.0000 -0.5055
vn 0.6025 0.6980 -0.3871
vn 0.4164 -0.9060 0.0755
vn 0.8183 0.0000 -0.5748
vn 0.4164 0.9060 0.0755
vn 0.4295 -0.6975 0.5736
vn 0.5643 0.0000 0.8256
vn 0.4295 0.6975 0.5736
vn 0.4784 -0.6972 0.5339
vn 0.6334 0.0000 0.7738
vn 0.4784 0.6972 0.5339
vn 0.5248 -0.6970 0.4887
vn 0.7000 0.0000 0.7141
vn 0.5248 0.6970 0.4887
vn 0.5673 -0.6969 0.4387
vn 0.7622 0.0000 0.6473
vn 0.5673 0.6969 0.4387
vn 0.6047 -0.6971 0.3852
vn 0.8182 0.0000 0.5749
vn 0.6047 0.6971 0.3852
vn 0.6364 -0.6973 0.3297
vn 0.8668 0.0000 0.4986
vn 0.6364 0.6974 0.3297
vn 0.6620 -0.6978 0.2737
vn 0.9072 0.0000 0.4206
vn 0.6620 0.6978 0.2737
vn 0.6817 -0.6983 0.2185
vn 0.9394 0.0000 0.3429
vn 0.6817 0.6983 0.2185
vn 0.6571 -0.5644 -0.4997
vn 0.9636 0.0000 0.2672
vn 0.6571 0.5644 -0.4997
vn -0.5652 -0.5794 -0.5873
vn 0.0000 0.0000 -1.0000
vn -0.5652 0.5794 -0.5873
vn -0.6954 -0.7165 -0.0554
vn -0.9993 0.0000 -0.0384
vn -0.6954 0.7165 -0.0554
vn -0.6872 -0.7173 -0.1148
vn -0.9927 0.0000 -0.1204
vn -0.6872 0.7173 -0.1148
vn -0.6728 -0.7181 -0.1779
vn -0.9780 0.0000 -0.2088
vn -0.6728 0.7181 -0.1779
vn -0.6513 -0.7187 -0.2434
vn -0.9533 0.0000 -0.3019
vn -0.6513 0.7187 -0.2434
vn -0.6222 -0.7192 -0.3093
vn -0.9177 0.0000 -0.3973
vn -0.6222 0.7192 -0.3093
vn -0.5857 -0.7194 -0.3735
vn -0.8707 0.0000 -0.4918
vn -0.5857 0.7194 -0.3735
vn -0.5427 -0.7192 -0.4338
vn -0.8132 0.0000 -0.5820
vn -0.5427 0.7192 -0.4338
vn -0.4947 -0.7189 -0.4883
vn -0.7469 0.0000 -0.6649
vn -0.4947 0.7189 -0.4883
vn -0.0604 -0.8638 -0.5002
vn -0.6746 0.0000 -0.7382
vn -0.0604 0.8638 -0.5002
vn 0.3112 -0.6955 -0.6476
vn 0.4797 0.0000 -0.8774
vn 0.3112 0.6955 -0.6476
vn 0.2473 -0.6975 -0.6726
vn 0.3855 0.0000 -0.9227
vn 0.2473 0.6975 -0.6726
vn 0.1928 -0.6991 -0.6885
vn 0.3042 0.0000 -0.9526
vn 0.1928 0.6991 -0.6885
vn 0.1467 -0.7004 -0.6985
vn 0.2349 0.0000 -0.9720
vn 0.1467 0.7004 -0.6985
vn 0.1076 -0.7014 -0.7045
vn 0.1760 0.0000 -0.9844
vn 0.1076 0.7014 -0.7045
vn 0.0744 -0.7023 -0.7080
vn 0.1259 0.0000 -0.9920
vn 0.0744 0.7023 -0.7080
vn 0.0460 -0.7030 -0.7097
vn 0.0831 0.0000 -0.9965
vn 0.0460 0.7030 -0.7097
vn 0.0215 -0.7035 -0.7103
vn 0.0463 0.0000 -0.9989
vn 0.0215 0.7035 -0.7103
vn -0.0068 -0.7018 -0.7124
vn 0.0144 0.0000 -0.9999
vn -0.0068 0.7018 -0.7124
vn -0.0505 -0.6989 -0.7135
vn -0.0335 0.0000 -0.9994
vn -0.0505 0.6989 -0.7135
vn -0.1070 -0.6977 -0.7083
vn -0.1075 0.0000 -0.9942
vn -0.1070 0.6977 -0.7083
vn -0.1707 -0.6965 -0.6970
vn -0.1911 0.0000 -0.9816
vn -0.1707 0.6965 -0.6970
vn -0.2409 -0.6952 -0.6772
vn -0.2841 0.0000 -0.9588
vn -0.2409 0.6952 -0.6772
vn -0.3161 -0.6940 -0.6468
vn -0.3853 0.0000 -0.9228
vn -0.3161 0.6940 -0.6468
vn -0.3934 -0.6931 -0.6040
vn -0.4915 0.0000 -0.8709
vn -0.3934 0.6931 -0.6040
vn -0.4687 -0.6925 -0.5484
vn -0.5979 0.0000 -0.8016
vn -0.4687 0.6925 -0.5484
vn -0.5374 -0.6924 -0.4815
vn -0.6986 0.0000 -0.7155
vn -0.5374 0.6924 -0.4815
vn -0.8080 -0.5723 0.1399
vn -0.7876 0.0000 -0.6161
vn -0.8080 0.5723 0.1399
vn 0.1175 -0.5857 0.8019
vn -0.5348 0.0000 0.8450
vn 0.1175 0.5857 0.8019
vn 0.5025 -0.7182 0.4814
vn 0.7548 0.0000 0.6560
vn 0.5025 0.7182 0.4814
vn 0.4517 -0.7188 0.5285
vn 0.6878 0.0000 0.7259
vn 0.4517 0.7188 0.5285
vn 0.3940 -0.7192 0.5722
vn 0.6100 0.0000 0.7924
vn 0.3940 0.7192 0.5722
vn 0.3307 -0.7194 0.6108
vn 0.5227 0.0000 0.8525
vn 0.3307 0.7194 0.6108
vn 0.2636 -0.7193 0.6428
vn 0.4281 0.0000 0.9037
vn 0.2636 0.7193 0.6428
vn 0.1949 -0.7189 0.6672
vn 0.3296 0.0000 0.9441
vn 0.1949 0.7189 0.6672
vn 0.1270 -0.7183 0.6840
vn 0.2305 0.0000 0.9731
vn 0.1270 0.7183 0.6840
vn 0.0618 -0.7175 0.6938
vn 0.1341 0.0000 0.9910
vn 0.0618 0.7175 0.6938
vn 0.0097 -0.7137 0.7003
vn 0.0430 0.0000 0.9991
vn 0.0097 0.7137 0.7003
vn -0.0223 -0.7108 0.7031
vn -0.0154 0.0000 0.9999
vn -0.0223 0.7108 0.7031
vn -0.0460 -0.7111 0.7016
vn -0.0479 0.0000 0.9989
vn -0.0460 0.7111 0.7016
vn -0.0716 -0.7114 0.6991
vn -0.0830 0.0000 0.9965
vn -0.0716 0.7114 0.6991
vn -0.0991 -0.7117 0.6954
vn -0.1208 0.0000 0.9927
vn -0.0991 0.7117 0.6954
vn -0.1286 -0.7121 0.6902
vn -0.1613 0.0000 0.9869
vn -0.1286 0.7121 0.6902
vn -0.1600 -0.7125 0.6832
vn -0.2048 0.0000 0.9788
vn -0.1600 0.7125 0.6832
vn -0.1935 -0.7129 0.6740
vn -0.2512 0.0000 0.9679
vn -0.1935 0.7129 0.6740
vn -0.2289 -0.7134 0.6624
vn -0.3005 0.0000 0.9538
vn -0.2289 0.7134 0.6624
vn -0.2722 -0.9614 0.0387
vn -0.3526 0.0000 0.9358
vn -0.2722 0.9614 0.0387
vn -0.5993 0.0000 -0.8005
vn -0.6878 -0.7100 0.1509
vn -0.6915 -0.7100 0.1331
vn -0.9794 0.0000 0.2018
vn -0.6915 0.7100 0.1331
vn -0.6878 0.7100 0.1509
vn -0.6947 -0.7101 0.1150
vn -0.9843 0.0000 0.1763
vn -0.6947 0.7101 0.1150
vn -0.6974 -0.7101 0.0965
vn -0.9886 0.0000 0.1503
vn -0.6974 0.7101 0.0965
vn -0.6997 -0.7102 0.0777
vn -0.9923 0.0000 0.1238
vn -0.6997 0.7102 0.0777
vn -0.7016 -0.7102 0.0586
vn -0.9953 0.0000 0.0968
vn -0.7016 0.7102 0.0586
vn -0.7029 -0.7102 0.0392
vn -0.9976 0.0000 0.0695
vn -0.7029 0.7102 0.0392
vn -0.7037 -0.7103 0.0197
vn -0.9991 0.0000 0.0419
vn -0.7037 0.7103 0.0197
vn -0.7055 -0.7087 0.0049
vn -0.9999 0.0000 0.0140
vn -0.7055 0.7087 0.0049
vn -0.0367 -0.9900 -0.1360
vn -0.0367 0.9900 -0.1360
vn 0.6055 -0.7003 -0.3779
vn 0.8640 0.0000 -0.5035
vn 0.6055 0.7003 -0.3779
vn 0.5816 -0.7004 -0.4138
vn 0.8319 0.0000 -0.5550
vn 0.5816 0.7004 -0.4138
vn 0.5558 -0.7005 -0.4477
vn 0.7970 0.0000 -0.6040
vn 0.5558 0.7005 -0.4477
vn 0.5285 -0.7007 -0.4793
vn 0.7598 0.0000 -0.6501
vn 0.5285 0.7007 -0.4793
vn 0.5002 -0.7008 -0.5086
vn 0.7210 0.0000 -0.6930
vn 0.5002 0.7008 -0.5086
vn 0.4712 -0.7011 -0.5352
vn 0.6809 0.0000 -0.7324
vn 0.4712 0.7011 -0.5352
vn 0.4420 -0.7013 -0.5593
vn 0.6402 0.0000 -0.7682
vn 0.4420 0.7013 -0.5593
vn 0.4127 -0.7015 -0.5809
vn 0.5993 0.0000 -0.8005
vn 0.4127 0.7015 -0.5809
vn 0.2833 -0.9588 0.0213
vn 0.5587 0.0000 -0.8294
vn 0.2833 0.9588 0.0213
vn 0.3071 -0.7058 0.6383
vn 0.4284 0.0000 0.9036
vn 0.3071 0.7058 0.6383
vn 0.3149 -0.7057 0.6347
vn 0.4387 0.0000 0.8987
vn 0.3149 0.7057 0.6347
vn 0.3239 -0.7054 0.6305
vn 0.4503 0.0000 0.8929
vn 0.3239 0.7054 0.6305
vn 0.3341 -0.7052 0.6254
vn 0.4636 0.0000 0.8861
vn 0.3341 0.7052 0.6254
vn 0.3461 -0.7048 0.6192
vn 0.4789 0.0000 0.8779
vn 0.3461 0.7048 0.6192
vn 0.3602 -0.7044 0.6117
vn 0.4968 0.0000 0.8679
vn 0.3602 0.7044 0.6117
vn 0.3770 -0.7038 0.6021
vn 0.5180 0.0000 0.8554
vn 0.3770 0.7038 0.6021
vn 0.3974 -0.7030 0.5899
vn 0.5433 0.0000 0.8396
vn 0.3974 0.7030 0.5899
vn -0.1166 -0.9453 0.3047
vn 0.5740 0.0000 0.8189
vn -0.1166 0.9453 0.3047
vn -0.9739 0.0000 0.2268
vn -0.0850 -0.7224 0.6862
vn -0.1848 -0.7260 0.6624
vn -0.1888 0.0000 0.9820
vn -0.1848 0.7260 0.6624
vn -0.0850 0.7224 0.6862
vn -0.2984 -0.7297 0.6153
vn -0.3468 0.0000 0.9379
vn -0.2984 0.7297 0.6153
vn -0.4161 -0.7323 0.5391
vn -0.5218 0.0000 0.8531
vn -0.4161 0.7323 0.5391
vn -0.5227 -0.7327 0.4358
vn -0.6930 0.0000 0.7209
vn -0.5227 0.7327 0.4358
vn -0.6046 -0.7308 0.3168
vn -0.8338 0.0000 0.5520
vn -0.6046 0.7308 0.3168
vn -0.6570 -0.7274 0.1981
vn -0.9284 0.0000 0.3715
vn -0.6570 0.7274 0.1981
vn -0.6840 -0.7237 0.0916
vn -0.9790 0.0000 0.2037
vn -0.6840 0.7237 0.0916
vn -0.6929 -0.7210 0.0003
vn -0.9981 0.0000 0.0611
vn -0.6929 0.7210 0.0003
vn -0.6845 -0.7234 -0.0903
vn -0.9982 0.0000 -0.0602
vn -0.6845 0.7234 -0.0903
vn -0.6581 -0.7271 -0.1955
vn -0.9796 0.0000 -0.2008
vn -0.6581 0.7271 -0.1955
vn -0.6067 -0.7306 -0.3133
vn -0.9303 0.0000 -0.3667
vn -0.6067 0.7306 -0.3133
vn -0.5259 -0.7326 -0.4321
vn -0.8376 0.0000 -0.5463
vn -0.5259 0.7326 -0.4321
vn -0.4198 -0.7324 -0.5361
vn -0.6984 0.0000 -0.7157
vn -0.4198 0.7324 -0.5361
vn -0.3019 -0.7299 -0.6133
vn -0.5275 0.0000 -0.8495
vn -0.3019 0.7299 -0.6133
vn -0.1872 -0.7263 -0.6614
vn -0.3514 0.0000 -0.9362
vn -0.1872 0.7263 -0.6614
vn -0.0862 -0.7227 -0.6858
vn -0.1915 0.0000 -0.9815
vn -0.0862 0.7227 -0.6858
vn -0.0003 -0.7201 -0.6938
vn -0.0573 0.0000 -0.9984
vn -0.0003 0.7201 -0.6938
vn 0.0850 -0.7224 -0.6862
vn 0.0565 0.0000 -0.9984
vn 0.0850 0.7224 -0.6862
vn 0.1849 -0.7260 -0.6623
vn 0.1889 0.0000 -0.9820
vn 0.1849 0.7260 -0.6623
vn 0.2985 -0.7297 -0.6152
vn 0.3470 0.0000 -0.9379
vn 0.2985 0.7297 -0.6152
vn 0.4162 -0.7323 -0.5390
vn 0.5220 0.0000 -0.8529
vn 0.4162 0.7323 -0.5390
vn 0.5228 -0.7327 -0.4356
vn 0.6932 0.0000 -0.7207
vn 0.5228 0.7327 -0.4356
vn 0.6047 -0.7308 -0.3167
vn 0.8340 0.0000 -0.5518
vn 0.6047 0.7308 -0.3167
vn 0.6571 -0.7274 -0.1980
vn 0.9285 0.0000 -0.3713
vn 0.6571 0.7274 -0.1980
vn 0.6841 -0.7237 -0.0916
vn 0.9791 0.0000 -0.2036
vn 0.6841 0.7237 -0.0916
vn 0.6927 -0.7212 0.0003
vn 0.9981 0.0000 -0.0610
vn 0.6927 0.7212 0.0003
vn 0.6836 -0.7239 0.0929
vn 0.9981 0.0000 0.0620
vn 0.6836 0.7239 0.0929
vn 0.6560 -0.7276 0.2006
vn 0.9784 0.0000 0.2065
vn 0.6560 0.7276 0.2006
vn 0.6026 -0.7310 0.3203
vn 0.9266 0.0000 0.3761
vn 0.6026 0.7310 0.3203
vn 0.5196 -0.7328 0.4394
vn 0.8301 0.0000 0.5575
vn 0.5196 0.7328 0.4394
vn 0.4125 -0.7322 0.5420
vn 0.4125 0.7322 0.5420
vn 0.2951 -0.7295 0.6171
vn 0.5163 0.0000 0.8564
vn 0.2951 0.7295 0.6171
vn 0.1824 -0.7258 0.6633
vn 0.3424 0.0000 0.9396
vn 0.1824 0.7258 0.6633
vn 0.0838 -0.7222 0.6866
vn 0.1862 0.0000 0.9825
vn 0.0838 0.7222 0.6866
vn -0.0003 -0.7199 0.6940
vn 0.0556 0.0000 0.9985
vn -0.0003 0.7199 0.6940
vn -0.0565 0.0000 0.9984
vn 0.0000 -1.0000 -0.0000
vn 0.0000 1.0000 -0.0000
# 617 vertex normals

o So_Sua
g So_Sua
s 1
f 1//1 2//2 3//3 
f 2//2 4//4 3//3 
f 4//4 5//5 3//3 
f 5//5 1//1 3//3 
s 3
f 2//2 6//6 7//7 
f 6//6 8//8 7//7 
f 8//8 4//4 7//7 
f 4//4 2//2 7//7 
s 2
f 6//6 9//9 10//10 
f 9//9 11//11 10//10 
f 11//11 8//8 10//10 
f 8//8 6//6 10//10 
f 9//9 12//12 13//13 
f 12//12 14//14 13//13 
f 14//14 11//11 13//13 
f 11//11 9//9 13//13 
f 12//12 15//15 16//16 
f 15//15 17//17 16//16 
f 17//17 14//14 16//16 
f 14//14 12//12 16//16 
f 15//15 18//18 19//19 
f 18//18 20//20 19//19 
f 20//20 17//17 19//19 
f 17//17 15//15 19//19 
f 18//18 21//21 22//22 
f 21//21 23//23 22//22 
f 23//23 20//20 22//22 
f 20//20 18//18 22//22 
f 21//21 24//24 25//25 
f 24//24 26//26 25//25 
f 26//26 23//23 25//25 
f 23//23 21//21 25//25 
f 24//24 27//27 28//28 
f 27//27 29//29 28//28 
f 29//29 26//26 28//28 
f 26//26 24//24 28//28 
f 27//27 30//30 31//31 
f 30//30 32//32 31//31 
f 32//32 29//29 31//31 
f 29//29 27//27 31//31 
f 30//30 33//33 34//34 
f 33//33 35//35 34//34 
f 35//35 32//32 34//34 
f 32//32 30//30 34//34 
f 33//33 36//36 37//37 
f 36//36 38//38 37//37 
f 38//38 35//35 37//37 
f 35//35 33//33 37//37 
f 36//36 39//39 40//40 
f 39//39 41//41 40//40 
f 41//41 38//38 40//40 
f 38//38 36//36 40//40 
f 39//39 42//42 43//43 
f 42//42 44//44 43//43 
f 44//44 41//41 43//43 
f 41//41 39//39 43//43 
f 42//42 45//45 46//46 
f 45//45 47//47 46//46 
f 47//47 44//44 46//46 
f 44//44 42//42 46//46 
f 45//45 48//48 49//49 
f 48//48 50//50 49//49 
f 50//50 47//47 49//49 
f 47//47 45//45 49//49 
f 48//48 51//51 52//52 
f 51//51 53//53 52//52 
f 53//53 50//50 52//52 
f 50//50 48//48 52//52 
f 51//51 54//54 55//55 
f 54//54 56//56 55//55 
f 56//56 53//53 55//55 
f 53//53 51//51 55//55 
f 54//54 57//57 58//58 
f 57//57 59//59 58//58 
f 59//59 56//56 58//58 
f 56//56 54//54 58//58 
f 57//57 60//60 61//61 
f 60//60 62//62 61//61 
f 62//62 59//59 61//61 
f 59//59 57//57 61//61 
f 60//60 63//63 64//64 
f 63//63 65//65 64//64 
f 65//65 62//62 64//64 
f 62//62 60//60 64//64 
f 63//63 66//66 67//67 
f 66//66 68//68 67//67 
f 68//68 65//65 67//67 
f 65//65 63//63 67//67 
f 66//66 69//69 70//70 
f 69//69 71//71 70//70 
f 71//71 68//68 70//70 
f 68//68 66//66 70//70 
f 69//69 72//72 73//73 
f 72//72 74//74 73//73 
f 74//74 71//71 73//73 
f 71//71 69//69 73//73 
f 72//72 75//75 76//76 
f 75//75 77//77 76//76 
f 77//77 74//74 76//76 
f 74//74 72//72 76//76 
f 75//75 78//78 79//79 
f 78//78 80//80 79//79 
f 80//80 77//77 79//79 
f 77//77 75//75 79//79 
f 78//78 81//81 82//82 
f 81//81 83//83 82//82 
f 83//83 80//80 82//82 
f 80//80 78//78 82//82 
f 81//81 84//84 85//85 
f 84//84 86//86 85//85 
f 86//86 83//83 85//85 
f 83//83 81//81 85//85 
f 84//84 87//87 88//88 
f 87//87 89//89 88//88 
f 89//89 86//86 88//88 
f 86//86 84//84 88//88 
f 87//87 90//90 91//91 
f 90//90 92//92 91//91 
f 92//92 89//89 91//91 
f 89//89 87//87 91//91 
f 90//90 93//93 94//94 
f 93//93 95//95 94//94 
f 95//95 92//92 94//94 
f 92//92 90//90 94//94 
f 93//93 96//96 97//97 
f 96//96 98//98 97//97 
f 98//98 95//95 97//97 
f 95//95 93//93 97//97 
f 96//96 99//99 100//100 
f 99//99 101//101 100//100 
f 101//101 98//98 100//100 
f 98//98 96//96 100//100 
f 99//99 102//102 103//103 
f 102//102 104//104 103//103 
f 104//104 101//101 103//103 
f 101//101 99//99 103//103 
f 102//102 105//105 106//106 
f 105//105 107//107 106//106 
f 107//107 104//104 106//106 
f 104//104 102//102 106//106 
f 105//105 108//108 109//109 
f 108//108 110//110 109//109 
f 110//110 107//107 109//109 
f 107//107 105//105 109//109 
f 108//108 111//111 112//112 
f 111//111 113//113 112//112 
f 113//113 110//110 112//112 
f 110//110 108//108 112//112 
f 111//111 114//114 115//115 
f 114//114 116//116 115//115 
f 116//116 113//113 115//115 
f 113//113 111//111 115//115 
f 114//114 117//117 118//118 
f 117//117 119//119 118//118 
f 119//119 116//116 118//118 
f 116//116 114//114 118//118 
f 117//117 120//120 121//121 
f 120//120 122//122 121//121 
f 122//122 119//119 121//121 
f 119//119 117//117 121//121 
f 120//120 123//123 124//124 
f 123//123 125//125 124//124 
f 125//125 122//122 124//124 
f 122//122 120//120 124//124 
f 123//123 126//126 127//127 
f 126//126 128//128 127//127 
f 128//128 125//125 127//127 
f 125//125 123//123 127//127 
f 126//126 129//129 130//130 
f 129//129 131//131 130//130 
f 131//131 128//128 130//130 
f 128//128 126//126 130//130 
f 129//129 132//132 133//133 
f 132//132 134//134 133//133 
f 134//134 131//131 133//133 
f 131//131 129//129 133//133 
f 132//132 135//135 136//136 
f 135//135 137//137 136//136 
f 137//137 134//134 136//136 
f 134//134 132//132 136//136 
s 4
f 135//135 138//138 139//139 
f 138//138 140//140 139//139 
f 140//140 137//137 139//139 
f 137//137 135//135 139//139 
s 2
f 138//138 141//141 142//142 
f 141//141 143//143 142//142 
f 143//143 140//140 142//142 
f 140//140 138//138 142//142 
f 141//141 144//144 145//145 
f 144//144 146//146 145//145 
f 146//146 143//143 145//145 
f 143//143 141//141 145//145 
f 144//144 147//147 148//148 
f 147//147 149//149 148//148 
f 149//149 146//146 148//148 
f 146//146 144//144 148//148 
f 147//147 150//150 151//151 
f 150//150 152//152 151//151 
f 152//152 149//149 151//151 
f 149//149 147//147 151//151 
f 150//150 153//153 154//154 
f 153//153 155//155 154//154 
f 155//155 152//152 154//154 
f 152//152 150//150 154//154 
f 153//153 156//156 157//157 
f 156//156 158//158 157//157 
f 158//158 155//155 157//157 
f 155//155 153//153 157//157 
f 156//156 159//159 160//160 
f 159//159 161//161 160//160 
f 161//161 158//158 160//160 
f 158//158 156//156 160//160 
f 159//159 162//162 163//163 
f 162//162 164//164 163//163 
f 164//164 161//161 163//163 
f 161//161 159//159 163//163 
f 162//162 165//165 166//166 
f 165//165 167//167 166//166 
f 167//167 164//164 166//166 
f 164//164 162//162 166//166 
f 165//165 168//168 169//169 
f 168//168 170//170 169//169 
f 170//170 167//167 169//169 
f 167//167 165//165 169//169 
f 168//168 171//171 172//172 
f 171//171 173//173 172//172 
f 173//173 170//170 172//172 
f 170//170 168//168 172//172 
f 171//171 174//174 175//175 
f 174//174 176//176 175//175 
f 176//176 173//173 175//175 
f 173//173 171//171 175//175 
f 174//174 177//177 178//178 
f 177//177 179//179 178//178 
f 179//179 176//176 178//178 
f 176//176 174//174 178//178 
f 177//177 180//180 181//181 
f 180//180 182//182 181//181 
f 182//182 179//179 181//181 
f 179//179 177//177 181//181 
f 180//180 183//183 184//184 
f 183//183 185//185 184//184 
f 185//185 182//182 184//184 
f 182//182 180//180 184//184 
f 183//183 186//186 187//187 
f 186//186 188//188 187//187 
f 188//188 185//185 187//187 
f 185//185 183//183 187//187 
f 186//186 189//189 190//190 
f 189//189 191//191 190//190 
f 191//191 188//188 190//190 
f 188//188 186//186 190//190 
f 189//189 192//192 193//193 
f 192//192 194//194 193//193 
f 194//194 191//191 193//193 
f 191//191 189//189 193//193 
f 192//192 195//195 196//196 
f 195//195 197//197 196//196 
f 197//197 194//194 196//196 
f 194//194 192//192 196//196 
f 195//195 198//198 199//199 
f 198//198 200//200 199//199 
f 200//200 197//197 199//199 
f 197//197 195//195 199//199 
f 198//198 201//201 202//202 
f 201//201 203//203 202//202 
f 203//203 200//200 202//202 
f 200//200 198//198 202//202 
f 201//201 204//204 205//205 
f 204//204 206//206 205//205 
f 206//206 203//203 205//205 
f 203//203 201//201 205//205 
f 204//204 207//207 208//208 
f 207//207 209//209 208//208 
f 209//209 206//206 208//208 
f 206//206 204//204 208//208 
f 207//207 210//210 211//211 
f 210//210 212//212 211//211 
f 212//212 209//209 211//211 
f 209//209 207//207 211//211 
f 210//210 213//213 214//214 
f 213//213 215//215 214//214 
f 215//215 212//212 214//214 
f 212//212 210//210 214//214 
f 213//213 216//216 217//217 
f 216//216 218//218 217//217 
f 218//218 215//215 217//217 
f 215//215 213//213 217//217 
f 216//216 219//219 220//220 
f 219//219 221//221 220//220 
f 221//221 218//218 220//220 
f 218//218 216//216 220//220 
s 4
f 219//219 222//222 223//223 
f 222//222 224//224 223//223 
f 224//224 221//221 223//223 
f 221//221 219//219 223//223 
s 2
f 222//222 225//225 226//226 
f 225//225 227//227 226//226 
f 227//227 224//224 226//226 
f 224//224 222//222 226//226 
s 4
f 225//225 228//228 229//139 
f 228//228 230//229 229//139 
f 230//229 227//227 229//139 
f 227//227 225//225 229//139 
s 2
f 228//228 231//230 232//231 
f 231//230 233//232 232//231 
f 233//232 230//229 232//231 
f 230//229 228//228 232//231 
f 231//230 234//233 235//234 
f 234//233 236//235 235//234 
f 236//235 233//232 235//234 
f 233//232 231//230 235//234 
f 234//233 237//236 238//237 
f 237//236 239//238 238//237 
f 239//238 236//235 238//237 
f 236//235 234//233 238//237 
f 237//236 240//239 241//240 
f 240//239 242//241 241//240 
f 242//241 239//238 241//240 
f 239//238 237//236 241//240 
f 240//239 243//242 244//243 
f 243//242 245//244 244//243 
f 245//244 242//241 244//243 
f 242//241 240//239 244//243 
f 243//242 246//245 247//246 
f 246//245 248//247 247//246 
f 248//247 245//244 247//246 
f 245//244 243//242 247//246 
f 246//245 249//248 250//249 
f 249//248 251//250 250//249 
f 251//250 248//247 250//249 
f 248//247 246//245 250//249 
f 249//248 252//251 253//252 
f 252//251 254//253 253//252 
f 254//253 251//250 253//252 
f 251//250 249//248 253//252 
f 252//251 255//254 256//255 
f 255//254 257//256 256//255 
f 257//256 254//253 256//255 
f 254//253 252//251 256//255 
s 4
f 255//254 258//257 259//258 
f 258//257 260//259 259//258 
f 260//259 257//256 259//258 
f 257//256 255//254 259//258 
f 258//257 261//260 262//261 
f 261//260 263//262 262//261 
f 263//262 260//259 262//261 
f 260//259 258//257 262//261 
f 261//260 264//263 265//264 
f 264//263 266//265 265//264 
f 266//265 263//262 265//264 
f 263//262 261//260 265//264 
f 264//263 267//266 268//267 
f 267//266 269//268 268//267 
f 269//268 266//265 268//267 
f 266//265 264//263 268//267 
f 267//266 270//269 271//270 
f 270//269 272//271 271//270 
f 272//271 269//268 271//270 
f 269//268 267//266 271//270 
f 270//269 273//272 274//273 
f 273//272 275//274 274//273 
f 275//274 272//271 274//273 
f 272//271 270//269 274//273 
f 273//272 276//275 277//276 
f 276//275 278//277 277//276 
f 278//277 275//274 277//276 
f 275//274 273//272 277//276 
f 276//275 279//278 280//279 
f 279//278 281//280 280//279 
f 281//280 278//277 280//279 
f 278//277 276//275 280//279 
f 279//278 282//281 283//282 
f 282//281 284//283 283//282 
f 284//283 281//280 283//282 
f 281//280 279//278 283//282 
s 2
f 282//281 285//284 286//285 
f 285//284 287//286 286//285 
f 287//286 284//283 286//285 
f 284//283 282//281 286//285 
s 4
f 285//284 288//287 289//288 
f 288//287 290//289 289//288 
f 290//289 287//286 289//288 
f 287//286 285//284 289//288 
f 288//287 291//290 292//291 
f 291//290 293//292 292//291 
f 293//292 290//289 292//291 
f 290//289 288//287 292//291 
f 291//290 294//293 295//294 
f 294//293 296//295 295//294 
f 296//295 293//292 295//294 
f 293//292 291//290 295//294 
f 294//293 297//296 298//297 
f 297//296 299//298 298//297 
f 299//298 296//295 298//297 
f 296//295 294//293 298//297 
f 297//296 300//299 301//300 
f 300//299 302//301 301//300 
f 302//301 299//298 301//300 
f 299//298 297//296 301//300 
f 300//299 303//302 304//303 
f 303//302 305//304 304//303 
f 305//304 302//301 304//303 
f 302//301 300//299 304//303 
f 303//302 306//305 307//306 
f 306//305 308//307 307//306 
f 308//307 305//304 307//306 
f 305//304 303//302 307//306 
f 306//305 309//308 310//309 
f 309//308 311//310 310//309 
f 311//310 308//307 310//309 
f 308//307 306//305 310//309 
f 309//308 312//311 313//312 
f 312//311 314//313 313//312 
f 314//313 311//310 313//312 
f 311//310 309//308 313//312 
s 2
f 312//311 315//314 316//315 
f 315//314 317//316 316//315 
f 317//316 314//313 316//315 
f 314//313 312//311 316//315 
f 315//314 318//317 319//318 
f 318//317 320//319 319//318 
f 320//319 317//316 319//318 
f 317//316 315//314 319//318 
f 318//317 321//320 322//321 
f 321//320 323//322 322//321 
f 323//322 320//319 322//321 
f 320//319 318//317 322//321 
f 321//320 324//323 325//324 
f 324//323 326//325 325//324 
f 326//325 323//322 325//324 
f 323//322 321//320 325//324 
f 324//323 327//326 328//327 
f 327//326 329//328 328//327 
f 329//328 326//325 328//327 
f 326//325 324//323 328//327 
f 327//326 330//329 331//330 
f 330//329 332//331 331//330 
f 332//331 329//328 331//330 
f 329//328 327//326 331//330 
f 330//329 333//332 334//333 
f 333//332 335//334 334//333 
f 335//334 332//331 334//333 
f 332//331 330//329 334//333 
f 333//332 336//335 337//336 
f 336//335 338//337 337//336 
f 338//337 335//334 337//336 
f 335//334 333//332 337//336 
f 336//335 339//338 340//339 
f 339//338 341//340 340//339 
f 341//340 338//337 340//339 
f 338//337 336//335 340//339 
f 339//338 342//341 343//342 
f 342//341 344//343 343//342 
f 344//343 341//340 343//342 
f 341//340 339//338 343//342 
f 342//341 345//344 346//345 
f 345//344 347//346 346//345 
f 347//346 344//343 346//345 
f 344//343 342//341 346//345 
f 345//344 348//347 349//348 
f 348//347 350//349 349//348 
f 350//349 347//346 349//348 
f 347//346 345//344 349//348 
f 348//347 351//350 352//351 
f 351//350 353//352 352//351 
f 353//352 350//349 352//351 
f 350//349 348//347 352//351 
f 351//350 354//353 355//354 
f 354//353 356//355 355//354 
f 356//355 353//352 355//354 
f 353//352 351//350 355//354 
f 354//353 357//356 358//357 
f 357//356 359//358 358//357 
f 359//358 356//355 358//357 
f 356//355 354//353 358//357 
f 357//356 360//359 361//360 
f 360//359 362//361 361//360 
f 362//361 359//358 361//360 
f 359//358 357//356 361//360 
f 360//359 363//362 364//363 
f 363//362 365//364 364//363 
f 365//364 362//361 364//363 
f 362//361 360//359 364//363 
f 363//362 366//365 367//366 
f 366//365 368//367 367//366 
f 368//367 365//364 367//366 
f 365//364 363//362 367//366 
s 4
f 366//365 369//368 370//369 
f 369//368 371//370 370//369 
f 371//370 368//367 370//369 
f 368//367 366//365 370//369 
s 2
f 369//368 372//371 373//372 
f 372//371 374//373 373//372 
f 374//373 371//370 373//372 
f 371//370 369//368 373//372 
f 372//371 375//374 376//375 
f 375//374 377//376 376//375 
f 377//376 374//373 376//375 
f 374//373 372//371 376//375 
f 375//374 378//377 379//378 
f 378//377 380//379 379//378 
f 380//379 377//376 379//378 
f 377//376 375//374 379//378 
f 378//377 381//380 382//381 
f 381//380 383//382 382//381 
f 383//382 380//379 382//381 
f 380//379 378//377 382//381 
f 381//380 384//383 385//384 
f 384//383 386//385 385//384 
f 386//385 383//382 385//384 
f 383//382 381//380 385//384 
f 384//383 387//386 388//387 
f 387//386 389//388 388//387 
f 389//388 386//385 388//387 
f 386//385 384//383 388//387 
f 387//386 390//389 391//390 
f 390//389 392//391 391//390 
f 392//391 389//388 391//390 
f 389//388 387//386 391//390 
f 390//389 393//392 394//393 
f 393//392 395//394 394//393 
f 395//394 392//391 394//393 
f 392//391 390//389 394//393 
f 393//392 396//395 397//396 
f 396//395 398//397 397//396 
f 398//397 395//394 397//396 
f 395//394 393//392 397//396 
f 396//395 399//398 400//399 
f 399//398 401//400 400//399 
f 401//400 398//397 400//399 
f 398//397 396//395 400//399 
f 399//398 402//401 403//402 
f 402//401 404//403 403//402 
f 404//403 401//400 403//402 
f 401//400 399//398 403//402 
f 402//401 405//404 406//405 
f 405//404 407//406 406//405 
f 407//406 404//403 406//405 
f 404//403 402//401 406//405 
f 405//404 408//407 409//408 
f 408//407 410//409 409//408 
f 410//409 407//406 409//408 
f 407//406 405//404 409//408 
f 408//407 411//410 412//411 
f 411//410 413//412 412//411 
f 413//412 410//409 412//411 
f 410//409 408//407 412//411 
f 411//410 414//413 415//414 
f 414//413 416//415 415//414 
f 416//415 413//412 415//414 
f 413//412 411//410 415//414 
f 414//413 417//416 418//417 
f 417//416 419//418 418//417 
f 419//418 416//415 418//417 
f 416//415 414//413 418//417 
f 417//416 420//419 421//420 
f 420//419 422//421 421//420 
f 422//421 419//418 421//420 
f 419//418 417//416 421//420 
f 420//419 423//422 424//423 
f 423//422 425//424 424//423 
f 425//424 422//421 424//423 
f 422//421 420//419 424//423 
s 4
f 423//422 1//1 426//425 
f 1//1 5//5 426//425 
f 5//5 425//424 426//425 
f 425//424 423//422 426//425 
s 1
f 427//426 428//427 429//428 
f 428//427 430//429 429//428 
f 430//429 431//430 429//428 
f 431//430 427//426 429//428 
s 3
f 428//427 432//431 433//432 
f 432//431 434//433 433//432 
f 434//433 430//429 433//432 
f 430//429 428//427 433//432 
s 2
f 432//431 435//434 436//435 
f 435//434 437//436 436//435 
f 437//436 434//433 436//435 
f 434//433 432//431 436//435 
f 435//434 438//437 439//438 
f 438//437 440//439 439//438 
f 440//439 437//436 439//438 
f 437//436 435//434 439//438 
f 438//437 441//440 442//441 
f 441//440 443//442 442//441 
f 443//442 440//439 442//441 
f 440//439 438//437 442//441 
f 441//440 444//443 445//444 
f 444//443 446//445 445//444 
f 446//445 443//442 445//444 
f 443//442 441//440 445//444 
f 444//443 447//446 448//447 
f 447//446 449//448 448//447 
f 449//448 446//445 448//447 
f 446//445 444//443 448//447 
f 447//446 450//449 451//450 
f 450//449 452//451 451//450 
f 452//451 449//448 451//450 
f 449//448 447//446 451//450 
s 4
f 450//449 453//452 454//223 
f 453//452 455//453 454//223 
f 455//453 452//451 454//223 
f 452//451 450//449 454//223 
s 2
f 453//452 456//454 457//455 
f 456//454 458//456 457//455 
f 458//456 455//453 457//455 
f 455//453 453//452 457//455 
f 456//454 459//457 460//458 
f 459//457 461//459 460//458 
f 461//459 458//456 460//458 
f 458//456 456//454 460//458 
f 459//457 462//460 463//461 
f 462//460 464//462 463//461 
f 464//462 461//459 463//461 
f 461//459 459//457 463//461 
f 462//460 465//463 466//464 
f 465//463 467//465 466//464 
f 467//465 464//462 466//464 
f 464//462 462//460 466//464 
f 465//463 468//466 469//467 
f 468//466 470//468 469//467 
f 470//468 467//465 469//467 
f 467//465 465//463 469//467 
f 468//466 471//469 472//470 
f 471//469 473//471 472//470 
f 473//471 470//468 472//470 
f 470//468 468//466 472//470 
f 471//469 474//472 475//473 
f 474//472 476//474 475//473 
f 476//474 473//471 475//473 
f 473//471 471//469 475//473 
f 474//472 477//475 478//476 
f 477//475 479//477 478//476 
f 479//477 476//474 478//476 
f 476//474 474//472 478//476 
f 477//475 480//478 481//479 
f 480//478 482//480 481//479 
f 482//480 479//477 481//479 
f 479//477 477//475 481//479 
s 4
f 480//478 483//481 484//482 
f 483//481 485//483 484//482 
f 485//483 482//480 484//482 
f 482//480 480//478 484//482 
f 483//481 486//484 487//485 
f 486//484 488//486 487//485 
f 488//486 485//483 487//485 
f 485//483 483//481 487//485 
f 486//484 489//487 490//488 
f 489//487 491//489 490//488 
f 491//489 488//486 490//488 
f 488//486 486//484 490//488 
f 489//487 492//490 493//491 
f 492//490 494//492 493//491 
f 494//492 491//489 493//491 
f 491//489 489//487 493//491 
f 492//490 495//493 496//494 
f 495//493 497//495 496//494 
f 497//495 494//492 496//494 
f 494//492 492//490 496//494 
f 495//493 498//496 499//497 
f 498//496 500//498 499//497 
f 500//498 497//495 499//497 
f 497//495 495//493 499//497 
f 498//496 501//499 502//500 
f 501//499 503//501 502//500 
f 503//501 500//498 502//500 
f 500//498 498//496 502//500 
f 501//499 504//502 505//503 
f 504//502 506//504 505//503 
f 506//504 503//501 505//503 
f 503//501 501//499 505//503 
f 504//502 507//505 508//506 
f 507//505 509//507 508//506 
f 509//507 506//504 508//506 
f 506//504 504//502 508//506 
s 3
f 507//505 427//426 510//508 
f 427//426 431//430 510//508 
f 431//430 509//507 510//508 
f 509//507 507//505 510//508 
s 1
f 511//509 512//510 513//511 
f 512//510 514//512 513//511 
f 514//512 515//513 513//511 
f 515//513 511//509 513//511 
s 3
f 512//510 516//514 517//515 
f 516//514 518//516 517//515 
f 518//516 514//512 517//515 
f 514//512 512//510 517//515 
s 2
f 516//514 519//517 520//518 
f 519//517 521//519 520//518 
f 521//519 518//516 520//518 
f 518//516 516//514 520//518 
f 519//517 522//520 523//521 
f 522//520 524//522 523//521 
f 524//522 521//519 523//521 
f 521//519 519//517 523//521 
f 522//520 525//523 526//524 
f 525//523 527//525 526//524 
f 527//525 524//522 526//524 
f 524//522 522//520 526//524 
f 525//523 528//526 529//527 
f 528//526 530//528 529//527 
f 530//528 527//525 529//527 
f 527//525 525//523 529//527 
f 528//526 531//529 532//530 
f 531//529 533//531 532//530 
f 533//531 530//528 532//530 
f 530//528 528//526 532//530 
f 531//529 534//532 535//533 
f 534//532 536//534 535//533 
f 536//534 533//531 535//533 
f 533//531 531//529 535//533 
f 534//532 537//535 538//536 
f 537//535 539//537 538//536 
f 539//537 536//534 538//536 
f 536//534 534//532 538//536 
f 537//535 540//538 541//539 
f 540//538 542//540 541//539 
f 542//540 539//537 541//539 
f 539//537 537//535 541//539 
f 540//538 543//541 544//542 
f 543//541 545//543 544//542 
f 545//543 542//540 544//542 
f 542//540 540//538 544//542 
f 543//541 546//544 547//545 
f 546//544 548//546 547//545 
f 548//546 545//543 547//545 
f 545//543 543//541 547//545 
f 546//544 549//547 550//548 
f 549//547 551//549 550//548 
f 551//549 548//546 550//548 
f 548//546 546//544 550//548 
f 549//547 552//550 553//551 
f 552//550 554//552 553//551 
f 554//552 551//549 553//551 
f 551//549 549//547 553//551 
f 552//550 555//553 556//554 
f 555//553 557//555 556//554 
f 557//555 554//552 556//554 
f 554//552 552//550 556//554 
f 555//553 558//556 559//557 
f 558//556 560//558 559//557 
f 560//558 557//555 559//557 
f 557//555 555//553 559//557 
f 558//556 561//559 562//560 
f 561//559 563//561 562//560 
f 563//561 560//558 562//560 
f 560//558 558//556 562//560 
f 561//559 564//562 565//563 
f 564//562 566//564 565//563 
f 566//564 563//561 565//563 
f 563//561 561//559 565//563 
f 564//562 567//565 568//566 
f 567//565 569//567 568//566 
f 569//567 566//564 568//566 
f 566//564 564//562 568//566 
f 567//565 570//568 571//569 
f 570//568 572//570 571//569 
f 572//570 569//567 571//569 
f 569//567 567//565 571//569 
f 570//568 573//571 574//572 
f 573//571 575//573 574//572 
f 575//573 572//570 574//572 
f 572//570 570//568 574//572 
f 573//571 576//574 577//575 
f 576//574 578//576 577//575 
f 578//576 575//573 577//575 
f 575//573 573//571 577//575 
f 576//574 579//577 580//578 
f 579//577 581//579 580//578 
f 581//579 578//576 580//578 
f 578//576 576//574 580//578 
f 579//577 582//580 583//581 
f 582//580 584//582 583//581 
f 584//582 581//579 583//581 
f 581//579 579//577 583//581 
f 582//580 585//583 586//584 
f 585//583 587//585 586//584 
f 587//585 584//582 586//584 
f 584//582 582//580 586//584 
f 585//583 588//586 589//587 
f 588//586 590//588 589//587 
f 590//588 587//585 589//587 
f 587//585 585//583 589//587 
f 588//586 591//589 592//590 
f 591//589 593//591 592//590 
f 593//591 590//588 592//590 
f 590//588 588//586 592//590 
f 591//589 594//592 595//593 
f 594//592 596//594 595//593 
f 596//594 593//591 595//593 
f 593//591 591//589 595//593 
f 594//592 597//595 598//596 
f 597//595 599//597 598//596 
f 599//597 596//594 598//596 
f 596//594 594//592 598//596 
f 597//595 600//598 601//599 
f 600//598 602//600 601//599 
f 602//600 599//597 601//599 
f 599//597 597//595 601//599 
f 600//598 603//601 604//375 
f 603//601 605//602 604//375 
f 605//602 602//600 604//375 
f 602//600 600//598 604//375 
f 603//601 606//603 607//604 
f 606//603 608//605 607//604 
f 608//605 605//602 607//604 
f 605//602 603//601 607//604 
f 606//603 609//606 610//607 
f 609//606 611//608 610//607 
f 611//608 608//605 610//607 
f 608//605 606//603 610//607 
f 609//606 612//609 613//610 
f 612//609 614//611 613//610 
f 614//611 611//608 613//610 
f 611//608 609//606 613//610 
f 612//609 615//612 616//613 
f 615//612 617//614 616//613 
f 617//614 614//611 616//613 
f 614//611 612//609 616//613 
s 3
f 615//612 511//509 618//615 
f 511//509 515//513 618//615 
f 515//513 617//614 618//615 
f 617//614 615//612 618//615 
s 16
f 480//478 15//15 619//616 
f 15//15 12//12 619//616 
f 12//12 480//478 619//616 
f 365//364 368//367 620//617 
f 368//367 371//370 620//617 
f 371//370 374//373 620//617 
f 374//373 365//364 620//617 
f 228//228 225//225 621//616 
f 225//225 222//222 621//616 
f 222//222 219//219 621//616 
f 219//219 228//228 621//616 
f 171//171 168//168 622//616 
f 168//168 18//18 622//616 
f 18//18 15//15 622//616 
f 15//15 480//478 622//616 
f 12//12 9//9 623//616 
f 9//9 480//478 623//616 
f 480//478 12//12 623//616 
f 9//9 6//6 624//616 
f 6//6 480//478 624//616 
f 480//478 9//9 624//616 
f 6//6 2//2 625//616 
f 2//2 480//478 625//616 
f 480//478 6//6 625//616 
f 2//2 1//1 626//616 
f 1//1 495//493 626//616 
f 495//493 492//490 626//616 
f 492//490 489//487 626//616 
f 489//487 486//484 626//616 
f 486//484 483//481 626//616 
f 483//481 480//478 626//616 
f 480//478 2//2 626//616 
f 1//1 423//422 627//616 
f 423//422 507//505 627//616 
f 507//505 504//502 627//616 
f 504//502 501//499 627//616 
f 501//499 498//496 627//616 
f 498//496 495//493 627//616 
f 495//493 1//1 627//616 
f 423//422 420//419 628//616 
f 420//419 324//323 628//616 
f 324//323 321//320 628//616 
f 321//320 318//317 628//616 
f 318//317 315//314 628//616 
f 315//314 423//422 628//616 
f 423//422 315//314 629//616 
f 315//314 312//311 629//616 
f 312//311 507//505 629//616 
f 507//505 423//422 629//616 
f 420//419 417//416 630//616 
f 417//416 327//326 630//616 
f 327//326 324//323 630//616 
f 324//323 420//419 630//616 
f 417//416 414//413 631//616 
f 414//413 327//326 631//616 
f 327//326 417//416 631//616 
f 414//413 411//410 632//616 
f 411//410 330//329 632//616 
f 330//329 327//326 632//616 
f 327//326 414//413 632//616 
f 411//410 408//407 633//616 
f 408//407 333//332 633//616 
f 333//332 330//329 633//616 
f 330//329 411//410 633//616 
f 408//407 405//404 634//616 
f 405//404 336//335 634//616 
f 336//335 333//332 634//616 
f 333//332 408//407 634//616 
f 405//404 402//401 635//616 
f 402//401 336//335 635//616 
f 336//335 405//404 635//616 
f 402//401 399//398 636//616 
f 399//398 339//338 636//616 
f 339//338 336//335 636//616 
f 336//335 402//401 636//616 
f 399//398 396//395 637//616 
f 396//395 339//338 637//616 
f 339//338 399//398 637//616 
f 396//395 393//392 638//616 
f 393//392 342//341 638//616 
f 342//341 339//338 638//616 
f 339//338 396//395 638//616 
f 393//392 390//389 639//616 
f 390//389 345//344 639//616 
f 345//344 342//341 639//616 
f 342//341 393//392 639//616 
f 390//389 387//386 640//616 
f 387//386 348//347 640//616 
f 348//347 345//344 640//616 
f 345//344 390//389 640//616 
f 387//386 384//383 641//616 
f 384//383 351//350 641//616 
f 351//350 348//347 641//616 
f 348//347 387//386 641//616 
f 384//383 381//380 642//616 
f 381//380 354//353 642//616 
f 354//353 351//350 642//616 
f 351//350 384//383 642//616 
f 381//380 378//377 643//616 
f 378//377 357//356 643//616 
f 357//356 354//353 643//616 
f 354//353 381//380 643//616 
f 378//377 375//374 644//616 
f 375//374 360//359 644//616 
f 360//359 357//356 644//616 
f 357//356 378//377 644//616 
f 375//374 372//371 645//616 
f 372//371 363//362 645//616 
f 363//362 360//359 645//616 
f 360//359 375//374 645//616 
f 372//371 369//368 646//616 
f 369//368 366//365 646//616 
f 366//365 363//362 646//616 
f 363//362 372//371 646//616 
f 168//168 165//165 647//616 
f 165//165 21//21 647//616 
f 21//21 18//18 647//616 
f 18//18 168//168 647//616 
f 165//165 162//162 648//616 
f 162//162 24//24 648//616 
f 24//24 21//21 648//616 
f 21//21 165//165 648//616 
f 162//162 159//159 649//616 
f 159//159 27//27 649//616 
f 27//27 24//24 649//616 
f 24//24 162//162 649//616 
f 159//159 156//156 650//616 
f 156//156 30//30 650//616 
f 30//30 27//27 650//616 
f 27//27 159//159 650//616 
f 156//156 153//153 651//616 
f 153//153 36//36 651//616 
f 36//36 33//33 651//616 
f 33//33 30//30 651//616 
f 30//30 156//156 651//616 
f 153//153 150//150 652//616 
f 150//150 39//39 652//616 
f 39//39 36//36 652//616 
f 36//36 153//153 652//616 
f 150//150 147//147 653//616 
f 147//147 42//42 653//616 
f 42//42 39//39 653//616 
f 39//39 150//150 653//616 
f 147//147 144//144 654//616 
f 144//144 45//45 654//616 
f 45//45 42//42 654//616 
f 42//42 147//147 654//616 
f 144//144 141//141 655//616 
f 141//141 48//48 655//616 
f 48//48 45//45 655//616 
f 45//45 144//144 655//616 
f 141//141 138//138 656//616 
f 138//138 51//51 656//616 
f 51//51 48//48 656//616 
f 48//48 141//141 656//616 
f 138//138 135//135 657//616 
f 135//135 658//616 606//603 657//616 
f 606//603 603//601 657//616 
f 603//601 54//54 657//616 
f 54//54 51//51 657//616 
f 51//51 138//138 657//616 
f 603//601 600//598 659//616 
f 600//598 54//54 659//616 
f 54//54 603//601 659//616 
f 600//598 597//595 660//616 
f 597//595 54//54 660//616 
f 54//54 600//598 660//616 
f 597//595 594//592 661//616 
f 594//592 54//54 661//616 
f 54//54 597//595 661//616 
f 594//592 591//589 662//616 
f 591//589 54//54 662//616 
f 54//54 594//592 662//616 
f 591//589 588//586 663//616 
f 588//586 63//63 663//616 
f 63//63 60//60 663//616 
f 60//60 57//57 663//616 
f 57//57 54//54 663//616 
f 54//54 591//589 663//616 
f 588//586 585//583 664//616 
f 585//583 66//66 664//616 
f 66//66 63//63 664//616 
f 63//63 588//586 664//616 
f 585//583 582//580 665//616 
f 582//580 66//66 665//616 
f 66//66 585//583 665//616 
f 582//580 579//577 666//616 
f 579//577 69//69 666//616 
f 69//69 66//66 666//616 
f 66//66 582//580 666//616 
f 579//577 576//574 667//616 
f 576//574 72//72 667//616 
f 72//72 69//69 667//616 
f 69//69 579//577 667//616 
f 576//574 573//571 668//616 
f 573//571 72//72 668//616 
f 72//72 576//574 668//616 
f 573//571 570//568 669//616 
f 570//568 75//75 669//616 
f 75//75 72//72 669//616 
f 72//72 573//571 669//616 
f 570//568 567//565 670//616 
f 567//565 78//78 670//616 
f 78//78 75//75 670//616 
f 75//75 570//568 670//616 
f 567//565 564//562 671//616 
f 564//562 78//78 671//616 
f 78//78 567//565 671//616 
f 564//562 561//559 672//616 
f 561//559 81//81 672//616 
f 81//81 78//78 672//616 
f 78//78 564//562 672//616 
f 561//559 558//556 673//616 
f 558//556 84//84 673//616 
f 84//84 81//81 673//616 
f 81//81 561//559 673//616 
f 558//556 555//553 674//616 
f 555//553 87//87 674//616 
f 87//87 84//84 674//616 
f 84//84 558//556 674//616 
f 555//553 552//550 675//616 
f 552//550 90//90 675//616 
f 90//90 87//87 675//616 
f 87//87 555//553 675//616 
f 552//550 549//547 676//616 
f 549//547 93//93 676//616 
f 93//93 90//90 676//616 
f 90//90 552//550 676//616 
f 549//547 546//544 677//616 
f 546//544 96//96 677//616 
f 96//96 93//93 677//616 
f 93//93 549//547 677//616 
f 546//544 543//541 678//616 
f 543//541 99//99 678//616 
f 99//99 96//96 678//616 
f 96//96 546//544 678//616 
f 543//541 540//538 679//616 
f 540//538 102//102 679//616 
f 102//102 99//99 679//616 
f 99//99 543//541 679//616 
f 540//538 537//535 680//616 
f 537//535 105//105 680//616 
f 105//105 102//102 680//616 
f 102//102 540//538 680//616 
f 537//535 534//532 681//616 
f 534//532 108//108 681//616 
f 108//108 105//105 681//616 
f 105//105 537//535 681//616 
f 534//532 531//529 682//616 
f 531//529 111//111 682//616 
f 111//111 108//108 682//616 
f 108//108 534//532 682//616 
f 531//529 528//526 683//616 
f 528//526 114//114 683//616 
f 114//114 111//111 683//616 
f 111//111 531//529 683//616 
f 528//526 525//523 684//616 
f 525//523 117//117 684//616 
f 117//117 114//114 684//616 
f 114//114 528//526 684//616 
f 525//523 522//520 685//616 
f 522//520 120//120 685//616 
f 120//120 117//117 685//616 
f 117//117 525//523 685//616 
f 522//520 519//517 686//616 
f 519//517 123//123 686//616 
f 123//123 120//120 686//616 
f 120//120 522//520 686//616 
f 519//517 516//514 687//616 
f 516//514 126//126 687//616 
f 126//126 123//123 687//616 
f 123//123 519//517 687//616 
f 516//514 512//510 688//616 
f 512//510 129//129 688//616 
f 129//129 126//126 688//616 
f 126//126 516//514 688//616 
f 512//510 511//509 689//616 
f 511//509 132//132 689//616 
f 132//132 129//129 689//616 
f 129//129 512//510 689//616 
f 511//509 615//612 690//616 
f 615//612 132//132 690//616 
f 132//132 511//509 690//616 
f 615//612 612//609 691//616 
f 612//609 135//135 691//616 
f 135//135 132//132 691//616 
f 132//132 615//612 691//616 
f 612//609 609//606 692//616 
f 609//606 135//135 692//616 
f 135//135 612//609 692//616 
f 609//606 606//603 658//616 
f 135//135 609//606 658//616 
f 309//308 306//305 693//616 
f 306//305 255//254 693//616 
f 255//254 309//308 693//616 
f 219//219 216//216 694//616 
f 216//216 228//228 694//616 
f 228//228 219//219 694//616 
f 216//216 213//213 695//616 
f 213//213 228//228 695//616 
f 228//228 216//216 695//616 
f 213//213 210//210 696//616 
f 210//210 228//228 696//616 
f 228//228 213//213 696//616 
f 210//210 207//207 697//616 
f 207//207 228//228 697//616 
f 228//228 210//210 697//616 
f 207//207 204//204 698//616 
f 204//204 228//228 698//616 
f 228//228 207//207 698//616 
f 204//204 201//201 699//616 
f 201//201 228//228 699//616 
f 228//228 204//204 699//616 
f 201//201 198//198 700//616 
f 198//198 228//228 700//616 
f 228//228 201//201 700//616 
f 198//198 195//195 701//616 
f 195//195 228//228 701//616 
f 228//228 198//198 701//616 
f 195//195 192//192 702//616 
f 192//192 453//452 702//616 
f 453//452 195//195 702//616 
f 192//192 189//189 703//616 
f 189//189 456//454 703//616 
f 456//454 453//452 703//616 
f 453//452 192//192 703//616 
f 453//452 450//449 704//616 
f 450//449 228//228 704//616 
f 228//228 453//452 704//616 
f 453//452 228//228 705//616 
f 228//228 195//195 705//616 
f 195//195 453//452 705//616 
f 450//449 447//446 706//616 
f 447//446 228//228 706//616 
f 228//228 450//449 706//616 
f 447//446 444//443 707//616 
f 444//443 231//230 707//616 
f 231//230 228//228 707//616 
f 228//228 447//446 707//616 
f 444//443 441//440 708//616 
f 441//440 231//230 708//616 
f 231//230 444//443 708//616 
f 441//440 438//437 709//616 
f 438//437 234//233 709//616 
f 234//233 231//230 709//616 
f 231//230 441//440 709//616 
f 438//437 435//434 710//616 
f 435//434 237//236 710//616 
f 237//236 234//233 710//616 
f 234//233 438//437 710//616 
f 435//434 432//431 711//616 
f 432//431 237//236 711//616 
f 237//236 435//434 711//616 
f 432//431 428//427 712//616 
f 428//427 240//239 712//616 
f 240//239 237//236 712//616 
f 237//236 432//431 712//616 
f 428//427 427//426 713//616 
f 427//426 243//242 713//616 
f 243//242 240//239 713//616 
f 240//239 428//427 713//616 
f 427//426 507//505 714//616 
f 507//505 312//311 714//616 
f 312//311 309//308 714//616 
f 309//308 255//254 714//616 
f 255//254 252//251 714//616 
f 252//251 249//248 714//616 
f 249//248 246//245 714//616 
f 246//245 243//242 714//616 
f 243//242 427//426 714//616 
f 189//189 186//186 715//616 
f 186//186 462//460 715//616 
f 462//460 459//457 715//616 
f 459//457 456//454 715//616 
f 456//454 189//189 715//616 
f 186//186 183//183 716//616 
f 183//183 465//463 716//616 
f 465//463 462//460 716//616 
f 462//460 186//186 716//616 
f 183//183 180//180 717//616 
f 180//180 471//469 717//616 
f 471//469 468//466 717//616 
f 468//466 465//463 717//616 
f 465//463 183//183 717//616 
f 180//180 177//177 718//616 
f 177//177 474//472 718//616 
f 474//472 471//469 718//616 
f 471//469 180//180 718//616 
f 177//177 174//174 719//616 
f 174//174 480//478 719//616 
f 480//478 477//475 719//616 
f 477//475 474//472 719//616 
f 474//472 177//177 719//616 
f 174//174 171//171 720//616 
f 171//171 622//616 480//478 720//616 
f 480//478 174//174 720//616 
f 306//305 303//302 721//616 
f 303//302 258//257 721//616 
f 258//257 255//254 721//616 
f 255//254 306//305 721//616 
f 303//302 300//299 722//616 
f 300//299 264//263 722//616 
f 264//263 261//260 722//616 
f 261//260 258//257 722//616 
f 258//257 303//302 722//616 
f 300//299 297//296 723//616 
f 297//296 267//266 723//616 
f 267//266 264//263 723//616 
f 264//263 300//299 723//616 
f 297//296 294//293 724//616 
f 294//293 270//269 724//616 
f 270//269 267//266 724//616 
f 267//266 297//296 724//616 
f 294//293 291//290 725//616 
f 291//290 273//272 725//616 
f 273//272 270//269 725//616 
f 270//269 294//293 725//616 
f 291//290 288//287 726//616 
f 288//287 276//275 726//616 
f 276//275 273//272 726//616 
f 273//272 291//290 726//616 
f 288//287 285//284 727//616 
f 285//284 282//281 727//616 
f 282//281 279//278 727//616 
f 279//278 276//275 727//616 
f 276//275 288//287 727//616 
f 374//373 377//376 728//617 
f 377//376 362//361 728//617 
f 362//361 365//364 728//617 
f 365//364 374//373 728//617 
f 377//376 380//379 729//617 
f 380//379 359//358 729//617 
f 359//358 362//361 729//617 
f 362//361 377//376 729//617 
f 380//379 383//382 730//617 
f 383//382 356//355 730//617 
f 356//355 359//358 730//617 
f 359//358 380//379 730//617 
f 383//382 386//385 731//617 
f 386//385 353//352 731//617 
f 353//352 356//355 731//617 
f 356//355 383//382 731//617 
f 386//385 389//388 732//617 
f 389//388 350//349 732//617 
f 350//349 353//352 732//617 
f 353//352 386//385 732//617 
f 389//388 392//391 733//617 
f 392//391 347//346 733//617 
f 347//346 350//349 733//617 
f 350//349 389//388 733//617 
f 392//391 395//394 734//617 
f 395//394 344//343 734//617 
f 344//343 347//346 734//617 
f 347//346 392//391 734//617 
f 395//394 398//397 735//617 
f 398//397 341//340 735//617 
f 341//340 344//343 735//617 
f 344//343 395//394 735//617 
f 398//397 401//400 736//617 
f 401//400 341//340 736//617 
f 341//340 398//397 736//617 
f 401//400 404//403 737//617 
f 404//403 338//337 737//617 
f 338//337 341//340 737//617 
f 341//340 401//400 737//617 
f 404//403 407//406 738//617 
f 407//406 338//337 738//617 
f 338//337 404//403 738//617 
f 407//406 410//409 739//617 
f 410//409 335//334 739//617 
f 335//334 338//337 739//617 
f 338//337 407//406 739//617 
f 410//409 413//412 740//617 
f 413//412 332//331 740//617 
f 332//331 335//334 740//617 
f 335//334 410//409 740//617 
f 413//412 416//415 741//617 
f 416//415 329//328 741//617 
f 329//328 332//331 741//617 
f 332//331 413//412 741//617 
f 416//415 419//418 742//617 
f 419//418 329//328 742//617 
f 329//328 416//415 742//617 
f 419//418 422//421 743//617 
f 422//421 326//325 743//617 
f 326//325 329//328 743//617 
f 329//328 419//418 743//617 
f 422//421 425//424 744//617 
f 425//424 317//316 744//617 
f 317//316 320//319 744//617 
f 320//319 323//322 744//617 
f 323//322 326//325 744//617 
f 326//325 422//421 744//617 
f 425//424 509//507 745//617 
f 509//507 251//250 745//617 
f 251//250 254//253 745//617 
f 254//253 257//256 745//617 
f 257//256 314//313 745//617 
f 314//313 317//316 745//617 
f 317//316 425//424 745//617 
f 425//424 5//5 746//617 
f 5//5 497//495 746//617 
f 497//495 500//498 746//617 
f 500//498 503//501 746//617 
f 503//501 506//504 746//617 
f 506//504 509//507 746//617 
f 509//507 425//424 746//617 
f 509//507 431//430 747//617 
f 431//430 245//244 747//617 
f 245//244 248//247 747//617 
f 248//247 251//250 747//617 
f 251//250 509//507 747//617 
f 278//277 281//280 748//617 
f 281//280 284//283 748//617 
f 284//283 287//286 748//617 
f 287//286 290//289 748//617 
f 290//289 278//277 748//617 
f 290//289 293//292 749//617 
f 293//292 275//274 749//617 
f 275//274 278//277 749//617 
f 278//277 290//289 749//617 
f 293//292 296//295 750//617 
f 296//295 272//271 750//617 
f 272//271 275//274 750//617 
f 275//274 293//292 750//617 
f 296//295 299//298 751//617 
f 299//298 269//268 751//617 
f 269//268 272//271 751//617 
f 272//271 296//295 751//617 
f 299//298 302//301 752//617 
f 302//301 266//265 752//617 
f 266//265 269//268 752//617 
f 269//268 299//298 752//617 
f 302//301 305//304 753//617 
f 305//304 260//259 753//617 
f 260//259 263//262 753//617 
f 263//262 266//265 753//617 
f 266//265 302//301 753//617 
f 305//304 308//307 754//617 
f 308//307 257//256 754//617 
f 257//256 260//259 754//617 
f 260//259 305//304 754//617 
f 308//307 311//310 755//617 
f 311//310 257//256 755//617 
f 257//256 308//307 755//617 
f 311//310 314//313 756//617 
f 314//313 257//256 756//617 
f 257//256 311//310 756//617 
f 431//430 430//429 757//617 
f 430//429 242//241 757//617 
f 242//241 245//244 757//617 
f 245//244 431//430 757//617 
f 430//429 434//433 758//617 
f 434//433 239//238 758//617 
f 239//238 242//241 758//617 
f 242//241 430//429 758//617 
f 434//433 437//436 759//617 
f 437//436 239//238 759//617 
f 239//238 434//433 759//617 
f 437//436 440//439 760//617 
f 440//439 236//235 760//617 
f 236//235 239//238 760//617 
f 239//238 437//436 760//617 
f 440//439 443//442 761//617 
f 443//442 233//232 761//617 
f 233//232 236//235 761//617 
f 236//235 440//439 761//617 
f 443//442 446//445 762//617 
f 446//445 233//232 762//617 
f 233//232 443//442 762//617 
f 446//445 449//448 763//617 
f 449//448 230//229 763//617 
f 230//229 233//232 763//617 
f 233//232 446//445 763//617 
f 449//448 452//451 764//617 
f 452//451 230//229 764//617 
f 230//229 449//448 764//617 
f 452//451 455//453 765//617 
f 455//453 230//229 765//617 
f 230//229 452//451 765//617 
f 482//480 766//617 173//173 767//617 
f 173//173 176//176 767//617 
f 176//176 482//480 767//617 
f 455//453 197//197 768//617 
f 197//197 200//200 768//617 
f 200//200 230//229 768//617 
f 230//229 455//453 768//617 
f 200//200 203//203 769//617 
f 203//203 230//229 769//617 
f 230//229 200//200 769//617 
f 203//203 206//206 770//617 
f 206//206 230//229 770//617 
f 230//229 203//203 770//617 
f 206//206 209//209 771//617 
f 209//209 230//229 771//617 
f 230//229 206//206 771//617 
f 209//209 212//212 772//617 
f 212//212 230//229 772//617 
f 230//229 209//209 772//617 
f 212//212 215//215 773//617 
f 215//215 230//229 773//617 
f 230//229 212//212 773//617 
f 215//215 218//218 774//617 
f 218//218 230//229 774//617 
f 230//229 215//215 774//617 
f 218//218 221//221 775//617 
f 221//221 230//229 775//617 
f 230//229 218//218 775//617 
f 221//221 224//224 776//617 
f 224//224 227//227 776//617 
f 227//227 230//229 776//617 
f 230//229 221//221 776//617 
f 176//176 179//179 777//617 
f 179//179 476//474 777//617 
f 476//474 479//477 777//617 
f 479//477 482//480 777//617 
f 482//480 176//176 777//617 
f 179//179 182//182 778//617 
f 182//182 473//471 778//617 
f 473//471 476//474 778//617 
f 476//474 179//179 778//617 
f 182//182 185//185 779//617 
f 185//185 467//465 779//617 
f 467//465 470//468 779//617 
f 470//468 473//471 779//617 
f 473//471 182//182 779//617 
f 185//185 188//188 780//617 
f 188//188 464//462 780//617 
f 464//462 467//465 780//617 
f 467//465 185//185 780//617 
f 188//188 191//191 781//617 
f 191//191 458//456 781//617 
f 458//456 461//459 781//617 
f 461//459 464//462 781//617 
f 464//462 188//188 781//617 
f 191//191 194//194 782//617 
f 194//194 455//453 782//617 
f 455//453 458//456 782//617 
f 458//456 191//191 782//617 
f 194//194 197//197 783//617 
f 197//197 455//453 783//617 
f 455//453 194//194 783//617 
f 5//5 4//4 784//617 
f 4//4 482//480 784//617 
f 482//480 485//483 784//617 
f 485//483 488//486 784//617 
f 488//486 491//489 784//617 
f 491//489 494//492 784//617 
f 494//492 497//495 784//617 
f 497//495 5//5 784//617 
f 4//4 8//8 785//617 
f 8//8 482//480 785//617 
f 482//480 4//4 785//617 
f 8//8 11//11 786//617 
f 11//11 482//480 786//617 
f 482//480 8//8 786//617 
f 11//11 14//14 787//617 
f 14//14 482//480 787//617 
f 482//480 11//11 787//617 
f 14//14 17//17 788//617 
f 17//17 482//480 788//617 
f 482//480 14//14 788//617 
f 17//17 20//20 766//617 
f 20//20 173//173 766//617 
f 482//480 17//17 766//617 
f 20//20 23//23 789//617 
f 23//23 170//170 789//617 
f 170//170 173//173 789//617 
f 173//173 20//20 789//617 
f 23//23 26//26 790//617 
f 26//26 167//167 790//617 
f 167//167 170//170 790//617 
f 170//170 23//23 790//617 
f 608//605 611//608 791//617 
f 611//608 137//137 791//617 
f 611//608 614//611 792//617 
f 614//611 137//137 792//617 
f 137//137 611//608 792//617 
f 614//611 617//614 793//617 
f 617//614 134//134 793//617 
f 134//134 137//137 793//617 
f 137//137 614//611 793//617 
f 617//614 515//513 794//617 
f 515//513 134//134 794//617 
f 134//134 617//614 794//617 
f 515//513 514//512 795//617 
f 514//512 131//131 795//617 
f 131//131 134//134 795//617 
f 134//134 515//513 795//617 
f 514//512 518//516 796//617 
f 518//516 128//128 796//617 
f 128//128 131//131 796//617 
f 131//131 514//512 796//617 
f 518//516 521//519 797//617 
f 521//519 125//125 797//617 
f 125//125 128//128 797//617 
f 128//128 518//516 797//617 
f 521//519 524//522 798//617 
f 524//522 122//122 798//617 
f 122//122 125//125 798//617 
f 125//125 521//519 798//617 
f 524//522 527//525 799//617 
f 527//525 119//119 799//617 
f 119//119 122//122 799//617 
f 122//122 524//522 799//617 
f 527//525 530//528 800//617 
f 530//528 116//116 800//617 
f 116//116 119//119 800//617 
f 119//119 527//525 800//617 
f 530//528 533//531 801//617 
f 533//531 113//113 801//617 
f 113//113 116//116 801//617 
f 116//116 530//528 801//617 
f 533//531 536//534 802//617 
f 536//534 110//110 802//617 
f 110//110 113//113 802//617 
f 113//113 533//531 802//617 
f 536//534 539//537 803//617 
f 539//537 107//107 803//617 
f 107//107 110//110 803//617 
f 110//110 536//534 803//617 
f 539//537 542//540 804//617 
f 542//540 104//104 804//617 
f 104//104 107//107 804//617 
f 107//107 539//537 804//617 
f 542//540 545//543 805//617 
f 545//543 101//101 805//617 
f 101//101 104//104 805//617 
f 104//104 542//540 805//617 
f 545//543 548//546 806//617 
f 548//546 98//98 806//617 
f 98//98 101//101 806//617 
f 101//101 545//543 806//617 
f 548//546 551//549 807//617 
f 551//549 95//95 807//617 
f 95//95 98//98 807//617 
f 98//98 548//546 807//617 
f 551//549 554//552 808//617 
f 554//552 92//92 808//617 
f 92//92 95//95 808//617 
f 95//95 551//549 808//617 
f 554//552 557//555 809//617 
f 557//555 89//89 809//617 
f 89//89 92//92 809//617 
f 92//92 554//552 809//617 
f 557//555 560//558 810//617 
f 560//558 86//86 810//617 
f 86//86 89//89 810//617 
f 89//89 557//555 810//617 
f 560//558 563//561 811//617 
f 563//561 83//83 811//617 
f 83//83 86//86 811//617 
f 86//86 560//558 811//617 
f 563//561 566//564 812//617 
f 566//564 80//80 812//617 
f 80//80 83//83 812//617 
f 83//83 563//561 812//617 
f 566//564 569//567 813//617 
f 569//567 80//80 813//617 
f 80//80 566//564 813//617 
f 569//567 572//570 814//617 
f 572//570 77//77 814//617 
f 77//77 80//80 814//617 
f 80//80 569//567 814//617 
f 572//570 575//573 815//617 
f 575//573 74//74 815//617 
f 74//74 77//77 815//617 
f 77//77 572//570 815//617 
f 575//573 578//576 816//617 
f 578//576 74//74 816//617 
f 74//74 575//573 816//617 
f 578//576 581//579 817//617 
f 581//579 71//71 817//617 
f 71//71 74//74 817//617 
f 74//74 578//576 817//617 
f 581//579 584//582 818//617 
f 584//582 68//68 818//617 
f 68//68 71//71 818//617 
f 71//71 581//579 818//617 
f 584//582 587//585 819//617 
f 587//585 68//68 819//617 
f 68//68 584//582 819//617 
f 587//585 590//588 820//617 
f 590//588 65//65 820//617 
f 65//65 68//68 820//617 
f 68//68 587//585 820//617 
f 590//588 593//591 821//617 
f 593//591 56//56 821//617 
f 56//56 59//59 821//617 
f 59//59 62//62 821//617 
f 62//62 65//65 821//617 
f 65//65 590//588 821//617 
f 593//591 596//594 822//617 
f 596//594 56//56 822//617 
f 56//56 593//591 822//617 
f 596//594 599//597 823//617 
f 599//597 56//56 823//617 
f 56//56 596//594 823//617 
f 599//597 602//600 824//617 
f 602//600 56//56 824//617 
f 56//56 599//597 824//617 
f 602//600 605//602 825//617 
f 605//602 56//56 825//617 
f 56//56 602//600 825//617 
f 605//602 608//605 826//617 
f 608//605 791//617 137//137 826//617 
f 137//137 140//140 826//617 
f 140//140 53//53 826//617 
f 53//53 56//56 826//617 
f 56//56 605//602 826//617 
f 140//140 143//143 827//617 
f 143//143 50//50 827//617 
f 50//50 53//53 827//617 
f 53//53 140//140 827//617 
f 143//143 146//146 828//617 
f 146//146 47//47 828//617 
f 47//47 50//50 828//617 
f 50//50 143//143 828//617 
f 146//146 149//149 829//617 
f 149//149 44//44 829//617 
f 44//44 47//47 829//617 
f 47//47 146//146 829//617 
f 149//149 152//152 830//617 
f 152//152 41//41 830//617 
f 41//41 44//44 830//617 
f 44//44 149//149 830//617 
f 152//152 155//155 831//617 
f 155//155 38//38 831//617 
f 38//38 41//41 831//617 
f 41//41 152//152 831//617 
f 155//155 158//158 832//617 
f 158//158 32//32 832//617 
f 32//32 35//35 832//617 
f 35//35 38//38 832//617 
f 38//38 155//155 832//617 
f 158//158 161//161 833//617 
f 161//161 29//29 833//617 
f 29//29 32//32 833//617 
f 32//32 158//158 833//617 
f 161//161 164//164 834//617 
f 164//164 26//26 834//617 
f 26//26 29//29 834//617 
f 29//29 161//161 834//617 
f 164//164 167//167 835//617 
f 167//167 26//26 835//617 
f 26//26 164//164 835//617 
# 4 polygons - 1666 triangles

