# 3ds Max Wavefront OBJ Exporter v0.97b - (c)2007 guruware
# File Created: 10.09.2021 11:11:16

#
# object Ho_Hib
#

v  1660.9255 0.0000 -5.2547
v  1661.4332 0.0000 -7.3446
v  1661.1794 5.0000 -6.2996
v  1661.4332 10.0000 -7.3446
v  1660.9255 10.0000 -5.2547
v  1662.0404 0.0000 -9.4340
v  1661.7368 5.0000 -8.3893
v  1662.0404 10.0000 -9.4340
v  1662.7472 0.0000 -11.5229
v  1662.3938 5.0000 -10.4784
v  1662.7472 10.0000 -11.5229
v  1663.5535 0.0000 -13.6112
v  1663.1504 5.0000 -12.5670
v  1663.5535 10.0000 -13.6112
v  1664.4594 0.0000 -15.6990
v  1664.0065 5.0000 -14.6551
v  1664.4594 10.0000 -15.6990
v  1665.4648 0.0000 -17.7863
v  1664.9622 5.0000 -16.7426
v  1665.4648 10.0000 -17.7863
v  1666.5698 0.0000 -19.8730
v  1666.0173 5.0000 -18.8297
v  1666.5698 10.0000 -19.8730
v  1667.7745 0.0000 -21.9593
v  1667.1722 5.0000 -20.9161
v  1667.7745 10.0000 -21.9593
v  1669.0786 0.0000 -24.0450
v  1668.4265 5.0000 -23.0021
v  1669.0786 10.0000 -24.0450
v  1670.3948 0.0000 -26.0145
v  1669.7367 5.0000 -25.0297
v  1670.3948 10.0000 -26.0145
v  1671.6354 0.0000 -27.7524
v  1671.0151 5.0000 -26.8835
v  1671.6354 10.0000 -27.7524
v  1672.8003 0.0000 -29.2585
v  1672.2179 5.0000 -28.5055
v  1672.8003 10.0000 -29.2585
v  1673.8898 0.0000 -30.5330
v  1673.3450 5.0000 -29.8957
v  1673.8898 10.0000 -30.5330
v  1674.9036 0.0000 -31.5757
v  1674.3966 5.0000 -31.0543
v  1674.9036 10.0000 -31.5757
v  1675.8417 0.0000 -32.3867
v  1675.3726 5.0000 -31.9812
v  1675.8417 10.0000 -32.3867
v  1676.7043 0.0000 -32.9660
v  1676.2729 5.0000 -32.6763
v  1676.7043 10.0000 -32.9660
v  1677.4913 0.0000 -33.3135
v  1677.0978 5.0000 -33.1398
v  1677.4913 10.0000 -33.3135
v  1678.2028 0.0000 -33.4294
v  1677.8470 5.0000 -33.3715
v  1678.2028 10.0000 -33.4294
v  1678.8004 0.0000 -33.3723
v  1678.5016 5.0000 -33.4009
v  1678.8004 10.0000 -33.3723
v  1679.3278 0.0000 -33.2011
v  1679.0641 5.0000 -33.2867
v  1679.3278 10.0000 -33.2011
v  1679.7848 0.0000 -32.9157
v  1679.5563 5.0000 -33.0584
v  1679.7848 10.0000 -32.9157
v  1680.1715 0.0000 -32.5161
v  1679.9781 5.0000 -32.7159
v  1680.1715 10.0000 -32.5161
v  1680.4879 0.0000 -32.0023
v  1680.3297 5.0000 -32.2592
v  1680.4879 10.0000 -32.0023
v  1680.7340 0.0000 -31.3744
v  1680.6110 5.0000 -31.6884
v  1680.7340 10.0000 -31.3744
v  1680.9098 0.0000 -30.6324
v  1680.8219 5.0000 -31.0034
v  1680.9098 10.0000 -30.6324
v  1681.0153 0.0000 -29.7761
v  1680.9625 5.0000 -30.2042
v  1681.0153 10.0000 -29.7761
v  1681.0504 0.0000 -28.8057
v  1681.0328 5.0000 -29.2909
v  1681.0504 10.0000 -28.8057
v  1681.0504 0.0000 -5.2547
v  1681.0504 5.0000 -17.0302
v  1681.0504 10.0000 -5.2547
v  1690.8713 0.0000 -5.2547
v  1685.9608 5.0000 -5.2547
v  1690.8713 10.0000 -5.2547
v  1690.8713 0.0000 -29.1151
v  1690.8713 5.0000 -17.1849
v  1690.8713 10.0000 -29.1151
v  1690.8169 0.0000 -30.4435
v  1690.8441 5.0000 -29.7793
v  1690.8169 10.0000 -30.4435
v  1690.6539 0.0000 -31.6758
v  1690.7354 5.0000 -31.0597
v  1690.6539 10.0000 -31.6758
v  1690.3821 0.0000 -32.8122
v  1690.5181 5.0000 -32.2440
v  1690.3821 10.0000 -32.8122
v  1690.0017 0.0000 -33.8527
v  1690.1919 5.0000 -33.3325
v  1690.0017 10.0000 -33.8527
v  1689.5126 0.0000 -34.7971
v  1689.7571 5.0000 -34.3249
v  1689.5126 10.0000 -34.7971
v  1688.9147 0.0000 -35.6456
v  1689.2136 5.0000 -35.2214
v  1688.9147 10.0000 -35.6456
v  1688.2081 0.0000 -36.3982
v  1688.5614 5.0000 -36.0219
v  1688.2081 10.0000 -36.3982
v  1687.3929 0.0000 -37.0548
v  1687.8005 5.0000 -36.7265
v  1687.3929 10.0000 -37.0548
v  1686.4690 0.0000 -37.6154
v  1686.9309 5.0000 -37.3351
v  1686.4690 10.0000 -37.6154
v  1687.3929 0.0000 -38.1477
v  1686.9309 5.0000 -37.8815
v  1687.3929 10.0000 -38.1477
v  1688.2081 0.0000 -38.7864
v  1687.8005 5.0000 -38.4671
v  1688.2081 10.0000 -38.7864
v  1688.9147 0.0000 -39.5317
v  1688.5614 5.0000 -39.1591
v  1688.9147 10.0000 -39.5317
v  1689.5126 0.0000 -40.3834
v  1689.2136 5.0000 -39.9575
v  1689.5126 10.0000 -40.3834
v  1690.0017 0.0000 -41.3416
v  1689.7571 5.0000 -40.8625
v  1690.0017 10.0000 -41.3416
v  1690.3821 0.0000 -42.4062
v  1690.1919 5.0000 -41.8739
v  1690.3821 10.0000 -42.4062
v  1690.6539 0.0000 -43.5773
v  1690.5181 5.0000 -42.9917
v  1690.6539 10.0000 -43.5773
v  1690.8169 0.0000 -44.8548
v  1690.7354 5.0000 -44.2160
v  1690.8169 10.0000 -44.8548
v  1690.8713 0.0000 -46.2388
v  1690.8441 5.0000 -45.5468
v  1690.8713 10.0000 -46.2388
v  1690.7499 0.0000 -48.1121
v  1690.8105 5.0000 -47.1754
v  1690.7499 10.0000 -48.1121
v  1690.3857 0.0000 -49.7649
v  1690.5679 5.0000 -48.9385
v  1690.3857 10.0000 -49.7649
v  1689.7789 0.0000 -51.1974
v  1690.0824 5.0000 -50.4811
v  1689.7789 10.0000 -51.1974
v  1688.9293 0.0000 -52.4094
v  1689.3541 5.0000 -51.8034
v  1688.9293 10.0000 -52.4094
v  1687.8370 0.0000 -53.4012
v  1688.3832 5.0000 -52.9053
v  1687.8370 10.0000 -53.4012
v  1686.5020 0.0000 -54.1725
v  1687.1696 5.0000 -53.7868
v  1686.5020 10.0000 -54.1725
v  1684.9242 0.0000 -54.7234
v  1685.7131 5.0000 -54.4480
v  1684.9242 10.0000 -54.7234
v  1683.1036 0.0000 -55.0540
v  1684.0139 5.0000 -54.8887
v  1683.1036 10.0000 -55.0540
v  1681.0403 0.0000 -55.1642
v  1682.0720 5.0000 -55.1091
v  1681.0403 10.0000 -55.1642
v  1680.0933 0.0000 -55.1309
v  1680.5668 5.0000 -55.1475
v  1680.0933 10.0000 -55.1309
v  1679.1820 0.0000 -55.0311
v  1679.6377 5.0000 -55.0810
v  1679.1820 10.0000 -55.0311
v  1678.3064 0.0000 -54.8647
v  1678.7443 5.0000 -54.9479
v  1678.3064 10.0000 -54.8647
v  1677.4666 0.0000 -54.6317
v  1677.8865 5.0000 -54.7482
v  1677.4666 10.0000 -54.6317
v  1676.6624 0.0000 -54.3323
v  1677.0645 5.0000 -54.4820
v  1676.6624 10.0000 -54.3323
v  1675.8939 0.0000 -53.9662
v  1676.2782 5.0000 -54.1492
v  1675.8939 10.0000 -53.9662
v  1675.1613 0.0000 -53.5336
v  1675.5276 5.0000 -53.7499
v  1675.1613 10.0000 -53.5336
v  1674.4642 0.0000 -53.0344
v  1674.8127 5.0000 -53.2840
v  1674.4642 10.0000 -53.0344
v  1673.8030 0.0000 -52.4687
v  1674.1335 5.0000 -52.7516
v  1673.8030 10.0000 -52.4687
v  1673.1953 0.0000 -51.8498
v  1673.4991 5.0000 -52.1592
v  1673.1953 10.0000 -51.8498
v  1672.6591 0.0000 -51.1909
v  1672.9271 5.0000 -51.5203
v  1672.6591 10.0000 -51.1909
v  1672.1943 0.0000 -50.4922
v  1672.4268 5.0000 -50.8415
v  1672.1943 10.0000 -50.4922
v  1671.8011 0.0000 -49.7535
v  1671.9978 5.0000 -50.1228
v  1671.8011 10.0000 -49.7535
v  1671.4795 0.0000 -48.9749
v  1671.6403 5.0000 -49.3642
v  1671.4795 10.0000 -48.9749
v  1671.2292 0.0000 -48.1564
v  1671.3544 5.0000 -48.5657
v  1671.2292 10.0000 -48.1564
v  1671.0505 0.0000 -47.2980
v  1671.1399 5.0000 -47.7272
v  1671.0505 10.0000 -47.2980
v  1670.9432 0.0000 -46.3997
v  1670.9968 5.0000 -46.8489
v  1670.9432 10.0000 -46.3997
v  1670.9075 0.0000 -45.4615
v  1670.9254 5.0000 -45.9306
v  1670.9075 10.0000 -45.4615
v  1670.9440 0.0000 -44.4214
v  1670.9258 5.0000 -44.9415
v  1670.9440 10.0000 -44.4214
v  1671.0535 0.0000 -43.4567
v  1670.9988 5.0000 -43.9391
v  1671.0535 10.0000 -43.4567
v  1671.2360 0.0000 -42.5675
v  1671.1447 5.0000 -43.0121
v  1671.2360 10.0000 -42.5675
v  1671.4913 0.0000 -41.7536
v  1671.3636 5.0000 -42.1605
v  1671.4913 10.0000 -41.7536
v  1671.8198 0.0000 -41.0151
v  1671.6555 5.0000 -41.3844
v  1671.8198 10.0000 -41.0151
v  1672.2212 0.0000 -40.3521
v  1672.0205 5.0000 -40.6836
v  1672.2212 10.0000 -40.3521
v  1672.6956 0.0000 -39.7644
v  1672.4584 5.0000 -40.0582
v  1672.6956 10.0000 -39.7644
v  1673.2429 0.0000 -39.2521
v  1672.9692 5.0000 -39.5083
v  1673.2429 10.0000 -39.2521
v  1673.8633 0.0000 -38.8153
v  1673.5531 5.0000 -39.0337
v  1673.8633 10.0000 -38.8153
v  1672.7167 0.0000 -38.1594
v  1673.2900 5.0000 -38.4874
v  1672.7167 10.0000 -38.1594
v  1671.4974 0.0000 -37.2528
v  1672.1071 5.0000 -37.7061
v  1671.4974 10.0000 -37.2528
v  1670.2053 0.0000 -36.0954
v  1670.8513 5.0000 -36.6741
v  1670.2053 10.0000 -36.0954
v  1668.8406 0.0000 -34.6872
v  1669.5229 5.0000 -35.3913
v  1668.8406 10.0000 -34.6872
v  1667.4031 0.0000 -33.0283
v  1668.1218 5.0000 -33.8578
v  1667.4031 10.0000 -33.0283
v  1665.8928 0.0000 -31.1187
v  1666.6479 5.0000 -32.0735
v  1665.8928 10.0000 -31.1187
v  1664.3098 0.0000 -28.9583
v  1665.1013 5.0000 -30.0385
v  1664.3098 10.0000 -28.9583
v  1662.6541 0.0000 -26.5471
v  1663.4819 5.0000 -27.7527
v  1662.6541 10.0000 -26.5471
v  1660.9255 0.0000 -23.8852
v  1661.7898 5.0000 -25.2162
v  1660.9255 10.0000 -23.8852
v  1660.9255 0.0000 -43.3534
v  1660.9255 5.0000 -33.6193
v  1660.9255 10.0000 -43.3534
v  1660.7920 0.0000 -45.7647
v  1660.8588 5.0000 -44.5590
v  1660.7920 10.0000 -45.7647
v  1660.3910 0.0000 -47.8922
v  1660.5916 5.0000 -46.8284
v  1660.3910 10.0000 -47.8922
v  1659.7229 0.0000 -49.7361
v  1660.0570 5.0000 -48.8141
v  1659.7229 10.0000 -49.7361
v  1658.7874 0.0000 -51.2963
v  1659.2551 5.0000 -50.5162
v  1658.7874 10.0000 -51.2963
v  1657.5847 0.0000 -52.5728
v  1658.1860 5.0000 -51.9345
v  1657.5847 10.0000 -52.5728
v  1656.1146 0.0000 -53.5656
v  1656.8496 5.0000 -53.0692
v  1656.1146 10.0000 -53.5656
v  1654.3773 0.0000 -54.2748
v  1655.2460 5.0000 -53.9202
v  1654.3773 10.0000 -54.2748
v  1652.3728 0.0000 -54.7003
v  1653.3751 5.0000 -54.4876
v  1652.3728 10.0000 -54.7003
v  1650.1010 0.0000 -54.8422
v  1651.2368 5.0000 -54.7713
v  1650.1010 10.0000 -54.8422
v  1649.1140 0.0000 -54.8071
v  1649.6074 5.0000 -54.8246
v  1649.1140 10.0000 -54.8071
v  1648.1833 0.0000 -54.7017
v  1648.6487 5.0000 -54.7544
v  1648.1833 10.0000 -54.7017
v  1647.3091 0.0000 -54.5261
v  1647.7462 5.0000 -54.6139
v  1647.3091 10.0000 -54.5261
v  1646.4912 0.0000 -54.2802
v  1646.9001 5.0000 -54.4031
v  1646.4912 10.0000 -54.2802
v  1645.7296 0.0000 -53.9641
v  1646.1104 5.0000 -54.1221
v  1645.7296 10.0000 -53.9641
v  1645.0245 0.0000 -53.5777
v  1645.3771 5.0000 -53.7709
v  1645.0245 10.0000 -53.5777
v  1644.3757 0.0000 -53.1211
v  1644.7001 5.0000 -53.3494
v  1644.3757 10.0000 -53.1211
v  1643.7833 0.0000 -52.5942
v  1644.0795 5.0000 -52.8576
v  1643.7833 10.0000 -52.5942
v  1643.2472 0.0000 -51.9970
v  1643.5153 5.0000 -52.2956
v  1643.2472 10.0000 -51.9970
v  1642.7676 0.0000 -51.3570
v  1643.0073 5.0000 -51.6770
v  1642.7676 10.0000 -51.3570
v  1642.3444 0.0000 -50.7014
v  1642.5559 5.0000 -51.0292
v  1642.3444 10.0000 -50.7014
v  1641.9775 0.0000 -50.0301
v  1642.1609 5.0000 -50.3657
v  1641.9775 10.0000 -50.0301
v  1641.6671 0.0000 -49.3433
v  1641.8224 5.0000 -49.6867
v  1641.6671 10.0000 -49.3433
v  1641.4132 0.0000 -48.6409
v  1641.5402 5.0000 -48.9921
v  1641.4132 10.0000 -48.6409
v  1641.2157 0.0000 -47.9229
v  1641.3145 5.0000 -48.2819
v  1641.2157 10.0000 -47.9229
v  1641.0747 0.0000 -47.1893
v  1641.1451 5.0000 -47.5561
v  1641.0747 10.0000 -47.1893
v  1640.9900 0.0000 -46.4401
v  1641.0323 5.0000 -46.8147
v  1640.9900 10.0000 -46.4401
v  1640.9618 0.0000 -45.6753
v  1640.9760 5.0000 -46.0577
v  1640.9618 10.0000 -45.6753
v  1641.0870 0.0000 -43.8148
v  1641.0244 5.0000 -44.7451
v  1641.0870 10.0000 -43.8148
v  1641.4626 0.0000 -42.1731
v  1641.2749 5.0000 -42.9940
v  1641.4626 10.0000 -42.1731
v  1642.0887 0.0000 -40.7504
v  1641.7758 5.0000 -41.4617
v  1642.0887 10.0000 -40.7504
v  1642.9653 0.0000 -39.5465
v  1642.5271 5.0000 -40.1484
v  1642.9653 10.0000 -39.5465
v  1644.0923 0.0000 -38.5615
v  1643.5288 5.0000 -39.0540
v  1644.0923 10.0000 -38.5615
v  1645.4697 0.0000 -37.7954
v  1644.7810 5.0000 -38.1784
v  1645.4697 10.0000 -37.7954
v  1647.0977 0.0000 -37.2481
v  1646.2837 5.0000 -37.5218
v  1647.0977 10.0000 -37.2481
v  1648.9760 0.0000 -36.9198
v  1648.0367 5.0000 -37.0840
v  1648.9760 10.0000 -36.9198
v  1651.1047 0.0000 -36.8104
v  1650.0403 5.0000 -36.8651
v  1651.1047 10.0000 -36.8104
v  1651.1047 0.0000 -5.2547
v  1651.1047 5.0000 -21.0325
v  1651.1047 10.0000 -5.2547
v  1656.0151 5.0000 -5.2547
v  1651.1047 0.0000 -49.6415
v  1651.8594 0.0000 -49.4954
v  1651.4821 5.0000 -49.5685
v  1651.8594 10.0000 -49.4954
v  1651.1047 10.0000 -49.6415
v  1652.5134 0.0000 -49.2520
v  1652.1864 5.0000 -49.3737
v  1652.5134 10.0000 -49.2520
v  1653.0669 0.0000 -48.9111
v  1652.7902 5.0000 -49.0815
v  1653.0669 10.0000 -48.9111
v  1653.5197 0.0000 -48.4728
v  1653.2932 5.0000 -48.6919
v  1653.5197 10.0000 -48.4728
v  1653.8718 0.0000 -47.9371
v  1653.6958 5.0000 -48.2050
v  1653.8718 10.0000 -47.9371
v  1654.1234 0.0000 -47.3041
v  1653.9977 5.0000 -47.6206
v  1654.1234 10.0000 -47.3041
v  1654.2743 0.0000 -46.5736
v  1654.1989 5.0000 -46.9389
v  1654.2743 10.0000 -46.5736
v  1654.3247 0.0000 -45.7458
v  1654.2994 5.0000 -46.1597
v  1654.3247 10.0000 -45.7458
v  1654.2743 0.0000 -44.9179
v  1654.2996 5.0000 -45.3319
v  1654.2743 10.0000 -44.9179
v  1654.1234 0.0000 -44.1875
v  1654.1989 5.0000 -44.5527
v  1654.1234 10.0000 -44.1875
v  1653.8718 0.0000 -43.5544
v  1653.9977 5.0000 -43.8709
v  1653.8718 10.0000 -43.5544
v  1653.5197 0.0000 -43.0187
v  1653.6958 5.0000 -43.2866
v  1653.5197 10.0000 -43.0187
v  1653.0669 0.0000 -42.5805
v  1653.2932 5.0000 -42.7996
v  1653.0669 10.0000 -42.5805
v  1652.5134 0.0000 -42.2396
v  1652.7902 5.0000 -42.4100
v  1652.5134 10.0000 -42.2396
v  1651.8594 0.0000 -41.9961
v  1652.1864 5.0000 -42.1178
v  1651.8594 10.0000 -41.9961
v  1651.1047 0.0000 -41.8500
v  1651.4821 5.0000 -41.9231
v  1651.1047 10.0000 -41.8500
v  1650.2494 0.0000 -41.8013
v  1650.6770 5.0000 -41.8257
v  1650.2494 10.0000 -41.8013
v  1649.3813 0.0000 -41.8500
v  1649.8154 5.0000 -41.8257
v  1649.3813 10.0000 -41.8500
v  1648.6156 0.0000 -41.9961
v  1648.9985 5.0000 -41.9231
v  1648.6156 10.0000 -41.9961
v  1647.9518 0.0000 -42.2396
v  1648.2837 5.0000 -42.1178
v  1647.9518 10.0000 -42.2396
v  1647.3901 0.0000 -42.5805
v  1647.6710 5.0000 -42.4100
v  1647.3901 10.0000 -42.5805
v  1646.9307 0.0000 -43.0187
v  1647.1604 5.0000 -42.7996
v  1646.9307 10.0000 -43.0187
v  1646.5732 0.0000 -43.5544
v  1646.7520 5.0000 -43.2866
v  1646.5732 10.0000 -43.5544
v  1646.3180 0.0000 -44.1875
v  1646.4456 5.0000 -43.8709
v  1646.3180 10.0000 -44.1875
v  1646.1648 0.0000 -44.9179
v  1646.2413 5.0000 -44.5527
v  1646.1648 10.0000 -44.9179
v  1646.1138 0.0000 -45.7458
v  1646.1393 5.0000 -45.3319
v  1646.1138 10.0000 -45.7458
v  1646.1648 0.0000 -46.5736
v  1646.1393 5.0000 -46.1597
v  1646.1648 10.0000 -46.5736
v  1646.3180 0.0000 -47.3041
v  1646.2413 5.0000 -46.9389
v  1646.3180 10.0000 -47.3041
v  1646.5732 0.0000 -47.9371
v  1646.4456 5.0000 -47.6206
v  1646.5732 10.0000 -47.9371
v  1646.9307 0.0000 -48.4728
v  1646.7520 5.0000 -48.2050
v  1646.9307 10.0000 -48.4728
v  1647.3901 0.0000 -48.9111
v  1647.1604 5.0000 -48.6919
v  1647.3901 10.0000 -48.9111
v  1647.9518 0.0000 -49.2520
v  1647.6710 5.0000 -49.0815
v  1647.9518 10.0000 -49.2520
v  1648.6156 0.0000 -49.4954
v  1648.2837 5.0000 -49.3737
v  1648.6156 10.0000 -49.4954
v  1649.3813 0.0000 -49.6415
v  1648.9985 5.0000 -49.5685
v  1649.3813 10.0000 -49.6415
v  1650.2494 0.0000 -49.6902
v  1649.8154 5.0000 -49.6659
v  1650.2494 10.0000 -49.6902
v  1650.6770 5.0000 -49.6659
v  1681.9628 0.0000 -49.9583
v  1682.7677 0.0000 -49.7966
v  1682.3652 5.0000 -49.8774
v  1682.7677 10.0000 -49.7966
v  1681.9628 10.0000 -49.9583
v  1683.4653 0.0000 -49.5270
v  1683.1166 5.0000 -49.6618
v  1683.4653 10.0000 -49.5270
v  1684.0557 0.0000 -49.1496
v  1683.7605 5.0000 -49.3383
v  1684.0557 10.0000 -49.1496
v  1684.5387 0.0000 -48.6644
v  1684.2972 5.0000 -48.9070
v  1684.5387 10.0000 -48.6644
v  1684.9143 0.0000 -48.0713
v  1684.7266 5.0000 -48.3678
v  1684.9143 10.0000 -48.0713
v  1685.1826 0.0000 -47.3704
v  1685.0485 5.0000 -47.7209
v  1685.1826 10.0000 -47.3704
v  1685.3438 0.0000 -46.5617
v  1685.2632 5.0000 -46.9661
v  1685.3438 10.0000 -46.5617
v  1685.3973 0.0000 -45.6452
v  1685.3705 5.0000 -46.1034
v  1685.3973 10.0000 -45.6452
v  1685.3436 0.0000 -44.7033
v  1685.3705 5.0000 -45.1742
v  1685.3436 10.0000 -44.7033
v  1685.1826 0.0000 -43.8722
v  1685.2632 5.0000 -44.2877
v  1685.1826 10.0000 -43.8722
v  1684.9143 0.0000 -43.1519
v  1685.0485 5.0000 -43.5120
v  1684.9143 10.0000 -43.1519
v  1684.5387 0.0000 -42.5425
v  1684.7266 5.0000 -42.8472
v  1684.5387 10.0000 -42.5425
v  1684.0557 0.0000 -42.0438
v  1684.2972 5.0000 -42.2931
v  1684.0557 10.0000 -42.0438
v  1683.4653 0.0000 -41.6560
v  1683.7605 5.0000 -41.8499
v  1683.4653 10.0000 -41.6560
v  1682.7677 0.0000 -41.3789
v  1683.1166 5.0000 -41.5175
v  1682.7677 10.0000 -41.3789
v  1681.9628 0.0000 -41.2127
v  1682.3652 5.0000 -41.2958
v  1681.9628 10.0000 -41.2127
v  1681.0504 0.0000 -41.1573
v  1681.5066 5.0000 -41.1850
v  1681.0504 10.0000 -41.1573
v  1680.1381 0.0000 -41.2127
v  1680.5942 5.0000 -41.1850
v  1680.1381 10.0000 -41.2127
v  1679.3330 0.0000 -41.3789
v  1679.7356 5.0000 -41.2958
v  1679.3330 10.0000 -41.3789
v  1678.6354 0.0000 -41.6560
v  1678.9843 5.0000 -41.5175
v  1678.6354 10.0000 -41.6560
v  1678.0450 0.0000 -42.0438
v  1678.3402 5.0000 -41.8499
v  1678.0450 10.0000 -42.0438
v  1677.5621 0.0000 -42.5425
v  1677.8036 5.0000 -42.2931
v  1677.5621 10.0000 -42.5425
v  1677.1864 0.0000 -43.1519
v  1677.3743 5.0000 -42.8472
v  1677.1864 10.0000 -43.1519
v  1676.9181 0.0000 -43.8722
v  1677.0522 5.0000 -43.5120
v  1676.9181 10.0000 -43.8722
v  1676.7571 0.0000 -44.7033
v  1676.8376 5.0000 -44.2877
v  1676.7571 10.0000 -44.7033
v  1676.7035 0.0000 -45.6452
v  1676.7302 5.0000 -45.1742
v  1676.7035 10.0000 -45.6452
v  1676.7571 0.0000 -46.5617
v  1676.7302 5.0000 -46.1034
v  1676.7571 10.0000 -46.5617
v  1676.9181 0.0000 -47.3704
v  1676.8376 5.0000 -46.9661
v  1676.9181 10.0000 -47.3704
v  1677.1864 0.0000 -48.0713
v  1677.0522 5.0000 -47.7209
v  1677.1864 10.0000 -48.0713
v  1677.5621 0.0000 -48.6644
v  1677.3743 5.0000 -48.3678
v  1677.5621 10.0000 -48.6644
v  1678.0450 0.0000 -49.1496
v  1677.8036 5.0000 -48.9070
v  1678.0450 10.0000 -49.1496
v  1678.6354 0.0000 -49.5270
v  1678.3402 5.0000 -49.3383
v  1678.6354 10.0000 -49.5270
v  1679.3331 0.0000 -49.7966
v  1678.9843 5.0000 -49.6618
v  1679.3331 10.0000 -49.7966
v  1680.1381 0.0000 -49.9583
v  1679.7356 5.0000 -49.8774
v  1680.1381 10.0000 -49.9583
v  1681.0504 0.0000 -50.0122
v  1680.5942 5.0000 -49.9853
v  1681.0504 10.0000 -50.0122
v  1681.5066 5.0000 -49.9853
v  1653.7430 0.0000 -26.4280
v  1657.7395 10.0000 -25.8157
v  1658.6055 0.0000 -42.2025
v  1660.3877 0.0000 -23.6913
v  1655.8374 0.0000 -30.2846
v  1656.1057 0.0000 -30.6093
v  1656.3069 0.0000 -30.9989
v  1656.4412 0.0000 -31.4534
v  1668.5669 0.0000 -31.8788
v  1659.7041 0.0000 -22.2342
v  1659.2661 0.0000 -20.8415
v  1657.7395 0.0000 -25.8157
v  1673.8727 0.0000 -36.0288
v  1664.4810 0.0000 -23.0662
v  1664.3201 0.0000 -20.5148
v  1663.6166 0.0000 -19.1235
v  1662.9795 0.0000 -17.7318
v  1674.5277 0.0000 -36.3966
v  1672.5100 0.0000 -33.6300
v  1675.7245 0.0000 -37.2832
v  1676.3734 0.0000 -37.4142
v  1674.5360 0.0000 -34.5546
v  1677.0383 0.0000 -37.4847
v  1677.7190 0.0000 -37.4948
v  1678.4156 0.0000 -37.4445
v  1679.1185 0.0000 -37.3483
v  1679.8291 0.0000 -37.2359
v  1680.5314 0.0000 -37.1217
v  1682.3761 0.0000 -34.0446
v  1684.2340 0.0000 -40.2168
v  1685.9608 0.0000 -17.1076
v  1682.2312 0.0000 -37.1278
v  1685.9385 0.0000 -29.5351
v  1686.7556 0.0000 -31.0680
v  1686.3080 0.0000 -32.6938
v  1685.9598 0.0000 -34.9840
v  1685.3457 0.0000 -39.8657
v  1686.6221 0.0000 -40.2104
v  1686.9701 0.0000 -41.4024
v  1687.9987 0.0000 -42.2310
v  1687.8906 0.0000 -43.6397
v  1688.6166 0.0000 -45.0039
v  1688.0906 0.0000 -46.6394
v  1687.0920 0.0000 -47.3481
v  1688.2024 0.0000 -48.9032
v  1687.0403 0.0000 -50.0856
v  1686.3402 0.0000 -50.9061
v  1685.3568 0.0000 -52.1947
v  1683.7191 0.0000 -51.3490
v  1683.1896 0.0000 -52.3831
v  1681.7893 0.0000 -52.5472
v  1680.3008 0.0000 -53.0593
v  1679.2399 0.0000 -52.4127
v  1678.0808 0.0000 -52.6305
v  1676.4771 0.0000 -52.2572
v  1675.4139 0.0000 -51.0334
v  1674.5594 0.0000 -50.0537
v  1673.9159 0.0000 -48.9325
v  1673.4868 0.0000 -47.6723
v  1672.4950 0.0000 -43.0546
v  1657.1279 0.0000 -47.8765
v  1656.6263 0.0000 -49.0684
v  1655.9409 0.0000 -50.0698
v  1655.0714 0.0000 -50.8806
v  1654.0181 0.0000 -51.5009
v  1652.7808 0.0000 -51.9306
v  1651.7789 0.0000 -51.2791
v  1650.9569 0.0000 -52.2186
v  1649.7114 0.0000 -52.2453
v  1648.5206 0.0000 -52.6344
v  1647.2195 0.0000 -52.3035
v  1646.0944 0.0000 -51.7652
v  1645.1454 0.0000 -51.0192
v  1643.9734 0.0000 -50.0826
v  1643.5898 0.0000 -48.6511
v  1643.2373 0.0000 -47.5262
v  1643.0610 0.0000 -46.3248
v  1643.5818 0.0000 -45.0385
v  1643.7581 0.0000 -43.7733
v  1644.1107 0.0000 -42.6663
v  1644.6395 0.0000 -41.7175
v  1645.3446 0.0000 -40.9268
v  1646.2260 0.0000 -40.2942
v  1647.2837 0.0000 -39.8198
v  1648.5176 0.0000 -39.5035
v  1649.9279 0.0000 -39.3454
v  1650.8196 0.0000 -40.1539
v  1651.3562 0.0000 -40.2188
v  1651.8258 0.0000 -40.3487
v  1659.2661 10.0000 -20.8415
v  1656.4412 10.0000 -31.4534
v  1656.3069 10.0000 -30.9989
v  1656.1057 10.0000 -30.6093
v  1655.8374 10.0000 -30.2846
v  1655.5020 10.0000 -30.0249
v  1653.5016 10.0000 -26.3111
v  1651.3562 10.0000 -40.2188
v  1650.8196 10.0000 -40.1539
v  1649.9279 10.0000 -39.3454
v  1648.5176 10.0000 -39.5035
v  1647.2837 10.0000 -39.8198
v  1646.2260 10.0000 -40.2942
v  1645.3446 10.0000 -40.9268
v  1644.6395 10.0000 -41.7175
v  1644.1107 10.0000 -42.6663
v  1643.7581 10.0000 -43.7733
v  1643.5818 10.0000 -45.0385
v  1643.0610 10.0000 -46.3248
v  1643.2373 10.0000 -47.5262
v  1643.5898 10.0000 -48.6511
v  1643.9734 10.0000 -50.0826
v  1645.1454 10.0000 -51.0192
v  1646.0944 10.0000 -51.7652
v  1647.2195 10.0000 -52.3035
v  1648.5206 10.0000 -52.6344
v  1649.7114 10.0000 -52.2453
v  1650.9569 10.0000 -52.2186
v  1651.7789 10.0000 -51.2791
v  1652.7808 10.0000 -51.9306
v  1654.0181 10.0000 -51.5009
v  1655.0714 10.0000 -50.8806
v  1655.9409 10.0000 -50.0698
v  1656.6263 10.0000 -49.0684
v  1657.1279 10.0000 -47.8765
v  1658.6055 10.0000 -42.2025
v  1659.6012 10.0000 -27.7474
v  1659.7041 10.0000 -22.2342
v  1660.2085 10.0000 -23.6266
v  1662.9795 10.0000 -17.7318
v  1663.6166 10.0000 -19.1235
v  1664.3201 10.0000 -20.5148
v  1664.4810 10.0000 -23.0662
v  1666.5024 10.0000 -24.1838
v  1672.5100 10.0000 -33.6300
v  1672.9113 10.0000 -33.1374
v  1668.6461 10.0000 -32.8708
v  1674.4741 10.0000 -36.8398
v  1675.0913 10.0000 -37.0917
v  1675.2371 10.0000 -35.3269
v  1676.2124 10.0000 -37.7466
v  1676.8236 10.0000 -37.7618
v  1677.4507 10.0000 -37.7164
v  1678.0936 10.0000 -37.6107
v  1679.1185 10.0000 -37.3483
v  1680.7803 10.0000 -38.5237
v  1678.7238 10.0000 -38.8214
v  1684.6633 10.0000 -40.4384
v  1679.8291 10.0000 -37.2359
v  1682.1417 10.0000 -34.3490
v  1672.4950 10.0000 -43.0546
v  1684.2340 10.0000 -40.2168
v  1682.0624 10.0000 -37.2648
v  1673.4868 10.0000 -47.6723
v  1673.9159 10.0000 -48.9325
v  1674.5594 10.0000 -50.0537
v  1675.4139 10.0000 -51.0334
v  1676.4771 10.0000 -52.2572
v  1678.0808 10.0000 -52.6305
v  1679.2399 10.0000 -52.4127
v  1680.3008 10.0000 -53.0593
v  1681.7893 10.0000 -52.5472
v  1683.1896 10.0000 -52.3831
v  1683.7191 10.0000 -51.3490
v  1685.3568 10.0000 -52.1947
v  1686.3402 10.0000 -50.9061
v  1687.0403 10.0000 -50.0856
v  1688.2024 10.0000 -48.9032
v  1687.0920 10.0000 -47.3481
v  1688.0906 10.0000 -46.6394
v  1688.6166 10.0000 -45.0039
v  1687.8906 10.0000 -43.6397
v  1687.9987 10.0000 -42.2310
v  1686.9701 10.0000 -41.4024
v  1686.5966 10.0000 -39.7779
v  1683.6304 10.0000 -34.7971
v  1685.8750 10.0000 -34.5454
v  1686.3080 10.0000 -32.6938
v  1686.7556 10.0000 -31.0680
v  1685.9385 10.0000 -29.5351
v  1685.9608 10.0000 -17.1076
# 792 vertices

vn 0.4986 -0.5909 0.6342
vn 0.6783 -0.7122 0.1808
vn 0.9717 0.0000 0.2360
vn 0.6783 0.7122 0.1808
vn 0.4986 0.5909 0.6342
vn 0.6698 -0.7120 0.2105
vn 0.9603 0.0000 0.2791
vn 0.6698 0.7120 0.2105
vn 0.6603 -0.7119 0.2391
vn 0.9472 0.0000 0.3205
vn 0.6603 0.7119 0.2391
vn 0.6500 -0.7117 0.2664
vn 0.9329 0.0000 0.3602
vn 0.6500 0.7117 0.2664
vn 0.6389 -0.7116 0.2923
vn 0.9174 0.0000 0.3980
vn 0.6389 0.7116 0.2923
vn 0.6272 -0.7114 0.3170
vn 0.9009 0.0000 0.4340
vn 0.6272 0.7114 0.3170
vn 0.6151 -0.7113 0.3403
vn 0.8837 0.0000 0.4680
vn 0.6151 0.7113 0.3403
vn 0.6026 -0.7111 0.3622
vn 0.8660 0.0000 0.5000
vn 0.6026 0.7111 0.3622
vn 0.5909 -0.7105 0.3821
vn 0.8479 0.0000 0.5302
vn 0.5909 0.7105 0.3821
vn 0.5789 -0.7106 0.3999
vn 0.8314 0.0000 0.5556
vn 0.5789 0.7106 0.3999
vn 0.5640 -0.7115 0.4192
vn 0.8139 0.0000 0.5810
vn 0.5640 0.7115 0.4192
vn 0.5442 -0.7127 0.4426
vn 0.7910 0.0000 0.6118
vn 0.5442 0.7127 0.4426
vn 0.5171 -0.7144 0.4715
vn 0.7601 0.0000 0.6498
vn 0.5171 0.7144 0.4715
vn 0.4783 -0.7170 0.5071
vn 0.7170 0.0000 0.6971
vn 0.4783 0.7170 0.5071
vn 0.4205 -0.7210 0.5507
vn 0.6540 0.0000 0.7565
vn 0.4205 0.7210 0.5507
vn 0.3312 -0.7274 0.6010
vn 0.5575 0.0000 0.8302
vn 0.3312 0.7274 0.6010
vn 0.1925 -0.7368 0.6481
vn 0.4040 0.0000 0.9148
vn 0.1925 0.7368 0.6481
vn 0.0224 -0.7371 0.6754
vn 0.1607 0.0000 0.9870
vn 0.0224 0.7371 0.6754
vn -0.1383 -0.7325 0.6665
vn -0.0951 0.0000 0.9955
vn -0.1383 0.7325 0.6665
vn -0.2862 -0.7356 0.6140
vn -0.3089 0.0000 0.9511
vn -0.2862 0.7356 0.6140
vn -0.4260 -0.7355 0.5268
vn -0.5297 0.0000 0.8482
vn -0.4260 0.7355 0.5268
vn -0.5377 -0.7323 0.4178
vn -0.7186 0.0000 0.6954
vn -0.5377 0.7323 0.4178
vn -0.6137 -0.7277 0.3062
vn -0.8515 0.0000 0.5244
vn -0.6137 0.7277 0.3062
vn -0.6590 -0.7233 0.2061
vn -0.9311 0.0000 0.3649
vn -0.6590 0.7233 0.2061
vn -0.6834 -0.7197 0.1226
vn -0.9731 0.0000 0.2305
vn -0.6834 0.7197 0.1226
vn -0.6949 -0.7169 0.0553
vn -0.9925 0.0000 0.1222
vn -0.6949 0.7169 0.0553
vn -0.7029 -0.7112 0.0127
vn -0.9993 0.0000 0.0362
vn -0.7029 0.7112 0.0127
vn -0.5774 -0.5774 0.5774
vn -1.0000 0.0000 -0.0000
vn -0.5774 0.5774 0.5774
vn 0.5774 -0.5774 0.5774
vn 0.0000 0.0000 1.0000
vn 0.5774 0.5774 0.5774
vn 0.7115 -0.7025 -0.0146
vn 1.0000 0.0000 -0.0000
vn 0.7115 0.7025 -0.0146
vn 0.7144 -0.6971 -0.0617
vn 0.9992 0.0000 -0.0409
vn 0.7144 0.6970 -0.0617
vn 0.7063 -0.6957 -0.1308
vn 0.9914 0.0000 -0.1312
vn 0.7063 0.6957 -0.1308
vn 0.6891 -0.6943 -0.2076
vn 0.9726 0.0000 -0.2326
vn 0.6891 0.6943 -0.2076
vn 0.6599 -0.6931 -0.2901
vn 0.9392 0.0000 -0.3434
vn 0.6599 0.6931 -0.2901
vn 0.6169 -0.6921 -0.3747
vn 0.8880 0.0000 -0.4599
vn 0.6169 0.6921 -0.3747
vn 0.5598 -0.6917 -0.4563
vn 0.8175 0.0000 -0.5760
vn 0.5598 0.6917 -0.4563
vn 0.4909 -0.6918 -0.5296
vn 0.7290 0.0000 -0.6845
vn 0.4909 0.6918 -0.5296
vn 0.4143 -0.6925 -0.5906
vn 0.6272 0.0000 -0.7788
vn 0.4143 0.6925 -0.5906
vn 0.2931 -0.9561 0.0033
vn 0.5187 0.0000 -0.8549
vn 0.2931 0.9561 0.0033
vn 0.4041 -0.6915 0.5988
vn 0.4992 0.0000 0.8665
vn 0.4041 0.6915 0.5988
vn 0.4866 -0.6909 0.5347
vn 0.6168 0.0000 0.7871
vn 0.4866 0.6909 0.5347
vn 0.5596 -0.6910 0.4576
vn 0.7257 0.0000 0.6880
vn 0.5596 0.6910 0.4576
vn 0.6187 -0.6917 0.3726
vn 0.8185 0.0000 0.5745
vn 0.6187 0.6917 0.3726
vn 0.6620 -0.6929 0.2858
vn 0.8907 0.0000 0.4547
vn 0.6620 0.6929 0.2858
vn 0.6905 -0.6944 0.2027
vn 0.9417 0.0000 0.3365
vn 0.6905 0.6944 0.2027
vn 0.7068 -0.6959 0.1268
vn 0.9741 0.0000 0.2260
vn 0.7068 0.6959 0.1268
vn 0.7142 -0.6974 0.0595
vn 0.9920 0.0000 0.1266
vn 0.7142 0.6974 0.0595
vn 0.7184 -0.6956 -0.0091
vn 0.9992 0.0000 0.0392
vn 0.7184 0.6956 -0.0091
vn 0.7163 -0.6904 -0.1015
vn 0.9979 0.0000 -0.0647
vn 0.7163 0.6904 -0.1015
vn 0.6923 -0.6870 -0.2208
vn 0.9766 0.0000 -0.2151
vn 0.6923 0.6870 -0.2208
vn 0.6379 -0.6842 -0.3535
vn 0.9208 0.0000 -0.3901
vn 0.6379 0.6842 -0.3535
vn 0.5479 -0.6830 -0.4830
vn 0.8189 0.0000 -0.5740
vn 0.5479 0.6830 -0.4830
vn 0.4301 -0.6839 -0.5893
vn 0.6722 0.0000 -0.7404
vn 0.4301 0.6839 -0.5893
vn 0.3030 -0.6866 -0.6609
vn 0.5002 0.0000 -0.8659
vn 0.3030 0.6866 -0.6609
vn 0.1845 -0.6899 -0.6999
vn 0.3297 0.0000 -0.9441
vn 0.1845 0.6899 -0.6999
vn 0.0838 -0.6932 -0.7159
vn 0.1787 0.0000 -0.9839
vn 0.0838 0.6932 -0.7159
vn 0.0065 -0.6973 -0.7168
vn 0.0533 0.0000 -0.9986
vn 0.0065 0.6973 -0.7168
vn -0.0515 -0.6989 -0.7134
vn -0.0351 0.0000 -0.9994
vn -0.0515 0.6989 -0.7134
vn -0.1059 -0.6984 -0.7079
vn -0.1089 0.0000 -0.9941
vn -0.1059 0.6984 -0.7079
vn -0.1627 -0.6979 -0.6975
vn -0.1867 0.0000 -0.9824
vn -0.1627 0.6979 -0.6975
vn -0.2210 -0.6976 -0.6816
vn -0.2673 0.0000 -0.9636
vn -0.2210 0.6976 -0.6816
vn -0.2795 -0.6973 -0.6600
vn -0.3490 0.0000 -0.9371
vn -0.2795 0.6973 -0.6600
vn -0.3367 -0.6973 -0.6328
vn -0.4301 0.0000 -0.9028
vn -0.3367 0.6973 -0.6328
vn -0.3912 -0.6973 -0.6006
vn -0.5084 0.0000 -0.8611
vn -0.3912 0.6973 -0.6006
vn -0.4419 -0.6975 -0.5641
vn -0.5822 0.0000 -0.8130
vn -0.4419 0.6975 -0.5641
vn -0.4891 -0.6975 -0.5238
vn -0.6501 0.0000 -0.7599
vn -0.4891 0.6975 -0.5238
vn -0.5347 -0.6968 -0.4782
vn -0.7136 0.0000 -0.7006
vn -0.5347 0.6968 -0.4782
vn -0.5777 -0.6964 -0.4257
vn -0.7756 0.0000 -0.6312
vn -0.5777 0.6964 -0.4257
vn -0.6164 -0.6963 -0.3678
vn -0.8327 0.0000 -0.5538
vn -0.6164 0.6963 -0.3678
vn -0.6492 -0.6963 -0.3060
vn -0.8827 0.0000 -0.4699
vn -0.6492 0.6963 -0.3060
vn -0.6754 -0.6966 -0.2422
vn -0.9242 0.0000 -0.3819
vn -0.6754 0.6966 -0.2422
vn -0.6946 -0.6970 -0.1781
vn -0.9563 0.0000 -0.2924
vn -0.6946 0.6970 -0.1781
vn -0.7072 -0.6975 -0.1156
vn -0.9790 0.0000 -0.2038
vn -0.7072 0.6975 -0.1156
vn -0.7138 -0.6981 -0.0561
vn -0.9929 0.0000 -0.1185
vn -0.7138 0.6981 -0.0561
vn -0.7152 -0.6990 -0.0011
vn -0.9993 0.0000 -0.0381
vn -0.7152 0.6990 -0.0011
vn -0.7137 -0.6984 0.0529
vn -0.9994 0.0000 0.0351
vn -0.7137 0.6984 0.0529
vn -0.7080 -0.6972 0.1126
vn -0.9936 0.0000 0.1128
vn -0.7080 0.6972 0.1126
vn -0.6953 -0.6958 0.1799
vn -0.9796 0.0000 0.2010
vn -0.6953 0.6958 0.1799
vn -0.6731 -0.6945 0.2543
vn -0.9541 0.0000 0.2995
vn -0.6731 0.6945 0.2543
vn -0.6388 -0.6932 0.3337
vn -0.9137 0.0000 0.4064
vn -0.6388 0.6932 0.3337
vn -0.5908 -0.6923 0.4144
vn -0.8555 0.0000 0.5179
vn -0.5908 0.6923 0.4144
vn -0.5289 -0.6918 0.4916
vn -0.7781 0.0000 0.6281
vn -0.5289 0.6918 0.4916
vn -0.4556 -0.6918 0.5601
vn -0.6833 0.0000 0.7301
vn -0.4556 0.6918 0.5601
vn -0.8291 0.5578 -0.0390
vn -0.5758 0.0000 0.8176
vn -0.8291 -0.5578 -0.0390
vn -0.3943 -0.6939 -0.6025
vn -0.4965 0.0000 -0.8680
vn -0.3943 0.6939 -0.6025
vn -0.4536 -0.6970 -0.5554
vn -0.5967 0.0000 -0.8025
vn -0.4536 0.6970 -0.5554
vn -0.4955 -0.6993 -0.5153
vn -0.6672 0.0000 -0.7449
vn -0.4955 0.6993 -0.5153
vn -0.5258 -0.7009 -0.4819
vn -0.7181 0.0000 -0.6960
vn -0.5258 0.7009 -0.4819
vn -0.5485 -0.7021 -0.4541
vn -0.7557 0.0000 -0.6549
vn -0.5485 0.7021 -0.4541
vn -0.5659 -0.7030 -0.4308
vn -0.7844 0.0000 -0.6203
vn -0.5659 0.7030 -0.4308
vn -0.5795 -0.7037 -0.4111
vn -0.8066 0.0000 -0.5910
vn -0.5795 0.7037 -0.4111
vn -0.5904 -0.7042 -0.3943
vn -0.8244 0.0000 -0.5661
vn -0.5904 0.7042 -0.3943
vn 0.0439 -0.9880 -0.1481
vn -0.8387 0.0000 -0.5446
vn 0.0439 0.9880 -0.1481
vn 0.7130 -0.7009 -0.0197
vn 0.7130 0.7009 -0.0197
vn 0.7160 -0.6927 -0.0869
vn 0.9985 0.0000 -0.0553
vn 0.7160 0.6927 -0.0869
vn 0.6987 -0.6894 -0.1911
vn 0.9827 0.0000 -0.1852
vn 0.6987 0.6894 -0.1911
vn 0.6570 -0.6861 -0.3124
vn 0.9402 0.0000 -0.3407
vn 0.6570 0.6861 -0.3124
vn 0.5819 -0.6837 -0.4404
vn 0.8577 0.0000 -0.5142
vn 0.5819 0.6837 -0.4404
vn 0.4731 -0.6831 -0.5564
vn 0.7278 0.0000 -0.6858
vn 0.4731 0.6831 -0.5564
vn 0.3435 -0.6846 -0.6428
vn 0.5597 0.0000 -0.8287
vn 0.3435 0.6846 -0.6428
vn 0.2134 -0.6876 -0.6940
vn 0.3779 0.0000 -0.9258
vn 0.2134 0.6876 -0.6940
vn 0.0978 -0.6910 -0.7162
vn 0.2076 0.0000 -0.9782
vn 0.0978 0.6910 -0.7162
vn 0.0096 -0.6963 -0.7177
vn 0.0623 0.0000 -0.9981
vn 0.0096 0.6963 -0.7177
vn -0.0530 -0.6985 -0.7136
vn -0.0356 0.0000 -0.9994
vn -0.0530 0.6985 -0.7136
vn -0.1110 -0.6976 -0.7078
vn -0.1125 0.0000 -0.9937
vn -0.1110 0.6976 -0.7078
vn -0.1741 -0.6967 -0.6959
vn -0.1970 0.0000 -0.9804
vn -0.1741 0.6967 -0.6959
vn -0.2414 -0.6959 -0.6764
vn -0.2879 0.0000 -0.9577
vn -0.2414 0.6959 -0.6764
vn -0.3110 -0.6952 -0.6481
vn -0.3834 0.0000 -0.9236
vn -0.3110 0.6952 -0.6481
vn -0.3804 -0.6947 -0.6105
vn -0.4805 0.0000 -0.8770
vn -0.3804 0.6947 -0.6105
vn -0.4468 -0.6945 -0.5639
vn -0.5755 0.0000 -0.8178
vn -0.4468 0.6945 -0.5639
vn -0.5074 -0.6947 -0.5098
vn -0.6646 0.0000 -0.7472
vn -0.5074 0.6947 -0.5098
vn -0.5540 -0.6973 -0.4548
vn -0.7441 0.0000 -0.6680
vn -0.5540 0.6973 -0.4548
vn -0.5866 -0.6993 -0.4084
vn -0.8002 0.0000 -0.5997
vn -0.5866 0.6993 -0.4084
vn -0.6146 -0.6990 -0.3656
vn -0.8402 0.0000 -0.5423
vn -0.6146 0.6990 -0.3656
vn -0.6403 -0.6987 -0.3191
vn -0.8775 0.0000 -0.4795
vn -0.6403 0.6987 -0.3191
vn -0.6631 -0.6985 -0.2692
vn -0.9113 0.0000 -0.4118
vn -0.6631 0.6985 -0.2692
vn -0.6821 -0.6984 -0.2167
vn -0.9404 0.0000 -0.3400
vn -0.6821 0.6984 -0.2167
vn -0.6970 -0.6984 -0.1626
vn -0.9642 0.0000 -0.2652
vn -0.6970 0.6984 -0.1626
vn -0.7074 -0.6985 -0.1078
vn -0.9820 0.0000 -0.1888
vn -0.7074 0.6985 -0.1078
vn -0.7134 -0.6987 -0.0534
vn -0.9937 0.0000 -0.1123
vn -0.7134 0.6987 -0.0534
vn -0.7184 -0.6956 0.0109
vn -0.9993 0.0000 -0.0369
vn -0.7184 0.6956 0.0109
vn -0.7163 -0.6898 0.1054
vn -0.9977 0.0000 0.0672
vn -0.7163 0.6898 0.1054
vn -0.6904 -0.6864 0.2286
vn -0.9748 0.0000 0.2231
vn -0.6904 0.6864 0.2286
vn -0.6325 -0.6838 0.3638
vn -0.9153 0.0000 0.4028
vn -0.6325 0.6838 0.3638
vn -0.5390 -0.6829 0.4931
vn -0.8084 0.0000 0.5886
vn -0.5390 0.6829 0.4931
vn -0.4195 -0.6842 0.5965
vn -0.6581 0.0000 0.7529
vn -0.4195 0.6842 0.5965
vn -0.2936 -0.6871 0.6646
vn -0.4861 0.0000 0.8739
vn -0.2936 0.6871 0.6646
vn -0.1780 -0.6905 0.7011
vn -0.3186 0.0000 0.9479
vn -0.1780 0.6905 0.7011
vn -0.0807 -0.6937 0.7158
vn -0.1722 0.0000 0.9851
vn -0.0807 0.6937 0.7158
vn -0.3183 -0.8985 0.3024
vn -0.0513 0.0000 0.9987
vn -0.3183 0.8985 0.3024
vn -0.0855 -0.7225 0.6860
vn -0.1859 -0.7262 0.6619
vn -0.1901 0.0000 0.9818
vn -0.1859 0.7262 0.6619
vn -0.0855 0.7225 0.6860
vn -0.3000 -0.7298 0.6144
vn -0.3489 0.0000 0.9372
vn -0.3000 0.7298 0.6144
vn -0.4178 -0.7323 0.5377
vn -0.5244 0.0000 0.8514
vn -0.4178 0.7323 0.5377
vn -0.5242 -0.7327 0.4341
vn -0.6955 0.0000 0.7185
vn -0.5242 0.7327 0.4341
vn -0.6056 -0.7307 0.3152
vn -0.8356 0.0000 0.5494
vn -0.6056 0.7307 0.3152
vn -0.6575 -0.7273 0.1969
vn -0.9293 0.0000 0.3693
vn -0.6575 0.7273 0.1969
vn -0.6842 -0.7236 0.0910
vn -0.9793 0.0000 0.2024
vn -0.6842 0.7236 0.0910
vn -0.6929 -0.7210 0.0000
vn -0.9982 0.0000 0.0607
vn -0.6929 0.7210 0.0000
vn -0.6842 -0.7236 -0.0910
vn -0.9982 0.0000 -0.0607
vn -0.6842 0.7236 -0.0910
vn -0.6575 -0.7273 -0.1969
vn -0.9793 0.0000 -0.2024
vn -0.6575 0.7273 -0.1969
vn -0.6056 -0.7307 -0.3152
vn -0.9293 0.0000 -0.3693
vn -0.6056 0.7307 -0.3152
vn -0.5242 -0.7327 -0.4341
vn -0.8356 0.0000 -0.5494
vn -0.5242 0.7327 -0.4341
vn -0.4178 -0.7323 -0.5377
vn -0.6955 0.0000 -0.7185
vn -0.4178 0.7323 -0.5377
vn -0.3000 -0.7298 -0.6144
vn -0.5244 0.0000 -0.8514
vn -0.3000 0.7298 -0.6144
vn -0.1859 -0.7262 -0.6619
vn -0.3489 0.0000 -0.9372
vn -0.1859 0.7262 -0.6619
vn -0.0855 -0.7225 -0.6860
vn -0.1901 0.0000 -0.9818
vn -0.0855 0.7225 -0.6860
vn -0.0003 -0.7200 -0.6939
vn -0.0568 0.0000 -0.9984
vn -0.0003 0.7200 -0.6939
vn 0.0843 -0.7223 -0.6864
vn 0.0560 0.0000 -0.9984
vn 0.0843 0.7223 -0.6864
vn 0.1835 -0.7259 -0.6629
vn 0.1874 0.0000 -0.9823
vn 0.1835 0.7259 -0.6629
vn 0.2966 -0.7296 -0.6163
vn 0.3444 0.0000 -0.9388
vn 0.2966 0.7296 -0.6163
vn 0.4141 -0.7322 -0.5407
vn 0.5188 0.0000 -0.8549
vn 0.4141 0.7322 -0.5407
vn 0.5210 -0.7328 -0.4377
vn 0.6902 0.0000 -0.7236
vn 0.5210 0.7328 -0.4377
vn 0.6035 -0.7309 -0.3187
vn 0.8318 0.0000 -0.5550
vn 0.6035 0.7309 -0.3187
vn 0.6565 -0.7275 -0.1995
vn 0.9274 0.0000 -0.3740
vn 0.6565 0.7275 -0.1995
vn 0.6838 -0.7238 -0.0923
vn 0.9787 0.0000 -0.2052
vn 0.6838 0.7238 -0.0923
vn 0.6927 -0.7212 -0.0000
vn 0.9981 0.0000 -0.0616
vn 0.6927 0.7212 -0.0000
vn 0.6838 -0.7238 0.0923
vn 0.9981 0.0000 0.0616
vn 0.6838 0.7238 0.0923
vn 0.6565 -0.7275 0.1995
vn 0.9787 0.0000 0.2052
vn 0.6565 0.7275 0.1995
vn 0.6035 -0.7309 0.3187
vn 0.9274 0.0000 0.3740
vn 0.6035 0.7309 0.3187
vn 0.5210 -0.7328 0.4377
vn 0.8318 0.0000 0.5550
vn 0.5210 0.7328 0.4377
vn 0.4141 -0.7322 0.5407
vn 0.6902 0.0000 0.7236
vn 0.4141 0.7322 0.5407
vn 0.2966 -0.7296 0.6163
vn 0.5188 0.0000 0.8549
vn 0.2966 0.7296 0.6163
vn 0.1835 -0.7259 0.6629
vn 0.3444 0.0000 0.9388
vn 0.1835 0.7259 0.6629
vn 0.0843 -0.7223 0.6864
vn 0.1874 0.0000 0.9823
vn 0.0843 0.7223 0.6864
vn -0.0003 -0.7200 0.6939
vn 0.0560 0.0000 0.9984
vn -0.0003 0.7200 0.6939
vn -0.0568 0.0000 0.9984
vn -0.0886 -0.7231 0.6850
vn -0.1921 -0.7268 0.6595
vn -0.1970 0.0000 0.9804
vn -0.1921 0.7268 0.6595
vn -0.0886 0.7231 0.6850
vn -0.3086 -0.7303 0.6094
vn -0.3604 0.0000 0.9328
vn -0.3086 0.7303 0.6094
vn -0.4271 -0.7325 0.5301
vn -0.5386 0.0000 0.8425
vn -0.4271 0.7325 0.5301
vn -0.5320 -0.7325 0.4248
vn -0.7087 0.0000 0.7055
vn -0.5320 0.7325 0.4248
vn -0.6107 -0.7302 0.3065
vn -0.8448 0.0000 0.5351
vn -0.6107 0.7302 0.3065
vn -0.6601 -0.7266 0.1906
vn -0.9339 0.0000 0.3576
vn -0.6601 0.7266 0.1906
vn -0.6853 -0.7230 0.0878
vn -0.9808 0.0000 0.1953
vn -0.6853 0.7230 0.0878
vn -0.6936 -0.7203 0.0005
vn -0.9983 0.0000 0.0584
vn -0.6936 0.7203 0.0005
vn -0.6860 -0.7225 -0.0856
vn -0.9984 0.0000 -0.0569
vn -0.6860 0.7225 -0.0856
vn -0.6619 -0.7262 -0.1860
vn -0.9817 0.0000 -0.1902
vn -0.6619 0.7262 -0.1860
vn -0.6143 -0.7298 -0.3001
vn -0.9371 0.0000 -0.3491
vn -0.6143 0.7298 -0.3001
vn -0.5376 -0.7323 -0.4180
vn -0.8513 0.0000 -0.5247
vn -0.5376 0.7323 -0.4180
vn -0.4339 -0.7327 -0.5243
vn -0.7183 0.0000 -0.6957
vn -0.4339 0.7327 -0.5243
vn -0.3150 -0.7307 -0.6057
vn -0.5491 0.0000 -0.8358
vn -0.3150 0.7307 -0.6057
vn -0.1968 -0.7272 -0.6576
vn -0.3691 0.0000 -0.9294
vn -0.1968 0.7272 -0.6576
vn -0.0909 -0.7235 -0.6843
vn -0.2022 0.0000 -0.9793
vn -0.0909 0.7235 -0.6843
vn 0.0000 -0.7210 -0.6929
vn -0.0606 0.0000 -0.9982
vn 0.0000 0.7210 -0.6929
vn 0.0909 -0.7235 -0.6843
vn 0.0606 0.0000 -0.9982
vn 0.0909 0.7235 -0.6843
vn 0.1968 -0.7272 -0.6576
vn 0.2022 0.0000 -0.9793
vn 0.1968 0.7272 -0.6576
vn 0.3150 -0.7307 -0.6057
vn 0.3691 0.0000 -0.9294
vn 0.3150 0.7307 -0.6057
vn 0.4339 -0.7327 -0.5243
vn 0.5491 0.0000 -0.8358
vn 0.4339 0.7327 -0.5243
vn 0.5376 -0.7323 -0.4180
vn 0.7183 0.0000 -0.6957
vn 0.5376 0.7323 -0.4180
vn 0.6143 -0.7298 -0.3001
vn 0.8513 0.0000 -0.5247
vn 0.6143 0.7298 -0.3001
vn 0.6619 -0.7262 -0.1860
vn 0.9371 0.0000 -0.3491
vn 0.6619 0.7262 -0.1860
vn 0.6860 -0.7225 -0.0856
vn 0.9817 0.0000 -0.1902
vn 0.6860 0.7225 -0.0856
vn 0.6936 -0.7203 0.0005
vn 0.9984 0.0000 -0.0569
vn 0.6936 0.7203 0.0005
vn 0.6853 -0.7230 0.0878
vn 0.9983 0.0000 0.0585
vn 0.6853 0.7230 0.0878
vn 0.6601 -0.7266 0.1906
vn 0.9808 0.0000 0.1953
vn 0.6601 0.7266 0.1906
vn 0.6107 -0.7302 0.3065
vn 0.9339 0.0000 0.3575
vn 0.6107 0.7302 0.3065
vn 0.5320 -0.7325 0.4248
vn 0.8448 0.0000 0.5351
vn 0.5320 0.7325 0.4248
vn 0.4271 -0.7325 0.5301
vn 0.7087 0.0000 0.7055
vn 0.4271 0.7325 0.5301
vn 0.3086 -0.7303 0.6094
vn 0.5387 0.0000 0.8425
vn 0.3086 0.7303 0.6094
vn 0.1921 -0.7268 0.6595
vn 0.3604 0.0000 0.9328
vn 0.1921 0.7268 0.6595
vn 0.0886 -0.7231 0.6850
vn 0.1970 0.0000 0.9804
vn 0.0886 0.7231 0.6850
vn 0.0000 -0.7206 0.6933
vn 0.0590 0.0000 0.9983
vn 0.0000 0.7206 0.6933
vn -0.0590 0.0000 0.9983
vn 0.0000 -1.0000 -0.0000
vn 0.0000 1.0000 -0.0000
# 609 vertex normals

o Ho_Hib
g Ho_Hib
s 1
f 1//1 2//2 3//3 
f 2//2 4//4 3//3 
f 4//4 5//5 3//3 
f 5//5 1//1 3//3 
s 3
f 2//2 6//6 7//7 
f 6//6 8//8 7//7 
f 8//8 4//4 7//7 
f 4//4 2//2 7//7 
s 2
f 6//6 9//9 10//10 
f 9//9 11//11 10//10 
f 11//11 8//8 10//10 
f 8//8 6//6 10//10 
f 9//9 12//12 13//13 
f 12//12 14//14 13//13 
f 14//14 11//11 13//13 
f 11//11 9//9 13//13 
f 12//12 15//15 16//16 
f 15//15 17//17 16//16 
f 17//17 14//14 16//16 
f 14//14 12//12 16//16 
f 15//15 18//18 19//19 
f 18//18 20//20 19//19 
f 20//20 17//17 19//19 
f 17//17 15//15 19//19 
f 18//18 21//21 22//22 
f 21//21 23//23 22//22 
f 23//23 20//20 22//22 
f 20//20 18//18 22//22 
f 21//21 24//24 25//25 
f 24//24 26//26 25//25 
f 26//26 23//23 25//25 
f 23//23 21//21 25//25 
f 24//24 27//27 28//28 
f 27//27 29//29 28//28 
f 29//29 26//26 28//28 
f 26//26 24//24 28//28 
f 27//27 30//30 31//31 
f 30//30 32//32 31//31 
f 32//32 29//29 31//31 
f 29//29 27//27 31//31 
f 30//30 33//33 34//34 
f 33//33 35//35 34//34 
f 35//35 32//32 34//34 
f 32//32 30//30 34//34 
f 33//33 36//36 37//37 
f 36//36 38//38 37//37 
f 38//38 35//35 37//37 
f 35//35 33//33 37//37 
f 36//36 39//39 40//40 
f 39//39 41//41 40//40 
f 41//41 38//38 40//40 
f 38//38 36//36 40//40 
f 39//39 42//42 43//43 
f 42//42 44//44 43//43 
f 44//44 41//41 43//43 
f 41//41 39//39 43//43 
f 42//42 45//45 46//46 
f 45//45 47//47 46//46 
f 47//47 44//44 46//46 
f 44//44 42//42 46//46 
f 45//45 48//48 49//49 
f 48//48 50//50 49//49 
f 50//50 47//47 49//49 
f 47//47 45//45 49//49 
f 48//48 51//51 52//52 
f 51//51 53//53 52//52 
f 53//53 50//50 52//52 
f 50//50 48//48 52//52 
f 51//51 54//54 55//55 
f 54//54 56//56 55//55 
f 56//56 53//53 55//55 
f 53//53 51//51 55//55 
f 54//54 57//57 58//58 
f 57//57 59//59 58//58 
f 59//59 56//56 58//58 
f 56//56 54//54 58//58 
f 57//57 60//60 61//61 
f 60//60 62//62 61//61 
f 62//62 59//59 61//61 
f 59//59 57//57 61//61 
f 60//60 63//63 64//64 
f 63//63 65//65 64//64 
f 65//65 62//62 64//64 
f 62//62 60//60 64//64 
f 63//63 66//66 67//67 
f 66//66 68//68 67//67 
f 68//68 65//65 67//67 
f 65//65 63//63 67//67 
f 66//66 69//69 70//70 
f 69//69 71//71 70//70 
f 71//71 68//68 70//70 
f 68//68 66//66 70//70 
f 69//69 72//72 73//73 
f 72//72 74//74 73//73 
f 74//74 71//71 73//73 
f 71//71 69//69 73//73 
f 72//72 75//75 76//76 
f 75//75 77//77 76//76 
f 77//77 74//74 76//76 
f 74//74 72//72 76//76 
f 75//75 78//78 79//79 
f 78//78 80//80 79//79 
f 80//80 77//77 79//79 
f 77//77 75//75 79//79 
f 78//78 81//81 82//82 
f 81//81 83//83 82//82 
f 83//83 80//80 82//82 
f 80//80 78//78 82//82 
s 4
f 81//81 84//84 85//85 
f 84//84 86//86 85//85 
f 86//86 83//83 85//85 
f 83//83 81//81 85//85 
s 2
f 84//84 87//87 88//88 
f 87//87 89//89 88//88 
f 89//89 86//86 88//88 
f 86//86 84//84 88//88 
s 4
f 87//87 90//90 91//91 
f 90//90 92//92 91//91 
f 92//92 89//89 91//91 
f 89//89 87//87 91//91 
s 2
f 90//90 93//93 94//94 
f 93//93 95//95 94//94 
f 95//95 92//92 94//94 
f 92//92 90//90 94//94 
f 93//93 96//96 97//97 
f 96//96 98//98 97//97 
f 98//98 95//95 97//97 
f 95//95 93//93 97//97 
f 96//96 99//99 100//100 
f 99//99 101//101 100//100 
f 101//101 98//98 100//100 
f 98//98 96//96 100//100 
f 99//99 102//102 103//103 
f 102//102 104//104 103//103 
f 104//104 101//101 103//103 
f 101//101 99//99 103//103 
f 102//102 105//105 106//106 
f 105//105 107//107 106//106 
f 107//107 104//104 106//106 
f 104//104 102//102 106//106 
f 105//105 108//108 109//109 
f 108//108 110//110 109//109 
f 110//110 107//107 109//109 
f 107//107 105//105 109//109 
f 108//108 111//111 112//112 
f 111//111 113//113 112//112 
f 113//113 110//110 112//112 
f 110//110 108//108 112//112 
f 111//111 114//114 115//115 
f 114//114 116//116 115//115 
f 116//116 113//113 115//115 
f 113//113 111//111 115//115 
f 114//114 117//117 118//118 
f 117//117 119//119 118//118 
f 119//119 116//116 118//118 
f 116//116 114//114 118//118 
s 4
f 117//117 120//120 121//121 
f 120//120 122//122 121//121 
f 122//122 119//119 121//121 
f 119//119 117//117 121//121 
f 120//120 123//123 124//124 
f 123//123 125//125 124//124 
f 125//125 122//122 124//124 
f 122//122 120//120 124//124 
f 123//123 126//126 127//127 
f 126//126 128//128 127//127 
f 128//128 125//125 127//127 
f 125//125 123//123 127//127 
f 126//126 129//129 130//130 
f 129//129 131//131 130//130 
f 131//131 128//128 130//130 
f 128//128 126//126 130//130 
f 129//129 132//132 133//133 
f 132//132 134//134 133//133 
f 134//134 131//131 133//133 
f 131//131 129//129 133//133 
f 132//132 135//135 136//136 
f 135//135 137//137 136//136 
f 137//137 134//134 136//136 
f 134//134 132//132 136//136 
f 135//135 138//138 139//139 
f 138//138 140//140 139//139 
f 140//140 137//137 139//139 
f 137//137 135//135 139//139 
f 138//138 141//141 142//142 
f 141//141 143//143 142//142 
f 143//143 140//140 142//142 
f 140//140 138//138 142//142 
f 141//141 144//144 145//145 
f 144//144 146//146 145//145 
f 146//146 143//143 145//145 
f 143//143 141//141 145//145 
f 144//144 147//147 148//148 
f 147//147 149//149 148//148 
f 149//149 146//146 148//148 
f 146//146 144//144 148//148 
f 147//147 150//150 151//151 
f 150//150 152//152 151//151 
f 152//152 149//149 151//151 
f 149//149 147//147 151//151 
f 150//150 153//153 154//154 
f 153//153 155//155 154//154 
f 155//155 152//152 154//154 
f 152//152 150//150 154//154 
f 153//153 156//156 157//157 
f 156//156 158//158 157//157 
f 158//158 155//155 157//157 
f 155//155 153//153 157//157 
f 156//156 159//159 160//160 
f 159//159 161//161 160//160 
f 161//161 158//158 160//160 
f 158//158 156//156 160//160 
f 159//159 162//162 163//163 
f 162//162 164//164 163//163 
f 164//164 161//161 163//163 
f 161//161 159//159 163//163 
f 162//162 165//165 166//166 
f 165//165 167//167 166//166 
f 167//167 164//164 166//166 
f 164//164 162//162 166//166 
f 165//165 168//168 169//169 
f 168//168 170//170 169//169 
f 170//170 167//167 169//169 
f 167//167 165//165 169//169 
f 168//168 171//171 172//172 
f 171//171 173//173 172//172 
f 173//173 170//170 172//172 
f 170//170 168//168 172//172 
f 171//171 174//174 175//175 
f 174//174 176//176 175//175 
f 176//176 173//173 175//175 
f 173//173 171//171 175//175 
f 174//174 177//177 178//178 
f 177//177 179//179 178//178 
f 179//179 176//176 178//178 
f 176//176 174//174 178//178 
f 177//177 180//180 181//181 
f 180//180 182//182 181//181 
f 182//182 179//179 181//181 
f 179//179 177//177 181//181 
f 180//180 183//183 184//184 
f 183//183 185//185 184//184 
f 185//185 182//182 184//184 
f 182//182 180//180 184//184 
f 183//183 186//186 187//187 
f 186//186 188//188 187//187 
f 188//188 185//185 187//187 
f 185//185 183//183 187//187 
f 186//186 189//189 190//190 
f 189//189 191//191 190//190 
f 191//191 188//188 190//190 
f 188//188 186//186 190//190 
f 189//189 192//192 193//193 
f 192//192 194//194 193//193 
f 194//194 191//191 193//193 
f 191//191 189//189 193//193 
f 192//192 195//195 196//196 
f 195//195 197//197 196//196 
f 197//197 194//194 196//196 
f 194//194 192//192 196//196 
f 195//195 198//198 199//199 
f 198//198 200//200 199//199 
f 200//200 197//197 199//199 
f 197//197 195//195 199//199 
f 198//198 201//201 202//202 
f 201//201 203//203 202//202 
f 203//203 200//200 202//202 
f 200//200 198//198 202//202 
f 201//201 204//204 205//205 
f 204//204 206//206 205//205 
f 206//206 203//203 205//205 
f 203//203 201//201 205//205 
f 204//204 207//207 208//208 
f 207//207 209//209 208//208 
f 209//209 206//206 208//208 
f 206//206 204//204 208//208 
f 207//207 210//210 211//211 
f 210//210 212//212 211//211 
f 212//212 209//209 211//211 
f 209//209 207//207 211//211 
f 210//210 213//213 214//214 
f 213//213 215//215 214//214 
f 215//215 212//212 214//214 
f 212//212 210//210 214//214 
f 213//213 216//216 217//217 
f 216//216 218//218 217//217 
f 218//218 215//215 217//217 
f 215//215 213//213 217//217 
f 216//216 219//219 220//220 
f 219//219 221//221 220//220 
f 221//221 218//218 220//220 
f 218//218 216//216 220//220 
f 219//219 222//222 223//223 
f 222//222 224//224 223//223 
f 224//224 221//221 223//223 
f 221//221 219//219 223//223 
f 222//222 225//225 226//226 
f 225//225 227//227 226//226 
f 227//227 224//224 226//226 
f 224//224 222//222 226//226 
f 225//225 228//228 229//229 
f 228//228 230//230 229//229 
f 230//230 227//227 229//229 
f 227//227 225//225 229//229 
f 228//228 231//231 232//232 
f 231//231 233//233 232//232 
f 233//233 230//230 232//232 
f 230//230 228//228 232//232 
f 231//231 234//234 235//235 
f 234//234 236//236 235//235 
f 236//236 233//233 235//235 
f 233//233 231//231 235//235 
f 234//234 237//237 238//238 
f 237//237 239//239 238//238 
f 239//239 236//236 238//238 
f 236//236 234//234 238//238 
f 237//237 240//240 241//241 
f 240//240 242//242 241//241 
f 242//242 239//239 241//241 
f 239//239 237//237 241//241 
f 240//240 243//243 244//244 
f 243//243 245//245 244//244 
f 245//245 242//242 244//244 
f 242//242 240//240 244//244 
f 243//243 246//246 247//247 
f 246//246 248//248 247//247 
f 248//248 245//245 247//247 
f 245//245 243//243 247//247 
f 246//246 249//249 250//250 
f 249//249 251//251 250//250 
f 251//251 248//248 250//250 
f 248//248 246//246 250//250 
f 249//249 252//252 253//253 
f 252//252 254//254 253//253 
f 254//254 251//251 253//253 
f 251//251 249//249 253//253 
s 2
f 252//252 255//255 256//256 
f 255//255 257//257 256//256 
f 257//257 254//254 256//256 
f 254//254 252//252 256//256 
f 255//255 258//258 259//259 
f 258//258 260//260 259//259 
f 260//260 257//257 259//259 
f 257//257 255//255 259//259 
f 258//258 261//261 262//262 
f 261//261 263//263 262//262 
f 263//263 260//260 262//262 
f 260//260 258//258 262//262 
f 261//261 264//264 265//265 
f 264//264 266//266 265//265 
f 266//266 263//263 265//265 
f 263//263 261//261 265//265 
f 264//264 267//267 268//268 
f 267//267 269//269 268//268 
f 269//269 266//266 268//268 
f 266//266 264//264 268//268 
f 267//267 270//270 271//271 
f 270//270 272//272 271//271 
f 272//272 269//269 271//271 
f 269//269 267//267 271//271 
f 270//270 273//273 274//274 
f 273//273 275//275 274//274 
f 275//275 272//272 274//274 
f 272//272 270//270 274//274 
f 273//273 276//276 277//277 
f 276//276 278//278 277//277 
f 278//278 275//275 277//277 
f 275//275 273//273 277//277 
f 276//276 279//279 280//280 
f 279//279 281//281 280//280 
f 281//281 278//278 280//280 
f 278//278 276//276 280//280 
s 4
f 279//279 282//282 283//91 
f 282//282 284//283 283//91 
f 284//283 281//281 283//91 
f 281//281 279//279 283//91 
s 2
f 282//282 285//284 286//285 
f 285//284 287//286 286//285 
f 287//286 284//283 286//285 
f 284//283 282//282 286//285 
f 285//284 288//287 289//288 
f 288//287 290//289 289//288 
f 290//289 287//286 289//288 
f 287//286 285//284 289//288 
f 288//287 291//290 292//291 
f 291//290 293//292 292//291 
f 293//292 290//289 292//291 
f 290//289 288//287 292//291 
f 291//290 294//293 295//294 
f 294//293 296//295 295//294 
f 296//295 293//292 295//294 
f 293//292 291//290 295//294 
f 294//293 297//296 298//297 
f 297//296 299//298 298//297 
f 299//298 296//295 298//297 
f 296//295 294//293 298//297 
f 297//296 300//299 301//300 
f 300//299 302//301 301//300 
f 302//301 299//298 301//300 
f 299//298 297//296 301//300 
f 300//299 303//302 304//303 
f 303//302 305//304 304//303 
f 305//304 302//301 304//303 
f 302//301 300//299 304//303 
f 303//302 306//305 307//306 
f 306//305 308//307 307//306 
f 308//307 305//304 307//306 
f 305//304 303//302 307//306 
f 306//305 309//308 310//309 
f 309//308 311//310 310//309 
f 311//310 308//307 310//309 
f 308//307 306//305 310//309 
f 309//308 312//311 313//312 
f 312//311 314//313 313//312 
f 314//313 311//310 313//312 
f 311//310 309//308 313//312 
f 312//311 315//314 316//315 
f 315//314 317//316 316//315 
f 317//316 314//313 316//315 
f 314//313 312//311 316//315 
f 315//314 318//317 319//318 
f 318//317 320//319 319//318 
f 320//319 317//316 319//318 
f 317//316 315//314 319//318 
f 318//317 321//320 322//321 
f 321//320 323//322 322//321 
f 323//322 320//319 322//321 
f 320//319 318//317 322//321 
f 321//320 324//323 325//324 
f 324//323 326//325 325//324 
f 326//325 323//322 325//324 
f 323//322 321//320 325//324 
f 324//323 327//326 328//327 
f 327//326 329//328 328//327 
f 329//328 326//325 328//327 
f 326//325 324//323 328//327 
f 327//326 330//329 331//330 
f 330//329 332//331 331//330 
f 332//331 329//328 331//330 
f 329//328 327//326 331//330 
f 330//329 333//332 334//333 
f 333//332 335//334 334//333 
f 335//334 332//331 334//333 
f 332//331 330//329 334//333 
f 333//332 336//335 337//336 
f 336//335 338//337 337//336 
f 338//337 335//334 337//336 
f 335//334 333//332 337//336 
f 336//335 339//338 340//339 
f 339//338 341//340 340//339 
f 341//340 338//337 340//339 
f 338//337 336//335 340//339 
f 339//338 342//341 343//342 
f 342//341 344//343 343//342 
f 344//343 341//340 343//342 
f 341//340 339//338 343//342 
f 342//341 345//344 346//345 
f 345//344 347//346 346//345 
f 347//346 344//343 346//345 
f 344//343 342//341 346//345 
f 345//344 348//347 349//348 
f 348//347 350//349 349//348 
f 350//349 347//346 349//348 
f 347//346 345//344 349//348 
f 348//347 351//350 352//351 
f 351//350 353//352 352//351 
f 353//352 350//349 352//351 
f 350//349 348//347 352//351 
f 351//350 354//353 355//354 
f 354//353 356//355 355//354 
f 356//355 353//352 355//354 
f 353//352 351//350 355//354 
f 354//353 357//356 358//357 
f 357//356 359//358 358//357 
f 359//358 356//355 358//357 
f 356//355 354//353 358//357 
f 357//356 360//359 361//360 
f 360//359 362//361 361//360 
f 362//361 359//358 361//360 
f 359//358 357//356 361//360 
f 360//359 363//362 364//363 
f 363//362 365//364 364//363 
f 365//364 362//361 364//363 
f 362//361 360//359 364//363 
f 363//362 366//365 367//366 
f 366//365 368//367 367//366 
f 368//367 365//364 367//366 
f 365//364 363//362 367//366 
f 366//365 369//368 370//369 
f 369//368 371//370 370//369 
f 371//370 368//367 370//369 
f 368//367 366//365 370//369 
f 369//368 372//371 373//372 
f 372//371 374//373 373//372 
f 374//373 371//370 373//372 
f 371//370 369//368 373//372 
f 372//371 375//374 376//375 
f 375//374 377//376 376//375 
f 377//376 374//373 376//375 
f 374//373 372//371 376//375 
f 375//374 378//377 379//378 
f 378//377 380//379 379//378 
f 380//379 377//376 379//378 
f 377//376 375//374 379//378 
f 378//377 381//380 382//381 
f 381//380 383//382 382//381 
f 383//382 380//379 382//381 
f 380//379 378//377 382//381 
f 381//380 384//383 385//384 
f 384//383 386//385 385//384 
f 386//385 383//382 385//384 
f 383//382 381//380 385//384 
f 384//383 387//386 388//387 
f 387//386 389//388 388//387 
f 389//388 386//385 388//387 
f 386//385 384//383 388//387 
f 387//386 390//389 391//390 
f 390//389 392//391 391//390 
f 392//391 389//388 391//390 
f 389//388 387//386 391//390 
s 4
f 390//389 393//84 394//85 
f 393//84 395//86 394//85 
f 395//86 392//391 394//85 
f 392//391 390//389 394//85 
s 2
f 393//84 1//1 396//88 
f 1//1 5//5 396//88 
f 5//5 395//86 396//88 
f 395//86 393//84 396//88 
s 1
f 397//392 398//393 399//394 
f 398//393 400//395 399//394 
f 400//395 401//396 399//394 
f 401//396 397//392 399//394 
s 3
f 398//393 402//397 403//398 
f 402//397 404//399 403//398 
f 404//399 400//395 403//398 
f 400//395 398//393 403//398 
s 2
f 402//397 405//400 406//401 
f 405//400 407//402 406//401 
f 407//402 404//399 406//401 
f 404//399 402//397 406//401 
f 405//400 408//403 409//404 
f 408//403 410//405 409//404 
f 410//405 407//402 409//404 
f 407//402 405//400 409//404 
f 408//403 411//406 412//407 
f 411//406 413//408 412//407 
f 413//408 410//405 412//407 
f 410//405 408//403 412//407 
f 411//406 414//409 415//410 
f 414//409 416//411 415//410 
f 416//411 413//408 415//410 
f 413//408 411//406 415//410 
f 414//409 417//412 418//413 
f 417//412 419//414 418//413 
f 419//414 416//411 418//413 
f 416//411 414//409 418//413 
f 417//412 420//415 421//416 
f 420//415 422//417 421//416 
f 422//417 419//414 421//416 
f 419//414 417//412 421//416 
f 420//415 423//418 424//419 
f 423//418 425//420 424//419 
f 425//420 422//417 424//419 
f 422//417 420//415 424//419 
f 423//418 426//421 427//422 
f 426//421 428//423 427//422 
f 428//423 425//420 427//422 
f 425//420 423//418 427//422 
f 426//421 429//424 430//425 
f 429//424 431//426 430//425 
f 431//426 428//423 430//425 
f 428//423 426//421 430//425 
f 429//424 432//427 433//428 
f 432//427 434//429 433//428 
f 434//429 431//426 433//428 
f 431//426 429//424 433//428 
f 432//427 435//430 436//431 
f 435//430 437//432 436//431 
f 437//432 434//429 436//431 
f 434//429 432//427 436//431 
f 435//430 438//433 439//434 
f 438//433 440//435 439//434 
f 440//435 437//432 439//434 
f 437//432 435//430 439//434 
f 438//433 441//436 442//437 
f 441//436 443//438 442//437 
f 443//438 440//435 442//437 
f 440//435 438//433 442//437 
f 441//436 444//439 445//440 
f 444//439 446//441 445//440 
f 446//441 443//438 445//440 
f 443//438 441//436 445//440 
f 444//439 447//442 448//443 
f 447//442 449//444 448//443 
f 449//444 446//441 448//443 
f 446//441 444//439 448//443 
f 447//442 450//445 451//446 
f 450//445 452//447 451//446 
f 452//447 449//444 451//446 
f 449//444 447//442 451//446 
f 450//445 453//448 454//449 
f 453//448 455//450 454//449 
f 455//450 452//447 454//449 
f 452//447 450//445 454//449 
f 453//448 456//451 457//452 
f 456//451 458//453 457//452 
f 458//453 455//450 457//452 
f 455//450 453//448 457//452 
f 456//451 459//454 460//455 
f 459//454 461//456 460//455 
f 461//456 458//453 460//455 
f 458//453 456//451 460//455 
f 459//454 462//457 463//458 
f 462//457 464//459 463//458 
f 464//459 461//456 463//458 
f 461//456 459//454 463//458 
f 462//457 465//460 466//461 
f 465//460 467//462 466//461 
f 467//462 464//459 466//461 
f 464//459 462//457 466//461 
f 465//460 468//463 469//464 
f 468//463 470//465 469//464 
f 470//465 467//462 469//464 
f 467//462 465//460 469//464 
f 468//463 471//466 472//467 
f 471//466 473//468 472//467 
f 473//468 470//465 472//467 
f 470//465 468//463 472//467 
f 471//466 474//469 475//470 
f 474//469 476//471 475//470 
f 476//471 473//468 475//470 
f 473//468 471//466 475//470 
f 474//469 477//472 478//473 
f 477//472 479//474 478//473 
f 479//474 476//471 478//473 
f 476//471 474//469 478//473 
f 477//472 480//475 481//476 
f 480//475 482//477 481//476 
f 482//477 479//474 481//476 
f 479//474 477//472 481//476 
f 480//475 483//478 484//479 
f 483//478 485//480 484//479 
f 485//480 482//477 484//479 
f 482//477 480//475 484//479 
f 483//478 486//481 487//482 
f 486//481 488//483 487//482 
f 488//483 485//480 487//482 
f 485//480 483//478 487//482 
f 486//481 489//484 490//485 
f 489//484 491//486 490//485 
f 491//486 488//483 490//485 
f 488//483 486//481 490//485 
f 489//484 492//487 493//488 
f 492//487 494//489 493//488 
f 494//489 491//486 493//488 
f 491//486 489//484 493//488 
f 492//487 495//490 496//491 
f 495//490 497//492 496//491 
f 497//492 494//489 496//491 
f 494//489 492//487 496//491 
f 495//490 498//493 499//494 
f 498//493 500//495 499//494 
f 500//495 497//492 499//494 
f 497//492 495//490 499//494 
f 498//493 501//496 502//497 
f 501//496 503//498 502//497 
f 503//498 500//495 502//497 
f 500//495 498//493 502//497 
s 3
f 501//496 397//392 504//499 
f 397//392 401//396 504//499 
f 401//396 503//498 504//499 
f 503//498 501//496 504//499 
s 1
f 505//500 506//501 507//502 
f 506//501 508//503 507//502 
f 508//503 509//504 507//502 
f 509//504 505//500 507//502 
s 3
f 506//501 510//505 511//506 
f 510//505 512//507 511//506 
f 512//507 508//503 511//506 
f 508//503 506//501 511//506 
s 2
f 510//505 513//508 514//509 
f 513//508 515//510 514//509 
f 515//510 512//507 514//509 
f 512//507 510//505 514//509 
f 513//508 516//511 517//512 
f 516//511 518//513 517//512 
f 518//513 515//510 517//512 
f 515//510 513//508 517//512 
f 516//511 519//514 520//515 
f 519//514 521//516 520//515 
f 521//516 518//513 520//515 
f 518//513 516//511 520//515 
f 519//514 522//517 523//518 
f 522//517 524//519 523//518 
f 524//519 521//516 523//518 
f 521//516 519//514 523//518 
f 522//517 525//520 526//521 
f 525//520 527//522 526//521 
f 527//522 524//519 526//521 
f 524//519 522//517 526//521 
f 525//520 528//523 529//524 
f 528//523 530//525 529//524 
f 530//525 527//522 529//524 
f 527//522 525//520 529//524 
f 528//523 531//526 532//527 
f 531//526 533//528 532//527 
f 533//528 530//525 532//527 
f 530//525 528//523 532//527 
f 531//526 534//529 535//530 
f 534//529 536//531 535//530 
f 536//531 533//528 535//530 
f 533//528 531//526 535//530 
f 534//529 537//532 538//533 
f 537//532 539//534 538//533 
f 539//534 536//531 538//533 
f 536//531 534//529 538//533 
f 537//532 540//535 541//536 
f 540//535 542//537 541//536 
f 542//537 539//534 541//536 
f 539//534 537//532 541//536 
f 540//535 543//538 544//539 
f 543//538 545//540 544//539 
f 545//540 542//537 544//539 
f 542//537 540//535 544//539 
f 543//538 546//541 547//542 
f 546//541 548//543 547//542 
f 548//543 545//540 547//542 
f 545//540 543//538 547//542 
f 546//541 549//544 550//545 
f 549//544 551//546 550//545 
f 551//546 548//543 550//545 
f 548//543 546//541 550//545 
f 549//544 552//547 553//548 
f 552//547 554//549 553//548 
f 554//549 551//546 553//548 
f 551//546 549//544 553//548 
f 552//547 555//550 556//551 
f 555//550 557//552 556//551 
f 557//552 554//549 556//551 
f 554//549 552//547 556//551 
f 555//550 558//553 559//554 
f 558//553 560//555 559//554 
f 560//555 557//552 559//554 
f 557//552 555//550 559//554 
f 558//553 561//556 562//557 
f 561//556 563//558 562//557 
f 563//558 560//555 562//557 
f 560//555 558//553 562//557 
f 561//556 564//559 565//560 
f 564//559 566//561 565//560 
f 566//561 563//558 565//560 
f 563//558 561//556 565//560 
f 564//559 567//562 568//563 
f 567//562 569//564 568//563 
f 569//564 566//561 568//563 
f 566//561 564//559 568//563 
f 567//562 570//565 571//566 
f 570//565 572//567 571//566 
f 572//567 569//564 571//566 
f 569//564 567//562 571//566 
f 570//565 573//568 574//569 
f 573//568 575//570 574//569 
f 575//570 572//567 574//569 
f 572//567 570//565 574//569 
f 573//568 576//571 577//572 
f 576//571 578//573 577//572 
f 578//573 575//570 577//572 
f 575//570 573//568 577//572 
f 576//571 579//574 580//575 
f 579//574 581//576 580//575 
f 581//576 578//573 580//575 
f 578//573 576//571 580//575 
f 579//574 582//577 583//578 
f 582//577 584//579 583//578 
f 584//579 581//576 583//578 
f 581//576 579//574 583//578 
f 582//577 585//580 586//581 
f 585//580 587//582 586//581 
f 587//582 584//579 586//581 
f 584//579 582//577 586//581 
f 585//580 588//583 589//584 
f 588//583 590//585 589//584 
f 590//585 587//582 589//584 
f 587//582 585//580 589//584 
f 588//583 591//586 592//587 
f 591//586 593//588 592//587 
f 593//588 590//585 592//587 
f 590//585 588//583 592//587 
f 591//586 594//589 595//590 
f 594//589 596//591 595//590 
f 596//591 593//588 595//590 
f 593//588 591//586 595//590 
f 594//589 597//592 598//593 
f 597//592 599//594 598//593 
f 599//594 596//591 598//593 
f 596//591 594//589 598//593 
f 597//592 600//595 601//596 
f 600//595 602//597 601//596 
f 602//597 599//594 601//596 
f 599//594 597//592 601//596 
f 600//595 603//598 604//599 
f 603//598 605//600 604//599 
f 605//600 602//597 604//599 
f 602//597 600//595 604//599 
f 603//598 606//601 607//602 
f 606//601 608//603 607//602 
f 608//603 605//600 607//602 
f 605//600 603//598 607//602 
f 606//601 609//604 610//605 
f 609//604 611//606 610//605 
f 611//606 608//603 610//605 
f 608//603 606//601 610//605 
s 3
f 609//604 505//500 612//607 
f 505//500 509//504 612//607 
f 509//504 611//606 612//607 
f 611//606 609//604 612//607 
s 16
f 1//1 393//84 613//608 
f 393//84 390//389 613//608 
f 390//389 438//433 613//608 
f 438//433 435//430 613//608 
f 435//430 1//1 613//608 
f 5//5 4//4 614//609 
f 4//4 422//417 614//609 
f 422//417 425//420 614//609 
f 425//420 5//5 614//609 
f 288//287 285//284 615//608 
f 285//284 282//282 615//608 
f 282//282 279//279 615//608 
f 279//279 616//608 420//415 615//608 
f 420//415 417//412 615//608 
f 417//412 288//287 615//608 
f 435//430 432//427 617//608 
f 432//427 1//1 617//608 
f 1//1 435//430 617//608 
f 432//427 429//424 618//608 
f 429//424 1//1 618//608 
f 1//1 432//427 618//608 
f 429//424 426//421 619//608 
f 426//421 1//1 619//608 
f 1//1 429//424 619//608 
f 426//421 423//418 620//608 
f 423//418 1//1 620//608 
f 1//1 426//421 620//608 
f 279//279 12//12 616//608 
f 12//12 9//9 616//608 
f 9//9 420//415 616//608 
f 276//276 273//273 621//608 
f 273//273 270//270 621//608 
f 270//270 267//267 621//608 
f 267//267 264//264 621//608 
f 264//264 261//261 621//608 
f 261//261 258//258 621//608 
f 258//258 255//255 621//608 
f 255//255 252//252 621//608 
f 252//252 27//27 621//608 
f 27//27 24//24 621//608 
f 24//24 276//276 621//608 
f 9//9 6//6 622//608 
f 6//6 420//415 622//608 
f 420//415 9//9 622//608 
f 6//6 2//2 623//608 
f 2//2 420//415 623//608 
f 420//415 6//6 623//608 
f 2//2 1//1 624//608 
f 1//1 423//418 624//608 
f 423//418 420//415 624//608 
f 420//415 2//2 624//608 
f 582//577 579//574 625//608 
f 579//574 33//33 625//608 
f 33//33 30//30 625//608 
f 30//30 582//577 625//608 
f 24//24 21//21 626//608 
f 21//21 279//279 626//608 
f 279//279 276//276 626//608 
f 276//276 24//24 626//608 
f 21//21 18//18 627//608 
f 18//18 279//279 627//608 
f 279//279 21//21 627//608 
f 18//18 15//15 628//608 
f 15//15 279//279 628//608 
f 279//279 18//18 628//608 
f 15//15 12//12 629//608 
f 12//12 279//279 629//608 
f 279//279 15//15 629//608 
f 579//574 576//571 630//608 
f 576//571 36//36 630//608 
f 36//36 33//33 630//608 
f 33//33 579//574 630//608 
f 30//30 27//27 631//608 
f 27//27 252//252 631//608 
f 582//577 30//30 631//608 
f 576//571 573//568 632//608 
f 573//568 42//42 632//608 
f 42//42 39//39 632//608 
f 39//39 576//571 632//608 
f 573//568 570//565 633//608 
f 570//565 45//45 633//608 
f 45//45 42//42 633//608 
f 42//42 573//568 633//608 
f 39//39 36//36 634//608 
f 36//36 576//571 634//608 
f 576//571 39//39 634//608 
f 570//565 567//562 635//608 
f 567//562 48//48 635//608 
f 48//48 45//45 635//608 
f 45//45 570//565 635//608 
f 567//562 564//559 636//608 
f 564//559 51//51 636//608 
f 51//51 48//48 636//608 
f 48//48 567//562 636//608 
f 564//559 561//556 637//608 
f 561//556 54//54 637//608 
f 54//54 51//51 637//608 
f 51//51 564//559 637//608 
f 561//556 558//553 638//608 
f 558//553 57//57 638//608 
f 57//57 54//54 638//608 
f 54//54 561//556 638//608 
f 558//553 555//550 639//608 
f 555//550 60//60 639//608 
f 60//60 57//57 639//608 
f 57//57 558//553 639//608 
f 555//550 552//547 640//608 
f 552//547 63//63 640//608 
f 63//63 60//60 640//608 
f 60//60 555//550 640//608 
f 117//117 69//69 641//608 
f 69//69 66//66 641//608 
f 66//66 117//117 641//608 
f 549//544 546//541 642//608 
f 546//541 117//117 642//608 
f 117//117 549//544 642//608 
f 90//90 87//87 643//608 
f 87//87 84//84 643//608 
f 84//84 81//81 643//608 
f 81//81 90//90 643//608 
f 66//66 63//63 644//608 
f 63//63 552//547 644//608 
f 552//547 549//544 644//608 
f 549//544 117//117 644//608 
f 117//117 66//66 644//608 
f 81//81 78//78 645//608 
f 78//78 93//93 645//608 
f 93//93 90//90 645//608 
f 90//90 81//81 645//608 
f 78//78 75//75 646//608 
f 75//75 99//99 646//608 
f 99//99 96//96 646//608 
f 96//96 93//93 646//608 
f 93//93 78//78 646//608 
f 75//75 72//72 647//608 
f 72//72 105//105 647//608 
f 105//105 102//102 647//608 
f 102//102 99//99 647//608 
f 99//99 75//75 647//608 
f 72//72 69//69 648//608 
f 69//69 117//117 648//608 
f 117//117 114//114 648//608 
f 114//114 111//111 648//608 
f 111//111 108//108 648//608 
f 108//108 105//105 648//608 
f 105//105 72//72 648//608 
f 546//541 543//538 649//608 
f 543//538 120//120 649//608 
f 120//120 117//117 649//608 
f 117//117 546//541 649//608 
f 543//538 540//535 650//608 
f 540//535 126//126 650//608 
f 126//126 123//123 650//608 
f 123//123 120//120 650//608 
f 120//120 543//538 650//608 
f 540//535 537//532 651//608 
f 537//532 129//129 651//608 
f 129//129 126//126 651//608 
f 126//126 540//535 651//608 
f 537//532 534//529 652//608 
f 534//529 135//135 652//608 
f 135//135 132//132 652//608 
f 132//132 129//129 652//608 
f 129//129 537//532 652//608 
f 534//529 531//526 653//608 
f 531//526 138//138 653//608 
f 138//138 135//135 653//608 
f 135//135 534//529 653//608 
f 531//526 528//523 654//608 
f 528//523 144//144 654//608 
f 144//144 141//141 654//608 
f 141//141 138//138 654//608 
f 138//138 531//526 654//608 
f 528//523 525//520 655//608 
f 525//520 147//147 655//608 
f 147//147 144//144 655//608 
f 144//144 528//523 655//608 
f 525//520 522//517 656//608 
f 522//517 147//147 656//608 
f 147//147 525//520 656//608 
f 522//517 519//514 657//608 
f 519//514 153//153 657//608 
f 153//153 150//150 657//608 
f 150//150 147//147 657//608 
f 147//147 522//517 657//608 
f 519//514 516//511 658//608 
f 516//511 156//156 658//608 
f 156//156 153//153 658//608 
f 153//153 519//514 658//608 
f 516//511 513//508 659//608 
f 513//508 159//159 659//608 
f 159//159 156//156 659//608 
f 156//156 516//511 659//608 
f 513//508 510//505 660//608 
f 510//505 165//165 660//608 
f 165//165 162//162 660//608 
f 162//162 159//159 660//608 
f 159//159 513//508 660//608 
f 510//505 506//501 661//608 
f 506//501 165//165 661//608 
f 165//165 510//505 661//608 
f 506//501 505//500 662//608 
f 505//500 168//168 662//608 
f 168//168 165//165 662//608 
f 165//165 506//501 662//608 
f 505//500 609//604 663//608 
f 609//604 171//171 663//608 
f 171//171 168//168 663//608 
f 168//168 505//500 663//608 
f 609//604 606//601 664//608 
f 606//601 177//177 664//608 
f 177//177 174//174 664//608 
f 174//174 171//171 664//608 
f 171//171 609//604 664//608 
f 606//601 603//598 665//608 
f 603//598 180//180 665//608 
f 180//180 177//177 665//608 
f 177//177 606//601 665//608 
f 603//598 600//595 666//608 
f 600//595 186//186 666//608 
f 186//186 183//183 666//608 
f 183//183 180//180 666//608 
f 180//180 603//598 666//608 
f 600//595 597//592 667//608 
f 597//592 195//195 667//608 
f 195//195 192//192 667//608 
f 192//192 189//189 667//608 
f 189//189 186//186 667//608 
f 186//186 600//595 667//608 
f 597//592 594//589 668//608 
f 594//589 201//201 668//608 
f 201//201 198//198 668//608 
f 198//198 195//195 668//608 
f 195//195 597//592 668//608 
f 594//589 591//586 669//608 
f 591//586 207//207 669//608 
f 207//207 204//204 669//608 
f 204//204 201//201 669//608 
f 201//201 594//589 669//608 
f 591//586 588//583 670//608 
f 588//583 213//213 670//608 
f 213//213 210//210 670//608 
f 210//210 207//207 670//608 
f 207//207 591//586 670//608 
f 588//583 585//580 671//608 
f 585//580 219//219 671//608 
f 219//219 216//216 671//608 
f 216//216 213//213 671//608 
f 213//213 588//583 671//608 
f 585//580 582//577 672//608 
f 582//577 631//608 252//252 672//608 
f 252//252 249//249 672//608 
f 249//249 246//246 672//608 
f 246//246 243//243 672//608 
f 243//243 240//240 672//608 
f 240//240 237//237 672//608 
f 237//237 234//234 672//608 
f 234//234 231//231 672//608 
f 231//231 228//228 672//608 
f 228//228 225//225 672//608 
f 225//225 222//222 672//608 
f 222//222 219//219 672//608 
f 219//219 585//580 672//608 
f 417//412 414//409 673//608 
f 414//409 291//290 673//608 
f 291//290 288//287 673//608 
f 288//287 417//412 673//608 
f 414//409 411//406 674//608 
f 411//406 294//293 674//608 
f 294//293 291//290 674//608 
f 291//290 414//409 674//608 
f 411//406 408//403 675//608 
f 408//403 297//296 675//608 
f 297//296 294//293 675//608 
f 294//293 411//406 675//608 
f 408//403 405//400 676//608 
f 405//400 300//299 676//608 
f 300//299 297//296 676//608 
f 297//296 408//403 676//608 
f 405//400 402//397 677//608 
f 402//397 303//302 677//608 
f 303//302 300//299 677//608 
f 300//299 405//400 677//608 
f 402//397 398//393 678//608 
f 398//393 306//305 678//608 
f 306//305 303//302 678//608 
f 303//302 402//397 678//608 
f 398//393 397//392 679//608 
f 397//392 306//305 679//608 
f 306//305 398//393 679//608 
f 397//392 501//496 680//608 
f 501//496 309//308 680//608 
f 309//308 306//305 680//608 
f 306//305 397//392 680//608 
f 501//496 498//493 681//608 
f 498//493 312//311 681//608 
f 312//311 309//308 681//608 
f 309//308 501//496 681//608 
f 498//493 495//490 682//608 
f 495//490 318//317 682//608 
f 318//317 315//314 682//608 
f 315//314 312//311 682//608 
f 312//311 498//493 682//608 
f 495//490 492//487 683//608 
f 492//487 324//323 683//608 
f 324//323 321//320 683//608 
f 321//320 318//317 683//608 
f 318//317 495//490 683//608 
f 492//487 489//484 684//608 
f 489//484 330//329 684//608 
f 330//329 327//326 684//608 
f 327//326 324//323 684//608 
f 324//323 492//487 684//608 
f 489//484 486//481 685//608 
f 486//481 336//335 685//608 
f 336//335 333//332 685//608 
f 333//332 330//329 685//608 
f 330//329 489//484 685//608 
f 486//481 483//478 686//608 
f 483//478 345//344 686//608 
f 345//344 342//341 686//608 
f 342//341 339//338 686//608 
f 339//338 336//335 686//608 
f 336//335 486//481 686//608 
f 483//478 480//475 687//608 
f 480//475 351//350 687//608 
f 351//350 348//347 687//608 
f 348//347 345//344 687//608 
f 345//344 483//478 687//608 
f 480//475 477//472 688//608 
f 477//472 357//356 688//608 
f 357//356 354//353 688//608 
f 354//353 351//350 688//608 
f 351//350 480//475 688//608 
f 477//472 474//469 689//608 
f 474//469 363//362 689//608 
f 363//362 360//359 689//608 
f 360//359 357//356 689//608 
f 357//356 477//472 689//608 
f 474//469 471//466 690//608 
f 471//466 366//365 690//608 
f 366//365 363//362 690//608 
f 363//362 474//469 690//608 
f 471//466 468//463 691//608 
f 468//463 369//368 691//608 
f 369//368 366//365 691//608 
f 366//365 471//466 691//608 
f 468//463 465//460 692//608 
f 465//460 372//371 692//608 
f 372//371 369//368 692//608 
f 369//368 468//463 692//608 
f 465//460 462//457 693//608 
f 462//457 375//374 693//608 
f 375//374 372//371 693//608 
f 372//371 465//460 693//608 
f 462//457 459//454 694//608 
f 459//454 378//377 694//608 
f 378//377 375//374 694//608 
f 375//374 462//457 694//608 
f 459//454 456//451 695//608 
f 456//451 381//380 695//608 
f 381//380 378//377 695//608 
f 378//377 459//454 695//608 
f 456//451 453//448 696//608 
f 453//448 384//383 696//608 
f 384//383 381//380 696//608 
f 381//380 456//451 696//608 
f 453//448 450//445 697//608 
f 450//445 387//386 697//608 
f 387//386 384//383 697//608 
f 384//383 453//448 697//608 
f 450//445 447//442 698//608 
f 447//442 390//389 698//608 
f 390//389 387//386 698//608 
f 387//386 450//445 698//608 
f 447//442 444//439 699//608 
f 444//439 390//389 699//608 
f 390//389 447//442 699//608 
f 444//439 441//436 700//608 
f 441//436 390//389 700//608 
f 390//389 444//439 700//608 
f 441//436 438//433 701//608 
f 438//433 390//389 701//608 
f 390//389 441//436 701//608 
f 4//4 8//8 702//609 
f 8//8 422//417 702//609 
f 422//417 4//4 702//609 
f 425//420 428//423 703//609 
f 428//423 5//5 703//609 
f 5//5 425//420 703//609 
f 428//423 431//426 704//609 
f 431//426 5//5 704//609 
f 5//5 428//423 704//609 
f 431//426 434//429 705//609 
f 434//429 5//5 705//609 
f 5//5 431//426 705//609 
f 434//429 437//432 706//609 
f 437//432 5//5 706//609 
f 5//5 434//429 706//609 
f 437//432 440//435 707//609 
f 440//435 5//5 707//609 
f 5//5 437//432 707//609 
f 440//435 443//438 708//609 
f 443//438 392//391 708//609 
f 392//391 395//86 708//609 
f 395//86 5//5 708//609 
f 5//5 440//435 708//609 
f 443//438 446//441 709//609 
f 446//441 392//391 709//609 
f 392//391 443//438 709//609 
f 446//441 449//444 710//609 
f 449//444 392//391 710//609 
f 392//391 446//441 710//609 
f 449//444 452//447 711//609 
f 452//447 389//388 711//609 
f 389//388 392//391 711//609 
f 392//391 449//444 711//609 
f 452//447 455//450 712//609 
f 455//450 386//385 712//609 
f 386//385 389//388 712//609 
f 389//388 452//447 712//609 
f 455//450 458//453 713//609 
f 458//453 383//382 713//609 
f 383//382 386//385 713//609 
f 386//385 455//450 713//609 
f 458//453 461//456 714//609 
f 461//456 380//379 714//609 
f 380//379 383//382 714//609 
f 383//382 458//453 714//609 
f 461//456 464//459 715//609 
f 464//459 377//376 715//609 
f 377//376 380//379 715//609 
f 380//379 461//456 715//609 
f 464//459 467//462 716//609 
f 467//462 374//373 716//609 
f 374//373 377//376 716//609 
f 377//376 464//459 716//609 
f 467//462 470//465 717//609 
f 470//465 371//370 717//609 
f 371//370 374//373 717//609 
f 374//373 467//462 717//609 
f 470//465 473//468 718//609 
f 473//468 368//367 718//609 
f 368//367 371//370 718//609 
f 371//370 470//465 718//609 
f 473//468 476//471 719//609 
f 476//471 365//364 719//609 
f 365//364 368//367 719//609 
f 368//367 473//468 719//609 
f 476//471 479//474 720//609 
f 479//474 359//358 720//609 
f 359//358 362//361 720//609 
f 362//361 365//364 720//609 
f 365//364 476//471 720//609 
f 479//474 482//477 721//609 
f 482//477 353//352 721//609 
f 353//352 356//355 721//609 
f 356//355 359//358 721//609 
f 359//358 479//474 721//609 
f 482//477 485//480 722//609 
f 485//480 347//346 722//609 
f 347//346 350//349 722//609 
f 350//349 353//352 722//609 
f 353//352 482//477 722//609 
f 485//480 488//483 723//609 
f 488//483 338//337 723//609 
f 338//337 341//340 723//609 
f 341//340 344//343 723//609 
f 344//343 347//346 723//609 
f 347//346 485//480 723//609 
f 488//483 491//486 724//609 
f 491//486 332//331 724//609 
f 332//331 335//334 724//609 
f 335//334 338//337 724//609 
f 338//337 488//483 724//609 
f 491//486 494//489 725//609 
f 494//489 326//325 725//609 
f 326//325 329//328 725//609 
f 329//328 332//331 725//609 
f 332//331 491//486 725//609 
f 494//489 497//492 726//609 
f 497//492 320//319 726//609 
f 320//319 323//322 726//609 
f 323//322 326//325 726//609 
f 326//325 494//489 726//609 
f 497//492 500//495 727//609 
f 500//495 314//313 727//609 
f 314//313 317//316 727//609 
f 317//316 320//319 727//609 
f 320//319 497//492 727//609 
f 500//495 503//498 728//609 
f 503//498 311//310 728//609 
f 311//310 314//313 728//609 
f 314//313 500//495 728//609 
f 503//498 401//396 729//609 
f 401//396 308//307 729//609 
f 308//307 311//310 729//609 
f 311//310 503//498 729//609 
f 401//396 400//395 730//609 
f 400//395 308//307 730//609 
f 308//307 401//396 730//609 
f 400//395 404//399 731//609 
f 404//399 305//304 731//609 
f 305//304 308//307 731//609 
f 308//307 400//395 731//609 
f 404//399 407//402 732//609 
f 407//402 302//301 732//609 
f 302//301 305//304 732//609 
f 305//304 404//399 732//609 
f 407//402 410//405 733//609 
f 410//405 299//298 733//609 
f 299//298 302//301 733//609 
f 302//301 407//402 733//609 
f 410//405 413//408 734//609 
f 413//408 296//295 734//609 
f 296//295 299//298 734//609 
f 299//298 410//405 734//609 
f 413//408 416//411 735//609 
f 416//411 293//292 735//609 
f 293//292 296//295 735//609 
f 296//295 413//408 735//609 
f 416//411 419//414 736//609 
f 419//414 290//289 736//609 
f 290//289 293//292 736//609 
f 293//292 416//411 736//609 
f 419//414 422//417 737//609 
f 422//417 738//609 281//281 737//609 
f 281//281 284//283 737//609 
f 284//283 287//286 737//609 
f 287//286 290//289 737//609 
f 290//289 419//414 737//609 
f 8//8 11//11 739//609 
f 11//11 422//417 739//609 
f 422//417 8//8 739//609 
f 11//11 14//14 740//609 
f 14//14 422//417 740//609 
f 422//417 11//11 740//609 
f 14//14 17//17 741//609 
f 17//17 281//281 741//609 
f 281//281 14//14 741//609 
f 17//17 20//20 742//609 
f 20//20 281//281 742//609 
f 281//281 17//17 742//609 
f 422//417 14//14 738//609 
f 14//14 281//281 738//609 
f 20//20 23//23 743//609 
f 23//23 281//281 743//609 
f 281//281 20//20 743//609 
f 23//23 26//26 744//609 
f 26//26 278//278 744//609 
f 278//278 281//281 744//609 
f 281//281 23//23 744//609 
f 26//26 29//29 745//609 
f 29//29 278//278 745//609 
f 278//278 26//26 745//609 
f 29//29 32//32 746//609 
f 32//32 584//579 746//609 
f 254//254 29//29 746//609 
f 32//32 35//35 747//609 
f 35//35 584//579 747//609 
f 584//579 32//32 747//609 
f 254//254 257//257 748//609 
f 257//257 260//260 748//609 
f 260//260 263//263 748//609 
f 263//263 266//266 748//609 
f 266//266 269//269 748//609 
f 269//269 272//272 748//609 
f 272//272 275//275 748//609 
f 275//275 278//278 748//609 
f 278//278 29//29 748//609 
f 29//29 254//254 748//609 
f 35//35 38//38 749//609 
f 38//38 581//576 749//609 
f 581//576 584//579 749//609 
f 584//579 35//35 749//609 
f 38//38 41//41 750//609 
f 41//41 578//573 750//609 
f 578//573 581//576 750//609 
f 581//576 38//38 750//609 
f 41//41 44//44 751//609 
f 44//44 578//573 751//609 
f 578//573 41//41 751//609 
f 44//44 47//47 752//609 
f 47//47 575//570 752//609 
f 575//570 578//573 752//609 
f 578//573 44//44 752//609 
f 47//47 50//50 753//609 
f 50//50 572//567 753//609 
f 572//567 575//570 753//609 
f 575//570 47//47 753//609 
f 50//50 53//53 754//609 
f 53//53 569//564 754//609 
f 569//564 572//567 754//609 
f 572//567 50//50 754//609 
f 53//53 56//56 755//609 
f 56//56 566//561 755//609 
f 566//561 569//564 755//609 
f 569//564 53//53 755//609 
f 56//56 59//59 756//609 
f 59//59 560//555 756//609 
f 560//555 563//558 756//609 
f 563//558 56//56 756//609 
f 62//62 554//549 757//609 
f 554//549 557//552 757//609 
f 557//552 62//62 757//609 
f 563//558 566//561 758//609 
f 566//561 56//56 758//609 
f 56//56 563//558 758//609 
f 119//119 545//540 759//609 
f 545//540 548//543 759//609 
f 548//543 119//119 759//609 
f 557//552 560//555 760//609 
f 560//555 59//59 760//609 
f 59//59 62//62 760//609 
f 62//62 557//552 760//609 
f 65//65 68//68 761//609 
f 68//68 119//119 761//609 
f 119//119 65//65 761//609 
f 221//221 224//224 762//609 
f 224//224 227//227 762//609 
f 227//227 230//230 762//609 
f 230//230 233//233 762//609 
f 233//233 236//236 762//609 
f 236//236 239//239 762//609 
f 239//239 242//242 762//609 
f 242//242 245//245 762//609 
f 245//245 248//248 762//609 
f 248//248 251//251 762//609 
f 251//251 254//254 762//609 
f 254//254 746//609 584//579 762//609 
f 584//579 587//582 762//609 
f 587//582 221//221 762//609 
f 548//543 551//546 763//609 
f 551//546 119//119 763//609 
f 119//119 548//543 763//609 
f 551//546 554//549 764//609 
f 554//549 62//62 764//609 
f 62//62 65//65 764//609 
f 65//65 119//119 764//609 
f 119//119 551//546 764//609 
f 587//582 590//585 765//609 
f 590//585 215//215 765//609 
f 215//215 218//218 765//609 
f 218//218 221//221 765//609 
f 221//221 587//582 765//609 
f 590//585 593//588 766//609 
f 593//588 209//209 766//609 
f 209//209 212//212 766//609 
f 212//212 215//215 766//609 
f 215//215 590//585 766//609 
f 593//588 596//591 767//609 
f 596//591 203//203 767//609 
f 203//203 206//206 767//609 
f 206//206 209//209 767//609 
f 209//209 593//588 767//609 
f 596//591 599//594 768//609 
f 599//594 197//197 768//609 
f 197//197 200//200 768//609 
f 200//200 203//203 768//609 
f 203//203 596//591 768//609 
f 599//594 602//597 769//609 
f 602//597 188//188 769//609 
f 188//188 191//191 769//609 
f 191//191 194//194 769//609 
f 194//194 197//197 769//609 
f 197//197 599//594 769//609 
f 602//597 605//600 770//609 
f 605//600 182//182 770//609 
f 182//182 185//185 770//609 
f 185//185 188//188 770//609 
f 188//188 602//597 770//609 
f 605//600 608//603 771//609 
f 608//603 179//179 771//609 
f 179//179 182//182 771//609 
f 182//182 605//600 771//609 
f 608//603 611//606 772//609 
f 611//606 173//173 772//609 
f 173//173 176//176 772//609 
f 176//176 179//179 772//609 
f 179//179 608//603 772//609 
f 611//606 509//504 773//609 
f 509//504 170//170 773//609 
f 170//170 173//173 773//609 
f 173//173 611//606 773//609 
f 509//504 508//503 774//609 
f 508//503 167//167 774//609 
f 167//167 170//170 774//609 
f 170//170 509//504 774//609 
f 508//503 512//507 775//609 
f 512//507 167//167 775//609 
f 167//167 508//503 775//609 
f 512//507 515//510 776//609 
f 515//510 161//161 776//609 
f 161//161 164//164 776//609 
f 164//164 167//167 776//609 
f 167//167 512//507 776//609 
f 515//510 518//513 777//609 
f 518//513 158//158 777//609 
f 158//158 161//161 777//609 
f 161//161 515//510 777//609 
f 518//513 521//516 778//609 
f 521//516 155//155 778//609 
f 155//155 158//158 778//609 
f 158//158 518//513 778//609 
f 521//516 524//519 779//609 
f 524//519 149//149 779//609 
f 149//149 152//152 779//609 
f 152//152 155//155 779//609 
f 155//155 521//516 779//609 
f 524//519 527//522 780//609 
f 527//522 149//149 780//609 
f 149//149 524//519 780//609 
f 527//522 530//525 781//609 
f 530//525 146//146 781//609 
f 146//146 149//149 781//609 
f 149//149 527//522 781//609 
f 530//525 533//528 782//609 
f 533//528 140//140 782//609 
f 140//140 143//143 782//609 
f 143//143 146//146 782//609 
f 146//146 530//525 782//609 
f 533//528 536//531 783//609 
f 536//531 137//137 783//609 
f 137//137 140//140 783//609 
f 140//140 533//528 783//609 
f 536//531 539//534 784//609 
f 539//534 131//131 784//609 
f 131//131 134//134 784//609 
f 134//134 137//137 784//609 
f 137//137 536//531 784//609 
f 539//534 542//537 785//609 
f 542//537 128//128 785//609 
f 128//128 131//131 785//609 
f 131//131 539//534 785//609 
f 542//537 545//540 786//609 
f 545//540 119//119 786//609 
f 119//119 122//122 786//609 
f 122//122 125//125 786//609 
f 125//125 128//128 786//609 
f 128//128 542//537 786//609 
f 68//68 71//71 787//609 
f 71//71 116//116 787//609 
f 116//116 119//119 787//609 
f 119//119 68//68 787//609 
f 71//71 74//74 788//609 
f 74//74 107//107 788//609 
f 107//107 110//110 788//609 
f 110//110 113//113 788//609 
f 113//113 116//116 788//609 
f 116//116 71//71 788//609 
f 74//74 77//77 789//609 
f 77//77 101//101 789//609 
f 101//101 104//104 789//609 
f 104//104 107//107 789//609 
f 107//107 74//74 789//609 
f 77//77 80//80 790//609 
f 80//80 95//95 790//609 
f 95//95 98//98 790//609 
f 98//98 101//101 790//609 
f 101//101 77//77 790//609 
f 80//80 83//83 791//609 
f 83//83 92//92 791//609 
f 92//92 95//95 791//609 
f 95//95 80//80 791//609 
f 83//83 86//86 792//609 
f 86//86 89//89 792//609 
f 89//89 92//92 792//609 
f 92//92 83//83 792//609 
# 4 polygons - 1580 triangles

