# 3ds Max Wavefront OBJ Exporter v0.97b - (c)2007 guruware
# File Created: 10.09.2021 11:11:38

#
# object Lo_Chula
#

v  1573.2039 0.0000 2.5430
v  1572.2942 0.0000 1.7305
v  1572.7490 5.0000 2.1368
v  1572.2942 10.0000 1.7305
v  1573.2039 10.0000 2.5430
v  1571.2800 0.0000 1.0264
v  1571.7871 5.0000 1.3785
v  1571.2800 10.0000 1.0264
v  1570.1613 0.0000 0.4306
v  1570.7206 5.0000 0.7285
v  1570.1613 10.0000 0.4306
v  1568.9381 0.0000 -0.0568
v  1569.5497 5.0000 0.1869
v  1568.9381 10.0000 -0.0568
v  1567.6106 0.0000 -0.4360
v  1568.2744 5.0000 -0.2464
v  1567.6106 10.0000 -0.4360
v  1566.1785 0.0000 -0.7068
v  1566.8945 5.0000 -0.5714
v  1566.1785 10.0000 -0.7068
v  1564.6418 0.0000 -0.8693
v  1565.4102 5.0000 -0.7880
v  1564.6418 10.0000 -0.8693
v  1563.0009 0.0000 -0.9234
v  1563.8214 5.0000 -0.8964
v  1563.0009 10.0000 -0.9234
v  1560.5253 0.0000 -0.8151
v  1561.7631 5.0000 -0.8693
v  1560.5253 10.0000 -0.8151
v  1558.3408 0.0000 -0.4903
v  1559.4330 5.0000 -0.6527
v  1558.3408 10.0000 -0.4903
v  1556.4478 0.0000 0.0512
v  1557.3943 5.0000 -0.2195
v  1556.4478 10.0000 0.0512
v  1554.8458 0.0000 0.8093
v  1555.6467 5.0000 0.4302
v  1554.8458 10.0000 0.8093
v  1553.5352 0.0000 1.7839
v  1554.1906 5.0000 1.2966
v  1553.5352 10.0000 1.7839
v  1552.5159 0.0000 2.9752
v  1553.0255 5.0000 2.3796
v  1552.5159 10.0000 2.9752
v  1551.7877 0.0000 4.3830
v  1552.1517 5.0000 3.6791
v  1551.7877 10.0000 4.3830
v  1551.3508 0.0000 6.0074
v  1551.5692 5.0000 5.1952
v  1551.3508 10.0000 6.0074
v  1551.2052 0.0000 7.8485
v  1551.2781 5.0000 6.9279
v  1551.2052 10.0000 7.8485
v  1551.3425 0.0000 9.4878
v  1551.2738 5.0000 8.6681
v  1551.3425 10.0000 9.4878
v  1551.7544 0.0000 10.9343
v  1551.5485 5.0000 10.2110
v  1551.7544 10.0000 10.9343
v  1552.4409 0.0000 12.1879
v  1552.0977 5.0000 11.5611
v  1552.4409 10.0000 12.1879
v  1553.4021 0.0000 13.2486
v  1552.9215 5.0000 12.7182
v  1553.4021 10.0000 13.2486
v  1554.6377 0.0000 14.1165
v  1554.0199 5.0000 13.6825
v  1554.6377 10.0000 14.1165
v  1556.1481 0.0000 14.7915
v  1555.3929 5.0000 14.4540
v  1556.1481 10.0000 14.7915
v  1557.9330 0.0000 15.2737
v  1557.0405 5.0000 15.0326
v  1557.9330 10.0000 15.2737
v  1559.9926 0.0000 15.5630
v  1558.9628 5.0000 15.4183
v  1559.9926 10.0000 15.5630
v  1562.3267 0.0000 15.6594
v  1561.1595 5.0000 15.6112
v  1562.3267 10.0000 15.6594
v  1568.4320 0.0000 15.4179
v  1565.3794 5.0000 15.5386
v  1568.4320 10.0000 15.4179
v  1568.4320 0.0000 38.3400
v  1568.4320 5.0000 26.8790
v  1568.4320 10.0000 38.3400
v  1559.8463 0.0000 21.9383
v  1564.1392 5.0000 30.1392
v  1559.8463 10.0000 21.9383
v  1553.7183 0.0000 21.9383
v  1556.7822 5.0000 21.9383
v  1553.7183 10.0000 21.9383
v  1546.0532 0.0000 38.3400
v  1549.8857 5.0000 30.1392
v  1546.0532 10.0000 38.3400
v  1546.0532 0.0000 15.5512
v  1546.0532 5.0000 26.9456
v  1546.0532 10.0000 15.5512
v  1545.9211 0.0000 13.2424
v  1545.9872 5.0000 14.3968
v  1545.9211 10.0000 13.2424
v  1545.5247 0.0000 11.2053
v  1545.7229 5.0000 12.2238
v  1545.5247 10.0000 11.2053
v  1544.8639 0.0000 9.4397
v  1545.1943 5.0000 10.3225
v  1544.8639 10.0000 9.4397
v  1543.9390 0.0000 7.9458
v  1544.4014 5.0000 8.6927
v  1543.9390 10.0000 7.9458
v  1542.7496 0.0000 6.7235
v  1543.3442 5.0000 7.3346
v  1542.7496 10.0000 6.7235
v  1541.2960 0.0000 5.7728
v  1542.0228 5.0000 6.2481
v  1541.2960 10.0000 5.7728
v  1539.5781 0.0000 5.0937
v  1540.4370 5.0000 5.4333
v  1539.5781 10.0000 5.0937
v  1537.5958 0.0000 4.6863
v  1538.5869 5.0000 4.8900
v  1537.5958 10.0000 4.6863
v  1535.3494 0.0000 4.5505
v  1536.4727 5.0000 4.6184
v  1535.3494 10.0000 4.5505
v  1534.4473 0.0000 4.5806
v  1534.8983 5.0000 4.5655
v  1534.4473 10.0000 4.5806
v  1533.5844 0.0000 4.6707
v  1534.0157 5.0000 4.6256
v  1533.5844 10.0000 4.6707
v  1532.7609 0.0000 4.8209
v  1533.1726 5.0000 4.7458
v  1532.7609 10.0000 4.8209
v  1531.9766 0.0000 5.0313
v  1532.3688 5.0000 4.9261
v  1531.9766 10.0000 5.0313
v  1531.2317 0.0000 5.3017
v  1531.6041 5.0000 5.1665
v  1531.2317 10.0000 5.3017
v  1530.5261 0.0000 5.6322
v  1530.8789 5.0000 5.4669
v  1530.5261 10.0000 5.6322
v  1529.8599 0.0000 6.0228
v  1530.1930 5.0000 5.8275
v  1529.8599 10.0000 6.0228
v  1529.2329 0.0000 6.4735
v  1529.5464 5.0000 6.2482
v  1529.2329 10.0000 6.4735
v  1528.6453 0.0000 6.9843
v  1528.9391 5.0000 6.7289
v  1528.6453 10.0000 6.9843
v  1528.1089 0.0000 7.5456
v  1528.3771 5.0000 7.2650
v  1528.1089 10.0000 7.5456
v  1527.6356 0.0000 8.1477
v  1527.8722 5.0000 7.8467
v  1527.6356 10.0000 8.1477
v  1527.2253 0.0000 8.7907
v  1527.4305 5.0000 8.4692
v  1527.2253 10.0000 8.7907
v  1526.8783 0.0000 9.4745
v  1527.0519 5.0000 9.1326
v  1526.8783 10.0000 9.4745
v  1526.5944 0.0000 10.1991
v  1526.7363 5.0000 9.8368
v  1526.5944 10.0000 10.1991
v  1526.3734 0.0000 10.9646
v  1526.4839 5.0000 10.5818
v  1526.3734 10.0000 10.9646
v  1526.2157 0.0000 11.7709
v  1526.2946 5.0000 11.3677
v  1526.2157 10.0000 11.7709
v  1526.1210 0.0000 12.6180
v  1526.1683 5.0000 12.1945
v  1526.1210 10.0000 12.6180
v  1526.0895 0.0000 13.5060
v  1526.1052 5.0000 13.0620
v  1526.0895 10.0000 13.5060
v  1526.2147 0.0000 15.3096
v  1526.1521 5.0000 14.4078
v  1526.2147 10.0000 15.3096
v  1526.5903 0.0000 16.9009
v  1526.4025 5.0000 16.1052
v  1526.5903 10.0000 16.9009
v  1527.2164 0.0000 18.2801
v  1526.9034 5.0000 17.5905
v  1527.2164 10.0000 18.2801
v  1528.0930 0.0000 19.4471
v  1527.6547 5.0000 18.8636
v  1528.0930 10.0000 19.4471
v  1529.2200 0.0000 20.4019
v  1528.6565 5.0000 19.9245
v  1529.2200 10.0000 20.4019
v  1530.5974 0.0000 21.1445
v  1529.9087 5.0000 20.7732
v  1530.5974 10.0000 21.1445
v  1532.2253 0.0000 21.6750
v  1531.4114 5.0000 21.4097
v  1532.2253 10.0000 21.6750
v  1534.1036 0.0000 21.9932
v  1533.1644 5.0000 21.8341
v  1534.1036 10.0000 21.9932
v  1536.2323 0.0000 22.0993
v  1535.1680 5.0000 22.0463
v  1536.2323 10.0000 22.0993
v  1536.2323 0.0000 54.1380
v  1536.2323 5.0000 38.1187
v  1536.2323 10.0000 54.1380
v  1546.3828 0.0000 54.1380
v  1541.3076 5.0000 54.1380
v  1546.3828 10.0000 54.1380
v  1556.9207 0.0000 31.5856
v  1551.6517 5.0000 42.8618
v  1556.9207 10.0000 31.5856
v  1568.5427 0.0000 54.1380
v  1562.7317 5.0000 42.8618
v  1568.5427 10.0000 54.1380
v  1578.2529 0.0000 54.1380
v  1573.3978 5.0000 54.1380
v  1578.2529 10.0000 54.1380
v  1578.2529 0.0000 10.6282
v  1578.2529 5.0000 32.3831
v  1578.2529 10.0000 10.6282
v  1578.8535 0.0000 10.1389
v  1578.5532 5.0000 10.3836
v  1578.8535 10.0000 10.1389
v  1579.4512 0.0000 9.6059
v  1579.1523 5.0000 9.8724
v  1579.4512 10.0000 9.6059
v  1580.0459 0.0000 9.0290
v  1579.7485 5.0000 9.3174
v  1580.0459 10.0000 9.0290
v  1580.6376 0.0000 8.4082
v  1580.3417 5.0000 8.7186
v  1580.6376 10.0000 8.4082
v  1581.2264 0.0000 7.7437
v  1580.9320 5.0000 8.0760
v  1581.2264 10.0000 7.7437
v  1581.8123 0.0000 7.0354
v  1581.5193 5.0000 7.3895
v  1581.8123 10.0000 7.0354
v  1582.3951 0.0000 6.2832
v  1582.1036 5.0000 6.6593
v  1582.3951 10.0000 6.2832
v  1582.9751 0.0000 5.4872
v  1582.6851 5.0000 5.8852
v  1582.9751 10.0000 5.4872
v  1583.5520 0.0000 4.6474
v  1583.2635 5.0000 5.0673
v  1583.5520 10.0000 4.6474
v  1584.0956 0.0000 3.8186
v  1583.8239 5.0000 4.2330
v  1584.0956 10.0000 3.8186
v  1584.5752 0.0000 3.0560
v  1584.3353 5.0000 3.4373
v  1584.5752 10.0000 3.0560
v  1584.9908 0.0000 2.3594
v  1584.7830 5.0000 2.7077
v  1584.9908 10.0000 2.3594
v  1585.3425 0.0000 1.7289
v  1585.1666 5.0000 2.0441
v  1585.3425 10.0000 1.7289
v  1585.6302 0.0000 1.1644
v  1585.4865 5.0000 1.4466
v  1585.6302 10.0000 1.1644
v  1585.8541 0.0000 0.6660
v  1585.7422 5.0000 0.9152
v  1585.8541 10.0000 0.6660
v  1586.0139 0.0000 0.2336
v  1585.9341 5.0000 0.4498
v  1586.0139 10.0000 0.2336
v  1586.1099 0.0000 -0.1327
v  1586.0619 5.0000 0.0505
v  1586.1099 10.0000 -0.1327
v  1586.1418 0.0000 -0.4329
v  1586.1259 5.0000 -0.2828
v  1586.1418 10.0000 -0.4329
v  1577.8127 0.0000 -3.0164
v  1581.9773 5.0000 -1.7247
v  1577.8127 10.0000 -3.0164
v  1577.6703 0.0000 -2.1757
v  1577.7416 5.0000 -2.5960
v  1577.6703 10.0000 -2.1757
v  1577.4579 0.0000 -1.3651
v  1577.5641 5.0000 -1.7704
v  1577.4579 10.0000 -1.3651
v  1577.1754 0.0000 -0.5847
v  1577.3167 5.0000 -0.9749
v  1577.1754 10.0000 -0.5847
v  1576.8229 0.0000 0.1655
v  1576.9991 5.0000 -0.2096
v  1576.8229 10.0000 0.1655
v  1576.4003 0.0000 0.8856
v  1576.6116 5.0000 0.5255
v  1576.4003 10.0000 0.8856
v  1575.9076 0.0000 1.5754
v  1576.1539 5.0000 1.2305
v  1575.9076 10.0000 1.5754
v  1575.3448 0.0000 2.2350
v  1575.6262 5.0000 1.9052
v  1575.3448 10.0000 2.2350
v  1574.7120 0.0000 2.8645
v  1575.0284 5.0000 2.5498
v  1574.7120 10.0000 2.8645
v  1574.0092 0.0000 3.4638
v  1574.3606 5.0000 3.1641
v  1574.0092 10.0000 3.4638
v  1573.6064 5.0000 3.0034
v  1564.1467 0.0000 4.1099
v  1565.1511 0.0000 4.2369
v  1564.6489 5.0000 4.1734
v  1565.1511 10.0000 4.2369
v  1564.1467 10.0000 4.1099
v  1566.0215 0.0000 4.4488
v  1565.5863 5.0000 4.3429
v  1566.0215 10.0000 4.4488
v  1566.7581 0.0000 4.7453
v  1566.3898 5.0000 4.5970
v  1566.7581 10.0000 4.7453
v  1567.3607 0.0000 5.1265
v  1567.0593 5.0000 4.9359
v  1567.3607 10.0000 5.1265
v  1567.8293 0.0000 5.5925
v  1567.5951 5.0000 5.3595
v  1567.8293 10.0000 5.5925
v  1568.1642 0.0000 6.1432
v  1567.9968 5.0000 5.8679
v  1568.1642 10.0000 6.1432
v  1568.3651 0.0000 6.7786
v  1568.2646 5.0000 6.4609
v  1568.3651 10.0000 6.7786
v  1568.4320 0.0000 7.4988
v  1568.3986 5.0000 7.1387
v  1568.4320 10.0000 7.4988
v  1568.3651 0.0000 8.2316
v  1568.3986 5.0000 7.8652
v  1568.3651 10.0000 8.2316
v  1568.1642 0.0000 8.8782
v  1568.2646 5.0000 8.5549
v  1568.1642 10.0000 8.8782
v  1567.8293 0.0000 9.4386
v  1567.9968 5.0000 9.1584
v  1567.8293 10.0000 9.4386
v  1567.3607 0.0000 9.9128
v  1567.5951 5.0000 9.6757
v  1567.3607 10.0000 9.9128
v  1566.7581 0.0000 10.3007
v  1567.0593 5.0000 10.1067
v  1566.7581 10.0000 10.3007
v  1566.0215 0.0000 10.6025
v  1566.3898 5.0000 10.4516
v  1566.0215 10.0000 10.6025
v  1565.1511 0.0000 10.8180
v  1565.5863 5.0000 10.7102
v  1565.1511 10.0000 10.8180
v  1564.1467 0.0000 10.9473
v  1564.6489 5.0000 10.8827
v  1564.1467 10.0000 10.9473
v  1563.0084 0.0000 10.9904
v  1563.5775 5.0000 10.9689
v  1563.0084 10.0000 10.9904
v  1561.7814 0.0000 10.9473
v  1562.3949 5.0000 10.9689
v  1561.7814 10.0000 10.9473
v  1560.6987 0.0000 10.8180
v  1561.2401 5.0000 10.8827
v  1560.6987 10.0000 10.8180
v  1559.7605 0.0000 10.6025
v  1560.2296 5.0000 10.7102
v  1559.7605 10.0000 10.6025
v  1558.9666 0.0000 10.3007
v  1559.3635 5.0000 10.4516
v  1558.9666 10.0000 10.3007
v  1558.3169 0.0000 9.9128
v  1558.6417 5.0000 10.1067
v  1558.3169 10.0000 9.9128
v  1557.8118 0.0000 9.4386
v  1558.0643 5.0000 9.6757
v  1557.8118 10.0000 9.4386
v  1557.4508 0.0000 8.8782
v  1557.6313 5.0000 9.1584
v  1557.4508 10.0000 8.8782
v  1557.2344 0.0000 8.2316
v  1557.3425 5.0000 8.5549
v  1557.2344 10.0000 8.2316
v  1557.1621 0.0000 7.4988
v  1557.1982 5.0000 7.8652
v  1557.1621 10.0000 7.4988
v  1557.2344 0.0000 6.7786
v  1557.1982 5.0000 7.1387
v  1557.2344 10.0000 6.7786
v  1557.4508 0.0000 6.1432
v  1557.3425 5.0000 6.4609
v  1557.4508 10.0000 6.1432
v  1557.8118 0.0000 5.5925
v  1557.6313 5.0000 5.8679
v  1557.8118 10.0000 5.5925
v  1558.3170 0.0000 5.1265
v  1558.0643 5.0000 5.3595
v  1558.3170 10.0000 5.1265
v  1558.9666 0.0000 4.7453
v  1558.6417 5.0000 4.9359
v  1558.9666 10.0000 4.7453
v  1559.7605 0.0000 4.4488
v  1559.3635 5.0000 4.5970
v  1559.7605 10.0000 4.4488
v  1560.6987 0.0000 4.2370
v  1560.2296 5.0000 4.3429
v  1560.6987 10.0000 4.2370
v  1561.7814 0.0000 4.1099
v  1561.2401 5.0000 4.1734
v  1561.7814 10.0000 4.1099
v  1563.0084 0.0000 4.0675
v  1562.3949 5.0000 4.0887
v  1563.0084 10.0000 4.0675
v  1563.5775 5.0000 4.0887
v  1536.2622 0.0000 9.4288
v  1536.9722 0.0000 9.5737
v  1536.6172 5.0000 9.5013
v  1536.9722 10.0000 9.5737
v  1536.2622 10.0000 9.4288
v  1537.5874 0.0000 9.8154
v  1537.2798 5.0000 9.6946
v  1537.5874 10.0000 9.8154
v  1538.1080 0.0000 10.1536
v  1537.8478 5.0000 9.9845
v  1538.1080 10.0000 10.1536
v  1538.5341 0.0000 10.5886
v  1538.3210 5.0000 10.3711
v  1538.5341 10.0000 10.5886
v  1538.8654 0.0000 11.1201
v  1538.6997 5.0000 10.8543
v  1538.8654 10.0000 11.1201
v  1539.1021 0.0000 11.7483
v  1538.9836 5.0000 11.4342
v  1539.1021 10.0000 11.7483
v  1539.2440 0.0000 12.4732
v  1539.1730 5.0000 12.1108
v  1539.2440 10.0000 12.4732
v  1539.2913 0.0000 13.2947
v  1539.2677 5.0000 12.8840
v  1539.2913 10.0000 13.2947
v  1539.2440 0.0000 14.1289
v  1539.2677 5.0000 13.7118
v  1539.2440 10.0000 14.1289
v  1539.1021 0.0000 14.8650
v  1539.1730 5.0000 14.4969
v  1539.1021 10.0000 14.8650
v  1538.8654 0.0000 15.5029
v  1538.9836 5.0000 15.1839
v  1538.8654 10.0000 15.5029
v  1538.5341 0.0000 16.0426
v  1538.6997 5.0000 15.7727
v  1538.5341 10.0000 16.0426
v  1538.1080 0.0000 16.4843
v  1538.3210 5.0000 16.2634
v  1538.1080 10.0000 16.4843
v  1537.5874 0.0000 16.8277
v  1537.8478 5.0000 16.6560
v  1537.5874 10.0000 16.8277
v  1536.9722 0.0000 17.0731
v  1537.2798 5.0000 16.9504
v  1536.9722 10.0000 17.0731
v  1536.2622 0.0000 17.2203
v  1536.6172 5.0000 17.1467
v  1536.2622 10.0000 17.2203
v  1535.4575 0.0000 17.2694
v  1535.8599 5.0000 17.2448
v  1535.4575 10.0000 17.2694
v  1534.6403 0.0000 17.2203
v  1535.0490 5.0000 17.2448
v  1534.6403 10.0000 17.2203
v  1533.9191 0.0000 17.0731
v  1534.2797 5.0000 17.1467
v  1533.9191 10.0000 17.0731
v  1533.2942 0.0000 16.8277
v  1533.6067 5.0000 16.9504
v  1533.2942 10.0000 16.8277
v  1532.7653 0.0000 16.4843
v  1533.0297 5.0000 16.6560
v  1532.7653 10.0000 16.4843
v  1532.3326 0.0000 16.0426
v  1532.5490 5.0000 16.2634
v  1532.3326 10.0000 16.0426
v  1531.9961 0.0000 15.5029
v  1532.1643 5.0000 15.7727
v  1531.9961 10.0000 15.5029
v  1531.7557 0.0000 14.8650
v  1531.8759 5.0000 15.1839
v  1531.7557 10.0000 14.8650
v  1531.6115 0.0000 14.1289
v  1531.6836 5.0000 14.4969
v  1531.6115 10.0000 14.1289
v  1531.5634 0.0000 13.2947
v  1531.5874 5.0000 13.7118
v  1531.5634 10.0000 13.2947
v  1531.6115 0.0000 12.4732
v  1531.5874 5.0000 12.8840
v  1531.6115 10.0000 12.4732
v  1531.7557 0.0000 11.7483
v  1531.6836 5.0000 12.1108
v  1531.7557 10.0000 11.7483
v  1531.9961 0.0000 11.1201
v  1531.8759 5.0000 11.4342
v  1531.9961 10.0000 11.1201
v  1532.3326 0.0000 10.5886
v  1532.1643 5.0000 10.8543
v  1532.3326 10.0000 10.5886
v  1532.7653 0.0000 10.1536
v  1532.5490 5.0000 10.3711
v  1532.7653 10.0000 10.1536
v  1533.2942 0.0000 9.8154
v  1533.0297 5.0000 9.9845
v  1533.2942 10.0000 9.8154
v  1533.9191 0.0000 9.5737
v  1533.6067 5.0000 9.6946
v  1533.9191 10.0000 9.5737
v  1534.6403 0.0000 9.4288
v  1534.2797 5.0000 9.5013
v  1534.6403 10.0000 9.4288
v  1535.4575 0.0000 9.3805
v  1535.0490 5.0000 9.4046
v  1535.4575 10.0000 9.3805
v  1535.8599 5.0000 9.4046
v  1538.5013 0.0000 23.7323
v  1539.7625 0.0000 24.2111
v  1535.9840 10.0000 18.8630
v  1542.4952 0.0000 12.5539
v  1540.2042 0.0000 24.0803
v  1540.5829 0.0000 23.8840
v  1540.8984 0.0000 23.6223
v  1541.1509 0.0000 23.2952
v  1541.3402 0.0000 22.9026
v  1541.4664 0.0000 22.4446
v  1543.3126 0.0000 18.9115
v  1542.1836 0.0000 11.2166
v  1541.6925 0.0000 10.0635
v  1541.0220 0.0000 9.0945
v  1540.1719 0.0000 8.3096
v  1539.1423 0.0000 7.7089
v  1537.9333 0.0000 7.2923
v  1536.9434 0.0000 7.8963
v  1536.1663 0.0000 7.0115
v  1534.9736 0.0000 6.9851
v  1533.8704 0.0000 6.6149
v  1532.6365 0.0000 6.9086
v  1531.5354 0.0000 7.3851
v  1530.1575 0.0000 7.9614
v  1529.4597 0.0000 9.2385
v  1528.8899 0.0000 10.2665
v  1528.5101 0.0000 11.4312
v  1528.3202 0.0000 12.7326
v  1528.8698 0.0000 14.0598
v  1529.0431 0.0000 15.3011
v  1529.3896 0.0000 16.3872
v  1529.9095 0.0000 17.3182
v  1530.6028 0.0000 18.0940
v  1531.4692 0.0000 18.7146
v  1532.5090 0.0000 19.1801
v  1533.7220 0.0000 19.4904
v  1535.1084 0.0000 19.6456
v  1541.2252 0.0000 42.1788
v  1561.4919 0.0000 33.5881
v  1572.3826 0.0000 34.5324
v  1550.7688 0.0000 36.5005
v  1567.5170 0.0000 11.8771
v  1567.8740 0.0000 11.5898
v  1570.6697 0.0000 11.0907
v  1571.5941 0.0000 9.2460
v  1571.6833 0.0000 8.7862
v  1571.6833 0.0000 8.3019
v  1572.1979 0.0000 6.7535
v  1571.1001 0.0000 3.8946
v  1577.5541 0.0000 7.6217
v  1578.3933 0.0000 6.0561
v  1579.3372 0.0000 4.9745
v  1579.4194 0.0000 3.5578
v  1580.7692 0.0000 3.0008
v  1581.5320 0.0000 1.7630
v  1582.1194 0.0000 0.6606
v  1583.5541 0.0000 -0.2917
v  1580.5416 0.0000 -1.8750
v  1569.6910 0.0000 3.3690
v  1568.8997 0.0000 2.2544
v  1567.3320 0.0000 2.1753
v  1566.2404 0.0000 1.8857
v  1565.0295 0.0000 1.6927
v  1563.6995 0.0000 1.5962
v  1562.0790 0.0000 1.6097
v  1561.0018 0.0000 2.5106
v  1559.8313 0.0000 1.8451
v  1558.3789 0.0000 2.1887
v  1557.1443 0.0000 2.6831
v  1556.1274 0.0000 3.3281
v  1555.3284 0.0000 4.1237
v  1554.0679 0.0000 5.2575
v  1554.2382 0.0000 7.0333
v  1554.2361 0.0000 8.2667
v  1554.4456 0.0000 9.3830
v  1554.5720 0.0000 10.9375
v  1556.0634 0.0000 12.3016
v  1557.8412 0.0000 12.5697
v  1558.8867 0.0000 12.0590
v  1559.5962 0.0000 13.0643
v  1561.1998 0.0000 13.2469
v  1562.3722 0.0000 12.5324
v  1564.4784 0.0000 13.2538
v  1565.9099 0.0000 12.3944
v  1566.5349 0.0000 12.2795
v  1567.0706 0.0000 12.1070
v  1543.3126 10.0000 18.9115
v  1550.7688 10.0000 36.5005
v  1535.1084 10.0000 19.6456
v  1533.7220 10.0000 19.4904
v  1532.5090 10.0000 19.1801
v  1531.4692 10.0000 18.7146
v  1530.6027 10.0000 18.0940
v  1529.9095 10.0000 17.3182
v  1529.3896 10.0000 16.3872
v  1529.0431 10.0000 15.3011
v  1528.8698 10.0000 14.0598
v  1528.3202 10.0000 12.7326
v  1528.5101 10.0000 11.4312
v  1528.8899 10.0000 10.2665
v  1529.4597 10.0000 9.2385
v  1530.1575 10.0000 7.9614
v  1531.5354 10.0000 7.3851
v  1532.6365 10.0000 6.9086
v  1533.8704 10.0000 6.6149
v  1534.9736 10.0000 6.9851
v  1536.1663 10.0000 7.0115
v  1536.9434 10.0000 7.8963
v  1537.9333 10.0000 7.2923
v  1539.1423 10.0000 7.7089
v  1540.1719 10.0000 8.3096
v  1541.0220 10.0000 9.0945
v  1541.6925 10.0000 10.0635
v  1542.1836 10.0000 11.2166
v  1542.4952 10.0000 12.5539
v  1571.5941 10.0000 7.8500
v  1540.2325 10.0000 37.1871
v  1580.5416 10.0000 -1.8750
v  1571.6833 10.0000 8.3019
v  1571.6833 10.0000 8.7862
v  1571.5941 10.0000 9.2460
v  1570.6697 10.0000 11.0907
v  1567.8740 10.0000 11.5898
v  1567.5170 10.0000 11.8771
v  1572.3826 10.0000 34.5324
v  1561.4919 10.0000 33.5881
v  1583.5541 10.0000 -0.2917
v  1582.1194 10.0000 0.6606
v  1581.5320 10.0000 1.7630
v  1580.7692 10.0000 3.0008
v  1579.4194 10.0000 3.5578
v  1579.3372 10.0000 4.9745
v  1578.3933 10.0000 6.0561
v  1577.5541 10.0000 7.6217
v  1567.0706 10.0000 12.1070
v  1566.5349 10.0000 12.2795
v  1565.9099 10.0000 12.3944
v  1564.4784 10.0000 13.2538
v  1562.3722 10.0000 12.5324
v  1561.1998 10.0000 13.2469
v  1559.5962 10.0000 13.0643
v  1558.8867 10.0000 12.0590
v  1557.8412 10.0000 12.5697
v  1556.0634 10.0000 12.3016
v  1554.5720 10.0000 10.9375
v  1554.4456 10.0000 9.3830
v  1554.2361 10.0000 8.2667
v  1554.2382 10.0000 7.0333
v  1554.0679 10.0000 5.2575
v  1555.3284 10.0000 4.1237
v  1556.1274 10.0000 3.3281
v  1557.1443 10.0000 2.6831
v  1558.3789 10.0000 2.1887
v  1559.8313 10.0000 1.8451
v  1561.0018 10.0000 2.5106
v  1562.0790 10.0000 1.6097
v  1563.6995 10.0000 1.5962
v  1565.0295 10.0000 1.6927
v  1566.2404 10.0000 1.8857
v  1567.3320 10.0000 2.1753
v  1568.8997 10.0000 2.2544
v  1569.6910 10.0000 3.3690
v  1572.2922 10.0000 5.0169
v  1541.4664 10.0000 22.4446
v  1541.3402 10.0000 22.9026
v  1541.1509 10.0000 23.2952
v  1540.8984 10.0000 23.6223
v  1540.5829 10.0000 23.8840
v  1540.2042 10.0000 24.0803
v  1539.7625 10.0000 24.2111
# 695 vertices

vn 0.5121 -0.6935 -0.5068
vn 0.4461 -0.6936 -0.5655
vn 0.6661 0.0000 -0.7459
vn 0.4461 0.6936 -0.5655
vn 0.5121 0.6935 -0.5068
vn 0.3751 -0.6941 -0.6144
vn 0.5703 0.0000 -0.8214
vn 0.3751 0.6941 -0.6144
vn 0.3026 -0.6949 -0.6523
vn 0.4701 0.0000 -0.8826
vn 0.3026 0.6949 -0.6523
vn 0.2318 -0.6959 -0.6797
vn 0.3702 0.0000 -0.9289
vn 0.2318 0.6959 -0.6797
vn 0.1653 -0.6970 -0.6978
vn 0.2746 0.0000 -0.9616
vn 0.1653 0.6970 -0.6978
vn 0.1043 -0.6980 -0.7084
vn 0.1858 0.0000 -0.9826
vn 0.1043 0.6980 -0.7084
vn 0.0494 -0.6991 -0.7134
vn 0.1052 0.0000 -0.9945
vn 0.0494 0.6991 -0.7134
vn -0.0038 -0.6986 -0.7155
vn 0.0330 0.0000 -0.9995
vn -0.0038 0.6986 -0.7155
vn -0.0686 -0.6956 -0.7151
vn -0.0437 0.0000 -0.9990
vn -0.0686 0.6956 -0.7151
vn -0.1525 -0.6927 -0.7049
vn -0.1471 0.0000 -0.9891
vn -0.1525 0.6927 -0.7049
vn -0.2555 -0.6892 -0.6781
vn -0.2750 0.0000 -0.9614
vn -0.2555 0.6892 -0.6781
vn -0.3747 -0.6856 -0.6241
vn -0.4278 0.0000 -0.9039
vn -0.3747 0.6856 -0.6241
vn -0.4986 -0.6828 -0.5339
vn -0.5967 0.0000 -0.8024
vn -0.4986 0.6828 -0.5339
vn -0.6066 -0.6821 -0.4084
vn -0.7598 0.0000 -0.6502
vn -0.6066 0.6821 -0.4084
vn -0.6803 -0.6838 -0.2639
vn -0.8882 0.0000 -0.4594
vn -0.6803 0.6838 -0.2639
vn -0.7161 -0.6870 -0.1235
vn -0.9657 0.0000 -0.2597
vn -0.7161 0.6870 -0.1235
vn -0.7245 -0.6893 0.0017
vn -0.9969 0.0000 -0.0789
vn -0.7245 0.6893 0.0017
vn -0.7158 -0.6860 0.1306
vn -0.9965 0.0000 0.0835
vn -0.7158 0.6860 0.1306
vn -0.6759 -0.6828 0.2772
vn -0.9618 0.0000 0.2739
vn -0.6759 0.6828 0.2772
vn -0.5961 -0.6816 0.4243
vn -0.8771 0.0000 0.4803
vn -0.5961 0.6816 0.4243
vn -0.4835 -0.6830 0.5475
vn -0.7411 0.0000 0.6714
vn -0.4835 0.6830 0.5475
vn -0.3591 -0.6862 0.6326
vn -0.5747 0.0000 0.8183
vn -0.3591 0.6862 0.6326
vn -0.2428 -0.6899 0.6819
vn -0.4080 0.0000 0.9130
vn -0.2428 0.6899 0.6819
vn -0.1443 -0.6934 0.7060
vn -0.2608 0.0000 0.9654
vn -0.1443 0.6934 0.7060
vn -0.0648 -0.6962 0.7149
vn -0.1391 0.0000 0.9903
vn -0.0648 0.6962 0.7149
vn -0.0006 -0.6981 0.7160
vn -0.0413 0.0000 0.9991
vn -0.0006 0.6981 0.7160
vn -0.2886 -0.9091 0.3003
vn 0.0395 0.0000 0.9992
vn -0.2886 0.9091 0.3003
vn -0.0306 -0.9917 -0.1245
vn -1.0000 0.0000 -0.0000
vn -0.0306 0.9917 -0.1245
vn 0.4115 -0.6070 -0.6798
vn 0.8860 0.0000 -0.4638
vn 0.4115 0.6070 -0.6798
vn -0.4280 -0.6039 -0.6724
vn 0.0000 0.0000 -1.0000
vn -0.4280 0.6039 -0.6724
vn 0.0251 -0.9933 -0.1130
vn -0.9060 0.0000 -0.4234
vn 0.0251 0.9933 -0.1130
vn 0.7131 -0.7007 -0.0204
vn 1.0000 0.0000 -0.0000
vn 0.7131 0.7007 -0.0204
vn 0.7161 -0.6922 -0.0898
vn 0.9984 0.0000 -0.0571
vn 0.7161 0.6922 -0.0898
vn 0.6976 -0.6889 -0.1969
vn 0.9816 0.0000 -0.1910
vn 0.6976 0.6889 -0.1969
vn 0.6534 -0.6857 -0.3207
vn 0.9366 0.0000 -0.3505
vn 0.6534 0.6857 -0.3207
vn 0.5753 -0.6835 -0.4493
vn 0.8502 0.0000 -0.5264
vn 0.5753 0.6835 -0.4493
vn 0.4643 -0.6832 -0.5636
vn 0.7167 0.0000 -0.6974
vn 0.4643 0.6832 -0.5636
vn 0.3350 -0.6850 -0.6469
vn 0.5474 0.0000 -0.8369
vn 0.3350 0.6850 -0.6469
vn 0.2072 -0.6881 -0.6954
vn 0.3676 0.0000 -0.9300
vn 0.2072 0.6881 -0.6954
vn 0.0948 -0.6914 -0.7162
vn 0.2013 0.0000 -0.9795
vn 0.0948 0.6914 -0.7162
vn 0.0097 -0.6967 -0.7173
vn 0.0603 0.0000 -0.9982
vn 0.0097 0.6967 -0.7173
vn -0.0491 -0.6992 -0.7132
vn -0.0333 0.0000 -0.9994
vn -0.0491 0.6992 -0.7132
vn -0.1014 -0.6986 -0.7083
vn -0.1039 0.0000 -0.9946
vn -0.1014 0.6986 -0.7083
vn -0.1571 -0.6980 -0.6986
vn -0.1795 0.0000 -0.9838
vn -0.1571 0.6980 -0.6986
vn -0.2153 -0.6975 -0.6835
vn -0.2590 0.0000 -0.9659
vn -0.2153 0.6975 -0.6835
vn -0.2747 -0.6971 -0.6622
vn -0.3412 0.0000 -0.9400
vn -0.2747 0.6971 -0.6622
vn -0.3338 -0.6969 -0.6348
vn -0.4242 0.0000 -0.9056
vn -0.3338 0.6969 -0.6348
vn -0.3912 -0.6968 -0.6012
vn -0.5058 0.0000 -0.8627
vn -0.3912 0.6968 -0.6012
vn -0.4451 -0.6969 -0.5624
vn -0.5837 0.0000 -0.8120
vn -0.4451 0.6969 -0.5624
vn -0.4950 -0.6969 -0.5190
vn -0.6561 0.0000 -0.7547
vn -0.4950 0.6969 -0.5190
vn -0.5421 -0.6964 -0.4702
vn -0.7229 0.0000 -0.6909
vn -0.5421 0.6964 -0.4702
vn -0.5855 -0.6962 -0.4154
vn -0.7862 0.0000 -0.6180
vn -0.5855 0.6962 -0.4154
vn -0.6234 -0.6962 -0.3559
vn -0.8430 0.0000 -0.5379
vn -0.6234 0.6962 -0.3559
vn -0.6548 -0.6964 -0.2937
vn -0.8917 0.0000 -0.4526
vn -0.6548 0.6964 -0.2937
vn -0.6792 -0.6968 -0.2305
vn -0.9310 0.0000 -0.3649
vn -0.6792 0.6968 -0.2305
vn -0.6967 -0.6974 -0.1683
vn -0.9608 0.0000 -0.2772
vn -0.6967 0.6974 -0.1683
vn -0.7078 -0.6980 -0.1086
vn -0.9814 0.0000 -0.1920
vn -0.7078 0.6980 -0.1086
vn -0.7135 -0.6987 -0.0525
vn -0.9938 0.0000 -0.1110
vn -0.7135 0.6987 -0.0525
vn -0.7184 -0.6955 0.0121
vn -0.9994 0.0000 -0.0355
vn -0.7184 0.6955 0.0121
vn -0.7163 -0.6893 0.1087
vn -0.9976 0.0000 0.0693
vn -0.7163 0.6893 0.1087
vn -0.6887 -0.6859 0.2351
vn -0.9732 0.0000 0.2298
vn -0.6887 0.6859 0.2351
vn -0.6280 -0.6834 0.3723
vn -0.9106 0.0000 0.4134
vn -0.6280 0.6834 0.3723
vn -0.5315 -0.6828 0.5012
vn -0.7996 0.0000 0.6006
vn -0.5315 0.6828 0.5012
vn -0.4109 -0.6844 0.6023
vn -0.6464 0.0000 0.7630
vn -0.4109 0.6844 0.6023
vn -0.2860 -0.6875 0.6675
vn -0.4746 0.0000 0.8802
vn -0.2860 0.6875 0.6675
vn -0.1728 -0.6909 0.7020
vn -0.3098 0.0000 0.9508
vn -0.1728 0.6909 0.7020
vn -0.0782 -0.6941 0.7157
vn -0.1671 0.0000 0.9859
vn -0.0782 0.6941 0.7157
vn -0.3178 -0.8986 0.3024
vn -0.0498 0.0000 0.9988
vn -0.3178 0.8986 0.3024
vn -0.5774 -0.5774 0.5774
vn -0.5774 0.5774 0.5774
vn 0.4280 -0.6039 0.6724
vn 0.0000 0.0000 1.0000
vn 0.4280 0.6039 0.6724
vn 0.0048 -0.9683 0.2496
vn 0.9060 0.0000 0.4233
vn 0.0048 0.9683 0.2496
vn -0.4138 -0.6066 0.6788
vn -0.8889 0.0000 0.4581
vn -0.4138 0.6066 0.6788
vn 0.5774 -0.5774 0.5774
vn 0.5774 0.5774 0.5774
vn 0.5201 -0.8176 0.2471
vn 0.5201 0.8176 0.2471
vn 0.4620 -0.7021 0.5419
vn 0.6316 0.0000 0.7753
vn 0.4620 0.7021 0.5419
vn 0.4848 -0.7024 0.5211
vn 0.6656 0.0000 0.7463
vn 0.4848 0.7024 0.5211
vn 0.5053 -0.7027 0.5009
vn 0.6963 0.0000 0.7178
vn 0.5053 0.7027 0.5009
vn 0.5236 -0.7030 0.4812
vn 0.7238 0.0000 0.6900
vn 0.5236 0.7030 0.4812
vn 0.5400 -0.7033 0.4623
vn 0.7485 0.0000 0.6632
vn 0.5400 0.7033 0.4623
vn 0.5547 -0.7036 0.4442
vn 0.7706 0.0000 0.6373
vn 0.5547 0.7036 0.4442
vn 0.5679 -0.7038 0.4268
vn 0.7904 0.0000 0.6125
vn 0.5679 0.7038 0.4268
vn 0.5797 -0.7040 0.4102
vn 0.8082 0.0000 0.5889
vn 0.5797 0.7040 0.4102
vn 0.5891 -0.7047 0.3955
vn 0.8242 0.0000 0.5663
vn 0.5891 0.7047 0.3955
vn 0.5968 -0.7050 0.3833
vn 0.8362 0.0000 0.5484
vn 0.5968 0.7050 0.3833
vn 0.6052 -0.7045 0.3708
vn 0.8465 0.0000 0.5323
vn 0.6052 0.7045 0.3708
vn 0.6153 -0.7038 0.3551
vn 0.8587 0.0000 0.5124
vn 0.6153 0.7038 0.3551
vn 0.6275 -0.7029 0.3348
vn 0.8733 0.0000 0.4871
vn 0.6275 0.7029 0.3348
vn 0.6426 -0.7016 0.3079
vn 0.8909 0.0000 0.4542
vn 0.6426 0.7016 0.3079
vn 0.6614 -0.6995 0.2704
vn 0.9122 0.0000 0.4096
vn 0.6614 0.6995 0.2704
vn 0.6846 -0.6962 0.2156
vn 0.9379 0.0000 0.3468
vn 0.6846 0.6962 0.2156
vn 0.7114 -0.6906 0.1303
vn 0.9674 0.0000 0.2533
vn 0.7114 0.6906 0.1303
vn 0.6755 -0.5883 -0.4445
vn 0.9944 0.0000 0.1059
vn 0.6755 0.5883 -0.4445
vn -0.4300 -0.5707 -0.6996
vn 0.2963 0.0000 -0.9551
vn -0.4300 0.5707 -0.6996
vn -0.6813 -0.7172 -0.1466
vn -0.9860 0.0000 -0.1670
vn -0.6813 0.7172 -0.1466
vn -0.6651 -0.7175 -0.2071
vn -0.9673 0.0000 -0.2535
vn -0.6651 0.7175 -0.2071
vn -0.6433 -0.7176 -0.2669
vn -0.9403 0.0000 -0.3404
vn -0.6433 0.7176 -0.2669
vn -0.6162 -0.7175 -0.3247
vn -0.9050 0.0000 -0.4253
vn -0.6162 0.7175 -0.3247
vn -0.5845 -0.7173 -0.3792
vn -0.8624 0.0000 -0.5062
vn -0.5845 0.7173 -0.3792
vn -0.5494 -0.7169 -0.4292
vn -0.8138 0.0000 -0.5812
vn -0.5494 0.7169 -0.4292
vn -0.5118 -0.7164 -0.4741
vn -0.7608 0.0000 -0.6490
vn -0.5118 0.7164 -0.4741
vn -0.4731 -0.7158 -0.5136
vn -0.7052 0.0000 -0.7090
vn -0.4731 0.7158 -0.5136
vn 0.0314 -0.9031 -0.4284
vn -0.6488 0.0000 -0.7610
vn 0.0314 0.9031 -0.4284
vn 0.7528 0.0000 -0.6583
vn -0.0568 -0.7172 0.6945
vn -0.1258 -0.7200 0.6825
vn -0.1255 0.0000 0.9921
vn -0.1258 0.7200 0.6825
vn -0.0568 0.7172 0.6945
vn -0.2110 -0.7237 0.6571
vn -0.2364 0.0000 0.9716
vn -0.2110 0.7237 0.6571
vn -0.3125 -0.7281 0.6101
vn -0.3735 0.0000 0.9276
vn -0.3125 0.7281 0.6101
vn -0.4245 -0.7325 0.5322
vn -0.5346 0.0000 0.8451
vn -0.4245 0.7325 0.5322
vn -0.5324 -0.7353 0.4194
vn -0.7050 0.0000 0.7092
vn -0.5324 0.7353 0.4194
vn -0.6173 -0.7351 0.2803
vn -0.8545 0.0000 0.5195
vn -0.6173 0.7351 0.2803
vn -0.6679 -0.7319 0.1350
vn -0.9535 0.0000 0.3014
vn -0.6679 0.7319 0.1350
vn -0.6852 -0.7284 0.0005
vn -0.9957 0.0000 0.0926
vn -0.6852 0.7284 0.0005
vn -0.6688 -0.7315 -0.1329
vn -0.9959 0.0000 -0.0910
vn -0.6688 0.7315 -0.1329
vn -0.6194 -0.7347 -0.2765
vn -0.9550 0.0000 -0.2967
vn -0.6194 0.7347 -0.2765
vn -0.5359 -0.7352 -0.4151
vn -0.8585 0.0000 -0.5129
vn -0.5359 0.7352 -0.4151
vn -0.4289 -0.7326 -0.5286
vn -0.7112 0.0000 -0.7030
vn -0.4289 0.7326 -0.5286
vn -0.3167 -0.7283 -0.6077
vn -0.5413 0.0000 -0.8408
vn -0.3167 0.7283 -0.6077
vn -0.2143 -0.7239 -0.6558
vn -0.3791 0.0000 -0.9254
vn -0.2143 0.7239 -0.6558
vn -0.1279 -0.7202 -0.6818
vn -0.2404 0.0000 -0.9707
vn -0.1279 0.7202 -0.6818
vn -0.0577 -0.7174 -0.6943
vn -0.1277 0.0000 -0.9918
vn -0.0577 0.7174 -0.6943
vn -0.0010 -0.7154 -0.6987
vn -0.0378 0.0000 -0.9993
vn -0.0010 0.7154 -0.6987
vn 0.0537 -0.7167 -0.6954
vn 0.0351 0.0000 -0.9994
vn 0.0537 0.7167 -0.6954
vn 0.1191 -0.7193 -0.6844
vn 0.1186 0.0000 -0.9929
vn 0.1191 0.7193 -0.6844
vn 0.2006 -0.7229 -0.6612
vn 0.2239 0.0000 -0.9746
vn 0.2006 0.7229 -0.6612
vn 0.2990 -0.7273 -0.6177
vn 0.3553 0.0000 -0.9348
vn 0.2990 0.7273 -0.6177
vn 0.4101 -0.7321 -0.5439
vn 0.5128 0.0000 -0.8585
vn 0.4101 0.7321 -0.5439
vn 0.5204 -0.7357 -0.4336
vn 0.6844 0.0000 -0.7292
vn 0.5204 0.7357 -0.4336
vn 0.6101 -0.7362 -0.2929
vn 0.8407 0.0000 -0.5414
vn 0.6101 0.7362 -0.2929
vn 0.6649 -0.7333 -0.1422
vn 0.9482 0.0000 -0.3175
vn 0.6649 0.7333 -0.1422
vn 0.6834 -0.7301 0.0006
vn 0.9952 0.0000 -0.0980
vn 0.6834 0.7301 0.0006
vn 0.6640 -0.7337 0.1444
vn 0.9950 0.0000 0.0997
vn 0.6640 0.7337 0.1444
vn 0.6079 -0.7365 0.2968
vn 0.9466 0.0000 0.3225
vn 0.6079 0.7365 0.2968
vn 0.5167 -0.7358 0.4378
vn 0.8364 0.0000 0.5481
vn 0.5167 0.7358 0.4378
vn 0.4057 -0.7320 0.5473
vn 0.6780 0.0000 0.7351
vn 0.4057 0.7320 0.5473
vn 0.2950 -0.7271 0.6199
vn 0.5062 0.0000 0.8624
vn 0.2950 0.7271 0.6199
vn 0.1975 -0.7227 0.6624
vn 0.3499 0.0000 0.9368
vn 0.1975 0.7227 0.6624
vn 0.1172 -0.7191 0.6849
vn 0.2202 0.0000 0.9755
vn 0.1172 0.7191 0.6849
vn 0.0527 -0.7165 0.6956
vn 0.1166 0.0000 0.9932
vn 0.0527 0.7165 0.6956
vn -0.0009 -0.7153 0.6989
vn 0.0345 0.0000 0.9994
vn -0.0009 0.7153 0.6989
vn -0.0372 0.0000 0.9993
vn -0.0900 -0.7234 0.6846
vn -0.1949 -0.7271 0.6583
vn -0.2001 0.0000 0.9798
vn -0.1949 0.7271 0.6583
vn -0.0900 0.7234 0.6846
vn -0.3124 -0.7305 0.6072
vn -0.3655 0.0000 0.9308
vn -0.3124 0.7305 0.6072
vn -0.4311 -0.7326 0.5267
vn -0.5448 0.0000 0.8385
vn -0.4311 0.7326 0.5267
vn -0.5353 -0.7324 0.4208
vn -0.7144 0.0000 0.6997
vn -0.5353 0.7324 0.4208
vn -0.6128 -0.7299 0.3027
vn -0.8486 0.0000 0.5290
vn -0.6128 0.7299 0.3027
vn -0.6612 -0.7264 0.1879
vn -0.9358 0.0000 0.3525
vn -0.6612 0.7264 0.1879
vn -0.6857 -0.7227 0.0865
vn -0.9813 0.0000 0.1922
vn -0.6857 0.7227 0.0865
vn -0.6938 -0.7202 0.0003
vn -0.9983 0.0000 0.0575
vn -0.6938 0.7202 0.0003
vn -0.6861 -0.7225 -0.0853
vn -0.9984 0.0000 -0.0567
vn -0.6861 0.7225 -0.0853
vn -0.6621 -0.7261 -0.1853
vn -0.9819 0.0000 -0.1894
vn -0.6621 0.7261 -0.1853
vn -0.6148 -0.7297 -0.2992
vn -0.9376 0.0000 -0.3478
vn -0.6148 0.7297 -0.2992
vn -0.5384 -0.7323 -0.4170
vn -0.8523 0.0000 -0.5231
vn -0.5384 0.7323 -0.4170
vn -0.4349 -0.7327 -0.5234
vn -0.7197 0.0000 -0.6942
vn -0.4349 0.7327 -0.5234
vn -0.3160 -0.7307 -0.6051
vn -0.5507 0.0000 -0.8347
vn -0.3160 0.7307 -0.6051
vn -0.1975 -0.7273 -0.6573
vn -0.3704 0.0000 -0.9289
vn -0.1975 0.7273 -0.6573
vn -0.0913 -0.7236 -0.6841
vn -0.2030 0.0000 -0.9792
vn -0.0913 0.7236 -0.6841
vn -0.0003 -0.7210 -0.6930
vn -0.0609 0.0000 -0.9981
vn -0.0003 0.7210 -0.6930
vn 0.0900 -0.7234 -0.6846
vn 0.0599 0.0000 -0.9982
vn 0.0900 0.7234 -0.6846
vn 0.1948 -0.7270 -0.6584
vn 0.2000 0.0000 -0.9798
vn 0.1948 0.7270 -0.6584
vn 0.3124 -0.7305 -0.6073
vn 0.3654 0.0000 -0.9308
vn 0.3124 0.7305 -0.6073
vn 0.4311 -0.7326 -0.5267
vn 0.5447 0.0000 -0.8386
vn 0.4311 0.7326 -0.5267
vn 0.5352 -0.7324 -0.4209
vn 0.7143 0.0000 -0.6998
vn 0.5352 0.7324 -0.4209
vn 0.6128 -0.7299 -0.3028
vn 0.8486 0.0000 -0.5291
vn 0.6128 0.7299 -0.3028
vn 0.6611 -0.7264 -0.1879
vn 0.9358 0.0000 -0.3526
vn 0.6611 0.7264 -0.1879
vn 0.6857 -0.7227 -0.0865
vn 0.9813 0.0000 -0.1923
vn 0.6857 0.7227 -0.0865
vn 0.6936 -0.7204 0.0003
vn 0.9983 0.0000 -0.0575
vn 0.6936 0.7204 0.0003
vn 0.6853 -0.7230 0.0878
vn 0.9983 0.0000 0.0584
vn 0.6853 0.7230 0.0878
vn 0.6601 -0.7266 0.1905
vn 0.9808 0.0000 0.1951
vn 0.6601 0.7266 0.1905
vn 0.6107 -0.7302 0.3064
vn 0.9340 0.0000 0.3574
vn 0.6107 0.7302 0.3064
vn 0.5321 -0.7325 0.4247
vn 0.8449 0.0000 0.5349
vn 0.5321 0.7325 0.4247
vn 0.4273 -0.7325 0.5299
vn 0.7089 0.0000 0.7053
vn 0.4273 0.7325 0.5299
vn 0.3088 -0.7303 0.6094
vn 0.5388 0.0000 0.8424
vn 0.3088 0.7303 0.6094
vn 0.1922 -0.7268 0.6594
vn 0.3606 0.0000 0.9327
vn 0.1922 0.7268 0.6594
vn 0.0887 -0.7231 0.6850
vn 0.1971 0.0000 0.9804
vn 0.0887 0.7231 0.6850
vn -0.0003 -0.7207 0.6932
vn 0.0590 0.0000 0.9983
vn -0.0003 0.7207 0.6932
vn -0.0600 0.0000 0.9982
vn 0.0000 -1.0000 -0.0000
vn 0.0000 1.0000 -0.0000
# 524 vertex normals

o Lo_Chula
g Lo_Chula
s 1
f 1//1 2//2 3//3 
f 2//2 4//4 3//3 
f 4//4 5//5 3//3 
f 5//5 1//1 3//3 
s 3
f 2//2 6//6 7//7 
f 6//6 8//8 7//7 
f 8//8 4//4 7//7 
f 4//4 2//2 7//7 
s 2
f 6//6 9//9 10//10 
f 9//9 11//11 10//10 
f 11//11 8//8 10//10 
f 8//8 6//6 10//10 
f 9//9 12//12 13//13 
f 12//12 14//14 13//13 
f 14//14 11//11 13//13 
f 11//11 9//9 13//13 
f 12//12 15//15 16//16 
f 15//15 17//17 16//16 
f 17//17 14//14 16//16 
f 14//14 12//12 16//16 
f 15//15 18//18 19//19 
f 18//18 20//20 19//19 
f 20//20 17//17 19//19 
f 17//17 15//15 19//19 
f 18//18 21//21 22//22 
f 21//21 23//23 22//22 
f 23//23 20//20 22//22 
f 20//20 18//18 22//22 
f 21//21 24//24 25//25 
f 24//24 26//26 25//25 
f 26//26 23//23 25//25 
f 23//23 21//21 25//25 
f 24//24 27//27 28//28 
f 27//27 29//29 28//28 
f 29//29 26//26 28//28 
f 26//26 24//24 28//28 
f 27//27 30//30 31//31 
f 30//30 32//32 31//31 
f 32//32 29//29 31//31 
f 29//29 27//27 31//31 
f 30//30 33//33 34//34 
f 33//33 35//35 34//34 
f 35//35 32//32 34//34 
f 32//32 30//30 34//34 
f 33//33 36//36 37//37 
f 36//36 38//38 37//37 
f 38//38 35//35 37//37 
f 35//35 33//33 37//37 
f 36//36 39//39 40//40 
f 39//39 41//41 40//40 
f 41//41 38//38 40//40 
f 38//38 36//36 40//40 
f 39//39 42//42 43//43 
f 42//42 44//44 43//43 
f 44//44 41//41 43//43 
f 41//41 39//39 43//43 
f 42//42 45//45 46//46 
f 45//45 47//47 46//46 
f 47//47 44//44 46//46 
f 44//44 42//42 46//46 
f 45//45 48//48 49//49 
f 48//48 50//50 49//49 
f 50//50 47//47 49//49 
f 47//47 45//45 49//49 
f 48//48 51//51 52//52 
f 51//51 53//53 52//52 
f 53//53 50//50 52//52 
f 50//50 48//48 52//52 
f 51//51 54//54 55//55 
f 54//54 56//56 55//55 
f 56//56 53//53 55//55 
f 53//53 51//51 55//55 
f 54//54 57//57 58//58 
f 57//57 59//59 58//58 
f 59//59 56//56 58//58 
f 56//56 54//54 58//58 
f 57//57 60//60 61//61 
f 60//60 62//62 61//61 
f 62//62 59//59 61//61 
f 59//59 57//57 61//61 
f 60//60 63//63 64//64 
f 63//63 65//65 64//64 
f 65//65 62//62 64//64 
f 62//62 60//60 64//64 
f 63//63 66//66 67//67 
f 66//66 68//68 67//67 
f 68//68 65//65 67//67 
f 65//65 63//63 67//67 
f 66//66 69//69 70//70 
f 69//69 71//71 70//70 
f 71//71 68//68 70//70 
f 68//68 66//66 70//70 
f 69//69 72//72 73//73 
f 72//72 74//74 73//73 
f 74//74 71//71 73//73 
f 71//71 69//69 73//73 
f 72//72 75//75 76//76 
f 75//75 77//77 76//76 
f 77//77 74//74 76//76 
f 74//74 72//72 76//76 
f 75//75 78//78 79//79 
f 78//78 80//80 79//79 
f 80//80 77//77 79//79 
f 77//77 75//75 79//79 
f 78//78 81//81 82//82 
f 81//81 83//83 82//82 
f 83//83 80//80 82//82 
f 80//80 78//78 82//82 
s 4
f 81//81 84//84 85//85 
f 84//84 86//86 85//85 
f 86//86 83//83 85//85 
f 83//83 81//81 85//85 
s 2
f 84//84 87//87 88//88 
f 87//87 89//89 88//88 
f 89//89 86//86 88//88 
f 86//86 84//84 88//88 
s 4
f 87//87 90//90 91//91 
f 90//90 92//92 91//91 
f 92//92 89//89 91//91 
f 89//89 87//87 91//91 
s 2
f 90//90 93//93 94//94 
f 93//93 95//95 94//94 
f 95//95 92//92 94//94 
f 92//92 90//90 94//94 
s 4
f 93//93 96//96 97//97 
f 96//96 98//98 97//97 
f 98//98 95//95 97//97 
f 95//95 93//93 97//97 
s 2
f 96//96 99//99 100//100 
f 99//99 101//101 100//100 
f 101//101 98//98 100//100 
f 98//98 96//96 100//100 
f 99//99 102//102 103//103 
f 102//102 104//104 103//103 
f 104//104 101//101 103//103 
f 101//101 99//99 103//103 
f 102//102 105//105 106//106 
f 105//105 107//107 106//106 
f 107//107 104//104 106//106 
f 104//104 102//102 106//106 
f 105//105 108//108 109//109 
f 108//108 110//110 109//109 
f 110//110 107//107 109//109 
f 107//107 105//105 109//109 
f 108//108 111//111 112//112 
f 111//111 113//113 112//112 
f 113//113 110//110 112//112 
f 110//110 108//108 112//112 
f 111//111 114//114 115//115 
f 114//114 116//116 115//115 
f 116//116 113//113 115//115 
f 113//113 111//111 115//115 
f 114//114 117//117 118//118 
f 117//117 119//119 118//118 
f 119//119 116//116 118//118 
f 116//116 114//114 118//118 
f 117//117 120//120 121//121 
f 120//120 122//122 121//121 
f 122//122 119//119 121//121 
f 119//119 117//117 121//121 
f 120//120 123//123 124//124 
f 123//123 125//125 124//124 
f 125//125 122//122 124//124 
f 122//122 120//120 124//124 
f 123//123 126//126 127//127 
f 126//126 128//128 127//127 
f 128//128 125//125 127//127 
f 125//125 123//123 127//127 
f 126//126 129//129 130//130 
f 129//129 131//131 130//130 
f 131//131 128//128 130//130 
f 128//128 126//126 130//130 
f 129//129 132//132 133//133 
f 132//132 134//134 133//133 
f 134//134 131//131 133//133 
f 131//131 129//129 133//133 
f 132//132 135//135 136//136 
f 135//135 137//137 136//136 
f 137//137 134//134 136//136 
f 134//134 132//132 136//136 
f 135//135 138//138 139//139 
f 138//138 140//140 139//139 
f 140//140 137//137 139//139 
f 137//137 135//135 139//139 
f 138//138 141//141 142//142 
f 141//141 143//143 142//142 
f 143//143 140//140 142//142 
f 140//140 138//138 142//142 
f 141//141 144//144 145//145 
f 144//144 146//146 145//145 
f 146//146 143//143 145//145 
f 143//143 141//141 145//145 
f 144//144 147//147 148//148 
f 147//147 149//149 148//148 
f 149//149 146//146 148//148 
f 146//146 144//144 148//148 
f 147//147 150//150 151//151 
f 150//150 152//152 151//151 
f 152//152 149//149 151//151 
f 149//149 147//147 151//151 
f 150//150 153//153 154//154 
f 153//153 155//155 154//154 
f 155//155 152//152 154//154 
f 152//152 150//150 154//154 
f 153//153 156//156 157//157 
f 156//156 158//158 157//157 
f 158//158 155//155 157//157 
f 155//155 153//153 157//157 
f 156//156 159//159 160//160 
f 159//159 161//161 160//160 
f 161//161 158//158 160//160 
f 158//158 156//156 160//160 
f 159//159 162//162 163//163 
f 162//162 164//164 163//163 
f 164//164 161//161 163//163 
f 161//161 159//159 163//163 
f 162//162 165//165 166//166 
f 165//165 167//167 166//166 
f 167//167 164//164 166//166 
f 164//164 162//162 166//166 
f 165//165 168//168 169//169 
f 168//168 170//170 169//169 
f 170//170 167//167 169//169 
f 167//167 165//165 169//169 
f 168//168 171//171 172//172 
f 171//171 173//173 172//172 
f 173//173 170//170 172//172 
f 170//170 168//168 172//172 
f 171//171 174//174 175//175 
f 174//174 176//176 175//175 
f 176//176 173//173 175//175 
f 173//173 171//171 175//175 
f 174//174 177//177 178//178 
f 177//177 179//179 178//178 
f 179//179 176//176 178//178 
f 176//176 174//174 178//178 
f 177//177 180//180 181//181 
f 180//180 182//182 181//181 
f 182//182 179//179 181//181 
f 179//179 177//177 181//181 
f 180//180 183//183 184//184 
f 183//183 185//185 184//184 
f 185//185 182//182 184//184 
f 182//182 180//180 184//184 
f 183//183 186//186 187//187 
f 186//186 188//188 187//187 
f 188//188 185//185 187//187 
f 185//185 183//183 187//187 
f 186//186 189//189 190//190 
f 189//189 191//191 190//190 
f 191//191 188//188 190//190 
f 188//188 186//186 190//190 
f 189//189 192//192 193//193 
f 192//192 194//194 193//193 
f 194//194 191//191 193//193 
f 191//191 189//189 193//193 
f 192//192 195//195 196//196 
f 195//195 197//197 196//196 
f 197//197 194//194 196//196 
f 194//194 192//192 196//196 
f 195//195 198//198 199//199 
f 198//198 200//200 199//199 
f 200//200 197//197 199//199 
f 197//197 195//195 199//199 
f 198//198 201//201 202//202 
f 201//201 203//203 202//202 
f 203//203 200//200 202//202 
f 200//200 198//198 202//202 
f 201//201 204//204 205//205 
f 204//204 206//206 205//205 
f 206//206 203//203 205//205 
f 203//203 201//201 205//205 
s 4
f 204//204 207//207 208//85 
f 207//207 209//208 208//85 
f 209//208 206//206 208//85 
f 206//206 204//204 208//85 
s 2
f 207//207 210//209 211//210 
f 210//209 212//211 211//210 
f 212//211 209//208 211//210 
f 209//208 207//207 211//210 
s 4
f 210//209 213//212 214//213 
f 213//212 215//214 214//213 
f 215//214 212//211 214//213 
f 212//211 210//209 214//213 
s 2
f 213//212 216//215 217//216 
f 216//215 218//217 217//216 
f 218//217 215//214 217//216 
f 215//214 213//212 217//216 
s 4
f 216//215 219//218 220//210 
f 219//218 221//219 220//210 
f 221//219 218//217 220//210 
f 218//217 216//215 220//210 
s 2
f 219//218 222//220 223//97 
f 222//220 224//221 223//97 
f 224//221 221//219 223//97 
f 221//219 219//218 223//97 
s 4
f 222//220 225//222 226//223 
f 225//222 227//224 226//223 
f 227//224 224//221 226//223 
f 224//221 222//220 226//223 
f 225//222 228//225 229//226 
f 228//225 230//227 229//226 
f 230//227 227//224 229//226 
f 227//224 225//222 229//226 
f 228//225 231//228 232//229 
f 231//228 233//230 232//229 
f 233//230 230//227 232//229 
f 230//227 228//225 232//229 
f 231//228 234//231 235//232 
f 234//231 236//233 235//232 
f 236//233 233//230 235//232 
f 233//230 231//228 235//232 
f 234//231 237//234 238//235 
f 237//234 239//236 238//235 
f 239//236 236//233 238//235 
f 236//233 234//231 238//235 
f 237//234 240//237 241//238 
f 240//237 242//239 241//238 
f 242//239 239//236 241//238 
f 239//236 237//234 241//238 
f 240//237 243//240 244//241 
f 243//240 245//242 244//241 
f 245//242 242//239 244//241 
f 242//239 240//237 244//241 
f 243//240 246//243 247//244 
f 246//243 248//245 247//244 
f 248//245 245//242 247//244 
f 245//242 243//240 247//244 
f 246//243 249//246 250//247 
f 249//246 251//248 250//247 
f 251//248 248//245 250//247 
f 248//245 246//243 250//247 
f 249//246 252//249 253//250 
f 252//249 254//251 253//250 
f 254//251 251//248 253//250 
f 251//248 249//246 253//250 
f 252//249 255//252 256//253 
f 255//252 257//254 256//253 
f 257//254 254//251 256//253 
f 254//251 252//249 256//253 
f 255//252 258//255 259//256 
f 258//255 260//257 259//256 
f 260//257 257//254 259//256 
f 257//254 255//252 259//256 
f 258//255 261//258 262//259 
f 261//258 263//260 262//259 
f 263//260 260//257 262//259 
f 260//257 258//255 262//259 
f 261//258 264//261 265//262 
f 264//261 266//263 265//262 
f 266//263 263//260 265//262 
f 263//260 261//258 265//262 
f 264//261 267//264 268//265 
f 267//264 269//266 268//265 
f 269//266 266//263 268//265 
f 266//263 264//261 268//265 
f 267//264 270//267 271//268 
f 270//267 272//269 271//268 
f 272//269 269//266 271//268 
f 269//266 267//264 271//268 
f 270//267 273//270 274//271 
f 273//270 275//272 274//271 
f 275//272 272//269 274//271 
f 272//269 270//267 274//271 
f 273//270 276//273 277//274 
f 276//273 278//275 277//274 
f 278//275 275//272 277//274 
f 275//272 273//270 277//274 
s 2
f 276//273 279//276 280//277 
f 279//276 281//278 280//277 
f 281//278 278//275 280//277 
f 278//275 276//273 280//277 
s 4
f 279//276 282//279 283//280 
f 282//279 284//281 283//280 
f 284//281 281//278 283//280 
f 281//278 279//276 283//280 
f 282//279 285//282 286//283 
f 285//282 287//284 286//283 
f 287//284 284//281 286//283 
f 284//281 282//279 286//283 
f 285//282 288//285 289//286 
f 288//285 290//287 289//286 
f 290//287 287//284 289//286 
f 287//284 285//282 289//286 
f 288//285 291//288 292//289 
f 291//288 293//290 292//289 
f 293//290 290//287 292//289 
f 290//287 288//285 292//289 
f 291//288 294//291 295//292 
f 294//291 296//293 295//292 
f 296//293 293//290 295//292 
f 293//290 291//288 295//292 
f 294//291 297//294 298//295 
f 297//294 299//296 298//295 
f 299//296 296//293 298//295 
f 296//293 294//291 298//295 
f 297//294 300//297 301//298 
f 300//297 302//299 301//298 
f 302//299 299//296 301//298 
f 299//296 297//294 301//298 
f 300//297 303//300 304//301 
f 303//300 305//302 304//301 
f 305//302 302//299 304//301 
f 302//299 300//297 304//301 
f 303//300 306//303 307//304 
f 306//303 308//305 307//304 
f 308//305 305//302 307//304 
f 305//302 303//300 307//304 
s 3
f 306//303 1//1 309//306 
f 1//1 5//5 309//306 
f 5//5 308//305 309//306 
f 308//305 306//303 309//306 
s 1
f 310//307 311//308 312//309 
f 311//308 313//310 312//309 
f 313//310 314//311 312//309 
f 314//311 310//307 312//309 
s 3
f 311//308 315//312 316//313 
f 315//312 317//314 316//313 
f 317//314 313//310 316//313 
f 313//310 311//308 316//313 
s 2
f 315//312 318//315 319//316 
f 318//315 320//317 319//316 
f 320//317 317//314 319//316 
f 317//314 315//312 319//316 
f 318//315 321//318 322//319 
f 321//318 323//320 322//319 
f 323//320 320//317 322//319 
f 320//317 318//315 322//319 
f 321//318 324//321 325//322 
f 324//321 326//323 325//322 
f 326//323 323//320 325//322 
f 323//320 321//318 325//322 
f 324//321 327//324 328//325 
f 327//324 329//326 328//325 
f 329//326 326//323 328//325 
f 326//323 324//321 328//325 
f 327//324 330//327 331//328 
f 330//327 332//329 331//328 
f 332//329 329//326 331//328 
f 329//326 327//324 331//328 
f 330//327 333//330 334//331 
f 333//330 335//332 334//331 
f 335//332 332//329 334//331 
f 332//329 330//327 334//331 
f 333//330 336//333 337//334 
f 336//333 338//335 337//334 
f 338//335 335//332 337//334 
f 335//332 333//330 337//334 
f 336//333 339//336 340//337 
f 339//336 341//338 340//337 
f 341//338 338//335 340//337 
f 338//335 336//333 340//337 
f 339//336 342//339 343//340 
f 342//339 344//341 343//340 
f 344//341 341//338 343//340 
f 341//338 339//336 343//340 
f 342//339 345//342 346//343 
f 345//342 347//344 346//343 
f 347//344 344//341 346//343 
f 344//341 342//339 346//343 
f 345//342 348//345 349//346 
f 348//345 350//347 349//346 
f 350//347 347//344 349//346 
f 347//344 345//342 349//346 
f 348//345 351//348 352//349 
f 351//348 353//350 352//349 
f 353//350 350//347 352//349 
f 350//347 348//345 352//349 
f 351//348 354//351 355//352 
f 354//351 356//353 355//352 
f 356//353 353//350 355//352 
f 353//350 351//348 355//352 
f 354//351 357//354 358//355 
f 357//354 359//356 358//355 
f 359//356 356//353 358//355 
f 356//353 354//351 358//355 
f 357//354 360//357 361//358 
f 360//357 362//359 361//358 
f 362//359 359//356 361//358 
f 359//356 357//354 361//358 
f 360//357 363//360 364//361 
f 363//360 365//362 364//361 
f 365//362 362//359 364//361 
f 362//359 360//357 364//361 
f 363//360 366//363 367//364 
f 366//363 368//365 367//364 
f 368//365 365//362 367//364 
f 365//362 363//360 367//364 
f 366//363 369//366 370//367 
f 369//366 371//368 370//367 
f 371//368 368//365 370//367 
f 368//365 366//363 370//367 
f 369//366 372//369 373//370 
f 372//369 374//371 373//370 
f 374//371 371//368 373//370 
f 371//368 369//366 373//370 
f 372//369 375//372 376//373 
f 375//372 377//374 376//373 
f 377//374 374//371 376//373 
f 374//371 372//369 376//373 
f 375//372 378//375 379//376 
f 378//375 380//377 379//376 
f 380//377 377//374 379//376 
f 377//374 375//372 379//376 
f 378//375 381//378 382//379 
f 381//378 383//380 382//379 
f 383//380 380//377 382//379 
f 380//377 378//375 382//379 
f 381//378 384//381 385//382 
f 384//381 386//383 385//382 
f 386//383 383//380 385//382 
f 383//380 381//378 385//382 
f 384//381 387//384 388//385 
f 387//384 389//386 388//385 
f 389//386 386//383 388//385 
f 386//383 384//381 388//385 
f 387//384 390//387 391//388 
f 390//387 392//389 391//388 
f 392//389 389//386 391//388 
f 389//386 387//384 391//388 
f 390//387 393//390 394//391 
f 393//390 395//392 394//391 
f 395//392 392//389 394//391 
f 392//389 390//387 394//391 
f 393//390 396//393 397//394 
f 396//393 398//395 397//394 
f 398//395 395//392 397//394 
f 395//392 393//390 397//394 
f 396//393 399//396 400//397 
f 399//396 401//398 400//397 
f 401//398 398//395 400//397 
f 398//395 396//393 400//397 
f 399//396 402//399 403//400 
f 402//399 404//401 403//400 
f 404//401 401//398 403//400 
f 401//398 399//396 403//400 
f 402//399 405//402 406//403 
f 405//402 407//404 406//403 
f 407//404 404//401 406//403 
f 404//401 402//399 406//403 
f 405//402 408//405 409//406 
f 408//405 410//407 409//406 
f 410//407 407//404 409//406 
f 407//404 405//402 409//406 
f 408//405 411//408 412//409 
f 411//408 413//410 412//409 
f 413//410 410//407 412//409 
f 410//407 408//405 412//409 
f 411//408 414//411 415//412 
f 414//411 416//413 415//412 
f 416//413 413//410 415//412 
f 413//410 411//408 415//412 
s 3
f 414//411 310//307 417//414 
f 310//307 314//311 417//414 
f 314//311 416//413 417//414 
f 416//413 414//411 417//414 
s 1
f 418//415 419//416 420//417 
f 419//416 421//418 420//417 
f 421//418 422//419 420//417 
f 422//419 418//415 420//417 
s 3
f 419//416 423//420 424//421 
f 423//420 425//422 424//421 
f 425//422 421//418 424//421 
f 421//418 419//416 424//421 
s 2
f 423//420 426//423 427//424 
f 426//423 428//425 427//424 
f 428//425 425//422 427//424 
f 425//422 423//420 427//424 
f 426//423 429//426 430//427 
f 429//426 431//428 430//427 
f 431//428 428//425 430//427 
f 428//425 426//423 430//427 
f 429//426 432//429 433//430 
f 432//429 434//431 433//430 
f 434//431 431//428 433//430 
f 431//428 429//426 433//430 
f 432//429 435//432 436//433 
f 435//432 437//434 436//433 
f 437//434 434//431 436//433 
f 434//431 432//429 436//433 
f 435//432 438//435 439//436 
f 438//435 440//437 439//436 
f 440//437 437//434 439//436 
f 437//434 435//432 439//436 
f 438//435 441//438 442//439 
f 441//438 443//440 442//439 
f 443//440 440//437 442//439 
f 440//437 438//435 442//439 
f 441//438 444//441 445//442 
f 444//441 446//443 445//442 
f 446//443 443//440 445//442 
f 443//440 441//438 445//442 
f 444//441 447//444 448//445 
f 447//444 449//446 448//445 
f 449//446 446//443 448//445 
f 446//443 444//441 448//445 
f 447//444 450//447 451//448 
f 450//447 452//449 451//448 
f 452//449 449//446 451//448 
f 449//446 447//444 451//448 
f 450//447 453//450 454//451 
f 453//450 455//452 454//451 
f 455//452 452//449 454//451 
f 452//449 450//447 454//451 
f 453//450 456//453 457//454 
f 456//453 458//455 457//454 
f 458//455 455//452 457//454 
f 455//452 453//450 457//454 
f 456//453 459//456 460//457 
f 459//456 461//458 460//457 
f 461//458 458//455 460//457 
f 458//455 456//453 460//457 
f 459//456 462//459 463//460 
f 462//459 464//461 463//460 
f 464//461 461//458 463//460 
f 461//458 459//456 463//460 
f 462//459 465//462 466//463 
f 465//462 467//464 466//463 
f 467//464 464//461 466//463 
f 464//461 462//459 466//463 
f 465//462 468//465 469//466 
f 468//465 470//467 469//466 
f 470//467 467//464 469//466 
f 467//464 465//462 469//466 
f 468//465 471//468 472//469 
f 471//468 473//470 472//469 
f 473//470 470//467 472//469 
f 470//467 468//465 472//469 
f 471//468 474//471 475//472 
f 474//471 476//473 475//472 
f 476//473 473//470 475//472 
f 473//470 471//468 475//472 
f 474//471 477//474 478//475 
f 477//474 479//476 478//475 
f 479//476 476//473 478//475 
f 476//473 474//471 478//475 
f 477//474 480//477 481//478 
f 480//477 482//479 481//478 
f 482//479 479//476 481//478 
f 479//476 477//474 481//478 
f 480//477 483//480 484//481 
f 483//480 485//482 484//481 
f 485//482 482//479 484//481 
f 482//479 480//477 484//481 
f 483//480 486//483 487//484 
f 486//483 488//485 487//484 
f 488//485 485//482 487//484 
f 485//482 483//480 487//484 
f 486//483 489//486 490//487 
f 489//486 491//488 490//487 
f 491//488 488//485 490//487 
f 488//485 486//483 490//487 
f 489//486 492//489 493//490 
f 492//489 494//491 493//490 
f 494//491 491//488 493//490 
f 491//488 489//486 493//490 
f 492//489 495//492 496//493 
f 495//492 497//494 496//493 
f 497//494 494//491 496//493 
f 494//491 492//489 496//493 
f 495//492 498//495 499//496 
f 498//495 500//497 499//496 
f 500//497 497//494 499//496 
f 497//494 495//492 499//496 
f 498//495 501//498 502//499 
f 501//498 503//500 502//499 
f 503//500 500//497 502//499 
f 500//497 498//495 502//499 
f 501//498 504//501 505//502 
f 504//501 506//503 505//502 
f 506//503 503//500 505//502 
f 503//500 501//498 505//502 
f 504//501 507//504 508//505 
f 507//504 509//506 508//505 
f 509//506 506//503 508//505 
f 506//503 504//501 508//505 
f 507//504 510//507 511//508 
f 510//507 512//509 511//508 
f 512//509 509//506 511//508 
f 509//506 507//504 511//508 
f 510//507 513//510 514//511 
f 513//510 515//512 514//511 
f 515//512 512//509 514//511 
f 512//509 510//507 514//511 
f 513//510 516//513 517//514 
f 516//513 518//515 517//514 
f 518//515 515//512 517//514 
f 515//512 513//510 517//514 
f 516//513 519//516 520//517 
f 519//516 521//518 520//517 
f 521//518 518//515 520//517 
f 518//515 516//513 520//517 
f 519//516 522//519 523//520 
f 522//519 524//521 523//520 
f 524//521 521//518 523//520 
f 521//518 519//516 523//520 
s 3
f 522//519 418//415 525//522 
f 418//415 422//419 525//522 
f 422//419 524//521 525//522 
f 524//521 522//519 525//522 
s 16
f 93//93 526//523 465//462 527//523 
f 465//462 462//459 527//523 
f 462//459 93//93 527//523 
f 206//206 467//464 528//524 
f 467//464 470//467 528//524 
f 470//467 206//206 528//524 
f 441//438 438//435 529//523 
f 438//435 102//102 529//523 
f 102//102 99//99 529//523 
f 99//99 441//438 529//523 
f 462//459 459//456 530//523 
f 459//456 93//93 530//523 
f 93//93 462//459 530//523 
f 459//456 456//453 531//523 
f 456//453 93//93 531//523 
f 93//93 459//456 531//523 
f 456//453 453//450 532//523 
f 453//450 93//93 532//523 
f 93//93 456//453 532//523 
f 453//450 450//447 533//523 
f 450//447 93//93 533//523 
f 93//93 453//450 533//523 
f 450//447 447//444 534//523 
f 447//444 93//93 534//523 
f 93//93 450//447 534//523 
f 447//444 444//441 535//523 
f 444//441 93//93 535//523 
f 93//93 447//444 535//523 
f 444//441 441//438 536//523 
f 441//438 99//99 536//523 
f 99//99 96//96 536//523 
f 96//96 93//93 536//523 
f 93//93 444//441 536//523 
f 438//435 435//432 537//523 
f 435//432 105//105 537//523 
f 105//105 102//102 537//523 
f 102//102 438//435 537//523 
f 435//432 432//429 538//523 
f 432//429 108//108 538//523 
f 108//108 105//105 538//523 
f 105//105 435//432 538//523 
f 432//429 429//426 539//523 
f 429//426 111//111 539//523 
f 111//111 108//108 539//523 
f 108//108 432//429 539//523 
f 429//426 426//423 540//523 
f 426//423 114//114 540//523 
f 114//114 111//111 540//523 
f 111//111 429//426 540//523 
f 426//423 423//420 541//523 
f 423//420 117//117 541//523 
f 117//117 114//114 541//523 
f 114//114 426//423 541//523 
f 423//420 419//416 542//523 
f 419//416 120//120 542//523 
f 120//120 117//117 542//523 
f 117//117 423//420 542//523 
f 419//416 418//415 543//523 
f 418//415 120//120 543//523 
f 120//120 419//416 543//523 
f 418//415 522//519 544//523 
f 522//519 123//123 544//523 
f 123//123 120//120 544//523 
f 120//120 418//415 544//523 
f 522//519 519//516 545//523 
f 519//516 126//126 545//523 
f 126//126 123//123 545//523 
f 123//123 522//519 545//523 
f 519//516 516//513 546//523 
f 516//513 132//132 546//523 
f 132//132 129//129 546//523 
f 129//129 126//126 546//523 
f 126//126 519//516 546//523 
f 516//513 513//510 547//523 
f 513//510 138//138 547//523 
f 138//138 135//135 547//523 
f 135//135 132//132 547//523 
f 132//132 516//513 547//523 
f 513//510 510//507 548//523 
f 510//507 144//144 548//523 
f 144//144 141//141 548//523 
f 141//141 138//138 548//523 
f 138//138 513//510 548//523 
f 510//507 507//504 549//523 
f 507//504 153//153 549//523 
f 153//153 150//150 549//523 
f 150//150 147//147 549//523 
f 147//147 144//144 549//523 
f 144//144 510//507 549//523 
f 507//504 504//501 550//523 
f 504//501 159//159 550//523 
f 159//159 156//156 550//523 
f 156//156 153//153 550//523 
f 153//153 507//504 550//523 
f 504//501 501//498 551//523 
f 501//498 165//165 551//523 
f 165//165 162//162 551//523 
f 162//162 159//159 551//523 
f 159//159 504//501 551//523 
f 501//498 498//495 552//523 
f 498//495 171//171 552//523 
f 171//171 168//168 552//523 
f 168//168 165//165 552//523 
f 165//165 501//498 552//523 
f 498//495 495//492 553//523 
f 495//492 177//177 553//523 
f 177//177 174//174 553//523 
f 174//174 171//171 553//523 
f 171//171 498//495 553//523 
f 495//492 492//489 554//523 
f 492//489 180//180 554//523 
f 180//180 177//177 554//523 
f 177//177 495//492 554//523 
f 492//489 489//486 555//523 
f 489//486 183//183 555//523 
f 183//183 180//180 555//523 
f 180//180 492//489 555//523 
f 489//486 486//483 556//523 
f 486//483 186//186 556//523 
f 186//186 183//183 556//523 
f 183//183 489//486 556//523 
f 486//483 483//480 557//523 
f 483//480 189//189 557//523 
f 189//189 186//186 557//523 
f 186//186 486//483 557//523 
f 483//480 480//477 558//523 
f 480//477 192//192 558//523 
f 192//192 189//189 558//523 
f 189//189 483//480 558//523 
f 480//477 477//474 559//523 
f 477//474 195//195 559//523 
f 195//195 192//192 559//523 
f 192//192 480//477 559//523 
f 477//474 474//471 560//523 
f 474//471 198//198 560//523 
f 198//198 195//195 560//523 
f 195//195 477//474 560//523 
f 474//471 471//468 561//523 
f 471//468 201//201 561//523 
f 201//201 198//198 561//523 
f 198//198 474//471 561//523 
f 471//468 468//465 562//523 
f 468//465 204//204 562//523 
f 204//204 201//201 562//523 
f 201//201 471//468 562//523 
f 93//93 210//209 563//523 
f 210//209 207//207 563//523 
f 207//207 204//204 563//523 
f 204//204 93//93 563//523 
f 90//90 87//87 564//523 
f 87//87 84//84 564//523 
f 84//84 216//215 564//523 
f 216//215 213//212 564//523 
f 213//212 90//90 564//523 
f 204//204 468//465 526//523 
f 468//465 465//462 526//523 
f 93//93 204//204 526//523 
f 84//84 81//81 565//523 
f 81//81 222//220 565//523 
f 222//220 219//218 565//523 
f 219//218 216//215 565//523 
f 216//215 84//84 565//523 
f 213//212 210//209 566//523 
f 210//209 93//93 566//523 
f 93//93 90//90 566//523 
f 90//90 213//212 566//523 
f 81//81 567//523 345//342 568//523 
f 345//342 342//339 568//523 
f 342//339 81//81 568//523 
f 342//339 339//336 569//523 
f 339//336 222//220 569//523 
f 222//220 81//81 569//523 
f 81//81 342//339 569//523 
f 339//336 336//333 570//523 
f 336//333 222//220 570//523 
f 222//220 339//336 570//523 
f 336//333 333//330 571//523 
f 333//330 222//220 571//523 
f 222//220 336//333 571//523 
f 333//330 330//327 572//523 
f 330//327 222//220 572//523 
f 222//220 333//330 572//523 
f 330//327 327//324 573//523 
f 327//324 306//303 573//523 
f 306//303 222//220 573//523 
f 222//220 330//327 573//523 
f 327//324 324//321 574//523 
f 324//321 2//2 574//523 
f 2//2 1//1 574//523 
f 1//1 306//303 574//523 
f 306//303 327//324 574//523 
f 306//303 303//300 575//523 
f 303//300 231//228 575//523 
f 231//228 228//225 575//523 
f 228//225 225//222 575//523 
f 225//222 222//220 575//523 
f 222//220 306//303 575//523 
f 303//300 300//297 576//523 
f 300//297 237//234 576//523 
f 237//234 234//231 576//523 
f 234//231 231//228 576//523 
f 231//228 303//300 576//523 
f 300//297 297//294 577//523 
f 297//294 243//240 577//523 
f 243//240 240//237 577//523 
f 240//237 237//234 577//523 
f 237//234 300//297 577//523 
f 297//294 294//291 578//523 
f 294//291 246//243 578//523 
f 246//243 243//240 578//523 
f 243//240 297//294 578//523 
f 294//291 291//288 579//523 
f 291//288 252//249 579//523 
f 252//249 249//246 579//523 
f 249//246 246//243 579//523 
f 246//243 294//291 579//523 
f 291//288 288//285 580//523 
f 288//285 258//255 580//523 
f 258//255 255//252 580//523 
f 255//252 252//249 580//523 
f 252//249 291//288 580//523 
f 288//285 285//282 581//523 
f 285//282 264//261 581//523 
f 264//261 261//258 581//523 
f 261//258 258//255 581//523 
f 258//255 288//285 581//523 
f 285//282 282//279 582//523 
f 282//279 276//273 582//523 
f 276//273 273//270 582//523 
f 273//270 270//267 582//523 
f 270//267 267//264 582//523 
f 267//264 264//261 582//523 
f 264//261 285//282 582//523 
f 282//279 279//276 583//523 
f 279//276 276//273 583//523 
f 276//273 282//279 583//523 
f 324//321 321//318 584//523 
f 321//318 6//6 584//523 
f 6//6 2//2 584//523 
f 2//2 324//321 584//523 
f 321//318 318//315 585//523 
f 318//315 12//12 585//523 
f 12//12 9//9 585//523 
f 9//9 6//6 585//523 
f 6//6 321//318 585//523 
f 318//315 315//312 586//523 
f 315//312 15//15 586//523 
f 15//15 12//12 586//523 
f 12//12 318//315 586//523 
f 315//312 311//308 587//523 
f 311//308 18//18 587//523 
f 18//18 15//15 587//523 
f 15//15 315//312 587//523 
f 311//308 310//307 588//523 
f 310//307 21//21 588//523 
f 21//21 18//18 588//523 
f 18//18 311//308 588//523 
f 310//307 414//411 589//523 
f 414//411 24//24 589//523 
f 24//24 21//21 589//523 
f 21//21 310//307 589//523 
f 414//411 411//408 590//523 
f 411//408 27//27 590//523 
f 27//27 24//24 590//523 
f 24//24 414//411 590//523 
f 411//408 408//405 591//523 
f 408//405 27//27 591//523 
f 27//27 411//408 591//523 
f 408//405 405//402 592//523 
f 405//402 30//30 592//523 
f 30//30 27//27 592//523 
f 27//27 408//405 592//523 
f 405//402 402//399 593//523 
f 402//399 33//33 593//523 
f 33//33 30//30 593//523 
f 30//30 405//402 593//523 
f 402//399 399//396 594//523 
f 399//396 36//36 594//523 
f 36//36 33//33 594//523 
f 33//33 402//399 594//523 
f 399//396 396//393 595//523 
f 396//393 39//39 595//523 
f 39//39 36//36 595//523 
f 36//36 399//396 595//523 
f 396//393 393//390 596//523 
f 393//390 42//42 596//523 
f 42//42 39//39 596//523 
f 39//39 396//393 596//523 
f 393//390 390//387 597//523 
f 390//387 48//48 597//523 
f 48//48 45//45 597//523 
f 45//45 42//42 597//523 
f 42//42 393//390 597//523 
f 390//387 387//384 598//523 
f 387//384 51//51 598//523 
f 51//51 48//48 598//523 
f 48//48 390//387 598//523 
f 387//384 384//381 599//523 
f 384//381 54//54 599//523 
f 54//54 51//51 599//523 
f 51//51 387//384 599//523 
f 384//381 381//378 600//523 
f 381//378 57//57 600//523 
f 57//57 54//54 600//523 
f 54//54 384//381 600//523 
f 381//378 378//375 601//523 
f 378//375 63//63 601//523 
f 63//63 60//60 601//523 
f 60//60 57//57 601//523 
f 57//57 381//378 601//523 
f 378//375 375//372 602//523 
f 375//372 69//69 602//523 
f 69//69 66//66 602//523 
f 66//66 63//63 602//523 
f 63//63 378//375 602//523 
f 375//372 372//369 603//523 
f 372//369 72//72 603//523 
f 72//72 69//69 603//523 
f 69//69 375//372 603//523 
f 372//369 369//366 604//523 
f 369//366 72//72 604//523 
f 72//72 372//369 604//523 
f 369//366 366//363 605//523 
f 366//363 75//75 605//523 
f 75//75 72//72 605//523 
f 72//72 369//366 605//523 
f 366//363 363//360 606//523 
f 363//360 78//78 606//523 
f 78//78 75//75 606//523 
f 75//75 366//363 606//523 
f 363//360 360//357 607//523 
f 360//357 78//78 607//523 
f 78//78 363//360 607//523 
f 360//357 357//354 608//523 
f 357//354 81//81 608//523 
f 81//81 78//78 608//523 
f 78//78 360//357 608//523 
f 357//354 354//351 609//523 
f 354//351 81//81 609//523 
f 81//81 357//354 609//523 
f 354//351 351//348 610//523 
f 351//348 81//81 610//523 
f 81//81 354//351 610//523 
f 351//348 348//345 611//523 
f 348//345 81//81 611//523 
f 81//81 351//348 611//523 
f 348//345 345//342 567//523 
f 81//81 348//345 567//523 
f 443//440 446//443 612//524 
f 446//443 95//95 612//524 
f 95//95 98//98 612//524 
f 98//98 101//101 612//524 
f 101//101 443//440 612//524 
f 212//211 215//214 613//524 
f 215//214 92//92 613//524 
f 92//92 95//95 613//524 
f 95//95 212//211 613//524 
f 470//467 473//470 614//524 
f 473//470 203//203 614//524 
f 203//203 206//206 614//524 
f 206//206 470//467 614//524 
f 473//470 476//473 615//524 
f 476//473 200//200 615//524 
f 200//200 203//203 615//524 
f 203//203 473//470 615//524 
f 476//473 479//476 616//524 
f 479//476 197//197 616//524 
f 197//197 200//200 616//524 
f 200//200 476//473 616//524 
f 479//476 482//479 617//524 
f 482//479 194//194 617//524 
f 194//194 197//197 617//524 
f 197//197 479//476 617//524 
f 482//479 485//482 618//524 
f 485//482 191//191 618//524 
f 191//191 194//194 618//524 
f 194//194 482//479 618//524 
f 485//482 488//485 619//524 
f 488//485 188//188 619//524 
f 188//188 191//191 619//524 
f 191//191 485//482 619//524 
f 488//485 491//488 620//524 
f 491//488 185//185 620//524 
f 185//185 188//188 620//524 
f 188//188 488//485 620//524 
f 491//488 494//491 621//524 
f 494//491 182//182 621//524 
f 182//182 185//185 621//524 
f 185//185 491//488 621//524 
f 494//491 497//494 622//524 
f 497//494 179//179 622//524 
f 179//179 182//182 622//524 
f 182//182 494//491 622//524 
f 497//494 500//497 623//524 
f 500//497 173//173 623//524 
f 173//173 176//176 623//524 
f 176//176 179//179 623//524 
f 179//179 497//494 623//524 
f 500//497 503//500 624//524 
f 503//500 167//167 624//524 
f 167//167 170//170 624//524 
f 170//170 173//173 624//524 
f 173//173 500//497 624//524 
f 503//500 506//503 625//524 
f 506//503 161//161 625//524 
f 161//161 164//164 625//524 
f 164//164 167//167 625//524 
f 167//167 503//500 625//524 
f 506//503 509//506 626//524 
f 509//506 155//155 626//524 
f 155//155 158//158 626//524 
f 158//158 161//161 626//524 
f 161//161 506//503 626//524 
f 509//506 512//509 627//524 
f 512//509 146//146 627//524 
f 146//146 149//149 627//524 
f 149//149 152//152 627//524 
f 152//152 155//155 627//524 
f 155//155 509//506 627//524 
f 512//509 515//512 628//524 
f 515//512 140//140 628//524 
f 140//140 143//143 628//524 
f 143//143 146//146 628//524 
f 146//146 512//509 628//524 
f 515//512 518//515 629//524 
f 518//515 134//134 629//524 
f 134//134 137//137 629//524 
f 137//137 140//140 629//524 
f 140//140 515//512 629//524 
f 518//515 521//518 630//524 
f 521//518 128//128 630//524 
f 128//128 131//131 630//524 
f 131//131 134//134 630//524 
f 134//134 518//515 630//524 
f 521//518 524//521 631//524 
f 524//521 125//125 631//524 
f 125//125 128//128 631//524 
f 128//128 521//518 631//524 
f 524//521 422//419 632//524 
f 422//419 122//122 632//524 
f 122//122 125//125 632//524 
f 125//125 524//521 632//524 
f 422//419 421//418 633//524 
f 421//418 122//122 633//524 
f 122//122 422//419 633//524 
f 421//418 425//422 634//524 
f 425//422 119//119 634//524 
f 119//119 122//122 634//524 
f 122//122 421//418 634//524 
f 425//422 428//425 635//524 
f 428//425 116//116 635//524 
f 116//116 119//119 635//524 
f 119//119 425//422 635//524 
f 428//425 431//428 636//524 
f 431//428 113//113 636//524 
f 113//113 116//116 636//524 
f 116//116 428//425 636//524 
f 431//428 434//431 637//524 
f 434//431 110//110 637//524 
f 110//110 113//113 637//524 
f 113//113 431//428 637//524 
f 434//431 437//434 638//524 
f 437//434 107//107 638//524 
f 107//107 110//110 638//524 
f 110//110 434//431 638//524 
f 437//434 440//437 639//524 
f 440//437 104//104 639//524 
f 104//104 107//107 639//524 
f 107//107 437//434 639//524 
f 440//437 443//440 640//524 
f 443//440 101//101 640//524 
f 101//101 104//104 640//524 
f 104//104 440//437 640//524 
f 224//221 329//326 641//524 
f 329//326 332//329 641//524 
f 332//329 224//221 641//524 
f 467//464 206//206 642//524 
f 206//206 209//208 642//524 
f 209//208 212//211 642//524 
f 212//211 95//95 642//524 
f 278//275 281//278 643//524 
f 281//278 284//281 643//524 
f 284//281 278//275 643//524 
f 332//329 335//332 644//524 
f 335//332 224//221 644//524 
f 224//221 332//329 644//524 
f 335//332 338//335 645//524 
f 338//335 224//221 645//524 
f 224//221 335//332 645//524 
f 338//335 341//338 646//524 
f 341//338 224//221 646//524 
f 224//221 338//335 646//524 
f 341//338 344//341 647//524 
f 344//341 83//83 647//524 
f 83//83 224//221 647//524 
f 224//221 341//338 647//524 
f 344//341 347//344 648//524 
f 347//344 649//524 83//83 648//524 
f 83//83 344//341 648//524 
f 83//83 86//86 650//524 
f 86//86 218//217 650//524 
f 218//217 221//219 650//524 
f 221//219 224//221 650//524 
f 224//221 83//83 650//524 
f 86//86 89//89 651//524 
f 89//89 92//92 651//524 
f 92//92 215//214 651//524 
f 215//214 218//217 651//524 
f 218//217 86//86 651//524 
f 284//281 287//284 652//524 
f 287//284 266//263 652//524 
f 266//263 269//266 652//524 
f 269//266 272//269 652//524 
f 272//269 275//272 652//524 
f 275//272 278//275 652//524 
f 278//275 284//281 652//524 
f 287//284 290//287 653//524 
f 290//287 260//257 653//524 
f 260//257 263//260 653//524 
f 263//260 266//263 653//524 
f 266//263 287//284 653//524 
f 290//287 293//290 654//524 
f 293//290 254//251 654//524 
f 254//251 257//254 654//524 
f 257//254 260//257 654//524 
f 260//257 290//287 654//524 
f 293//290 296//293 655//524 
f 296//293 248//245 655//524 
f 248//245 251//248 655//524 
f 251//248 254//251 655//524 
f 254//251 293//290 655//524 
f 296//293 299//296 656//524 
f 299//296 245//242 656//524 
f 245//242 248//245 656//524 
f 248//245 296//293 656//524 
f 299//296 302//299 657//524 
f 302//299 239//236 657//524 
f 239//236 242//239 657//524 
f 242//239 245//242 657//524 
f 245//242 299//296 657//524 
f 302//299 305//302 658//524 
f 305//302 233//230 658//524 
f 233//230 236//233 658//524 
f 236//233 239//236 658//524 
f 239//236 302//299 658//524 
f 305//302 308//305 659//524 
f 308//305 224//221 659//524 
f 224//221 227//224 659//524 
f 227//224 230//227 659//524 
f 230//227 233//230 659//524 
f 233//230 305//302 659//524 
f 347//344 350//347 649//524 
f 350//347 83//83 649//524 
f 350//347 353//350 660//524 
f 353//350 83//83 660//524 
f 83//83 350//347 660//524 
f 353//350 356//353 661//524 
f 356//353 83//83 661//524 
f 83//83 353//350 661//524 
f 356//353 359//356 662//524 
f 359//356 83//83 662//524 
f 83//83 356//353 662//524 
f 359//356 362//359 663//524 
f 362//359 80//80 663//524 
f 80//80 83//83 663//524 
f 83//83 359//356 663//524 
f 362//359 365//362 664//524 
f 365//362 80//80 664//524 
f 80//80 362//359 664//524 
f 365//362 368//365 665//524 
f 368//365 77//77 665//524 
f 77//77 80//80 665//524 
f 80//80 365//362 665//524 
f 368//365 371//368 666//524 
f 371//368 74//74 666//524 
f 74//74 77//77 666//524 
f 77//77 368//365 666//524 
f 371//368 374//371 667//524 
f 374//371 74//74 667//524 
f 74//74 371//368 667//524 
f 374//371 377//374 668//524 
f 377//374 71//71 668//524 
f 71//71 74//74 668//524 
f 74//74 374//371 668//524 
f 377//374 380//377 669//524 
f 380//377 65//65 669//524 
f 65//65 68//68 669//524 
f 68//68 71//71 669//524 
f 71//71 377//374 669//524 
f 380//377 383//380 670//524 
f 383//380 59//59 670//524 
f 59//59 62//62 670//524 
f 62//62 65//65 670//524 
f 65//65 380//377 670//524 
f 383//380 386//383 671//524 
f 386//383 56//56 671//524 
f 56//56 59//59 671//524 
f 59//59 383//380 671//524 
f 386//383 389//386 672//524 
f 389//386 53//53 672//524 
f 53//53 56//56 672//524 
f 56//56 386//383 672//524 
f 389//386 392//389 673//524 
f 392//389 50//50 673//524 
f 50//50 53//53 673//524 
f 53//53 389//386 673//524 
f 392//389 395//392 674//524 
f 395//392 44//44 674//524 
f 44//44 47//47 674//524 
f 47//47 50//50 674//524 
f 50//50 392//389 674//524 
f 395//392 398//395 675//524 
f 398//395 41//41 675//524 
f 41//41 44//44 675//524 
f 44//44 395//392 675//524 
f 398//395 401//398 676//524 
f 401//398 38//38 676//524 
f 38//38 41//41 676//524 
f 41//41 398//395 676//524 
f 401//398 404//401 677//524 
f 404//401 35//35 677//524 
f 35//35 38//38 677//524 
f 38//38 401//398 677//524 
f 404//401 407//404 678//524 
f 407//404 32//32 678//524 
f 32//32 35//35 678//524 
f 35//35 404//401 678//524 
f 407//404 410//407 679//524 
f 410//407 29//29 679//524 
f 29//29 32//32 679//524 
f 32//32 407//404 679//524 
f 410//407 413//410 680//524 
f 413//410 29//29 680//524 
f 29//29 410//407 680//524 
f 413//410 416//413 681//524 
f 416//413 26//26 681//524 
f 26//26 29//29 681//524 
f 29//29 413//410 681//524 
f 416//413 314//311 682//524 
f 314//311 23//23 682//524 
f 23//23 26//26 682//524 
f 26//26 416//413 682//524 
f 314//311 313//310 683//524 
f 313//310 20//20 683//524 
f 20//20 23//23 683//524 
f 23//23 314//311 683//524 
f 313//310 317//314 684//524 
f 317//314 17//17 684//524 
f 17//17 20//20 684//524 
f 20//20 313//310 684//524 
f 317//314 320//317 685//524 
f 320//317 14//14 685//524 
f 14//14 17//17 685//524 
f 17//17 317//314 685//524 
f 320//317 323//320 686//524 
f 323//320 8//8 686//524 
f 8//8 11//11 686//524 
f 11//11 14//14 686//524 
f 14//14 320//317 686//524 
f 323//320 326//323 687//524 
f 326//323 4//4 687//524 
f 4//4 8//8 687//524 
f 8//8 323//320 687//524 
f 326//323 329//326 688//524 
f 329//326 224//221 688//524 
f 224//221 308//305 688//524 
f 308//305 5//5 688//524 
f 5//5 4//4 688//524 
f 4//4 326//323 688//524 
f 446//443 449//446 689//524 
f 449//446 95//95 689//524 
f 95//95 446//443 689//524 
f 449//446 452//449 690//524 
f 452//449 95//95 690//524 
f 95//95 449//446 690//524 
f 452//449 455//452 691//524 
f 455//452 95//95 691//524 
f 95//95 452//449 691//524 
f 455//452 458//455 692//524 
f 458//455 95//95 692//524 
f 95//95 455//452 692//524 
f 458//455 461//458 693//524 
f 461//458 95//95 693//524 
f 95//95 458//455 693//524 
f 461//458 464//461 694//524 
f 464//461 95//95 694//524 
f 95//95 461//458 694//524 
f 464//461 467//464 695//524 
f 467//464 642//524 95//95 695//524 
f 95//95 464//461 695//524 
# 4 polygons - 1386 triangles

