# 3ds Max Wavefront OBJ Exporter v0.97b - (c)2007 guruware
# File Created: 10.09.2021 11:12:02

#
# object O_An
#

v  1606.6244 0.0000 37.6101
v  1608.5027 0.0000 37.2918
v  1607.5636 5.0000 37.4509
v  1608.5027 10.0000 37.2918
v  1606.6244 10.0000 37.6101
v  1610.1306 0.0000 36.7614
v  1609.3167 5.0000 37.0266
v  1610.1306 10.0000 36.7614
v  1611.5081 0.0000 36.0187
v  1610.8193 5.0000 36.3900
v  1611.5081 10.0000 36.0187
v  1612.6350 0.0000 35.0639
v  1612.0715 5.0000 35.5413
v  1612.6350 10.0000 35.0639
v  1613.5116 0.0000 33.8969
v  1613.0732 5.0000 34.4804
v  1613.5116 10.0000 33.8969
v  1614.1377 0.0000 32.5178
v  1613.8246 5.0000 33.2073
v  1614.1377 10.0000 32.5178
v  1614.5133 0.0000 30.9264
v  1614.3256 5.0000 31.7221
v  1614.5133 10.0000 30.9264
v  1614.6385 0.0000 29.1229
v  1614.5759 5.0000 30.0246
v  1614.6385 10.0000 29.1229
v  1614.5247 0.0000 27.2433
v  1614.5817 5.0000 28.1831
v  1614.5247 10.0000 27.2433
v  1614.1829 0.0000 25.5849
v  1614.3538 5.0000 26.4141
v  1614.1829 10.0000 25.5849
v  1613.6133 0.0000 24.1476
v  1613.8981 5.0000 24.8662
v  1613.6133 10.0000 24.1476
v  1612.8159 0.0000 22.9314
v  1613.2146 5.0000 23.5395
v  1612.8159 10.0000 22.9314
v  1611.7906 0.0000 21.9363
v  1612.3032 5.0000 22.4339
v  1611.7906 10.0000 21.9363
v  1610.5376 0.0000 21.1624
v  1611.1641 5.0000 21.5494
v  1610.5376 10.0000 21.1624
v  1609.0566 0.0000 20.6096
v  1609.7971 5.0000 20.8860
v  1609.0566 10.0000 20.6096
v  1607.3479 0.0000 20.2779
v  1608.2023 5.0000 20.4437
v  1607.3479 10.0000 20.2779
v  1605.4114 0.0000 20.1673
v  1606.3796 5.0000 20.2226
v  1605.4114 10.0000 20.1673
v  1603.1580 0.0000 20.3029
v  1604.2847 5.0000 20.2351
v  1603.1580 10.0000 20.3029
v  1601.1697 0.0000 20.7096
v  1602.1638 5.0000 20.5062
v  1601.1697 10.0000 20.7096
v  1599.4465 0.0000 21.3874
v  1600.3081 5.0000 21.0485
v  1599.4465 10.0000 21.3874
v  1597.9885 0.0000 22.3363
v  1598.7175 5.0000 21.8619
v  1597.9885 10.0000 22.3363
v  1596.7955 0.0000 23.5564
v  1597.3921 5.0000 22.9464
v  1596.7955 10.0000 23.5564
v  1595.8677 0.0000 25.0476
v  1596.3317 5.0000 24.3020
v  1595.8677 10.0000 25.0476
v  1595.2050 0.0000 26.8099
v  1595.5364 5.0000 25.9288
v  1595.2050 10.0000 26.8099
v  1594.8074 0.0000 28.8434
v  1595.0061 5.0000 27.8266
v  1594.8074 10.0000 28.8434
v  1594.6748 0.0000 31.1479
v  1594.7411 5.0000 29.9957
v  1594.6748 10.0000 31.1479
v  1594.6748 0.0000 44.7246
v  1594.6748 5.0000 37.9363
v  1594.6748 10.0000 44.7246
v  1594.7118 0.0000 45.6554
v  1594.6934 5.0000 45.1900
v  1594.7118 10.0000 45.6554
v  1594.8231 0.0000 46.5437
v  1594.7675 5.0000 46.0996
v  1594.8231 10.0000 46.5437
v  1595.0085 0.0000 47.3896
v  1594.9158 5.0000 46.9667
v  1595.0085 10.0000 47.3896
v  1595.2681 0.0000 48.1930
v  1595.1383 5.0000 47.7913
v  1595.2681 10.0000 48.1930
v  1595.6018 0.0000 48.9540
v  1595.4349 5.0000 48.5735
v  1595.6018 10.0000 48.9540
v  1596.0098 0.0000 49.6725
v  1595.8058 5.0000 49.3133
v  1596.0098 10.0000 49.6725
v  1596.4918 0.0000 50.3486
v  1596.2507 5.0000 50.0106
v  1596.4918 10.0000 50.3486
v  1597.0480 0.0000 50.9822
v  1596.7699 5.0000 50.6654
v  1597.0480 10.0000 50.9822
v  1597.6783 0.0000 51.5733
v  1597.3632 5.0000 51.2778
v  1597.6783 10.0000 51.5733
v  1598.3680 0.0000 52.1116
v  1598.0232 5.0000 51.8425
v  1598.3680 10.0000 52.1116
v  1599.1023 0.0000 52.5865
v  1598.7352 5.0000 52.3491
v  1599.1023 10.0000 52.5865
v  1599.8810 0.0000 52.9982
v  1599.4916 5.0000 52.7924
v  1599.8810 10.0000 52.9982
v  1600.7041 0.0000 53.3464
v  1600.2925 5.0000 53.1723
v  1600.7041 10.0000 53.3464
v  1601.5717 0.0000 53.6314
v  1601.1378 5.0000 53.4889
v  1601.5717 10.0000 53.6314
v  1602.4838 0.0000 53.8530
v  1602.0277 5.0000 53.7422
v  1602.4838 10.0000 53.8530
v  1603.4403 0.0000 54.0114
v  1602.9620 5.0000 53.9322
v  1603.4403 10.0000 54.0114
v  1604.4413 0.0000 54.1063
v  1603.9408 5.0000 54.0588
v  1604.4413 10.0000 54.1063
v  1605.4868 0.0000 54.1380
v  1604.9641 5.0000 54.1222
v  1605.4868 10.0000 54.1380
v  1622.4243 0.0000 54.1380
v  1613.9556 5.0000 54.1380
v  1622.4243 10.0000 54.1380
v  1624.8451 0.0000 54.0000
v  1623.6348 5.0000 54.0690
v  1624.8451 10.0000 54.0000
v  1626.9810 0.0000 53.5862
v  1625.9131 5.0000 53.7931
v  1626.9810 10.0000 53.5862
v  1628.8322 0.0000 52.8964
v  1627.9066 5.0000 53.2413
v  1628.8322 10.0000 52.8964
v  1630.3984 0.0000 51.9307
v  1629.6154 5.0000 52.4136
v  1630.3984 10.0000 51.9307
v  1631.6801 0.0000 50.6891
v  1631.0393 5.0000 51.3099
v  1631.6801 10.0000 50.6891
v  1632.6768 0.0000 49.1716
v  1632.1785 5.0000 49.9304
v  1632.6768 10.0000 49.1716
v  1633.3888 0.0000 47.3782
v  1633.0328 5.0000 48.2749
v  1633.3888 10.0000 47.3782
v  1633.8159 0.0000 45.3089
v  1633.6024 5.0000 46.3436
v  1633.8159 10.0000 45.3089
v  1633.9584 0.0000 42.9637
v  1633.8872 5.0000 44.1363
v  1633.9584 10.0000 42.9637
v  1633.9584 0.0000 20.6176
v  1633.9584 5.0000 31.7907
v  1633.9584 10.0000 20.6176
v  1633.6925 0.0000 17.2455
v  1633.8254 5.0000 18.9316
v  1633.6925 10.0000 17.2455
v  1632.8951 0.0000 14.2701
v  1633.2938 5.0000 15.7578
v  1632.8951 10.0000 14.2701
v  1631.5660 0.0000 11.6915
v  1632.2306 5.0000 12.9808
v  1631.5660 10.0000 11.6915
v  1629.7053 0.0000 9.5095
v  1630.6357 5.0000 10.6005
v  1629.7053 10.0000 9.5095
v  1627.3130 0.0000 7.7243
v  1628.5092 5.0000 8.6169
v  1627.3130 10.0000 7.7243
v  1624.3890 0.0000 6.3357
v  1625.8510 5.0000 7.0300
v  1624.3890 10.0000 6.3357
v  1620.9335 0.0000 5.3439
v  1622.6613 5.0000 5.8398
v  1620.9335 10.0000 5.3439
v  1616.9462 0.0000 4.7489
v  1618.9398 5.0000 5.0464
v  1616.9462 10.0000 4.7489
v  1612.4274 0.0000 4.5505
v  1614.6868 5.0000 4.6497
v  1612.4274 10.0000 4.5505
v  1609.1611 0.0000 4.6666
v  1610.7942 5.0000 4.6085
v  1609.1611 10.0000 4.6666
v  1606.1334 0.0000 5.0147
v  1607.6472 5.0000 4.8407
v  1606.1334 10.0000 5.0147
v  1603.3441 0.0000 5.5950
v  1604.7388 5.0000 5.3049
v  1603.3441 10.0000 5.5950
v  1600.7932 0.0000 6.4074
v  1602.0686 5.0000 6.0012
v  1600.7932 10.0000 6.4074
v  1598.4808 0.0000 7.4520
v  1599.6371 5.0000 6.9297
v  1598.4808 10.0000 7.4520
v  1596.4069 0.0000 8.7286
v  1597.4438 5.0000 8.0903
v  1596.4069 10.0000 8.7286
v  1594.5714 0.0000 10.2374
v  1595.4891 5.0000 9.4830
v  1594.5714 10.0000 10.2374
v  1592.9744 0.0000 11.9783
v  1593.7729 5.0000 11.1078
v  1592.9744 10.0000 11.9783
v  1591.6158 0.0000 13.9513
v  1592.2950 5.0000 12.9648
v  1591.6158 10.0000 13.9513
v  1598.0004 0.0000 18.0744
v  1594.8081 5.0000 16.0128
v  1598.0004 10.0000 18.0744
v  1598.9817 0.0000 16.5200
v  1598.4910 5.0000 17.2972
v  1598.9817 10.0000 16.5200
v  1600.1221 0.0000 15.1486
v  1599.5519 5.0000 15.8343
v  1600.1221 10.0000 15.1486
v  1601.4216 0.0000 13.9600
v  1600.7719 5.0000 14.5543
v  1601.4216 10.0000 13.9600
v  1602.8802 0.0000 12.9542
v  1602.1510 5.0000 13.4571
v  1602.8802 10.0000 12.9542
v  1604.4980 0.0000 12.1313
v  1603.6892 5.0000 12.5428
v  1604.4980 10.0000 12.1313
v  1606.2750 0.0000 11.4913
v  1605.3866 5.0000 11.8113
v  1606.2750 10.0000 11.4913
v  1608.2111 0.0000 11.0342
v  1607.2430 5.0000 11.2627
v  1608.2111 10.0000 11.0342
v  1610.3063 0.0000 10.7599
v  1609.2587 5.0000 10.8970
v  1610.3063 10.0000 10.7599
v  1612.5607 0.0000 10.6684
v  1611.4335 5.0000 10.7142
v  1612.5607 10.0000 10.6684
v  1614.9904 0.0000 10.7843
v  1613.7755 5.0000 10.7264
v  1614.9904 10.0000 10.7843
v  1617.1343 0.0000 11.1321
v  1616.0623 5.0000 10.9582
v  1617.1343 10.0000 11.1321
v  1618.9922 0.0000 11.7116
v  1618.0632 5.0000 11.4218
v  1618.9922 10.0000 11.7116
v  1620.5643 0.0000 12.5229
v  1619.7783 5.0000 12.1172
v  1620.5643 10.0000 12.5229
v  1621.8507 0.0000 13.5660
v  1621.2075 5.0000 13.0445
v  1621.8507 10.0000 13.5660
v  1622.8512 0.0000 14.8410
v  1622.3510 5.0000 14.2035
v  1622.8512 10.0000 14.8410
v  1623.5658 0.0000 16.3477
v  1623.2085 5.0000 15.5944
v  1623.5658 10.0000 16.3477
v  1623.9945 0.0000 18.0863
v  1623.7802 5.0000 17.2170
v  1623.9945 10.0000 18.0863
v  1624.1375 0.0000 20.0567
v  1624.0660 5.0000 19.0715
v  1624.1375 10.0000 20.0567
v  1624.1375 0.0000 41.4795
v  1624.1375 5.0000 30.7681
v  1624.1375 10.0000 41.4795
v  1624.0760 0.0000 42.7171
v  1624.1068 5.0000 42.0983
v  1624.0760 10.0000 42.7171
v  1623.8920 0.0000 43.8090
v  1623.9840 5.0000 43.2630
v  1623.8920 10.0000 43.8090
v  1623.5852 0.0000 44.7554
v  1623.7385 5.0000 44.2822
v  1623.5852 10.0000 44.7554
v  1623.1556 0.0000 45.5561
v  1623.3704 5.0000 45.1558
v  1623.1556 10.0000 45.5561
v  1622.6033 0.0000 46.2113
v  1622.8794 5.0000 45.8837
v  1622.6033 10.0000 46.2113
v  1621.9282 0.0000 46.7209
v  1622.2657 5.0000 46.4661
v  1621.9282 10.0000 46.7209
v  1621.1304 0.0000 47.0849
v  1621.5293 5.0000 46.9029
v  1621.1304 10.0000 47.0849
v  1620.2100 0.0000 47.3033
v  1620.6702 5.0000 47.1941
v  1620.2100 10.0000 47.3033
v  1619.1666 0.0000 47.3761
v  1619.6882 5.0000 47.3397
v  1619.1666 10.0000 47.3761
v  1608.9911 0.0000 47.3761
v  1614.0789 5.0000 47.3761
v  1608.9911 10.0000 47.3761
v  1608.0476 0.0000 47.3201
v  1608.5193 5.0000 47.3481
v  1608.0476 10.0000 47.3201
v  1607.2151 0.0000 47.1523
v  1607.6313 5.0000 47.2362
v  1607.2151 10.0000 47.1523
v  1606.4937 0.0000 46.8727
v  1606.8544 5.0000 47.0125
v  1606.4937 10.0000 46.8727
v  1605.8832 0.0000 46.4811
v  1606.1884 5.0000 46.6769
v  1605.8832 10.0000 46.4811
v  1605.3837 0.0000 45.9777
v  1605.6334 5.0000 46.2294
v  1605.3837 10.0000 45.9777
v  1604.9951 0.0000 45.3625
v  1605.1895 5.0000 45.6701
v  1604.9951 10.0000 45.3625
v  1604.7177 0.0000 44.6353
v  1604.8564 5.0000 44.9989
v  1604.7177 10.0000 44.6353
v  1604.5511 0.0000 43.7963
v  1604.6344 5.0000 44.2158
v  1604.5511 10.0000 43.7963
v  1604.4956 0.0000 42.8455
v  1604.5234 5.0000 43.3209
v  1604.4956 10.0000 42.8455
v  1604.4956 0.0000 37.7162
v  1604.4956 5.0000 40.2808
v  1604.4956 10.0000 37.7162
v  1605.5601 5.0000 37.6631
v  1606.0719 0.0000 25.0453
v  1606.7968 0.0000 25.1892
v  1606.4343 5.0000 25.1173
v  1606.7968 10.0000 25.1892
v  1606.0719 10.0000 25.0453
v  1607.4249 0.0000 25.4291
v  1607.1108 5.0000 25.3092
v  1607.4249 10.0000 25.4291
v  1607.9565 0.0000 25.7650
v  1607.6907 5.0000 25.5971
v  1607.9565 10.0000 25.7650
v  1608.3915 0.0000 26.1969
v  1608.1740 5.0000 25.9809
v  1608.3915 10.0000 26.1969
v  1608.7297 0.0000 26.7247
v  1608.5605 5.0000 26.4608
v  1608.7297 10.0000 26.7247
v  1608.9713 0.0000 27.3484
v  1608.8505 5.0000 27.0366
v  1608.9713 10.0000 27.3484
v  1609.1163 0.0000 28.0682
v  1609.0438 5.0000 27.7083
v  1609.1163 10.0000 28.0682
v  1609.1647 0.0000 28.8839
v  1609.1405 5.0000 28.4760
v  1609.1647 10.0000 28.8839
v  1609.1163 0.0000 29.7239
v  1609.1405 5.0000 29.3039
v  1609.1163 10.0000 29.7239
v  1608.9713 0.0000 30.4651
v  1609.0438 5.0000 30.0945
v  1608.9713 10.0000 30.4651
v  1608.7297 0.0000 31.1074
v  1608.8505 5.0000 30.7862
v  1608.7297 10.0000 31.1074
v  1608.3915 0.0000 31.6509
v  1608.5605 5.0000 31.3792
v  1608.3915 10.0000 31.6509
v  1607.9565 0.0000 32.0956
v  1608.1740 5.0000 31.8733
v  1607.9565 10.0000 32.0956
v  1607.4249 0.0000 32.4415
v  1607.6907 5.0000 32.2686
v  1607.4249 10.0000 32.4415
v  1606.7968 0.0000 32.6886
v  1607.1108 5.0000 32.5650
v  1606.7968 10.0000 32.6886
v  1606.0719 0.0000 32.8368
v  1606.4343 5.0000 32.7627
v  1606.0719 10.0000 32.8368
v  1605.2504 0.0000 32.8862
v  1605.6611 5.0000 32.8615
v  1605.2504 10.0000 32.8862
v  1604.4161 0.0000 32.8368
v  1604.8333 5.0000 32.8615
v  1604.4161 10.0000 32.8368
v  1603.6801 0.0000 32.6886
v  1604.0481 5.0000 32.7627
v  1603.6801 10.0000 32.6886
v  1603.0422 0.0000 32.4415
v  1603.3612 5.0000 32.5650
v  1603.0422 10.0000 32.4415
v  1602.5024 0.0000 32.0956
v  1602.7723 5.0000 32.2686
v  1602.5024 10.0000 32.0956
v  1602.0608 0.0000 31.6509
v  1602.2816 5.0000 31.8733
v  1602.0608 10.0000 31.6509
v  1601.7173 0.0000 31.1074
v  1601.8890 5.0000 31.3792
v  1601.7173 10.0000 31.1074
v  1601.4719 0.0000 30.4651
v  1601.5946 5.0000 30.7862
v  1601.4719 10.0000 30.4651
v  1601.3248 0.0000 29.7239
v  1601.3984 5.0000 30.0945
v  1601.3248 10.0000 29.7239
v  1601.2758 0.0000 28.8839
v  1601.3003 5.0000 29.3039
v  1601.2758 10.0000 28.8839
v  1601.3248 0.0000 28.0682
v  1601.3003 5.0000 28.4760
v  1601.3248 10.0000 28.0682
v  1601.4719 0.0000 27.3484
v  1601.3984 5.0000 27.7083
v  1601.4719 10.0000 27.3484
v  1601.7173 0.0000 26.7247
v  1601.5946 5.0000 27.0366
v  1601.7173 10.0000 26.7247
v  1602.0608 0.0000 26.1969
v  1601.8890 5.0000 26.4608
v  1602.0608 10.0000 26.1969
v  1602.5024 0.0000 25.7650
v  1602.2816 5.0000 25.9809
v  1602.5024 10.0000 25.7650
v  1603.0422 0.0000 25.4291
v  1602.7723 5.0000 25.5971
v  1603.0422 10.0000 25.4291
v  1603.6801 0.0000 25.1892
v  1603.3612 5.0000 25.3092
v  1603.6801 10.0000 25.1892
v  1604.4161 0.0000 25.0453
v  1604.0481 5.0000 25.1173
v  1604.4161 10.0000 25.0453
v  1605.2504 0.0000 24.9973
v  1604.8333 5.0000 25.0213
v  1605.2504 10.0000 24.9973
v  1605.6611 5.0000 25.0213
v  1603.7394 0.0000 34.2821
v  1595.3931 10.0000 15.1310
v  1604.1973 0.0000 34.4138
v  1604.7207 0.0000 34.4797
v  1605.6106 0.0000 35.2623
v  1606.9989 0.0000 35.1068
v  1608.2137 0.0000 34.7958
v  1609.2550 0.0000 34.3293
v  1610.1228 0.0000 33.7073
v  1610.8169 0.0000 32.9298
v  1611.3375 0.0000 31.9968
v  1611.6847 0.0000 30.9083
v  1611.8582 0.0000 29.6643
v  1611.8611 0.0000 28.3296
v  1611.6987 0.0000 27.0612
v  1611.3743 0.0000 25.9514
v  1610.8876 0.0000 25.0001
v  1610.2985 0.0000 23.5984
v  1608.7439 0.0000 23.2415
v  1607.6566 0.0000 22.8765
v  1606.7389 0.0000 23.5041
v  1606.0204 0.0000 22.6220
v  1604.5590 0.0000 22.6282
v  1603.7515 0.0000 23.5125
v  1602.7625 0.0000 22.9077
v  1601.5403 0.0000 23.3228
v  1600.4996 0.0000 23.9214
v  1599.6405 0.0000 24.7036
v  1598.9631 0.0000 25.6693
v  1598.4674 0.0000 26.8185
v  1598.1532 0.0000 28.1513
v  1598.0206 0.0000 29.6498
v  1599.1572 0.0000 30.4456
v  1598.1348 0.0000 34.3613
v  1599.4843 0.0000 35.8277
v  1599.7460 0.0000 36.1571
v  1604.0112 0.0000 37.6677
v  1601.8533 0.0000 39.1807
v  1598.0812 0.0000 45.4575
v  1598.6001 0.0000 47.3678
v  1599.4249 0.0000 49.4326
v  1601.5537 0.0000 50.5836
v  1603.4294 0.0000 51.3660
v  1605.4154 0.0000 51.2561
v  1606.9165 0.0000 49.5368
v  1607.5084 0.0000 49.6114
v  1611.2148 0.0000 49.6300
v  1614.9545 0.0000 49.6058
v  1617.3129 0.0000 50.6660
v  1622.5820 0.0000 50.4860
v  1624.0894 0.0000 50.1296
v  1626.3940 0.0000 50.0362
v  1628.2992 0.0000 48.4206
v  1629.4718 0.0000 46.0846
v  1628.9357 0.0000 43.6997
v  1627.3906 0.0000 42.3868
v  1629.0480 0.0000 31.2794
v  1628.9457 0.0000 19.0015
v  1628.5370 0.0000 16.4874
v  1628.1167 0.0000 13.3320
v  1625.4301 0.0000 11.4102
v  1623.5293 0.0000 10.0372
v  1621.2197 0.0000 8.9785
v  1618.5015 0.0000 8.2341
v  1616.3569 0.0000 8.8884
v  1614.2312 0.0000 7.6880
v  1611.1139 0.0000 7.6613
v  1608.4530 0.0000 7.8688
v  1605.9908 0.0000 8.2838
v  1603.7277 0.0000 8.9063
v  1601.6631 0.0000 9.7362
v  1599.7974 0.0000 10.7737
v  1598.1305 0.0000 12.0186
v  1596.6624 0.0000 13.4711
v  1595.3931 0.0000 15.1310
v  1596.6624 10.0000 13.4711
v  1598.1305 10.0000 12.0186
v  1599.7974 10.0000 10.7737
v  1601.6631 10.0000 9.7362
v  1603.7277 10.0000 8.9063
v  1605.9908 10.0000 8.2838
v  1608.4530 10.0000 7.8688
v  1611.1139 10.0000 7.6613
v  1614.2312 10.0000 7.6880
v  1616.3569 10.0000 8.8884
v  1618.5015 10.0000 8.2341
v  1621.2197 10.0000 8.9785
v  1623.5293 10.0000 10.0372
v  1625.4301 10.0000 11.4102
v  1628.1167 10.0000 13.3320
v  1628.5370 10.0000 16.4874
v  1628.9457 10.0000 19.0015
v  1629.0480 10.0000 31.2794
v  1627.3906 10.0000 42.3868
v  1628.9357 10.0000 43.6997
v  1629.4718 10.0000 46.0846
v  1628.2992 10.0000 48.4206
v  1626.3940 10.0000 50.0362
v  1624.0894 10.0000 50.1296
v  1622.5820 10.0000 50.4860
v  1617.3129 10.0000 50.6660
v  1614.9545 10.0000 49.6058
v  1611.2148 10.0000 49.6300
v  1607.5084 10.0000 49.6114
v  1606.9165 10.0000 49.5368
v  1605.4154 10.0000 51.2561
v  1603.4294 10.0000 51.3660
v  1601.5537 10.0000 50.5836
v  1599.4249 10.0000 49.4326
v  1598.6001 10.0000 47.3678
v  1598.0812 10.0000 45.4575
v  1601.8533 10.0000 39.1807
v  1604.0112 10.0000 37.6677
v  1603.7394 10.0000 34.2821
v  1599.7460 10.0000 36.1571
v  1599.4843 10.0000 35.8277
v  1598.1348 10.0000 34.3613
v  1599.1572 10.0000 30.4456
v  1598.0206 10.0000 29.6498
v  1598.1532 10.0000 28.1513
v  1598.4674 10.0000 26.8185
v  1598.9631 10.0000 25.6693
v  1599.6405 10.0000 24.7036
v  1600.4996 10.0000 23.9214
v  1601.5403 10.0000 23.3228
v  1602.7625 10.0000 22.9077
v  1603.7515 10.0000 23.5125
v  1604.5590 10.0000 22.6282
v  1606.0204 10.0000 22.6220
v  1606.7389 10.0000 23.5041
v  1607.6566 10.0000 22.8765
v  1608.7439 10.0000 23.2415
v  1610.2985 10.0000 23.5984
v  1610.8876 10.0000 25.0001
v  1611.3743 10.0000 25.9514
v  1611.6987 10.0000 27.0612
v  1611.8611 10.0000 28.3296
v  1611.8582 10.0000 29.6643
v  1611.6847 10.0000 30.9083
v  1611.3375 10.0000 31.9968
v  1610.8169 10.0000 32.9298
v  1610.1228 10.0000 33.7073
v  1609.2550 10.0000 34.3293
v  1608.2137 10.0000 34.7958
v  1606.9989 10.0000 35.1068
v  1605.6106 10.0000 35.2623
v  1604.7207 10.0000 34.4797
v  1604.1973 10.0000 34.4138
# 601 vertices

vn 0.0782 -0.6941 0.7157
vn 0.1728 -0.6909 0.7020
vn 0.1671 0.0000 0.9859
vn 0.1728 0.6909 0.7020
vn 0.0782 0.6941 0.7157
vn 0.2860 -0.6875 0.6675
vn 0.3098 0.0000 0.9508
vn 0.2860 0.6875 0.6675
vn 0.4109 -0.6844 0.6023
vn 0.4746 0.0000 0.8802
vn 0.4109 0.6844 0.6023
vn 0.5315 -0.6828 0.5012
vn 0.6464 0.0000 0.7630
vn 0.5315 0.6828 0.5012
vn 0.6280 -0.6834 0.3723
vn 0.7996 0.0000 0.6006
vn 0.6280 0.6834 0.3723
vn 0.6887 -0.6859 0.2351
vn 0.9106 0.0000 0.4134
vn 0.6887 0.6859 0.2351
vn 0.7163 -0.6893 0.1087
vn 0.9732 0.0000 0.2298
vn 0.7163 0.6893 0.1087
vn 0.7211 -0.6928 0.0032
vn 0.9976 0.0000 0.0693
vn 0.7211 0.6928 0.0032
vn 0.7162 -0.6914 -0.0950
vn 0.9982 0.0000 -0.0605
vn 0.7162 0.6914 -0.0950
vn 0.6953 -0.6881 -0.2077
vn 0.9794 0.0000 -0.2018
vn 0.6953 0.6881 -0.2077
vn 0.6466 -0.6850 -0.3357
vn 0.9297 0.0000 -0.3684
vn 0.6466 0.6850 -0.3357
vn 0.5630 -0.6832 -0.4650
vn 0.8363 0.0000 -0.5483
vn 0.5630 0.6832 -0.4650
vn 0.4486 -0.6835 -0.5758
vn 0.6965 0.0000 -0.7176
vn 0.4486 0.6835 -0.5758
vn 0.3200 -0.6857 -0.6537
vn 0.5255 0.0000 -0.8508
vn 0.3200 0.6857 -0.6537
vn 0.1965 -0.6890 -0.6977
vn 0.3497 0.0000 -0.9369
vn 0.1965 0.6890 -0.6977
vn 0.0895 -0.6923 -0.7161
vn 0.1906 0.0000 -0.9817
vn 0.0895 0.6923 -0.7161
vn -0.0011 -0.6942 -0.7198
vn 0.0570 0.0000 -0.9984
vn -0.0011 0.6942 -0.7198
vn -0.0943 -0.6915 -0.7162
vn -0.0601 0.0000 -0.9982
vn -0.0943 0.6915 -0.7162
vn -0.2063 -0.6882 -0.6956
vn -0.2004 0.0000 -0.9797
vn -0.2063 0.6882 -0.6956
vn -0.3337 -0.6851 -0.6475
vn -0.3661 0.0000 -0.9306
vn -0.3337 0.6851 -0.6475
vn -0.4630 -0.6832 -0.5646
vn -0.5455 0.0000 -0.8381
vn -0.4630 0.6832 -0.5646
vn -0.5743 -0.6835 -0.4507
vn -0.7150 0.0000 -0.6991
vn -0.5743 0.6835 -0.4507
vn -0.6529 -0.6856 -0.3220
vn -0.8491 0.0000 -0.5283
vn -0.6529 0.6856 -0.3220
vn -0.6974 -0.6889 -0.1978
vn -0.9360 0.0000 -0.3520
vn -0.6974 0.6889 -0.1978
vn -0.7161 -0.6922 -0.0902
vn -0.9814 0.0000 -0.1919
vn -0.7161 0.6922 -0.0902
vn -0.7132 -0.7007 -0.0205
vn -0.9984 0.0000 -0.0574
vn -0.7132 0.7007 -0.0205
vn -0.7114 -0.7027 0.0142
vn -1.0000 0.0000 -0.0000
vn -0.7114 0.7027 0.0142
vn -0.7140 -0.6977 0.0588
vn -0.9992 0.0000 0.0398
vn -0.7140 0.6977 0.0588
vn -0.7067 -0.6970 0.1214
vn -0.9922 0.0000 0.1243
vn -0.7067 0.6970 0.1214
vn -0.6928 -0.6964 0.1874
vn -0.9768 0.0000 0.2141
vn -0.6928 0.6964 0.1874
vn -0.6713 -0.6959 0.2549
vn -0.9516 0.0000 0.3074
vn -0.6713 0.6959 0.2549
vn -0.6421 -0.6957 0.3220
vn -0.9158 0.0000 0.4016
vn -0.6421 0.6957 0.3220
vn -0.6056 -0.6957 0.3864
vn -0.8696 0.0000 0.4937
vn -0.6056 0.6957 0.3864
vn -0.5629 -0.6959 0.4459
vn -0.8142 0.0000 0.5806
vn -0.5629 0.6959 0.4459
vn -0.5158 -0.6963 0.4991
vn -0.7515 0.0000 0.6597
vn -0.5158 0.6963 0.4991
vn -0.4663 -0.6971 0.5447
vn -0.6840 0.0000 0.7294
vn -0.4663 0.6971 0.5447
vn -0.4156 -0.6973 0.5840
vn -0.6152 0.0000 0.7883
vn -0.4156 0.6973 0.5840
vn -0.3625 -0.6973 0.6183
vn -0.5432 0.0000 0.8396
vn -0.3625 0.6974 0.6183
vn -0.3073 -0.6976 0.6473
vn -0.4673 0.0000 0.8841
vn -0.3073 0.6976 0.6473
vn -0.2515 -0.6979 0.6706
vn -0.3897 0.0000 0.9210
vn -0.2515 0.6979 0.6706
vn -0.1963 -0.6983 0.6883
vn -0.3121 0.0000 0.9501
vn -0.1963 0.6983 0.6883
vn -0.1429 -0.6988 0.7009
vn -0.2361 0.0000 0.9717
vn -0.1429 0.6988 0.7009
vn -0.0922 -0.6994 0.7088
vn -0.1633 0.0000 0.9866
vn -0.0922 0.6994 0.7088
vn -0.0446 -0.6999 0.7128
vn -0.0945 0.0000 0.9955
vn -0.0446 0.6999 0.7128
vn -0.0108 -0.7037 0.7104
vn -0.0303 0.0000 0.9995
vn -0.0108 0.7037 0.7104
vn 0.0203 -0.7008 0.7131
vn 0.0000 0.0000 1.0000
vn 0.0203 0.7008 0.7131
vn 0.0894 -0.6923 0.7161
vn 0.0569 0.0000 0.9984
vn 0.0894 0.6923 0.7161
vn 0.1961 -0.6890 0.6977
vn 0.1902 0.0000 0.9817
vn 0.1961 0.6890 0.6977
vn 0.3196 -0.6858 0.6539
vn 0.3492 0.0000 0.9371
vn 0.3196 0.6858 0.6539
vn 0.4481 -0.6835 0.5762
vn 0.5248 0.0000 0.8512
vn 0.4481 0.6835 0.5762
vn 0.5626 -0.6832 0.4655
vn 0.6958 0.0000 0.7182
vn 0.5626 0.6832 0.4655
vn 0.6464 -0.6850 0.3361
vn 0.8358 0.0000 0.5490
vn 0.6464 0.6850 0.3361
vn 0.6952 -0.6880 0.2080
vn 0.9294 0.0000 0.3690
vn 0.6952 0.6880 0.2080
vn 0.7162 -0.6914 0.0952
vn 0.9793 0.0000 0.2022
vn 0.7162 0.6914 0.0952
vn 0.7135 -0.7003 0.0216
vn 0.9982 0.0000 0.0606
vn 0.7135 0.7003 0.0216
vn 0.7152 -0.6984 -0.0281
vn 1.0000 0.0000 -0.0000
vn 0.7152 0.6984 -0.0281
vn 0.7161 -0.6871 -0.1231
vn 0.9969 0.0000 -0.0786
vn 0.7161 0.6871 -0.1231
vn 0.6806 -0.6838 -0.2631
vn 0.9659 0.0000 -0.2589
vn 0.6806 0.6838 -0.2631
vn 0.6072 -0.6821 -0.4074
vn 0.8889 0.0000 -0.4581
vn 0.6072 0.6821 -0.4074
vn 0.4995 -0.6828 -0.5331
vn 0.7609 0.0000 -0.6489
vn 0.4995 0.6828 -0.5331
vn 0.3757 -0.6856 -0.6236
vn 0.5981 0.0000 -0.8014
vn 0.3757 0.6856 -0.6236
vn 0.2562 -0.6891 -0.6778
vn 0.4290 0.0000 -0.9033
vn 0.2562 0.6891 -0.6778
vn 0.1531 -0.6926 -0.7049
vn 0.2759 0.0000 -0.9612
vn 0.1531 0.6926 -0.7049
vn 0.0689 -0.6956 -0.7152
vn 0.1476 0.0000 -0.9890
vn 0.0689 0.6956 -0.7152
vn 0.0030 -0.6983 -0.7158
vn 0.0439 0.0000 -0.9990
vn 0.0030 0.6983 -0.7158
vn -0.0536 -0.6983 -0.7138
vn -0.0355 0.0000 -0.9994
vn -0.0536 0.6983 -0.7138
vn -0.1141 -0.6971 -0.7079
vn -0.1142 0.0000 -0.9935
vn -0.1141 0.6971 -0.7079
vn -0.1824 -0.6957 -0.6948
vn -0.2037 0.0000 -0.9790
vn -0.1824 0.6957 -0.6948
vn -0.2578 -0.6943 -0.6719
vn -0.3035 0.0000 -0.9528
vn -0.2578 0.6943 -0.6719
vn -0.3380 -0.6930 -0.6367
vn -0.4117 0.0000 -0.9113
vn -0.3380 0.6930 -0.6367
vn -0.4193 -0.6921 -0.5875
vn -0.5242 0.0000 -0.8516
vn -0.4193 0.6921 -0.5875
vn -0.4966 -0.6916 -0.5244
vn -0.6350 0.0000 -0.7725
vn -0.4966 0.6916 -0.5244
vn -0.5648 -0.6918 -0.4499
vn -0.7369 0.0000 -0.6760
vn -0.5648 0.6918 -0.4499
vn -0.8017 -0.5758 0.1602
vn -0.8236 0.0000 -0.5671
vn -0.8017 0.5758 0.1602
vn 0.1760 -0.5768 0.7977
vn -0.5425 0.0000 0.8401
vn 0.1760 0.5768 0.7977
vn 0.5596 -0.7221 0.4067
vn 0.8456 0.0000 0.5338
vn 0.5596 0.7221 0.4067
vn 0.5001 -0.7228 0.4770
vn 0.7689 0.0000 0.6394
vn 0.5001 0.7228 0.4770
vn 0.4303 -0.7229 0.5406
vn 0.6749 0.0000 0.7379
vn 0.4303 0.7229 0.5406
vn 0.3538 -0.7224 0.5941
vn 0.5676 0.0000 0.8233
vn 0.3538 0.7224 0.5941
vn 0.2748 -0.7214 0.6356
vn 0.4534 0.0000 0.8913
vn 0.2748 0.7214 0.6356
vn 0.1976 -0.7201 0.6651
vn 0.3389 0.0000 0.9408
vn 0.1976 0.7201 0.6651
vn 0.1252 -0.7187 0.6839
vn 0.2298 0.0000 0.9732
vn 0.1252 0.7187 0.6839
vn 0.0594 -0.7173 0.6942
vn 0.1298 0.0000 0.9915
vn 0.0594 0.7173 0.6942
vn -0.0025 -0.7172 0.6969
vn 0.0405 0.0000 0.9992
vn -0.0025 0.7172 0.6969
vn -0.0722 -0.7201 0.6902
vn -0.0476 0.0000 0.9989
vn -0.0722 0.7201 0.6902
vn -0.1585 -0.7234 0.6720
vn -0.1601 0.0000 0.9871
vn -0.1585 0.7234 0.6720
vn -0.2606 -0.7272 0.6350
vn -0.2978 0.0000 0.9546
vn -0.2606 0.7272 0.6350
vn -0.3734 -0.7309 0.5713
vn -0.4586 0.0000 0.8886
vn -0.3734 0.7309 0.5713
vn -0.4847 -0.7332 0.4770
vn -0.6299 0.0000 0.7767
vn -0.4847 0.7332 0.4770
vn -0.5785 -0.7330 0.3579
vn -0.7867 0.0000 0.6173
vn -0.5785 0.7330 0.3579
vn -0.6434 -0.7304 0.2293
vn -0.9035 0.0000 0.4285
vn -0.6434 0.7304 0.2293
vn -0.6785 -0.7267 0.1075
vn -0.9709 0.0000 0.2395
vn -0.6785 0.7267 0.1075
vn -0.6983 -0.7153 0.0253
vn -0.9974 0.0000 0.0723
vn -0.6983 0.7153 0.0253
vn -0.7012 -0.7127 -0.0174
vn -0.7012 0.7127 -0.0174
vn -0.6893 -0.7206 -0.0749
vn -0.9988 0.0000 -0.0495
vn -0.6893 0.7206 -0.0749
vn -0.6700 -0.7240 -0.1642
vn -0.9861 0.0000 -0.1663
vn -0.6700 0.7240 -0.1642
vn -0.6309 -0.7278 -0.2689
vn -0.9512 0.0000 -0.3084
vn -0.6309 0.7278 -0.2689
vn -0.5644 -0.7312 -0.3831
vn -0.8812 0.0000 -0.4727
vn -0.5644 0.7312 -0.3831
vn -0.4678 -0.7331 -0.4937
vn -0.7646 0.0000 -0.6445
vn -0.4678 0.7331 -0.4937
vn -0.3484 -0.7325 -0.5848
vn -0.6025 0.0000 -0.7981
vn -0.3484 0.7325 -0.5848
vn -0.2219 -0.7297 -0.6468
vn -0.4151 0.0000 -0.9098
vn -0.2219 0.7297 -0.6468
vn -0.1037 -0.7259 -0.6799
vn -0.2308 0.0000 -0.9730
vn -0.1037 0.7259 -0.6799
vn -0.0243 -0.7150 -0.6987
vn -0.0696 0.0000 -0.9976
vn -0.0243 0.7150 -0.6987
vn 0.0207 -0.7138 -0.7000
vn 0.0000 0.0000 -1.0000
vn 0.0207 0.7138 -0.7000
vn 0.0889 -0.7232 -0.6849
vn 0.0592 0.0000 -0.9982
vn 0.0889 0.7232 -0.6849
vn 0.1927 -0.7268 -0.6592
vn 0.1976 0.0000 -0.9803
vn 0.1927 0.7268 -0.6592
vn 0.3094 -0.7303 -0.6090
vn 0.3614 0.0000 -0.9324
vn 0.3094 0.7303 -0.6090
vn 0.4279 -0.7326 -0.5294
vn 0.5399 0.0000 -0.8418
vn 0.4279 0.7326 -0.5294
vn 0.5326 -0.7325 -0.4240
vn 0.7099 0.0000 -0.7043
vn 0.5326 0.7325 -0.4240
vn 0.6111 -0.7301 -0.3057
vn 0.8456 0.0000 -0.5339
vn 0.6111 0.7301 -0.3057
vn 0.6603 -0.7266 -0.1900
vn 0.9343 0.0000 -0.3565
vn 0.6603 0.7266 -0.1900
vn 0.6854 -0.7229 -0.0876
vn 0.9809 0.0000 -0.1946
vn 0.6854 0.7229 -0.0876
vn 0.7001 -0.7137 -0.0204
vn 0.9983 0.0000 -0.0583
vn 0.7001 0.7137 -0.0204
vn 0.3178 -0.8986 0.3024
vn 0.3178 0.8986 0.3024
vn 0.0498 0.0000 0.9988
vn -0.0876 -0.7229 0.6853
vn -0.1902 -0.7266 0.6602
vn -0.1948 0.0000 0.9808
vn -0.1902 0.7266 0.6602
vn -0.0876 0.7229 0.6853
vn -0.3059 -0.7301 0.6110
vn -0.3568 0.0000 0.9342
vn -0.3059 0.7301 0.6110
vn -0.4242 -0.7325 0.5325
vn -0.5342 0.0000 0.8454
vn -0.4242 0.7325 0.5325
vn -0.5295 -0.7325 0.4277
vn -0.7046 0.0000 0.7096
vn -0.5295 0.7325 0.4277
vn -0.6091 -0.7303 0.3092
vn -0.8419 0.0000 0.5396
vn -0.6091 0.7303 0.3092
vn -0.6593 -0.7268 0.1926
vn -0.9325 0.0000 0.3612
vn -0.6593 0.7268 0.1926
vn -0.6850 -0.7231 0.0888
vn -0.9803 0.0000 0.1975
vn -0.6850 0.7231 0.0888
vn -0.6935 -0.7205 0.0006
vn -0.9982 0.0000 0.0591
vn -0.6935 0.7205 0.0006
vn -0.6858 -0.7227 -0.0864
vn -0.9983 0.0000 -0.0574
vn -0.6858 0.7227 -0.0864
vn -0.6612 -0.7263 -0.1876
vn -0.9814 0.0000 -0.1920
vn -0.6612 0.7263 -0.1876
vn -0.6130 -0.7299 -0.3024
vn -0.9360 0.0000 -0.3521
vn -0.6130 0.7299 -0.3024
vn -0.5356 -0.7324 -0.4204
vn -0.8490 0.0000 -0.5284
vn -0.5356 0.7324 -0.4204
vn -0.4315 -0.7326 -0.5264
vn -0.7149 0.0000 -0.6992
vn -0.4315 0.7326 -0.5264
vn -0.3128 -0.7305 -0.6070
vn -0.5454 0.0000 -0.8382
vn -0.3128 0.7305 -0.6070
vn -0.1951 -0.7271 -0.6582
vn -0.3660 0.0000 -0.9306
vn -0.1951 0.7271 -0.6582
vn -0.0901 -0.7234 -0.6845
vn -0.0901 0.7234 -0.6845
vn -0.0003 -0.7208 -0.6932
vn -0.0600 0.0000 -0.9982
vn -0.0003 0.7208 -0.6932
vn 0.0888 -0.7231 -0.6850
vn 0.0591 0.0000 -0.9983
vn 0.0888 0.7231 -0.6850
vn 0.1925 -0.7268 -0.6593
vn 0.1974 0.0000 -0.9803
vn 0.1925 0.7268 -0.6593
vn 0.3092 -0.7303 -0.6091
vn 0.3612 0.0000 -0.9325
vn 0.3092 0.7303 -0.6091
vn 0.4277 -0.7325 -0.5296
vn 0.5395 0.0000 -0.8420
vn 0.4277 0.7325 -0.5296
vn 0.5325 -0.7325 -0.4242
vn 0.7096 0.0000 -0.7047
vn 0.5325 0.7325 -0.4242
vn 0.6110 -0.7301 -0.3059
vn 0.8453 0.0000 -0.5342
vn 0.6110 0.7301 -0.3059
vn 0.6602 -0.7266 -0.1902
vn 0.9342 0.0000 -0.3568
vn 0.6602 0.7266 -0.1902
vn 0.6853 -0.7229 -0.0877
vn 0.9808 0.0000 -0.1948
vn 0.6853 0.7229 -0.0877
vn 0.6933 -0.7207 0.0006
vn 0.6933 0.7207 0.0006
vn 0.6845 -0.7234 0.0901
vn 0.9982 0.0000 0.0600
vn 0.6845 0.7234 0.0901
vn 0.6582 -0.7271 0.1952
vn 0.9797 0.0000 0.2004
vn 0.6582 0.7271 0.1952
vn 0.6070 -0.7305 0.3128
vn 0.9306 0.0000 0.3660
vn 0.6070 0.7305 0.3128
vn 0.5263 -0.7326 0.4315
vn 0.8381 0.0000 0.5454
vn 0.5263 0.7326 0.4315
vn 0.4204 -0.7324 0.5356
vn 0.6991 0.0000 0.7150
vn 0.4204 0.7324 0.5356
vn 0.3023 -0.7299 0.6130
vn 0.5283 0.0000 0.8490
vn 0.3023 0.7299 0.6130
vn 0.1876 -0.7263 0.6613
vn 0.3520 0.0000 0.9360
vn 0.1876 0.7263 0.6613
vn 0.0864 -0.7227 0.6858
vn 0.1919 0.0000 0.9814
vn 0.0864 0.7227 0.6858
vn -0.0003 -0.7204 0.6936
vn 0.0574 0.0000 0.9983
vn -0.0003 0.7204 0.6936
vn -0.0583 0.0000 0.9983
vn 0.0000 -1.0000 -0.0000
vn 0.0000 1.0000 -0.0000
# 451 vertex normals

o O_An
g O_An
s 1
f 1//1 2//2 3//3 
f 2//2 4//4 3//3 
f 4//4 5//5 3//3 
f 5//5 1//1 3//3 
s 3
f 2//2 6//6 7//7 
f 6//6 8//8 7//7 
f 8//8 4//4 7//7 
f 4//4 2//2 7//7 
s 2
f 6//6 9//9 10//10 
f 9//9 11//11 10//10 
f 11//11 8//8 10//10 
f 8//8 6//6 10//10 
f 9//9 12//12 13//13 
f 12//12 14//14 13//13 
f 14//14 11//11 13//13 
f 11//11 9//9 13//13 
f 12//12 15//15 16//16 
f 15//15 17//17 16//16 
f 17//17 14//14 16//16 
f 14//14 12//12 16//16 
f 15//15 18//18 19//19 
f 18//18 20//20 19//19 
f 20//20 17//17 19//19 
f 17//17 15//15 19//19 
f 18//18 21//21 22//22 
f 21//21 23//23 22//22 
f 23//23 20//20 22//22 
f 20//20 18//18 22//22 
f 21//21 24//24 25//25 
f 24//24 26//26 25//25 
f 26//26 23//23 25//25 
f 23//23 21//21 25//25 
f 24//24 27//27 28//28 
f 27//27 29//29 28//28 
f 29//29 26//26 28//28 
f 26//26 24//24 28//28 
f 27//27 30//30 31//31 
f 30//30 32//32 31//31 
f 32//32 29//29 31//31 
f 29//29 27//27 31//31 
f 30//30 33//33 34//34 
f 33//33 35//35 34//34 
f 35//35 32//32 34//34 
f 32//32 30//30 34//34 
f 33//33 36//36 37//37 
f 36//36 38//38 37//37 
f 38//38 35//35 37//37 
f 35//35 33//33 37//37 
f 36//36 39//39 40//40 
f 39//39 41//41 40//40 
f 41//41 38//38 40//40 
f 38//38 36//36 40//40 
f 39//39 42//42 43//43 
f 42//42 44//44 43//43 
f 44//44 41//41 43//43 
f 41//41 39//39 43//43 
f 42//42 45//45 46//46 
f 45//45 47//47 46//46 
f 47//47 44//44 46//46 
f 44//44 42//42 46//46 
f 45//45 48//48 49//49 
f 48//48 50//50 49//49 
f 50//50 47//47 49//49 
f 47//47 45//45 49//49 
f 48//48 51//51 52//52 
f 51//51 53//53 52//52 
f 53//53 50//50 52//52 
f 50//50 48//48 52//52 
f 51//51 54//54 55//55 
f 54//54 56//56 55//55 
f 56//56 53//53 55//55 
f 53//53 51//51 55//55 
f 54//54 57//57 58//58 
f 57//57 59//59 58//58 
f 59//59 56//56 58//58 
f 56//56 54//54 58//58 
f 57//57 60//60 61//61 
f 60//60 62//62 61//61 
f 62//62 59//59 61//61 
f 59//59 57//57 61//61 
f 60//60 63//63 64//64 
f 63//63 65//65 64//64 
f 65//65 62//62 64//64 
f 62//62 60//60 64//64 
f 63//63 66//66 67//67 
f 66//66 68//68 67//67 
f 68//68 65//65 67//67 
f 65//65 63//63 67//67 
f 66//66 69//69 70//70 
f 69//69 71//71 70//70 
f 71//71 68//68 70//70 
f 68//68 66//66 70//70 
f 69//69 72//72 73//73 
f 72//72 74//74 73//73 
f 74//74 71//71 73//73 
f 71//71 69//69 73//73 
f 72//72 75//75 76//76 
f 75//75 77//77 76//76 
f 77//77 74//74 76//76 
f 74//74 72//72 76//76 
f 75//75 78//78 79//79 
f 78//78 80//80 79//79 
f 80//80 77//77 79//79 
f 77//77 75//75 79//79 
s 4
f 78//78 81//81 82//82 
f 81//81 83//83 82//82 
f 83//83 80//80 82//82 
f 80//80 78//78 82//82 
s 2
f 81//81 84//84 85//85 
f 84//84 86//86 85//85 
f 86//86 83//83 85//85 
f 83//83 81//81 85//85 
f 84//84 87//87 88//88 
f 87//87 89//89 88//88 
f 89//89 86//86 88//88 
f 86//86 84//84 88//88 
f 87//87 90//90 91//91 
f 90//90 92//92 91//91 
f 92//92 89//89 91//91 
f 89//89 87//87 91//91 
f 90//90 93//93 94//94 
f 93//93 95//95 94//94 
f 95//95 92//92 94//94 
f 92//92 90//90 94//94 
f 93//93 96//96 97//97 
f 96//96 98//98 97//97 
f 98//98 95//95 97//97 
f 95//95 93//93 97//97 
f 96//96 99//99 100//100 
f 99//99 101//101 100//100 
f 101//101 98//98 100//100 
f 98//98 96//96 100//100 
f 99//99 102//102 103//103 
f 102//102 104//104 103//103 
f 104//104 101//101 103//103 
f 101//101 99//99 103//103 
f 102//102 105//105 106//106 
f 105//105 107//107 106//106 
f 107//107 104//104 106//106 
f 104//104 102//102 106//106 
f 105//105 108//108 109//109 
f 108//108 110//110 109//109 
f 110//110 107//107 109//109 
f 107//107 105//105 109//109 
f 108//108 111//111 112//112 
f 111//111 113//113 112//112 
f 113//113 110//110 112//112 
f 110//110 108//108 112//112 
f 111//111 114//114 115//115 
f 114//114 116//116 115//115 
f 116//116 113//113 115//115 
f 113//113 111//111 115//115 
f 114//114 117//117 118//118 
f 117//117 119//119 118//118 
f 119//119 116//116 118//118 
f 116//116 114//114 118//118 
f 117//117 120//120 121//121 
f 120//120 122//122 121//121 
f 122//122 119//119 121//121 
f 119//119 117//117 121//121 
f 120//120 123//123 124//124 
f 123//123 125//125 124//124 
f 125//125 122//122 124//124 
f 122//122 120//120 124//124 
f 123//123 126//126 127//127 
f 126//126 128//128 127//127 
f 128//128 125//125 127//127 
f 125//125 123//123 127//127 
f 126//126 129//129 130//130 
f 129//129 131//131 130//130 
f 131//131 128//128 130//130 
f 128//128 126//126 130//130 
f 129//129 132//132 133//133 
f 132//132 134//134 133//133 
f 134//134 131//131 133//133 
f 131//131 129//129 133//133 
f 132//132 135//135 136//136 
f 135//135 137//137 136//136 
f 137//137 134//134 136//136 
f 134//134 132//132 136//136 
s 4
f 135//135 138//138 139//139 
f 138//138 140//140 139//139 
f 140//140 137//137 139//139 
f 137//137 135//135 139//139 
s 2
f 138//138 141//141 142//142 
f 141//141 143//143 142//142 
f 143//143 140//140 142//142 
f 140//140 138//138 142//142 
f 141//141 144//144 145//145 
f 144//144 146//146 145//145 
f 146//146 143//143 145//145 
f 143//143 141//141 145//145 
f 144//144 147//147 148//148 
f 147//147 149//149 148//148 
f 149//149 146//146 148//148 
f 146//146 144//144 148//148 
f 147//147 150//150 151//151 
f 150//150 152//152 151//151 
f 152//152 149//149 151//151 
f 149//149 147//147 151//151 
f 150//150 153//153 154//154 
f 153//153 155//155 154//154 
f 155//155 152//152 154//154 
f 152//152 150//150 154//154 
f 153//153 156//156 157//157 
f 156//156 158//158 157//157 
f 158//158 155//155 157//157 
f 155//155 153//153 157//157 
f 156//156 159//159 160//160 
f 159//159 161//161 160//160 
f 161//161 158//158 160//160 
f 158//158 156//156 160//160 
f 159//159 162//162 163//163 
f 162//162 164//164 163//163 
f 164//164 161//161 163//163 
f 161//161 159//159 163//163 
f 162//162 165//165 166//166 
f 165//165 167//167 166//166 
f 167//167 164//164 166//166 
f 164//164 162//162 166//166 
s 4
f 165//165 168//168 169//169 
f 168//168 170//170 169//169 
f 170//170 167//167 169//169 
f 167//167 165//165 169//169 
s 2
f 168//168 171//171 172//172 
f 171//171 173//173 172//172 
f 173//173 170//170 172//172 
f 170//170 168//168 172//172 
f 171//171 174//174 175//175 
f 174//174 176//176 175//175 
f 176//176 173//173 175//175 
f 173//173 171//171 175//175 
f 174//174 177//177 178//178 
f 177//177 179//179 178//178 
f 179//179 176//176 178//178 
f 176//176 174//174 178//178 
f 177//177 180//180 181//181 
f 180//180 182//182 181//181 
f 182//182 179//179 181//181 
f 179//179 177//177 181//181 
f 180//180 183//183 184//184 
f 183//183 185//185 184//184 
f 185//185 182//182 184//184 
f 182//182 180//180 184//184 
f 183//183 186//186 187//187 
f 186//186 188//188 187//187 
f 188//188 185//185 187//187 
f 185//185 183//183 187//187 
f 186//186 189//189 190//190 
f 189//189 191//191 190//190 
f 191//191 188//188 190//190 
f 188//188 186//186 190//190 
f 189//189 192//192 193//193 
f 192//192 194//194 193//193 
f 194//194 191//191 193//193 
f 191//191 189//189 193//193 
f 192//192 195//195 196//196 
f 195//195 197//197 196//196 
f 197//197 194//194 196//196 
f 194//194 192//192 196//196 
f 195//195 198//198 199//199 
f 198//198 200//200 199//199 
f 200//200 197//197 199//199 
f 197//197 195//195 199//199 
f 198//198 201//201 202//202 
f 201//201 203//203 202//202 
f 203//203 200//200 202//202 
f 200//200 198//198 202//202 
f 201//201 204//204 205//205 
f 204//204 206//206 205//205 
f 206//206 203//203 205//205 
f 203//203 201//201 205//205 
f 204//204 207//207 208//208 
f 207//207 209//209 208//208 
f 209//209 206//206 208//208 
f 206//206 204//204 208//208 
f 207//207 210//210 211//211 
f 210//210 212//212 211//211 
f 212//212 209//209 211//211 
f 209//209 207//207 211//211 
f 210//210 213//213 214//214 
f 213//213 215//215 214//214 
f 215//215 212//212 214//214 
f 212//212 210//210 214//214 
f 213//213 216//216 217//217 
f 216//216 218//218 217//217 
f 218//218 215//215 217//217 
f 215//215 213//213 217//217 
f 216//216 219//219 220//220 
f 219//219 221//221 220//220 
f 221//221 218//218 220//220 
f 218//218 216//216 220//220 
f 219//219 222//222 223//223 
f 222//222 224//224 223//223 
f 224//224 221//221 223//223 
f 221//221 219//219 223//223 
s 4
f 222//222 225//225 226//226 
f 225//225 227//227 226//226 
f 227//227 224//224 226//226 
f 224//224 222//222 226//226 
s 2
f 225//225 228//228 229//229 
f 228//228 230//230 229//229 
f 230//230 227//227 229//229 
f 227//227 225//225 229//229 
f 228//228 231//231 232//232 
f 231//231 233//233 232//232 
f 233//233 230//230 232//232 
f 230//230 228//228 232//232 
f 231//231 234//234 235//235 
f 234//234 236//236 235//235 
f 236//236 233//233 235//235 
f 233//233 231//231 235//235 
f 234//234 237//237 238//238 
f 237//237 239//239 238//238 
f 239//239 236//236 238//238 
f 236//236 234//234 238//238 
f 237//237 240//240 241//241 
f 240//240 242//242 241//241 
f 242//242 239//239 241//241 
f 239//239 237//237 241//241 
f 240//240 243//243 244//244 
f 243//243 245//245 244//244 
f 245//245 242//242 244//244 
f 242//242 240//240 244//244 
f 243//243 246//246 247//247 
f 246//246 248//248 247//247 
f 248//248 245//245 247//247 
f 245//245 243//243 247//247 
f 246//246 249//249 250//250 
f 249//249 251//251 250//250 
f 251//251 248//248 250//250 
f 248//248 246//246 250//250 
f 249//249 252//252 253//253 
f 252//252 254//254 253//253 
f 254//254 251//251 253//253 
f 251//251 249//249 253//253 
f 252//252 255//255 256//256 
f 255//255 257//257 256//256 
f 257//257 254//254 256//256 
f 254//254 252//252 256//256 
f 255//255 258//258 259//259 
f 258//258 260//260 259//259 
f 260//260 257//257 259//259 
f 257//257 255//255 259//259 
f 258//258 261//261 262//262 
f 261//261 263//263 262//262 
f 263//263 260//260 262//262 
f 260//260 258//258 262//262 
f 261//261 264//264 265//265 
f 264//264 266//266 265//265 
f 266//266 263//263 265//265 
f 263//263 261//261 265//265 
f 264//264 267//267 268//268 
f 267//267 269//269 268//268 
f 269//269 266//266 268//268 
f 266//266 264//264 268//268 
f 267//267 270//270 271//271 
f 270//270 272//272 271//271 
f 272//272 269//269 271//271 
f 269//269 267//267 271//271 
f 270//270 273//273 274//274 
f 273//273 275//275 274//274 
f 275//275 272//272 274//274 
f 272//272 270//270 274//274 
f 273//273 276//276 277//277 
f 276//276 278//278 277//277 
f 278//278 275//275 277//277 
f 275//275 273//273 277//277 
f 276//276 279//279 280//280 
f 279//279 281//281 280//280 
f 281//281 278//278 280//280 
f 278//278 276//276 280//280 
s 4
f 279//279 282//282 283//82 
f 282//282 284//283 283//82 
f 284//283 281//281 283//82 
f 281//281 279//279 283//82 
s 2
f 282//282 285//284 286//285 
f 285//284 287//286 286//285 
f 287//286 284//283 286//285 
f 284//283 282//282 286//285 
f 285//284 288//287 289//288 
f 288//287 290//289 289//288 
f 290//289 287//286 289//288 
f 287//286 285//284 289//288 
f 288//287 291//290 292//291 
f 291//290 293//292 292//291 
f 293//292 290//289 292//291 
f 290//289 288//287 292//291 
f 291//290 294//293 295//294 
f 294//293 296//295 295//294 
f 296//295 293//292 295//294 
f 293//292 291//290 295//294 
f 294//293 297//296 298//297 
f 297//296 299//298 298//297 
f 299//298 296//295 298//297 
f 296//295 294//293 298//297 
f 297//296 300//299 301//300 
f 300//299 302//301 301//300 
f 302//301 299//298 301//300 
f 299//298 297//296 301//300 
f 300//299 303//302 304//303 
f 303//302 305//304 304//303 
f 305//304 302//301 304//303 
f 302//301 300//299 304//303 
f 303//302 306//305 307//306 
f 306//305 308//307 307//306 
f 308//307 305//304 307//306 
f 305//304 303//302 307//306 
f 306//305 309//308 310//309 
f 309//308 311//310 310//309 
f 311//310 308//307 310//309 
f 308//307 306//305 310//309 
s 4
f 309//308 312//311 313//312 
f 312//311 314//313 313//312 
f 314//313 311//310 313//312 
f 311//310 309//308 313//312 
s 2
f 312//311 315//314 316//315 
f 315//314 317//316 316//315 
f 317//316 314//313 316//315 
f 314//313 312//311 316//315 
f 315//314 318//317 319//318 
f 318//317 320//319 319//318 
f 320//319 317//316 319//318 
f 317//316 315//314 319//318 
f 318//317 321//320 322//321 
f 321//320 323//322 322//321 
f 323//322 320//319 322//321 
f 320//319 318//317 322//321 
f 321//320 324//323 325//324 
f 324//323 326//325 325//324 
f 326//325 323//322 325//324 
f 323//322 321//320 325//324 
f 324//323 327//326 328//327 
f 327//326 329//328 328//327 
f 329//328 326//325 328//327 
f 326//325 324//323 328//327 
f 327//326 330//329 331//330 
f 330//329 332//331 331//330 
f 332//331 329//328 331//330 
f 329//328 327//326 331//330 
f 330//329 333//332 334//333 
f 333//332 335//334 334//333 
f 335//334 332//331 334//333 
f 332//331 330//329 334//333 
f 333//332 336//335 337//336 
f 336//335 338//337 337//336 
f 338//337 335//334 337//336 
f 335//334 333//332 337//336 
f 336//335 339//338 340//339 
f 339//338 341//340 340//339 
f 341//340 338//337 340//339 
f 338//337 336//335 340//339 
s 4
f 339//338 342//341 343//169 
f 342//341 344//342 343//169 
f 344//342 341//340 343//169 
f 341//340 339//338 343//169 
s 3
f 342//341 1//1 345//343 
f 1//1 5//5 345//343 
f 5//5 344//342 345//343 
f 344//342 342//341 345//343 
s 1
f 346//344 347//345 348//346 
f 347//345 349//347 348//346 
f 349//347 350//348 348//346 
f 350//348 346//344 348//346 
s 3
f 347//345 351//349 352//350 
f 351//349 353//351 352//350 
f 353//351 349//347 352//350 
f 349//347 347//345 352//350 
s 2
f 351//349 354//352 355//353 
f 354//352 356//354 355//353 
f 356//354 353//351 355//353 
f 353//351 351//349 355//353 
f 354//352 357//355 358//356 
f 357//355 359//357 358//356 
f 359//357 356//354 358//356 
f 356//354 354//352 358//356 
f 357//355 360//358 361//359 
f 360//358 362//360 361//359 
f 362//360 359//357 361//359 
f 359//357 357//355 361//359 
f 360//358 363//361 364//362 
f 363//361 365//363 364//362 
f 365//363 362//360 364//362 
f 362//360 360//358 364//362 
f 363//361 366//364 367//365 
f 366//364 368//366 367//365 
f 368//366 365//363 367//365 
f 365//363 363//361 367//365 
f 366//364 369//367 370//368 
f 369//367 371//369 370//368 
f 371//369 368//366 370//368 
f 368//366 366//364 370//368 
f 369//367 372//370 373//371 
f 372//370 374//372 373//371 
f 374//372 371//369 373//371 
f 371//369 369//367 373//371 
f 372//370 375//373 376//374 
f 375//373 377//375 376//374 
f 377//375 374//372 376//374 
f 374//372 372//370 376//374 
f 375//373 378//376 379//377 
f 378//376 380//378 379//377 
f 380//378 377//375 379//377 
f 377//375 375//373 379//377 
f 378//376 381//379 382//380 
f 381//379 383//381 382//380 
f 383//381 380//378 382//380 
f 380//378 378//376 382//380 
f 381//379 384//382 385//383 
f 384//382 386//384 385//383 
f 386//384 383//381 385//383 
f 383//381 381//379 385//383 
f 384//382 387//385 388//386 
f 387//385 389//387 388//386 
f 389//387 386//384 388//386 
f 386//384 384//382 388//386 
f 387//385 390//388 391//389 
f 390//388 392//390 391//389 
f 392//390 389//387 391//389 
f 389//387 387//385 391//389 
f 390//388 393//391 394//58 
f 393//391 395//392 394//58 
f 395//392 392//390 394//58 
f 392//390 390//388 394//58 
f 393//391 396//393 397//394 
f 396//393 398//395 397//394 
f 398//395 395//392 397//394 
f 395//392 393//391 397//394 
f 396//393 399//396 400//397 
f 399//396 401//398 400//397 
f 401//398 398//395 400//397 
f 398//395 396//393 400//397 
f 399//396 402//399 403//400 
f 402//399 404//401 403//400 
f 404//401 401//398 403//400 
f 401//398 399//396 403//400 
f 402//399 405//402 406//403 
f 405//402 407//404 406//403 
f 407//404 404//401 406//403 
f 404//401 402//399 406//403 
f 405//402 408//405 409//406 
f 408//405 410//407 409//406 
f 410//407 407//404 409//406 
f 407//404 405//402 409//406 
f 408//405 411//408 412//409 
f 411//408 413//410 412//409 
f 413//410 410//407 412//409 
f 410//407 408//405 412//409 
f 411//408 414//411 415//412 
f 414//411 416//413 415//412 
f 416//413 413//410 415//412 
f 413//410 411//408 415//412 
f 414//411 417//414 418//415 
f 417//414 419//416 418//415 
f 419//416 416//413 418//415 
f 416//413 414//411 418//415 
f 417//414 420//417 421//418 
f 420//417 422//419 421//418 
f 422//419 419//416 421//418 
f 419//416 417//414 421//418 
f 420//417 423//420 424//339 
f 423//420 425//421 424//339 
f 425//421 422//419 424//339 
f 422//419 420//417 424//339 
f 423//420 426//422 427//423 
f 426//422 428//424 427//423 
f 428//424 425//421 427//423 
f 425//421 423//420 427//423 
f 426//422 429//425 430//426 
f 429//425 431//427 430//426 
f 431//427 428//424 430//426 
f 428//424 426//422 430//426 
f 429//425 432//428 433//429 
f 432//428 434//430 433//429 
f 434//430 431//427 433//429 
f 431//427 429//425 433//429 
f 432//428 435//431 436//432 
f 435//431 437//433 436//432 
f 437//433 434//430 436//432 
f 434//430 432//428 436//432 
f 435//431 438//434 439//435 
f 438//434 440//436 439//435 
f 440//436 437//433 439//435 
f 437//433 435//431 439//435 
f 438//434 441//437 442//438 
f 441//437 443//439 442//438 
f 443//439 440//436 442//438 
f 440//436 438//434 442//438 
f 441//437 444//440 445//441 
f 444//440 446//442 445//441 
f 446//442 443//439 445//441 
f 443//439 441//437 445//441 
f 444//440 447//443 448//444 
f 447//443 449//445 448//444 
f 449//445 446//442 448//444 
f 446//442 444//440 448//444 
f 447//443 450//446 451//447 
f 450//446 452//448 451//447 
f 452//448 449//445 451//447 
f 449//445 447//443 451//447 
s 3
f 450//446 346//344 453//449 
f 346//344 350//348 453//449 
f 350//348 452//448 453//449 
f 452//448 450//446 453//449 
s 16
f 405//402 402//399 454//450 
f 402//399 342//341 454//450 
f 221//221 224//224 455//451 
f 224//224 227//227 455//451 
f 227//227 230//230 455//451 
f 230//230 221//221 455//451 
f 402//399 399//396 456//450 
f 399//396 342//341 456//450 
f 342//341 402//399 456//450 
f 399//396 396//393 457//450 
f 396//393 342//341 457//450 
f 342//341 399//396 457//450 
f 396//393 393//391 458//450 
f 393//391 1//1 458//450 
f 1//1 342//341 458//450 
f 342//341 396//393 458//450 
f 393//391 390//388 459//450 
f 390//388 2//2 459//450 
f 2//2 1//1 459//450 
f 1//1 393//391 459//450 
f 390//388 387//385 460//450 
f 387//385 6//6 460//450 
f 6//6 2//2 460//450 
f 2//2 390//388 460//450 
f 387//385 384//382 461//450 
f 384//382 9//9 461//450 
f 9//9 6//6 461//450 
f 6//6 387//385 461//450 
f 384//382 381//379 462//450 
f 381//379 12//12 462//450 
f 12//12 9//9 462//450 
f 9//9 384//382 462//450 
f 381//379 378//376 463//450 
f 378//376 15//15 463//450 
f 15//15 12//12 463//450 
f 12//12 381//379 463//450 
f 378//376 375//373 464//450 
f 375//373 18//18 464//450 
f 18//18 15//15 464//450 
f 15//15 378//376 464//450 
f 375//373 372//370 465//450 
f 372//370 21//21 465//450 
f 21//21 18//18 465//450 
f 18//18 375//373 465//450 
f 372//370 369//367 466//450 
f 369//367 24//24 466//450 
f 24//24 21//21 466//450 
f 21//21 372//370 466//450 
f 369//367 366//364 467//450 
f 366//364 27//27 467//450 
f 27//27 24//24 467//450 
f 24//24 369//367 467//450 
f 366//364 363//361 468//450 
f 363//361 30//30 468//450 
f 30//30 27//27 468//450 
f 27//27 366//364 468//450 
f 363//361 360//358 469//450 
f 360//358 33//33 469//450 
f 33//33 30//30 469//450 
f 30//30 363//361 469//450 
f 360//358 357//355 470//450 
f 357//355 36//36 470//450 
f 36//36 33//33 470//450 
f 33//33 360//358 470//450 
f 357//355 354//352 471//450 
f 354//352 42//42 471//450 
f 42//42 39//39 471//450 
f 39//39 36//36 471//450 
f 36//36 357//355 471//450 
f 354//352 351//349 472//450 
f 351//349 45//45 472//450 
f 45//45 42//42 472//450 
f 42//42 354//352 472//450 
f 351//349 347//345 473//450 
f 347//345 48//48 473//450 
f 48//48 45//45 473//450 
f 45//45 351//349 473//450 
f 347//345 346//344 474//450 
f 346//344 48//48 474//450 
f 48//48 347//345 474//450 
f 346//344 450//446 475//450 
f 450//446 51//51 475//450 
f 51//51 48//48 475//450 
f 48//48 346//344 475//450 
f 450//446 447//443 476//450 
f 447//443 54//54 476//450 
f 54//54 51//51 476//450 
f 51//51 450//446 476//450 
f 447//443 444//440 477//450 
f 444//440 54//54 477//450 
f 54//54 447//443 477//450 
f 444//440 441//437 478//450 
f 441//437 57//57 478//450 
f 57//57 54//54 478//450 
f 54//54 444//440 478//450 
f 441//437 438//434 479//450 
f 438//434 60//60 479//450 
f 60//60 57//57 479//450 
f 57//57 441//437 479//450 
f 438//434 435//431 480//450 
f 435//431 63//63 480//450 
f 63//63 60//60 480//450 
f 60//60 438//434 480//450 
f 435//431 432//428 481//450 
f 432//428 66//66 481//450 
f 66//66 63//63 481//450 
f 63//63 435//431 481//450 
f 432//428 429//425 482//450 
f 429//425 69//69 482//450 
f 69//69 66//66 482//450 
f 66//66 432//428 482//450 
f 429//425 426//422 483//450 
f 426//422 72//72 483//450 
f 72//72 69//69 483//450 
f 69//69 429//425 483//450 
f 426//422 423//420 484//450 
f 423//420 75//75 484//450 
f 75//75 72//72 484//450 
f 72//72 426//422 484//450 
f 423//420 420//417 485//450 
f 420//417 78//78 485//450 
f 78//78 75//75 485//450 
f 75//75 423//420 485//450 
f 420//417 417//414 486//450 
f 417//414 78//78 486//450 
f 78//78 420//417 486//450 
f 417//414 414//411 487//450 
f 414//411 81//81 487//450 
f 81//81 78//78 487//450 
f 78//78 417//414 487//450 
f 414//411 411//408 488//450 
f 411//408 81//81 488//450 
f 81//81 414//411 488//450 
f 411//408 408//405 489//450 
f 408//405 81//81 489//450 
f 81//81 411//408 489//450 
f 405//402 454//450 342//341 490//450 
f 342//341 339//338 490//450 
f 339//338 405//402 490//450 
f 339//338 336//335 491//450 
f 336//335 81//81 491//450 
f 81//81 408//405 491//450 
f 408//405 405//402 491//450 
f 405//402 339//338 491//450 
f 336//335 333//332 492//450 
f 333//332 90//90 492//450 
f 90//90 87//87 492//450 
f 87//87 84//84 492//450 
f 84//84 81//81 492//450 
f 81//81 336//335 492//450 
f 333//332 330//329 493//450 
f 330//329 99//99 493//450 
f 99//99 96//96 493//450 
f 96//96 93//93 493//450 
f 93//93 90//90 493//450 
f 90//90 333//332 493//450 
f 330//329 327//326 494//450 
f 327//326 111//111 494//450 
f 111//111 108//108 494//450 
f 108//108 105//105 494//450 
f 105//105 102//102 494//450 
f 102//102 99//99 494//450 
f 99//99 330//329 494//450 
f 327//326 324//323 495//450 
f 324//323 120//120 495//450 
f 120//120 117//117 495//450 
f 117//117 114//114 495//450 
f 114//114 111//111 495//450 
f 111//111 327//326 495//450 
f 324//323 321//320 496//450 
f 321//320 129//129 496//450 
f 129//129 126//126 496//450 
f 126//126 123//123 496//450 
f 123//123 120//120 496//450 
f 120//120 324//323 496//450 
f 321//320 318//317 497//450 
f 318//317 135//135 497//450 
f 135//135 132//132 497//450 
f 132//132 129//129 497//450 
f 129//129 321//320 497//450 
f 318//317 315//314 498//450 
f 315//314 135//135 498//450 
f 135//135 318//317 498//450 
f 315//314 312//311 499//450 
f 312//311 135//135 499//450 
f 135//135 315//314 499//450 
f 312//311 309//308 500//450 
f 309//308 135//135 500//450 
f 135//135 312//311 500//450 
f 309//308 306//305 501//450 
f 306//305 135//135 501//450 
f 135//135 309//308 501//450 
f 306//305 303//302 502//450 
f 303//302 138//138 502//450 
f 138//138 135//135 502//450 
f 135//135 306//305 502//450 
f 303//302 300//299 503//450 
f 300//299 141//141 503//450 
f 141//141 138//138 503//450 
f 138//138 303//302 503//450 
f 300//299 297//296 504//450 
f 297//296 144//144 504//450 
f 144//144 141//141 504//450 
f 141//141 300//299 504//450 
f 297//296 294//293 505//450 
f 294//293 150//150 505//450 
f 150//150 147//147 505//450 
f 147//147 144//144 505//450 
f 144//144 297//296 505//450 
f 294//293 291//290 506//450 
f 291//290 156//156 506//450 
f 156//156 153//153 506//450 
f 153//153 150//150 506//450 
f 150//150 294//293 506//450 
f 291//290 288//287 507//450 
f 288//287 162//162 507//450 
f 162//162 159//159 507//450 
f 159//159 156//156 507//450 
f 156//156 291//290 507//450 
f 288//287 285//284 508//450 
f 285//284 165//165 508//450 
f 165//165 162//162 508//450 
f 162//162 288//287 508//450 
f 285//284 282//282 509//450 
f 282//282 165//165 509//450 
f 165//165 285//284 509//450 
f 282//282 279//279 510//450 
f 279//279 168//168 510//450 
f 168//168 165//165 510//450 
f 165//165 282//282 510//450 
f 279//279 276//276 511//450 
f 276//276 171//171 511//450 
f 171//171 168//168 511//450 
f 168//168 279//279 511//450 
f 276//276 273//273 512//450 
f 273//273 174//174 512//450 
f 174//174 171//171 512//450 
f 171//171 276//276 512//450 
f 273//273 270//270 513//450 
f 270//270 180//180 513//450 
f 180//180 177//177 513//450 
f 177//177 174//174 513//450 
f 174//174 273//273 513//450 
f 270//270 267//267 514//450 
f 267//267 183//183 514//450 
f 183//183 180//180 514//450 
f 180//180 270//270 514//450 
f 267//267 264//264 515//450 
f 264//264 186//186 515//450 
f 186//186 183//183 515//450 
f 183//183 267//267 515//450 
f 264//264 261//261 516//450 
f 261//261 189//189 516//450 
f 189//189 186//186 516//450 
f 186//186 264//264 516//450 
f 261//261 258//258 517//450 
f 258//258 192//192 517//450 
f 192//192 189//189 517//450 
f 189//189 261//261 517//450 
f 258//258 255//255 518//450 
f 255//255 192//192 518//450 
f 192//192 258//258 518//450 
f 255//255 252//252 519//450 
f 252//252 195//195 519//450 
f 195//195 192//192 519//450 
f 192//192 255//255 519//450 
f 252//252 249//249 520//450 
f 249//249 198//198 520//450 
f 198//198 195//195 520//450 
f 195//195 252//252 520//450 
f 249//249 246//246 521//450 
f 246//246 201//201 521//450 
f 201//201 198//198 521//450 
f 198//198 249//249 521//450 
f 246//246 243//243 522//450 
f 243//243 204//204 522//450 
f 204//204 201//201 522//450 
f 201//201 246//246 522//450 
f 243//243 240//240 523//450 
f 240//240 207//207 523//450 
f 207//207 204//204 523//450 
f 204//204 243//243 523//450 
f 240//240 237//237 524//450 
f 237//237 210//210 524//450 
f 210//210 207//207 524//450 
f 207//207 240//240 524//450 
f 237//237 234//234 525//450 
f 234//234 213//213 525//450 
f 213//213 210//210 525//450 
f 210//210 237//237 525//450 
f 234//234 231//231 526//450 
f 231//231 216//216 526//450 
f 216//216 213//213 526//450 
f 213//213 234//234 526//450 
f 231//231 228//228 527//450 
f 228//228 219//219 527//450 
f 219//219 216//216 527//450 
f 216//216 231//231 527//450 
f 228//228 225//225 528//450 
f 225//225 222//222 528//450 
f 222//222 219//219 528//450 
f 219//219 228//228 528//450 
f 230//230 233//233 529//451 
f 233//233 218//218 529//451 
f 218//218 221//221 529//451 
f 221//221 230//230 529//451 
f 233//233 236//236 530//451 
f 236//236 215//215 530//451 
f 215//215 218//218 530//451 
f 218//218 233//233 530//451 
f 236//236 239//239 531//451 
f 239//239 212//212 531//451 
f 212//212 215//215 531//451 
f 215//215 236//236 531//451 
f 239//239 242//242 532//451 
f 242//242 209//209 532//451 
f 209//209 212//212 532//451 
f 212//212 239//239 532//451 
f 242//242 245//245 533//451 
f 245//245 206//206 533//451 
f 206//206 209//209 533//451 
f 209//209 242//242 533//451 
f 245//245 248//248 534//451 
f 248//248 203//203 534//451 
f 203//203 206//206 534//451 
f 206//206 245//245 534//451 
f 248//248 251//251 535//451 
f 251//251 200//200 535//451 
f 200//200 203//203 535//451 
f 203//203 248//248 535//451 
f 251//251 254//254 536//451 
f 254//254 197//197 536//451 
f 197//197 200//200 536//451 
f 200//200 251//251 536//451 
f 254//254 257//257 537//451 
f 257//257 194//194 537//451 
f 194//194 197//197 537//451 
f 197//197 254//254 537//451 
f 257//257 260//260 538//451 
f 260//260 194//194 538//451 
f 194//194 257//257 538//451 
f 260//260 263//263 539//451 
f 263//263 191//191 539//451 
f 191//191 194//194 539//451 
f 194//194 260//260 539//451 
f 263//263 266//266 540//451 
f 266//266 188//188 540//451 
f 188//188 191//191 540//451 
f 191//191 263//263 540//451 
f 266//266 269//269 541//451 
f 269//269 185//185 541//451 
f 185//185 188//188 541//451 
f 188//188 266//266 541//451 
f 269//269 272//272 542//451 
f 272//272 182//182 542//451 
f 182//182 185//185 542//451 
f 185//185 269//269 542//451 
f 272//272 275//275 543//451 
f 275//275 176//176 543//451 
f 176//176 179//179 543//451 
f 179//179 182//182 543//451 
f 182//182 272//272 543//451 
f 275//275 278//278 544//451 
f 278//278 173//173 544//451 
f 173//173 176//176 544//451 
f 176//176 275//275 544//451 
f 278//278 281//281 545//451 
f 281//281 170//170 545//451 
f 170//170 173//173 545//451 
f 173//173 278//278 545//451 
f 281//281 284//283 546//451 
f 284//283 167//167 546//451 
f 167//167 170//170 546//451 
f 170//170 281//281 546//451 
f 284//283 287//286 547//451 
f 287//286 167//167 547//451 
f 167//167 284//283 547//451 
f 287//286 290//289 548//451 
f 290//289 164//164 548//451 
f 164//164 167//167 548//451 
f 167//167 287//286 548//451 
f 290//289 293//292 549//451 
f 293//292 158//158 549//451 
f 158//158 161//161 549//451 
f 161//161 164//164 549//451 
f 164//164 290//289 549//451 
f 293//292 296//295 550//451 
f 296//295 152//152 550//451 
f 152//152 155//155 550//451 
f 155//155 158//158 550//451 
f 158//158 293//292 550//451 
f 296//295 299//298 551//451 
f 299//298 146//146 551//451 
f 146//146 149//149 551//451 
f 149//149 152//152 551//451 
f 152//152 296//295 551//451 
f 299//298 302//301 552//451 
f 302//301 143//143 552//451 
f 143//143 146//146 552//451 
f 146//146 299//298 552//451 
f 302//301 305//304 553//451 
f 305//304 140//140 553//451 
f 140//140 143//143 553//451 
f 143//143 302//301 553//451 
f 305//304 308//307 554//451 
f 308//307 137//137 554//451 
f 137//137 140//140 554//451 
f 140//140 305//304 554//451 
f 308//307 311//310 555//451 
f 311//310 137//137 555//451 
f 137//137 308//307 555//451 
f 311//310 314//313 556//451 
f 314//313 137//137 556//451 
f 137//137 311//310 556//451 
f 314//313 317//316 557//451 
f 317//316 137//137 557//451 
f 137//137 314//313 557//451 
f 317//316 320//319 558//451 
f 320//319 137//137 558//451 
f 137//137 317//316 558//451 
f 320//319 323//322 559//451 
f 323//322 131//131 559//451 
f 131//131 134//134 559//451 
f 134//134 137//137 559//451 
f 137//137 320//319 559//451 
f 323//322 326//325 560//451 
f 326//325 122//122 560//451 
f 122//122 125//125 560//451 
f 125//125 128//128 560//451 
f 128//128 131//131 560//451 
f 131//131 323//322 560//451 
f 326//325 329//328 561//451 
f 329//328 113//113 561//451 
f 113//113 116//116 561//451 
f 116//116 119//119 561//451 
f 119//119 122//122 561//451 
f 122//122 326//325 561//451 
f 329//328 332//331 562//451 
f 332//331 101//101 562//451 
f 101//101 104//104 562//451 
f 104//104 107//107 562//451 
f 107//107 110//110 562//451 
f 110//110 113//113 562//451 
f 113//113 329//328 562//451 
f 332//331 335//334 563//451 
f 335//334 92//92 563//451 
f 92//92 95//95 563//451 
f 95//95 98//98 563//451 
f 98//98 101//101 563//451 
f 101//101 332//331 563//451 
f 335//334 338//337 564//451 
f 338//337 83//83 564//451 
f 83//83 86//86 564//451 
f 86//86 89//89 564//451 
f 89//89 92//92 564//451 
f 92//92 335//334 564//451 
f 338//337 341//340 565//451 
f 341//340 407//404 565//451 
f 407//404 410//407 565//451 
f 410//407 83//83 565//451 
f 83//83 338//337 565//451 
f 341//340 344//342 566//451 
f 344//342 567//451 407//404 566//451 
f 407//404 341//340 566//451 
f 410//407 413//410 568//451 
f 413//410 83//83 568//451 
f 83//83 410//407 568//451 
f 413//410 416//413 569//451 
f 416//413 83//83 569//451 
f 83//83 413//410 569//451 
f 416//413 419//416 570//451 
f 419//416 80//80 570//451 
f 80//80 83//83 570//451 
f 83//83 416//413 570//451 
f 419//416 422//419 571//451 
f 422//419 80//80 571//451 
f 80//80 419//416 571//451 
f 422//419 425//421 572//451 
f 425//421 77//77 572//451 
f 77//77 80//80 572//451 
f 80//80 422//419 572//451 
f 425//421 428//424 573//451 
f 428//424 74//74 573//451 
f 74//74 77//77 573//451 
f 77//77 425//421 573//451 
f 428//424 431//427 574//451 
f 431//427 71//71 574//451 
f 71//71 74//74 574//451 
f 74//74 428//424 574//451 
f 431//427 434//430 575//451 
f 434//430 68//68 575//451 
f 68//68 71//71 575//451 
f 71//71 431//427 575//451 
f 434//430 437//433 576//451 
f 437//433 65//65 576//451 
f 65//65 68//68 576//451 
f 68//68 434//430 576//451 
f 437//433 440//436 577//451 
f 440//436 62//62 577//451 
f 62//62 65//65 577//451 
f 65//65 437//433 577//451 
f 440//436 443//439 578//451 
f 443//439 59//59 578//451 
f 59//59 62//62 578//451 
f 62//62 440//436 578//451 
f 443//439 446//442 579//451 
f 446//442 56//56 579//451 
f 56//56 59//59 579//451 
f 59//59 443//439 579//451 
f 446//442 449//445 580//451 
f 449//445 56//56 580//451 
f 56//56 446//442 580//451 
f 449//445 452//448 581//451 
f 452//448 53//53 581//451 
f 53//53 56//56 581//451 
f 56//56 449//445 581//451 
f 452//448 350//348 582//451 
f 350//348 50//50 582//451 
f 50//50 53//53 582//451 
f 53//53 452//448 582//451 
f 350//348 349//347 583//451 
f 349//347 50//50 583//451 
f 50//50 350//348 583//451 
f 349//347 353//351 584//451 
f 353//351 47//47 584//451 
f 47//47 50//50 584//451 
f 50//50 349//347 584//451 
f 353//351 356//354 585//451 
f 356//354 44//44 585//451 
f 44//44 47//47 585//451 
f 47//47 353//351 585//451 
f 356//354 359//357 586//451 
f 359//357 38//38 586//451 
f 38//38 41//41 586//451 
f 41//41 44//44 586//451 
f 44//44 356//354 586//451 
f 359//357 362//360 587//451 
f 362//360 35//35 587//451 
f 35//35 38//38 587//451 
f 38//38 359//357 587//451 
f 362//360 365//363 588//451 
f 365//363 32//32 588//451 
f 32//32 35//35 588//451 
f 35//35 362//360 588//451 
f 365//363 368//366 589//451 
f 368//366 29//29 589//451 
f 29//29 32//32 589//451 
f 32//32 365//363 589//451 
f 368//366 371//369 590//451 
f 371//369 26//26 590//451 
f 26//26 29//29 590//451 
f 29//29 368//366 590//451 
f 371//369 374//372 591//451 
f 374//372 23//23 591//451 
f 23//23 26//26 591//451 
f 26//26 371//369 591//451 
f 374//372 377//375 592//451 
f 377//375 20//20 592//451 
f 20//20 23//23 592//451 
f 23//23 374//372 592//451 
f 377//375 380//378 593//451 
f 380//378 17//17 593//451 
f 17//17 20//20 593//451 
f 20//20 377//375 593//451 
f 380//378 383//381 594//451 
f 383//381 14//14 594//451 
f 14//14 17//17 594//451 
f 17//17 380//378 594//451 
f 383//381 386//384 595//451 
f 386//384 11//11 595//451 
f 11//11 14//14 595//451 
f 14//14 383//381 595//451 
f 386//384 389//387 596//451 
f 389//387 8//8 596//451 
f 8//8 11//11 596//451 
f 11//11 386//384 596//451 
f 389//387 392//390 597//451 
f 392//390 4//4 597//451 
f 4//4 8//8 597//451 
f 8//8 389//387 597//451 
f 392//390 395//392 598//451 
f 395//392 5//5 598//451 
f 5//5 4//4 598//451 
f 4//4 392//390 598//451 
f 395//392 398//395 599//451 
f 398//395 344//342 599//451 
f 344//342 5//5 599//451 
f 5//5 395//392 599//451 
f 398//395 401//398 600//451 
f 401//398 344//342 600//451 
f 344//342 398//395 600//451 
f 401//398 404//401 601//451 
f 404//401 344//342 601//451 
f 344//342 401//398 601//451 
f 404//401 407//404 567//451 
f 344//342 404//401 567//451 
# 2 polygons - 1198 triangles

