# 3ds Max Wavefront OBJ Exporter v0.97b - (c)2007 guruware
# File Created: 07.12.2021 20:26:05

#
# object Vowels_5
#

v  149.8038 0.0000 131.7356
v  149.9054 0.0000 130.7034
v  149.8546 5.0000 131.2195
v  149.9054 10.0000 130.7034
v  149.8038 10.0000 131.7356
v  150.0748 0.0000 129.5374
v  149.9901 5.0000 130.1204
v  150.0748 10.0000 129.5374
v  150.3120 0.0000 128.2374
v  150.1934 5.0000 128.8874
v  150.3120 10.0000 128.2374
v  150.6169 0.0000 126.8035
v  150.4645 5.0000 127.5204
v  150.6169 10.0000 126.8035
v  150.9897 0.0000 125.2357
v  150.8033 5.0000 126.0196
v  150.9897 10.0000 125.2357
v  151.4301 0.0000 123.5340
v  151.2099 5.0000 124.3848
v  151.4301 10.0000 123.5340
v  151.9384 0.0000 121.6983
v  151.6843 5.0000 122.6161
v  151.9384 10.0000 121.6983
v  152.5144 0.0000 119.7288
v  152.2264 5.0000 120.7135
v  152.5144 10.0000 119.7288
v  152.7831 0.0000 118.7706
v  152.6488 5.0000 119.2497
v  152.7831 10.0000 118.7706
v  153.0203 0.0000 117.8526
v  152.9017 5.0000 118.3116
v  153.0203 10.0000 117.8526
v  153.2258 0.0000 116.9747
v  153.1230 5.0000 117.4137
v  153.2258 10.0000 116.9747
v  153.3997 0.0000 116.1371
v  153.3127 5.0000 116.5559
v  153.3997 10.0000 116.1371
v  153.5419 0.0000 115.3397
v  153.4708 5.0000 115.7384
v  153.5419 10.0000 115.3397
v  153.6526 0.0000 114.5824
v  153.5972 5.0000 114.9610
v  153.6526 10.0000 114.5824
v  153.7316 0.0000 113.8653
v  153.6921 5.0000 114.2239
v  153.7316 10.0000 113.8653
v  153.7790 0.0000 113.1885
v  153.7553 5.0000 113.5269
v  153.7790 10.0000 113.1885
v  153.7948 0.0000 112.5518
v  153.7869 5.0000 112.8701
v  153.7948 10.0000 112.5518
v  153.6924 0.0000 110.5898
v  153.7437 5.0000 111.5708
v  153.6924 10.0000 110.5898
v  153.3853 0.0000 108.8587
v  153.5389 5.0000 109.7243
v  153.3853 10.0000 108.8587
v  152.8733 0.0000 107.3584
v  153.1293 5.0000 108.1086
v  152.8733 10.0000 107.3584
v  152.1565 0.0000 106.0890
v  152.5149 5.0000 106.7237
v  152.1565 10.0000 106.0890
v  151.2350 0.0000 105.0503
v  151.6958 5.0000 105.5696
v  151.2350 10.0000 105.0503
v  150.1087 0.0000 104.2425
v  150.6718 5.0000 104.6464
v  150.1087 10.0000 104.2425
v  148.7775 0.0000 103.6654
v  149.4431 5.0000 103.9539
v  148.7775 10.0000 103.6654
v  147.2416 0.0000 103.3192
v  148.0096 5.0000 103.4923
v  147.2416 10.0000 103.3192
v  145.5009 0.0000 103.2038
v  146.3713 5.0000 103.2615
v  145.5009 10.0000 103.2038
v  144.6141 0.0000 103.2929
v  145.0575 5.0000 103.2484
v  144.6141 10.0000 103.2929
v  143.7035 0.0000 103.5603
v  144.1588 5.0000 103.4266
v  143.7035 10.0000 103.5603
v  142.7690 0.0000 104.0060
v  143.2362 5.0000 103.7832
v  142.7690 10.0000 104.0060
v  141.8106 0.0000 104.6299
v  142.2898 5.0000 104.3180
v  141.8106 10.0000 104.6299
v  140.8284 0.0000 105.4321
v  141.3195 5.0000 105.0310
v  140.8284 10.0000 105.4321
v  139.8224 0.0000 106.4126
v  140.3254 5.0000 105.9223
v  139.8224 10.0000 106.4126
v  138.7924 0.0000 107.5713
v  139.3074 5.0000 106.9919
v  138.7924 10.0000 107.5713
v  137.7387 0.0000 108.9083
v  138.2656 5.0000 108.2398
v  137.7387 10.0000 108.9083
v  136.6611 0.0000 110.4236
v  137.1999 5.0000 109.6659
v  136.6611 10.0000 110.4236
v  136.1381 0.0000 111.1722
v  136.3996 5.0000 110.7979
v  136.1381 10.0000 111.1722
v  135.6434 0.0000 111.8328
v  135.8907 5.0000 111.5025
v  135.6434 10.0000 111.8328
v  135.1772 0.0000 112.4053
v  135.4103 5.0000 112.1190
v  135.1772 10.0000 112.4053
v  134.7393 0.0000 112.8897
v  134.9582 5.0000 112.6475
v  134.7393 10.0000 112.8897
v  134.3298 0.0000 113.2861
v  134.5346 5.0000 113.0879
v  134.3298 10.0000 113.2861
v  133.9487 0.0000 113.5944
v  134.1393 5.0000 113.4402
v  133.9487 10.0000 113.5944
v  133.5960 0.0000 113.8145
v  133.7724 5.0000 113.7044
v  133.5960 10.0000 113.8145
v  133.2717 0.0000 113.9466
v  133.4338 5.0000 113.8806
v  133.2717 10.0000 113.9466
v  132.9757 0.0000 113.9907
v  133.1237 5.0000 113.9687
v  132.9757 10.0000 113.9907
v  132.7680 0.0000 113.9161
v  132.8719 5.0000 113.9534
v  132.7680 10.0000 113.9161
v  132.5484 0.0000 113.7458
v  132.6582 5.0000 113.8309
v  132.5484 10.0000 113.7458
v  132.3169 0.0000 113.4800
v  132.4327 5.0000 113.6129
v  132.3169 10.0000 113.4800
v  132.0736 0.0000 113.1186
v  132.1953 5.0000 113.2993
v  132.0736 10.0000 113.1186
v  131.8184 0.0000 112.6616
v  131.9460 5.0000 112.8901
v  131.8184 10.0000 112.6616
v  131.5514 0.0000 112.1090
v  131.6849 5.0000 112.3853
v  131.5514 10.0000 112.1090
v  131.2724 0.0000 111.4608
v  131.4119 5.0000 111.7849
v  131.2724 10.0000 111.4608
v  130.9816 0.0000 110.7170
v  131.1270 5.0000 111.0889
v  130.9816 10.0000 110.7170
v  130.6790 0.0000 109.8777
v  130.8303 5.0000 110.2974
v  130.6790 10.0000 109.8777
v  130.2940 0.0000 108.7949
v  130.4865 5.0000 109.3363
v  130.2940 10.0000 108.7949
v  129.9172 0.0000 107.8040
v  130.1056 5.0000 108.2994
v  129.9172 10.0000 107.8040
v  129.5485 0.0000 106.9048
v  129.7328 5.0000 107.3544
v  129.5485 10.0000 106.9048
v  129.1880 0.0000 106.0975
v  129.3683 5.0000 106.5011
v  129.1880 10.0000 106.0975
v  128.8357 0.0000 105.3819
v  129.0119 5.0000 105.7397
v  128.8357 10.0000 105.3819
v  128.4915 0.0000 104.7582
v  128.6636 5.0000 105.0700
v  128.4915 10.0000 104.7582
v  128.1555 0.0000 104.2262
v  128.3235 5.0000 104.4922
v  128.1555 10.0000 104.2262
v  127.8277 0.0000 103.7861
v  127.9916 5.0000 104.0061
v  127.8277 10.0000 103.7861
v  127.5081 0.0000 103.4378
v  127.6679 5.0000 103.6119
v  127.5081 10.0000 103.4378
v  127.1713 0.0000 103.1521
v  127.3397 5.0000 103.2949
v  127.1713 10.0000 103.1521
v  126.7919 0.0000 102.9001
v  126.9816 5.0000 103.0261
v  126.7919 10.0000 102.9001
v  126.3701 0.0000 102.6817
v  126.5810 5.0000 102.7909
v  126.3701 10.0000 102.6817
v  125.9057 0.0000 102.4969
v  126.1379 5.0000 102.5893
v  125.9057 10.0000 102.4969
v  125.3988 0.0000 102.3456
v  125.6522 5.0000 102.4212
v  125.3988 10.0000 102.3456
v  124.8494 0.0000 102.2280
v  125.1241 5.0000 102.2868
v  124.8494 10.0000 102.2280
v  124.2574 0.0000 102.1440
v  124.5534 5.0000 102.1860
v  124.2574 10.0000 102.1440
v  123.6230 0.0000 102.0936
v  123.9402 5.0000 102.1188
v  123.6230 10.0000 102.0936
v  122.9460 0.0000 102.0768
v  123.2845 5.0000 102.0852
v  122.9460 10.0000 102.0768
v  120.9512 0.0000 112.3807
v  121.9486 5.0000 107.2288
v  120.9512 10.0000 112.3807
v  121.4843 0.0000 112.4000
v  121.2177 5.0000 112.3903
v  121.4843 10.0000 112.4000
v  121.9823 0.0000 112.4578
v  121.7333 5.0000 112.4289
v  121.9823 10.0000 112.4578
v  122.4453 0.0000 112.5541
v  122.2138 5.0000 112.5060
v  122.4453 10.0000 112.5541
v  122.8732 0.0000 112.6890
v  122.6593 5.0000 112.6216
v  122.8732 10.0000 112.6890
v  123.2661 0.0000 112.8625
v  123.0696 5.0000 112.7757
v  123.2661 10.0000 112.8625
v  123.6239 0.0000 113.0745
v  123.4450 5.0000 112.9685
v  123.6239 10.0000 113.0745
v  123.9466 0.0000 113.3250
v  123.7852 5.0000 113.1997
v  123.9466 10.0000 113.3250
v  124.2343 0.0000 113.6140
v  124.0904 5.0000 113.4695
v  124.2343 10.0000 113.6140
v  124.4869 0.0000 113.9416
v  124.3605 5.0000 113.7778
v  124.4869 10.0000 113.9416
v  124.7297 0.0000 114.3208
v  124.6083 5.0000 114.1312
v  124.7297 10.0000 114.3208
v  124.9882 0.0000 114.7644
v  124.8590 5.0000 114.5426
v  124.9882 10.0000 114.7644
v  125.2624 0.0000 115.2725
v  125.1253 5.0000 115.0185
v  125.2624 10.0000 115.2725
v  125.5521 0.0000 115.8452
v  125.4072 5.0000 115.5588
v  125.5521 10.0000 115.8452
v  125.8575 0.0000 116.4823
v  125.7048 5.0000 116.1637
v  125.8575 10.0000 116.4823
v  126.1785 0.0000 117.1840
v  126.0180 5.0000 116.8331
v  126.1785 10.0000 117.1840
v  126.5151 0.0000 117.9501
v  126.3468 5.0000 117.5670
v  126.5151 10.0000 117.9501
v  126.8673 0.0000 118.7808
v  126.6912 5.0000 118.3654
v  126.8673 10.0000 118.7808
v  127.2351 0.0000 119.6759
v  127.0512 5.0000 119.2284
v  127.2351 10.0000 119.6759
v  127.7813 0.0000 120.9494
v  127.5082 5.0000 120.3127
v  127.7813 10.0000 120.9494
v  128.3184 0.0000 122.0730
v  128.0498 5.0000 121.5112
v  128.3184 10.0000 122.0730
v  128.8465 0.0000 123.0468
v  128.5825 5.0000 122.5599
v  128.8465 10.0000 123.0468
v  129.3656 0.0000 123.8708
v  129.1061 5.0000 123.4588
v  129.3656 10.0000 123.8708
v  129.8757 0.0000 124.5450
v  129.6207 5.0000 124.2079
v  129.8757 10.0000 124.5450
v  130.3769 0.0000 125.0694
v  130.1263 5.0000 124.8072
v  130.3769 10.0000 125.0694
v  130.8689 0.0000 125.4439
v  130.6229 5.0000 125.2567
v  130.8689 10.0000 125.4439
v  131.3520 0.0000 125.6687
v  131.1105 5.0000 125.5563
v  131.3520 10.0000 125.6687
v  131.8261 0.0000 125.7436
v  131.5891 5.0000 125.7061
v  131.8261 10.0000 125.7436
v  132.3119 0.0000 125.6743
v  132.0690 5.0000 125.7090
v  132.3119 10.0000 125.6743
v  132.8560 0.0000 125.4220
v  132.5840 5.0000 125.5481
v  132.8560 10.0000 125.4220
v  133.4582 0.0000 124.9864
v  133.1571 5.0000 125.2042
v  133.4582 10.0000 124.9864
v  134.1186 0.0000 124.3676
v  133.7884 5.0000 124.6770
v  134.1186 10.0000 124.3676
v  134.8372 0.0000 123.5657
v  134.4779 5.0000 123.9667
v  134.8372 10.0000 123.5657
v  135.6140 0.0000 122.5806
v  135.2256 5.0000 123.0732
v  135.6140 10.0000 122.5806
v  136.4491 0.0000 121.4124
v  136.0316 5.0000 121.9965
v  136.4491 10.0000 121.4124
v  137.3423 0.0000 120.0609
v  136.8957 5.0000 120.7366
v  137.3423 10.0000 120.0609
v  138.2937 0.0000 118.5263
v  137.8180 5.0000 119.2936
v  138.2937 10.0000 118.5263
v  138.9964 0.0000 117.3717
v  138.6451 5.0000 117.9490
v  138.9964 10.0000 117.3717
v  139.6543 0.0000 116.3528
v  139.3253 5.0000 116.8623
v  139.6543 10.0000 116.3528
v  140.2673 0.0000 115.4699
v  139.9608 5.0000 115.9113
v  140.2673 10.0000 115.4699
v  140.8357 0.0000 114.7227
v  140.5515 5.0000 115.0963
v  140.8357 10.0000 114.7227
v  141.3592 0.0000 114.1114
v  141.0974 5.0000 114.4171
v  141.3592 10.0000 114.1114
v  141.8379 0.0000 113.6360
v  141.5985 5.0000 113.8737
v  141.8379 10.0000 113.6360
v  142.2719 0.0000 113.2964
v  142.0549 5.0000 113.4662
v  142.2719 10.0000 113.2964
v  142.6610 0.0000 113.0926
v  142.4665 5.0000 113.1945
v  142.6610 10.0000 113.0926
v  143.0054 0.0000 113.0247
v  142.8332 5.0000 113.0587
v  143.0054 10.0000 113.0247
v  143.0783 0.0000 113.0277
v  143.0419 5.0000 113.0262
v  143.0783 10.0000 113.0277
v  143.1615 0.0000 113.0366
v  143.1199 5.0000 113.0322
v  143.1615 10.0000 113.0366
v  143.2550 0.0000 113.0515
v  143.2083 5.0000 113.0441
v  143.2550 10.0000 113.0515
v  143.3590 0.0000 113.0724
v  143.3070 5.0000 113.0620
v  143.3590 10.0000 113.0724
v  143.4733 0.0000 113.0992
v  143.4161 5.0000 113.0858
v  143.4733 10.0000 113.0992
v  143.5980 0.0000 113.1320
v  143.5357 5.0000 113.1156
v  143.5980 10.0000 113.1320
v  143.7331 0.0000 113.1708
v  143.6655 5.0000 113.1514
v  143.7331 10.0000 113.1708
v  143.8785 0.0000 113.2155
v  143.8058 5.0000 113.1931
v  143.8785 10.0000 113.2155
v  144.0343 0.0000 113.2662
v  143.9564 5.0000 113.2409
v  144.0343 10.0000 113.2662
v  144.2244 0.0000 113.3996
v  144.1293 5.0000 113.3329
v  144.2244 10.0000 113.3996
v  144.3921 0.0000 113.5584
v  144.3082 5.0000 113.4790
v  144.3921 10.0000 113.5584
v  144.5374 0.0000 113.7425
v  144.4648 5.0000 113.6504
v  144.5374 10.0000 113.7425
v  144.6604 0.0000 113.9519
v  144.5989 5.0000 113.8472
v  144.6604 10.0000 113.9519
v  144.7610 0.0000 114.1867
v  144.7107 5.0000 114.0693
v  144.7610 10.0000 114.1867
v  144.8393 0.0000 114.4469
v  144.8002 5.0000 114.3168
v  144.8393 10.0000 114.4469
v  144.8952 0.0000 114.7323
v  144.8673 5.0000 114.5896
v  144.8952 10.0000 114.7323
v  144.9288 0.0000 115.0431
v  144.9120 5.0000 114.8877
v  144.9288 10.0000 115.0431
v  144.9399 0.0000 115.3793
v  144.9343 5.0000 115.2112
v  144.9399 10.0000 115.3793
v  144.9095 0.0000 116.0194
v  144.9247 5.0000 115.6993
v  144.9095 10.0000 116.0194
v  144.8182 0.0000 116.7309
v  144.8638 5.0000 116.3751
v  144.8182 10.0000 116.7309
v  144.6660 0.0000 117.5139
v  144.7421 5.0000 117.1224
v  144.6660 10.0000 117.5139
v  144.4530 0.0000 118.3685
v  144.5595 5.0000 117.9412
v  144.4530 10.0000 118.3685
v  144.1790 0.0000 119.2945
v  144.3160 5.0000 118.8315
v  144.1790 10.0000 119.2945
v  143.8443 0.0000 120.2920
v  144.0116 5.0000 119.7932
v  143.8443 10.0000 120.2920
v  143.4486 0.0000 121.3610
v  143.6464 5.0000 120.8265
v  143.4486 10.0000 121.3610
v  142.9921 0.0000 122.5015
v  143.2203 5.0000 121.9312
v  142.9921 10.0000 122.5015
v  142.4746 0.0000 123.7135
v  142.7334 5.0000 123.1075
v  142.4746 10.0000 123.7135
v  141.9689 0.0000 124.9200
v  142.2218 5.0000 124.3167
v  141.9689 10.0000 124.9200
v  141.5195 0.0000 126.0698
v  141.7442 5.0000 125.4949
v  141.5195 10.0000 126.0698
v  141.1263 0.0000 127.1629
v  141.3229 5.0000 126.6164
v  141.1263 10.0000 127.1629
v  140.7894 0.0000 128.1993
v  140.9578 5.0000 127.6811
v  140.7894 10.0000 128.1993
v  140.5087 0.0000 129.1790
v  140.6491 5.0000 128.6892
v  140.5087 10.0000 129.1790
v  140.2844 0.0000 130.1020
v  140.3966 5.0000 129.6405
v  140.2844 10.0000 130.1020
v  140.1163 0.0000 130.9682
v  140.2003 5.0000 130.5351
v  140.1163 10.0000 130.9682
v  140.0045 0.0000 131.7778
v  140.0604 5.0000 131.3730
v  140.0045 10.0000 131.7778
v  139.9490 0.0000 132.5307
v  139.9767 5.0000 132.1542
v  139.9490 10.0000 132.5307
v  139.9490 0.0000 180.6013
v  139.9490 5.0000 156.5659
v  139.9490 10.0000 180.6013
v  140.0750 0.0000 182.9079
v  140.0120 5.0000 181.7546
v  140.0750 10.0000 182.9079
v  140.4529 0.0000 184.9432
v  140.2639 5.0000 183.9256
v  140.4529 10.0000 184.9432
v  141.0827 0.0000 186.7072
v  140.7678 5.0000 185.8252
v  141.0827 10.0000 186.7072
v  141.9644 0.0000 188.1997
v  141.5236 5.0000 187.4534
v  141.9644 10.0000 188.1997
v  143.0981 0.0000 189.4209
v  142.5313 5.0000 188.8103
v  143.0981 10.0000 189.4209
v  144.4838 0.0000 190.3707
v  143.7910 5.0000 189.8958
v  144.4838 10.0000 190.3707
v  146.1213 0.0000 191.0492
v  145.3026 5.0000 190.7099
v  146.1213 10.0000 191.0492
v  148.0108 0.0000 191.4562
v  147.0661 5.0000 191.2527
v  148.0108 10.0000 191.4562
v  150.1523 0.0000 191.5919
v  149.0815 5.0000 191.5241
v  150.1523 10.0000 191.5919
v  151.8688 0.0000 191.5046
v  151.0105 5.0000 191.5483
v  151.8688 10.0000 191.5046
v  153.4229 0.0000 191.2427
v  152.6459 5.0000 191.3737
v  153.4229 10.0000 191.2427
v  154.8145 0.0000 190.8062
v  154.1187 5.0000 191.0245
v  154.8145 10.0000 190.8062
v  156.0436 0.0000 190.1951
v  155.4290 5.0000 190.5007
v  156.0436 10.0000 190.1951
v  157.1102 0.0000 189.4094
v  156.5769 5.0000 189.8022
v  157.1102 10.0000 189.4094
v  158.0143 0.0000 188.4491
v  157.5623 5.0000 188.9292
v  158.0143 10.0000 188.4491
v  158.7560 0.0000 187.3142
v  158.3852 5.0000 187.8816
v  158.7560 10.0000 187.3142
v  159.3351 0.0000 186.0047
v  159.0455 5.0000 186.6594
v  159.3351 10.0000 186.0047
v  159.7518 0.0000 184.5206
v  159.5435 5.0000 185.2626
v  159.7518 10.0000 184.5206
v  159.6286 0.0000 182.2878
v  159.6902 5.0000 183.4042
v  159.6286 10.0000 182.2878
v  159.2589 0.0000 180.3177
v  159.4437 5.0000 181.3027
v  159.2589 10.0000 180.3177
v  158.6427 0.0000 178.6103
v  158.9508 5.0000 179.4640
v  158.6427 10.0000 178.6103
v  157.7801 0.0000 177.1656
v  158.2114 5.0000 177.8879
v  157.7801 10.0000 177.1656
v  156.6709 0.0000 175.9835
v  157.2255 5.0000 176.5745
v  156.6709 10.0000 175.9835
v  155.3154 0.0000 175.0641
v  155.9932 5.0000 175.5238
v  155.3154 10.0000 175.0641
v  153.7133 0.0000 174.4074
v  154.5144 5.0000 174.7358
v  153.7133 10.0000 174.4074
v  151.8649 0.0000 174.0134
v  152.7891 5.0000 174.2104
v  151.8649 10.0000 174.0134
v  149.7699 0.0000 173.8821
v  150.8174 5.0000 173.9478
v  149.7699 10.0000 173.8821
v  149.7699 0.0000 132.6338
v  149.7699 5.0000 153.2579
v  149.7699 10.0000 132.6338
v  149.7868 5.0000 132.1847
v  149.7301 0.0000 186.7112
v  148.9848 0.0000 186.5587
v  149.3575 5.0000 186.6349
v  148.9848 10.0000 186.5587
v  149.7301 10.0000 186.7112
v  148.3388 0.0000 186.3047
v  148.6618 5.0000 186.4317
v  148.3388 10.0000 186.3047
v  147.7922 0.0000 185.9490
v  148.0655 5.0000 186.1268
v  147.7922 10.0000 185.9490
v  147.3450 0.0000 185.4917
v  147.5686 5.0000 185.7204
v  147.3450 10.0000 185.4917
v  146.9971 0.0000 184.9328
v  147.1711 5.0000 185.2123
v  146.9971 10.0000 184.9328
v  146.7487 0.0000 184.2723
v  146.8729 5.0000 184.6026
v  146.7487 10.0000 184.2723
v  146.5996 0.0000 183.5102
v  146.6741 5.0000 183.8913
v  146.5996 10.0000 183.5102
v  146.5499 0.0000 182.6464
v  146.5748 5.0000 183.0783
v  146.5499 10.0000 182.6464
v  146.5996 0.0000 181.8207
v  146.5748 5.0000 182.2336
v  146.5996 10.0000 181.8207
v  146.7487 0.0000 181.0921
v  146.6741 5.0000 181.4564
v  146.7487 10.0000 181.0921
v  146.9971 0.0000 180.4607
v  146.8729 5.0000 180.7764
v  146.9971 10.0000 180.4607
v  147.3450 0.0000 179.9264
v  147.1711 5.0000 180.1935
v  147.3450 10.0000 179.9264
v  147.7922 0.0000 179.4892
v  147.5686 5.0000 179.7078
v  147.7922 10.0000 179.4892
v  148.3388 0.0000 179.1492
v  148.0655 5.0000 179.3192
v  148.3388 10.0000 179.1492
v  148.9848 0.0000 178.9063
v  148.6618 5.0000 179.0278
v  148.9848 10.0000 178.9063
v  149.7301 0.0000 178.7606
v  149.3575 5.0000 178.8335
v  149.7301 10.0000 178.7606
v  150.5749 0.0000 178.7120
v  150.1525 5.0000 178.7363
v  150.5749 10.0000 178.7120
v  151.4196 0.0000 178.7606
v  150.9973 5.0000 178.7363
v  151.4196 10.0000 178.7606
v  152.1650 0.0000 178.9063
v  151.7923 5.0000 178.8335
v  152.1650 10.0000 178.9063
v  152.8110 0.0000 179.1492
v  152.4880 5.0000 179.0278
v  152.8110 10.0000 179.1492
v  153.3576 0.0000 179.4892
v  153.0843 5.0000 179.3192
v  153.3576 10.0000 179.4892
v  153.8048 0.0000 179.9264
v  153.5812 5.0000 179.7078
v  153.8048 10.0000 179.9264
v  154.1526 0.0000 180.4607
v  153.9787 5.0000 180.1935
v  154.1526 10.0000 180.4607
v  154.4011 0.0000 181.0921
v  154.2768 5.0000 180.7764
v  154.4011 10.0000 181.0921
v  154.5501 0.0000 181.8207
v  154.4756 5.0000 181.4564
v  154.5501 10.0000 181.8207
v  154.5998 0.0000 182.6464
v  154.5750 5.0000 182.2336
v  154.5998 10.0000 182.6464
v  154.5501 0.0000 183.5102
v  154.5750 5.0000 183.0783
v  154.5501 10.0000 183.5102
v  154.4011 0.0000 184.2723
v  154.4756 5.0000 183.8913
v  154.4011 10.0000 184.2723
v  154.1526 0.0000 184.9328
v  154.2769 5.0000 184.6026
v  154.1526 10.0000 184.9328
v  153.8048 0.0000 185.4917
v  153.9787 5.0000 185.2123
v  153.8048 10.0000 185.4917
v  153.3576 0.0000 185.9490
v  153.5812 5.0000 185.7204
v  153.3576 10.0000 185.9490
v  152.8110 0.0000 186.3047
v  153.0843 5.0000 186.1268
v  152.8110 10.0000 186.3047
v  152.1650 0.0000 186.5587
v  152.4880 5.0000 186.4317
v  152.1650 10.0000 186.5587
v  151.4196 0.0000 186.7112
v  151.7923 5.0000 186.6349
v  151.4196 10.0000 186.7112
v  150.5749 0.0000 186.7620
v  150.9973 5.0000 186.7366
v  150.5749 10.0000 186.7620
v  150.1525 5.0000 186.7366
v  127.6921 0.0000 110.5752
v  121.7938 10.0000 108.9525
v  127.4604 0.0000 111.8834
v  126.5889 0.0000 110.1614
v  126.7423 0.0000 108.7871
v  126.4812 0.0000 105.0341
v  123.7594 0.0000 105.6372
v  122.5089 0.0000 107.2570
v  121.7938 0.0000 108.9525
v  127.8677 0.0000 112.6101
v  128.2686 0.0000 113.4017
v  126.5676 0.0000 112.7576
v  128.5461 0.0000 113.9721
v  126.9968 0.0000 113.5153
v  128.0365 0.0000 115.5950
v  129.2710 0.0000 115.4332
v  128.8254 0.0000 114.5269
v  129.5619 0.0000 115.9892
v  129.4400 0.0000 117.4136
v  130.1380 0.0000 118.7952
v  132.1303 0.0000 123.1948
v  135.7611 0.0000 118.3902
v  136.2087 0.0000 115.8267
v  135.7583 0.0000 114.7507
v  136.9299 0.0000 114.9751
v  136.5236 0.0000 113.8826
v  137.6855 0.0000 114.0152
v  138.2211 0.0000 113.2994
v  152.6450 0.0000 112.5858
v  150.7154 0.0000 116.2992
v  150.3991 0.0000 117.4784
v  150.1281 0.0000 118.5682
v  149.9022 0.0000 119.5688
v  149.7215 0.0000 120.4801
v  149.5859 0.0000 121.3021
v  149.4956 0.0000 122.0348
v  149.4504 0.0000 122.6783
v  148.5392 0.0000 139.1959
v  147.6082 0.0000 153.7531
v  147.2106 0.0000 153.9474
v  146.8794 0.0000 154.2065
v  146.6143 0.0000 154.5303
v  146.4156 0.0000 154.9189
v  146.2831 0.0000 155.3722
v  141.4025 0.0000 136.1825
v  144.3662 0.0000 182.2526
v  144.3302 0.0000 142.1696
v  144.6143 0.0000 141.4331
v  144.8577 0.0000 140.7443
v  145.0606 0.0000 140.1031
v  145.2230 0.0000 139.5096
v  145.3447 0.0000 138.9637
v  145.4259 0.0000 138.4656
v  145.4664 0.0000 138.0150
v  145.1232 0.0000 111.2087
v  145.8976 0.0000 145.7626
v  145.1083 0.0000 110.9931
v  145.0785 0.0000 110.7943
v  145.0338 0.0000 110.6125
v  144.9741 0.0000 110.4475
v  144.8996 0.0000 110.2994
v  144.8102 0.0000 110.1682
v  144.7058 0.0000 110.0539
v  144.5865 0.0000 109.9565
v  144.4712 0.0000 109.8952
v  144.3708 0.0000 109.8634
v  144.2299 0.0000 107.2720
v  143.3859 0.0000 108.4494
v  143.2004 0.0000 110.0592
v  142.7984 0.0000 108.6900
v  142.7424 0.0000 110.2394
v  142.2197 0.0000 109.0316
v  142.3040 0.0000 110.4948
v  141.5793 0.0000 109.4905
v  140.8869 0.0000 110.0932
v  140.1602 0.0000 110.8530
v  139.3992 0.0000 111.7698
v  138.7485 0.0000 112.6075
v  144.4324 0.0000 182.7946
v  144.5649 0.0000 183.2688
v  144.1443 0.0000 187.3061
v  148.4298 0.0000 187.6776
v  148.7611 0.0000 187.9485
v  149.1586 0.0000 188.1518
v  149.6224 0.0000 188.2873
v  150.1524 0.0000 188.3550
v  150.7156 0.0000 188.3550
v  151.2456 0.0000 188.2873
v  151.7094 0.0000 188.1518
v  152.1069 0.0000 187.9485
v  152.4382 0.0000 187.6776
v  156.3171 0.0000 186.8452
v  155.7321 0.0000 182.6051
v  155.8646 0.0000 182.1309
v  155.9309 0.0000 181.5890
v  155.9309 0.0000 181.0258
v  155.8646 0.0000 180.5077
v  155.7321 0.0000 180.0544
v  155.5334 0.0000 179.6658
v  154.5466 0.0000 176.5047
v  151.9795 0.0000 177.5068
v  151.5819 0.0000 177.3125
v  151.1182 0.0000 177.1830
v  150.5881 0.0000 177.1182
v  150.0250 0.0000 177.1182
v  122.5089 10.0000 107.2570
v  123.7594 10.0000 105.6372
v  126.4812 10.0000 105.0341
v  126.7423 10.0000 108.7871
v  126.5889 10.0000 110.1614
v  126.9454 10.0000 110.7496
v  127.2885 10.0000 111.4029
v  127.5954 10.0000 112.0376
v  126.7327 10.0000 112.9931
v  127.9930 10.0000 112.8158
v  128.2686 10.0000 113.4017
v  128.5461 10.0000 113.9721
v  128.8254 10.0000 114.5269
v  129.1066 10.0000 115.0662
v  129.3897 10.0000 115.5900
v  129.6747 10.0000 116.0982
v  136.2233 10.0000 118.2447
v  136.9299 10.0000 114.9751
v  132.1303 10.0000 123.1948
v  129.2561 10.0000 118.9190
v  137.6855 10.0000 114.0152
v  135.7583 10.0000 114.7507
v  135.5137 10.0000 114.9268
v  138.2211 10.0000 113.2994
v  136.5236 10.0000 113.8826
v  138.7485 10.0000 112.6075
v  139.3992 10.0000 111.7698
v  140.1602 10.0000 110.8530
v  140.8869 10.0000 110.0932
v  141.5793 10.0000 109.4905
v  142.3040 10.0000 110.4948
v  142.2197 10.0000 109.0316
v  142.7424 10.0000 110.2394
v  142.7984 10.0000 108.6900
v  143.2004 10.0000 110.0592
v  143.3859 10.0000 108.4494
v  144.2299 10.0000 107.2720
v  144.3708 10.0000 109.8634
v  144.4712 10.0000 109.8952
v  144.5865 10.0000 109.9565
v  144.7058 10.0000 110.0539
v  144.8102 10.0000 110.1682
v  144.8996 10.0000 110.2994
v  144.9741 10.0000 110.4475
v  145.0338 10.0000 110.6125
v  145.0785 10.0000 110.7943
v  145.1083 10.0000 110.9931
v  145.1232 10.0000 111.2087
v  145.8976 10.0000 145.7626
v  145.4664 10.0000 138.0150
v  146.2831 10.0000 155.3722
v  146.4156 10.0000 154.9189
v  146.6143 10.0000 154.5303
v  146.8794 10.0000 154.2065
v  147.2106 10.0000 153.9474
v  147.6082 10.0000 153.7531
v  148.5392 10.0000 139.1959
v  149.4504 10.0000 122.6783
v  149.4956 10.0000 122.0348
v  149.5859 10.0000 121.3021
v  149.7215 10.0000 120.4801
v  149.9022 10.0000 119.5688
v  150.1281 10.0000 118.5682
v  150.3991 10.0000 117.4784
v  150.7154 10.0000 116.2992
v  152.6450 10.0000 112.5858
v  145.4259 10.0000 138.4656
v  145.3447 10.0000 138.9637
v  145.2230 10.0000 139.5096
v  145.0606 10.0000 140.1031
v  144.8577 10.0000 140.7443
v  144.6143 10.0000 141.4331
v  144.3302 10.0000 142.1696
v  150.0250 10.0000 177.1182
v  150.5881 10.0000 177.1182
v  151.1182 10.0000 177.1830
v  151.5819 10.0000 177.3125
v  151.9795 10.0000 177.5068
v  154.5466 10.0000 176.5047
v  155.5334 10.0000 179.6658
v  155.7321 10.0000 180.0544
v  155.8646 10.0000 180.5077
v  155.9309 10.0000 181.0258
v  155.9309 10.0000 181.5890
v  155.8646 10.0000 182.1309
v  155.7321 10.0000 182.6051
v  156.3171 10.0000 186.8452
v  152.4382 10.0000 187.6776
v  152.1069 10.0000 187.9485
v  151.7094 10.0000 188.1518
v  151.2456 10.0000 188.2873
v  150.7156 10.0000 188.3550
v  150.1524 10.0000 188.3550
v  149.6224 10.0000 188.2873
v  149.1586 10.0000 188.1518
v  148.7611 10.0000 187.9485
v  148.4298 10.0000 187.6776
v  144.1443 10.0000 187.3061
v  144.5649 10.0000 183.2688
v  144.4324 10.0000 182.7946
v  141.7737 10.0000 139.5630
# 863 vertices

vn 0.6986 -0.7140 0.0475
vn 0.6967 -0.7123 0.0849
vn 0.9952 0.0000 0.0980
vn 0.6967 0.7123 0.0849
vn 0.6986 0.7140 0.0475
vn 0.6937 -0.7112 0.1136
vn 0.9896 0.0000 0.1438
vn 0.6937 0.7112 0.1136
vn 0.6905 -0.7104 0.1364
vn 0.9838 0.0000 0.1795
vn 0.6905 0.7104 0.1364
vn 0.6872 -0.7098 0.1547
vn 0.9781 0.0000 0.2080
vn 0.6872 0.7098 0.1547
vn 0.6841 -0.7094 0.1698
vn 0.9729 0.0000 0.2313
vn 0.6841 0.7094 0.1698
vn 0.6812 -0.7090 0.1824
vn 0.9681 0.0000 0.2506
vn 0.6812 0.7090 0.1824
vn 0.6785 -0.7087 0.1931
vn 0.9637 0.0000 0.2668
vn 0.6785 0.7087 0.1931
vn 0.6810 -0.7059 0.1951
vn 0.9598 0.0000 0.2807
vn 0.6810 0.7059 0.1951
vn 0.6850 -0.7048 0.1845
vn 0.9628 0.0000 0.2700
vn 0.6850 0.7048 0.1845
vn 0.6891 -0.7045 0.1696
vn 0.9682 0.0000 0.2501
vn 0.6891 0.7045 0.1696
vn 0.6932 -0.7043 0.1531
vn 0.9737 0.0000 0.2279
vn 0.6932 0.7043 0.1531
vn 0.6974 -0.7040 0.1346
vn 0.9791 0.0000 0.2033
vn 0.6974 0.7040 0.1346
vn 0.7014 -0.7036 0.1138
vn 0.9845 0.0000 0.1756
vn 0.7014 0.7036 0.1138
vn 0.7053 -0.7032 0.0904
vn 0.9895 0.0000 0.1446
vn 0.7053 0.7032 0.0904
vn 0.7087 -0.7027 0.0639
vn 0.9940 0.0000 0.1096
vn 0.7087 0.7027 0.0639
vn 0.7113 -0.7021 0.0337
vn 0.9976 0.0000 0.0699
vn 0.7113 0.7021 0.0337
vn 0.7155 -0.6985 -0.0098
vn 0.9997 0.0000 0.0248
vn 0.7155 0.6985 -0.0098
vn 0.7158 -0.6935 -0.0819
vn 0.9986 0.0000 -0.0521
vn 0.7158 0.6935 -0.0819
vn 0.7006 -0.6903 -0.1806
vn 0.9846 0.0000 -0.1747
vn 0.7006 0.6903 -0.1806
vn 0.6632 -0.6869 -0.2973
vn 0.9464 0.0000 -0.3230
vn 0.6632 0.6869 -0.2973
vn 0.5937 -0.6841 -0.4237
vn 0.8708 0.0000 -0.4917
vn 0.5937 0.6841 -0.4237
vn 0.4891 -0.6829 -0.5426
vn 0.7480 0.0000 -0.6637
vn 0.4891 0.6829 -0.5426
vn 0.3597 -0.6839 -0.6347
vn 0.5828 0.0000 -0.8126
vn 0.3597 0.6839 -0.6347
vn 0.2255 -0.6866 -0.6911
vn 0.3977 0.0000 -0.9175
vn 0.2255 0.6866 -0.6911
vn 0.1038 -0.6900 -0.7163
vn 0.2199 0.0000 -0.9755
vn 0.1038 0.6900 -0.7163
vn -0.0123 -0.6889 -0.7248
vn 0.0661 0.0000 -0.9978
vn -0.0123 0.6889 -0.7248
vn -0.1393 -0.6869 -0.7133
vn -0.1000 0.0000 -0.9950
vn -0.1393 0.6869 -0.7133
vn -0.2587 -0.6896 -0.6764
vn -0.2817 0.0000 -0.9595
vn -0.2587 0.6896 -0.6764
vn -0.3528 -0.6925 -0.6292
vn -0.4305 0.0000 -0.9026
vn -0.3528 0.6925 -0.6292
vn -0.4241 -0.6952 -0.5804
vn -0.5456 0.0000 -0.8380
vn -0.4241 0.6952 -0.5804
vn -0.4773 -0.6974 -0.5347
vn -0.6326 0.0000 -0.7745
vn -0.4773 0.6974 -0.5347
vn -0.5170 -0.6991 -0.4938
vn -0.6980 0.0000 -0.7161
vn -0.5170 0.6991 -0.4938
vn -0.5472 -0.7005 -0.4581
vn -0.7474 0.0000 -0.6643
vn -0.5472 0.7005 -0.4581
vn -0.5703 -0.7016 -0.4272
vn -0.7854 0.0000 -0.6190
vn -0.5703 0.7016 -0.4272
vn -0.5787 -0.7062 -0.4079
vn -0.8149 0.0000 -0.5796
vn -0.5787 0.7062 -0.4079
vn -0.5699 -0.7108 -0.4123
vn -0.8198 0.0000 -0.5727
vn -0.5699 0.7108 -0.4123
vn -0.5536 -0.7117 -0.4324
vn -0.8005 0.0000 -0.5994
vn -0.5536 0.7117 -0.4324
vn -0.5321 -0.7129 -0.4567
vn -0.7754 0.0000 -0.6315
vn -0.5321 0.7129 -0.4567
vn -0.5029 -0.7147 -0.4861
vn -0.7419 0.0000 -0.6706
vn -0.5029 0.7147 -0.4861
vn -0.4619 -0.7172 -0.5217
vn -0.6955 0.0000 -0.7185
vn -0.4619 0.7172 -0.5217
vn -0.4021 -0.7211 -0.5642
vn -0.6289 0.0000 -0.7774
vn -0.4021 0.7211 -0.5642
vn -0.3125 -0.7269 -0.6116
vn -0.5295 0.0000 -0.8483
vn -0.3125 0.7269 -0.6116
vn -0.1791 -0.7350 -0.6540
vn -0.3773 0.0000 -0.9261
vn -0.1791 0.7350 -0.6540
vn 0.0632 -0.7663 -0.6393
vn -0.1472 0.0000 -0.9891
vn 0.0632 0.7663 -0.6393
vn 0.3215 -0.7441 -0.5856
vn 0.3381 0.0000 -0.9411
vn 0.3215 0.7441 -0.5856
vn 0.4695 -0.7297 -0.4971
vn 0.6126 0.0000 -0.7904
vn 0.4695 0.7297 -0.4971
vn 0.5495 -0.7213 -0.4216
vn 0.7541 0.0000 -0.6567
vn 0.5495 0.7213 -0.4216
vn 0.5943 -0.7166 -0.3651
vn 0.8295 0.0000 -0.5585
vn 0.5943 0.7166 -0.3651
vn 0.6213 -0.7138 -0.3232
vn 0.8731 0.0000 -0.4876
vn 0.6213 0.7138 -0.3232
vn 0.6387 -0.7121 -0.2916
vn 0.9004 0.0000 -0.4351
vn 0.6387 0.7121 -0.2916
vn 0.6506 -0.7109 -0.2671
vn 0.9186 0.0000 -0.3953
vn 0.6506 0.7109 -0.2671
vn 0.6591 -0.7101 -0.2476
vn 0.9314 0.0000 -0.3641
vn 0.6591 0.7101 -0.2476
vn 0.6652 -0.7076 -0.2382
vn 0.9407 0.0000 -0.3392
vn 0.6652 0.7076 -0.2382
vn 0.6659 -0.7047 -0.2450
vn 0.9422 0.0000 -0.3350
vn 0.6659 0.7047 -0.2450
vn 0.6603 -0.7042 -0.2609
vn 0.9347 0.0000 -0.3554
vn 0.6603 0.7042 -0.2609
vn 0.6532 -0.7037 -0.2797
vn 0.9253 0.0000 -0.3793
vn 0.6532 0.7037 -0.2797
vn 0.6439 -0.7029 -0.3022
vn 0.9131 0.0000 -0.4077
vn 0.6439 0.7029 -0.3022
vn 0.6315 -0.7019 -0.3295
vn 0.8971 0.0000 -0.4417
vn 0.6315 0.7019 -0.3295
vn 0.6144 -0.7005 -0.3631
vn 0.8756 0.0000 -0.4831
vn 0.6144 0.7005 -0.3631
vn 0.5899 -0.6986 -0.4051
vn 0.8455 0.0000 -0.5340
vn 0.5899 0.6986 -0.4051
vn 0.5533 -0.6958 -0.4579
vn 0.8020 0.0000 -0.5973
vn 0.5533 0.6958 -0.4579
vn 0.4995 -0.6933 -0.5194
vn 0.7368 0.0000 -0.6761
vn 0.4995 0.6933 -0.5194
vn 0.4327 -0.6942 -0.5752
vn 0.6468 0.0000 -0.7627
vn 0.4327 0.6942 -0.5752
vn 0.3647 -0.6951 -0.6195
vn 0.5534 0.0000 -0.8329
vn 0.3647 0.6951 -0.6195
vn 0.2981 -0.6961 -0.6531
vn 0.4598 0.0000 -0.8880
vn 0.2981 0.6961 -0.6531
vn 0.2352 -0.6972 -0.6771
vn 0.3698 0.0000 -0.9291
vn 0.2352 0.6972 -0.6771
vn 0.1774 -0.6983 -0.6935
vn 0.2859 0.0000 -0.9583
vn 0.1774 0.6983 -0.6935
vn 0.1251 -0.6993 -0.7038
vn 0.2093 0.0000 -0.9779
vn 0.1251 0.6993 -0.7038
vn 0.0785 -0.7002 -0.7096
vn 0.1405 0.0000 -0.9901
vn 0.0785 0.7002 -0.7096
vn 0.0371 -0.7010 -0.7122
vn 0.0792 0.0000 -0.9969
vn 0.0371 0.7010 -0.7122
vn -0.5076 -0.5866 -0.6311
vn 0.0248 0.0000 -0.9997
vn -0.5076 0.5866 -0.6311
vn -0.6433 -0.5696 0.5115
vn -0.9818 0.0000 -0.1901
vn -0.6433 0.5696 0.5115
vn -0.0529 -0.7162 0.6959
vn -0.0361 0.0000 0.9993
vn -0.0529 0.7162 0.6959
vn -0.1113 -0.7173 0.6878
vn -0.1153 0.0000 0.9933
vn -0.1113 0.7173 0.6878
vn -0.1756 -0.7186 0.6729
vn -0.2037 0.0000 0.9790
vn -0.1756 0.7186 0.6729
vn -0.2449 -0.7197 0.6496
vn -0.3007 0.0000 0.9537
vn -0.2449 0.7197 0.6496
vn -0.3172 -0.7208 0.6164
vn -0.4039 0.0000 0.9148
vn -0.3172 0.7208 0.6164
vn -0.3895 -0.7215 0.5725
vn -0.5097 0.0000 0.8603
vn -0.3895 0.7215 0.5725
vn -0.4584 -0.7218 0.5185
vn -0.6132 0.0000 0.7899
vn -0.4584 0.7218 0.5185
vn -0.5205 -0.7216 0.4565
vn -0.7088 0.0000 0.7054
vn -0.5205 0.7216 0.4565
vn -0.5700 -0.7170 0.4012
vn -0.7919 0.0000 0.6106
vn -0.5700 0.7170 0.4012
vn -0.5992 -0.7119 0.3663
vn -0.8420 0.0000 0.5394
vn -0.5992 0.7119 0.3663
vn -0.6135 -0.7108 0.3441
vn -0.8640 0.0000 0.5035
vn -0.6135 0.7108 0.3441
vn -0.6240 -0.7101 0.3261
vn -0.8801 0.0000 0.4748
vn -0.6240 0.7101 0.3261
vn -0.6321 -0.7095 0.3114
vn -0.8923 0.0000 0.4515
vn -0.6321 0.7095 0.3114
vn -0.6385 -0.7091 0.2990
vn -0.9018 0.0000 0.4322
vn -0.6385 0.7091 0.2990
vn -0.6437 -0.7088 0.2886
vn -0.9094 0.0000 0.4160
vn -0.6437 0.7088 0.2886
vn -0.6479 -0.7086 0.2797
vn -0.9155 0.0000 0.4022
vn -0.6479 0.7086 0.2797
vn -0.6514 -0.7084 0.2719
vn -0.9207 0.0000 0.3904
vn -0.6514 0.7084 0.2719
vn -0.6535 -0.7054 0.2744
vn -0.9249 0.0000 0.3801
vn -0.6535 0.7054 0.2744
vn -0.6482 -0.7025 0.2938
vn -0.9190 0.0000 0.3941
vn -0.6482 0.7025 0.2938
vn -0.6350 -0.7014 0.3237
vn -0.9022 0.0000 0.4313
vn -0.6350 0.7014 0.3237
vn -0.6165 -0.6998 0.3608
vn -0.8790 0.0000 0.4767
vn -0.6165 0.6998 0.3608
vn -0.5893 -0.6976 0.4075
vn -0.8461 0.0000 0.5330
vn -0.5893 0.6976 0.4075
vn -0.5479 -0.6944 0.4664
vn -0.7975 0.0000 0.6034
vn -0.5479 0.6944 0.4664
vn -0.4824 -0.6898 0.5398
vn -0.7230 0.0000 0.6909
vn -0.4824 0.6898 0.5398
vn -0.3771 -0.6837 0.6248
vn -0.6057 0.0000 0.7957
vn -0.3771 0.6837 0.6248
vn -0.2147 -0.6771 0.7038
vn -0.4218 0.0000 0.9067
vn -0.2147 0.6771 0.7038
vn -0.0056 -0.6751 0.7377
vn -0.1561 0.0000 0.9877
vn -0.0056 0.6751 0.7377
vn 0.2094 -0.6757 0.7068
vn 0.1411 0.0000 0.9900
vn 0.2094 0.6757 0.7068
vn 0.3679 -0.6862 0.6275
vn 0.4209 0.0000 0.9071
vn 0.3679 0.6862 0.6275
vn 0.4585 -0.6931 0.5561
vn 0.5861 0.0000 0.8103
vn 0.4585 0.6931 0.5561
vn 0.5123 -0.6974 0.5011
vn 0.6837 0.0000 0.7298
vn 0.5123 0.6974 0.5011
vn 0.5465 -0.7001 0.4596
vn 0.7447 0.0000 0.6674
vn 0.5465 0.7001 0.4596
vn 0.5696 -0.7018 0.4278
vn 0.7852 0.0000 0.6192
vn 0.5696 0.7018 0.4278
vn 0.5860 -0.7030 0.4029
vn 0.8136 0.0000 0.5815
vn 0.5860 0.7030 0.4029
vn 0.5982 -0.7039 0.3830
vn 0.8342 0.0000 0.5514
vn 0.5982 0.7039 0.3830
vn 0.6033 -0.7062 0.3706
vn 0.8499 0.0000 0.5269
vn 0.6033 0.7062 0.3706
vn 0.5965 -0.7101 0.3740
vn 0.8543 0.0000 0.5199
vn 0.5965 0.7101 0.3740
vn 0.5843 -0.7109 0.3914
vn 0.8401 0.0000 0.5425
vn 0.5843 0.7109 0.3914
vn 0.5679 -0.7120 0.4129
vn 0.8214 0.0000 0.5703
vn 0.5679 0.7120 0.4129
vn 0.5450 -0.7137 0.4400
vn 0.7959 0.0000 0.6054
vn 0.5450 0.7137 0.4400
vn 0.5113 -0.7163 0.4749
vn 0.7595 0.0000 0.6505
vn 0.5113 0.7163 0.4749
vn 0.4587 -0.7206 0.5199
vn 0.7046 0.0000 0.7096
vn 0.4587 0.7206 0.5199
vn 0.3717 -0.7281 0.5759
vn 0.6163 0.0000 0.7875
vn 0.3717 0.7281 0.5759
vn 0.2231 -0.7408 0.6336
vn 0.4639 0.0000 0.8859
vn 0.2231 0.7408 0.6336
vn 0.0521 -0.7345 0.6766
vn 0.1935 0.0000 0.9811
vn 0.0521 0.7345 0.6766
vn -0.0517 -0.7146 0.6976
vn -0.0409 0.0000 0.9992
vn -0.0517 0.7146 0.6976
vn -0.0927 -0.7129 0.6951
vn -0.1068 0.0000 0.9943
vn -0.0927 0.7129 0.6951
vn -0.1245 -0.7117 0.6914
vn -0.1573 0.0000 0.9875
vn -0.1245 0.7117 0.6914
vn -0.1496 -0.7107 0.6874
vn -0.1969 0.0000 0.9804
vn -0.1496 0.7107 0.6874
vn -0.1700 -0.7101 0.6832
vn -0.2284 0.0000 0.9736
vn -0.1700 0.7101 0.6832
vn -0.1868 -0.7096 0.6794
vn -0.2545 0.0000 0.9671
vn -0.1868 0.7096 0.6794
vn -0.2008 -0.7093 0.6757
vn -0.2757 0.0000 0.9612
vn -0.2008 0.7093 0.6757
vn -0.2128 -0.7089 0.6724
vn -0.2940 0.0000 0.9558
vn -0.2128 0.7089 0.6724
vn -0.2995 -0.7420 0.5997
vn -0.3093 0.0000 0.9510
vn -0.2995 0.7420 0.5997
vn -0.4365 -0.7239 0.5343
vn -0.5745 0.0000 0.8185
vn -0.4365 0.7239 0.5343
vn -0.5094 -0.7237 0.4656
vn -0.6875 0.0000 0.7262
vn -0.5094 0.7237 0.4656
vn -0.5704 -0.7229 0.3899
vn -0.7849 0.0000 0.6197
vn -0.5704 0.7229 0.3899
vn -0.6179 -0.7216 0.3123
vn -0.8623 0.0000 0.5064
vn -0.6179 0.7216 0.3123
vn -0.6522 -0.7200 0.2370
vn -0.9192 0.0000 0.3939
vn -0.6522 0.7200 0.2370
vn -0.6752 -0.7184 0.1672
vn -0.9576 0.0000 0.2881
vn -0.6752 0.7184 0.1672
vn -0.6893 -0.7169 0.1045
vn -0.9814 0.0000 0.1921
vn -0.6893 0.7169 0.1045
vn -0.6968 -0.7156 0.0491
vn -0.9942 0.0000 0.1073
vn -0.6968 0.7156 0.0491
vn -0.6978 -0.7163 -0.0050
vn -0.9994 0.0000 0.0332
vn -0.6978 0.7163 -0.0050
vn -0.6952 -0.7162 -0.0610
vn -0.9989 0.0000 -0.0475
vn -0.6952 0.7162 -0.0610
vn -0.6908 -0.7144 -0.1113
vn -0.9919 0.0000 -0.1273
vn -0.6908 0.7144 -0.1113
vn -0.6845 -0.7130 -0.1517
vn -0.9816 0.0000 -0.1908
vn -0.6845 0.7130 -0.1517
vn -0.6775 -0.7120 -0.1846
vn -0.9703 0.0000 -0.2419
vn -0.6775 0.7120 -0.1846
vn -0.6704 -0.7112 -0.2116
vn -0.9589 0.0000 -0.2837
vn -0.6704 0.7112 -0.2116
vn -0.6635 -0.7106 -0.2341
vn -0.9480 0.0000 -0.3182
vn -0.6635 0.7106 -0.2341
vn -0.6571 -0.7101 -0.2531
vn -0.9378 0.0000 -0.3471
vn -0.6571 0.7101 -0.2531
vn -0.6511 -0.7097 -0.2692
vn -0.9284 0.0000 -0.3716
vn -0.6511 0.7097 -0.2692
vn -0.6519 -0.7064 -0.2758
vn -0.9197 0.0000 -0.3926
vn -0.6519 0.7064 -0.2758
vn -0.6579 -0.7044 -0.2664
vn -0.9223 0.0000 -0.3866
vn -0.6579 0.7044 -0.2664
vn -0.6649 -0.7040 -0.2495
vn -0.9314 0.0000 -0.3641
vn -0.6649 0.7040 -0.2495
vn -0.6723 -0.7036 -0.2301
vn -0.9410 0.0000 -0.3385
vn -0.6723 0.7036 -0.2301
vn -0.6800 -0.7032 -0.2078
vn -0.9510 0.0000 -0.3091
vn -0.6800 0.7032 -0.2078
vn -0.6879 -0.7026 -0.1821
vn -0.9613 0.0000 -0.2754
vn -0.6879 0.7026 -0.1821
vn -0.6959 -0.7019 -0.1520
vn -0.9717 0.0000 -0.2362
vn -0.6959 0.7019 -0.1520
vn -0.7035 -0.7010 -0.1167
vn -0.9817 0.0000 -0.1905
vn -0.7035 0.7010 -0.1167
vn -0.7102 -0.7000 -0.0751
vn -0.9906 0.0000 -0.1368
vn -0.7102 0.7000 -0.0751
vn -0.7147 -0.6989 -0.0263
vn -0.9973 0.0000 -0.0736
vn -0.7147 0.6989 -0.0263
vn -0.7129 -0.7010 0.0195
vn -1.0000 0.0000 -0.0000
vn -0.7129 0.7010 0.0195
vn -0.7159 -0.6929 0.0857
vn -0.9985 0.0000 0.0545
vn -0.7159 0.6929 0.0857
vn -0.6992 -0.6896 0.1885
vn -0.9832 0.0000 0.1826
vn -0.6992 0.6896 0.1885
vn -0.6586 -0.6863 0.3087
vn -0.9418 0.0000 0.3363
vn -0.6586 0.6863 0.3087
vn -0.5849 -0.6838 0.4363
vn -0.8610 0.0000 0.5086
vn -0.5849 0.6838 0.4363
vn -0.4770 -0.6830 0.5531
vn -0.7329 0.0000 0.6804
vn -0.4770 0.6830 0.5531
vn -0.3475 -0.6845 0.6409
vn -0.5654 0.0000 0.8248
vn -0.3475 0.6845 0.6409
vn -0.2164 -0.6874 0.6933
vn -0.3828 0.0000 0.9239
vn -0.2164 0.6874 0.6933
vn -0.0993 -0.6907 0.7163
vn -0.2106 0.0000 0.9776
vn -0.0993 0.6907 0.7163
vn -0.0045 -0.6945 0.7195
vn -0.0632 0.0000 0.9980
vn -0.0045 0.6945 0.7195
vn 0.0782 -0.6943 0.7154
vn 0.0508 0.0000 0.9987
vn 0.0782 0.6943 0.7154
vn 0.1684 -0.6920 0.7020
vn 0.1662 0.0000 0.9861
vn 0.1684 0.6920 0.7020
vn 0.2703 -0.6898 0.6716
vn 0.2993 0.0000 0.9542
vn 0.2703 0.6898 0.6716
vn 0.3781 -0.6881 0.6193
vn 0.4452 0.0000 0.8954
vn 0.3781 0.6881 0.6193
vn 0.4818 -0.6874 0.5435
vn 0.5931 0.0000 0.8051
vn 0.4818 0.6874 0.5435
vn 0.5703 -0.6878 0.4491
vn 0.7281 0.0000 0.6855
vn 0.5703 0.6878 0.4491
vn 0.6366 -0.6893 0.3458
vn 0.8371 0.0000 0.5470
vn 0.6366 0.6893 0.3458
vn 0.6799 -0.6914 0.2444
vn 0.9146 0.0000 0.4045
vn 0.6799 0.6914 0.2444
vn 0.7361 -0.6721 0.0808
vn 0.9628 0.0000 0.2703
vn 0.7361 0.6721 0.0808
vn 0.7160 -0.6927 -0.0866
vn 0.9985 0.0000 -0.0551
vn 0.7160 0.6927 -0.0866
vn 0.6989 -0.6895 -0.1903
vn 0.9828 0.0000 -0.1844
vn 0.6989 0.6895 -0.1903
vn 0.6574 -0.6862 -0.3114
vn 0.9406 0.0000 -0.3394
vn 0.6574 0.6862 -0.3114
vn 0.5827 -0.6837 -0.4393
vn 0.8586 0.0000 -0.5127
vn 0.5827 0.6837 -0.4393
vn 0.4742 -0.6831 -0.5555
vn 0.7293 0.0000 -0.6842
vn 0.4742 0.6831 -0.5555
vn 0.3447 -0.6846 -0.6423
vn 0.5613 0.0000 -0.8276
vn 0.3447 0.6846 -0.6423
vn 0.2143 -0.6875 -0.6938
vn 0.3793 0.0000 -0.9253
vn 0.2143 0.6875 -0.6938
vn 0.0982 -0.6909 -0.7162
vn 0.2085 0.0000 -0.9780
vn 0.0982 0.6909 -0.7162
vn 0.5934 0.5807 -0.5574
vn 0.0626 0.0000 -0.9980
vn 0.5934 -0.5807 -0.5574
vn 0.7027 -0.7114 0.0132
vn 1.0000 0.0000 -0.0000
vn 0.7027 0.7114 0.0132
vn 0.9993 0.0000 0.0377
vn 0.0901 -0.7234 -0.6845
vn 0.1951 -0.7271 -0.6582
vn 0.2004 0.0000 -0.9797
vn 0.1951 0.7271 -0.6582
vn 0.0901 0.7234 -0.6845
vn 0.3128 -0.7305 -0.6070
vn 0.3660 0.0000 -0.9306
vn 0.3128 0.7305 -0.6070
vn 0.4315 -0.7326 -0.5264
vn 0.5454 0.0000 -0.8382
vn 0.4315 0.7326 -0.5264
vn 0.5356 -0.7324 -0.4204
vn 0.7149 0.0000 -0.6992
vn 0.5356 0.7324 -0.4204
vn 0.6130 -0.7299 -0.3024
vn 0.8490 0.0000 -0.5284
vn 0.6130 0.7299 -0.3024
vn 0.6612 -0.7263 -0.1876
vn 0.9360 0.0000 -0.3521
vn 0.6612 0.7263 -0.1876
vn 0.6858 -0.7227 -0.0864
vn 0.9814 0.0000 -0.1920
vn 0.6858 0.7227 -0.0864
vn 0.6934 -0.7206 0.0009
vn 0.9983 0.0000 -0.0574
vn 0.6934 0.7206 0.0009
vn 0.6845 -0.7234 0.0902
vn 0.9982 0.0000 0.0601
vn 0.6845 0.7234 0.0902
vn 0.6582 -0.7271 0.1952
vn 0.9797 0.0000 0.2005
vn 0.6582 0.7271 0.1952
vn 0.6070 -0.7306 0.3129
vn 0.9306 0.0000 0.3661
vn 0.6070 0.7306 0.3129
vn 0.5263 -0.7326 0.4316
vn 0.8380 0.0000 0.5456
vn 0.5263 0.7326 0.4316
vn 0.4203 -0.7324 0.5357
vn 0.6990 0.0000 0.7151
vn 0.4203 0.7324 0.5357
vn 0.3023 -0.7299 0.6131
vn 0.5282 0.0000 0.8491
vn 0.3023 0.7299 0.6131
vn 0.1875 -0.7263 0.6613
vn 0.3519 0.0000 0.9360
vn 0.1875 0.7263 0.6613
vn 0.0863 -0.7227 0.6858
vn 0.1919 0.0000 0.9814
vn 0.0863 0.7227 0.6858
vn 0.0000 -0.7203 0.6937
vn 0.0574 0.0000 0.9984
vn 0.0000 0.7203 0.6937
vn -0.0863 -0.7227 0.6858
vn -0.0574 0.0000 0.9984
vn -0.0863 0.7227 0.6858
vn -0.1875 -0.7263 0.6613
vn -0.1919 0.0000 0.9814
vn -0.1875 0.7263 0.6613
vn -0.3023 -0.7299 0.6131
vn -0.3519 0.0000 0.9360
vn -0.3023 0.7299 0.6131
vn -0.4203 -0.7324 0.5357
vn -0.5282 0.0000 0.8491
vn -0.4203 0.7324 0.5357
vn -0.5263 -0.7326 0.4316
vn -0.6990 0.0000 0.7151
vn -0.5263 0.7326 0.4316
vn -0.6070 -0.7305 0.3129
vn -0.8381 0.0000 0.5456
vn -0.6070 0.7305 0.3129
vn -0.6582 -0.7271 0.1952
vn -0.9306 0.0000 0.3661
vn -0.6582 0.7271 0.1952
vn -0.6845 -0.7234 0.0902
vn -0.9797 0.0000 0.2005
vn -0.6845 0.7234 0.0902
vn -0.6934 -0.7206 0.0009
vn -0.9982 0.0000 0.0601
vn -0.6934 0.7206 0.0009
vn -0.6858 -0.7227 -0.0864
vn -0.9983 0.0000 -0.0574
vn -0.6858 0.7227 -0.0864
vn -0.6612 -0.7263 -0.1876
vn -0.9814 0.0000 -0.1920
vn -0.6612 0.7263 -0.1876
vn -0.6130 -0.7299 -0.3024
vn -0.9360 0.0000 -0.3521
vn -0.6130 0.7299 -0.3024
vn -0.5356 -0.7324 -0.4204
vn -0.8490 0.0000 -0.5284
vn -0.5356 0.7324 -0.4204
vn -0.4315 -0.7326 -0.5264
vn -0.7149 0.0000 -0.6992
vn -0.4315 0.7326 -0.5264
vn -0.3128 -0.7305 -0.6070
vn -0.5454 0.0000 -0.8382
vn -0.3128 0.7305 -0.6070
vn -0.1951 -0.7271 -0.6582
vn -0.3660 0.0000 -0.9306
vn -0.1951 0.7271 -0.6582
vn -0.0901 -0.7234 -0.6845
vn -0.2004 0.0000 -0.9797
vn -0.0901 0.7234 -0.6845
vn -0.0000 -0.7209 -0.6931
vn -0.0600 0.0000 -0.9982
vn -0.0000 0.7209 -0.6931
vn 0.0600 0.0000 -0.9982
vn 0.0000 -1.0000 -0.0000
vn 0.0000 1.0000 -0.0000
vn 0.0000 1.0000 0.0000
# 660 vertex normals

o Vowels_5
g Vowels_5
s 1
f 1//1 2//2 3//3 
f 2//2 4//4 3//3 
f 4//4 5//5 3//3 
f 5//5 1//1 3//3 
s 3
f 2//2 6//6 7//7 
f 6//6 8//8 7//7 
f 8//8 4//4 7//7 
f 4//4 2//2 7//7 
s 2
f 6//6 9//9 10//10 
f 9//9 11//11 10//10 
f 11//11 8//8 10//10 
f 8//8 6//6 10//10 
f 9//9 12//12 13//13 
f 12//12 14//14 13//13 
f 14//14 11//11 13//13 
f 11//11 9//9 13//13 
f 12//12 15//15 16//16 
f 15//15 17//17 16//16 
f 17//17 14//14 16//16 
f 14//14 12//12 16//16 
f 15//15 18//18 19//19 
f 18//18 20//20 19//19 
f 20//20 17//17 19//19 
f 17//17 15//15 19//19 
f 18//18 21//21 22//22 
f 21//21 23//23 22//22 
f 23//23 20//20 22//22 
f 20//20 18//18 22//22 
f 21//21 24//24 25//25 
f 24//24 26//26 25//25 
f 26//26 23//23 25//25 
f 23//23 21//21 25//25 
s 4
f 24//24 27//27 28//28 
f 27//27 29//29 28//28 
f 29//29 26//26 28//28 
f 26//26 24//24 28//28 
f 27//27 30//30 31//31 
f 30//30 32//32 31//31 
f 32//32 29//29 31//31 
f 29//29 27//27 31//31 
f 30//30 33//33 34//34 
f 33//33 35//35 34//34 
f 35//35 32//32 34//34 
f 32//32 30//30 34//34 
f 33//33 36//36 37//37 
f 36//36 38//38 37//37 
f 38//38 35//35 37//37 
f 35//35 33//33 37//37 
f 36//36 39//39 40//40 
f 39//39 41//41 40//40 
f 41//41 38//38 40//40 
f 38//38 36//36 40//40 
f 39//39 42//42 43//43 
f 42//42 44//44 43//43 
f 44//44 41//41 43//43 
f 41//41 39//39 43//43 
f 42//42 45//45 46//46 
f 45//45 47//47 46//46 
f 47//47 44//44 46//46 
f 44//44 42//42 46//46 
f 45//45 48//48 49//49 
f 48//48 50//50 49//49 
f 50//50 47//47 49//49 
f 47//47 45//45 49//49 
f 48//48 51//51 52//52 
f 51//51 53//53 52//52 
f 53//53 50//50 52//52 
f 50//50 48//48 52//52 
f 51//51 54//54 55//55 
f 54//54 56//56 55//55 
f 56//56 53//53 55//55 
f 53//53 51//51 55//55 
f 54//54 57//57 58//58 
f 57//57 59//59 58//58 
f 59//59 56//56 58//58 
f 56//56 54//54 58//58 
f 57//57 60//60 61//61 
f 60//60 62//62 61//61 
f 62//62 59//59 61//61 
f 59//59 57//57 61//61 
f 60//60 63//63 64//64 
f 63//63 65//65 64//64 
f 65//65 62//62 64//64 
f 62//62 60//60 64//64 
f 63//63 66//66 67//67 
f 66//66 68//68 67//67 
f 68//68 65//65 67//67 
f 65//65 63//63 67//67 
f 66//66 69//69 70//70 
f 69//69 71//71 70//70 
f 71//71 68//68 70//70 
f 68//68 66//66 70//70 
f 69//69 72//72 73//73 
f 72//72 74//74 73//73 
f 74//74 71//71 73//73 
f 71//71 69//69 73//73 
f 72//72 75//75 76//76 
f 75//75 77//77 76//76 
f 77//77 74//74 76//76 
f 74//74 72//72 76//76 
f 75//75 78//78 79//79 
f 78//78 80//80 79//79 
f 80//80 77//77 79//79 
f 77//77 75//75 79//79 
f 78//78 81//81 82//82 
f 81//81 83//83 82//82 
f 83//83 80//80 82//82 
f 80//80 78//78 82//82 
f 81//81 84//84 85//85 
f 84//84 86//86 85//85 
f 86//86 83//83 85//85 
f 83//83 81//81 85//85 
f 84//84 87//87 88//88 
f 87//87 89//89 88//88 
f 89//89 86//86 88//88 
f 86//86 84//84 88//88 
f 87//87 90//90 91//91 
f 90//90 92//92 91//91 
f 92//92 89//89 91//91 
f 89//89 87//87 91//91 
f 90//90 93//93 94//94 
f 93//93 95//95 94//94 
f 95//95 92//92 94//94 
f 92//92 90//90 94//94 
f 93//93 96//96 97//97 
f 96//96 98//98 97//97 
f 98//98 95//95 97//97 
f 95//95 93//93 97//97 
f 96//96 99//99 100//100 
f 99//99 101//101 100//100 
f 101//101 98//98 100//100 
f 98//98 96//96 100//100 
f 99//99 102//102 103//103 
f 102//102 104//104 103//103 
f 104//104 101//101 103//103 
f 101//101 99//99 103//103 
f 102//102 105//105 106//106 
f 105//105 107//107 106//106 
f 107//107 104//104 106//106 
f 104//104 102//102 106//106 
f 105//105 108//108 109//109 
f 108//108 110//110 109//109 
f 110//110 107//107 109//109 
f 107//107 105//105 109//109 
f 108//108 111//111 112//112 
f 111//111 113//113 112//112 
f 113//113 110//110 112//112 
f 110//110 108//108 112//112 
f 111//111 114//114 115//115 
f 114//114 116//116 115//115 
f 116//116 113//113 115//115 
f 113//113 111//111 115//115 
f 114//114 117//117 118//118 
f 117//117 119//119 118//118 
f 119//119 116//116 118//118 
f 116//116 114//114 118//118 
f 117//117 120//120 121//121 
f 120//120 122//122 121//121 
f 122//122 119//119 121//121 
f 119//119 117//117 121//121 
f 120//120 123//123 124//124 
f 123//123 125//125 124//124 
f 125//125 122//122 124//124 
f 122//122 120//120 124//124 
f 123//123 126//126 127//127 
f 126//126 128//128 127//127 
f 128//128 125//125 127//127 
f 125//125 123//123 127//127 
f 126//126 129//129 130//130 
f 129//129 131//131 130//130 
f 131//131 128//128 130//130 
f 128//128 126//126 130//130 
f 129//129 132//132 133//133 
f 132//132 134//134 133//133 
f 134//134 131//131 133//133 
f 131//131 129//129 133//133 
s 2
f 132//132 135//135 136//136 
f 135//135 137//137 136//136 
f 137//137 134//134 136//136 
f 134//134 132//132 136//136 
f 135//135 138//138 139//139 
f 138//138 140//140 139//139 
f 140//140 137//137 139//139 
f 137//137 135//135 139//139 
f 138//138 141//141 142//142 
f 141//141 143//143 142//142 
f 143//143 140//140 142//142 
f 140//140 138//138 142//142 
f 141//141 144//144 145//145 
f 144//144 146//146 145//145 
f 146//146 143//143 145//145 
f 143//143 141//141 145//145 
f 144//144 147//147 148//148 
f 147//147 149//149 148//148 
f 149//149 146//146 148//148 
f 146//146 144//144 148//148 
f 147//147 150//150 151//151 
f 150//150 152//152 151//151 
f 152//152 149//149 151//151 
f 149//149 147//147 151//151 
f 150//150 153//153 154//154 
f 153//153 155//155 154//154 
f 155//155 152//152 154//154 
f 152//152 150//150 154//154 
f 153//153 156//156 157//157 
f 156//156 158//158 157//157 
f 158//158 155//155 157//157 
f 155//155 153//153 157//157 
f 156//156 159//159 160//160 
f 159//159 161//161 160//160 
f 161//161 158//158 160//160 
f 158//158 156//156 160//160 
f 159//159 162//162 163//163 
f 162//162 164//164 163//163 
f 164//164 161//161 163//163 
f 161//161 159//159 163//163 
f 162//162 165//165 166//166 
f 165//165 167//167 166//166 
f 167//167 164//164 166//166 
f 164//164 162//162 166//166 
f 165//165 168//168 169//169 
f 168//168 170//170 169//169 
f 170//170 167//167 169//169 
f 167//167 165//165 169//169 
f 168//168 171//171 172//172 
f 171//171 173//173 172//172 
f 173//173 170//170 172//172 
f 170//170 168//168 172//172 
f 171//171 174//174 175//175 
f 174//174 176//176 175//175 
f 176//176 173//173 175//175 
f 173//173 171//171 175//175 
f 174//174 177//177 178//178 
f 177//177 179//179 178//178 
f 179//179 176//176 178//178 
f 176//176 174//174 178//178 
f 177//177 180//180 181//181 
f 180//180 182//182 181//181 
f 182//182 179//179 181//181 
f 179//179 177//177 181//181 
f 180//180 183//183 184//184 
f 183//183 185//185 184//184 
f 185//185 182//182 184//184 
f 182//182 180//180 184//184 
f 183//183 186//186 187//187 
f 186//186 188//188 187//187 
f 188//188 185//185 187//187 
f 185//185 183//183 187//187 
f 186//186 189//189 190//190 
f 189//189 191//191 190//190 
f 191//191 188//188 190//190 
f 188//188 186//186 190//190 
f 189//189 192//192 193//193 
f 192//192 194//194 193//193 
f 194//194 191//191 193//193 
f 191//191 189//189 193//193 
f 192//192 195//195 196//196 
f 195//195 197//197 196//196 
f 197//197 194//194 196//196 
f 194//194 192//192 196//196 
f 195//195 198//198 199//199 
f 198//198 200//200 199//199 
f 200//200 197//197 199//199 
f 197//197 195//195 199//199 
f 198//198 201//201 202//202 
f 201//201 203//203 202//202 
f 203//203 200//200 202//202 
f 200//200 198//198 202//202 
f 201//201 204//204 205//205 
f 204//204 206//206 205//205 
f 206//206 203//203 205//205 
f 203//203 201//201 205//205 
f 204//204 207//207 208//208 
f 207//207 209//209 208//208 
f 209//209 206//206 208//208 
f 206//206 204//204 208//208 
f 207//207 210//210 211//211 
f 210//210 212//212 211//211 
f 212//212 209//209 211//211 
f 209//209 207//207 211//211 
f 210//210 213//213 214//214 
f 213//213 215//215 214//214 
f 215//215 212//212 214//214 
f 212//212 210//210 214//214 
s 4
f 213//213 216//216 217//217 
f 216//216 218//218 217//217 
f 218//218 215//215 217//217 
f 215//215 213//213 217//217 
s 2
f 216//216 219//219 220//220 
f 219//219 221//221 220//220 
f 221//221 218//218 220//220 
f 218//218 216//216 220//220 
f 219//219 222//222 223//223 
f 222//222 224//224 223//223 
f 224//224 221//221 223//223 
f 221//221 219//219 223//223 
f 222//222 225//225 226//226 
f 225//225 227//227 226//226 
f 227//227 224//224 226//226 
f 224//224 222//222 226//226 
f 225//225 228//228 229//229 
f 228//228 230//230 229//229 
f 230//230 227//227 229//229 
f 227//227 225//225 229//229 
f 228//228 231//231 232//232 
f 231//231 233//233 232//232 
f 233//233 230//230 232//232 
f 230//230 228//228 232//232 
f 231//231 234//234 235//235 
f 234//234 236//236 235//235 
f 236//236 233//233 235//235 
f 233//233 231//231 235//235 
f 234//234 237//237 238//238 
f 237//237 239//239 238//238 
f 239//239 236//236 238//238 
f 236//236 234//234 238//238 
f 237//237 240//240 241//241 
f 240//240 242//242 241//241 
f 242//242 239//239 241//241 
f 239//239 237//237 241//241 
f 240//240 243//243 244//244 
f 243//243 245//245 244//244 
f 245//245 242//242 244//244 
f 242//242 240//240 244//244 
f 243//243 246//246 247//247 
f 246//246 248//248 247//247 
f 248//248 245//245 247//247 
f 245//245 243//243 247//247 
f 246//246 249//249 250//250 
f 249//249 251//251 250//250 
f 251//251 248//248 250//250 
f 248//248 246//246 250//250 
f 249//249 252//252 253//253 
f 252//252 254//254 253//253 
f 254//254 251//251 253//253 
f 251//251 249//249 253//253 
f 252//252 255//255 256//256 
f 255//255 257//257 256//256 
f 257//257 254//254 256//256 
f 254//254 252//252 256//256 
f 255//255 258//258 259//259 
f 258//258 260//260 259//259 
f 260//260 257//257 259//259 
f 257//257 255//255 259//259 
f 258//258 261//261 262//262 
f 261//261 263//263 262//262 
f 263//263 260//260 262//262 
f 260//260 258//258 262//262 
f 261//261 264//264 265//265 
f 264//264 266//266 265//265 
f 266//266 263//263 265//265 
f 263//263 261//261 265//265 
f 264//264 267//267 268//268 
f 267//267 269//269 268//268 
f 269//269 266//266 268//268 
f 266//266 264//264 268//268 
f 267//267 270//270 271//271 
f 270//270 272//272 271//271 
f 272//272 269//269 271//271 
f 269//269 267//267 271//271 
f 270//270 273//273 274//274 
f 273//273 275//275 274//274 
f 275//275 272//272 274//274 
f 272//272 270//270 274//274 
f 273//273 276//276 277//277 
f 276//276 278//278 277//277 
f 278//278 275//275 277//277 
f 275//275 273//273 277//277 
f 276//276 279//279 280//280 
f 279//279 281//281 280//280 
f 281//281 278//278 280//280 
f 278//278 276//276 280//280 
f 279//279 282//282 283//283 
f 282//282 284//284 283//283 
f 284//284 281//281 283//283 
f 281//281 279//279 283//283 
f 282//282 285//285 286//286 
f 285//285 287//287 286//286 
f 287//287 284//284 286//286 
f 284//284 282//282 286//286 
f 285//285 288//288 289//289 
f 288//288 290//290 289//289 
f 290//290 287//287 289//289 
f 287//287 285//285 289//289 
f 288//288 291//291 292//292 
f 291//291 293//293 292//292 
f 293//293 290//290 292//292 
f 290//290 288//288 292//292 
f 291//291 294//294 295//295 
f 294//294 296//296 295//295 
f 296//296 293//293 295//295 
f 293//293 291//291 295//295 
f 294//294 297//297 298//298 
f 297//297 299//299 298//298 
f 299//299 296//296 298//298 
f 296//296 294//294 298//298 
s 4
f 297//297 300//300 301//301 
f 300//300 302//302 301//301 
f 302//302 299//299 301//301 
f 299//299 297//297 301//301 
f 300//300 303//303 304//304 
f 303//303 305//305 304//304 
f 305//305 302//302 304//304 
f 302//302 300//300 304//304 
f 303//303 306//306 307//307 
f 306//306 308//308 307//307 
f 308//308 305//305 307//307 
f 305//305 303//303 307//307 
f 306//306 309//309 310//310 
f 309//309 311//311 310//310 
f 311//311 308//308 310//310 
f 308//308 306//306 310//310 
f 309//309 312//312 313//313 
f 312//312 314//314 313//313 
f 314//314 311//311 313//313 
f 311//311 309//309 313//313 
f 312//312 315//315 316//316 
f 315//315 317//317 316//316 
f 317//317 314//314 316//316 
f 314//314 312//312 316//316 
f 315//315 318//318 319//319 
f 318//318 320//320 319//319 
f 320//320 317//317 319//319 
f 317//317 315//315 319//319 
f 318//318 321//321 322//322 
f 321//321 323//323 322//322 
f 323//323 320//320 322//322 
f 320//320 318//318 322//322 
f 321//321 324//324 325//325 
f 324//324 326//326 325//325 
f 326//326 323//323 325//325 
f 323//323 321//321 325//325 
f 324//324 327//327 328//328 
f 327//327 329//329 328//328 
f 329//329 326//326 328//328 
f 326//326 324//324 328//328 
f 327//327 330//330 331//331 
f 330//330 332//332 331//331 
f 332//332 329//329 331//331 
f 329//329 327//327 331//331 
f 330//330 333//333 334//334 
f 333//333 335//335 334//334 
f 335//335 332//332 334//334 
f 332//332 330//330 334//334 
f 333//333 336//336 337//337 
f 336//336 338//338 337//337 
f 338//338 335//335 337//337 
f 335//335 333//333 337//337 
f 336//336 339//339 340//340 
f 339//339 341//341 340//340 
f 341//341 338//338 340//340 
f 338//338 336//336 340//340 
f 339//339 342//342 343//343 
f 342//342 344//344 343//343 
f 344//344 341//341 343//343 
f 341//341 339//339 343//343 
f 342//342 345//345 346//346 
f 345//345 347//347 346//346 
f 347//347 344//344 346//346 
f 344//344 342//342 346//346 
f 345//345 348//348 349//349 
f 348//348 350//350 349//349 
f 350//350 347//347 349//349 
f 347//347 345//345 349//349 
f 348//348 351//351 352//352 
f 351//351 353//353 352//352 
f 353//353 350//350 352//352 
f 350//350 348//348 352//352 
f 351//351 354//354 355//355 
f 354//354 356//356 355//355 
f 356//356 353//353 355//355 
f 353//353 351//351 355//355 
f 354//354 357//357 358//358 
f 357//357 359//359 358//358 
f 359//359 356//356 358//358 
f 356//356 354//354 358//358 
f 357//357 360//360 361//361 
f 360//360 362//362 361//361 
f 362//362 359//359 361//361 
f 359//359 357//357 361//361 
f 360//360 363//363 364//364 
f 363//363 365//365 364//364 
f 365//365 362//362 364//364 
f 362//362 360//360 364//364 
f 363//363 366//366 367//367 
f 366//366 368//368 367//367 
f 368//368 365//365 367//367 
f 365//365 363//363 367//367 
f 366//366 369//369 370//370 
f 369//369 371//371 370//370 
f 371//371 368//368 370//370 
f 368//368 366//366 370//370 
f 369//369 372//372 373//373 
f 372//372 374//374 373//373 
f 374//374 371//371 373//373 
f 371//371 369//369 373//373 
f 372//372 375//375 376//376 
f 375//375 377//377 376//376 
f 377//377 374//374 376//376 
f 374//374 372//372 376//376 
f 375//375 378//378 379//379 
f 378//378 380//380 379//379 
f 380//380 377//377 379//379 
f 377//377 375//375 379//379 
s 2
f 378//378 381//381 382//382 
f 381//381 383//383 382//382 
f 383//383 380//380 382//382 
f 380//380 378//378 382//382 
f 381//381 384//384 385//385 
f 384//384 386//386 385//385 
f 386//386 383//383 385//385 
f 383//383 381//381 385//385 
f 384//384 387//387 388//388 
f 387//387 389//389 388//388 
f 389//389 386//386 388//388 
f 386//386 384//384 388//388 
f 387//387 390//390 391//391 
f 390//390 392//392 391//391 
f 392//392 389//389 391//391 
f 389//389 387//387 391//391 
f 390//390 393//393 394//394 
f 393//393 395//395 394//394 
f 395//395 392//392 394//394 
f 392//392 390//390 394//394 
f 393//393 396//396 397//397 
f 396//396 398//398 397//397 
f 398//398 395//395 397//397 
f 395//395 393//393 397//397 
f 396//396 399//399 400//400 
f 399//399 401//401 400//400 
f 401//401 398//398 400//400 
f 398//398 396//396 400//400 
f 399//399 402//402 403//403 
f 402//402 404//404 403//403 
f 404//404 401//401 403//403 
f 401//401 399//399 403//403 
f 402//402 405//405 406//406 
f 405//405 407//407 406//406 
f 407//407 404//404 406//406 
f 404//404 402//402 406//406 
f 405//405 408//408 409//409 
f 408//408 410//410 409//409 
f 410//410 407//407 409//409 
f 407//407 405//405 409//409 
f 408//408 411//411 412//412 
f 411//411 413//413 412//412 
f 413//413 410//410 412//412 
f 410//410 408//408 412//412 
f 411//411 414//414 415//415 
f 414//414 416//416 415//415 
f 416//416 413//413 415//415 
f 413//413 411//411 415//415 
f 414//414 417//417 418//418 
f 417//417 419//419 418//418 
f 419//419 416//416 418//418 
f 416//416 414//414 418//418 
f 417//417 420//420 421//421 
f 420//420 422//422 421//421 
f 422//422 419//419 421//421 
f 419//419 417//417 421//421 
f 420//420 423//423 424//424 
f 423//423 425//425 424//424 
f 425//425 422//422 424//424 
f 422//422 420//420 424//424 
f 423//423 426//426 427//427 
f 426//426 428//428 427//427 
f 428//428 425//425 427//427 
f 425//425 423//423 427//427 
f 426//426 429//429 430//430 
f 429//429 431//431 430//430 
f 431//431 428//428 430//430 
f 428//428 426//426 430//430 
f 429//429 432//432 433//433 
f 432//432 434//434 433//433 
f 434//434 431//431 433//433 
f 431//431 429//429 433//433 
f 432//432 435//435 436//436 
f 435//435 437//437 436//436 
f 437//437 434//434 436//436 
f 434//434 432//432 436//436 
f 435//435 438//438 439//439 
f 438//438 440//440 439//439 
f 440//440 437//437 439//439 
f 437//437 435//435 439//439 
f 438//438 441//441 442//442 
f 441//441 443//443 442//442 
f 443//443 440//440 442//442 
f 440//440 438//438 442//442 
f 441//441 444//444 445//445 
f 444//444 446//446 445//445 
f 446//446 443//443 445//445 
f 443//443 441//441 445//445 
f 444//444 447//447 448//448 
f 447//447 449//449 448//448 
f 449//449 446//446 448//448 
f 446//446 444//444 448//448 
f 447//447 450//450 451//451 
f 450//450 452//452 451//451 
f 452//452 449//449 451//451 
f 449//449 447//447 451//451 
f 450//450 453//453 454//454 
f 453//453 455//455 454//454 
f 455//455 452//452 454//454 
f 452//452 450//450 454//454 
f 453//453 456//456 457//457 
f 456//456 458//458 457//457 
f 458//458 455//455 457//457 
f 455//455 453//453 457//457 
f 456//456 459//459 460//460 
f 459//459 461//461 460//460 
f 461//461 458//458 460//460 
f 458//458 456//456 460//460 
s 4
f 459//459 462//462 463//463 
f 462//462 464//464 463//463 
f 464//464 461//461 463//463 
f 461//461 459//459 463//463 
s 2
f 462//462 465//465 466//466 
f 465//465 467//467 466//466 
f 467//467 464//464 466//466 
f 464//464 462//462 466//466 
f 465//465 468//468 469//469 
f 468//468 470//470 469//469 
f 470//470 467//467 469//469 
f 467//467 465//465 469//469 
f 468//468 471//471 472//472 
f 471//471 473//473 472//472 
f 473//473 470//470 472//472 
f 470//470 468//468 472//472 
f 471//471 474//474 475//475 
f 474//474 476//476 475//475 
f 476//476 473//473 475//475 
f 473//473 471//471 475//475 
f 474//474 477//477 478//478 
f 477//477 479//479 478//478 
f 479//479 476//476 478//478 
f 476//476 474//474 478//478 
f 477//477 480//480 481//481 
f 480//480 482//482 481//481 
f 482//482 479//479 481//481 
f 479//479 477//477 481//481 
f 480//480 483//483 484//484 
f 483//483 485//485 484//484 
f 485//485 482//482 484//484 
f 482//482 480//480 484//484 
f 483//483 486//486 487//487 
f 486//486 488//488 487//487 
f 488//488 485//485 487//487 
f 485//485 483//483 487//487 
f 486//486 489//489 490//490 
f 489//489 491//491 490//490 
f 491//491 488//488 490//490 
f 488//488 486//486 490//490 
f 489//489 492//492 493//493 
f 492//492 494//494 493//493 
f 494//494 491//491 493//493 
f 491//491 489//489 493//493 
f 492//492 495//495 496//496 
f 495//495 497//497 496//496 
f 497//497 494//494 496//496 
f 494//494 492//492 496//496 
f 495//495 498//498 499//499 
f 498//498 500//500 499//499 
f 500//500 497//497 499//499 
f 497//497 495//495 499//499 
f 498//498 501//501 502//502 
f 501//501 503//503 502//502 
f 503//503 500//500 502//502 
f 500//500 498//498 502//502 
f 501//501 504//504 505//505 
f 504//504 506//506 505//505 
f 506//506 503//503 505//505 
f 503//503 501//501 505//505 
f 504//504 507//507 508//508 
f 507//507 509//509 508//508 
f 509//509 506//506 508//508 
f 506//506 504//504 508//508 
f 507//507 510//510 511//511 
f 510//510 512//512 511//511 
f 512//512 509//509 511//511 
f 509//509 507//507 511//511 
f 510//510 513//513 514//514 
f 513//513 515//515 514//514 
f 515//515 512//512 514//514 
f 512//512 510//510 514//514 
f 513//513 516//516 517//517 
f 516//516 518//518 517//517 
f 518//518 515//515 517//517 
f 515//515 513//513 517//517 
s 4
f 516//516 519//519 520//520 
f 519//519 521//521 520//520 
f 521//521 518//518 520//520 
f 518//518 516//516 520//520 
f 519//519 522//522 523//523 
f 522//522 524//524 523//523 
f 524//524 521//521 523//523 
f 521//521 519//519 523//523 
f 522//522 525//525 526//526 
f 525//525 527//527 526//526 
f 527//527 524//524 526//526 
f 524//524 522//522 526//526 
f 525//525 528//528 529//529 
f 528//528 530//530 529//529 
f 530//530 527//527 529//529 
f 527//527 525//525 529//529 
f 528//528 531//531 532//532 
f 531//531 533//533 532//532 
f 533//533 530//530 532//532 
f 530//530 528//528 532//532 
f 531//531 534//534 535//535 
f 534//534 536//536 535//535 
f 536//536 533//533 535//535 
f 533//533 531//531 535//535 
f 534//534 537//537 538//538 
f 537//537 539//539 538//538 
f 539//539 536//536 538//538 
f 536//536 534//534 538//538 
f 537//537 540//540 541//541 
f 540//540 542//542 541//541 
f 542//542 539//539 541//541 
f 539//539 537//537 541//541 
f 540//540 543//543 544//544 
f 543//543 545//545 544//544 
f 545//545 542//542 544//544 
f 542//542 540//540 544//544 
s 2
f 543//543 546//546 547//547 
f 546//546 548//548 547//547 
f 548//548 545//545 547//547 
f 545//545 543//543 547//547 
s 5
f 546//546 1//1 549//549 
f 1//1 5//5 549//549 
f 5//5 548//548 549//549 
f 548//548 546//546 549//549 
s 1
f 550//550 551//551 552//552 
f 551//551 553//553 552//552 
f 553//553 554//554 552//552 
f 554//554 550//550 552//552 
s 3
f 551//551 555//555 556//556 
f 555//555 557//557 556//556 
f 557//557 553//553 556//556 
f 553//553 551//551 556//556 
s 2
f 555//555 558//558 559//559 
f 558//558 560//560 559//559 
f 560//560 557//557 559//559 
f 557//557 555//555 559//559 
f 558//558 561//561 562//562 
f 561//561 563//563 562//562 
f 563//563 560//560 562//562 
f 560//560 558//558 562//562 
f 561//561 564//564 565//565 
f 564//564 566//566 565//565 
f 566//566 563//563 565//565 
f 563//563 561//561 565//565 
f 564//564 567//567 568//568 
f 567//567 569//569 568//568 
f 569//569 566//566 568//568 
f 566//566 564//564 568//568 
f 567//567 570//570 571//571 
f 570//570 572//572 571//571 
f 572//572 569//569 571//571 
f 569//569 567//567 571//571 
f 570//570 573//573 574//574 
f 573//573 575//575 574//574 
f 575//575 572//572 574//574 
f 572//572 570//570 574//574 
f 573//573 576//576 577//577 
f 576//576 578//578 577//577 
f 578//578 575//575 577//577 
f 575//575 573//573 577//577 
f 576//576 579//579 580//580 
f 579//579 581//581 580//580 
f 581//581 578//578 580//580 
f 578//578 576//576 580//580 
f 579//579 582//582 583//583 
f 582//582 584//584 583//583 
f 584//584 581//581 583//583 
f 581//581 579//579 583//583 
f 582//582 585//585 586//586 
f 585//585 587//587 586//586 
f 587//587 584//584 586//586 
f 584//584 582//582 586//586 
f 585//585 588//588 589//589 
f 588//588 590//590 589//589 
f 590//590 587//587 589//589 
f 587//587 585//585 589//589 
f 588//588 591//591 592//592 
f 591//591 593//593 592//592 
f 593//593 590//590 592//592 
f 590//590 588//588 592//592 
f 591//591 594//594 595//595 
f 594//594 596//596 595//595 
f 596//596 593//593 595//595 
f 593//593 591//591 595//595 
f 594//594 597//597 598//598 
f 597//597 599//599 598//598 
f 599//599 596//596 598//598 
f 596//596 594//594 598//598 
f 597//597 600//600 601//601 
f 600//600 602//602 601//601 
f 602//602 599//599 601//601 
f 599//599 597//597 601//601 
f 600//600 603//603 604//604 
f 603//603 605//605 604//604 
f 605//605 602//602 604//604 
f 602//602 600//600 604//604 
f 603//603 606//606 607//607 
f 606//606 608//608 607//607 
f 608//608 605//605 607//607 
f 605//605 603//603 607//607 
f 606//606 609//609 610//610 
f 609//609 611//611 610//610 
f 611//611 608//608 610//610 
f 608//608 606//606 610//610 
f 609//609 612//612 613//613 
f 612//612 614//614 613//613 
f 614//614 611//611 613//613 
f 611//611 609//609 613//613 
f 612//612 615//615 616//616 
f 615//615 617//617 616//616 
f 617//617 614//614 616//616 
f 614//614 612//612 616//616 
f 615//615 618//618 619//619 
f 618//618 620//620 619//619 
f 620//620 617//617 619//619 
f 617//617 615//615 619//619 
f 618//618 621//621 622//622 
f 621//621 623//623 622//622 
f 623//623 620//620 622//622 
f 620//620 618//618 622//622 
f 621//621 624//624 625//625 
f 624//624 626//626 625//625 
f 626//626 623//623 625//625 
f 623//623 621//621 625//625 
f 624//624 627//627 628//628 
f 627//627 629//629 628//628 
f 629//629 626//626 628//628 
f 626//626 624//624 628//628 
f 627//627 630//630 631//631 
f 630//630 632//632 631//631 
f 632//632 629//629 631//631 
f 629//629 627//627 631//631 
f 630//630 633//633 634//634 
f 633//633 635//635 634//634 
f 635//635 632//632 634//634 
f 632//632 630//630 634//634 
f 633//633 636//636 637//637 
f 636//636 638//638 637//637 
f 638//638 635//635 637//637 
f 635//635 633//633 637//637 
f 636//636 639//639 640//640 
f 639//639 641//641 640//640 
f 641//641 638//638 640//640 
f 638//638 636//636 640//640 
f 639//639 642//642 643//643 
f 642//642 644//644 643//643 
f 644//644 641//641 643//643 
f 641//641 639//639 643//643 
f 642//642 645//645 646//646 
f 645//645 647//647 646//646 
f 647//647 644//644 646//646 
f 644//644 642//642 646//646 
f 645//645 648//648 649//649 
f 648//648 650//650 649//649 
f 650//650 647//647 649//649 
f 647//647 645//645 649//649 
f 648//648 651//651 652//652 
f 651//651 653//653 652//652 
f 653//653 650//650 652//652 
f 650//650 648//648 652//652 
f 651//651 654//654 655//655 
f 654//654 656//656 655//655 
f 656//656 653//653 655//655 
f 653//653 651//651 655//655 
s 3
f 654//654 550//550 657//657 
f 550//550 554//554 657//657 
f 554//554 656//656 657//657 
f 656//656 654//654 657//657 
s 16
f 165//165 162//162 658//658 
f 162//162 159//159 658//658 
f 159//159 237//237 658//658 
f 237//237 234//234 658//658 
f 234//234 165//165 658//658 
f 215//215 218//218 659//659 
f 218//218 221//221 659//659 
f 221//221 215//215 659//659 
f 159//159 156//156 660//658 
f 156//156 240//240 660//658 
f 240//240 237//237 660//658 
f 237//237 159//159 660//658 
f 234//234 231//231 661//658 
f 231//231 168//168 661//658 
f 168//168 165//165 661//658 
f 165//165 234//234 661//658 
f 231//231 228//228 662//658 
f 228//228 174//174 662//658 
f 174//174 171//171 662//658 
f 171//171 168//168 662//658 
f 168//168 231//231 662//658 
f 228//228 225//225 663//658 
f 225//225 201//201 663//658 
f 201//201 198//198 663//658 
f 198//198 195//195 663//658 
f 195//195 192//192 663//658 
f 192//192 189//189 663//658 
f 189//189 186//186 663//658 
f 186//186 183//183 663//658 
f 183//183 180//180 663//658 
f 180//180 177//177 663//658 
f 177//177 174//174 663//658 
f 174//174 228//228 663//658 
f 225//225 222//222 664//658 
f 222//222 210//210 664//658 
f 210//210 207//207 664//658 
f 207//207 204//204 664//658 
f 204//204 201//201 664//658 
f 201//201 225//225 664//658 
f 222//222 219//219 665//658 
f 219//219 213//213 665//658 
f 213//213 210//210 665//658 
f 210//210 222//222 665//658 
f 219//219 216//216 666//658 
f 216//216 213//213 666//658 
f 213//213 219//219 666//658 
f 156//156 153//153 667//658 
f 153//153 246//246 667//658 
f 246//246 243//243 667//658 
f 243//243 156//156 667//658 
f 153//153 150//150 668//658 
f 150//150 252//252 668//658 
f 252//252 249//249 668//658 
f 249//249 153//153 668//658 
f 243//243 240//240 669//658 
f 240//240 156//156 669//658 
f 156//156 243//243 669//658 
f 150//150 147//147 670//658 
f 147//147 255//255 670//658 
f 255//255 252//252 670//658 
f 252//252 150//150 670//658 
f 249//249 246//246 671//658 
f 246//246 153//153 671//658 
f 153//153 249//249 671//658 
f 144//144 261//261 672//658 
f 261//261 258//258 672//658 
f 258//258 144//144 672//658 
f 144//144 141//141 673//658 
f 141//141 264//264 673//658 
f 264//264 261//261 673//658 
f 261//261 144//144 673//658 
f 258//258 255//255 674//658 
f 255//255 147//147 674//658 
f 147//147 144//144 674//658 
f 144//144 258//258 674//658 
f 141//141 138//138 675//658 
f 138//138 267//267 675//658 
f 267//267 264//264 675//658 
f 264//264 141//141 675//658 
f 138//138 135//135 676//658 
f 135//135 273//273 676//658 
f 273//273 270//270 676//658 
f 270//270 267//267 676//658 
f 267//267 138//138 676//658 
f 135//135 132//132 677//658 
f 132//132 279//279 677//658 
f 279//279 276//276 677//658 
f 276//276 273//273 677//658 
f 273//273 135//135 677//658 
f 132//132 129//129 678//658 
f 129//129 315//315 678//658 
f 315//315 312//312 678//658 
f 312//312 309//309 678//658 
f 309//309 306//306 678//658 
f 306//306 303//303 678//658 
f 303//303 300//300 678//658 
f 300//300 297//297 678//658 
f 297//297 294//294 678//658 
f 294//294 291//291 678//658 
f 291//291 288//288 678//658 
f 288//288 285//285 678//658 
f 285//285 282//282 678//658 
f 282//282 279//279 678//658 
f 279//279 132//132 678//658 
f 129//129 126//126 679//658 
f 126//126 324//324 679//658 
f 324//324 321//321 679//658 
f 321//321 318//318 679//658 
f 318//318 315//315 679//658 
f 315//315 129//129 679//658 
f 126//126 123//123 680//658 
f 123//123 327//327 680//658 
f 327//327 324//324 680//658 
f 324//324 126//126 680//658 
f 123//123 120//120 681//658 
f 120//120 327//327 681//658 
f 327//327 123//123 681//658 
f 120//120 117//117 682//658 
f 117//117 330//330 682//658 
f 330//330 327//327 682//658 
f 327//327 120//120 682//658 
f 117//117 114//114 683//658 
f 114//114 330//330 683//658 
f 330//330 117//117 683//658 
f 114//114 111//111 684//658 
f 111//111 333//333 684//658 
f 333//333 330//330 684//658 
f 330//330 114//114 684//658 
f 111//111 108//108 685//658 
f 108//108 336//336 685//658 
f 336//336 333//333 685//658 
f 333//333 111//111 685//658 
f 72//72 69//69 686//658 
f 69//69 66//66 686//658 
f 66//66 63//63 686//658 
f 63//63 60//60 686//658 
f 60//60 57//57 686//658 
f 57//57 54//54 686//658 
f 54//54 51//51 686//658 
f 51//51 48//48 686//658 
f 48//48 45//45 686//658 
f 45//45 42//42 686//658 
f 42//42 39//39 686//658 
f 39//39 36//36 686//658 
f 36//36 33//33 686//658 
f 33//33 30//30 686//658 
f 30//30 27//27 686//658 
f 27//27 24//24 686//658 
f 24//24 21//21 686//658 
f 21//21 72//72 686//658 
f 21//21 18//18 687//658 
f 18//18 72//72 687//658 
f 72//72 21//21 687//658 
f 18//18 15//15 688//658 
f 15//15 72//72 688//658 
f 72//72 18//18 688//658 
f 15//15 12//12 689//658 
f 12//12 72//72 689//658 
f 72//72 15//15 689//658 
f 12//12 9//9 690//658 
f 9//9 72//72 690//658 
f 72//72 12//12 690//658 
f 9//9 6//6 691//658 
f 6//6 72//72 691//658 
f 72//72 9//9 691//658 
f 6//6 2//2 692//658 
f 2//2 72//72 692//658 
f 72//72 6//6 692//658 
f 2//2 1//1 693//658 
f 1//1 72//72 693//658 
f 72//72 2//2 693//658 
f 1//1 546//546 694//658 
f 546//546 72//72 694//658 
f 72//72 1//1 694//658 
f 546//546 543//543 695//658 
f 597//597 594//594 695//658 
f 594//594 78//78 695//658 
f 78//78 75//75 695//658 
f 75//75 72//72 695//658 
f 72//72 546//546 695//658 
f 594//594 591//591 696//658 
f 591//591 78//78 696//658 
f 78//78 594//594 696//658 
f 591//591 588//588 697//658 
f 588//588 78//78 697//658 
f 78//78 591//591 697//658 
f 588//588 585//585 698//658 
f 585//585 78//78 698//658 
f 78//78 588//588 698//658 
f 585//585 582//582 699//658 
f 582//582 78//78 699//658 
f 78//78 585//585 699//658 
f 582//582 579//579 700//658 
f 579//579 78//78 700//658 
f 78//78 582//582 700//658 
f 579//579 576//576 701//658 
f 576//576 78//78 701//658 
f 78//78 579//579 701//658 
f 573//573 462//462 702//658 
f 462//462 459//459 702//658 
f 459//459 456//456 702//658 
f 456//456 453//453 702//658 
f 453//453 450//450 702//658 
f 450//450 447//447 702//658 
f 447//447 444//444 702//658 
f 444//444 441//441 702//658 
f 441//441 438//438 702//658 
f 438//438 435//435 702//658 
f 435//435 432//432 702//658 
f 432//432 429//429 702//658 
f 429//429 573//573 702//658 
f 573//573 570//570 703//658 
f 570//570 462//462 703//658 
f 462//462 573//573 703//658 
f 429//429 426//426 704//658 
f 426//426 573//573 704//658 
f 573//573 429//429 704//658 
f 426//426 423//423 705//658 
f 423//423 573//573 705//658 
f 573//573 426//426 705//658 
f 423//423 420//420 706//658 
f 420//420 573//573 706//658 
f 573//573 423//423 706//658 
f 420//420 417//417 707//658 
f 417//417 573//573 707//658 
f 573//573 420//420 707//658 
f 417//417 414//414 708//658 
f 414//414 573//573 708//658 
f 573//573 417//417 708//658 
f 414//414 411//411 709//658 
f 411//411 573//573 709//658 
f 573//573 414//414 709//658 
f 411//411 408//408 710//658 
f 408//408 573//573 710//658 
f 573//573 411//411 710//658 
f 408//408 405//405 711//658 
f 405//405 573//573 711//658 
f 573//573 408//408 711//658 
f 405//405 402//402 712//658 
f 402//402 78//78 712//658 
f 78//78 405//405 712//658 
f 405//405 78//78 713//658 
f 78//78 576//576 713//658 
f 576//576 573//573 713//658 
f 573//573 405//405 713//658 
f 402//402 399//399 714//658 
f 399//399 78//78 714//658 
f 78//78 402//402 714//658 
f 399//399 396//396 715//658 
f 396//396 78//78 715//658 
f 78//78 399//399 715//658 
f 396//396 393//393 716//658 
f 393//393 78//78 716//658 
f 78//78 396//396 716//658 
f 393//393 390//390 717//658 
f 390//390 78//78 717//658 
f 78//78 393//393 717//658 
f 390//390 387//387 718//658 
f 387//387 78//78 718//658 
f 78//78 390//390 718//658 
f 387//387 384//384 719//658 
f 384//384 78//78 719//658 
f 78//78 387//387 719//658 
f 384//384 381//381 720//658 
f 381//381 78//78 720//658 
f 78//78 384//384 720//658 
f 381//381 378//378 721//658 
f 378//378 78//78 721//658 
f 78//78 381//381 721//658 
f 378//378 375//375 722//658 
f 375//375 78//78 722//658 
f 78//78 378//378 722//658 
f 375//375 372//372 723//658 
f 372//372 78//78 723//658 
f 78//78 375//375 723//658 
f 372//372 369//369 724//658 
f 369//369 84//84 724//658 
f 84//84 81//81 724//658 
f 81//81 78//78 724//658 
f 78//78 372//372 724//658 
f 369//369 366//366 725//658 
f 366//366 87//87 725//658 
f 87//87 84//84 725//658 
f 84//84 369//369 725//658 
f 366//366 363//363 726//658 
f 363//363 87//87 726//658 
f 87//87 366//366 726//658 
f 363//363 360//360 727//658 
f 360//360 90//90 727//658 
f 90//90 87//87 727//658 
f 87//87 363//363 727//658 
f 360//360 357//357 728//658 
f 357//357 90//90 728//658 
f 90//90 360//360 728//658 
f 357//357 354//354 729//658 
f 354//354 93//93 729//658 
f 93//93 90//90 729//658 
f 90//90 357//357 729//658 
f 354//354 351//351 730//658 
f 351//351 93//93 730//658 
f 93//93 354//354 730//658 
f 351//351 348//348 731//658 
f 348//348 96//96 731//658 
f 96//96 93//93 731//658 
f 93//93 351//351 731//658 
f 348//348 345//345 732//658 
f 345//345 99//99 732//658 
f 99//99 96//96 732//658 
f 96//96 348//348 732//658 
f 345//345 342//342 733//658 
f 342//342 102//102 733//658 
f 102//102 99//99 733//658 
f 99//99 345//345 733//658 
f 342//342 339//339 734//658 
f 339//339 105//105 734//658 
f 105//105 102//102 734//658 
f 102//102 342//342 734//658 
f 339//339 336//336 735//658 
f 336//336 108//108 735//658 
f 108//108 105//105 735//658 
f 105//105 339//339 735//658 
f 570//570 567//567 736//658 
f 567//567 462//462 736//658 
f 462//462 570//570 736//658 
f 567//567 564//564 737//658 
f 564//564 462//462 737//658 
f 462//462 567//567 737//658 
f 564//564 561//561 738//658 
f 561//561 489//489 738//658 
f 489//489 486//486 738//658 
f 486//486 483//483 738//658 
f 483//483 480//480 738//658 
f 480//480 477//477 738//658 
f 477//477 474//474 738//658 
f 474//474 471//471 738//658 
f 471//471 468//468 738//658 
f 468//468 465//465 738//658 
f 465//465 462//462 738//658 
f 462//462 564//564 738//658 
f 561//561 558//558 739//658 
f 558//558 489//489 739//658 
f 489//489 561//561 739//658 
f 558//558 555//555 740//658 
f 555//555 489//489 740//658 
f 489//489 558//558 740//658 
f 555//555 551//551 741//658 
f 551//551 489//489 741//658 
f 489//489 555//555 741//658 
f 551//551 550//550 742//658 
f 550//550 489//489 742//658 
f 489//489 551//551 742//658 
f 550//550 654//654 743//658 
f 654//654 489//489 743//658 
f 489//489 550//550 743//658 
f 654//654 651//651 744//658 
f 651//651 489//489 744//658 
f 489//489 654//654 744//658 
f 651//651 648//648 745//658 
f 648//648 489//489 745//658 
f 489//489 651//651 745//658 
f 648//648 645//645 746//658 
f 645//645 489//489 746//658 
f 489//489 648//648 746//658 
f 645//645 642//642 747//658 
f 642//642 489//489 747//658 
f 489//489 645//645 747//658 
f 642//642 639//639 748//658 
f 639//639 489//489 748//658 
f 489//489 642//642 748//658 
f 639//639 636//636 749//658 
f 636//636 525//525 749//658 
f 525//525 522//522 749//658 
f 522//522 519//519 749//658 
f 519//519 516//516 749//658 
f 516//516 513//513 749//658 
f 513//513 510//510 749//658 
f 510//510 507//507 749//658 
f 507//507 504//504 749//658 
f 504//504 501//501 749//658 
f 501//501 498//498 749//658 
f 498//498 495//495 749//658 
f 495//495 492//492 749//658 
f 492//492 489//489 749//658 
f 489//489 639//639 749//658 
f 636//636 633//633 750//658 
f 633//633 525//525 750//658 
f 525//525 636//636 750//658 
f 633//633 630//630 751//658 
f 630//630 525//525 751//658 
f 525//525 633//633 751//658 
f 630//630 627//627 752//658 
f 627//627 525//525 752//658 
f 525//525 630//630 752//658 
f 627//627 624//624 753//658 
f 624//624 525//525 753//658 
f 525//525 627//627 753//658 
f 624//624 621//621 754//658 
f 621//621 525//525 754//658 
f 525//525 624//624 754//658 
f 621//621 618//618 755//658 
f 618//618 525//525 755//658 
f 525//525 621//621 755//658 
f 618//618 615//615 756//658 
f 615//615 525//525 756//658 
f 525//525 618//618 756//658 
f 615//615 612//612 757//658 
f 612//612 543//543 757//658 
f 543//543 540//540 757//658 
f 540//540 537//537 757//658 
f 537//537 534//534 757//658 
f 534//534 531//531 757//658 
f 531//531 528//528 757//658 
f 528//528 525//525 757//658 
f 525//525 615//615 757//658 
f 612//612 609//609 758//658 
f 609//609 543//543 758//658 
f 543//543 612//612 758//658 
f 609//609 606//606 759//658 
f 606//606 543//543 759//658 
f 543//543 609//609 759//658 
f 606//606 603//603 760//658 
f 603//603 543//543 760//658 
f 543//543 606//606 760//658 
f 603//603 600//600 761//658 
f 600//600 543//543 761//658 
f 543//543 603//603 761//658 
f 600//600 597//597 762//658 
f 597//597 695//658 543//543 762//658 
f 543//543 600//600 762//658 
f 221//221 224//224 763//659 
f 224//224 212//212 763//659 
f 212//212 215//215 763//659 
f 215//215 221//221 763//659 
f 224//224 227//227 764//659 
f 227//227 203//203 764//659 
f 203//203 206//206 764//659 
f 206//206 209//209 764//659 
f 209//209 212//212 764//659 
f 212//212 224//224 764//659 
f 227//227 230//230 765//659 
f 230//230 176//176 765//659 
f 176//176 179//179 765//659 
f 179//179 182//182 765//659 
f 182//182 185//185 765//659 
f 185//185 188//188 765//659 
f 188//188 191//191 765//659 
f 191//191 194//194 765//659 
f 194//194 197//197 765//659 
f 197//197 200//200 765//659 
f 200//200 203//203 765//659 
f 203//203 227//227 765//659 
f 230//230 233//233 766//659 
f 233//233 170//170 766//659 
f 170//170 173//173 766//659 
f 173//173 176//176 766//659 
f 176//176 230//230 766//659 
f 233//233 236//236 767//659 
f 236//236 167//167 767//659 
f 167//167 170//170 767//659 
f 170//170 233//233 767//659 
f 236//236 239//239 768//659 
f 239//239 164//164 768//659 
f 164//164 167//167 768//659 
f 167//167 236//236 768//659 
f 239//239 242//242 769//659 
f 242//242 161//161 769//659 
f 161//161 164//164 769//659 
f 164//164 239//239 769//659 
f 242//242 245//245 770//659 
f 245//245 158//158 770//659 
f 158//158 161//161 770//659 
f 161//161 242//242 770//659 
f 245//245 248//248 771//659 
f 248//248 158//158 771//659 
f 158//158 245//245 771//659 
f 248//248 251//251 772//659 
f 251//251 155//155 772//659 
f 155//155 158//158 772//659 
f 158//158 248//248 772//659 
f 251//251 254//254 773//659 
f 254//254 152//152 773//659 
f 152//152 155//155 773//659 
f 155//155 251//251 773//659 
f 254//254 257//257 774//659 
f 257//257 149//149 774//659 
f 149//149 152//152 774//659 
f 152//152 254//254 774//659 
f 257//257 260//260 775//659 
f 260//260 146//146 775//659 
f 146//146 149//149 775//659 
f 149//149 257//257 775//659 
f 260//260 263//263 776//659 
f 263//263 143//143 776//659 
f 143//143 146//146 776//659 
f 146//146 260//260 776//659 
f 263//263 266//266 777//659 
f 266//266 140//140 777//659 
f 140//140 143//143 777//659 
f 143//143 263//263 777//659 
f 266//266 269//269 778//659 
f 269//269 137//137 778//659 
f 137//137 140//140 778//659 
f 140//140 266//266 778//659 
f 317//317 320//320 779//659 
f 320//320 323//323 779//659 
f 323//323 326//326 779//659 
f 326//326 329//329 779//659 
f 329//329 128//128 779//659 
f 128//128 131//131 779//659 
f 131//131 317//317 779//659 
f 329//329 332//332 780//659 
f 332//332 119//119 780//659 
f 119//119 122//122 780//659 
f 122//122 329//329 780//659 
f 131//131 134//134 781//660 
f 134//134 281//281 781//660 
f 281//281 284//284 781//660 
f 284//284 287//287 781//660 
f 287//287 290//290 781//660 
f 290//290 293//293 781//660 
f 293//293 296//296 781//660 
f 296//296 299//299 781//660 
f 299//299 302//302 781//660 
f 302//302 305//305 781//660 
f 305//305 308//308 781//660 
f 308//308 311//311 781//660 
f 311//311 314//314 781//660 
f 314//314 317//317 781//660 
f 317//317 131//131 781//660 
f 134//134 137//137 782//659 
f 137//137 269//269 782//659 
f 269//269 272//272 782//659 
f 272//272 275//275 782//659 
f 275//275 278//278 782//659 
f 278//278 281//281 782//659 
f 281//281 134//134 782//659 
f 332//332 335//335 783//659 
f 335//335 113//113 783//659 
f 113//113 116//116 783//659 
f 116//116 332//332 783//659 
f 122//122 125//125 784//659 
f 125//125 329//329 784//659 
f 329//329 122//122 784//659 
f 125//125 128//128 785//659 
f 128//128 329//329 785//659 
f 329//329 125//125 785//659 
f 335//335 338//338 786//659 
f 338//338 110//110 786//659 
f 110//110 113//113 786//659 
f 113//113 335//335 786//659 
f 116//116 119//119 787//659 
f 119//119 332//332 787//659 
f 332//332 116//116 787//659 
f 338//338 341//341 788//659 
f 341//341 107//107 788//659 
f 107//107 110//110 788//659 
f 110//110 338//338 788//659 
f 341//341 344//344 789//659 
f 344//344 104//104 789//659 
f 104//104 107//107 789//659 
f 107//107 341//341 789//659 
f 344//344 347//347 790//659 
f 347//347 101//101 790//659 
f 101//101 104//104 790//659 
f 104//104 344//344 790//659 
f 347//347 350//350 791//659 
f 350//350 98//98 791//659 
f 98//98 101//101 791//659 
f 101//101 347//347 791//659 
f 350//350 353//353 792//659 
f 353//353 95//95 792//659 
f 95//95 98//98 792//659 
f 98//98 350//350 792//659 
f 353//353 356//356 793//659 
f 356//356 95//95 793//659 
f 95//95 353//353 793//659 
f 356//356 359//359 794//659 
f 359//359 92//92 794//659 
f 92//92 95//95 794//659 
f 95//95 356//356 794//659 
f 359//359 362//362 795//659 
f 362//362 92//92 795//659 
f 92//92 359//359 795//659 
f 362//362 365//365 796//659 
f 365//365 89//89 796//659 
f 89//89 92//92 796//659 
f 92//92 362//362 796//659 
f 365//365 368//368 797//659 
f 368//368 89//89 797//659 
f 89//89 365//365 797//659 
f 368//368 371//371 798//659 
f 371//371 86//86 798//659 
f 86//86 89//89 798//659 
f 89//89 368//368 798//659 
f 371//371 374//374 799//659 
f 374//374 80//80 799//659 
f 80//80 83//83 799//659 
f 83//83 86//86 799//659 
f 86//86 371//371 799//659 
f 374//374 377//377 800//659 
f 377//377 80//80 800//659 
f 80//80 374//374 800//659 
f 377//377 380//380 801//659 
f 380//380 80//80 801//659 
f 80//80 377//377 801//659 
f 380//380 383//383 802//659 
f 383//383 80//80 802//659 
f 80//80 380//380 802//659 
f 383//383 386//386 803//659 
f 386//386 80//80 803//659 
f 80//80 383//383 803//659 
f 386//386 389//389 804//659 
f 389//389 80//80 804//659 
f 80//80 386//386 804//659 
f 389//389 392//392 805//659 
f 392//392 80//80 805//659 
f 80//80 389//389 805//659 
f 392//392 395//395 806//659 
f 395//395 80//80 806//659 
f 80//80 392//392 806//659 
f 395//395 398//398 807//659 
f 398//398 80//80 807//659 
f 80//80 395//395 807//659 
f 398//398 401//401 808//659 
f 401//401 80//80 808//659 
f 80//80 398//398 808//659 
f 401//401 404//404 809//659 
f 404//404 80//80 809//659 
f 80//80 401//401 809//659 
f 404//404 407//407 810//659 
f 407//407 80//80 810//659 
f 80//80 404//404 810//659 
f 407//407 575//575 811//659 
f 575//575 578//578 811//659 
f 578//578 80//80 811//659 
f 80//80 407//407 811//659 
f 407//407 410//410 812//659 
f 410//410 575//575 812//659 
f 575//575 407//407 812//659 
f 578//578 581//581 813//659 
f 581//581 80//80 813//659 
f 80//80 578//578 813//659 
f 581//581 584//584 814//659 
f 584//584 80//80 814//659 
f 80//80 581//581 814//659 
f 584//584 587//587 815//659 
f 587//587 80//80 815//659 
f 80//80 584//584 815//659 
f 587//587 590//590 816//659 
f 590//590 80//80 816//659 
f 80//80 587//587 816//659 
f 590//590 593//593 817//659 
f 593//593 80//80 817//659 
f 80//80 590//590 817//659 
f 593//593 596//596 818//659 
f 596//596 80//80 818//659 
f 80//80 593//593 818//659 
f 596//596 599//599 819//659 
f 545//545 548//548 819//659 
f 548//548 74//74 819//659 
f 74//74 77//77 819//659 
f 77//77 80//80 819//659 
f 80//80 596//596 819//659 
f 548//548 5//5 820//659 
f 5//5 74//74 820//659 
f 74//74 548//548 820//659 
f 5//5 4//4 821//659 
f 4//4 74//74 821//659 
f 74//74 5//5 821//659 
f 4//4 8//8 822//659 
f 8//8 74//74 822//659 
f 74//74 4//4 822//659 
f 8//8 11//11 823//659 
f 11//11 74//74 823//659 
f 74//74 8//8 823//659 
f 11//11 14//14 824//659 
f 14//14 74//74 824//659 
f 74//74 11//11 824//659 
f 14//14 17//17 825//659 
f 17//17 74//74 825//659 
f 74//74 14//14 825//659 
f 17//17 20//20 826//659 
f 20//20 74//74 826//659 
f 74//74 17//17 826//659 
f 20//20 23//23 827//659 
f 23//23 74//74 827//659 
f 74//74 20//20 827//659 
f 23//23 26//26 828//659 
f 26//26 29//29 828//659 
f 29//29 32//32 828//659 
f 32//32 35//35 828//659 
f 35//35 38//38 828//659 
f 38//38 41//41 828//659 
f 41//41 44//44 828//659 
f 44//44 47//47 828//659 
f 47//47 50//50 828//659 
f 50//50 53//53 828//659 
f 53//53 56//56 828//659 
f 56//56 59//59 828//659 
f 59//59 62//62 828//659 
f 62//62 65//65 828//659 
f 65//65 68//68 828//659 
f 68//68 71//71 828//659 
f 71//71 74//74 828//659 
f 74//74 23//23 828//659 
f 410//410 413//413 829//659 
f 413//413 575//575 829//659 
f 575//575 410//410 829//659 
f 413//413 416//416 830//659 
f 416//416 575//575 830//659 
f 575//575 413//413 830//659 
f 416//416 419//419 831//659 
f 419//419 575//575 831//659 
f 575//575 416//416 831//659 
f 419//419 422//422 832//659 
f 422//422 575//575 832//659 
f 575//575 419//419 832//659 
f 422//422 425//425 833//659 
f 425//425 575//575 833//659 
f 575//575 422//422 833//659 
f 425//425 428//428 834//659 
f 428//428 575//575 834//659 
f 575//575 425//425 834//659 
f 428//428 431//431 835//659 
f 431//431 575//575 835//659 
f 575//575 428//428 835//659 
f 545//545 819//659 599//599 836//659 
f 599//599 602//602 836//659 
f 602//602 545//545 836//659 
f 602//602 605//605 837//659 
f 605//605 545//545 837//659 
f 545//545 602//602 837//659 
f 605//605 608//608 838//659 
f 608//608 545//545 838//659 
f 545//545 605//605 838//659 
f 608//608 611//611 839//659 
f 611//611 545//545 839//659 
f 545//545 608//608 839//659 
f 611//611 614//614 840//659 
f 614//614 545//545 840//659 
f 545//545 611//611 840//659 
f 614//614 617//617 841//659 
f 617//617 527//527 841//659 
f 527//527 530//530 841//659 
f 530//530 533//533 841//659 
f 533//533 536//536 841//659 
f 536//536 539//539 841//659 
f 539//539 542//542 841//659 
f 542//542 545//545 841//659 
f 545//545 614//614 841//659 
f 617//617 620//620 842//659 
f 620//620 527//527 842//659 
f 527//527 617//617 842//659 
f 620//620 623//623 843//659 
f 623//623 527//527 843//659 
f 527//527 620//620 843//659 
f 623//623 626//626 844//659 
f 626//626 527//527 844//659 
f 527//527 623//623 844//659 
f 626//626 629//629 845//659 
f 629//629 527//527 845//659 
f 527//527 626//626 845//659 
f 629//629 632//632 846//659 
f 632//632 527//527 846//659 
f 527//527 629//629 846//659 
f 632//632 635//635 847//659 
f 635//635 527//527 847//659 
f 527//527 632//632 847//659 
f 635//635 638//638 848//659 
f 638//638 527//527 848//659 
f 527//527 635//635 848//659 
f 638//638 641//641 849//660 
f 641//641 491//491 849//660 
f 491//491 494//494 849//660 
f 494//494 497//497 849//660 
f 497//497 500//500 849//660 
f 500//500 503//503 849//660 
f 503//503 506//506 849//660 
f 506//506 509//509 849//660 
f 509//509 512//512 849//660 
f 512//512 515//515 849//660 
f 515//515 518//518 849//660 
f 518//518 521//521 849//660 
f 521//521 524//524 849//660 
f 524//524 527//527 849//660 
f 527//527 638//638 849//660 
f 641//641 644//644 850//659 
f 644//644 491//491 850//659 
f 491//491 641//641 850//659 
f 644//644 647//647 851//659 
f 647//647 491//491 851//659 
f 491//491 644//644 851//659 
f 647//647 650//650 852//659 
f 650//650 491//491 852//659 
f 491//491 647//647 852//659 
f 650//650 653//653 853//659 
f 653//653 491//491 853//659 
f 491//491 650//650 853//659 
f 653//653 656//656 854//659 
f 656//656 491//491 854//659 
f 491//491 653//653 854//659 
f 656//656 554//554 855//659 
f 554//554 491//491 855//659 
f 491//491 656//656 855//659 
f 554//554 553//553 856//659 
f 553//553 491//491 856//659 
f 491//491 554//554 856//659 
f 553//553 557//557 857//659 
f 557//557 491//491 857//659 
f 491//491 553//553 857//659 
f 557//557 560//560 858//659 
f 560//560 491//491 858//659 
f 491//491 557//557 858//659 
f 560//560 563//563 859//659 
f 563//563 491//491 859//659 
f 491//491 560//560 859//659 
f 563//563 566//566 860//659 
f 566//566 464//464 860//659 
f 464//464 467//467 860//659 
f 467//467 470//470 860//659 
f 470//470 473//473 860//659 
f 473//473 476//476 860//659 
f 476//476 479//479 860//659 
f 479//479 482//482 860//659 
f 482//482 485//485 860//659 
f 485//485 488//488 860//659 
f 488//488 491//491 860//659 
f 491//491 563//563 860//659 
f 566//566 569//569 861//659 
f 569//569 464//464 861//659 
f 464//464 566//566 861//659 
f 569//569 572//572 862//659 
f 572//572 464//464 862//659 
f 464//464 569//569 862//659 
f 572//572 575//575 863//659 
f 575//575 431//431 863//659 
f 431//431 434//434 863//659 
f 434//434 437//437 863//659 
f 437//437 440//440 863//659 
f 440//440 443//443 863//659 
f 443//443 446//446 863//659 
f 446//446 449//449 863//659 
f 449//449 452//452 863//659 
f 452//452 455//455 863//659 
f 455//455 458//458 863//659 
f 458//458 461//461 863//659 
f 461//461 464//464 863//659 
f 464//464 572//572 863//659 
# 2 polygons - 1722 triangles

