# 3ds Max Wavefront OBJ Exporter v0.97b - (c)2007 guruware
# File Created: 10.09.2020 19:01:13

#
# object Object005
#

v  3.9688 10.0000 12.5061
v  2.9672 10.0000 12.0938
v  3.3011 6.6667 12.2313
v  2.9672 0.0000 12.0938
v  3.9688 0.0000 12.5061
v  3.6349 3.3333 12.3687
v  4.8368 10.0000 13.1933
v  4.2582 6.6667 12.7352
v  4.8368 0.0000 13.1933
v  4.5475 3.3333 12.9642
v  5.5713 10.0000 14.1552
v  5.0817 6.6667 13.5139
v  5.5713 0.0000 14.1552
v  5.3265 3.3333 13.8346
v  6.1723 10.0000 15.3921
v  5.7717 6.6667 14.5675
v  6.1723 0.0000 15.3921
v  5.9720 3.3333 14.9798
v  6.6397 10.0000 16.9038
v  6.3281 6.6667 15.8960
v  6.6397 0.0000 16.9038
v  6.4839 3.3333 16.3999
v  6.9736 10.0000 18.6903
v  6.7510 6.6667 17.4993
v  6.9736 0.0000 18.6903
v  6.8623 3.3333 18.0948
v  7.1739 10.0000 20.7517
v  7.0403 6.6667 19.3774
v  7.1739 0.0000 20.7517
v  7.1071 3.3333 20.0646
v  7.2406 10.0000 23.0880
v  7.1961 6.6667 21.5305
v  7.2406 0.0000 23.0880
v  7.2184 3.3333 22.3092
v  7.2406 10.0000 54.1380
v  7.2406 6.6667 33.4380
v  7.2406 0.0000 54.1380
v  7.2406 3.3333 43.7880
v  17.0615 10.0000 54.1380
v  10.5143 6.6667 54.1380
v  17.0615 0.0000 54.1380
v  13.7879 3.3333 54.1380
v  17.0615 10.0000 22.4238
v  17.0615 6.6667 43.5666
v  17.0615 0.0000 22.4238
v  17.0615 3.3333 32.9952
v  16.8831 10.0000 18.6726
v  17.0021 6.6667 21.1734
v  16.8831 0.0000 18.6726
v  16.9426 3.3333 19.9230
v  16.3477 10.0000 15.3628
v  16.7046 6.6667 17.5693
v  16.3477 0.0000 15.3628
v  16.5262 3.3333 16.4661
v  15.4555 10.0000 12.4942
v  16.0503 6.6667 14.4066
v  15.4555 0.0000 12.4942
v  15.7529 3.3333 13.4504
v  14.2063 10.0000 10.0670
v  15.0391 6.6667 11.6851
v  14.2063 0.0000 10.0670
v  14.6227 3.3333 10.8760
v  12.6002 10.0000 8.0810
v  13.6709 6.6667 9.4050
v  12.6002 0.0000 8.0810
v  13.1356 3.3333 8.7430
v  10.6373 10.0000 6.5364
v  11.9459 6.6667 7.5662
v  10.6373 0.0000 6.5364
v  11.2916 3.3333 7.0513
v  8.3174 10.0000 5.4331
v  9.8640 6.6667 6.1687
v  8.3174 0.0000 5.4331
v  9.0907 3.3333 5.8009
v  5.6406 10.0000 4.7712
v  7.4251 6.6667 5.2125
v  5.6406 0.0000 4.7712
v  6.5329 3.3333 4.9918
v  2.6069 10.0000 4.5505
v  4.6294 6.6667 4.6976
v  2.6069 0.0000 4.5505
v  3.6181 3.3333 4.6241
v  -5.5587 10.0000 8.8975
v  -0.1150 6.6667 5.9995
v  -5.5587 0.0000 8.8975
v  -2.8369 3.3333 7.4485
v  -13.3395 10.0000 4.5505
v  -8.1523 6.6667 7.4485
v  -13.3395 0.0000 4.5505
v  -10.7459 3.3333 5.9995
v  -14.6752 10.0000 4.6241
v  -13.7847 6.6667 4.5750
v  -14.6752 0.0000 4.6241
v  -14.2300 3.3333 4.5995
v  -15.9744 10.0000 4.8447
v  -15.1083 6.6667 4.6976
v  -15.9744 0.0000 4.8447
v  -15.5413 3.3333 4.7712
v  -17.2371 10.0000 5.2125
v  -16.3953 6.6667 4.9673
v  -17.2371 0.0000 5.2125
v  -16.8162 3.3333 5.0899
v  -18.4634 10.0000 5.7274
v  -17.6459 6.6667 5.3842
v  -18.4634 0.0000 5.7274
v  -18.0546 3.3333 5.5558
v  -19.6531 10.0000 6.3895
v  -18.8599 6.6667 5.9481
v  -19.6531 0.0000 6.3895
v  -19.2565 3.3333 6.1688
v  -20.8063 10.0000 7.1986
v  -20.0375 6.6667 6.6592
v  -20.8063 0.0000 7.1986
v  -20.4219 3.3333 6.9289
v  -21.9231 10.0000 8.1548
v  -21.1786 6.6667 7.5173
v  -21.9231 0.0000 8.1548
v  -21.5508 3.3333 7.8361
v  -23.0034 10.0000 9.2582
v  -22.2832 6.6667 8.5226
v  -23.0034 0.0000 9.2582
v  -22.6433 3.3333 8.8904
v  -24.0471 10.0000 10.5087
v  -23.3513 6.6667 9.6750
v  -24.0471 0.0000 10.5087
v  -23.6992 3.3333 10.0919
v  -25.0157 10.0000 11.8520
v  -24.3700 6.6667 10.9565
v  -25.0157 0.0000 11.8520
v  -24.6928 3.3333 11.4043
v  -25.8703 10.0000 13.2340
v  -25.3006 6.6667 12.3127
v  -25.8703 0.0000 13.2340
v  -25.5854 3.3333 12.7733
v  -26.6109 10.0000 14.6545
v  -26.1172 6.6667 13.7075
v  -26.6109 0.0000 14.6545
v  -26.3641 3.3333 14.1810
v  -27.2377 10.0000 16.1137
v  -26.8199 6.6667 15.1409
v  -27.2377 0.0000 16.1137
v  -27.0288 3.3333 15.6273
v  -27.7504 10.0000 17.6115
v  -27.4086 6.6667 16.6130
v  -27.7504 0.0000 17.6115
v  -27.5795 3.3333 17.1122
v  -28.1492 10.0000 19.1478
v  -27.8834 6.6667 18.1236
v  -28.1492 0.0000 19.1478
v  -28.0163 3.3333 18.6357
v  -28.4341 10.0000 20.7228
v  -28.2442 6.6667 19.6728
v  -28.4341 0.0000 20.7228
v  -28.3391 3.3333 20.1978
v  -28.6050 10.0000 22.3364
v  -28.4911 6.6667 21.2607
v  -28.6050 0.0000 22.3364
v  -28.5481 3.3333 21.7985
v  -28.6620 10.0000 23.9885
v  -28.6240 6.6667 22.8871
v  -28.6620 0.0000 23.9885
v  -28.6430 3.3333 23.4378
v  -28.6059 10.0000 25.4015
v  -28.6433 6.6667 24.4595
v  -28.6059 0.0000 25.4015
v  -28.6246 3.3333 24.9305
v  -28.4375 10.0000 26.9660
v  -28.5498 6.6667 25.9230
v  -28.4375 0.0000 26.9660
v  -28.4936 3.3333 26.4445
v  -28.1569 10.0000 28.6821
v  -28.3440 6.6667 27.5380
v  -28.1569 0.0000 28.6821
v  -28.2505 3.3333 28.1101
v  -27.7641 10.0000 30.5497
v  -28.0260 6.6667 29.3046
v  -27.7641 0.0000 30.5497
v  -27.8950 3.3333 29.9272
v  -27.2590 10.0000 32.5689
v  -27.5957 6.6667 31.2228
v  -27.2590 0.0000 32.5689
v  -27.4274 3.3333 31.8959
v  -26.6417 10.0000 34.7397
v  -27.0532 6.6667 33.2925
v  -26.6417 0.0000 34.7397
v  -26.8475 3.3333 34.0161
v  -25.9121 10.0000 37.0620
v  -26.3985 6.6667 35.5138
v  -25.9121 0.0000 37.0620
v  -26.1553 3.3333 36.2879
v  -25.0703 10.0000 39.5358
v  -25.6315 6.6667 37.8866
v  -25.0703 0.0000 39.5358
v  -25.3509 3.3333 38.7112
v  -24.1163 10.0000 42.1612
v  -24.7523 6.6667 40.4110
v  -24.1163 0.0000 42.1612
v  -24.4343 3.3333 41.2861
v  -23.7525 10.0000 43.1984
v  -23.9951 6.6667 42.5070
v  -23.7525 0.0000 43.1984
v  -23.8738 3.3333 42.8527
v  -23.4316 10.0000 44.2505
v  -23.6456 6.6667 43.5491
v  -23.4316 0.0000 44.2505
v  -23.5386 3.3333 43.8998
v  -23.1534 10.0000 45.3175
v  -23.3388 6.6667 44.6061
v  -23.1534 0.0000 45.3175
v  -23.2461 3.3333 44.9618
v  -22.9180 10.0000 46.3994
v  -23.0749 6.6667 45.6781
v  -22.9180 0.0000 46.3994
v  -22.9965 3.3333 46.0387
v  -22.7254 10.0000 47.4962
v  -22.8538 6.6667 46.7650
v  -22.7254 0.0000 47.4962
v  -22.7896 3.3333 47.1306
v  -22.5756 10.0000 48.6079
v  -22.6755 6.6667 47.8667
v  -22.5756 0.0000 48.6079
v  -22.6256 3.3333 48.2373
v  -22.4687 10.0000 49.7345
v  -22.5400 6.6667 48.9834
v  -22.4687 0.0000 49.7345
v  -22.5043 3.3333 49.3590
v  -22.4045 10.0000 50.8760
v  -22.4473 6.6667 50.1150
v  -22.4045 0.0000 50.8760
v  -22.4259 3.3333 50.4955
v  -22.3831 10.0000 52.0324
v  -22.3973 6.6667 51.2615
v  -22.3831 0.0000 52.0324
v  -22.3902 3.3333 51.6470
v  -22.3831 10.0000 54.1380
v  -22.3831 6.6667 52.7343
v  -22.3831 0.0000 54.1380
v  -22.3831 3.3333 53.4361
v  -12.5622 10.0000 54.1380
v  -19.1094 6.6667 54.1380
v  -12.5622 0.0000 54.1380
v  -15.8358 3.3333 54.1380
v  -12.3371 10.0000 52.1655
v  -12.4871 6.6667 53.4805
v  -12.3371 0.0000 52.1655
v  -12.4121 3.3333 52.8230
v  -12.0856 10.0000 50.2362
v  -12.2533 6.6667 51.5224
v  -12.0856 0.0000 50.2362
v  -12.1694 3.3333 50.8793
v  -11.8078 10.0000 48.3499
v  -11.9930 6.6667 49.6074
v  -11.8078 0.0000 48.3499
v  -11.9004 3.3333 48.9786
v  -11.5035 10.0000 46.5067
v  -11.7063 6.6667 47.7355
v  -11.5035 0.0000 46.5067
v  -11.6049 3.3333 47.1211
v  -11.1728 10.0000 44.7067
v  -11.3933 6.6667 45.9067
v  -11.1728 0.0000 44.7067
v  -11.2831 3.3333 45.3067
v  -10.8158 10.0000 42.9497
v  -11.0538 6.6667 44.1210
v  -10.8158 0.0000 42.9497
v  -10.9348 3.3333 43.5354
v  -10.4323 10.0000 41.2359
v  -10.6880 6.6667 42.3785
v  -10.4323 0.0000 41.2359
v  -10.5601 3.3333 41.8072
v  -10.0225 10.0000 39.5652
v  -10.2957 6.6667 40.6790
v  -10.0225 0.0000 39.5652
v  -10.1591 3.3333 40.1221
v  -9.5862 10.0000 37.9375
v  -9.8770 6.6667 39.0226
v  -9.5862 0.0000 37.9375
v  -9.7316 3.3333 38.4801
v  -9.1746 10.0000 38.1276
v  -9.4490 6.6667 38.0009
v  -9.1746 0.0000 38.1276
v  -9.3118 3.3333 38.0642
v  -8.7436 10.0000 38.2953
v  -9.0309 6.6667 38.1835
v  -8.7436 0.0000 38.2953
v  -8.8872 3.3333 38.2394
v  -8.2932 10.0000 38.4407
v  -8.5934 6.6667 38.3438
v  -8.2932 0.0000 38.4407
v  -8.4433 3.3333 38.3922
v  -7.8234 10.0000 38.5636
v  -8.1366 6.6667 38.4817
v  -7.8234 0.0000 38.5636
v  -7.9800 3.3333 38.5226
v  -7.3343 10.0000 38.6643
v  -7.6604 6.6667 38.5972
v  -7.3343 0.0000 38.6643
v  -7.4973 3.3333 38.6307
v  -6.8258 10.0000 38.7425
v  -7.1648 6.6667 38.6904
v  -6.8258 0.0000 38.7425
v  -6.9953 3.3333 38.7164
v  -6.2979 10.0000 38.7984
v  -6.6498 6.6667 38.7612
v  -6.2979 0.0000 38.7984
v  -6.4738 3.3333 38.7798
v  -5.7506 10.0000 38.8320
v  -6.1154 6.6667 38.8096
v  -5.7506 0.0000 38.8320
v  -5.9330 3.3333 38.8208
v  -5.1839 10.0000 38.8432
v  -5.5617 6.6667 38.8357
v  -5.1839 0.0000 38.8432
v  -5.3728 3.3333 38.8394
v  -3.3872 10.0000 38.7246
v  -4.5850 6.6667 38.8036
v  -3.3872 0.0000 38.7246
v  -3.9861 3.3333 38.7641
v  -1.8019 10.0000 38.3689
v  -2.8588 6.6667 38.6060
v  -1.8019 0.0000 38.3689
v  -2.3304 3.3333 38.4874
v  -0.4280 10.0000 37.7760
v  -1.3440 6.6667 38.1712
v  -0.4280 0.0000 37.7760
v  -0.8860 3.3333 37.9736
v  0.7345 10.0000 36.9460
v  -0.0405 6.6667 37.4993
v  0.7345 0.0000 36.9460
v  0.3470 3.3333 37.2226
v  1.6857 10.0000 35.8788
v  1.0516 6.6667 36.5902
v  1.6857 0.0000 35.8788
v  1.3686 3.3333 36.2345
v  2.4255 10.0000 34.5745
v  1.9323 6.6667 35.4440
v  2.4255 0.0000 34.5745
v  2.1789 3.3333 35.0092
v  2.9539 10.0000 33.0330
v  2.6016 6.6667 34.0606
v  2.9539 0.0000 33.0330
v  2.7778 3.3333 33.5468
v  3.2710 10.0000 31.2544
v  3.0596 6.6667 32.4401
v  3.2710 0.0000 31.2544
v  3.1653 3.3333 31.8472
v  3.3767 10.0000 29.2386
v  3.3062 6.6667 30.5824
v  3.3767 0.0000 29.2386
v  3.3414 3.3333 29.9105
v  3.2743 10.0000 27.6389
v  3.3425 6.6667 28.7054
v  3.2743 0.0000 27.6389
v  3.3084 3.3333 28.1721
v  2.9670 10.0000 26.2273
v  3.1718 6.6667 27.1684
v  2.9670 0.0000 26.2273
v  3.0694 3.3333 26.6978
v  2.4549 10.0000 25.0040
v  2.7963 6.6667 25.8196
v  2.4549 0.0000 25.0040
v  2.6256 3.3333 25.4118
v  1.7379 10.0000 23.9689
v  2.2159 6.6667 24.6590
v  1.7379 0.0000 23.9689
v  1.9769 3.3333 24.3139
v  0.8160 10.0000 23.1220
v  1.4306 6.6667 23.6866
v  0.8160 0.0000 23.1220
v  1.1233 3.3333 23.4043
v  -0.3106 10.0000 22.4632
v  0.4405 6.6667 22.9024
v  -0.3106 0.0000 22.4632
v  0.0649 3.3333 22.6828
v  -1.6422 10.0000 21.9927
v  -0.7545 6.6667 22.3064
v  -1.6422 0.0000 21.9927
v  -1.1983 3.3333 22.1496
v  -3.1785 10.0000 21.7104
v  -2.1543 6.6667 21.8986
v  -3.1785 0.0000 21.7104
v  -2.6664 3.3333 21.8045
v  -4.9198 10.0000 21.6163
v  -3.7590 6.6667 21.6791
v  -4.9198 0.0000 21.6163
v  -4.3394 3.3333 21.6477
v  -7.1920 10.0000 21.8451
v  -5.6772 6.6667 21.6926
v  -7.1920 0.0000 21.8451
v  -6.4346 3.3333 21.7689
v  -9.2267 10.0000 22.5315
v  -7.8702 6.6667 22.0739
v  -9.2267 0.0000 22.5315
v  -8.5485 3.3333 22.3027
v  -11.0240 10.0000 23.6755
v  -9.8258 6.6667 22.9128
v  -11.0240 0.0000 23.6755
v  -10.4249 3.3333 23.2942
v  -12.5838 10.0000 25.2771
v  -11.5440 6.6667 24.2093
v  -12.5838 0.0000 25.2771
v  -12.0639 3.3333 24.7432
v  -13.9062 10.0000 27.3362
v  -13.0246 6.6667 25.9634
v  -13.9062 0.0000 27.3362
v  -13.4654 3.3333 26.6498
v  -14.9911 10.0000 29.8530
v  -14.2678 6.6667 28.1751
v  -14.9911 0.0000 29.8530
v  -14.6295 3.3333 29.0140
v  -15.8386 10.0000 32.8273
v  -15.2736 6.6667 30.8444
v  -15.8386 0.0000 32.8273
v  -15.5561 3.3333 31.8359
v  -16.4485 10.0000 36.2592
v  -16.0419 6.6667 33.9713
v  -16.4485 0.0000 36.2592
v  -16.2452 3.3333 35.1153
v  -16.8211 10.0000 40.1488
v  -16.5727 6.6667 37.5557
v  -16.8211 0.0000 40.1488
v  -16.6969 3.3333 38.8522
v  -17.4140 10.0000 37.9119
v  -17.0187 6.6667 39.4031
v  -17.4140 0.0000 37.9119
v  -17.2163 3.3333 38.6575
v  -17.9371 10.0000 35.7363
v  -17.5884 6.6667 37.1867
v  -17.9371 0.0000 35.7363
v  -17.7627 3.3333 36.4615
v  -18.3905 10.0000 33.6219
v  -18.0883 6.6667 35.0315
v  -18.3905 0.0000 33.6219
v  -18.2394 3.3333 34.3267
v  -18.7742 10.0000 31.5686
v  -18.5184 6.6667 32.9375
v  -18.7742 0.0000 31.5686
v  -18.6463 3.3333 32.2531
v  -19.0881 10.0000 29.5766
v  -18.8788 6.6667 30.9046
v  -19.0881 0.0000 29.5766
v  -18.9834 3.3333 30.2406
v  -19.3322 10.0000 27.6457
v  -19.1694 6.6667 28.9329
v  -19.3322 0.0000 27.6457
v  -19.2508 3.3333 28.2893
v  -19.5066 10.0000 25.7760
v  -19.3903 6.6667 27.0224
v  -19.5066 0.0000 25.7760
v  -19.4485 3.3333 26.3992
v  -19.6112 10.0000 23.9674
v  -19.5415 6.6667 25.1731
v  -19.6112 0.0000 23.9674
v  -19.5763 3.3333 24.5703
v  -19.6461 10.0000 22.2201
v  -19.6228 6.6667 23.3850
v  -19.6461 0.0000 22.2201
v  -19.6345 3.3333 22.8025
v  -19.6228 10.0000 21.4188
v  -19.6383 6.6667 21.9530
v  -19.6228 0.0000 21.4188
v  -19.6306 3.3333 21.6859
v  -19.5529 10.0000 20.6250
v  -19.5995 6.6667 21.1542
v  -19.5529 0.0000 20.6250
v  -19.5762 3.3333 20.8896
v  -19.4363 10.0000 19.8386
v  -19.5140 6.6667 20.3629
v  -19.4363 0.0000 19.8386
v  -19.4752 3.3333 20.1008
v  -19.2732 10.0000 19.0597
v  -19.3819 6.6667 19.5790
v  -19.2732 0.0000 19.0597
v  -19.3275 3.3333 19.3194
v  -19.0634 10.0000 18.2883
v  -19.2032 6.6667 18.8026
v  -19.0634 0.0000 18.2883
v  -19.1333 3.3333 18.5454
v  -18.8070 10.0000 17.5243
v  -18.9779 6.6667 18.0336
v  -18.8070 0.0000 17.5243
v  -18.8925 3.3333 17.7790
v  -18.5040 10.0000 16.7677
v  -18.7060 6.6667 17.2721
v  -18.5040 0.0000 16.7677
v  -18.6050 3.3333 17.0199
v  -18.1544 10.0000 16.0187
v  -18.3875 6.6667 16.5181
v  -18.1544 0.0000 16.0187
v  -18.2709 3.3333 16.2684
v  -17.7581 10.0000 15.2770
v  -18.0223 6.6667 15.7714
v  -17.7581 0.0000 15.2770
v  -17.8902 3.3333 15.5242
v  -17.3301 10.0000 14.5801
v  -17.6154 6.6667 15.0447
v  -17.3301 0.0000 14.5801
v  -17.4728 3.3333 14.8124
v  -16.8849 10.0000 13.9652
v  -17.1817 6.6667 14.3751
v  -16.8849 0.0000 13.9652
v  -17.0333 3.3333 14.1702
v  -16.4228 10.0000 13.4322
v  -16.7309 6.6667 13.7875
v  -16.4228 0.0000 13.4322
v  -16.5768 3.3333 13.6099
v  -15.9436 10.0000 12.9813
v  -16.2630 6.6667 13.2819
v  -15.9436 0.0000 12.9813
v  -16.1033 3.3333 13.1316
v  -15.4473 10.0000 12.6123
v  -15.7781 6.6667 12.8583
v  -15.4473 0.0000 12.6123
v  -15.6127 3.3333 12.7353
v  -14.9340 10.0000 12.3254
v  -15.2762 6.6667 12.5167
v  -14.9340 0.0000 12.3254
v  -15.1051 3.3333 12.4210
v  -14.4036 10.0000 12.1204
v  -14.7572 6.6667 12.2571
v  -14.4036 0.0000 12.1204
v  -14.5804 3.3333 12.1887
v  -13.8562 10.0000 11.9974
v  -14.2211 6.6667 12.0794
v  -13.8562 0.0000 11.9974
v  -14.0386 3.3333 12.0384
v  -13.2917 10.0000 11.9564
v  -13.6680 6.6667 11.9838
v  -13.2917 0.0000 11.9564
v  -13.4798 3.3333 11.9701
v  -5.5587 10.0000 15.6594
v  -10.7140 6.6667 13.1907
v  -5.5587 0.0000 15.6594
v  -8.1364 3.3333 14.4251
v  1.8321 10.0000 11.9564
v  -3.0951 6.6667 14.4251
v  1.8321 0.0000 11.9564
v  -0.6315 3.3333 13.1907
v  2.2105 6.6667 12.0022
v  2.5889 3.3333 12.0480
v  -3.7104 10.0000 26.3106
v  -4.4506 10.0000 26.1709
v  -4.2039 6.6667 26.2175
v  -4.4506 0.0000 26.1709
v  -3.7104 0.0000 26.3106
v  -3.9571 3.3333 26.2640
v  -3.0688 10.0000 26.5435
v  -3.4965 6.6667 26.3883
v  -3.0688 0.0000 26.5435
v  -3.2827 3.3333 26.4659
v  -2.5260 10.0000 26.8696
v  -2.8879 6.6667 26.6522
v  -2.5260 0.0000 26.8696
v  -2.7070 3.3333 26.7609
v  -2.0819 10.0000 27.2889
v  -2.3780 6.6667 27.0094
v  -2.0819 0.0000 27.2889
v  -2.2299 3.3333 27.1492
v  -1.7364 10.0000 27.8013
v  -1.9667 6.6667 27.4597
v  -1.7364 0.0000 27.8013
v  -1.8516 3.3333 27.6305
v  -1.4897 10.0000 28.4070
v  -1.6542 6.6667 28.0032
v  -1.4897 0.0000 28.4070
v  -1.5719 3.3333 28.2051
v  -1.3416 10.0000 29.1057
v  -1.4403 6.6667 28.6399
v  -1.3416 0.0000 29.1057
v  -1.3910 3.3333 28.8728
v  -1.2923 10.0000 29.8977
v  -1.3252 6.6667 29.3697
v  -1.2923 0.0000 29.8977
v  -1.3087 3.3333 29.6337
v  -1.3416 10.0000 30.7276
v  -1.3087 6.6667 30.1743
v  -1.3416 0.0000 30.7276
v  -1.3252 3.3333 30.4510
v  -1.4897 10.0000 31.4600
v  -1.3910 6.6667 30.9718
v  -1.4897 0.0000 31.4600
v  -1.4403 3.3333 31.2159
v  -1.7364 10.0000 32.0946
v  -1.5719 6.6667 31.6715
v  -1.7364 0.0000 32.0946
v  -1.6542 3.3333 31.8831
v  -2.0819 10.0000 32.6317
v  -1.8516 6.6667 32.2737
v  -2.0819 0.0000 32.6317
v  -1.9667 3.3333 32.4527
v  -2.5260 10.0000 33.0711
v  -2.2299 6.6667 32.7781
v  -2.5260 0.0000 33.0711
v  -2.3780 3.3333 32.9246
v  -3.0688 10.0000 33.4128
v  -2.7070 6.6667 33.1850
v  -3.0688 0.0000 33.4128
v  -2.8879 3.3333 33.2989
v  -3.7104 10.0000 33.6569
v  -3.2827 6.6667 33.4942
v  -3.7104 0.0000 33.6569
v  -3.4965 3.3333 33.5756
v  -4.4506 10.0000 33.8034
v  -3.9571 6.6667 33.7057
v  -4.4506 0.0000 33.8034
v  -4.2039 3.3333 33.7546
v  -5.2896 10.0000 33.8522
v  -4.7303 6.6667 33.8197
v  -5.2896 0.0000 33.8522
v  -5.0099 3.3333 33.8359
v  -6.0905 10.0000 33.8034
v  -5.5565 6.6667 33.8359
v  -6.0905 0.0000 33.8034
v  -5.8235 3.3333 33.8197
v  -6.7972 10.0000 33.6569
v  -6.3261 6.6667 33.7546
v  -6.7972 0.0000 33.6569
v  -6.5616 3.3333 33.7057
v  -7.4097 10.0000 33.4128
v  -7.0013 6.6667 33.5756
v  -7.4097 0.0000 33.4128
v  -7.2055 3.3333 33.4942
v  -7.9279 10.0000 33.0711
v  -7.5824 6.6667 33.2989
v  -7.9279 0.0000 33.0711
v  -7.7552 3.3333 33.1850
v  -8.3519 10.0000 32.6317
v  -8.0692 6.6667 32.9246
v  -8.3519 0.0000 32.6317
v  -8.2106 3.3333 32.7781
v  -8.6817 10.0000 32.0946
v  -8.4618 6.6667 32.4527
v  -8.6817 0.0000 32.0946
v  -8.5718 3.3333 32.2737
v  -8.9173 10.0000 31.4600
v  -8.7602 6.6667 31.8831
v  -8.9173 0.0000 31.4600
v  -8.8388 3.3333 31.6715
v  -9.0586 10.0000 30.7276
v  -8.9644 6.6667 31.2159
v  -9.0586 0.0000 30.7276
v  -9.0115 3.3333 30.9718
v  -9.1057 10.0000 29.8977
v  -9.0743 6.6667 30.4510
v  -9.1057 0.0000 29.8977
v  -9.0900 3.3333 30.1743
v  -9.0586 10.0000 29.1057
v  -9.0900 6.6667 29.6337
v  -9.0586 0.0000 29.1057
v  -9.0743 3.3333 29.3697
v  -8.9173 10.0000 28.4070
v  -9.0115 6.6667 28.8728
v  -8.9173 0.0000 28.4070
v  -8.9644 3.3333 28.6399
v  -8.6817 10.0000 27.8014
v  -8.8388 6.6667 28.2051
v  -8.6817 0.0000 27.8014
v  -8.7602 3.3333 28.0032
v  -8.3519 10.0000 27.2889
v  -8.5718 6.6667 27.6305
v  -8.3519 0.0000 27.2889
v  -8.4618 3.3333 27.4597
v  -7.9279 10.0000 26.8697
v  -8.2106 6.6667 27.1492
v  -7.9279 0.0000 26.8697
v  -8.0692 3.3333 27.0094
v  -7.4097 10.0000 26.5435
v  -7.7552 6.6667 26.7610
v  -7.4097 0.0000 26.5435
v  -7.5824 3.3333 26.6523
v  -6.7972 10.0000 26.3106
v  -7.2055 6.6667 26.4659
v  -6.7972 0.0000 26.3106
v  -7.0013 3.3333 26.3883
v  -6.0905 10.0000 26.1709
v  -6.5616 6.6667 26.2640
v  -6.0905 0.0000 26.1709
v  -6.3261 3.3333 26.2175
v  -5.2896 10.0000 26.1243
v  -5.8235 6.6667 26.1553
v  -5.2896 0.0000 26.1243
v  -5.5565 3.3333 26.1398
v  -5.0099 6.6667 26.1398
v  -4.7303 3.3333 26.1553
v  -8.2838 0.0000 36.6228
v  -8.0029 0.0000 36.7421
v  -7.7091 0.0000 36.8465
v  -7.4024 0.0000 36.9359
v  -7.0827 0.0000 37.0104
v  -6.7502 0.0000 37.0701
v  -6.4047 0.0000 37.1148
v  -6.0463 0.0000 37.1446
v  -5.7102 0.0000 35.4959
v  -5.4080 0.0000 37.1758
v  -4.9747 0.0000 35.4996
v  -4.3406 0.0000 37.1237
v  -3.8494 0.0000 35.3950
v  -2.9665 0.0000 36.9168
v  -2.8604 0.0000 35.1462
v  -1.7663 0.0000 36.5192
v  -2.0076 0.0000 34.7533
v  -0.7398 0.0000 35.9310
v  -1.2911 0.0000 34.2162
v  0.1128 0.0000 35.1521
v  -0.7109 0.0000 33.5350
v  0.7916 0.0000 34.1826
v  -0.2669 0.0000 32.7097
v  1.2966 0.0000 33.0225
v  0.0409 0.0000 31.7402
v  1.6278 0.0000 31.6717
v  0.2124 0.0000 30.6266
v  1.7851 0.0000 30.1302
v  0.2476 0.0000 29.4140
v  0.1818 0.0000 28.9171
v  1.7204 0.0000 28.4281
v  0.0161 0.0000 27.9491
v  1.5016 0.0000 27.2225
v  1.2285 0.0000 26.3442
v  -0.4545 0.0000 26.6981
v  0.7036 0.0000 25.4206
v  -0.9567 0.0000 26.0425
v  0.0093 0.0000 24.6535
v  -0.6735 0.0000 24.1516
v  -1.9685 0.0000 25.2921
v  -1.6739 0.0000 23.6665
v  -2.8071 0.0000 24.9490
v  -2.8437 0.0000 23.3379
v  -3.7799 0.0000 24.7306
v  -4.1830 0.0000 23.1659
v  -4.8867 0.0000 24.6372
v  -5.4333 0.0000 24.6372
v  -6.0674 0.0000 23.2108
v  -6.6932 0.0000 24.7755
v  -7.1329 0.0000 24.8998
v  -7.9428 0.0000 23.6401
v  -8.1881 0.0000 25.3149
v  -9.3929 0.0000 24.3589
v  -9.1013 0.0000 25.9447
v  -9.3525 0.0000 26.2553
v  -10.7632 0.0000 25.5846
v  -10.0609 0.0000 27.1618
v  -10.1866 0.0000 27.5966
v  -11.8496 0.0000 27.2397
v  -10.6902 0.0000 28.7799
v  -12.6677 0.0000 29.0289
v  -13.3118 0.0000 30.8593
v  -13.7976 0.0000 32.9947
v  -14.1251 0.0000 35.4352
v  -19.1094 0.0000 53.4361
v  -15.7608 0.0000 52.7787
v  -15.6019 0.0000 51.4780
v  -15.4255 0.0000 50.2062
v  -15.2314 0.0000 48.9630
v  -15.0198 0.0000 47.7486
v  -14.7906 0.0000 46.5630
v  -14.5437 0.0000 45.4060
v  -14.2793 0.0000 44.2778
v  -13.9972 0.0000 43.1784
v  -12.6866 0.0000 41.2578
v  -11.7569 0.0000 39.8309
v  -12.1966 0.0000 39.7007
v  -12.5735 0.0000 39.5054
v  -12.8876 0.0000 39.2451
v  -13.1389 0.0000 38.9196
v  -13.3274 0.0000 38.5290
v  -13.4530 0.0000 38.0734
v  -13.5158 0.0000 37.5526
v  -17.9644 0.0000 44.2687
v  -17.9930 0.0000 43.5027
v  -18.0500 0.0000 42.7467
v  -16.1675 0.0000 39.5514
v  -20.7074 0.0000 45.4176
v  -20.8215 0.0000 44.6814
v  -20.9642 0.0000 43.9552
v  -21.1353 0.0000 43.2389
v  -21.3351 0.0000 42.5325
v  -21.5633 0.0000 41.8361
v  -19.4505 0.0000 40.0740
v  -22.2002 0.0000 39.8697
v  -20.1405 0.0000 37.7280
v  -22.9732 0.0000 37.4447
v  -20.7466 0.0000 35.4734
v  -23.6481 0.0000 35.1412
v  -21.2688 0.0000 33.3101
v  -24.2250 0.0000 32.9591
v  -21.7071 0.0000 31.2380
v  -24.7037 0.0000 30.8984
v  -22.0614 0.0000 29.2573
v  -25.0844 0.0000 28.9592
v  -25.3089 0.0000 27.7646
v  -22.4254 0.0000 26.7959
v  -25.5167 0.0000 26.0478
v  -22.5746 0.0000 25.0483
v  -25.6264 0.0000 24.4525
v  -25.6261 0.0000 23.4308
v  -22.6208 0.0000 22.8413
v  -22.6246 0.0000 21.9917
v  -25.5540 0.0000 21.4927
v  -22.5366 0.0000 20.9222
v  -25.3787 0.0000 20.1652
v  -22.3795 0.0000 19.8705
v  -25.1120 0.0000 18.8660
v  -22.1533 0.0000 18.8366
v  -24.7537 0.0000 17.5950
v  -21.8581 0.0000 17.8206
v  -24.3040 0.0000 16.3522
v  -21.4938 0.0000 16.8224
v  -21.3073 0.0000 16.3155
v  -23.6617 0.0000 14.8854
v  -20.8429 0.0000 15.3401
v  -23.0134 0.0000 13.7016
v  -20.3094 0.0000 14.3826
v  -22.2737 0.0000 12.5459
v  -19.7118 0.0000 13.4553
v  -21.4602 0.0000 11.4490
v  -19.0728 0.0000 12.6012
v  -18.7704 0.0000 12.2185
v  -20.4497 0.0000 10.2818
v  -18.0965 0.0000 11.5228
v  -19.5577 0.0000 9.4449
v  -17.3991 0.0000 10.9307
v  -18.6356 0.0000 8.7335
v  -16.6781 0.0000 10.4424
v  -17.6835 0.0000 8.1474
v  -16.8781 0.0000 7.7551
v  -15.5249 0.0000 9.8861
v  -15.8717 0.0000 7.3926
v  -14.7447 0.0000 9.6542
v  -14.8353 0.0000 7.1554
v  -13.9410 0.0000 9.5260
v  -13.7688 0.0000 7.0437
v  -10.7300 0.0000 8.4681
v  -8.1364 0.0000 12.1711
v  -3.0951 0.0000 12.1711
v  -0.2531 0.0000 10.9826
v  0.0051 0.0000 8.5139
v  3.7382 0.0000 7.1385
v  4.1922 0.0000 9.7904
v  5.9756 0.0000 7.5701
v  5.7077 0.0000 10.3775
v  7.9305 0.0000 8.3876
v  7.0151 0.0000 11.2950
v  9.6029 0.0000 9.5909
v  10.7926 0.0000 10.7677
v  8.6500 0.0000 13.2048
v  11.9447 0.0000 12.6511
v  9.4225 0.0000 14.9300
v  12.8143 0.0000 14.9202
v  9.9870 0.0000 16.9856
v  13.4015 0.0000 17.5752
v  10.3435 0.0000 19.3716
v  13.7062 0.0000 20.6161
v  10.4920 0.0000 22.0878
v  10.5143 0.0000 33.2166
v  13.7879 0.0000 43.5666
v  13.7879 10.0000 43.5666
v  -19.1094 10.0000 53.4361
v  -15.7608 10.0000 52.7787
v  -15.6019 10.0000 51.4780
v  -15.4255 10.0000 50.2062
v  -15.2314 10.0000 48.9630
v  -15.0198 10.0000 47.7486
v  -14.7906 10.0000 46.5630
v  -14.5437 10.0000 45.4060
v  -14.2793 10.0000 44.2778
v  -13.9972 10.0000 43.1784
v  -12.6866 10.0000 41.2578
v  -11.7569 10.0000 39.8309
v  -12.1966 10.0000 39.7007
v  -12.5735 10.0000 39.5054
v  -12.8876 10.0000 39.2451
v  -13.1389 10.0000 38.9196
v  -13.3274 10.0000 38.5290
v  -13.4530 10.0000 38.0734
v  -13.5158 10.0000 37.5526
v  -17.9644 10.0000 44.2687
v  -17.9930 10.0000 43.5027
v  -18.0500 10.0000 42.7467
v  -8.2838 10.0000 36.6228
v  -8.0029 10.0000 36.7421
v  -7.7091 10.0000 36.8465
v  -7.4024 10.0000 36.9359
v  -7.0827 10.0000 37.0104
v  -6.7502 10.0000 37.0701
v  -6.4047 10.0000 37.1148
v  -6.0463 10.0000 37.1446
v  -5.7102 10.0000 35.4959
v  -5.4080 10.0000 37.1758
v  -4.9747 10.0000 35.4996
v  -4.3406 10.0000 37.1237
v  -3.8494 10.0000 35.3950
v  -2.9665 10.0000 36.9168
v  -2.8604 10.0000 35.1462
v  -1.7663 10.0000 36.5192
v  -2.0076 10.0000 34.7533
v  -0.7398 10.0000 35.9310
v  -1.2911 10.0000 34.2162
v  0.1128 10.0000 35.1521
v  -0.7109 10.0000 33.5350
v  0.7916 10.0000 34.1826
v  -0.2669 10.0000 32.7097
v  1.2966 10.0000 33.0225
v  0.0409 10.0000 31.7402
v  1.6278 10.0000 31.6717
v  0.2124 10.0000 30.6266
v  1.7851 10.0000 30.1302
v  0.2476 10.0000 29.4140
v  0.1818 10.0000 28.9171
v  1.7204 10.0000 28.4281
v  0.0161 10.0000 27.9491
v  1.5016 10.0000 27.2225
v  1.2285 10.0000 26.3442
v  -0.4545 10.0000 26.6981
v  0.7036 10.0000 25.4206
v  -0.9567 10.0000 26.0425
v  0.0093 10.0000 24.6535
v  -0.6735 10.0000 24.1516
v  -1.9685 10.0000 25.2921
v  -1.6739 10.0000 23.6665
v  -2.8071 10.0000 24.9490
v  -2.8437 10.0000 23.3379
v  -3.7799 10.0000 24.7306
v  -4.1830 10.0000 23.1659
v  -4.8867 10.0000 24.6372
v  -5.4333 10.0000 24.6372
v  -6.0674 10.0000 23.2108
v  -6.6932 10.0000 24.7755
v  -7.1329 10.0000 24.8998
v  -7.9428 10.0000 23.6401
v  -8.1881 10.0000 25.3149
v  -9.3929 10.0000 24.3589
v  -9.1013 10.0000 25.9447
v  -9.3525 10.0000 26.2553
v  -10.7632 10.0000 25.5846
v  -10.0609 10.0000 27.1618
v  -10.1866 10.0000 27.5966
v  -11.8496 10.0000 27.2397
v  -10.6902 10.0000 28.7799
v  -12.6677 10.0000 29.0290
v  -13.3118 10.0000 30.8593
v  -13.7976 10.0000 32.9947
v  -14.1251 10.0000 35.4352
v  -16.1675 10.0000 39.5514
v  -20.7074 10.0000 45.4176
v  -20.8215 10.0000 44.6814
v  -20.9642 10.0000 43.9552
v  -21.1353 10.0000 43.2389
v  -21.3351 10.0000 42.5325
v  -21.5633 10.0000 41.8361
v  -19.4505 10.0000 40.0740
v  -22.2002 10.0000 39.8697
v  -20.1405 10.0000 37.7280
v  -22.9732 10.0000 37.4447
v  -20.7466 10.0000 35.4734
v  -23.6481 10.0000 35.1412
v  -21.2688 10.0000 33.3101
v  -24.2250 10.0000 32.9591
v  -21.7071 10.0000 31.2380
v  -24.7037 10.0000 30.8984
v  -22.0614 10.0000 29.2573
v  -25.0844 10.0000 28.9592
v  -25.3089 10.0000 27.7646
v  -22.4254 10.0000 26.7959
v  -25.5167 10.0000 26.0478
v  -22.5746 10.0000 25.0483
v  -25.6264 10.0000 24.4525
v  -25.6261 10.0000 23.4308
v  -22.6208 10.0000 22.8413
v  -22.6246 10.0000 21.9917
v  -25.5540 10.0000 21.4927
v  -22.5366 10.0000 20.9222
v  -25.3787 10.0000 20.1652
v  -22.3795 10.0000 19.8705
v  -25.1120 10.0000 18.8660
v  -22.1533 10.0000 18.8366
v  -24.7537 10.0000 17.5950
v  -21.8581 10.0000 17.8206
v  -24.3040 10.0000 16.3522
v  -21.4938 10.0000 16.8224
v  -21.3073 10.0000 16.3155
v  -23.6617 10.0000 14.8854
v  -20.8429 10.0000 15.3401
v  -23.0134 10.0000 13.7016
v  -20.3094 10.0000 14.3826
v  -22.2737 10.0000 12.5459
v  -19.7118 10.0000 13.4553
v  -21.4602 10.0000 11.4490
v  -19.0728 10.0000 12.6012
v  -18.7704 10.0000 12.2185
v  -20.4497 10.0000 10.2818
v  -18.0965 10.0000 11.5228
v  -19.5577 10.0000 9.4449
v  -17.3991 10.0000 10.9307
v  -18.6356 10.0000 8.7335
v  -16.6781 10.0000 10.4424
v  -17.6835 10.0000 8.1474
v  -16.8781 10.0000 7.7551
v  -15.5249 10.0000 9.8861
v  -15.8717 10.0000 7.3926
v  -14.7447 10.0000 9.6542
v  -14.8353 10.0000 7.1554
v  -13.9410 10.0000 9.5260
v  -13.7688 10.0000 7.0437
v  -10.7300 10.0000 8.4681
v  -8.1364 10.0000 12.1711
v  -3.0951 10.0000 12.1711
v  -0.2531 10.0000 10.9826
v  0.0051 10.0000 8.5139
v  3.7382 10.0000 7.1385
v  4.1922 10.0000 9.7904
v  5.9756 10.0000 7.5701
v  5.7077 10.0000 10.3775
v  7.9305 10.0000 8.3876
v  7.0151 10.0000 11.2950
v  9.6029 10.0000 9.5909
v  10.7926 10.0000 10.7677
v  8.6500 10.0000 13.2048
v  11.9447 10.0000 12.6511
v  9.4225 10.0000 14.9300
v  12.8143 10.0000 14.9202
v  9.9870 10.0000 16.9856
v  13.4015 10.0000 17.5752
v  10.3435 10.0000 19.3716
v  13.7062 10.0000 20.6161
v  10.4920 10.0000 22.0878
v  10.5143 10.0000 33.2166
# 1026 vertices

vn -0.3402 0.7398 0.5805
vn -0.1703 0.7387 0.6522
vn -0.3806 -0.0000 0.9247
vn -0.1703 -0.7387 0.6522
vn -0.3402 -0.7398 0.5805
vn -0.3806 0.0000 0.9247
vn -0.4827 0.7362 0.4744
vn -0.6207 -0.0000 0.7841
vn -0.4827 -0.7362 0.4744
vn -0.6207 0.0000 0.7841
vn -0.5816 0.7303 0.3584
vn -0.7948 -0.0000 0.6069
vn -0.5816 -0.7303 0.3584
vn -0.7948 0.0000 0.6069
vn -0.6410 0.7247 0.2531
vn -0.8995 -0.0000 0.4370
vn -0.6410 -0.7247 0.2531
vn -0.6734 0.7203 0.1664
vn -0.9554 0.0000 0.2954
vn -0.6734 -0.7203 0.1664
vn -0.6900 0.7171 0.0978
vn -0.9830 0.0000 0.1837
vn -0.6900 -0.7171 0.0978
vn -0.9830 -0.0000 0.1837
vn -0.6979 0.7149 0.0438
vn -0.9953 -0.0000 0.0967
vn -0.6979 -0.7149 0.0438
vn -0.9953 0.0000 0.0967
vn -0.7038 0.7103 0.0101
vn -0.9996 -0.0000 0.0286
vn -0.7038 -0.7103 0.0101
vn -0.9996 0.0000 0.0286
vn -0.5774 0.5774 0.5774
vn -1.0000 0.0000 -0.0000
vn -0.5774 -0.5774 0.5774
vn 0.5774 0.5774 0.5774
vn 0.0000 0.0000 1.0000
vn 0.5774 -0.5774 0.5774
vn 0.7122 0.7018 -0.0169
vn 1.0000 0.0000 -0.0000
vn 0.7122 -0.7018 -0.0169
vn 0.7155 0.6946 -0.0746
vn 0.9989 -0.0000 -0.0475
vn 0.7155 -0.6946 -0.0746
vn 0.9989 0.0000 -0.0475
vn 0.7031 0.6916 -0.1653
vn 0.9872 -0.0000 -0.1597
vn 0.7031 -0.6916 -0.1653
vn 0.9872 0.0000 -0.1597
vn 0.6716 0.6881 -0.2748
vn 0.9549 -0.0000 -0.2970
vn 0.6716 -0.6881 -0.2748
vn 0.9549 0.0000 -0.2970
vn 0.6105 0.6848 -0.3979
vn 0.8892 -0.0000 -0.4576
vn 0.6105 -0.6848 -0.3979
vn 0.5132 0.6828 -0.5201
vn 0.7775 -0.0000 -0.6288
vn 0.5132 -0.6828 -0.5201
vn 0.7775 0.0000 -0.6288
vn 0.3851 0.6829 -0.6207
vn 0.6184 0.0000 -0.7859
vn 0.3851 -0.6829 -0.6207
vn 0.6184 -0.0000 -0.7859
vn 0.2451 0.6852 -0.6859
vn 0.4295 0.0000 -0.9031
vn 0.2451 -0.6852 -0.6859
vn 0.4295 -0.0000 -0.9031
vn 0.1138 0.6885 -0.7163
vn 0.2401 0.0000 -0.9708
vn 0.1138 -0.6885 -0.7163
vn -0.1572 0.6497 -0.7438
vn 0.0725 0.0000 -0.9974
vn -0.1572 -0.6497 -0.7438
vn 0.0725 -0.0000 -0.9974
vn 0.0056 0.8323 -0.5544
vn -0.4699 0.0000 -0.8827
vn 0.0056 -0.8323 -0.5544
vn -0.4699 -0.0000 -0.8827
vn 0.1713 0.6495 -0.7408
vn 0.4877 0.0000 -0.8730
vn 0.1713 -0.6495 -0.7408
vn 0.4877 -0.0000 -0.8730
vn -0.0801 0.6946 -0.7149
vn -0.0550 -0.0000 -0.9985
vn -0.0801 -0.6946 -0.7149
vn -0.1611 0.6944 -0.7013
vn -0.1675 -0.0000 -0.9859
vn -0.1611 -0.6944 -0.7013
vn -0.1675 0.0000 -0.9859
vn -0.2403 0.6945 -0.6782
vn -0.2796 -0.0000 -0.9601
vn -0.2403 -0.6945 -0.6782
vn -0.2796 0.0000 -0.9601
vn -0.3145 0.6949 -0.6467
vn -0.3872 0.0000 -0.9220
vn -0.3145 -0.6949 -0.6467
vn -0.3872 -0.0000 -0.9220
vn -0.3815 0.6956 -0.6088
vn -0.4862 -0.0000 -0.8738
vn -0.3815 -0.6956 -0.6088
vn -0.4862 0.0000 -0.8738
vn -0.4400 0.6964 -0.5669
vn -0.5744 0.0000 -0.8186
vn -0.4400 -0.6964 -0.5669
vn -0.5744 -0.0000 -0.8186
vn -0.4896 0.6974 -0.5234
vn -0.6504 -0.0000 -0.7596
vn -0.4896 -0.6974 -0.5234
vn -0.6504 0.0000 -0.7596
vn -0.5309 0.6983 -0.4801
vn -0.7145 0.0000 -0.6996
vn -0.5309 -0.6983 -0.4801
vn -0.5647 0.6992 -0.4384
vn -0.7677 -0.0000 -0.6408
vn -0.5647 -0.6992 -0.4384
vn -0.7677 0.0000 -0.6408
vn -0.5943 0.6992 -0.3973
vn -0.8111 -0.0000 -0.5848
vn -0.5943 -0.6992 -0.3973
vn -0.8111 0.0000 -0.5848
vn -0.6216 0.6990 -0.3536
vn -0.8505 0.0000 -0.5260
vn -0.6216 -0.6990 -0.3536
vn -0.6462 0.6988 -0.3067
vn -0.8867 -0.0000 -0.4623
vn -0.6462 -0.6988 -0.3067
vn -0.8867 0.0000 -0.4623
vn -0.6676 0.6987 -0.2572
vn -0.9188 -0.0000 -0.3946
vn -0.6676 -0.6987 -0.2572
vn -0.9188 0.0000 -0.3946
vn -0.6852 0.6987 -0.2059
vn -0.9461 -0.0000 -0.3239
vn -0.6852 -0.6987 -0.2059
vn -0.9461 0.0000 -0.3239
vn -0.6987 0.6988 -0.1536
vn -0.9679 -0.0000 -0.2513
vn -0.6987 -0.6988 -0.1536
vn -0.9679 0.0000 -0.2513
vn -0.7080 0.6989 -0.1014
vn -0.9840 -0.0000 -0.1780
vn -0.7080 -0.6989 -0.1014
vn -0.7132 0.6992 -0.0500
vn -0.9944 -0.0000 -0.1053
vn -0.7132 -0.6992 -0.0500
vn -0.9944 0.0000 -0.1053
vn -0.7153 0.6989 0.0019
vn -0.9994 -0.0000 -0.0345
vn -0.7153 -0.6989 0.0019
vn -0.9994 0.0000 -0.0345
vn -0.7126 0.6996 0.0524
vn -0.9992 -0.0000 0.0397
vn -0.7126 -0.6996 0.0524
vn -0.9992 0.0000 0.0397
vn -0.7067 0.7010 0.0957
vn -0.9943 -0.0000 0.1070
vn -0.7067 -0.7010 0.0957
vn -0.9943 0.0000 0.1070
vn -0.7000 0.7021 0.1308
vn -0.9869 -0.0000 0.1614
vn -0.7000 -0.7021 0.1308
vn -0.9869 0.0000 0.1614
vn -0.6932 0.7029 0.1595
vn -0.9786 -0.0000 0.2058
vn -0.6932 -0.7029 0.1595
vn -0.9786 0.0000 0.2058
vn -0.6866 0.7035 0.1834
vn -0.9701 -0.0000 0.2427
vn -0.6866 -0.7035 0.1834
vn -0.6804 0.7040 0.2036
vn -0.9619 -0.0000 0.2735
vn -0.6804 -0.7040 0.2036
vn -0.9619 0.0000 0.2735
vn -0.6746 0.7045 0.2207
vn -0.9540 -0.0000 0.2997
vn -0.6746 -0.7045 0.2207
vn -0.9540 0.0000 0.2997
vn -0.6692 0.7048 0.2354
vn -0.9467 -0.0000 0.3221
vn -0.6692 -0.7048 0.2354
vn -0.9467 0.0000 0.3221
vn -0.6647 0.7084 0.2373
vn -0.9399 -0.0000 0.3415
vn -0.6647 -0.7084 0.2373
vn -0.9399 0.0000 0.3415
vn -0.6675 0.7118 0.2188
vn -0.9436 -0.0000 0.3310
vn -0.6675 -0.7118 0.2188
vn -0.9436 0.0000 0.3310
vn -0.6759 0.7118 0.1911
vn -0.9565 -0.0000 0.2918
vn -0.6759 -0.7118 0.1911
vn -0.9565 0.0000 0.2918
vn -0.6832 0.7117 0.1633
vn -0.9677 -0.0000 0.2523
vn -0.6832 -0.7117 0.1633
vn -0.9677 0.0000 0.2523
vn -0.6893 0.7117 0.1354
vn -0.9771 -0.0000 0.2126
vn -0.6893 -0.7117 0.1354
vn -0.9771 0.0000 0.2126
vn -0.6943 0.7116 0.1077
vn -0.9849 -0.0000 0.1729
vn -0.6943 -0.7116 0.1077
vn -0.9849 0.0000 0.1729
vn -0.6980 0.7116 0.0801
vn -0.9910 -0.0000 0.1335
vn -0.6980 -0.7116 0.0801
vn -0.7007 0.7115 0.0530
vn -0.9955 -0.0000 0.0945
vn -0.7007 -0.7115 0.0530
vn -0.7023 0.7114 0.0262
vn -0.9984 -0.0000 0.0562
vn -0.7023 -0.7114 0.0262
vn -0.9984 0.0000 0.0562
vn -0.7050 0.7092 0.0065
vn -0.9998 -0.0000 0.0185
vn -0.7050 -0.7092 0.0065
vn -0.9998 0.0000 0.0185
vn 0.5407 0.5836 0.6059
vn 0.5407 -0.5836 0.6059
vn 0.7001 0.7089 0.0856
vn 0.9936 0.0000 0.1134
vn 0.7001 -0.7089 0.0856
vn 0.9936 -0.0000 0.1134
vn 0.6985 0.7090 0.0970
vn 0.9916 0.0000 0.1292
vn 0.6985 -0.7090 0.0970
vn 0.6967 0.7091 0.1088
vn 0.9893 -0.0000 0.1457
vn 0.6967 -0.7091 0.1088
vn 0.9893 0.0000 0.1457
vn 0.6946 0.7091 0.1211
vn 0.9866 -0.0000 0.1629
vn 0.6946 -0.7091 0.1211
vn 0.6921 0.7092 0.1339
vn 0.9835 0.0000 0.1807
vn 0.6921 -0.7092 0.1339
vn 0.6894 0.7093 0.1472
vn 0.9800 -0.0000 0.1992
vn 0.6894 -0.7093 0.1472
vn 0.9800 0.0000 0.1992
vn 0.6862 0.7094 0.1609
vn 0.9759 -0.0000 0.2183
vn 0.6862 -0.7094 0.1609
vn 0.9759 0.0000 0.2183
vn 0.6826 0.7095 0.1752
vn 0.9712 0.0000 0.2383
vn 0.6826 -0.7095 0.1752
vn 0.9712 -0.0000 0.2383
vn 0.3489 -0.5689 0.7447
vn 0.9659 -0.0000 0.2589
vn 0.3489 0.5689 0.7447
vn 0.9659 0.0000 0.2589
vn -0.2792 0.7003 0.6570
vn -0.4192 0.0000 0.9079
vn -0.2792 -0.7003 0.6570
vn -0.4192 -0.0000 0.9079
vn -0.2391 0.7005 0.6724
vn -0.3626 -0.0000 0.9319
vn -0.2391 -0.7005 0.6724
vn -0.3626 0.0000 0.9319
vn -0.1999 0.7008 0.6847
vn -0.3071 -0.0000 0.9517
vn -0.1999 -0.7008 0.6847
vn -0.3071 0.0000 0.9517
vn -0.1622 0.7012 0.6943
vn -0.2533 0.0000 0.9674
vn -0.1622 -0.7012 0.6943
vn -0.1260 0.7015 0.7014
vn -0.2015 0.0000 0.9795
vn -0.1260 -0.7015 0.7014
vn -0.0917 0.7018 0.7064
vn -0.1521 -0.0000 0.9884
vn -0.0917 -0.7018 0.7064
vn -0.1521 0.0000 0.9884
vn -0.0593 0.7022 0.7096
vn -0.1053 0.0000 0.9944
vn -0.0593 -0.7022 0.7096
vn -0.0288 0.7025 0.7111
vn -0.0612 -0.0000 0.9981
vn -0.0288 -0.7025 0.7111
vn -0.0612 0.0000 0.9981
vn 0.0165 0.6976 0.7163
vn -0.0197 -0.0000 0.9998
vn 0.0165 -0.6976 0.7163
vn -0.0197 0.0000 0.9998
vn 0.1034 0.6901 0.7163
vn 0.0659 -0.0000 0.9978
vn 0.1034 -0.6901 0.7163
vn 0.0659 0.0000 0.9978
vn 0.2246 0.6867 0.6914
vn 0.2189 -0.0000 0.9757
vn 0.2246 -0.6867 0.6914
vn 0.2189 0.0000 0.9757
vn 0.3585 0.6840 0.6353
vn 0.3962 -0.0000 0.9182
vn 0.3585 -0.6840 0.6353
vn 0.3962 0.0000 0.9182
vn 0.4879 0.6829 0.5436
vn 0.5811 -0.0000 0.8139
vn 0.4879 -0.6829 0.5436
vn 0.5811 0.0000 0.8139
vn 0.5928 0.6840 0.4250
vn 0.7465 -0.0000 0.6654
vn 0.5928 -0.6840 0.4250
vn 0.7465 0.0000 0.6654
vn 0.6627 0.6868 0.2984
vn 0.8698 -0.0000 0.4934
vn 0.6627 -0.6868 0.2984
vn 0.8698 0.0000 0.4934
vn 0.7005 0.6902 0.1814
vn 0.9460 -0.0000 0.3243
vn 0.7005 -0.6902 0.1814
vn 0.9460 0.0000 0.3243
vn 0.7158 0.6934 0.0822
vn 0.9845 -0.0000 0.1755
vn 0.7158 -0.6934 0.0822
vn 0.9845 0.0000 0.1755
vn 0.7197 0.6943 -0.0042
vn 0.9986 -0.0000 0.0524
vn 0.7197 -0.6943 -0.0042
vn 0.7163 0.6906 -0.1003
vn 0.9980 -0.0000 -0.0639
vn 0.7163 -0.6906 -0.1003
vn 0.9980 0.0000 -0.0639
vn 0.6929 0.6872 -0.2184
vn 0.9771 -0.0000 -0.2127
vn 0.6929 -0.6872 -0.2184
vn 0.9771 0.0000 -0.2127
vn 0.6395 0.6843 -0.3503
vn 0.9224 0.0000 -0.3862
vn 0.6395 -0.6843 -0.3503
vn 0.9224 -0.0000 -0.3862
vn 0.5507 0.6830 -0.4798
vn 0.8221 0.0000 -0.5694
vn 0.5507 -0.6830 -0.4798
vn 0.4334 0.6838 -0.5869
vn 0.6766 0.0000 -0.7364
vn 0.4334 -0.6838 -0.5869
vn 0.6766 -0.0000 -0.7364
vn 0.3060 0.6864 -0.6597
vn 0.5047 0.0000 -0.8633
vn 0.3060 -0.6864 -0.6597
vn 0.5047 -0.0000 -0.8633
vn 0.1866 0.6898 -0.6996
vn 0.3332 0.0000 -0.9429
vn 0.1866 -0.6898 -0.6996
vn 0.3332 -0.0000 -0.9429
vn 0.0848 0.6930 -0.7159
vn 0.1807 -0.0000 -0.9835
vn 0.0848 -0.6930 -0.7159
vn -0.0168 0.6902 -0.7235
vn 0.0540 0.0000 -0.9985
vn -0.0168 -0.6902 -0.7235
vn 0.0540 -0.0000 -0.9985
vn -0.1544 0.6827 -0.7142
vn -0.1002 0.0000 -0.9950
vn -0.1544 -0.6827 -0.7142
vn -0.1002 -0.0000 -0.9950
vn -0.3159 0.6810 -0.6606
vn -0.3196 0.0000 -0.9475
vn -0.3159 -0.6810 -0.6606
vn -0.3196 -0.0000 -0.9475
vn -0.4614 0.6820 -0.5674
vn -0.5370 0.0000 -0.8436
vn -0.4614 -0.6820 -0.5674
vn -0.5370 -0.0000 -0.8436
vn -0.5702 0.6852 -0.4532
vn -0.7164 0.0000 -0.6977
vn -0.5702 -0.6852 -0.4532
vn -0.7164 -0.0000 -0.6977
vn -0.6397 0.6891 -0.3403
vn -0.8414 -0.0000 -0.5404
vn -0.6397 -0.6891 -0.3403
vn -0.8414 0.0000 -0.5404
vn -0.6793 0.6928 -0.2420
vn -0.9183 -0.0000 -0.3959
vn -0.6793 -0.6928 -0.2420
vn -0.6998 0.6958 -0.1614
vn -0.9617 0.0000 -0.2740
vn -0.6998 -0.6958 -0.1614
vn -0.9617 -0.0000 -0.2740
vn -0.7094 0.6982 -0.0968
vn -0.9846 -0.0000 -0.1750
vn -0.7094 -0.6982 -0.0968
vn -0.9846 0.0000 -0.1750
vn -0.0076 0.9957 -0.0927
vn -0.9954 0.0000 -0.0953
vn -0.0076 -0.9957 -0.0927
vn -0.9954 -0.0000 -0.0953
vn 0.6830 0.7097 -0.1726
vn 0.9666 -0.0000 -0.2562
vn 0.6830 -0.7097 -0.1726
vn 0.9666 0.0000 -0.2562
vn 0.6868 0.7099 -0.1562
vn 0.9723 0.0000 -0.2338
vn 0.6868 -0.7099 -0.1562
vn 0.9723 -0.0000 -0.2338
vn 0.6903 0.7101 -0.1385
vn 0.9778 0.0000 -0.2097
vn 0.6903 -0.7101 -0.1385
vn 0.9778 -0.0000 -0.2097
vn 0.6937 0.7103 -0.1194
vn 0.9830 -0.0000 -0.1837
vn 0.6937 -0.7103 -0.1194
vn 0.6967 0.7106 -0.0989
vn 0.9878 0.0000 -0.1557
vn 0.6967 -0.7106 -0.0989
vn 0.6992 0.7108 -0.0768
vn 0.9921 -0.0000 -0.1254
vn 0.6992 -0.7108 -0.0768
vn 0.7011 0.7111 -0.0530
vn 0.9957 0.0000 -0.0929
vn 0.7011 -0.7111 -0.0530
vn 0.9957 -0.0000 -0.0929
vn 0.7023 0.7114 -0.0273
vn 0.9983 0.0000 -0.0578
vn 0.7023 -0.7114 -0.0273
vn 0.9983 -0.0000 -0.0578
vn 0.7015 0.7127 0.0032
vn 0.9998 0.0000 -0.0200
vn 0.7015 -0.7127 0.0032
vn 0.9998 -0.0000 -0.0200
vn 0.6992 0.7138 0.0409
vn 0.9996 0.0000 0.0291
vn 0.6992 -0.7138 0.0409
vn 0.9996 -0.0000 0.0291
vn 0.6955 0.7138 0.0821
vn 0.9961 0.0000 0.0877
vn 0.6955 -0.7138 0.0821
vn 0.9961 -0.0000 0.0877
vn 0.6894 0.7138 0.1232
vn 0.9892 0.0000 0.1466
vn 0.6894 -0.7138 0.1232
vn 0.6809 0.7138 0.1637
vn 0.9788 0.0000 0.2050
vn 0.6809 -0.7138 0.1637
vn 0.9788 -0.0000 0.2050
vn 0.6702 0.7137 0.2034
vn 0.9650 0.0000 0.2624
vn 0.6702 -0.7137 0.2034
vn 0.9650 -0.0000 0.2624
vn 0.6575 0.7136 0.2418
vn 0.9480 0.0000 0.3182
vn 0.6575 -0.7136 0.2418
vn 0.9480 -0.0000 0.3182
vn 0.6430 0.7134 0.2786
vn 0.9283 0.0000 0.3718
vn 0.6430 -0.7134 0.2786
vn 0.9283 -0.0000 0.3718
vn 0.6269 0.7132 0.3135
vn 0.9062 0.0000 0.4229
vn 0.6269 -0.7132 0.3135
vn 0.9062 -0.0000 0.4229
vn 0.6074 0.7139 0.3484
vn 0.8820 -0.0000 0.4712
vn 0.6074 -0.7139 0.3484
vn 0.5808 0.7157 0.3878
vn 0.8521 0.0000 0.5234
vn 0.5808 -0.7157 0.3878
vn 0.8521 -0.0000 0.5234
vn 0.5461 0.7171 0.4331
vn 0.8100 0.0000 0.5864
vn 0.5461 -0.7171 0.4331
vn 0.8100 -0.0000 0.5864
vn 0.5016 0.7187 0.4816
vn 0.7555 0.0000 0.6552
vn 0.5016 -0.7187 0.4816
vn 0.7555 -0.0000 0.6552
vn 0.4453 0.7204 0.5318
vn 0.6853 -0.0000 0.7283
vn 0.4453 -0.7204 0.5318
vn 0.3760 0.7220 0.5808
vn 0.5966 0.0000 0.8025
vn 0.3760 -0.7220 0.5808
vn 0.5966 -0.0000 0.8025
vn 0.2937 0.7233 0.6250
vn 0.4880 -0.0000 0.8729
vn 0.2937 -0.7233 0.6250
vn 0.4880 0.0000 0.8729
vn 0.2004 0.7241 0.6599
vn 0.3605 -0.0000 0.9328
vn 0.2004 -0.7241 0.6599
vn 0.3605 0.0000 0.9328
vn 0.1008 0.7242 0.6822
vn 0.2192 -0.0000 0.9757
vn 0.1008 -0.7242 0.6822
vn -0.1187 0.7697 0.6273
vn 0.0724 -0.0000 0.9974
vn -0.1187 -0.7697 0.6273
vn 0.0724 0.0000 0.9974
vn 0.0070 0.6202 0.7844
vn -0.4319 -0.0000 0.9019
vn 0.0070 -0.6202 0.7844
vn -0.4319 0.0000 0.9019
vn 0.1075 0.7781 0.6189
vn 0.4479 0.0000 0.8941
vn 0.1075 -0.7781 0.6189
vn -0.1202 -0.0000 0.9928
vn -0.1202 0.0000 0.9928
vn -0.1818 0.7257 0.6635
vn -0.0835 0.7222 0.6867
vn -0.1855 0.0000 0.9826
vn -0.0835 -0.7222 0.6867
vn -0.1818 -0.7257 0.6635
vn -0.2942 0.7294 0.6176
vn -0.3413 -0.0000 0.9400
vn -0.2942 -0.7294 0.6176
vn -0.3413 0.0000 0.9400
vn -0.4116 0.7322 0.5428
vn -0.5149 -0.0000 0.8572
vn -0.4116 -0.7322 0.5428
vn -0.5149 0.0000 0.8572
vn -0.5188 0.7328 0.4403
vn -0.6865 -0.0000 0.7272
vn -0.5188 -0.7328 0.4403
vn -0.6865 0.0000 0.7272
vn -0.6020 0.7310 0.3211
vn -0.8292 -0.0000 0.5590
vn -0.6020 -0.7310 0.3211
vn -0.8292 0.0000 0.5590
vn -0.6557 0.7277 0.2013
vn -0.9261 -0.0000 0.3773
vn -0.6557 -0.7277 0.2013
vn -0.9261 0.0000 0.3773
vn -0.6835 0.7240 0.0932
vn -0.9783 0.0000 0.2073
vn -0.6835 -0.7240 0.0932
vn -0.6929 0.7210 0.0010
vn -0.9981 -0.0000 0.0622
vn -0.6929 -0.7210 0.0010
vn -0.9981 0.0000 0.0622
vn -0.6849 0.7232 -0.0891
vn -0.9982 0.0000 -0.0594
vn -0.6849 -0.7232 -0.0891
vn -0.9982 -0.0000 -0.0594
vn -0.6590 0.7269 -0.1932
vn -0.9802 0.0000 -0.1982
vn -0.6590 -0.7269 -0.1932
vn -0.9802 -0.0000 -0.1982
vn -0.6086 0.7304 -0.3101
vn -0.9320 0.0000 -0.3624
vn -0.6086 -0.7304 -0.3101
vn -0.9320 -0.0000 -0.3624
vn -0.5288 0.7326 -0.4286
vn -0.8410 0.0000 -0.5410
vn -0.5288 -0.7326 -0.4286
vn -0.4233 0.7325 -0.5332
vn -0.7033 0.0000 -0.7109
vn -0.4233 -0.7325 -0.5332
vn -0.7033 -0.0000 -0.7109
vn -0.3050 0.7301 -0.6115
vn -0.5328 -0.0000 -0.8463
vn -0.3050 -0.7301 -0.6115
vn -0.5328 0.0000 -0.8463
vn -0.1895 0.7265 -0.6605
vn -0.3556 0.0000 -0.9346
vn -0.1895 -0.7265 -0.6605
vn -0.3556 -0.0000 -0.9346
vn -0.0873 0.7229 -0.6854
vn -0.1941 -0.0000 -0.9810
vn -0.0873 -0.7229 -0.6854
vn -0.1941 0.0000 -0.9810
vn 0.0010 0.7207 -0.6932
vn -0.0581 -0.0000 -0.9983
vn 0.0010 -0.7207 -0.6932
vn -0.0581 0.0000 -0.9983
vn 0.0913 0.7236 -0.6842
vn 0.0608 0.0000 -0.9981
vn 0.0913 -0.7236 -0.6842
vn 0.0608 -0.0000 -0.9981
vn 0.1974 0.7273 -0.6573
vn 0.2029 0.0000 -0.9792
vn 0.1974 -0.7273 -0.6573
vn 0.2029 -0.0000 -0.9792
vn 0.3159 0.7307 -0.6052
vn 0.3702 0.0000 -0.9289
vn 0.3159 -0.7307 -0.6052
vn 0.3702 -0.0000 -0.9289
vn 0.4348 0.7327 -0.5235
vn 0.5505 0.0000 -0.8348
vn 0.4348 -0.7327 -0.5235
vn 0.5505 -0.0000 -0.8348
vn 0.5383 0.7323 -0.4171
vn 0.7196 0.0000 -0.6944
vn 0.5383 -0.7323 -0.4171
vn 0.7196 -0.0000 -0.6944
vn 0.6148 0.7297 -0.2993
vn 0.8522 0.0000 -0.5233
vn 0.6148 -0.7297 -0.2993
vn 0.8522 -0.0000 -0.5233
vn 0.6621 0.7261 -0.1854
vn 0.9375 0.0000 -0.3480
vn 0.6621 -0.7261 -0.1854
vn 0.9375 -0.0000 -0.3480
vn 0.6861 0.7225 -0.0853
vn 0.9819 0.0000 -0.1895
vn 0.6861 -0.7225 -0.0853
vn 0.9819 -0.0000 -0.1895
vn 0.6936 0.7204 0.0009
vn 0.9984 0.0000 -0.0567
vn 0.6936 -0.7204 0.0009
vn 0.9984 -0.0000 -0.0567
vn 0.6848 0.7232 0.0892
vn 0.9982 0.0000 0.0594
vn 0.6848 -0.7232 0.0892
vn 0.9982 -0.0000 0.0594
vn 0.6590 0.7269 0.1933
vn 0.9802 0.0000 0.1983
vn 0.6590 -0.7269 0.1933
vn 0.9802 -0.0000 0.1983
vn 0.6085 0.7304 0.3102
vn 0.9320 -0.0000 0.3625
vn 0.6085 -0.7304 0.3102
vn 0.9320 0.0000 0.3625
vn 0.5287 0.7326 0.4288
vn 0.8409 -0.0000 0.5412
vn 0.5287 -0.7326 0.4288
vn 0.4232 0.7324 0.5334
vn 0.7031 -0.0000 0.7111
vn 0.4232 -0.7324 0.5334
vn 0.7031 0.0000 0.7111
vn 0.3049 0.7301 0.6116
vn 0.5326 -0.0000 0.8464
vn 0.3049 -0.7301 0.6116
vn 0.5326 0.0000 0.8464
vn 0.1895 0.7265 0.6605
vn 0.3555 -0.0000 0.9347
vn 0.1895 -0.7265 0.6605
vn 0.3555 0.0000 0.9347
vn 0.0873 0.7229 0.6855
vn 0.1940 -0.0000 0.9810
vn 0.0873 -0.7229 0.6855
vn 0.1940 0.0000 0.9810
vn 0.0009 0.7201 0.6939
vn 0.0581 0.0000 0.9983
vn 0.0009 -0.7201 0.6939
vn 0.0581 -0.0000 0.9983
vn -0.0554 -0.0000 0.9985
vn -0.0554 0.0000 0.9985
vn 0.0000 -1.0000 -0.0000
vn 0.0000 1.0000 -0.0000
# 644 vertex normals

o Object005
g Object005
s 1
f 1//1 2//2 3//3 
f 4//4 5//5 6//6 
s 3
f 7//7 1//1 8//8 
f 5//5 9//9 10//10 
s 2
f 11//11 7//7 12//12 
f 9//9 13//13 14//14 
f 15//15 11//11 16//16 
f 13//13 17//17 18//16 
f 19//18 15//15 20//19 
f 17//17 21//20 22//19 
f 23//21 19//18 24//22 
f 21//20 25//23 26//24 
f 27//25 23//21 28//26 
f 25//23 29//27 30//28 
f 31//29 27//25 32//30 
f 29//27 33//31 34//32 
s 4
f 35//33 31//29 36//34 
f 33//31 37//35 38//34 
s 2
f 39//36 35//33 40//37 
f 37//35 41//38 42//37 
s 4
f 43//39 39//36 44//40 
f 41//38 45//41 46//40 
s 2
f 47//42 43//39 48//43 
f 45//41 49//44 50//45 
f 51//46 47//42 52//47 
f 49//44 53//48 54//49 
f 55//50 51//46 56//51 
f 53//48 57//52 58//53 
f 59//54 55//50 60//55 
f 57//52 61//56 62//55 
f 63//57 59//54 64//58 
f 61//56 65//59 66//60 
f 67//61 63//57 68//62 
f 65//59 69//63 70//64 
f 71//65 67//61 72//66 
f 69//63 73//67 74//68 
f 75//69 71//65 76//70 
f 73//67 77//71 78//70 
f 79//72 75//69 80//73 
f 77//71 81//74 82//75 
s 4
f 83//76 79//72 84//77 
f 81//74 85//78 86//79 
s 2
f 87//80 83//76 88//81 
f 85//78 89//82 90//83 
s 4
f 91//84 87//80 92//85 
f 89//82 93//86 94//85 
f 95//87 91//84 96//88 
f 93//86 97//89 98//90 
f 99//91 95//87 100//92 
f 97//89 101//93 102//94 
f 103//95 99//91 104//96 
f 101//93 105//97 106//98 
f 107//99 103//95 108//100 
f 105//97 109//101 110//102 
f 111//103 107//99 112//104 
f 109//101 113//105 114//106 
f 115//107 111//103 116//108 
f 113//105 117//109 118//110 
f 119//111 115//107 120//112 
f 117//109 121//113 122//112 
f 123//114 119//111 124//115 
f 121//113 125//116 126//117 
f 127//118 123//114 128//119 
f 125//116 129//120 130//121 
f 131//122 127//118 132//123 
f 129//120 133//124 134//123 
f 135//125 131//122 136//126 
f 133//124 137//127 138//128 
f 139//129 135//125 140//130 
f 137//127 141//131 142//132 
f 143//133 139//129 144//134 
f 141//131 145//135 146//136 
f 147//137 143//133 148//138 
f 145//135 149//139 150//140 
f 151//141 147//137 152//142 
f 149//139 153//143 154//142 
f 155//144 151//141 156//145 
f 153//143 157//146 158//147 
f 159//148 155//144 160//149 
f 157//146 161//150 162//151 
f 163//152 159//148 164//153 
f 161//150 165//154 166//155 
f 167//156 163//152 168//157 
f 165//154 169//158 170//159 
f 171//160 167//156 172//161 
f 169//158 173//162 174//163 
f 175//164 171//160 176//165 
f 173//162 177//166 178//167 
f 179//168 175//164 180//169 
f 177//166 181//170 182//169 
f 183//171 179//168 184//172 
f 181//170 185//173 186//174 
f 187//175 183//171 188//176 
f 185//173 189//177 190//178 
f 191//179 187//175 192//180 
f 189//177 193//181 194//182 
f 195//183 191//179 196//184 
f 193//181 197//185 198//186 
f 199//187 195//183 200//188 
f 197//185 201//189 202//190 
f 203//191 199//187 204//192 
f 201//189 205//193 206//194 
f 207//195 203//191 208//196 
f 205//193 209//197 210//198 
f 211//199 207//195 212//200 
f 209//197 213//201 214//202 
f 215//203 211//199 216//204 
f 213//201 217//205 218//206 
f 219//207 215//203 220//208 
f 217//205 221//209 222//208 
f 223//210 219//207 224//211 
f 221//209 225//212 226//211 
f 227//213 223//210 228//214 
f 225//212 229//215 230//216 
f 231//217 227//213 232//218 
f 229//215 233//219 234//220 
s 2
f 235//33 231//217 236//34 
f 233//219 237//35 238//34 
s 4
f 239//221 235//33 240//37 
f 237//35 241//222 242//37 
s 2
f 243//223 239//221 244//224 
f 241//222 245//225 246//226 
f 247//227 243//223 248//228 
f 245//225 249//229 250//228 
f 251//230 247//227 252//231 
f 249//229 253//232 254//233 
f 255//234 251//230 256//235 
f 253//232 257//236 258//235 
f 259//237 255//234 260//238 
f 257//236 261//239 262//238 
f 263//240 259//237 264//241 
f 261//239 265//242 266//243 
f 267//244 263//240 268//245 
f 265//242 269//246 270//247 
f 271//248 267//244 272//249 
f 269//246 273//250 274//251 
f 275//252 271//248 276//253 
f 273//250 277//254 278//255 
s 4
f 279//256 275//252 280//257 
f 277//254 281//258 282//259 
f 283//260 279//256 284//261 
f 281//258 285//262 286//263 
f 287//264 283//260 288//265 
f 285//262 289//266 290//267 
f 291//268 287//264 292//269 
f 289//266 293//270 294//269 
f 295//271 291//268 296//272 
f 293//270 297//273 298//272 
f 299//274 295//271 300//275 
f 297//273 301//276 302//277 
f 303//278 299//274 304//279 
f 301//276 305//280 306//279 
f 307//281 303//278 308//282 
f 305//280 309//283 310//284 
f 311//285 307//281 312//286 
f 309//283 313//287 314//288 
f 315//289 311//285 316//290 
f 313//287 317//291 318//292 
f 319//293 315//289 320//294 
f 317//291 321//295 322//296 
f 323//297 319//293 324//298 
f 321//295 325//299 326//300 
f 327//301 323//297 328//302 
f 325//299 329//303 330//304 
f 331//305 327//301 332//306 
f 329//303 333//307 334//308 
f 335//309 331//305 336//310 
f 333//307 337//311 338//312 
f 339//313 335//309 340//314 
f 337//311 341//315 342//316 
f 343//317 339//313 344//318 
f 341//315 345//319 346//320 
f 347//321 343//317 348//322 
f 345//319 349//323 350//322 
f 351//324 347//321 352//325 
f 349//323 353//326 354//327 
f 355//328 351//324 356//329 
f 353//326 357//330 358//331 
f 359//332 355//328 360//333 
f 357//330 361//334 362//335 
f 363//336 359//332 364//337 
f 361//334 365//338 366//337 
f 367//339 363//336 368//340 
f 365//338 369//341 370//342 
f 371//343 367//339 372//344 
f 369//341 373//345 374//346 
f 375//347 371//343 376//348 
f 373//345 377//349 378//350 
f 379//351 375//347 380//352 
f 377//349 381//353 382//352 
f 383//354 379//351 384//355 
f 381//353 385//356 386//357 
f 387//358 383//354 388//359 
f 385//356 389//360 390//361 
f 391//362 387//358 392//363 
f 389//360 393//364 394//365 
f 395//366 391//362 396//367 
f 393//364 397//368 398//369 
f 399//370 395//366 400//371 
f 397//368 401//372 402//373 
f 403//374 399//370 404//375 
f 401//372 405//376 406//377 
f 407//378 403//374 408//379 
f 405//376 409//380 410//379 
f 411//381 407//378 412//382 
f 409//380 413//383 414//384 
f 415//385 411//381 416//386 
f 413//383 417//387 418//388 
f 419//389 415//385 420//390 
f 417//387 421//391 422//392 
s 2
f 423//393 419//389 424//394 
f 421//391 425//395 426//396 
f 427//397 423//393 428//398 
f 425//395 429//399 430//400 
f 431//401 427//397 432//402 
f 429//399 433//403 434//404 
f 435//405 431//401 436//406 
f 433//403 437//407 438//406 
f 439//408 435//405 440//409 
f 437//407 441//410 442//409 
f 443//411 439//408 444//412 
f 441//410 445//413 446//412 
f 447//414 443//411 448//415 
f 445//413 449//416 450//417 
f 451//418 447//414 452//419 
f 449//416 453//420 454//421 
f 455//422 451//418 456//423 
f 453//420 457//424 458//425 
f 459//426 455//422 460//427 
f 457//424 461//428 462//429 
f 463//430 459//426 464//431 
f 461//428 465//432 466//433 
f 467//434 463//430 468//435 
f 465//432 469//436 470//435 
f 471//437 467//434 472//438 
f 469//436 473//439 474//440 
f 475//441 471//437 476//442 
f 473//439 477//443 478//444 
f 479//445 475//441 480//446 
f 477//443 481//447 482//448 
f 483//449 479//445 484//450 
f 481//447 485//451 486//452 
f 487//453 483//449 488//454 
f 485//451 489//455 490//456 
f 491//457 487//453 492//458 
f 489//455 493//459 494//458 
f 495//460 491//457 496//461 
f 493//459 497//462 498//463 
f 499//464 495//460 500//465 
f 497//462 501//466 502//467 
f 503//468 499//464 504//469 
f 501//466 505//470 506//471 
f 507//472 503//468 508//473 
f 505//470 509//474 510//473 
f 511//475 507//472 512//476 
f 509//474 513//477 514//478 
f 515//479 511//475 516//480 
f 513//477 517//481 518//482 
f 519//483 515//479 520//484 
f 517//481 521//485 522//486 
f 523//487 519//483 524//488 
f 521//485 525//489 526//488 
f 527//490 523//487 528//491 
f 525//489 529//492 530//493 
s 4
f 531//494 527//490 532//495 
f 529//492 533//496 534//497 
s 2
f 535//498 531//494 536//499 
f 533//496 537//500 538//499 
s 5
f 2//2 535//498 539//501 
f 537//500 4//4 540//502 
s 1
f 541//503 542//504 543//505 
f 544//506 545//507 546//505 
s 3
f 547//508 541//503 548//509 
f 545//507 549//510 550//511 
s 2
f 551//512 547//508 552//513 
f 549//510 553//514 554//515 
f 555//516 551//512 556//517 
f 553//514 557//518 558//519 
f 559//520 555//516 560//521 
f 557//518 561//522 562//523 
f 563//524 559//520 564//525 
f 561//522 565//526 566//527 
f 567//528 563//524 568//529 
f 565//526 569//530 570//529 
f 571//531 567//528 572//532 
f 569//530 573//533 574//534 
f 575//535 571//531 576//536 
f 573//533 577//537 578//538 
f 579//539 575//535 580//540 
f 577//537 581//541 582//542 
f 583//543 579//539 584//544 
f 581//541 585//545 586//546 
f 587//547 583//543 588//548 
f 585//545 589//549 590//548 
f 591//550 587//547 592//551 
f 589//549 593//552 594//553 
f 595//554 591//550 596//555 
f 593//552 597//556 598//557 
f 599//558 595//554 600//559 
f 597//556 601//560 602//561 
f 603//562 599//558 604//563 
f 601//560 605//564 606//565 
f 607//566 603//562 608//567 
f 605//564 609//568 610//569 
f 611//570 607//566 612//571 
f 609//568 613//572 614//573 
f 615//574 611//570 616//575 
f 613//572 617//576 618//577 
f 619//578 615//574 620//579 
f 617//576 621//580 622//581 
f 623//582 619//578 624//583 
f 621//580 625//584 626//585 
f 627//586 623//582 628//587 
f 625//584 629//588 630//589 
f 631//590 627//586 632//591 
f 629//588 633//592 634//593 
f 635//594 631//590 636//595 
f 633//592 637//596 638//597 
f 639//598 635//594 640//599 
f 637//596 641//600 642//601 
f 643//602 639//598 644//603 
f 641//600 645//604 646//605 
f 647//606 643//602 648//607 
f 645//604 649//608 650//609 
f 651//610 647//606 652//611 
f 649//608 653//612 654//613 
f 655//614 651//610 656//615 
f 653//612 657//616 658//617 
f 659//618 655//614 660//619 
f 657//616 661//620 662//619 
f 663//621 659//618 664//622 
f 661//620 665//623 666//624 
f 667//625 663//621 668//626 
f 665//623 669//627 670//628 
f 671//629 667//625 672//630 
f 669//627 673//631 674//632 
f 675//633 671//629 676//634 
f 673//631 677//635 678//636 
f 679//637 675//633 680//638 
f 677//635 681//639 682//640 
s 3
f 542//504 679//637 683//641 
f 681//639 544//506 684//642 
s 16
f 281//258 277//254 685//643 
f 285//262 281//258 686//643 
f 289//266 285//262 687//643 
f 293//270 289//266 688//643 
f 297//273 293//270 689//643 
f 301//276 297//273 690//643 
f 305//280 301//276 691//643 
f 309//283 305//280 692//643 
f 309//283 692//643 613//572 693//643 
f 313//287 309//283 694//643 
f 313//287 694//643 609//568 695//643 
f 317//291 313//287 696//643 
f 317//291 696//643 605//564 697//643 
f 321//295 317//291 698//643 
f 321//295 698//643 601//560 699//643 
f 325//299 321//295 700//643 
f 325//299 700//643 597//556 701//643 
f 329//303 325//299 702//643 
f 329//303 702//643 593//552 703//643 
f 333//307 329//303 704//643 
f 333//307 704//643 589//549 705//643 
f 337//311 333//307 706//643 
f 337//311 706//643 585//545 707//643 
f 341//315 337//311 708//643 
f 341//315 708//643 581//541 709//643 
f 345//319 341//315 710//643 
f 345//319 710//643 577//537 711//643 
f 349//323 345//319 712//643 
f 349//323 712//643 573//533 713//643 
f 349//323 713//643 569//530 714//643 
f 353//326 349//323 715//643 
f 353//326 715//643 565//526 716//643 
f 357//330 353//326 717//643 
f 361//334 357//330 718//643 
f 361//334 718//643 561//522 719//643 
f 365//338 361//334 720//643 
f 365//338 720//643 557//518 721//643 
f 369//341 365//338 722//643 
f 373//345 369//341 723//643 
f 373//345 723//643 553//514 724//643 
f 377//349 373//345 725//643 
f 377//349 725//643 549//510 726//643 
f 381//353 377//349 727//643 
f 381//353 727//643 545//507 728//643 
f 385//356 381//353 729//643 
f 385//356 729//643 544//506 730//643 
f 385//356 730//643 681//639 731//643 
f 389//360 385//356 732//643 
f 389//360 732//643 677//635 733//643 
f 389//360 733//643 673//631 734//643 
f 393//364 389//360 735//643 
f 393//364 735//643 669//627 736//643 
f 397//368 393//364 737//643 
f 397//368 737//643 665//623 738//643 
f 397//368 738//643 661//620 739//643 
f 401//372 397//368 740//643 
f 401//372 740//643 657//616 741//643 
f 401//372 741//643 653//612 742//643 
f 405//376 401//372 743//643 
f 405//376 743//643 649//608 744//643 
f 409//380 405//376 745//643 
f 413//383 409//380 746//643 
f 417//387 413//383 747//643 
f 421//391 417//387 748//643 
f 241//222 237//35 749//643 
f 245//225 241//222 750//643 
f 249//229 245//225 751//643 
f 253//232 249//229 752//643 
f 257//236 253//232 753//643 
f 261//239 257//236 754//643 
f 265//242 261//239 755//643 
f 269//246 265//242 756//643 
f 273//250 269//246 757//643 
f 277//254 273//250 758//643 
f 613//572 685//643 277//254 759//643 
f 617//576 613//572 760//643 
f 621//580 617//576 761//643 
f 625//584 621//580 762//643 
f 629//588 625//584 763//643 
f 633//592 629//588 764//643 
f 637//596 633//592 765//643 
f 641//600 637//596 766//643 
f 645//604 641//600 767//643 
f 645//604 767//643 233//219 768//643 
f 645//604 768//643 229//215 769//643 
f 645//604 769//643 225//212 770//643 
f 421//391 748//643 645//604 771//643 
f 421//391 771//643 221//209 772//643 
f 421//391 772//643 217//205 773//643 
f 421//391 773//643 213//201 774//643 
f 421//391 774//643 209//197 775//643 
f 421//391 775//643 205//193 776//643 
f 421//391 776//643 201//189 777//643 
f 425//395 421//391 778//643 
f 425//395 778//643 197//185 779//643 
f 429//399 425//395 780//643 
f 429//399 780//643 193//181 781//643 
f 433//403 429//399 782//643 
f 433//403 782//643 189//177 783//643 
f 437//407 433//403 784//643 
f 437//407 784//643 185//173 785//643 
f 441//410 437//407 786//643 
f 441//410 786//643 181//170 787//643 
f 445//413 441//410 788//643 
f 445//413 788//643 177//166 789//643 
f 445//413 789//643 173//162 790//643 
f 449//416 445//413 791//643 
f 449//416 791//643 169//158 792//643 
f 453//420 449//416 793//643 
f 453//420 793//643 165//154 794//643 
f 453//420 794//643 161//150 795//643 
f 457//424 453//420 796//643 
f 461//428 457//424 797//643 
f 461//428 797//643 157//146 798//643 
f 465//432 461//428 799//643 
f 465//432 799//643 153//143 800//643 
f 469//436 465//432 801//643 
f 469//436 801//643 149//139 802//643 
f 473//439 469//436 803//643 
f 473//439 803//643 145//135 804//643 
f 477//443 473//439 805//643 
f 477//443 805//643 141//131 806//643 
f 481//447 477//443 807//643 
f 485//451 481//447 808//643 
f 485//451 808//643 137//127 809//643 
f 489//455 485//451 810//643 
f 489//455 810//643 133//124 811//643 
f 493//459 489//455 812//643 
f 493//459 812//643 129//120 813//643 
f 497//462 493//459 814//643 
f 497//462 814//643 125//116 815//643 
f 501//466 497//462 816//643 
f 505//470 501//466 817//643 
f 505//470 817//643 121//113 818//643 
f 509//474 505//470 819//643 
f 509//474 819//643 117//109 820//643 
f 513//477 509//474 821//643 
f 513//477 821//643 113//105 822//643 
f 517//481 513//477 823//643 
f 517//481 823//643 109//101 824//643 
f 517//481 824//643 105//97 825//643 
f 521//485 517//481 826//643 
f 521//485 826//643 101//93 827//643 
f 525//489 521//485 828//643 
f 525//489 828//643 97//89 829//643 
f 529//492 525//489 830//643 
f 529//492 830//643 93//86 831//643 
f 529//492 831//643 89//82 832//643 
f 533//496 529//492 833//643 
f 537//500 533//496 834//643 
f 4//4 537//500 835//643 
f 4//4 835//643 85//78 836//643 
f 4//4 836//643 81//74 837//643 
f 5//5 4//4 838//643 
f 5//5 838//643 77//71 839//643 
f 9//9 5//5 840//643 
f 9//9 840//643 73//67 841//643 
f 13//13 9//9 842//643 
f 13//13 842//643 69//63 843//643 
f 13//13 843//643 65//59 844//643 
f 17//17 13//13 845//643 
f 17//17 845//643 61//56 846//643 
f 21//20 17//17 847//643 
f 21//20 847//643 57//52 848//643 
f 25//23 21//20 849//643 
f 25//23 849//643 53//48 850//643 
f 29//27 25//23 851//643 
f 29//27 851//643 49//44 852//643 
f 33//31 29//27 853//643 
f 37//35 33//31 854//643 
f 37//35 854//643 45//41 855//643 
f 35//33 39//36 856//644 
f 231//217 235//33 857//644 
f 231//217 857//644 239//221 858//644 
f 231//217 858//644 243//223 859//644 
f 231//217 859//644 247//227 860//644 
f 231//217 860//644 251//230 861//644 
f 231//217 861//644 255//234 862//644 
f 231//217 862//644 259//237 863//644 
f 231//217 863//644 263//240 864//644 
f 231//217 864//644 267//244 865//644 
f 231//217 865//644 271//248 866//644 
f 231//217 866//644 275//252 867//644 
f 231//217 867//644 611//570 868//644 
f 231//217 868//644 615//574 869//644 
f 231//217 869//644 619//578 870//644 
f 231//217 870//644 623//582 871//644 
f 231//217 871//644 627//586 872//644 
f 231//217 872//644 631//590 873//644 
f 231//217 873//644 635//594 874//644 
f 231//217 874//644 639//598 875//644 
f 227//213 231//217 876//644 
f 223//210 227//213 877//644 
f 219//207 223//210 878//644 
f 611//570 867//644 275//252 879//644 
f 611//570 879//644 279//256 880//644 
f 611//570 880//644 283//260 881//644 
f 611//570 881//644 287//264 882//644 
f 611//570 882//644 291//268 883//644 
f 611//570 883//644 295//271 884//644 
f 611//570 884//644 299//274 885//644 
f 611//570 885//644 303//278 886//644 
f 607//566 611//570 887//644 
f 607//566 887//644 307//281 888//644 
f 603//562 607//566 889//644 
f 603//562 889//644 311//285 890//644 
f 599//558 603//562 891//644 
f 599//558 891//644 315//289 892//644 
f 595//554 599//558 893//644 
f 595//554 893//644 319//293 894//644 
f 591//550 595//554 895//644 
f 591//550 895//644 323//297 896//644 
f 587//547 591//550 897//644 
f 587//547 897//644 327//301 898//644 
f 583//543 587//547 899//644 
f 583//543 899//644 331//305 900//644 
f 579//539 583//543 901//644 
f 579//539 901//644 335//309 902//644 
f 575//535 579//539 903//644 
f 575//535 903//644 339//313 904//644 
f 571//531 575//535 905//644 
f 571//531 905//644 343//317 906//644 
f 567//528 571//531 907//644 
f 563//524 567//528 908//644 
f 563//524 908//644 347//321 909//644 
f 559//520 563//524 910//644 
f 559//520 910//644 351//324 911//644 
f 559//520 911//644 355//328 912//644 
f 555//516 559//520 913//644 
f 555//516 913//644 359//332 914//644 
f 551//512 555//516 915//644 
f 551//512 915//644 363//336 916//644 
f 551//512 916//644 367//339 917//644 
f 547//508 551//512 918//644 
f 547//508 918//644 371//343 919//644 
f 541//503 547//508 920//644 
f 541//503 920//644 375//347 921//644 
f 542//504 541//503 922//644 
f 542//504 922//644 379//351 923//644 
f 679//637 542//504 924//644 
f 675//633 679//637 925//644 
f 675//633 925//644 383//354 926//644 
f 671//629 675//633 927//644 
f 667//625 671//629 928//644 
f 667//625 928//644 387//358 929//644 
f 663//621 667//625 930//644 
f 663//621 930//644 391//362 931//644 
f 659//618 663//621 932//644 
f 655//614 659//618 933//644 
f 655//614 933//644 395//366 934//644 
f 651//610 655//614 935//644 
f 647//606 651//610 936//644 
f 647//606 936//644 399//370 937//644 
f 643//602 647//606 938//644 
f 643//602 938//644 403//374 939//644 
f 643//602 939//644 407//378 940//644 
f 643//602 940//644 411//381 941//644 
f 643//602 941//644 415//385 942//644 
f 219//207 878//644 643//602 943//644 
f 215//203 219//207 944//644 
f 211//199 215//203 945//644 
f 207//195 211//199 946//644 
f 203//191 207//195 947//644 
f 199//187 203//191 948//644 
f 195//183 199//187 949//644 
f 195//183 949//644 419//389 950//644 
f 191//179 195//183 951//644 
f 191//179 951//644 423//393 952//644 
f 187//175 191//179 953//644 
f 187//175 953//644 427//397 954//644 
f 183//171 187//175 955//644 
f 183//171 955//644 431//401 956//644 
f 179//168 183//171 957//644 
f 179//168 957//644 435//405 958//644 
f 175//164 179//168 959//644 
f 175//164 959//644 439//408 960//644 
f 171//160 175//164 961//644 
f 167//156 171//160 962//644 
f 167//156 962//644 443//411 963//644 
f 163//152 167//156 964//644 
f 163//152 964//644 447//414 965//644 
f 159//148 163//152 966//644 
f 155//144 159//148 967//644 
f 155//144 967//644 451//418 968//644 
f 155//144 968//644 455//422 969//644 
f 151//141 155//144 970//644 
f 151//141 970//644 459//426 971//644 
f 147//137 151//141 972//644 
f 147//137 972//644 463//430 973//644 
f 143//133 147//137 974//644 
f 143//133 974//644 467//434 975//644 
f 139//129 143//133 976//644 
f 139//129 976//644 471//437 977//644 
f 135//125 139//129 978//644 
f 135//125 978//644 475//441 979//644 
f 135//125 979//644 479//445 980//644 
f 131//122 135//125 981//644 
f 131//122 981//644 483//449 982//644 
f 127//118 131//122 983//644 
f 127//118 983//644 487//453 984//644 
f 123//114 127//118 985//644 
f 123//114 985//644 491//457 986//644 
f 119//111 123//114 987//644 
f 119//111 987//644 495//460 988//644 
f 119//111 988//644 499//464 989//644 
f 115//107 119//111 990//644 
f 115//107 990//644 503//468 991//644 
f 111//103 115//107 992//644 
f 111//103 992//644 507//472 993//644 
f 107//99 111//103 994//644 
f 107//99 994//644 511//475 995//644 
f 103//95 107//99 996//644 
f 99//91 103//95 997//644 
f 99//91 997//644 515//479 998//644 
f 95//87 99//91 999//644 
f 95//87 999//644 519//483 1000//644 
f 91//84 95//87 1001//644 
f 91//84 1001//644 523//487 1002//644 
f 87//80 91//84 1003//644 
f 83//76 87//80 1004//644 
f 83//76 1004//644 527//490 1005//644 
f 83//76 1005//644 531//494 1006//644 
f 83//76 1006//644 535//498 1007//644 
f 79//72 83//76 1008//644 
f 75//69 79//72 1009//644 
f 75//69 1009//644 2//2 1010//644 
f 71//65 75//69 1011//644 
f 71//65 1011//644 1//1 1012//644 
f 67//61 71//65 1013//644 
f 67//61 1013//644 7//7 1014//644 
f 63//57 67//61 1015//644 
f 59//54 63//57 1016//644 
f 59//54 1016//644 11//11 1017//644 
f 55//50 59//54 1018//644 
f 55//50 1018//644 15//15 1019//644 
f 51//46 55//50 1020//644 
f 51//46 1020//644 19//18 1021//644 
f 47//42 51//46 1022//644 
f 47//42 1022//644 23//21 1023//644 
f 43//39 47//42 1024//644 
f 43//39 1024//644 27//25 1025//644 
f 35//33 856//644 43//39 1026//644 
s 1
f 3//3 2//2 4//4 
f 1//1 3//3 4//4 6//6 
f 6//6 5//5 1//1 
s 3
f 8//8 1//1 5//5 
f 7//7 8//8 5//5 10//10 
f 10//10 9//9 7//7 
s 2
f 12//12 7//7 9//9 
f 11//11 12//12 9//9 14//14 
f 14//14 13//13 11//11 
f 16//16 11//11 13//13 
f 15//15 16//16 13//13 18//16 
f 18//16 17//17 15//15 
f 20//19 15//15 17//17 
f 19//18 20//19 17//17 22//19 
f 22//19 21//20 19//18 
f 24//22 19//18 21//20 
f 23//21 24//22 21//20 26//24 
f 26//24 25//23 23//21 
f 28//26 23//21 25//23 
f 27//25 28//26 25//23 30//28 
f 30//28 29//27 27//25 
f 32//30 27//25 29//27 
f 31//29 32//30 29//27 34//32 
f 34//32 33//31 31//29 
s 4
f 36//34 31//29 33//31 
f 35//33 36//34 33//31 38//34 
f 38//34 37//35 35//33 
s 2
f 40//37 35//33 37//35 
f 39//36 40//37 37//35 42//37 
f 42//37 41//38 39//36 
s 4
f 44//40 39//36 41//38 
f 43//39 44//40 41//38 46//40 
f 46//40 45//41 43//39 
s 2
f 48//43 43//39 45//41 
f 47//42 48//43 45//41 50//45 
f 50//45 49//44 47//42 
f 52//47 47//42 49//44 
f 51//46 52//47 49//44 54//49 
f 54//49 53//48 51//46 
f 56//51 51//46 53//48 
f 55//50 56//51 53//48 58//53 
f 58//53 57//52 55//50 
f 60//55 55//50 57//52 
f 59//54 60//55 57//52 62//55 
f 62//55 61//56 59//54 
f 64//58 59//54 61//56 
f 63//57 64//58 61//56 66//60 
f 66//60 65//59 63//57 
f 68//62 63//57 65//59 
f 67//61 68//62 65//59 70//64 
f 70//64 69//63 67//61 
f 72//66 67//61 69//63 
f 71//65 72//66 69//63 74//68 
f 74//68 73//67 71//65 
f 76//70 71//65 73//67 
f 75//69 76//70 73//67 78//70 
f 78//70 77//71 75//69 
f 80//73 75//69 77//71 
f 79//72 80//73 77//71 82//75 
f 82//75 81//74 79//72 
s 4
f 84//77 79//72 81//74 
f 83//76 84//77 81//74 86//79 
f 86//79 85//78 83//76 
s 2
f 88//81 83//76 85//78 
f 87//80 88//81 85//78 90//83 
f 90//83 89//82 87//80 
s 4
f 92//85 87//80 89//82 
f 91//84 92//85 89//82 94//85 
f 94//85 93//86 91//84 
f 96//88 91//84 93//86 
f 95//87 96//88 93//86 98//90 
f 98//90 97//89 95//87 
f 100//92 95//87 97//89 
f 99//91 100//92 97//89 102//94 
f 102//94 101//93 99//91 
f 104//96 99//91 101//93 
f 103//95 104//96 101//93 106//98 
f 106//98 105//97 103//95 
f 108//100 103//95 105//97 
f 107//99 108//100 105//97 110//102 
f 110//102 109//101 107//99 
f 112//104 107//99 109//101 
f 111//103 112//104 109//101 114//106 
f 114//106 113//105 111//103 
f 116//108 111//103 113//105 
f 115//107 116//108 113//105 118//110 
f 118//110 117//109 115//107 
f 120//112 115//107 117//109 
f 119//111 120//112 117//109 122//112 
f 122//112 121//113 119//111 
f 124//115 119//111 121//113 
f 123//114 124//115 121//113 126//117 
f 126//117 125//116 123//114 
f 128//119 123//114 125//116 
f 127//118 128//119 125//116 130//121 
f 130//121 129//120 127//118 
f 132//123 127//118 129//120 
f 131//122 132//123 129//120 134//123 
f 134//123 133//124 131//122 
f 136//126 131//122 133//124 
f 135//125 136//126 133//124 138//128 
f 138//128 137//127 135//125 
f 140//130 135//125 137//127 
f 139//129 140//130 137//127 142//132 
f 142//132 141//131 139//129 
f 144//134 139//129 141//131 
f 143//133 144//134 141//131 146//136 
f 146//136 145//135 143//133 
f 148//138 143//133 145//135 
f 147//137 148//138 145//135 150//140 
f 150//140 149//139 147//137 
f 152//142 147//137 149//139 
f 151//141 152//142 149//139 154//142 
f 154//142 153//143 151//141 
f 156//145 151//141 153//143 
f 155//144 156//145 153//143 158//147 
f 158//147 157//146 155//144 
f 160//149 155//144 157//146 
f 159//148 160//149 157//146 162//151 
f 162//151 161//150 159//148 
f 164//153 159//148 161//150 
f 163//152 164//153 161//150 166//155 
f 166//155 165//154 163//152 
f 168//157 163//152 165//154 
f 167//156 168//157 165//154 170//159 
f 170//159 169//158 167//156 
f 172//161 167//156 169//158 
f 171//160 172//161 169//158 174//163 
f 174//163 173//162 171//160 
f 176//165 171//160 173//162 
f 175//164 176//165 173//162 178//167 
f 178//167 177//166 175//164 
f 180//169 175//164 177//166 
f 179//168 180//169 177//166 182//169 
f 182//169 181//170 179//168 
f 184//172 179//168 181//170 
f 183//171 184//172 181//170 186//174 
f 186//174 185//173 183//171 
f 188//176 183//171 185//173 
f 187//175 188//176 185//173 190//178 
f 190//178 189//177 187//175 
f 192//180 187//175 189//177 
f 191//179 192//180 189//177 194//182 
f 194//182 193//181 191//179 
f 196//184 191//179 193//181 
f 195//183 196//184 193//181 198//186 
f 198//186 197//185 195//183 
f 200//188 195//183 197//185 
f 199//187 200//188 197//185 202//190 
f 202//190 201//189 199//187 
f 204//192 199//187 201//189 
f 203//191 204//192 201//189 206//194 
f 206//194 205//193 203//191 
f 208//196 203//191 205//193 
f 207//195 208//196 205//193 210//198 
f 210//198 209//197 207//195 
f 212//200 207//195 209//197 
f 211//199 212//200 209//197 214//202 
f 214//202 213//201 211//199 
f 216//204 211//199 213//201 
f 215//203 216//204 213//201 218//206 
f 218//206 217//205 215//203 
f 220//208 215//203 217//205 
f 219//207 220//208 217//205 222//208 
f 222//208 221//209 219//207 
f 224//211 219//207 221//209 
f 223//210 224//211 221//209 226//211 
f 226//211 225//212 223//210 
f 228//214 223//210 225//212 
f 227//213 228//214 225//212 230//216 
f 230//216 229//215 227//213 
f 232//218 227//213 229//215 
f 231//217 232//218 229//215 234//220 
f 234//220 233//219 231//217 
s 2
f 236//34 231//217 233//219 
f 235//33 236//34 233//219 238//34 
f 238//34 237//35 235//33 
s 4
f 240//37 235//33 237//35 
f 239//221 240//37 237//35 242//37 
f 242//37 241//222 239//221 
s 2
f 244//224 239//221 241//222 
f 243//223 244//224 241//222 246//226 
f 246//226 245//225 243//223 
f 248//228 243//223 245//225 
f 247//227 248//228 245//225 250//228 
f 250//228 249//229 247//227 
f 252//231 247//227 249//229 
f 251//230 252//231 249//229 254//233 
f 254//233 253//232 251//230 
f 256//235 251//230 253//232 
f 255//234 256//235 253//232 258//235 
f 258//235 257//236 255//234 
f 260//238 255//234 257//236 
f 259//237 260//238 257//236 262//238 
f 262//238 261//239 259//237 
f 264//241 259//237 261//239 
f 263//240 264//241 261//239 266//243 
f 266//243 265//242 263//240 
f 268//245 263//240 265//242 
f 267//244 268//245 265//242 270//247 
f 270//247 269//246 267//244 
f 272//249 267//244 269//246 
f 271//248 272//249 269//246 274//251 
f 274//251 273//250 271//248 
f 276//253 271//248 273//250 
f 275//252 276//253 273//250 278//255 
f 278//255 277//254 275//252 
s 4
f 280//257 275//252 277//254 
f 279//256 280//257 277//254 282//259 
f 282//259 281//258 279//256 
f 284//261 279//256 281//258 
f 283//260 284//261 281//258 286//263 
f 286//263 285//262 283//260 
f 288//265 283//260 285//262 
f 287//264 288//265 285//262 290//267 
f 290//267 289//266 287//264 
f 292//269 287//264 289//266 
f 291//268 292//269 289//266 294//269 
f 294//269 293//270 291//268 
f 296//272 291//268 293//270 
f 295//271 296//272 293//270 298//272 
f 298//272 297//273 295//271 
f 300//275 295//271 297//273 
f 299//274 300//275 297//273 302//277 
f 302//277 301//276 299//274 
f 304//279 299//274 301//276 
f 303//278 304//279 301//276 306//279 
f 306//279 305//280 303//278 
f 308//282 303//278 305//280 
f 307//281 308//282 305//280 310//284 
f 310//284 309//283 307//281 
f 312//286 307//281 309//283 
f 311//285 312//286 309//283 314//288 
f 314//288 313//287 311//285 
f 316//290 311//285 313//287 
f 315//289 316//290 313//287 318//292 
f 318//292 317//291 315//289 
f 320//294 315//289 317//291 
f 319//293 320//294 317//291 322//296 
f 322//296 321//295 319//293 
f 324//298 319//293 321//295 
f 323//297 324//298 321//295 326//300 
f 326//300 325//299 323//297 
f 328//302 323//297 325//299 
f 327//301 328//302 325//299 330//304 
f 330//304 329//303 327//301 
f 332//306 327//301 329//303 
f 331//305 332//306 329//303 334//308 
f 334//308 333//307 331//305 
f 336//310 331//305 333//307 
f 335//309 336//310 333//307 338//312 
f 338//312 337//311 335//309 
f 340//314 335//309 337//311 
f 339//313 340//314 337//311 342//316 
f 342//316 341//315 339//313 
f 344//318 339//313 341//315 
f 343//317 344//318 341//315 346//320 
f 346//320 345//319 343//317 
f 348//322 343//317 345//319 
f 347//321 348//322 345//319 350//322 
f 350//322 349//323 347//321 
f 352//325 347//321 349//323 
f 351//324 352//325 349//323 354//327 
f 354//327 353//326 351//324 
f 356//329 351//324 353//326 
f 355//328 356//329 353//326 358//331 
f 358//331 357//330 355//328 
f 360//333 355//328 357//330 
f 359//332 360//333 357//330 362//335 
f 362//335 361//334 359//332 
f 364//337 359//332 361//334 
f 363//336 364//337 361//334 366//337 
f 366//337 365//338 363//336 
f 368//340 363//336 365//338 
f 367//339 368//340 365//338 370//342 
f 370//342 369//341 367//339 
f 372//344 367//339 369//341 
f 371//343 372//344 369//341 374//346 
f 374//346 373//345 371//343 
f 376//348 371//343 373//345 
f 375//347 376//348 373//345 378//350 
f 378//350 377//349 375//347 
f 380//352 375//347 377//349 
f 379//351 380//352 377//349 382//352 
f 382//352 381//353 379//351 
f 384//355 379//351 381//353 
f 383//354 384//355 381//353 386//357 
f 386//357 385//356 383//354 
f 388//359 383//354 385//356 
f 387//358 388//359 385//356 390//361 
f 390//361 389//360 387//358 
f 392//363 387//358 389//360 
f 391//362 392//363 389//360 394//365 
f 394//365 393//364 391//362 
f 396//367 391//362 393//364 
f 395//366 396//367 393//364 398//369 
f 398//369 397//368 395//366 
f 400//371 395//366 397//368 
f 399//370 400//371 397//368 402//373 
f 402//373 401//372 399//370 
f 404//375 399//370 401//372 
f 403//374 404//375 401//372 406//377 
f 406//377 405//376 403//374 
f 408//379 403//374 405//376 
f 407//378 408//379 405//376 410//379 
f 410//379 409//380 407//378 
f 412//382 407//378 409//380 
f 411//381 412//382 409//380 414//384 
f 414//384 413//383 411//381 
f 416//386 411//381 413//383 
f 415//385 416//386 413//383 418//388 
f 418//388 417//387 415//385 
f 420//390 415//385 417//387 
f 419//389 420//390 417//387 422//392 
f 422//392 421//391 419//389 
s 2
f 424//394 419//389 421//391 
f 423//393 424//394 421//391 426//396 
f 426//396 425//395 423//393 
f 428//398 423//393 425//395 
f 427//397 428//398 425//395 430//400 
f 430//400 429//399 427//397 
f 432//402 427//397 429//399 
f 431//401 432//402 429//399 434//404 
f 434//404 433//403 431//401 
f 436//406 431//401 433//403 
f 435//405 436//406 433//403 438//406 
f 438//406 437//407 435//405 
f 440//409 435//405 437//407 
f 439//408 440//409 437//407 442//409 
f 442//409 441//410 439//408 
f 444//412 439//408 441//410 
f 443//411 444//412 441//410 446//412 
f 446//412 445//413 443//411 
f 448//415 443//411 445//413 
f 447//414 448//415 445//413 450//417 
f 450//417 449//416 447//414 
f 452//419 447//414 449//416 
f 451//418 452//419 449//416 454//421 
f 454//421 453//420 451//418 
f 456//423 451//418 453//420 
f 455//422 456//423 453//420 458//425 
f 458//425 457//424 455//422 
f 460//427 455//422 457//424 
f 459//426 460//427 457//424 462//429 
f 462//429 461//428 459//426 
f 464//431 459//426 461//428 
f 463//430 464//431 461//428 466//433 
f 466//433 465//432 463//430 
f 468//435 463//430 465//432 
f 467//434 468//435 465//432 470//435 
f 470//435 469//436 467//434 
f 472//438 467//434 469//436 
f 471//437 472//438 469//436 474//440 
f 474//440 473//439 471//437 
f 476//442 471//437 473//439 
f 475//441 476//442 473//439 478//444 
f 478//444 477//443 475//441 
f 480//446 475//441 477//443 
f 479//445 480//446 477//443 482//448 
f 482//448 481//447 479//445 
f 484//450 479//445 481//447 
f 483//449 484//450 481//447 486//452 
f 486//452 485//451 483//449 
f 488//454 483//449 485//451 
f 487//453 488//454 485//451 490//456 
f 490//456 489//455 487//453 
f 492//458 487//453 489//455 
f 491//457 492//458 489//455 494//458 
f 494//458 493//459 491//457 
f 496//461 491//457 493//459 
f 495//460 496//461 493//459 498//463 
f 498//463 497//462 495//460 
f 500//465 495//460 497//462 
f 499//464 500//465 497//462 502//467 
f 502//467 501//466 499//464 
f 504//469 499//464 501//466 
f 503//468 504//469 501//466 506//471 
f 506//471 505//470 503//468 
f 508//473 503//468 505//470 
f 507//472 508//473 505//470 510//473 
f 510//473 509//474 507//472 
f 512//476 507//472 509//474 
f 511//475 512//476 509//474 514//478 
f 514//478 513//477 511//475 
f 516//480 511//475 513//477 
f 515//479 516//480 513//477 518//482 
f 518//482 517//481 515//479 
f 520//484 515//479 517//481 
f 519//483 520//484 517//481 522//486 
f 522//486 521//485 519//483 
f 524//488 519//483 521//485 
f 523//487 524//488 521//485 526//488 
f 526//488 525//489 523//487 
f 528//491 523//487 525//489 
f 527//490 528//491 525//489 530//493 
f 530//493 529//492 527//490 
s 4
f 532//495 527//490 529//492 
f 531//494 532//495 529//492 534//497 
f 534//497 533//496 531//494 
s 2
f 536//499 531//494 533//496 
f 535//498 536//499 533//496 538//499 
f 538//499 537//500 535//498 
s 5
f 539//501 535//498 537//500 
f 2//2 539//501 537//500 540//502 
f 540//502 4//4 2//2 
s 1
f 543//505 542//504 544//506 
f 541//503 543//505 544//506 546//505 
f 546//505 545//507 541//503 
s 3
f 548//509 541//503 545//507 
f 547//508 548//509 545//507 550//511 
f 550//511 549//510 547//508 
s 2
f 552//513 547//508 549//510 
f 551//512 552//513 549//510 554//515 
f 554//515 553//514 551//512 
f 556//517 551//512 553//514 
f 555//516 556//517 553//514 558//519 
f 558//519 557//518 555//516 
f 560//521 555//516 557//518 
f 559//520 560//521 557//518 562//523 
f 562//523 561//522 559//520 
f 564//525 559//520 561//522 
f 563//524 564//525 561//522 566//527 
f 566//527 565//526 563//524 
f 568//529 563//524 565//526 
f 567//528 568//529 565//526 570//529 
f 570//529 569//530 567//528 
f 572//532 567//528 569//530 
f 571//531 572//532 569//530 574//534 
f 574//534 573//533 571//531 
f 576//536 571//531 573//533 
f 575//535 576//536 573//533 578//538 
f 578//538 577//537 575//535 
f 580//540 575//535 577//537 
f 579//539 580//540 577//537 582//542 
f 582//542 581//541 579//539 
f 584//544 579//539 581//541 
f 583//543 584//544 581//541 586//546 
f 586//546 585//545 583//543 
f 588//548 583//543 585//545 
f 587//547 588//548 585//545 590//548 
f 590//548 589//549 587//547 
f 592//551 587//547 589//549 
f 591//550 592//551 589//549 594//553 
f 594//553 593//552 591//550 
f 596//555 591//550 593//552 
f 595//554 596//555 593//552 598//557 
f 598//557 597//556 595//554 
f 600//559 595//554 597//556 
f 599//558 600//559 597//556 602//561 
f 602//561 601//560 599//558 
f 604//563 599//558 601//560 
f 603//562 604//563 601//560 606//565 
f 606//565 605//564 603//562 
f 608//567 603//562 605//564 
f 607//566 608//567 605//564 610//569 
f 610//569 609//568 607//566 
f 612//571 607//566 609//568 
f 611//570 612//571 609//568 614//573 
f 614//573 613//572 611//570 
f 616//575 611//570 613//572 
f 615//574 616//575 613//572 618//577 
f 618//577 617//576 615//574 
f 620//579 615//574 617//576 
f 619//578 620//579 617//576 622//581 
f 622//581 621//580 619//578 
f 624//583 619//578 621//580 
f 623//582 624//583 621//580 626//585 
f 626//585 625//584 623//582 
f 628//587 623//582 625//584 
f 627//586 628//587 625//584 630//589 
f 630//589 629//588 627//586 
f 632//591 627//586 629//588 
f 631//590 632//591 629//588 634//593 
f 634//593 633//592 631//590 
f 636//595 631//590 633//592 
f 635//594 636//595 633//592 638//597 
f 638//597 637//596 635//594 
f 640//599 635//594 637//596 
f 639//598 640//599 637//596 642//601 
f 642//601 641//600 639//598 
f 644//603 639//598 641//600 
f 643//602 644//603 641//600 646//605 
f 646//605 645//604 643//602 
f 648//607 643//602 645//604 
f 647//606 648//607 645//604 650//609 
f 650//609 649//608 647//606 
f 652//611 647//606 649//608 
f 651//610 652//611 649//608 654//613 
f 654//613 653//612 651//610 
f 656//615 651//610 653//612 
f 655//614 656//615 653//612 658//617 
f 658//617 657//616 655//614 
f 660//619 655//614 657//616 
f 659//618 660//619 657//616 662//619 
f 662//619 661//620 659//618 
f 664//622 659//618 661//620 
f 663//621 664//622 661//620 666//624 
f 666//624 665//623 663//621 
f 668//626 663//621 665//623 
f 667//625 668//626 665//623 670//628 
f 670//628 669//627 667//625 
f 672//630 667//625 669//627 
f 671//629 672//630 669//627 674//632 
f 674//632 673//631 671//629 
f 676//634 671//629 673//631 
f 675//633 676//634 673//631 678//636 
f 678//636 677//635 675//633 
f 680//638 675//633 677//635 
f 679//637 680//638 677//635 682//640 
f 682//640 681//639 679//637 
s 3
f 683//641 679//637 681//639 
f 542//504 683//641 681//639 684//642 
f 684//642 544//506 542//504 
s 16
f 281//258 685//643 613//572 686//643 
f 285//262 686//643 613//572 687//643 
f 289//266 687//643 613//572 688//643 
f 293//270 688//643 613//572 689//643 
f 297//273 689//643 613//572 690//643 
f 301//276 690//643 613//572 691//643 
f 305//280 691//643 613//572 692//643 
f 693//643 613//572 609//568 
f 309//283 693//643 609//568 694//643 
f 695//643 609//568 605//564 
f 313//287 695//643 605//564 696//643 
f 697//643 605//564 601//560 
f 317//291 697//643 601//560 698//643 
f 699//643 601//560 597//556 
f 321//295 699//643 597//556 700//643 
f 701//643 597//556 593//552 
f 325//299 701//643 593//552 702//643 
f 703//643 593//552 589//549 
f 329//303 703//643 589//549 704//643 
f 705//643 589//549 585//545 
f 333//307 705//643 585//545 706//643 
f 707//643 585//545 581//541 
f 337//311 707//643 581//541 708//643 
f 709//643 581//541 577//537 
f 341//315 709//643 577//537 710//643 
f 711//643 577//537 573//533 
f 345//319 711//643 573//533 712//643 
f 713//643 573//533 569//530 
f 714//643 569//530 565//526 
f 349//323 714//643 565//526 715//643 
f 716//643 565//526 561//522 
f 353//326 716//643 561//522 717//643 
f 357//330 717//643 561//522 718//643 
f 719//643 561//522 557//518 
f 361//334 719//643 557//518 720//643 
f 721//643 557//518 553//514 
f 365//338 721//643 553//514 722//643 
f 369//341 722//643 553//514 723//643 
f 724//643 553//514 549//510 
f 373//345 724//643 549//510 725//643 
f 726//643 549//510 545//507 
f 377//349 726//643 545//507 727//643 
f 728//643 545//507 544//506 
f 381//353 728//643 544//506 729//643 
f 730//643 544//506 681//639 
f 731//643 681//639 677//635 
f 385//356 731//643 677//635 732//643 
f 733//643 677//635 673//631 
f 734//643 673//631 669//627 
f 389//360 734//643 669//627 735//643 
f 736//643 669//627 665//623 
f 393//364 736//643 665//623 737//643 
f 738//643 665//623 661//620 
f 739//643 661//620 657//616 
f 397//368 739//643 657//616 740//643 
f 741//643 657//616 653//612 
f 742//643 653//612 649//608 
f 401//372 742//643 649//608 743//643 
f 744//643 649//608 645//604 
f 405//376 744//643 645//604 745//643 
f 409//380 745//643 645//604 746//643 
f 413//383 746//643 645//604 747//643 
f 417//387 747//643 645//604 748//643 
f 749//643 237//35 233//219 
f 241//222 749//643 233//219 750//643 
f 245//225 750//643 233//219 751//643 
f 249//229 751//643 233//219 752//643 
f 253//232 752//643 233//219 753//643 
f 257//236 753//643 233//219 754//643 
f 261//239 754//643 233//219 755//643 
f 265//242 755//643 233//219 756//643 
f 269//246 756//643 233//219 757//643 
f 273//250 757//643 233//219 758//643 
f 277//254 758//643 233//219 759//643 
f 613//572 759//643 233//219 760//643 
f 617//576 760//643 233//219 761//643 
f 621//580 761//643 233//219 762//643 
f 625//584 762//643 233//219 763//643 
f 629//588 763//643 233//219 764//643 
f 633//592 764//643 233//219 765//643 
f 637//596 765//643 233//219 766//643 
f 641//600 766//643 233//219 767//643 
f 768//643 233//219 229//215 
f 769//643 229//215 225//212 
f 770//643 225//212 221//209 
f 645//604 770//643 221//209 771//643 
f 772//643 221//209 217//205 
f 773//643 217//205 213//201 
f 774//643 213//201 209//197 
f 775//643 209//197 205//193 
f 776//643 205//193 201//189 
f 777//643 201//189 197//185 
f 421//391 777//643 197//185 778//643 
f 779//643 197//185 193//181 
f 425//395 779//643 193//181 780//643 
f 781//643 193//181 189//177 
f 429//399 781//643 189//177 782//643 
f 783//643 189//177 185//173 
f 433//403 783//643 185//173 784//643 
f 785//643 185//173 181//170 
f 437//407 785//643 181//170 786//643 
f 787//643 181//170 177//166 
f 441//410 787//643 177//166 788//643 
f 789//643 177//166 173//162 
f 790//643 173//162 169//158 
f 445//413 790//643 169//158 791//643 
f 792//643 169//158 165//154 
f 449//416 792//643 165//154 793//643 
f 794//643 165//154 161//150 
f 795//643 161//150 157//146 
f 453//420 795//643 157//146 796//643 
f 457//424 796//643 157//146 797//643 
f 798//643 157//146 153//143 
f 461//428 798//643 153//143 799//643 
f 800//643 153//143 149//139 
f 465//432 800//643 149//139 801//643 
f 802//643 149//139 145//135 
f 469//436 802//643 145//135 803//643 
f 804//643 145//135 141//131 
f 473//439 804//643 141//131 805//643 
f 806//643 141//131 137//127 
f 477//443 806//643 137//127 807//643 
f 481//447 807//643 137//127 808//643 
f 809//643 137//127 133//124 
f 485//451 809//643 133//124 810//643 
f 811//643 133//124 129//120 
f 489//455 811//643 129//120 812//643 
f 813//643 129//120 125//116 
f 493//459 813//643 125//116 814//643 
f 815//643 125//116 121//113 
f 497//462 815//643 121//113 816//643 
f 501//466 816//643 121//113 817//643 
f 818//643 121//113 117//109 
f 505//470 818//643 117//109 819//643 
f 820//643 117//109 113//105 
f 509//474 820//643 113//105 821//643 
f 822//643 113//105 109//101 
f 513//477 822//643 109//101 823//643 
f 824//643 109//101 105//97 
f 825//643 105//97 101//93 
f 517//481 825//643 101//93 826//643 
f 827//643 101//93 97//89 
f 521//485 827//643 97//89 828//643 
f 829//643 97//89 93//86 
f 525//489 829//643 93//86 830//643 
f 831//643 93//86 89//82 
f 832//643 89//82 85//78 
f 529//492 832//643 85//78 833//643 
f 533//496 833//643 85//78 834//643 
f 537//500 834//643 85//78 835//643 
f 836//643 85//78 81//74 
f 837//643 81//74 77//71 
f 4//4 837//643 77//71 838//643 
f 839//643 77//71 73//67 
f 5//5 839//643 73//67 840//643 
f 841//643 73//67 69//63 
f 9//9 841//643 69//63 842//643 
f 843//643 69//63 65//59 
f 844//643 65//59 61//56 
f 13//13 844//643 61//56 845//643 
f 846//643 61//56 57//52 
f 17//17 846//643 57//52 847//643 
f 848//643 57//52 53//48 
f 21//20 848//643 53//48 849//643 
f 850//643 53//48 49//44 
f 25//23 850//643 49//44 851//643 
f 852//643 49//44 45//41 
f 29//27 852//643 45//41 853//643 
f 33//31 853//643 45//41 854//643 
f 855//643 45//41 41//38 
f 37//35 855//643 41//38 
f 856//644 39//36 43//39 
f 857//644 235//33 239//221 
f 858//644 239//221 243//223 
f 859//644 243//223 247//227 
f 860//644 247//227 251//230 
f 861//644 251//230 255//234 
f 862//644 255//234 259//237 
f 863//644 259//237 263//240 
f 864//644 263//240 267//244 
f 865//644 267//244 271//248 
f 866//644 271//248 275//252 
f 868//644 611//570 615//574 
f 869//644 615//574 619//578 
f 870//644 619//578 623//582 
f 871//644 623//582 627//586 
f 872//644 627//586 631//590 
f 873//644 631//590 635//594 
f 874//644 635//594 639//598 
f 875//644 639//598 643//602 
f 231//217 875//644 643//602 876//644 
f 227//213 876//644 643//602 877//644 
f 223//210 877//644 643//602 878//644 
f 879//644 275//252 279//256 
f 880//644 279//256 283//260 
f 881//644 283//260 287//264 
f 882//644 287//264 291//268 
f 883//644 291//268 295//271 
f 884//644 295//271 299//274 
f 885//644 299//274 303//278 
f 886//644 303//278 307//281 
f 611//570 886//644 307//281 887//644 
f 888//644 307//281 311//285 
f 607//566 888//644 311//285 889//644 
f 890//644 311//285 315//289 
f 603//562 890//644 315//289 891//644 
f 892//644 315//289 319//293 
f 599//558 892//644 319//293 893//644 
f 894//644 319//293 323//297 
f 595//554 894//644 323//297 895//644 
f 896//644 323//297 327//301 
f 591//550 896//644 327//301 897//644 
f 898//644 327//301 331//305 
f 587//547 898//644 331//305 899//644 
f 900//644 331//305 335//309 
f 583//543 900//644 335//309 901//644 
f 902//644 335//309 339//313 
f 579//539 902//644 339//313 903//644 
f 904//644 339//313 343//317 
f 575//535 904//644 343//317 905//644 
f 906//644 343//317 347//321 
f 571//531 906//644 347//321 907//644 
f 567//528 907//644 347//321 908//644 
f 909//644 347//321 351//324 
f 563//524 909//644 351//324 910//644 
f 911//644 351//324 355//328 
f 912//644 355//328 359//332 
f 559//520 912//644 359//332 913//644 
f 914//644 359//332 363//336 
f 555//516 914//644 363//336 915//644 
f 916//644 363//336 367//339 
f 917//644 367//339 371//343 
f 551//512 917//644 371//343 918//644 
f 919//644 371//343 375//347 
f 547//508 919//644 375//347 920//644 
f 921//644 375//347 379//351 
f 541//503 921//644 379//351 922//644 
f 923//644 379//351 383//354 
f 542//504 923//644 383//354 924//644 
f 679//637 924//644 383//354 925//644 
f 926//644 383//354 387//358 
f 675//633 926//644 387//358 927//644 
f 671//629 927//644 387//358 928//644 
f 929//644 387//358 391//362 
f 667//625 929//644 391//362 930//644 
f 931//644 391//362 395//366 
f 663//621 931//644 395//366 932//644 
f 659//618 932//644 395//366 933//644 
f 934//644 395//366 399//370 
f 655//614 934//644 399//370 935//644 
f 651//610 935//644 399//370 936//644 
f 937//644 399//370 403//374 
f 647//606 937//644 403//374 938//644 
f 939//644 403//374 407//378 
f 940//644 407//378 411//381 
f 941//644 411//381 415//385 
f 942//644 415//385 419//389 
f 643//602 942//644 419//389 943//644 
f 219//207 943//644 419//389 944//644 
f 215//203 944//644 419//389 945//644 
f 211//199 945//644 419//389 946//644 
f 207//195 946//644 419//389 947//644 
f 203//191 947//644 419//389 948//644 
f 199//187 948//644 419//389 949//644 
f 950//644 419//389 423//393 
f 195//183 950//644 423//393 951//644 
f 952//644 423//393 427//397 
f 191//179 952//644 427//397 953//644 
f 954//644 427//397 431//401 
f 187//175 954//644 431//401 955//644 
f 956//644 431//401 435//405 
f 183//171 956//644 435//405 957//644 
f 958//644 435//405 439//408 
f 179//168 958//644 439//408 959//644 
f 960//644 439//408 443//411 
f 175//164 960//644 443//411 961//644 
f 171//160 961//644 443//411 962//644 
f 963//644 443//411 447//414 
f 167//156 963//644 447//414 964//644 
f 965//644 447//414 451//418 
f 163//152 965//644 451//418 966//644 
f 159//148 966//644 451//418 967//644 
f 968//644 451//418 455//422 
f 969//644 455//422 459//426 
f 155//144 969//644 459//426 970//644 
f 971//644 459//426 463//430 
f 151//141 971//644 463//430 972//644 
f 973//644 463//430 467//434 
f 147//137 973//644 467//434 974//644 
f 975//644 467//434 471//437 
f 143//133 975//644 471//437 976//644 
f 977//644 471//437 475//441 
f 139//129 977//644 475//441 978//644 
f 979//644 475//441 479//445 
f 980//644 479//445 483//449 
f 135//125 980//644 483//449 981//644 
f 982//644 483//449 487//453 
f 131//122 982//644 487//453 983//644 
f 984//644 487//453 491//457 
f 127//118 984//644 491//457 985//644 
f 986//644 491//457 495//460 
f 123//114 986//644 495//460 987//644 
f 988//644 495//460 499//464 
f 989//644 499//464 503//468 
f 119//111 989//644 503//468 990//644 
f 991//644 503//468 507//472 
f 115//107 991//644 507//472 992//644 
f 993//644 507//472 511//475 
f 111//103 993//644 511//475 994//644 
f 995//644 511//475 515//479 
f 107//99 995//644 515//479 996//644 
f 103//95 996//644 515//479 997//644 
f 998//644 515//479 519//483 
f 99//91 998//644 519//483 999//644 
f 1000//644 519//483 523//487 
f 95//87 1000//644 523//487 1001//644 
f 1002//644 523//487 527//490 
f 91//84 1002//644 527//490 1003//644 
f 87//80 1003//644 527//490 1004//644 
f 1005//644 527//490 531//494 
f 1006//644 531//494 535//498 
f 1007//644 535//498 2//2 
f 83//76 1007//644 2//2 1008//644 
f 79//72 1008//644 2//2 1009//644 
f 1010//644 2//2 1//1 
f 75//69 1010//644 1//1 1011//644 
f 1012//644 1//1 7//7 
f 71//65 1012//644 7//7 1013//644 
f 1014//644 7//7 11//11 
f 67//61 1014//644 11//11 1015//644 
f 63//57 1015//644 11//11 1016//644 
f 1017//644 11//11 15//15 
f 59//54 1017//644 15//15 1018//644 
f 1019//644 15//15 19//18 
f 55//50 1019//644 19//18 1020//644 
f 1021//644 19//18 23//21 
f 51//46 1021//644 23//21 1022//644 
f 1023//644 23//21 27//25 
f 47//42 1023//644 27//25 1024//644 
f 1025//644 27//25 31//29 
f 43//39 1025//644 31//29 1026//644 
f 35//33 1026//644 31//29 
# 513 polygons - 1026 triangles

