# 3ds Max Wavefront OBJ Exporter v0.97b - (c)2007 guruware
# File Created: 07.12.2021 20:29:11

#
# object Vowels_7
#

v  220.2871 0.0000 127.2303
v  220.2500 0.0000 125.9579
v  220.2686 5.0000 126.5941
v  220.2500 10.0000 125.9579
v  220.2871 10.0000 127.2303
v  220.1387 0.0000 124.7659
v  220.1944 5.0000 125.3619
v  220.1387 10.0000 124.7659
v  219.9531 0.0000 123.6542
v  220.0459 5.0000 124.2100
v  219.9531 10.0000 123.6542
v  219.6933 0.0000 122.6230
v  219.8232 5.0000 123.1386
v  219.6933 10.0000 122.6230
v  219.3593 0.0000 121.6720
v  219.5263 5.0000 122.1475
v  219.3593 10.0000 121.6720
v  218.9511 0.0000 120.8015
v  219.1552 5.0000 121.2368
v  218.9511 10.0000 120.8015
v  218.4686 0.0000 120.0114
v  218.7099 5.0000 120.4065
v  218.4686 10.0000 120.0114
v  217.9119 0.0000 119.3016
v  218.1903 5.0000 119.6565
v  217.9119 10.0000 119.3016
v  217.2810 0.0000 118.6722
v  217.5965 5.0000 118.9869
v  217.2810 10.0000 118.6722
v  216.5683 0.0000 118.0986
v  216.9247 5.0000 118.3854
v  216.5683 10.0000 118.0986
v  215.7664 0.0000 117.5563
v  216.1674 5.0000 117.8275
v  215.7664 10.0000 117.5563
v  214.8753 0.0000 117.0452
v  215.3208 5.0000 117.3007
v  214.8753 10.0000 117.0452
v  213.8948 0.0000 116.5653
v  214.3850 5.0000 116.8053
v  213.8948 10.0000 116.5653
v  212.8251 0.0000 116.1167
v  213.3600 5.0000 116.3410
v  212.8251 10.0000 116.1167
v  211.6662 0.0000 115.6993
v  212.2457 5.0000 115.9080
v  211.6662 10.0000 115.6993
v  210.4180 0.0000 115.3132
v  211.0421 5.0000 115.5063
v  210.4180 10.0000 115.3132
v  209.0805 0.0000 114.9583
v  209.7493 5.0000 115.1358
v  209.0805 10.0000 114.9583
v  207.6538 0.0000 114.6347
v  208.3672 5.0000 114.7965
v  207.6538 10.0000 114.6347
v  207.9653 0.0000 113.4858
v  207.8096 5.0000 114.0603
v  207.9653 10.0000 113.4858
v  208.4179 0.0000 112.4721
v  208.1916 5.0000 112.9790
v  208.4179 10.0000 112.4721
v  209.0117 0.0000 111.5936
v  208.7148 5.0000 112.0329
v  209.0117 10.0000 111.5936
v  209.7465 0.0000 110.8502
v  209.3791 5.0000 111.2219
v  209.7465 10.0000 110.8502
v  210.6225 0.0000 110.2420
v  210.1845 5.0000 110.5461
v  210.6225 10.0000 110.2420
v  211.6396 0.0000 109.7690
v  211.1311 5.0000 110.0055
v  211.6396 10.0000 109.7690
v  212.7979 0.0000 109.4311
v  212.2188 5.0000 109.6000
v  212.7979 10.0000 109.4311
v  214.0972 0.0000 109.2283
v  213.4475 5.0000 109.3297
v  214.0972 10.0000 109.2283
v  215.5377 0.0000 109.1607
v  214.8175 5.0000 109.1945
v  215.5377 10.0000 109.1607
v  216.2330 0.0000 109.1860
v  215.8854 5.0000 109.1733
v  216.2330 10.0000 109.1860
v  217.0087 0.0000 109.2616
v  216.6208 5.0000 109.2238
v  217.0087 10.0000 109.2616
v  217.8646 0.0000 109.3877
v  217.4366 5.0000 109.3247
v  217.8646 10.0000 109.3877
v  218.8009 0.0000 109.5642
v  218.3327 5.0000 109.4760
v  218.8009 10.0000 109.5642
v  219.8175 0.0000 109.7912
v  219.3092 5.0000 109.6777
v  219.8175 10.0000 109.7912
v  220.9144 0.0000 110.0686
v  220.3659 5.0000 109.9299
v  220.9144 10.0000 110.0686
v  222.0916 0.0000 110.3964
v  221.5030 5.0000 110.2325
v  222.0916 10.0000 110.3964
v  223.3491 0.0000 110.7747
v  222.7203 5.0000 110.5856
v  223.3491 10.0000 110.7747
v  224.6869 0.0000 111.2034
v  224.0180 5.0000 110.9891
v  224.6869 10.0000 111.2034
v  226.0339 0.0000 111.6194
v  225.3604 5.0000 111.4114
v  226.0339 10.0000 111.6194
v  227.2932 0.0000 111.9865
v  226.6636 5.0000 111.8030
v  227.2932 10.0000 111.9865
v  228.4648 0.0000 112.3047
v  227.8790 5.0000 112.1456
v  228.4648 10.0000 112.3047
v  229.5487 0.0000 112.5739
v  229.0067 5.0000 112.4393
v  229.5487 10.0000 112.5739
v  230.5449 0.0000 112.7941
v  230.0468 5.0000 112.6840
v  230.5449 10.0000 112.7941
v  231.4533 0.0000 112.9655
v  230.9991 5.0000 112.8798
v  231.4533 10.0000 112.9655
v  232.2741 0.0000 113.0878
v  231.8637 5.0000 113.0266
v  232.2741 10.0000 113.0878
v  233.0072 0.0000 113.1612
v  232.6406 5.0000 113.1245
v  233.0072 10.0000 113.1612
v  233.6525 0.0000 113.1857
v  233.3298 5.0000 113.1735
v  233.6525 10.0000 113.1857
v  234.7069 0.0000 113.1506
v  234.1797 5.0000 113.1682
v  234.7069 10.0000 113.1506
v  235.7034 0.0000 113.0453
v  235.2052 5.0000 113.0980
v  235.7034 10.0000 113.0453
v  236.6419 0.0000 112.8699
v  236.1726 5.0000 112.9576
v  236.6419 10.0000 112.8699
v  237.5224 0.0000 112.6242
v  237.0822 5.0000 112.7470
v  237.5224 10.0000 112.6242
v  238.3451 0.0000 112.3083
v  237.9337 5.0000 112.4663
v  238.3451 10.0000 112.3083
v  239.1097 0.0000 111.9223
v  238.7274 5.0000 112.1153
v  239.1097 10.0000 111.9223
v  239.8164 0.0000 111.4661
v  239.4630 5.0000 111.6942
v  239.8164 10.0000 111.4661
v  240.4651 0.0000 110.9397
v  240.1408 5.0000 111.2029
v  240.4651 10.0000 110.9397
v  241.0559 0.0000 110.3431
v  240.7605 5.0000 110.6414
v  241.0559 10.0000 110.3431
v  238.1051 0.0000 103.6868
v  239.5805 5.0000 107.0149
v  238.1051 10.0000 103.6868
v  237.4733 0.0000 104.2950
v  237.7892 5.0000 103.9909
v  237.4733 10.0000 104.2950
v  236.8355 0.0000 104.8317
v  237.1544 5.0000 104.5633
v  236.8355 10.0000 104.8317
v  236.1919 0.0000 105.2968
v  236.5137 5.0000 105.0642
v  236.1919 10.0000 105.2968
v  235.5423 0.0000 105.6903
v  235.8671 5.0000 105.4936
v  235.5423 10.0000 105.6903
v  234.8869 0.0000 106.0123
v  235.2146 5.0000 105.8513
v  234.8869 10.0000 106.0123
v  234.2255 0.0000 106.2628
v  234.5562 5.0000 106.1375
v  234.2255 10.0000 106.2628
v  233.5583 0.0000 106.4417
v  233.8919 5.0000 106.3522
v  233.5583 10.0000 106.4417
v  232.8851 0.0000 106.5490
v  233.2217 5.0000 106.4953
v  232.8851 10.0000 106.5490
v  232.2061 0.0000 106.5848
v  232.5456 5.0000 106.5669
v  232.2061 10.0000 106.5848
v  231.4759 0.0000 106.5629
v  231.8410 5.0000 106.5738
v  231.4759 10.0000 106.5629
v  230.6774 0.0000 106.4973
v  231.0767 5.0000 106.5301
v  230.6774 10.0000 106.4973
v  229.8106 0.0000 106.3880
v  230.2440 5.0000 106.4426
v  229.8106 10.0000 106.3880
v  228.8755 0.0000 106.2349
v  229.3431 5.0000 106.3115
v  228.8755 10.0000 106.2349
v  227.8721 0.0000 106.0382
v  228.3738 5.0000 106.1366
v  227.8721 10.0000 106.0382
v  226.8003 0.0000 105.7977
v  227.3362 5.0000 105.9179
v  226.8003 10.0000 105.7977
v  225.6602 0.0000 105.5134
v  226.2303 5.0000 105.6555
v  225.6602 10.0000 105.5134
v  224.4518 0.0000 105.1855
v  225.0560 5.0000 105.3494
v  224.4518 10.0000 105.1855
v  223.1750 0.0000 104.8138
v  223.8134 5.0000 104.9996
v  223.1750 10.0000 104.8138
v  221.9000 0.0000 104.4421
v  222.5375 5.0000 104.6279
v  221.9000 10.0000 104.4421
v  220.6978 0.0000 104.1141
v  221.2989 5.0000 104.2781
v  220.6978 10.0000 104.1141
v  219.5685 0.0000 103.8299
v  220.1332 5.0000 103.9720
v  219.5685 10.0000 103.8299
v  218.5121 0.0000 103.5894
v  219.0403 5.0000 103.7096
v  218.5121 10.0000 103.5894
v  217.5285 0.0000 103.3926
v  218.0203 5.0000 103.4910
v  217.5285 10.0000 103.3926
v  216.6177 0.0000 103.2396
v  217.0731 5.0000 103.3161
v  216.6177 10.0000 103.2396
v  215.7798 0.0000 103.1302
v  216.1988 5.0000 103.1849
v  215.7798 10.0000 103.1302
v  215.0148 0.0000 103.0647
v  215.3973 5.0000 103.0975
v  215.0148 10.0000 103.0647
v  214.3227 0.0000 103.0428
v  214.6687 5.0000 103.0537
v  214.3227 10.0000 103.0428
v  212.8548 0.0000 103.0938
v  213.5887 5.0000 103.0683
v  212.8548 10.0000 103.0938
v  211.4220 0.0000 103.2468
v  212.1384 5.0000 103.1703
v  211.4220 10.0000 103.2468
v  210.0241 0.0000 103.5018
v  210.7230 5.0000 103.3743
v  210.0241 10.0000 103.5018
v  208.6611 0.0000 103.8587
v  209.3426 5.0000 103.6802
v  208.6611 10.0000 103.8587
v  207.3332 0.0000 104.3177
v  207.9971 5.0000 104.0882
v  207.3332 10.0000 104.3177
v  206.0402 0.0000 104.8786
v  206.6867 5.0000 104.5982
v  206.0402 10.0000 104.8786
v  204.7822 0.0000 105.5416
v  205.4112 5.0000 105.2101
v  204.7822 10.0000 105.5416
v  203.5591 0.0000 106.3065
v  204.1707 5.0000 105.9240
v  203.5591 10.0000 106.3065
v  202.3710 0.0000 107.1734
v  202.9651 5.0000 106.7400
v  202.3710 10.0000 107.1734
v  201.2655 0.0000 108.1371
v  201.8183 5.0000 107.6553
v  201.2655 10.0000 108.1371
v  200.2900 0.0000 109.1924
v  200.7777 5.0000 108.6647
v  200.2900 10.0000 109.1924
v  199.4446 0.0000 110.3392
v  199.8673 5.0000 109.7658
v  199.4446 10.0000 110.3392
v  198.7292 0.0000 111.5775
v  199.0869 5.0000 110.9583
v  198.7292 10.0000 111.5775
v  198.1439 0.0000 112.9074
v  198.4366 5.0000 112.2425
v  198.1439 10.0000 112.9074
v  197.6887 0.0000 114.3289
v  197.9163 5.0000 113.6182
v  197.6887 10.0000 114.3289
v  197.3635 0.0000 115.8419
v  197.5261 5.0000 115.0854
v  197.3635 10.0000 115.8419
v  197.1684 0.0000 117.4465
v  197.2660 5.0000 116.6442
v  197.1684 10.0000 117.4465
v  197.1034 0.0000 119.1426
v  197.1359 5.0000 118.2946
v  197.1034 10.0000 119.1426
v  199.9079 0.0000 119.2418
v  198.5057 5.0000 119.1922
v  199.9079 10.0000 119.2418
v  202.3825 0.0000 119.5392
v  201.1452 5.0000 119.3905
v  202.3825 10.0000 119.5392
v  204.5272 0.0000 120.0348
v  203.4549 5.0000 119.7870
v  204.5272 10.0000 120.0348
v  206.3419 0.0000 120.7288
v  205.4346 5.0000 120.3818
v  206.3419 10.0000 120.7288
v  207.8267 0.0000 121.6210
v  207.0843 5.0000 121.1749
v  207.8267 10.0000 121.6210
v  208.9815 0.0000 122.7114
v  208.4041 5.0000 122.1662
v  208.9815 10.0000 122.7114
v  209.8064 0.0000 124.0002
v  209.3939 5.0000 123.3558
v  209.8064 10.0000 124.0002
v  210.3013 0.0000 125.4872
v  210.0538 5.0000 124.7437
v  210.3013 10.0000 125.4872
v  210.4662 0.0000 127.1724
v  210.3838 5.0000 126.3298
v  210.4662 10.0000 127.1724
v  210.4662 0.0000 172.2721
v  210.4662 5.0000 149.7223
v  210.4662 10.0000 172.2721
v  210.5266 0.0000 181.8112
v  210.4964 5.0000 177.0417
v  210.5266 10.0000 181.8112
v  210.5795 0.0000 182.5223
v  210.5531 5.0000 182.1668
v  210.5795 10.0000 182.5223
v  210.6578 0.0000 183.2066
v  210.6187 5.0000 182.8645
v  210.6578 10.0000 183.2066
v  210.7614 0.0000 183.8640
v  210.7096 5.0000 183.5353
v  210.7614 10.0000 183.8640
v  210.8904 0.0000 184.4946
v  210.8259 5.0000 184.1793
v  210.8904 10.0000 184.4946
v  211.0446 0.0000 185.0983
v  210.9675 5.0000 184.7964
v  211.0446 10.0000 185.0983
v  211.2243 0.0000 185.6752
v  211.1345 5.0000 185.3868
v  211.2243 10.0000 185.6752
v  211.4293 0.0000 186.2253
v  211.3268 5.0000 185.9503
v  211.4293 10.0000 186.2253
v  211.6596 0.0000 186.7485
v  211.5444 5.0000 186.4869
v  211.6596 10.0000 186.7485
v  211.9152 0.0000 187.2449
v  211.7874 5.0000 186.9967
v  211.9152 10.0000 187.2449
v  212.2104 0.0000 187.7145
v  212.0628 5.0000 187.4797
v  212.2104 10.0000 187.7145
v  212.5324 0.0000 188.1573
v  212.3714 5.0000 187.9359
v  212.5324 10.0000 188.1573
v  212.8812 0.0000 188.5732
v  212.7068 5.0000 188.3652
v  212.8812 10.0000 188.5732
v  213.2569 0.0000 188.9623
v  213.0690 5.0000 188.7677
v  213.2569 10.0000 188.9623
v  213.6594 0.0000 189.3245
v  213.4581 5.0000 189.1434
v  213.6594 10.0000 189.3245
v  214.0887 0.0000 189.6599
v  213.8740 5.0000 189.4922
v  214.0887 10.0000 189.6599
v  214.5449 0.0000 189.9685
v  214.3168 5.0000 189.8142
v  214.5449 10.0000 189.9685
v  215.0279 0.0000 190.2503
v  214.7864 5.0000 190.1094
v  215.0279 10.0000 190.2503
v  215.5377 0.0000 190.5052
v  215.2828 5.0000 190.3777
v  215.5377 10.0000 190.5052
v  216.0609 0.0000 190.7332
v  215.7993 5.0000 190.6192
v  216.0609 10.0000 190.7332
v  216.6110 0.0000 190.9345
v  216.3360 5.0000 190.8339
v  216.6110 10.0000 190.9345
v  217.1879 0.0000 191.1089
v  216.8995 5.0000 191.0217
v  217.1879 10.0000 191.1089
v  217.7917 0.0000 191.2565
v  217.4898 5.0000 191.1827
v  217.7917 10.0000 191.2565
v  218.4222 0.0000 191.3772
v  218.1070 5.0000 191.3169
v  218.4222 10.0000 191.3772
v  219.0797 0.0000 191.4712
v  218.7509 5.0000 191.4242
v  219.0797 10.0000 191.4712
v  219.7639 0.0000 191.5382
v  219.4218 5.0000 191.5047
v  219.7639 10.0000 191.5382
v  220.4750 0.0000 191.5785
v  220.1194 5.0000 191.5584
v  220.4750 10.0000 191.5785
v  221.2129 0.0000 191.5919
v  220.8439 5.0000 191.5852
v  221.2129 10.0000 191.5919
v  221.9944 0.0000 191.5662
v  221.6036 5.0000 191.5790
v  221.9944 10.0000 191.5662
v  222.7558 0.0000 191.4889
v  222.3751 5.0000 191.5275
v  222.7558 10.0000 191.4889
v  223.4970 0.0000 191.3602
v  223.1264 5.0000 191.4246
v  223.4970 10.0000 191.3602
v  224.2182 0.0000 191.1800
v  223.8576 5.0000 191.2701
v  224.2182 10.0000 191.1800
v  224.9192 0.0000 190.9483
v  224.5687 5.0000 191.0641
v  224.9192 10.0000 190.9483
v  225.6001 0.0000 190.6651
v  225.2596 5.0000 190.8067
v  225.6001 10.0000 190.6651
v  226.2608 0.0000 190.3304
v  225.9305 5.0000 190.4977
v  226.2608 10.0000 190.3304
v  226.9015 0.0000 189.9442
v  226.5812 5.0000 190.1373
v  226.9015 10.0000 189.9442
v  227.5220 0.0000 189.5065
v  227.2118 5.0000 189.7253
v  227.5220 10.0000 189.5065
v  228.0985 0.0000 189.0173
v  227.8103 5.0000 189.2619
v  228.0985 10.0000 189.0173
v  228.6073 0.0000 188.4766
v  228.3529 5.0000 188.7470
v  228.6073 10.0000 188.4766
v  229.0481 0.0000 187.8845
v  228.8277 5.0000 188.1806
v  229.0481 10.0000 187.8845
v  229.4212 0.0000 187.2408
v  229.2347 5.0000 187.5627
v  229.4212 10.0000 187.2408
v  229.7264 0.0000 186.5457
v  229.5738 5.0000 186.8932
v  229.7264 10.0000 186.5457
v  229.9638 0.0000 185.7990
v  229.8451 5.0000 186.1724
v  229.9638 10.0000 185.7990
v  230.1334 0.0000 185.0009
v  230.0486 5.0000 185.4000
v  230.1334 10.0000 185.0009
v  230.2351 0.0000 184.1513
v  230.1843 5.0000 184.5761
v  230.2351 10.0000 184.1513
v  230.2690 0.0000 183.2502
v  230.2521 5.0000 183.7007
v  230.2690 10.0000 183.2502
v  230.1458 0.0000 181.2840
v  230.2074 5.0000 182.2671
v  230.1458 10.0000 181.2840
v  229.7761 0.0000 179.5492
v  229.9610 5.0000 180.4166
v  229.7761 10.0000 179.5492
v  229.1599 0.0000 178.0457
v  229.4680 5.0000 178.7974
v  229.1599 10.0000 178.0457
v  228.2973 0.0000 176.7735
v  228.7286 5.0000 177.4096
v  228.2973 10.0000 176.7735
v  227.1882 0.0000 175.7326
v  227.7428 5.0000 176.2530
v  227.1882 10.0000 175.7326
v  225.8326 0.0000 174.9230
v  226.5104 5.0000 175.3278
v  225.8326 10.0000 174.9230
v  224.2306 0.0000 174.3447
v  225.0316 5.0000 174.6339
v  224.2306 10.0000 174.3447
v  222.3821 0.0000 173.9977
v  223.3064 5.0000 174.1712
v  222.3821 10.0000 173.9977
v  220.2871 0.0000 173.8821
v  221.3346 5.0000 173.9399
v  220.2871 10.0000 173.8821
v  220.2871 5.0000 150.5562
v  220.3209 0.0000 186.7112
v  219.5961 0.0000 186.5587
v  219.9585 5.0000 186.6349
v  219.5961 10.0000 186.5587
v  220.3209 10.0000 186.7112
v  218.9678 0.0000 186.3047
v  219.2820 5.0000 186.4317
v  218.9678 10.0000 186.3047
v  218.4363 0.0000 185.9490
v  218.7021 5.0000 186.1268
v  218.4363 10.0000 185.9490
v  218.0014 0.0000 185.4917
v  218.2188 5.0000 185.7204
v  218.0014 10.0000 185.4917
v  217.6631 0.0000 184.9328
v  217.8322 5.0000 185.2123
v  217.6631 10.0000 184.9328
v  217.4215 0.0000 184.2723
v  217.5423 5.0000 184.6026
v  217.4215 10.0000 184.2723
v  217.2765 0.0000 183.5102
v  217.3490 5.0000 183.8913
v  217.2765 10.0000 183.5102
v  217.2282 0.0000 182.6464
v  217.2523 5.0000 183.0783
v  217.2282 10.0000 182.6464
v  217.2765 0.0000 181.8207
v  217.2523 5.0000 182.2336
v  217.2765 10.0000 181.8207
v  217.4215 0.0000 181.0921
v  217.3490 5.0000 181.4564
v  217.4215 10.0000 181.0921
v  217.6631 0.0000 180.4607
v  217.5423 5.0000 180.7764
v  217.6631 10.0000 180.4607
v  218.0014 0.0000 179.9264
v  217.8322 5.0000 180.1935
v  218.0014 10.0000 179.9264
v  218.4363 0.0000 179.4892
v  218.2188 5.0000 179.7078
v  218.4363 10.0000 179.4892
v  218.9678 0.0000 179.1492
v  218.7021 5.0000 179.3192
v  218.9678 10.0000 179.1492
v  219.5961 0.0000 178.9063
v  219.2820 5.0000 179.0278
v  219.5961 10.0000 178.9063
v  220.3209 0.0000 178.7606
v  219.9585 5.0000 178.8335
v  220.3209 10.0000 178.7606
v  221.1425 0.0000 178.7120
v  220.7317 5.0000 178.7363
v  221.1425 10.0000 178.7120
v  221.9766 0.0000 178.7606
v  221.5595 5.0000 178.7363
v  221.9766 10.0000 178.7606
v  222.7127 0.0000 178.9063
v  222.3447 5.0000 178.8335
v  222.7127 10.0000 178.9063
v  223.3506 0.0000 179.1492
v  223.0316 5.0000 179.0278
v  223.3506 10.0000 179.1492
v  223.8904 0.0000 179.4892
v  223.6205 5.0000 179.3192
v  223.8904 10.0000 179.4892
v  224.3320 0.0000 179.9264
v  224.1112 5.0000 179.7078
v  224.3320 10.0000 179.9264
v  224.6755 0.0000 180.4607
v  224.5037 5.0000 180.1935
v  224.6755 10.0000 180.4607
v  224.9208 0.0000 181.0921
v  224.7981 5.0000 180.7764
v  224.9208 10.0000 181.0921
v  225.0680 0.0000 181.8207
v  224.9944 5.0000 181.4564
v  225.0680 10.0000 181.8207
v  225.1171 0.0000 182.6464
v  225.0926 5.0000 182.2336
v  225.1171 10.0000 182.6464
v  225.0680 0.0000 183.5102
v  225.0926 5.0000 183.0783
v  225.0680 10.0000 183.5102
v  224.9208 0.0000 184.2723
v  224.9944 5.0000 183.8913
v  224.9208 10.0000 184.2723
v  224.6755 0.0000 184.9328
v  224.7981 5.0000 184.6026
v  224.6755 10.0000 184.9328
v  224.3320 0.0000 185.4917
v  224.5037 5.0000 185.2123
v  224.3320 10.0000 185.4917
v  223.8904 0.0000 185.9490
v  224.1112 5.0000 185.7204
v  223.8904 10.0000 185.9490
v  223.3506 0.0000 186.3047
v  223.6205 5.0000 186.1268
v  223.3506 10.0000 186.3047
v  222.7127 0.0000 186.5587
v  223.0316 5.0000 186.4317
v  222.7127 10.0000 186.5587
v  221.9766 0.0000 186.7112
v  222.3447 5.0000 186.6349
v  221.9766 10.0000 186.7112
v  221.1425 0.0000 186.7620
v  221.5595 5.0000 186.7366
v  221.1425 10.0000 186.7620
v  220.7317 5.0000 186.7366
v  224.5370 0.0000 108.1693
v  238.8781 10.0000 106.1083
v  223.2669 0.0000 107.7926
v  225.7953 0.0000 108.5335
v  226.9999 0.0000 108.8605
v  228.0136 0.0000 108.0865
v  228.6111 0.0000 109.2285
v  229.6254 0.0000 109.4410
v  230.7401 0.0000 110.2787
v  231.8524 0.0000 109.8002
v  232.8050 0.0000 110.5137
v  233.7007 0.0000 109.8317
v  234.9672 0.0000 110.3540
v  235.8192 0.0000 109.4423
v  237.0813 0.0000 109.7115
v  237.6651 0.0000 108.5939
v  238.8730 0.0000 108.5754
v  238.4549 0.0000 106.4899
v  238.8781 0.0000 106.1083
v  222.0202 0.0000 107.4302
v  220.8324 0.0000 107.1040
v  219.7212 0.0000 106.8249
v  218.6865 0.0000 106.5928
v  217.7285 0.0000 106.4078
v  216.8470 0.0000 106.2699
v  216.0421 0.0000 106.1791
v  214.6012 0.0000 105.1201
v  212.7930 0.0000 106.2500
v  210.9089 0.0000 105.9614
v  209.5641 0.0000 107.0468
v  207.7049 0.0000 107.1660
v  206.7749 0.0000 108.5730
v  204.9250 0.0000 109.1366
v  203.4767 0.0000 110.7253
v  204.3947 0.0000 115.6067
v  219.4125 0.0000 160.5244
v  199.3828 0.0000 114.6557
v  197.8464 0.0000 117.2004
v  212.8990 0.0000 183.3740
v  213.8329 0.0000 165.0679
v  218.4572 0.0000 162.9277
v  218.3284 0.0000 163.3810
v  216.8994 0.0000 125.7113
v  216.6476 0.0000 122.6071
v  214.9692 0.0000 120.0502
v  212.2623 0.0000 118.1879
v  209.0667 0.0000 117.6641
v  206.9008 0.0000 117.5891
v  213.2144 0.0000 184.8793
v  213.7165 0.0000 186.1897
v  214.4242 0.0000 187.3053
v  215.2879 0.0000 188.5152
v  216.7736 0.0000 189.1128
v  218.0961 0.0000 189.5901
v  219.4366 0.0000 189.5313
v  220.5830 0.0000 189.6364
v  221.8164 0.0000 189.6240
v  223.0321 0.0000 189.4598
v  224.1602 0.0000 189.1313
v  225.2007 0.0000 188.6386
v  226.5586 0.0000 188.0642
v  227.2168 0.0000 186.8053
v  227.7415 0.0000 185.7581
v  228.0642 0.0000 184.5468
v  227.6723 0.0000 183.3895
v  227.6500 0.0000 182.2503
v  227.4777 0.0000 180.9365
v  227.1331 0.0000 179.7869
v  226.6162 0.0000 178.8015
v  225.9270 0.0000 177.9804
v  225.0654 0.0000 177.3235
v  224.0316 0.0000 176.8308
v  222.8255 0.0000 176.5023
v  221.8337 0.0000 177.1568
v  221.0332 0.0000 176.3381
v  220.0681 0.0000 177.1830
v  219.6170 0.0000 177.3125
v  219.2304 0.0000 177.5068
v  218.9083 0.0000 177.7659
v  218.6505 0.0000 178.0897
v  238.4549 10.0000 106.4899
v  238.8730 10.0000 108.5755
v  237.6651 10.0000 108.5939
v  237.0813 10.0000 109.7115
v  235.8192 10.0000 109.4423
v  234.9672 10.0000 110.3540
v  233.7007 10.0000 109.8317
v  232.8050 10.0000 110.5137
v  231.8524 10.0000 109.8002
v  230.7401 10.0000 110.2787
v  229.6254 10.0000 109.4410
v  228.6111 10.0000 109.2285
v  228.0136 10.0000 108.0865
v  226.9999 10.0000 108.8605
v  225.7953 10.0000 108.5335
v  224.5370 10.0000 108.1692
v  223.2669 10.0000 107.7926
v  197.8464 10.0000 117.2003
v  199.3828 10.0000 114.6557
v  204.3947 10.0000 115.6067
v  206.9008 10.0000 117.5891
v  203.4767 10.0000 110.7253
v  204.9250 10.0000 109.1366
v  206.7749 10.0000 108.5730
v  207.7049 10.0000 107.1660
v  209.5641 10.0000 107.0468
v  210.9089 10.0000 105.9614
v  212.7930 10.0000 106.2500
v  214.6012 10.0000 105.1201
v  216.0421 10.0000 106.1791
v  216.8470 10.0000 106.2699
v  217.7285 10.0000 106.4078
v  218.6865 10.0000 106.5928
v  219.7212 10.0000 106.8249
v  220.8324 10.0000 107.1040
v  222.0202 10.0000 107.4302
v  209.0667 10.0000 117.6641
v  212.2623 10.0000 118.1879
v  214.9692 10.0000 120.0502
v  216.6476 10.0000 122.6071
v  216.8994 10.0000 125.7113
v  213.8329 10.0000 165.0679
v  218.3284 10.0000 163.3810
v  218.4572 10.0000 162.9277
v  219.0597 10.0000 165.3748
v  218.9083 10.0000 177.7659
v  219.2304 10.0000 177.5068
v  219.6170 10.0000 177.3125
v  220.0681 10.0000 177.1830
v  221.0332 10.0000 176.3381
v  221.8337 10.0000 177.1568
v  222.8255 10.0000 176.5023
v  224.0316 10.0000 176.8308
v  225.0654 10.0000 177.3235
v  225.9270 10.0000 177.9804
v  226.6162 10.0000 178.8015
v  227.1331 10.0000 179.7869
v  227.4777 10.0000 180.9365
v  227.6500 10.0000 182.2503
v  227.6723 10.0000 183.3895
v  228.0642 10.0000 184.5468
v  227.7415 10.0000 185.7581
v  227.2168 10.0000 186.8053
v  226.5586 10.0000 188.0642
v  225.2007 10.0000 188.6386
v  224.1602 10.0000 189.1313
v  223.0321 10.0000 189.4598
v  221.8164 10.0000 189.6240
v  220.5830 10.0000 189.6364
v  219.4366 10.0000 189.5313
v  218.0961 10.0000 189.5901
v  216.7736 10.0000 189.1128
v  215.2879 10.0000 188.5152
v  214.4242 10.0000 187.3053
v  213.7165 10.0000 186.1897
v  213.2144 10.0000 184.8793
v  212.8990 10.0000 183.3740
# 763 vertices

vn 0.7103 -0.7038 -0.0104
vn 0.7128 -0.7000 -0.0436
vn 0.9996 0.0000 -0.0292
vn 0.7128 0.7000 -0.0436
vn 0.7103 0.7038 -0.0104
vn 0.7091 -0.6991 -0.0922
vn 0.9957 0.0000 -0.0930
vn 0.7091 0.6991 -0.0922
vn 0.7009 -0.6981 -0.1465
vn 0.9864 0.0000 -0.1646
vn 0.7009 0.6981 -0.1465
vn 0.6866 -0.6970 -0.2066
vn 0.9697 0.0000 -0.2443
vn 0.6866 0.6970 -0.2066
vn 0.6647 -0.6959 -0.2718
vn 0.9435 0.0000 -0.3314
vn 0.6647 0.6959 -0.2718
vn 0.6333 -0.6950 -0.3405
vn 0.9054 0.0000 -0.4246
vn 0.6333 0.6950 -0.3405
vn 0.5914 -0.6942 -0.4104
vn 0.8535 0.0000 -0.5211
vn 0.5914 0.6942 -0.4104
vn 0.5387 -0.6937 -0.4781
vn 0.7869 0.0000 -0.6171
vn 0.5387 0.6937 -0.4781
vn 0.4798 -0.6953 -0.5351
vn 0.7062 0.0000 -0.7080
vn 0.4798 0.6953 -0.5351
vn 0.4255 -0.6979 -0.5761
vn 0.6270 0.0000 -0.7790
vn 0.4255 0.6979 -0.5761
vn 0.3785 -0.6989 -0.6069
vn 0.5602 0.0000 -0.8283
vn 0.3785 0.6989 -0.6069
vn 0.3349 -0.6998 -0.6310
vn 0.4975 0.0000 -0.8675
vn 0.3349 0.6998 -0.6310
vn 0.2949 -0.7006 -0.6497
vn 0.4396 0.0000 -0.8982
vn 0.2949 0.7006 -0.6497
vn 0.2587 -0.7014 -0.6642
vn 0.3868 0.0000 -0.9222
vn 0.2587 0.7014 -0.6642
vn 0.2259 -0.7020 -0.6754
vn 0.3388 0.0000 -0.9409
vn 0.2259 0.7020 -0.6754
vn 0.1965 -0.7026 -0.6840
vn 0.2955 0.0000 -0.9553
vn 0.1965 0.7026 -0.6840
vn 0.1699 -0.7030 -0.6906
vn 0.2565 0.0000 -0.9666
vn 0.1699 0.7030 -0.6906
vn 0.3565 -0.9094 -0.2144
vn 0.2212 0.0000 -0.9752
vn 0.3565 0.9094 -0.2144
vn 0.6488 -0.7250 0.2312
vn 0.9652 0.0000 0.2617
vn 0.6488 0.7250 0.2312
vn 0.6000 -0.7272 0.3334
vn 0.9131 0.0000 0.4077
vn 0.6000 0.7272 0.3334
vn 0.5296 -0.7285 0.4344
vn 0.8285 0.0000 0.5599
vn 0.5296 0.7285 0.4344
vn 0.4409 -0.7284 0.5245
vn 0.7112 0.0000 0.7030
vn 0.4409 0.7284 0.5245
vn 0.3419 -0.7269 0.5956
vn 0.5703 0.0000 0.8214
vn 0.3419 0.7269 0.5956
vn 0.2425 -0.7245 0.6452
vn 0.4217 0.0000 0.9067
vn 0.2425 0.7245 0.6452
vn 0.1506 -0.7219 0.6754
vn 0.2801 0.0000 0.9600
vn 0.1506 0.7219 0.6754
vn 0.0699 -0.7194 0.6910
vn 0.1542 0.0000 0.9880
vn 0.0699 0.7194 0.6910
vn 0.0037 -0.7166 0.6975
vn 0.0469 0.0000 0.9989
vn 0.0037 0.7166 0.6975
vn -0.0467 -0.7140 0.6986
vn -0.0363 0.0000 0.9993
vn -0.0467 0.7140 0.6986
vn -0.0852 -0.7127 0.6963
vn -0.0971 0.0000 0.9953
vn -0.0852 0.7127 0.6963
vn -0.1163 -0.7116 0.6928
vn -0.1457 0.0000 0.9893
vn -0.1163 0.7116 0.6928
vn -0.1418 -0.7109 0.6889
vn -0.1853 0.0000 0.9827
vn -0.1418 0.7109 0.6889
vn -0.1630 -0.7103 0.6848
vn -0.2179 0.0000 0.9760
vn -0.1630 0.7103 0.6848
vn -0.1809 -0.7098 0.6808
vn -0.2452 0.0000 0.9695
vn -0.1809 0.7098 0.6808
vn -0.1961 -0.7094 0.6770
vn -0.2683 0.0000 0.9633
vn -0.1961 0.7094 0.6770
vn -0.2091 -0.7091 0.6733
vn -0.2881 0.0000 0.9576
vn -0.2091 0.7091 0.6733
vn -0.2126 -0.7059 0.6756
vn -0.3052 0.0000 0.9523
vn -0.2126 0.7059 0.6756
vn -0.2038 -0.7053 0.6790
vn -0.2951 0.0000 0.9555
vn -0.2038 0.7053 0.6790
vn -0.1922 -0.7050 0.6826
vn -0.2799 0.0000 0.9600
vn -0.1922 0.7050 0.6826
vn -0.1785 -0.7047 0.6867
vn -0.2621 0.0000 0.9651
vn -0.1785 0.7047 0.6867
vn -0.1622 -0.7042 0.6912
vn -0.2411 0.0000 0.9705
vn -0.1622 0.7042 0.6912
vn -0.1426 -0.7036 0.6961
vn -0.2159 0.0000 0.9764
vn -0.1426 0.7036 0.6961
vn -0.1184 -0.7028 0.7015
vn -0.1184 0.7028 0.7015
vn -0.0880 -0.7017 0.7070
vn -0.1474 0.0000 0.9891
vn -0.0880 0.7017 0.7070
vn -0.0491 -0.7002 0.7122
vn -0.0996 0.0000 0.9950
vn -0.0491 0.7002 0.7122
vn -0.0017 -0.6992 0.7149
vn -0.0379 0.0000 0.9993
vn -0.0017 0.6992 0.7149
vn 0.0495 -0.6991 0.7133
vn 0.0333 0.0000 0.9994
vn 0.0495 0.6991 0.7133
vn 0.1035 -0.6983 0.7083
vn 0.1051 0.0000 0.9945
vn 0.1035 0.6983 0.7083
vn 0.1623 -0.6974 0.6980
vn 0.1838 0.0000 0.9830
vn 0.1623 0.6974 0.6980
vn 0.2252 -0.6966 0.6812
vn 0.2687 0.0000 0.9632
vn 0.2252 0.6966 0.6812
vn 0.2909 -0.6959 0.6566
vn 0.3584 0.0000 0.9335
vn 0.2909 0.6959 0.6566
vn 0.3573 -0.6954 0.6235
vn 0.4507 0.0000 0.8927
vn 0.3573 0.6954 0.6235
vn 0.4221 -0.6951 0.5820
vn 0.5424 0.0000 0.8401
vn 0.4221 0.6951 0.5820
vn 0.4826 -0.6951 0.5328
vn 0.6301 0.0000 0.7765
vn 0.4826 0.6951 0.5328
vn 0.7872 -0.5995 0.1446
vn 0.7106 0.0000 0.7036
vn 0.7872 0.5995 0.1446
vn 0.1592 -0.5612 -0.8122
vn 0.9142 0.0000 -0.4053
vn 0.1592 0.5612 -0.8122
vn -0.4680 -0.7147 -0.5198
vn -0.6935 0.0000 -0.7205
vn -0.4680 0.7147 -0.5198
vn -0.4298 -0.7155 -0.5508
vn -0.6439 0.0000 -0.7651
vn -0.4298 0.7155 -0.5508
vn -0.3854 -0.7163 -0.5816
vn -0.5857 0.0000 -0.8105
vn -0.3854 0.7163 -0.5816
vn -0.3345 -0.7172 -0.6114
vn -0.5182 0.0000 -0.8553
vn -0.3345 0.7172 -0.6114
vn -0.2770 -0.7179 -0.6386
vn -0.4409 0.0000 -0.8975
vn -0.2770 0.7179 -0.6386
vn -0.2135 -0.7185 -0.6619
vn -0.3542 0.0000 -0.9352
vn -0.2135 0.7185 -0.6619
vn -0.1449 -0.7190 -0.6798
vn -0.2590 0.0000 -0.9659
vn -0.1449 0.7190 -0.6798
vn -0.0731 -0.7192 -0.6910
vn -0.1574 0.0000 -0.9875
vn -0.0731 0.7192 -0.6910
vn -0.0079 -0.7165 -0.6975
vn -0.0526 0.0000 -0.9986
vn -0.0079 0.7165 -0.6975
vn 0.0392 -0.7130 -0.7001
vn 0.0299 0.0000 -0.9996
vn 0.0392 0.7130 -0.7001
vn 0.0727 -0.7120 -0.6984
vn 0.0819 0.0000 -0.9966
vn 0.0727 0.7120 -0.6984
vn 0.1008 -0.7113 -0.6957
vn 0.1251 0.0000 -0.9921
vn 0.1008 0.7113 -0.6957
vn 0.1245 -0.7107 -0.6924
vn 0.1615 0.0000 -0.9869
vn 0.1245 0.7107 -0.6924
vn 0.1448 -0.7102 -0.6890
vn 0.1925 0.0000 -0.9813
vn 0.1448 0.7102 -0.6890
vn 0.1623 -0.7098 -0.6855
vn 0.2189 0.0000 -0.9757
vn 0.1623 0.7098 -0.6855
vn 0.1776 -0.7094 -0.6820
vn 0.2419 0.0000 -0.9703
vn 0.1776 0.7094 -0.6820
vn 0.1909 -0.7092 -0.6787
vn 0.2619 0.0000 -0.9651
vn 0.1909 0.7092 -0.6787
vn 0.1978 -0.7071 -0.6788
vn 0.2795 0.0000 -0.9601
vn 0.1978 0.7071 -0.6788
vn 0.1925 -0.7052 -0.6824
vn 0.2799 0.0000 -0.9600
vn 0.1925 0.7052 -0.6824
vn 0.1799 -0.7049 -0.6861
vn 0.2632 0.0000 -0.9647
vn 0.1799 0.7049 -0.6861
vn 0.1654 -0.7046 -0.6901
vn 0.2441 0.0000 -0.9698
vn 0.1654 0.7046 -0.6901
vn 0.1485 -0.7042 -0.6944
vn 0.2220 0.0000 -0.9751
vn 0.1485 0.7042 -0.6944
vn 0.1286 -0.7036 -0.6988
vn 0.1962 0.0000 -0.9806
vn 0.1286 0.7036 -0.6988
vn 0.1050 -0.7030 -0.7034
vn 0.1657 0.0000 -0.9862
vn 0.1050 0.7030 -0.7034
vn 0.0765 -0.7022 -0.7079
vn 0.1294 0.0000 -0.9916
vn 0.0765 0.7022 -0.7079
vn 0.0417 -0.7011 -0.7119
vn 0.0854 0.0000 -0.9963
vn 0.0417 0.7011 -0.7119
vn -0.0011 -0.6997 -0.7144
vn 0.0316 0.0000 -0.9995
vn -0.0011 0.6997 -0.7144
vn -0.0504 -0.6991 -0.7132
vn -0.0347 0.0000 -0.9994
vn -0.0504 0.6991 -0.7132
vn -0.1022 -0.6989 -0.7079
vn -0.1062 0.0000 -0.9943
vn -0.1022 0.6989 -0.7079
vn -0.1549 -0.6987 -0.6985
vn -0.1794 0.0000 -0.9838
vn -0.1549 0.6987 -0.6985
vn -0.2077 -0.6986 -0.6847
vn -0.2534 0.0000 -0.9674
vn -0.2077 0.6986 -0.6847
vn -0.2594 -0.6986 -0.6668
vn -0.3266 0.0000 -0.9451
vn -0.2594 0.6986 -0.6668
vn -0.3094 -0.6987 -0.6451
vn -0.3980 0.0000 -0.9174
vn -0.3094 0.6987 -0.6451
vn -0.3566 -0.6989 -0.6200
vn -0.4662 0.0000 -0.8847
vn -0.3566 0.6989 -0.6200
vn -0.4005 -0.6992 -0.5922
vn -0.5303 0.0000 -0.8478
vn -0.4005 0.6992 -0.5922
vn -0.4470 -0.6975 -0.5600
vn -0.5894 0.0000 -0.8078
vn -0.4470 0.6975 -0.5600
vn -0.5008 -0.6952 -0.5157
vn -0.6571 0.0000 -0.7538
vn -0.5008 0.6952 -0.5157
vn -0.5543 -0.6948 -0.4582
vn -0.7343 0.0000 -0.6788
vn -0.5543 0.6948 -0.4582
vn -0.6018 -0.6948 -0.3939
vn -0.8049 0.0000 -0.5934
vn -0.6018 0.6948 -0.3939
vn -0.6413 -0.6950 -0.3251
vn -0.8659 0.0000 -0.5002
vn -0.6413 0.6950 -0.3251
vn -0.6719 -0.6955 -0.2546
vn -0.9153 0.0000 -0.4028
vn -0.6719 0.6955 -0.2546
vn -0.6936 -0.6962 -0.1851
vn -0.9524 0.0000 -0.3050
vn -0.6936 0.6962 -0.1851
vn -0.7071 -0.6970 -0.1187
vn -0.9777 0.0000 -0.2101
vn -0.7071 0.6970 -0.1187
vn -0.7139 -0.6979 -0.0570
vn -0.9927 0.0000 -0.1207
vn -0.7139 0.6979 -0.0570
vn -0.5983 -0.5772 0.5558
vn -0.9993 0.0000 -0.0383
vn -0.5983 0.5772 0.5558
vn -0.0540 -0.7167 0.6953
vn -0.0353 0.0000 0.9994
vn -0.0540 0.7167 0.6953
vn -0.1198 -0.7194 0.6842
vn -0.1193 0.0000 0.9929
vn -0.1198 0.7194 0.6842
vn -0.2016 -0.7230 0.6608
vn -0.2252 0.0000 0.9743
vn -0.2016 0.7230 0.6608
vn -0.3004 -0.7274 0.6169
vn -0.3572 0.0000 0.9340
vn -0.3004 0.7274 0.6169
vn -0.4116 -0.7322 0.5427
vn -0.5151 0.0000 0.8572
vn -0.4116 0.7322 0.5427
vn -0.5217 -0.7356 0.4321
vn -0.6866 0.0000 0.7271
vn -0.5217 0.7356 0.4321
vn -0.6109 -0.7360 0.2916
vn -0.8422 0.0000 0.5391
vn -0.6109 0.7360 0.2916
vn -0.6652 -0.7331 0.1414
vn -0.9488 0.0000 0.3158
vn -0.6652 0.7331 0.1414
vn -0.6950 -0.7183 0.0339
vn -0.9952 0.0000 0.0974
vn -0.6950 0.7183 0.0339
vn -0.7078 -0.7064 0.0022
vn -1.0000 0.0000 -0.0000
vn -0.7078 0.7064 0.0022
vn -0.7140 -0.6995 0.0288
vn -1.0000 0.0000 0.0063
vn -0.7140 0.6995 0.0288
vn -0.7084 -0.7027 0.0668
vn -0.9972 0.0000 0.0742
vn -0.7084 0.7027 0.0668
vn -0.7053 -0.7024 0.0959
vn -0.9935 0.0000 0.1136
vn -0.7053 0.7024 0.0959
vn -0.7008 -0.7020 0.1268
vn -0.9878 0.0000 0.1557
vn -0.7008 0.7020 0.1268
vn -0.6944 -0.7017 0.1596
vn -0.9797 0.0000 0.2003
vn -0.6944 0.7017 0.1596
vn -0.6858 -0.7013 0.1943
vn -0.9689 0.0000 0.2476
vn -0.6858 0.7013 0.1943
vn -0.6749 -0.7010 0.2306
vn -0.9548 0.0000 0.2973
vn -0.6749 0.7010 0.2306
vn -0.6611 -0.7006 0.2684
vn -0.9371 0.0000 0.3492
vn -0.6611 0.7006 0.2684
vn -0.6443 -0.7003 0.3074
vn -0.9153 0.0000 0.4029
vn -0.6443 0.7003 0.3074
vn -0.6224 -0.6976 0.3550
vn -0.8890 0.0000 0.4579
vn -0.6224 0.6976 0.3550
vn -0.5918 -0.6996 0.4005
vn -0.8466 0.0000 0.5322
vn -0.5918 0.6996 0.4005
vn -0.5632 -0.6994 0.4401
vn -0.8087 0.0000 0.5882
vn -0.5632 0.6994 0.4401
vn -0.5313 -0.6993 0.4782
vn -0.7662 0.0000 0.6426
vn -0.5313 0.6993 0.4782
vn -0.4965 -0.6993 0.5142
vn -0.7194 0.0000 0.6946
vn -0.4965 0.6993 0.5142
vn -0.4594 -0.6994 0.5476
vn -0.6690 0.0000 0.7433
vn -0.4594 0.6994 0.5476
vn -0.4204 -0.6995 0.5779
vn -0.6156 0.0000 0.7880
vn -0.4204 0.6995 0.5779
vn -0.3804 -0.6997 0.6048
vn -0.5603 0.0000 0.8283
vn -0.3804 0.6997 0.6048
vn -0.3398 -0.6999 0.6282
vn -0.5039 0.0000 0.8638
vn -0.3398 0.6999 0.6282
vn -0.3020 -0.7012 0.6458
vn -0.4472 0.0000 0.8944
vn -0.3020 0.7012 0.6458
vn -0.2653 -0.7004 0.6626
vn -0.3996 0.0000 0.9167
vn -0.2653 0.7004 0.6626
vn -0.2259 -0.7007 0.6767
vn -0.3436 0.0000 0.9391
vn -0.2259 0.7007 0.6767
vn -0.1879 -0.7011 0.6879
vn -0.2894 0.0000 0.9572
vn -0.1879 0.7011 0.6879
vn -0.1517 -0.7015 0.6964
vn -0.2375 0.0000 0.9714
vn -0.1517 0.7015 0.6964
vn -0.1174 -0.7018 0.7026
vn -0.1881 0.0000 0.9822
vn -0.1174 0.7018 0.7026
vn -0.0851 -0.7022 0.7069
vn -0.1414 0.0000 0.9899
vn -0.0851 0.7022 0.7069
vn -0.0548 -0.7025 0.7096
vn -0.0976 0.0000 0.9952
vn -0.0548 0.7025 0.7096
vn -0.0266 -0.7028 0.7109
vn -0.0565 0.0000 0.9984
vn -0.0266 0.7028 0.7109
vn 0.0053 -0.7014 0.7127
vn -0.0182 0.0000 0.9998
vn 0.0053 0.7014 0.7127
vn 0.0479 -0.6995 0.7130
vn 0.0329 0.0000 0.9995
vn 0.0479 0.6995 0.7130
vn 0.0973 -0.6992 0.7083
vn 0.1009 0.0000 0.9949
vn 0.0973 0.6992 0.7083
vn 0.1480 -0.6990 0.6997
vn 0.1711 0.0000 0.9853
vn 0.1480 0.6990 0.6997
vn 0.1991 -0.6988 0.6870
vn 0.2425 0.0000 0.9702
vn 0.1991 0.6988 0.6870
vn 0.2498 -0.6988 0.6703
vn 0.3138 0.0000 0.9495
vn 0.2498 0.6988 0.6703
vn 0.2992 -0.6988 0.6497
vn 0.3840 0.0000 0.9233
vn 0.2992 0.6988 0.6497
vn 0.3464 -0.6989 0.6257
vn 0.4519 0.0000 0.8921
vn 0.3464 0.6989 0.6257
vn 0.3909 -0.6991 0.5987
vn 0.5163 0.0000 0.8564
vn 0.3909 0.6991 0.5987
vn 0.4389 -0.6972 0.5668
vn 0.5764 0.0000 0.8172
vn 0.4389 0.6972 0.5668
vn 0.4954 -0.6947 0.5215
vn 0.6470 0.0000 0.7625
vn 0.4954 0.6947 0.5215
vn 0.5515 -0.6944 0.4622
vn 0.7283 0.0000 0.6853
vn 0.5515 0.6944 0.4622
vn 0.6008 -0.6944 0.3959
vn 0.8021 0.0000 0.5972
vn 0.6008 0.6944 0.3959
vn 0.6414 -0.6948 0.3254
vn 0.8652 0.0000 0.5015
vn 0.6414 0.6948 0.3254
vn 0.6724 -0.6954 0.2537
vn 0.9156 0.0000 0.4020
vn 0.6724 0.6954 0.2537
vn 0.6940 -0.6962 0.1836
vn 0.9530 0.0000 0.3030
vn 0.6940 0.6962 0.1836
vn 0.7073 -0.6971 0.1172
vn 0.9782 0.0000 0.2078
vn 0.7073 0.6971 0.1172
vn 0.7139 -0.6980 0.0561
vn 0.9929 0.0000 0.1189
vn 0.7139 0.6980 0.0561
vn 0.7180 -0.6960 -0.0090
vn 0.9993 0.0000 0.0376
vn 0.7180 0.6960 -0.0090
vn 0.7162 -0.6909 -0.0982
vn 0.9980 0.0000 -0.0626
vn 0.7162 0.6909 -0.0982
vn 0.6938 -0.6875 -0.2142
vn 0.9780 0.0000 -0.2084
vn 0.6938 0.6875 -0.2142
vn 0.6423 -0.6846 -0.3446
vn 0.9253 0.0000 -0.3792
vn 0.6423 0.6846 -0.3446
vn 0.5555 -0.6831 -0.4741
vn 0.8277 0.0000 -0.5612
vn 0.5555 0.6831 -0.4741
vn 0.4393 -0.6837 -0.5827
vn 0.6843 0.0000 -0.7292
vn 0.4393 0.6837 -0.5827
vn 0.3114 -0.6862 -0.6574
vn 0.5127 0.0000 -0.8585
vn 0.3114 0.6862 -0.6574
vn 0.1904 -0.6895 -0.6989
vn 0.3395 0.0000 -0.9406
vn 0.1904 0.6895 -0.6989
vn 0.0866 -0.6927 -0.7160
vn 0.1845 0.0000 -0.9828
vn 0.0866 0.6927 -0.7160
vn 0.3196 -0.8980 -0.3024
vn 0.0551 0.0000 -0.9985
vn 0.3196 0.8980 -0.3024
vn 1.0000 0.0000 -0.0000
vn 0.0925 -0.7238 -0.6837
vn 0.2000 -0.7276 -0.6563
vn 0.2058 0.0000 -0.9786
vn 0.2000 0.7276 -0.6563
vn 0.0925 0.7238 -0.6837
vn 0.3194 -0.7309 -0.6031
vn 0.3749 0.0000 -0.9271
vn 0.3194 0.7309 -0.6031
vn 0.4384 -0.7328 -0.5204
vn 0.5561 0.0000 -0.8311
vn 0.4384 0.7328 -0.5204
vn 0.5413 -0.7322 -0.4134
vn 0.7246 0.0000 -0.6892
vn 0.5413 0.7322 -0.4134
vn 0.6166 -0.7295 -0.2959
vn 0.8555 0.0000 -0.5178
vn 0.6166 0.7295 -0.2959
vn 0.6630 -0.7259 -0.1830
vn 0.9391 0.0000 -0.3435
vn 0.6630 0.7259 -0.1830
vn 0.6865 -0.7223 -0.0841
vn 0.9824 0.0000 -0.1869
vn 0.6865 0.7223 -0.0841
vn 0.6938 -0.7202 0.0009
vn 0.9984 0.0000 -0.0559
vn 0.6938 0.7202 0.0009
vn 0.6853 -0.7230 0.0878
vn 0.9983 0.0000 0.0584
vn 0.6853 0.7230 0.0878
vn 0.6601 -0.7266 0.1905
vn 0.9808 0.0000 0.1951
vn 0.6601 0.7266 0.1905
vn 0.6107 -0.7302 0.3064
vn 0.9340 0.0000 0.3574
vn 0.6107 0.7302 0.3064
vn 0.5321 -0.7325 0.4247
vn 0.8449 0.0000 0.5349
vn 0.5321 0.7325 0.4247
vn 0.4272 -0.7325 0.5299
vn 0.7089 0.0000 0.7053
vn 0.4272 0.7325 0.5299
vn 0.3088 -0.7303 0.6094
vn 0.5388 0.0000 0.8424
vn 0.3088 0.7303 0.6094
vn 0.1922 -0.7268 0.6594
vn 0.3606 0.0000 0.9327
vn 0.1922 0.7268 0.6594
vn 0.0887 -0.7231 0.6850
vn 0.1971 0.0000 0.9804
vn 0.0887 0.7231 0.6850
vn 0.0003 -0.7205 0.6934
vn 0.0590 0.0000 0.9983
vn 0.0003 0.7205 0.6934
vn -0.0874 -0.7229 0.6854
vn -0.0581 0.0000 0.9983
vn -0.0874 0.7229 0.6854
vn -0.1896 -0.7265 0.6605
vn -0.1942 0.0000 0.9810
vn -0.1896 0.7265 0.6605
vn -0.3052 -0.7301 0.6114
vn -0.3558 0.0000 0.9346
vn -0.3052 0.7301 0.6114
vn -0.4234 -0.7325 0.5331
vn -0.5330 0.0000 0.8461
vn -0.4234 0.7325 0.5331
vn -0.5289 -0.7326 0.4285
vn -0.7035 0.0000 0.7107
vn -0.5289 0.7326 0.4285
vn -0.6087 -0.7304 0.3099
vn -0.8412 0.0000 0.5408
vn -0.6087 0.7304 0.3099
vn -0.6591 -0.7269 0.1931
vn -0.9321 0.0000 0.3622
vn -0.6591 0.7269 0.1931
vn -0.6849 -0.7232 0.0891
vn -0.9802 0.0000 0.1980
vn -0.6849 0.7232 0.0891
vn -0.6936 -0.7204 0.0009
vn -0.9982 0.0000 0.0593
vn -0.6936 0.7204 0.0009
vn -0.6861 -0.7225 -0.0854
vn -0.9984 0.0000 -0.0567
vn -0.6861 0.7225 -0.0854
vn -0.6621 -0.7261 -0.1855
vn -0.9819 0.0000 -0.1896
vn -0.6621 0.7261 -0.1855
vn -0.6147 -0.7297 -0.2995
vn -0.9374 0.0000 -0.3482
vn -0.6147 0.7297 -0.2995
vn -0.5382 -0.7323 -0.4173
vn -0.8520 0.0000 -0.5236
vn -0.5382 0.7323 -0.4173
vn -0.4346 -0.7327 -0.5237
vn -0.7193 0.0000 -0.6947
vn -0.4346 0.7327 -0.5237
vn -0.3157 -0.7307 -0.6053
vn -0.5502 0.0000 -0.8350
vn -0.3157 0.7307 -0.6053
vn -0.1973 -0.7273 -0.6574
vn -0.3700 0.0000 -0.9290
vn -0.1973 0.7273 -0.6574
vn -0.0912 -0.7236 -0.6842
vn -0.2028 0.0000 -0.9792
vn -0.0912 0.7236 -0.6842
vn 0.0003 -0.7212 -0.6928
vn -0.0608 0.0000 -0.9982
vn 0.0003 0.7212 -0.6928
vn 0.0617 0.0000 -0.9981
vn 0.0000 -1.0000 -0.0000
vn 0.0000 1.0000 -0.0000
# 607 vertex normals

o Vowels_7
g Vowels_7
s 1
f 1//1 2//2 3//3 
f 2//2 4//4 3//3 
f 4//4 5//5 3//3 
f 5//5 1//1 3//3 
s 3
f 2//2 6//6 7//7 
f 6//6 8//8 7//7 
f 8//8 4//4 7//7 
f 4//4 2//2 7//7 
s 2
f 6//6 9//9 10//10 
f 9//9 11//11 10//10 
f 11//11 8//8 10//10 
f 8//8 6//6 10//10 
f 9//9 12//12 13//13 
f 12//12 14//14 13//13 
f 14//14 11//11 13//13 
f 11//11 9//9 13//13 
f 12//12 15//15 16//16 
f 15//15 17//17 16//16 
f 17//17 14//14 16//16 
f 14//14 12//12 16//16 
f 15//15 18//18 19//19 
f 18//18 20//20 19//19 
f 20//20 17//17 19//19 
f 17//17 15//15 19//19 
f 18//18 21//21 22//22 
f 21//21 23//23 22//22 
f 23//23 20//20 22//22 
f 20//20 18//18 22//22 
f 21//21 24//24 25//25 
f 24//24 26//26 25//25 
f 26//26 23//23 25//25 
f 23//23 21//21 25//25 
f 24//24 27//27 28//28 
f 27//27 29//29 28//28 
f 29//29 26//26 28//28 
f 26//26 24//24 28//28 
f 27//27 30//30 31//31 
f 30//30 32//32 31//31 
f 32//32 29//29 31//31 
f 29//29 27//27 31//31 
f 30//30 33//33 34//34 
f 33//33 35//35 34//34 
f 35//35 32//32 34//34 
f 32//32 30//30 34//34 
f 33//33 36//36 37//37 
f 36//36 38//38 37//37 
f 38//38 35//35 37//37 
f 35//35 33//33 37//37 
f 36//36 39//39 40//40 
f 39//39 41//41 40//40 
f 41//41 38//38 40//40 
f 38//38 36//36 40//40 
f 39//39 42//42 43//43 
f 42//42 44//44 43//43 
f 44//44 41//41 43//43 
f 41//41 39//39 43//43 
f 42//42 45//45 46//46 
f 45//45 47//47 46//46 
f 47//47 44//44 46//46 
f 44//44 42//42 46//46 
f 45//45 48//48 49//49 
f 48//48 50//50 49//49 
f 50//50 47//47 49//49 
f 47//47 45//45 49//49 
f 48//48 51//51 52//52 
f 51//51 53//53 52//52 
f 53//53 50//50 52//52 
f 50//50 48//48 52//52 
f 51//51 54//54 55//55 
f 54//54 56//56 55//55 
f 56//56 53//53 55//55 
f 53//53 51//51 55//55 
s 4
f 54//54 57//57 58//58 
f 57//57 59//59 58//58 
f 59//59 56//56 58//58 
f 56//56 54//54 58//58 
f 57//57 60//60 61//61 
f 60//60 62//62 61//61 
f 62//62 59//59 61//61 
f 59//59 57//57 61//61 
f 60//60 63//63 64//64 
f 63//63 65//65 64//64 
f 65//65 62//62 64//64 
f 62//62 60//60 64//64 
f 63//63 66//66 67//67 
f 66//66 68//68 67//67 
f 68//68 65//65 67//67 
f 65//65 63//63 67//67 
f 66//66 69//69 70//70 
f 69//69 71//71 70//70 
f 71//71 68//68 70//70 
f 68//68 66//66 70//70 
f 69//69 72//72 73//73 
f 72//72 74//74 73//73 
f 74//74 71//71 73//73 
f 71//71 69//69 73//73 
f 72//72 75//75 76//76 
f 75//75 77//77 76//76 
f 77//77 74//74 76//76 
f 74//74 72//72 76//76 
f 75//75 78//78 79//79 
f 78//78 80//80 79//79 
f 80//80 77//77 79//79 
f 77//77 75//75 79//79 
f 78//78 81//81 82//82 
f 81//81 83//83 82//82 
f 83//83 80//80 82//82 
f 80//80 78//78 82//82 
f 81//81 84//84 85//85 
f 84//84 86//86 85//85 
f 86//86 83//83 85//85 
f 83//83 81//81 85//85 
f 84//84 87//87 88//88 
f 87//87 89//89 88//88 
f 89//89 86//86 88//88 
f 86//86 84//84 88//88 
f 87//87 90//90 91//91 
f 90//90 92//92 91//91 
f 92//92 89//89 91//91 
f 89//89 87//87 91//91 
f 90//90 93//93 94//94 
f 93//93 95//95 94//94 
f 95//95 92//92 94//94 
f 92//92 90//90 94//94 
f 93//93 96//96 97//97 
f 96//96 98//98 97//97 
f 98//98 95//95 97//97 
f 95//95 93//93 97//97 
f 96//96 99//99 100//100 
f 99//99 101//101 100//100 
f 101//101 98//98 100//100 
f 98//98 96//96 100//100 
f 99//99 102//102 103//103 
f 102//102 104//104 103//103 
f 104//104 101//101 103//103 
f 101//101 99//99 103//103 
f 102//102 105//105 106//106 
f 105//105 107//107 106//106 
f 107//107 104//104 106//106 
f 104//104 102//102 106//106 
f 105//105 108//108 109//109 
f 108//108 110//110 109//109 
f 110//110 107//107 109//109 
f 107//107 105//105 109//109 
s 2
f 108//108 111//111 112//112 
f 111//111 113//113 112//112 
f 113//113 110//110 112//112 
f 110//110 108//108 112//112 
f 111//111 114//114 115//115 
f 114//114 116//116 115//115 
f 116//116 113//113 115//115 
f 113//113 111//111 115//115 
f 114//114 117//117 118//118 
f 117//117 119//119 118//118 
f 119//119 116//116 118//118 
f 116//116 114//114 118//118 
f 117//117 120//120 121//121 
f 120//120 122//122 121//121 
f 122//122 119//119 121//121 
f 119//119 117//117 121//121 
f 120//120 123//123 124//124 
f 123//123 125//125 124//124 
f 125//125 122//122 124//124 
f 122//122 120//120 124//124 
f 123//123 126//126 127//94 
f 126//126 128//127 127//94 
f 128//127 125//125 127//94 
f 125//125 123//123 127//94 
f 126//126 129//128 130//129 
f 129//128 131//130 130//129 
f 131//130 128//127 130//129 
f 128//127 126//126 130//129 
f 129//128 132//131 133//132 
f 132//131 134//133 133//132 
f 134//133 131//130 133//132 
f 131//130 129//128 133//132 
f 132//131 135//134 136//135 
f 135//134 137//136 136//135 
f 137//136 134//133 136//135 
f 134//133 132//131 136//135 
f 135//134 138//137 139//138 
f 138//137 140//139 139//138 
f 140//139 137//136 139//138 
f 137//136 135//134 139//138 
f 138//137 141//140 142//141 
f 141//140 143//142 142//141 
f 143//142 140//139 142//141 
f 140//139 138//137 142//141 
f 141//140 144//143 145//144 
f 144//143 146//145 145//144 
f 146//145 143//142 145//144 
f 143//142 141//140 145//144 
f 144//143 147//146 148//147 
f 147//146 149//148 148//147 
f 149//148 146//145 148//147 
f 146//145 144//143 148//147 
f 147//146 150//149 151//150 
f 150//149 152//151 151//150 
f 152//151 149//148 151//150 
f 149//148 147//146 151//150 
f 150//149 153//152 154//153 
f 153//152 155//154 154//153 
f 155//154 152//151 154//153 
f 152//151 150//149 154//153 
f 153//152 156//155 157//156 
f 156//155 158//157 157//156 
f 158//157 155//154 157//156 
f 155//154 153//152 157//156 
f 156//155 159//158 160//159 
f 159//158 161//160 160//159 
f 161//160 158//157 160//159 
f 158//157 156//155 160//159 
f 159//158 162//161 163//162 
f 162//161 164//163 163//162 
f 164//163 161//160 163//162 
f 161//160 159//158 163//162 
s 4
f 162//161 165//164 166//165 
f 165//164 167//166 166//165 
f 167//166 164//163 166//165 
f 164//163 162//161 166//165 
s 2
f 165//164 168//167 169//168 
f 168//167 170//169 169//168 
f 170//169 167//166 169//168 
f 167//166 165//164 169//168 
f 168//167 171//170 172//171 
f 171//170 173//172 172//171 
f 173//172 170//169 172//171 
f 170//169 168//167 172//171 
f 171//170 174//173 175//174 
f 174//173 176//175 175//174 
f 176//175 173//172 175//174 
f 173//172 171//170 175//174 
f 174//173 177//176 178//177 
f 177//176 179//178 178//177 
f 179//178 176//175 178//177 
f 176//175 174//173 178//177 
f 177//176 180//179 181//180 
f 180//179 182//181 181//180 
f 182//181 179//178 181//180 
f 179//178 177//176 181//180 
f 180//179 183//182 184//183 
f 183//182 185//184 184//183 
f 185//184 182//181 184//183 
f 182//181 180//179 184//183 
f 183//182 186//185 187//186 
f 186//185 188//187 187//186 
f 188//187 185//184 187//186 
f 185//184 183//182 187//186 
f 186//185 189//188 190//189 
f 189//188 191//190 190//189 
f 191//190 188//187 190//189 
f 188//187 186//185 190//189 
f 189//188 192//191 193//192 
f 192//191 194//193 193//192 
f 194//193 191//190 193//192 
f 191//190 189//188 193//192 
f 192//191 195//194 196//195 
f 195//194 197//196 196//195 
f 197//196 194//193 196//195 
f 194//193 192//191 196//195 
f 195//194 198//197 199//198 
f 198//197 200//199 199//198 
f 200//199 197//196 199//198 
f 197//196 195//194 199//198 
f 198//197 201//200 202//201 
f 201//200 203//202 202//201 
f 203//202 200//199 202//201 
f 200//199 198//197 202//201 
f 201//200 204//203 205//204 
f 204//203 206//205 205//204 
f 206//205 203//202 205//204 
f 203//202 201//200 205//204 
f 204//203 207//206 208//207 
f 207//206 209//208 208//207 
f 209//208 206//205 208//207 
f 206//205 204//203 208//207 
f 207//206 210//209 211//210 
f 210//209 212//211 211//210 
f 212//211 209//208 211//210 
f 209//208 207//206 211//210 
f 210//209 213//212 214//213 
f 213//212 215//214 214//213 
f 215//214 212//211 214//213 
f 212//211 210//209 214//213 
f 213//212 216//215 217//216 
f 216//215 218//217 217//216 
f 218//217 215//214 217//216 
f 215//214 213//212 217//216 
f 216//215 219//218 220//219 
f 219//218 221//220 220//219 
f 221//220 218//217 220//219 
f 218//217 216//215 220//219 
f 219//218 222//221 223//222 
f 222//221 224//223 223//222 
f 224//223 221//220 223//222 
f 221//220 219//218 223//222 
f 222//221 225//224 226//225 
f 225//224 227//226 226//225 
f 227//226 224//223 226//225 
f 224//223 222//221 226//225 
f 225//224 228//227 229//228 
f 228//227 230//229 229//228 
f 230//229 227//226 229//228 
f 227//226 225//224 229//228 
f 228//227 231//230 232//231 
f 231//230 233//232 232//231 
f 233//232 230//229 232//231 
f 230//229 228//227 232//231 
f 231//230 234//233 235//234 
f 234//233 236//235 235//234 
f 236//235 233//232 235//234 
f 233//232 231//230 235//234 
f 234//233 237//236 238//237 
f 237//236 239//238 238//237 
f 239//238 236//235 238//237 
f 236//235 234//233 238//237 
f 237//236 240//239 241//240 
f 240//239 242//241 241//240 
f 242//241 239//238 241//240 
f 239//238 237//236 241//240 
f 240//239 243//242 244//243 
f 243//242 245//244 244//243 
f 245//244 242//241 244//243 
f 242//241 240//239 244//243 
f 243//242 246//245 247//246 
f 246//245 248//247 247//246 
f 248//247 245//244 247//246 
f 245//244 243//242 247//246 
f 246//245 249//248 250//249 
f 249//248 251//250 250//249 
f 251//250 248//247 250//249 
f 248//247 246//245 250//249 
f 249//248 252//251 253//252 
f 252//251 254//253 253//252 
f 254//253 251//250 253//252 
f 251//250 249//248 253//252 
f 252//251 255//254 256//255 
f 255//254 257//256 256//255 
f 257//256 254//253 256//255 
f 254//253 252//251 256//255 
f 255//254 258//257 259//258 
f 258//257 260//259 259//258 
f 260//259 257//256 259//258 
f 257//256 255//254 259//258 
f 258//257 261//260 262//261 
f 261//260 263//262 262//261 
f 263//262 260//259 262//261 
f 260//259 258//257 262//261 
f 261//260 264//263 265//264 
f 264//263 266//265 265//264 
f 266//265 263//262 265//264 
f 263//262 261//260 265//264 
f 264//263 267//266 268//267 
f 267//266 269//268 268//267 
f 269//268 266//265 268//267 
f 266//265 264//263 268//267 
f 267//266 270//269 271//270 
f 270//269 272//271 271//270 
f 272//271 269//268 271//270 
f 269//268 267//266 271//270 
f 270//269 273//272 274//273 
f 273//272 275//274 274//273 
f 275//274 272//271 274//273 
f 272//271 270//269 274//273 
f 273//272 276//275 277//276 
f 276//275 278//277 277//276 
f 278//277 275//274 277//276 
f 275//274 273//272 277//276 
f 276//275 279//278 280//279 
f 279//278 281//280 280//279 
f 281//280 278//277 280//279 
f 278//277 276//275 280//279 
f 279//278 282//281 283//282 
f 282//281 284//283 283//282 
f 284//283 281//280 283//282 
f 281//280 279//278 283//282 
f 282//281 285//284 286//285 
f 285//284 287//286 286//285 
f 287//286 284//283 286//285 
f 284//283 282//281 286//285 
f 285//284 288//287 289//288 
f 288//287 290//289 289//288 
f 290//289 287//286 289//288 
f 287//286 285//284 289//288 
f 288//287 291//290 292//291 
f 291//290 293//292 292//291 
f 293//292 290//289 292//291 
f 290//289 288//287 292//291 
f 291//290 294//293 295//294 
f 294//293 296//295 295//294 
f 296//295 293//292 295//294 
f 293//292 291//290 295//294 
f 294//293 297//296 298//297 
f 297//296 299//298 298//297 
f 299//298 296//295 298//297 
f 296//295 294//293 298//297 
f 297//296 300//299 301//300 
f 300//299 302//301 301//300 
f 302//301 299//298 301//300 
f 299//298 297//296 301//300 
s 4
f 300//299 303//302 304//303 
f 303//302 305//304 304//303 
f 305//304 302//301 304//303 
f 302//301 300//299 304//303 
f 303//302 306//305 307//306 
f 306//305 308//307 307//306 
f 308//307 305//304 307//306 
f 305//304 303//302 307//306 
f 306//305 309//308 310//309 
f 309//308 311//310 310//309 
f 311//310 308//307 310//309 
f 308//307 306//305 310//309 
f 309//308 312//311 313//312 
f 312//311 314//313 313//312 
f 314//313 311//310 313//312 
f 311//310 309//308 313//312 
f 312//311 315//314 316//315 
f 315//314 317//316 316//315 
f 317//316 314//313 316//315 
f 314//313 312//311 316//315 
f 315//314 318//317 319//318 
f 318//317 320//319 319//318 
f 320//319 317//316 319//318 
f 317//316 315//314 319//318 
f 318//317 321//320 322//321 
f 321//320 323//322 322//321 
f 323//322 320//319 322//321 
f 320//319 318//317 322//321 
f 321//320 324//323 325//324 
f 324//323 326//325 325//324 
f 326//325 323//322 325//324 
f 323//322 321//320 325//324 
f 324//323 327//326 328//327 
f 327//326 329//328 328//327 
f 329//328 326//325 328//327 
f 326//325 324//323 328//327 
s 2
f 327//326 330//329 331//330 
f 330//329 332//331 331//330 
f 332//331 329//328 331//330 
f 329//328 327//326 331//330 
s 4
f 330//329 333//332 334//333 
f 333//332 335//334 334//333 
f 335//334 332//331 334//333 
f 332//331 330//329 334//333 
s 2
f 333//332 336//335 337//336 
f 336//335 338//337 337//336 
f 338//337 335//334 337//336 
f 335//334 333//332 337//336 
f 336//335 339//338 340//339 
f 339//338 341//340 340//339 
f 341//340 338//337 340//339 
f 338//337 336//335 340//339 
f 339//338 342//341 343//342 
f 342//341 344//343 343//342 
f 344//343 341//340 343//342 
f 341//340 339//338 343//342 
f 342//341 345//344 346//345 
f 345//344 347//346 346//345 
f 347//346 344//343 346//345 
f 344//343 342//341 346//345 
f 345//344 348//347 349//348 
f 348//347 350//349 349//348 
f 350//349 347//346 349//348 
f 347//346 345//344 349//348 
f 348//347 351//350 352//351 
f 351//350 353//352 352//351 
f 353//352 350//349 352//351 
f 350//349 348//347 352//351 
f 351//350 354//353 355//354 
f 354//353 356//355 355//354 
f 356//355 353//352 355//354 
f 353//352 351//350 355//354 
f 354//353 357//356 358//357 
f 357//356 359//358 358//357 
f 359//358 356//355 358//357 
f 356//355 354//353 358//357 
f 357//356 360//359 361//360 
f 360//359 362//361 361//360 
f 362//361 359//358 361//360 
f 359//358 357//356 361//360 
s 4
f 360//359 363//362 364//363 
f 363//362 365//364 364//363 
f 365//364 362//361 364//363 
f 362//361 360//359 364//363 
f 363//362 366//365 367//366 
f 366//365 368//367 367//366 
f 368//367 365//364 367//366 
f 365//364 363//362 367//366 
f 366//365 369//368 370//369 
f 369//368 371//370 370//369 
f 371//370 368//367 370//369 
f 368//367 366//365 370//369 
f 369//368 372//371 373//372 
f 372//371 374//373 373//372 
f 374//373 371//370 373//372 
f 371//370 369//368 373//372 
f 372//371 375//374 376//375 
f 375//374 377//376 376//375 
f 377//376 374//373 376//375 
f 374//373 372//371 376//375 
f 375//374 378//377 379//378 
f 378//377 380//379 379//378 
f 380//379 377//376 379//378 
f 377//376 375//374 379//378 
f 378//377 381//380 382//381 
f 381//380 383//382 382//381 
f 383//382 380//379 382//381 
f 380//379 378//377 382//381 
f 381//380 384//383 385//384 
f 384//383 386//385 385//384 
f 386//385 383//382 385//384 
f 383//382 381//380 385//384 
f 384//383 387//386 388//387 
f 387//386 389//388 388//387 
f 389//388 386//385 388//387 
f 386//385 384//383 388//387 
s 2
f 387//386 390//389 391//390 
f 390//389 392//391 391//390 
f 392//391 389//388 391//390 
f 389//388 387//386 391//390 
f 390//389 393//392 394//393 
f 393//392 395//394 394//393 
f 395//394 392//391 394//393 
f 392//391 390//389 394//393 
f 393//392 396//395 397//396 
f 396//395 398//397 397//396 
f 398//397 395//394 397//396 
f 395//394 393//392 397//396 
f 396//395 399//398 400//399 
f 399//398 401//400 400//399 
f 401//400 398//397 400//399 
f 398//397 396//395 400//399 
f 399//398 402//401 403//402 
f 402//401 404//403 403//402 
f 404//403 401//400 403//402 
f 401//400 399//398 403//402 
f 402//401 405//404 406//405 
f 405//404 407//406 406//405 
f 407//406 404//403 406//405 
f 404//403 402//401 406//405 
f 405//404 408//407 409//408 
f 408//407 410//409 409//408 
f 410//409 407//406 409//408 
f 407//406 405//404 409//408 
f 408//407 411//410 412//411 
f 411//410 413//412 412//411 
f 413//412 410//409 412//411 
f 410//409 408//407 412//411 
f 411//410 414//413 415//414 
f 414//413 416//415 415//414 
f 416//415 413//412 415//414 
f 413//412 411//410 415//414 
f 414//413 417//416 418//417 
f 417//416 419//418 418//417 
f 419//418 416//415 418//417 
f 416//415 414//413 418//417 
f 417//416 420//419 421//420 
f 420//419 422//421 421//420 
f 422//421 419//418 421//420 
f 419//418 417//416 421//420 
f 420//419 423//422 424//423 
f 423//422 425//424 424//423 
f 425//424 422//421 424//423 
f 422//421 420//419 424//423 
f 423//422 426//425 427//426 
f 426//425 428//427 427//426 
f 428//427 425//424 427//426 
f 425//424 423//422 427//426 
f 426//425 429//428 430//429 
f 429//428 431//430 430//429 
f 431//430 428//427 430//429 
f 428//427 426//425 430//429 
f 429//428 432//431 433//432 
f 432//431 434//433 433//432 
f 434//433 431//430 433//432 
f 431//430 429//428 433//432 
f 432//431 435//434 436//435 
f 435//434 437//436 436//435 
f 437//436 434//433 436//435 
f 434//433 432//431 436//435 
f 435//434 438//437 439//438 
f 438//437 440//439 439//438 
f 440//439 437//436 439//438 
f 437//436 435//434 439//438 
f 438//437 441//440 442//441 
f 441//440 443//442 442//441 
f 443//442 440//439 442//441 
f 440//439 438//437 442//441 
f 441//440 444//443 445//444 
f 444//443 446//445 445//444 
f 446//445 443//442 445//444 
f 443//442 441//440 445//444 
f 444//443 447//446 448//447 
f 447//446 449//448 448//447 
f 449//448 446//445 448//447 
f 446//445 444//443 448//447 
f 447//446 450//449 451//450 
f 450//449 452//451 451//450 
f 452//451 449//448 451//450 
f 449//448 447//446 451//450 
f 450//449 453//452 454//453 
f 453//452 455//454 454//453 
f 455//454 452//451 454//453 
f 452//451 450//449 454//453 
f 453//452 456//455 457//456 
f 456//455 458//457 457//456 
f 458//457 455//454 457//456 
f 455//454 453//452 457//456 
f 456//455 459//458 460//459 
f 459//458 461//460 460//459 
f 461//460 458//457 460//459 
f 458//457 456//455 460//459 
f 459//458 462//461 463//462 
f 462//461 464//463 463//462 
f 464//463 461//460 463//462 
f 461//460 459//458 463//462 
f 462//461 465//464 466//465 
f 465//464 467//466 466//465 
f 467//466 464//463 466//465 
f 464//463 462//461 466//465 
f 465//464 468//467 469//468 
f 468//467 470//469 469//468 
f 470//469 467//466 469//468 
f 467//466 465//464 469//468 
f 468//467 471//470 472//471 
f 471//470 473//472 472//471 
f 473//472 470//469 472//471 
f 470//469 468//467 472//471 
f 471//470 474//473 475//474 
f 474//473 476//475 475//474 
f 476//475 473//472 475//474 
f 473//472 471//470 475//474 
f 474//473 477//476 478//477 
f 477//476 479//478 478//477 
f 479//478 476//475 478//477 
f 476//475 474//473 478//477 
f 477//476 480//479 481//480 
f 480//479 482//481 481//480 
f 482//481 479//478 481//480 
f 479//478 477//476 481//480 
f 480//479 483//482 484//483 
f 483//482 485//484 484//483 
f 485//484 482//481 484//483 
f 482//481 480//479 484//483 
f 483//482 486//485 487//486 
f 486//485 488//487 487//486 
f 488//487 485//484 487//486 
f 485//484 483//482 487//486 
f 486//485 489//488 490//489 
f 489//488 491//490 490//489 
f 491//490 488//487 490//489 
f 488//487 486//485 490//489 
f 489//488 492//491 493//492 
f 492//491 494//493 493//492 
f 494//493 491//490 493//492 
f 491//490 489//488 493//492 
f 492//491 495//494 496//495 
f 495//494 497//496 496//495 
f 497//496 494//493 496//495 
f 494//493 492//491 496//495 
s 4
f 495//494 1//1 498//497 
f 1//1 5//5 498//497 
f 5//5 497//496 498//497 
f 497//496 495//494 498//497 
s 1
f 499//498 500//499 501//500 
f 500//499 502//501 501//500 
f 502//501 503//502 501//500 
f 503//502 499//498 501//500 
s 3
f 500//499 504//503 505//504 
f 504//503 506//505 505//504 
f 506//505 502//501 505//504 
f 502//501 500//499 505//504 
s 2
f 504//503 507//506 508//507 
f 507//506 509//508 508//507 
f 509//508 506//505 508//507 
f 506//505 504//503 508//507 
f 507//506 510//509 511//510 
f 510//509 512//511 511//510 
f 512//511 509//508 511//510 
f 509//508 507//506 511//510 
f 510//509 513//512 514//513 
f 513//512 515//514 514//513 
f 515//514 512//511 514//513 
f 512//511 510//509 514//513 
f 513//512 516//515 517//516 
f 516//515 518//517 517//516 
f 518//517 515//514 517//516 
f 515//514 513//512 517//516 
f 516//515 519//518 520//519 
f 519//518 521//520 520//519 
f 521//520 518//517 520//519 
f 518//517 516//515 520//519 
f 519//518 522//521 523//522 
f 522//521 524//523 523//522 
f 524//523 521//520 523//522 
f 521//520 519//518 523//522 
f 522//521 525//524 526//525 
f 525//524 527//526 526//525 
f 527//526 524//523 526//525 
f 524//523 522//521 526//525 
f 525//524 528//527 529//528 
f 528//527 530//529 529//528 
f 530//529 527//526 529//528 
f 527//526 525//524 529//528 
f 528//527 531//530 532//531 
f 531//530 533//532 532//531 
f 533//532 530//529 532//531 
f 530//529 528//527 532//531 
f 531//530 534//533 535//534 
f 534//533 536//535 535//534 
f 536//535 533//532 535//534 
f 533//532 531//530 535//534 
f 534//533 537//536 538//537 
f 537//536 539//538 538//537 
f 539//538 536//535 538//537 
f 536//535 534//533 538//537 
f 537//536 540//539 541//540 
f 540//539 542//541 541//540 
f 542//541 539//538 541//540 
f 539//538 537//536 541//540 
f 540//539 543//542 544//543 
f 543//542 545//544 544//543 
f 545//544 542//541 544//543 
f 542//541 540//539 544//543 
f 543//542 546//545 547//546 
f 546//545 548//547 547//546 
f 548//547 545//544 547//546 
f 545//544 543//542 547//546 
f 546//545 549//548 550//549 
f 549//548 551//550 550//549 
f 551//550 548//547 550//549 
f 548//547 546//545 550//549 
f 549//548 552//551 553//552 
f 552//551 554//553 553//552 
f 554//553 551//550 553//552 
f 551//550 549//548 553//552 
f 552//551 555//554 556//555 
f 555//554 557//556 556//555 
f 557//556 554//553 556//555 
f 554//553 552//551 556//555 
f 555//554 558//557 559//558 
f 558//557 560//559 559//558 
f 560//559 557//556 559//558 
f 557//556 555//554 559//558 
f 558//557 561//560 562//561 
f 561//560 563//562 562//561 
f 563//562 560//559 562//561 
f 560//559 558//557 562//561 
f 561//560 564//563 565//564 
f 564//563 566//565 565//564 
f 566//565 563//562 565//564 
f 563//562 561//560 565//564 
f 564//563 567//566 568//567 
f 567//566 569//568 568//567 
f 569//568 566//565 568//567 
f 566//565 564//563 568//567 
f 567//566 570//569 571//570 
f 570//569 572//571 571//570 
f 572//571 569//568 571//570 
f 569//568 567//566 571//570 
f 570//569 573//572 574//573 
f 573//572 575//574 574//573 
f 575//574 572//571 574//573 
f 572//571 570//569 574//573 
f 573//572 576//575 577//576 
f 576//575 578//577 577//576 
f 578//577 575//574 577//576 
f 575//574 573//572 577//576 
f 576//575 579//578 580//579 
f 579//578 581//580 580//579 
f 581//580 578//577 580//579 
f 578//577 576//575 580//579 
f 579//578 582//581 583//582 
f 582//581 584//583 583//582 
f 584//583 581//580 583//582 
f 581//580 579//578 583//582 
f 582//581 585//584 586//585 
f 585//584 587//586 586//585 
f 587//586 584//583 586//585 
f 584//583 582//581 586//585 
f 585//584 588//587 589//588 
f 588//587 590//589 589//588 
f 590//589 587//586 589//588 
f 587//586 585//584 589//588 
f 588//587 591//590 592//591 
f 591//590 593//592 592//591 
f 593//592 590//589 592//591 
f 590//589 588//587 592//591 
f 591//590 594//593 595//594 
f 594//593 596//595 595//594 
f 596//595 593//592 595//594 
f 593//592 591//590 595//594 
f 594//593 597//596 598//597 
f 597//596 599//598 598//597 
f 599//598 596//595 598//597 
f 596//595 594//593 598//597 
f 597//596 600//599 601//600 
f 600//599 602//601 601//600 
f 602//601 599//598 601//600 
f 599//598 597//596 601//600 
f 600//599 603//602 604//603 
f 603//602 605//604 604//603 
f 605//604 602//601 604//603 
f 602//601 600//599 604//603 
s 3
f 603//602 499//498 606//605 
f 499//498 503//502 606//605 
f 503//502 605//604 606//605 
f 605//604 603//602 606//605 
s 16
f 108//108 105//105 607//606 
f 105//105 216//215 607//606 
f 216//215 213//212 607//606 
f 213//212 108//108 607//606 
f 164//163 167//166 608//607 
f 167//166 170//169 608//607 
f 170//169 164//163 608//607 
f 105//105 102//102 609//606 
f 102//102 219//218 609//606 
f 219//218 216//215 609//606 
f 216//215 105//105 609//606 
f 213//212 210//209 610//606 
f 210//209 111//111 610//606 
f 111//111 108//108 610//606 
f 108//108 213//212 610//606 
f 210//209 207//206 611//606 
f 207//206 114//114 611//606 
f 114//114 111//111 611//606 
f 111//111 210//209 611//606 
f 207//206 204//203 612//606 
f 204//203 114//114 612//606 
f 114//114 207//206 612//606 
f 204//203 201//200 613//606 
f 201//200 117//117 613//606 
f 117//117 114//114 613//606 
f 114//114 204//203 613//606 
f 201//200 198//197 614//606 
f 198//197 120//120 614//606 
f 120//120 117//117 614//606 
f 117//117 201//200 614//606 
f 198//197 195//194 615//606 
f 195//194 126//126 615//606 
f 126//126 123//123 615//606 
f 123//123 120//120 615//606 
f 120//120 198//197 615//606 
f 195//194 192//191 616//606 
f 192//191 129//128 616//606 
f 129//128 126//126 616//606 
f 126//126 195//194 616//606 
f 192//191 189//188 617//606 
f 189//188 135//134 617//606 
f 135//134 132//131 617//606 
f 132//131 129//128 617//606 
f 129//128 192//191 617//606 
f 189//188 186//185 618//606 
f 186//185 138//137 618//606 
f 138//137 135//134 618//606 
f 135//134 189//188 618//606 
f 186//185 183//182 619//606 
f 183//182 144//143 619//606 
f 144//143 141//140 619//606 
f 141//140 138//137 619//606 
f 138//137 186//185 619//606 
f 183//182 180//179 620//606 
f 180//179 147//146 620//606 
f 147//146 144//143 620//606 
f 144//143 183//182 620//606 
f 180//179 177//176 621//606 
f 177//176 153//152 621//606 
f 153//152 150//149 621//606 
f 150//149 147//146 621//606 
f 147//146 180//179 621//606 
f 177//176 174//173 622//606 
f 174//173 156//155 622//606 
f 156//155 153//152 622//606 
f 153//152 177//176 622//606 
f 174//173 171//170 623//606 
f 171//170 162//161 623//606 
f 162//161 159//158 623//606 
f 159//158 156//155 623//606 
f 156//155 174//173 623//606 
f 171//170 168//167 624//606 
f 168//167 162//161 624//606 
f 162//161 171//170 624//606 
f 168//167 165//164 625//606 
f 165//164 162//161 625//606 
f 162//161 168//167 625//606 
f 102//102 99//99 626//606 
f 99//99 222//221 626//606 
f 222//221 219//218 626//606 
f 219//218 102//102 626//606 
f 99//99 96//96 627//606 
f 96//96 225//224 627//606 
f 225//224 222//221 627//606 
f 222//221 99//99 627//606 
f 96//96 93//93 628//606 
f 93//93 228//227 628//606 
f 228//227 225//224 628//606 
f 225//224 96//96 628//606 
f 93//93 90//90 629//606 
f 90//90 231//230 629//606 
f 231//230 228//227 629//606 
f 228//227 93//93 629//606 
f 90//90 87//87 630//606 
f 87//87 234//233 630//606 
f 234//233 231//230 630//606 
f 231//230 90//90 630//606 
f 87//87 84//84 631//606 
f 84//84 237//236 631//606 
f 237//236 234//233 631//606 
f 234//233 87//87 631//606 
f 84//84 81//81 632//606 
f 81//81 240//239 632//606 
f 240//239 237//236 632//606 
f 237//236 84//84 632//606 
f 81//81 78//78 633//606 
f 78//78 249//248 633//606 
f 249//248 246//245 633//606 
f 246//245 243//242 633//606 
f 243//242 240//239 633//606 
f 240//239 81//81 633//606 
f 78//78 75//75 634//606 
f 75//75 252//251 634//606 
f 252//251 249//248 634//606 
f 249//248 78//78 634//606 
f 75//75 72//72 635//606 
f 72//72 258//257 635//606 
f 258//257 255//254 635//606 
f 255//254 252//251 635//606 
f 252//251 75//75 635//606 
f 72//72 69//69 636//606 
f 69//69 261//260 636//606 
f 261//260 258//257 636//606 
f 258//257 72//72 636//606 
f 69//69 66//66 637//606 
f 66//66 267//266 637//606 
f 267//266 264//263 637//606 
f 264//263 261//260 637//606 
f 261//260 69//69 637//606 
f 66//66 63//63 638//606 
f 63//63 270//269 638//606 
f 270//269 267//266 638//606 
f 267//266 66//66 638//606 
f 63//63 60//60 639//606 
f 60//60 276//275 639//606 
f 276//275 273//272 639//606 
f 273//272 270//269 639//606 
f 270//269 63//63 639//606 
f 60//60 57//57 640//606 
f 57//57 282//281 640//606 
f 282//281 279//278 640//606 
f 279//278 276//275 640//606 
f 276//275 60//60 640//606 
f 57//57 54//54 641//606 
f 54//54 309//308 641//606 
f 309//308 306//305 641//606 
f 306//305 282//281 641//606 
f 282//281 57//57 641//606 
f 1//1 495//494 642//606 
f 495//494 531//530 642//606 
f 531//530 1//1 642//606 
f 306//305 303//302 643//606 
f 303//302 291//290 643//606 
f 291//290 288//287 643//606 
f 288//287 285//284 643//606 
f 285//284 282//281 643//606 
f 282//281 306//305 643//606 
f 303//302 300//299 644//606 
f 300//299 297//296 644//606 
f 297//296 294//293 644//606 
f 294//293 291//290 644//606 
f 291//290 303//302 644//606 
f 345//344 342//341 645//606 
f 342//341 339//338 645//606 
f 339//338 336//335 645//606 
f 336//335 646//606 522//521 645//606 
f 522//521 519//518 645//606 
f 519//518 345//344 645//606 
f 531//530 528//527 647//606 
f 528//527 1//1 647//606 
f 1//1 531//530 647//606 
f 528//527 525//524 648//606 
f 525//524 1//1 648//606 
f 1//1 528//527 648//606 
f 525//524 522//521 646//606 
f 336//335 333//332 646//606 
f 333//332 330//329 646//606 
f 330//329 327//326 646//606 
f 327//326 1//1 646//606 
f 1//1 525//524 646//606 
f 327//326 324//323 649//606 
f 324//323 9//9 649//606 
f 9//9 6//6 649//606 
f 6//6 2//2 649//606 
f 2//2 1//1 649//606 
f 1//1 327//326 649//606 
f 324//323 321//320 650//606 
f 321//320 21//21 650//606 
f 21//21 18//18 650//606 
f 18//18 15//15 650//606 
f 15//15 12//12 650//606 
f 12//12 9//9 650//606 
f 9//9 324//323 650//606 
f 321//320 318//317 651//606 
f 318//317 33//33 651//606 
f 33//33 30//30 651//606 
f 30//30 27//27 651//606 
f 27//27 24//24 651//606 
f 24//24 21//21 651//606 
f 21//21 321//320 651//606 
f 318//317 315//314 652//606 
f 315//314 45//45 652//606 
f 45//45 42//42 652//606 
f 42//42 39//39 652//606 
f 39//39 36//36 652//606 
f 36//36 33//33 652//606 
f 33//33 318//317 652//606 
f 315//314 312//311 653//606 
f 312//311 51//51 653//606 
f 51//51 48//48 653//606 
f 48//48 45//45 653//606 
f 45//45 315//314 653//606 
f 312//311 309//308 654//606 
f 309//308 54//54 654//606 
f 54//54 51//51 654//606 
f 51//51 312//311 654//606 
f 519//518 516//515 655//606 
f 516//515 354//353 655//606 
f 354//353 351//350 655//606 
f 351//350 348//347 655//606 
f 348//347 345//344 655//606 
f 345//344 519//518 655//606 
f 516//515 513//512 656//606 
f 513//512 363//362 656//606 
f 363//362 360//359 656//606 
f 360//359 357//356 656//606 
f 357//356 354//353 656//606 
f 354//353 516//515 656//606 
f 513//512 510//509 657//606 
f 510//509 372//371 657//606 
f 372//371 369//368 657//606 
f 369//368 366//365 657//606 
f 366//365 363//362 657//606 
f 363//362 513//512 657//606 
f 510//509 507//506 658//606 
f 507//506 384//383 658//606 
f 384//383 381//380 658//606 
f 381//380 378//377 658//606 
f 378//377 375//374 658//606 
f 375//374 372//371 658//606 
f 372//371 510//509 658//606 
f 507//506 504//503 659//606 
f 504//503 393//392 659//606 
f 393//392 390//389 659//606 
f 390//389 387//386 659//606 
f 387//386 384//383 659//606 
f 384//383 507//506 659//606 
f 504//503 500//499 660//606 
f 500//499 402//401 660//606 
f 402//401 399//398 660//606 
f 399//398 396//395 660//606 
f 396//395 393//392 660//606 
f 393//392 504//503 660//606 
f 500//499 499//498 661//606 
f 499//498 408//407 661//606 
f 408//407 405//404 661//606 
f 405//404 402//401 661//606 
f 402//401 500//499 661//606 
f 499//498 603//602 662//606 
f 603//602 414//413 662//606 
f 414//413 411//410 662//606 
f 411//410 408//407 662//606 
f 408//407 499//498 662//606 
f 603//602 600//599 663//606 
f 600//599 420//419 663//606 
f 420//419 417//416 663//606 
f 417//416 414//413 663//606 
f 414//413 603//602 663//606 
f 600//599 597//596 664//606 
f 597//596 426//425 664//606 
f 426//425 423//422 664//606 
f 423//422 420//419 664//606 
f 420//419 600//599 664//606 
f 597//596 594//593 665//606 
f 594//593 432//431 665//606 
f 432//431 429//428 665//606 
f 429//428 426//425 665//606 
f 426//425 597//596 665//606 
f 594//593 591//590 666//606 
f 591//590 438//437 666//606 
f 438//437 435//434 666//606 
f 435//434 432//431 666//606 
f 432//431 594//593 666//606 
f 591//590 588//587 667//606 
f 588//587 447//446 667//606 
f 447//446 444//443 667//606 
f 444//443 441//440 667//606 
f 441//440 438//437 667//606 
f 438//437 591//590 667//606 
f 588//587 585//584 668//606 
f 585//584 453//452 668//606 
f 453//452 450//449 668//606 
f 450//449 447//446 668//606 
f 447//446 588//587 668//606 
f 585//584 582//581 669//606 
f 582//581 459//458 669//606 
f 459//458 456//455 669//606 
f 456//455 453//452 669//606 
f 453//452 585//584 669//606 
f 582//581 579//578 670//606 
f 579//578 465//464 670//606 
f 465//464 462//461 670//606 
f 462//461 459//458 670//606 
f 459//458 582//581 670//606 
f 579//578 576//575 671//606 
f 576//575 468//467 671//606 
f 468//467 465//464 671//606 
f 465//464 579//578 671//606 
f 576//575 573//572 672//606 
f 573//572 471//470 672//606 
f 471//470 468//467 672//606 
f 468//467 576//575 672//606 
f 573//572 570//569 673//606 
f 570//569 474//473 673//606 
f 474//473 471//470 673//606 
f 471//470 573//572 673//606 
f 570//569 567//566 674//606 
f 567//566 477//476 674//606 
f 477//476 474//473 674//606 
f 474//473 570//569 674//606 
f 567//566 564//563 675//606 
f 564//563 480//479 675//606 
f 480//479 477//476 675//606 
f 477//476 567//566 675//606 
f 564//563 561//560 676//606 
f 561//560 483//482 676//606 
f 483//482 480//479 676//606 
f 480//479 564//563 676//606 
f 561//560 558//557 677//606 
f 558//557 486//485 677//606 
f 486//485 483//482 677//606 
f 483//482 561//560 677//606 
f 558//557 555//554 678//606 
f 555//554 489//488 678//606 
f 489//488 486//485 678//606 
f 486//485 558//557 678//606 
f 555//554 552//551 679//606 
f 552//551 492//491 679//606 
f 492//491 489//488 679//606 
f 489//488 555//554 679//606 
f 552//551 549//548 680//606 
f 549//548 492//491 680//606 
f 492//491 552//551 680//606 
f 549//548 546//545 681//606 
f 546//545 495//494 681//606 
f 495//494 492//491 681//606 
f 492//491 549//548 681//606 
f 546//545 543//542 682//606 
f 543//542 495//494 682//606 
f 495//494 546//545 682//606 
f 543//542 540//539 683//606 
f 540//539 495//494 683//606 
f 495//494 543//542 683//606 
f 540//539 537//536 684//606 
f 537//536 495//494 684//606 
f 495//494 540//539 684//606 
f 537//536 534//533 685//606 
f 534//533 495//494 685//606 
f 495//494 537//536 685//606 
f 534//533 531//530 686//606 
f 531//530 495//494 686//606 
f 495//494 534//533 686//606 
f 170//169 173//172 687//607 
f 173//172 164//163 687//607 
f 164//163 170//169 687//607 
f 173//172 176//175 688//607 
f 176//175 158//157 688//607 
f 158//157 161//160 688//607 
f 161//160 164//163 688//607 
f 164//163 173//172 688//607 
f 176//175 179//178 689//607 
f 179//178 155//154 689//607 
f 155//154 158//157 689//607 
f 158//157 176//175 689//607 
f 179//178 182//181 690//607 
f 182//181 149//148 690//607 
f 149//148 152//151 690//607 
f 152//151 155//154 690//607 
f 155//154 179//178 690//607 
f 182//181 185//184 691//607 
f 185//184 146//145 691//607 
f 146//145 149//148 691//607 
f 149//148 182//181 691//607 
f 185//184 188//187 692//607 
f 188//187 140//139 692//607 
f 140//139 143//142 692//607 
f 143//142 146//145 692//607 
f 146//145 185//184 692//607 
f 188//187 191//190 693//607 
f 191//190 137//136 693//607 
f 137//136 140//139 693//607 
f 140//139 188//187 693//607 
f 191//190 194//193 694//607 
f 194//193 131//130 694//607 
f 131//130 134//133 694//607 
f 134//133 137//136 694//607 
f 137//136 191//190 694//607 
f 194//193 197//196 695//607 
f 197//196 128//127 695//607 
f 128//127 131//130 695//607 
f 131//130 194//193 695//607 
f 197//196 200//199 696//607 
f 200//199 122//122 696//607 
f 122//122 125//125 696//607 
f 125//125 128//127 696//607 
f 128//127 197//196 696//607 
f 200//199 203//202 697//607 
f 203//202 119//119 697//607 
f 119//119 122//122 697//607 
f 122//122 200//199 697//607 
f 203//202 206//205 698//607 
f 206//205 116//116 698//607 
f 116//116 119//119 698//607 
f 119//119 203//202 698//607 
f 206//205 209//208 699//607 
f 209//208 116//116 699//607 
f 116//116 206//205 699//607 
f 209//208 212//211 700//607 
f 212//211 113//113 700//607 
f 113//113 116//116 700//607 
f 116//116 209//208 700//607 
f 212//211 215//214 701//607 
f 215//214 110//110 701//607 
f 110//110 113//113 701//607 
f 113//113 212//211 701//607 
f 215//214 218//217 702//607 
f 218//217 107//107 702//607 
f 107//107 110//110 702//607 
f 110//110 215//214 702//607 
f 218//217 221//220 703//607 
f 221//220 104//104 703//607 
f 104//104 107//107 703//607 
f 107//107 218//217 703//607 
f 293//292 296//295 704//607 
f 296//295 299//298 704//607 
f 299//298 302//301 704//607 
f 302//301 305//304 704//607 
f 305//304 293//292 704//607 
f 305//304 308//307 705//607 
f 308//307 284//283 705//607 
f 284//283 287//286 705//607 
f 287//286 290//289 705//607 
f 290//289 293//292 705//607 
f 293//292 305//304 705//607 
f 308//307 311//310 706//607 
f 311//310 56//56 706//607 
f 56//56 59//59 706//607 
f 59//59 284//283 706//607 
f 284//283 308//307 706//607 
f 311//310 314//313 707//607 
f 314//313 53//53 707//607 
f 53//53 56//56 707//607 
f 56//56 311//310 707//607 
f 59//59 62//62 708//607 
f 62//62 278//277 708//607 
f 278//277 281//280 708//607 
f 281//280 284//283 708//607 
f 284//283 59//59 708//607 
f 62//62 65//65 709//607 
f 65//65 272//271 709//607 
f 272//271 275//274 709//607 
f 275//274 278//277 709//607 
f 278//277 62//62 709//607 
f 65//65 68//68 710//607 
f 68//68 269//268 710//607 
f 269//268 272//271 710//607 
f 272//271 65//65 710//607 
f 68//68 71//71 711//607 
f 71//71 263//262 711//607 
f 263//262 266//265 711//607 
f 266//265 269//268 711//607 
f 269//268 68//68 711//607 
f 71//71 74//74 712//607 
f 74//74 260//259 712//607 
f 260//259 263//262 712//607 
f 263//262 71//71 712//607 
f 74//74 77//77 713//607 
f 77//77 254//253 713//607 
f 254//253 257//256 713//607 
f 257//256 260//259 713//607 
f 260//259 74//74 713//607 
f 77//77 80//80 714//607 
f 80//80 251//250 714//607 
f 251//250 254//253 714//607 
f 254//253 77//77 714//607 
f 80//80 83//83 715//607 
f 83//83 242//241 715//607 
f 242//241 245//244 715//607 
f 245//244 248//247 715//607 
f 248//247 251//250 715//607 
f 251//250 80//80 715//607 
f 83//83 86//86 716//607 
f 86//86 239//238 716//607 
f 239//238 242//241 716//607 
f 242//241 83//83 716//607 
f 86//86 89//89 717//607 
f 89//89 236//235 717//607 
f 236//235 239//238 717//607 
f 239//238 86//86 717//607 
f 89//89 92//92 718//607 
f 92//92 233//232 718//607 
f 233//232 236//235 718//607 
f 236//235 89//89 718//607 
f 92//92 95//95 719//607 
f 95//95 230//229 719//607 
f 230//229 233//232 719//607 
f 233//232 92//92 719//607 
f 95//95 98//98 720//607 
f 98//98 227//226 720//607 
f 227//226 230//229 720//607 
f 230//229 95//95 720//607 
f 98//98 101//101 721//607 
f 101//101 224//223 721//607 
f 224//223 227//226 721//607 
f 227//226 98//98 721//607 
f 101//101 104//104 722//607 
f 104//104 221//220 722//607 
f 221//220 224//223 722//607 
f 224//223 101//101 722//607 
f 314//313 317//316 723//607 
f 317//316 47//47 723//607 
f 47//47 50//50 723//607 
f 50//50 53//53 723//607 
f 53//53 314//313 723//607 
f 317//316 320//319 724//607 
f 320//319 35//35 724//607 
f 35//35 38//38 724//607 
f 38//38 41//41 724//607 
f 41//41 44//44 724//607 
f 44//44 47//47 724//607 
f 47//47 317//316 724//607 
f 320//319 323//322 725//607 
f 323//322 23//23 725//607 
f 23//23 26//26 725//607 
f 26//26 29//29 725//607 
f 29//29 32//32 725//607 
f 32//32 35//35 725//607 
f 35//35 320//319 725//607 
f 323//322 326//325 726//607 
f 326//325 11//11 726//607 
f 11//11 14//14 726//607 
f 14//14 17//17 726//607 
f 17//17 20//20 726//607 
f 20//20 23//23 726//607 
f 23//23 323//322 726//607 
f 326//325 329//328 727//607 
f 329//328 5//5 727//607 
f 5//5 4//4 727//607 
f 4//4 8//8 727//607 
f 8//8 11//11 727//607 
f 11//11 326//325 727//607 
f 329//328 332//331 728//607 
f 332//331 335//334 728//607 
f 335//334 338//337 728//607 
f 524//523 527//526 728//607 
f 527//526 5//5 728//607 
f 5//5 329//328 728//607 
f 527//526 530//529 729//607 
f 530//529 5//5 729//607 
f 5//5 527//526 729//607 
f 530//529 533//532 730//607 
f 533//532 5//5 730//607 
f 5//5 530//529 730//607 
f 533//532 536//535 731//607 
f 536//535 497//496 731//607 
f 497//496 5//5 731//607 
f 5//5 533//532 731//607 
f 536//535 539//538 732//607 
f 539//538 497//496 732//607 
f 497//496 536//535 732//607 
f 539//538 542//541 733//607 
f 542//541 497//496 733//607 
f 497//496 539//538 733//607 
f 542//541 545//544 734//607 
f 545//544 497//496 734//607 
f 497//496 542//541 734//607 
f 545//544 548//547 735//607 
f 548//547 497//496 735//607 
f 497//496 545//544 735//607 
f 548//547 551//550 736//607 
f 551//550 494//493 736//607 
f 494//493 497//496 736//607 
f 497//496 548//547 736//607 
f 551//550 554//553 737//607 
f 554//553 494//493 737//607 
f 494//493 551//550 737//607 
f 554//553 557//556 738//607 
f 557//556 491//490 738//607 
f 491//490 494//493 738//607 
f 494//493 554//553 738//607 
f 557//556 560//559 739//607 
f 560//559 488//487 739//607 
f 488//487 491//490 739//607 
f 491//490 557//556 739//607 
f 560//559 563//562 740//607 
f 563//562 485//484 740//607 
f 485//484 488//487 740//607 
f 488//487 560//559 740//607 
f 563//562 566//565 741//607 
f 566//565 482//481 741//607 
f 482//481 485//484 741//607 
f 485//484 563//562 741//607 
f 566//565 569//568 742//607 
f 569//568 479//478 742//607 
f 479//478 482//481 742//607 
f 482//481 566//565 742//607 
f 569//568 572//571 743//607 
f 572//571 476//475 743//607 
f 476//475 479//478 743//607 
f 479//478 569//568 743//607 
f 572//571 575//574 744//607 
f 575//574 473//472 744//607 
f 473//472 476//475 744//607 
f 476//475 572//571 744//607 
f 575//574 578//577 745//607 
f 578//577 470//469 745//607 
f 470//469 473//472 745//607 
f 473//472 575//574 745//607 
f 578//577 581//580 746//607 
f 581//580 467//466 746//607 
f 467//466 470//469 746//607 
f 470//469 578//577 746//607 
f 581//580 584//583 747//607 
f 584//583 461//460 747//607 
f 461//460 464//463 747//607 
f 464//463 467//466 747//607 
f 467//466 581//580 747//607 
f 584//583 587//586 748//607 
f 587//586 455//454 748//607 
f 455//454 458//457 748//607 
f 458//457 461//460 748//607 
f 461//460 584//583 748//607 
f 587//586 590//589 749//607 
f 590//589 449//448 749//607 
f 449//448 452//451 749//607 
f 452//451 455//454 749//607 
f 455//454 587//586 749//607 
f 590//589 593//592 750//607 
f 593//592 440//439 750//607 
f 440//439 443//442 750//607 
f 443//442 446//445 750//607 
f 446//445 449//448 750//607 
f 449//448 590//589 750//607 
f 593//592 596//595 751//607 
f 596//595 434//433 751//607 
f 434//433 437//436 751//607 
f 437//436 440//439 751//607 
f 440//439 593//592 751//607 
f 596//595 599//598 752//607 
f 599//598 428//427 752//607 
f 428//427 431//430 752//607 
f 431//430 434//433 752//607 
f 434//433 596//595 752//607 
f 599//598 602//601 753//607 
f 602//601 422//421 753//607 
f 422//421 425//424 753//607 
f 425//424 428//427 753//607 
f 428//427 599//598 753//607 
f 602//601 605//604 754//607 
f 605//604 416//415 754//607 
f 416//415 419//418 754//607 
f 419//418 422//421 754//607 
f 422//421 602//601 754//607 
f 605//604 503//502 755//607 
f 503//502 410//409 755//607 
f 410//409 413//412 755//607 
f 413//412 416//415 755//607 
f 416//415 605//604 755//607 
f 503//502 502//501 756//607 
f 502//501 404//403 756//607 
f 404//403 407//406 756//607 
f 407//406 410//409 756//607 
f 410//409 503//502 756//607 
f 502//501 506//505 757//607 
f 506//505 395//394 757//607 
f 395//394 398//397 757//607 
f 398//397 401//400 757//607 
f 401//400 404//403 757//607 
f 404//403 502//501 757//607 
f 506//505 509//508 758//607 
f 509//508 386//385 758//607 
f 386//385 389//388 758//607 
f 389//388 392//391 758//607 
f 392//391 395//394 758//607 
f 395//394 506//505 758//607 
f 509//508 512//511 759//607 
f 512//511 374//373 759//607 
f 374//373 377//376 759//607 
f 377//376 380//379 759//607 
f 380//379 383//382 759//607 
f 383//382 386//385 759//607 
f 386//385 509//508 759//607 
f 512//511 515//514 760//607 
f 515//514 365//364 760//607 
f 365//364 368//367 760//607 
f 368//367 371//370 760//607 
f 371//370 374//373 760//607 
f 374//373 512//511 760//607 
f 515//514 518//517 761//607 
f 518//517 356//355 761//607 
f 356//355 359//358 761//607 
f 359//358 362//361 761//607 
f 362//361 365//364 761//607 
f 365//364 515//514 761//607 
f 518//517 521//520 762//607 
f 521//520 347//346 762//607 
f 347//346 350//349 762//607 
f 350//349 353//352 762//607 
f 353//352 356//355 762//607 
f 356//355 518//517 762//607 
f 521//520 524//523 763//607 
f 524//523 728//607 338//337 763//607 
f 338//337 341//340 763//607 
f 341//340 344//343 763//607 
f 344//343 347//346 763//607 
f 347//346 521//520 763//607 
# 2 polygons - 1522 triangles

