# 3ds Max Wavefront OBJ Exporter v0.97b - (c)2007 guruware
# File Created: 07.12.2021 20:29:48

#
# object Symbol_May_Yamog
#

v  299.2676 0.0000 108.8478
v  299.3046 0.0000 107.4751
v  299.2861 5.0000 108.1614
v  299.3046 10.0000 107.4751
v  299.2676 10.0000 108.8478
v  299.4156 0.0000 106.2638
v  299.3601 5.0000 106.8695
v  299.4156 10.0000 106.2638
v  299.6007 0.0000 105.2141
v  299.5082 5.0000 105.7390
v  299.6007 10.0000 105.2141
v  299.8599 0.0000 104.3259
v  299.7303 5.0000 104.7700
v  299.8599 10.0000 104.3259
v  300.1931 0.0000 103.5992
v  300.0265 5.0000 103.9625
v  300.1931 10.0000 103.5992
v  300.6003 0.0000 103.0339
v  300.3967 5.0000 103.3166
v  300.6003 10.0000 103.0339
v  301.0815 0.0000 102.6302
v  300.8409 5.0000 102.8321
v  301.0815 10.0000 102.6302
v  301.6368 0.0000 102.3880
v  301.3592 5.0000 102.5091
v  301.6368 10.0000 102.3880
v  302.2662 0.0000 102.3072
v  301.9515 5.0000 102.3476
v  302.2662 10.0000 102.3072
v  308.9652 0.0000 106.6542
v  305.6157 5.0000 104.4807
v  308.9652 10.0000 106.6542
v  316.2831 0.0000 101.9852
v  312.6241 5.0000 104.3197
v  316.2831 10.0000 101.9852
v  317.0956 0.0000 102.3842
v  316.6893 5.0000 102.1847
v  317.0956 10.0000 102.3842
v  317.8126 0.0000 102.8859
v  317.4541 5.0000 102.6350
v  317.8126 10.0000 102.8859
v  318.4339 0.0000 103.4901
v  318.1232 5.0000 103.1880
v  318.4339 10.0000 103.4901
v  318.9597 0.0000 104.1970
v  318.6968 5.0000 103.8435
v  318.9597 10.0000 104.1970
v  319.3899 0.0000 105.0064
v  319.1748 5.0000 104.6017
v  319.3899 10.0000 105.0064
v  319.7244 0.0000 105.9185
v  319.5571 5.0000 105.4625
v  319.7244 10.0000 105.9185
v  319.9634 0.0000 106.9332
v  319.8439 5.0000 106.4258
v  319.9634 10.0000 106.9332
v  320.1068 0.0000 108.0505
v  320.0351 5.0000 107.4918
v  320.1068 10.0000 108.0505
v  320.1546 0.0000 109.2704
v  320.1307 5.0000 108.6604
v  320.1546 10.0000 109.2704
v  320.1546 0.0000 144.9089
v  320.1546 5.0000 127.0896
v  320.1546 10.0000 144.9089
v  320.0977 0.0000 146.5707
v  320.1261 5.0000 145.7398
v  320.0977 10.0000 146.5707
v  319.9268 0.0000 148.1046
v  320.0122 5.0000 147.3376
v  319.9268 10.0000 148.1046
v  319.6421 0.0000 149.5108
v  319.7845 5.0000 148.8077
v  319.6421 10.0000 149.5108
v  319.2435 0.0000 150.7891
v  319.4428 5.0000 150.1499
v  319.2435 10.0000 150.7891
v  318.7310 0.0000 151.9395
v  318.9873 5.0000 151.3643
v  318.7310 10.0000 151.9395
v  318.1046 0.0000 152.9622
v  318.4178 5.0000 152.4508
v  318.1046 10.0000 152.9622
v  317.3644 0.0000 153.8570
v  317.7345 5.0000 153.4096
v  317.3644 10.0000 153.8570
v  316.5103 0.0000 154.6239
v  316.9373 5.0000 154.2405
v  316.5103 10.0000 154.6239
v  315.5422 0.0000 155.2631
v  316.0262 5.0000 154.9435
v  315.5422 10.0000 155.2631
v  314.5450 0.0000 155.8064
v  315.0436 5.0000 155.5347
v  314.5450 10.0000 155.8064
v  313.6032 0.0000 156.2857
v  314.0741 5.0000 156.0461
v  313.6032 10.0000 156.2857
v  312.7168 0.0000 156.7012
v  313.1600 5.0000 156.4935
v  312.7168 10.0000 156.7012
v  311.8859 0.0000 157.0527
v  312.3013 5.0000 156.8770
v  311.8859 10.0000 157.0527
v  311.1104 0.0000 157.3403
v  311.4981 5.0000 157.1965
v  311.1104 10.0000 157.3403
v  310.3903 0.0000 157.5640
v  310.7503 5.0000 157.4522
v  310.3903 10.0000 157.5640
v  309.7256 0.0000 157.7238
v  310.0580 5.0000 157.6439
v  309.7256 10.0000 157.7238
v  309.1165 0.0000 157.8197
v  309.4211 5.0000 157.7718
v  309.1165 10.0000 157.8197
v  308.5627 0.0000 157.8517
v  308.8396 5.0000 157.8357
v  308.5627 10.0000 157.8517
v  314.8115 0.0000 164.6136
v  311.6871 5.0000 161.2326
v  314.8115 10.0000 164.6136
v  315.8315 0.0000 164.5511
v  315.3215 5.0000 164.5824
v  315.8315 10.0000 164.5511
v  316.8704 0.0000 164.3639
v  316.3510 5.0000 164.4575
v  316.8704 10.0000 164.3639
v  317.9280 0.0000 164.0518
v  317.3992 5.0000 164.2078
v  317.9280 10.0000 164.0518
v  319.0044 0.0000 163.6148
v  318.4662 5.0000 163.8333
v  319.0044 10.0000 163.6148
v  320.0995 0.0000 163.0530
v  319.5519 5.0000 163.3339
v  320.0995 10.0000 163.0530
v  321.2134 0.0000 162.3663
v  320.6564 5.0000 162.7096
v  321.2134 10.0000 162.3663
v  322.3460 0.0000 161.5548
v  321.7797 5.0000 161.9606
v  322.3460 10.0000 161.5548
v  323.4974 0.0000 160.6184
v  322.9217 5.0000 161.0866
v  323.4974 10.0000 160.6184
v  324.6676 0.0000 159.5572
v  324.0825 5.0000 160.0878
v  324.6676 10.0000 159.5572
v  325.7816 0.0000 158.3392
v  325.2246 5.0000 158.9482
v  325.7816 10.0000 158.3392
v  326.7645 0.0000 156.9323
v  326.2731 5.0000 157.6357
v  326.7645 10.0000 156.9323
v  327.6164 0.0000 155.3366
v  327.1905 5.0000 156.1345
v  327.6164 10.0000 155.3366
v  328.3372 0.0000 153.5521
v  327.9768 5.0000 154.4444
v  328.3372 10.0000 153.5521
v  328.9270 0.0000 151.5787
v  328.6321 5.0000 152.5654
v  328.9270 10.0000 151.5787
v  329.3857 0.0000 149.4166
v  329.1564 5.0000 150.4977
v  329.3857 10.0000 149.4166
v  329.7134 0.0000 147.0656
v  329.5496 5.0000 148.2411
v  329.7134 10.0000 147.0656
v  329.9100 0.0000 144.5257
v  329.8117 5.0000 145.7957
v  329.9100 10.0000 144.5257
v  329.9755 0.0000 141.7971
v  329.9427 5.0000 143.1614
v  329.9755 10.0000 141.7971
v  329.9755 0.0000 108.9886
v  329.9755 5.0000 125.3929
v  329.9755 10.0000 108.9886
v  329.9217 0.0000 107.3228
v  329.9486 5.0000 108.1557
v  329.9217 10.0000 107.3228
v  329.7602 0.0000 105.7766
v  329.8409 5.0000 106.5497
v  329.7602 10.0000 105.7766
v  329.4911 0.0000 104.3500
v  329.6257 5.0000 105.0633
v  329.4911 10.0000 104.3500
v  329.1143 0.0000 103.0431
v  329.3027 5.0000 103.6966
v  329.1143 10.0000 103.0431
v  328.6299 0.0000 101.8559
v  328.8721 5.0000 102.4495
v  328.6299 10.0000 101.8559
v  328.0379 0.0000 100.7884
v  328.3339 5.0000 101.3221
v  328.0379 10.0000 100.7884
v  327.3383 0.0000 99.8404
v  327.6881 5.0000 100.3144
v  327.3383 10.0000 99.8404
v  326.5309 0.0000 99.0122
v  326.9346 5.0000 99.4263
v  326.5309 10.0000 99.0122
v  325.6160 0.0000 98.3036
v  326.0734 5.0000 98.6579
v  325.6160 10.0000 98.3036
v  324.6442 0.0000 97.6909
v  325.1301 5.0000 97.9973
v  324.6442 10.0000 97.6909
v  323.6664 0.0000 97.1503
v  324.1553 5.0000 97.4206
v  323.6664 10.0000 97.1503
v  322.6828 0.0000 96.6818
v  323.1746 5.0000 96.9160
v  322.6828 10.0000 96.6818
v  321.6931 0.0000 96.2853
v  322.1879 5.0000 96.4835
v  321.6931 10.0000 96.2853
v  320.6975 0.0000 95.9609
v  321.1953 5.0000 96.1231
v  320.6975 10.0000 95.9609
v  319.6959 0.0000 95.7087
v  320.1967 5.0000 95.8348
v  319.6959 10.0000 95.7087
v  318.6884 0.0000 95.5284
v  319.1921 5.0000 95.6186
v  318.6884 10.0000 95.5284
v  317.6749 0.0000 95.4203
v  318.1816 5.0000 95.4744
v  317.6749 10.0000 95.4203
v  316.6554 0.0000 95.3843
v  317.1651 5.0000 95.4023
v  316.6554 10.0000 95.3843
v  308.9652 0.0000 99.8394
v  312.8103 5.0000 97.6118
v  308.9652 10.0000 99.8394
v  301.8788 0.0000 95.3843
v  305.4220 5.0000 97.6118
v  301.8788 10.0000 95.3843
v  299.3957 0.0000 95.9499
v  300.6372 5.0000 95.6671
v  299.3957 10.0000 95.9499
v  297.2048 0.0000 96.7869
v  298.3003 5.0000 96.3684
v  297.2048 10.0000 96.7869
v  295.3061 0.0000 97.8954
v  296.2554 5.0000 97.3412
v  295.3061 10.0000 97.8954
v  293.6994 0.0000 99.2753
v  294.5027 5.0000 98.5854
v  293.6994 10.0000 99.2753
v  292.3849 0.0000 100.9267
v  293.0421 5.0000 100.1010
v  292.3849 10.0000 100.9267
v  291.3624 0.0000 102.8495
v  291.8737 5.0000 101.8881
v  291.3624 10.0000 102.8495
v  290.6321 0.0000 105.0437
v  290.9973 5.0000 103.9466
v  290.6321 10.0000 105.0437
v  290.1940 0.0000 107.5093
v  290.4131 5.0000 106.2765
v  290.1940 10.0000 107.5093
v  290.0479 0.0000 110.2464
v  290.1209 5.0000 108.8779
v  290.0479 10.0000 110.2464
v  290.0839 0.0000 111.4222
v  290.0659 5.0000 110.8343
v  290.0839 10.0000 111.4222
v  290.1918 0.0000 112.5592
v  290.1378 5.0000 111.9907
v  290.1918 10.0000 112.5592
v  290.3717 0.0000 113.6573
v  290.2818 5.0000 113.1082
v  290.3717 10.0000 113.6573
v  290.6236 0.0000 114.7166
v  290.4977 5.0000 114.1870
v  290.6236 10.0000 114.7166
v  290.9474 0.0000 115.7371
v  290.7855 5.0000 115.2269
v  290.9474 10.0000 115.7371
v  291.3431 0.0000 116.7188
v  291.1453 5.0000 116.2280
v  291.3431 10.0000 116.7188
v  291.8109 0.0000 117.6617
v  291.5770 5.0000 117.1902
v  291.8109 10.0000 117.6617
v  292.3506 0.0000 118.5657
v  292.0807 5.0000 118.1137
v  292.3506 10.0000 118.5657
v  292.9622 0.0000 119.4309
v  292.6564 5.0000 118.9983
v  292.9622 10.0000 119.4309
v  293.6436 0.0000 120.2297
v  293.3029 5.0000 119.8303
v  293.6436 10.0000 120.2297
v  294.3923 0.0000 120.9345
v  294.0179 5.0000 120.5821
v  294.3923 10.0000 120.9345
v  295.2085 0.0000 121.5454
v  294.8004 5.0000 121.2400
v  295.2085 10.0000 121.5454
v  296.0921 0.0000 122.0623
v  295.6503 5.0000 121.8038
v  296.0921 10.0000 122.0623
v  297.0432 0.0000 122.4852
v  296.5676 5.0000 122.2737
v  297.0432 10.0000 122.4852
v  298.0616 0.0000 122.8141
v  297.5524 5.0000 122.6496
v  298.0616 10.0000 122.8141
v  299.1475 0.0000 123.0490
v  298.6046 5.0000 122.9316
v  299.1475 10.0000 123.0490
v  300.3008 0.0000 123.1900
v  299.7242 5.0000 123.1195
v  300.3008 10.0000 123.1900
v  301.5215 0.0000 123.2370
v  300.9112 5.0000 123.2135
v  301.5215 10.0000 123.2370
v  302.2573 0.0000 123.2079
v  301.8894 5.0000 123.2224
v  302.2573 10.0000 123.2079
v  302.9541 0.0000 123.1205
v  302.6057 5.0000 123.1642
v  302.9541 10.0000 123.1205
v  303.6120 0.0000 122.9750
v  303.2831 5.0000 123.0477
v  303.6120 10.0000 122.9750
v  304.2310 0.0000 122.7711
v  303.9215 5.0000 122.8730
v  304.2310 10.0000 122.7711
v  304.8109 0.0000 122.5091
v  304.5209 5.0000 122.6401
v  304.8109 10.0000 122.5091
v  305.3520 0.0000 122.1888
v  305.0815 5.0000 122.3490
v  305.3520 10.0000 122.1888
v  305.8541 0.0000 121.8103
v  305.6030 5.0000 121.9996
v  305.8541 10.0000 121.8103
v  306.3172 0.0000 121.3736
v  306.0856 5.0000 121.5920
v  306.3172 10.0000 121.3736
v  306.7414 0.0000 120.8786
v  306.5293 5.0000 121.1261
v  306.7414 10.0000 120.8786
v  307.1237 0.0000 120.3486
v  306.9325 5.0000 120.6136
v  307.1237 10.0000 120.3486
v  307.4609 0.0000 119.8067
v  307.2923 5.0000 120.0776
v  307.4609 10.0000 119.8067
v  307.7532 0.0000 119.2528
v  307.6071 5.0000 119.5298
v  307.7532 10.0000 119.2528
v  308.0006 0.0000 118.6871
v  307.8769 5.0000 118.9700
v  308.0006 10.0000 118.6871
v  308.2029 0.0000 118.1095
v  308.1018 5.0000 118.3983
v  308.2029 10.0000 118.1095
v  308.3604 0.0000 117.5200
v  308.2816 5.0000 117.8148
v  308.3604 10.0000 117.5200
v  308.4728 0.0000 116.9186
v  308.4166 5.0000 117.2193
v  308.4728 10.0000 116.9186
v  308.5402 0.0000 116.3053
v  308.5065 5.0000 116.6120
v  308.5402 10.0000 116.3053
v  308.5627 0.0000 115.6801
v  308.5515 5.0000 115.9927
v  308.5627 10.0000 115.6801
v  308.5409 0.0000 115.0962
v  308.5518 5.0000 115.3882
v  308.5409 10.0000 115.0962
v  308.4753 0.0000 114.5272
v  308.5081 5.0000 114.8117
v  308.4753 10.0000 114.5272
v  308.3661 0.0000 113.9732
v  308.4207 5.0000 114.2502
v  308.3661 10.0000 113.9732
v  308.2131 0.0000 113.4341
v  308.2896 5.0000 113.7036
v  308.2131 10.0000 113.4341
v  308.0165 0.0000 112.9100
v  308.1148 5.0000 113.1721
v  308.0165 10.0000 112.9100
v  307.7762 0.0000 112.4009
v  307.8963 5.0000 112.6555
v  307.7762 10.0000 112.4009
v  307.4921 0.0000 111.9068
v  307.6342 5.0000 112.1538
v  307.4921 10.0000 111.9068
v  307.1644 0.0000 111.4276
v  307.3283 5.0000 111.6672
v  307.1644 10.0000 111.4276
v  306.7930 0.0000 110.9634
v  306.9787 5.0000 111.1955
v  306.7930 10.0000 110.9634
v  306.3823 0.0000 110.5320
v  306.5876 5.0000 110.7477
v  306.3823 10.0000 110.5320
v  305.9369 0.0000 110.1514
v  306.1596 5.0000 110.3417
v  305.9369 10.0000 110.1514
v  305.4568 0.0000 109.8216
v  305.6968 5.0000 109.9865
v  305.4568 10.0000 109.8216
v  304.9419 0.0000 109.5425
v  305.1993 5.0000 109.6820
v  304.9419 10.0000 109.5425
v  304.3922 0.0000 109.3141
v  304.6671 5.0000 109.4283
v  304.3922 10.0000 109.3141
v  303.8078 0.0000 109.1365
v  304.1000 5.0000 109.2253
v  303.8078 10.0000 109.1365
v  303.1886 0.0000 109.0096
v  303.4982 5.0000 109.0731
v  303.1886 10.0000 109.0096
v  302.5347 0.0000 108.9335
v  302.8617 5.0000 108.9716
v  302.5347 10.0000 108.9335
v  301.8461 0.0000 108.9081
v  302.1904 5.0000 108.9208
v  301.8461 10.0000 108.9081
v  301.3297 0.0000 108.9126
v  301.5879 5.0000 108.9104
v  301.3297 10.0000 108.9126
v  300.8741 0.0000 108.9260
v  301.1019 5.0000 108.9193
v  300.8741 10.0000 108.9260
v  300.4792 0.0000 108.9484
v  300.6767 5.0000 108.9372
v  300.4792 10.0000 108.9484
v  300.1451 0.0000 108.9797
v  300.3122 5.0000 108.9641
v  300.1451 10.0000 108.9797
v  299.8718 0.0000 109.0199
v  300.0085 5.0000 108.9998
v  299.8718 10.0000 109.0199
v  299.6591 0.0000 109.0691
v  299.7655 5.0000 109.0445
v  299.6591 10.0000 109.0691
v  299.5073 0.0000 109.1273
v  299.5832 5.0000 109.0982
v  299.5073 10.0000 109.1273
v  299.4162 0.0000 109.1944
v  299.4617 5.0000 109.1608
v  299.4162 10.0000 109.1944
v  299.3858 0.0000 109.2704
v  299.4010 5.0000 109.2324
v  299.3858 10.0000 109.2704
v  299.3267 5.0000 109.0591
v  301.7113 0.0000 112.8105
v  302.2983 0.0000 112.9256
v  302.0048 5.0000 112.8681
v  302.2983 10.0000 112.9256
v  301.7113 10.0000 112.8105
v  302.8070 0.0000 113.1176
v  302.5527 5.0000 113.0216
v  302.8070 10.0000 113.1176
v  303.2375 0.0000 113.3863
v  303.0222 5.0000 113.2519
v  303.2375 10.0000 113.3863
v  303.5897 0.0000 113.7318
v  303.4135 5.0000 113.5590
v  303.5897 10.0000 113.7318
v  303.8636 0.0000 114.1540
v  303.7266 5.0000 113.9429
v  303.8636 10.0000 114.1540
v  304.0592 0.0000 114.6530
v  303.9614 5.0000 114.4035
v  304.0592 10.0000 114.6530
v  304.1766 0.0000 115.2288
v  304.1179 5.0000 114.9409
v  304.1766 10.0000 115.2288
v  304.2158 0.0000 115.8814
v  304.1962 5.0000 115.5551
v  304.2158 10.0000 115.8814
v  304.1766 0.0000 116.5466
v  304.1962 5.0000 116.2140
v  304.1766 10.0000 116.5466
v  304.0592 0.0000 117.1336
v  304.1179 5.0000 116.8401
v  304.0592 10.0000 117.1336
v  303.8636 0.0000 117.6423
v  303.9614 5.0000 117.3880
v  303.8636 10.0000 117.6423
v  303.5897 0.0000 118.0728
v  303.7266 5.0000 117.8575
v  303.5897 10.0000 118.0728
v  303.2375 0.0000 118.4249
v  303.4136 5.0000 118.2488
v  303.2375 10.0000 118.4249
v  302.8070 0.0000 118.6989
v  303.0222 5.0000 118.5619
v  302.8070 10.0000 118.6989
v  302.2983 0.0000 118.8945
v  302.5527 5.0000 118.7967
v  302.2983 10.0000 118.8945
v  301.7113 0.0000 119.0119
v  302.0048 5.0000 118.9532
v  301.7113 10.0000 119.0119
v  301.0461 0.0000 119.0510
v  301.3787 5.0000 119.0315
v  301.0461 10.0000 119.0510
v  300.3935 0.0000 119.0119
v  300.7198 5.0000 119.0315
v  300.3935 10.0000 119.0119
v  299.8177 0.0000 118.8945
v  300.1056 5.0000 118.9532
v  299.8177 10.0000 118.8945
v  299.3187 0.0000 118.6989
v  299.5682 5.0000 118.7967
v  299.3187 10.0000 118.6989
v  298.8965 0.0000 118.4249
v  299.1076 5.0000 118.5619
v  298.8965 10.0000 118.4249
v  298.5510 0.0000 118.0728
v  298.7237 5.0000 118.2488
v  298.5510 10.0000 118.0728
v  298.2823 0.0000 117.6423
v  298.4166 5.0000 117.8575
v  298.2823 10.0000 117.6423
v  298.0904 0.0000 117.1336
v  298.1863 5.0000 117.3880
v  298.0904 10.0000 117.1336
v  297.9752 0.0000 116.5466
v  298.0328 5.0000 116.8401
v  297.9752 10.0000 116.5466
v  297.9368 0.0000 115.8814
v  297.9560 5.0000 116.2140
v  297.9368 10.0000 115.8814
v  297.9752 0.0000 115.2288
v  297.9560 5.0000 115.5551
v  297.9752 10.0000 115.2288
v  298.0904 0.0000 114.6530
v  298.0328 5.0000 114.9409
v  298.0904 10.0000 114.6530
v  298.2823 0.0000 114.1540
v  298.1863 5.0000 114.4035
v  298.2823 10.0000 114.1540
v  298.5510 0.0000 113.7318
v  298.4166 5.0000 113.9429
v  298.5510 10.0000 113.7318
v  298.8965 0.0000 113.3863
v  298.7237 5.0000 113.5590
v  298.8965 10.0000 113.3863
v  299.3187 0.0000 113.1176
v  299.1076 5.0000 113.2519
v  299.3187 10.0000 113.1176
v  299.8177 0.0000 112.9256
v  299.5682 5.0000 113.0216
v  299.8177 10.0000 112.9256
v  300.3935 0.0000 112.8105
v  300.1057 5.0000 112.8681
v  300.3935 10.0000 112.8105
v  301.0461 0.0000 112.7721
v  300.7198 5.0000 112.7913
v  301.0461 10.0000 112.7721
v  301.3787 5.0000 112.7913
v  310.8302 0.0000 160.0950
v  312.7172 10.0000 100.9658
v  311.2179 0.0000 160.0524
v  311.6425 0.0000 159.9671
v  312.1040 0.0000 159.8393
v  312.6026 0.0000 159.6689
v  313.1381 0.0000 159.4558
v  314.7667 0.0000 161.3031
v  316.3902 0.0000 160.8245
v  317.2978 0.0000 159.4343
v  319.1423 0.0000 159.3722
v  319.9295 0.0000 157.6635
v  321.8831 0.0000 157.0668
v  322.3455 0.0000 155.0433
v  324.1385 0.0000 153.7099
v  324.0375 0.0000 151.3577
v  324.4704 0.0000 149.6527
v  324.7809 0.0000 147.7894
v  324.9689 0.0000 145.7677
v  326.0340 0.0000 129.8981
v  325.0396 0.0000 108.4081
v  324.9380 0.0000 107.0208
v  325.6107 0.0000 105.2043
v  324.9793 0.0000 103.3225
v  324.3121 0.0000 101.1913
v  321.9135 0.0000 100.9204
v  321.4480 0.0000 99.5798
v  319.9963 0.0000 98.8396
v  318.1130 0.0000 97.4817
v  305.5188 0.0000 101.0463
v  301.2944 0.0000 99.0073
v  312.7172 0.0000 100.9658
v  299.8297 0.0000 99.4387
v  298.5482 0.0000 100.0866
v  297.4497 0.0000 100.9510
v  296.5343 0.0000 102.0318
v  295.8020 0.0000 103.3290
v  295.2527 0.0000 104.8428
v  294.8866 0.0000 106.5730
v  294.7035 0.0000 108.5197
v  299.5074 0.0000 111.7712
v  299.2003 0.0000 111.9248
v  297.2297 0.0000 111.0965
v  295.6271 0.0000 112.7107
v  295.4735 0.0000 113.0178
v  295.3712 0.0000 113.3761
v  292.2723 0.0000 113.6811
v  293.7273 0.0000 116.8519
v  295.3446 0.0000 117.9192
v  295.7446 0.0000 118.6091
v  296.0155 0.0000 119.6849
v  297.1870 0.0000 120.0263
v  297.8376 0.0000 120.4178
v  298.6777 0.0000 121.1883
v  299.9149 0.0000 121.0364
v  300.8155 0.0000 121.1225
v  301.6341 0.0000 121.1270
v  302.5666 0.0000 121.4420
v  303.5518 0.0000 121.1697
v  304.4123 0.0000 120.7264
v  305.1479 0.0000 120.1120
v  306.0887 0.0000 119.3336
v  306.3759 0.0000 118.1651
v  306.6544 0.0000 117.2457
v  306.7936 0.0000 116.2664
v  306.7943 0.0000 115.2827
v  306.6581 0.0000 114.3633
v  306.3857 0.0000 113.5104
v  306.1132 0.0000 112.4307
v  305.1879 0.0000 111.7530
v  304.4620 0.0000 110.8889
v  303.2988 0.0000 110.7007
v  302.4333 0.0000 110.9198
v  301.5570 0.0000 110.2105
v  300.4683 0.0000 110.2428
v  299.7216 0.0000 110.2025
v  310.8302 10.0000 160.0950
v  299.5074 10.0000 111.7712
v  318.1130 10.0000 97.4817
v  319.9963 10.0000 98.8396
v  321.4480 10.0000 99.5798
v  321.9135 10.0000 100.9204
v  324.3121 10.0000 101.1913
v  324.9793 10.0000 103.3225
v  325.6107 10.0000 105.2043
v  324.9380 10.0000 107.0208
v  325.0396 10.0000 108.4081
v  326.0340 10.0000 129.8981
v  324.9689 10.0000 145.7677
v  324.7809 10.0000 147.7894
v  324.4704 10.0000 149.6527
v  324.0375 10.0000 151.3577
v  324.1385 10.0000 153.7099
v  322.3455 10.0000 155.0433
v  321.8831 10.0000 157.0668
v  319.9295 10.0000 157.6635
v  319.1423 10.0000 159.3722
v  317.2978 10.0000 159.4343
v  316.3902 10.0000 160.8245
v  314.7667 10.0000 161.3031
v  313.1381 10.0000 159.4558
v  312.6026 10.0000 159.6689
v  312.1040 10.0000 159.8393
v  311.6425 10.0000 159.9671
v  311.2179 10.0000 160.0524
v  299.7216 10.0000 110.2025
v  300.4683 10.0000 110.2428
v  301.5570 10.0000 110.2105
v  302.4333 10.0000 110.9198
v  303.2988 10.0000 110.7007
v  304.4620 10.0000 110.8889
v  305.1879 10.0000 111.7530
v  306.1132 10.0000 112.4307
v  306.3857 10.0000 113.5104
v  306.6581 10.0000 114.3633
v  306.7943 10.0000 115.2827
v  306.7936 10.0000 116.2664
v  306.6544 10.0000 117.2457
v  306.3759 10.0000 118.1651
v  306.0887 10.0000 119.3336
v  305.1479 10.0000 120.1120
v  304.4123 10.0000 120.7264
v  303.5518 10.0000 121.1697
v  302.5666 10.0000 121.4420
v  301.6341 10.0000 121.1270
v  300.8155 10.0000 121.1225
v  299.9149 10.0000 121.0364
v  298.6777 10.0000 121.1883
v  297.8376 10.0000 120.4178
v  297.1870 10.0000 120.0263
v  296.0155 10.0000 119.6849
v  295.7446 10.0000 118.6091
v  295.3446 10.0000 117.9192
v  293.7273 10.0000 116.8519
v  292.2723 10.0000 113.6811
v  295.3712 10.0000 113.3761
v  295.4735 10.0000 113.0178
v  295.6271 10.0000 112.7107
v  297.2297 10.0000 111.0965
v  299.2003 10.0000 111.9248
v  294.7035 10.0000 108.5197
v  294.8866 10.0000 106.5730
v  295.2527 10.0000 104.8428
v  295.8020 10.0000 103.3290
v  296.5343 10.0000 102.0318
v  297.4497 10.0000 100.9510
v  298.5482 10.0000 100.0866
v  299.8297 10.0000 99.4387
v  301.2944 10.0000 99.0073
v  305.5188 10.0000 101.0463
# 714 vertices

vn 0.6650 -0.7423 -0.0822
vn 0.6985 -0.7144 0.0414
vn 0.9996 0.0000 0.0270
vn 0.6985 0.7144 0.0414
vn 0.6650 0.7423 -0.0822
vn 0.6913 -0.7166 0.0925
vn 0.9958 0.0000 0.0913
vn 0.6913 0.7166 0.0925
vn 0.6762 -0.7196 0.1578
vn 0.9848 0.0000 0.1737
vn 0.6762 0.7196 0.1578
vn 0.6464 -0.7239 0.2410
vn 0.9600 0.0000 0.2801
vn 0.6464 0.7239 0.2410
vn 0.5910 -0.7296 0.3440
vn 0.9090 0.0000 0.4168
vn 0.5910 0.7296 0.3440
vn 0.4959 -0.7361 0.4607
vn 0.8114 0.0000 0.5845
vn 0.4959 0.7361 0.4607
vn 0.3538 -0.7407 0.5711
vn 0.6427 0.0000 0.7661
vn 0.3538 0.7407 0.5711
vn 0.1790 -0.7404 0.6480
vn 0.3998 0.0000 0.9166
vn 0.1790 0.7404 0.6480
vn -0.1352 -0.7934 0.5934
vn 0.1273 0.0000 0.9919
vn -0.1352 0.7934 0.5934
vn -0.0031 -0.6032 0.7976
vn -0.5443 0.0000 0.8389
vn -0.0031 0.6032 0.7976
vn 0.0306 -0.8356 0.5484
vn 0.5379 0.0000 0.8430
vn 0.0306 0.8356 0.5484
vn -0.3503 -0.7248 0.5932
vn -0.4408 0.0000 0.8976
vn -0.3503 0.7248 0.5932
vn -0.4385 -0.7257 0.5302
vn -0.5733 0.0000 0.8194
vn -0.4385 0.7257 0.5302
vn -0.5176 -0.7255 0.4535
vn -0.6972 0.0000 0.7169
vn -0.5176 0.7255 0.4535
vn -0.5825 -0.7245 0.3685
vn -0.8024 0.0000 0.5968
vn -0.5825 0.7245 0.3685
vn -0.6310 -0.7228 0.2818
vn -0.8830 0.0000 0.4693
vn -0.6310 0.7228 0.2818
vn -0.6638 -0.7209 0.1991
vn -0.9388 0.0000 0.3444
vn -0.6638 0.7209 0.1991
vn -0.6839 -0.7190 0.1241
vn -0.9734 0.0000 0.2293
vn -0.6839 0.7190 0.1241
vn -0.6944 -0.7172 0.0581
vn -0.9919 0.0000 0.1273
vn -0.6944 0.7172 0.0581
vn -0.7025 -0.7115 0.0138
vn -0.9992 0.0000 0.0392
vn -0.7025 0.7115 0.0138
vn -0.7031 -0.7110 -0.0120
vn -1.0000 0.0000 -0.0000
vn -0.7031 0.7110 -0.0120
vn -0.6964 -0.7158 -0.0506
vn -0.9994 0.0000 -0.0342
vn -0.6964 0.7158 -0.0506
vn -0.6884 -0.7172 -0.1078
vn -0.9939 0.0000 -0.1107
vn -0.6884 0.7172 -0.1078
vn -0.6734 -0.7188 -0.1727
vn -0.9801 0.0000 -0.1985
vn -0.6734 0.7188 -0.1727
vn -0.6489 -0.7205 -0.2447
vn -0.9547 0.0000 -0.2977
vn -0.6489 0.7205 -0.2447
vn -0.6122 -0.7221 -0.3221
vn -0.9135 0.0000 -0.4069
vn -0.6122 0.7221 -0.3221
vn -0.5618 -0.7234 -0.4014
vn -0.8527 0.0000 -0.5223
vn -0.5618 0.7234 -0.4014
vn -0.4975 -0.7241 -0.4777
vn -0.7705 0.0000 -0.6374
vn -0.4975 0.7241 -0.4777
vn -0.4215 -0.7241 -0.5458
vn -0.6681 0.0000 -0.7440
vn -0.4215 0.7241 -0.5458
vn -0.3592 -0.7168 -0.5977
vn -0.5510 0.0000 -0.8345
vn -0.3592 0.7168 -0.5977
vn -0.3281 -0.7103 -0.6228
vn -0.4784 0.0000 -0.8781
vn -0.3281 0.7103 -0.6228
vn -0.3088 -0.7108 -0.6320
vn -0.4536 0.0000 -0.8912
vn -0.3088 0.7108 -0.6320
vn -0.2861 -0.7114 -0.6419
vn -0.4244 0.0000 -0.9055
vn -0.2861 0.7114 -0.6419
vn -0.2589 -0.7122 -0.6525
vn -0.3896 0.0000 -0.9210
vn -0.2589 0.7122 -0.6525
vn -0.2259 -0.7132 -0.6635
vn -0.3477 0.0000 -0.9376
vn -0.2259 0.7132 -0.6635
vn -0.1856 -0.7145 -0.6745
vn -0.2967 0.0000 -0.9550
vn -0.1856 0.7145 -0.6745
vn -0.1359 -0.7162 -0.6845
vn -0.2338 0.0000 -0.9723
vn -0.1359 0.7162 -0.6845
vn -0.0742 -0.7184 -0.6917
vn -0.1555 0.0000 -0.9878
vn -0.0742 0.7184 -0.6917
vn -0.7748 -0.5495 -0.3127
vn -0.0576 0.0000 -0.9983
vn -0.7748 0.5495 -0.3127
vn -0.2917 -0.6222 0.7265
vn -0.7344 0.0000 0.6787
vn -0.2917 0.6222 0.7265
vn 0.0860 -0.6942 0.7147
vn 0.0611 0.0000 0.9981
vn 0.0860 0.6942 0.7147
vn 0.1658 -0.6951 0.6996
vn 0.1774 0.0000 0.9841
vn 0.1658 0.6951 0.6996
vn 0.2369 -0.6962 0.6777
vn 0.2830 0.0000 0.9591
vn 0.2369 0.6962 0.6777
vn 0.2987 -0.6973 0.6516
vn 0.3762 0.0000 0.9266
vn 0.2987 0.6973 0.6516
vn 0.3514 -0.6984 0.6235
vn 0.4565 0.0000 0.8897
vn 0.3514 0.6984 0.6235
vn 0.3959 -0.6994 0.5951
vn 0.5248 0.0000 0.8512
vn 0.3959 0.6994 0.5951
vn 0.4333 -0.7003 0.5673
vn 0.5824 0.0000 0.8129
vn 0.4333 0.7003 0.5673
vn 0.4646 -0.7011 0.5409
vn 0.6309 0.0000 0.7758
vn 0.4646 0.7011 0.5409
vn 0.5061 -0.6968 0.5083
vn 0.6718 0.0000 0.7407
vn 0.5061 0.6968 0.5083
vn 0.5629 -0.6927 0.4509
vn 0.7379 0.0000 0.6749
vn 0.5629 0.6927 0.4509
vn 0.6138 -0.6939 0.3764
vn 0.8197 0.0000 0.5727
vn 0.6138 0.6939 0.3764
vn 0.6511 -0.6953 0.3043
vn 0.8822 0.0000 0.4710
vn 0.6511 0.6953 0.3043
vn 0.6769 -0.6967 0.2373
vn 0.9272 0.0000 0.3745
vn 0.6769 0.6967 0.2373
vn 0.6938 -0.6981 0.1770
vn 0.9581 0.0000 0.2864
vn 0.6938 0.6981 0.1770
vn 0.7041 -0.6993 0.1236
vn 0.9782 0.0000 0.2075
vn 0.7041 0.6993 0.1236
vn 0.7097 -0.7003 0.0769
vn 0.9904 0.0000 0.1380
vn 0.7097 0.7003 0.0769
vn 0.7121 -0.7012 0.0361
vn 0.9970 0.0000 0.0772
vn 0.7121 0.7012 0.0361
vn 0.7097 -0.7044 0.0085
vn 0.9997 0.0000 0.0240
vn 0.7097 0.7044 0.0085
vn 0.7106 -0.7035 -0.0115
vn 1.0000 0.0000 -0.0000
vn 0.7106 0.7035 -0.0115
vn 0.7133 -0.6991 -0.0487
vn 0.9995 0.0000 -0.0323
vn 0.7133 0.6991 -0.0487
vn 0.7086 -0.6980 -0.1037
vn 0.9946 0.0000 -0.1039
vn 0.7086 0.6980 -0.1037
vn 0.6979 -0.6967 -0.1660
vn 0.9827 0.0000 -0.1854
vn 0.6979 0.6967 -0.1660
vn 0.6790 -0.6953 -0.2356
vn 0.9609 0.0000 -0.2770
vn 0.6790 0.6953 -0.2356
vn 0.6493 -0.6940 -0.3111
vn 0.9259 0.0000 -0.3778
vn 0.6493 0.6940 -0.3111
vn 0.6067 -0.6928 -0.3898
vn 0.8745 0.0000 -0.4850
vn 0.6067 0.6928 -0.3898
vn 0.5501 -0.6920 -0.4674
vn 0.8046 0.0000 -0.5939
vn 0.5501 0.6920 -0.4674
vn 0.4808 -0.6918 -0.5388
vn 0.7161 0.0000 -0.6980
vn 0.4808 0.6918 -0.5388
vn 0.4116 -0.6964 -0.5879
vn 0.6123 0.0000 -0.7906
vn 0.4116 0.6964 -0.5879
vn 0.3630 -0.7007 -0.6142
vn 0.5333 0.0000 -0.8459
vn 0.3630 0.7007 -0.6142
vn 0.3263 -0.7004 -0.6348
vn 0.4839 0.0000 -0.8751
vn 0.3263 0.7004 -0.6348
vn 0.2865 -0.7000 -0.6541
vn 0.4300 0.0000 -0.9028
vn 0.2865 0.7000 -0.6541
vn 0.2436 -0.6997 -0.6716
vn 0.3719 0.0000 -0.9283
vn 0.2436 0.6997 -0.6716
vn 0.1981 -0.6995 -0.6866
vn 0.3098 0.0000 -0.9508
vn 0.1981 0.6995 -0.6866
vn 0.1503 -0.6993 -0.6988
vn 0.2443 0.0000 -0.9697
vn 0.1503 0.6993 -0.6988
vn 0.1009 -0.6992 -0.7077
vn 0.1761 0.0000 -0.9844
vn 0.1009 0.6992 -0.7077
vn 0.0506 -0.6992 -0.7131
vn 0.1061 0.0000 -0.9944
vn 0.0506 0.6992 -0.7131
vn -0.1843 -0.6498 -0.7374
vn 0.0353 0.0000 -0.9994
vn -0.1843 0.6498 -0.7374
vn 0.0097 -0.8438 -0.5366
vn -0.5013 0.0000 -0.8653
vn 0.0097 0.8438 -0.5366
vn 0.1303 -0.6303 -0.7654
vn 0.5322 0.0000 -0.8466
vn 0.1303 0.6303 -0.7654
vn -0.2096 -0.6916 -0.6912
vn -0.2221 0.0000 -0.9750
vn -0.2096 0.6916 -0.6912
vn -0.3130 -0.6892 -0.6535
vn -0.3569 0.0000 -0.9341
vn -0.3130 0.6892 -0.6535
vn -0.4215 -0.6873 -0.5916
vn -0.5042 0.0000 -0.8636
vn -0.4215 0.6873 -0.5916
vn -0.5237 -0.6865 -0.5045
vn -0.6515 0.0000 -0.7586
vn -0.5237 0.6865 -0.5045
vn -0.6076 -0.6870 -0.3985
vn -0.7824 0.0000 -0.6228
vn -0.6076 0.6870 -0.3985
vn -0.6663 -0.6888 -0.2857
vn -0.8829 0.0000 -0.4695
vn -0.6663 0.6888 -0.2857
vn -0.7005 -0.6911 -0.1778
vn -0.9488 0.0000 -0.3158
vn -0.7005 0.6911 -0.1778
vn -0.7157 -0.6936 -0.0824
vn -0.9846 0.0000 -0.1750
vn -0.7157 0.6936 -0.0824
vn -0.7163 -0.6978 -0.0081
vn -0.9986 0.0000 -0.0533
vn -0.7163 0.6978 -0.0081
vn -0.7128 -0.7000 0.0447
vn -0.9995 0.0000 0.0306
vn -0.7128 0.7000 0.0447
vn -0.7087 -0.6996 0.0916
vn -0.9955 0.0000 0.0945
vn -0.7087 0.6996 0.0916
vn -0.7010 -0.6992 0.1406
vn -0.9868 0.0000 0.1617
vn -0.7010 0.6992 0.1406
vn -0.6893 -0.6989 0.1910
vn -0.9729 0.0000 0.2313
vn -0.6893 0.6989 0.1910
vn -0.6732 -0.6987 0.2421
vn -0.9532 0.0000 0.3025
vn -0.6732 0.6987 0.2421
vn -0.6529 -0.6985 0.2930
vn -0.9275 0.0000 0.3739
vn -0.6529 0.6985 0.2930
vn -0.6283 -0.6985 0.3427
vn -0.8958 0.0000 0.4444
vn -0.6283 0.6985 0.3427
vn -0.5998 -0.6985 0.3902
vn -0.8586 0.0000 0.5126
vn -0.5998 0.6985 0.3902
vn -0.5661 -0.6970 0.4401
vn -0.8166 0.0000 0.5773
vn -0.5661 0.6970 0.4401
vn -0.5207 -0.6950 0.4958
vn -0.7608 0.0000 0.6489
vn -0.5207 0.6950 0.4958
vn -0.4628 -0.6946 0.5507
vn -0.6854 0.0000 0.7281
vn -0.4628 0.6946 0.5507
vn -0.3978 -0.6946 0.5994
vn -0.5992 0.0000 0.8006
vn -0.3978 0.6946 0.5994
vn -0.3282 -0.6948 0.6399
vn -0.5049 0.0000 0.8632
vn -0.3282 0.6948 0.6399
vn -0.2568 -0.6954 0.6712
vn -0.4063 0.0000 0.9137
vn -0.2568 0.6954 0.6712
vn -0.1865 -0.6961 0.6933
vn -0.3073 0.0000 0.9516
vn -0.1865 0.6961 0.6933
vn -0.1194 -0.6970 0.7071
vn -0.2115 0.0000 0.9774
vn -0.1194 0.6970 0.7071
vn -0.0573 -0.6979 0.7139
vn -0.1213 0.0000 0.9926
vn -0.0573 0.6979 0.7139
vn 0.0004 -0.6984 0.7157
vn -0.0385 0.0000 0.9993
vn 0.0004 0.6984 0.7157
vn 0.0588 -0.6977 0.7140
vn 0.0395 0.0000 0.9992
vn 0.0588 0.6977 0.7140
vn 0.1222 -0.6968 0.7068
vn 0.1244 0.0000 0.9922
vn 0.1222 0.6968 0.7068
vn 0.1901 -0.6960 0.6924
vn 0.2161 0.0000 0.9764
vn 0.1901 0.6960 0.6924
vn 0.2607 -0.6953 0.6697
vn 0.3128 0.0000 0.9498
vn 0.2607 0.6953 0.6697
vn 0.3317 -0.6949 0.6380
vn 0.4117 0.0000 0.9113
vn 0.3317 0.6949 0.6380
vn 0.4003 -0.6948 0.5975
vn 0.5094 0.0000 0.8605
vn 0.4003 0.6948 0.5975
vn 0.4638 -0.6949 0.5495
vn 0.6020 0.0000 0.7985
vn 0.4638 0.6949 0.5495
vn 0.5201 -0.6954 0.4960
vn 0.6861 0.0000 0.7275
vn 0.5201 0.6954 0.4960
vn 0.5629 -0.6978 0.4429
vn 0.7593 0.0000 0.6507
vn 0.5629 0.6978 0.4429
vn 0.5935 -0.6995 0.3980
vn 0.8111 0.0000 0.5849
vn 0.5935 0.6995 0.3980
vn 0.6200 -0.6992 0.3560
vn 0.8490 0.0000 0.5284
vn 0.6200 0.6992 0.3560
vn 0.6443 -0.6989 0.3104
vn 0.8844 0.0000 0.4668
vn 0.6443 0.6989 0.3104
vn 0.6658 -0.6987 0.2617
vn 0.9163 0.0000 0.4006
vn 0.6658 0.6987 0.2617
vn 0.6837 -0.6986 0.2107
vn 0.9438 0.0000 0.3307
vn 0.6837 0.6986 0.2107
vn 0.6978 -0.6986 0.1581
vn 0.9662 0.0000 0.2579
vn 0.6978 0.6986 0.1581
vn 0.7076 -0.6987 0.1049
vn 0.9830 0.0000 0.1838
vn 0.7076 0.6987 0.1049
vn 0.7133 -0.6989 0.0520
vn 0.9940 0.0000 0.1093
vn 0.7133 0.6989 0.0520
vn 0.7152 -0.6989 -0.0005
vn 0.9994 0.0000 0.0359
vn 0.7152 0.6989 -0.0005
vn 0.7135 -0.6985 -0.0544
vn 0.9993 0.0000 -0.0374
vn 0.7135 0.6985 -0.0544
vn 0.7073 -0.6982 -0.1103
vn 0.9934 0.0000 -0.1144
vn 0.7073 0.6982 -0.1103
vn 0.6963 -0.6980 -0.1671
vn 0.9811 0.0000 -0.1934
vn 0.6963 0.6980 -0.1671
vn 0.6803 -0.6979 -0.2237
vn 0.9620 0.0000 -0.2730
vn 0.6803 0.6979 -0.2237
vn 0.6596 -0.6980 -0.2789
vn 0.9363 0.0000 -0.3513
vn 0.6596 0.6980 -0.2789
vn 0.6346 -0.6982 -0.3315
vn 0.9043 0.0000 -0.4269
vn 0.6346 0.6982 -0.3315
vn 0.6061 -0.6984 -0.3806
vn 0.8670 0.0000 -0.4983
vn 0.6061 0.6984 -0.3806
vn 0.5749 -0.6988 -0.4257
vn 0.8254 0.0000 -0.5645
vn 0.5749 0.6988 -0.4257
vn 0.5397 -0.6976 -0.4713
vn 0.7808 0.0000 -0.6248
vn 0.5397 0.6976 -0.4713
vn 0.4941 -0.6957 -0.5214
vn 0.7243 0.0000 -0.6895
vn 0.4941 0.6957 -0.5214
vn 0.4374 -0.6955 -0.5701
vn 0.6496 0.0000 -0.7602
vn 0.4374 0.6955 -0.5701
vn 0.3752 -0.6955 -0.6128
vn 0.5662 0.0000 -0.8242
vn 0.3752 0.6955 -0.6128
vn 0.3094 -0.6957 -0.6483
vn 0.4765 0.0000 -0.8792
vn 0.3094 0.6957 -0.6483
vn 0.2424 -0.6962 -0.6757
vn 0.3837 0.0000 -0.9235
vn 0.2424 0.6962 -0.6757
vn 0.1765 -0.6968 -0.6952
vn 0.2908 0.0000 -0.9568
vn 0.1765 0.6968 -0.6952
vn 0.1135 -0.6975 -0.7075
vn 0.2007 0.0000 -0.9796
vn 0.1135 0.6975 -0.7075
vn 0.0546 -0.6983 -0.7137
vn 0.1156 0.0000 -0.9933
vn 0.0546 0.6983 -0.7137
vn 0.0100 -0.7020 -0.7121
vn 0.0368 0.0000 -0.9993
vn 0.0100 0.7020 -0.7121
vn -0.0135 -0.7048 -0.7093
vn -0.0087 0.0000 -1.0000
vn -0.0135 0.7048 -0.7093
vn -0.0305 -0.7041 -0.7095
vn -0.0294 0.0000 -0.9996
vn -0.0305 0.7041 -0.7095
vn -0.0533 -0.7030 -0.7092
vn -0.0565 0.0000 -0.9984
vn -0.0533 0.7030 -0.7092
vn -0.0852 -0.7012 -0.7078
vn -0.0933 0.0000 -0.9956
vn -0.0852 0.7012 -0.7078
vn -0.1330 -0.6981 -0.7036
vn -0.1456 0.0000 -0.9893
vn -0.1330 0.6981 -0.7036
vn -0.2109 -0.6919 -0.6905
vn -0.2254 0.0000 -0.9743
vn -0.2109 0.6919 -0.6905
vn -0.3524 -0.6781 -0.6449
vn -0.3575 0.0000 -0.9339
vn -0.3524 0.6781 -0.6449
vn -0.6011 -0.6502 -0.4647
vn -0.5929 0.0000 -0.8053
vn -0.6011 0.6502 -0.4647
vn 0.0094 -0.9844 -0.1759
vn -0.9287 0.0000 -0.3709
vn 0.0094 0.9844 -0.1759
vn 0.9630 0.0000 -0.2694
vn -0.0866 -0.7227 0.6857
vn -0.1881 -0.7264 0.6611
vn -0.1925 0.0000 0.9813
vn -0.1881 0.7264 0.6611
vn -0.0866 0.7227 0.6857
vn -0.3031 -0.7300 0.6126
vn -0.3530 0.0000 0.9356
vn -0.3031 0.7300 0.6126
vn -0.4212 -0.7324 0.5350
vn -0.5295 0.0000 0.8483
vn -0.4212 0.7324 0.5350
vn -0.5270 -0.7326 0.4308
vn -0.7003 0.0000 0.7139
vn -0.5270 0.7326 0.4308
vn -0.6074 -0.7305 0.3121
vn -0.8389 0.0000 0.5442
vn -0.6074 0.7305 0.3121
vn -0.6584 -0.7270 0.1946
vn -0.9310 0.0000 0.3650
vn -0.6584 0.7270 0.1946
vn -0.6846 -0.7233 0.0899
vn -0.9798 0.0000 0.1998
vn -0.6846 0.7233 0.0899
vn -0.6932 -0.7207 0.0004
vn -0.9982 0.0000 0.0599
vn -0.6932 0.7207 0.0004
vn -0.6852 -0.7230 -0.0882
vn -0.9983 0.0000 -0.0587
vn -0.6852 0.7230 -0.0882
vn -0.6598 -0.7267 -0.1914
vn -0.9806 0.0000 -0.1961
vn -0.6598 0.7267 -0.1914
vn -0.6101 -0.7302 -0.3076
vn -0.9333 0.0000 -0.3590
vn -0.6101 0.7302 -0.3076
vn -0.5310 -0.7325 -0.4260
vn -0.8437 0.0000 -0.5369
vn -0.5310 0.7325 -0.4260
vn -0.4260 -0.7325 -0.5310
vn -0.7071 0.0000 -0.7071
vn -0.4260 0.7325 -0.5310
vn -0.3075 -0.7302 -0.6101
vn -0.5369 0.0000 -0.8437
vn -0.3075 0.7302 -0.6101
vn -0.1914 -0.7267 -0.6598
vn -0.3590 0.0000 -0.9333
vn -0.1914 0.7267 -0.6598
vn -0.0882 -0.7230 -0.6852
vn -0.1961 0.0000 -0.9806
vn -0.0882 0.7230 -0.6852
vn 0.0004 -0.7207 -0.6932
vn -0.0587 0.0000 -0.9983
vn 0.0004 0.7207 -0.6932
vn 0.0899 -0.7233 -0.6846
vn 0.0599 0.0000 -0.9982
vn 0.0899 0.7233 -0.6846
vn 0.1946 -0.7270 -0.6584
vn 0.1998 0.0000 -0.9798
vn 0.1946 0.7270 -0.6584
vn 0.3121 -0.7305 -0.6074
vn 0.3650 0.0000 -0.9310
vn 0.3121 0.7305 -0.6074
vn 0.4308 -0.7326 -0.5270
vn 0.5442 0.0000 -0.8389
vn 0.4308 0.7326 -0.5270
vn 0.5350 -0.7324 -0.4212
vn 0.7139 0.0000 -0.7003
vn 0.5350 0.7324 -0.4212
vn 0.6126 -0.7300 -0.3031
vn 0.8483 0.0000 -0.5296
vn 0.6126 0.7300 -0.3031
vn 0.6611 -0.7264 -0.1881
vn 0.9356 0.0000 -0.3530
vn 0.6611 0.7264 -0.1881
vn 0.6857 -0.7227 -0.0866
vn 0.9813 0.0000 -0.1925
vn 0.6857 0.7227 -0.0866
vn 0.6935 -0.7204 0.0004
vn 0.9983 0.0000 -0.0576
vn 0.6935 0.7204 0.0004
vn 0.6852 -0.7230 0.0882
vn 0.9983 0.0000 0.0587
vn 0.6852 0.7230 0.0882
vn 0.6598 -0.7267 0.1914
vn 0.9806 0.0000 0.1961
vn 0.6598 0.7267 0.1914
vn 0.6101 -0.7302 0.3076
vn 0.9333 0.0000 0.3590
vn 0.6101 0.7302 0.3076
vn 0.5310 -0.7325 0.4260
vn 0.8437 0.0000 0.5369
vn 0.5310 0.7325 0.4260
vn 0.4260 -0.7325 0.5310
vn 0.7071 0.0000 0.7071
vn 0.4260 0.7325 0.5310
vn 0.3076 -0.7302 0.6101
vn 0.5369 0.0000 0.8437
vn 0.3076 0.7302 0.6101
vn 0.1914 -0.7267 0.6598
vn 0.3590 0.0000 0.9333
vn 0.1914 0.7267 0.6598
vn 0.0882 -0.7230 0.6852
vn 0.1961 0.0000 0.9806
vn 0.0882 0.7230 0.6852
vn 0.0004 -0.7204 0.6935
vn 0.0587 0.0000 0.9983
vn 0.0004 0.7204 0.6935
vn -0.0576 0.0000 0.9983
vn 0.0000 -1.0000 -0.0000
vn 0.0000 1.0000 -0.0000
# 566 vertex normals

o Symbol_May_Yamog
g Symbol_May_Yamog
s 1
f 1//1 2//2 3//3 
f 2//2 4//4 3//3 
f 4//4 5//5 3//3 
f 5//5 1//1 3//3 
s 3
f 2//2 6//6 7//7 
f 6//6 8//8 7//7 
f 8//8 4//4 7//7 
f 4//4 2//2 7//7 
s 2
f 6//6 9//9 10//10 
f 9//9 11//11 10//10 
f 11//11 8//8 10//10 
f 8//8 6//6 10//10 
f 9//9 12//12 13//13 
f 12//12 14//14 13//13 
f 14//14 11//11 13//13 
f 11//11 9//9 13//13 
f 12//12 15//15 16//16 
f 15//15 17//17 16//16 
f 17//17 14//14 16//16 
f 14//14 12//12 16//16 
f 15//15 18//18 19//19 
f 18//18 20//20 19//19 
f 20//20 17//17 19//19 
f 17//17 15//15 19//19 
f 18//18 21//21 22//22 
f 21//21 23//23 22//22 
f 23//23 20//20 22//22 
f 20//20 18//18 22//22 
f 21//21 24//24 25//25 
f 24//24 26//26 25//25 
f 26//26 23//23 25//25 
f 23//23 21//21 25//25 
f 24//24 27//27 28//28 
f 27//27 29//29 28//28 
f 29//29 26//26 28//28 
f 26//26 24//24 28//28 
s 4
f 27//27 30//30 31//31 
f 30//30 32//32 31//31 
f 32//32 29//29 31//31 
f 29//29 27//27 31//31 
s 2
f 30//30 33//33 34//34 
f 33//33 35//35 34//34 
f 35//35 32//32 34//34 
f 32//32 30//30 34//34 
s 4
f 33//33 36//36 37//37 
f 36//36 38//38 37//37 
f 38//38 35//35 37//37 
f 35//35 33//33 37//37 
f 36//36 39//39 40//40 
f 39//39 41//41 40//40 
f 41//41 38//38 40//40 
f 38//38 36//36 40//40 
f 39//39 42//42 43//43 
f 42//42 44//44 43//43 
f 44//44 41//41 43//43 
f 41//41 39//39 43//43 
f 42//42 45//45 46//46 
f 45//45 47//47 46//46 
f 47//47 44//44 46//46 
f 44//44 42//42 46//46 
f 45//45 48//48 49//49 
f 48//48 50//50 49//49 
f 50//50 47//47 49//49 
f 47//47 45//45 49//49 
f 48//48 51//51 52//52 
f 51//51 53//53 52//52 
f 53//53 50//50 52//52 
f 50//50 48//48 52//52 
f 51//51 54//54 55//55 
f 54//54 56//56 55//55 
f 56//56 53//53 55//55 
f 53//53 51//51 55//55 
f 54//54 57//57 58//58 
f 57//57 59//59 58//58 
f 59//59 56//56 58//58 
f 56//56 54//54 58//58 
f 57//57 60//60 61//61 
f 60//60 62//62 61//61 
f 62//62 59//59 61//61 
f 59//59 57//57 61//61 
s 2
f 60//60 63//63 64//64 
f 63//63 65//65 64//64 
f 65//65 62//62 64//64 
f 62//62 60//60 64//64 
s 4
f 63//63 66//66 67//67 
f 66//66 68//68 67//67 
f 68//68 65//65 67//67 
f 65//65 63//63 67//67 
f 66//66 69//69 70//70 
f 69//69 71//71 70//70 
f 71//71 68//68 70//70 
f 68//68 66//66 70//70 
f 69//69 72//72 73//73 
f 72//72 74//74 73//73 
f 74//74 71//71 73//73 
f 71//71 69//69 73//73 
f 72//72 75//75 76//76 
f 75//75 77//77 76//76 
f 77//77 74//74 76//76 
f 74//74 72//72 76//76 
f 75//75 78//78 79//79 
f 78//78 80//80 79//79 
f 80//80 77//77 79//79 
f 77//77 75//75 79//79 
f 78//78 81//81 82//82 
f 81//81 83//83 82//82 
f 83//83 80//80 82//82 
f 80//80 78//78 82//82 
f 81//81 84//84 85//85 
f 84//84 86//86 85//85 
f 86//86 83//83 85//85 
f 83//83 81//81 85//85 
f 84//84 87//87 88//88 
f 87//87 89//89 88//88 
f 89//89 86//86 88//88 
f 86//86 84//84 88//88 
f 87//87 90//90 91//91 
f 90//90 92//92 91//91 
f 92//92 89//89 91//91 
f 89//89 87//87 91//91 
f 90//90 93//93 94//94 
f 93//93 95//95 94//94 
f 95//95 92//92 94//94 
f 92//92 90//90 94//94 
f 93//93 96//96 97//97 
f 96//96 98//98 97//97 
f 98//98 95//95 97//97 
f 95//95 93//93 97//97 
f 96//96 99//99 100//100 
f 99//99 101//101 100//100 
f 101//101 98//98 100//100 
f 98//98 96//96 100//100 
f 99//99 102//102 103//103 
f 102//102 104//104 103//103 
f 104//104 101//101 103//103 
f 101//101 99//99 103//103 
f 102//102 105//105 106//106 
f 105//105 107//107 106//106 
f 107//107 104//104 106//106 
f 104//104 102//102 106//106 
f 105//105 108//108 109//109 
f 108//108 110//110 109//109 
f 110//110 107//107 109//109 
f 107//107 105//105 109//109 
f 108//108 111//111 112//112 
f 111//111 113//113 112//112 
f 113//113 110//110 112//112 
f 110//110 108//108 112//112 
f 111//111 114//114 115//115 
f 114//114 116//116 115//115 
f 116//116 113//113 115//115 
f 113//113 111//111 115//115 
f 114//114 117//117 118//118 
f 117//117 119//119 118//118 
f 119//119 116//116 118//118 
f 116//116 114//114 118//118 
s 2
f 117//117 120//120 121//121 
f 120//120 122//122 121//121 
f 122//122 119//119 121//121 
f 119//119 117//117 121//121 
s 4
f 120//120 123//123 124//124 
f 123//123 125//125 124//124 
f 125//125 122//122 124//124 
f 122//122 120//120 124//124 
f 123//123 126//126 127//127 
f 126//126 128//128 127//127 
f 128//128 125//125 127//127 
f 125//125 123//123 127//127 
f 126//126 129//129 130//130 
f 129//129 131//131 130//130 
f 131//131 128//128 130//130 
f 128//128 126//126 130//130 
f 129//129 132//132 133//133 
f 132//132 134//134 133//133 
f 134//134 131//131 133//133 
f 131//131 129//129 133//133 
f 132//132 135//135 136//136 
f 135//135 137//137 136//136 
f 137//137 134//134 136//136 
f 134//134 132//132 136//136 
f 135//135 138//138 139//139 
f 138//138 140//140 139//139 
f 140//140 137//137 139//139 
f 137//137 135//135 139//139 
f 138//138 141//141 142//142 
f 141//141 143//143 142//142 
f 143//143 140//140 142//142 
f 140//140 138//138 142//142 
f 141//141 144//144 145//145 
f 144//144 146//146 145//145 
f 146//146 143//143 145//145 
f 143//143 141//141 145//145 
f 144//144 147//147 148//148 
f 147//147 149//149 148//148 
f 149//149 146//146 148//148 
f 146//146 144//144 148//148 
f 147//147 150//150 151//151 
f 150//150 152//152 151//151 
f 152//152 149//149 151//151 
f 149//149 147//147 151//151 
f 150//150 153//153 154//154 
f 153//153 155//155 154//154 
f 155//155 152//152 154//154 
f 152//152 150//150 154//154 
f 153//153 156//156 157//157 
f 156//156 158//158 157//157 
f 158//158 155//155 157//157 
f 155//155 153//153 157//157 
f 156//156 159//159 160//160 
f 159//159 161//161 160//160 
f 161//161 158//158 160//160 
f 158//158 156//156 160//160 
f 159//159 162//162 163//163 
f 162//162 164//164 163//163 
f 164//164 161//161 163//163 
f 161//161 159//159 163//163 
f 162//162 165//165 166//166 
f 165//165 167//167 166//166 
f 167//167 164//164 166//166 
f 164//164 162//162 166//166 
f 165//165 168//168 169//169 
f 168//168 170//170 169//169 
f 170//170 167//167 169//169 
f 167//167 165//165 169//169 
f 168//168 171//171 172//172 
f 171//171 173//173 172//172 
f 173//173 170//170 172//172 
f 170//170 168//168 172//172 
f 171//171 174//174 175//175 
f 174//174 176//176 175//175 
f 176//176 173//173 175//175 
f 173//173 171//171 175//175 
s 2
f 174//174 177//177 178//178 
f 177//177 179//179 178//178 
f 179//179 176//176 178//178 
f 176//176 174//174 178//178 
s 4
f 177//177 180//180 181//181 
f 180//180 182//182 181//181 
f 182//182 179//179 181//181 
f 179//179 177//177 181//181 
f 180//180 183//183 184//184 
f 183//183 185//185 184//184 
f 185//185 182//182 184//184 
f 182//182 180//180 184//184 
f 183//183 186//186 187//187 
f 186//186 188//188 187//187 
f 188//188 185//185 187//187 
f 185//185 183//183 187//187 
f 186//186 189//189 190//190 
f 189//189 191//191 190//190 
f 191//191 188//188 190//190 
f 188//188 186//186 190//190 
f 189//189 192//192 193//193 
f 192//192 194//194 193//193 
f 194//194 191//191 193//193 
f 191//191 189//189 193//193 
f 192//192 195//195 196//196 
f 195//195 197//197 196//196 
f 197//197 194//194 196//196 
f 194//194 192//192 196//196 
f 195//195 198//198 199//199 
f 198//198 200//200 199//199 
f 200//200 197//197 199//199 
f 197//197 195//195 199//199 
f 198//198 201//201 202//202 
f 201//201 203//203 202//202 
f 203//203 200//200 202//202 
f 200//200 198//198 202//202 
f 201//201 204//204 205//205 
f 204//204 206//206 205//205 
f 206//206 203//203 205//205 
f 203//203 201//201 205//205 
f 204//204 207//207 208//208 
f 207//207 209//209 208//208 
f 209//209 206//206 208//208 
f 206//206 204//204 208//208 
f 207//207 210//210 211//211 
f 210//210 212//212 211//211 
f 212//212 209//209 211//211 
f 209//209 207//207 211//211 
f 210//210 213//213 214//214 
f 213//213 215//215 214//214 
f 215//215 212//212 214//214 
f 212//212 210//210 214//214 
f 213//213 216//216 217//217 
f 216//216 218//218 217//217 
f 218//218 215//215 217//217 
f 215//215 213//213 217//217 
f 216//216 219//219 220//220 
f 219//219 221//221 220//220 
f 221//221 218//218 220//220 
f 218//218 216//216 220//220 
f 219//219 222//222 223//223 
f 222//222 224//224 223//223 
f 224//224 221//221 223//223 
f 221//221 219//219 223//223 
f 222//222 225//225 226//226 
f 225//225 227//227 226//226 
f 227//227 224//224 226//226 
f 224//224 222//222 226//226 
f 225//225 228//228 229//229 
f 228//228 230//230 229//229 
f 230//230 227//227 229//229 
f 227//227 225//225 229//229 
f 228//228 231//231 232//232 
f 231//231 233//233 232//232 
f 233//233 230//230 232//232 
f 230//230 228//228 232//232 
s 2
f 231//231 234//234 235//235 
f 234//234 236//236 235//235 
f 236//236 233//233 235//235 
f 233//233 231//231 235//235 
s 4
f 234//234 237//237 238//238 
f 237//237 239//239 238//238 
f 239//239 236//236 238//238 
f 236//236 234//234 238//238 
s 2
f 237//237 240//240 241//241 
f 240//240 242//242 241//241 
f 242//242 239//239 241//241 
f 239//239 237//237 241//241 
f 240//240 243//243 244//244 
f 243//243 245//245 244//244 
f 245//245 242//242 244//244 
f 242//242 240//240 244//244 
f 243//243 246//246 247//247 
f 246//246 248//248 247//247 
f 248//248 245//245 247//247 
f 245//245 243//243 247//247 
f 246//246 249//249 250//250 
f 249//249 251//251 250//250 
f 251//251 248//248 250//250 
f 248//248 246//246 250//250 
f 249//249 252//252 253//253 
f 252//252 254//254 253//253 
f 254//254 251//251 253//253 
f 251//251 249//249 253//253 
f 252//252 255//255 256//256 
f 255//255 257//257 256//256 
f 257//257 254//254 256//256 
f 254//254 252//252 256//256 
f 255//255 258//258 259//259 
f 258//258 260//260 259//259 
f 260//260 257//257 259//259 
f 257//257 255//255 259//259 
f 258//258 261//261 262//262 
f 261//261 263//263 262//262 
f 263//263 260//260 262//262 
f 260//260 258//258 262//262 
f 261//261 264//264 265//265 
f 264//264 266//266 265//265 
f 266//266 263//263 265//265 
f 263//263 261//261 265//265 
f 264//264 267//267 268//268 
f 267//267 269//269 268//268 
f 269//269 266//266 268//268 
f 266//266 264//264 268//268 
f 267//267 270//270 271//271 
f 270//270 272//272 271//271 
f 272//272 269//269 271//271 
f 269//269 267//267 271//271 
f 270//270 273//273 274//274 
f 273//273 275//275 274//274 
f 275//275 272//272 274//274 
f 272//272 270//270 274//274 
f 273//273 276//276 277//277 
f 276//276 278//278 277//277 
f 278//278 275//275 277//277 
f 275//275 273//273 277//277 
f 276//276 279//279 280//280 
f 279//279 281//281 280//280 
f 281//281 278//278 280//280 
f 278//278 276//276 280//280 
f 279//279 282//282 283//283 
f 282//282 284//284 283//283 
f 284//284 281//281 283//283 
f 281//281 279//279 283//283 
f 282//282 285//285 286//286 
f 285//285 287//287 286//286 
f 287//287 284//284 286//286 
f 284//284 282//282 286//286 
f 285//285 288//288 289//289 
f 288//288 290//290 289//289 
f 290//290 287//287 289//289 
f 287//287 285//285 289//289 
f 288//288 291//291 292//292 
f 291//291 293//293 292//292 
f 293//293 290//290 292//292 
f 290//290 288//288 292//292 
f 291//291 294//294 295//295 
f 294//294 296//296 295//295 
f 296//296 293//293 295//295 
f 293//293 291//291 295//295 
f 294//294 297//297 298//298 
f 297//297 299//299 298//298 
f 299//299 296//296 298//298 
f 296//296 294//294 298//298 
f 297//297 300//300 301//301 
f 300//300 302//302 301//301 
f 302//302 299//299 301//301 
f 299//299 297//297 301//301 
f 300//300 303//303 304//304 
f 303//303 305//305 304//304 
f 305//305 302//302 304//304 
f 302//302 300//300 304//304 
f 303//303 306//306 307//307 
f 306//306 308//308 307//307 
f 308//308 305//305 307//307 
f 305//305 303//303 307//307 
f 306//306 309//309 310//310 
f 309//309 311//311 310//310 
f 311//311 308//308 310//310 
f 308//308 306//306 310//310 
f 309//309 312//312 313//313 
f 312//312 314//314 313//313 
f 314//314 311//311 313//313 
f 311//311 309//309 313//313 
f 312//312 315//315 316//316 
f 315//315 317//317 316//316 
f 317//317 314//314 316//316 
f 314//314 312//312 316//316 
f 315//315 318//318 319//319 
f 318//318 320//320 319//319 
f 320//320 317//317 319//319 
f 317//317 315//315 319//319 
f 318//318 321//321 322//322 
f 321//321 323//323 322//322 
f 323//323 320//320 322//322 
f 320//320 318//318 322//322 
f 321//321 324//324 325//325 
f 324//324 326//326 325//325 
f 326//326 323//323 325//325 
f 323//323 321//321 325//325 
f 324//324 327//327 328//328 
f 327//327 329//329 328//328 
f 329//329 326//326 328//328 
f 326//326 324//324 328//328 
f 327//327 330//330 331//331 
f 330//330 332//332 331//331 
f 332//332 329//329 331//331 
f 329//329 327//327 331//331 
f 330//330 333//333 334//334 
f 333//333 335//335 334//334 
f 335//335 332//332 334//334 
f 332//332 330//330 334//334 
f 333//333 336//336 337//337 
f 336//336 338//338 337//337 
f 338//338 335//335 337//337 
f 335//335 333//333 337//337 
f 336//336 339//339 340//340 
f 339//339 341//341 340//340 
f 341//341 338//338 340//340 
f 338//338 336//336 340//340 
f 339//339 342//342 343//343 
f 342//342 344//344 343//343 
f 344//344 341//341 343//343 
f 341//341 339//339 343//343 
f 342//342 345//345 346//346 
f 345//345 347//347 346//346 
f 347//347 344//344 346//346 
f 344//344 342//342 346//346 
f 345//345 348//348 349//349 
f 348//348 350//350 349//349 
f 350//350 347//347 349//349 
f 347//347 345//345 349//349 
f 348//348 351//351 352//352 
f 351//351 353//353 352//352 
f 353//353 350//350 352//352 
f 350//350 348//348 352//352 
f 351//351 354//354 355//355 
f 354//354 356//356 355//355 
f 356//356 353//353 355//355 
f 353//353 351//351 355//355 
f 354//354 357//357 358//358 
f 357//357 359//359 358//358 
f 359//359 356//356 358//358 
f 356//356 354//354 358//358 
f 357//357 360//360 361//361 
f 360//360 362//362 361//361 
f 362//362 359//359 361//361 
f 359//359 357//357 361//361 
f 360//360 363//363 364//364 
f 363//363 365//365 364//364 
f 365//365 362//362 364//364 
f 362//362 360//360 364//364 
f 363//363 366//366 367//367 
f 366//366 368//368 367//367 
f 368//368 365//365 367//367 
f 365//365 363//363 367//367 
f 366//366 369//369 370//370 
f 369//369 371//371 370//370 
f 371//371 368//368 370//370 
f 368//368 366//366 370//370 
f 369//369 372//372 373//373 
f 372//372 374//374 373//373 
f 374//374 371//371 373//373 
f 371//371 369//369 373//373 
f 372//372 375//375 376//376 
f 375//375 377//377 376//376 
f 377//377 374//374 376//376 
f 374//374 372//372 376//376 
f 375//375 378//378 379//379 
f 378//378 380//380 379//379 
f 380//380 377//377 379//379 
f 377//377 375//375 379//379 
f 378//378 381//381 382//382 
f 381//381 383//383 382//382 
f 383//383 380//380 382//382 
f 380//380 378//378 382//382 
f 381//381 384//384 385//385 
f 384//384 386//386 385//385 
f 386//386 383//383 385//385 
f 383//383 381//381 385//385 
f 384//384 387//387 388//388 
f 387//387 389//389 388//388 
f 389//389 386//386 388//388 
f 386//386 384//384 388//388 
f 387//387 390//390 391//391 
f 390//390 392//392 391//391 
f 392//392 389//389 391//391 
f 389//389 387//387 391//391 
f 390//390 393//393 394//394 
f 393//393 395//395 394//394 
f 395//395 392//392 394//394 
f 392//392 390//390 394//394 
f 393//393 396//396 397//397 
f 396//396 398//398 397//397 
f 398//398 395//395 397//397 
f 395//395 393//393 397//397 
f 396//396 399//399 400//400 
f 399//399 401//401 400//400 
f 401//401 398//398 400//400 
f 398//398 396//396 400//400 
f 399//399 402//402 403//403 
f 402//402 404//404 403//403 
f 404//404 401//401 403//403 
f 401//401 399//399 403//403 
f 402//402 405//405 406//406 
f 405//405 407//407 406//406 
f 407//407 404//404 406//406 
f 404//404 402//402 406//406 
f 405//405 408//408 409//409 
f 408//408 410//410 409//409 
f 410//410 407//407 409//409 
f 407//407 405//405 409//409 
f 408//408 411//411 412//412 
f 411//411 413//413 412//412 
f 413//413 410//410 412//412 
f 410//410 408//408 412//412 
f 411//411 414//414 415//415 
f 414//414 416//416 415//415 
f 416//416 413//413 415//415 
f 413//413 411//411 415//415 
f 414//414 417//417 418//418 
f 417//417 419//419 418//418 
f 419//419 416//416 418//418 
f 416//416 414//414 418//418 
f 417//417 420//420 421//421 
f 420//420 422//422 421//421 
f 422//422 419//419 421//421 
f 419//419 417//417 421//421 
f 420//420 423//423 424//424 
f 423//423 425//425 424//424 
f 425//425 422//422 424//424 
f 422//422 420//420 424//424 
f 423//423 426//426 427//427 
f 426//426 428//428 427//427 
f 428//428 425//425 427//427 
f 425//425 423//423 427//427 
f 426//426 429//429 430//430 
f 429//429 431//431 430//430 
f 431//431 428//428 430//430 
f 428//428 426//426 430//430 
f 429//429 432//432 433//433 
f 432//432 434//434 433//433 
f 434//434 431//431 433//433 
f 431//431 429//429 433//433 
f 432//432 435//435 436//436 
f 435//435 437//437 436//436 
f 437//437 434//434 436//436 
f 434//434 432//432 436//436 
f 435//435 438//438 439//439 
f 438//438 440//440 439//439 
f 440//440 437//437 439//439 
f 437//437 435//435 439//439 
f 438//438 441//441 442//442 
f 441//441 443//443 442//442 
f 443//443 440//440 442//442 
f 440//440 438//438 442//442 
f 441//441 444//444 445//445 
f 444//444 446//446 445//445 
f 446//446 443//443 445//445 
f 443//443 441//441 445//445 
f 444//444 447//447 448//448 
f 447//447 449//449 448//448 
f 449//449 446//446 448//448 
f 446//446 444//444 448//448 
f 447//447 450//450 451//451 
f 450//450 452//452 451//451 
f 452//452 449//449 451//451 
f 449//449 447//447 451//451 
f 450//450 453//453 454//454 
f 453//453 455//455 454//454 
f 455//455 452//452 454//454 
f 452//452 450//450 454//454 
s 4
f 453//453 1//1 456//456 
f 1//1 5//5 456//456 
f 5//5 455//455 456//456 
f 455//455 453//453 456//456 
s 1
f 457//457 458//458 459//459 
f 458//458 460//460 459//459 
f 460//460 461//461 459//459 
f 461//461 457//457 459//459 
s 3
f 458//458 462//462 463//463 
f 462//462 464//464 463//463 
f 464//464 460//460 463//463 
f 460//460 458//458 463//463 
s 2
f 462//462 465//465 466//466 
f 465//465 467//467 466//466 
f 467//467 464//464 466//466 
f 464//464 462//462 466//466 
f 465//465 468//468 469//469 
f 468//468 470//470 469//469 
f 470//470 467//467 469//469 
f 467//467 465//465 469//469 
f 468//468 471//471 472//472 
f 471//471 473//473 472//472 
f 473//473 470//470 472//472 
f 470//470 468//468 472//472 
f 471//471 474//474 475//475 
f 474//474 476//476 475//475 
f 476//476 473//473 475//475 
f 473//473 471//471 475//475 
f 474//474 477//477 478//478 
f 477//477 479//479 478//478 
f 479//479 476//476 478//478 
f 476//476 474//474 478//478 
f 477//477 480//480 481//481 
f 480//480 482//482 481//481 
f 482//482 479//479 481//481 
f 479//479 477//477 481//481 
f 480//480 483//483 484//484 
f 483//483 485//485 484//484 
f 485//485 482//482 484//484 
f 482//482 480//480 484//484 
f 483//483 486//486 487//487 
f 486//486 488//488 487//487 
f 488//488 485//485 487//487 
f 485//485 483//483 487//487 
f 486//486 489//489 490//490 
f 489//489 491//491 490//490 
f 491//491 488//488 490//490 
f 488//488 486//486 490//490 
f 489//489 492//492 493//493 
f 492//492 494//494 493//493 
f 494//494 491//491 493//493 
f 491//491 489//489 493//493 
f 492//492 495//495 496//496 
f 495//495 497//497 496//496 
f 497//497 494//494 496//496 
f 494//494 492//492 496//496 
f 495//495 498//498 499//499 
f 498//498 500//500 499//499 
f 500//500 497//497 499//499 
f 497//497 495//495 499//499 
f 498//498 501//501 502//502 
f 501//501 503//503 502//502 
f 503//503 500//500 502//502 
f 500//500 498//498 502//502 
f 501//501 504//504 505//505 
f 504//504 506//506 505//505 
f 506//506 503//503 505//505 
f 503//503 501//501 505//505 
f 504//504 507//507 508//508 
f 507//507 509//509 508//508 
f 509//509 506//506 508//508 
f 506//506 504//504 508//508 
f 507//507 510//510 511//511 
f 510//510 512//512 511//511 
f 512//512 509//509 511//511 
f 509//509 507//507 511//511 
f 510//510 513//513 514//514 
f 513//513 515//515 514//514 
f 515//515 512//512 514//514 
f 512//512 510//510 514//514 
f 513//513 516//516 517//517 
f 516//516 518//518 517//517 
f 518//518 515//515 517//517 
f 515//515 513//513 517//517 
f 516//516 519//519 520//520 
f 519//519 521//521 520//520 
f 521//521 518//518 520//520 
f 518//518 516//516 520//520 
f 519//519 522//522 523//523 
f 522//522 524//524 523//523 
f 524//524 521//521 523//523 
f 521//521 519//519 523//523 
f 522//522 525//525 526//526 
f 525//525 527//527 526//526 
f 527//527 524//524 526//526 
f 524//524 522//522 526//526 
f 525//525 528//528 529//529 
f 528//528 530//530 529//529 
f 530//530 527//527 529//529 
f 527//527 525//525 529//529 
f 528//528 531//531 532//532 
f 531//531 533//533 532//532 
f 533//533 530//530 532//532 
f 530//530 528//528 532//532 
f 531//531 534//534 535//535 
f 534//534 536//536 535//535 
f 536//536 533//533 535//535 
f 533//533 531//531 535//535 
f 534//534 537//537 538//538 
f 537//537 539//539 538//538 
f 539//539 536//536 538//538 
f 536//536 534//534 538//538 
f 537//537 540//540 541//541 
f 540//540 542//542 541//541 
f 542//542 539//539 541//541 
f 539//539 537//537 541//541 
f 540//540 543//543 544//544 
f 543//543 545//545 544//544 
f 545//545 542//542 544//544 
f 542//542 540//540 544//544 
f 543//543 546//546 547//547 
f 546//546 548//548 547//547 
f 548//548 545//545 547//547 
f 545//545 543//543 547//547 
f 546//546 549//549 550//550 
f 549//549 551//551 550//550 
f 551//551 548//548 550//550 
f 548//548 546//546 550//550 
f 549//549 552//552 553//553 
f 552//552 554//554 553//553 
f 554//554 551//551 553//553 
f 551//551 549//549 553//553 
f 552//552 555//555 556//556 
f 555//555 557//557 556//556 
f 557//557 554//554 556//556 
f 554//554 552//552 556//556 
f 555//555 558//558 559//559 
f 558//558 560//560 559//559 
f 560//560 557//557 559//559 
f 557//557 555//555 559//559 
f 558//558 561//561 562//562 
f 561//561 563//563 562//562 
f 563//563 560//560 562//562 
f 560//560 558//558 562//562 
s 3
f 561//561 457//457 564//564 
f 457//457 461//461 564//564 
f 461//461 563//563 564//564 
f 563//563 561//561 564//564 
s 16
f 114//114 120//120 565//565 
f 120//120 117//117 565//565 
f 117//117 114//114 565//565 
f 233//233 236//236 566//566 
f 236//236 32//32 566//566 
f 32//32 35//35 566//566 
f 35//35 233//233 566//566 
f 114//114 111//111 567//565 
f 111//111 120//120 567//565 
f 120//120 114//114 567//565 
f 111//111 108//108 568//565 
f 108//108 120//120 568//565 
f 120//120 111//111 568//565 
f 108//108 105//105 569//565 
f 105//105 120//120 569//565 
f 120//120 108//108 569//565 
f 105//105 102//102 570//565 
f 102//102 120//120 570//565 
f 120//120 105//105 570//565 
f 102//102 99//99 571//565 
f 99//99 120//120 571//565 
f 120//120 102//102 571//565 
f 99//99 96//96 572//565 
f 96//96 126//126 572//565 
f 126//126 123//123 572//565 
f 123//123 120//120 572//565 
f 120//120 99//99 572//565 
f 96//96 93//93 573//565 
f 93//93 132//132 573//565 
f 132//132 129//129 573//565 
f 129//129 126//126 573//565 
f 126//126 96//96 573//565 
f 93//93 90//90 574//565 
f 90//90 135//135 574//565 
f 135//135 132//132 574//565 
f 132//132 93//93 574//565 
f 90//90 87//87 575//565 
f 87//87 141//141 575//565 
f 141//141 138//138 575//565 
f 138//138 135//135 575//565 
f 135//135 90//90 575//565 
f 87//87 84//84 576//565 
f 84//84 144//144 576//565 
f 144//144 141//141 576//565 
f 141//141 87//87 576//565 
f 84//84 81//81 577//565 
f 81//81 150//150 577//565 
f 150//150 147//147 577//565 
f 147//147 144//144 577//565 
f 144//144 84//84 577//565 
f 81//81 78//78 578//565 
f 78//78 153//153 578//565 
f 153//153 150//150 578//565 
f 150//150 81//81 578//565 
f 78//78 75//75 579//565 
f 75//75 159//159 579//565 
f 159//159 156//156 579//565 
f 156//156 153//153 579//565 
f 153//153 78//78 579//565 
f 75//75 72//72 580//565 
f 72//72 162//162 580//565 
f 162//162 159//159 580//565 
f 159//159 75//75 580//565 
f 72//72 69//69 581//565 
f 69//69 165//165 581//565 
f 165//165 162//162 581//565 
f 162//162 72//72 581//565 
f 69//69 66//66 582//565 
f 66//66 168//168 582//565 
f 168//168 165//165 582//565 
f 165//165 69//69 582//565 
f 66//66 63//63 583//565 
f 63//63 171//171 583//565 
f 171//171 168//168 583//565 
f 168//168 66//66 583//565 
f 63//63 60//60 584//565 
f 60//60 177//177 584//565 
f 177//177 174//174 584//565 
f 174//174 171//171 584//565 
f 171//171 63//63 584//565 
f 60//60 57//57 585//565 
f 57//57 180//180 585//565 
f 180//180 177//177 585//565 
f 177//177 60//60 585//565 
f 57//57 54//54 586//565 
f 54//54 183//183 586//565 
f 183//183 180//180 586//565 
f 180//180 57//57 586//565 
f 54//54 51//51 587//565 
f 51//51 189//189 587//565 
f 189//189 186//186 587//565 
f 186//186 183//183 587//565 
f 183//183 54//54 587//565 
f 51//51 48//48 588//565 
f 48//48 195//195 588//565 
f 195//195 192//192 588//565 
f 192//192 189//189 588//565 
f 189//189 51//51 588//565 
f 48//48 45//45 589//565 
f 45//45 204//204 589//565 
f 204//204 201//201 589//565 
f 201//201 198//198 589//565 
f 198//198 195//195 589//565 
f 195//195 48//48 589//565 
f 45//45 42//42 590//565 
f 42//42 207//207 590//565 
f 207//207 204//204 590//565 
f 204//204 45//45 590//565 
f 42//42 39//39 591//565 
f 39//39 213//213 591//565 
f 213//213 210//210 591//565 
f 210//210 207//207 591//565 
f 207//207 42//42 591//565 
f 39//39 36//36 592//565 
f 36//36 219//219 592//565 
f 219//219 216//216 592//565 
f 216//216 213//213 592//565 
f 213//213 39//39 592//565 
f 36//36 33//33 593//565 
f 33//33 231//231 593//565 
f 231//231 228//228 593//565 
f 228//228 225//225 593//565 
f 225//225 222//222 593//565 
f 222//222 219//219 593//565 
f 219//219 36//36 593//565 
f 30//30 27//27 594//565 
f 27//27 237//237 594//565 
f 237//237 234//234 594//565 
f 234//234 30//30 594//565 
f 27//27 24//24 595//565 
f 24//24 240//240 595//565 
f 240//240 237//237 595//565 
f 237//237 27//27 595//565 
f 234//234 231//231 596//565 
f 231//231 33//33 596//565 
f 33//33 30//30 596//565 
f 30//30 234//234 596//565 
f 24//24 21//21 597//565 
f 21//21 243//243 597//565 
f 243//243 240//240 597//565 
f 240//240 24//24 597//565 
f 21//21 18//18 598//565 
f 18//18 246//246 598//565 
f 246//246 243//243 598//565 
f 243//243 21//21 598//565 
f 18//18 15//15 599//565 
f 15//15 249//249 599//565 
f 249//249 246//246 599//565 
f 246//246 18//18 599//565 
f 15//15 12//12 600//565 
f 12//12 252//252 600//565 
f 252//252 249//249 600//565 
f 249//249 15//15 600//565 
f 12//12 9//9 601//565 
f 9//9 255//255 601//565 
f 255//255 252//252 601//565 
f 252//252 12//12 601//565 
f 9//9 6//6 602//565 
f 6//6 258//258 602//565 
f 258//258 255//255 602//565 
f 255//255 9//9 602//565 
f 6//6 2//2 603//565 
f 2//2 261//261 603//565 
f 261//261 258//258 603//565 
f 258//258 6//6 603//565 
f 2//2 1//1 604//565 
f 1//1 264//264 604//565 
f 264//264 261//261 604//565 
f 261//261 2//2 604//565 
f 453//453 605//565 552//552 606//565 
f 552//552 549//549 606//565 
f 549//549 453//453 606//565 
f 549//549 546//546 607//565 
f 546//546 264//264 607//565 
f 264//264 1//1 607//565 
f 1//1 453//453 607//565 
f 453//453 549//549 607//565 
f 546//546 543//543 608//565 
f 543//543 264//264 608//565 
f 264//264 546//546 608//565 
f 543//543 540//540 609//565 
f 540//540 264//264 609//565 
f 264//264 543//543 609//565 
f 540//540 537//537 610//565 
f 537//537 264//264 610//565 
f 264//264 540//540 610//565 
f 537//537 534//534 611//565 
f 534//534 279//279 611//565 
f 279//279 276//276 611//565 
f 276//276 273//273 611//565 
f 273//273 270//270 611//565 
f 270//270 267//267 611//565 
f 267//267 264//264 611//565 
f 264//264 537//537 611//565 
f 534//534 531//531 612//565 
f 531//531 288//288 612//565 
f 288//288 285//285 612//565 
f 285//285 282//282 612//565 
f 282//282 279//279 612//565 
f 279//279 534//534 612//565 
f 531//531 528//528 613//565 
f 528//528 291//291 613//565 
f 291//291 288//288 613//565 
f 288//288 531//531 613//565 
f 528//528 525//525 614//565 
f 525//525 294//294 614//565 
f 294//294 291//291 614//565 
f 291//291 528//528 614//565 
f 525//525 522//522 615//565 
f 522//522 300//300 615//565 
f 300//300 297//297 615//565 
f 297//297 294//294 615//565 
f 294//294 525//525 615//565 
f 522//522 519//519 616//565 
f 519//519 303//303 616//565 
f 303//303 300//300 616//565 
f 300//300 522//522 616//565 
f 519//519 516//516 617//565 
f 516//516 306//306 617//565 
f 306//306 303//303 617//565 
f 303//303 519//519 617//565 
f 516//516 513//513 618//565 
f 513//513 312//312 618//565 
f 312//312 309//309 618//565 
f 309//309 306//306 618//565 
f 306//306 516//516 618//565 
f 513//513 510//510 619//565 
f 510//510 315//315 619//565 
f 315//315 312//312 619//565 
f 312//312 513//513 619//565 
f 510//510 507//507 620//565 
f 507//507 318//318 620//565 
f 318//318 315//315 620//565 
f 315//315 510//510 620//565 
f 507//507 504//504 621//565 
f 504//504 321//321 621//565 
f 321//321 318//318 621//565 
f 318//318 507//507 621//565 
f 504//504 501//501 622//565 
f 501//501 327//327 622//565 
f 327//327 324//324 622//565 
f 324//324 321//321 622//565 
f 321//321 504//504 622//565 
f 501//501 498//498 623//565 
f 498//498 333//333 623//565 
f 333//333 330//330 623//565 
f 330//330 327//327 623//565 
f 327//327 501//501 623//565 
f 498//498 495//495 624//565 
f 495//495 339//339 624//565 
f 339//339 336//336 624//565 
f 336//336 333//333 624//565 
f 333//333 498//498 624//565 
f 495//495 492//492 625//565 
f 492//492 345//345 625//565 
f 345//345 342//342 625//565 
f 342//342 339//339 625//565 
f 339//339 495//495 625//565 
f 492//492 489//489 626//565 
f 489//489 354//354 626//565 
f 354//354 351//351 626//565 
f 351//351 348//348 626//565 
f 348//348 345//345 626//565 
f 345//345 492//492 626//565 
f 489//489 486//486 627//565 
f 486//486 360//360 627//565 
f 360//360 357//357 627//565 
f 357//357 354//354 627//565 
f 354//354 489//489 627//565 
f 486//486 483//483 628//565 
f 483//483 366//366 628//565 
f 366//366 363//363 628//565 
f 363//363 360//360 628//565 
f 360//360 486//486 628//565 
f 483//483 480//480 629//565 
f 480//480 372//372 629//565 
f 372//372 369//369 629//565 
f 369//369 366//366 629//565 
f 366//366 483//483 629//565 
f 480//480 477//477 630//565 
f 477//477 378//378 630//565 
f 378//378 375//375 630//565 
f 375//375 372//372 630//565 
f 372//372 480//480 630//565 
f 477//477 474//474 631//565 
f 474//474 384//384 631//565 
f 384//384 381//381 631//565 
f 381//381 378//378 631//565 
f 378//378 477//477 631//565 
f 474//474 471//471 632//565 
f 471//471 390//390 632//565 
f 390//390 387//387 632//565 
f 387//387 384//384 632//565 
f 384//384 474//474 632//565 
f 471//471 468//468 633//565 
f 468//468 399//399 633//565 
f 399//399 396//396 633//565 
f 396//396 393//393 633//565 
f 393//393 390//390 633//565 
f 390//390 471//471 633//565 
f 468//468 465//465 634//565 
f 465//465 405//405 634//565 
f 405//405 402//402 634//565 
f 402//402 399//399 634//565 
f 399//399 468//468 634//565 
f 465//465 462//462 635//565 
f 462//462 414//414 635//565 
f 414//414 411//411 635//565 
f 411//411 408//408 635//565 
f 408//408 405//405 635//565 
f 405//405 465//465 635//565 
f 462//462 458//458 636//565 
f 458//458 420//420 636//565 
f 420//420 417//417 636//565 
f 417//417 414//414 636//565 
f 414//414 462//462 636//565 
f 458//458 457//457 637//565 
f 457//457 423//423 637//565 
f 423//423 420//420 637//565 
f 420//420 458//458 637//565 
f 457//457 561//561 638//565 
f 561//561 432//432 638//565 
f 432//432 429//429 638//565 
f 429//429 426//426 638//565 
f 426//426 423//423 638//565 
f 423//423 457//457 638//565 
f 561//561 558//558 639//565 
f 558//558 441//441 639//565 
f 441//441 438//438 639//565 
f 438//438 435//435 639//565 
f 435//435 432//432 639//565 
f 432//432 561//561 639//565 
f 558//558 555//555 640//565 
f 555//555 453//453 640//565 
f 453//453 450//450 640//565 
f 450//450 447//447 640//565 
f 447//447 444//444 640//565 
f 444//444 441//441 640//565 
f 441//441 558//558 640//565 
f 555//555 552//552 605//565 
f 453//453 555//555 605//565 
f 116//116 119//119 641//566 
f 119//119 122//122 641//566 
f 122//122 116//116 641//566 
f 554//554 557//557 642//566 
f 557//557 455//455 642//566 
f 35//35 38//38 643//566 
f 38//38 221//221 643//566 
f 221//221 224//224 643//566 
f 224//224 227//227 643//566 
f 227//227 230//230 643//566 
f 230//230 233//233 643//566 
f 233//233 35//35 643//566 
f 38//38 41//41 644//566 
f 41//41 215//215 644//566 
f 215//215 218//218 644//566 
f 218//218 221//221 644//566 
f 221//221 38//38 644//566 
f 41//41 44//44 645//566 
f 44//44 209//209 645//566 
f 209//209 212//212 645//566 
f 212//212 215//215 645//566 
f 215//215 41//41 645//566 
f 44//44 47//47 646//566 
f 47//47 206//206 646//566 
f 206//206 209//209 646//566 
f 209//209 44//44 646//566 
f 47//47 50//50 647//566 
f 50//50 197//197 647//566 
f 197//197 200//200 647//566 
f 200//200 203//203 647//566 
f 203//203 206//206 647//566 
f 206//206 47//47 647//566 
f 50//50 53//53 648//566 
f 53//53 191//191 648//566 
f 191//191 194//194 648//566 
f 194//194 197//197 648//566 
f 197//197 50//50 648//566 
f 53//53 56//56 649//566 
f 56//56 185//185 649//566 
f 185//185 188//188 649//566 
f 188//188 191//191 649//566 
f 191//191 53//53 649//566 
f 56//56 59//59 650//566 
f 59//59 182//182 650//566 
f 182//182 185//185 650//566 
f 185//185 56//56 650//566 
f 59//59 62//62 651//566 
f 62//62 179//179 651//566 
f 179//179 182//182 651//566 
f 182//182 59//59 651//566 
f 62//62 65//65 652//566 
f 65//65 173//173 652//566 
f 173//173 176//176 652//566 
f 176//176 179//179 652//566 
f 179//179 62//62 652//566 
f 65//65 68//68 653//566 
f 68//68 170//170 653//566 
f 170//170 173//173 653//566 
f 173//173 65//65 653//566 
f 68//68 71//71 654//566 
f 71//71 167//167 654//566 
f 167//167 170//170 654//566 
f 170//170 68//68 654//566 
f 71//71 74//74 655//566 
f 74//74 164//164 655//566 
f 164//164 167//167 655//566 
f 167//167 71//71 655//566 
f 74//74 77//77 656//566 
f 77//77 161//161 656//566 
f 161//161 164//164 656//566 
f 164//164 74//74 656//566 
f 77//77 80//80 657//566 
f 80//80 155//155 657//566 
f 155//155 158//158 657//566 
f 158//158 161//161 657//566 
f 161//161 77//77 657//566 
f 80//80 83//83 658//566 
f 83//83 152//152 658//566 
f 152//152 155//155 658//566 
f 155//155 80//80 658//566 
f 83//83 86//86 659//566 
f 86//86 146//146 659//566 
f 146//146 149//149 659//566 
f 149//149 152//152 659//566 
f 152//152 83//83 659//566 
f 86//86 89//89 660//566 
f 89//89 143//143 660//566 
f 143//143 146//146 660//566 
f 146//146 86//86 660//566 
f 89//89 92//92 661//566 
f 92//92 137//137 661//566 
f 137//137 140//140 661//566 
f 140//140 143//143 661//566 
f 143//143 89//89 661//566 
f 92//92 95//95 662//566 
f 95//95 134//134 662//566 
f 134//134 137//137 662//566 
f 137//137 92//92 662//566 
f 95//95 98//98 663//566 
f 98//98 128//128 663//566 
f 128//128 131//131 663//566 
f 131//131 134//134 663//566 
f 134//134 95//95 663//566 
f 98//98 101//101 664//566 
f 101//101 122//122 664//566 
f 122//122 125//125 664//566 
f 125//125 128//128 664//566 
f 128//128 98//98 664//566 
f 101//101 104//104 665//566 
f 104//104 122//122 665//566 
f 122//122 101//101 665//566 
f 104//104 107//107 666//566 
f 107//107 122//122 666//566 
f 122//122 104//104 666//566 
f 107//107 110//110 667//566 
f 110//110 122//122 667//566 
f 122//122 107//107 667//566 
f 110//110 113//113 668//566 
f 113//113 122//122 668//566 
f 122//122 110//110 668//566 
f 113//113 116//116 669//566 
f 116//116 122//122 669//566 
f 122//122 113//113 669//566 
f 557//557 560//560 670//566 
f 560//560 443//443 670//566 
f 443//443 446//446 670//566 
f 446//446 449//449 670//566 
f 449//449 452//452 670//566 
f 452//452 455//455 670//566 
f 455//455 557//557 670//566 
f 560//560 563//563 671//566 
f 563//563 434//434 671//566 
f 434//434 437//437 671//566 
f 437//437 440//440 671//566 
f 440//440 443//443 671//566 
f 443//443 560//560 671//566 
f 563//563 461//461 672//566 
f 461//461 425//425 672//566 
f 425//425 428//428 672//566 
f 428//428 431//431 672//566 
f 431//431 434//434 672//566 
f 434//434 563//563 672//566 
f 461//461 460//460 673//566 
f 460//460 422//422 673//566 
f 422//422 425//425 673//566 
f 425//425 461//461 673//566 
f 460//460 464//464 674//566 
f 464//464 416//416 674//566 
f 416//416 419//419 674//566 
f 419//419 422//422 674//566 
f 422//422 460//460 674//566 
f 464//464 467//467 675//566 
f 467//467 407//407 675//566 
f 407//407 410//410 675//566 
f 410//410 413//413 675//566 
f 413//413 416//416 675//566 
f 416//416 464//464 675//566 
f 467//467 470//470 676//566 
f 470//470 401//401 676//566 
f 401//401 404//404 676//566 
f 404//404 407//407 676//566 
f 407//407 467//467 676//566 
f 470//470 473//473 677//566 
f 473//473 392//392 677//566 
f 392//392 395//395 677//566 
f 395//395 398//398 677//566 
f 398//398 401//401 677//566 
f 401//401 470//470 677//566 
f 473//473 476//476 678//566 
f 476//476 386//386 678//566 
f 386//386 389//389 678//566 
f 389//389 392//392 678//566 
f 392//392 473//473 678//566 
f 476//476 479//479 679//566 
f 479//479 380//380 679//566 
f 380//380 383//383 679//566 
f 383//383 386//386 679//566 
f 386//386 476//476 679//566 
f 479//479 482//482 680//566 
f 482//482 374//374 680//566 
f 374//374 377//377 680//566 
f 377//377 380//380 680//566 
f 380//380 479//479 680//566 
f 482//482 485//485 681//566 
f 485//485 368//368 681//566 
f 368//368 371//371 681//566 
f 371//371 374//374 681//566 
f 374//374 482//482 681//566 
f 485//485 488//488 682//566 
f 488//488 362//362 682//566 
f 362//362 365//365 682//566 
f 365//365 368//368 682//566 
f 368//368 485//485 682//566 
f 488//488 491//491 683//566 
f 491//491 356//356 683//566 
f 356//356 359//359 683//566 
f 359//359 362//362 683//566 
f 362//362 488//488 683//566 
f 491//491 494//494 684//566 
f 494//494 347//347 684//566 
f 347//347 350//350 684//566 
f 350//350 353//353 684//566 
f 353//353 356//356 684//566 
f 356//356 491//491 684//566 
f 494//494 497//497 685//566 
f 497//497 341//341 685//566 
f 341//341 344//344 685//566 
f 344//344 347//347 685//566 
f 347//347 494//494 685//566 
f 497//497 500//500 686//566 
f 500//500 335//335 686//566 
f 335//335 338//338 686//566 
f 338//338 341//341 686//566 
f 341//341 497//497 686//566 
f 500//500 503//503 687//566 
f 503//503 329//329 687//566 
f 329//329 332//332 687//566 
f 332//332 335//335 687//566 
f 335//335 500//500 687//566 
f 503//503 506//506 688//566 
f 506//506 323//323 688//566 
f 323//323 326//326 688//566 
f 326//326 329//329 688//566 
f 329//329 503//503 688//566 
f 506//506 509//509 689//566 
f 509//509 320//320 689//566 
f 320//320 323//323 689//566 
f 323//323 506//506 689//566 
f 509//509 512//512 690//566 
f 512//512 317//317 690//566 
f 317//317 320//320 690//566 
f 320//320 509//509 690//566 
f 512//512 515//515 691//566 
f 515//515 314//314 691//566 
f 314//314 317//317 691//566 
f 317//317 512//512 691//566 
f 515//515 518//518 692//566 
f 518//518 308//308 692//566 
f 308//308 311//311 692//566 
f 311//311 314//314 692//566 
f 314//314 515//515 692//566 
f 518//518 521//521 693//566 
f 521//521 305//305 693//566 
f 305//305 308//308 693//566 
f 308//308 518//518 693//566 
f 521//521 524//524 694//566 
f 524//524 302//302 694//566 
f 302//302 305//305 694//566 
f 305//305 521//521 694//566 
f 524//524 527//527 695//566 
f 527//527 296//296 695//566 
f 296//296 299//299 695//566 
f 299//299 302//302 695//566 
f 302//302 524//524 695//566 
f 527//527 530//530 696//566 
f 530//530 293//293 696//566 
f 293//293 296//296 696//566 
f 296//296 527//527 696//566 
f 530//530 533//533 697//566 
f 533//533 290//290 697//566 
f 290//290 293//293 697//566 
f 293//293 530//530 697//566 
f 533//533 536//536 698//566 
f 536//536 281//281 698//566 
f 281//281 284//284 698//566 
f 284//284 287//287 698//566 
f 287//287 290//290 698//566 
f 290//290 533//533 698//566 
f 536//536 539//539 699//566 
f 539//539 266//266 699//566 
f 266//266 269//269 699//566 
f 269//269 272//272 699//566 
f 272//272 275//275 699//566 
f 275//275 278//278 699//566 
f 278//278 281//281 699//566 
f 281//281 536//536 699//566 
f 539//539 542//542 700//566 
f 542//542 266//266 700//566 
f 266//266 539//539 700//566 
f 542//542 545//545 701//566 
f 545//545 266//266 701//566 
f 266//266 542//542 701//566 
f 545//545 548//548 702//566 
f 548//548 266//266 702//566 
f 266//266 545//545 702//566 
f 548//548 551//551 703//566 
f 551//551 455//455 703//566 
f 455//455 5//5 703//566 
f 5//5 266//266 703//566 
f 266//266 548//548 703//566 
f 551//551 554//554 704//566 
f 554//554 642//566 455//455 704//566 
f 455//455 551//551 704//566 
f 5//5 4//4 705//566 
f 4//4 263//263 705//566 
f 263//263 266//266 705//566 
f 266//266 5//5 705//566 
f 4//4 8//8 706//566 
f 8//8 260//260 706//566 
f 260//260 263//263 706//566 
f 263//263 4//4 706//566 
f 8//8 11//11 707//566 
f 11//11 257//257 707//566 
f 257//257 260//260 707//566 
f 260//260 8//8 707//566 
f 11//11 14//14 708//566 
f 14//14 254//254 708//566 
f 254//254 257//257 708//566 
f 257//257 11//11 708//566 
f 14//14 17//17 709//566 
f 17//17 251//251 709//566 
f 251//251 254//254 709//566 
f 254//254 14//14 709//566 
f 17//17 20//20 710//566 
f 20//20 248//248 710//566 
f 248//248 251//251 710//566 
f 251//251 17//17 710//566 
f 20//20 23//23 711//566 
f 23//23 245//245 711//566 
f 245//245 248//248 711//566 
f 248//248 20//20 711//566 
f 23//23 26//26 712//566 
f 26//26 242//242 712//566 
f 242//242 245//245 712//566 
f 245//245 23//23 712//566 
f 26//26 29//29 713//566 
f 29//29 239//239 713//566 
f 239//239 242//242 713//566 
f 242//242 26//26 713//566 
f 29//29 32//32 714//566 
f 32//32 236//236 714//566 
f 236//236 239//239 714//566 
f 239//239 29//29 714//566 
# 2 polygons - 1424 triangles

