# 3ds Max Wavefront OBJ Exporter v0.97b - (c)2007 guruware
# File Created: 07.12.2021 20:30:17

#
# object Symbol_Pai_Yaan_Noi
#

v  365.3476 0.0000 149.8170
v  365.2910 0.0000 150.8069
v  365.3193 5.0000 150.3120
v  365.2910 10.0000 150.8069
v  365.3476 10.0000 149.8170
v  365.1968 0.0000 151.7310
v  365.2439 5.0000 151.2690
v  365.1968 10.0000 151.7310
v  365.0648 0.0000 152.5894
v  365.1308 5.0000 152.1602
v  365.0648 10.0000 152.5894
v  364.8951 0.0000 153.3821
v  364.9800 5.0000 152.9858
v  364.8951 10.0000 153.3821
v  364.6878 0.0000 154.1091
v  364.7914 5.0000 153.7456
v  364.6878 10.0000 154.1091
v  364.4427 0.0000 154.7704
v  364.5652 5.0000 154.4397
v  364.4427 10.0000 154.7704
v  364.1599 0.0000 155.3659
v  364.3013 5.0000 155.0681
v  364.1599 10.0000 155.3659
v  363.8395 0.0000 155.8957
v  363.9997 5.0000 155.6308
v  363.8395 10.0000 155.8957
v  363.4414 0.0000 156.3651
v  363.6404 5.0000 156.1304
v  363.4414 10.0000 156.3651
v  362.9259 0.0000 156.7792
v  363.1837 5.0000 156.5722
v  362.9259 10.0000 156.7792
v  362.2929 0.0000 157.1382
v  362.6094 5.0000 156.9587
v  362.2929 10.0000 157.1382
v  361.5425 0.0000 157.4419
v  361.9177 5.0000 157.2900
v  361.5425 10.0000 157.4419
v  360.6746 0.0000 157.6904
v  361.1086 5.0000 157.5661
v  360.6746 10.0000 157.6904
v  359.6893 0.0000 157.8836
v  360.1819 5.0000 157.7870
v  359.6893 10.0000 157.8836
v  358.5865 0.0000 158.0217
v  359.1379 5.0000 157.9526
v  358.5865 10.0000 158.0217
v  357.3662 0.0000 158.1045
v  357.9764 5.0000 158.0631
v  357.3662 10.0000 158.1045
v  356.0285 0.0000 158.1321
v  356.6974 5.0000 158.1183
v  356.0285 10.0000 158.1321
v  360.3805 0.0000 165.0550
v  358.2045 5.0000 161.5936
v  360.3805 10.0000 165.0550
v  363.4881 0.0000 164.8637
v  361.9343 5.0000 164.9594
v  363.4881 10.0000 164.8637
v  366.2301 0.0000 164.2897
v  364.8591 5.0000 164.5767
v  366.2301 10.0000 164.2897
v  368.6065 0.0000 163.3330
v  367.4183 5.0000 163.8113
v  368.6065 10.0000 163.3330
v  370.6173 0.0000 161.9936
v  369.6119 5.0000 162.6633
v  370.6173 10.0000 161.9936
v  372.2625 0.0000 160.2715
v  371.4399 5.0000 161.1326
v  372.2625 10.0000 160.2715
v  373.5421 0.0000 158.1668
v  372.9023 5.0000 159.2191
v  373.5421 10.0000 158.1668
v  374.4561 0.0000 155.6793
v  373.9991 5.0000 156.9230
v  374.4561 10.0000 155.6793
v  375.0045 0.0000 152.8092
v  374.7303 5.0000 154.2443
v  375.0045 10.0000 152.8092
v  375.1873 0.0000 149.5564
v  375.0959 5.0000 151.1828
v  375.1873 10.0000 149.5564
v  375.1873 0.0000 124.4910
v  375.1873 5.0000 137.0237
v  375.1873 10.0000 124.4910
v  375.1661 0.0000 123.4577
v  375.1768 5.0000 123.9743
v  375.1661 10.0000 123.4577
v  375.1026 0.0000 122.4842
v  375.1344 5.0000 122.9709
v  375.1026 10.0000 122.4842
v  374.9967 0.0000 121.5705
v  375.0497 5.0000 122.0273
v  374.9967 10.0000 121.5705
v  374.8484 0.0000 120.7167
v  374.9226 5.0000 121.1436
v  374.8484 10.0000 120.7167
v  374.6578 0.0000 119.9228
v  374.7531 5.0000 120.3197
v  374.6578 10.0000 119.9228
v  374.4248 0.0000 119.1887
v  374.5413 5.0000 119.5557
v  374.4248 10.0000 119.1887
v  374.1495 0.0000 118.5144
v  374.2871 5.0000 118.8515
v  374.1495 10.0000 118.5144
v  373.8318 0.0000 117.9000
v  373.9906 5.0000 118.2072
v  373.8318 10.0000 117.9000
v  373.4717 0.0000 117.3454
v  373.6517 5.0000 117.6227
v  373.4717 10.0000 117.3454
v  373.0367 0.0000 116.8499
v  373.2542 5.0000 117.0977
v  373.0367 10.0000 116.8499
v  372.4943 0.0000 116.4127
v  372.7655 5.0000 116.6313
v  372.4943 10.0000 116.4127
v  371.8444 0.0000 116.0338
v  372.1693 5.0000 116.2233
v  371.8444 10.0000 116.0338
v  371.0870 0.0000 115.7132
v  371.4657 5.0000 115.8735
v  371.0870 10.0000 115.7132
v  370.2222 0.0000 115.4509
v  370.6546 5.0000 115.5820
v  370.2222 10.0000 115.4509
v  369.2499 0.0000 115.2469
v  369.7361 5.0000 115.3489
v  369.2499 10.0000 115.2469
v  368.1702 0.0000 115.1011
v  368.7101 5.0000 115.1740
v  368.1702 10.0000 115.1011
v  366.9831 0.0000 115.0137
v  367.5767 5.0000 115.0574
v  366.9831 10.0000 115.0137
v  365.6884 0.0000 114.9845
v  366.3358 5.0000 114.9991
v  365.6884 10.0000 114.9845
v  365.6415 0.0000 116.4029
v  365.6650 5.0000 115.6937
v  365.6415 10.0000 116.4029
v  365.5007 0.0000 117.7803
v  365.5711 5.0000 117.0916
v  365.5007 10.0000 117.7803
v  365.2661 0.0000 119.1166
v  365.3834 5.0000 118.4484
v  365.2661 10.0000 119.1166
v  364.9376 0.0000 120.4118
v  365.1018 5.0000 119.7642
v  364.9376 10.0000 120.4118
v  364.5153 0.0000 121.6659
v  364.7264 5.0000 121.0389
v  364.5153 10.0000 121.6659
v  363.9991 0.0000 122.8790
v  364.2571 5.0000 122.2725
v  363.9991 10.0000 122.8790
v  363.3890 0.0000 124.0511
v  363.6940 5.0000 123.4651
v  363.3890 10.0000 124.0511
v  362.6851 0.0000 125.1821
v  363.0370 5.0000 124.6166
v  362.6851 10.0000 125.1821
v  361.8874 0.0000 126.2720
v  362.2862 5.0000 125.7271
v  361.8874 10.0000 126.2720
v  361.0134 0.0000 127.2820
v  361.4503 5.0000 126.7770
v  361.0134 10.0000 127.2820
v  360.0807 0.0000 128.1732
v  360.5470 5.0000 127.7276
v  360.0807 10.0000 128.1732
v  359.0894 0.0000 128.9456
v  359.5851 5.0000 128.5594
v  359.0894 10.0000 128.9456
v  358.0396 0.0000 129.5991
v  358.5645 5.0000 129.2723
v  358.0396 10.0000 129.5991
v  356.9310 0.0000 130.1338
v  357.4853 5.0000 129.8664
v  356.9310 10.0000 130.1338
v  355.7638 0.0000 130.5497
v  356.3474 5.0000 130.3417
v  355.7638 10.0000 130.5497
v  354.5380 0.0000 130.8467
v  355.1509 5.0000 130.6982
v  354.5380 10.0000 130.8467
v  353.2536 0.0000 131.0250
v  353.8958 5.0000 130.9359
v  353.2536 10.0000 131.0250
v  351.9105 0.0000 131.0844
v  352.5820 5.0000 131.0547
v  351.9105 10.0000 131.0844
v  351.1071 0.0000 131.0605
v  351.5088 5.0000 131.0724
v  351.1071 10.0000 131.0605
v  350.3594 0.0000 130.9890
v  350.7332 5.0000 131.0247
v  350.3594 10.0000 130.9890
v  349.6674 0.0000 130.8697
v  350.0134 5.0000 130.9293
v  349.6674 10.0000 130.8697
v  349.0312 0.0000 130.7027
v  349.3493 5.0000 130.7862
v  349.0312 10.0000 130.7027
v  348.4506 0.0000 130.4881
v  348.7409 5.0000 130.5954
v  348.4506 10.0000 130.4881
v  347.9258 0.0000 130.2257
v  348.1882 5.0000 130.3569
v  347.9258 10.0000 130.2257
v  347.4567 0.0000 129.9156
v  347.6912 5.0000 130.0707
v  347.4567 10.0000 129.9156
v  347.0433 0.0000 129.5579
v  347.2500 5.0000 129.7368
v  347.0433 10.0000 129.5579
v  346.6856 0.0000 129.1524
v  346.8644 5.0000 129.3551
v  346.6856 10.0000 129.1524
v  348.2748 0.0000 129.0653
v  347.4802 5.0000 129.1089
v  348.2748 10.0000 129.0653
v  349.6770 0.0000 128.8041
v  348.9759 5.0000 128.9347
v  349.6770 10.0000 128.8041
v  350.8922 0.0000 128.3687
v  350.2846 5.0000 128.5863
v  350.8922 10.0000 128.3687
v  351.9205 0.0000 127.7591
v  351.4064 5.0000 128.0639
v  351.9205 10.0000 127.7591
v  352.7618 0.0000 126.9753
v  352.3412 5.0000 127.3672
v  352.7618 10.0000 126.9753
v  353.4162 0.0000 126.0174
v  353.0891 5.0000 126.4964
v  353.4162 10.0000 126.0174
v  353.8836 0.0000 124.8853
v  353.6499 5.0000 125.4514
v  353.8836 10.0000 124.8853
v  354.1641 0.0000 123.5791
v  354.0238 5.0000 124.2322
v  354.1641 10.0000 123.5791
v  354.2575 0.0000 122.0986
v  354.2108 5.0000 122.8389
v  354.2575 10.0000 122.0986
v  354.1612 0.0000 120.6056
v  354.2094 5.0000 121.3521
v  354.1612 10.0000 120.6056
v  353.8722 0.0000 119.2881
v  354.0167 5.0000 119.9469
v  353.8722 10.0000 119.2881
v  353.3905 0.0000 118.1464
v  353.6313 5.0000 118.7173
v  353.3905 10.0000 118.1464
v  352.7161 0.0000 117.1803
v  353.0533 5.0000 117.6633
v  352.7161 10.0000 117.1803
v  351.8491 0.0000 116.3898
v  352.2826 5.0000 116.7850
v  351.8491 10.0000 116.3898
v  350.7894 0.0000 115.7750
v  351.3192 5.0000 116.0824
v  350.7894 10.0000 115.7750
v  349.5370 0.0000 115.3359
v  350.1632 5.0000 115.5554
v  349.5370 10.0000 115.3359
v  348.0919 0.0000 115.0724
v  348.8145 5.0000 115.2041
v  348.0919 10.0000 115.0724
v  346.4542 0.0000 114.9845
v  347.2730 5.0000 115.0285
v  346.4542 10.0000 114.9845
v  345.4177 0.0000 115.0214
v  345.9359 5.0000 115.0030
v  345.4177 10.0000 115.0214
v  344.4429 0.0000 115.1321
v  344.9303 5.0000 115.0768
v  344.4429 10.0000 115.1321
v  343.5295 0.0000 115.3166
v  343.9862 5.0000 115.2244
v  343.5295 10.0000 115.3166
v  342.6776 0.0000 115.5749
v  343.1036 5.0000 115.4457
v  342.6776 10.0000 115.5749
v  341.8873 0.0000 115.9069
v  342.2825 5.0000 115.7409
v  341.8873 10.0000 115.9069
v  341.1585 0.0000 116.3128
v  341.5229 5.0000 116.1098
v  341.1585 10.0000 116.3128
v  340.4913 0.0000 116.7924
v  340.8249 5.0000 116.5526
v  340.4913 10.0000 116.7924
v  339.8855 0.0000 117.3458
v  340.1884 5.0000 117.0691
v  339.8855 10.0000 117.3458
v  339.3413 0.0000 117.9731
v  339.6134 5.0000 117.6595
v  339.3413 10.0000 117.9731
v  338.8564 0.0000 118.6465
v  339.0988 5.0000 118.3098
v  338.8564 10.0000 118.6465
v  338.4285 0.0000 119.3386
v  338.6424 5.0000 118.9925
v  338.4285 10.0000 119.3386
v  338.0576 0.0000 120.0493
v  338.2430 5.0000 119.6939
v  338.0576 10.0000 120.0493
v  337.7439 0.0000 120.7786
v  337.9008 5.0000 120.4139
v  337.7439 10.0000 120.7786
v  337.4871 0.0000 121.5266
v  337.6155 5.0000 121.1526
v  337.4871 10.0000 121.5266
v  337.2874 0.0000 122.2932
v  337.3873 5.0000 121.9099
v  337.2874 10.0000 122.2932
v  337.1448 0.0000 123.0784
v  337.2161 5.0000 122.6858
v  337.1448 10.0000 123.0784
v  337.0592 0.0000 123.8823
v  337.1020 5.0000 123.4804
v  337.0592 10.0000 123.8823
v  337.0307 0.0000 124.7048
v  337.0450 5.0000 124.2936
v  337.0307 10.0000 124.7048
v  337.0890 0.0000 125.9134
v  337.0599 5.0000 125.3091
v  337.0890 10.0000 125.9134
v  337.2639 0.0000 127.0706
v  337.1765 5.0000 126.4920
v  337.2639 10.0000 127.0706
v  337.5555 0.0000 128.1763
v  337.4097 5.0000 127.6235
v  337.5555 10.0000 128.1763
v  337.9637 0.0000 129.2307
v  337.7596 5.0000 128.7035
v  337.9637 10.0000 129.2307
v  338.4884 0.0000 130.2336
v  338.2260 5.0000 129.7321
v  338.4884 10.0000 130.2336
v  339.1299 0.0000 131.1850
v  338.8091 5.0000 130.7093
v  339.1299 10.0000 131.1850
v  339.8879 0.0000 132.0850
v  339.5089 5.0000 131.6350
v  339.8879 10.0000 132.0850
v  340.7625 0.0000 132.9336
v  340.3252 5.0000 132.5093
v  340.7625 10.0000 132.9336
v  341.7538 0.0000 133.7308
v  341.2581 5.0000 133.3322
v  341.7538 10.0000 133.7308
v  342.8254 0.0000 134.4594
v  342.2896 5.0000 134.0951
v  342.8254 10.0000 134.4594
v  343.9414 0.0000 135.1022
v  343.3834 5.0000 134.7808
v  343.9414 10.0000 135.1022
v  345.1016 0.0000 135.6594
v  344.5215 5.0000 135.3808
v  345.1016 10.0000 135.6594
v  346.3061 0.0000 136.1309
v  345.7038 5.0000 135.8951
v  346.3061 10.0000 136.1309
v  347.5548 0.0000 136.5166
v  346.9304 5.0000 136.3237
v  347.5548 10.0000 136.5166
v  348.8477 0.0000 136.8166
v  348.2013 5.0000 136.6666
v  348.8477 10.0000 136.8166
v  350.1850 0.0000 137.0309
v  349.5164 5.0000 136.9237
v  350.1850 10.0000 137.0309
v  351.5665 0.0000 137.1595
v  350.8757 5.0000 137.0952
v  351.5665 10.0000 137.1595
v  352.9922 0.0000 137.2023
v  352.2793 5.0000 137.1809
v  352.9922 10.0000 137.2023
v  354.7038 0.0000 137.1383
v  353.8480 5.0000 137.1703
v  354.7038 10.0000 137.1383
v  356.3312 0.0000 136.9463
v  355.5175 5.0000 137.0423
v  356.3312 10.0000 136.9463
v  357.8744 0.0000 136.6263
v  357.1028 5.0000 136.7863
v  357.8744 10.0000 136.6263
v  359.3335 0.0000 136.1782
v  358.6039 5.0000 136.4022
v  359.3335 10.0000 136.1782
v  360.7084 0.0000 135.6021
v  360.0209 5.0000 135.8902
v  360.7084 10.0000 135.6021
v  361.9991 0.0000 134.8980
v  361.3538 5.0000 135.2501
v  361.9991 10.0000 134.8980
v  363.2057 0.0000 134.0659
v  362.6024 5.0000 134.4820
v  363.2057 10.0000 134.0659
v  364.3282 0.0000 133.1058
v  363.7670 5.0000 133.5859
v  364.3282 10.0000 133.1058
v  365.3664 0.0000 132.0177
v  364.8473 5.0000 132.5617
v  365.3664 10.0000 132.0177
v  365.3664 0.0000 148.7615
v  365.3664 5.0000 140.3896
v  365.3664 10.0000 148.7615
v  365.3570 5.0000 149.2893
v  347.2790 0.0000 118.7286
v  347.8958 0.0000 118.8520
v  347.5873 5.0000 118.7903
v  347.8958 10.0000 118.8520
v  347.2790 10.0000 118.7286
v  348.4303 0.0000 119.0576
v  348.1630 5.0000 118.9548
v  348.4303 10.0000 119.0576
v  348.8826 0.0000 119.3454
v  348.6564 5.0000 119.2015
v  348.8826 10.0000 119.3454
v  349.2527 0.0000 119.7155
v  349.0676 5.0000 119.5304
v  349.2527 10.0000 119.7155
v  349.5405 0.0000 120.1678
v  349.3966 5.0000 119.9416
v  349.5405 10.0000 120.1678
v  349.7461 0.0000 120.7023
v  349.6433 5.0000 120.4351
v  349.7461 10.0000 120.7023
v  349.8694 0.0000 121.3191
v  349.8078 5.0000 121.0107
v  349.8694 10.0000 121.3191
v  349.9106 0.0000 122.0182
v  349.8900 5.0000 121.6686
v  349.9106 10.0000 122.0182
v  349.8702 0.0000 122.7045
v  349.8904 5.0000 122.3613
v  349.8702 10.0000 122.7045
v  349.7491 0.0000 123.3101
v  349.8096 5.0000 123.0073
v  349.7491 10.0000 123.3101
v  349.5472 0.0000 123.8350
v  349.6482 5.0000 123.5725
v  349.5472 10.0000 123.8350
v  349.2646 0.0000 124.2791
v  349.4059 5.0000 124.0570
v  349.2646 10.0000 124.2791
v  348.9012 0.0000 124.6425
v  349.0829 5.0000 124.4608
v  348.9012 10.0000 124.6425
v  348.4571 0.0000 124.9251
v  348.6792 5.0000 124.7838
v  348.4571 10.0000 124.9251
v  347.9323 0.0000 125.1269
v  348.1947 5.0000 125.0260
v  347.9323 10.0000 125.1269
v  347.3267 0.0000 125.2481
v  347.6295 5.0000 125.1875
v  347.3267 10.0000 125.2481
v  346.6403 0.0000 125.2884
v  346.9835 5.0000 125.2682
v  346.6403 10.0000 125.2884
v  345.9413 0.0000 125.2488
v  346.2908 5.0000 125.2686
v  345.9413 10.0000 125.2488
v  345.3245 0.0000 125.1298
v  345.6329 5.0000 125.1893
v  345.3245 10.0000 125.1298
v  344.7899 0.0000 124.9315
v  345.0572 5.0000 125.0307
v  344.7899 10.0000 124.9315
v  344.3376 0.0000 124.6539
v  344.5638 5.0000 124.7927
v  344.3376 10.0000 124.6539
v  343.9676 0.0000 124.2970
v  344.1526 5.0000 124.4754
v  343.9676 10.0000 124.2970
v  343.6797 0.0000 123.8607
v  343.8236 5.0000 124.0788
v  343.6797 10.0000 123.8607
v  343.4741 0.0000 123.3451
v  343.5769 5.0000 123.6029
v  343.4741 10.0000 123.3451
v  343.3508 0.0000 122.7502
v  343.4124 5.0000 123.0477
v  343.3508 10.0000 122.7502
v  343.3097 0.0000 122.0760
v  343.3302 5.0000 122.4131
v  343.3097 10.0000 122.0760
v  343.3500 0.0000 121.3648
v  343.3298 5.0000 121.7204
v  343.3500 10.0000 121.3648
v  343.4712 0.0000 120.7373
v  343.4106 5.0000 121.0511
v  343.4712 10.0000 120.7373
v  343.6730 0.0000 120.1935
v  343.5721 5.0000 120.4654
v  343.6730 10.0000 120.1935
v  343.9556 0.0000 119.7333
v  343.8143 5.0000 119.9634
v  343.9556 10.0000 119.7333
v  344.3190 0.0000 119.3568
v  344.1373 5.0000 119.5451
v  344.3190 10.0000 119.3568
v  344.7631 0.0000 119.0640
v  344.5410 5.0000 119.2104
v  344.7631 10.0000 119.0640
v  345.2880 0.0000 118.8548
v  345.0255 5.0000 118.9594
v  345.2880 10.0000 118.8548
v  345.8936 0.0000 118.7293
v  345.5908 5.0000 118.7921
v  345.8936 10.0000 118.7293
v  346.5799 0.0000 118.6875
v  346.2368 5.0000 118.7084
v  346.5799 10.0000 118.6875
v  346.9294 5.0000 118.7081
v  345.2552 0.0000 128.3551
v  345.2552 10.0000 128.3551
v  344.3398 10.0000 128.0365
v  347.2318 0.0000 127.1886
v  344.5770 0.0000 131.7251
v  345.3167 0.0000 132.2588
v  346.1064 0.0000 132.7258
v  346.9460 0.0000 133.1260
v  347.8356 0.0000 133.4596
v  348.7753 0.0000 133.7264
v  349.7649 0.0000 133.9265
v  350.5505 0.0000 133.0268
v  351.1923 0.0000 134.0838
v  352.4307 0.0000 134.1178
v  354.3637 0.0000 134.6317
v  356.1269 0.0000 133.7422
v  357.4757 0.0000 133.3720
v  358.7531 0.0000 132.8783
v  360.6085 0.0000 132.6221
v  361.6760 0.0000 131.0726
v  362.6972 0.0000 130.1447
v  357.9251 0.0000 160.4305
v  366.5866 0.0000 125.3150
v  358.7777 0.0000 160.3937
v  359.5521 0.0000 160.3201
v  361.0581 0.0000 161.3732
v  361.9017 0.0000 159.9986
v  363.3884 0.0000 160.9333
v  365.0139 0.0000 160.3850
v  366.3978 0.0000 159.6177
v  365.9661 0.0000 158.0848
v  367.7198 0.0000 158.3817
v  368.6018 0.0000 157.1436
v  369.2822 0.0000 155.6814
v  368.0130 0.0000 154.3902
v  369.8552 0.0000 153.6150
v  368.4220 0.0000 152.3766
v  370.1699 0.0000 151.2259
v  368.6086 0.0000 150.0601
v  368.6338 0.0000 149.3783
v  370.2769 0.0000 138.7066
v  365.8636 0.0000 127.5157
v  367.0872 0.0000 124.5747
v  367.5251 0.0000 123.8071
v  367.9005 0.0000 123.0120
v  370.9818 0.0000 122.5021
v  371.6349 0.0000 120.7038
v  371.6656 0.0000 117.5191
v  367.7569 0.0000 115.9964
v  366.6208 0.0000 115.3756
v  348.3027 0.0000 127.0611
v  349.2397 0.0000 126.8062
v  350.0428 0.0000 126.4238
v  350.7120 0.0000 125.9140
v  351.2475 0.0000 125.2767
v  351.6490 0.0000 124.5119
v  351.9167 0.0000 123.6198
v  352.0506 0.0000 122.6001
v  352.0497 0.0000 121.5104
v  351.9122 0.0000 120.4788
v  351.6373 0.0000 119.5762
v  351.2250 0.0000 118.8025
v  350.6980 0.0000 117.6812
v  349.4098 0.0000 117.3785
v  348.4887 0.0000 117.0794
v  347.7556 0.0000 117.5510
v  347.1013 0.0000 116.8683
v  346.0864 0.0000 116.8557
v  345.2605 0.0000 116.9344
v  344.1402 0.0000 116.7885
v  343.4118 0.0000 117.4757
v  342.3624 0.0000 117.6205
v  341.4694 0.0000 118.4076
v  340.7541 0.0000 119.3778
v  340.2102 0.0000 120.4537
v  340.4727 0.0000 121.4365
v  339.7160 0.0000 122.3449
v  339.6119 0.0000 123.5522
v  339.7075 0.0000 124.9789
v  340.0861 0.0000 126.5271
v  340.7774 0.0000 127.9200
v  341.7816 0.0000 129.1578
v  343.1577 0.0000 129.1814
v  344.3398 0.0000 128.0365
v  362.6972 10.0000 130.1447
v  343.1577 10.0000 129.1814
v  341.7816 10.0000 129.1578
v  340.7774 10.0000 127.9200
v  340.0861 10.0000 126.5271
v  339.7075 10.0000 124.9789
v  339.6119 10.0000 123.5522
v  339.7160 10.0000 122.3449
v  340.4727 10.0000 121.4365
v  340.2102 10.0000 120.4537
v  340.7541 10.0000 119.3778
v  341.4694 10.0000 118.4076
v  342.3624 10.0000 117.6205
v  343.4118 10.0000 117.4757
v  344.1402 10.0000 116.7885
v  345.2605 10.0000 116.9344
v  346.0864 10.0000 116.8557
v  347.1013 10.0000 116.8683
v  347.7556 10.0000 117.5510
v  348.4887 10.0000 117.0794
v  349.4098 10.0000 117.3785
v  350.6980 10.0000 117.6812
v  351.2250 10.0000 118.8025
v  351.6373 10.0000 119.5762
v  351.9122 10.0000 120.4788
v  352.0497 10.0000 121.5104
v  352.0506 10.0000 122.6001
v  351.9167 10.0000 123.6198
v  351.6490 10.0000 124.5119
v  351.2475 10.0000 125.2767
v  350.7120 10.0000 125.9140
v  350.0428 10.0000 126.4238
v  349.2397 10.0000 126.8062
v  348.3027 10.0000 127.0611
v  347.2318 10.0000 127.1886
v  370.2769 10.0000 138.7066
v  366.6208 10.0000 115.3756
v  361.6760 10.0000 131.0726
v  360.6085 10.0000 132.6221
v  358.7531 10.0000 132.8783
v  357.4757 10.0000 133.3720
v  356.1269 10.0000 133.7422
v  354.3637 10.0000 134.6317
v  352.4307 10.0000 134.1178
v  351.1923 10.0000 134.0838
v  350.5505 10.0000 133.0268
v  349.7649 10.0000 133.9265
v  348.7753 10.0000 133.7264
v  347.8356 10.0000 133.4596
v  346.9460 10.0000 133.1260
v  346.1064 10.0000 132.7258
v  345.3167 10.0000 132.2588
v  344.5770 10.0000 131.7251
v  367.7569 10.0000 115.9964
v  371.6656 10.0000 117.5191
v  371.6349 10.0000 120.7038
v  370.9818 10.0000 122.5021
v  367.9005 10.0000 123.0120
v  367.5251 10.0000 123.8071
v  367.0872 10.0000 124.5747
v  366.5866 10.0000 125.3150
v  365.8636 10.0000 127.5157
v  368.6338 10.0000 149.3783
v  368.6086 10.0000 150.0601
v  370.1699 10.0000 151.2259
v  368.4220 10.0000 152.3766
v  369.8552 10.0000 153.6150
v  368.0130 10.0000 154.3902
v  369.2822 10.0000 155.6814
v  368.6018 10.0000 157.1436
v  367.7198 10.0000 158.3817
v  365.9661 10.0000 158.0848
v  366.3978 10.0000 159.6177
v  365.0139 10.0000 160.3850
v  363.3884 10.0000 160.9333
v  361.9017 10.0000 159.9986
v  361.0581 10.0000 161.3732
v  359.5521 10.0000 160.3201
v  358.7777 10.0000 160.3937
v  357.9251 10.0000 160.4305
# 686 vertices

vn -0.7021 -0.7115 -0.0263
vn -0.6998 -0.7122 -0.0557
vn -0.9984 0.0000 -0.0570
vn -0.6998 0.7122 -0.0557
vn -0.7021 0.7115 -0.0263
vn -0.6956 -0.7129 -0.0889
vn -0.9948 0.0000 -0.1015
vn -0.6956 0.7129 -0.0889
vn -0.6889 -0.7137 -0.1266
vn -0.9884 0.0000 -0.1519
vn -0.6889 0.7137 -0.1266
vn -0.6786 -0.7147 -0.1692
vn -0.9779 0.0000 -0.2093
vn -0.6786 0.7147 -0.1692
vn -0.6636 -0.7159 -0.2172
vn -0.9616 0.0000 -0.2743
vn -0.6636 0.7159 -0.2172
vn -0.6421 -0.7172 -0.2708
vn -0.9377 0.0000 -0.3475
vn -0.6421 0.7172 -0.2708
vn -0.6124 -0.7186 -0.3295
vn -0.9033 0.0000 -0.4289
vn -0.6124 0.7186 -0.3295
vn -0.5587 -0.7255 -0.4020
vn -0.8556 0.0000 -0.5176
vn -0.5587 0.7255 -0.4020
vn -0.4774 -0.7292 -0.4903
vn -0.7627 0.0000 -0.6468
vn -0.4774 0.7292 -0.4903
vn -0.3864 -0.7257 -0.5693
vn -0.6263 0.0000 -0.7796
vn -0.3864 0.7257 -0.5693
vn -0.3010 -0.7222 -0.6228
vn -0.4933 0.0000 -0.8699
vn -0.3010 0.7222 -0.6228
vn -0.2263 -0.7192 -0.6569
vn -0.3752 0.0000 -0.9270
vn -0.2263 0.7192 -0.6569
vn -0.1632 -0.7168 -0.6779
vn -0.2753 0.0000 -0.9614
vn -0.1632 0.7168 -0.6779
vn -0.1108 -0.7150 -0.6903
vn -0.1925 0.0000 -0.9813
vn -0.1108 0.7150 -0.6903
vn -0.0673 -0.7135 -0.6974
vn -0.1242 0.0000 -0.9923
vn -0.0673 0.7135 -0.6974
vn -0.0310 -0.7125 -0.7010
vn -0.0677 0.0000 -0.9977
vn -0.0310 0.7125 -0.7010
vn -0.7327 -0.5541 -0.3950
vn -0.0206 0.0000 -0.9998
vn -0.7327 0.5541 -0.3950
vn -0.3623 -0.6083 0.7062
vn -0.8466 0.0000 0.5322
vn -0.3623 0.6083 0.7062
vn 0.0965 -0.6912 0.7162
vn 0.0615 0.0000 0.9981
vn 0.0965 0.6912 0.7162
vn 0.2107 -0.6878 0.6946
vn 0.2049 0.0000 0.9788
vn 0.2107 0.6878 0.6946
vn 0.3399 -0.6848 0.6446
vn 0.3735 0.0000 0.9276
vn 0.3399 0.6848 0.6446
vn 0.4693 -0.6831 0.5595
vn 0.5544 0.0000 0.8323
vn 0.4693 0.6831 0.5595
vn 0.5791 -0.6836 0.4443
vn 0.7231 0.0000 0.6908
vn 0.5791 0.6836 0.4443
vn 0.6555 -0.6859 0.3160
vn 0.8545 0.0000 0.5195
vn 0.6555 0.6859 0.3160
vn 0.6982 -0.6892 0.1936
vn 0.9386 0.0000 0.3449
vn 0.6982 0.6892 0.1936
vn 0.7160 -0.6925 0.0881
vn 0.9822 0.0000 0.1877
vn 0.7160 0.6925 0.0881
vn 0.7130 -0.7008 0.0200
vn 0.9984 0.0000 0.0561
vn 0.7130 0.7008 0.0200
vn 0.7094 -0.7048 -0.0073
vn 1.0000 0.0000 -0.0000
vn 0.7094 0.7048 -0.0073
vn 0.7114 -0.7021 -0.0305
vn 0.9998 0.0000 -0.0205
vn 0.7114 0.7021 -0.0305
vn 0.7098 -0.7015 -0.0643
vn 0.9979 0.0000 -0.0651
vn 0.7098 0.7015 -0.0643
vn 0.7060 -0.7008 -0.1021
vn 0.9933 0.0000 -0.1151
vn 0.7060 0.7008 -0.1021
vn 0.6994 -0.7000 -0.1445
vn 0.9853 0.0000 -0.1711
vn 0.6994 0.7000 -0.1445
vn 0.6888 -0.6991 -0.1917
vn 0.9724 0.0000 -0.2335
vn 0.6888 0.6991 -0.1917
vn 0.6731 -0.6982 -0.2438
vn 0.9531 0.0000 -0.3025
vn 0.6731 0.6982 -0.2438
vn 0.6509 -0.6972 -0.3005
vn 0.9258 0.0000 -0.3781
vn 0.6509 0.6972 -0.3005
vn 0.6206 -0.6962 -0.3608
vn 0.8883 0.0000 -0.4593
vn 0.6206 0.6962 -0.3608
vn 0.5761 -0.6912 -0.4363
vn 0.8387 0.0000 -0.5446
vn 0.5761 0.6912 -0.4363
vn 0.5021 -0.6883 -0.5236
vn 0.7515 0.0000 -0.6597
vn 0.5021 0.6883 -0.5236
vn 0.4102 -0.6906 -0.5957
vn 0.6275 0.0000 -0.7786
vn 0.4102 0.6906 -0.5957
vn 0.3227 -0.6931 -0.6446
vn 0.5037 0.0000 -0.8639
vn 0.3227 0.6931 -0.6446
vn 0.2447 -0.6954 -0.6757
vn 0.3898 0.0000 -0.9209
vn 0.2447 0.6954 -0.6757
vn 0.1778 -0.6974 -0.6943
vn 0.2903 0.0000 -0.9569
vn 0.1778 0.6974 -0.6943
vn 0.1213 -0.6990 -0.7047
vn 0.2054 0.0000 -0.9787
vn 0.1213 0.6990 -0.7047
vn 0.0740 -0.7003 -0.7100
vn 0.1338 0.0000 -0.9910
vn 0.0740 0.7003 -0.7100
vn 0.0342 -0.7014 -0.7119
vn 0.0735 0.0000 -0.9973
vn 0.0342 0.7014 -0.7119
vn -0.5608 -0.5779 -0.5929
vn 0.0225 0.0000 -0.9997
vn -0.5608 0.5779 -0.5929
vn -0.6976 -0.7149 -0.0471
vn -0.9995 0.0000 -0.0331
vn -0.6976 0.7149 -0.0471
vn -0.6922 -0.7153 -0.0960
vn -0.9948 0.0000 -0.1017
vn -0.6922 0.7153 -0.0960
vn -0.6830 -0.7156 -0.1464
vn -0.9849 0.0000 -0.1729
vn -0.6830 0.7156 -0.1464
vn -0.6698 -0.7158 -0.1974
vn -0.9693 0.0000 -0.2458
vn -0.6698 0.7158 -0.1974
vn -0.6525 -0.7159 -0.2483
vn -0.9477 0.0000 -0.3191
vn -0.6525 0.7159 -0.2483
vn -0.6313 -0.7159 -0.2981
vn -0.9202 0.0000 -0.3915
vn -0.6313 0.7159 -0.2981
vn -0.6065 -0.7159 -0.3459
vn -0.8870 0.0000 -0.4617
vn -0.6065 0.7159 -0.3459
vn -0.5787 -0.7157 -0.3911
vn -0.8490 0.0000 -0.5284
vn -0.5787 0.7157 -0.3911
vn -0.5457 -0.7164 -0.4347
vn -0.8069 0.0000 -0.5906
vn -0.5457 0.7164 -0.4347
vn -0.5042 -0.7179 -0.4799
vn -0.7562 0.0000 -0.6544
vn -0.5042 0.7179 -0.4799
vn -0.4545 -0.7186 -0.5263
vn -0.6909 0.0000 -0.7230
vn -0.4545 0.7186 -0.5263
vn -0.3977 -0.7191 -0.5698
vn -0.6146 0.0000 -0.7888
vn -0.3977 0.7191 -0.5698
vn -0.3349 -0.7194 -0.6085
vn -0.5284 0.0000 -0.8490
vn -0.3349 0.7194 -0.6085
vn -0.2679 -0.7194 -0.6409
vn -0.4345 0.0000 -0.9007
vn -0.2679 0.7194 -0.6409
vn -0.1987 -0.7191 -0.6659
vn -0.3356 0.0000 -0.9420
vn -0.1987 0.7191 -0.6659
vn -0.1299 -0.7185 -0.6833
vn -0.2355 0.0000 -0.9719
vn -0.1299 0.7185 -0.6833
vn -0.0633 -0.7178 -0.6934
vn -0.1375 0.0000 -0.9905
vn -0.0633 0.7178 -0.6934
vn -0.0051 -0.7155 -0.6986
vn -0.0442 0.0000 -0.9990
vn -0.0051 0.7155 -0.6986
vn 0.0437 -0.7146 -0.6982
vn 0.0297 0.0000 -0.9996
vn 0.0437 0.7146 -0.6982
vn 0.0926 -0.7157 -0.6923
vn 0.0953 0.0000 -0.9955
vn 0.0926 0.7157 -0.6923
vn 0.1478 -0.7169 -0.6813
vn 0.1698 0.0000 -0.9855
vn 0.1478 0.7169 -0.6813
vn 0.2092 -0.7182 -0.6636
vn 0.2538 0.0000 -0.9673
vn 0.2092 0.7182 -0.6636
vn 0.2761 -0.7196 -0.6371
vn 0.3468 0.0000 -0.9379
vn 0.2761 0.7196 -0.6371
vn 0.3466 -0.7209 -0.6001
vn 0.4472 0.0000 -0.8945
vn 0.3466 0.7209 -0.6001
vn 0.4181 -0.7219 -0.5514
vn 0.5514 0.0000 -0.8342
vn 0.4181 0.7219 -0.5514
vn 0.4865 -0.7226 -0.4911
vn 0.6544 0.0000 -0.7561
vn 0.4865 0.7226 -0.4911
vn 0.2276 -0.9691 0.0953
vn 0.7499 0.0000 -0.6615
vn 0.2276 0.9691 0.0953
vn 0.0859 -0.6928 0.7160
vn 0.0547 0.0000 0.9985
vn 0.0859 0.6928 0.7160
vn 0.1891 -0.6896 0.6991
vn 0.1832 0.0000 0.9831
vn 0.1891 0.6896 0.6991
vn 0.3095 -0.6863 0.6582
vn 0.3373 0.0000 0.9414
vn 0.3095 0.6863 0.6582
vn 0.4373 -0.6838 0.5842
vn 0.5099 0.0000 0.8602
vn 0.4373 0.6838 0.5842
vn 0.5539 -0.6831 0.4761
vn 0.6816 0.0000 0.7317
vn 0.5539 0.6831 0.4761
vn 0.6414 -0.6845 0.3466
vn 0.8257 0.0000 0.5641
vn 0.6414 0.6845 0.3466
vn 0.6935 -0.6874 0.2157
vn 0.9243 0.0000 0.3816
vn 0.6935 0.6874 0.2157
vn 0.7163 -0.6908 0.0989
vn 0.9777 0.0000 0.2099
vn 0.7163 0.6908 0.0989
vn 0.7209 -0.6930 -0.0005
vn 0.9980 0.0000 0.0630
vn 0.7209 0.6930 -0.0005
vn 0.7163 -0.6905 -0.1011
vn 0.9979 0.0000 -0.0644
vn 0.7163 0.6905 -0.1011
vn 0.6925 -0.6871 -0.2200
vn 0.9768 0.0000 -0.2143
vn 0.6925 0.6871 -0.2200
vn 0.6385 -0.6842 -0.3524
vn 0.9214 0.0000 -0.3887
vn 0.6385 0.6842 -0.3524
vn 0.5489 -0.6830 -0.4819
vn 0.8200 0.0000 -0.5724
vn 0.5489 0.6830 -0.4819
vn 0.4313 -0.6839 -0.5885
vn 0.6737 0.0000 -0.7390
vn 0.4313 0.6839 -0.5885
vn 0.3041 -0.6865 -0.6605
vn 0.5018 0.0000 -0.8650
vn 0.3041 0.6865 -0.6605
vn 0.1853 -0.6899 -0.6998
vn 0.3309 0.0000 -0.9437
vn 0.1853 0.6899 -0.6998
vn 0.0841 -0.6931 -0.7159
vn 0.1794 0.0000 -0.9838
vn 0.0841 0.6931 -0.7159
vn 0.0064 -0.6972 -0.7168
vn 0.0535 0.0000 -0.9986
vn 0.0064 0.6972 -0.7168
vn -0.0531 -0.6985 -0.7136
vn -0.0356 0.0000 -0.9994
vn -0.0531 0.6985 -0.7136
vn -0.1115 -0.6975 -0.7078
vn -0.1128 0.0000 -0.9936
vn -0.1115 0.6975 -0.7078
vn -0.1753 -0.6966 -0.6957
vn -0.1980 0.0000 -0.9802
vn -0.1753 0.6966 -0.6957
vn -0.2437 -0.6957 -0.6758
vn -0.2901 0.0000 -0.9570
vn -0.2437 0.6957 -0.6758
vn -0.3147 -0.6949 -0.6466
vn -0.3874 0.0000 -0.9219
vn -0.3147 0.6949 -0.6466
vn -0.3857 -0.6944 -0.6075
vn -0.4865 0.0000 -0.8737
vn -0.3857 0.6944 -0.6075
vn -0.4536 -0.6942 -0.5589
vn -0.5837 0.0000 -0.8120
vn -0.4536 0.6942 -0.5589
vn -0.5154 -0.6943 -0.5023
vn -0.6745 0.0000 -0.7383
vn -0.5154 0.6943 -0.5023
vn -0.5623 -0.6971 -0.4449
vn -0.7553 0.0000 -0.6554
vn -0.5623 0.6971 -0.4449
vn -0.5944 -0.6993 -0.3971
vn -0.8115 0.0000 -0.5844
vn -0.5944 0.6993 -0.3971
vn -0.6215 -0.6990 -0.3537
vn -0.8506 0.0000 -0.5259
vn -0.6215 0.6990 -0.3537
vn -0.6461 -0.6988 -0.3070
vn -0.8866 0.0000 -0.4626
vn -0.6461 0.6988 -0.3070
vn -0.6674 -0.6987 -0.2577
vn -0.9186 0.0000 -0.3952
vn -0.6674 0.6987 -0.2577
vn -0.6850 -0.6987 -0.2064
vn -0.9458 0.0000 -0.3246
vn -0.6850 0.6987 -0.2064
vn -0.6985 -0.6988 -0.1542
vn -0.9677 0.0000 -0.2521
vn -0.6985 0.6988 -0.1542
vn -0.7079 -0.6989 -0.1018
vn -0.9839 0.0000 -0.1787
vn -0.7079 0.6989 -0.1018
vn -0.7132 -0.6992 -0.0503
vn -0.9944 0.0000 -0.1059
vn -0.7132 0.6992 -0.0503
vn -0.7162 -0.6979 0.0048
vn -0.9994 0.0000 -0.0347
vn -0.7162 0.6979 0.0048
vn -0.7147 -0.6958 0.0711
vn -0.9988 0.0000 0.0482
vn -0.7147 0.6958 0.0711
vn -0.7039 -0.6952 0.1456
vn -0.9888 0.0000 0.1495
vn -0.7039 0.6952 0.1456
vn -0.6842 -0.6948 0.2219
vn -0.9670 0.0000 0.2549
vn -0.6842 0.6948 0.2219
vn -0.6551 -0.6946 0.2971
vn -0.9326 0.0000 0.3610
vn -0.6551 0.6946 0.2971
vn -0.6177 -0.6948 0.3683
vn -0.8860 0.0000 0.4636
vn -0.6177 0.6948 0.3683
vn -0.5737 -0.6953 0.4330
vn -0.8292 0.0000 0.5590
vn -0.5737 0.6953 0.4330
vn -0.5253 -0.6960 0.4896
vn -0.7649 0.0000 0.6442
vn -0.5253 0.6960 0.4896
vn -0.4750 -0.6968 0.5375
vn -0.6963 0.0000 0.7177
vn -0.4750 0.6968 0.5375
vn -0.4259 -0.6982 0.5754
vn -0.6267 0.0000 0.7793
vn -0.4259 0.6982 0.5754
vn -0.3799 -0.6988 0.6061
vn -0.5622 0.0000 0.8270
vn -0.3799 0.6988 0.6061
vn -0.3336 -0.6988 0.6328
vn -0.4992 0.0000 0.8665
vn -0.3336 0.6988 0.6328
vn -0.2854 -0.6988 0.6559
vn -0.4329 0.0000 0.9014
vn -0.2854 0.6988 0.6559
vn -0.2360 -0.6989 0.6751
vn -0.3645 0.0000 0.9312
vn -0.2360 0.6989 0.6751
vn -0.1864 -0.6991 0.6903
vn -0.2951 0.0000 0.9555
vn -0.1864 0.6991 0.6903
vn -0.1374 -0.6994 0.7014
vn -0.2260 0.0000 0.9741
vn -0.1374 0.6994 0.7014
vn -0.0897 -0.6997 0.7087
vn -0.1582 0.0000 0.9874
vn -0.0897 0.6997 0.7087
vn -0.0438 -0.7001 0.7127
vn -0.0927 0.0000 0.9957
vn -0.0438 0.7001 0.7127
vn 0.0026 -0.6996 0.7145
vn -0.0300 0.0000 0.9995
vn 0.0026 0.6996 0.7145
vn 0.0554 -0.6982 0.7138
vn 0.0374 0.0000 0.9993
vn 0.0554 0.6982 0.7138
vn 0.1149 -0.6974 0.7074
vn 0.1172 0.0000 0.9931
vn 0.1149 0.6974 0.7074
vn 0.1783 -0.6967 0.6948
vn 0.2031 0.0000 0.9792
vn 0.1783 0.6967 0.6948
vn 0.2444 -0.6962 0.6750
vn 0.2936 0.0000 0.9559
vn 0.2444 0.6962 0.6750
vn 0.3112 -0.6957 0.6474
vn 0.3864 0.0000 0.9223
vn 0.3112 0.6957 0.6474
vn 0.3765 -0.6956 0.6119
vn 0.4789 0.0000 0.8779
vn 0.3765 0.6956 0.6119
vn 0.4380 -0.6956 0.5694
vn 0.5677 0.0000 0.8232
vn 0.4380 0.6956 0.5694
vn 0.4938 -0.6959 0.5214
vn 0.6500 0.0000 0.7599
vn 0.4938 0.6959 0.5214
vn -0.0770 -0.9783 0.1921
vn 0.7235 0.0000 0.6903
vn -0.0770 0.9783 0.1921
vn -0.7051 -0.7091 -0.0063
vn -1.0000 0.0000 -0.0000
vn -0.7051 0.7091 -0.0063
vn -0.9998 0.0000 -0.0179
vn -0.0882 -0.7230 0.6852
vn -0.1914 -0.7267 0.6598
vn -0.1961 0.0000 0.9806
vn -0.1914 0.7267 0.6598
vn -0.0882 0.7230 0.6852
vn -0.3076 -0.7302 0.6101
vn -0.3590 0.0000 0.9333
vn -0.3076 0.7302 0.6101
vn -0.4260 -0.7325 0.5310
vn -0.5369 0.0000 0.8437
vn -0.4260 0.7325 0.5310
vn -0.5310 -0.7325 0.4260
vn -0.7071 0.0000 0.7071
vn -0.5310 0.7325 0.4260
vn -0.6101 -0.7302 0.3076
vn -0.8437 0.0000 0.5369
vn -0.6101 0.7302 0.3076
vn -0.6598 -0.7267 0.1913
vn -0.9333 0.0000 0.3590
vn -0.6598 0.7267 0.1913
vn -0.6852 -0.7230 0.0882
vn -0.9806 0.0000 0.1961
vn -0.6852 0.7230 0.0882
vn -0.6934 -0.7206 0.0000
vn -0.9983 0.0000 0.0587
vn -0.6934 0.7206 0.0000
vn -0.6852 -0.7230 -0.0882
vn -0.9983 0.0000 -0.0587
vn -0.6852 0.7230 -0.0882
vn -0.6598 -0.7267 -0.1914
vn -0.9806 0.0000 -0.1961
vn -0.6598 0.7267 -0.1914
vn -0.6101 -0.7302 -0.3076
vn -0.9333 0.0000 -0.3590
vn -0.6101 0.7302 -0.3076
vn -0.5310 -0.7325 -0.4260
vn -0.8437 0.0000 -0.5369
vn -0.5310 0.7325 -0.4260
vn -0.4260 -0.7325 -0.5310
vn -0.7071 0.0000 -0.7071
vn -0.4260 0.7325 -0.5310
vn -0.3076 -0.7302 -0.6101
vn -0.5369 0.0000 -0.8437
vn -0.3076 0.7302 -0.6101
vn -0.1914 -0.7267 -0.6598
vn -0.3590 0.0000 -0.9333
vn -0.1914 0.7267 -0.6598
vn -0.0882 -0.7230 -0.6852
vn -0.1961 0.0000 -0.9806
vn -0.0882 0.7230 -0.6852
vn -0.0007 -0.7203 -0.6936
vn -0.0587 0.0000 -0.9983
vn -0.0007 0.7203 -0.6936
vn 0.0853 -0.7225 -0.6861
vn 0.0566 0.0000 -0.9984
vn 0.0853 0.7225 -0.6861
vn 0.1853 -0.7261 -0.6622
vn 0.1894 0.0000 -0.9819
vn 0.1853 0.7261 -0.6622
vn 0.2992 -0.7297 -0.6148
vn 0.3478 0.0000 -0.9376
vn 0.2992 0.7297 -0.6148
vn 0.4169 -0.7323 -0.5384
vn 0.5231 0.0000 -0.8523
vn 0.4169 0.7323 -0.5384
vn 0.5234 -0.7327 -0.4349
vn 0.6942 0.0000 -0.7198
vn 0.5234 0.7327 -0.4349
vn 0.6051 -0.7307 -0.3160
vn 0.8347 0.0000 -0.5507
vn 0.6051 0.7307 -0.3160
vn 0.6573 -0.7273 -0.1975
vn 0.9289 0.0000 -0.3704
vn 0.6573 0.7273 -0.1975
vn 0.6841 -0.7236 -0.0913
vn 0.9792 0.0000 -0.2030
vn 0.6841 0.7236 -0.0913
vn 0.6934 -0.7206 -0.0015
vn 0.9981 0.0000 -0.0609
vn 0.6934 0.7206 -0.0015
vn 0.6861 -0.7225 0.0853
vn 0.9984 0.0000 0.0567
vn 0.6861 0.7225 0.0853
vn 0.6621 -0.7261 0.1854
vn 0.9819 0.0000 0.1895
vn 0.6621 0.7261 0.1854
vn 0.6147 -0.7297 0.2993
vn 0.9375 0.0000 0.3480
vn 0.6147 0.7297 0.2993
vn 0.5383 -0.7323 0.4171
vn 0.8521 0.0000 0.5233
vn 0.5383 0.7323 0.4171
vn 0.4348 -0.7327 0.5236
vn 0.7196 0.0000 0.6944
vn 0.4348 0.7327 0.5236
vn 0.3159 -0.7307 0.6052
vn 0.5505 0.0000 0.8349
vn 0.3159 0.7307 0.6052
vn 0.1974 -0.7273 0.6573
vn 0.3702 0.0000 0.9290
vn 0.1974 0.7273 0.6573
vn 0.0913 -0.7236 0.6842
vn 0.2029 0.0000 0.9792
vn 0.0913 0.7236 0.6842
vn 0.0007 -0.7208 0.6931
vn 0.0608 0.0000 0.9981
vn 0.0007 0.7208 0.6931
vn -0.0587 0.0000 0.9983
vn 0.0000 -1.0000 -0.0000
vn 0.0000 1.0000 -0.0000
# 524 vertex normals

o Symbol_Pai_Yaan_Noi
g Symbol_Pai_Yaan_Noi
s 1
f 1//1 2//2 3//3 
f 2//2 4//4 3//3 
f 4//4 5//5 3//3 
f 5//5 1//1 3//3 
s 3
f 2//2 6//6 7//7 
f 6//6 8//8 7//7 
f 8//8 4//4 7//7 
f 4//4 2//2 7//7 
s 2
f 6//6 9//9 10//10 
f 9//9 11//11 10//10 
f 11//11 8//8 10//10 
f 8//8 6//6 10//10 
f 9//9 12//12 13//13 
f 12//12 14//14 13//13 
f 14//14 11//11 13//13 
f 11//11 9//9 13//13 
f 12//12 15//15 16//16 
f 15//15 17//17 16//16 
f 17//17 14//14 16//16 
f 14//14 12//12 16//16 
f 15//15 18//18 19//19 
f 18//18 20//20 19//19 
f 20//20 17//17 19//19 
f 17//17 15//15 19//19 
f 18//18 21//21 22//22 
f 21//21 23//23 22//22 
f 23//23 20//20 22//22 
f 20//20 18//18 22//22 
f 21//21 24//24 25//25 
f 24//24 26//26 25//25 
f 26//26 23//23 25//25 
f 23//23 21//21 25//25 
f 24//24 27//27 28//28 
f 27//27 29//29 28//28 
f 29//29 26//26 28//28 
f 26//26 24//24 28//28 
f 27//27 30//30 31//31 
f 30//30 32//32 31//31 
f 32//32 29//29 31//31 
f 29//29 27//27 31//31 
f 30//30 33//33 34//34 
f 33//33 35//35 34//34 
f 35//35 32//32 34//34 
f 32//32 30//30 34//34 
f 33//33 36//36 37//37 
f 36//36 38//38 37//37 
f 38//38 35//35 37//37 
f 35//35 33//33 37//37 
f 36//36 39//39 40//40 
f 39//39 41//41 40//40 
f 41//41 38//38 40//40 
f 38//38 36//36 40//40 
f 39//39 42//42 43//43 
f 42//42 44//44 43//43 
f 44//44 41//41 43//43 
f 41//41 39//39 43//43 
f 42//42 45//45 46//46 
f 45//45 47//47 46//46 
f 47//47 44//44 46//46 
f 44//44 42//42 46//46 
f 45//45 48//48 49//49 
f 48//48 50//50 49//49 
f 50//50 47//47 49//49 
f 47//47 45//45 49//49 
f 48//48 51//51 52//52 
f 51//51 53//53 52//52 
f 53//53 50//50 52//52 
f 50//50 48//48 52//52 
s 4
f 51//51 54//54 55//55 
f 54//54 56//56 55//55 
f 56//56 53//53 55//55 
f 53//53 51//51 55//55 
s 2
f 54//54 57//57 58//58 
f 57//57 59//59 58//58 
f 59//59 56//56 58//58 
f 56//56 54//54 58//58 
f 57//57 60//60 61//61 
f 60//60 62//62 61//61 
f 62//62 59//59 61//61 
f 59//59 57//57 61//61 
f 60//60 63//63 64//64 
f 63//63 65//65 64//64 
f 65//65 62//62 64//64 
f 62//62 60//60 64//64 
f 63//63 66//66 67//67 
f 66//66 68//68 67//67 
f 68//68 65//65 67//67 
f 65//65 63//63 67//67 
f 66//66 69//69 70//70 
f 69//69 71//71 70//70 
f 71//71 68//68 70//70 
f 68//68 66//66 70//70 
f 69//69 72//72 73//73 
f 72//72 74//74 73//73 
f 74//74 71//71 73//73 
f 71//71 69//69 73//73 
f 72//72 75//75 76//76 
f 75//75 77//77 76//76 
f 77//77 74//74 76//76 
f 74//74 72//72 76//76 
f 75//75 78//78 79//79 
f 78//78 80//80 79//79 
f 80//80 77//77 79//79 
f 77//77 75//75 79//79 
f 78//78 81//81 82//82 
f 81//81 83//83 82//82 
f 83//83 80//80 82//82 
f 80//80 78//78 82//82 
s 4
f 81//81 84//84 85//85 
f 84//84 86//86 85//85 
f 86//86 83//83 85//85 
f 83//83 81//81 85//85 
s 2
f 84//84 87//87 88//88 
f 87//87 89//89 88//88 
f 89//89 86//86 88//88 
f 86//86 84//84 88//88 
f 87//87 90//90 91//91 
f 90//90 92//92 91//91 
f 92//92 89//89 91//91 
f 89//89 87//87 91//91 
f 90//90 93//93 94//94 
f 93//93 95//95 94//94 
f 95//95 92//92 94//94 
f 92//92 90//90 94//94 
f 93//93 96//96 97//97 
f 96//96 98//98 97//97 
f 98//98 95//95 97//97 
f 95//95 93//93 97//97 
f 96//96 99//99 100//100 
f 99//99 101//101 100//100 
f 101//101 98//98 100//100 
f 98//98 96//96 100//100 
f 99//99 102//102 103//103 
f 102//102 104//104 103//103 
f 104//104 101//101 103//103 
f 101//101 99//99 103//103 
f 102//102 105//105 106//106 
f 105//105 107//107 106//106 
f 107//107 104//104 106//106 
f 104//104 102//102 106//106 
f 105//105 108//108 109//109 
f 108//108 110//110 109//109 
f 110//110 107//107 109//109 
f 107//107 105//105 109//109 
f 108//108 111//111 112//112 
f 111//111 113//113 112//112 
f 113//113 110//110 112//112 
f 110//110 108//108 112//112 
f 111//111 114//114 115//115 
f 114//114 116//116 115//115 
f 116//116 113//113 115//115 
f 113//113 111//111 115//115 
f 114//114 117//117 118//118 
f 117//117 119//119 118//118 
f 119//119 116//116 118//118 
f 116//116 114//114 118//118 
f 117//117 120//120 121//121 
f 120//120 122//122 121//121 
f 122//122 119//119 121//121 
f 119//119 117//117 121//121 
f 120//120 123//123 124//124 
f 123//123 125//125 124//124 
f 125//125 122//122 124//124 
f 122//122 120//120 124//124 
f 123//123 126//126 127//127 
f 126//126 128//128 127//127 
f 128//128 125//125 127//127 
f 125//125 123//123 127//127 
f 126//126 129//129 130//130 
f 129//129 131//131 130//130 
f 131//131 128//128 130//130 
f 128//128 126//126 130//130 
f 129//129 132//132 133//133 
f 132//132 134//134 133//133 
f 134//134 131//131 133//133 
f 131//131 129//129 133//133 
f 132//132 135//135 136//136 
f 135//135 137//137 136//136 
f 137//137 134//134 136//136 
f 134//134 132//132 136//136 
f 135//135 138//138 139//139 
f 138//138 140//140 139//139 
f 140//140 137//137 139//139 
f 137//137 135//135 139//139 
s 4
f 138//138 141//141 142//142 
f 141//141 143//143 142//142 
f 143//143 140//140 142//142 
f 140//140 138//138 142//142 
f 141//141 144//144 145//145 
f 144//144 146//146 145//145 
f 146//146 143//143 145//145 
f 143//143 141//141 145//145 
f 144//144 147//147 148//148 
f 147//147 149//149 148//148 
f 149//149 146//146 148//148 
f 146//146 144//144 148//148 
f 147//147 150//150 151//151 
f 150//150 152//152 151//151 
f 152//152 149//149 151//151 
f 149//149 147//147 151//151 
f 150//150 153//153 154//154 
f 153//153 155//155 154//154 
f 155//155 152//152 154//154 
f 152//152 150//150 154//154 
f 153//153 156//156 157//157 
f 156//156 158//158 157//157 
f 158//158 155//155 157//157 
f 155//155 153//153 157//157 
f 156//156 159//159 160//160 
f 159//159 161//161 160//160 
f 161//161 158//158 160//160 
f 158//158 156//156 160//160 
f 159//159 162//162 163//163 
f 162//162 164//164 163//163 
f 164//164 161//161 163//163 
f 161//161 159//159 163//163 
f 162//162 165//165 166//166 
f 165//165 167//167 166//166 
f 167//167 164//164 166//166 
f 164//164 162//162 166//166 
f 165//165 168//168 169//169 
f 168//168 170//170 169//169 
f 170//170 167//167 169//169 
f 167//167 165//165 169//169 
f 168//168 171//171 172//172 
f 171//171 173//173 172//172 
f 173//173 170//170 172//172 
f 170//170 168//168 172//172 
f 171//171 174//174 175//175 
f 174//174 176//176 175//175 
f 176//176 173//173 175//175 
f 173//173 171//171 175//175 
f 174//174 177//177 178//178 
f 177//177 179//179 178//178 
f 179//179 176//176 178//178 
f 176//176 174//174 178//178 
f 177//177 180//180 181//181 
f 180//180 182//182 181//181 
f 182//182 179//179 181//181 
f 179//179 177//177 181//181 
f 180//180 183//183 184//184 
f 183//183 185//185 184//184 
f 185//185 182//182 184//184 
f 182//182 180//180 184//184 
f 183//183 186//186 187//187 
f 186//186 188//188 187//187 
f 188//188 185//185 187//187 
f 185//185 183//183 187//187 
f 186//186 189//189 190//190 
f 189//189 191//191 190//190 
f 191//191 188//188 190//190 
f 188//188 186//186 190//190 
f 189//189 192//192 193//193 
f 192//192 194//194 193//193 
f 194//194 191//191 193//193 
f 191//191 189//189 193//193 
f 192//192 195//195 196//196 
f 195//195 197//197 196//196 
f 197//197 194//194 196//196 
f 194//194 192//192 196//196 
f 195//195 198//198 199//199 
f 198//198 200//200 199//199 
f 200//200 197//197 199//199 
f 197//197 195//195 199//199 
f 198//198 201//201 202//202 
f 201//201 203//203 202//202 
f 203//203 200//200 202//202 
f 200//200 198//198 202//202 
f 201//201 204//204 205//205 
f 204//204 206//206 205//205 
f 206//206 203//203 205//205 
f 203//203 201//201 205//205 
f 204//204 207//207 208//208 
f 207//207 209//209 208//208 
f 209//209 206//206 208//208 
f 206//206 204//204 208//208 
f 207//207 210//210 211//211 
f 210//210 212//212 211//211 
f 212//212 209//209 211//211 
f 209//209 207//207 211//211 
f 210//210 213//213 214//214 
f 213//213 215//215 214//214 
f 215//215 212//212 214//214 
f 212//212 210//210 214//214 
f 213//213 216//216 217//217 
f 216//216 218//218 217//217 
f 218//218 215//215 217//217 
f 215//215 213//213 217//217 
f 216//216 219//219 220//220 
f 219//219 221//221 220//220 
f 221//221 218//218 220//220 
f 218//218 216//216 220//220 
s 2
f 219//219 222//222 223//223 
f 222//222 224//224 223//223 
f 224//224 221//221 223//223 
f 221//221 219//219 223//223 
f 222//222 225//225 226//226 
f 225//225 227//227 226//226 
f 227//227 224//224 226//226 
f 224//224 222//222 226//226 
f 225//225 228//228 229//229 
f 228//228 230//230 229//229 
f 230//230 227//227 229//229 
f 227//227 225//225 229//229 
f 228//228 231//231 232//232 
f 231//231 233//233 232//232 
f 233//233 230//230 232//232 
f 230//230 228//228 232//232 
f 231//231 234//234 235//235 
f 234//234 236//236 235//235 
f 236//236 233//233 235//235 
f 233//233 231//231 235//235 
f 234//234 237//237 238//238 
f 237//237 239//239 238//238 
f 239//239 236//236 238//238 
f 236//236 234//234 238//238 
f 237//237 240//240 241//241 
f 240//240 242//242 241//241 
f 242//242 239//239 241//241 
f 239//239 237//237 241//241 
f 240//240 243//243 244//244 
f 243//243 245//245 244//244 
f 245//245 242//242 244//244 
f 242//242 240//240 244//244 
f 243//243 246//246 247//247 
f 246//246 248//248 247//247 
f 248//248 245//245 247//247 
f 245//245 243//243 247//247 
f 246//246 249//249 250//250 
f 249//249 251//251 250//250 
f 251//251 248//248 250//250 
f 248//248 246//246 250//250 
f 249//249 252//252 253//253 
f 252//252 254//254 253//253 
f 254//254 251//251 253//253 
f 251//251 249//249 253//253 
f 252//252 255//255 256//256 
f 255//255 257//257 256//256 
f 257//257 254//254 256//256 
f 254//254 252//252 256//256 
f 255//255 258//258 259//259 
f 258//258 260//260 259//259 
f 260//260 257//257 259//259 
f 257//257 255//255 259//259 
f 258//258 261//261 262//262 
f 261//261 263//263 262//262 
f 263//263 260//260 262//262 
f 260//260 258//258 262//262 
f 261//261 264//264 265//265 
f 264//264 266//266 265//265 
f 266//266 263//263 265//265 
f 263//263 261//261 265//265 
f 264//264 267//267 268//268 
f 267//267 269//269 268//268 
f 269//269 266//266 268//268 
f 266//266 264//264 268//268 
f 267//267 270//270 271//271 
f 270//270 272//272 271//271 
f 272//272 269//269 271//271 
f 269//269 267//267 271//271 
f 270//270 273//273 274//274 
f 273//273 275//275 274//274 
f 275//275 272//272 274//274 
f 272//272 270//270 274//274 
f 273//273 276//276 277//277 
f 276//276 278//278 277//277 
f 278//278 275//275 277//277 
f 275//275 273//273 277//277 
f 276//276 279//279 280//280 
f 279//279 281//281 280//280 
f 281//281 278//278 280//280 
f 278//278 276//276 280//280 
f 279//279 282//282 283//283 
f 282//282 284//284 283//283 
f 284//284 281//281 283//283 
f 281//281 279//279 283//283 
f 282//282 285//285 286//286 
f 285//285 287//287 286//286 
f 287//287 284//284 286//286 
f 284//284 282//282 286//286 
f 285//285 288//288 289//289 
f 288//288 290//290 289//289 
f 290//290 287//287 289//289 
f 287//287 285//285 289//289 
f 288//288 291//291 292//292 
f 291//291 293//293 292//292 
f 293//293 290//290 292//292 
f 290//290 288//288 292//292 
f 291//291 294//294 295//295 
f 294//294 296//296 295//295 
f 296//296 293//293 295//295 
f 293//293 291//291 295//295 
f 294//294 297//297 298//298 
f 297//297 299//299 298//298 
f 299//299 296//296 298//298 
f 296//296 294//294 298//298 
f 297//297 300//300 301//301 
f 300//300 302//302 301//301 
f 302//302 299//299 301//301 
f 299//299 297//297 301//301 
f 300//300 303//303 304//304 
f 303//303 305//305 304//304 
f 305//305 302//302 304//304 
f 302//302 300//300 304//304 
f 303//303 306//306 307//307 
f 306//306 308//308 307//307 
f 308//308 305//305 307//307 
f 305//305 303//303 307//307 
f 306//306 309//309 310//310 
f 309//309 311//311 310//310 
f 311//311 308//308 310//310 
f 308//308 306//306 310//310 
f 309//309 312//312 313//313 
f 312//312 314//314 313//313 
f 314//314 311//311 313//313 
f 311//311 309//309 313//313 
f 312//312 315//315 316//316 
f 315//315 317//317 316//316 
f 317//317 314//314 316//316 
f 314//314 312//312 316//316 
f 315//315 318//318 319//319 
f 318//318 320//320 319//319 
f 320//320 317//317 319//319 
f 317//317 315//315 319//319 
f 318//318 321//321 322//322 
f 321//321 323//323 322//322 
f 323//323 320//320 322//322 
f 320//320 318//318 322//322 
f 321//321 324//324 325//325 
f 324//324 326//326 325//325 
f 326//326 323//323 325//325 
f 323//323 321//321 325//325 
f 324//324 327//327 328//328 
f 327//327 329//329 328//328 
f 329//329 326//326 328//328 
f 326//326 324//324 328//328 
f 327//327 330//330 331//331 
f 330//330 332//332 331//331 
f 332//332 329//329 331//331 
f 329//329 327//327 331//331 
f 330//330 333//333 334//334 
f 333//333 335//335 334//334 
f 335//335 332//332 334//334 
f 332//332 330//330 334//334 
f 333//333 336//336 337//337 
f 336//336 338//338 337//337 
f 338//338 335//335 337//337 
f 335//335 333//333 337//337 
f 336//336 339//339 340//340 
f 339//339 341//341 340//340 
f 341//341 338//338 340//340 
f 338//338 336//336 340//340 
f 339//339 342//342 343//343 
f 342//342 344//344 343//343 
f 344//344 341//341 343//343 
f 341//341 339//339 343//343 
f 342//342 345//345 346//346 
f 345//345 347//347 346//346 
f 347//347 344//344 346//346 
f 344//344 342//342 346//346 
f 345//345 348//348 349//349 
f 348//348 350//350 349//349 
f 350//350 347//347 349//349 
f 347//347 345//345 349//349 
f 348//348 351//351 352//352 
f 351//351 353//353 352//352 
f 353//353 350//350 352//352 
f 350//350 348//348 352//352 
f 351//351 354//354 355//355 
f 354//354 356//356 355//355 
f 356//356 353//353 355//355 
f 353//353 351//351 355//355 
f 354//354 357//357 358//358 
f 357//357 359//359 358//358 
f 359//359 356//356 358//358 
f 356//356 354//354 358//358 
f 357//357 360//360 361//361 
f 360//360 362//362 361//361 
f 362//362 359//359 361//361 
f 359//359 357//357 361//361 
f 360//360 363//363 364//364 
f 363//363 365//365 364//364 
f 365//365 362//362 364//364 
f 362//362 360//360 364//364 
f 363//363 366//366 367//367 
f 366//366 368//368 367//367 
f 368//368 365//365 367//367 
f 365//365 363//363 367//367 
f 366//366 369//369 370//370 
f 369//369 371//371 370//370 
f 371//371 368//368 370//370 
f 368//368 366//366 370//370 
f 369//369 372//372 373//373 
f 372//372 374//374 373//373 
f 374//374 371//371 373//373 
f 371//371 369//369 373//373 
f 372//372 375//375 376//376 
f 375//375 377//377 376//376 
f 377//377 374//374 376//376 
f 374//374 372//372 376//376 
f 375//375 378//378 379//379 
f 378//378 380//380 379//379 
f 380//380 377//377 379//379 
f 377//377 375//375 379//379 
f 378//378 381//381 382//382 
f 381//381 383//383 382//382 
f 383//383 380//380 382//382 
f 380//380 378//378 382//382 
f 381//381 384//384 385//385 
f 384//384 386//386 385//385 
f 386//386 383//383 385//385 
f 383//383 381//381 385//385 
f 384//384 387//387 388//388 
f 387//387 389//389 388//388 
f 389//389 386//386 388//388 
f 386//386 384//384 388//388 
f 387//387 390//390 391//391 
f 390//390 392//392 391//391 
f 392//392 389//389 391//391 
f 389//389 387//387 391//391 
f 390//390 393//393 394//394 
f 393//393 395//395 394//394 
f 395//395 392//392 394//394 
f 392//392 390//390 394//394 
f 393//393 396//396 397//397 
f 396//396 398//398 397//397 
f 398//398 395//395 397//397 
f 395//395 393//393 397//397 
f 396//396 399//399 400//400 
f 399//399 401//401 400//400 
f 401//401 398//398 400//400 
f 398//398 396//396 400//400 
f 399//399 402//402 403//403 
f 402//402 404//404 403//403 
f 404//404 401//401 403//403 
f 401//401 399//399 403//403 
f 402//402 405//405 406//406 
f 405//405 407//407 406//406 
f 407//407 404//404 406//406 
f 404//404 402//402 406//406 
f 405//405 408//408 409//409 
f 408//408 410//410 409//409 
f 410//410 407//407 409//409 
f 407//407 405//405 409//409 
s 4
f 408//408 411//411 412//412 
f 411//411 413//413 412//412 
f 413//413 410//410 412//412 
f 410//410 408//408 412//412 
s 3
f 411//411 1//1 414//414 
f 1//1 5//5 414//414 
f 5//5 413//413 414//414 
f 413//413 411//411 414//414 
s 1
f 415//415 416//416 417//417 
f 416//416 418//418 417//417 
f 418//418 419//419 417//417 
f 419//419 415//415 417//417 
s 3
f 416//416 420//420 421//421 
f 420//420 422//422 421//421 
f 422//422 418//418 421//421 
f 418//418 416//416 421//421 
s 2
f 420//420 423//423 424//424 
f 423//423 425//425 424//424 
f 425//425 422//422 424//424 
f 422//422 420//420 424//424 
f 423//423 426//426 427//427 
f 426//426 428//428 427//427 
f 428//428 425//425 427//427 
f 425//425 423//423 427//427 
f 426//426 429//429 430//430 
f 429//429 431//431 430//430 
f 431//431 428//428 430//430 
f 428//428 426//426 430//430 
f 429//429 432//432 433//433 
f 432//432 434//434 433//433 
f 434//434 431//431 433//433 
f 431//431 429//429 433//433 
f 432//432 435//435 436//436 
f 435//435 437//437 436//436 
f 437//437 434//434 436//436 
f 434//434 432//432 436//436 
f 435//435 438//438 439//439 
f 438//438 440//440 439//439 
f 440//440 437//437 439//439 
f 437//437 435//435 439//439 
f 438//438 441//441 442//442 
f 441//441 443//443 442//442 
f 443//443 440//440 442//442 
f 440//440 438//438 442//442 
f 441//441 444//444 445//445 
f 444//444 446//446 445//445 
f 446//446 443//443 445//445 
f 443//443 441//441 445//445 
f 444//444 447//447 448//448 
f 447//447 449//449 448//448 
f 449//449 446//446 448//448 
f 446//446 444//444 448//448 
f 447//447 450//450 451//451 
f 450//450 452//452 451//451 
f 452//452 449//449 451//451 
f 449//449 447//447 451//451 
f 450//450 453//453 454//454 
f 453//453 455//455 454//454 
f 455//455 452//452 454//454 
f 452//452 450//450 454//454 
f 453//453 456//456 457//457 
f 456//456 458//458 457//457 
f 458//458 455//455 457//457 
f 455//455 453//453 457//457 
f 456//456 459//459 460//460 
f 459//459 461//461 460//460 
f 461//461 458//458 460//460 
f 458//458 456//456 460//460 
f 459//459 462//462 463//463 
f 462//462 464//464 463//463 
f 464//464 461//461 463//463 
f 461//461 459//459 463//463 
f 462//462 465//465 466//466 
f 465//465 467//467 466//466 
f 467//467 464//464 466//466 
f 464//464 462//462 466//466 
f 465//465 468//468 469//469 
f 468//468 470//470 469//469 
f 470//470 467//467 469//469 
f 467//467 465//465 469//469 
f 468//468 471//471 472//472 
f 471//471 473//473 472//472 
f 473//473 470//470 472//472 
f 470//470 468//468 472//472 
f 471//471 474//474 475//475 
f 474//474 476//476 475//475 
f 476//476 473//473 475//475 
f 473//473 471//471 475//475 
f 474//474 477//477 478//478 
f 477//477 479//479 478//478 
f 479//479 476//476 478//478 
f 476//476 474//474 478//478 
f 477//477 480//480 481//481 
f 480//480 482//482 481//481 
f 482//482 479//479 481//481 
f 479//479 477//477 481//481 
f 480//480 483//483 484//484 
f 483//483 485//485 484//484 
f 485//485 482//482 484//484 
f 482//482 480//480 484//484 
f 483//483 486//486 487//487 
f 486//486 488//488 487//487 
f 488//488 485//485 487//487 
f 485//485 483//483 487//487 
f 486//486 489//489 490//490 
f 489//489 491//491 490//490 
f 491//491 488//488 490//490 
f 488//488 486//486 490//490 
f 489//489 492//492 493//493 
f 492//492 494//494 493//493 
f 494//494 491//491 493//493 
f 491//491 489//489 493//493 
f 492//492 495//495 496//496 
f 495//495 497//497 496//496 
f 497//497 494//494 496//496 
f 494//494 492//492 496//496 
f 495//495 498//498 499//499 
f 498//498 500//500 499//499 
f 500//500 497//497 499//499 
f 497//497 495//495 499//499 
f 498//498 501//501 502//502 
f 501//501 503//503 502//502 
f 503//503 500//500 502//502 
f 500//500 498//498 502//502 
f 501//501 504//504 505//505 
f 504//504 506//506 505//505 
f 506//506 503//503 505//505 
f 503//503 501//501 505//505 
f 504//504 507//507 508//508 
f 507//507 509//509 508//508 
f 509//509 506//506 508//508 
f 506//506 504//504 508//508 
f 507//507 510//510 511//511 
f 510//510 512//512 511//511 
f 512//512 509//509 511//511 
f 509//509 507//507 511//511 
f 510//510 513//513 514//514 
f 513//513 515//515 514//514 
f 515//515 512//512 514//514 
f 512//512 510//510 514//514 
f 513//513 516//516 517//517 
f 516//516 518//518 517//517 
f 518//518 515//515 517//517 
f 515//515 513//513 517//517 
f 516//516 519//519 520//520 
f 519//519 521//521 520//520 
f 521//521 518//518 520//520 
f 518//518 516//516 520//520 
s 3
f 519//519 415//415 522//522 
f 415//415 419//419 522//522 
f 419//419 521//521 522//522 
f 521//521 519//519 522//522 
s 16
f 465//465 219//219 523//523 
f 219//219 354//354 523//523 
f 468//468 465//465 523//523 
f 356//356 524//524 470//470 525//524 
f 470//470 473//473 525//524 
f 473//473 356//356 525//524 
f 465//465 462//462 526//523 
f 462//462 222//222 526//523 
f 222//222 219//219 526//523 
f 219//219 465//465 526//523 
f 219//219 216//216 527//523 
f 216//216 357//357 527//523 
f 357//357 354//354 527//523 
f 354//354 219//219 527//523 
f 216//216 213//213 528//523 
f 213//213 360//360 528//523 
f 360//360 357//357 528//523 
f 357//357 216//216 528//523 
f 213//213 210//210 529//523 
f 210//210 363//363 529//523 
f 363//363 360//360 529//523 
f 360//360 213//213 529//523 
f 210//210 207//207 530//523 
f 207//207 366//366 530//523 
f 366//366 363//363 530//523 
f 363//363 210//210 530//523 
f 207//207 204//204 531//523 
f 204//204 369//369 531//523 
f 369//369 366//366 531//523 
f 366//366 207//207 531//523 
f 204//204 201//201 532//523 
f 201//201 372//372 532//523 
f 372//372 369//369 532//523 
f 369//369 204//204 532//523 
f 201//201 198//198 533//523 
f 198//198 375//375 533//523 
f 375//375 372//372 533//523 
f 372//372 201//201 533//523 
f 198//198 195//195 534//523 
f 195//195 375//375 534//523 
f 375//375 198//198 534//523 
f 195//195 192//192 535//523 
f 192//192 378//378 535//523 
f 378//378 375//375 535//523 
f 375//375 195//195 535//523 
f 192//192 189//189 536//523 
f 189//189 381//381 536//523 
f 381//381 378//378 536//523 
f 378//378 192//192 536//523 
f 189//189 186//186 537//523 
f 186//186 387//387 537//523 
f 387//387 384//384 537//523 
f 384//384 381//381 537//523 
f 381//381 189//189 537//523 
f 186//186 183//183 538//523 
f 183//183 390//390 538//523 
f 390//390 387//387 538//523 
f 387//387 186//186 538//523 
f 183//183 180//180 539//523 
f 180//180 393//393 539//523 
f 393//393 390//390 539//523 
f 390//390 183//183 539//523 
f 180//180 177//177 540//523 
f 177//177 396//396 540//523 
f 396//396 393//393 540//523 
f 393//393 180//180 540//523 
f 177//177 174//174 541//523 
f 174//174 402//402 541//523 
f 402//402 399//399 541//523 
f 399//399 396//396 541//523 
f 396//396 177//177 541//523 
f 174//174 171//171 542//523 
f 171//171 405//405 542//523 
f 405//405 402//402 542//523 
f 402//402 174//174 542//523 
f 171//171 168//168 543//523 
f 168//168 408//408 543//523 
f 408//408 405//405 543//523 
f 405//405 171//171 543//523 
f 54//54 51//51 544//523 
f 51//51 48//48 544//523 
f 48//48 54//54 544//523 
f 165//165 162//162 545//523 
f 162//162 84//84 545//523 
f 84//84 165//165 545//523 
f 48//48 45//45 546//523 
f 45//45 54//54 546//523 
f 54//54 48//48 546//523 
f 45//45 42//42 547//523 
f 42//42 54//54 547//523 
f 54//54 45//45 547//523 
f 42//42 39//39 548//523 
f 39//39 57//57 548//523 
f 57//57 54//54 548//523 
f 54//54 42//42 548//523 
f 39//39 36//36 549//523 
f 36//36 57//57 549//523 
f 57//57 39//39 549//523 
f 36//36 33//33 550//523 
f 33//33 60//60 550//523 
f 60//60 57//57 550//523 
f 57//57 36//36 550//523 
f 33//33 30//30 551//523 
f 30//30 63//63 551//523 
f 63//63 60//60 551//523 
f 60//60 33//33 551//523 
f 30//30 27//27 552//523 
f 27//27 66//66 552//523 
f 66//66 63//63 552//523 
f 63//63 30//30 552//523 
f 27//27 24//24 553//523 
f 24//24 66//66 553//523 
f 66//66 27//27 553//523 
f 24//24 21//21 554//523 
f 21//21 69//69 554//523 
f 69//69 66//66 554//523 
f 66//66 24//24 554//523 
f 21//21 18//18 555//523 
f 18//18 72//72 555//523 
f 72//72 69//69 555//523 
f 69//69 21//21 555//523 
f 18//18 15//15 556//523 
f 15//15 75//75 556//523 
f 75//75 72//72 556//523 
f 72//72 18//18 556//523 
f 15//15 12//12 557//523 
f 12//12 75//75 557//523 
f 75//75 15//15 557//523 
f 12//12 9//9 558//523 
f 9//9 78//78 558//523 
f 78//78 75//75 558//523 
f 75//75 12//12 558//523 
f 9//9 6//6 559//523 
f 6//6 78//78 559//523 
f 78//78 9//9 559//523 
f 6//6 2//2 560//523 
f 2//2 81//81 560//523 
f 81//81 78//78 560//523 
f 78//78 6//6 560//523 
f 2//2 1//1 561//523 
f 1//1 81//81 561//523 
f 81//81 2//2 561//523 
f 1//1 411//411 562//523 
f 411//411 81//81 562//523 
f 81//81 1//1 562//523 
f 411//411 408//408 563//523 
f 408//408 84//84 563//523 
f 84//84 81//81 563//523 
f 81//81 411//411 563//523 
f 408//408 168//168 564//523 
f 168//168 165//165 564//523 
f 165//165 84//84 564//523 
f 84//84 408//408 564//523 
f 162//162 159//159 565//523 
f 159//159 84//84 565//523 
f 84//84 162//162 565//523 
f 159//159 156//156 566//523 
f 156//156 84//84 566//523 
f 84//84 159//159 566//523 
f 156//156 153//153 567//523 
f 153//153 84//84 567//523 
f 84//84 156//156 567//523 
f 153//153 150//150 568//523 
f 150//150 90//90 568//523 
f 90//90 87//87 568//523 
f 87//87 84//84 568//523 
f 84//84 153//153 568//523 
f 150//150 147//147 569//523 
f 147//147 99//99 569//523 
f 99//99 96//96 569//523 
f 96//96 93//93 569//523 
f 93//93 90//90 569//523 
f 90//90 150//150 569//523 
f 147//147 144//144 570//523 
f 144//144 126//126 570//523 
f 126//126 123//123 570//523 
f 123//123 120//120 570//523 
f 120//120 117//117 570//523 
f 117//117 114//114 570//523 
f 114//114 111//111 570//523 
f 111//111 108//108 570//523 
f 108//108 105//105 570//523 
f 105//105 102//102 570//523 
f 102//102 99//99 570//523 
f 99//99 147//147 570//523 
f 144//144 141//141 571//523 
f 141//141 132//132 571//523 
f 132//132 129//129 571//523 
f 129//129 126//126 571//523 
f 126//126 144//144 571//523 
f 141//141 138//138 572//523 
f 138//138 135//135 572//523 
f 135//135 132//132 572//523 
f 132//132 141//141 572//523 
f 462//462 459//459 573//523 
f 459//459 225//225 573//523 
f 225//225 222//222 573//523 
f 222//222 462//462 573//523 
f 459//459 456//456 574//523 
f 456//456 228//228 574//523 
f 228//228 225//225 574//523 
f 225//225 459//459 574//523 
f 456//456 453//453 575//523 
f 453//453 231//231 575//523 
f 231//231 228//228 575//523 
f 228//228 456//456 575//523 
f 453//453 450//450 576//523 
f 450//450 234//234 576//523 
f 234//234 231//231 576//523 
f 231//231 453//453 576//523 
f 450//450 447//447 577//523 
f 447//447 237//237 577//523 
f 237//237 234//234 577//523 
f 234//234 450//450 577//523 
f 447//447 444//444 578//523 
f 444//444 240//240 578//523 
f 240//240 237//237 578//523 
f 237//237 447//447 578//523 
f 444//444 441//441 579//523 
f 441//441 243//243 579//523 
f 243//243 240//240 579//523 
f 240//240 444//444 579//523 
f 441//441 438//438 580//523 
f 438//438 246//246 580//523 
f 246//246 243//243 580//523 
f 243//243 441//441 580//523 
f 438//438 435//435 581//523 
f 435//435 249//249 581//523 
f 249//249 246//246 581//523 
f 246//246 438//438 581//523 
f 435//435 432//432 582//523 
f 432//432 252//252 582//523 
f 252//252 249//249 582//523 
f 249//249 435//435 582//523 
f 432//432 429//429 583//523 
f 429//429 255//255 583//523 
f 255//255 252//252 583//523 
f 252//252 432//432 583//523 
f 429//429 426//426 584//523 
f 426//426 258//258 584//523 
f 258//258 255//255 584//523 
f 255//255 429//429 584//523 
f 426//426 423//423 585//523 
f 423//423 264//264 585//523 
f 264//264 261//261 585//523 
f 261//261 258//258 585//523 
f 258//258 426//426 585//523 
f 423//423 420//420 586//523 
f 420//420 267//267 586//523 
f 267//267 264//264 586//523 
f 264//264 423//423 586//523 
f 420//420 416//416 587//523 
f 416//416 270//270 587//523 
f 270//270 267//267 587//523 
f 267//267 420//420 587//523 
f 416//416 415//415 588//523 
f 415//415 270//270 588//523 
f 270//270 416//416 588//523 
f 415//415 519//519 589//523 
f 519//519 273//273 589//523 
f 273//273 270//270 589//523 
f 270//270 415//415 589//523 
f 519//519 516//516 590//523 
f 516//516 276//276 590//523 
f 276//276 273//273 590//523 
f 273//273 519//519 590//523 
f 516//516 513//513 591//523 
f 513//513 279//279 591//523 
f 279//279 276//276 591//523 
f 276//276 516//516 591//523 
f 513//513 510//510 592//523 
f 510//510 285//285 592//523 
f 285//285 282//282 592//523 
f 282//282 279//279 592//523 
f 279//279 513//513 592//523 
f 510//510 507//507 593//523 
f 507//507 288//288 593//523 
f 288//288 285//285 593//523 
f 285//285 510//510 593//523 
f 507//507 504//504 594//523 
f 504//504 294//294 594//523 
f 294//294 291//291 594//523 
f 291//291 288//288 594//523 
f 288//288 507//507 594//523 
f 504//504 501//501 595//523 
f 501//501 300//300 595//523 
f 300//300 297//297 595//523 
f 297//297 294//294 595//523 
f 294//294 504//504 595//523 
f 501//501 498//498 596//523 
f 498//498 306//306 596//523 
f 306//306 303//303 596//523 
f 303//303 300//300 596//523 
f 300//300 501//501 596//523 
f 498//498 495//495 597//523 
f 495//495 312//312 597//523 
f 312//312 309//309 597//523 
f 309//309 306//306 597//523 
f 306//306 498//498 597//523 
f 495//495 492//492 598//523 
f 492//492 315//315 598//523 
f 315//315 312//312 598//523 
f 312//312 495//495 598//523 
f 492//492 489//489 599//523 
f 489//489 321//321 599//523 
f 321//321 318//318 599//523 
f 318//318 315//315 599//523 
f 315//315 492//492 599//523 
f 489//489 486//486 600//523 
f 486//486 327//327 600//523 
f 327//327 324//324 600//523 
f 324//324 321//321 600//523 
f 321//321 489//489 600//523 
f 486//486 483//483 601//523 
f 483//483 333//333 601//523 
f 333//333 330//330 601//523 
f 330//330 327//327 601//523 
f 327//327 486//486 601//523 
f 483//483 480//480 602//523 
f 480//480 339//339 602//523 
f 339//339 336//336 602//523 
f 336//336 333//333 602//523 
f 333//333 483//483 602//523 
f 480//480 477//477 603//523 
f 477//477 345//345 603//523 
f 345//345 342//342 603//523 
f 342//342 339//339 603//523 
f 339//339 480//480 603//523 
f 477//477 474//474 604//523 
f 474//474 351//351 604//523 
f 351//351 348//348 604//523 
f 348//348 345//345 604//523 
f 345//345 477//477 604//523 
f 474//474 471//471 605//523 
f 471//471 354//354 605//523 
f 354//354 351//351 605//523 
f 351//351 474//474 605//523 
f 471//471 468//468 606//523 
f 468//468 523//523 354//354 606//523 
f 354//354 471//471 606//523 
f 407//407 410//410 607//524 
f 410//410 170//170 607//524 
f 170//170 173//173 607//524 
f 173//173 407//407 607//524 
f 473//473 476//476 608//524 
f 476//476 353//353 608//524 
f 353//353 356//356 608//524 
f 356//356 473//473 608//524 
f 476//476 479//479 609//524 
f 479//479 347//347 609//524 
f 347//347 350//350 609//524 
f 350//350 353//353 609//524 
f 353//353 476//476 609//524 
f 479//479 482//482 610//524 
f 482//482 341//341 610//524 
f 341//341 344//344 610//524 
f 344//344 347//347 610//524 
f 347//347 479//479 610//524 
f 482//482 485//485 611//524 
f 485//485 335//335 611//524 
f 335//335 338//338 611//524 
f 338//338 341//341 611//524 
f 341//341 482//482 611//524 
f 485//485 488//488 612//524 
f 488//488 329//329 612//524 
f 329//329 332//332 612//524 
f 332//332 335//335 612//524 
f 335//335 485//485 612//524 
f 488//488 491//491 613//524 
f 491//491 323//323 613//524 
f 323//323 326//326 613//524 
f 326//326 329//329 613//524 
f 329//329 488//488 613//524 
f 491//491 494//494 614//524 
f 494//494 317//317 614//524 
f 317//317 320//320 614//524 
f 320//320 323//323 614//524 
f 323//323 491//491 614//524 
f 494//494 497//497 615//524 
f 497//497 314//314 615//524 
f 314//314 317//317 615//524 
f 317//317 494//494 615//524 
f 497//497 500//500 616//524 
f 500//500 308//308 616//524 
f 308//308 311//311 616//524 
f 311//311 314//314 616//524 
f 314//314 497//497 616//524 
f 500//500 503//503 617//524 
f 503//503 302//302 617//524 
f 302//302 305//305 617//524 
f 305//305 308//308 617//524 
f 308//308 500//500 617//524 
f 503//503 506//506 618//524 
f 506//506 296//296 618//524 
f 296//296 299//299 618//524 
f 299//299 302//302 618//524 
f 302//302 503//503 618//524 
f 506//506 509//509 619//524 
f 509//509 290//290 619//524 
f 290//290 293//293 619//524 
f 293//293 296//296 619//524 
f 296//296 506//506 619//524 
f 509//509 512//512 620//524 
f 512//512 287//287 620//524 
f 287//287 290//290 620//524 
f 290//290 509//509 620//524 
f 512//512 515//515 621//524 
f 515//515 281//281 621//524 
f 281//281 284//284 621//524 
f 284//284 287//287 621//524 
f 287//287 512//512 621//524 
f 515//515 518//518 622//524 
f 518//518 278//278 622//524 
f 278//278 281//281 622//524 
f 281//281 515//515 622//524 
f 518//518 521//521 623//524 
f 521//521 275//275 623//524 
f 275//275 278//278 623//524 
f 278//278 518//518 623//524 
f 521//521 419//419 624//524 
f 419//419 272//272 624//524 
f 272//272 275//275 624//524 
f 275//275 521//521 624//524 
f 419//419 418//418 625//524 
f 418//418 272//272 625//524 
f 272//272 419//419 625//524 
f 418//418 422//422 626//524 
f 422//422 269//269 626//524 
f 269//269 272//272 626//524 
f 272//272 418//418 626//524 
f 422//422 425//425 627//524 
f 425//425 266//266 627//524 
f 266//266 269//269 627//524 
f 269//269 422//422 627//524 
f 425//425 428//428 628//524 
f 428//428 260//260 628//524 
f 260//260 263//263 628//524 
f 263//263 266//266 628//524 
f 266//266 425//425 628//524 
f 428//428 431//431 629//524 
f 431//431 257//257 629//524 
f 257//257 260//260 629//524 
f 260//260 428//428 629//524 
f 431//431 434//434 630//524 
f 434//434 254//254 630//524 
f 254//254 257//257 630//524 
f 257//257 431//431 630//524 
f 434//434 437//437 631//524 
f 437//437 251//251 631//524 
f 251//251 254//254 631//524 
f 254//254 434//434 631//524 
f 437//437 440//440 632//524 
f 440//440 248//248 632//524 
f 248//248 251//251 632//524 
f 251//251 437//437 632//524 
f 440//440 443//443 633//524 
f 443//443 245//245 633//524 
f 245//245 248//248 633//524 
f 248//248 440//440 633//524 
f 443//443 446//446 634//524 
f 446//446 242//242 634//524 
f 242//242 245//245 634//524 
f 245//245 443//443 634//524 
f 446//446 449//449 635//524 
f 449//449 239//239 635//524 
f 239//239 242//242 635//524 
f 242//242 446//446 635//524 
f 449//449 452//452 636//524 
f 452//452 236//236 636//524 
f 236//236 239//239 636//524 
f 239//239 449//449 636//524 
f 452//452 455//455 637//524 
f 455//455 233//233 637//524 
f 233//233 236//236 637//524 
f 236//236 452//452 637//524 
f 455//455 458//458 638//524 
f 458//458 230//230 638//524 
f 230//230 233//233 638//524 
f 233//233 455//455 638//524 
f 458//458 461//461 639//524 
f 461//461 227//227 639//524 
f 227//227 230//230 639//524 
f 230//230 458//458 639//524 
f 461//461 464//464 640//524 
f 464//464 224//224 640//524 
f 224//224 227//227 640//524 
f 227//227 461//461 640//524 
f 464//464 467//467 641//524 
f 467//467 221//221 641//524 
f 221//221 224//224 641//524 
f 224//224 464//464 641//524 
f 410//410 413//413 642//524 
f 413//413 83//83 642//524 
f 83//83 86//86 642//524 
f 86//86 410//410 642//524 
f 134//134 137//137 643//524 
f 137//137 140//140 643//524 
f 140//140 143//143 643//524 
f 143//143 134//134 643//524 
f 173//173 176//176 644//524 
f 176//176 404//404 644//524 
f 404//404 407//407 644//524 
f 407//407 173//173 644//524 
f 176//176 179//179 645//524 
f 179//179 398//398 645//524 
f 398//398 401//401 645//524 
f 401//401 404//404 645//524 
f 404//404 176//176 645//524 
f 179//179 182//182 646//524 
f 182//182 395//395 646//524 
f 395//395 398//398 646//524 
f 398//398 179//179 646//524 
f 182//182 185//185 647//524 
f 185//185 392//392 647//524 
f 392//392 395//395 647//524 
f 395//395 182//182 647//524 
f 185//185 188//188 648//524 
f 188//188 389//389 648//524 
f 389//389 392//392 648//524 
f 392//392 185//185 648//524 
f 188//188 191//191 649//524 
f 191//191 383//383 649//524 
f 383//383 386//386 649//524 
f 386//386 389//389 649//524 
f 389//389 188//188 649//524 
f 191//191 194//194 650//524 
f 194//194 380//380 650//524 
f 380//380 383//383 650//524 
f 383//383 191//191 650//524 
f 194//194 197//197 651//524 
f 197//197 377//377 651//524 
f 377//377 380//380 651//524 
f 380//380 194//194 651//524 
f 197//197 200//200 652//524 
f 200//200 377//377 652//524 
f 377//377 197//197 652//524 
f 200//200 203//203 653//524 
f 203//203 374//374 653//524 
f 374//374 377//377 653//524 
f 377//377 200//200 653//524 
f 203//203 206//206 654//524 
f 206//206 371//371 654//524 
f 371//371 374//374 654//524 
f 374//374 203//203 654//524 
f 206//206 209//209 655//524 
f 209//209 368//368 655//524 
f 368//368 371//371 655//524 
f 371//371 206//206 655//524 
f 209//209 212//212 656//524 
f 212//212 365//365 656//524 
f 365//365 368//368 656//524 
f 368//368 209//209 656//524 
f 212//212 215//215 657//524 
f 215//215 362//362 657//524 
f 362//362 365//365 657//524 
f 365//365 212//212 657//524 
f 215//215 218//218 658//524 
f 218//218 359//359 658//524 
f 359//359 362//362 658//524 
f 362//362 215//215 658//524 
f 218//218 221//221 659//524 
f 221//221 356//356 659//524 
f 356//356 359//359 659//524 
f 359//359 218//218 659//524 
f 221//221 467//467 524//524 
f 467//467 470//470 524//524 
f 356//356 221//221 524//524 
f 143//143 146//146 660//524 
f 146//146 128//128 660//524 
f 128//128 131//131 660//524 
f 131//131 134//134 660//524 
f 134//134 143//143 660//524 
f 146//146 149//149 661//524 
f 149//149 101//101 661//524 
f 101//101 104//104 661//524 
f 104//104 107//107 661//524 
f 107//107 110//110 661//524 
f 110//110 113//113 661//524 
f 113//113 116//116 661//524 
f 116//116 119//119 661//524 
f 119//119 122//122 661//524 
f 122//122 125//125 661//524 
f 125//125 128//128 661//524 
f 128//128 146//146 661//524 
f 149//149 152//152 662//524 
f 152//152 92//92 662//524 
f 92//92 95//95 662//524 
f 95//95 98//98 662//524 
f 98//98 101//101 662//524 
f 101//101 149//149 662//524 
f 152//152 155//155 663//524 
f 155//155 86//86 663//524 
f 86//86 89//89 663//524 
f 89//89 92//92 663//524 
f 92//92 152//152 663//524 
f 155//155 158//158 664//524 
f 158//158 86//86 664//524 
f 86//86 155//155 664//524 
f 158//158 161//161 665//524 
f 161//161 86//86 665//524 
f 86//86 158//158 665//524 
f 161//161 164//164 666//524 
f 164//164 86//86 666//524 
f 86//86 161//161 666//524 
f 164//164 167//167 667//524 
f 167//167 86//86 667//524 
f 86//86 164//164 667//524 
f 167//167 170//170 668//524 
f 170//170 410//410 668//524 
f 410//410 86//86 668//524 
f 86//86 167//167 668//524 
f 413//413 5//5 669//524 
f 5//5 83//83 669//524 
f 83//83 413//413 669//524 
f 5//5 4//4 670//524 
f 4//4 83//83 670//524 
f 83//83 5//5 670//524 
f 4//4 8//8 671//524 
f 8//8 80//80 671//524 
f 80//80 83//83 671//524 
f 83//83 4//4 671//524 
f 8//8 11//11 672//524 
f 11//11 80//80 672//524 
f 80//80 8//8 672//524 
f 11//11 14//14 673//524 
f 14//14 77//77 673//524 
f 77//77 80//80 673//524 
f 80//80 11//11 673//524 
f 14//14 17//17 674//524 
f 17//17 77//77 674//524 
f 77//77 14//14 674//524 
f 17//17 20//20 675//524 
f 20//20 74//74 675//524 
f 74//74 77//77 675//524 
f 77//77 17//17 675//524 
f 20//20 23//23 676//524 
f 23//23 71//71 676//524 
f 71//71 74//74 676//524 
f 74//74 20//20 676//524 
f 23//23 26//26 677//524 
f 26//26 68//68 677//524 
f 68//68 71//71 677//524 
f 71//71 23//23 677//524 
f 26//26 29//29 678//524 
f 29//29 68//68 678//524 
f 68//68 26//26 678//524 
f 29//29 32//32 679//524 
f 32//32 65//65 679//524 
f 65//65 68//68 679//524 
f 68//68 29//29 679//524 
f 32//32 35//35 680//524 
f 35//35 62//62 680//524 
f 62//62 65//65 680//524 
f 65//65 32//32 680//524 
f 35//35 38//38 681//524 
f 38//38 59//59 681//524 
f 59//59 62//62 681//524 
f 62//62 35//35 681//524 
f 38//38 41//41 682//524 
f 41//41 59//59 682//524 
f 59//59 38//38 682//524 
f 41//41 44//44 683//524 
f 44//44 56//56 683//524 
f 56//56 59//59 683//524 
f 59//59 41//41 683//524 
f 44//44 47//47 684//524 
f 47//47 56//56 684//524 
f 56//56 44//44 684//524 
f 47//47 50//50 685//524 
f 50//50 56//56 685//524 
f 56//56 47//47 685//524 
f 50//50 53//53 686//524 
f 53//53 56//56 686//524 
f 56//56 50//50 686//524 
# 2 polygons - 1368 triangles

