# 3ds Max Wavefront OBJ Exporter v0.97b - (c)2007 guruware
# File Created: 07.12.2021 20:30:41

#
# object Symbol_Laag_Kaan_Yao
#

v  361.4744 0.0000 109.3977
v  361.5046 0.0000 109.0140
v  361.4896 5.0000 109.2058
v  361.5046 10.0000 109.0140
v  361.4744 10.0000 109.3977
v  361.5953 0.0000 108.5830
v  361.5500 5.0000 108.7985
v  361.5953 10.0000 108.5830
v  361.7464 0.0000 108.1046
v  361.6708 5.0000 108.3438
v  361.7464 10.0000 108.1046
v  361.9579 0.0000 107.5790
v  361.8522 5.0000 107.8418
v  361.9579 10.0000 107.5790
v  362.2299 0.0000 107.0060
v  362.0939 5.0000 107.2925
v  362.2299 10.0000 107.0060
v  362.5623 0.0000 106.3857
v  362.3961 5.0000 106.6958
v  362.5623 10.0000 106.3857
v  362.9551 0.0000 105.7180
v  362.7587 5.0000 106.0518
v  362.9551 10.0000 105.7180
v  363.4084 0.0000 105.0030
v  363.1818 5.0000 105.3605
v  363.4084 10.0000 105.0030
v  363.9221 0.0000 104.2407
v  363.6653 5.0000 104.6218
v  363.9221 10.0000 104.2407
v  364.5164 0.0000 103.4984
v  364.2192 5.0000 103.8695
v  364.5164 10.0000 103.4984
v  365.2114 0.0000 102.8434
v  364.8639 5.0000 103.1709
v  365.2114 10.0000 102.8434
v  366.0070 0.0000 102.2757
v  365.6092 5.0000 102.5595
v  366.0070 10.0000 102.2757
v  366.9033 0.0000 101.7954
v  366.4551 5.0000 102.0356
v  366.9033 10.0000 101.7954
v  367.9003 0.0000 101.4024
v  367.4018 5.0000 101.5989
v  367.9003 10.0000 101.4024
v  368.9980 0.0000 101.0967
v  368.4492 5.0000 101.2496
v  368.9980 10.0000 101.0967
v  370.1964 0.0000 100.8784
v  369.5972 5.0000 100.9876
v  370.1964 10.0000 100.8784
v  371.4955 0.0000 100.7474
v  370.8459 5.0000 100.8129
v  371.4955 10.0000 100.7474
v  372.8953 0.0000 100.7038
v  372.1954 5.0000 100.7256
v  372.8953 10.0000 100.7038
v  374.9116 0.0000 100.8212
v  373.9034 5.0000 100.7625
v  374.9116 10.0000 100.8212
v  376.6906 0.0000 101.1737
v  375.8011 5.0000 100.9975
v  376.6906 10.0000 101.1737
v  378.2325 0.0000 101.7611
v  377.4616 5.0000 101.4674
v  378.2325 10.0000 101.7611
v  379.5372 0.0000 102.5836
v  378.8849 5.0000 102.1723
v  379.5372 10.0000 102.5836
v  380.6046 0.0000 103.6409
v  380.0709 5.0000 103.1122
v  380.6046 10.0000 103.6409
v  381.4349 0.0000 104.9333
v  381.0197 5.0000 104.2871
v  381.4349 10.0000 104.9333
v  382.0279 0.0000 106.4606
v  381.7314 5.0000 105.6970
v  382.0279 10.0000 106.4606
v  382.3837 0.0000 108.2230
v  382.2058 5.0000 107.3418
v  382.3837 10.0000 108.2230
v  382.5023 0.0000 110.2203
v  382.4430 5.0000 109.2216
v  382.5023 10.0000 110.2203
v  382.5023 0.0000 162.0543
v  382.5023 5.0000 135.2467
v  382.5023 10.0000 162.0543
v  392.3232 0.0000 162.0543
v  387.4128 5.0000 162.0543
v  392.3232 10.0000 162.0543
v  392.3232 0.0000 110.1951
v  392.3232 5.0000 135.2341
v  392.3232 10.0000 110.1951
v  392.0869 0.0000 106.9191
v  392.2051 5.0000 108.5571
v  392.0869 10.0000 106.9191
v  391.3781 0.0000 104.0285
v  391.7325 5.0000 105.4738
v  391.3781 10.0000 104.0285
v  390.1967 0.0000 101.5233
v  390.7874 5.0000 102.7759
v  390.1967 10.0000 101.5233
v  388.5428 0.0000 99.4035
v  389.3698 5.0000 100.4634
v  388.5428 10.0000 99.4035
v  386.4162 0.0000 97.6691
v  387.4795 5.0000 98.5363
v  386.4162 10.0000 97.6691
v  383.8172 0.0000 96.3202
v  385.1167 5.0000 96.9947
v  383.8172 10.0000 96.3202
v  380.7455 0.0000 95.3566
v  382.2813 5.0000 95.8384
v  380.7455 10.0000 95.3566
v  377.2013 0.0000 94.7785
v  378.9734 5.0000 95.0676
v  377.2013 10.0000 94.7785
v  373.1846 0.0000 94.5858
v  375.1929 5.0000 94.6822
v  373.1846 10.0000 94.5858
v  371.2992 0.0000 94.6453
v  372.2419 5.0000 94.6155
v  371.2992 10.0000 94.6453
v  369.5069 0.0000 94.8237
v  370.4030 5.0000 94.7345
v  369.5069 10.0000 94.8237
v  367.8079 0.0000 95.1211
v  368.6574 5.0000 94.9724
v  367.8079 10.0000 95.1211
v  366.2020 0.0000 95.5374
v  367.0049 5.0000 95.3292
v  366.2020 10.0000 95.5374
v  364.6893 0.0000 96.0726
v  365.4456 5.0000 95.8050
v  364.6893 10.0000 96.0726
v  363.2697 0.0000 96.7269
v  363.9795 5.0000 96.3998
v  363.2697 10.0000 96.7269
v  361.9434 0.0000 97.5000
v  362.6066 5.0000 97.1134
v  361.9434 10.0000 97.5000
v  360.7101 0.0000 98.3921
v  361.3268 5.0000 97.9461
v  360.7101 10.0000 98.3921
v  359.5701 0.0000 99.4032
v  360.1401 5.0000 98.8977
v  359.5701 10.0000 99.4032
v  358.5374 0.0000 100.4477
v  359.0538 5.0000 99.9254
v  358.5374 10.0000 100.4477
v  357.6262 0.0000 101.4401
v  358.0818 5.0000 100.9439
v  357.6262 10.0000 101.4401
v  356.8365 0.0000 102.3805
v  357.2314 5.0000 101.9103
v  356.8365 10.0000 102.3805
v  356.1683 0.0000 103.2689
v  356.5024 5.0000 102.8247
v  356.1683 10.0000 103.2689
v  355.6216 0.0000 104.1052
v  355.8949 5.0000 103.6870
v  355.6216 10.0000 104.1052
v  355.1964 0.0000 104.8894
v  355.4089 5.0000 104.4973
v  355.1964 10.0000 104.8894
v  354.8926 0.0000 105.6216
v  355.0445 5.0000 105.2555
v  354.8926 10.0000 105.6216
v  354.7104 0.0000 106.3018
v  354.8015 5.0000 105.9617
v  354.7104 10.0000 106.3018
v  354.6496 0.0000 106.9299
v  354.6800 5.0000 106.6158
v  354.6496 10.0000 106.9299
v  358.0620 5.0000 108.1638
v  387.4128 0.0000 135.2404
v  359.2096 10.0000 108.4472
v  387.3241 0.0000 108.8894
v  386.9692 0.0000 106.4078
v  386.2594 0.0000 104.2364
v  385.4391 0.0000 101.4340
v  382.5938 0.0000 100.0535
v  380.5831 0.0000 99.0054
v  378.2175 0.0000 98.2675
v  376.2678 0.0000 98.9245
v  374.5482 0.0000 97.7223
v  372.2186 0.0000 97.6706
v  370.6245 0.0000 97.7737
v  369.1273 0.0000 97.9800
v  367.7271 0.0000 98.2894
v  366.4237 0.0000 98.7020
v  365.2173 0.0000 99.2177
v  363.4283 0.0000 99.5476
v  362.5020 0.0000 101.0343
v  361.6365 0.0000 101.8975
v  360.8735 0.0000 102.7829
v  360.2065 0.0000 103.6354
v  359.6306 0.0000 104.4383
v  359.1455 0.0000 105.1914
v  358.7514 0.0000 105.8949
v  358.4483 0.0000 106.5487
v  357.5189 0.0000 107.1082
v  359.2498 0.0000 108.1756
v  359.2096 0.0000 108.4472
v  359.2498 10.0000 108.1756
v  357.5189 10.0000 107.1082
v  358.4483 10.0000 106.5487
v  358.7514 10.0000 105.8949
v  359.1455 10.0000 105.1914
v  359.6306 10.0000 104.4383
v  360.2065 10.0000 103.6354
v  360.8735 10.0000 102.7829
v  361.6365 10.0000 101.8975
v  362.5020 10.0000 101.0343
v  363.4283 10.0000 99.5476
v  365.2173 10.0000 99.2177
v  366.4237 10.0000 98.7020
v  367.7271 10.0000 98.2894
v  369.1273 10.0000 97.9800
v  370.6245 10.0000 97.7737
v  372.2186 10.0000 97.6706
v  374.5482 10.0000 97.7223
v  376.2678 10.0000 98.9245
v  378.2175 10.0000 98.2675
v  380.5831 10.0000 99.0054
v  382.5938 10.0000 100.0535
v  385.4391 10.0000 101.4340
v  386.2594 10.0000 104.2364
v  386.9692 10.0000 106.4078
v  387.3241 10.0000 108.8894
v  387.4128 10.0000 135.2404
# 230 vertices

vn 0.4472 -0.5645 0.6937
vn 0.6850 -0.7219 0.0986
vn 0.9969 0.0000 0.0785
vn 0.6850 0.7219 0.0986
vn 0.4472 0.5645 0.6937
vn 0.6729 -0.7184 0.1766
vn 0.9786 0.0000 0.2058
vn 0.6729 0.7184 0.1766
vn 0.6573 -0.7158 0.2357
vn 0.9536 0.0000 0.3012
vn 0.6573 0.7158 0.2357
vn 0.6413 -0.7140 0.2809
vn 0.9277 0.0000 0.3733
vn 0.6413 0.7140 0.2809
vn 0.6262 -0.7126 0.3162
vn 0.9034 0.0000 0.4288
vn 0.6262 0.7126 0.3162
vn 0.6125 -0.7116 0.3441
vn 0.8814 0.0000 0.4723
vn 0.6125 0.7116 0.3441
vn 0.6002 -0.7109 0.3667
vn 0.8619 0.0000 0.5071
vn 0.6002 0.7109 0.3667
vn 0.5892 -0.7103 0.3852
vn 0.8446 0.0000 0.5354
vn 0.5892 0.7103 0.3852
vn 0.5620 -0.7165 0.4133
vn 0.8293 0.0000 0.5588
vn 0.5620 0.7165 0.4133
vn 0.5077 -0.7232 0.4683
vn 0.7807 0.0000 0.6250
vn 0.5077 0.7232 0.4683
vn 0.4387 -0.7227 0.5340
vn 0.6859 0.0000 0.7277
vn 0.4387 0.7227 0.5340
vn 0.3652 -0.7218 0.5880
vn 0.5808 0.0000 0.8140
vn 0.3652 0.7218 0.5880
vn 0.2914 -0.7204 0.6293
vn 0.4723 0.0000 0.8814
vn 0.2914 0.7204 0.6293
vn 0.2210 -0.7190 0.6590
vn 0.3667 0.0000 0.9303
vn 0.2210 0.7190 0.6590
vn 0.1560 -0.7175 0.6788
vn 0.2682 0.0000 0.9634
vn 0.1560 0.7175 0.6788
vn 0.0976 -0.7162 0.6910
vn 0.1792 0.0000 0.9838
vn 0.0976 0.7162 0.6910
vn 0.0460 -0.7150 0.6976
vn 0.1003 0.0000 0.9950
vn 0.0460 0.7150 0.6976
vn -0.0094 -0.7173 0.6967
vn 0.0312 0.0000 0.9995
vn -0.0094 0.7173 0.6967
vn -0.0874 -0.7229 0.6854
vn -0.0582 0.0000 0.9983
vn -0.0874 0.7229 0.6854
vn -0.1898 -0.7265 0.6604
vn -0.1943 0.0000 0.9809
vn -0.1898 0.7265 0.6604
vn -0.3053 -0.7301 0.6113
vn -0.3560 0.0000 0.9345
vn -0.3053 0.7301 0.6113
vn -0.4236 -0.7325 0.5330
vn -0.5333 0.0000 0.8460
vn -0.4236 0.7325 0.5330
vn -0.5290 -0.7326 0.4283
vn -0.7038 0.0000 0.7104
vn -0.5290 0.7326 0.4283
vn -0.6088 -0.7304 0.3098
vn -0.8413 0.0000 0.5405
vn -0.6088 0.7304 0.3098
vn -0.6591 -0.7269 0.1930
vn -0.9322 0.0000 0.3619
vn -0.6591 0.7269 0.1930
vn -0.6849 -0.7232 0.0890
vn -0.9802 0.0000 0.1979
vn -0.6849 0.7232 0.0890
vn -0.7000 -0.7138 0.0208
vn -0.9982 0.0000 0.0593
vn -0.7000 0.7138 0.0208
vn -0.5774 -0.5774 0.5774
vn -1.0000 0.0000 -0.0000
vn -0.5774 0.5774 0.5774
vn 0.5774 -0.5774 0.5774
vn 0.0000 0.0000 1.0000
vn 0.5774 0.5774 0.5774
vn 0.7146 -0.6991 -0.0257
vn 1.0000 0.0000 -0.0000
vn 0.7146 0.6991 -0.0257
vn 0.7163 -0.6887 -0.1128
vn 0.9974 0.0000 -0.0719
vn 0.7163 0.6887 -0.1128
vn 0.6864 -0.6853 -0.2433
vn 0.9712 0.0000 -0.2382
vn 0.6864 0.6853 -0.2433
vn 0.6221 -0.6830 -0.3828
vn 0.9045 0.0000 -0.4265
vn 0.6221 0.6830 -0.3828
vn 0.5222 -0.6828 -0.5110
vn 0.7884 0.0000 -0.6152
vn 0.5222 0.6828 -0.5110
vn 0.4003 -0.6847 -0.6090
vn 0.6320 0.0000 -0.7749
vn 0.4003 0.6847 -0.6090
vn 0.2768 -0.6880 -0.6709
vn 0.4607 0.0000 -0.8876
vn 0.2768 0.6880 -0.6709
vn 0.1667 -0.6915 -0.7029
vn 0.2993 0.0000 -0.9542
vn 0.1667 0.6915 -0.7029
vn 0.0753 -0.6945 -0.7155
vn 0.1610 0.0000 -0.9870
vn 0.0753 0.6945 -0.7155
vn 0.0059 -0.6983 -0.7158
vn 0.0479 0.0000 -0.9989
vn 0.0059 0.6983 -0.7158
vn -0.0467 -0.6996 -0.7130
vn -0.0315 0.0000 -0.9995
vn -0.0467 0.6996 -0.7130
vn -0.0971 -0.6989 -0.7086
vn -0.0991 0.0000 -0.9951
vn -0.0971 0.6989 -0.7086
vn -0.1517 -0.6982 -0.6997
vn -0.1724 0.0000 -0.9850
vn -0.1517 0.6982 -0.6997
vn -0.2096 -0.6975 -0.6852
vn -0.2509 0.0000 -0.9680
vn -0.2096 0.6975 -0.6852
vn -0.2700 -0.6969 -0.6644
vn -0.3336 0.0000 -0.9427
vn -0.2700 0.6969 -0.6644
vn -0.3312 -0.6965 -0.6366
vn -0.4186 0.0000 -0.9082
vn -0.3312 0.6965 -0.6366
vn -0.3916 -0.6962 -0.6016
vn -0.5036 0.0000 -0.8639
vn -0.3916 0.6962 -0.6016
vn -0.4491 -0.6961 -0.5601
vn -0.5861 0.0000 -0.8102
vn -0.4491 0.6961 -0.5601
vn -0.4912 -0.6998 -0.5186
vn -0.6635 0.0000 -0.7482
vn -0.4912 0.6998 -0.5186
vn -0.5149 -0.7030 -0.4906
vn -0.7111 0.0000 -0.7031
vn -0.5149 0.7030 -0.4906
vn -0.5350 -0.7022 -0.4698
vn -0.7366 0.0000 -0.6763
vn -0.5350 0.7022 -0.4698
vn -0.5581 -0.7011 -0.4437
vn -0.7658 0.0000 -0.6431
vn -0.5581 0.7011 -0.4437
vn -0.5847 -0.6998 -0.4104
vn -0.7992 0.0000 -0.6011
vn -0.5847 0.6998 -0.4104
vn -0.6150 -0.6980 -0.3669
vn -0.8370 0.0000 -0.5472
vn -0.6150 0.6980 -0.3669
vn -0.6484 -0.6956 -0.3093
vn -0.8791 0.0000 -0.4766
vn -0.6484 0.6956 -0.3093
vn -0.6830 -0.6926 -0.2320
vn -0.9237 0.0000 -0.3832
vn -0.6830 0.6926 -0.2320
vn -0.7132 -0.6890 -0.1291
vn -0.9659 0.0000 -0.2588
vn -0.7132 0.6890 -0.1291
vn -0.6814 -0.5917 0.4308
vn -0.9954 0.0000 -0.0963
vn -0.6814 0.5917 0.4308
vn -0.3400 0.0000 0.9404
vn 0.0000 -1.0000 -0.0000
vn 0.0000 1.0000 -0.0000
# 176 vertex normals

o Symbol_Laag_Kaan_Yao
g Symbol_Laag_Kaan_Yao
s 1
f 1//1 2//2 3//3 
f 2//2 4//4 3//3 
f 4//4 5//5 3//3 
f 5//5 1//1 3//3 
s 3
f 2//2 6//6 7//7 
f 6//6 8//8 7//7 
f 8//8 4//4 7//7 
f 4//4 2//2 7//7 
s 2
f 6//6 9//9 10//10 
f 9//9 11//11 10//10 
f 11//11 8//8 10//10 
f 8//8 6//6 10//10 
f 9//9 12//12 13//13 
f 12//12 14//14 13//13 
f 14//14 11//11 13//13 
f 11//11 9//9 13//13 
f 12//12 15//15 16//16 
f 15//15 17//17 16//16 
f 17//17 14//14 16//16 
f 14//14 12//12 16//16 
f 15//15 18//18 19//19 
f 18//18 20//20 19//19 
f 20//20 17//17 19//19 
f 17//17 15//15 19//19 
f 18//18 21//21 22//22 
f 21//21 23//23 22//22 
f 23//23 20//20 22//22 
f 20//20 18//18 22//22 
f 21//21 24//24 25//25 
f 24//24 26//26 25//25 
f 26//26 23//23 25//25 
f 23//23 21//21 25//25 
f 24//24 27//27 28//28 
f 27//27 29//29 28//28 
f 29//29 26//26 28//28 
f 26//26 24//24 28//28 
f 27//27 30//30 31//31 
f 30//30 32//32 31//31 
f 32//32 29//29 31//31 
f 29//29 27//27 31//31 
f 30//30 33//33 34//34 
f 33//33 35//35 34//34 
f 35//35 32//32 34//34 
f 32//32 30//30 34//34 
f 33//33 36//36 37//37 
f 36//36 38//38 37//37 
f 38//38 35//35 37//37 
f 35//35 33//33 37//37 
f 36//36 39//39 40//40 
f 39//39 41//41 40//40 
f 41//41 38//38 40//40 
f 38//38 36//36 40//40 
f 39//39 42//42 43//43 
f 42//42 44//44 43//43 
f 44//44 41//41 43//43 
f 41//41 39//39 43//43 
f 42//42 45//45 46//46 
f 45//45 47//47 46//46 
f 47//47 44//44 46//46 
f 44//44 42//42 46//46 
f 45//45 48//48 49//49 
f 48//48 50//50 49//49 
f 50//50 47//47 49//49 
f 47//47 45//45 49//49 
f 48//48 51//51 52//52 
f 51//51 53//53 52//52 
f 53//53 50//50 52//52 
f 50//50 48//48 52//52 
f 51//51 54//54 55//55 
f 54//54 56//56 55//55 
f 56//56 53//53 55//55 
f 53//53 51//51 55//55 
f 54//54 57//57 58//58 
f 57//57 59//59 58//58 
f 59//59 56//56 58//58 
f 56//56 54//54 58//58 
f 57//57 60//60 61//61 
f 60//60 62//62 61//61 
f 62//62 59//59 61//61 
f 59//59 57//57 61//61 
f 60//60 63//63 64//64 
f 63//63 65//65 64//64 
f 65//65 62//62 64//64 
f 62//62 60//60 64//64 
f 63//63 66//66 67//67 
f 66//66 68//68 67//67 
f 68//68 65//65 67//67 
f 65//65 63//63 67//67 
f 66//66 69//69 70//70 
f 69//69 71//71 70//70 
f 71//71 68//68 70//70 
f 68//68 66//66 70//70 
f 69//69 72//72 73//73 
f 72//72 74//74 73//73 
f 74//74 71//71 73//73 
f 71//71 69//69 73//73 
f 72//72 75//75 76//76 
f 75//75 77//77 76//76 
f 77//77 74//74 76//76 
f 74//74 72//72 76//76 
f 75//75 78//78 79//79 
f 78//78 80//80 79//79 
f 80//80 77//77 79//79 
f 77//77 75//75 79//79 
f 78//78 81//81 82//82 
f 81//81 83//83 82//82 
f 83//83 80//80 82//82 
f 80//80 78//78 82//82 
s 4
f 81//81 84//84 85//85 
f 84//84 86//86 85//85 
f 86//86 83//83 85//85 
f 83//83 81//81 85//85 
s 2
f 84//84 87//87 88//88 
f 87//87 89//89 88//88 
f 89//89 86//86 88//88 
f 86//86 84//84 88//88 
s 4
f 87//87 90//90 91//91 
f 90//90 92//92 91//91 
f 92//92 89//89 91//91 
f 89//89 87//87 91//91 
s 2
f 90//90 93//93 94//94 
f 93//93 95//95 94//94 
f 95//95 92//92 94//94 
f 92//92 90//90 94//94 
f 93//93 96//96 97//97 
f 96//96 98//98 97//97 
f 98//98 95//95 97//97 
f 95//95 93//93 97//97 
f 96//96 99//99 100//100 
f 99//99 101//101 100//100 
f 101//101 98//98 100//100 
f 98//98 96//96 100//100 
f 99//99 102//102 103//103 
f 102//102 104//104 103//103 
f 104//104 101//101 103//103 
f 101//101 99//99 103//103 
f 102//102 105//105 106//106 
f 105//105 107//107 106//106 
f 107//107 104//104 106//106 
f 104//104 102//102 106//106 
f 105//105 108//108 109//109 
f 108//108 110//110 109//109 
f 110//110 107//107 109//109 
f 107//107 105//105 109//109 
f 108//108 111//111 112//112 
f 111//111 113//113 112//112 
f 113//113 110//110 112//112 
f 110//110 108//108 112//112 
f 111//111 114//114 115//115 
f 114//114 116//116 115//115 
f 116//116 113//113 115//115 
f 113//113 111//111 115//115 
f 114//114 117//117 118//118 
f 117//117 119//119 118//118 
f 119//119 116//116 118//118 
f 116//116 114//114 118//118 
f 117//117 120//120 121//121 
f 120//120 122//122 121//121 
f 122//122 119//119 121//121 
f 119//119 117//117 121//121 
f 120//120 123//123 124//124 
f 123//123 125//125 124//124 
f 125//125 122//122 124//124 
f 122//122 120//120 124//124 
f 123//123 126//126 127//127 
f 126//126 128//128 127//127 
f 128//128 125//125 127//127 
f 125//125 123//123 127//127 
f 126//126 129//129 130//130 
f 129//129 131//131 130//130 
f 131//131 128//128 130//130 
f 128//128 126//126 130//130 
f 129//129 132//132 133//133 
f 132//132 134//134 133//133 
f 134//134 131//131 133//133 
f 131//131 129//129 133//133 
f 132//132 135//135 136//136 
f 135//135 137//137 136//136 
f 137//137 134//134 136//136 
f 134//134 132//132 136//136 
f 135//135 138//138 139//139 
f 138//138 140//140 139//139 
f 140//140 137//137 139//139 
f 137//137 135//135 139//139 
f 138//138 141//141 142//142 
f 141//141 143//143 142//142 
f 143//143 140//140 142//142 
f 140//140 138//138 142//142 
f 141//141 144//144 145//145 
f 144//144 146//146 145//145 
f 146//146 143//143 145//145 
f 143//143 141//141 145//145 
f 144//144 147//147 148//148 
f 147//147 149//149 148//148 
f 149//149 146//146 148//148 
f 146//146 144//144 148//148 
f 147//147 150//150 151//151 
f 150//150 152//152 151//151 
f 152//152 149//149 151//151 
f 149//149 147//147 151//151 
f 150//150 153//153 154//154 
f 153//153 155//155 154//154 
f 155//155 152//152 154//154 
f 152//152 150//150 154//154 
f 153//153 156//156 157//157 
f 156//156 158//158 157//157 
f 158//158 155//155 157//157 
f 155//155 153//153 157//157 
f 156//156 159//159 160//160 
f 159//159 161//161 160//160 
f 161//161 158//158 160//160 
f 158//158 156//156 160//160 
f 159//159 162//162 163//163 
f 162//162 164//164 163//163 
f 164//164 161//161 163//163 
f 161//161 159//159 163//163 
f 162//162 165//165 166//166 
f 165//165 167//167 166//166 
f 167//167 164//164 166//166 
f 164//164 162//162 166//166 
f 165//165 168//168 169//169 
f 168//168 170//170 169//169 
f 170//170 167//167 169//169 
f 167//167 165//165 169//169 
f 168//168 171//171 172//172 
f 171//171 173//173 172//172 
f 173//173 170//170 172//172 
f 170//170 168//168 172//172 
s 4
f 171//171 1//1 174//174 
f 1//1 5//5 174//174 
f 5//5 173//173 174//174 
f 173//173 171//171 174//174 
s 16
f 84//84 81//81 175//175 
f 81//81 90//90 175//175 
f 90//90 87//87 175//175 
f 87//87 84//84 175//175 
f 173//173 5//5 176//176 
f 5//5 4//4 176//176 
f 4//4 173//173 176//176 
f 81//81 78//78 177//175 
f 78//78 93//93 177//175 
f 93//93 90//90 177//175 
f 90//90 81//81 177//175 
f 78//78 75//75 178//175 
f 75//75 96//96 178//175 
f 96//96 93//93 178//175 
f 93//93 78//78 178//175 
f 75//75 72//72 179//175 
f 72//72 99//99 179//175 
f 99//99 96//96 179//175 
f 96//96 75//75 179//175 
f 72//72 69//69 180//175 
f 69//69 105//105 180//175 
f 105//105 102//102 180//175 
f 102//102 99//99 180//175 
f 99//99 72//72 180//175 
f 69//69 66//66 181//175 
f 66//66 108//108 181//175 
f 108//108 105//105 181//175 
f 105//105 69//69 181//175 
f 66//66 63//63 182//175 
f 63//63 111//111 182//175 
f 111//111 108//108 182//175 
f 108//108 66//66 182//175 
f 63//63 60//60 183//175 
f 60//60 114//114 183//175 
f 114//114 111//111 183//175 
f 111//111 63//63 183//175 
f 60//60 57//57 184//175 
f 57//57 114//114 184//175 
f 114//114 60//60 184//175 
f 57//57 54//54 185//175 
f 54//54 117//117 185//175 
f 117//117 114//114 185//175 
f 114//114 57//57 185//175 
f 54//54 51//51 186//175 
f 51//51 120//120 186//175 
f 120//120 117//117 186//175 
f 117//117 54//54 186//175 
f 51//51 48//48 187//175 
f 48//48 123//123 187//175 
f 123//123 120//120 187//175 
f 120//120 51//51 187//175 
f 48//48 45//45 188//175 
f 45//45 126//126 188//175 
f 126//126 123//123 188//175 
f 123//123 48//48 188//175 
f 45//45 42//42 189//175 
f 42//42 129//129 189//175 
f 129//129 126//126 189//175 
f 126//126 45//45 189//175 
f 42//42 39//39 190//175 
f 39//39 132//132 190//175 
f 132//132 129//129 190//175 
f 129//129 42//42 190//175 
f 39//39 36//36 191//175 
f 36//36 135//135 191//175 
f 135//135 132//132 191//175 
f 132//132 39//39 191//175 
f 36//36 33//33 192//175 
f 33//33 141//141 192//175 
f 141//141 138//138 192//175 
f 138//138 135//135 192//175 
f 135//135 36//36 192//175 
f 33//33 30//30 193//175 
f 30//30 144//144 193//175 
f 144//144 141//141 193//175 
f 141//141 33//33 193//175 
f 30//30 27//27 194//175 
f 27//27 147//147 194//175 
f 147//147 144//144 194//175 
f 144//144 30//30 194//175 
f 27//27 24//24 195//175 
f 24//24 150//150 195//175 
f 150//150 147//147 195//175 
f 147//147 27//27 195//175 
f 24//24 21//21 196//175 
f 21//21 153//153 196//175 
f 153//153 150//150 196//175 
f 150//150 24//24 196//175 
f 21//21 18//18 197//175 
f 18//18 156//156 197//175 
f 156//156 153//153 197//175 
f 153//153 21//21 197//175 
f 18//18 15//15 198//175 
f 15//15 159//159 198//175 
f 159//159 156//156 198//175 
f 156//156 18//18 198//175 
f 15//15 12//12 199//175 
f 12//12 162//162 199//175 
f 162//162 159//159 199//175 
f 159//159 15//15 199//175 
f 12//12 9//9 200//175 
f 9//9 165//165 200//175 
f 165//165 162//162 200//175 
f 162//162 12//12 200//175 
f 9//9 6//6 201//175 
f 6//6 171//171 201//175 
f 171//171 168//168 201//175 
f 168//168 165//165 201//175 
f 165//165 9//9 201//175 
f 6//6 2//2 202//175 
f 2//2 171//171 202//175 
f 171//171 6//6 202//175 
f 2//2 1//1 203//175 
f 1//1 171//171 203//175 
f 171//171 2//2 203//175 
f 4//4 8//8 204//176 
f 8//8 173//173 204//176 
f 173//173 4//4 204//176 
f 8//8 11//11 205//176 
f 11//11 167//167 205//176 
f 167//167 170//170 205//176 
f 170//170 173//173 205//176 
f 173//173 8//8 205//176 
f 11//11 14//14 206//176 
f 14//14 164//164 206//176 
f 164//164 167//167 206//176 
f 167//167 11//11 206//176 
f 14//14 17//17 207//176 
f 17//17 161//161 207//176 
f 161//161 164//164 207//176 
f 164//164 14//14 207//176 
f 17//17 20//20 208//176 
f 20//20 158//158 208//176 
f 158//158 161//161 208//176 
f 161//161 17//17 208//176 
f 20//20 23//23 209//176 
f 23//23 155//155 209//176 
f 155//155 158//158 209//176 
f 158//158 20//20 209//176 
f 23//23 26//26 210//176 
f 26//26 152//152 210//176 
f 152//152 155//155 210//176 
f 155//155 23//23 210//176 
f 26//26 29//29 211//176 
f 29//29 149//149 211//176 
f 149//149 152//152 211//176 
f 152//152 26//26 211//176 
f 29//29 32//32 212//176 
f 32//32 146//146 212//176 
f 146//146 149//149 212//176 
f 149//149 29//29 212//176 
f 32//32 35//35 213//176 
f 35//35 143//143 213//176 
f 143//143 146//146 213//176 
f 146//146 32//32 213//176 
f 35//35 38//38 214//176 
f 38//38 137//137 214//176 
f 137//137 140//140 214//176 
f 140//140 143//143 214//176 
f 143//143 35//35 214//176 
f 38//38 41//41 215//176 
f 41//41 134//134 215//176 
f 134//134 137//137 215//176 
f 137//137 38//38 215//176 
f 41//41 44//44 216//176 
f 44//44 131//131 216//176 
f 131//131 134//134 216//176 
f 134//134 41//41 216//176 
f 44//44 47//47 217//176 
f 47//47 128//128 217//176 
f 128//128 131//131 217//176 
f 131//131 44//44 217//176 
f 47//47 50//50 218//176 
f 50//50 125//125 218//176 
f 125//125 128//128 218//176 
f 128//128 47//47 218//176 
f 50//50 53//53 219//176 
f 53//53 122//122 219//176 
f 122//122 125//125 219//176 
f 125//125 50//50 219//176 
f 53//53 56//56 220//176 
f 56//56 119//119 220//176 
f 119//119 122//122 220//176 
f 122//122 53//53 220//176 
f 56//56 59//59 221//176 
f 59//59 116//116 221//176 
f 116//116 119//119 221//176 
f 119//119 56//56 221//176 
f 59//59 62//62 222//176 
f 62//62 116//116 222//176 
f 116//116 59//59 222//176 
f 62//62 65//65 223//176 
f 65//65 113//113 223//176 
f 113//113 116//116 223//176 
f 116//116 62//62 223//176 
f 65//65 68//68 224//176 
f 68//68 110//110 224//176 
f 110//110 113//113 224//176 
f 113//113 65//65 224//176 
f 68//68 71//71 225//176 
f 71//71 107//107 225//176 
f 107//107 110//110 225//176 
f 110//110 68//68 225//176 
f 71//71 74//74 226//176 
f 74//74 101//101 226//176 
f 101//101 104//104 226//176 
f 104//104 107//107 226//176 
f 107//107 71//71 226//176 
f 74//74 77//77 227//176 
f 77//77 98//98 227//176 
f 98//98 101//101 227//176 
f 101//101 74//74 227//176 
f 77//77 80//80 228//176 
f 80//80 95//95 228//176 
f 95//95 98//98 228//176 
f 98//98 77//77 228//176 
f 80//80 83//83 229//176 
f 83//83 92//92 229//176 
f 92//92 95//95 229//176 
f 95//95 80//80 229//176 
f 83//83 86//86 230//176 
f 86//86 89//89 230//176 
f 89//89 92//92 230//176 
f 92//92 83//83 230//176 
# 0 polygons - 456 triangles

