# 3ds Max Wavefront OBJ Exporter v0.97b - (c)2007 guruware
# File Created: 07.12.2021 20:32:02

#
# object Symbol_Reu
#

v  412.7025 0.0000 111.8587
v  411.5485 0.0000 112.5927
v  412.1255 5.0000 112.2257
v  411.5485 10.0000 112.5927
v  412.7025 10.0000 111.8587
v  410.5485 0.0000 113.4511
v  411.0485 5.0000 113.0219
v  410.5485 10.0000 113.4511
v  409.7023 0.0000 114.4341
v  410.1254 5.0000 113.9426
v  409.7023 10.0000 114.4341
v  409.0099 0.0000 115.5415
v  409.3561 5.0000 114.9878
v  409.0099 10.0000 115.5415
v  408.4714 0.0000 116.7734
v  408.7407 5.0000 116.1574
v  408.4714 10.0000 116.7734
v  408.0868 0.0000 118.1298
v  408.2791 5.0000 117.4516
v  408.0868 10.0000 118.1298
v  407.8560 0.0000 119.6106
v  407.9714 5.0000 118.8702
v  407.8560 10.0000 119.6106
v  407.7791 0.0000 121.2160
v  407.8175 5.0000 120.4133
v  407.7791 10.0000 121.2160
v  407.7791 0.0000 132.5060
v  407.7791 5.0000 126.8610
v  407.7791 10.0000 132.5060
v  407.8955 0.0000 134.9884
v  407.8373 5.0000 133.7472
v  407.8955 10.0000 134.9884
v  408.2447 0.0000 137.1789
v  408.0701 5.0000 136.0837
v  408.2447 10.0000 137.1789
v  408.8267 0.0000 139.0773
v  408.5357 5.0000 138.1281
v  408.8267 10.0000 139.0773
v  409.6415 0.0000 140.6836
v  409.2341 5.0000 139.8804
v  409.6415 10.0000 140.6836
v  410.6891 0.0000 141.9978
v  410.1653 5.0000 141.3407
v  410.6891 10.0000 141.9978
v  411.9695 0.0000 143.0201
v  411.3293 5.0000 142.5089
v  411.9695 10.0000 143.0201
v  413.4827 0.0000 143.7502
v  412.7261 5.0000 143.3851
v  413.4827 10.0000 143.7502
v  415.2287 0.0000 144.1883
v  414.3557 5.0000 143.9692
v  415.2287 10.0000 144.1883
v  417.2076 0.0000 144.3343
v  416.2181 5.0000 144.2613
v  417.2076 10.0000 144.3343
v  419.2497 0.0000 144.2239
v  418.2286 5.0000 144.2791
v  419.2497 10.0000 144.2239
v  421.0516 0.0000 143.8926
v  420.1507 5.0000 144.0582
v  421.0516 10.0000 143.8926
v  422.6133 0.0000 143.3404
v  421.8325 5.0000 143.6165
v  422.6133 10.0000 143.3404
v  423.9347 0.0000 142.5673
v  423.2740 5.0000 142.9538
v  423.9347 10.0000 142.5673
v  425.0158 0.0000 141.5734
v  424.4753 5.0000 142.0703
v  425.0158 10.0000 141.5734
v  425.8567 0.0000 140.3585
v  425.4363 5.0000 140.9660
v  425.8567 10.0000 140.3585
v  426.4574 0.0000 138.9229
v  426.1570 5.0000 139.6407
v  426.4574 10.0000 138.9229
v  426.8177 0.0000 137.2663
v  426.6376 5.0000 138.0946
v  426.8177 10.0000 137.2663
v  426.9379 0.0000 135.3888
v  426.8778 5.0000 136.3276
v  426.9379 10.0000 135.3888
v  426.8226 0.0000 133.5494
v  426.8802 5.0000 134.4691
v  426.8226 10.0000 133.5494
v  426.4767 0.0000 131.9264
v  426.6497 5.0000 132.7379
v  426.4767 10.0000 131.9264
v  425.9003 0.0000 130.5197
v  426.1885 5.0000 131.2231
v  425.9003 10.0000 130.5197
v  425.0934 0.0000 129.3295
v  425.4969 5.0000 129.9246
v  425.0934 10.0000 129.3295
v  424.0558 0.0000 128.3557
v  424.5746 5.0000 128.8426
v  424.0558 10.0000 128.3557
v  422.7877 0.0000 127.5983
v  423.4218 5.0000 127.9770
v  422.7877 10.0000 127.5983
v  421.2890 0.0000 127.0573
v  422.0384 5.0000 127.3278
v  421.2890 10.0000 127.0573
v  419.5598 0.0000 126.7327
v  420.4244 5.0000 126.8950
v  419.5598 10.0000 126.7327
v  417.6000 0.0000 126.6245
v  418.5799 5.0000 126.6786
v  417.6000 10.0000 126.6245
v  417.6000 0.0000 121.1531
v  417.6000 5.0000 123.8888
v  417.6000 10.0000 121.1531
v  417.6341 0.0000 120.1819
v  417.6170 5.0000 120.6675
v  417.6341 10.0000 120.1819
v  417.7364 0.0000 119.2496
v  417.6852 5.0000 119.7157
v  417.7364 10.0000 119.2496
v  417.9069 0.0000 118.3561
v  417.8216 5.0000 118.8029
v  417.9069 10.0000 118.3561
v  418.1456 0.0000 117.5015
v  418.0262 5.0000 117.9288
v  418.1456 10.0000 117.5015
v  418.4525 0.0000 116.6858
v  418.2990 5.0000 117.0936
v  418.4525 10.0000 116.6858
v  418.8276 0.0000 115.9089
v  418.6400 5.0000 116.2973
v  418.8276 10.0000 115.9089
v  419.2709 0.0000 115.1708
v  419.0493 5.0000 115.5398
v  419.2709 10.0000 115.1708
v  419.7824 0.0000 114.4716
v  419.5266 5.0000 114.8212
v  419.7824 10.0000 114.4716
v  420.3621 0.0000 113.8113
v  420.0723 5.0000 114.1414
v  420.3621 10.0000 113.8113
v  420.9611 0.0000 113.2060
v  420.6616 5.0000 113.5086
v  420.9611 10.0000 113.2060
v  421.5303 0.0000 112.6719
v  421.2457 5.0000 112.9389
v  421.5303 10.0000 112.6719
v  422.0699 0.0000 112.2090
v  421.8001 5.0000 112.4404
v  422.0699 10.0000 112.2090
v  422.5798 0.0000 111.8173
v  422.3249 5.0000 112.0132
v  422.5798 10.0000 111.8173
v  423.0600 0.0000 111.4968
v  422.8199 5.0000 111.6571
v  423.0600 10.0000 111.4968
v  423.5105 0.0000 111.2476
v  423.2853 5.0000 111.3722
v  423.5105 10.0000 111.2476
v  423.9313 0.0000 111.0696
v  423.7209 5.0000 111.1586
v  423.9313 10.0000 111.0696
v  424.3225 0.0000 110.9628
v  424.1269 5.0000 111.0162
v  424.3225 10.0000 110.9628
v  424.6839 0.0000 110.9271
v  424.5032 5.0000 110.9449
v  424.6839 10.0000 110.9271
v  423.9705 0.0000 110.0754
v  424.3272 5.0000 110.5013
v  423.9705 10.0000 110.0754
v  423.1975 0.0000 109.2488
v  423.5840 5.0000 109.6621
v  423.1975 10.0000 109.2488
v  422.3651 0.0000 108.4473
v  422.7813 5.0000 108.8481
v  422.3651 10.0000 108.4473
v  421.4731 0.0000 107.6709
v  421.9191 5.0000 108.0591
v  421.4731 10.0000 107.6709
v  420.5217 0.0000 106.9196
v  420.9974 5.0000 107.2952
v  420.5217 10.0000 106.9196
v  419.5107 0.0000 106.1933
v  420.0162 5.0000 106.5565
v  419.5107 10.0000 106.1933
v  418.4402 0.0000 105.4922
v  418.9755 5.0000 105.8428
v  418.4402 10.0000 105.4922
v  417.3103 0.0000 104.8162
v  417.8753 5.0000 105.1542
v  417.3103 10.0000 104.8162
v  416.1208 0.0000 104.1652
v  416.7155 5.0000 104.4907
v  416.1208 10.0000 104.1652
v  416.9729 0.0000 103.4387
v  416.5468 5.0000 103.8020
v  416.9729 10.0000 103.4387
v  417.8947 0.0000 102.7977
v  417.4338 5.0000 103.1182
v  417.8947 10.0000 102.7977
v  418.8860 0.0000 102.2422
v  418.3903 5.0000 102.5200
v  418.8860 10.0000 102.2422
v  419.9470 0.0000 101.7721
v  419.4165 5.0000 102.0071
v  419.9470 10.0000 101.7721
v  421.0776 0.0000 101.3875
v  420.5123 5.0000 101.5798
v  421.0776 10.0000 101.3875
v  422.2779 0.0000 101.0884
v  421.6777 5.0000 101.2379
v  422.2779 10.0000 101.0884
v  423.5478 0.0000 100.8747
v  422.9128 5.0000 100.9815
v  423.5478 10.0000 100.8747
v  424.8873 0.0000 100.7465
v  424.2175 5.0000 100.8106
v  424.8873 10.0000 100.7465
v  426.2964 0.0000 100.7038
v  425.5918 5.0000 100.7251
v  426.2964 10.0000 100.7038
v  428.6274 0.0000 100.8226
v  427.4619 5.0000 100.7632
v  428.6274 10.0000 100.8226
v  430.6841 0.0000 101.1792
v  429.6557 5.0000 101.0009
v  430.6841 10.0000 101.1792
v  432.4666 0.0000 101.7734
v  431.5753 5.0000 101.4763
v  432.4666 10.0000 101.7734
v  433.9749 0.0000 102.6054
v  433.2207 5.0000 102.1894
v  433.9749 10.0000 102.6054
v  435.2089 0.0000 103.6751
v  434.5919 5.0000 103.1403
v  435.2089 10.0000 103.6751
v  436.1687 0.0000 104.9825
v  435.6888 5.0000 104.3288
v  436.1687 10.0000 104.9825
v  436.8543 0.0000 106.5276
v  436.5115 5.0000 105.7551
v  436.8543 10.0000 106.5276
v  437.2657 0.0000 108.3104
v  437.0600 5.0000 107.4190
v  437.2657 10.0000 108.3104
v  437.4028 0.0000 110.3309
v  437.3342 5.0000 109.3207
v  437.4028 10.0000 110.3309
v  437.4028 0.0000 162.2051
v  437.4028 5.0000 136.2680
v  437.4028 10.0000 162.2051
v  447.2237 0.0000 162.2051
v  442.3132 5.0000 162.2051
v  447.2237 10.0000 162.2051
v  447.2237 0.0000 110.1800
v  447.2237 5.0000 136.1926
v  447.2237 10.0000 110.1800
v  447.1515 0.0000 108.5505
v  447.1876 5.0000 109.3653
v  447.1515 10.0000 108.5505
v  446.9348 0.0000 107.0073
v  447.0432 5.0000 107.7789
v  446.9348 10.0000 107.0073
v  446.5738 0.0000 105.5503
v  446.7543 5.0000 106.2788
v  446.5738 10.0000 105.5503
v  446.0684 0.0000 104.1796
v  446.3211 5.0000 104.8650
v  446.0684 10.0000 104.1796
v  445.4185 0.0000 102.8951
v  445.7434 5.0000 103.5373
v  445.4185 10.0000 102.8951
v  444.6242 0.0000 101.6969
v  445.0214 5.0000 102.2960
v  444.6242 10.0000 101.6969
v  443.6855 0.0000 100.5848
v  444.1549 5.0000 101.1409
v  443.6855 10.0000 100.5848
v  442.6024 0.0000 99.5591
v  443.1440 5.0000 100.0720
v  442.6024 10.0000 99.5591
v  441.3749 0.0000 98.6196
v  441.9887 5.0000 99.0893
v  441.3749 10.0000 98.6196
v  440.0298 0.0000 97.7730
v  440.7023 5.0000 98.1963
v  440.0298 10.0000 97.7730
v  438.5938 0.0000 97.0260
v  439.3118 5.0000 97.3995
v  438.5938 10.0000 97.0260
v  437.0671 0.0000 96.3786
v  437.8305 5.0000 96.7023
v  437.0671 10.0000 96.3786
v  435.4495 0.0000 95.8308
v  436.2583 5.0000 96.1047
v  435.4495 10.0000 95.8308
v  433.7411 0.0000 95.3826
v  434.5953 5.0000 95.6067
v  433.7411 10.0000 95.3826
v  431.9420 0.0000 95.0340
v  432.8416 5.0000 95.2083
v  431.9420 10.0000 95.0340
v  430.0520 0.0000 94.7850
v  430.9970 5.0000 94.9095
v  430.0520 10.0000 94.7850
v  428.0712 0.0000 94.6356
v  429.0616 5.0000 94.7103
v  428.0712 10.0000 94.6356
v  425.9996 0.0000 94.5858
v  427.0354 5.0000 94.6107
v  425.9996 10.0000 94.5858
v  424.5129 0.0000 94.6194
v  425.2563 5.0000 94.6026
v  424.5129 10.0000 94.6194
v  423.0270 0.0000 94.7200
v  423.7700 5.0000 94.6697
v  423.0270 10.0000 94.7200
v  421.5418 0.0000 94.8877
v  422.2844 5.0000 94.8038
v  421.5418 10.0000 94.8877
v  420.0573 0.0000 95.1225
v  420.7995 5.0000 95.0051
v  420.0573 10.0000 95.1225
v  418.5735 0.0000 95.4243
v  419.3154 5.0000 95.2734
v  418.5735 10.0000 95.4243
v  417.0904 0.0000 95.7933
v  417.8320 5.0000 95.6088
v  417.0904 10.0000 95.7933
v  415.6081 0.0000 96.2293
v  416.3492 5.0000 96.0113
v  415.6081 10.0000 96.2293
v  414.1264 0.0000 96.7325
v  414.8672 5.0000 96.4809
v  414.1264 10.0000 96.7325
v  412.6455 0.0000 97.3027
v  413.3860 5.0000 97.0176
v  412.6455 10.0000 97.3027
v  411.2077 0.0000 97.9280
v  411.9266 5.0000 97.6153
v  411.2077 10.0000 97.9280
v  409.8556 0.0000 98.5966
v  410.5317 5.0000 98.2623
v  409.8556 10.0000 98.5966
v  408.5891 0.0000 99.3084
v  409.2224 5.0000 98.9525
v  408.5891 10.0000 99.3084
v  407.4082 0.0000 100.0635
v  407.9987 5.0000 99.6860
v  407.4082 10.0000 100.0635
v  406.3129 0.0000 100.8618
v  406.8606 5.0000 100.4626
v  406.3129 10.0000 100.8618
v  405.3033 0.0000 101.7033
v  405.8081 5.0000 101.2825
v  405.3033 10.0000 101.7033
v  404.3793 0.0000 102.5880
v  404.8413 5.0000 102.1457
v  404.3793 10.0000 102.5880
v  403.5409 0.0000 103.5160
v  403.9601 5.0000 103.0520
v  403.5409 10.0000 103.5160
v  402.7881 0.0000 104.4872
v  403.1645 5.0000 104.0016
v  402.7881 10.0000 104.4872
v  404.1729 0.0000 104.9488
v  403.4805 5.0000 104.7180
v  404.1729 10.0000 104.9488
v  405.5232 0.0000 105.4829
v  404.8481 5.0000 105.2159
v  405.5232 10.0000 105.4829
v  406.8391 0.0000 106.0894
v  406.1812 5.0000 105.7861
v  406.8391 10.0000 106.0894
v  408.1205 0.0000 106.7683
v  407.4798 5.0000 106.4288
v  408.1205 10.0000 106.7683
v  409.3673 0.0000 107.5196
v  408.7439 5.0000 107.1439
v  409.3673 10.0000 107.5196
v  410.5798 0.0000 108.3434
v  409.9736 5.0000 107.9315
v  410.5798 10.0000 108.3434
v  411.7577 0.0000 109.2395
v  411.1688 5.0000 108.7914
v  411.7577 10.0000 109.2395
v  412.9012 0.0000 110.2081
v  412.3295 5.0000 109.7238
v  412.9012 10.0000 110.2081
v  414.0102 0.0000 111.2491
v  413.4557 5.0000 110.7286
v  414.0102 10.0000 111.2491
v  413.3563 5.0000 111.5539
v  418.8939 0.0000 131.5030
v  419.6095 0.0000 131.6487
v  419.2517 5.0000 131.5759
v  419.6095 10.0000 131.6487
v  418.8939 10.0000 131.5030
v  420.2296 0.0000 131.8916
v  419.9196 5.0000 131.7702
v  420.2296 10.0000 131.8916
v  420.7544 0.0000 132.2316
v  420.4920 5.0000 132.0616
v  420.7544 10.0000 132.2316
v  421.1837 0.0000 132.6688
v  420.9690 5.0000 132.4502
v  421.1837 10.0000 132.6688
v  421.5176 0.0000 133.2031
v  421.3506 5.0000 132.9359
v  421.5176 10.0000 133.2031
v  421.7561 0.0000 133.8345
v  421.6369 5.0000 133.5188
v  421.7561 10.0000 133.8345
v  421.8992 0.0000 134.5631
v  421.8277 5.0000 134.1988
v  421.8992 10.0000 134.5631
v  421.9469 0.0000 135.3888
v  421.9231 5.0000 134.9760
v  421.9469 10.0000 135.3888
v  421.8992 0.0000 136.2526
v  421.9231 5.0000 135.8207
v  421.8992 10.0000 136.2526
v  421.7561 0.0000 137.0147
v  421.8277 5.0000 136.6337
v  421.7561 10.0000 137.0147
v  421.5176 0.0000 137.6752
v  421.6369 5.0000 137.3450
v  421.5176 10.0000 137.6752
v  421.1837 0.0000 138.2341
v  421.3506 5.0000 137.9547
v  421.1837 10.0000 138.2341
v  420.7544 0.0000 138.6914
v  420.9690 5.0000 138.4628
v  420.7544 10.0000 138.6914
v  420.2296 0.0000 139.0471
v  420.4920 5.0000 138.8692
v  420.2296 10.0000 139.0471
v  419.6095 0.0000 139.3011
v  419.9196 5.0000 139.1741
v  419.6095 10.0000 139.3011
v  418.8939 0.0000 139.4536
v  419.2517 5.0000 139.3773
v  418.8939 10.0000 139.4536
v  418.0830 0.0000 139.5044
v  418.4884 5.0000 139.4790
v  418.0830 10.0000 139.5044
v  417.2720 0.0000 139.4536
v  417.6775 5.0000 139.4790
v  417.2720 10.0000 139.4536
v  416.5565 0.0000 139.3011
v  416.9142 5.0000 139.3773
v  416.5565 10.0000 139.3011
v  415.9363 0.0000 139.0471
v  416.2464 5.0000 139.1741
v  415.9363 10.0000 139.0471
v  415.4116 0.0000 138.6914
v  415.6740 5.0000 138.8692
v  415.4116 10.0000 138.6914
v  414.9823 0.0000 138.2341
v  415.1969 5.0000 138.4628
v  414.9823 10.0000 138.2341
v  414.6483 0.0000 137.6752
v  414.8153 5.0000 137.9547
v  414.6483 10.0000 137.6752
v  414.4098 0.0000 137.0147
v  414.5291 5.0000 137.3450
v  414.4098 10.0000 137.0147
v  414.2667 0.0000 136.2526
v  414.3383 5.0000 136.6337
v  414.2667 10.0000 136.2526
v  414.2190 0.0000 135.3888
v  414.2429 5.0000 135.8207
v  414.2190 10.0000 135.3888
v  414.2667 0.0000 134.5631
v  414.2429 5.0000 134.9760
v  414.2667 10.0000 134.5631
v  414.4098 0.0000 133.8345
v  414.3383 5.0000 134.1988
v  414.4098 10.0000 133.8345
v  414.6483 0.0000 133.2031
v  414.5291 5.0000 133.5188
v  414.6483 10.0000 133.2031
v  414.9823 0.0000 132.6688
v  414.8153 5.0000 132.9359
v  414.9823 10.0000 132.6688
v  415.4116 0.0000 132.2316
v  415.1969 5.0000 132.4502
v  415.4116 10.0000 132.2316
v  415.9363 0.0000 131.8916
v  415.6740 5.0000 132.0616
v  415.9363 10.0000 131.8916
v  416.5565 0.0000 131.6487
v  416.2464 5.0000 131.7702
v  416.5565 10.0000 131.6487
v  417.2720 0.0000 131.5030
v  416.9142 5.0000 131.5759
v  417.2720 10.0000 131.5030
v  418.0830 0.0000 131.4544
v  417.6775 5.0000 131.4787
v  418.0830 10.0000 131.4544
v  418.4884 5.0000 131.4787
v  442.3132 0.0000 136.2303
v  403.7203 10.0000 103.8850
v  443.1957 0.0000 108.8758
v  442.7394 0.0000 106.3150
v  442.1366 0.0000 103.4778
v  439.8081 0.0000 101.4842
v  437.8365 0.0000 99.9398
v  435.5104 0.0000 98.7228
v  432.8567 0.0000 97.8400
v  430.3264 0.0000 97.9552
v  427.8093 0.0000 97.1066
v  425.4240 0.0000 97.6638
v  423.9937 0.0000 97.7401
v  422.5986 0.0000 97.8927
v  420.7056 0.0000 97.5821
v  419.1721 0.0000 98.5943
v  417.8829 0.0000 99.0092
v  416.6288 0.0000 99.5004
v  415.4099 0.0000 100.0679
v  409.7071 0.0000 101.3582
v  424.3256 0.0000 110.6551
v  404.8447 0.0000 103.6808
v  403.7203 0.0000 103.8850
v  424.0748 0.0000 110.7026
v  423.6525 0.0000 110.4104
v  423.2560 0.0000 110.6644
v  422.8006 0.0000 110.2526
v  422.3383 0.0000 110.8245
v  421.8596 0.0000 110.2498
v  419.9639 0.0000 108.1386
v  417.1090 0.0000 110.6581
v  418.0516 0.0000 113.1773
v  414.5225 0.0000 107.1073
v  412.8194 0.0000 107.2494
v  412.0226 0.0000 106.6761
v  411.2029 0.0000 106.1510
v  410.3601 0.0000 105.6743
v  417.6878 0.0000 113.6305
v  417.3696 0.0000 114.1096
v  415.9982 0.0000 113.9256
v  414.2795 0.0000 114.4179
v  413.0626 0.0000 115.8569
v  412.2423 0.0000 117.6101
v  412.8283 0.0000 119.2930
v  412.7173 0.0000 120.5404
v  414.8839 0.0000 125.1606
v  413.4240 0.0000 128.2521
v  413.0423 0.0000 128.4464
v  412.7243 0.0000 128.7054
v  412.4699 0.0000 129.0293
v  412.2791 0.0000 129.4178
v  412.1519 0.0000 129.8712
v  410.3879 0.0000 131.7325
v  411.1565 0.0000 135.9522
v  411.4370 0.0000 137.3809
v  411.8816 0.0000 138.6127
v  412.4903 0.0000 139.6477
v  413.2631 0.0000 140.4859
v  414.2000 0.0000 141.1272
v  415.3011 0.0000 141.5717
v  416.5662 0.0000 141.8193
v  417.9531 0.0000 141.8790
v  418.7422 0.0000 141.0606
v  419.7012 0.0000 141.7178
v  420.8760 0.0000 141.3953
v  421.8830 0.0000 140.9115
v  422.7221 0.0000 140.2666
v  423.3935 0.0000 139.4603
v  423.8969 0.0000 138.4928
v  424.2326 0.0000 137.3641
v  424.4005 0.0000 136.0741
v  424.4017 0.0000 134.7225
v  424.2387 0.0000 133.4684
v  423.9127 0.0000 132.3709
v  423.4237 0.0000 131.4303
v  422.7718 0.0000 130.6464
v  421.9569 0.0000 130.0193
v  420.9789 0.0000 129.5490
v  419.8380 0.0000 129.2354
v  418.5342 0.0000 129.0787
v  417.6516 0.0000 129.8606
v  417.1428 0.0000 129.9254
v  404.8447 10.0000 103.6808
v  405.9946 10.0000 103.5343
v  410.4072 10.0000 101.4523
v  411.2029 10.0000 106.1510
v  415.4099 10.0000 100.0679
v  416.6288 10.0000 99.5004
v  417.8829 10.0000 99.0092
v  419.1721 10.0000 98.5943
v  420.7056 10.0000 97.5821
v  422.5986 10.0000 97.8927
v  423.9937 10.0000 97.7401
v  425.4240 10.0000 97.6638
v  427.8093 10.0000 97.1066
v  430.3264 10.0000 97.9552
v  432.8567 10.0000 97.8400
v  435.5104 10.0000 98.7228
v  437.8365 10.0000 99.9398
v  439.8081 10.0000 101.4842
v  442.1366 10.0000 103.4778
v  442.7394 10.0000 106.3150
v  443.1957 10.0000 108.8758
v  442.3132 10.0000 136.2303
v  412.0226 10.0000 106.6761
v  412.8194 10.0000 107.2494
v  414.5225 10.0000 107.1073
v  418.5176 10.0000 108.7141
v  415.3615 10.0000 126.4290
v  421.8596 10.0000 110.2498
v  422.3383 10.0000 110.8245
v  422.8006 10.0000 110.2526
v  423.2560 10.0000 110.6644
v  423.6525 10.0000 110.4104
v  424.0748 10.0000 110.7026
v  424.3256 10.0000 110.6551
v  417.6516 10.0000 129.8606
v  412.7173 10.0000 120.5404
v  412.8283 10.0000 119.2930
v  412.2423 10.0000 117.6101
v  413.0626 10.0000 115.8569
v  414.2795 10.0000 114.4179
v  415.9982 10.0000 113.9256
v  417.3696 10.0000 114.1096
v  417.6878 10.0000 113.6305
v  418.0516 10.0000 113.1773
v  418.4445 10.0000 112.7555
v  418.5341 10.0000 129.0787
v  419.8380 10.0000 129.2354
v  420.9789 10.0000 129.5490
v  421.9569 10.0000 130.0193
v  422.7718 10.0000 130.6464
v  423.4237 10.0000 131.4303
v  423.9127 10.0000 132.3709
v  424.2387 10.0000 133.4684
v  424.4017 10.0000 134.7225
v  424.4005 10.0000 136.0741
v  424.2326 10.0000 137.3641
v  423.8969 10.0000 138.4928
v  423.3935 10.0000 139.4603
v  422.7221 10.0000 140.2666
v  421.8830 10.0000 140.9115
v  420.8760 10.0000 141.3953
v  419.7012 10.0000 141.7178
v  418.7422 10.0000 141.0606
v  417.9531 10.0000 141.8790
v  416.5662 10.0000 141.8193
v  415.3011 10.0000 141.5717
v  414.2000 10.0000 141.1272
v  413.2631 10.0000 140.4859
v  412.4903 10.0000 139.6477
v  411.8816 10.0000 138.6127
v  411.4370 10.0000 137.3809
v  411.1565 10.0000 135.9522
v  410.3879 10.0000 131.7325
v  412.1519 10.0000 129.8712
v  412.2791 10.0000 129.4178
v  412.4699 10.0000 129.0293
v  412.7243 10.0000 128.7054
v  413.0423 10.0000 128.4464
v  413.4240 10.0000 128.2521
# 662 vertices

vn -0.3466 -0.6927 -0.6324
vn -0.4303 -0.6914 -0.5804
vn -0.5367 0.0000 -0.8438
vn -0.4303 0.6914 -0.5804
vn -0.3466 0.6927 -0.6324
vn -0.5111 -0.6906 -0.5118
vn -0.6514 0.0000 -0.7588
vn -0.5111 0.6906 -0.5118
vn -0.5825 -0.6904 -0.4290
vn -0.7579 0.0000 -0.6524
vn -0.5825 0.6904 -0.4290
vn -0.6394 -0.6910 -0.3373
vn -0.8479 0.0000 -0.5301
vn -0.6394 0.6910 -0.3373
vn -0.6794 -0.6922 -0.2436
vn -0.9163 0.0000 -0.4005
vn -0.6794 0.6922 -0.2436
vn -0.7036 -0.6937 -0.1540
vn -0.9621 0.0000 -0.2728
vn -0.7036 0.6937 -0.1540
vn -0.7150 -0.6953 -0.0726
vn -0.9881 0.0000 -0.1540
vn -0.7150 0.6953 -0.0726
vn -0.7122 -0.7018 -0.0171
vn -0.9989 0.0000 -0.0479
vn -0.7122 0.7018 -0.0171
vn -0.7121 -0.7019 0.0167
vn -1.0000 0.0000 -0.0000
vn -0.7121 0.7019 0.0167
vn -0.7154 -0.6948 0.0736
vn -0.9989 0.0000 0.0468
vn -0.7154 0.6948 0.0736
vn -0.7035 -0.6918 0.1631
vn -0.9875 0.0000 0.1574
vn -0.7035 0.6918 0.1631
vn -0.6728 -0.6883 0.2714
vn -0.9561 0.0000 0.2931
vn -0.6728 0.6883 0.2714
vn -0.6129 -0.6849 0.3939
vn -0.8918 0.0000 0.4524
vn -0.6129 0.6849 0.3939
vn -0.5168 -0.6828 0.5164
vn -0.7820 0.0000 0.6233
vn -0.5168 0.6828 0.5164
vn -0.3891 -0.6828 0.6184
vn -0.6239 0.0000 0.7815
vn -0.3891 0.6828 0.6184
vn -0.2483 -0.6849 0.6850
vn -0.4346 0.0000 0.9006
vn -0.2483 0.6849 0.6850
vn -0.1154 -0.6883 0.7162
vn -0.2434 0.0000 0.9699
vn -0.1154 0.6883 0.7162
vn -0.0071 -0.6930 0.7209
vn -0.0736 0.0000 0.9973
vn -0.0071 0.6930 0.7209
vn 0.0848 -0.6930 0.7159
vn 0.0540 0.0000 0.9985
vn 0.0848 0.6930 0.7159
vn 0.1867 -0.6898 0.6995
vn 0.1808 0.0000 0.9835
vn 0.1867 0.6898 0.6995
vn 0.3062 -0.6864 0.6596
vn 0.3334 0.0000 0.9428
vn 0.3062 0.6864 0.6596
vn 0.4336 -0.6838 0.5868
vn 0.5050 0.0000 0.8631
vn 0.4336 0.6838 0.5868
vn 0.5508 -0.6830 0.4797
vn 0.6768 0.0000 0.7362
vn 0.5508 0.6830 0.4797
vn 0.6396 -0.6843 0.3501
vn 0.8222 0.0000 0.5691
vn 0.6396 0.6843 0.3501
vn 0.6929 -0.6872 0.2183
vn 0.9225 0.0000 0.3859
vn 0.6929 0.6872 0.2183
vn 0.7163 -0.6906 0.1002
vn 0.9771 0.0000 0.2126
vn 0.7163 0.6906 0.1002
vn 0.7208 -0.6932 0.0005
vn 0.9980 0.0000 0.0639
vn 0.7208 0.6932 0.0005
vn 0.7162 -0.6909 -0.0982
vn 0.9980 0.0000 -0.0626
vn 0.7162 0.6909 -0.0982
vn 0.6938 -0.6875 -0.2142
vn 0.9780 0.0000 -0.2084
vn 0.6938 0.6875 -0.2142
vn 0.6423 -0.6846 -0.3446
vn 0.9253 0.0000 -0.3792
vn 0.6423 0.6846 -0.3446
vn 0.5556 -0.6831 -0.4741
vn 0.8277 0.0000 -0.5612
vn 0.5556 0.6831 -0.4741
vn 0.4394 -0.6837 -0.5827
vn 0.6844 0.0000 -0.7291
vn 0.4394 0.6837 -0.5827
vn 0.3114 -0.6862 -0.6574
vn 0.5128 0.0000 -0.8585
vn 0.3114 0.6862 -0.6574
vn 0.1904 -0.6895 -0.6988
vn 0.3395 0.0000 -0.9406
vn 0.1904 0.6895 -0.6988
vn 0.0866 -0.6927 -0.7160
vn 0.1845 0.0000 -0.9828
vn 0.0866 0.6927 -0.7160
vn 0.3196 -0.8980 -0.3024
vn 0.0551 0.0000 -0.9985
vn 0.3196 0.8980 -0.3024
vn 0.7030 -0.7111 0.0123
vn 1.0000 0.0000 -0.0000
vn 0.7030 0.7111 0.0123
vn 0.6967 -0.7156 0.0504
vn 0.9994 0.0000 0.0351
vn 0.6967 0.7156 0.0504
vn 0.6902 -0.7161 0.1036
vn 0.9940 0.0000 0.1091
vn 0.6902 0.7161 0.1036
vn 0.6790 -0.7167 0.1593
vn 0.9823 0.0000 0.1875
vn 0.6790 0.7167 0.1593
vn 0.6625 -0.7171 0.2167
vn 0.9631 0.0000 0.2690
vn 0.6625 0.7171 0.2167
vn 0.6404 -0.7174 0.2744
vn 0.9360 0.0000 0.3521
vn 0.6404 0.7174 0.2744
vn 0.6128 -0.7175 0.3311
vn 0.9005 0.0000 0.4348
vn 0.6128 0.7175 0.3311
vn 0.5803 -0.7175 0.3854
vn 0.8573 0.0000 0.5149
vn 0.5803 0.7175 0.3854
vn 0.5436 -0.7172 0.4360
vn 0.8071 0.0000 0.5904
vn 0.5436 0.7172 0.4360
vn 0.5122 -0.7139 0.4775
vn 0.7515 0.0000 0.6597
vn 0.5122 0.7139 0.4775
vn 0.4904 -0.7113 0.5036
vn 0.7108 0.0000 0.7034
vn 0.4904 0.7113 0.5036
vn 0.4688 -0.7121 0.5225
vn 0.6842 0.0000 0.7293
vn 0.4688 0.7121 0.5225
vn 0.4418 -0.7132 0.5441
vn 0.6511 0.0000 0.7590
vn 0.4418 0.7132 0.5441
vn 0.4074 -0.7147 0.5686
vn 0.6092 0.0000 0.7930
vn 0.4074 0.7147 0.5686
vn 0.3627 -0.7166 0.5958
vn 0.5551 0.0000 0.8318
vn 0.3627 0.7166 0.5958
vn 0.3040 -0.7191 0.6249
vn 0.4841 0.0000 0.8750
vn 0.3040 0.7191 0.6249
vn 0.2263 -0.7224 0.6533
vn 0.3896 0.0000 0.9210
vn 0.2263 0.7224 0.6533
vn 0.1246 -0.7265 0.6757
vn 0.2635 0.0000 0.9647
vn 0.1246 0.7265 0.6757
vn 0.7718 -0.5522 0.3152
vn 0.0980 0.0000 0.9952
vn 0.7718 0.5522 0.3152
vn 0.5340 -0.7010 -0.4727
vn 0.7666 0.0000 -0.6421
vn 0.5340 0.7010 -0.4727
vn 0.5078 -0.7013 -0.5004
vn 0.7304 0.0000 -0.6830
vn 0.5078 0.7013 -0.5004
vn 0.4813 -0.7015 -0.5256
vn 0.6936 0.0000 -0.7204
vn 0.4813 0.7015 -0.5256
vn 0.4548 -0.7018 -0.5484
vn 0.6566 0.0000 -0.7543
vn 0.4548 0.7018 -0.5484
vn 0.4285 -0.7020 -0.5688
vn 0.6197 0.0000 -0.7848
vn 0.4285 0.7020 -0.5688
vn 0.4028 -0.7023 -0.5870
vn 0.5834 0.0000 -0.8122
vn 0.4028 0.7023 -0.5870
vn 0.3777 -0.7026 -0.6031
vn 0.5479 0.0000 -0.8365
vn 0.3777 0.7026 -0.6031
vn 0.3534 -0.7028 -0.6174
vn 0.5134 0.0000 -0.8581
vn 0.3534 0.7028 -0.6174
vn 0.3296 -0.9435 -0.0339
vn 0.4801 0.0000 -0.8772
vn 0.3296 0.9435 -0.0339
vn 0.4248 -0.7183 0.5509
vn 0.6488 0.0000 0.7610
vn 0.4248 0.7183 0.5509
vn 0.3692 -0.7182 0.5899
vn 0.5709 0.0000 0.8210
vn 0.3692 0.7182 0.5899
vn 0.3115 -0.7178 0.6227
vn 0.4889 0.0000 0.8724
vn 0.3115 0.7178 0.6227
vn 0.2536 -0.7173 0.6490
vn 0.4051 0.0000 0.9143
vn 0.2536 0.7173 0.6490
vn 0.1968 -0.7166 0.6691
vn 0.3221 0.0000 0.9467
vn 0.1968 0.7166 0.6691
vn 0.1424 -0.7159 0.6835
vn 0.2418 0.0000 0.9703
vn 0.1424 0.7159 0.6835
vn 0.0913 -0.7152 0.6929
vn 0.1659 0.0000 0.9861
vn 0.0913 0.7152 0.6929
vn 0.0440 -0.7145 0.6982
vn 0.0953 0.0000 0.9955
vn 0.0440 0.7145 0.6982
vn -0.0072 -0.7164 0.6977
vn 0.0303 0.0000 0.9995
vn -0.0072 0.7164 0.6977
vn -0.0770 -0.7209 0.6887
vn -0.0509 0.0000 0.9987
vn -0.0770 0.7209 0.6887
vn -0.1684 -0.7244 0.6685
vn -0.1708 0.0000 0.9853
vn -0.1684 0.7244 0.6685
vn -0.2751 -0.7282 0.6278
vn -0.3163 0.0000 0.9487
vn -0.2751 0.7282 0.6278
vn -0.3901 -0.7315 0.5592
vn -0.4830 0.0000 0.8756
vn -0.3901 0.7315 0.5592
vn -0.5000 -0.7331 0.4611
vn -0.6550 0.0000 0.7556
vn -0.5000 0.7331 0.4611
vn -0.5893 -0.7322 0.3417
vn -0.8061 0.0000 0.5918
vn -0.5893 0.7322 0.3417
vn -0.6491 -0.7292 0.2167
vn -0.9141 0.0000 0.4056
vn -0.6491 0.7292 0.2167
vn -0.6808 -0.7254 0.1010
vn -0.9744 0.0000 0.2248
vn -0.6808 0.7254 0.1010
vn -0.6989 -0.7148 0.0237
vn -0.9977 0.0000 0.0677
vn -0.6989 0.7148 0.0237
vn -0.5774 -0.5774 0.5774
vn -0.5774 0.5774 0.5774
vn 0.5774 -0.5774 0.5774
vn 0.0000 0.0000 1.0000
vn 0.5774 0.5774 0.5774
vn 0.7118 -0.7022 -0.0158
vn 0.7118 0.7022 -0.0158
vn 0.7145 -0.6966 -0.0658
vn 0.9990 0.0000 -0.0443
vn 0.7145 0.6966 -0.0658
vn 0.7053 -0.6957 -0.1365
vn 0.9903 0.0000 -0.1390
vn 0.7053 0.6957 -0.1365
vn 0.6874 -0.6949 -0.2112
vn 0.9706 0.0000 -0.2405
vn 0.6874 0.6949 -0.2112
vn 0.6597 -0.6944 -0.2874
vn 0.9382 0.0000 -0.3460
vn 0.6597 0.6944 -0.2874
vn 0.6222 -0.6942 -0.3619
vn 0.8923 0.0000 -0.4514
vn 0.6222 0.6942 -0.3619
vn 0.5759 -0.6943 -0.4316
vn 0.8335 0.0000 -0.5525
vn 0.5759 0.6943 -0.4316
vn 0.5229 -0.6948 -0.4938
vn 0.7641 0.0000 -0.6450
vn 0.5229 0.6948 -0.4938
vn 0.4660 -0.6955 -0.5469
vn 0.6876 0.0000 -0.7261
vn 0.4660 0.6955 -0.5469
vn 0.4093 -0.6970 -0.5888
vn 0.6078 0.0000 -0.7941
vn 0.4093 0.6970 -0.5888
vn 0.3563 -0.6980 -0.6212
vn 0.5327 0.0000 -0.8463
vn 0.3563 0.6980 -0.6212
vn 0.3051 -0.6984 -0.6475
vn 0.4615 0.0000 -0.8871
vn 0.3051 0.6984 -0.6475
vn 0.2545 -0.6988 -0.6685
vn 0.3904 0.0000 -0.9207
vn 0.2545 0.6988 -0.6685
vn 0.2055 -0.6993 -0.6846
vn 0.3208 0.0000 -0.9472
vn 0.2055 0.6993 -0.6846
vn 0.1586 -0.6998 -0.6965
vn 0.2538 0.0000 -0.9673
vn 0.1586 0.6998 -0.6965
vn 0.1146 -0.7004 -0.7045
vn 0.1902 0.0000 -0.9817
vn 0.1146 0.7004 -0.7045
vn 0.0734 -0.7009 -0.7095
vn 0.1306 0.0000 -0.9914
vn 0.0734 0.7009 -0.7095
vn 0.0354 -0.7014 -0.7119
vn 0.0752 0.0000 -0.9972
vn 0.0354 0.7014 -0.7119
vn 0.0005 -0.7019 -0.7123
vn 0.0240 0.0000 -0.9997
vn 0.0005 0.7019 -0.7123
vn -0.0321 -0.7021 -0.7114
vn -0.0226 0.0000 -0.9997
vn -0.0321 0.7021 -0.7114
vn -0.0640 -0.7021 -0.7092
vn -0.0676 0.0000 -0.9977
vn -0.0640 0.7021 -0.7092
vn -0.0956 -0.7021 -0.7056
vn -0.1122 0.0000 -0.9937
vn -0.0956 0.7021 -0.7056
vn -0.1266 -0.7022 -0.7006
vn -0.1562 0.0000 -0.9877
vn -0.1266 0.7022 -0.7006
vn -0.1569 -0.7023 -0.6944
vn -0.1994 0.0000 -0.9799
vn -0.1569 0.7023 -0.6944
vn -0.1864 -0.7024 -0.6870
vn -0.2414 0.0000 -0.9704
vn -0.1864 0.7024 -0.6870
vn -0.2149 -0.7025 -0.6785
vn -0.2822 0.0000 -0.9594
vn -0.2149 0.7025 -0.6785
vn -0.2423 -0.7026 -0.6690
vn -0.3215 0.0000 -0.9469
vn -0.2423 0.7026 -0.6690
vn -0.2699 -0.7023 -0.6587
vn -0.3593 0.0000 -0.9332
vn -0.2699 0.7023 -0.6587
vn -0.3001 -0.7016 -0.6462
vn -0.3989 0.0000 -0.9170
vn -0.3001 0.7016 -0.6463
vn -0.3328 -0.7012 -0.6305
vn -0.4432 0.0000 -0.8964
vn -0.3328 0.7012 -0.6305
vn -0.3671 -0.7008 -0.6117
vn -0.4900 0.0000 -0.8717
vn -0.3671 0.7008 -0.6117
vn -0.4027 -0.7003 -0.5894
vn -0.5387 0.0000 -0.8425
vn -0.4027 0.7003 -0.5894
vn -0.4392 -0.6999 -0.5633
vn -0.5890 0.0000 -0.8081
vn -0.4392 0.6999 -0.5633
vn -0.4762 -0.6994 -0.5329
vn -0.6403 0.0000 -0.7682
vn -0.4762 0.6994 -0.5329
vn -0.5129 -0.6991 -0.4983
vn -0.6916 0.0000 -0.7223
vn -0.5129 0.6991 -0.4983
vn -0.5485 -0.6987 -0.4592
vn -0.7420 0.0000 -0.6704
vn -0.5485 0.6987 -0.4592
vn -0.7917 -0.5616 0.2404
vn -0.7904 0.0000 -0.6126
vn -0.7917 0.5616 0.2404
vn -0.2398 -0.7133 0.6585
vn -0.3162 0.0000 0.9487
vn -0.2398 0.7133 0.6585
vn -0.2756 -0.7134 0.6443
vn -0.3678 0.0000 0.9299
vn -0.2756 0.7134 0.6443
vn -0.3108 -0.7134 0.6281
vn -0.4186 0.0000 0.9082
vn -0.3108 0.7134 0.6281
vn -0.3450 -0.7134 0.6100
vn -0.4682 0.0000 0.8836
vn -0.3450 0.7134 0.6100
vn -0.3779 -0.7133 0.5902
vn -0.5161 0.0000 0.8565
vn -0.3779 0.7133 0.5902
vn -0.4093 -0.7132 0.5690
vn -0.5620 0.0000 0.8271
vn -0.4093 0.7132 0.5690
vn -0.4390 -0.7131 0.5467
vn -0.6055 0.0000 0.7959
vn -0.4390 0.7131 0.5467
vn -0.4668 -0.7129 0.5234
vn -0.6463 0.0000 0.7630
vn -0.4668 0.7129 0.5234
vn -0.3226 -0.9451 -0.0517
vn -0.6844 0.0000 0.7291
vn -0.3226 0.9451 -0.0517
vn -0.4224 0.0000 -0.9064
vn -0.0898 -0.7233 0.6847
vn -0.1944 -0.7270 0.6585
vn -0.1996 0.0000 0.9799
vn -0.1944 0.7270 0.6585
vn -0.0898 0.7233 0.6847
vn -0.3118 -0.7305 0.6076
vn -0.3647 0.0000 0.9311
vn -0.3118 0.7305 0.6076
vn -0.4305 -0.7326 0.5272
vn -0.5438 0.0000 0.8392
vn -0.4305 0.7326 0.5272
vn -0.5347 -0.7324 0.4215
vn -0.7135 0.0000 0.7007
vn -0.5347 0.7324 0.4215
vn -0.6125 -0.7300 0.3033
vn -0.8480 0.0000 0.5300
vn -0.6125 0.7300 0.3033
vn -0.6610 -0.7264 0.1883
vn -0.9355 0.0000 0.3534
vn -0.6610 0.7264 0.1883
vn -0.6856 -0.7228 0.0867
vn -0.9813 0.0000 0.1927
vn -0.6856 0.7228 0.0867
vn -0.6939 -0.7200 0.0009
vn -0.9983 0.0000 0.0577
vn -0.6939 0.7200 0.0009
vn -0.6868 -0.7221 -0.0831
vn -0.9985 0.0000 -0.0551
vn -0.6868 0.7221 -0.0831
vn -0.6638 -0.7257 -0.1809
vn -0.9828 0.0000 -0.1845
vn -0.6638 0.7257 -0.1809
vn -0.6183 -0.7293 -0.2930
vn -0.9406 0.0000 -0.3396
vn -0.6183 0.7293 -0.2930
vn -0.5438 -0.7321 -0.4102
vn -0.8585 0.0000 -0.5129
vn -0.5438 0.7321 -0.4102
vn -0.4416 -0.7328 -0.5176
vn -0.7290 0.0000 -0.6845
vn -0.4416 0.7328 -0.5176
vn -0.3224 -0.7311 -0.6013
vn -0.5611 0.0000 -0.8278
vn -0.3224 0.7311 -0.6013
vn -0.2022 -0.7278 -0.6553
vn -0.3791 0.0000 -0.9254
vn -0.2022 0.7278 -0.6553
vn -0.0937 -0.7241 -0.6834
vn -0.2083 0.0000 -0.9781
vn -0.0937 0.7241 -0.6834
vn -0.0000 -0.7215 -0.6925
vn -0.0625 0.0000 -0.9980
vn -0.0000 0.7215 -0.6925
vn 0.0937 -0.7241 -0.6834
vn 0.0625 0.0000 -0.9980
vn 0.0937 0.7241 -0.6834
vn 0.2022 -0.7278 -0.6553
vn 0.2083 0.0000 -0.9781
vn 0.2022 0.7278 -0.6553
vn 0.3224 -0.7311 -0.6013
vn 0.3791 0.0000 -0.9254
vn 0.3224 0.7311 -0.6013
vn 0.4416 -0.7328 -0.5176
vn 0.5611 0.0000 -0.8278
vn 0.4416 0.7328 -0.5176
vn 0.5438 -0.7321 -0.4102
vn 0.7290 0.0000 -0.6845
vn 0.5438 0.7321 -0.4102
vn 0.6182 -0.7293 -0.2930
vn 0.8585 0.0000 -0.5129
vn 0.6182 0.7293 -0.2930
vn 0.6638 -0.7257 -0.1809
vn 0.9406 0.0000 -0.3396
vn 0.6638 0.7257 -0.1809
vn 0.6868 -0.7221 -0.0831
vn 0.9828 0.0000 -0.1845
vn 0.6868 0.7221 -0.0831
vn 0.6939 -0.7200 0.0009
vn 0.9985 0.0000 -0.0551
vn 0.6939 0.7200 0.0009
vn 0.6856 -0.7228 0.0867
vn 0.9983 0.0000 0.0577
vn 0.6856 0.7228 0.0867
vn 0.6610 -0.7264 0.1883
vn 0.9813 0.0000 0.1927
vn 0.6610 0.7264 0.1883
vn 0.6125 -0.7300 0.3033
vn 0.9355 0.0000 0.3534
vn 0.6125 0.7300 0.3033
vn 0.5347 -0.7324 0.4215
vn 0.8480 0.0000 0.5300
vn 0.5347 0.7324 0.4215
vn 0.4305 -0.7326 0.5272
vn 0.7135 0.0000 0.7007
vn 0.4305 0.7326 0.5272
vn 0.3118 -0.7305 0.6076
vn 0.5438 0.0000 0.8392
vn 0.3118 0.7305 0.6076
vn 0.1944 -0.7270 0.6585
vn 0.3647 0.0000 0.9311
vn 0.1944 0.7270 0.6585
vn 0.0898 -0.7233 0.6847
vn 0.1995 0.0000 0.9799
vn 0.0898 0.7233 0.6847
vn 0.0000 -0.7208 0.6931
vn 0.0598 0.0000 0.9982
vn 0.0000 0.7208 0.6931
vn -0.0598 0.0000 0.9982
vn 0.0000 -1.0000 -0.0000
vn 0.0000 1.0000 -0.0000
# 501 vertex normals

o Symbol_Reu
g Symbol_Reu
s 1
f 1//1 2//2 3//3 
f 2//2 4//4 3//3 
f 4//4 5//5 3//3 
f 5//5 1//1 3//3 
s 3
f 2//2 6//6 7//7 
f 6//6 8//8 7//7 
f 8//8 4//4 7//7 
f 4//4 2//2 7//7 
s 2
f 6//6 9//9 10//10 
f 9//9 11//11 10//10 
f 11//11 8//8 10//10 
f 8//8 6//6 10//10 
f 9//9 12//12 13//13 
f 12//12 14//14 13//13 
f 14//14 11//11 13//13 
f 11//11 9//9 13//13 
f 12//12 15//15 16//16 
f 15//15 17//17 16//16 
f 17//17 14//14 16//16 
f 14//14 12//12 16//16 
f 15//15 18//18 19//19 
f 18//18 20//20 19//19 
f 20//20 17//17 19//19 
f 17//17 15//15 19//19 
f 18//18 21//21 22//22 
f 21//21 23//23 22//22 
f 23//23 20//20 22//22 
f 20//20 18//18 22//22 
f 21//21 24//24 25//25 
f 24//24 26//26 25//25 
f 26//26 23//23 25//25 
f 23//23 21//21 25//25 
s 4
f 24//24 27//27 28//28 
f 27//27 29//29 28//28 
f 29//29 26//26 28//28 
f 26//26 24//24 28//28 
s 2
f 27//27 30//30 31//31 
f 30//30 32//32 31//31 
f 32//32 29//29 31//31 
f 29//29 27//27 31//31 
f 30//30 33//33 34//34 
f 33//33 35//35 34//34 
f 35//35 32//32 34//34 
f 32//32 30//30 34//34 
f 33//33 36//36 37//37 
f 36//36 38//38 37//37 
f 38//38 35//35 37//37 
f 35//35 33//33 37//37 
f 36//36 39//39 40//40 
f 39//39 41//41 40//40 
f 41//41 38//38 40//40 
f 38//38 36//36 40//40 
f 39//39 42//42 43//43 
f 42//42 44//44 43//43 
f 44//44 41//41 43//43 
f 41//41 39//39 43//43 
f 42//42 45//45 46//46 
f 45//45 47//47 46//46 
f 47//47 44//44 46//46 
f 44//44 42//42 46//46 
f 45//45 48//48 49//49 
f 48//48 50//50 49//49 
f 50//50 47//47 49//49 
f 47//47 45//45 49//49 
f 48//48 51//51 52//52 
f 51//51 53//53 52//52 
f 53//53 50//50 52//52 
f 50//50 48//48 52//52 
f 51//51 54//54 55//55 
f 54//54 56//56 55//55 
f 56//56 53//53 55//55 
f 53//53 51//51 55//55 
f 54//54 57//57 58//58 
f 57//57 59//59 58//58 
f 59//59 56//56 58//58 
f 56//56 54//54 58//58 
f 57//57 60//60 61//61 
f 60//60 62//62 61//61 
f 62//62 59//59 61//61 
f 59//59 57//57 61//61 
f 60//60 63//63 64//64 
f 63//63 65//65 64//64 
f 65//65 62//62 64//64 
f 62//62 60//60 64//64 
f 63//63 66//66 67//67 
f 66//66 68//68 67//67 
f 68//68 65//65 67//67 
f 65//65 63//63 67//67 
f 66//66 69//69 70//70 
f 69//69 71//71 70//70 
f 71//71 68//68 70//70 
f 68//68 66//66 70//70 
f 69//69 72//72 73//73 
f 72//72 74//74 73//73 
f 74//74 71//71 73//73 
f 71//71 69//69 73//73 
f 72//72 75//75 76//76 
f 75//75 77//77 76//76 
f 77//77 74//74 76//76 
f 74//74 72//72 76//76 
f 75//75 78//78 79//79 
f 78//78 80//80 79//79 
f 80//80 77//77 79//79 
f 77//77 75//75 79//79 
f 78//78 81//81 82//82 
f 81//81 83//83 82//82 
f 83//83 80//80 82//82 
f 80//80 78//78 82//82 
f 81//81 84//84 85//85 
f 84//84 86//86 85//85 
f 86//86 83//83 85//85 
f 83//83 81//81 85//85 
f 84//84 87//87 88//88 
f 87//87 89//89 88//88 
f 89//89 86//86 88//88 
f 86//86 84//84 88//88 
f 87//87 90//90 91//91 
f 90//90 92//92 91//91 
f 92//92 89//89 91//91 
f 89//89 87//87 91//91 
f 90//90 93//93 94//94 
f 93//93 95//95 94//94 
f 95//95 92//92 94//94 
f 92//92 90//90 94//94 
f 93//93 96//96 97//97 
f 96//96 98//98 97//97 
f 98//98 95//95 97//97 
f 95//95 93//93 97//97 
f 96//96 99//99 100//100 
f 99//99 101//101 100//100 
f 101//101 98//98 100//100 
f 98//98 96//96 100//100 
f 99//99 102//102 103//103 
f 102//102 104//104 103//103 
f 104//104 101//101 103//103 
f 101//101 99//99 103//103 
f 102//102 105//105 106//106 
f 105//105 107//107 106//106 
f 107//107 104//104 106//106 
f 104//104 102//102 106//106 
f 105//105 108//108 109//109 
f 108//108 110//110 109//109 
f 110//110 107//107 109//109 
f 107//107 105//105 109//109 
s 4
f 108//108 111//111 112//112 
f 111//111 113//113 112//112 
f 113//113 110//110 112//112 
f 110//110 108//108 112//112 
s 2
f 111//111 114//114 115//115 
f 114//114 116//116 115//115 
f 116//116 113//113 115//115 
f 113//113 111//111 115//115 
f 114//114 117//117 118//118 
f 117//117 119//119 118//118 
f 119//119 116//116 118//118 
f 116//116 114//114 118//118 
f 117//117 120//120 121//121 
f 120//120 122//122 121//121 
f 122//122 119//119 121//121 
f 119//119 117//117 121//121 
f 120//120 123//123 124//124 
f 123//123 125//125 124//124 
f 125//125 122//122 124//124 
f 122//122 120//120 124//124 
f 123//123 126//126 127//127 
f 126//126 128//128 127//127 
f 128//128 125//125 127//127 
f 125//125 123//123 127//127 
f 126//126 129//129 130//130 
f 129//129 131//131 130//130 
f 131//131 128//128 130//130 
f 128//128 126//126 130//130 
f 129//129 132//132 133//133 
f 132//132 134//134 133//133 
f 134//134 131//131 133//133 
f 131//131 129//129 133//133 
f 132//132 135//135 136//136 
f 135//135 137//137 136//136 
f 137//137 134//134 136//136 
f 134//134 132//132 136//136 
f 135//135 138//138 139//139 
f 138//138 140//140 139//139 
f 140//140 137//137 139//139 
f 137//137 135//135 139//139 
f 138//138 141//141 142//142 
f 141//141 143//143 142//142 
f 143//143 140//140 142//142 
f 140//140 138//138 142//142 
f 141//141 144//144 145//145 
f 144//144 146//146 145//145 
f 146//146 143//143 145//145 
f 143//143 141//141 145//145 
f 144//144 147//147 148//148 
f 147//147 149//149 148//148 
f 149//149 146//146 148//148 
f 146//146 144//144 148//148 
f 147//147 150//150 151//151 
f 150//150 152//152 151//151 
f 152//152 149//149 151//151 
f 149//149 147//147 151//151 
f 150//150 153//153 154//154 
f 153//153 155//155 154//154 
f 155//155 152//152 154//154 
f 152//152 150//150 154//154 
f 153//153 156//156 157//157 
f 156//156 158//158 157//157 
f 158//158 155//155 157//157 
f 155//155 153//153 157//157 
f 156//156 159//159 160//160 
f 159//159 161//161 160//160 
f 161//161 158//158 160//160 
f 158//158 156//156 160//160 
f 159//159 162//162 163//163 
f 162//162 164//164 163//163 
f 164//164 161//161 163//163 
f 161//161 159//159 163//163 
f 162//162 165//165 166//166 
f 165//165 167//167 166//166 
f 167//167 164//164 166//166 
f 164//164 162//162 166//166 
s 4
f 165//165 168//168 169//169 
f 168//168 170//170 169//169 
f 170//170 167//167 169//169 
f 167//167 165//165 169//169 
f 168//168 171//171 172//172 
f 171//171 173//173 172//172 
f 173//173 170//170 172//172 
f 170//170 168//168 172//172 
f 171//171 174//174 175//175 
f 174//174 176//176 175//175 
f 176//176 173//173 175//175 
f 173//173 171//171 175//175 
f 174//174 177//177 178//178 
f 177//177 179//179 178//178 
f 179//179 176//176 178//178 
f 176//176 174//174 178//178 
f 177//177 180//180 181//181 
f 180//180 182//182 181//181 
f 182//182 179//179 181//181 
f 179//179 177//177 181//181 
f 180//180 183//183 184//184 
f 183//183 185//185 184//184 
f 185//185 182//182 184//184 
f 182//182 180//180 184//184 
f 183//183 186//186 187//187 
f 186//186 188//188 187//187 
f 188//188 185//185 187//187 
f 185//185 183//183 187//187 
f 186//186 189//189 190//190 
f 189//189 191//191 190//190 
f 191//191 188//188 190//190 
f 188//188 186//186 190//190 
f 189//189 192//192 193//193 
f 192//192 194//194 193//193 
f 194//194 191//191 193//193 
f 191//191 189//189 193//193 
s 2
f 192//192 195//195 196//196 
f 195//195 197//197 196//196 
f 197//197 194//194 196//196 
f 194//194 192//192 196//196 
f 195//195 198//198 199//199 
f 198//198 200//200 199//199 
f 200//200 197//197 199//199 
f 197//197 195//195 199//199 
f 198//198 201//201 202//202 
f 201//201 203//203 202//202 
f 203//203 200//200 202//202 
f 200//200 198//198 202//202 
f 201//201 204//204 205//205 
f 204//204 206//206 205//205 
f 206//206 203//203 205//205 
f 203//203 201//201 205//205 
f 204//204 207//207 208//208 
f 207//207 209//209 208//208 
f 209//209 206//206 208//208 
f 206//206 204//204 208//208 
f 207//207 210//210 211//211 
f 210//210 212//212 211//211 
f 212//212 209//209 211//211 
f 209//209 207//207 211//211 
f 210//210 213//213 214//214 
f 213//213 215//215 214//214 
f 215//215 212//212 214//214 
f 212//212 210//210 214//214 
f 213//213 216//216 217//217 
f 216//216 218//218 217//217 
f 218//218 215//215 217//217 
f 215//215 213//213 217//217 
f 216//216 219//219 220//220 
f 219//219 221//221 220//220 
f 221//221 218//218 220//220 
f 218//218 216//216 220//220 
f 219//219 222//222 223//223 
f 222//222 224//224 223//223 
f 224//224 221//221 223//223 
f 221//221 219//219 223//223 
f 222//222 225//225 226//226 
f 225//225 227//227 226//226 
f 227//227 224//224 226//226 
f 224//224 222//222 226//226 
f 225//225 228//228 229//229 
f 228//228 230//230 229//229 
f 230//230 227//227 229//229 
f 227//227 225//225 229//229 
f 228//228 231//231 232//232 
f 231//231 233//233 232//232 
f 233//233 230//230 232//232 
f 230//230 228//228 232//232 
f 231//231 234//234 235//235 
f 234//234 236//236 235//235 
f 236//236 233//233 235//235 
f 233//233 231//231 235//235 
f 234//234 237//237 238//238 
f 237//237 239//239 238//238 
f 239//239 236//236 238//238 
f 236//236 234//234 238//238 
f 237//237 240//240 241//241 
f 240//240 242//242 241//241 
f 242//242 239//239 241//241 
f 239//239 237//237 241//241 
f 240//240 243//243 244//244 
f 243//243 245//245 244//244 
f 245//245 242//242 244//244 
f 242//242 240//240 244//244 
f 243//243 246//246 247//247 
f 246//246 248//248 247//247 
f 248//248 245//245 247//247 
f 245//245 243//243 247//247 
s 4
f 246//246 249//249 250//28 
f 249//249 251//250 250//28 
f 251//250 248//248 250//28 
f 248//248 246//246 250//28 
s 2
f 249//249 252//251 253//252 
f 252//251 254//253 253//252 
f 254//253 251//250 253//252 
f 251//250 249//249 253//252 
s 4
f 252//251 255//254 256//112 
f 255//254 257//255 256//112 
f 257//255 254//253 256//112 
f 254//253 252//251 256//112 
s 2
f 255//254 258//256 259//257 
f 258//256 260//258 259//257 
f 260//258 257//255 259//257 
f 257//255 255//254 259//257 
f 258//256 261//259 262//260 
f 261//259 263//261 262//260 
f 263//261 260//258 262//260 
f 260//258 258//256 262//260 
f 261//259 264//262 265//263 
f 264//262 266//264 265//263 
f 266//264 263//261 265//263 
f 263//261 261//259 265//263 
f 264//262 267//265 268//266 
f 267//265 269//267 268//266 
f 269//267 266//264 268//266 
f 266//264 264//262 268//266 
f 267//265 270//268 271//269 
f 270//268 272//270 271//269 
f 272//270 269//267 271//269 
f 269//267 267//265 271//269 
f 270//268 273//271 274//272 
f 273//271 275//273 274//272 
f 275//273 272//270 274//272 
f 272//270 270//268 274//272 
f 273//271 276//274 277//275 
f 276//274 278//276 277//275 
f 278//276 275//273 277//275 
f 275//273 273//271 277//275 
f 276//274 279//277 280//278 
f 279//277 281//279 280//278 
f 281//279 278//276 280//278 
f 278//276 276//274 280//278 
f 279//277 282//280 283//281 
f 282//280 284//282 283//281 
f 284//282 281//279 283//281 
f 281//279 279//277 283//281 
f 282//280 285//283 286//284 
f 285//283 287//285 286//284 
f 287//285 284//282 286//284 
f 284//282 282//280 286//284 
f 285//283 288//286 289//287 
f 288//286 290//288 289//287 
f 290//288 287//285 289//287 
f 287//285 285//283 289//287 
f 288//286 291//289 292//290 
f 291//289 293//291 292//290 
f 293//291 290//288 292//290 
f 290//288 288//286 292//290 
f 291//289 294//292 295//293 
f 294//292 296//294 295//293 
f 296//294 293//291 295//293 
f 293//291 291//289 295//293 
f 294//292 297//295 298//296 
f 297//295 299//297 298//296 
f 299//297 296//294 298//296 
f 296//294 294//292 298//296 
f 297//295 300//298 301//299 
f 300//298 302//300 301//299 
f 302//300 299//297 301//299 
f 299//297 297//295 301//299 
f 300//298 303//301 304//302 
f 303//301 305//303 304//302 
f 305//303 302//300 304//302 
f 302//300 300//298 304//302 
f 303//301 306//304 307//305 
f 306//304 308//306 307//305 
f 308//306 305//303 307//305 
f 305//303 303//301 307//305 
f 306//304 309//307 310//308 
f 309//307 311//309 310//308 
f 311//309 308//306 310//308 
f 308//306 306//304 310//308 
f 309//307 312//310 313//311 
f 312//310 314//312 313//311 
f 314//312 311//309 313//311 
f 311//309 309//307 313//311 
f 312//310 315//313 316//314 
f 315//313 317//315 316//314 
f 317//315 314//312 316//314 
f 314//312 312//310 316//314 
f 315//313 318//316 319//317 
f 318//316 320//318 319//317 
f 320//318 317//315 319//317 
f 317//315 315//313 319//317 
f 318//316 321//319 322//320 
f 321//319 323//321 322//320 
f 323//321 320//318 322//320 
f 320//318 318//316 322//320 
f 321//319 324//322 325//323 
f 324//322 326//324 325//323 
f 326//324 323//321 325//323 
f 323//321 321//319 325//323 
f 324//322 327//325 328//326 
f 327//325 329//327 328//326 
f 329//327 326//324 328//326 
f 326//324 324//322 328//326 
f 327//325 330//328 331//329 
f 330//328 332//330 331//329 
f 332//330 329//327 331//329 
f 329//327 327//325 331//329 
f 330//328 333//331 334//332 
f 333//331 335//333 334//332 
f 335//333 332//330 334//332 
f 332//330 330//328 334//332 
f 333//331 336//334 337//335 
f 336//334 338//336 337//335 
f 338//336 335//333 337//335 
f 335//333 333//331 337//335 
f 336//334 339//337 340//338 
f 339//337 341//339 340//338 
f 341//339 338//336 340//338 
f 338//336 336//334 340//338 
f 339//337 342//340 343//341 
f 342//340 344//342 343//341 
f 344//342 341//339 343//341 
f 341//339 339//337 343//341 
f 342//340 345//343 346//344 
f 345//343 347//345 346//344 
f 347//345 344//342 346//344 
f 344//342 342//340 346//344 
f 345//343 348//346 349//347 
f 348//346 350//348 349//347 
f 350//348 347//345 349//347 
f 347//345 345//343 349//347 
f 348//346 351//349 352//350 
f 351//349 353//351 352//350 
f 353//351 350//348 352//350 
f 350//348 348//346 352//350 
f 351//349 354//352 355//353 
f 354//352 356//354 355//353 
f 356//354 353//351 355//353 
f 353//351 351//349 355//353 
f 354//352 357//355 358//356 
f 357//355 359//357 358//356 
f 359//357 356//354 358//356 
f 356//354 354//352 358//356 
f 357//355 360//358 361//359 
f 360//358 362//360 361//359 
f 362//360 359//357 361//359 
f 359//357 357//355 361//359 
f 360//358 363//361 364//362 
f 363//361 365//363 364//362 
f 365//363 362//360 364//362 
f 362//360 360//358 364//362 
s 4
f 363//361 366//364 367//365 
f 366//364 368//366 367//365 
f 368//366 365//363 367//365 
f 365//363 363//361 367//365 
f 366//364 369//367 370//368 
f 369//367 371//369 370//368 
f 371//369 368//366 370//368 
f 368//366 366//364 370//368 
f 369//367 372//370 373//371 
f 372//370 374//372 373//371 
f 374//372 371//369 373//371 
f 371//369 369//367 373//371 
f 372//370 375//373 376//374 
f 375//373 377//375 376//374 
f 377//375 374//372 376//374 
f 374//372 372//370 376//374 
f 375//373 378//376 379//377 
f 378//376 380//378 379//377 
f 380//378 377//375 379//377 
f 377//375 375//373 379//377 
f 378//376 381//379 382//380 
f 381//379 383//381 382//380 
f 383//381 380//378 382//380 
f 380//378 378//376 382//380 
f 381//379 384//382 385//383 
f 384//382 386//384 385//383 
f 386//384 383//381 385//383 
f 383//381 381//379 385//383 
f 384//382 387//385 388//386 
f 387//385 389//387 388//386 
f 389//387 386//384 388//386 
f 386//384 384//382 388//386 
f 387//385 390//388 391//389 
f 390//388 392//390 391//389 
f 392//390 389//387 391//389 
f 389//387 387//385 391//389 
s 3
f 390//388 1//1 393//391 
f 1//1 5//5 393//391 
f 5//5 392//390 393//391 
f 392//390 390//388 393//391 
s 1
f 394//392 395//393 396//394 
f 395//393 397//395 396//394 
f 397//395 398//396 396//394 
f 398//396 394//392 396//394 
s 3
f 395//393 399//397 400//398 
f 399//397 401//399 400//398 
f 401//399 397//395 400//398 
f 397//395 395//393 400//398 
s 2
f 399//397 402//400 403//401 
f 402//400 404//402 403//401 
f 404//402 401//399 403//401 
f 401//399 399//397 403//401 
f 402//400 405//403 406//404 
f 405//403 407//405 406//404 
f 407//405 404//402 406//404 
f 404//402 402//400 406//404 
f 405//403 408//406 409//407 
f 408//406 410//408 409//407 
f 410//408 407//405 409//407 
f 407//405 405//403 409//407 
f 408//406 411//409 412//410 
f 411//409 413//411 412//410 
f 413//411 410//408 412//410 
f 410//408 408//406 412//410 
f 411//409 414//412 415//413 
f 414//412 416//414 415//413 
f 416//414 413//411 415//413 
f 413//411 411//409 415//413 
f 414//412 417//415 418//416 
f 417//415 419//417 418//416 
f 419//417 416//414 418//416 
f 416//414 414//412 418//416 
f 417//415 420//418 421//419 
f 420//418 422//420 421//419 
f 422//420 419//417 421//419 
f 419//417 417//415 421//419 
f 420//418 423//421 424//422 
f 423//421 425//423 424//422 
f 425//423 422//420 424//422 
f 422//420 420//418 424//422 
f 423//421 426//424 427//425 
f 426//424 428//426 427//425 
f 428//426 425//423 427//425 
f 425//423 423//421 427//425 
f 426//424 429//427 430//428 
f 429//427 431//429 430//428 
f 431//429 428//426 430//428 
f 428//426 426//424 430//428 
f 429//427 432//430 433//431 
f 432//430 434//432 433//431 
f 434//432 431//429 433//431 
f 431//429 429//427 433//431 
f 432//430 435//433 436//434 
f 435//433 437//435 436//434 
f 437//435 434//432 436//434 
f 434//432 432//430 436//434 
f 435//433 438//436 439//437 
f 438//436 440//438 439//437 
f 440//438 437//435 439//437 
f 437//435 435//433 439//437 
f 438//436 441//439 442//440 
f 441//439 443//441 442//440 
f 443//441 440//438 442//440 
f 440//438 438//436 442//440 
f 441//439 444//442 445//443 
f 444//442 446//444 445//443 
f 446//444 443//441 445//443 
f 443//441 441//439 445//443 
f 444//442 447//445 448//446 
f 447//445 449//447 448//446 
f 449//447 446//444 448//446 
f 446//444 444//442 448//446 
f 447//445 450//448 451//449 
f 450//448 452//450 451//449 
f 452//450 449//447 451//449 
f 449//447 447//445 451//449 
f 450//448 453//451 454//452 
f 453//451 455//453 454//452 
f 455//453 452//450 454//452 
f 452//450 450//448 454//452 
f 453//451 456//454 457//455 
f 456//454 458//456 457//455 
f 458//456 455//453 457//455 
f 455//453 453//451 457//455 
f 456//454 459//457 460//458 
f 459//457 461//459 460//458 
f 461//459 458//456 460//458 
f 458//456 456//454 460//458 
f 459//457 462//460 463//461 
f 462//460 464//462 463//461 
f 464//462 461//459 463//461 
f 461//459 459//457 463//461 
f 462//460 465//463 466//464 
f 465//463 467//465 466//464 
f 467//465 464//462 466//464 
f 464//462 462//460 466//464 
f 465//463 468//466 469//467 
f 468//466 470//468 469//467 
f 470//468 467//465 469//467 
f 467//465 465//463 469//467 
f 468//466 471//469 472//470 
f 471//469 473//471 472//470 
f 473//471 470//468 472//470 
f 470//468 468//466 472//470 
f 471//469 474//472 475//473 
f 474//472 476//474 475//473 
f 476//474 473//471 475//473 
f 473//471 471//469 475//473 
f 474//472 477//475 478//476 
f 477//475 479//477 478//476 
f 479//477 476//474 478//476 
f 476//474 474//472 478//476 
f 477//475 480//478 481//479 
f 480//478 482//480 481//479 
f 482//480 479//477 481//479 
f 479//477 477//475 481//479 
f 480//478 483//481 484//482 
f 483//481 485//483 484//482 
f 485//483 482//480 484//482 
f 482//480 480//478 484//482 
f 483//481 486//484 487//485 
f 486//484 488//486 487//485 
f 488//486 485//483 487//485 
f 485//483 483//481 487//485 
f 486//484 489//487 490//488 
f 489//487 491//489 490//488 
f 491//489 488//486 490//488 
f 488//486 486//484 490//488 
f 489//487 492//490 493//491 
f 492//490 494//492 493//491 
f 494//492 491//489 493//491 
f 491//489 489//487 493//491 
f 492//490 495//493 496//494 
f 495//493 497//495 496//494 
f 497//495 494//492 496//494 
f 494//492 492//490 496//494 
f 495//493 498//496 499//497 
f 498//496 500//498 499//497 
f 500//498 497//495 499//497 
f 497//495 495//493 499//497 
s 3
f 498//496 394//392 501//499 
f 394//392 398//396 501//499 
f 398//396 500//498 501//499 
f 500//498 498//496 501//499 
s 16
f 249//249 246//246 502//500 
f 246//246 255//254 502//500 
f 255//254 252//251 502//500 
f 252//251 249//249 502//500 
f 359//357 362//360 503//501 
f 362//360 365//363 503//501 
f 365//363 368//366 503//501 
f 368//366 359//357 503//501 
f 246//246 243//243 504//500 
f 243//243 261//259 504//500 
f 261//259 258//256 504//500 
f 258//256 255//254 504//500 
f 255//254 246//246 504//500 
f 243//243 240//240 505//500 
f 240//240 267//265 505//500 
f 267//265 264//262 505//500 
f 264//262 261//259 505//500 
f 261//259 243//243 505//500 
f 240//240 237//237 506//500 
f 237//237 276//274 506//500 
f 276//274 273//271 506//500 
f 273//271 270//268 506//500 
f 270//268 267//265 506//500 
f 267//265 240//240 506//500 
f 237//237 234//234 507//500 
f 234//234 282//280 507//500 
f 282//280 279//277 507//500 
f 279//277 276//274 507//500 
f 276//274 237//237 507//500 
f 234//234 231//231 508//500 
f 231//231 288//286 508//500 
f 288//286 285//283 508//500 
f 285//283 282//280 508//500 
f 282//280 234//234 508//500 
f 231//231 228//228 509//500 
f 228//228 294//292 509//500 
f 294//292 291//289 509//500 
f 291//289 288//286 509//500 
f 288//286 231//231 509//500 
f 228//228 225//225 510//500 
f 225//225 300//298 510//500 
f 300//298 297//295 510//500 
f 297//295 294//292 510//500 
f 294//292 228//228 510//500 
f 225//225 222//222 511//500 
f 222//222 303//301 511//500 
f 303//301 300//298 511//500 
f 300//298 225//225 511//500 
f 222//222 219//219 512//500 
f 219//219 309//307 512//500 
f 309//307 306//304 512//500 
f 306//304 303//301 512//500 
f 303//301 222//222 512//500 
f 219//219 216//216 513//500 
f 216//216 312//310 513//500 
f 312//310 309//307 513//500 
f 309//307 219//219 513//500 
f 216//216 213//213 514//500 
f 213//213 315//313 514//500 
f 315//313 312//310 514//500 
f 312//310 216//216 514//500 
f 213//213 210//210 515//500 
f 210//210 318//316 515//500 
f 318//316 315//313 515//500 
f 315//313 213//213 515//500 
f 210//210 207//207 516//500 
f 207//207 324//322 516//500 
f 324//322 321//319 516//500 
f 321//319 318//316 516//500 
f 318//316 210//210 516//500 
f 207//207 204//204 517//500 
f 204//204 327//325 517//500 
f 327//325 324//322 517//500 
f 324//322 207//207 517//500 
f 204//204 201//201 518//500 
f 201//201 330//328 518//500 
f 330//328 327//325 518//500 
f 327//325 204//204 518//500 
f 201//201 198//198 519//500 
f 198//198 333//331 519//500 
f 333//331 330//328 519//500 
f 330//328 201//201 519//500 
f 198//198 195//195 520//500 
f 195//195 336//334 520//500 
f 336//334 333//331 520//500 
f 333//331 198//198 520//500 
f 195//195 192//192 521//500 
f 192//192 372//370 521//500 
f 372//370 369//367 521//500 
f 369//367 354//352 521//500 
f 354//352 351//349 521//500 
f 351//349 348//346 521//500 
f 348//346 345//343 521//500 
f 345//343 342//340 521//500 
f 342//340 339//337 521//500 
f 339//337 336//334 521//500 
f 336//334 195//195 521//500 
f 168//168 165//165 522//500 
f 165//165 162//162 522//500 
f 162//162 168//168 522//500 
f 369//367 366//364 523//500 
f 366//364 357//355 523//500 
f 357//355 354//352 523//500 
f 354//352 369//367 523//500 
f 366//364 363//361 524//500 
f 363//361 360//358 524//500 
f 360//358 357//355 524//500 
f 357//355 366//364 524//500 
f 162//162 159//159 525//500 
f 159//159 168//168 525//500 
f 168//168 162//162 525//500 
f 159//159 156//156 526//500 
f 156//156 171//171 526//500 
f 171//171 168//168 526//500 
f 168//168 159//159 526//500 
f 156//156 153//153 527//500 
f 153//153 171//171 527//500 
f 171//171 156//156 527//500 
f 153//153 150//150 528//500 
f 150//150 174//174 528//500 
f 174//174 171//171 528//500 
f 171//171 153//153 528//500 
f 150//150 147//147 529//500 
f 147//147 174//174 529//500 
f 174//174 150//150 529//500 
f 147//147 144//144 530//500 
f 144//144 177//177 530//500 
f 177//177 174//174 530//500 
f 174//174 147//147 530//500 
f 144//144 141//141 531//500 
f 141//141 189//189 531//500 
f 189//189 186//186 531//500 
f 186//186 183//183 531//500 
f 183//183 180//180 531//500 
f 180//180 177//177 531//500 
f 177//177 144//144 531//500 
f 141//141 138//138 532//500 
f 138//138 390//388 532//500 
f 390//388 387//385 532//500 
f 387//385 189//189 532//500 
f 189//189 141//141 532//500 
f 138//138 135//135 533//500 
f 135//135 390//388 533//500 
f 390//388 138//138 533//500 
f 387//385 384//382 534//500 
f 384//382 192//192 534//500 
f 192//192 189//189 534//500 
f 189//189 387//385 534//500 
f 384//382 381//379 535//500 
f 381//379 192//192 535//500 
f 192//192 384//382 535//500 
f 381//379 378//376 536//500 
f 378//376 192//192 536//500 
f 192//192 381//379 536//500 
f 378//376 375//373 537//500 
f 375//373 192//192 537//500 
f 192//192 378//376 537//500 
f 375//373 372//370 538//500 
f 372//370 192//192 538//500 
f 192//192 375//373 538//500 
f 135//135 132//132 539//500 
f 132//132 390//388 539//500 
f 390//388 135//135 539//500 
f 132//132 129//129 540//500 
f 129//129 390//388 540//500 
f 390//388 132//132 540//500 
f 129//129 126//126 541//500 
f 126//126 1//1 541//500 
f 1//1 390//388 541//500 
f 390//388 129//129 541//500 
f 126//126 123//123 542//500 
f 123//123 6//6 542//500 
f 6//6 2//2 542//500 
f 2//2 1//1 542//500 
f 1//1 126//126 542//500 
f 123//123 120//120 543//500 
f 120//120 12//12 543//500 
f 12//12 9//9 543//500 
f 9//9 6//6 543//500 
f 6//6 123//123 543//500 
f 120//120 117//117 544//500 
f 117//117 18//18 544//500 
f 18//18 15//15 544//500 
f 15//15 12//12 544//500 
f 12//12 120//120 544//500 
f 117//117 114//114 545//500 
f 114//114 21//21 545//500 
f 21//21 18//18 545//500 
f 18//18 117//117 545//500 
f 114//114 111//111 546//500 
f 111//111 24//24 546//500 
f 24//24 21//21 546//500 
f 21//21 114//114 546//500 
f 111//111 108//108 547//500 
f 108//108 492//490 547//500 
f 24//24 111//111 547//500 
f 24//24 547//500 492//490 548//500 
f 492//490 489//487 548//500 
f 489//487 24//24 548//500 
f 489//487 486//484 549//500 
f 486//484 24//24 549//500 
f 24//24 489//487 549//500 
f 486//484 483//481 550//500 
f 483//481 24//24 550//500 
f 24//24 486//484 550//500 
f 483//481 480//478 551//500 
f 480//478 24//24 551//500 
f 24//24 483//481 551//500 
f 480//478 477//475 552//500 
f 477//475 24//24 552//500 
f 24//24 480//478 552//500 
f 477//475 474//472 553//500 
f 474//472 24//24 553//500 
f 24//24 477//475 553//500 
f 474//472 471//469 554//500 
f 471//469 30//30 554//500 
f 30//30 27//27 554//500 
f 27//27 24//24 554//500 
f 24//24 474//472 554//500 
f 471//469 468//466 555//500 
f 468//466 33//33 555//500 
f 33//33 30//30 555//500 
f 30//30 471//469 555//500 
f 468//466 465//463 556//500 
f 465//463 36//36 556//500 
f 36//36 33//33 556//500 
f 33//33 468//466 556//500 
f 465//463 462//460 557//500 
f 462//460 39//39 557//500 
f 39//39 36//36 557//500 
f 36//36 465//463 557//500 
f 462//460 459//457 558//500 
f 459//457 42//42 558//500 
f 42//42 39//39 558//500 
f 39//39 462//460 558//500 
f 459//457 456//454 559//500 
f 456//454 45//45 559//500 
f 45//45 42//42 559//500 
f 42//42 459//457 559//500 
f 456//454 453//451 560//500 
f 453//451 48//48 560//500 
f 48//48 45//45 560//500 
f 45//45 456//454 560//500 
f 453//451 450//448 561//500 
f 450//448 51//51 561//500 
f 51//51 48//48 561//500 
f 48//48 453//451 561//500 
f 450//448 447//445 562//500 
f 447//445 54//54 562//500 
f 54//54 51//51 562//500 
f 51//51 450//448 562//500 
f 447//445 444//442 563//500 
f 444//442 57//57 563//500 
f 57//57 54//54 563//500 
f 54//54 447//445 563//500 
f 444//442 441//439 564//500 
f 441//439 57//57 564//500 
f 57//57 444//442 564//500 
f 441//439 438//436 565//500 
f 438//436 60//60 565//500 
f 60//60 57//57 565//500 
f 57//57 441//439 565//500 
f 438//436 435//433 566//500 
f 435//433 63//63 566//500 
f 63//63 60//60 566//500 
f 60//60 438//436 566//500 
f 435//433 432//430 567//500 
f 432//430 66//66 567//500 
f 66//66 63//63 567//500 
f 63//63 435//433 567//500 
f 432//430 429//427 568//500 
f 429//427 69//69 568//500 
f 69//69 66//66 568//500 
f 66//66 432//430 568//500 
f 429//427 426//424 569//500 
f 426//424 72//72 569//500 
f 72//72 69//69 569//500 
f 69//69 429//427 569//500 
f 426//424 423//421 570//500 
f 423//421 75//75 570//500 
f 75//75 72//72 570//500 
f 72//72 426//424 570//500 
f 423//421 420//418 571//500 
f 420//418 78//78 571//500 
f 78//78 75//75 571//500 
f 75//75 423//421 571//500 
f 420//418 417//415 572//500 
f 417//415 81//81 572//500 
f 81//81 78//78 572//500 
f 78//78 420//418 572//500 
f 417//415 414//412 573//500 
f 414//412 84//84 573//500 
f 84//84 81//81 573//500 
f 81//81 417//415 573//500 
f 414//412 411//409 574//500 
f 411//409 87//87 574//500 
f 87//87 84//84 574//500 
f 84//84 414//412 574//500 
f 411//409 408//406 575//500 
f 408//406 90//90 575//500 
f 90//90 87//87 575//500 
f 87//87 411//409 575//500 
f 408//406 405//403 576//500 
f 405//403 93//93 576//500 
f 93//93 90//90 576//500 
f 90//90 408//406 576//500 
f 405//403 402//400 577//500 
f 402//400 96//96 577//500 
f 96//96 93//93 577//500 
f 93//93 405//403 577//500 
f 402//400 399//397 578//500 
f 399//397 99//99 578//500 
f 99//99 96//96 578//500 
f 96//96 402//400 578//500 
f 399//397 395//393 579//500 
f 395//393 102//102 579//500 
f 102//102 99//99 579//500 
f 99//99 399//397 579//500 
f 395//393 394//392 580//500 
f 394//392 105//105 580//500 
f 105//105 102//102 580//500 
f 102//102 395//393 580//500 
f 394//392 498//496 581//500 
f 498//496 108//108 581//500 
f 108//108 105//105 581//500 
f 105//105 394//392 581//500 
f 498//496 495//493 582//500 
f 495//493 108//108 582//500 
f 108//108 498//496 582//500 
f 495//493 492//490 583//500 
f 492//490 108//108 583//500 
f 108//108 495//493 583//500 
f 368//366 371//369 584//501 
f 371//369 356//354 584//501 
f 356//354 359//357 584//501 
f 359//357 368//366 584//501 
f 371//369 374//372 585//501 
f 374//372 353//351 585//501 
f 353//351 356//354 585//501 
f 356//354 371//369 585//501 
f 374//372 377//375 586//501 
f 377//375 194//194 586//501 
f 194//194 197//197 586//501 
f 197//197 338//336 586//501 
f 338//336 341//339 586//501 
f 341//339 344//342 586//501 
f 344//342 347//345 586//501 
f 347//345 350//348 586//501 
f 350//348 353//351 586//501 
f 353//351 374//372 586//501 
f 377//375 380//378 587//501 
f 380//378 194//194 587//501 
f 194//194 377//375 587//501 
f 197//197 200//200 588//501 
f 200//200 335//333 588//501 
f 335//333 338//336 588//501 
f 338//336 197//197 588//501 
f 200//200 203//203 589//501 
f 203//203 332//330 589//501 
f 332//330 335//333 589//501 
f 335//333 200//200 589//501 
f 203//203 206//206 590//501 
f 206//206 329//327 590//501 
f 329//327 332//330 590//501 
f 332//330 203//203 590//501 
f 206//206 209//209 591//501 
f 209//209 326//324 591//501 
f 326//324 329//327 591//501 
f 329//327 206//206 591//501 
f 209//209 212//212 592//501 
f 212//212 320//318 592//501 
f 320//318 323//321 592//501 
f 323//321 326//324 592//501 
f 326//324 209//209 592//501 
f 212//212 215//215 593//501 
f 215//215 317//315 593//501 
f 317//315 320//318 593//501 
f 320//318 212//212 593//501 
f 215//215 218//218 594//501 
f 218//218 314//312 594//501 
f 314//312 317//315 594//501 
f 317//315 215//215 594//501 
f 218//218 221//221 595//501 
f 221//221 311//309 595//501 
f 311//309 314//312 595//501 
f 314//312 218//218 595//501 
f 221//221 224//224 596//501 
f 224//224 305//303 596//501 
f 305//303 308//306 596//501 
f 308//306 311//309 596//501 
f 311//309 221//221 596//501 
f 224//224 227//227 597//501 
f 227//227 302//300 597//501 
f 302//300 305//303 597//501 
f 305//303 224//224 597//501 
f 227//227 230//230 598//501 
f 230//230 296//294 598//501 
f 296//294 299//297 598//501 
f 299//297 302//300 598//501 
f 302//300 227//227 598//501 
f 230//230 233//233 599//501 
f 233//233 290//288 599//501 
f 290//288 293//291 599//501 
f 293//291 296//294 599//501 
f 296//294 230//230 599//501 
f 233//233 236//236 600//501 
f 236//236 284//282 600//501 
f 284//282 287//285 600//501 
f 287//285 290//288 600//501 
f 290//288 233//233 600//501 
f 236//236 239//239 601//501 
f 239//239 278//276 601//501 
f 278//276 281//279 601//501 
f 281//279 284//282 601//501 
f 284//282 236//236 601//501 
f 239//239 242//242 602//501 
f 242//242 269//267 602//501 
f 269//267 272//270 602//501 
f 272//270 275//273 602//501 
f 275//273 278//276 602//501 
f 278//276 239//239 602//501 
f 242//242 245//245 603//501 
f 245//245 263//261 603//501 
f 263//261 266//264 603//501 
f 266//264 269//267 603//501 
f 269//267 242//242 603//501 
f 245//245 248//248 604//501 
f 248//248 257//255 604//501 
f 257//255 260//258 604//501 
f 260//258 263//261 604//501 
f 263//261 245//245 604//501 
f 248//248 251//250 605//501 
f 251//250 254//253 605//501 
f 254//253 257//255 605//501 
f 257//255 248//248 605//501 
f 380//378 383//381 606//501 
f 383//381 194//194 606//501 
f 194//194 380//378 606//501 
f 383//381 386//384 607//501 
f 386//384 194//194 607//501 
f 194//194 383//381 607//501 
f 386//384 389//387 608//501 
f 389//387 191//191 608//501 
f 191//191 194//194 608//501 
f 194//194 386//384 608//501 
f 389//387 392//390 609//501 
f 392//390 143//143 609//501 
f 143//143 146//146 609//501 
f 146//146 179//179 609//501 
f 179//179 182//182 609//501 
f 182//182 185//185 609//501 
f 185//185 188//188 609//501 
f 188//188 191//191 609//501 
f 191//191 389//387 609//501 
f 494//492 497//495 610//501 
f 497//495 110//110 610//501 
f 110//110 113//113 610//501 
f 113//113 26//26 610//501 
f 146//146 149//149 611//501 
f 149//149 176//176 611//501 
f 176//176 179//179 611//501 
f 179//179 146//146 611//501 
f 149//149 152//152 612//501 
f 152//152 176//176 612//501 
f 176//176 149//149 612//501 
f 152//152 155//155 613//501 
f 155//155 173//173 613//501 
f 173//173 176//176 613//501 
f 176//176 152//152 613//501 
f 155//155 158//158 614//501 
f 158//158 173//173 614//501 
f 173//173 155//155 614//501 
f 158//158 161//161 615//501 
f 161//161 170//170 615//501 
f 170//170 173//173 615//501 
f 173//173 158//158 615//501 
f 161//161 164//164 616//501 
f 164//164 170//170 616//501 
f 170//170 161//161 616//501 
f 164//164 167//167 617//501 
f 167//167 170//170 617//501 
f 170//170 164//164 617//501 
f 497//495 500//498 618//501 
f 500//498 110//110 618//501 
f 110//110 497//495 618//501 
f 113//113 116//116 619//501 
f 116//116 23//23 619//501 
f 23//23 26//26 619//501 
f 26//26 113//113 619//501 
f 116//116 119//119 620//501 
f 119//119 20//20 620//501 
f 20//20 23//23 620//501 
f 23//23 116//116 620//501 
f 119//119 122//122 621//501 
f 122//122 14//14 621//501 
f 14//14 17//17 621//501 
f 17//17 20//20 621//501 
f 20//20 119//119 621//501 
f 122//122 125//125 622//501 
f 125//125 8//8 622//501 
f 8//8 11//11 622//501 
f 11//11 14//14 622//501 
f 14//14 122//122 622//501 
f 125//125 128//128 623//501 
f 128//128 5//5 623//501 
f 5//5 4//4 623//501 
f 4//4 8//8 623//501 
f 8//8 125//125 623//501 
f 128//128 131//131 624//501 
f 131//131 392//390 624//501 
f 392//390 5//5 624//501 
f 5//5 128//128 624//501 
f 131//131 134//134 625//501 
f 134//134 392//390 625//501 
f 392//390 131//131 625//501 
f 134//134 137//137 626//501 
f 137//137 392//390 626//501 
f 392//390 134//134 626//501 
f 137//137 140//140 627//501 
f 140//140 392//390 627//501 
f 392//390 137//137 627//501 
f 140//140 143//143 628//501 
f 143//143 392//390 628//501 
f 392//390 140//140 628//501 
f 500//498 398//396 629//501 
f 398//396 107//107 629//501 
f 107//107 110//110 629//501 
f 110//110 500//498 629//501 
f 398//396 397//395 630//501 
f 397//395 104//104 630//501 
f 104//104 107//107 630//501 
f 107//107 398//396 630//501 
f 397//395 401//399 631//501 
f 401//399 101//101 631//501 
f 101//101 104//104 631//501 
f 104//104 397//395 631//501 
f 401//399 404//402 632//501 
f 404//402 98//98 632//501 
f 98//98 101//101 632//501 
f 101//101 401//399 632//501 
f 404//402 407//405 633//501 
f 407//405 95//95 633//501 
f 95//95 98//98 633//501 
f 98//98 404//402 633//501 
f 407//405 410//408 634//501 
f 410//408 92//92 634//501 
f 92//92 95//95 634//501 
f 95//95 407//405 634//501 
f 410//408 413//411 635//501 
f 413//411 89//89 635//501 
f 89//89 92//92 635//501 
f 92//92 410//408 635//501 
f 413//411 416//414 636//501 
f 416//414 86//86 636//501 
f 86//86 89//89 636//501 
f 89//89 413//411 636//501 
f 416//414 419//417 637//501 
f 419//417 83//83 637//501 
f 83//83 86//86 637//501 
f 86//86 416//414 637//501 
f 419//417 422//420 638//501 
f 422//420 80//80 638//501 
f 80//80 83//83 638//501 
f 83//83 419//417 638//501 
f 422//420 425//423 639//501 
f 425//423 77//77 639//501 
f 77//77 80//80 639//501 
f 80//80 422//420 639//501 
f 425//423 428//426 640//501 
f 428//426 74//74 640//501 
f 74//74 77//77 640//501 
f 77//77 425//423 640//501 
f 428//426 431//429 641//501 
f 431//429 71//71 641//501 
f 71//71 74//74 641//501 
f 74//74 428//426 641//501 
f 431//429 434//432 642//501 
f 434//432 68//68 642//501 
f 68//68 71//71 642//501 
f 71//71 431//429 642//501 
f 434//432 437//435 643//501 
f 437//435 65//65 643//501 
f 65//65 68//68 643//501 
f 68//68 434//432 643//501 
f 437//435 440//438 644//501 
f 440//438 62//62 644//501 
f 62//62 65//65 644//501 
f 65//65 437//435 644//501 
f 440//438 443//441 645//501 
f 443//441 59//59 645//501 
f 59//59 62//62 645//501 
f 62//62 440//438 645//501 
f 443//441 446//444 646//501 
f 446//444 59//59 646//501 
f 59//59 443//441 646//501 
f 446//444 449//447 647//501 
f 449//447 56//56 647//501 
f 56//56 59//59 647//501 
f 59//59 446//444 647//501 
f 449//447 452//450 648//501 
f 452//450 53//53 648//501 
f 53//53 56//56 648//501 
f 56//56 449//447 648//501 
f 452//450 455//453 649//501 
f 455//453 50//50 649//501 
f 50//50 53//53 649//501 
f 53//53 452//450 649//501 
f 455//453 458//456 650//501 
f 458//456 47//47 650//501 
f 47//47 50//50 650//501 
f 50//50 455//453 650//501 
f 458//456 461//459 651//501 
f 461//459 44//44 651//501 
f 44//44 47//47 651//501 
f 47//47 458//456 651//501 
f 461//459 464//462 652//501 
f 464//462 41//41 652//501 
f 41//41 44//44 652//501 
f 44//44 461//459 652//501 
f 464//462 467//465 653//501 
f 467//465 38//38 653//501 
f 38//38 41//41 653//501 
f 41//41 464//462 653//501 
f 467//465 470//468 654//501 
f 470//468 35//35 654//501 
f 35//35 38//38 654//501 
f 38//38 467//465 654//501 
f 470//468 473//471 655//501 
f 473//471 32//32 655//501 
f 32//32 35//35 655//501 
f 35//35 470//468 655//501 
f 473//471 476//474 656//501 
f 476//474 26//26 656//501 
f 26//26 29//29 656//501 
f 29//29 32//32 656//501 
f 32//32 473//471 656//501 
f 476//474 479//477 657//501 
f 479//477 26//26 657//501 
f 26//26 476//474 657//501 
f 479//477 482//480 658//501 
f 482//480 26//26 658//501 
f 26//26 479//477 658//501 
f 482//480 485//483 659//501 
f 485//483 26//26 659//501 
f 26//26 482//480 659//501 
f 485//483 488//486 660//501 
f 488//486 26//26 660//501 
f 26//26 485//483 660//501 
f 488//486 491//489 661//501 
f 491//489 26//26 661//501 
f 26//26 488//486 661//501 
f 491//489 494//492 662//501 
f 494//492 610//501 26//26 662//501 
f 26//26 491//489 662//501 
# 2 polygons - 1320 triangles

