# 3ds Max Wavefront OBJ Exporter v0.97b - (c)2007 guruware
# File Created: 07.12.2021 20:32:29

#
# object Symbol_Leu
#

v  505.1830 0.0000 163.1711
v  505.1830 0.0000 110.1674
v  505.1830 5.0000 136.6693
v  505.1830 10.0000 110.1674
v  505.1830 10.0000 163.1711
v  504.9371 0.0000 106.8972
v  505.0601 5.0000 108.5323
v  504.9371 10.0000 106.8972
v  504.1992 0.0000 104.0117
v  504.5681 5.0000 105.4545
v  504.1992 10.0000 104.0117
v  502.9693 0.0000 101.5110
v  503.5842 5.0000 102.7613
v  502.9693 10.0000 101.5110
v  501.2475 0.0000 99.3949
v  502.1084 5.0000 100.4529
v  501.2475 10.0000 99.3949
v  499.0338 0.0000 97.6636
v  500.1407 5.0000 98.5293
v  499.0338 10.0000 97.6636
v  496.3281 0.0000 96.3171
v  497.6809 5.0000 96.9904
v  496.3281 10.0000 96.3171
v  493.1305 0.0000 95.3553
v  494.7293 5.0000 95.8362
v  493.1305 10.0000 95.3553
v  489.4409 0.0000 94.7782
v  491.2857 5.0000 95.0667
v  489.4409 10.0000 94.7782
v  485.2595 0.0000 94.5858
v  487.3502 5.0000 94.6820
v  485.2595 10.0000 94.5858
v  483.7617 0.0000 94.6193
v  484.5106 5.0000 94.6026
v  483.7617 10.0000 94.6193
v  482.2646 0.0000 94.7200
v  483.0132 5.0000 94.6696
v  482.2646 10.0000 94.7200
v  480.7683 0.0000 94.8877
v  481.5164 5.0000 94.8038
v  480.7683 10.0000 94.8877
v  479.2727 0.0000 95.1225
v  480.0205 5.0000 95.0051
v  479.2727 10.0000 95.1225
v  477.7779 0.0000 95.4243
v  478.5253 5.0000 95.2734
v  477.7779 10.0000 95.4243
v  476.2838 0.0000 95.7933
v  477.0309 5.0000 95.6088
v  476.2838 10.0000 95.7933
v  474.7905 0.0000 96.2293
v  475.5372 5.0000 96.0113
v  474.7905 10.0000 96.2293
v  473.2979 0.0000 96.7324
v  474.0442 5.0000 96.4809
v  473.2979 10.0000 96.7324
v  471.8061 0.0000 97.3026
v  472.5520 5.0000 97.0175
v  471.8061 10.0000 97.3026
v  470.3577 0.0000 97.9280
v  471.0819 5.0000 97.6153
v  470.3577 10.0000 97.9280
v  468.9955 0.0000 98.5966
v  469.6766 5.0000 98.2623
v  468.9955 10.0000 98.5966
v  467.7196 0.0000 99.3084
v  468.3576 5.0000 98.9525
v  467.7196 10.0000 99.3084
v  466.5299 0.0000 100.0635
v  467.1248 5.0000 99.6859
v  466.5299 10.0000 100.0635
v  465.4264 0.0000 100.8617
v  465.9781 5.0000 100.4626
v  465.4264 10.0000 100.8617
v  464.4091 0.0000 101.7033
v  464.9177 5.0000 101.2825
v  464.4091 10.0000 101.7033
v  463.4780 0.0000 102.5880
v  463.9435 5.0000 102.1456
v  463.4780 10.0000 102.5880
v  462.6331 0.0000 103.5160
v  463.0555 5.0000 103.0520
v  462.6331 10.0000 103.5160
v  461.8745 0.0000 104.4872
v  462.2538 5.0000 104.0016
v  461.8745 10.0000 104.4872
v  463.2593 0.0000 104.9488
v  462.5669 5.0000 104.7180
v  463.2593 10.0000 104.9488
v  464.6097 0.0000 105.4829
v  463.9345 5.0000 105.2159
v  464.6097 10.0000 105.4829
v  465.9257 0.0000 106.0894
v  465.2677 5.0000 105.7861
v  465.9257 10.0000 106.0894
v  467.2073 0.0000 106.7682
v  466.5665 5.0000 106.4288
v  467.2073 10.0000 106.7682
v  468.4545 0.0000 107.5196
v  467.8309 5.0000 107.1439
v  468.4545 10.0000 107.5196
v  469.6672 0.0000 108.3433
v  469.0609 5.0000 107.9315
v  469.6672 10.0000 108.3433
v  470.8456 0.0000 109.2395
v  470.2564 5.0000 108.7914
v  470.8456 10.0000 109.2395
v  471.9895 0.0000 110.2081
v  471.4176 5.0000 109.7238
v  471.9895 10.0000 110.2081
v  473.0991 0.0000 111.2491
v  472.5443 5.0000 110.7286
v  473.0991 10.0000 111.2491
v  471.7908 0.0000 111.8482
v  472.4449 5.0000 111.5487
v  471.7908 10.0000 111.8482
v  470.6364 0.0000 112.5698
v  471.2136 5.0000 112.2090
v  470.6364 10.0000 112.5698
v  469.6359 0.0000 113.4139
v  470.1362 5.0000 112.9919
v  469.6359 10.0000 113.4139
v  468.7894 0.0000 114.3806
v  469.2126 5.0000 113.8973
v  468.7894 10.0000 114.3806
v  468.0968 0.0000 115.4699
v  468.4431 5.0000 114.9253
v  468.0968 10.0000 115.4699
v  467.5580 0.0000 116.6817
v  467.8274 5.0000 116.0758
v  467.5580 10.0000 116.6817
v  467.1732 0.0000 118.0161
v  467.3657 5.0000 117.3489
v  467.1732 10.0000 118.0161
v  466.9424 0.0000 119.4730
v  467.0578 5.0000 118.7445
v  466.9424 10.0000 119.4730
v  466.8654 0.0000 121.0524
v  466.9039 5.0000 120.2627
v  466.8654 10.0000 121.0524
v  466.8654 0.0000 127.4295
v  466.8654 5.0000 124.2409
v  466.8654 10.0000 127.4295
v  465.3111 0.0000 127.5349
v  466.0883 5.0000 127.4822
v  465.3111 10.0000 127.5349
v  463.9396 0.0000 127.8513
v  464.6254 5.0000 127.6931
v  463.9396 10.0000 127.8513
v  462.7510 0.0000 128.3787
v  463.3453 5.0000 128.1150
v  462.7510 10.0000 128.3787
v  461.7453 0.0000 129.1170
v  462.2481 5.0000 128.7478
v  461.7453 10.0000 129.1170
v  460.9224 0.0000 130.0662
v  461.3338 5.0000 129.5916
v  460.9224 10.0000 130.0662
v  460.2824 0.0000 131.2263
v  460.6024 5.0000 130.6463
v  460.2824 10.0000 131.2263
v  459.8252 0.0000 132.5974
v  460.0538 5.0000 131.9119
v  459.8252 10.0000 132.5974
v  459.5509 0.0000 134.1795
v  459.6881 5.0000 133.3885
v  459.5509 10.0000 134.1795
v  459.4595 0.0000 135.9724
v  459.5052 5.0000 135.0760
v  459.4595 10.0000 135.9724
v  459.5647 0.0000 137.7274
v  459.5121 5.0000 136.8499
v  459.5647 10.0000 137.7274
v  459.8804 0.0000 139.2759
v  459.7225 5.0000 138.5016
v  459.8804 10.0000 139.2759
v  460.4065 0.0000 140.6179
v  460.1434 5.0000 139.9469
v  460.4065 10.0000 140.6179
v  461.1430 0.0000 141.7535
v  460.7747 5.0000 141.1857
v  461.1430 10.0000 141.7535
v  462.0900 0.0000 142.6826
v  461.6165 5.0000 142.2180
v  462.0900 10.0000 142.6826
v  463.2474 0.0000 143.4052
v  462.6687 5.0000 143.0439
v  463.2474 10.0000 143.4052
v  464.6153 0.0000 143.9214
v  463.9314 5.0000 143.6633
v  464.6153 10.0000 143.9214
v  466.1936 0.0000 144.2311
v  465.4044 5.0000 144.0762
v  466.1936 10.0000 144.2311
v  467.9824 0.0000 144.3343
v  467.0880 5.0000 144.2827
v  467.9824 10.0000 144.3343
v  469.8091 0.0000 144.2173
v  468.8957 5.0000 144.2758
v  469.8091 10.0000 144.2173
v  471.4210 0.0000 143.8663
v  470.6150 5.0000 144.0418
v  471.4210 10.0000 143.8663
v  472.8179 0.0000 143.2814
v  472.1194 5.0000 143.5739
v  472.8179 10.0000 143.2814
v  473.9999 0.0000 142.4624
v  473.4089 5.0000 142.8719
v  473.9999 10.0000 142.4624
v  474.9670 0.0000 141.4095
v  474.4835 5.0000 141.9360
v  474.9670 10.0000 141.4095
v  475.7192 0.0000 140.1226
v  475.3431 5.0000 140.7661
v  475.7192 10.0000 140.1226
v  476.2565 0.0000 138.6017
v  475.9879 5.0000 139.3622
v  476.2565 10.0000 138.6017
v  476.5789 0.0000 136.8469
v  476.4177 5.0000 137.7243
v  476.5789 10.0000 136.8469
v  476.6863 0.0000 134.8580
v  476.6326 5.0000 135.8524
v  476.6863 10.0000 134.8580
v  476.6863 0.0000 121.2436
v  476.6863 5.0000 128.0508
v  476.6863 10.0000 121.2436
v  476.7159 0.0000 120.4343
v  476.7011 5.0000 120.8390
v  476.7159 10.0000 120.4343
v  476.8049 0.0000 119.6332
v  476.7604 5.0000 120.0338
v  476.8049 10.0000 119.6332
v  476.9531 0.0000 118.8404
v  476.8790 5.0000 119.2368
v  476.9531 10.0000 118.8404
v  477.1606 0.0000 118.0557
v  477.0569 5.0000 118.4480
v  477.1606 10.0000 118.0557
v  477.4274 0.0000 117.2792
v  477.2940 5.0000 117.6674
v  477.4274 10.0000 117.2792
v  477.7535 0.0000 116.5109
v  477.5905 5.0000 116.8951
v  477.7535 10.0000 116.5109
v  478.1389 0.0000 115.7508
v  477.9462 5.0000 116.1309
v  478.1389 10.0000 115.7508
v  478.5835 0.0000 114.9990
v  478.3612 5.0000 115.3749
v  478.5835 10.0000 114.9990
v  479.0875 0.0000 114.2553
v  478.8355 5.0000 114.6271
v  479.0875 10.0000 114.2553
v  479.6196 0.0000 113.5568
v  479.3535 5.0000 113.9060
v  479.6196 10.0000 113.5568
v  480.1487 0.0000 112.9404
v  479.8842 5.0000 113.2486
v  480.1487 10.0000 112.9404
v  480.6749 0.0000 112.4063
v  480.4118 5.0000 112.6734
v  480.6749 10.0000 112.4063
v  481.1982 0.0000 111.9543
v  480.9366 5.0000 112.1803
v  481.1982 10.0000 111.9543
v  481.7185 0.0000 111.5845
v  481.4584 5.0000 111.7694
v  481.7185 10.0000 111.5845
v  482.2359 0.0000 111.2969
v  481.9772 5.0000 111.4407
v  482.2359 10.0000 111.2969
v  482.7503 0.0000 111.0915
v  482.4931 5.0000 111.1942
v  482.7503 10.0000 111.0915
v  483.2617 0.0000 110.9682
v  483.0060 5.0000 111.0298
v  483.2617 10.0000 110.9682
v  483.7703 0.0000 110.9271
v  483.5160 5.0000 110.9477
v  483.7703 10.0000 110.9271
v  483.0515 0.0000 110.0754
v  483.4109 5.0000 110.5013
v  483.0515 10.0000 110.0754
v  482.2727 0.0000 109.2488
v  482.6621 5.0000 109.6621
v  482.2727 10.0000 109.2488
v  481.4338 0.0000 108.4473
v  481.8532 5.0000 108.8481
v  481.4338 10.0000 108.4473
v  480.5349 0.0000 107.6709
v  480.9843 5.0000 108.0591
v  480.5349 10.0000 107.6709
v  479.5759 0.0000 106.9196
v  480.0554 5.0000 107.2952
v  479.5759 10.0000 106.9196
v  478.5568 0.0000 106.1933
v  479.0663 5.0000 106.5564
v  478.5568 10.0000 106.1933
v  477.4777 0.0000 105.4922
v  478.0172 5.0000 105.8428
v  477.4777 10.0000 105.4922
v  476.3385 0.0000 104.8161
v  476.9081 5.0000 105.1542
v  476.3385 10.0000 104.8161
v  475.1392 0.0000 104.1652
v  475.7389 5.0000 104.4907
v  475.1392 10.0000 104.1652
v  476.0001 0.0000 103.4387
v  475.5696 5.0000 103.8020
v  476.0001 10.0000 103.4387
v  476.9257 0.0000 102.7977
v  476.4629 5.0000 103.1182
v  476.9257 10.0000 102.7977
v  477.9162 0.0000 102.2422
v  477.4210 5.0000 102.5199
v  477.9162 10.0000 102.2422
v  478.9714 0.0000 101.7721
v  478.4438 5.0000 102.0071
v  478.9714 10.0000 101.7721
v  480.0914 0.0000 101.3875
v  479.5314 5.0000 101.5798
v  480.0914 10.0000 101.3875
v  481.2762 0.0000 101.0883
v  480.6838 5.0000 101.2379
v  481.2762 10.0000 101.0883
v  482.5258 0.0000 100.8747
v  481.9009 5.0000 100.9815
v  482.5258 10.0000 100.8747
v  483.8401 0.0000 100.7465
v  483.1829 5.0000 100.8106
v  483.8401 10.0000 100.7465
v  485.2192 0.0000 100.7037
v  484.5297 5.0000 100.7251
v  485.2192 10.0000 100.7037
v  487.3480 0.0000 100.8225
v  486.2836 5.0000 100.7631
v  487.3480 10.0000 100.8225
v  489.2263 0.0000 101.1788
v  488.2871 5.0000 101.0006
v  489.2263 10.0000 101.1788
v  490.8542 0.0000 101.7726
v  490.0403 5.0000 101.4757
v  490.8542 10.0000 101.7726
v  492.2316 0.0000 102.6039
v  491.5429 5.0000 102.1882
v  492.2316 10.0000 102.6039
v  493.3586 0.0000 103.6728
v  492.7951 5.0000 103.1383
v  493.3586 10.0000 103.6728
v  494.2351 0.0000 104.9791
v  493.7969 5.0000 104.3259
v  494.2351 10.0000 104.9791
v  494.8612 0.0000 106.5230
v  494.5482 5.0000 105.7511
v  494.8612 10.0000 106.5230
v  495.2369 0.0000 108.3044
v  495.0491 5.0000 107.4137
v  495.2369 10.0000 108.3044
v  495.3621 0.0000 110.3234
v  495.2995 5.0000 109.3139
v  495.3621 10.0000 110.3234
v  495.3621 0.0000 163.1711
v  495.3621 5.0000 136.7472
v  495.3621 10.0000 163.1711
v  500.2726 5.0000 163.1711
v  468.5648 0.0000 131.9865
v  469.1854 0.0000 132.1337
v  468.8751 5.0000 132.0601
v  469.1854 10.0000 132.1337
v  468.5648 10.0000 131.9865
v  469.7231 0.0000 132.3790
v  469.4543 5.0000 132.2564
v  469.7231 10.0000 132.3790
v  470.1782 0.0000 132.7225
v  469.9507 5.0000 132.5508
v  470.1782 10.0000 132.7225
v  470.5505 0.0000 133.1642
v  470.3643 5.0000 132.9433
v  470.5505 10.0000 133.1642
v  470.8401 0.0000 133.7039
v  470.6953 5.0000 133.4341
v  470.8401 10.0000 133.7039
v  471.0469 0.0000 134.3418
v  470.9435 5.0000 134.0229
v  471.0469 10.0000 134.3418
v  471.1710 0.0000 135.0779
v  471.1089 5.0000 134.7099
v  471.1710 10.0000 135.0779
v  471.2124 0.0000 135.9121
v  471.1917 5.0000 135.4950
v  471.2124 10.0000 135.9121
v  471.1710 0.0000 136.7336
v  471.1917 5.0000 136.3228
v  471.1710 10.0000 136.7336
v  471.0469 0.0000 137.4585
v  471.1089 5.0000 137.0960
v  471.0469 10.0000 137.4585
v  470.8401 0.0000 138.0867
v  470.9435 5.0000 137.7726
v  470.8401 10.0000 138.0867
v  470.5505 0.0000 138.6182
v  470.6953 5.0000 138.3524
v  470.5505 10.0000 138.6182
v  470.1782 0.0000 139.0531
v  470.3643 5.0000 138.8357
v  470.1782 10.0000 139.0531
v  469.7231 0.0000 139.3914
v  469.9507 5.0000 139.2223
v  469.7231 10.0000 139.3914
v  469.1854 0.0000 139.6330
v  469.4543 5.0000 139.5122
v  469.1854 10.0000 139.6330
v  468.5648 0.0000 139.7780
v  468.8751 5.0000 139.7055
v  468.5648 10.0000 139.7780
v  467.8616 0.0000 139.8263
v  468.2132 5.0000 139.8022
v  467.8616 10.0000 139.8263
v  467.1457 0.0000 139.7780
v  467.5036 5.0000 139.8022
v  467.1457 10.0000 139.7780
v  466.5140 0.0000 139.6330
v  466.8298 5.0000 139.7055
v  466.5140 10.0000 139.6330
v  465.9665 0.0000 139.3914
v  466.2402 5.0000 139.5122
v  465.9665 10.0000 139.3914
v  465.5033 0.0000 139.0531
v  465.7349 5.0000 139.2223
v  465.5033 10.0000 139.0531
v  465.1242 0.0000 138.6182
v  465.3138 5.0000 138.8357
v  465.1242 10.0000 138.6182
v  464.8295 0.0000 138.0867
v  464.9769 5.0000 138.3524
v  464.8295 10.0000 138.0867
v  464.6189 0.0000 137.4585
v  464.7242 5.0000 137.7726
v  464.6189 10.0000 137.4585
v  464.4926 0.0000 136.7336
v  464.5557 5.0000 137.0960
v  464.4926 10.0000 136.7336
v  464.4504 0.0000 135.9121
v  464.4715 5.0000 136.3228
v  464.4504 10.0000 135.9121
v  464.4926 0.0000 135.0779
v  464.4715 5.0000 135.4950
v  464.4926 10.0000 135.0779
v  464.6189 0.0000 134.3418
v  464.5557 5.0000 134.7099
v  464.6189 10.0000 134.3418
v  464.8295 0.0000 133.7039
v  464.7242 5.0000 134.0229
v  464.8295 10.0000 133.7039
v  465.1242 0.0000 133.1642
v  464.9769 5.0000 133.4341
v  465.1242 10.0000 133.1642
v  465.5033 0.0000 132.7225
v  465.3138 5.0000 132.9433
v  465.5033 10.0000 132.7225
v  465.9665 0.0000 132.3790
v  465.7349 5.0000 132.5508
v  465.9665 10.0000 132.3790
v  466.5140 0.0000 132.1337
v  466.2402 5.0000 132.2564
v  466.5140 10.0000 132.1337
v  467.1457 0.0000 131.9865
v  466.8298 5.0000 132.0601
v  467.1457 10.0000 131.9865
v  467.8616 0.0000 131.9374
v  467.5036 5.0000 131.9619
v  467.8616 10.0000 131.9374
v  468.2132 5.0000 131.9619
v  500.2726 0.0000 136.7083
v  462.8112 10.0000 103.8850
v  500.1798 0.0000 108.9231
v  499.8086 0.0000 106.4341
v  499.0662 0.0000 104.2562
v  498.1689 0.0000 101.4443
v  495.2380 0.0000 100.0643
v  493.1361 0.0000 99.0122
v  490.6630 0.0000 98.2712
v  488.6718 0.0000 98.9265
v  486.8169 0.0000 97.7225
v  484.5201 0.0000 97.6638
v  483.0980 0.0000 97.7401
v  481.2215 0.0000 97.3386
v  479.6046 0.0000 98.2556
v  478.2811 0.0000 98.5943
v  476.9905 0.0000 99.0092
v  475.7326 0.0000 99.5004
v  474.5074 0.0000 100.0679
v  468.8108 0.0000 101.3582
v  483.3612 0.0000 110.6569
v  463.9390 0.0000 103.6807
v  462.8112 0.0000 103.8850
v  483.0212 0.0000 110.7117
v  482.5776 0.0000 110.4282
v  482.0757 0.0000 110.7101
v  481.6558 0.0000 110.3088
v  480.9604 0.0000 110.1197
v  479.0439 0.0000 108.0627
v  476.2391 0.0000 110.5541
v  477.2687 0.0000 113.0204
v  473.5782 0.0000 107.1072
v  471.8840 0.0000 107.2493
v  471.0870 0.0000 106.6760
v  470.2670 0.0000 106.1510
v  469.4241 0.0000 105.6743
v  476.9233 0.0000 113.5011
v  476.6071 0.0000 113.9996
v  476.3305 0.0000 114.5036
v  476.0933 0.0000 115.0131
v  475.8957 0.0000 115.5280
v  475.7376 0.0000 116.0484
v  475.6190 0.0000 116.5742
v  475.5400 0.0000 117.1056
v  475.5005 0.0000 117.6423
v  473.7710 0.0000 127.6681
v  471.7723 0.0000 126.8896
v  471.6620 0.0000 126.4316
v  471.4966 0.0000 126.0391
v  471.2759 0.0000 125.7119
v  469.0273 0.0000 118.9758
v  468.5913 0.0000 130.6474
v  468.2052 0.0000 130.5166
v  467.7639 0.0000 130.4511
v  467.2909 0.0000 130.4511
v  466.4590 0.0000 129.7711
v  465.4328 0.0000 129.9747
v  463.9811 0.0000 130.0897
v  463.3238 0.0000 131.2675
v  462.7896 0.0000 132.0402
v  462.3890 0.0000 132.9674
v  462.1219 0.0000 134.0491
v  461.9883 0.0000 135.2855
v  461.9918 0.0000 136.5864
v  462.1391 0.0000 137.7988
v  462.4338 0.0000 138.8597
v  462.8758 0.0000 139.7691
v  463.4651 0.0000 140.5269
v  464.2018 0.0000 141.1331
v  465.0858 0.0000 141.5878
v  466.1171 0.0000 141.8909
v  467.2958 0.0000 142.0424
v  468.5545 0.0000 142.0390
v  469.7451 0.0000 141.8737
v  470.7868 0.0000 141.5430
v  471.6798 0.0000 141.0471
v  472.4239 0.0000 140.3858
v  473.0192 0.0000 139.5592
v  473.4657 0.0000 138.5674
v  473.7633 0.0000 137.4102
v  473.9121 0.0000 136.0876
v  500.2726 10.0000 136.7083
v  463.9390 10.0000 103.6807
v  465.0927 10.0000 103.5343
v  469.5107 10.0000 101.4522
v  470.2670 10.0000 106.1510
v  474.5074 10.0000 100.0679
v  475.7326 10.0000 99.5004
v  476.9905 10.0000 99.0092
v  478.2811 10.0000 98.5943
v  479.6046 10.0000 98.2556
v  481.2215 10.0000 97.3386
v  483.0980 10.0000 97.7401
v  484.5201 10.0000 97.6638
v  486.8169 10.0000 97.7225
v  488.6718 10.0000 98.9265
v  490.6630 10.0000 98.2712
v  493.1361 10.0000 99.0122
v  495.2380 10.0000 100.0643
v  498.1689 10.0000 101.4443
v  499.0662 10.0000 104.2562
v  499.8086 10.0000 106.4341
v  500.1798 10.0000 108.9231
v  471.0870 10.0000 106.6760
v  471.8840 10.0000 107.2493
v  473.5782 10.0000 107.1072
v  477.5995 10.0000 108.6551
v  469.0909 10.0000 119.0362
v  480.9604 10.0000 110.1197
v  481.6558 10.0000 110.3088
v  482.0757 10.0000 110.7101
v  482.5776 10.0000 110.4282
v  483.0212 10.0000 110.7117
v  483.3612 10.0000 110.6569
v  473.9121 10.0000 136.0876
v  473.7710 10.0000 127.6681
v  471.4966 10.0000 126.0391
v  471.6620 10.0000 126.4316
v  471.7723 10.0000 126.8896
v  475.5005 10.0000 117.6423
v  475.5400 10.0000 117.1056
v  475.6190 10.0000 116.5742
v  475.7376 10.0000 116.0484
v  475.8957 10.0000 115.5280
v  476.0933 10.0000 115.0131
v  476.3305 10.0000 114.5036
v  476.6071 10.0000 113.9996
v  476.9233 10.0000 113.5011
v  477.2687 10.0000 113.0204
v  477.6225 10.0000 112.5821
v  473.7633 10.0000 137.4102
v  473.4657 10.0000 138.5674
v  473.0192 10.0000 139.5592
v  472.4239 10.0000 140.3858
v  471.6798 10.0000 141.0471
v  470.7868 10.0000 141.5430
v  469.7451 10.0000 141.8737
v  468.5545 10.0000 142.0390
v  467.2958 10.0000 142.0424
v  466.1171 10.0000 141.8909
v  465.0858 10.0000 141.5878
v  464.2018 10.0000 141.1331
v  463.4651 10.0000 140.5269
v  462.8758 10.0000 139.7691
v  462.4338 10.0000 138.8597
v  462.1391 10.0000 137.7988
v  461.9918 10.0000 136.5864
v  461.9883 10.0000 135.2855
v  462.1219 10.0000 134.0491
v  462.3890 10.0000 132.9674
v  462.7896 10.0000 132.0402
v  463.3238 10.0000 131.2675
v  463.9811 10.0000 130.0897
v  465.4328 10.0000 129.9747
v  466.4590 10.0000 129.7711
v  467.2909 10.0000 130.4511
v  467.7639 10.0000 130.4511
v  468.2052 10.0000 130.5166
v  468.5913 10.0000 130.6474
v  468.9222 10.0000 130.8437
# 634 vertices

vn 0.5774 -0.5774 0.5774
vn 0.7149 -0.6988 -0.0268
vn 1.0000 0.0000 -0.0000
vn 0.7149 0.6988 -0.0268
vn 0.5774 0.5774 0.5774
vn 0.7162 -0.6879 -0.1176
vn 0.9972 0.0000 -0.0750
vn 0.7162 0.6879 -0.1176
vn 0.6838 -0.6846 -0.2525
vn 0.9688 0.0000 -0.2478
vn 0.6838 0.6846 -0.2525
vn 0.6152 -0.6826 -0.3944
vn 0.8974 0.0000 -0.4413
vn 0.6152 0.6826 -0.3944
vn 0.5116 -0.6828 -0.5216
vn 0.7757 0.0000 -0.6311
vn 0.5116 0.6828 -0.5216
vn 0.3886 -0.6851 -0.6161
vn 0.6160 0.0000 -0.7877
vn 0.3886 0.6851 -0.6161
vn 0.2670 -0.6885 -0.6743
vn 0.4455 0.0000 -0.8953
vn 0.2670 0.6885 -0.6743
vn 0.1601 -0.6920 -0.7039
vn 0.2881 0.0000 -0.9576
vn 0.1601 0.6920 -0.7039
vn 0.0722 -0.6950 -0.7153
vn 0.1545 0.0000 -0.9880
vn 0.0722 0.6950 -0.7153
vn 0.0084 -0.6995 -0.7146
vn 0.0460 0.0000 -0.9989
vn 0.0084 0.6995 -0.7146
vn -0.0319 -0.7021 -0.7114
vn -0.0224 0.0000 -0.9997
vn -0.0319 0.7021 -0.7114
vn -0.0635 -0.7021 -0.7092
vn -0.0671 0.0000 -0.9977
vn -0.0635 0.7021 -0.7092
vn -0.0949 -0.7022 -0.7057
vn -0.1114 0.0000 -0.9938
vn -0.0949 0.7022 -0.7057
vn -0.1257 -0.7022 -0.7008
vn -0.1551 0.0000 -0.9879
vn -0.1257 0.7022 -0.7008
vn -0.1558 -0.7023 -0.6946
vn -0.1979 0.0000 -0.9802
vn -0.1558 0.7023 -0.6946
vn -0.1851 -0.7024 -0.6873
vn -0.2397 0.0000 -0.9708
vn -0.1851 0.7024 -0.6873
vn -0.2134 -0.7025 -0.6789
vn -0.2803 0.0000 -0.9599
vn -0.2134 0.7025 -0.6789
vn -0.2407 -0.7026 -0.6696
vn -0.3194 0.0000 -0.9476
vn -0.2407 0.7026 -0.6696
vn -0.2682 -0.7024 -0.6594
vn -0.3570 0.0000 -0.9341
vn -0.2682 0.7024 -0.6594
vn -0.2983 -0.7017 -0.6471
vn -0.3964 0.0000 -0.9181
vn -0.2983 0.7017 -0.6471
vn -0.3308 -0.7012 -0.6315
vn -0.4406 0.0000 -0.8977
vn -0.3308 0.7012 -0.6315
vn -0.3650 -0.7008 -0.6129
vn -0.4872 0.0000 -0.8733
vn -0.3650 0.7008 -0.6129
vn -0.4006 -0.7003 -0.5908
vn -0.5358 0.0000 -0.8443
vn -0.4006 0.7003 -0.5908
vn -0.4372 -0.6999 -0.5648
vn -0.5861 0.0000 -0.8102
vn -0.4372 0.6999 -0.5648
vn -0.4742 -0.6994 -0.5347
vn -0.6374 0.0000 -0.7705
vn -0.4742 0.6994 -0.5347
vn -0.5110 -0.6991 -0.5002
vn -0.6888 0.0000 -0.7249
vn -0.5110 0.6991 -0.5002
vn -0.5468 -0.6987 -0.4613
vn -0.7394 0.0000 -0.6732
vn -0.5468 0.6987 -0.4613
vn -0.7922 -0.5615 0.2390
vn -0.7881 0.0000 -0.6156
vn -0.7922 0.5615 0.2390
vn -0.2398 -0.7133 0.6585
vn -0.3162 0.0000 0.9487
vn -0.2398 0.7133 0.6585
vn -0.2756 -0.7134 0.6443
vn -0.3678 0.0000 0.9299
vn -0.2756 0.7134 0.6443
vn -0.3108 -0.7134 0.6281
vn -0.4185 0.0000 0.9082
vn -0.3108 0.7134 0.6281
vn -0.3450 -0.7134 0.6100
vn -0.4681 0.0000 0.8837
vn -0.3450 0.7134 0.6100
vn -0.3779 -0.7133 0.5903
vn -0.5160 0.0000 0.8566
vn -0.3779 0.7133 0.5903
vn -0.4092 -0.7132 0.5691
vn -0.5619 0.0000 0.8272
vn -0.4092 0.7132 0.5691
vn -0.4389 -0.7130 0.5468
vn -0.6053 0.0000 0.7960
vn -0.4389 0.7130 0.5468
vn -0.4667 -0.7129 0.5235
vn -0.6462 0.0000 0.7632
vn -0.4667 0.7129 0.5235
vn -0.3206 -0.9458 -0.0524
vn -0.6842 0.0000 0.7293
vn -0.3206 0.9458 -0.0524
vn -0.3419 -0.6929 -0.6349
vn -0.4163 0.0000 -0.9092
vn -0.3419 0.6929 -0.6349
vn -0.4255 -0.6915 -0.5838
vn -0.5301 0.0000 -0.8480
vn -0.4255 0.6915 -0.5838
vn -0.5067 -0.6905 -0.5161
vn -0.6449 0.0000 -0.7643
vn -0.5067 0.6905 -0.5161
vn -0.5791 -0.6903 -0.4337
vn -0.7523 0.0000 -0.6588
vn -0.5791 0.6903 -0.4337
vn -0.6371 -0.6908 -0.3418
vn -0.8438 0.0000 -0.5366
vn -0.6371 0.6908 -0.3418
vn -0.6783 -0.6920 -0.2472
vn -0.9138 0.0000 -0.4062
vn -0.6783 0.6920 -0.2472
vn -0.7033 -0.6935 -0.1565
vn -0.9608 0.0000 -0.2771
vn -0.7033 0.6935 -0.1565
vn -0.7151 -0.6951 -0.0739
vn -0.9877 0.0000 -0.1565
vn -0.7151 0.6951 -0.0739
vn -0.7123 -0.7017 -0.0173
vn -0.9988 0.0000 -0.0487
vn -0.7123 0.7017 -0.0173
vn -0.3237 -0.8965 -0.3025
vn -1.0000 0.0000 -0.0000
vn -0.3237 0.8965 -0.3025
vn -0.1062 -0.6897 -0.7163
vn -0.0677 0.0000 -0.9977
vn -0.1062 0.6897 -0.7163
vn -0.2303 -0.6863 -0.6899
vn -0.2248 0.0000 -0.9744
vn -0.2303 0.6863 -0.6899
vn -0.3660 -0.6837 -0.6314
vn -0.4055 0.0000 -0.9141
vn -0.3660 0.6837 -0.6314
vn -0.4952 -0.6829 -0.5371
vn -0.5917 0.0000 -0.8061
vn -0.4952 0.6829 -0.5371
vn -0.5981 -0.6842 -0.4173
vn -0.7556 0.0000 -0.6550
vn -0.5981 0.6842 -0.4173
vn -0.6654 -0.6872 -0.2916
vn -0.8756 0.0000 -0.4830
vn -0.6654 0.6872 -0.2916
vn -0.7013 -0.6906 -0.1767
vn -0.9487 0.0000 -0.3163
vn -0.7013 0.6906 -0.1767
vn -0.7157 -0.6938 -0.0800
vn -0.9853 0.0000 -0.1708
vn -0.7157 0.6938 -0.0800
vn -0.7191 -0.6948 0.0032
vn -0.9987 0.0000 -0.0509
vn -0.7191 0.6948 0.0032
vn -0.7162 -0.6916 0.0940
vn -0.9982 0.0000 0.0598
vn -0.7162 0.6916 0.0940
vn -0.6958 -0.6882 0.2056
vn -0.9798 0.0000 0.1997
vn -0.6958 0.6882 0.2056
vn -0.6479 -0.6851 0.3328
vn -0.9310 0.0000 0.3650
vn -0.6479 0.6851 0.3328
vn -0.5654 -0.6833 0.4621
vn -0.8390 0.0000 0.5442
vn -0.5654 0.6833 0.4621
vn -0.4516 -0.6834 0.5735
vn -0.7003 0.0000 0.7138
vn -0.4516 0.6834 0.5735
vn -0.3228 -0.6856 0.6525
vn -0.5296 0.0000 0.8482
vn -0.3228 0.6856 0.6525
vn -0.1985 -0.6888 0.6973
vn -0.3530 0.0000 0.9356
vn -0.1985 0.6888 0.6973
vn -0.0905 -0.6921 0.7161
vn -0.1925 0.0000 0.9813
vn -0.0905 0.6921 0.7161
vn 0.0023 -0.6937 0.7203
vn -0.0576 0.0000 0.9983
vn 0.0023 0.6937 0.7203
vn 0.1003 -0.6906 0.7163
vn 0.0639 0.0000 0.9980
vn 0.1003 0.6906 0.7163
vn 0.2185 -0.6872 0.6928
vn 0.2128 0.0000 0.9771
vn 0.2185 0.6872 0.6928
vn 0.3504 -0.6843 0.6395
vn 0.3862 0.0000 0.9224
vn 0.3504 0.6843 0.6395
vn 0.4799 -0.6830 0.5506
vn 0.5695 0.0000 0.8220
vn 0.4799 0.6830 0.5506
vn 0.5870 -0.6838 0.4334
vn 0.7365 0.0000 0.6765
vn 0.5870 0.6838 0.4334
vn 0.6597 -0.6864 0.3060
vn 0.8633 0.0000 0.5046
vn 0.6597 0.6864 0.3060
vn 0.6996 -0.6898 0.1866
vn 0.9429 0.0000 0.3331
vn 0.6996 0.6898 0.1866
vn 0.7159 -0.6930 0.0847
vn 0.9835 0.0000 0.1807
vn 0.7159 0.6930 0.0847
vn 0.7128 -0.7011 0.0192
vn 0.9985 0.0000 0.0540
vn 0.7128 0.7011 0.0192
vn 0.7028 -0.7112 0.0129
vn 0.7028 0.7112 0.0129
vn 0.6967 -0.7155 0.0514
vn 0.9993 0.0000 0.0366
vn 0.6967 0.7155 0.0514
vn 0.6910 -0.7156 0.1028
vn 0.9939 0.0000 0.1103
vn 0.6910 0.7156 0.1028
vn 0.6815 -0.7155 0.1536
vn 0.9830 0.0000 0.1838
vn 0.6815 0.7155 0.1536
vn 0.6686 -0.7153 0.2030
vn 0.9668 0.0000 0.2557
vn 0.6686 0.7153 0.2030
vn 0.6527 -0.7151 0.2503
vn 0.9457 0.0000 0.3250
vn 0.6527 0.7151 0.2503
vn 0.6341 -0.7148 0.2949
vn 0.9205 0.0000 0.3907
vn 0.6341 0.7148 0.2949
vn 0.6135 -0.7145 0.3364
vn 0.8919 0.0000 0.4522
vn 0.6135 0.7145 0.3364
vn 0.5913 -0.7141 0.3747
vn 0.8607 0.0000 0.5090
vn 0.5913 0.7141 0.3747
vn 0.5690 -0.7134 0.4090
vn 0.8278 0.0000 0.5610
vn 0.5690 0.7134 0.4090
vn 0.5445 -0.7137 0.4405
vn 0.7955 0.0000 0.6060
vn 0.5445 0.7137 0.4405
vn 0.5146 -0.7149 0.4734
vn 0.7587 0.0000 0.6514
vn 0.5146 0.7149 0.4734
vn 0.4770 -0.7163 0.5093
vn 0.7124 0.0000 0.7018
vn 0.4770 0.7163 0.5093
vn 0.4296 -0.7179 0.5477
vn 0.6537 0.0000 0.7568
vn 0.4296 0.7179 0.5477
vn 0.3703 -0.7197 0.5872
vn 0.5793 0.0000 0.8151
vn 0.3703 0.7197 0.5872
vn 0.2971 -0.7217 0.6252
vn 0.4859 0.0000 0.8740
vn 0.2971 0.7217 0.6252
vn 0.2094 -0.7236 0.6577
vn 0.3709 0.0000 0.9287
vn 0.2094 0.7236 0.6577
vn 0.1087 -0.7251 0.6800
vn 0.2343 0.0000 0.9722
vn 0.1087 0.7251 0.6800
vn 0.7700 -0.5516 0.3207
vn 0.0805 0.0000 0.9968
vn 0.7700 0.5516 0.3207
vn 0.5322 -0.7010 -0.4747
vn 0.7642 0.0000 -0.6449
vn 0.5322 0.7010 -0.4747
vn 0.5059 -0.7012 -0.5023
vn 0.7278 0.0000 -0.6857
vn 0.5059 0.7012 -0.5023
vn 0.4792 -0.7015 -0.5275
vn 0.6908 0.0000 -0.7230
vn 0.4792 0.7015 -0.5275
vn 0.4526 -0.7018 -0.5501
vn 0.6536 0.0000 -0.7568
vn 0.4526 0.7018 -0.5501
vn 0.4264 -0.7020 -0.5704
vn 0.6167 0.0000 -0.7872
vn 0.4264 0.7020 -0.5704
vn 0.4006 -0.7023 -0.5885
vn 0.5803 0.0000 -0.8144
vn 0.4006 0.7023 -0.5885
vn 0.3755 -0.7026 -0.6045
vn 0.5448 0.0000 -0.8385
vn 0.3755 0.7026 -0.6045
vn 0.3513 -0.7028 -0.6186
vn 0.5103 0.0000 -0.8600
vn 0.3513 0.7028 -0.6186
vn 0.3273 -0.9443 -0.0334
vn 0.4770 0.0000 -0.8789
vn 0.3273 0.9443 -0.0334
vn 0.4231 -0.7180 0.5527
vn 0.6449 0.0000 0.7642
vn 0.4231 0.7180 0.5527
vn 0.3689 -0.7179 0.5904
vn 0.5693 0.0000 0.8221
vn 0.3689 0.7179 0.5904
vn 0.3124 -0.7176 0.6224
vn 0.4892 0.0000 0.8722
vn 0.3124 0.7176 0.6224
vn 0.2552 -0.7172 0.6485
vn 0.4069 0.0000 0.9135
vn 0.2552 0.7172 0.6485
vn 0.1988 -0.7166 0.6685
vn 0.3248 0.0000 0.9458
vn 0.1988 0.7166 0.6685
vn 0.1444 -0.7160 0.6830
vn 0.2448 0.0000 0.9696
vn 0.1444 0.7160 0.6830
vn 0.0929 -0.7153 0.6926
vn 0.1686 0.0000 0.9857
vn 0.0929 0.7153 0.6926
vn 0.0448 -0.7146 0.6981
vn 0.0971 0.0000 0.9953
vn 0.0448 0.7146 0.6981
vn -0.0086 -0.7170 0.6970
vn 0.0310 0.0000 0.9995
vn -0.0086 0.7170 0.6970
vn -0.0839 -0.7222 0.6866
vn -0.0557 0.0000 0.9984
vn -0.0839 0.7222 0.6866
vn -0.1826 -0.7258 0.6632
vn -0.1864 0.0000 0.9825
vn -0.1826 0.7258 0.6632
vn -0.2953 -0.7295 0.6170
vn -0.3427 0.0000 0.9394
vn -0.2953 0.7295 0.6170
vn -0.4127 -0.7322 0.5418
vn -0.5167 0.0000 0.8562
vn -0.4127 0.7322 0.5418
vn -0.5198 -0.7328 0.4391
vn -0.6881 0.0000 0.7256
vn -0.5198 0.7328 0.4391
vn -0.6027 -0.7310 0.3200
vn -0.8304 0.0000 0.5572
vn -0.6027 0.7310 0.3200
vn -0.6561 -0.7276 0.2005
vn -0.9267 0.0000 0.3758
vn -0.6561 0.7276 0.2005
vn -0.6837 -0.7239 0.0928
vn -0.9785 0.0000 0.2063
vn -0.6837 0.7239 0.0928
vn -0.6997 -0.7141 0.0217
vn -0.9981 0.0000 0.0619
vn -0.6997 0.7141 0.0217
vn -0.5774 -0.5774 0.5774
vn -0.5774 0.5774 0.5774
vn 0.0000 0.0000 1.0000
vn -0.1037 -0.7259 0.6799
vn -0.2219 -0.7297 0.6468
vn -0.2308 0.0000 0.9730
vn -0.2219 0.7297 0.6468
vn -0.1037 0.7259 0.6799
vn -0.3484 -0.7325 0.5848
vn -0.4151 0.0000 0.9098
vn -0.3484 0.7325 0.5848
vn -0.4678 -0.7331 0.4937
vn -0.6025 0.0000 0.7981
vn -0.4678 0.7331 0.4937
vn -0.5644 -0.7312 0.3831
vn -0.7646 0.0000 0.6446
vn -0.5644 0.7312 0.3831
vn -0.6309 -0.7278 0.2689
vn -0.8812 0.0000 0.4727
vn -0.6309 0.7278 0.2689
vn -0.6700 -0.7240 0.1642
vn -0.9512 0.0000 0.3085
vn -0.6700 0.7240 0.1642
vn -0.6893 -0.7206 0.0749
vn -0.9861 0.0000 0.1663
vn -0.6893 0.7206 0.0749
vn -0.6955 -0.7185 -0.0003
vn -0.9988 0.0000 0.0495
vn -0.6955 0.7185 -0.0003
vn -0.6890 -0.7208 -0.0761
vn -0.9987 0.0000 -0.0503
vn -0.6890 0.7208 -0.0761
vn -0.6692 -0.7242 -0.1665
vn -0.9857 0.0000 -0.1688
vn -0.6692 0.7242 -0.1665
vn -0.6292 -0.7280 -0.2723
vn -0.9498 0.0000 -0.3127
vn -0.6292 0.7280 -0.2723
vn -0.5615 -0.7314 -0.3870
vn -0.8782 0.0000 -0.4784
vn -0.5615 0.7314 -0.3870
vn -0.4641 -0.7331 -0.4972
vn -0.7597 0.0000 -0.6503
vn -0.4641 0.7331 -0.4972
vn -0.3447 -0.7323 -0.5873
vn -0.5966 0.0000 -0.8025
vn -0.3447 0.7323 -0.5873
vn -0.2190 -0.7294 -0.6481
vn -0.4098 0.0000 -0.9122
vn -0.2190 0.7294 -0.6481
vn -0.1022 -0.7257 -0.6804
vn -0.2275 0.0000 -0.9738
vn -0.1022 0.7257 -0.6804
vn -0.0004 -0.7227 -0.6911
vn -0.0686 0.0000 -0.9976
vn -0.0004 0.7227 -0.6911
vn 0.1005 -0.7253 -0.6810
vn 0.0673 0.0000 -0.9977
vn 0.1005 0.7253 -0.6810
vn 0.2157 -0.7291 -0.6495
vn 0.2237 0.0000 -0.9747
vn 0.2157 0.7291 -0.6495
vn 0.3404 -0.7321 -0.5901
vn 0.4038 0.0000 -0.9149
vn 0.3404 0.7321 -0.5901
vn 0.4598 -0.7331 -0.5012
vn 0.5897 0.0000 -0.8076
vn 0.4598 0.7331 -0.5012
vn 0.5582 -0.7315 -0.3915
vn 0.7539 0.0000 -0.6570
vn 0.5582 0.7315 -0.3915
vn 0.6272 -0.7283 -0.2762
vn 0.8745 0.0000 -0.4850
vn 0.6272 0.7283 -0.2762
vn 0.6682 -0.7245 -0.1692
vn 0.9482 0.0000 -0.3178
vn 0.6682 0.7245 -0.1692
vn 0.6886 -0.7210 -0.0774
vn 0.9851 0.0000 -0.1717
vn 0.6886 0.7210 -0.0774
vn 0.6953 -0.7187 -0.0003
vn 0.9987 0.0000 -0.0512
vn 0.6953 0.7187 -0.0003
vn 0.6889 -0.7208 0.0762
vn 0.9987 0.0000 0.0504
vn 0.6889 0.7208 0.0762
vn 0.6691 -0.7242 0.1669
vn 0.9856 0.0000 0.1692
vn 0.6691 0.7242 0.1669
vn 0.6289 -0.7280 0.2729
vn 0.9496 0.0000 0.3135
vn 0.6289 0.7280 0.2729
vn 0.5611 -0.7314 0.3876
vn 0.8776 0.0000 0.4793
vn 0.5611 0.7314 0.3876
vn 0.4635 -0.7331 0.4977
vn 0.7588 0.0000 0.6513
vn 0.4635 0.7331 0.4977
vn 0.3441 -0.7323 0.5877
vn 0.5956 0.0000 0.8033
vn 0.3441 0.7323 0.5877
vn 0.2185 -0.7294 0.6483
vn 0.4090 0.0000 0.9126
vn 0.2185 0.7294 0.6483
vn 0.1019 -0.7256 0.6805
vn 0.2270 0.0000 0.9739
vn 0.1019 0.7256 0.6805
vn -0.0004 -0.7230 0.6909
vn 0.0684 0.0000 0.9977
vn -0.0004 0.7230 0.6909
vn -0.0696 0.0000 0.9976
vn 0.0000 -1.0000 -0.0000
vn 0.0000 1.0000 -0.0000
# 474 vertex normals

o Symbol_Leu
g Symbol_Leu
s 1
f 1//1 2//2 3//3 
f 2//2 4//4 3//3 
f 4//4 5//5 3//3 
f 5//5 1//1 3//3 
s 4
f 2//2 6//6 7//7 
f 6//6 8//8 7//7 
f 8//8 4//4 7//7 
f 4//4 2//2 7//7 
f 6//6 9//9 10//10 
f 9//9 11//11 10//10 
f 11//11 8//8 10//10 
f 8//8 6//6 10//10 
f 9//9 12//12 13//13 
f 12//12 14//14 13//13 
f 14//14 11//11 13//13 
f 11//11 9//9 13//13 
f 12//12 15//15 16//16 
f 15//15 17//17 16//16 
f 17//17 14//14 16//16 
f 14//14 12//12 16//16 
f 15//15 18//18 19//19 
f 18//18 20//20 19//19 
f 20//20 17//17 19//19 
f 17//17 15//15 19//19 
f 18//18 21//21 22//22 
f 21//21 23//23 22//22 
f 23//23 20//20 22//22 
f 20//20 18//18 22//22 
f 21//21 24//24 25//25 
f 24//24 26//26 25//25 
f 26//26 23//23 25//25 
f 23//23 21//21 25//25 
f 24//24 27//27 28//28 
f 27//27 29//29 28//28 
f 29//29 26//26 28//28 
f 26//26 24//24 28//28 
f 27//27 30//30 31//31 
f 30//30 32//32 31//31 
f 32//32 29//29 31//31 
f 29//29 27//27 31//31 
f 30//30 33//33 34//34 
f 33//33 35//35 34//34 
f 35//35 32//32 34//34 
f 32//32 30//30 34//34 
f 33//33 36//36 37//37 
f 36//36 38//38 37//37 
f 38//38 35//35 37//37 
f 35//35 33//33 37//37 
f 36//36 39//39 40//40 
f 39//39 41//41 40//40 
f 41//41 38//38 40//40 
f 38//38 36//36 40//40 
f 39//39 42//42 43//43 
f 42//42 44//44 43//43 
f 44//44 41//41 43//43 
f 41//41 39//39 43//43 
f 42//42 45//45 46//46 
f 45//45 47//47 46//46 
f 47//47 44//44 46//46 
f 44//44 42//42 46//46 
f 45//45 48//48 49//49 
f 48//48 50//50 49//49 
f 50//50 47//47 49//49 
f 47//47 45//45 49//49 
f 48//48 51//51 52//52 
f 51//51 53//53 52//52 
f 53//53 50//50 52//52 
f 50//50 48//48 52//52 
f 51//51 54//54 55//55 
f 54//54 56//56 55//55 
f 56//56 53//53 55//55 
f 53//53 51//51 55//55 
f 54//54 57//57 58//58 
f 57//57 59//59 58//58 
f 59//59 56//56 58//58 
f 56//56 54//54 58//58 
f 57//57 60//60 61//61 
f 60//60 62//62 61//61 
f 62//62 59//59 61//61 
f 59//59 57//57 61//61 
f 60//60 63//63 64//64 
f 63//63 65//65 64//64 
f 65//65 62//62 64//64 
f 62//62 60//60 64//64 
f 63//63 66//66 67//67 
f 66//66 68//68 67//67 
f 68//68 65//65 67//67 
f 65//65 63//63 67//67 
f 66//66 69//69 70//70 
f 69//69 71//71 70//70 
f 71//71 68//68 70//70 
f 68//68 66//66 70//70 
f 69//69 72//72 73//73 
f 72//72 74//74 73//73 
f 74//74 71//71 73//73 
f 71//71 69//69 73//73 
f 72//72 75//75 76//76 
f 75//75 77//77 76//76 
f 77//77 74//74 76//76 
f 74//74 72//72 76//76 
f 75//75 78//78 79//79 
f 78//78 80//80 79//79 
f 80//80 77//77 79//79 
f 77//77 75//75 79//79 
f 78//78 81//81 82//82 
f 81//81 83//83 82//82 
f 83//83 80//80 82//82 
f 80//80 78//78 82//82 
f 81//81 84//84 85//85 
f 84//84 86//86 85//85 
f 86//86 83//83 85//85 
f 83//83 81//81 85//85 
s 2
f 84//84 87//87 88//88 
f 87//87 89//89 88//88 
f 89//89 86//86 88//88 
f 86//86 84//84 88//88 
f 87//87 90//90 91//91 
f 90//90 92//92 91//91 
f 92//92 89//89 91//91 
f 89//89 87//87 91//91 
f 90//90 93//93 94//94 
f 93//93 95//95 94//94 
f 95//95 92//92 94//94 
f 92//92 90//90 94//94 
f 93//93 96//96 97//97 
f 96//96 98//98 97//97 
f 98//98 95//95 97//97 
f 95//95 93//93 97//97 
f 96//96 99//99 100//100 
f 99//99 101//101 100//100 
f 101//101 98//98 100//100 
f 98//98 96//96 100//100 
f 99//99 102//102 103//103 
f 102//102 104//104 103//103 
f 104//104 101//101 103//103 
f 101//101 99//99 103//103 
f 102//102 105//105 106//106 
f 105//105 107//107 106//106 
f 107//107 104//104 106//106 
f 104//104 102//102 106//106 
f 105//105 108//108 109//109 
f 108//108 110//110 109//109 
f 110//110 107//107 109//109 
f 107//107 105//105 109//109 
f 108//108 111//111 112//112 
f 111//111 113//113 112//112 
f 113//113 110//110 112//112 
f 110//110 108//108 112//112 
s 4
f 111//111 114//114 115//115 
f 114//114 116//116 115//115 
f 116//116 113//113 115//115 
f 113//113 111//111 115//115 
f 114//114 117//117 118//118 
f 117//117 119//119 118//118 
f 119//119 116//116 118//118 
f 116//116 114//114 118//118 
f 117//117 120//120 121//121 
f 120//120 122//122 121//121 
f 122//122 119//119 121//121 
f 119//119 117//117 121//121 
f 120//120 123//123 124//124 
f 123//123 125//125 124//124 
f 125//125 122//122 124//124 
f 122//122 120//120 124//124 
f 123//123 126//126 127//127 
f 126//126 128//128 127//127 
f 128//128 125//125 127//127 
f 125//125 123//123 127//127 
f 126//126 129//129 130//130 
f 129//129 131//131 130//130 
f 131//131 128//128 130//130 
f 128//128 126//126 130//130 
f 129//129 132//132 133//133 
f 132//132 134//134 133//133 
f 134//134 131//131 133//133 
f 131//131 129//129 133//133 
f 132//132 135//135 136//136 
f 135//135 137//137 136//136 
f 137//137 134//134 136//136 
f 134//134 132//132 136//136 
f 135//135 138//138 139//139 
f 138//138 140//140 139//139 
f 140//140 137//137 139//139 
f 137//137 135//135 139//139 
s 2
f 138//138 141//141 142//142 
f 141//141 143//143 142//142 
f 143//143 140//140 142//142 
f 140//140 138//138 142//142 
s 4
f 141//141 144//144 145//145 
f 144//144 146//146 145//145 
f 146//146 143//143 145//145 
f 143//143 141//141 145//145 
f 144//144 147//147 148//148 
f 147//147 149//149 148//148 
f 149//149 146//146 148//148 
f 146//146 144//144 148//148 
f 147//147 150//150 151//151 
f 150//150 152//152 151//151 
f 152//152 149//149 151//151 
f 149//149 147//147 151//151 
f 150//150 153//153 154//154 
f 153//153 155//155 154//154 
f 155//155 152//152 154//154 
f 152//152 150//150 154//154 
f 153//153 156//156 157//157 
f 156//156 158//158 157//157 
f 158//158 155//155 157//157 
f 155//155 153//153 157//157 
f 156//156 159//159 160//160 
f 159//159 161//161 160//160 
f 161//161 158//158 160//160 
f 158//158 156//156 160//160 
f 159//159 162//162 163//163 
f 162//162 164//164 163//163 
f 164//164 161//161 163//163 
f 161//161 159//159 163//163 
f 162//162 165//165 166//166 
f 165//165 167//167 166//166 
f 167//167 164//164 166//166 
f 164//164 162//162 166//166 
f 165//165 168//168 169//169 
f 168//168 170//170 169//169 
f 170//170 167//167 169//169 
f 167//167 165//165 169//169 
f 168//168 171//171 172//172 
f 171//171 173//173 172//172 
f 173//173 170//170 172//172 
f 170//170 168//168 172//172 
f 171//171 174//174 175//175 
f 174//174 176//176 175//175 
f 176//176 173//173 175//175 
f 173//173 171//171 175//175 
f 174//174 177//177 178//178 
f 177//177 179//179 178//178 
f 179//179 176//176 178//178 
f 176//176 174//174 178//178 
f 177//177 180//180 181//181 
f 180//180 182//182 181//181 
f 182//182 179//179 181//181 
f 179//179 177//177 181//181 
f 180//180 183//183 184//184 
f 183//183 185//185 184//184 
f 185//185 182//182 184//184 
f 182//182 180//180 184//184 
f 183//183 186//186 187//187 
f 186//186 188//188 187//187 
f 188//188 185//185 187//187 
f 185//185 183//183 187//187 
f 186//186 189//189 190//190 
f 189//189 191//191 190//190 
f 191//191 188//188 190//190 
f 188//188 186//186 190//190 
f 189//189 192//192 193//193 
f 192//192 194//194 193//193 
f 194//194 191//191 193//193 
f 191//191 189//189 193//193 
f 192//192 195//195 196//196 
f 195//195 197//197 196//196 
f 197//197 194//194 196//196 
f 194//194 192//192 196//196 
f 195//195 198//198 199//199 
f 198//198 200//200 199//199 
f 200//200 197//197 199//199 
f 197//197 195//195 199//199 
f 198//198 201//201 202//202 
f 201//201 203//203 202//202 
f 203//203 200//200 202//202 
f 200//200 198//198 202//202 
f 201//201 204//204 205//205 
f 204//204 206//206 205//205 
f 206//206 203//203 205//205 
f 203//203 201//201 205//205 
f 204//204 207//207 208//208 
f 207//207 209//209 208//208 
f 209//209 206//206 208//208 
f 206//206 204//204 208//208 
f 207//207 210//210 211//211 
f 210//210 212//212 211//211 
f 212//212 209//209 211//211 
f 209//209 207//207 211//211 
f 210//210 213//213 214//214 
f 213//213 215//215 214//214 
f 215//215 212//212 214//214 
f 212//212 210//210 214//214 
f 213//213 216//216 217//217 
f 216//216 218//218 217//217 
f 218//218 215//215 217//217 
f 215//215 213//213 217//217 
f 216//216 219//219 220//220 
f 219//219 221//221 220//220 
f 221//221 218//218 220//220 
f 218//218 216//216 220//220 
f 219//219 222//222 223//223 
f 222//222 224//224 223//223 
f 224//224 221//221 223//223 
f 221//221 219//219 223//223 
s 2
f 222//222 225//225 226//3 
f 225//225 227//226 226//3 
f 227//226 224//224 226//3 
f 224//224 222//222 226//3 
s 4
f 225//225 228//227 229//228 
f 228//227 230//229 229//228 
f 230//229 227//226 229//228 
f 227//226 225//225 229//228 
f 228//227 231//230 232//231 
f 231//230 233//232 232//231 
f 233//232 230//229 232//231 
f 230//229 228//227 232//231 
f 231//230 234//233 235//234 
f 234//233 236//235 235//234 
f 236//235 233//232 235//234 
f 233//232 231//230 235//234 
f 234//233 237//236 238//237 
f 237//236 239//238 238//237 
f 239//238 236//235 238//237 
f 236//235 234//233 238//237 
f 237//236 240//239 241//240 
f 240//239 242//241 241//240 
f 242//241 239//238 241//240 
f 239//238 237//236 241//240 
f 240//239 243//242 244//243 
f 243//242 245//244 244//243 
f 245//244 242//241 244//243 
f 242//241 240//239 244//243 
f 243//242 246//245 247//246 
f 246//245 248//247 247//246 
f 248//247 245//244 247//246 
f 245//244 243//242 247//246 
f 246//245 249//248 250//249 
f 249//248 251//250 250//249 
f 251//250 248//247 250//249 
f 248//247 246//245 250//249 
f 249//248 252//251 253//252 
f 252//251 254//253 253//252 
f 254//253 251//250 253//252 
f 251//250 249//248 253//252 
f 252//251 255//254 256//255 
f 255//254 257//256 256//255 
f 257//256 254//253 256//255 
f 254//253 252//251 256//255 
f 255//254 258//257 259//258 
f 258//257 260//259 259//258 
f 260//259 257//256 259//258 
f 257//256 255//254 259//258 
f 258//257 261//260 262//261 
f 261//260 263//262 262//261 
f 263//262 260//259 262//261 
f 260//259 258//257 262//261 
f 261//260 264//263 265//264 
f 264//263 266//265 265//264 
f 266//265 263//262 265//264 
f 263//262 261//260 265//264 
f 264//263 267//266 268//267 
f 267//266 269//268 268//267 
f 269//268 266//265 268//267 
f 266//265 264//263 268//267 
f 267//266 270//269 271//270 
f 270//269 272//271 271//270 
f 272//271 269//268 271//270 
f 269//268 267//266 271//270 
f 270//269 273//272 274//273 
f 273//272 275//274 274//273 
f 275//274 272//271 274//273 
f 272//271 270//269 274//273 
f 273//272 276//275 277//276 
f 276//275 278//277 277//276 
f 278//277 275//274 277//276 
f 275//274 273//272 277//276 
f 276//275 279//278 280//279 
f 279//278 281//280 280//279 
f 281//280 278//277 280//279 
f 278//277 276//275 280//279 
s 2
f 279//278 282//281 283//282 
f 282//281 284//283 283//282 
f 284//283 281//280 283//282 
f 281//280 279//278 283//282 
f 282//281 285//284 286//285 
f 285//284 287//286 286//285 
f 287//286 284//283 286//285 
f 284//283 282//281 286//285 
f 285//284 288//287 289//288 
f 288//287 290//289 289//288 
f 290//289 287//286 289//288 
f 287//286 285//284 289//288 
f 288//287 291//290 292//291 
f 291//290 293//292 292//291 
f 293//292 290//289 292//291 
f 290//289 288//287 292//291 
f 291//290 294//293 295//294 
f 294//293 296//295 295//294 
f 296//295 293//292 295//294 
f 293//292 291//290 295//294 
f 294//293 297//296 298//297 
f 297//296 299//298 298//297 
f 299//298 296//295 298//297 
f 296//295 294//293 298//297 
f 297//296 300//299 301//300 
f 300//299 302//301 301//300 
f 302//301 299//298 301//300 
f 299//298 297//296 301//300 
f 300//299 303//302 304//303 
f 303//302 305//304 304//303 
f 305//304 302//301 304//303 
f 302//301 300//299 304//303 
f 303//302 306//305 307//306 
f 306//305 308//307 307//306 
f 308//307 305//304 307//306 
f 305//304 303//302 307//306 
s 4
f 306//305 309//308 310//309 
f 309//308 311//310 310//309 
f 311//310 308//307 310//309 
f 308//307 306//305 310//309 
f 309//308 312//311 313//312 
f 312//311 314//313 313//312 
f 314//313 311//310 313//312 
f 311//310 309//308 313//312 
f 312//311 315//314 316//315 
f 315//314 317//316 316//315 
f 317//316 314//313 316//315 
f 314//313 312//311 316//315 
f 315//314 318//317 319//318 
f 318//317 320//319 319//318 
f 320//319 317//316 319//318 
f 317//316 315//314 319//318 
f 318//317 321//320 322//321 
f 321//320 323//322 322//321 
f 323//322 320//319 322//321 
f 320//319 318//317 322//321 
f 321//320 324//323 325//324 
f 324//323 326//325 325//324 
f 326//325 323//322 325//324 
f 323//322 321//320 325//324 
f 324//323 327//326 328//327 
f 327//326 329//328 328//327 
f 329//328 326//325 328//327 
f 326//325 324//323 328//327 
f 327//326 330//329 331//330 
f 330//329 332//331 331//330 
f 332//331 329//328 331//330 
f 329//328 327//326 331//330 
f 330//329 333//332 334//333 
f 333//332 335//334 334//333 
f 335//334 332//331 334//333 
f 332//331 330//329 334//333 
f 333//332 336//335 337//336 
f 336//335 338//337 337//336 
f 338//337 335//334 337//336 
f 335//334 333//332 337//336 
f 336//335 339//338 340//339 
f 339//338 341//340 340//339 
f 341//340 338//337 340//339 
f 338//337 336//335 340//339 
f 339//338 342//341 343//342 
f 342//341 344//343 343//342 
f 344//343 341//340 343//342 
f 341//340 339//338 343//342 
f 342//341 345//344 346//345 
f 345//344 347//346 346//345 
f 347//346 344//343 346//345 
f 344//343 342//341 346//345 
f 345//344 348//347 349//348 
f 348//347 350//349 349//348 
f 350//349 347//346 349//348 
f 347//346 345//344 349//348 
f 348//347 351//350 352//351 
f 351//350 353//352 352//351 
f 353//352 350//349 352//351 
f 350//349 348//347 352//351 
f 351//350 354//353 355//354 
f 354//353 356//355 355//354 
f 356//355 353//352 355//354 
f 353//352 351//350 355//354 
f 354//353 357//356 358//357 
f 357//356 359//358 358//357 
f 359//358 356//355 358//357 
f 356//355 354//353 358//357 
f 357//356 360//359 361//360 
f 360//359 362//361 361//360 
f 362//361 359//358 361//360 
f 359//358 357//356 361//360 
s 2
f 360//359 363//362 364//142 
f 363//362 365//363 364//142 
f 365//363 362//361 364//142 
f 362//361 360//359 364//142 
s 4
f 363//362 1//1 366//364 
f 1//1 5//5 366//364 
f 5//5 365//363 366//364 
f 365//363 363//362 366//364 
s 1
f 367//365 368//366 369//367 
f 368//366 370//368 369//367 
f 370//368 371//369 369//367 
f 371//369 367//365 369//367 
s 3
f 368//366 372//370 373//371 
f 372//370 374//372 373//371 
f 374//372 370//368 373//371 
f 370//368 368//366 373//371 
s 2
f 372//370 375//373 376//374 
f 375//373 377//375 376//374 
f 377//375 374//372 376//374 
f 374//372 372//370 376//374 
f 375//373 378//376 379//377 
f 378//376 380//378 379//377 
f 380//378 377//375 379//377 
f 377//375 375//373 379//377 
f 378//376 381//379 382//380 
f 381//379 383//381 382//380 
f 383//381 380//378 382//380 
f 380//378 378//376 382//380 
f 381//379 384//382 385//383 
f 384//382 386//384 385//383 
f 386//384 383//381 385//383 
f 383//381 381//379 385//383 
f 384//382 387//385 388//386 
f 387//385 389//387 388//386 
f 389//387 386//384 388//386 
f 386//384 384//382 388//386 
f 387//385 390//388 391//389 
f 390//388 392//390 391//389 
f 392//390 389//387 391//389 
f 389//387 387//385 391//389 
f 390//388 393//391 394//392 
f 393//391 395//393 394//392 
f 395//393 392//390 394//392 
f 392//390 390//388 394//392 
f 393//391 396//394 397//395 
f 396//394 398//396 397//395 
f 398//396 395//393 397//395 
f 395//393 393//391 397//395 
f 396//394 399//397 400//398 
f 399//397 401//399 400//398 
f 401//399 398//396 400//398 
f 398//396 396//394 400//398 
f 399//397 402//400 403//401 
f 402//400 404//402 403//401 
f 404//402 401//399 403//401 
f 401//399 399//397 403//401 
f 402//400 405//403 406//404 
f 405//403 407//405 406//404 
f 407//405 404//402 406//404 
f 404//402 402//400 406//404 
f 405//403 408//406 409//407 
f 408//406 410//408 409//407 
f 410//408 407//405 409//407 
f 407//405 405//403 409//407 
f 408//406 411//409 412//410 
f 411//409 413//411 412//410 
f 413//411 410//408 412//410 
f 410//408 408//406 412//410 
f 411//409 414//412 415//413 
f 414//412 416//414 415//413 
f 416//414 413//411 415//413 
f 413//411 411//409 415//413 
f 414//412 417//415 418//416 
f 417//415 419//417 418//416 
f 419//417 416//414 418//416 
f 416//414 414//412 418//416 
f 417//415 420//418 421//419 
f 420//418 422//420 421//419 
f 422//420 419//417 421//419 
f 419//417 417//415 421//419 
f 420//418 423//421 424//422 
f 423//421 425//423 424//422 
f 425//423 422//420 424//422 
f 422//420 420//418 424//422 
f 423//421 426//424 427//425 
f 426//424 428//426 427//425 
f 428//426 425//423 427//425 
f 425//423 423//421 427//425 
f 426//424 429//427 430//428 
f 429//427 431//429 430//428 
f 431//429 428//426 430//428 
f 428//426 426//424 430//428 
f 429//427 432//430 433//431 
f 432//430 434//432 433//431 
f 434//432 431//429 433//431 
f 431//429 429//427 433//431 
f 432//430 435//433 436//434 
f 435//433 437//435 436//434 
f 437//435 434//432 436//434 
f 434//432 432//430 436//434 
f 435//433 438//436 439//437 
f 438//436 440//438 439//437 
f 440//438 437//435 439//437 
f 437//435 435//433 439//437 
f 438//436 441//439 442//440 
f 441//439 443//441 442//440 
f 443//441 440//438 442//440 
f 440//438 438//436 442//440 
f 441//439 444//442 445//443 
f 444//442 446//444 445//443 
f 446//444 443//441 445//443 
f 443//441 441//439 445//443 
f 444//442 447//445 448//446 
f 447//445 449//447 448//446 
f 449//447 446//444 448//446 
f 446//444 444//442 448//446 
f 447//445 450//448 451//449 
f 450//448 452//450 451//449 
f 452//450 449//447 451//449 
f 449//447 447//445 451//449 
f 450//448 453//451 454//452 
f 453//451 455//453 454//452 
f 455//453 452//450 454//452 
f 452//450 450//448 454//452 
f 453//451 456//454 457//455 
f 456//454 458//456 457//455 
f 458//456 455//453 457//455 
f 455//453 453//451 457//455 
f 456//454 459//457 460//458 
f 459//457 461//459 460//458 
f 461//459 458//456 460//458 
f 458//456 456//454 460//458 
f 459//457 462//460 463//461 
f 462//460 464//462 463//461 
f 464//462 461//459 463//461 
f 461//459 459//457 463//461 
f 462//460 465//463 466//464 
f 465//463 467//465 466//464 
f 467//465 464//462 466//464 
f 464//462 462//460 466//464 
f 465//463 468//466 469//467 
f 468//466 470//468 469//467 
f 470//468 467//465 469//467 
f 467//465 465//463 469//467 
f 468//466 471//469 472//470 
f 471//469 473//471 472//470 
f 473//471 470//468 472//470 
f 470//468 468//466 472//470 
s 3
f 471//469 367//365 474//472 
f 367//365 371//369 474//472 
f 371//369 473//471 474//472 
f 473//471 471//469 474//472 
s 16
f 360//359 2//2 475//473 
f 2//2 1//1 475//473 
f 1//1 363//362 475//473 
f 363//362 360//359 475//473 
f 80//80 83//83 476//474 
f 83//83 86//86 476//474 
f 86//86 89//89 476//474 
f 89//89 80//80 476//474 
f 360//359 357//356 477//473 
f 357//356 6//6 477//473 
f 6//6 2//2 477//473 
f 2//2 360//359 477//473 
f 357//356 354//353 478//473 
f 354//353 9//9 478//473 
f 9//9 6//6 478//473 
f 6//6 357//356 478//473 
f 354//353 351//350 479//473 
f 351//350 12//12 479//473 
f 12//12 9//9 479//473 
f 9//9 354//353 479//473 
f 351//350 348//347 480//473 
f 348//347 18//18 480//473 
f 18//18 15//15 480//473 
f 15//15 12//12 480//473 
f 12//12 351//350 480//473 
f 348//347 345//344 481//473 
f 345//344 21//21 481//473 
f 21//21 18//18 481//473 
f 18//18 348//347 481//473 
f 345//344 342//341 482//473 
f 342//341 24//24 482//473 
f 24//24 21//21 482//473 
f 21//21 345//344 482//473 
f 342//341 339//338 483//473 
f 339//338 27//27 483//473 
f 27//27 24//24 483//473 
f 24//24 342//341 483//473 
f 339//338 336//335 484//473 
f 336//335 27//27 484//473 
f 27//27 339//338 484//473 
f 336//335 333//332 485//473 
f 333//332 30//30 485//473 
f 30//30 27//27 485//473 
f 27//27 336//335 485//473 
f 333//332 330//329 486//473 
f 330//329 33//33 486//473 
f 33//33 30//30 486//473 
f 30//30 333//332 486//473 
f 330//329 327//326 487//473 
f 327//326 36//36 487//473 
f 36//36 33//33 487//473 
f 33//33 330//329 487//473 
f 327//326 324//323 488//473 
f 324//323 42//42 488//473 
f 42//42 39//39 488//473 
f 39//39 36//36 488//473 
f 36//36 327//326 488//473 
f 324//323 321//320 489//473 
f 321//320 45//45 489//473 
f 45//45 42//42 489//473 
f 42//42 324//323 489//473 
f 321//320 318//317 490//473 
f 318//317 48//48 490//473 
f 48//48 45//45 490//473 
f 45//45 321//320 490//473 
f 318//317 315//314 491//473 
f 315//314 51//51 491//473 
f 51//51 48//48 491//473 
f 48//48 318//317 491//473 
f 315//314 312//311 492//473 
f 312//311 54//54 492//473 
f 54//54 51//51 492//473 
f 51//51 315//314 492//473 
f 312//311 309//308 493//473 
f 309//308 57//57 493//473 
f 57//57 54//54 493//473 
f 54//54 312//311 493//473 
f 309//308 306//305 494//473 
f 306//305 93//93 494//473 
f 93//93 90//90 494//473 
f 90//90 75//75 494//473 
f 75//75 72//72 494//473 
f 72//72 69//69 494//473 
f 69//69 66//66 494//473 
f 66//66 63//63 494//473 
f 63//63 60//60 494//473 
f 60//60 57//57 494//473 
f 57//57 309//308 494//473 
f 282//281 279//278 495//473 
f 279//278 276//275 495//473 
f 276//275 282//281 495//473 
f 90//90 87//87 496//473 
f 87//87 78//78 496//473 
f 78//78 75//75 496//473 
f 75//75 90//90 496//473 
f 87//87 84//84 497//473 
f 84//84 81//81 497//473 
f 81//81 78//78 497//473 
f 78//78 87//87 497//473 
f 276//275 273//272 498//473 
f 273//272 282//281 498//473 
f 282//281 276//275 498//473 
f 273//272 270//269 499//473 
f 270//269 285//284 499//473 
f 285//284 282//281 499//473 
f 282//281 273//272 499//473 
f 270//269 267//266 500//473 
f 267//266 285//284 500//473 
f 285//284 270//269 500//473 
f 267//266 264//263 501//473 
f 264//263 288//287 501//473 
f 288//287 285//284 501//473 
f 285//284 267//266 501//473 
f 264//263 261//260 502//473 
f 261//260 291//290 502//473 
f 291//290 288//287 502//473 
f 288//287 264//263 502//473 
f 261//260 258//257 503//473 
f 258//257 303//302 503//473 
f 303//302 300//299 503//473 
f 300//299 297//296 503//473 
f 297//296 294//293 503//473 
f 294//293 291//290 503//473 
f 291//290 261//260 503//473 
f 258//257 255//254 504//473 
f 255//254 111//111 504//473 
f 111//111 108//108 504//473 
f 108//108 303//302 504//473 
f 303//302 258//257 504//473 
f 255//254 252//251 505//473 
f 252//251 111//111 505//473 
f 111//111 255//254 505//473 
f 108//108 105//105 506//473 
f 105//105 306//305 506//473 
f 306//305 303//302 506//473 
f 303//302 108//108 506//473 
f 105//105 102//102 507//473 
f 102//102 306//305 507//473 
f 306//305 105//105 507//473 
f 102//102 99//99 508//473 
f 99//99 306//305 508//473 
f 306//305 102//102 508//473 
f 99//99 96//96 509//473 
f 96//96 306//305 509//473 
f 306//305 99//99 509//473 
f 96//96 93//93 510//473 
f 93//93 306//305 510//473 
f 306//305 96//96 510//473 
f 252//251 249//248 511//473 
f 249//248 111//111 511//473 
f 111//111 252//251 511//473 
f 249//248 246//245 512//473 
f 246//245 111//111 512//473 
f 111//111 249//248 512//473 
f 246//245 243//242 513//473 
f 243//242 111//111 513//473 
f 111//111 246//245 513//473 
f 243//242 240//239 514//473 
f 240//239 111//111 514//473 
f 111//111 243//242 514//473 
f 240//239 237//236 515//473 
f 237//236 111//111 515//473 
f 111//111 240//239 515//473 
f 237//236 234//233 516//473 
f 234//233 111//111 516//473 
f 111//111 237//236 516//473 
f 234//233 231//230 517//473 
f 231//230 111//111 517//473 
f 111//111 234//233 517//473 
f 231//230 228//227 518//473 
f 228//227 111//111 518//473 
f 111//111 231//230 518//473 
f 228//227 225//225 519//473 
f 225//225 111//111 519//473 
f 111//111 228//227 519//473 
f 225//225 222//222 520//473 
f 390//388 387//385 520//473 
f 387//385 111//111 520//473 
f 111//111 225//225 520//473 
f 387//385 384//382 521//473 
f 384//382 111//111 521//473 
f 111//111 387//385 521//473 
f 384//382 381//379 522//473 
f 381//379 111//111 522//473 
f 111//111 384//382 522//473 
f 381//379 378//376 523//473 
f 378//376 111//111 523//473 
f 111//111 381//379 523//473 
f 378//376 375//373 524//473 
f 375//373 111//111 524//473 
f 111//111 378//376 524//473 
f 375//373 372//370 525//473 
f 372//370 141//141 525//473 
f 141//141 138//138 525//473 
f 138//138 135//135 525//473 
f 135//135 132//132 525//473 
f 132//132 129//129 525//473 
f 129//129 126//126 525//473 
f 126//126 123//123 525//473 
f 123//123 120//120 525//473 
f 120//120 117//117 525//473 
f 117//117 114//114 525//473 
f 114//114 111//111 525//473 
f 111//111 375//373 525//473 
f 372//370 368//366 526//473 
f 368//366 141//141 526//473 
f 141//141 372//370 526//473 
f 368//366 367//365 527//473 
f 367//365 141//141 527//473 
f 141//141 368//366 527//473 
f 367//365 471//469 528//473 
f 471//469 141//141 528//473 
f 141//141 367//365 528//473 
f 471//469 468//466 529//473 
f 468//466 141//141 529//473 
f 141//141 471//469 529//473 
f 468//466 465//463 530//473 
f 465//463 144//144 530//473 
f 144//144 141//141 530//473 
f 141//141 468//466 530//473 
f 465//463 462//460 531//473 
f 462//460 147//147 531//473 
f 147//147 144//144 531//473 
f 144//144 465//463 531//473 
f 462//460 459//457 532//473 
f 459//457 153//153 532//473 
f 153//153 150//150 532//473 
f 150//150 147//147 532//473 
f 147//147 462//460 532//473 
f 459//457 456//454 533//473 
f 456//454 156//156 533//473 
f 156//156 153//153 533//473 
f 153//153 459//457 533//473 
f 456//454 453//451 534//473 
f 453//451 159//159 534//473 
f 159//159 156//156 534//473 
f 156//156 456//454 534//473 
f 453//451 450//448 535//473 
f 450//448 162//162 535//473 
f 162//162 159//159 535//473 
f 159//159 453//451 535//473 
f 450//448 447//445 536//473 
f 447//445 165//165 536//473 
f 165//165 162//162 536//473 
f 162//162 450//448 536//473 
f 447//445 444//442 537//473 
f 444//442 168//168 537//473 
f 168//168 165//165 537//473 
f 165//165 447//445 537//473 
f 444//442 441//439 538//473 
f 441//439 171//171 538//473 
f 171//171 168//168 538//473 
f 168//168 444//442 538//473 
f 441//439 438//436 539//473 
f 438//436 174//174 539//473 
f 174//174 171//171 539//473 
f 171//171 441//439 539//473 
f 438//436 435//433 540//473 
f 435//433 177//177 540//473 
f 177//177 174//174 540//473 
f 174//174 438//436 540//473 
f 435//433 432//430 541//473 
f 432//430 180//180 541//473 
f 180//180 177//177 541//473 
f 177//177 435//433 541//473 
f 432//430 429//427 542//473 
f 429//427 183//183 542//473 
f 183//183 180//180 542//473 
f 180//180 432//430 542//473 
f 429//427 426//424 543//473 
f 426//424 186//186 543//473 
f 186//186 183//183 543//473 
f 183//183 429//427 543//473 
f 426//424 423//421 544//473 
f 423//421 189//189 544//473 
f 189//189 186//186 544//473 
f 186//186 426//424 544//473 
f 423//421 420//418 545//473 
f 420//418 192//192 545//473 
f 192//192 189//189 545//473 
f 189//189 423//421 545//473 
f 420//418 417//415 546//473 
f 417//415 195//195 546//473 
f 195//195 192//192 546//473 
f 192//192 420//418 546//473 
f 417//415 414//412 547//473 
f 414//412 198//198 547//473 
f 198//198 195//195 547//473 
f 195//195 417//415 547//473 
f 414//412 411//409 548//473 
f 411//409 201//201 548//473 
f 201//201 198//198 548//473 
f 198//198 414//412 548//473 
f 411//409 408//406 549//473 
f 408//406 204//204 549//473 
f 204//204 201//201 549//473 
f 201//201 411//409 549//473 
f 408//406 405//403 550//473 
f 405//403 207//207 550//473 
f 207//207 204//204 550//473 
f 204//204 408//406 550//473 
f 405//403 402//400 551//473 
f 402//400 210//210 551//473 
f 210//210 207//207 551//473 
f 207//207 405//403 551//473 
f 402//400 399//397 552//473 
f 399//397 213//213 552//473 
f 213//213 210//210 552//473 
f 210//210 402//400 552//473 
f 399//397 396//394 553//473 
f 396//394 216//216 553//473 
f 216//216 213//213 553//473 
f 213//213 399//397 553//473 
f 396//394 393//391 554//473 
f 393//391 219//219 554//473 
f 219//219 216//216 554//473 
f 216//216 396//394 554//473 
f 393//391 390//388 555//473 
f 390//388 520//473 222//222 555//473 
f 222//222 219//219 555//473 
f 219//219 393//391 555//473 
f 362//361 365//363 556//474 
f 365//363 5//5 556//474 
f 5//5 4//4 556//474 
f 4//4 362//361 556//474 
f 89//89 92//92 557//474 
f 92//92 77//77 557//474 
f 77//77 80//80 557//474 
f 80//80 89//89 557//474 
f 92//92 95//95 558//474 
f 95//95 74//74 558//474 
f 74//74 77//77 558//474 
f 77//77 92//92 558//474 
f 95//95 98//98 559//474 
f 98//98 308//307 559//474 
f 308//307 311//310 559//474 
f 311//310 59//59 559//474 
f 59//59 62//62 559//474 
f 62//62 65//65 559//474 
f 65//65 68//68 559//474 
f 68//68 71//71 559//474 
f 71//71 74//74 559//474 
f 74//74 95//95 559//474 
f 98//98 101//101 560//474 
f 101//101 308//307 560//474 
f 308//307 98//98 560//474 
f 311//310 314//313 561//474 
f 314//313 56//56 561//474 
f 56//56 59//59 561//474 
f 59//59 311//310 561//474 
f 314//313 317//316 562//474 
f 317//316 53//53 562//474 
f 53//53 56//56 562//474 
f 56//56 314//313 562//474 
f 317//316 320//319 563//474 
f 320//319 50//50 563//474 
f 50//50 53//53 563//474 
f 53//53 317//316 563//474 
f 320//319 323//322 564//474 
f 323//322 47//47 564//474 
f 47//47 50//50 564//474 
f 50//50 320//319 564//474 
f 323//322 326//325 565//474 
f 326//325 44//44 565//474 
f 44//44 47//47 565//474 
f 47//47 323//322 565//474 
f 326//325 329//328 566//474 
f 329//328 38//38 566//474 
f 38//38 41//41 566//474 
f 41//41 44//44 566//474 
f 44//44 326//325 566//474 
f 329//328 332//331 567//474 
f 332//331 35//35 567//474 
f 35//35 38//38 567//474 
f 38//38 329//328 567//474 
f 332//331 335//334 568//474 
f 335//334 32//32 568//474 
f 32//32 35//35 568//474 
f 35//35 332//331 568//474 
f 335//334 338//337 569//474 
f 338//337 29//29 569//474 
f 29//29 32//32 569//474 
f 32//32 335//334 569//474 
f 338//337 341//340 570//474 
f 341//340 29//29 570//474 
f 29//29 338//337 570//474 
f 341//340 344//343 571//474 
f 344//343 26//26 571//474 
f 26//26 29//29 571//474 
f 29//29 341//340 571//474 
f 344//343 347//346 572//474 
f 347//346 23//23 572//474 
f 23//23 26//26 572//474 
f 26//26 344//343 572//474 
f 347//346 350//349 573//474 
f 350//349 20//20 573//474 
f 20//20 23//23 573//474 
f 23//23 347//346 573//474 
f 350//349 353//352 574//474 
f 353//352 14//14 574//474 
f 14//14 17//17 574//474 
f 17//17 20//20 574//474 
f 20//20 350//349 574//474 
f 353//352 356//355 575//474 
f 356//355 11//11 575//474 
f 11//11 14//14 575//474 
f 14//14 353//352 575//474 
f 356//355 359//358 576//474 
f 359//358 8//8 576//474 
f 8//8 11//11 576//474 
f 11//11 356//355 576//474 
f 359//358 362//361 577//474 
f 362//361 4//4 577//474 
f 4//4 8//8 577//474 
f 8//8 359//358 577//474 
f 101//101 104//104 578//474 
f 104//104 308//307 578//474 
f 308//307 101//101 578//474 
f 104//104 107//107 579//474 
f 107//107 308//307 579//474 
f 308//307 104//104 579//474 
f 107//107 110//110 580//474 
f 110//110 305//304 580//474 
f 305//304 308//307 580//474 
f 308//307 107//107 580//474 
f 110//110 113//113 581//474 
f 113//113 260//259 581//474 
f 260//259 263//262 581//474 
f 263//262 293//292 581//474 
f 293//292 296//295 581//474 
f 296//295 299//298 581//474 
f 299//298 302//301 581//474 
f 302//301 305//304 581//474 
f 305//304 110//110 581//474 
f 113//113 116//116 582//474 
f 116//116 119//119 582//474 
f 119//119 122//122 582//474 
f 122//122 125//125 582//474 
f 125//125 128//128 582//474 
f 128//128 131//131 582//474 
f 131//131 134//134 582//474 
f 134//134 137//137 582//474 
f 137//137 140//140 582//474 
f 140//140 143//143 582//474 
f 143//143 377//375 582//474 
f 377//375 380//378 582//474 
f 380//378 113//113 582//474 
f 263//262 266//265 583//474 
f 266//265 290//289 583//474 
f 290//289 293//292 583//474 
f 293//292 263//262 583//474 
f 266//265 269//268 584//474 
f 269//268 287//286 584//474 
f 287//286 290//289 584//474 
f 290//289 266//265 584//474 
f 269//268 272//271 585//474 
f 272//271 287//286 585//474 
f 287//286 269//268 585//474 
f 272//271 275//274 586//474 
f 275//274 284//283 586//474 
f 284//283 287//286 586//474 
f 287//286 272//271 586//474 
f 275//274 278//277 587//474 
f 278//277 284//283 587//474 
f 284//283 275//274 587//474 
f 278//277 281//280 588//474 
f 281//280 284//283 588//474 
f 284//283 278//277 588//474 
f 221//221 224//224 589//474 
f 224//224 590//474 392//390 589//474 
f 392//390 395//393 589//474 
f 395//393 221//221 589//474 
f 380//378 383//381 591//474 
f 383//381 113//113 591//474 
f 113//113 380//378 591//474 
f 383//381 386//384 592//474 
f 386//384 113//113 592//474 
f 113//113 383//381 592//474 
f 386//384 389//387 593//474 
f 389//387 113//113 593//474 
f 113//113 386//384 593//474 
f 389//387 392//390 590//474 
f 224//224 227//226 590//474 
f 227//226 113//113 590//474 
f 113//113 389//387 590//474 
f 227//226 230//229 594//474 
f 230//229 113//113 594//474 
f 113//113 227//226 594//474 
f 230//229 233//232 595//474 
f 233//232 113//113 595//474 
f 113//113 230//229 595//474 
f 233//232 236//235 596//474 
f 236//235 113//113 596//474 
f 113//113 233//232 596//474 
f 236//235 239//238 597//474 
f 239//238 113//113 597//474 
f 113//113 236//235 597//474 
f 239//238 242//241 598//474 
f 242//241 113//113 598//474 
f 113//113 239//238 598//474 
f 242//241 245//244 599//474 
f 245//244 113//113 599//474 
f 113//113 242//241 599//474 
f 245//244 248//247 600//474 
f 248//247 113//113 600//474 
f 113//113 245//244 600//474 
f 248//247 251//250 601//474 
f 251//250 113//113 601//474 
f 113//113 248//247 601//474 
f 251//250 254//253 602//474 
f 254//253 113//113 602//474 
f 113//113 251//250 602//474 
f 254//253 257//256 603//474 
f 257//256 113//113 603//474 
f 113//113 254//253 603//474 
f 257//256 260//259 604//474 
f 260//259 113//113 604//474 
f 113//113 257//256 604//474 
f 395//393 398//396 605//474 
f 398//396 218//218 605//474 
f 218//218 221//221 605//474 
f 221//221 395//393 605//474 
f 398//396 401//399 606//474 
f 401//399 215//215 606//474 
f 215//215 218//218 606//474 
f 218//218 398//396 606//474 
f 401//399 404//402 607//474 
f 404//402 212//212 607//474 
f 212//212 215//215 607//474 
f 215//215 401//399 607//474 
f 404//402 407//405 608//474 
f 407//405 209//209 608//474 
f 209//209 212//212 608//474 
f 212//212 404//402 608//474 
f 407//405 410//408 609//474 
f 410//408 206//206 609//474 
f 206//206 209//209 609//474 
f 209//209 407//405 609//474 
f 410//408 413//411 610//474 
f 413//411 203//203 610//474 
f 203//203 206//206 610//474 
f 206//206 410//408 610//474 
f 413//411 416//414 611//474 
f 416//414 200//200 611//474 
f 200//200 203//203 611//474 
f 203//203 413//411 611//474 
f 416//414 419//417 612//474 
f 419//417 197//197 612//474 
f 197//197 200//200 612//474 
f 200//200 416//414 612//474 
f 419//417 422//420 613//474 
f 422//420 194//194 613//474 
f 194//194 197//197 613//474 
f 197//197 419//417 613//474 
f 422//420 425//423 614//474 
f 425//423 191//191 614//474 
f 191//191 194//194 614//474 
f 194//194 422//420 614//474 
f 425//423 428//426 615//474 
f 428//426 188//188 615//474 
f 188//188 191//191 615//474 
f 191//191 425//423 615//474 
f 428//426 431//429 616//474 
f 431//429 185//185 616//474 
f 185//185 188//188 616//474 
f 188//188 428//426 616//474 
f 431//429 434//432 617//474 
f 434//432 182//182 617//474 
f 182//182 185//185 617//474 
f 185//185 431//429 617//474 
f 434//432 437//435 618//474 
f 437//435 179//179 618//474 
f 179//179 182//182 618//474 
f 182//182 434//432 618//474 
f 437//435 440//438 619//474 
f 440//438 176//176 619//474 
f 176//176 179//179 619//474 
f 179//179 437//435 619//474 
f 440//438 443//441 620//474 
f 443//441 173//173 620//474 
f 173//173 176//176 620//474 
f 176//176 440//438 620//474 
f 443//441 446//444 621//474 
f 446//444 170//170 621//474 
f 170//170 173//173 621//474 
f 173//173 443//441 621//474 
f 446//444 449//447 622//474 
f 449//447 167//167 622//474 
f 167//167 170//170 622//474 
f 170//170 446//444 622//474 
f 449//447 452//450 623//474 
f 452//450 164//164 623//474 
f 164//164 167//167 623//474 
f 167//167 449//447 623//474 
f 452//450 455//453 624//474 
f 455//453 161//161 624//474 
f 161//161 164//164 624//474 
f 164//164 452//450 624//474 
f 455//453 458//456 625//474 
f 458//456 158//158 625//474 
f 158//158 161//161 625//474 
f 161//161 455//453 625//474 
f 458//456 461//459 626//474 
f 461//459 155//155 626//474 
f 155//155 158//158 626//474 
f 158//158 458//456 626//474 
f 461//459 464//462 627//474 
f 464//462 149//149 627//474 
f 149//149 152//152 627//474 
f 152//152 155//155 627//474 
f 155//155 461//459 627//474 
f 464//462 467//465 628//474 
f 467//465 146//146 628//474 
f 146//146 149//149 628//474 
f 149//149 464//462 628//474 
f 467//465 470//468 629//474 
f 470//468 143//143 629//474 
f 143//143 146//146 629//474 
f 146//146 467//465 629//474 
f 470//468 473//471 630//474 
f 473//471 143//143 630//474 
f 143//143 470//468 630//474 
f 473//471 371//369 631//474 
f 371//369 143//143 631//474 
f 143//143 473//471 631//474 
f 371//369 370//368 632//474 
f 370//368 143//143 632//474 
f 143//143 371//369 632//474 
f 370//368 374//372 633//474 
f 374//372 143//143 633//474 
f 143//143 370//368 633//474 
f 374//372 377//375 634//474 
f 377//375 143//143 634//474 
f 143//143 374//372 634//474 
# 2 polygons - 1264 triangles

