# 3ds Max Wavefront OBJ Exporter v0.97b - (c)2007 guruware
# File Created: 07.12.2021 20:33:19

#
# object Number_0
#

v  566.5656 0.0000 106.6187
v  564.4494 0.0000 106.7954
v  565.5075 5.0000 106.7070
v  564.4494 10.0000 106.7954
v  566.5656 10.0000 106.6187
v  562.4404 0.0000 107.0900
v  563.4449 5.0000 106.9427
v  562.4404 10.0000 107.0900
v  560.5387 0.0000 107.5024
v  561.4896 5.0000 107.2962
v  560.5387 10.0000 107.5024
v  558.7441 0.0000 108.0326
v  559.6414 5.0000 107.7675
v  558.7441 10.0000 108.0326
v  557.0566 0.0000 108.6807
v  557.9004 5.0000 108.3566
v  557.0566 10.0000 108.6807
v  555.4764 0.0000 109.4466
v  556.2665 5.0000 109.0636
v  555.4764 10.0000 109.4466
v  554.0034 0.0000 110.3303
v  554.7399 5.0000 109.8884
v  554.0034 10.0000 110.3303
v  552.6375 0.0000 111.3318
v  553.3204 5.0000 110.8311
v  552.6375 10.0000 111.3318
v  551.3981 0.0000 112.4400
v  552.0178 5.0000 111.8859
v  551.3981 10.0000 112.4400
v  550.3044 0.0000 113.6437
v  550.8513 5.0000 113.0419
v  550.3044 10.0000 113.6437
v  549.3567 0.0000 114.9428
v  549.8306 5.0000 114.2933
v  549.3567 10.0000 114.9428
v  548.5547 0.0000 116.3374
v  548.9557 5.0000 115.6401
v  548.5547 10.0000 116.3374
v  547.8986 0.0000 117.8275
v  548.2267 5.0000 117.0825
v  547.8986 10.0000 117.8275
v  547.3882 0.0000 119.4131
v  547.6434 5.0000 118.6203
v  547.3882 10.0000 119.4131
v  547.0237 0.0000 121.0941
v  547.2059 5.0000 120.2536
v  547.0237 10.0000 121.0941
v  546.8050 0.0000 122.8705
v  546.9143 5.0000 121.9823
v  546.8050 10.0000 122.8705
v  546.7321 0.0000 124.7425
v  546.7686 5.0000 123.8065
v  546.7321 10.0000 124.7425
v  546.8054 0.0000 126.6402
v  546.7687 5.0000 125.6913
v  546.8054 10.0000 126.6402
v  547.0252 0.0000 128.4401
v  546.9153 5.0000 127.5401
v  547.0252 10.0000 128.4401
v  547.3916 0.0000 130.1424
v  547.2084 5.0000 129.2912
v  547.3916 10.0000 130.1424
v  547.9045 0.0000 131.7469
v  547.6481 5.0000 130.9446
v  547.9045 10.0000 131.7469
v  548.5640 0.0000 133.2538
v  548.2343 5.0000 132.5003
v  548.5640 10.0000 133.2538
v  549.3701 0.0000 134.6629
v  548.9671 5.0000 133.9583
v  549.3701 10.0000 134.6629
v  550.3228 0.0000 135.9743
v  549.8464 5.0000 135.3186
v  550.3228 10.0000 135.9743
v  551.4219 0.0000 137.1881
v  550.8723 5.0000 136.5812
v  551.4219 10.0000 137.1881
v  552.6677 0.0000 138.3041
v  552.0448 5.0000 137.7461
v  552.6677 10.0000 138.3041
v  554.0436 0.0000 139.3120
v  553.3556 5.0000 138.8080
v  554.0436 10.0000 139.3120
v  555.5334 0.0000 140.2013
v  554.7885 5.0000 139.7566
v  555.5334 10.0000 140.2013
v  557.1371 0.0000 140.9720
v  556.3353 5.0000 140.5867
v  557.1371 10.0000 140.9720
v  558.8548 0.0000 141.6242
v  557.9960 5.0000 141.2981
v  558.8548 10.0000 141.6242
v  560.6863 0.0000 142.1578
v  559.7705 5.0000 141.8910
v  560.6863 10.0000 142.1578
v  562.6317 0.0000 142.5728
v  561.6589 5.0000 142.3653
v  562.6317 10.0000 142.5728
v  564.6909 0.0000 142.8692
v  563.6613 5.0000 142.7210
v  564.6909 10.0000 142.8692
v  566.8641 0.0000 143.0471
v  565.7775 5.0000 142.9581
v  566.8641 10.0000 143.0471
v  569.1511 0.0000 143.1064
v  568.0076 5.0000 143.0767
v  569.1511 10.0000 143.1064
v  571.2369 0.0000 143.0478
v  570.1940 5.0000 143.0771
v  571.2369 10.0000 143.0478
v  573.2357 0.0000 142.8722
v  572.2363 5.0000 142.9600
v  573.2357 10.0000 142.8722
v  575.1473 0.0000 142.5795
v  574.1915 5.0000 142.7258
v  575.1473 10.0000 142.5795
v  576.9719 0.0000 142.1697
v  576.0596 5.0000 142.3746
v  576.9719 10.0000 142.1697
v  578.7095 0.0000 141.6428
v  577.8408 5.0000 141.9063
v  578.7095 10.0000 141.6428
v  580.3600 0.0000 140.9989
v  579.5348 5.0000 141.3208
v  580.3600 10.0000 140.9989
v  581.9235 0.0000 140.2378
v  581.1418 5.0000 140.6183
v  581.9235 10.0000 140.2378
v  583.4000 0.0000 139.3597
v  582.6617 5.0000 139.7987
v  583.4000 10.0000 139.3597
v  584.7893 0.0000 138.3645
v  584.0947 5.0000 138.8621
v  584.7893 10.0000 138.3645
v  586.0604 0.0000 137.2596
v  585.4249 5.0000 137.8120
v  586.0604 10.0000 137.2596
v  587.1819 0.0000 136.0526
v  586.6212 5.0000 136.6561
v  587.1819 10.0000 136.0526
v  588.1539 0.0000 134.7434
v  587.6680 5.0000 135.3980
v  588.1539 10.0000 134.7434
v  588.9764 0.0000 133.3320
v  588.5652 5.0000 134.0377
v  588.9764 10.0000 133.3320
v  589.6494 0.0000 131.8185
v  589.3129 5.0000 132.5752
v  589.6494 10.0000 131.8185
v  590.1727 0.0000 130.2027
v  589.9110 5.0000 131.0106
v  590.1727 10.0000 130.2027
v  590.5466 0.0000 128.4848
v  590.3596 5.0000 129.3438
v  590.5466 10.0000 128.4848
v  590.7709 0.0000 126.6647
v  590.6587 5.0000 127.5748
v  590.7709 10.0000 126.6647
v  590.8456 0.0000 124.7425
v  590.8082 5.0000 125.7036
v  590.8456 10.0000 124.7425
v  590.7649 0.0000 122.6861
v  590.8053 5.0000 123.7143
v  590.7649 10.0000 122.6861
v  590.5227 0.0000 120.7587
v  590.6438 5.0000 121.7224
v  590.5227 10.0000 120.7587
v  590.1190 0.0000 118.9602
v  590.3209 5.0000 119.8595
v  590.1190 10.0000 118.9602
v  589.5539 0.0000 117.2908
v  589.8365 5.0000 118.1255
v  589.5539 10.0000 117.2908
v  588.8273 0.0000 115.7505
v  589.1906 5.0000 116.5207
v  588.8273 10.0000 115.7505
v  587.9393 0.0000 114.3391
v  588.3833 5.0000 115.0448
v  587.9393 10.0000 114.3391
v  586.8898 0.0000 113.0567
v  587.4146 5.0000 113.6979
v  586.8898 10.0000 113.0567
v  585.6788 0.0000 111.9034
v  586.2843 5.0000 112.4800
v  585.6788 10.0000 111.9034
v  584.3063 0.0000 110.8790
v  584.9926 5.0000 111.3912
v  584.3063 10.0000 110.8790
v  582.8231 0.0000 109.9725
v  583.5647 5.0000 110.4258
v  582.8231 10.0000 109.9725
v  581.2795 0.0000 109.1726
v  582.0513 5.0000 109.5726
v  581.2795 10.0000 109.1726
v  579.6758 0.0000 108.4794
v  580.4777 5.0000 108.8260
v  579.6758 10.0000 108.4794
v  578.0118 0.0000 107.8929
v  578.8439 5.0000 108.1861
v  578.0118 10.0000 107.8929
v  576.2877 0.0000 107.4129
v  577.1498 5.0000 107.6529
v  576.2877 10.0000 107.4129
v  574.5034 0.0000 107.0397
v  575.3955 5.0000 107.2263
v  574.5034 10.0000 107.0397
v  572.6587 0.0000 106.7730
v  573.5811 5.0000 106.9063
v  572.6587 10.0000 106.7730
v  570.7539 0.0000 106.6131
v  571.7063 5.0000 106.6930
v  570.7539 10.0000 106.6131
v  568.7889 0.0000 106.5597
v  569.7714 5.0000 106.5864
v  568.7889 10.0000 106.5597
v  567.6772 5.0000 106.5892
v  556.2270 0.0000 122.3893
v  556.6981 0.0000 120.1886
v  556.4625 5.0000 121.2889
v  556.6981 10.0000 120.1886
v  556.2270 10.0000 122.3893
v  557.4832 0.0000 118.2813
v  557.0906 5.0000 119.2349
v  557.4832 10.0000 118.2813
v  558.5823 0.0000 116.6675
v  558.0328 5.0000 117.4744
v  558.5823 10.0000 116.6675
v  559.9955 0.0000 115.3471
v  559.2889 5.0000 116.0073
v  559.9955 10.0000 115.3471
v  561.7228 0.0000 114.3201
v  560.8592 5.0000 114.8336
v  561.7228 10.0000 114.3201
v  563.7641 0.0000 113.5865
v  562.7435 5.0000 113.9533
v  563.7641 10.0000 113.5865
v  566.1194 0.0000 113.1464
v  564.9418 5.0000 113.3665
v  566.1194 10.0000 113.1464
v  568.7889 0.0000 112.9997
v  567.4542 5.0000 113.0730
v  568.7889 10.0000 112.9997
v  571.4583 0.0000 113.1464
v  570.1235 5.0000 113.0730
v  571.4583 10.0000 113.1464
v  573.8136 0.0000 113.5865
v  572.6359 5.0000 113.3665
v  573.8136 10.0000 113.5865
v  575.8549 0.0000 114.3201
v  574.8342 5.0000 113.9533
v  575.8549 10.0000 114.3201
v  577.5822 0.0000 115.3471
v  576.7185 5.0000 114.8336
v  577.5822 10.0000 115.3471
v  578.9954 0.0000 116.6675
v  578.2888 5.0000 116.0073
v  578.9954 10.0000 116.6675
v  580.0945 0.0000 118.2813
v  579.5449 5.0000 117.4744
v  580.0945 10.0000 118.2813
v  580.8796 0.0000 120.1886
v  580.4871 5.0000 119.2349
v  580.8796 10.0000 120.1886
v  581.3507 0.0000 122.3893
v  581.1152 5.0000 121.2889
v  581.3507 10.0000 122.3893
v  581.5078 0.0000 124.8834
v  581.4292 5.0000 123.6363
v  581.5078 10.0000 124.8834
v  581.3477 0.0000 127.3901
v  581.4277 5.0000 126.1368
v  581.3477 10.0000 127.3901
v  580.8677 0.0000 129.6020
v  581.1077 5.0000 128.4961
v  580.8677 10.0000 129.6020
v  580.0677 0.0000 131.5190
v  580.4677 5.0000 130.5605
v  580.0677 10.0000 131.5190
v  578.9476 0.0000 133.1410
v  579.5077 5.0000 132.3300
v  578.9476 10.0000 133.1410
v  577.5076 0.0000 134.4681
v  578.2277 5.0000 133.8046
v  577.5076 10.0000 134.4681
v  575.7476 0.0000 135.5003
v  576.6276 5.0000 134.9842
v  575.7476 10.0000 135.5003
v  573.6675 0.0000 136.2376
v  574.7075 5.0000 135.8690
v  573.6675 10.0000 136.2376
v  571.2675 0.0000 136.6800
v  572.4675 5.0000 136.4588
v  571.2675 10.0000 136.6800
v  568.5474 0.0000 136.8274
v  569.9074 5.0000 136.7537
v  568.5474 10.0000 136.8274
v  567.3286 0.0000 136.7881
v  567.9380 5.0000 136.8078
v  567.3286 10.0000 136.7881
v  566.1635 0.0000 136.6702
v  566.7460 5.0000 136.7292
v  566.1635 10.0000 136.6702
v  565.0518 0.0000 136.4737
v  565.6076 5.0000 136.5720
v  565.0518 10.0000 136.4737
v  563.9937 0.0000 136.1986
v  564.5228 5.0000 136.3362
v  563.9937 10.0000 136.1986
v  562.9891 0.0000 135.8449
v  563.4914 5.0000 136.0217
v  562.9891 10.0000 135.8449
v  562.0381 0.0000 135.4126
v  562.5136 5.0000 135.6287
v  562.0381 10.0000 135.4126
v  561.1406 0.0000 134.9016
v  561.5894 5.0000 135.1571
v  561.1406 10.0000 134.9016
v  560.2967 0.0000 134.3121
v  560.7186 5.0000 134.6068
v  560.2967 10.0000 134.3121
v  559.5063 0.0000 133.6439
v  559.9015 5.0000 133.9780
v  559.5063 10.0000 133.6439
v  558.7851 0.0000 132.9070
v  559.1457 5.0000 133.2755
v  558.7851 10.0000 132.9070
v  558.1487 0.0000 132.1109
v  558.4669 5.0000 132.5089
v  558.1487 10.0000 132.1109
v  557.5972 0.0000 131.2557
v  557.8730 5.0000 131.6833
v  557.5972 10.0000 131.2557
v  557.1306 0.0000 130.3414
v  557.3639 5.0000 130.7985
v  557.1306 10.0000 130.3414
v  556.7488 0.0000 129.3680
v  556.9397 5.0000 129.8547
v  556.7488 10.0000 129.3680
v  556.4518 0.0000 128.3355
v  556.6003 5.0000 128.8517
v  556.4518 10.0000 128.3355
v  556.2397 0.0000 127.2439
v  556.3458 5.0000 127.7897
v  556.2397 10.0000 127.2439
v  556.1124 0.0000 126.0932
v  556.1760 5.0000 126.6685
v  556.1124 10.0000 126.0932
v  556.0700 0.0000 124.8834
v  556.0912 5.0000 125.4883
v  556.0700 10.0000 124.8834
v  556.1485 5.0000 123.6363
v  554.4420 0.0000 115.2581
v  555.6533 0.0000 113.9466
v  555.6533 10.0000 113.9466
v  560.8403 0.0000 112.6882
v  551.7159 0.0000 116.8702
v  551.0471 0.0000 120.1825
v  550.5715 0.0000 123.1959
v  551.4299 0.0000 125.5898
v  551.5457 0.0000 127.1043
v  551.7771 0.0000 128.5405
v  552.1241 0.0000 129.8982
v  551.9436 0.0000 131.8746
v  553.6052 0.0000 133.0586
v  554.3727 0.0000 134.1322
v  555.2559 0.0000 135.1275
v  556.2507 0.0000 136.0417
v  557.3450 0.0000 136.8673
v  558.5270 0.0000 137.5968
v  559.7927 0.0000 138.2276
v  561.1421 0.0000 138.7598
v  562.5752 0.0000 139.1935
v  564.0920 0.0000 139.5286
v  565.3021 0.0000 138.6711
v  566.2618 0.0000 139.8437
v  567.9728 0.0000 139.9422
v  570.0507 0.0000 139.9154
v  572.9109 0.0000 140.2834
v  576.0488 0.0000 139.6260
v  578.8497 0.0000 138.5696
v  581.3136 0.0000 137.1142
v  583.4094 0.0000 135.2673
v  585.8162 0.0000 132.8446
v  586.5168 0.0000 129.4996
v  587.0037 0.0000 126.4331
v  586.9984 0.0000 123.0920
v  586.4852 0.0000 119.9175
v  585.4589 0.0000 117.1701
v  583.9196 0.0000 114.8496
v  581.7775 0.0000 112.3237
v  578.4808 0.0000 111.0424
v  575.9920 0.0000 110.8031
v  573.7443 0.0000 109.5917
v  570.4897 0.0000 109.2184
v  561.3008 0.0000 109.0445
v  559.3748 0.0000 113.0795
v  558.1186 0.0000 113.6663
v  561.3008 10.0000 109.0445
v  558.1186 10.0000 113.6663
v  559.3748 10.0000 113.0795
v  560.8403 10.0000 112.6882
v  570.4897 10.0000 109.2184
v  573.7443 10.0000 109.5917
v  575.9920 10.0000 110.8031
v  578.4808 10.0000 111.0424
v  581.7775 10.0000 112.3237
v  583.9196 10.0000 114.8496
v  585.4589 10.0000 117.1701
v  586.4852 10.0000 119.9175
v  586.9984 10.0000 123.0920
v  587.0037 10.0000 126.4331
v  586.5168 10.0000 129.4996
v  585.8162 10.0000 132.8446
v  583.4094 10.0000 135.2673
v  581.3136 10.0000 137.1142
v  578.8497 10.0000 138.5696
v  576.0488 10.0000 139.6260
v  572.9109 10.0000 140.2834
v  570.0507 10.0000 139.9154
v  567.9728 10.0000 139.9422
v  566.2618 10.0000 139.8437
v  565.3021 10.0000 138.6711
v  564.0920 10.0000 139.5286
v  562.5752 10.0000 139.1935
v  561.1421 10.0000 138.7598
v  559.7927 10.0000 138.2276
v  558.5270 10.0000 137.5968
v  557.3450 10.0000 136.8673
v  556.2507 10.0000 136.0417
v  555.2559 10.0000 135.1275
v  554.3727 10.0000 134.1322
v  553.6052 10.0000 133.0586
v  551.9436 10.0000 131.8746
v  552.1241 10.0000 129.8982
v  551.7771 10.0000 128.5405
v  551.5457 10.0000 127.1043
v  551.4299 10.0000 125.5898
v  550.5715 10.0000 123.1959
v  551.0471 10.0000 120.1825
v  551.7159 10.0000 116.8702
v  554.4420 10.0000 115.2581
# 441 vertices

vn -0.0392 -0.7008 -0.7123
vn -0.0815 -0.7002 -0.7093
vn -0.0832 0.0000 -0.9965
vn -0.0815 0.7002 -0.7093
vn -0.0392 0.7008 -0.7123
vn -0.1276 -0.6995 -0.7031
vn -0.1451 0.0000 -0.9894
vn -0.1276 0.6995 -0.7031
vn -0.1772 -0.6989 -0.6929
vn -0.2119 0.0000 -0.9773
vn -0.1772 0.6989 -0.6929
vn -0.2299 -0.6983 -0.6779
vn -0.2833 0.0000 -0.9590
vn -0.2299 0.6983 -0.6779
vn -0.2849 -0.6977 -0.6573
vn -0.3585 0.0000 -0.9335
vn -0.2849 0.6977 -0.6573
vn -0.3411 -0.6972 -0.6305
vn -0.4361 0.0000 -0.8999
vn -0.3411 0.6972 -0.6305
vn -0.3970 -0.6969 -0.5973
vn -0.5144 0.0000 -0.8575
vn -0.3970 0.6969 -0.5973
vn -0.4519 -0.6964 -0.5575
vn -0.5913 0.0000 -0.8064
vn -0.4519 0.6964 -0.5575
vn -0.5060 -0.6956 -0.5100
vn -0.6666 0.0000 -0.7455
vn -0.5060 0.6956 -0.5100
vn -0.5571 -0.6952 -0.4541
vn -0.7401 0.0000 -0.6725
vn -0.5571 0.6952 -0.4541
vn -0.6029 -0.6951 -0.3916
vn -0.8079 0.0000 -0.5894
vn -0.6029 0.6951 -0.3916
vn -0.6414 -0.6953 -0.3244
vn -0.8669 0.0000 -0.4985
vn -0.6414 0.6953 -0.3244
vn -0.6715 -0.6957 -0.2551
vn -0.9152 0.0000 -0.4030
vn -0.6715 0.6957 -0.2551
vn -0.6932 -0.6963 -0.1862
vn -0.9519 0.0000 -0.3064
vn -0.6932 0.6963 -0.1862
vn -0.7070 -0.6970 -0.1199
vn -0.9773 0.0000 -0.2119
vn -0.7070 0.6970 -0.1199
vn -0.7139 -0.6978 -0.0577
vn -0.9925 0.0000 -0.1222
vn -0.7139 0.6978 -0.0577
vn -0.7156 -0.6985 -0.0001
vn -0.9992 0.0000 -0.0389
vn -0.7156 0.6985 -0.0001
vn -0.7139 -0.6979 0.0573
vn -0.9993 0.0000 0.0386
vn -0.7139 0.6979 0.0573
vn -0.7071 -0.6971 0.1190
vn -0.9926 0.0000 0.1212
vn -0.7071 0.6971 0.1190
vn -0.6935 -0.6963 0.1850
vn -0.9776 0.0000 0.2104
vn -0.6935 0.6963 0.1850
vn -0.6720 -0.6957 0.2537
vn -0.9525 0.0000 0.3045
vn -0.6720 0.6957 0.2537
vn -0.6421 -0.6953 0.3230
vn -0.9161 0.0000 0.4010
vn -0.6421 0.6953 0.3230
vn -0.6037 -0.6951 0.3903
vn -0.8680 0.0000 0.4965
vn -0.6037 0.6951 0.3903
vn -0.5580 -0.6952 0.4531
vn -0.8091 0.0000 0.5877
vn -0.5580 0.6952 0.4531
vn -0.5067 -0.6956 0.5094
vn -0.7412 0.0000 0.6713
vn -0.5067 0.6956 0.5094
vn -0.4521 -0.6962 0.5576
vn -0.6673 0.0000 0.7448
vn -0.4521 0.6962 0.5576
vn -0.3962 -0.6967 0.5980
vn -0.5909 0.0000 0.8067
vn -0.3962 0.6967 0.5980
vn -0.3394 -0.6971 0.6316
vn -0.5125 0.0000 0.8587
vn -0.3394 0.6971 0.6316
vn -0.2826 -0.6977 0.6584
vn -0.4332 0.0000 0.9013
vn -0.2826 0.6977 0.6584
vn -0.2273 -0.6983 0.6788
vn -0.3550 0.0000 0.9349
vn -0.2273 0.6983 0.6788
vn -0.1747 -0.6990 0.6935
vn -0.2797 0.0000 0.9601
vn -0.1747 0.6990 0.6935
vn -0.1255 -0.6996 0.7034
vn -0.2086 0.0000 0.9780
vn -0.1255 0.6996 0.7034
vn -0.0800 -0.7003 0.7094
vn -0.1425 0.0000 0.9898
vn -0.0800 0.7003 0.7094
vn -0.0383 -0.7009 0.7122
vn -0.0816 0.0000 0.9967
vn -0.0383 0.7009 0.7122
vn 0.0008 -0.7011 0.7131
vn -0.0259 0.0000 0.9997
vn 0.0008 0.7011 0.7131
vn 0.0413 -0.7005 0.7125
vn 0.0281 0.0000 0.9996
vn 0.0413 0.7005 0.7125
vn 0.0853 -0.6999 0.7091
vn 0.0875 0.0000 0.9962
vn 0.0853 0.6999 0.7091
vn 0.1325 -0.6994 0.7023
vn 0.1514 0.0000 0.9885
vn 0.1325 0.6994 0.7023
vn 0.1822 -0.6989 0.6916
vn 0.2191 0.0000 0.9757
vn 0.1822 0.6989 0.6916
vn 0.2341 -0.6985 0.6763
vn 0.2902 0.0000 0.9570
vn 0.2341 0.6985 0.6763
vn 0.2870 -0.6981 0.6559
vn 0.3635 0.0000 0.9316
vn 0.2870 0.6981 0.6559
vn 0.3401 -0.6978 0.6304
vn 0.4377 0.0000 0.8991
vn 0.3401 0.6978 0.6304
vn 0.3921 -0.6977 0.5996
vn 0.5112 0.0000 0.8595
vn 0.3921 0.6977 0.5996
vn 0.4447 -0.6967 0.5629
vn 0.5823 0.0000 0.8130
vn 0.4447 0.6967 0.5629
vn 0.4997 -0.6953 0.5166
vn 0.6560 0.0000 0.7547
vn 0.4997 0.6953 0.5166
vn 0.5529 -0.6949 0.4598
vn 0.7326 0.0000 0.6807
vn 0.5529 0.6949 0.4598
vn 0.6003 -0.6948 0.3960
vn 0.8029 0.0000 0.5961
vn 0.6003 0.6948 0.3960
vn 0.6401 -0.6950 0.3275
vn 0.8640 0.0000 0.5035
vn 0.6401 0.6950 0.3275
vn 0.6710 -0.6955 0.2570
vn 0.9138 0.0000 0.4063
vn 0.6710 0.6955 0.2570
vn 0.6931 -0.6961 0.1872
vn 0.9513 0.0000 0.3082
vn 0.6931 0.6961 0.1872
vn 0.7070 -0.6969 0.1202
vn 0.9771 0.0000 0.2126
vn 0.7070 0.6969 0.1202
vn 0.7140 -0.6978 0.0578
vn 0.9925 0.0000 0.1223
vn 0.7140 0.6978 0.0578
vn 0.7157 -0.6984 -0.0001
vn 0.9992 0.0000 0.0389
vn 0.7157 0.6984 -0.0001
vn 0.7141 -0.6976 -0.0588
vn 0.9992 0.0000 -0.0392
vn 0.7141 0.6976 -0.0588
vn 0.7069 -0.6965 -0.1234
vn 0.9922 0.0000 -0.1247
vn 0.7069 0.6965 -0.1234
vn 0.6919 -0.6954 -0.1942
vn 0.9757 0.0000 -0.2190
vn 0.6919 0.6954 -0.1942
vn 0.6672 -0.6945 -0.2693
vn 0.9472 0.0000 -0.3206
vn 0.6672 0.6945 -0.2693
vn 0.6316 -0.6938 -0.3460
vn 0.9044 0.0000 -0.4266
vn 0.6316 0.6938 -0.3460
vn 0.5849 -0.6934 -0.4209
vn 0.8464 0.0000 -0.5326
vn 0.5849 0.6934 -0.4209
vn 0.5283 -0.6934 -0.4900
vn 0.7739 0.0000 -0.6334
vn 0.5283 0.6934 -0.4900
vn 0.4645 -0.6939 -0.5503
vn 0.6897 0.0000 -0.7241
vn 0.4645 0.6939 -0.5503
vn 0.4019 -0.6968 -0.5940
vn 0.5981 0.0000 -0.8014
vn 0.4019 0.6968 -0.5940
vn 0.3511 -0.6993 -0.6227
vn 0.5215 0.0000 -0.8533
vn 0.3511 0.6993 -0.6227
vn 0.3064 -0.6993 -0.6458
vn 0.4601 0.0000 -0.8879
vn 0.3064 0.6993 -0.6458
vn 0.2608 -0.6994 -0.6655
vn 0.3968 0.0000 -0.9179
vn 0.2608 0.6994 -0.6655
vn 0.2147 -0.6996 -0.6815
vn 0.3325 0.0000 -0.9431
vn 0.2147 0.6996 -0.6815
vn 0.1690 -0.6998 -0.6940
vn 0.2682 0.0000 -0.9634
vn 0.1690 0.6998 -0.6940
vn 0.1242 -0.7001 -0.7031
vn 0.2048 0.0000 -0.9788
vn 0.1242 0.7001 -0.7031
vn 0.0810 -0.7004 -0.7091
vn 0.1431 0.0000 -0.9897
vn 0.0810 0.7004 -0.7091
vn 0.0395 -0.7008 -0.7123
vn 0.0837 0.0000 -0.9965
vn 0.0395 0.7008 -0.7123
vn 0.0002 -0.7011 -0.7130
vn 0.0271 0.0000 -0.9996
vn 0.0002 0.7011 -0.7130
vn -0.0265 0.0000 -0.9996
vn 0.6832 -0.7241 0.0941
vn 0.6550 -0.7279 0.2031
vn 0.9778 0.0000 0.2093
vn 0.6550 0.7279 0.2031
vn 0.6832 0.7241 0.0941
vn 0.6006 -0.7312 0.3236
vn 0.9247 0.0000 0.3807
vn 0.6006 0.7312 0.3236
vn 0.5166 -0.7328 0.4428
vn 0.8265 0.0000 0.5629
vn 0.5166 0.7328 0.4428
vn 0.4090 -0.7321 0.5448
vn 0.6827 0.0000 0.7307
vn 0.4090 0.7321 0.5448
vn 0.2919 -0.7293 0.6189
vn 0.5111 0.0000 0.8595
vn 0.2919 0.7293 0.6189
vn 0.1801 -0.7256 0.6641
vn 0.3382 0.0000 0.9411
vn 0.1801 0.7256 0.6641
vn 0.0827 -0.7220 0.6869
vn 0.1837 0.0000 0.9830
vn 0.0827 0.7220 0.6869
vn -0.0000 -0.7197 0.6943
vn 0.0549 0.0000 0.9985
vn -0.0000 0.7197 0.6943
vn -0.0827 -0.7220 0.6869
vn -0.0549 0.0000 0.9985
vn -0.0827 0.7220 0.6869
vn -0.1801 -0.7256 0.6641
vn -0.1837 0.0000 0.9830
vn -0.1801 0.7256 0.6641
vn -0.2919 -0.7293 0.6189
vn -0.3382 0.0000 0.9411
vn -0.2919 0.7293 0.6189
vn -0.4090 -0.7321 0.5448
vn -0.5111 0.0000 0.8595
vn -0.4090 0.7321 0.5448
vn -0.5166 -0.7328 0.4428
vn -0.6827 0.0000 0.7307
vn -0.5166 0.7328 0.4428
vn -0.6006 -0.7312 0.3236
vn -0.8265 0.0000 0.5629
vn -0.6006 0.7312 0.3236
vn -0.6550 -0.7279 0.2031
vn -0.9247 0.0000 0.3807
vn -0.6550 0.7279 0.2031
vn -0.6832 -0.7241 0.0941
vn -0.9778 0.0000 0.2093
vn -0.6832 0.7241 0.0941
vn -0.6923 -0.7216 -0.0003
vn -0.9980 0.0000 0.0628
vn -0.6923 0.7216 -0.0003
vn -0.6828 -0.7244 -0.0953
vn -0.9980 0.0000 -0.0637
vn -0.6828 0.7244 -0.0953
vn -0.6539 -0.7281 -0.2055
vn -0.9773 0.0000 -0.2121
vn -0.6539 0.7281 -0.2055
vn -0.5986 -0.7314 -0.3269
vn -0.9229 0.0000 -0.3851
vn -0.5986 0.7314 -0.3269
vn -0.5136 -0.7329 -0.4462
vn -0.8229 0.0000 -0.5682
vn -0.5136 0.7329 -0.4462
vn -0.4055 -0.7320 -0.5475
vn -0.6777 0.0000 -0.7354
vn -0.4055 0.7320 -0.5475
vn -0.2888 -0.7291 -0.6205
vn -0.5059 0.0000 -0.8626
vn -0.2888 0.7291 -0.6205
vn -0.1779 -0.7254 -0.6650
vn -0.3341 0.0000 -0.9425
vn -0.1779 0.7254 -0.6650
vn -0.0816 -0.7218 -0.6873
vn -0.1813 0.0000 -0.9834
vn -0.0816 0.7218 -0.6873
vn -0.0076 -0.7170 -0.6971
vn -0.0541 0.0000 -0.9985
vn -0.0076 0.7170 -0.6971
vn 0.0465 -0.7149 -0.6977
vn 0.0322 0.0000 -0.9995
vn 0.0465 0.7149 -0.6977
vn 0.0960 -0.7155 -0.6919
vn 0.1007 0.0000 -0.9949
vn 0.0960 0.7155 -0.6919
vn 0.1487 -0.7162 -0.6819
vn 0.1741 0.0000 -0.9847
vn 0.1487 0.7162 -0.6819
vn 0.2037 -0.7167 -0.6670
vn 0.2516 0.0000 -0.9678
vn 0.2037 0.7167 -0.6670
vn 0.2602 -0.7172 -0.6465
vn 0.3321 0.0000 -0.9432
vn 0.2602 0.7172 -0.6465
vn 0.3168 -0.7175 -0.6204
vn 0.4138 0.0000 -0.9103
vn 0.3168 0.7175 -0.6204
vn 0.3721 -0.7176 -0.5887
vn 0.4947 0.0000 -0.8690
vn 0.3721 0.7176 -0.5887
vn 0.4247 -0.7176 -0.5520
vn 0.5727 0.0000 -0.8198
vn 0.4247 0.7176 -0.5520
vn 0.4740 -0.7179 -0.5098
vn 0.6456 0.0000 -0.7637
vn 0.4740 0.7179 -0.5098
vn 0.5208 -0.7186 -0.4609
vn 0.7147 0.0000 -0.6994
vn 0.5208 0.7186 -0.4609
vn 0.5645 -0.7187 -0.4060
vn 0.7811 0.0000 -0.6244
vn 0.5645 0.7187 -0.4060
vn 0.6027 -0.7186 -0.3469
vn 0.8404 0.0000 -0.5420
vn 0.6027 0.7186 -0.3469
vn 0.6344 -0.7183 -0.2855
vn 0.8907 0.0000 -0.4546
vn 0.6344 0.7183 -0.2855
vn 0.6594 -0.7178 -0.2236
vn 0.9309 0.0000 -0.3652
vn 0.6594 0.7178 -0.2236
vn 0.6776 -0.7172 -0.1629
vn 0.9610 0.0000 -0.2764
vn 0.6776 0.7172 -0.1629
vn 0.6897 -0.7164 -0.1050
vn 0.9816 0.0000 -0.1908
vn 0.6897 0.7164 -0.1050
vn 0.6966 -0.7157 -0.0507
vn 0.9939 0.0000 -0.1099
vn 0.6966 0.7157 -0.0507
vn 0.6957 -0.7183 0.0097
vn 0.9994 0.0000 -0.0350
vn 0.6957 0.7183 0.0097
vn 0.9980 0.0000 0.0628
vn 0.0000 -1.0000 -0.0000
vn 0.0000 1.0000 -0.0000
# 353 vertex normals

o Number_0
g Number_0
s 1
f 1//1 2//2 3//3 
f 2//2 4//4 3//3 
f 4//4 5//5 3//3 
f 5//5 1//1 3//3 
s 3
f 2//2 6//6 7//7 
f 6//6 8//8 7//7 
f 8//8 4//4 7//7 
f 4//4 2//2 7//7 
s 2
f 6//6 9//9 10//10 
f 9//9 11//11 10//10 
f 11//11 8//8 10//10 
f 8//8 6//6 10//10 
f 9//9 12//12 13//13 
f 12//12 14//14 13//13 
f 14//14 11//11 13//13 
f 11//11 9//9 13//13 
f 12//12 15//15 16//16 
f 15//15 17//17 16//16 
f 17//17 14//14 16//16 
f 14//14 12//12 16//16 
f 15//15 18//18 19//19 
f 18//18 20//20 19//19 
f 20//20 17//17 19//19 
f 17//17 15//15 19//19 
f 18//18 21//21 22//22 
f 21//21 23//23 22//22 
f 23//23 20//20 22//22 
f 20//20 18//18 22//22 
f 21//21 24//24 25//25 
f 24//24 26//26 25//25 
f 26//26 23//23 25//25 
f 23//23 21//21 25//25 
f 24//24 27//27 28//28 
f 27//27 29//29 28//28 
f 29//29 26//26 28//28 
f 26//26 24//24 28//28 
f 27//27 30//30 31//31 
f 30//30 32//32 31//31 
f 32//32 29//29 31//31 
f 29//29 27//27 31//31 
f 30//30 33//33 34//34 
f 33//33 35//35 34//34 
f 35//35 32//32 34//34 
f 32//32 30//30 34//34 
f 33//33 36//36 37//37 
f 36//36 38//38 37//37 
f 38//38 35//35 37//37 
f 35//35 33//33 37//37 
f 36//36 39//39 40//40 
f 39//39 41//41 40//40 
f 41//41 38//38 40//40 
f 38//38 36//36 40//40 
f 39//39 42//42 43//43 
f 42//42 44//44 43//43 
f 44//44 41//41 43//43 
f 41//41 39//39 43//43 
f 42//42 45//45 46//46 
f 45//45 47//47 46//46 
f 47//47 44//44 46//46 
f 44//44 42//42 46//46 
f 45//45 48//48 49//49 
f 48//48 50//50 49//49 
f 50//50 47//47 49//49 
f 47//47 45//45 49//49 
f 48//48 51//51 52//52 
f 51//51 53//53 52//52 
f 53//53 50//50 52//52 
f 50//50 48//48 52//52 
f 51//51 54//54 55//55 
f 54//54 56//56 55//55 
f 56//56 53//53 55//55 
f 53//53 51//51 55//55 
f 54//54 57//57 58//58 
f 57//57 59//59 58//58 
f 59//59 56//56 58//58 
f 56//56 54//54 58//58 
f 57//57 60//60 61//61 
f 60//60 62//62 61//61 
f 62//62 59//59 61//61 
f 59//59 57//57 61//61 
f 60//60 63//63 64//64 
f 63//63 65//65 64//64 
f 65//65 62//62 64//64 
f 62//62 60//60 64//64 
f 63//63 66//66 67//67 
f 66//66 68//68 67//67 
f 68//68 65//65 67//67 
f 65//65 63//63 67//67 
f 66//66 69//69 70//70 
f 69//69 71//71 70//70 
f 71//71 68//68 70//70 
f 68//68 66//66 70//70 
f 69//69 72//72 73//73 
f 72//72 74//74 73//73 
f 74//74 71//71 73//73 
f 71//71 69//69 73//73 
f 72//72 75//75 76//76 
f 75//75 77//77 76//76 
f 77//77 74//74 76//76 
f 74//74 72//72 76//76 
f 75//75 78//78 79//79 
f 78//78 80//80 79//79 
f 80//80 77//77 79//79 
f 77//77 75//75 79//79 
f 78//78 81//81 82//82 
f 81//81 83//83 82//82 
f 83//83 80//80 82//82 
f 80//80 78//78 82//82 
f 81//81 84//84 85//85 
f 84//84 86//86 85//85 
f 86//86 83//83 85//85 
f 83//83 81//81 85//85 
f 84//84 87//87 88//88 
f 87//87 89//89 88//88 
f 89//89 86//86 88//88 
f 86//86 84//84 88//88 
f 87//87 90//90 91//91 
f 90//90 92//92 91//91 
f 92//92 89//89 91//91 
f 89//89 87//87 91//91 
f 90//90 93//93 94//94 
f 93//93 95//95 94//94 
f 95//95 92//92 94//94 
f 92//92 90//90 94//94 
f 93//93 96//96 97//97 
f 96//96 98//98 97//97 
f 98//98 95//95 97//97 
f 95//95 93//93 97//97 
f 96//96 99//99 100//100 
f 99//99 101//101 100//100 
f 101//101 98//98 100//100 
f 98//98 96//96 100//100 
f 99//99 102//102 103//103 
f 102//102 104//104 103//103 
f 104//104 101//101 103//103 
f 101//101 99//99 103//103 
f 102//102 105//105 106//106 
f 105//105 107//107 106//106 
f 107//107 104//104 106//106 
f 104//104 102//102 106//106 
f 105//105 108//108 109//109 
f 108//108 110//110 109//109 
f 110//110 107//107 109//109 
f 107//107 105//105 109//109 
f 108//108 111//111 112//112 
f 111//111 113//113 112//112 
f 113//113 110//110 112//112 
f 110//110 108//108 112//112 
f 111//111 114//114 115//115 
f 114//114 116//116 115//115 
f 116//116 113//113 115//115 
f 113//113 111//111 115//115 
f 114//114 117//117 118//118 
f 117//117 119//119 118//118 
f 119//119 116//116 118//118 
f 116//116 114//114 118//118 
f 117//117 120//120 121//121 
f 120//120 122//122 121//121 
f 122//122 119//119 121//121 
f 119//119 117//117 121//121 
f 120//120 123//123 124//124 
f 123//123 125//125 124//124 
f 125//125 122//122 124//124 
f 122//122 120//120 124//124 
f 123//123 126//126 127//127 
f 126//126 128//128 127//127 
f 128//128 125//125 127//127 
f 125//125 123//123 127//127 
f 126//126 129//129 130//130 
f 129//129 131//131 130//130 
f 131//131 128//128 130//130 
f 128//128 126//126 130//130 
f 129//129 132//132 133//133 
f 132//132 134//134 133//133 
f 134//134 131//131 133//133 
f 131//131 129//129 133//133 
f 132//132 135//135 136//136 
f 135//135 137//137 136//136 
f 137//137 134//134 136//136 
f 134//134 132//132 136//136 
f 135//135 138//138 139//139 
f 138//138 140//140 139//139 
f 140//140 137//137 139//139 
f 137//137 135//135 139//139 
f 138//138 141//141 142//142 
f 141//141 143//143 142//142 
f 143//143 140//140 142//142 
f 140//140 138//138 142//142 
f 141//141 144//144 145//145 
f 144//144 146//146 145//145 
f 146//146 143//143 145//145 
f 143//143 141//141 145//145 
f 144//144 147//147 148//148 
f 147//147 149//149 148//148 
f 149//149 146//146 148//148 
f 146//146 144//144 148//148 
f 147//147 150//150 151//151 
f 150//150 152//152 151//151 
f 152//152 149//149 151//151 
f 149//149 147//147 151//151 
f 150//150 153//153 154//154 
f 153//153 155//155 154//154 
f 155//155 152//152 154//154 
f 152//152 150//150 154//154 
f 153//153 156//156 157//157 
f 156//156 158//158 157//157 
f 158//158 155//155 157//157 
f 155//155 153//153 157//157 
f 156//156 159//159 160//160 
f 159//159 161//161 160//160 
f 161//161 158//158 160//160 
f 158//158 156//156 160//160 
f 159//159 162//162 163//163 
f 162//162 164//164 163//163 
f 164//164 161//161 163//163 
f 161//161 159//159 163//163 
f 162//162 165//165 166//166 
f 165//165 167//167 166//166 
f 167//167 164//164 166//166 
f 164//164 162//162 166//166 
f 165//165 168//168 169//169 
f 168//168 170//170 169//169 
f 170//170 167//167 169//169 
f 167//167 165//165 169//169 
f 168//168 171//171 172//172 
f 171//171 173//173 172//172 
f 173//173 170//170 172//172 
f 170//170 168//168 172//172 
f 171//171 174//174 175//175 
f 174//174 176//176 175//175 
f 176//176 173//173 175//175 
f 173//173 171//171 175//175 
f 174//174 177//177 178//178 
f 177//177 179//179 178//178 
f 179//179 176//176 178//178 
f 176//176 174//174 178//178 
f 177//177 180//180 181//181 
f 180//180 182//182 181//181 
f 182//182 179//179 181//181 
f 179//179 177//177 181//181 
f 180//180 183//183 184//184 
f 183//183 185//185 184//184 
f 185//185 182//182 184//184 
f 182//182 180//180 184//184 
f 183//183 186//186 187//187 
f 186//186 188//188 187//187 
f 188//188 185//185 187//187 
f 185//185 183//183 187//187 
f 186//186 189//189 190//190 
f 189//189 191//191 190//190 
f 191//191 188//188 190//190 
f 188//188 186//186 190//190 
f 189//189 192//192 193//193 
f 192//192 194//194 193//193 
f 194//194 191//191 193//193 
f 191//191 189//189 193//193 
f 192//192 195//195 196//196 
f 195//195 197//197 196//196 
f 197//197 194//194 196//196 
f 194//194 192//192 196//196 
f 195//195 198//198 199//199 
f 198//198 200//200 199//199 
f 200//200 197//197 199//199 
f 197//197 195//195 199//199 
f 198//198 201//201 202//202 
f 201//201 203//203 202//202 
f 203//203 200//200 202//202 
f 200//200 198//198 202//202 
f 201//201 204//204 205//205 
f 204//204 206//206 205//205 
f 206//206 203//203 205//205 
f 203//203 201//201 205//205 
f 204//204 207//207 208//208 
f 207//207 209//209 208//208 
f 209//209 206//206 208//208 
f 206//206 204//204 208//208 
f 207//207 210//210 211//211 
f 210//210 212//212 211//211 
f 212//212 209//209 211//211 
f 209//209 207//207 211//211 
f 210//210 213//213 214//214 
f 213//213 215//215 214//214 
f 215//215 212//212 214//214 
f 212//212 210//210 214//214 
s 3
f 213//213 1//1 216//216 
f 1//1 5//5 216//216 
f 5//5 215//215 216//216 
f 215//215 213//213 216//216 
s 1
f 217//217 218//218 219//219 
f 218//218 220//220 219//219 
f 220//220 221//221 219//219 
f 221//221 217//217 219//219 
s 3
f 218//218 222//222 223//223 
f 222//222 224//224 223//223 
f 224//224 220//220 223//223 
f 220//220 218//218 223//223 
s 2
f 222//222 225//225 226//226 
f 225//225 227//227 226//226 
f 227//227 224//224 226//226 
f 224//224 222//222 226//226 
f 225//225 228//228 229//229 
f 228//228 230//230 229//229 
f 230//230 227//227 229//229 
f 227//227 225//225 229//229 
f 228//228 231//231 232//232 
f 231//231 233//233 232//232 
f 233//233 230//230 232//232 
f 230//230 228//228 232//232 
f 231//231 234//234 235//235 
f 234//234 236//236 235//235 
f 236//236 233//233 235//235 
f 233//233 231//231 235//235 
f 234//234 237//237 238//238 
f 237//237 239//239 238//238 
f 239//239 236//236 238//238 
f 236//236 234//234 238//238 
f 237//237 240//240 241//241 
f 240//240 242//242 241//241 
f 242//242 239//239 241//241 
f 239//239 237//237 241//241 
f 240//240 243//243 244//244 
f 243//243 245//245 244//244 
f 245//245 242//242 244//244 
f 242//242 240//240 244//244 
f 243//243 246//246 247//247 
f 246//246 248//248 247//247 
f 248//248 245//245 247//247 
f 245//245 243//243 247//247 
f 246//246 249//249 250//250 
f 249//249 251//251 250//250 
f 251//251 248//248 250//250 
f 248//248 246//246 250//250 
f 249//249 252//252 253//253 
f 252//252 254//254 253//253 
f 254//254 251//251 253//253 
f 251//251 249//249 253//253 
f 252//252 255//255 256//256 
f 255//255 257//257 256//256 
f 257//257 254//254 256//256 
f 254//254 252//252 256//256 
f 255//255 258//258 259//259 
f 258//258 260//260 259//259 
f 260//260 257//257 259//259 
f 257//257 255//255 259//259 
f 258//258 261//261 262//262 
f 261//261 263//263 262//262 
f 263//263 260//260 262//262 
f 260//260 258//258 262//262 
f 261//261 264//264 265//265 
f 264//264 266//266 265//265 
f 266//266 263//263 265//265 
f 263//263 261//261 265//265 
f 264//264 267//267 268//268 
f 267//267 269//269 268//268 
f 269//269 266//266 268//268 
f 266//266 264//264 268//268 
f 267//267 270//270 271//271 
f 270//270 272//272 271//271 
f 272//272 269//269 271//271 
f 269//269 267//267 271//271 
f 270//270 273//273 274//274 
f 273//273 275//275 274//274 
f 275//275 272//272 274//274 
f 272//272 270//270 274//274 
f 273//273 276//276 277//277 
f 276//276 278//278 277//277 
f 278//278 275//275 277//277 
f 275//275 273//273 277//277 
f 276//276 279//279 280//280 
f 279//279 281//281 280//280 
f 281//281 278//278 280//280 
f 278//278 276//276 280//280 
f 279//279 282//282 283//283 
f 282//282 284//284 283//283 
f 284//284 281//281 283//283 
f 281//281 279//279 283//283 
f 282//282 285//285 286//286 
f 285//285 287//287 286//286 
f 287//287 284//284 286//286 
f 284//284 282//282 286//286 
f 285//285 288//288 289//289 
f 288//288 290//290 289//289 
f 290//290 287//287 289//289 
f 287//287 285//285 289//289 
f 288//288 291//291 292//292 
f 291//291 293//293 292//292 
f 293//293 290//290 292//292 
f 290//290 288//288 292//292 
f 291//291 294//294 295//295 
f 294//294 296//296 295//295 
f 296//296 293//293 295//295 
f 293//293 291//291 295//295 
f 294//294 297//297 298//298 
f 297//297 299//299 298//298 
f 299//299 296//296 298//298 
f 296//296 294//294 298//298 
f 297//297 300//300 301//301 
f 300//300 302//302 301//301 
f 302//302 299//299 301//301 
f 299//299 297//297 301//301 
f 300//300 303//303 304//304 
f 303//303 305//305 304//304 
f 305//305 302//302 304//304 
f 302//302 300//300 304//304 
f 303//303 306//306 307//307 
f 306//306 308//308 307//307 
f 308//308 305//305 307//307 
f 305//305 303//303 307//307 
f 306//306 309//309 310//310 
f 309//309 311//311 310//310 
f 311//311 308//308 310//310 
f 308//308 306//306 310//310 
f 309//309 312//312 313//313 
f 312//312 314//314 313//313 
f 314//314 311//311 313//313 
f 311//311 309//309 313//313 
f 312//312 315//315 316//316 
f 315//315 317//317 316//316 
f 317//317 314//314 316//316 
f 314//314 312//312 316//316 
f 315//315 318//318 319//319 
f 318//318 320//320 319//319 
f 320//320 317//317 319//319 
f 317//317 315//315 319//319 
f 318//318 321//321 322//322 
f 321//321 323//323 322//322 
f 323//323 320//320 322//322 
f 320//320 318//318 322//322 
f 321//321 324//324 325//325 
f 324//324 326//326 325//325 
f 326//326 323//323 325//325 
f 323//323 321//321 325//325 
f 324//324 327//327 328//328 
f 327//327 329//329 328//328 
f 329//329 326//326 328//328 
f 326//326 324//324 328//328 
f 327//327 330//330 331//331 
f 330//330 332//332 331//331 
f 332//332 329//329 331//331 
f 329//329 327//327 331//331 
f 330//330 333//333 334//334 
f 333//333 335//335 334//334 
f 335//335 332//332 334//334 
f 332//332 330//330 334//334 
f 333//333 336//336 337//337 
f 336//336 338//338 337//337 
f 338//338 335//335 337//337 
f 335//335 333//333 337//337 
f 336//336 339//339 340//340 
f 339//339 341//341 340//340 
f 341//341 338//338 340//340 
f 338//338 336//336 340//340 
f 339//339 342//342 343//343 
f 342//342 344//344 343//343 
f 344//344 341//341 343//343 
f 341//341 339//339 343//343 
f 342//342 345//345 346//346 
f 345//345 347//347 346//346 
f 347//347 344//344 346//346 
f 344//344 342//342 346//346 
f 345//345 348//348 349//349 
f 348//348 350//350 349//349 
f 350//350 347//347 349//349 
f 347//347 345//345 349//349 
s 3
f 348//348 217//217 351//351 
f 217//217 221//221 351//351 
f 221//221 350//350 351//351 
f 350//350 348//348 351//351 
s 16
f 30//30 27//27 352//352 
f 27//27 353//352 225//225 352//352 
f 225//225 222//222 352//352 
f 222//222 30//30 352//352 
f 26//26 29//29 354//353 
f 227//227 230//230 354//353 
f 230//230 26//26 354//353 
f 237//237 234//234 355//352 
f 234//234 24//24 355//352 
f 24//24 237//237 355//352 
f 222//222 218//218 356//352 
f 218//218 39//39 356//352 
f 39//39 36//36 356//352 
f 36//36 33//33 356//352 
f 33//33 30//30 356//352 
f 30//30 222//222 356//352 
f 218//218 217//217 357//352 
f 217//217 45//45 357//352 
f 45//45 42//42 357//352 
f 42//42 39//39 357//352 
f 39//39 218//218 357//352 
f 217//217 348//348 358//352 
f 348//348 51//51 358//352 
f 51//51 48//48 358//352 
f 48//48 45//45 358//352 
f 45//45 217//217 358//352 
f 348//348 345//345 359//352 
f 345//345 54//54 359//352 
f 54//54 51//51 359//352 
f 51//51 348//348 359//352 
f 345//345 342//342 360//352 
f 342//342 57//57 360//352 
f 57//57 54//54 360//352 
f 54//54 345//345 360//352 
f 342//342 339//339 361//352 
f 339//339 60//60 361//352 
f 60//60 57//57 361//352 
f 57//57 342//342 361//352 
f 339//339 336//336 362//352 
f 336//336 63//63 362//352 
f 63//63 60//60 362//352 
f 60//60 339//339 362//352 
f 336//336 333//333 363//352 
f 333//333 69//69 363//352 
f 69//69 66//66 363//352 
f 66//66 63//63 363//352 
f 63//63 336//336 363//352 
f 333//333 330//330 364//352 
f 330//330 72//72 364//352 
f 72//72 69//69 364//352 
f 69//69 333//333 364//352 
f 330//330 327//327 365//352 
f 327//327 75//75 365//352 
f 75//75 72//72 365//352 
f 72//72 330//330 365//352 
f 327//327 324//324 366//352 
f 324//324 78//78 366//352 
f 78//78 75//75 366//352 
f 75//75 327//327 366//352 
f 324//324 321//321 367//352 
f 321//321 81//81 367//352 
f 81//81 78//78 367//352 
f 78//78 324//324 367//352 
f 321//321 318//318 368//352 
f 318//318 84//84 368//352 
f 84//84 81//81 368//352 
f 81//81 321//321 368//352 
f 318//318 315//315 369//352 
f 315//315 87//87 369//352 
f 87//87 84//84 369//352 
f 84//84 318//318 369//352 
f 315//315 312//312 370//352 
f 312//312 90//90 370//352 
f 90//90 87//87 370//352 
f 87//87 315//315 370//352 
f 312//312 309//309 371//352 
f 309//309 93//93 371//352 
f 93//93 90//90 371//352 
f 90//90 312//312 371//352 
f 309//309 306//306 372//352 
f 306//306 96//96 372//352 
f 96//96 93//93 372//352 
f 93//93 309//309 372//352 
f 306//306 303//303 373//352 
f 303//303 99//99 373//352 
f 99//99 96//96 373//352 
f 96//96 306//306 373//352 
f 303//303 300//300 374//352 
f 300//300 99//99 374//352 
f 99//99 303//303 374//352 
f 300//300 297//297 375//352 
f 297//297 102//102 375//352 
f 102//102 99//99 375//352 
f 99//99 300//300 375//352 
f 297//297 294//294 376//352 
f 294//294 105//105 376//352 
f 105//105 102//102 376//352 
f 102//102 297//297 376//352 
f 294//294 291//291 377//352 
f 291//291 108//108 377//352 
f 108//108 105//105 377//352 
f 105//105 294//294 377//352 
f 291//291 288//288 378//352 
f 288//288 114//114 378//352 
f 114//114 111//111 378//352 
f 111//111 108//108 378//352 
f 108//108 291//291 378//352 
f 288//288 285//285 379//352 
f 285//285 120//120 379//352 
f 120//120 117//117 379//352 
f 117//117 114//114 379//352 
f 114//114 288//288 379//352 
f 285//285 282//282 380//352 
f 282//282 126//126 380//352 
f 126//126 123//123 380//352 
f 123//123 120//120 380//352 
f 120//120 285//285 380//352 
f 282//282 279//279 381//352 
f 279//279 132//132 381//352 
f 132//132 129//129 381//352 
f 129//129 126//126 381//352 
f 126//126 282//282 381//352 
f 279//279 276//276 382//352 
f 276//276 138//138 382//352 
f 138//138 135//135 382//352 
f 135//135 132//132 382//352 
f 132//132 279//279 382//352 
f 276//276 273//273 383//352 
f 273//273 147//147 383//352 
f 147//147 144//144 383//352 
f 144//144 141//141 383//352 
f 141//141 138//138 383//352 
f 138//138 276//276 383//352 
f 273//273 270//270 384//352 
f 270//270 153//153 384//352 
f 153//153 150//150 384//352 
f 150//150 147//147 384//352 
f 147//147 273//273 384//352 
f 270//270 267//267 385//352 
f 267//267 159//159 385//352 
f 159//159 156//156 385//352 
f 156//156 153//153 385//352 
f 153//153 270//270 385//352 
f 267//267 264//264 386//352 
f 264//264 165//165 386//352 
f 165//165 162//162 386//352 
f 162//162 159//159 386//352 
f 159//159 267//267 386//352 
f 264//264 261//261 387//352 
f 261//261 171//171 387//352 
f 171//171 168//168 387//352 
f 168//168 165//165 387//352 
f 165//165 264//264 387//352 
f 261//261 258//258 388//352 
f 258//258 177//177 388//352 
f 177//177 174//174 388//352 
f 174//174 171//171 388//352 
f 171//171 261//261 388//352 
f 258//258 255//255 389//352 
f 255//255 183//183 389//352 
f 183//183 180//180 389//352 
f 180//180 177//177 389//352 
f 177//177 258//258 389//352 
f 255//255 252//252 390//352 
f 252//252 192//192 390//352 
f 192//192 189//189 390//352 
f 189//189 186//186 390//352 
f 186//186 183//183 390//352 
f 183//183 255//255 390//352 
f 252//252 249//249 391//352 
f 249//249 198//198 391//352 
f 198//198 195//195 391//352 
f 195//195 192//192 391//352 
f 192//192 252//252 391//352 
f 249//249 246//246 392//352 
f 246//246 201//201 392//352 
f 201//201 198//198 392//352 
f 198//198 249//249 392//352 
f 246//246 243//243 393//352 
f 243//243 207//207 393//352 
f 207//207 204//204 393//352 
f 204//204 201//201 393//352 
f 201//201 246//246 393//352 
f 243//243 240//240 394//352 
f 240//240 213//213 394//352 
f 213//213 210//210 394//352 
f 210//210 207//207 394//352 
f 207//207 243//243 394//352 
f 240//240 237//237 395//352 
f 237//237 24//24 395//352 
f 24//24 21//21 395//352 
f 21//21 18//18 395//352 
f 18//18 15//15 395//352 
f 15//15 12//12 395//352 
f 12//12 9//9 395//352 
f 9//9 6//6 395//352 
f 6//6 2//2 395//352 
f 2//2 1//1 395//352 
f 1//1 213//213 395//352 
f 213//213 240//240 395//352 
f 234//234 231//231 396//352 
f 231//231 24//24 396//352 
f 24//24 234//234 396//352 
f 231//231 228//228 397//352 
f 228//228 24//24 397//352 
f 24//24 231//231 397//352 
f 228//228 225//225 353//352 
f 27//27 24//24 353//352 
f 24//24 228//228 353//352 
f 239//239 242//242 398//353 
f 242//242 215//215 398//353 
f 215//215 5//5 398//353 
f 5//5 4//4 398//353 
f 4//4 8//8 398//353 
f 8//8 11//11 398//353 
f 11//11 14//14 398//353 
f 14//14 17//17 398//353 
f 17//17 20//20 398//353 
f 20//20 23//23 398//353 
f 23//23 26//26 398//353 
f 26//26 239//239 398//353 
f 230//230 233//233 399//353 
f 233//233 26//26 399//353 
f 26//26 230//230 399//353 
f 233//233 236//236 400//353 
f 236//236 26//26 400//353 
f 26//26 233//233 400//353 
f 236//236 239//239 401//353 
f 239//239 26//26 401//353 
f 26//26 236//236 401//353 
f 242//242 245//245 402//353 
f 245//245 209//209 402//353 
f 209//209 212//212 402//353 
f 212//212 215//215 402//353 
f 215//215 242//242 402//353 
f 245//245 248//248 403//353 
f 248//248 203//203 403//353 
f 203//203 206//206 403//353 
f 206//206 209//209 403//353 
f 209//209 245//245 403//353 
f 248//248 251//251 404//353 
f 251//251 200//200 404//353 
f 200//200 203//203 404//353 
f 203//203 248//248 404//353 
f 251//251 254//254 405//353 
f 254//254 194//194 405//353 
f 194//194 197//197 405//353 
f 197//197 200//200 405//353 
f 200//200 251//251 405//353 
f 254//254 257//257 406//353 
f 257//257 185//185 406//353 
f 185//185 188//188 406//353 
f 188//188 191//191 406//353 
f 191//191 194//194 406//353 
f 194//194 254//254 406//353 
f 257//257 260//260 407//353 
f 260//260 179//179 407//353 
f 179//179 182//182 407//353 
f 182//182 185//185 407//353 
f 185//185 257//257 407//353 
f 260//260 263//263 408//353 
f 263//263 173//173 408//353 
f 173//173 176//176 408//353 
f 176//176 179//179 408//353 
f 179//179 260//260 408//353 
f 263//263 266//266 409//353 
f 266//266 167//167 409//353 
f 167//167 170//170 409//353 
f 170//170 173//173 409//353 
f 173//173 263//263 409//353 
f 266//266 269//269 410//353 
f 269//269 161//161 410//353 
f 161//161 164//164 410//353 
f 164//164 167//167 410//353 
f 167//167 266//266 410//353 
f 269//269 272//272 411//353 
f 272//272 155//155 411//353 
f 155//155 158//158 411//353 
f 158//158 161//161 411//353 
f 161//161 269//269 411//353 
f 272//272 275//275 412//353 
f 275//275 149//149 412//353 
f 149//149 152//152 412//353 
f 152//152 155//155 412//353 
f 155//155 272//272 412//353 
f 275//275 278//278 413//353 
f 278//278 140//140 413//353 
f 140//140 143//143 413//353 
f 143//143 146//146 413//353 
f 146//146 149//149 413//353 
f 149//149 275//275 413//353 
f 278//278 281//281 414//353 
f 281//281 134//134 414//353 
f 134//134 137//137 414//353 
f 137//137 140//140 414//353 
f 140//140 278//278 414//353 
f 281//281 284//284 415//353 
f 284//284 128//128 415//353 
f 128//128 131//131 415//353 
f 131//131 134//134 415//353 
f 134//134 281//281 415//353 
f 284//284 287//287 416//353 
f 287//287 122//122 416//353 
f 122//122 125//125 416//353 
f 125//125 128//128 416//353 
f 128//128 284//284 416//353 
f 287//287 290//290 417//353 
f 290//290 116//116 417//353 
f 116//116 119//119 417//353 
f 119//119 122//122 417//353 
f 122//122 287//287 417//353 
f 290//290 293//293 418//353 
f 293//293 110//110 418//353 
f 110//110 113//113 418//353 
f 113//113 116//116 418//353 
f 116//116 290//290 418//353 
f 293//293 296//296 419//353 
f 296//296 107//107 419//353 
f 107//107 110//110 419//353 
f 110//110 293//293 419//353 
f 296//296 299//299 420//353 
f 299//299 104//104 420//353 
f 104//104 107//107 420//353 
f 107//107 296//296 420//353 
f 299//299 302//302 421//353 
f 302//302 101//101 421//353 
f 101//101 104//104 421//353 
f 104//104 299//299 421//353 
f 302//302 305//305 422//353 
f 305//305 101//101 422//353 
f 101//101 302//302 422//353 
f 305//305 308//308 423//353 
f 308//308 98//98 423//353 
f 98//98 101//101 423//353 
f 101//101 305//305 423//353 
f 308//308 311//311 424//353 
f 311//311 95//95 424//353 
f 95//95 98//98 424//353 
f 98//98 308//308 424//353 
f 311//311 314//314 425//353 
f 314//314 92//92 425//353 
f 92//92 95//95 425//353 
f 95//95 311//311 425//353 
f 314//314 317//317 426//353 
f 317//317 89//89 426//353 
f 89//89 92//92 426//353 
f 92//92 314//314 426//353 
f 317//317 320//320 427//353 
f 320//320 86//86 427//353 
f 86//86 89//89 427//353 
f 89//89 317//317 427//353 
f 320//320 323//323 428//353 
f 323//323 83//83 428//353 
f 83//83 86//86 428//353 
f 86//86 320//320 428//353 
f 323//323 326//326 429//353 
f 326//326 80//80 429//353 
f 80//80 83//83 429//353 
f 83//83 323//323 429//353 
f 326//326 329//329 430//353 
f 329//329 77//77 430//353 
f 77//77 80//80 430//353 
f 80//80 326//326 430//353 
f 329//329 332//332 431//353 
f 332//332 74//74 431//353 
f 74//74 77//77 431//353 
f 77//77 329//329 431//353 
f 332//332 335//335 432//353 
f 335//335 71//71 432//353 
f 71//71 74//74 432//353 
f 74//74 332//332 432//353 
f 335//335 338//338 433//353 
f 338//338 65//65 433//353 
f 65//65 68//68 433//353 
f 68//68 71//71 433//353 
f 71//71 335//335 433//353 
f 338//338 341//341 434//353 
f 341//341 62//62 434//353 
f 62//62 65//65 434//353 
f 65//65 338//338 434//353 
f 341//341 344//344 435//353 
f 344//344 59//59 435//353 
f 59//59 62//62 435//353 
f 62//62 341//341 435//353 
f 344//344 347//347 436//353 
f 347//347 56//56 436//353 
f 56//56 59//59 436//353 
f 59//59 344//344 436//353 
f 347//347 350//350 437//353 
f 350//350 53//53 437//353 
f 53//53 56//56 437//353 
f 56//56 347//347 437//353 
f 350//350 221//221 438//353 
f 221//221 47//47 438//353 
f 47//47 50//50 438//353 
f 50//50 53//53 438//353 
f 53//53 350//350 438//353 
f 221//221 220//220 439//353 
f 220//220 41//41 439//353 
f 41//41 44//44 439//353 
f 44//44 47//47 439//353 
f 47//47 221//221 439//353 
f 220//220 224//224 440//353 
f 224//224 32//32 440//353 
f 32//32 35//35 440//353 
f 35//35 38//38 440//353 
f 38//38 41//41 440//353 
f 41//41 220//220 440//353 
f 224//224 227//227 441//353 
f 227//227 354//353 29//29 441//353 
f 29//29 32//32 441//353 
f 32//32 224//224 441//353 
# 2 polygons - 878 triangles

