# 3ds Max Wavefront OBJ Exporter v0.97b - (c)2007 guruware
# File Created: 07.12.2021 20:33:36

#
# object Number_1
#

v  622.0716 0.0000 135.8435
v  621.6607 0.0000 136.1119
v  621.8661 5.0000 135.9777
v  621.6607 10.0000 136.1119
v  622.0716 10.0000 135.8435
v  621.2618 0.0000 136.3444
v  621.4612 5.0000 136.2281
v  621.2618 10.0000 136.3444
v  620.8747 0.0000 136.5412
v  621.0682 5.0000 136.4428
v  620.8747 10.0000 136.5412
v  620.4996 0.0000 136.7022
v  620.6872 5.0000 136.6217
v  620.4996 10.0000 136.7022
v  620.1364 0.0000 136.8274
v  620.3181 5.0000 136.7648
v  620.1364 10.0000 136.8274
v  619.7852 0.0000 136.9169
v  619.9608 5.0000 136.8721
v  619.7852 10.0000 136.9169
v  619.4459 0.0000 136.9705
v  619.6155 5.0000 136.9437
v  619.4459 10.0000 136.9705
v  619.1185 0.0000 136.9884
v  619.2822 5.0000 136.9795
v  619.1185 10.0000 136.9884
v  618.3307 0.0000 136.9466
v  618.7246 5.0000 136.9675
v  618.3307 10.0000 136.9466
v  617.5807 0.0000 136.8213
v  617.9557 5.0000 136.8840
v  617.5807 10.0000 136.8213
v  616.8687 0.0000 136.6125
v  617.2247 5.0000 136.7169
v  616.8687 10.0000 136.6125
v  616.1944 0.0000 136.3201
v  616.5316 5.0000 136.4663
v  616.1944 10.0000 136.3201
v  615.5580 0.0000 135.9441
v  615.8762 5.0000 136.1321
v  615.5580 10.0000 135.9441
v  614.9594 0.0000 135.4846
v  615.2587 5.0000 135.7144
v  614.9594 10.0000 135.4846
v  614.3986 0.0000 134.9416
v  614.6790 5.0000 135.2131
v  614.3986 10.0000 134.9416
v  613.8755 0.0000 134.3150
v  614.1371 5.0000 134.6283
v  613.8755 10.0000 134.3150
v  613.3904 0.0000 133.6049
v  613.6330 5.0000 133.9600
v  613.3904 10.0000 133.6049
v  612.9501 0.0000 132.8394
v  613.1703 5.0000 133.2222
v  612.9501 10.0000 132.8394
v  612.5616 0.0000 132.0465
v  612.7559 5.0000 132.4429
v  612.5616 10.0000 132.0465
v  612.2249 0.0000 131.2263
v  612.3932 5.0000 131.6364
v  612.2249 10.0000 131.2263
v  611.9399 0.0000 130.3788
v  612.0824 5.0000 130.8025
v  611.9399 10.0000 130.3788
v  611.7068 0.0000 129.5039
v  611.8234 5.0000 129.9413
v  611.7068 10.0000 129.5039
v  611.5255 0.0000 128.6017
v  611.6162 5.0000 129.0528
v  611.5255 10.0000 128.6017
v  611.3961 0.0000 127.6722
v  611.4608 5.0000 128.1369
v  611.3961 10.0000 127.6722
v  611.3184 0.0000 126.7153
v  611.3572 5.0000 127.1937
v  611.3184 10.0000 126.7153
v  611.2924 0.0000 125.7311
v  611.3054 5.0000 126.2232
v  611.2924 10.0000 125.7311
v  611.3366 0.0000 124.5893
v  611.3145 5.0000 125.1602
v  611.3366 10.0000 124.5893
v  611.4692 0.0000 123.4792
v  611.4030 5.0000 124.0343
v  611.4692 10.0000 123.4792
v  611.6903 0.0000 122.4010
v  611.5798 5.0000 122.9401
v  611.6903 10.0000 122.4010
v  611.9998 0.0000 121.3546
v  611.8450 5.0000 121.8778
v  611.9998 10.0000 121.3546
v  612.3976 0.0000 120.3400
v  612.1987 5.0000 120.8473
v  612.3976 10.0000 120.3400
v  612.8840 0.0000 119.3571
v  612.6408 5.0000 119.8485
v  612.8840 10.0000 119.3571
v  613.4587 0.0000 118.4061
v  613.1713 5.0000 118.8816
v  613.4587 10.0000 118.4061
v  614.1218 0.0000 117.4869
v  613.7902 5.0000 117.9465
v  614.1218 10.0000 117.4869
v  614.8734 0.0000 116.5995
v  614.4976 5.0000 117.0432
v  614.8734 10.0000 116.5995
v  615.7051 0.0000 115.7764
v  615.2892 5.0000 116.1879
v  615.7051 10.0000 115.7764
v  616.6087 0.0000 115.0501
v  616.1569 5.0000 115.4133
v  616.6087 10.0000 115.0501
v  617.5842 0.0000 114.4207
v  617.0965 5.0000 114.7354
v  617.5842 10.0000 114.4207
v  618.6317 0.0000 113.8881
v  618.1079 5.0000 114.1544
v  618.6317 10.0000 113.8881
v  619.7509 0.0000 113.4523
v  619.1913 5.0000 113.6702
v  619.7509 10.0000 113.4523
v  620.9421 0.0000 113.1134
v  620.3466 5.0000 113.2829
v  620.9421 10.0000 113.1134
v  622.2052 0.0000 112.8713
v  621.5737 5.0000 112.9924
v  622.2052 10.0000 112.8713
v  623.5402 0.0000 112.7261
v  622.8727 5.0000 112.7987
v  623.5402 10.0000 112.7261
v  624.9471 0.0000 112.6777
v  624.2437 5.0000 112.7019
v  624.9471 10.0000 112.6777
v  627.7242 0.0000 112.8429
v  626.3356 5.0000 112.7603
v  627.7242 10.0000 112.8429
v  630.1746 0.0000 113.3388
v  628.9494 5.0000 113.0909
v  630.1746 10.0000 113.3388
v  632.2982 0.0000 114.1652
v  631.2364 5.0000 113.7520
v  632.2982 10.0000 114.1652
v  634.0952 0.0000 115.3222
v  633.1967 5.0000 114.7437
v  634.0952 10.0000 115.3222
v  635.5654 0.0000 116.8098
v  634.8303 5.0000 116.0660
v  635.5654 10.0000 116.8098
v  636.7089 0.0000 118.6279
v  636.1371 5.0000 117.7188
v  636.7089 10.0000 118.6279
v  637.5258 0.0000 120.7766
v  637.1173 5.0000 119.7022
v  637.5258 10.0000 120.7766
v  638.0158 0.0000 123.2558
v  637.7708 5.0000 122.0162
v  638.0158 10.0000 123.2558
v  638.1791 0.0000 126.0657
v  638.0975 5.0000 124.6608
v  638.1791 10.0000 126.0657
v  638.0837 0.0000 128.7845
v  638.1315 5.0000 127.4251
v  638.0837 10.0000 128.7845
v  637.7975 0.0000 131.2859
v  637.9407 5.0000 130.0352
v  637.7975 10.0000 131.2859
v  637.3205 0.0000 133.5700
v  637.5590 5.0000 132.4280
v  637.3205 10.0000 133.5700
v  636.6526 0.0000 135.6366
v  636.9866 5.0000 134.6033
v  636.6526 10.0000 135.6366
v  635.7940 0.0000 137.4859
v  636.2233 5.0000 136.5613
v  635.7940 10.0000 137.4859
v  634.7445 0.0000 139.1177
v  635.2693 5.0000 138.3018
v  634.7445 10.0000 139.1177
v  633.5043 0.0000 140.5322
v  634.1244 5.0000 139.8250
v  633.5043 10.0000 140.5322
v  632.0731 0.0000 141.7292
v  632.7887 5.0000 141.1307
v  632.0731 10.0000 141.7292
v  630.4512 0.0000 142.7089
v  631.2622 5.0000 142.2191
v  630.4512 10.0000 142.7089
v  635.7390 0.0000 146.8093
v  633.0952 5.0000 144.7591
v  635.7390 10.0000 146.8093
v  636.9012 0.0000 146.1922
v  636.3201 5.0000 146.5008
v  636.9012 10.0000 146.1922
v  638.0106 0.0000 145.4926
v  637.4559 5.0000 145.8424
v  638.0106 10.0000 145.4926
v  639.0674 0.0000 144.7105
v  638.5391 5.0000 145.1015
v  639.0674 10.0000 144.7105
v  640.0716 0.0000 143.8457
v  639.5695 5.0000 144.2781
v  640.0716 10.0000 143.8457
v  641.0230 0.0000 142.8985
v  640.5473 5.0000 143.3721
v  641.0230 10.0000 142.8985
v  641.9218 0.0000 141.8687
v  641.4724 5.0000 142.3836
v  641.9218 10.0000 141.8687
v  642.7679 0.0000 140.7563
v  642.3448 5.0000 141.3125
v  642.7679 10.0000 140.7563
v  643.5613 0.0000 139.5614
v  643.1646 5.0000 140.1589
v  643.5613 10.0000 139.5614
v  644.3021 0.0000 138.2840
v  643.9318 5.0000 138.9227
v  644.3021 10.0000 138.2840
v  644.9769 0.0000 136.9574
v  644.6395 5.0000 137.6207
v  644.9769 10.0000 136.9574
v  645.5722 0.0000 135.6152
v  645.2745 5.0000 136.2863
v  645.5722 10.0000 135.6152
v  646.0882 0.0000 134.2573
v  645.8302 5.0000 134.9362
v  646.0882 10.0000 134.2573
v  646.5248 0.0000 132.8838
v  646.3065 5.0000 133.5706
v  646.5248 10.0000 132.8838
v  646.8820 0.0000 131.4946
v  646.7034 5.0000 132.1892
v  646.8820 10.0000 131.4946
v  647.1599 0.0000 130.0898
v  647.0209 5.0000 130.7922
v  647.1599 10.0000 130.0898
v  647.3583 0.0000 128.6693
v  647.2591 5.0000 129.3796
v  647.3583 10.0000 128.6693
v  647.4774 0.0000 127.2332
v  647.4178 5.0000 127.9513
v  647.4774 10.0000 127.2332
v  647.5171 0.0000 125.7814
v  647.4972 5.0000 126.5073
v  647.5171 10.0000 125.7814
v  647.4407 0.0000 123.7390
v  647.4789 5.0000 124.7602
v  647.4407 10.0000 123.7390
v  647.2115 0.0000 121.8155
v  647.3260 5.0000 122.7773
v  647.2115 10.0000 121.8155
v  646.8295 0.0000 120.0111
v  647.0204 5.0000 120.9133
v  646.8295 10.0000 120.0111
v  646.2947 0.0000 118.3256
v  646.5621 5.0000 119.1683
v  646.2947 10.0000 118.3256
v  645.6071 0.0000 116.7590
v  645.9509 5.0000 117.5423
v  645.6071 10.0000 116.7590
v  644.7667 0.0000 115.3115
v  645.1869 5.0000 116.0353
v  644.7667 10.0000 115.3115
v  643.7735 0.0000 113.9829
v  644.2701 5.0000 114.6472
v  643.7735 10.0000 113.9829
v  642.6275 0.0000 112.7733
v  643.2005 5.0000 113.3781
v  642.6275 10.0000 112.7733
v  641.3287 0.0000 111.6827
v  641.9781 5.0000 112.2280
v  641.3287 10.0000 111.6827
v  639.9047 0.0000 110.7089
v  640.6167 5.0000 111.1958
v  639.9047 10.0000 110.7089
v  638.3830 0.0000 109.8496
v  639.1439 5.0000 110.2793
v  638.3830 10.0000 109.8496
v  636.7637 0.0000 109.1049
v  637.5734 5.0000 109.4773
v  636.7637 10.0000 109.1049
v  635.0468 0.0000 108.4748
v  635.9052 5.0000 108.7899
v  635.0468 10.0000 108.4748
v  633.2322 0.0000 107.9593
v  634.1395 5.0000 108.2170
v  633.2322 10.0000 107.9593
v  631.3199 0.0000 107.5583
v  632.2761 5.0000 107.7588
v  631.3199 10.0000 107.5583
v  629.3101 0.0000 107.2719
v  630.3150 5.0000 107.4151
v  629.3101 10.0000 107.2719
v  627.2026 0.0000 107.1000
v  628.2563 5.0000 107.1859
v  627.2026 10.0000 107.1000
v  624.9974 0.0000 107.0427
v  626.1000 5.0000 107.0714
v  624.9974 10.0000 107.0427
v  622.8176 0.0000 107.1004
v  623.9075 5.0000 107.0715
v  622.8176 10.0000 107.1004
v  620.7324 0.0000 107.2733
v  621.7750 5.0000 107.1868
v  620.7324 10.0000 107.2733
v  618.7419 0.0000 107.5615
v  619.7372 5.0000 107.4174
v  618.7419 10.0000 107.5615
v  616.8461 0.0000 107.9650
v  617.7941 5.0000 107.7632
v  616.8461 10.0000 107.9650
v  615.0450 0.0000 108.4837
v  615.9456 5.0000 108.2244
v  615.0450 10.0000 108.4837
v  613.3384 0.0000 109.1178
v  614.1917 5.0000 108.8008
v  613.3384 10.0000 109.1178
v  611.7266 0.0000 109.8671
v  612.5325 5.0000 109.4925
v  611.7266 10.0000 109.8671
v  610.2094 0.0000 110.7318
v  610.9680 5.0000 110.2995
v  610.2094 10.0000 110.7318
v  608.7869 0.0000 111.7117
v  609.4982 5.0000 111.2217
v  608.7869 10.0000 111.7117
v  607.4881 0.0000 112.8061
v  608.1375 5.0000 112.2589
v  607.4881 10.0000 112.8061
v  606.3421 0.0000 114.0142
v  606.9151 5.0000 113.4101
v  606.3421 10.0000 114.0142
v  605.3489 0.0000 115.3361
v  605.8455 5.0000 114.6752
v  605.3489 10.0000 115.3361
v  604.5085 0.0000 116.7717
v  604.9287 5.0000 116.0539
v  604.5085 10.0000 116.7717
v  603.8209 0.0000 118.3210
v  604.1647 5.0000 117.5464
v  603.8209 10.0000 118.3210
v  603.2861 0.0000 119.9841
v  603.5535 5.0000 119.1525
v  603.2861 10.0000 119.9841
v  602.9041 0.0000 121.7609
v  603.0951 5.0000 120.8725
v  602.9041 10.0000 121.7609
v  602.6749 0.0000 123.6514
v  602.7895 5.0000 122.7061
v  602.6749 10.0000 123.6514
v  602.5985 0.0000 125.6556
v  602.6367 5.0000 124.6535
v  602.5985 10.0000 125.6556
v  602.6479 0.0000 127.2321
v  602.6232 5.0000 126.4439
v  602.6479 10.0000 127.2321
v  602.7962 0.0000 128.7483
v  602.7221 5.0000 127.9902
v  602.7962 10.0000 128.7483
v  603.0433 0.0000 130.2043
v  602.9198 5.0000 129.4763
v  603.0433 10.0000 130.2043
v  603.3893 0.0000 131.5999
v  603.2164 5.0000 130.9021
v  603.3893 10.0000 131.5999
v  603.8342 0.0000 132.9353
v  603.6118 5.0000 132.2676
v  603.8342 10.0000 132.9353
v  604.3779 0.0000 134.2104
v  604.1060 5.0000 133.5728
v  604.3779 10.0000 134.2104
v  605.0204 0.0000 135.4252
v  604.6992 5.0000 134.8177
v  605.0204 10.0000 135.4252
v  605.7618 0.0000 136.5797
v  605.3911 5.0000 136.0024
v  605.7618 10.0000 136.5797
v  606.6021 0.0000 137.6739
v  606.1819 5.0000 137.1268
v  606.6021 10.0000 137.6739
v  607.5308 0.0000 138.6789
v  607.0665 5.0000 138.1764
v  607.5308 10.0000 138.6789
v  608.5375 0.0000 139.5656
v  608.0342 5.0000 139.1223
v  608.5375 10.0000 139.5656
v  609.6224 0.0000 140.3342
v  609.0800 5.0000 139.9499
v  609.6224 10.0000 140.3342
v  610.7852 0.0000 140.9845
v  610.2038 5.0000 140.6593
v  610.7852 10.0000 140.9845
v  612.0261 0.0000 141.5165
v  611.4056 5.0000 141.2505
v  612.0261 10.0000 141.5165
v  613.3450 0.0000 141.9303
v  612.6855 5.0000 141.7234
v  613.3450 10.0000 141.9303
v  614.7420 0.0000 142.2259
v  614.0435 5.0000 142.0781
v  614.7420 10.0000 142.2259
v  616.2170 0.0000 142.4032
v  615.4795 5.0000 142.3146
v  616.2170 10.0000 142.4032
v  617.7701 0.0000 142.4624
v  616.9935 5.0000 142.4328
v  617.7701 10.0000 142.4624
v  619.1077 0.0000 142.4183
v  618.4389 5.0000 142.4403
v  619.1077 10.0000 142.4183
v  620.3903 0.0000 142.2862
v  619.7490 5.0000 142.3523
v  620.3903 10.0000 142.2862
v  621.6177 0.0000 142.0660
v  621.0040 5.0000 142.1761
v  621.6177 10.0000 142.0660
v  622.7901 0.0000 141.7577
v  622.2039 5.0000 141.9119
v  622.7901 10.0000 141.7577
v  623.9075 0.0000 141.3614
v  623.3488 5.0000 141.5596
v  623.9075 10.0000 141.3614
v  624.9697 0.0000 140.8770
v  624.4386 5.0000 141.1192
v  624.9697 10.0000 140.8770
v  625.9770 0.0000 140.3045
v  625.4733 5.0000 140.5907
v  625.9770 10.0000 140.3045
v  626.9291 0.0000 139.6439
v  626.4531 5.0000 139.9742
v  626.9291 10.0000 139.6439
v  627.8262 0.0000 138.8952
v  627.3777 5.0000 139.2696
v  627.8262 10.0000 138.8952
v  628.6475 0.0000 138.1007
v  628.2368 5.0000 138.4980
v  628.6475 10.0000 138.1007
v  629.3721 0.0000 137.3024
v  629.0098 5.0000 137.7015
v  629.3721 10.0000 137.3024
v  630.0001 0.0000 136.5004
v  629.6861 5.0000 136.9014
v  630.0001 10.0000 136.5004
v  630.5315 0.0000 135.6947
v  630.2658 5.0000 136.0975
v  630.5315 10.0000 135.6947
v  630.9663 0.0000 134.8852
v  630.7489 5.0000 135.2899
v  630.9663 10.0000 134.8852
v  631.3044 0.0000 134.0720
v  631.1354 5.0000 134.4786
v  631.3044 10.0000 134.0720
v  631.5460 0.0000 133.2551
v  631.4252 5.0000 133.6635
v  631.5460 10.0000 133.2551
v  631.6909 0.0000 132.4344
v  631.6185 5.0000 132.8448
v  631.6909 10.0000 132.4344
v  631.7392 0.0000 131.6101
v  631.7151 5.0000 132.0222
v  631.7392 10.0000 131.6101
v  631.6461 0.0000 129.5626
v  631.6926 5.0000 130.5863
v  631.6461 10.0000 129.5626
v  631.3665 0.0000 127.7560
v  631.5063 5.0000 128.6593
v  631.3665 10.0000 127.7560
v  630.9007 0.0000 126.1903
v  631.1336 5.0000 126.9732
v  630.9007 10.0000 126.1903
v  630.2485 0.0000 124.8655
v  630.5746 5.0000 125.5279
v  630.2485 10.0000 124.8655
v  629.4100 0.0000 123.7816
v  629.8292 5.0000 124.3235
v  629.4100 10.0000 123.7816
v  628.3851 0.0000 122.9385
v  628.8975 5.0000 123.3600
v  628.3851 10.0000 122.9385
v  627.1739 0.0000 122.3363
v  627.7795 5.0000 122.6374
v  627.1739 10.0000 122.3363
v  625.7763 0.0000 121.9750
v  626.4751 5.0000 122.1557
v  625.7763 10.0000 121.9750
v  624.1924 0.0000 121.8546
v  624.9844 5.0000 121.9148
v  624.1924 10.0000 121.8546
v  623.5685 0.0000 121.8765
v  623.8805 5.0000 121.8655
v  623.5685 10.0000 121.8765
v  622.9581 0.0000 121.9424
v  623.2633 5.0000 121.9095
v  622.9581 10.0000 121.9424
v  622.3611 0.0000 122.0522
v  622.6596 5.0000 121.9973
v  622.3611 10.0000 122.0522
v  621.7775 0.0000 122.2059
v  622.0693 5.0000 122.1290
v  621.7775 10.0000 122.2059
v  621.2072 0.0000 122.4035
v  621.4924 5.0000 122.3047
v  621.2072 10.0000 122.4035
v  620.6505 0.0000 122.6450
v  620.9288 5.0000 122.5243
v  620.6505 10.0000 122.6450
v  620.1071 0.0000 122.9305
v  620.3788 5.0000 122.7878
v  620.1071 10.0000 122.9305
v  619.5771 0.0000 123.2598
v  619.8421 5.0000 123.0951
v  619.5771 10.0000 123.2598
v  619.0606 0.0000 123.6331
v  619.3188 5.0000 123.4465
v  619.0606 10.0000 123.6331
v  618.5791 0.0000 124.0495
v  618.8198 5.0000 123.8413
v  618.5791 10.0000 124.0495
v  618.1542 0.0000 124.5084
v  618.3666 5.0000 124.2790
v  618.1542 10.0000 124.5084
v  617.7860 0.0000 125.0097
v  617.9702 5.0000 124.7590
v  617.7860 10.0000 125.0097
v  617.4745 0.0000 125.5534
v  617.6302 5.0000 125.2815
v  617.4745 10.0000 125.5534
v  617.2195 0.0000 126.1395
v  617.3470 5.0000 125.8465
v  617.2195 10.0000 126.1395
v  617.0213 0.0000 126.7681
v  617.1204 5.0000 126.4538
v  617.0213 10.0000 126.7681
v  616.8796 0.0000 127.4391
v  616.9505 5.0000 127.1036
v  616.8796 10.0000 127.4391
v  616.7947 0.0000 128.1525
v  616.8372 5.0000 127.7958
v  616.7947 10.0000 128.1525
v  616.7664 0.0000 128.9083
v  616.7805 5.0000 128.5304
v  616.7664 10.0000 128.9083
v  616.8371 0.0000 130.1331
v  616.8018 5.0000 129.5207
v  616.8371 10.0000 130.1331
v  617.0493 0.0000 131.2358
v  616.9432 5.0000 130.6844
v  617.0493 10.0000 131.2358
v  617.4028 0.0000 132.2166
v  617.2260 5.0000 131.7262
v  617.4028 10.0000 132.2166
v  617.8978 0.0000 133.0754
v  617.6503 5.0000 132.6460
v  617.8978 10.0000 133.0754
v  618.5343 0.0000 133.8122
v  618.2161 5.0000 133.4438
v  618.5343 10.0000 133.8122
v  619.3121 0.0000 134.4270
v  618.9232 5.0000 134.1196
v  619.3121 10.0000 134.4270
v  620.2314 0.0000 134.9198
v  619.7718 5.0000 134.6734
v  620.2314 10.0000 134.9198
v  621.2922 0.0000 135.2906
v  620.7618 5.0000 135.1052
v  621.2922 10.0000 135.2906
v  622.4944 0.0000 135.5394
v  621.8933 5.0000 135.4150
v  622.4944 10.0000 135.5394
v  622.2830 5.0000 135.6915
v  624.9117 0.0000 125.7579
v  625.4931 0.0000 125.8761
v  625.2024 5.0000 125.8170
v  625.4931 10.0000 125.8761
v  624.9117 10.0000 125.7579
v  625.9969 0.0000 126.0730
v  625.7450 5.0000 125.9745
v  625.9969 10.0000 126.0730
v  626.4233 0.0000 126.3486
v  626.2101 5.0000 126.2108
v  626.4233 10.0000 126.3486
v  626.7721 0.0000 126.7030
v  626.5977 5.0000 126.5258
v  626.7721 10.0000 126.7030
v  627.0435 0.0000 127.1362
v  626.9078 5.0000 126.9196
v  627.0435 10.0000 127.1362
v  627.2372 0.0000 127.6481
v  627.1403 5.0000 127.3922
v  627.2372 10.0000 127.6481
v  627.3535 0.0000 128.2388
v  627.2953 5.0000 127.9435
v  627.3535 10.0000 128.2388
v  627.3923 0.0000 128.9083
v  627.3729 5.0000 128.5736
v  627.3923 10.0000 128.9083
v  627.3535 0.0000 129.5904
v  627.3729 5.0000 129.2494
v  627.3535 10.0000 129.5904
v  627.2372 0.0000 130.1923
v  627.2953 5.0000 129.8914
v  627.2372 10.0000 130.1923
v  627.0435 0.0000 130.7139
v  627.1403 5.0000 130.4531
v  627.0435 10.0000 130.7139
v  626.7721 0.0000 131.1553
v  626.9078 5.0000 130.9346
v  626.7721 10.0000 131.1553
v  626.4233 0.0000 131.5164
v  626.5977 5.0000 131.3359
v  626.4233 10.0000 131.5164
v  625.9969 0.0000 131.7973
v  626.2101 5.0000 131.6569
v  625.9969 10.0000 131.7973
v  625.4931 0.0000 131.9980
v  625.7450 5.0000 131.8976
v  625.4931 10.0000 131.9980
v  624.9117 0.0000 132.1183
v  625.2024 5.0000 132.0582
v  624.9117 10.0000 132.1183
v  624.2528 0.0000 132.1585
v  624.5823 5.0000 132.1384
v  624.2528 10.0000 132.1585
v  623.5939 0.0000 132.1183
v  623.9233 5.0000 132.1384
v  623.5939 10.0000 132.1183
v  623.0125 0.0000 131.9980
v  623.3032 5.0000 132.0582
v  623.0125 10.0000 131.9980
v  622.5087 0.0000 131.7973
v  622.7606 5.0000 131.8976
v  622.5087 10.0000 131.7973
v  622.0823 0.0000 131.5165
v  622.2955 5.0000 131.6569
v  622.0823 10.0000 131.5165
v  621.7335 0.0000 131.1553
v  621.9079 5.0000 131.3359
v  621.7335 10.0000 131.1553
v  621.4622 0.0000 130.7140
v  621.5978 5.0000 130.9346
v  621.4622 10.0000 130.7140
v  621.2684 0.0000 130.1923
v  621.3652 5.0000 130.4531
v  621.2684 10.0000 130.1923
v  621.1521 0.0000 129.5904
v  621.2102 5.0000 129.8914
v  621.1521 10.0000 129.5904
v  621.1133 0.0000 128.9083
v  621.1327 5.0000 129.2494
v  621.1133 10.0000 128.9083
v  621.1521 0.0000 128.2388
v  621.1327 5.0000 128.5736
v  621.1521 10.0000 128.2388
v  621.2684 0.0000 127.6481
v  621.2102 5.0000 127.9435
v  621.2684 10.0000 127.6481
v  621.4622 0.0000 127.1362
v  621.3652 5.0000 127.3922
v  621.4622 10.0000 127.1362
v  621.7335 0.0000 126.7030
v  621.5978 5.0000 126.9196
v  621.7335 10.0000 126.7030
v  622.0823 0.0000 126.3486
v  621.9079 5.0000 126.5258
v  622.0823 10.0000 126.3486
v  622.5087 0.0000 126.0730
v  622.2955 5.0000 126.2108
v  622.5087 10.0000 126.0730
v  623.0125 0.0000 125.8760
v  622.7606 5.0000 125.9745
v  623.0125 10.0000 125.8760
v  623.5939 0.0000 125.7579
v  623.3032 5.0000 125.8170
v  623.5939 10.0000 125.7579
v  624.2528 0.0000 125.7185
v  623.9233 5.0000 125.7382
v  624.2528 10.0000 125.7185
v  624.5823 5.0000 125.7382
v  632.7545 0.0000 143.7491
v  623.4470 10.0000 133.2721
v  635.2457 0.0000 144.1511
v  637.0797 0.0000 142.7397
v  639.3871 0.0000 140.9955
v  640.6156 0.0000 138.3448
v  641.7649 0.0000 136.0126
v  642.6606 0.0000 133.5224
v  643.2896 0.0000 130.9077
v  644.2959 0.0000 127.7707
v  643.6729 0.0000 124.1315
v  643.1754 0.0000 120.8369
v  642.1806 0.0000 117.9601
v  640.7951 0.0000 114.8647
v  637.8554 0.0000 112.8747
v  635.3174 0.0000 111.3834
v  632.4144 0.0000 110.2993
v  629.6322 0.0000 110.2530
v  626.8363 0.0000 109.3870
v  624.0756 0.0000 109.8867
v  622.3239 0.0000 109.9928
v  620.6555 0.0000 110.2049
v  619.8116 0.0000 111.3757
v  618.4927 0.0000 110.7167
v  617.0267 0.0000 111.1894
v  615.6441 0.0000 111.7681
v  613.5176 0.0000 112.1086
v  612.3937 0.0000 113.7048
v  611.3176 0.0000 114.6510
v  610.3527 0.0000 115.6783
v  609.5084 0.0000 116.7784
v  608.7847 0.0000 117.9512
v  608.1817 0.0000 119.1968
v  607.6993 0.0000 120.5152
v  607.3375 0.0000 121.9063
v  607.0963 0.0000 123.3702
v  606.9756 0.0000 124.9069
v  606.9643 0.0000 126.3335
v  607.0396 0.0000 127.5920
v  607.1903 0.0000 128.8066
v  607.4163 0.0000 129.9774
v  607.7176 0.0000 131.1045
v  608.0942 0.0000 132.1877
v  608.5462 0.0000 133.2271
v  609.0735 0.0000 134.2227
v  609.6761 0.0000 135.1745
v  609.9873 0.0000 136.7677
v  611.6085 0.0000 137.2891
v  612.4413 0.0000 137.9362
v  613.3322 0.0000 138.4824
v  614.2809 0.0000 138.9277
v  615.2875 0.0000 139.2722
v  616.3521 0.0000 139.5157
v  617.4747 0.0000 139.6584
v  618.5817 0.0000 139.7039
v  619.5156 0.0000 139.6659
v  619.8738 0.0000 138.7245
v  620.4824 0.0000 139.5241
v  621.2610 0.0000 139.3383
v  621.3881 0.0000 138.3337
v  622.2085 0.0000 139.0012
v  622.9499 0.0000 138.6737
v  622.9007 0.0000 137.6108
v  624.4883 0.0000 138.4417
v  623.4470 0.0000 133.2721
v  625.2828 0.0000 135.6711
v  626.0770 0.0000 134.3372
v  626.4387 0.0000 134.2302
v  626.7488 0.0000 134.0697
v  627.0072 0.0000 133.8557
v  627.2139 0.0000 133.5882
v  627.3690 0.0000 133.2672
v  627.4723 0.0000 132.8927
v  630.0012 0.0000 133.9086
v  629.4396 0.0000 128.6165
v  629.2145 0.0000 127.4583
v  628.8575 0.0000 126.4601
v  628.3685 0.0000 125.6216
v  627.7476 0.0000 124.9429
v  626.9948 0.0000 124.4241
v  626.2213 0.0000 124.7618
v  625.8387 0.0000 123.9863
v  624.7833 0.0000 123.8265
v  623.7131 0.0000 123.4300
v  622.7406 0.0000 123.5669
v  621.8312 0.0000 123.8407
v  620.9851 0.0000 124.2514
v  620.2065 0.0000 124.7988
v  619.5430 0.0000 125.4814
v  618.7053 0.0000 126.3758
v  619.0803 0.0000 127.5235
v  618.5413 0.0000 128.3294
v  618.9672 0.0000 129.3850
v  619.0767 0.0000 130.2879
v  619.2957 0.0000 131.0897
v  619.4061 0.0000 132.1947
v  620.4155 0.0000 132.7277
v  621.0854 0.0000 133.5902
v  622.3270 0.0000 133.6563
v  623.0336 0.0000 133.2186
v  632.7545 10.0000 143.7491
v  623.0336 10.0000 133.2186
v  622.3270 10.0000 133.6563
v  621.0854 10.0000 133.5902
v  620.4155 10.0000 132.7277
v  619.4061 10.0000 132.1947
v  619.2957 10.0000 131.0897
v  619.0767 10.0000 130.2879
v  618.9672 10.0000 129.3850
v  618.5413 10.0000 128.3294
v  619.0803 10.0000 127.5235
v  618.7053 10.0000 126.3758
v  619.5430 10.0000 125.4814
v  620.2065 10.0000 124.7988
v  620.9851 10.0000 124.2514
v  621.8312 10.0000 123.8407
v  622.7406 10.0000 123.5669
v  623.7131 10.0000 123.4300
v  624.7833 10.0000 123.8265
v  625.8387 10.0000 123.9863
v  626.2213 10.0000 124.7618
v  626.9948 10.0000 124.4241
v  627.7476 10.0000 124.9429
v  628.3685 10.0000 125.6216
v  628.8575 10.0000 126.4601
v  629.2145 10.0000 127.4583
v  629.4396 10.0000 128.6165
v  630.0012 10.0000 133.9086
v  627.4723 10.0000 132.8927
v  627.3690 10.0000 133.2672
v  627.2139 10.0000 133.5882
v  627.0072 10.0000 133.8557
v  626.7488 10.0000 134.0697
v  626.4387 10.0000 134.2302
v  626.0770 10.0000 134.3372
v  625.2828 10.0000 135.6711
v  624.4883 10.0000 138.4417
v  622.9007 10.0000 137.6108
v  622.9499 10.0000 138.6737
v  622.2085 10.0000 139.0012
v  621.3881 10.0000 138.3337
v  621.2610 10.0000 139.3383
v  620.4824 10.0000 139.5241
v  619.8738 10.0000 138.7245
v  619.5156 10.0000 139.6659
v  618.5817 10.0000 139.7039
v  617.4747 10.0000 139.6584
v  616.3521 10.0000 139.5157
v  615.2875 10.0000 139.2722
v  614.2809 10.0000 138.9277
v  613.3322 10.0000 138.4824
v  612.4413 10.0000 137.9362
v  611.6085 10.0000 137.2891
v  609.9873 10.0000 136.7677
v  609.6761 10.0000 135.1745
v  609.0735 10.0000 134.2227
v  608.5462 10.0000 133.2271
v  608.0942 10.0000 132.1877
v  607.7176 10.0000 131.1045
v  607.4163 10.0000 129.9774
v  607.1903 10.0000 128.8066
v  607.0396 10.0000 127.5920
v  606.9643 10.0000 126.3335
v  606.9756 10.0000 124.9069
v  607.0963 10.0000 123.3702
v  607.3375 10.0000 121.9063
v  607.6993 10.0000 120.5152
v  608.1817 10.0000 119.1968
v  608.7847 10.0000 117.9512
v  609.5084 10.0000 116.7784
v  610.3527 10.0000 115.6783
v  611.3176 10.0000 114.6510
v  612.3937 10.0000 113.7048
v  613.5176 10.0000 112.1086
v  615.6441 10.0000 111.7681
v  617.0267 10.0000 111.1894
v  618.4927 10.0000 110.7167
v  619.8116 10.0000 111.3757
v  620.6555 10.0000 110.2049
v  622.3239 10.0000 109.9928
v  624.0756 10.0000 109.8867
v  626.8363 10.0000 109.3870
v  629.6322 10.0000 110.2530
v  632.4144 10.0000 110.2993
v  635.3174 10.0000 111.3834
v  637.8554 10.0000 112.8746
v  640.7951 10.0000 114.8647
v  642.1806 10.0000 117.9601
v  643.1754 10.0000 120.8369
v  643.6729 10.0000 124.1315
v  644.2959 10.0000 127.7707
v  643.2896 10.0000 130.9077
v  642.6606 10.0000 133.5224
v  641.7649 10.0000 136.0126
v  640.6156 10.0000 138.3448
v  639.3871 10.0000 140.9955
v  637.0797 10.0000 142.7397
v  635.2457 10.0000 144.1511
# 876 vertices

vn -0.3970 -0.7122 -0.5790
vn -0.3684 -0.7129 -0.5967
vn -0.5468 0.0000 -0.8373
vn -0.3684 0.7129 -0.5967
vn -0.3970 0.7122 -0.5790
vn -0.3353 -0.7136 -0.6151
vn -0.5036 0.0000 -0.8639
vn -0.3353 0.7136 -0.6151
vn -0.2967 -0.7145 -0.6336
vn -0.4532 0.0000 -0.8914
vn -0.2967 0.7145 -0.6336
vn -0.2518 -0.7155 -0.6517
vn -0.3944 0.0000 -0.9189
vn -0.2518 0.7155 -0.6517
vn -0.1999 -0.7165 -0.6683
vn -0.3260 0.0000 -0.9454
vn -0.1999 0.7165 -0.6683
vn -0.1405 -0.7177 -0.6821
vn -0.2468 0.0000 -0.9691
vn -0.1405 0.7177 -0.6821
vn -0.0734 -0.7188 -0.6913
vn -0.1562 0.0000 -0.9877
vn -0.0734 0.7188 -0.6913
vn -0.0006 -0.7194 -0.6946
vn -0.0546 0.0000 -0.9985
vn -0.0006 0.7194 -0.6946
vn 0.0757 -0.7200 -0.6898
vn 0.0530 0.0000 -0.9986
vn 0.0757 0.7200 -0.6898
vn 0.1549 -0.7208 -0.6756
vn 0.1648 0.0000 -0.9863
vn 0.1549 0.7208 -0.6756
vn 0.2357 -0.7213 -0.6513
vn 0.2814 0.0000 -0.9596
vn 0.2357 0.7213 -0.6513
vn 0.3145 -0.7214 -0.6170
vn 0.3979 0.0000 -0.9174
vn 0.3145 0.7214 -0.6170
vn 0.3879 -0.7210 -0.5742
vn 0.5086 0.0000 -0.8610
vn 0.3879 0.7210 -0.5742
vn 0.4532 -0.7202 -0.5252
vn 0.6089 0.0000 -0.7933
vn 0.4532 0.7202 -0.5252
vn 0.5091 -0.7192 -0.4728
vn 0.6956 0.0000 -0.7184
vn 0.5091 0.7192 -0.4728
vn 0.5551 -0.7181 -0.4198
vn 0.7677 0.0000 -0.6408
vn 0.5551 0.7181 -0.4198
vn 0.5913 -0.7159 -0.3713
vn 0.8257 0.0000 -0.5641
vn 0.5913 0.7159 -0.3713
vn 0.6176 -0.7146 -0.3285
vn 0.8668 0.0000 -0.4986
vn 0.6176 0.7146 -0.3285
vn 0.6380 -0.7146 -0.2869
vn 0.8980 0.0000 -0.4400
vn 0.6380 0.7146 -0.2869
vn 0.6555 -0.7145 -0.2444
vn 0.9251 0.0000 -0.3798
vn 0.6555 0.7145 -0.2444
vn 0.6701 -0.7144 -0.2017
vn 0.9479 0.0000 -0.3186
vn 0.6701 0.7144 -0.2017
vn 0.6817 -0.7142 -0.1591
vn 0.9663 0.0000 -0.2575
vn 0.6817 0.7142 -0.1591
vn 0.6903 -0.7139 -0.1173
vn 0.9804 0.0000 -0.1970
vn 0.6903 0.7139 -0.1173
vn 0.6963 -0.7136 -0.0767
vn 0.9904 0.0000 -0.1380
vn 0.6963 0.7136 -0.0767
vn 0.6998 -0.7133 -0.0376
vn 0.9967 0.0000 -0.0809
vn 0.6998 0.7133 -0.0376
vn 0.6996 -0.7145 0.0043
vn 0.9997 0.0000 -0.0263
vn 0.6996 0.7145 0.0043
vn 0.6957 -0.7162 0.0549
vn 0.9993 0.0000 0.0387
vn 0.6957 0.7162 0.0549
vn 0.6885 -0.7166 0.1115
vn 0.9929 0.0000 0.1186
vn 0.6885 0.7166 0.1115
vn 0.6764 -0.7168 0.1690
vn 0.9796 0.0000 0.2008
vn 0.6764 0.7168 0.1690
vn 0.6594 -0.7169 0.2263
vn 0.9589 0.0000 0.2836
vn 0.6594 0.7169 0.2263
vn 0.6376 -0.7169 0.2821
vn 0.9310 0.0000 0.3651
vn 0.6376 0.7169 0.2821
vn 0.6115 -0.7167 0.3353
vn 0.8963 0.0000 0.4435
vn 0.6115 0.7167 0.3353
vn 0.5820 -0.7164 0.3849
vn 0.8559 0.0000 0.5172
vn 0.5820 0.7164 0.3849
vn 0.5499 -0.7160 0.4302
vn 0.8110 0.0000 0.5851
vn 0.5499 0.7160 0.4302
vn 0.5115 -0.7171 0.4733
vn 0.7631 0.0000 0.6463
vn 0.5115 0.7171 0.4733
vn 0.4628 -0.7189 0.5186
vn 0.7034 0.0000 0.7108
vn 0.4628 0.7189 0.5186
vn 0.4067 -0.7190 0.5636
vn 0.6265 0.0000 0.7794
vn 0.4067 0.7190 0.5636
vn 0.3465 -0.7188 0.6027
vn 0.5422 0.0000 0.8403
vn 0.3465 0.7188 0.6027
vn 0.2842 -0.7184 0.6349
vn 0.4533 0.0000 0.8914
vn 0.2842 0.7184 0.6349
vn 0.2218 -0.7178 0.6599
vn 0.3628 0.0000 0.9319
vn 0.2218 0.7178 0.6599
vn 0.1611 -0.7171 0.6781
vn 0.2737 0.0000 0.9618
vn 0.1611 0.7171 0.6781
vn 0.1035 -0.7163 0.6900
vn 0.1882 0.0000 0.9821
vn 0.1035 0.7163 0.6900
vn 0.0498 -0.7155 0.6968
vn 0.1082 0.0000 0.9941
vn 0.0498 0.7155 0.6968
vn -0.0087 -0.7178 0.6962
vn 0.0344 0.0000 0.9994
vn -0.0087 0.7178 0.6962
vn -0.0892 -0.7232 0.6848
vn -0.0594 0.0000 0.9982
vn -0.0892 0.7232 0.6848
vn -0.1933 -0.7269 0.6590
vn -0.1983 0.0000 0.9801
vn -0.1933 0.7269 0.6590
vn -0.3103 -0.7304 0.6085
vn -0.3627 0.0000 0.9319
vn -0.3103 0.7304 0.6085
vn -0.4289 -0.7326 0.5286
vn -0.5414 0.0000 0.8408
vn -0.4289 0.7326 0.5286
vn -0.5334 -0.7324 0.4230
vn -0.7112 0.0000 0.7030
vn -0.5334 0.7324 0.4230
vn -0.6116 -0.7301 0.3048
vn -0.8465 0.0000 0.5324
vn -0.6116 0.7301 0.3048
vn -0.6606 -0.7265 0.1894
vn -0.9347 0.0000 0.3553
vn -0.6606 0.7265 0.1894
vn -0.6855 -0.7229 0.0873
vn -0.9810 0.0000 0.1939
vn -0.6855 0.7229 0.0873
vn -0.6963 -0.7177 0.0080
vn -0.9983 0.0000 0.0580
vn -0.6963 0.7177 0.0080
vn -0.6961 -0.7161 -0.0520
vn -0.9994 0.0000 -0.0351
vn -0.6961 0.7161 -0.0520
vn -0.6876 -0.7176 -0.1109
vn -0.9935 0.0000 -0.1137
vn -0.6876 0.7176 -0.1109
vn -0.6715 -0.7193 -0.1781
vn -0.9789 0.0000 -0.2044
vn -0.6715 0.7193 -0.1781
vn -0.6450 -0.7211 -0.2529
vn -0.9515 0.0000 -0.3075
vn -0.6450 0.7211 -0.2529
vn -0.6054 -0.7228 -0.3332
vn -0.9070 0.0000 -0.4211
vn -0.6054 0.7228 -0.3332
vn -0.5508 -0.7242 -0.4150
vn -0.8411 0.0000 -0.5409
vn -0.5508 0.7242 -0.4150
vn -0.4814 -0.7249 -0.4928
vn -0.7519 0.0000 -0.6593
vn -0.4814 0.7249 -0.4928
vn -0.4003 -0.7247 -0.5608
vn -0.6416 0.0000 -0.7670
vn -0.4003 0.7247 -0.5608
vn -0.8268 -0.5604 -0.0481
vn -0.5170 0.0000 -0.8560
vn -0.8268 0.5604 -0.0481
vn -0.0683 -0.6029 0.7949
vn -0.6128 0.0000 0.7902
vn -0.0683 0.6029 0.7949
vn 0.3587 -0.6988 0.6188
vn 0.4690 0.0000 0.8832
vn 0.3587 0.6988 0.6188
vn 0.4038 -0.6988 0.5904
vn 0.5334 0.0000 0.8459
vn 0.4038 0.6988 0.5904
vn 0.4464 -0.6989 0.5588
vn 0.5949 0.0000 0.8038
vn 0.4464 0.6989 0.5588
vn 0.4859 -0.6991 0.5246
vn 0.6525 0.0000 0.7578
vn 0.4859 0.6991 0.5246
vn 0.5218 -0.6993 0.4886
vn 0.7055 0.0000 0.7087
vn 0.5218 0.6993 0.4886
vn 0.5538 -0.6996 0.4515
vn 0.7534 0.0000 0.6575
vn 0.5538 0.6996 0.4515
vn 0.5820 -0.7000 0.4139
vn 0.7959 0.0000 0.6054
vn 0.5820 0.7000 0.4139
vn 0.6064 -0.7003 0.3766
vn 0.8331 0.0000 0.5532
vn 0.6064 0.7003 0.3766
vn 0.6266 -0.7010 0.3407
vn 0.8651 0.0000 0.5016
vn 0.6266 0.7010 0.3407
vn 0.6438 -0.7012 0.3063
vn 0.8913 0.0000 0.4534
vn 0.6438 0.7012 0.3063
vn 0.6595 -0.7010 0.2713
vn 0.9141 0.0000 0.4055
vn 0.6595 0.7010 0.2713
vn 0.6735 -0.7009 0.2348
vn 0.9348 0.0000 0.3552
vn 0.6735 0.7009 0.2348
vn 0.6856 -0.7009 0.1969
vn 0.9530 0.0000 0.3029
vn 0.6856 0.7009 0.1969
vn 0.6956 -0.7008 0.1581
vn 0.9685 0.0000 0.2490
vn 0.6956 0.7008 0.1581
vn 0.7034 -0.7008 0.1186
vn 0.9810 0.0000 0.1940
vn 0.7034 0.7008 0.1186
vn 0.7089 -0.7008 0.0789
vn 0.9904 0.0000 0.1384
vn 0.7089 0.7008 0.0789
vn 0.7122 -0.7009 0.0392
vn 0.9966 0.0000 0.0826
vn 0.7122 0.7009 0.0392
vn 0.7142 -0.6999 -0.0036
vn 0.9996 0.0000 0.0273
vn 0.7142 0.6999 -0.0036
vn 0.7138 -0.6981 -0.0558
vn 0.9993 0.0000 -0.0374
vn 0.7138 0.6981 -0.0558
vn 0.7074 -0.6971 -0.1168
vn 0.9930 0.0000 -0.1183
vn 0.7074 0.6971 -0.1168
vn 0.6941 -0.6962 -0.1831
vn 0.9783 0.0000 -0.2071
vn 0.6941 0.6962 -0.1831
vn 0.6725 -0.6953 -0.2535
vn 0.9532 0.0000 -0.3024
vn 0.6725 0.6953 -0.2535
vn 0.6414 -0.6947 -0.3256
vn 0.9157 0.0000 -0.4019
vn 0.6414 0.6947 -0.3256
vn 0.6004 -0.6943 -0.3968
vn 0.8648 0.0000 -0.5021
vn 0.6004 0.6943 -0.3968
vn 0.5504 -0.6942 -0.4638
vn 0.8009 0.0000 -0.5988
vn 0.5504 0.6942 -0.4638
vn 0.4933 -0.6945 -0.5238
vn 0.7259 0.0000 -0.6878
vn 0.4933 0.6945 -0.5238
vn 0.4340 -0.6962 -0.5719
vn 0.6431 0.0000 -0.7658
vn 0.4340 0.6962 -0.5719
vn 0.3787 -0.6976 -0.6082
vn 0.5645 0.0000 -0.8254
vn 0.3787 0.6976 -0.6082
vn 0.3260 -0.6979 -0.6377
vn 0.4917 0.0000 -0.8708
vn 0.3260 0.6979 -0.6377
vn 0.2731 -0.6983 -0.6617
vn 0.4178 0.0000 -0.9085
vn 0.2731 0.6983 -0.6617
vn 0.2211 -0.6988 -0.6803
vn 0.3445 0.0000 -0.9388
vn 0.2211 0.6988 -0.6803
vn 0.1711 -0.6993 -0.6940
vn 0.2733 0.0000 -0.9619
vn 0.1711 0.6993 -0.6940
vn 0.1238 -0.6998 -0.7035
vn 0.2052 0.0000 -0.9787
vn 0.1238 0.6998 -0.7035
vn 0.0794 -0.7004 -0.7093
vn 0.1411 0.0000 -0.9900
vn 0.0794 0.7004 -0.7093
vn 0.0383 -0.7009 -0.7122
vn 0.0813 0.0000 -0.9967
vn 0.0383 0.7009 -0.7122
vn -0.0002 -0.7013 -0.7129
vn 0.0260 0.0000 -0.9997
vn -0.0002 0.7013 -0.7129
vn -0.0389 -0.7008 -0.7123
vn -0.0264 0.0000 -0.9997
vn -0.0389 0.7008 -0.7123
vn -0.0807 -0.7003 -0.7093
vn -0.0826 0.0000 -0.9966
vn -0.0807 0.7003 -0.7093
vn -0.1256 -0.6998 -0.7032
vn -0.1433 0.0000 -0.9897
vn -0.1256 0.6998 -0.7032
vn -0.1734 -0.6992 -0.6935
vn -0.2082 0.0000 -0.9781
vn -0.1734 0.6992 -0.6935
vn -0.2237 -0.6987 -0.6795
vn -0.2768 0.0000 -0.9609
vn -0.2237 0.6987 -0.6795
vn -0.2758 -0.6983 -0.6606
vn -0.3483 0.0000 -0.9374
vn -0.2758 0.6983 -0.6606
vn -0.3285 -0.6979 -0.6364
vn -0.4216 0.0000 -0.9068
vn -0.3285 0.6979 -0.6364
vn -0.3809 -0.6976 -0.6068
vn -0.4951 0.0000 -0.8688
vn -0.3809 0.6976 -0.6068
vn -0.4353 -0.6964 -0.5706
vn -0.5673 0.0000 -0.8235
vn -0.4353 0.6964 -0.5706
vn -0.4934 -0.6948 -0.5233
vn -0.6444 0.0000 -0.7647
vn -0.4934 0.6948 -0.5233
vn -0.5496 -0.6944 -0.4645
vn -0.7255 0.0000 -0.6882
vn -0.5496 0.6944 -0.4645
vn -0.5991 -0.6944 -0.3985
vn -0.7995 0.0000 -0.6007
vn -0.5991 0.6944 -0.3985
vn -0.6401 -0.6947 -0.3281
vn -0.8630 0.0000 -0.5052
vn -0.6401 0.6947 -0.3281
vn -0.6715 -0.6953 -0.2561
vn -0.9140 0.0000 -0.4057
vn -0.6715 0.6953 -0.2561
vn -0.6935 -0.6961 -0.1856
vn -0.9520 0.0000 -0.3061
vn -0.6935 0.6961 -0.1856
vn -0.7072 -0.6970 -0.1186
vn -0.9777 0.0000 -0.2102
vn -0.7072 0.6970 -0.1186
vn -0.7139 -0.6979 -0.0568
vn -0.9927 0.0000 -0.1204
vn -0.7139 0.6979 -0.0568
vn -0.7147 -0.6994 -0.0024
vn -0.9993 0.0000 -0.0381
vn -0.7147 0.6994 -0.0024
vn -0.7129 -0.6997 0.0460
vn -0.9995 0.0000 0.0313
vn -0.7129 0.6997 0.0460
vn -0.7086 -0.6992 0.0947
vn -0.9953 0.0000 0.0973
vn -0.7086 0.6992 0.0947
vn -0.7003 -0.6988 0.1460
vn -0.9859 0.0000 0.1673
vn -0.7003 0.6988 0.1460
vn -0.6874 -0.6984 0.1994
vn -0.9706 0.0000 0.2406
vn -0.6874 0.6984 0.1994
vn -0.6696 -0.6981 0.2538
vn -0.9487 0.0000 0.3160
vn -0.6696 0.6981 0.2538
vn -0.6466 -0.6978 0.3082
vn -0.9199 0.0000 0.3922
vn -0.6466 0.6978 0.3082
vn -0.6185 -0.6977 0.3613
vn -0.8840 0.0000 0.4676
vn -0.6185 0.6977 0.3613
vn -0.5860 -0.6978 0.4120
vn -0.8414 0.0000 0.5404
vn -0.5860 0.6978 0.4120
vn -0.5483 -0.6970 0.4622
vn -0.7931 0.0000 0.6090
vn -0.5483 0.6970 0.4622
vn -0.5018 -0.6957 0.5139
vn -0.7344 0.0000 0.6787
vn -0.5018 0.6957 0.5139
vn -0.4458 -0.6954 0.5636
vn -0.6610 0.0000 0.7504
vn -0.4458 0.6954 0.5636
vn -0.3837 -0.6953 0.6077
vn -0.5781 0.0000 0.8160
vn -0.3837 0.6953 0.6077
vn -0.3174 -0.6955 0.6446
vn -0.4881 0.0000 0.8728
vn -0.3174 0.6955 0.6446
vn -0.2493 -0.6959 0.6735
vn -0.3941 0.0000 0.9191
vn -0.2493 0.6959 0.6735
vn -0.1819 -0.6965 0.6941
vn -0.2994 0.0000 0.9541
vn -0.1819 0.6965 0.6941
vn -0.1171 -0.6972 0.7072
vn -0.2070 0.0000 0.9783
vn -0.1171 0.6972 0.7072
vn -0.0564 -0.6980 0.7138
vn -0.1194 0.0000 0.9928
vn -0.0564 0.6980 0.7138
vn -0.0018 -0.6992 0.7149
vn -0.0380 0.0000 0.9993
vn -0.0018 0.6992 0.7149
vn 0.0484 -0.6993 0.7131
vn 0.0329 0.0000 0.9995
vn 0.0484 0.6993 0.7131
vn 0.0999 -0.6988 0.7083
vn 0.1025 0.0000 0.9947
vn 0.0999 0.6988 0.7083
vn 0.1543 -0.6983 0.6990
vn 0.1766 0.0000 0.9843
vn 0.1543 0.6983 0.6990
vn 0.2110 -0.6978 0.6845
vn 0.2543 0.0000 0.9671
vn 0.2110 0.6978 0.6845
vn 0.2687 -0.6975 0.6643
vn 0.3343 0.0000 0.9425
vn 0.2687 0.6975 0.6643
vn 0.3262 -0.6972 0.6384
vn 0.4149 0.0000 0.9099
vn 0.3262 0.6972 0.6384
vn 0.3818 -0.6972 0.6068
vn 0.4942 0.0000 0.8694
vn 0.3818 0.6972 0.6068
vn 0.4344 -0.6972 0.5702
vn 0.5700 0.0000 0.8216
vn 0.4344 0.6972 0.5702
vn 0.4781 -0.6989 0.5319
vn 0.6407 0.0000 0.7678
vn 0.4781 0.6989 0.5319
vn 0.5130 -0.6999 0.4970
vn 0.6953 0.0000 0.7187
vn 0.5130 0.6999 0.4970
vn 0.5466 -0.6990 0.4611
vn 0.7404 0.0000 0.6721
vn 0.5466 0.6990 0.4611
vn 0.5812 -0.6981 0.4182
vn 0.7873 0.0000 0.6165
vn 0.5812 0.6981 0.4182
vn 0.6157 -0.6971 0.3674
vn 0.8348 0.0000 0.5506
vn 0.6157 0.6971 0.3674
vn 0.6484 -0.6962 0.3080
vn 0.8810 0.0000 0.4732
vn 0.6484 0.6962 0.3080
vn 0.6774 -0.6953 0.2402
vn 0.9233 0.0000 0.3840
vn 0.6774 0.6953 0.2402
vn 0.7002 -0.6946 0.1648
vn 0.9590 0.0000 0.2835
vn 0.7002 0.6946 0.1648
vn 0.7148 -0.6943 0.0838
vn 0.9848 0.0000 0.1739
vn 0.7148 0.6943 0.0838
vn 0.7184 -0.6956 0.0047
vn 0.9983 0.0000 0.0585
vn 0.7184 0.6956 0.0047
vn 0.7153 -0.6952 -0.0714
vn 0.9990 0.0000 -0.0455
vn 0.7153 0.6952 -0.0714
vn 0.7041 -0.6922 -0.1585
vn 0.9882 0.0000 -0.1529
vn 0.7041 0.6922 -0.1585
vn 0.6751 -0.6887 -0.2644
vn 0.9585 0.0000 -0.2852
vn 0.6751 0.6887 -0.2644
vn 0.6179 -0.6852 -0.3856
vn 0.8972 0.0000 -0.4417
vn 0.6179 0.6852 -0.3856
vn 0.5243 -0.6828 -0.5088
vn 0.7910 0.0000 -0.6119
vn 0.5243 0.6828 -0.5088
vn 0.3974 -0.6825 -0.6134
vn 0.6353 0.0000 -0.7723
vn 0.3974 0.6825 -0.6134
vn 0.2549 -0.6844 -0.6831
vn 0.4452 0.0000 -0.8954
vn 0.2549 0.6844 -0.6831
vn 0.1188 -0.6877 -0.7162
vn 0.2503 0.0000 -0.9682
vn 0.1188 0.6877 -0.7162
vn 0.0146 -0.6948 -0.7190
vn 0.0758 0.0000 -0.9971
vn 0.0146 0.6948 -0.7190
vn -0.0510 -0.6991 -0.7132
vn -0.0352 0.0000 -0.9994
vn -0.0510 0.6991 -0.7132
vn -0.1031 -0.6988 -0.7078
vn -0.1073 0.0000 -0.9942
vn -0.1031 0.6988 -0.7078
vn -0.1559 -0.6987 -0.6982
vn -0.1808 0.0000 -0.9835
vn -0.1559 0.6987 -0.6982
vn -0.2084 -0.6986 -0.6844
vn -0.2547 0.0000 -0.9670
vn -0.2084 0.6986 -0.6844
vn -0.2597 -0.6987 -0.6666
vn -0.3275 0.0000 -0.9449
vn -0.2597 0.6987 -0.6667
vn -0.3089 -0.6988 -0.6452
vn -0.3980 0.0000 -0.9174
vn -0.3089 0.6988 -0.6452
vn -0.3552 -0.6991 -0.6206
vn -0.4651 0.0000 -0.8853
vn -0.3552 0.6991 -0.6206
vn -0.3982 -0.6993 -0.5936
vn -0.5279 0.0000 -0.8493
vn -0.3982 0.6993 -0.5936
vn -0.4447 -0.6974 -0.5620
vn -0.5857 0.0000 -0.8105
vn -0.4447 0.6974 -0.5620
vn -0.4998 -0.6949 -0.5171
vn -0.6542 0.0000 -0.7564
vn -0.4998 0.6949 -0.5171
vn -0.5547 -0.6946 -0.4581
vn -0.7338 0.0000 -0.6794
vn -0.5547 0.6946 -0.4581
vn -0.6030 -0.6946 -0.3924
vn -0.8059 0.0000 -0.5920
vn -0.6030 0.6946 -0.3924
vn -0.6426 -0.6949 -0.3226
vn -0.8676 0.0000 -0.4972
vn -0.6426 0.6949 -0.3226
vn -0.6730 -0.6955 -0.2517
vn -0.9170 0.0000 -0.3988
vn -0.6730 0.6955 -0.2517
vn -0.6942 -0.6963 -0.1823
vn -0.9537 0.0000 -0.3008
vn -0.6942 0.6963 -0.1823
vn -0.7074 -0.6972 -0.1165
vn -0.9784 0.0000 -0.2065
vn -0.7074 0.6972 -0.1165
vn -0.7138 -0.6981 -0.0558
vn -0.9930 0.0000 -0.1183
vn -0.7138 0.6981 -0.0558
vn -0.7175 -0.6966 0.0073
vn -0.9993 0.0000 -0.0374
vn -0.7175 0.6966 0.0073
vn -0.7159 -0.6925 0.0891
vn -0.9983 0.0000 0.0576
vn -0.7159 0.6925 0.0891
vn -0.6980 -0.6900 0.1917
vn -0.9820 0.0000 0.1889
vn -0.6980 0.6900 0.1917
vn -0.6585 -0.6878 0.3056
vn -0.9407 0.0000 0.3391
vn -0.6585 0.6878 0.3056
vn -0.5928 -0.6864 0.4212
vn -0.8664 0.0000 0.4994
vn -0.5928 0.6864 0.4212
vn -0.5029 -0.6864 0.5253
vn -0.7568 0.0000 0.6537
vn -0.5029 0.6864 0.5253
vn -0.3981 -0.6878 0.6070
vn -0.6201 0.0000 0.7845
vn -0.3981 0.6878 0.6070
vn -0.2913 -0.6900 0.6626
vn -0.4725 0.0000 0.8814
vn -0.2913 0.6900 0.6626
vn -0.1926 -0.6925 0.6952
vn -0.3300 0.0000 0.9440
vn -0.1926 0.6925 0.6952
vn -0.2206 -0.9742 0.0470
vn -0.2027 0.0000 0.9792
vn -0.2206 0.9742 0.0470
vn -0.5839 0.0000 -0.8118
vn -0.0896 -0.7233 0.6847
vn -0.1941 -0.7270 0.6587
vn -0.1991 0.0000 0.9800
vn -0.1941 0.7270 0.6587
vn -0.0896 0.7233 0.6847
vn -0.3113 -0.7305 0.6079
vn -0.3640 0.0000 0.9314
vn -0.3113 0.7305 0.6079
vn -0.4299 -0.7326 0.5277
vn -0.5430 0.0000 0.8398
vn -0.4299 0.7326 0.5277
vn -0.5343 -0.7324 0.4220
vn -0.7127 0.0000 0.7015
vn -0.5343 0.7324 0.4220
vn -0.6122 -0.7300 0.3039
vn -0.8475 0.0000 0.5308
vn -0.6122 0.7300 0.3039
vn -0.6608 -0.7264 0.1887
vn -0.9352 0.0000 0.3540
vn -0.6608 0.7264 0.1887
vn -0.6856 -0.7228 0.0869
vn -0.9812 0.0000 0.1931
vn -0.6856 0.7228 0.0869
vn -0.6937 -0.7202 0.0004
vn -0.9983 0.0000 0.0578
vn -0.6937 0.7202 0.0004
vn -0.6861 -0.7225 -0.0854
vn -0.9984 0.0000 -0.0567
vn -0.6861 0.7225 -0.0854
vn -0.6621 -0.7261 -0.1856
vn -0.9818 0.0000 -0.1897
vn -0.6621 0.7261 -0.1856
vn -0.6146 -0.7297 -0.2995
vn -0.9374 0.0000 -0.3483
vn -0.6146 0.7297 -0.2995
vn -0.5381 -0.7323 -0.4173
vn -0.8519 0.0000 -0.5237
vn -0.5381 0.7323 -0.4173
vn -0.4346 -0.7327 -0.5237
vn -0.7192 0.0000 -0.6948
vn -0.4346 0.7327 -0.5237
vn -0.3157 -0.7307 -0.6053
vn -0.5501 0.0000 -0.8351
vn -0.3157 0.7307 -0.6053
vn -0.1973 -0.7273 -0.6574
vn -0.3699 0.0000 -0.9291
vn -0.1973 0.7273 -0.6574
vn -0.0912 -0.7236 -0.6842
vn -0.2028 0.0000 -0.9792
vn -0.0912 0.7236 -0.6842
vn -0.0000 -0.7210 -0.6929
vn -0.0608 0.0000 -0.9982
vn -0.0000 0.7210 -0.6929
vn 0.0912 -0.7236 -0.6842
vn 0.0608 0.0000 -0.9982
vn 0.0912 0.7236 -0.6842
vn 0.1973 -0.7273 -0.6574
vn 0.2028 0.0000 -0.9792
vn 0.1973 0.7273 -0.6574
vn 0.3157 -0.7307 -0.6053
vn 0.3699 0.0000 -0.9291
vn 0.3157 0.7307 -0.6053
vn 0.4346 -0.7327 -0.5237
vn 0.5501 0.0000 -0.8351
vn 0.4346 0.7327 -0.5237
vn 0.5381 -0.7323 -0.4173
vn 0.7192 0.0000 -0.6948
vn 0.5381 0.7323 -0.4173
vn 0.6146 -0.7297 -0.2995
vn 0.8519 0.0000 -0.5237
vn 0.6146 0.7297 -0.2995
vn 0.6621 -0.7261 -0.1856
vn 0.9374 0.0000 -0.3483
vn 0.6621 0.7261 -0.1856
vn 0.6861 -0.7225 -0.0854
vn 0.9818 0.0000 -0.1897
vn 0.6861 0.7225 -0.0854
vn 0.6937 -0.7202 0.0004
vn 0.9984 0.0000 -0.0567
vn 0.6937 0.7202 0.0004
vn 0.6856 -0.7228 0.0869
vn 0.9983 0.0000 0.0578
vn 0.6856 0.7228 0.0869
vn 0.6608 -0.7264 0.1887
vn 0.9812 0.0000 0.1931
vn 0.6608 0.7264 0.1887
vn 0.6122 -0.7300 0.3039
vn 0.9352 0.0000 0.3540
vn 0.6122 0.7300 0.3039
vn 0.5343 -0.7324 0.4220
vn 0.8475 0.0000 0.5308
vn 0.5343 0.7324 0.4220
vn 0.4299 -0.7326 0.5277
vn 0.7127 0.0000 0.7015
vn 0.4299 0.7326 0.5277
vn 0.3113 -0.7305 0.6079
vn 0.5430 0.0000 0.8398
vn 0.3113 0.7305 0.6079
vn 0.1941 -0.7270 0.6587
vn 0.3640 0.0000 0.9314
vn 0.1941 0.7270 0.6587
vn 0.0896 -0.7233 0.6847
vn 0.1991 0.0000 0.9800
vn 0.0896 0.7233 0.6847
vn -0.0000 -0.7208 0.6932
vn 0.0597 0.0000 0.9982
vn -0.0000 0.7208 0.6932
vn -0.0597 0.0000 0.9982
vn 0.0000 -1.0000 -0.0000
vn 0.0000 1.0000 -0.0000
# 680 vertex normals

o Number_1
g Number_1
s 1
f 1//1 2//2 3//3 
f 2//2 4//4 3//3 
f 4//4 5//5 3//3 
f 5//5 1//1 3//3 
s 3
f 2//2 6//6 7//7 
f 6//6 8//8 7//7 
f 8//8 4//4 7//7 
f 4//4 2//2 7//7 
s 2
f 6//6 9//9 10//10 
f 9//9 11//11 10//10 
f 11//11 8//8 10//10 
f 8//8 6//6 10//10 
f 9//9 12//12 13//13 
f 12//12 14//14 13//13 
f 14//14 11//11 13//13 
f 11//11 9//9 13//13 
f 12//12 15//15 16//16 
f 15//15 17//17 16//16 
f 17//17 14//14 16//16 
f 14//14 12//12 16//16 
f 15//15 18//18 19//19 
f 18//18 20//20 19//19 
f 20//20 17//17 19//19 
f 17//17 15//15 19//19 
f 18//18 21//21 22//22 
f 21//21 23//23 22//22 
f 23//23 20//20 22//22 
f 20//20 18//18 22//22 
f 21//21 24//24 25//25 
f 24//24 26//26 25//25 
f 26//26 23//23 25//25 
f 23//23 21//21 25//25 
f 24//24 27//27 28//28 
f 27//27 29//29 28//28 
f 29//29 26//26 28//28 
f 26//26 24//24 28//28 
f 27//27 30//30 31//31 
f 30//30 32//32 31//31 
f 32//32 29//29 31//31 
f 29//29 27//27 31//31 
f 30//30 33//33 34//34 
f 33//33 35//35 34//34 
f 35//35 32//32 34//34 
f 32//32 30//30 34//34 
f 33//33 36//36 37//37 
f 36//36 38//38 37//37 
f 38//38 35//35 37//37 
f 35//35 33//33 37//37 
f 36//36 39//39 40//40 
f 39//39 41//41 40//40 
f 41//41 38//38 40//40 
f 38//38 36//36 40//40 
f 39//39 42//42 43//43 
f 42//42 44//44 43//43 
f 44//44 41//41 43//43 
f 41//41 39//39 43//43 
f 42//42 45//45 46//46 
f 45//45 47//47 46//46 
f 47//47 44//44 46//46 
f 44//44 42//42 46//46 
f 45//45 48//48 49//49 
f 48//48 50//50 49//49 
f 50//50 47//47 49//49 
f 47//47 45//45 49//49 
f 48//48 51//51 52//52 
f 51//51 53//53 52//52 
f 53//53 50//50 52//52 
f 50//50 48//48 52//52 
f 51//51 54//54 55//55 
f 54//54 56//56 55//55 
f 56//56 53//53 55//55 
f 53//53 51//51 55//55 
f 54//54 57//57 58//58 
f 57//57 59//59 58//58 
f 59//59 56//56 58//58 
f 56//56 54//54 58//58 
f 57//57 60//60 61//61 
f 60//60 62//62 61//61 
f 62//62 59//59 61//61 
f 59//59 57//57 61//61 
f 60//60 63//63 64//64 
f 63//63 65//65 64//64 
f 65//65 62//62 64//64 
f 62//62 60//60 64//64 
f 63//63 66//66 67//67 
f 66//66 68//68 67//67 
f 68//68 65//65 67//67 
f 65//65 63//63 67//67 
f 66//66 69//69 70//70 
f 69//69 71//71 70//70 
f 71//71 68//68 70//70 
f 68//68 66//66 70//70 
f 69//69 72//72 73//73 
f 72//72 74//74 73//73 
f 74//74 71//71 73//73 
f 71//71 69//69 73//73 
f 72//72 75//75 76//76 
f 75//75 77//77 76//76 
f 77//77 74//74 76//76 
f 74//74 72//72 76//76 
f 75//75 78//78 79//79 
f 78//78 80//80 79//79 
f 80//80 77//77 79//79 
f 77//77 75//75 79//79 
f 78//78 81//81 82//82 
f 81//81 83//83 82//82 
f 83//83 80//80 82//82 
f 80//80 78//78 82//82 
f 81//81 84//84 85//85 
f 84//84 86//86 85//85 
f 86//86 83//83 85//85 
f 83//83 81//81 85//85 
f 84//84 87//87 88//88 
f 87//87 89//89 88//88 
f 89//89 86//86 88//88 
f 86//86 84//84 88//88 
f 87//87 90//90 91//91 
f 90//90 92//92 91//91 
f 92//92 89//89 91//91 
f 89//89 87//87 91//91 
f 90//90 93//93 94//94 
f 93//93 95//95 94//94 
f 95//95 92//92 94//94 
f 92//92 90//90 94//94 
f 93//93 96//96 97//97 
f 96//96 98//98 97//97 
f 98//98 95//95 97//97 
f 95//95 93//93 97//97 
f 96//96 99//99 100//100 
f 99//99 101//101 100//100 
f 101//101 98//98 100//100 
f 98//98 96//96 100//100 
f 99//99 102//102 103//103 
f 102//102 104//104 103//103 
f 104//104 101//101 103//103 
f 101//101 99//99 103//103 
f 102//102 105//105 106//106 
f 105//105 107//107 106//106 
f 107//107 104//104 106//106 
f 104//104 102//102 106//106 
f 105//105 108//108 109//109 
f 108//108 110//110 109//109 
f 110//110 107//107 109//109 
f 107//107 105//105 109//109 
f 108//108 111//111 112//112 
f 111//111 113//113 112//112 
f 113//113 110//110 112//112 
f 110//110 108//108 112//112 
f 111//111 114//114 115//115 
f 114//114 116//116 115//115 
f 116//116 113//113 115//115 
f 113//113 111//111 115//115 
f 114//114 117//117 118//118 
f 117//117 119//119 118//118 
f 119//119 116//116 118//118 
f 116//116 114//114 118//118 
f 117//117 120//120 121//121 
f 120//120 122//122 121//121 
f 122//122 119//119 121//121 
f 119//119 117//117 121//121 
f 120//120 123//123 124//124 
f 123//123 125//125 124//124 
f 125//125 122//122 124//124 
f 122//122 120//120 124//124 
f 123//123 126//126 127//127 
f 126//126 128//128 127//127 
f 128//128 125//125 127//127 
f 125//125 123//123 127//127 
f 126//126 129//129 130//130 
f 129//129 131//131 130//130 
f 131//131 128//128 130//130 
f 128//128 126//126 130//130 
f 129//129 132//132 133//133 
f 132//132 134//134 133//133 
f 134//134 131//131 133//133 
f 131//131 129//129 133//133 
f 132//132 135//135 136//136 
f 135//135 137//137 136//136 
f 137//137 134//134 136//136 
f 134//134 132//132 136//136 
f 135//135 138//138 139//139 
f 138//138 140//140 139//139 
f 140//140 137//137 139//139 
f 137//137 135//135 139//139 
f 138//138 141//141 142//142 
f 141//141 143//143 142//142 
f 143//143 140//140 142//142 
f 140//140 138//138 142//142 
f 141//141 144//144 145//145 
f 144//144 146//146 145//145 
f 146//146 143//143 145//145 
f 143//143 141//141 145//145 
f 144//144 147//147 148//148 
f 147//147 149//149 148//148 
f 149//149 146//146 148//148 
f 146//146 144//144 148//148 
f 147//147 150//150 151//151 
f 150//150 152//152 151//151 
f 152//152 149//149 151//151 
f 149//149 147//147 151//151 
f 150//150 153//153 154//154 
f 153//153 155//155 154//154 
f 155//155 152//152 154//154 
f 152//152 150//150 154//154 
f 153//153 156//156 157//157 
f 156//156 158//158 157//157 
f 158//158 155//155 157//157 
f 155//155 153//153 157//157 
f 156//156 159//159 160//160 
f 159//159 161//161 160//160 
f 161//161 158//158 160//160 
f 158//158 156//156 160//160 
f 159//159 162//162 163//163 
f 162//162 164//164 163//163 
f 164//164 161//161 163//163 
f 161//161 159//159 163//163 
f 162//162 165//165 166//166 
f 165//165 167//167 166//166 
f 167//167 164//164 166//166 
f 164//164 162//162 166//166 
f 165//165 168//168 169//169 
f 168//168 170//170 169//169 
f 170//170 167//167 169//169 
f 167//167 165//165 169//169 
f 168//168 171//171 172//172 
f 171//171 173//173 172//172 
f 173//173 170//170 172//172 
f 170//170 168//168 172//172 
f 171//171 174//174 175//175 
f 174//174 176//176 175//175 
f 176//176 173//173 175//175 
f 173//173 171//171 175//175 
f 174//174 177//177 178//178 
f 177//177 179//179 178//178 
f 179//179 176//176 178//178 
f 176//176 174//174 178//178 
f 177//177 180//180 181//181 
f 180//180 182//182 181//181 
f 182//182 179//179 181//181 
f 179//179 177//177 181//181 
f 180//180 183//183 184//184 
f 183//183 185//185 184//184 
f 185//185 182//182 184//184 
f 182//182 180//180 184//184 
f 183//183 186//186 187//187 
f 186//186 188//188 187//187 
f 188//188 185//185 187//187 
f 185//185 183//183 187//187 
s 4
f 186//186 189//189 190//190 
f 189//189 191//191 190//190 
f 191//191 188//188 190//190 
f 188//188 186//186 190//190 
s 2
f 189//189 192//192 193//193 
f 192//192 194//194 193//193 
f 194//194 191//191 193//193 
f 191//191 189//189 193//193 
f 192//192 195//195 196//196 
f 195//195 197//197 196//196 
f 197//197 194//194 196//196 
f 194//194 192//192 196//196 
f 195//195 198//198 199//199 
f 198//198 200//200 199//199 
f 200//200 197//197 199//199 
f 197//197 195//195 199//199 
f 198//198 201//201 202//202 
f 201//201 203//203 202//202 
f 203//203 200//200 202//202 
f 200//200 198//198 202//202 
f 201//201 204//204 205//205 
f 204//204 206//206 205//205 
f 206//206 203//203 205//205 
f 203//203 201//201 205//205 
f 204//204 207//207 208//208 
f 207//207 209//209 208//208 
f 209//209 206//206 208//208 
f 206//206 204//204 208//208 
f 207//207 210//210 211//211 
f 210//210 212//212 211//211 
f 212//212 209//209 211//211 
f 209//209 207//207 211//211 
f 210//210 213//213 214//214 
f 213//213 215//215 214//214 
f 215//215 212//212 214//214 
f 212//212 210//210 214//214 
f 213//213 216//216 217//217 
f 216//216 218//218 217//217 
f 218//218 215//215 217//217 
f 215//215 213//213 217//217 
f 216//216 219//219 220//220 
f 219//219 221//221 220//220 
f 221//221 218//218 220//220 
f 218//218 216//216 220//220 
f 219//219 222//222 223//223 
f 222//222 224//224 223//223 
f 224//224 221//221 223//223 
f 221//221 219//219 223//223 
f 222//222 225//225 226//226 
f 225//225 227//227 226//226 
f 227//227 224//224 226//226 
f 224//224 222//222 226//226 
f 225//225 228//228 229//229 
f 228//228 230//230 229//229 
f 230//230 227//227 229//229 
f 227//227 225//225 229//229 
f 228//228 231//231 232//232 
f 231//231 233//233 232//232 
f 233//233 230//230 232//232 
f 230//230 228//228 232//232 
f 231//231 234//234 235//235 
f 234//234 236//236 235//235 
f 236//236 233//233 235//235 
f 233//233 231//231 235//235 
f 234//234 237//237 238//238 
f 237//237 239//239 238//238 
f 239//239 236//236 238//238 
f 236//236 234//234 238//238 
f 237//237 240//240 241//241 
f 240//240 242//242 241//241 
f 242//242 239//239 241//241 
f 239//239 237//237 241//241 
f 240//240 243//243 244//244 
f 243//243 245//245 244//244 
f 245//245 242//242 244//244 
f 242//242 240//240 244//244 
f 243//243 246//246 247//247 
f 246//246 248//248 247//247 
f 248//248 245//245 247//247 
f 245//245 243//243 247//247 
f 246//246 249//249 250//250 
f 249//249 251//251 250//250 
f 251//251 248//248 250//250 
f 248//248 246//246 250//250 
f 249//249 252//252 253//253 
f 252//252 254//254 253//253 
f 254//254 251//251 253//253 
f 251//251 249//249 253//253 
f 252//252 255//255 256//256 
f 255//255 257//257 256//256 
f 257//257 254//254 256//256 
f 254//254 252//252 256//256 
f 255//255 258//258 259//259 
f 258//258 260//260 259//259 
f 260//260 257//257 259//259 
f 257//257 255//255 259//259 
f 258//258 261//261 262//262 
f 261//261 263//263 262//262 
f 263//263 260//260 262//262 
f 260//260 258//258 262//262 
f 261//261 264//264 265//265 
f 264//264 266//266 265//265 
f 266//266 263//263 265//265 
f 263//263 261//261 265//265 
f 264//264 267//267 268//268 
f 267//267 269//269 268//268 
f 269//269 266//266 268//268 
f 266//266 264//264 268//268 
f 267//267 270//270 271//271 
f 270//270 272//272 271//271 
f 272//272 269//269 271//271 
f 269//269 267//267 271//271 
f 270//270 273//273 274//274 
f 273//273 275//275 274//274 
f 275//275 272//272 274//274 
f 272//272 270//270 274//274 
f 273//273 276//276 277//277 
f 276//276 278//278 277//277 
f 278//278 275//275 277//277 
f 275//275 273//273 277//277 
f 276//276 279//279 280//280 
f 279//279 281//281 280//280 
f 281//281 278//278 280//280 
f 278//278 276//276 280//280 
f 279//279 282//282 283//283 
f 282//282 284//284 283//283 
f 284//284 281//281 283//283 
f 281//281 279//279 283//283 
f 282//282 285//285 286//286 
f 285//285 287//287 286//286 
f 287//287 284//284 286//286 
f 284//284 282//282 286//286 
f 285//285 288//288 289//289 
f 288//288 290//290 289//289 
f 290//290 287//287 289//289 
f 287//287 285//285 289//289 
f 288//288 291//291 292//292 
f 291//291 293//293 292//292 
f 293//293 290//290 292//292 
f 290//290 288//288 292//292 
f 291//291 294//294 295//295 
f 294//294 296//296 295//295 
f 296//296 293//293 295//295 
f 293//293 291//291 295//295 
f 294//294 297//297 298//298 
f 297//297 299//299 298//298 
f 299//299 296//296 298//298 
f 296//296 294//294 298//298 
f 297//297 300//300 301//301 
f 300//300 302//302 301//301 
f 302//302 299//299 301//301 
f 299//299 297//297 301//301 
f 300//300 303//303 304//304 
f 303//303 305//305 304//304 
f 305//305 302//302 304//304 
f 302//302 300//300 304//304 
f 303//303 306//306 307//307 
f 306//306 308//308 307//307 
f 308//308 305//305 307//307 
f 305//305 303//303 307//307 
f 306//306 309//309 310//310 
f 309//309 311//311 310//310 
f 311//311 308//308 310//310 
f 308//308 306//306 310//310 
f 309//309 312//312 313//313 
f 312//312 314//314 313//313 
f 314//314 311//311 313//313 
f 311//311 309//309 313//313 
f 312//312 315//315 316//316 
f 315//315 317//317 316//316 
f 317//317 314//314 316//316 
f 314//314 312//312 316//316 
f 315//315 318//318 319//319 
f 318//318 320//320 319//319 
f 320//320 317//317 319//319 
f 317//317 315//315 319//319 
f 318//318 321//321 322//322 
f 321//321 323//323 322//322 
f 323//323 320//320 322//322 
f 320//320 318//318 322//322 
f 321//321 324//324 325//325 
f 324//324 326//326 325//325 
f 326//326 323//323 325//325 
f 323//323 321//321 325//325 
f 324//324 327//327 328//328 
f 327//327 329//329 328//328 
f 329//329 326//326 328//328 
f 326//326 324//324 328//328 
f 327//327 330//330 331//331 
f 330//330 332//332 331//331 
f 332//332 329//329 331//331 
f 329//329 327//327 331//331 
f 330//330 333//333 334//334 
f 333//333 335//335 334//334 
f 335//335 332//332 334//334 
f 332//332 330//330 334//334 
f 333//333 336//336 337//337 
f 336//336 338//338 337//337 
f 338//338 335//335 337//337 
f 335//335 333//333 337//337 
f 336//336 339//339 340//340 
f 339//339 341//341 340//340 
f 341//341 338//338 340//340 
f 338//338 336//336 340//340 
f 339//339 342//342 343//343 
f 342//342 344//344 343//343 
f 344//344 341//341 343//343 
f 341//341 339//339 343//343 
f 342//342 345//345 346//346 
f 345//345 347//347 346//346 
f 347//347 344//344 346//346 
f 344//344 342//342 346//346 
f 345//345 348//348 349//349 
f 348//348 350//350 349//349 
f 350//350 347//347 349//349 
f 347//347 345//345 349//349 
f 348//348 351//351 352//352 
f 351//351 353//353 352//352 
f 353//353 350//350 352//352 
f 350//350 348//348 352//352 
f 351//351 354//354 355//355 
f 354//354 356//356 355//355 
f 356//356 353//353 355//355 
f 353//353 351//351 355//355 
f 354//354 357//357 358//358 
f 357//357 359//359 358//358 
f 359//359 356//356 358//358 
f 356//356 354//354 358//358 
f 357//357 360//360 361//361 
f 360//360 362//362 361//361 
f 362//362 359//359 361//361 
f 359//359 357//357 361//361 
f 360//360 363//363 364//364 
f 363//363 365//365 364//364 
f 365//365 362//362 364//364 
f 362//362 360//360 364//364 
f 363//363 366//366 367//367 
f 366//366 368//368 367//367 
f 368//368 365//365 367//367 
f 365//365 363//363 367//367 
f 366//366 369//369 370//370 
f 369//369 371//371 370//370 
f 371//371 368//368 370//370 
f 368//368 366//366 370//370 
f 369//369 372//372 373//373 
f 372//372 374//374 373//373 
f 374//374 371//371 373//373 
f 371//371 369//369 373//373 
f 372//372 375//375 376//376 
f 375//375 377//377 376//376 
f 377//377 374//374 376//376 
f 374//374 372//372 376//376 
f 375//375 378//378 379//379 
f 378//378 380//380 379//379 
f 380//380 377//377 379//379 
f 377//377 375//375 379//379 
f 378//378 381//381 382//382 
f 381//381 383//383 382//382 
f 383//383 380//380 382//382 
f 380//380 378//378 382//382 
f 381//381 384//384 385//385 
f 384//384 386//386 385//385 
f 386//386 383//383 385//385 
f 383//383 381//381 385//385 
f 384//384 387//387 388//388 
f 387//387 389//389 388//388 
f 389//389 386//386 388//388 
f 386//386 384//384 388//388 
f 387//387 390//390 391//391 
f 390//390 392//392 391//391 
f 392//392 389//389 391//391 
f 389//389 387//387 391//391 
f 390//390 393//393 394//394 
f 393//393 395//395 394//394 
f 395//395 392//392 394//394 
f 392//392 390//390 394//394 
f 393//393 396//396 397//397 
f 396//396 398//398 397//397 
f 398//398 395//395 397//397 
f 395//395 393//393 397//397 
f 396//396 399//399 400//400 
f 399//399 401//401 400//400 
f 401//401 398//398 400//400 
f 398//398 396//396 400//400 
f 399//399 402//402 403//403 
f 402//402 404//404 403//403 
f 404//404 401//401 403//403 
f 401//401 399//399 403//403 
f 402//402 405//405 406//406 
f 405//405 407//407 406//406 
f 407//407 404//404 406//406 
f 404//404 402//402 406//406 
f 405//405 408//408 409//409 
f 408//408 410//410 409//409 
f 410//410 407//407 409//409 
f 407//407 405//405 409//409 
f 408//408 411//411 412//412 
f 411//411 413//413 412//412 
f 413//413 410//410 412//412 
f 410//410 408//408 412//412 
f 411//411 414//414 415//415 
f 414//414 416//416 415//415 
f 416//416 413//413 415//415 
f 413//413 411//411 415//415 
f 414//414 417//417 418//418 
f 417//417 419//419 418//418 
f 419//419 416//416 418//418 
f 416//416 414//414 418//418 
f 417//417 420//420 421//421 
f 420//420 422//422 421//421 
f 422//422 419//419 421//421 
f 419//419 417//417 421//421 
f 420//420 423//423 424//424 
f 423//423 425//425 424//424 
f 425//425 422//422 424//424 
f 422//422 420//420 424//424 
f 423//423 426//426 427//427 
f 426//426 428//428 427//427 
f 428//428 425//425 427//427 
f 425//425 423//423 427//427 
f 426//426 429//429 430//430 
f 429//429 431//431 430//430 
f 431//431 428//428 430//430 
f 428//428 426//426 430//430 
f 429//429 432//432 433//433 
f 432//432 434//434 433//433 
f 434//434 431//431 433//433 
f 431//431 429//429 433//433 
f 432//432 435//435 436//436 
f 435//435 437//437 436//436 
f 437//437 434//434 436//436 
f 434//434 432//432 436//436 
f 435//435 438//438 439//439 
f 438//438 440//440 439//439 
f 440//440 437//437 439//439 
f 437//437 435//435 439//439 
f 438//438 441//441 442//442 
f 441//441 443//443 442//442 
f 443//443 440//440 442//442 
f 440//440 438//438 442//442 
f 441//441 444//444 445//445 
f 444//444 446//446 445//445 
f 446//446 443//443 445//445 
f 443//443 441//441 445//445 
f 444//444 447//447 448//448 
f 447//447 449//449 448//448 
f 449//449 446//446 448//448 
f 446//446 444//444 448//448 
f 447//447 450//450 451//451 
f 450//450 452//452 451//451 
f 452//452 449//449 451//451 
f 449//449 447//447 451//451 
f 450//450 453//453 454//454 
f 453//453 455//455 454//454 
f 455//455 452//452 454//454 
f 452//452 450//450 454//454 
f 453//453 456//456 457//457 
f 456//456 458//458 457//457 
f 458//458 455//455 457//457 
f 455//455 453//453 457//457 
f 456//456 459//459 460//460 
f 459//459 461//461 460//460 
f 461//461 458//458 460//460 
f 458//458 456//456 460//460 
f 459//459 462//462 463//463 
f 462//462 464//464 463//463 
f 464//464 461//461 463//463 
f 461//461 459//459 463//463 
f 462//462 465//465 466//466 
f 465//465 467//467 466//466 
f 467//467 464//464 466//466 
f 464//464 462//462 466//466 
f 465//465 468//468 469//469 
f 468//468 470//470 469//469 
f 470//470 467//467 469//469 
f 467//467 465//465 469//469 
f 468//468 471//471 472//472 
f 471//471 473//473 472//472 
f 473//473 470//470 472//472 
f 470//470 468//468 472//472 
f 471//471 474//474 475//475 
f 474//474 476//476 475//475 
f 476//476 473//473 475//475 
f 473//473 471//471 475//475 
f 474//474 477//477 478//478 
f 477//477 479//479 478//478 
f 479//479 476//476 478//478 
f 476//476 474//474 478//478 
f 477//477 480//480 481//481 
f 480//480 482//482 481//481 
f 482//482 479//479 481//481 
f 479//479 477//477 481//481 
f 480//480 483//483 484//484 
f 483//483 485//485 484//484 
f 485//485 482//482 484//484 
f 482//482 480//480 484//484 
f 483//483 486//486 487//487 
f 486//486 488//488 487//487 
f 488//488 485//485 487//487 
f 485//485 483//483 487//487 
f 486//486 489//489 490//490 
f 489//489 491//491 490//490 
f 491//491 488//488 490//490 
f 488//488 486//486 490//490 
f 489//489 492//492 493//493 
f 492//492 494//494 493//493 
f 494//494 491//491 493//493 
f 491//491 489//489 493//493 
f 492//492 495//495 496//496 
f 495//495 497//497 496//496 
f 497//497 494//494 496//496 
f 494//494 492//492 496//496 
f 495//495 498//498 499//499 
f 498//498 500//500 499//499 
f 500//500 497//497 499//499 
f 497//497 495//495 499//499 
f 498//498 501//501 502//502 
f 501//501 503//503 502//502 
f 503//503 500//500 502//502 
f 500//500 498//498 502//502 
f 501//501 504//504 505//505 
f 504//504 506//506 505//505 
f 506//506 503//503 505//505 
f 503//503 501//501 505//505 
f 504//504 507//507 508//508 
f 507//507 509//509 508//508 
f 509//509 506//506 508//508 
f 506//506 504//504 508//508 
f 507//507 510//510 511//511 
f 510//510 512//512 511//511 
f 512//512 509//509 511//511 
f 509//509 507//507 511//511 
f 510//510 513//513 514//514 
f 513//513 515//515 514//514 
f 515//515 512//512 514//514 
f 512//512 510//510 514//514 
f 513//513 516//516 517//517 
f 516//516 518//518 517//517 
f 518//518 515//515 517//517 
f 515//515 513//513 517//517 
f 516//516 519//519 520//520 
f 519//519 521//521 520//520 
f 521//521 518//518 520//520 
f 518//518 516//516 520//520 
f 519//519 522//522 523//523 
f 522//522 524//524 523//523 
f 524//524 521//521 523//523 
f 521//521 519//519 523//523 
f 522//522 525//525 526//526 
f 525//525 527//527 526//526 
f 527//527 524//524 526//526 
f 524//524 522//522 526//526 
f 525//525 528//528 529//529 
f 528//528 530//530 529//529 
f 530//530 527//527 529//529 
f 527//527 525//525 529//529 
f 528//528 531//531 532//532 
f 531//531 533//533 532//532 
f 533//533 530//530 532//532 
f 530//530 528//528 532//532 
f 531//531 534//534 535//535 
f 534//534 536//536 535//535 
f 536//536 533//533 535//535 
f 533//533 531//531 535//535 
f 534//534 537//537 538//538 
f 537//537 539//539 538//538 
f 539//539 536//536 538//538 
f 536//536 534//534 538//538 
f 537//537 540//540 541//541 
f 540//540 542//542 541//541 
f 542//542 539//539 541//541 
f 539//539 537//537 541//541 
f 540//540 543//543 544//544 
f 543//543 545//545 544//544 
f 545//545 542//542 544//544 
f 542//542 540//540 544//544 
f 543//543 546//546 547//547 
f 546//546 548//548 547//547 
f 548//548 545//545 547//547 
f 545//545 543//543 547//547 
f 546//546 549//549 550//550 
f 549//549 551//551 550//550 
f 551//551 548//548 550//550 
f 548//548 546//546 550//550 
f 549//549 552//552 553//553 
f 552//552 554//554 553//553 
f 554//554 551//551 553//553 
f 551//551 549//549 553//553 
f 552//552 555//555 556//556 
f 555//555 557//557 556//556 
f 557//557 554//554 556//556 
f 554//554 552//552 556//556 
f 555//555 558//558 559//559 
f 558//558 560//560 559//559 
f 560//560 557//557 559//559 
f 557//557 555//555 559//559 
f 558//558 561//561 562//562 
f 561//561 563//563 562//562 
f 563//563 560//560 562//562 
f 560//560 558//558 562//562 
f 561//561 564//564 565//565 
f 564//564 566//566 565//565 
f 566//566 563//563 565//565 
f 563//563 561//561 565//565 
f 564//564 567//567 568//568 
f 567//567 569//569 568//568 
f 569//569 566//566 568//568 
f 566//566 564//564 568//568 
s 5
f 567//567 1//1 570//570 
f 1//1 5//5 570//570 
f 5//5 569//569 570//570 
f 569//569 567//567 570//570 
s 1
f 571//571 572//572 573//573 
f 572//572 574//574 573//573 
f 574//574 575//575 573//573 
f 575//575 571//571 573//573 
s 3
f 572//572 576//576 577//577 
f 576//576 578//578 577//577 
f 578//578 574//574 577//577 
f 574//574 572//572 577//577 
s 2
f 576//576 579//579 580//580 
f 579//579 581//581 580//580 
f 581//581 578//578 580//580 
f 578//578 576//576 580//580 
f 579//579 582//582 583//583 
f 582//582 584//584 583//583 
f 584//584 581//581 583//583 
f 581//581 579//579 583//583 
f 582//582 585//585 586//586 
f 585//585 587//587 586//586 
f 587//587 584//584 586//586 
f 584//584 582//582 586//586 
f 585//585 588//588 589//589 
f 588//588 590//590 589//589 
f 590//590 587//587 589//589 
f 587//587 585//585 589//589 
f 588//588 591//591 592//592 
f 591//591 593//593 592//592 
f 593//593 590//590 592//592 
f 590//590 588//588 592//592 
f 591//591 594//594 595//595 
f 594//594 596//596 595//595 
f 596//596 593//593 595//595 
f 593//593 591//591 595//595 
f 594//594 597//597 598//598 
f 597//597 599//599 598//598 
f 599//599 596//596 598//598 
f 596//596 594//594 598//598 
f 597//597 600//600 601//601 
f 600//600 602//602 601//601 
f 602//602 599//599 601//601 
f 599//599 597//597 601//601 
f 600//600 603//603 604//604 
f 603//603 605//605 604//604 
f 605//605 602//602 604//604 
f 602//602 600//600 604//604 
f 603//603 606//606 607//607 
f 606//606 608//608 607//607 
f 608//608 605//605 607//607 
f 605//605 603//603 607//607 
f 606//606 609//609 610//610 
f 609//609 611//611 610//610 
f 611//611 608//608 610//610 
f 608//608 606//606 610//610 
f 609//609 612//612 613//613 
f 612//612 614//614 613//613 
f 614//614 611//611 613//613 
f 611//611 609//609 613//613 
f 612//612 615//615 616//616 
f 615//615 617//617 616//616 
f 617//617 614//614 616//616 
f 614//614 612//612 616//616 
f 615//615 618//618 619//619 
f 618//618 620//620 619//619 
f 620//620 617//617 619//619 
f 617//617 615//615 619//619 
f 618//618 621//621 622//622 
f 621//621 623//623 622//622 
f 623//623 620//620 622//622 
f 620//620 618//618 622//622 
f 621//621 624//624 625//625 
f 624//624 626//626 625//625 
f 626//626 623//623 625//625 
f 623//623 621//621 625//625 
f 624//624 627//627 628//628 
f 627//627 629//629 628//628 
f 629//629 626//626 628//628 
f 626//626 624//624 628//628 
f 627//627 630//630 631//631 
f 630//630 632//632 631//631 
f 632//632 629//629 631//631 
f 629//629 627//627 631//631 
f 630//630 633//633 634//634 
f 633//633 635//635 634//634 
f 635//635 632//632 634//634 
f 632//632 630//630 634//634 
f 633//633 636//636 637//637 
f 636//636 638//638 637//637 
f 638//638 635//635 637//637 
f 635//635 633//633 637//637 
f 636//636 639//639 640//640 
f 639//639 641//641 640//640 
f 641//641 638//638 640//640 
f 638//638 636//636 640//640 
f 639//639 642//642 643//643 
f 642//642 644//644 643//643 
f 644//644 641//641 643//643 
f 641//641 639//639 643//643 
f 642//642 645//645 646//646 
f 645//645 647//647 646//646 
f 647//647 644//644 646//646 
f 644//644 642//642 646//646 
f 645//645 648//648 649//649 
f 648//648 650//650 649//649 
f 650//650 647//647 649//649 
f 647//647 645//645 649//649 
f 648//648 651//651 652//652 
f 651//651 653//653 652//652 
f 653//653 650//650 652//652 
f 650//650 648//648 652//652 
f 651//651 654//654 655//655 
f 654//654 656//656 655//655 
f 656//656 653//653 655//655 
f 653//653 651//651 655//655 
f 654//654 657//657 658//658 
f 657//657 659//659 658//658 
f 659//659 656//656 658//658 
f 656//656 654//654 658//658 
f 657//657 660//660 661//661 
f 660//660 662//662 661//661 
f 662//662 659//659 661//661 
f 659//659 657//657 661//661 
f 660//660 663//663 664//664 
f 663//663 665//665 664//664 
f 665//665 662//662 664//664 
f 662//662 660//660 664//664 
f 663//663 666//666 667//667 
f 666//666 668//668 667//667 
f 668//668 665//665 667//667 
f 665//665 663//663 667//667 
f 666//666 669//669 670//670 
f 669//669 671//671 670//670 
f 671//671 668//668 670//670 
f 668//668 666//666 670//670 
f 669//669 672//672 673//673 
f 672//672 674//674 673//673 
f 674//674 671//671 673//673 
f 671//671 669//669 673//673 
f 672//672 675//675 676//676 
f 675//675 677//677 676//676 
f 677//677 674//674 676//676 
f 674//674 672//672 676//676 
s 3
f 675//675 571//571 678//678 
f 571//571 575//575 678//678 
f 575//575 677//677 678//678 
f 677//677 675//675 678//678 
s 16
f 183//183 189//189 679//679 
f 189//189 186//186 679//679 
f 186//186 183//183 679//679 
f 623//623 626//626 680//680 
f 626//626 569//569 680//680 
f 183//183 180//180 681//679 
f 180//180 195//195 681//679 
f 195//195 192//192 681//679 
f 192//192 189//189 681//679 
f 189//189 183//183 681//679 
f 180//180 177//177 682//679 
f 177//177 201//201 682//679 
f 201//201 198//198 682//679 
f 198//198 195//195 682//679 
f 195//195 180//180 682//679 
f 177//177 174//174 683//679 
f 174//174 210//210 683//679 
f 210//210 207//207 683//679 
f 207//207 204//204 683//679 
f 204//204 201//201 683//679 
f 201//201 177//177 683//679 
f 174//174 171//171 684//679 
f 171//171 216//216 684//679 
f 216//216 213//213 684//679 
f 213//213 210//210 684//679 
f 210//210 174//174 684//679 
f 171//171 168//168 685//679 
f 168//168 222//222 685//679 
f 222//222 219//219 685//679 
f 219//219 216//216 685//679 
f 216//216 171//171 685//679 
f 168//168 165//165 686//679 
f 165//165 228//228 686//679 
f 228//228 225//225 686//679 
f 225//225 222//222 686//679 
f 222//222 168//168 686//679 
f 165//165 162//162 687//679 
f 162//162 234//234 687//679 
f 234//234 231//231 687//679 
f 231//231 228//228 687//679 
f 228//228 165//165 687//679 
f 162//162 159//159 688//679 
f 159//159 243//243 688//679 
f 243//243 240//240 688//679 
f 240//240 237//237 688//679 
f 237//237 234//234 688//679 
f 234//234 162//162 688//679 
f 159//159 156//156 689//679 
f 156//156 249//249 689//679 
f 249//249 246//246 689//679 
f 246//246 243//243 689//679 
f 243//243 159//159 689//679 
f 156//156 153//153 690//679 
f 153//153 255//255 690//679 
f 255//255 252//252 690//679 
f 252//252 249//249 690//679 
f 249//249 156//156 690//679 
f 153//153 150//150 691//679 
f 150//150 261//261 691//679 
f 261//261 258//258 691//679 
f 258//258 255//255 691//679 
f 255//255 153//153 691//679 
f 150//150 147//147 692//679 
f 147//147 270//270 692//679 
f 270//270 267//267 692//679 
f 267//267 264//264 692//679 
f 264//264 261//261 692//679 
f 261//261 150//150 692//679 
f 147//147 144//144 693//679 
f 144//144 276//276 693//679 
f 276//276 273//273 693//679 
f 273//273 270//270 693//679 
f 270//270 147//147 693//679 
f 144//144 141//141 694//679 
f 141//141 282//282 694//679 
f 282//282 279//279 694//679 
f 279//279 276//276 694//679 
f 276//276 144//144 694//679 
f 141//141 138//138 695//679 
f 138//138 288//288 695//679 
f 288//288 285//285 695//679 
f 285//285 282//282 695//679 
f 282//282 141//141 695//679 
f 138//138 135//135 696//679 
f 135//135 291//291 696//679 
f 291//291 288//288 696//679 
f 288//288 138//138 696//679 
f 135//135 132//132 697//679 
f 132//132 297//297 697//679 
f 297//297 294//294 697//679 
f 294//294 291//291 697//679 
f 291//291 135//135 697//679 
f 132//132 129//129 698//679 
f 129//129 300//300 698//679 
f 300//300 297//297 698//679 
f 297//297 132//132 698//679 
f 129//129 126//126 699//679 
f 126//126 303//303 699//679 
f 303//303 300//300 699//679 
f 300//300 129//129 699//679 
f 126//126 123//123 700//679 
f 123//123 306//306 700//679 
f 306//306 303//303 700//679 
f 303//303 126//126 700//679 
f 123//123 120//120 701//679 
f 120//120 306//306 701//679 
f 306//306 123//123 701//679 
f 120//120 117//117 702//679 
f 117//117 309//309 702//679 
f 309//309 306//306 702//679 
f 306//306 120//120 702//679 
f 117//117 114//114 703//679 
f 114//114 312//312 703//679 
f 312//312 309//309 703//679 
f 309//309 117//117 703//679 
f 114//114 111//111 704//679 
f 111//111 315//315 704//679 
f 315//315 312//312 704//679 
f 312//312 114//114 704//679 
f 111//111 108//108 705//679 
f 108//108 321//321 705//679 
f 321//321 318//318 705//679 
f 318//318 315//315 705//679 
f 315//315 111//111 705//679 
f 108//108 105//105 706//679 
f 105//105 324//324 706//679 
f 324//324 321//321 706//679 
f 321//321 108//108 706//679 
f 105//105 102//102 707//679 
f 102//102 327//327 707//679 
f 327//327 324//324 707//679 
f 324//324 105//105 707//679 
f 102//102 99//99 708//679 
f 99//99 330//330 708//679 
f 330//330 327//327 708//679 
f 327//327 102//102 708//679 
f 99//99 96//96 709//679 
f 96//96 333//333 709//679 
f 333//333 330//330 709//679 
f 330//330 99//99 709//679 
f 96//96 93//93 710//679 
f 93//93 336//336 710//679 
f 336//336 333//333 710//679 
f 333//333 96//96 710//679 
f 93//93 90//90 711//679 
f 90//90 339//339 711//679 
f 339//339 336//336 711//679 
f 336//336 93//93 711//679 
f 90//90 87//87 712//679 
f 87//87 342//342 712//679 
f 342//342 339//339 712//679 
f 339//339 90//90 712//679 
f 87//87 84//84 713//679 
f 84//84 345//345 713//679 
f 345//345 342//342 713//679 
f 342//342 87//87 713//679 
f 84//84 81//81 714//679 
f 81//81 348//348 714//679 
f 348//348 345//345 714//679 
f 345//345 84//84 714//679 
f 81//81 78//78 715//679 
f 78//78 351//351 715//679 
f 351//351 348//348 715//679 
f 348//348 81//81 715//679 
f 78//78 75//75 716//679 
f 75//75 354//354 716//679 
f 354//354 351//351 716//679 
f 351//351 78//78 716//679 
f 75//75 72//72 717//679 
f 72//72 357//357 717//679 
f 357//357 354//354 717//679 
f 354//354 75//75 717//679 
f 72//72 69//69 718//679 
f 69//69 360//360 718//679 
f 360//360 357//357 718//679 
f 357//357 72//72 718//679 
f 69//69 66//66 719//679 
f 66//66 363//363 719//679 
f 363//363 360//360 719//679 
f 360//360 69//69 719//679 
f 66//66 63//63 720//679 
f 63//63 366//366 720//679 
f 366//366 363//363 720//679 
f 363//363 66//66 720//679 
f 63//63 60//60 721//679 
f 60//60 369//369 721//679 
f 369//369 366//366 721//679 
f 366//366 63//63 721//679 
f 60//60 57//57 722//679 
f 57//57 372//372 722//679 
f 372//372 369//369 722//679 
f 369//369 60//60 722//679 
f 57//57 54//54 723//679 
f 54//54 375//375 723//679 
f 375//375 372//372 723//679 
f 372//372 57//57 723//679 
f 54//54 51//51 724//679 
f 51//51 378//378 724//679 
f 378//378 375//375 724//679 
f 375//375 54//54 724//679 
f 51//51 48//48 725//679 
f 48//48 384//384 725//679 
f 384//384 381//381 725//679 
f 381//381 378//378 725//679 
f 378//378 51//51 725//679 
f 48//48 45//45 726//679 
f 45//45 387//387 726//679 
f 387//387 384//384 726//679 
f 384//384 48//48 726//679 
f 45//45 42//42 727//679 
f 42//42 390//390 727//679 
f 390//390 387//387 727//679 
f 387//387 45//45 727//679 
f 42//42 39//39 728//679 
f 39//39 393//393 728//679 
f 393//393 390//390 728//679 
f 390//390 42//42 728//679 
f 39//39 36//36 729//679 
f 36//36 396//396 729//679 
f 396//396 393//393 729//679 
f 393//393 39//39 729//679 
f 36//36 33//33 730//679 
f 33//33 399//399 730//679 
f 399//399 396//396 730//679 
f 396//396 36//36 730//679 
f 33//33 30//30 731//679 
f 30//30 402//402 731//679 
f 402//402 399//399 731//679 
f 399//399 33//33 731//679 
f 30//30 27//27 732//679 
f 27//27 405//405 732//679 
f 405//405 402//402 732//679 
f 402//402 30//30 732//679 
f 27//27 24//24 733//679 
f 24//24 408//408 733//679 
f 408//408 405//405 733//679 
f 405//405 27//27 733//679 
f 24//24 21//21 734//679 
f 21//21 411//411 734//679 
f 411//411 408//408 734//679 
f 408//408 24//24 734//679 
f 21//21 18//18 735//679 
f 18//18 411//411 735//679 
f 411//411 21//21 735//679 
f 18//18 15//15 736//679 
f 15//15 414//414 736//679 
f 414//414 411//411 736//679 
f 411//411 18//18 736//679 
f 15//15 12//12 737//679 
f 12//12 417//417 737//679 
f 417//417 414//414 737//679 
f 414//414 15//15 737//679 
f 12//12 9//9 738//679 
f 9//9 417//417 738//679 
f 417//417 12//12 738//679 
f 9//9 6//6 739//679 
f 6//6 420//420 739//679 
f 420//420 417//417 739//679 
f 417//417 9//9 739//679 
f 6//6 2//2 740//679 
f 2//2 423//423 740//679 
f 423//423 420//420 740//679 
f 420//420 6//6 740//679 
f 2//2 1//1 741//679 
f 1//1 423//423 741//679 
f 423//423 2//2 741//679 
f 1//1 567//567 742//679 
f 567//567 429//429 742//679 
f 429//429 426//426 742//679 
f 426//426 423//423 742//679 
f 423//423 1//1 742//679 
f 567//567 743//679 621//621 744//679 
f 621//621 618//618 744//679 
f 618//618 432//432 744//679 
f 432//432 429//429 744//679 
f 429//429 567//567 744//679 
f 618//618 615//615 745//679 
f 615//615 432//432 745//679 
f 432//432 618//618 745//679 
f 615//615 612//612 746//679 
f 612//612 432//432 746//679 
f 432//432 615//615 746//679 
f 612//612 609//609 747//679 
f 609//609 432//432 747//679 
f 432//432 612//612 747//679 
f 609//609 606//606 748//679 
f 606//606 432//432 748//679 
f 432//432 609//609 748//679 
f 606//606 603//603 749//679 
f 603//603 432//432 749//679 
f 432//432 606//606 749//679 
f 603//603 600//600 750//679 
f 600//600 432//432 750//679 
f 432//432 603//603 750//679 
f 600//600 597//597 751//679 
f 597//597 432//432 751//679 
f 432//432 600//600 751//679 
f 597//597 594//594 752//679 
f 594//594 462//462 752//679 
f 462//462 459//459 752//679 
f 459//459 456//456 752//679 
f 456//456 453//453 752//679 
f 453//453 450//450 752//679 
f 450//450 447//447 752//679 
f 447//447 444//444 752//679 
f 444//444 441//441 752//679 
f 441//441 438//438 752//679 
f 438//438 435//435 752//679 
f 435//435 432//432 752//679 
f 432//432 597//597 752//679 
f 594//594 591//591 753//679 
f 591//591 465//465 753//679 
f 465//465 462//462 753//679 
f 462//462 594//594 753//679 
f 591//591 588//588 754//679 
f 588//588 468//468 754//679 
f 468//468 465//465 754//679 
f 465//465 591//591 754//679 
f 588//588 585//585 755//679 
f 585//585 471//471 755//679 
f 471//471 468//468 755//679 
f 468//468 588//588 755//679 
f 585//585 582//582 756//679 
f 582//582 474//474 756//679 
f 474//474 471//471 756//679 
f 471//471 585//585 756//679 
f 582//582 579//579 757//679 
f 579//579 477//477 757//679 
f 477//477 474//474 757//679 
f 474//474 582//582 757//679 
f 579//579 576//576 758//679 
f 576//576 480//480 758//679 
f 480//480 477//477 758//679 
f 477//477 579//579 758//679 
f 576//576 572//572 759//679 
f 572//572 480//480 759//679 
f 480//480 576//576 759//679 
f 572//572 571//571 760//679 
f 571//571 483//483 760//679 
f 483//483 480//480 760//679 
f 480//480 572//572 760//679 
f 571//571 675//675 761//679 
f 675//675 486//486 761//679 
f 486//486 483//483 761//679 
f 483//483 571//571 761//679 
f 675//675 672//672 762//679 
f 672//672 492//492 762//679 
f 492//492 489//489 762//679 
f 489//489 486//486 762//679 
f 486//486 675//675 762//679 
f 672//672 669//669 763//679 
f 669//669 498//498 763//679 
f 498//498 495//495 763//679 
f 495//495 492//492 763//679 
f 492//492 672//672 763//679 
f 669//669 666//666 764//679 
f 666//666 504//504 764//679 
f 504//504 501//501 764//679 
f 501//501 498//498 764//679 
f 498//498 669//669 764//679 
f 666//666 663//663 765//679 
f 663//663 510//510 765//679 
f 510//510 507//507 765//679 
f 507//507 504//504 765//679 
f 504//504 666//666 765//679 
f 663//663 660//660 766//679 
f 660//660 516//516 766//679 
f 516//516 513//513 766//679 
f 513//513 510//510 766//679 
f 510//510 663//663 766//679 
f 660//660 657//657 767//679 
f 657//657 522//522 767//679 
f 522//522 519//519 767//679 
f 519//519 516//516 767//679 
f 516//516 660//660 767//679 
f 657//657 654//654 768//679 
f 654//654 531//531 768//679 
f 531//531 528//528 768//679 
f 528//528 525//525 768//679 
f 525//525 522//522 768//679 
f 522//522 657//657 768//679 
f 654//654 651//651 769//679 
f 651//651 534//534 769//679 
f 534//534 531//531 769//679 
f 531//531 654//654 769//679 
f 651//651 648//648 770//679 
f 648//648 540//540 770//679 
f 540//540 537//537 770//679 
f 537//537 534//534 770//679 
f 534//534 651//651 770//679 
f 648//648 645//645 771//679 
f 645//645 543//543 771//679 
f 543//543 540//540 771//679 
f 540//540 648//648 771//679 
f 645//645 642//642 772//679 
f 642//642 546//546 772//679 
f 546//546 543//543 772//679 
f 543//543 645//645 772//679 
f 642//642 639//639 773//679 
f 639//639 549//549 773//679 
f 549//549 546//546 773//679 
f 546//546 642//642 773//679 
f 639//639 636//636 774//679 
f 636//636 555//555 774//679 
f 555//555 552//552 774//679 
f 552//552 549//549 774//679 
f 549//549 639//639 774//679 
f 636//636 633//633 775//679 
f 633//633 558//558 775//679 
f 558//558 555//555 775//679 
f 555//555 636//636 775//679 
f 633//633 630//630 776//679 
f 630//630 564//564 776//679 
f 564//564 561//561 776//679 
f 561//561 558//558 776//679 
f 558//558 633//633 776//679 
f 630//630 627//627 777//679 
f 627//627 567//567 777//679 
f 567//567 564//564 777//679 
f 564//564 630//630 777//679 
f 627//627 624//624 778//679 
f 624//624 567//567 778//679 
f 567//567 627//627 778//679 
f 624//624 621//621 743//679 
f 567//567 624//624 743//679 
f 185//185 188//188 779//680 
f 188//188 191//191 779//680 
f 191//191 185//185 779//680 
f 626//626 629//629 780//680 
f 629//629 569//569 780//680 
f 569//569 626//626 780//680 
f 629//629 632//632 781//680 
f 632//632 566//566 781//680 
f 566//566 569//569 781//680 
f 569//569 629//629 781//680 
f 632//632 635//635 782//680 
f 635//635 560//560 782//680 
f 560//560 563//563 782//680 
f 563//563 566//566 782//680 
f 566//566 632//632 782//680 
f 635//635 638//638 783//680 
f 638//638 557//557 783//680 
f 557//557 560//560 783//680 
f 560//560 635//635 783//680 
f 638//638 641//641 784//680 
f 641//641 551//551 784//680 
f 551//551 554//554 784//680 
f 554//554 557//557 784//680 
f 557//557 638//638 784//680 
f 641//641 644//644 785//680 
f 644//644 548//548 785//680 
f 548//548 551//551 785//680 
f 551//551 641//641 785//680 
f 644//644 647//647 786//680 
f 647//647 545//545 786//680 
f 545//545 548//548 786//680 
f 548//548 644//644 786//680 
f 647//647 650//650 787//680 
f 650//650 542//542 787//680 
f 542//542 545//545 787//680 
f 545//545 647//647 787//680 
f 650//650 653//653 788//680 
f 653//653 536//536 788//680 
f 536//536 539//539 788//680 
f 539//539 542//542 788//680 
f 542//542 650//650 788//680 
f 653//653 656//656 789//680 
f 656//656 533//533 789//680 
f 533//533 536//536 789//680 
f 536//536 653//653 789//680 
f 656//656 659//659 790//680 
f 659//659 524//524 790//680 
f 524//524 527//527 790//680 
f 527//527 530//530 790//680 
f 530//530 533//533 790//680 
f 533//533 656//656 790//680 
f 659//659 662//662 791//680 
f 662//662 518//518 791//680 
f 518//518 521//521 791//680 
f 521//521 524//524 791//680 
f 524//524 659//659 791//680 
f 662//662 665//665 792//680 
f 665//665 512//512 792//680 
f 512//512 515//515 792//680 
f 515//515 518//518 792//680 
f 518//518 662//662 792//680 
f 665//665 668//668 793//680 
f 668//668 506//506 793//680 
f 506//506 509//509 793//680 
f 509//509 512//512 793//680 
f 512//512 665//665 793//680 
f 668//668 671//671 794//680 
f 671//671 500//500 794//680 
f 500//500 503//503 794//680 
f 503//503 506//506 794//680 
f 506//506 668//668 794//680 
f 671//671 674//674 795//680 
f 674//674 494//494 795//680 
f 494//494 497//497 795//680 
f 497//497 500//500 795//680 
f 500//500 671//671 795//680 
f 674//674 677//677 796//680 
f 677//677 488//488 796//680 
f 488//488 491//491 796//680 
f 491//491 494//494 796//680 
f 494//494 674//674 796//680 
f 677//677 575//575 797//680 
f 575//575 485//485 797//680 
f 485//485 488//488 797//680 
f 488//488 677//677 797//680 
f 575//575 574//574 798//680 
f 574//574 482//482 798//680 
f 482//482 485//485 798//680 
f 485//485 575//575 798//680 
f 574//574 578//578 799//680 
f 578//578 482//482 799//680 
f 482//482 574//574 799//680 
f 578//578 581//581 800//680 
f 581//581 479//479 800//680 
f 479//479 482//482 800//680 
f 482//482 578//578 800//680 
f 581//581 584//584 801//680 
f 584//584 476//476 801//680 
f 476//476 479//479 801//680 
f 479//479 581//581 801//680 
f 584//584 587//587 802//680 
f 587//587 473//473 802//680 
f 473//473 476//476 802//680 
f 476//476 584//584 802//680 
f 587//587 590//590 803//680 
f 590//590 470//470 803//680 
f 470//470 473//473 803//680 
f 473//473 587//587 803//680 
f 590//590 593//593 804//680 
f 593//593 467//467 804//680 
f 467//467 470//470 804//680 
f 470//470 590//590 804//680 
f 593//593 596//596 805//680 
f 596//596 464//464 805//680 
f 464//464 467//467 805//680 
f 467//467 593//593 805//680 
f 596//596 599//599 806//680 
f 599//599 434//434 806//680 
f 434//434 437//437 806//680 
f 437//437 440//440 806//680 
f 440//440 443//443 806//680 
f 443//443 446//446 806//680 
f 446//446 449//449 806//680 
f 449//449 452//452 806//680 
f 452//452 455//455 806//680 
f 455//455 458//458 806//680 
f 458//458 461//461 806//680 
f 461//461 464//464 806//680 
f 464//464 596//596 806//680 
f 599//599 602//602 807//680 
f 602//602 434//434 807//680 
f 434//434 599//599 807//680 
f 602//602 605//605 808//680 
f 605//605 434//434 808//680 
f 434//434 602//602 808//680 
f 605//605 608//608 809//680 
f 608//608 434//434 809//680 
f 434//434 605//605 809//680 
f 608//608 611//611 810//680 
f 611//611 434//434 810//680 
f 434//434 608//608 810//680 
f 611//611 614//614 811//680 
f 614//614 434//434 811//680 
f 434//434 611//611 811//680 
f 614//614 617//617 812//680 
f 617//617 434//434 812//680 
f 434//434 614//614 812//680 
f 617//617 620//620 813//680 
f 620//620 434//434 813//680 
f 434//434 617//617 813//680 
f 620//620 623//623 814//680 
f 623//623 680//680 569//569 814//680 
f 569//569 431//431 814//680 
f 431//431 434//434 814//680 
f 434//434 620//620 814//680 
f 569//569 5//5 815//680 
f 5//5 425//425 815//680 
f 425//425 428//428 815//680 
f 428//428 431//431 815//680 
f 431//431 569//569 815//680 
f 5//5 4//4 816//680 
f 4//4 425//425 816//680 
f 425//425 5//5 816//680 
f 4//4 8//8 817//680 
f 8//8 422//422 817//680 
f 422//422 425//425 817//680 
f 425//425 4//4 817//680 
f 8//8 11//11 818//680 
f 11//11 419//419 818//680 
f 419//419 422//422 818//680 
f 422//422 8//8 818//680 
f 11//11 14//14 819//680 
f 14//14 419//419 819//680 
f 419//419 11//11 819//680 
f 14//14 17//17 820//680 
f 17//17 416//416 820//680 
f 416//416 419//419 820//680 
f 419//419 14//14 820//680 
f 17//17 20//20 821//680 
f 20//20 413//413 821//680 
f 413//413 416//416 821//680 
f 416//416 17//17 821//680 
f 20//20 23//23 822//680 
f 23//23 413//413 822//680 
f 413//413 20//20 822//680 
f 23//23 26//26 823//680 
f 26//26 410//410 823//680 
f 410//410 413//413 823//680 
f 413//413 23//23 823//680 
f 26//26 29//29 824//680 
f 29//29 407//407 824//680 
f 407//407 410//410 824//680 
f 410//410 26//26 824//680 
f 29//29 32//32 825//680 
f 32//32 404//404 825//680 
f 404//404 407//407 825//680 
f 407//407 29//29 825//680 
f 32//32 35//35 826//680 
f 35//35 401//401 826//680 
f 401//401 404//404 826//680 
f 404//404 32//32 826//680 
f 35//35 38//38 827//680 
f 38//38 398//398 827//680 
f 398//398 401//401 827//680 
f 401//401 35//35 827//680 
f 38//38 41//41 828//680 
f 41//41 395//395 828//680 
f 395//395 398//398 828//680 
f 398//398 38//38 828//680 
f 41//41 44//44 829//680 
f 44//44 392//392 829//680 
f 392//392 395//395 829//680 
f 395//395 41//41 829//680 
f 44//44 47//47 830//680 
f 47//47 389//389 830//680 
f 389//389 392//392 830//680 
f 392//392 44//44 830//680 
f 47//47 50//50 831//680 
f 50//50 386//386 831//680 
f 386//386 389//389 831//680 
f 389//389 47//47 831//680 
f 50//50 53//53 832//680 
f 53//53 380//380 832//680 
f 380//380 383//383 832//680 
f 383//383 386//386 832//680 
f 386//386 50//50 832//680 
f 53//53 56//56 833//680 
f 56//56 377//377 833//680 
f 377//377 380//380 833//680 
f 380//380 53//53 833//680 
f 56//56 59//59 834//680 
f 59//59 374//374 834//680 
f 374//374 377//377 834//680 
f 377//377 56//56 834//680 
f 59//59 62//62 835//680 
f 62//62 371//371 835//680 
f 371//371 374//374 835//680 
f 374//374 59//59 835//680 
f 62//62 65//65 836//680 
f 65//65 368//368 836//680 
f 368//368 371//371 836//680 
f 371//371 62//62 836//680 
f 65//65 68//68 837//680 
f 68//68 365//365 837//680 
f 365//365 368//368 837//680 
f 368//368 65//65 837//680 
f 68//68 71//71 838//680 
f 71//71 362//362 838//680 
f 362//362 365//365 838//680 
f 365//365 68//68 838//680 
f 71//71 74//74 839//680 
f 74//74 359//359 839//680 
f 359//359 362//362 839//680 
f 362//362 71//71 839//680 
f 74//74 77//77 840//680 
f 77//77 356//356 840//680 
f 356//356 359//359 840//680 
f 359//359 74//74 840//680 
f 77//77 80//80 841//680 
f 80//80 353//353 841//680 
f 353//353 356//356 841//680 
f 356//356 77//77 841//680 
f 80//80 83//83 842//680 
f 83//83 350//350 842//680 
f 350//350 353//353 842//680 
f 353//353 80//80 842//680 
f 83//83 86//86 843//680 
f 86//86 347//347 843//680 
f 347//347 350//350 843//680 
f 350//350 83//83 843//680 
f 86//86 89//89 844//680 
f 89//89 344//344 844//680 
f 344//344 347//347 844//680 
f 347//347 86//86 844//680 
f 89//89 92//92 845//680 
f 92//92 341//341 845//680 
f 341//341 344//344 845//680 
f 344//344 89//89 845//680 
f 92//92 95//95 846//680 
f 95//95 338//338 846//680 
f 338//338 341//341 846//680 
f 341//341 92//92 846//680 
f 95//95 98//98 847//680 
f 98//98 335//335 847//680 
f 335//335 338//338 847//680 
f 338//338 95//95 847//680 
f 98//98 101//101 848//680 
f 101//101 332//332 848//680 
f 332//332 335//335 848//680 
f 335//335 98//98 848//680 
f 101//101 104//104 849//680 
f 104//104 329//329 849//680 
f 329//329 332//332 849//680 
f 332//332 101//101 849//680 
f 104//104 107//107 850//680 
f 107//107 326//326 850//680 
f 326//326 329//329 850//680 
f 329//329 104//104 850//680 
f 107//107 110//110 851//680 
f 110//110 323//323 851//680 
f 323//323 326//326 851//680 
f 326//326 107//107 851//680 
f 110//110 113//113 852//680 
f 113//113 317//317 852//680 
f 317//317 320//320 852//680 
f 320//320 323//323 852//680 
f 323//323 110//110 852//680 
f 113//113 116//116 853//680 
f 116//116 314//314 853//680 
f 314//314 317//317 853//680 
f 317//317 113//113 853//680 
f 116//116 119//119 854//680 
f 119//119 311//311 854//680 
f 311//311 314//314 854//680 
f 314//314 116//116 854//680 
f 119//119 122//122 855//680 
f 122//122 308//308 855//680 
f 308//308 311//311 855//680 
f 311//311 119//119 855//680 
f 122//122 125//125 856//680 
f 125//125 308//308 856//680 
f 308//308 122//122 856//680 
f 125//125 128//128 857//680 
f 128//128 305//305 857//680 
f 305//305 308//308 857//680 
f 308//308 125//125 857//680 
f 128//128 131//131 858//680 
f 131//131 302//302 858//680 
f 302//302 305//305 858//680 
f 305//305 128//128 858//680 
f 131//131 134//134 859//680 
f 134//134 299//299 859//680 
f 299//299 302//302 859//680 
f 302//302 131//131 859//680 
f 134//134 137//137 860//680 
f 137//137 293//293 860//680 
f 293//293 296//296 860//680 
f 296//296 299//299 860//680 
f 299//299 134//134 860//680 
f 137//137 140//140 861//680 
f 140//140 290//290 861//680 
f 290//290 293//293 861//680 
f 293//293 137//137 861//680 
f 140//140 143//143 862//680 
f 143//143 284//284 862//680 
f 284//284 287//287 862//680 
f 287//287 290//290 862//680 
f 290//290 140//140 862//680 
f 143//143 146//146 863//680 
f 146//146 278//278 863//680 
f 278//278 281//281 863//680 
f 281//281 284//284 863//680 
f 284//284 143//143 863//680 
f 146//146 149//149 864//680 
f 149//149 272//272 864//680 
f 272//272 275//275 864//680 
f 275//275 278//278 864//680 
f 278//278 146//146 864//680 
f 149//149 152//152 865//680 
f 152//152 263//263 865//680 
f 263//263 266//266 865//680 
f 266//266 269//269 865//680 
f 269//269 272//272 865//680 
f 272//272 149//149 865//680 
f 152//152 155//155 866//680 
f 155//155 257//257 866//680 
f 257//257 260//260 866//680 
f 260//260 263//263 866//680 
f 263//263 152//152 866//680 
f 155//155 158//158 867//680 
f 158//158 251//251 867//680 
f 251//251 254//254 867//680 
f 254//254 257//257 867//680 
f 257//257 155//155 867//680 
f 158//158 161//161 868//680 
f 161//161 245//245 868//680 
f 245//245 248//248 868//680 
f 248//248 251//251 868//680 
f 251//251 158//158 868//680 
f 161//161 164//164 869//680 
f 164//164 236//236 869//680 
f 236//236 239//239 869//680 
f 239//239 242//242 869//680 
f 242//242 245//245 869//680 
f 245//245 161//161 869//680 
f 164//164 167//167 870//680 
f 167//167 230//230 870//680 
f 230//230 233//233 870//680 
f 233//233 236//236 870//680 
f 236//236 164//164 870//680 
f 167//167 170//170 871//680 
f 170//170 224//224 871//680 
f 224//224 227//227 871//680 
f 227//227 230//230 871//680 
f 230//230 167//167 871//680 
f 170//170 173//173 872//680 
f 173//173 218//218 872//680 
f 218//218 221//221 872//680 
f 221//221 224//224 872//680 
f 224//224 170//170 872//680 
f 173//173 176//176 873//680 
f 176//176 212//212 873//680 
f 212//212 215//215 873//680 
f 215//215 218//218 873//680 
f 218//218 173//173 873//680 
f 176//176 179//179 874//680 
f 179//179 203//203 874//680 
f 203//203 206//206 874//680 
f 206//206 209//209 874//680 
f 209//209 212//212 874//680 
f 212//212 176//176 874//680 
f 179//179 182//182 875//680 
f 182//182 197//197 875//680 
f 197//197 200//200 875//680 
f 200//200 203//203 875//680 
f 203//203 179//179 875//680 
f 182//182 185//185 876//680 
f 185//185 191//191 876//680 
f 191//191 194//194 876//680 
f 194//194 197//197 876//680 
f 197//197 182//182 876//680 
# 2 polygons - 1748 triangles

