# 3ds Max Wavefront OBJ Exporter v0.97b - (c)2007 guruware
# File Created: 07.12.2021 20:34:07

#
# object Number_3
#

v  586.6320 0.0000 188.1299
v  586.5703 0.0000 187.4818
v  586.6011 5.0000 187.8059
v  586.5703 10.0000 187.4818
v  586.6320 10.0000 188.1299
v  586.5157 0.0000 186.8557
v  586.5430 5.0000 187.1688
v  586.5157 10.0000 186.8557
v  586.4685 0.0000 186.2516
v  586.4921 5.0000 186.5537
v  586.4685 10.0000 186.2516
v  586.4285 0.0000 185.6695
v  586.4485 5.0000 185.9606
v  586.4285 10.0000 185.6695
v  586.3958 0.0000 185.1093
v  586.4122 5.0000 185.3894
v  586.3958 10.0000 185.1093
v  586.3704 0.0000 184.5712
v  586.3831 5.0000 184.8403
v  586.3704 10.0000 184.5712
v  586.3522 0.0000 184.0550
v  586.3613 5.0000 184.3131
v  586.3522 10.0000 184.0550
v  586.3413 0.0000 183.5609
v  586.3467 5.0000 183.8080
v  586.3413 10.0000 183.5609
v  586.3377 0.0000 183.0887
v  586.3395 5.0000 183.3248
v  586.3377 10.0000 183.0887
v  586.3975 0.0000 181.1479
v  586.3676 5.0000 182.1183
v  586.3975 10.0000 181.1479
v  586.5767 0.0000 179.4354
v  586.4871 5.0000 180.2916
v  586.5767 10.0000 179.4354
v  586.8755 0.0000 177.9513
v  586.7261 5.0000 178.6933
v  586.8755 10.0000 177.9513
v  587.2938 0.0000 176.6954
v  587.0846 5.0000 177.3233
v  587.2938 10.0000 176.6954
v  587.8315 0.0000 175.6680
v  587.5626 5.0000 176.1817
v  587.8315 10.0000 175.6680
v  588.4888 0.0000 174.8688
v  588.1602 5.0000 175.2684
v  588.4888 10.0000 174.8688
v  589.2656 0.0000 174.2980
v  588.8772 5.0000 174.5834
v  589.2656 10.0000 174.2980
v  590.1619 0.0000 173.9555
v  589.7137 5.0000 174.1267
v  590.1619 10.0000 173.9555
v  591.1777 0.0000 173.8413
v  590.6698 5.0000 173.8984
v  591.1777 10.0000 173.8413
v  591.6200 0.0000 173.8672
v  591.3989 5.0000 173.8543
v  591.6200 10.0000 173.8672
v  592.0446 0.0000 173.9449
v  591.8323 5.0000 173.9060
v  592.0446 10.0000 173.9449
v  592.4515 0.0000 174.0743
v  592.2481 5.0000 174.0096
v  592.4515 10.0000 174.0743
v  592.8408 0.0000 174.2555
v  592.6462 5.0000 174.1649
v  592.8408 10.0000 174.2555
v  593.2125 0.0000 174.4885
v  593.0267 5.0000 174.3720
v  593.2125 10.0000 174.4885
v  593.5664 0.0000 174.7732
v  593.3894 5.0000 174.6308
v  593.5664 10.0000 174.7732
v  593.9026 0.0000 175.1097
v  593.7346 5.0000 174.9415
v  593.9026 10.0000 175.1097
v  594.2213 0.0000 175.4980
v  594.0620 5.0000 175.3039
v  594.2213 10.0000 175.4980
v  594.5222 0.0000 175.9381
v  594.3717 5.0000 175.7180
v  594.5222 10.0000 175.9381
v  594.7980 0.0000 176.4092
v  594.6601 5.0000 176.1736
v  594.7980 10.0000 176.4092
v  595.0414 0.0000 176.8907
v  594.9197 5.0000 176.6499
v  595.0414 10.0000 176.8907
v  595.2524 0.0000 177.3824
v  595.1469 5.0000 177.1366
v  595.2524 10.0000 177.3824
v  595.4309 0.0000 177.8846
v  595.3417 5.0000 177.6335
v  595.4309 10.0000 177.8846
v  595.5770 0.0000 178.3971
v  595.5039 5.0000 178.1408
v  595.5770 10.0000 178.3971
v  595.6906 0.0000 178.9199
v  595.6337 5.0000 178.6585
v  595.6906 10.0000 178.9199
v  595.7717 0.0000 179.4531
v  595.7311 5.0000 179.1865
v  595.7717 10.0000 179.4531
v  595.8204 0.0000 179.9966
v  595.7960 5.0000 179.7248
v  595.8204 10.0000 179.9966
v  595.8366 0.0000 180.5504
v  595.8285 5.0000 180.2735
v  595.8366 10.0000 180.5504
v  595.8366 0.0000 201.6940
v  595.8366 5.0000 191.1222
v  595.8366 10.0000 201.6940
v  604.0475 0.0000 201.6940
v  599.9420 5.0000 201.6940
v  604.0475 10.0000 201.6940
v  604.0475 0.0000 180.4574
v  604.0475 5.0000 191.0757
v  604.0475 10.0000 180.4574
v  604.0966 0.0000 179.0688
v  604.0720 5.0000 179.7631
v  604.0966 10.0000 179.0688
v  604.2438 0.0000 177.8436
v  604.1702 5.0000 178.4562
v  604.2438 10.0000 177.8436
v  604.4891 0.0000 176.7818
v  604.3665 5.0000 177.3127
v  604.4891 10.0000 176.7818
v  604.8326 0.0000 175.8833
v  604.6609 5.0000 176.3326
v  604.8326 10.0000 175.8833
v  605.2742 0.0000 175.1482
v  605.0534 5.0000 175.5157
v  605.2742 10.0000 175.1482
v  605.8140 0.0000 174.5764
v  605.5441 5.0000 174.8623
v  605.8140 10.0000 174.5764
v  606.4519 0.0000 174.1680
v  606.1329 5.0000 174.3723
v  606.4519 10.0000 174.1680
v  607.1880 0.0000 173.9230
v  606.8199 5.0000 174.0455
v  607.1880 10.0000 173.9230
v  608.0222 0.0000 173.8413
v  607.6050 5.0000 173.8822
v  608.0222 10.0000 173.8413
v  609.0464 0.0000 173.9854
v  608.5343 5.0000 173.9134
v  609.0464 10.0000 173.9854
v  609.9501 0.0000 174.4176
v  609.4983 5.0000 174.2015
v  609.9501 10.0000 174.4176
v  610.7334 0.0000 175.1380
v  610.3418 5.0000 174.7778
v  610.7334 10.0000 175.1380
v  611.3962 0.0000 176.1465
v  611.0648 5.0000 175.6422
v  611.3962 10.0000 176.1465
v  611.9384 0.0000 177.4431
v  611.6673 5.0000 176.7948
v  611.9384 10.0000 177.4431
v  612.3602 0.0000 179.0279
v  612.1493 5.0000 178.2355
v  612.3602 10.0000 179.0279
v  612.6614 0.0000 180.9009
v  612.5108 5.0000 179.9644
v  612.6614 10.0000 180.9009
v  612.8422 0.0000 183.0620
v  612.7518 5.0000 181.9814
v  612.8422 10.0000 183.0620
v  612.9024 0.0000 185.5112
v  612.8723 5.0000 184.2866
v  612.9024 10.0000 185.5112
v  612.8706 0.0000 187.9332
v  612.8865 5.0000 186.7222
v  612.8706 10.0000 187.9332
v  612.7752 0.0000 190.1992
v  612.8229 5.0000 189.0661
v  612.7752 10.0000 190.1992
v  612.6162 0.0000 192.3092
v  612.6957 5.0000 191.2542
v  612.6162 10.0000 192.3092
v  612.3936 0.0000 194.2632
v  612.5049 5.0000 193.2862
v  612.3936 10.0000 194.2632
v  612.1074 0.0000 196.0613
v  612.2505 5.0000 195.1623
v  612.1074 10.0000 196.0613
v  611.7576 0.0000 197.7035
v  611.9324 5.0000 196.8824
v  611.7576 10.0000 197.7035
v  611.3441 0.0000 199.1896
v  611.5508 5.0000 198.4465
v  611.3441 10.0000 199.1896
v  610.8671 0.0000 200.5198
v  611.1056 5.0000 199.8547
v  610.8671 10.0000 200.5198
v  610.3264 0.0000 201.6940
v  610.5967 5.0000 201.1069
v  610.3264 10.0000 201.6940
v  620.1473 0.0000 201.6940
v  615.2369 5.0000 201.6940
v  620.1473 10.0000 201.6940
v  620.9498 0.0000 199.3998
v  620.5486 5.0000 200.5469
v  620.9498 10.0000 199.3998
v  621.3220 0.0000 198.1826
v  621.1359 5.0000 198.7912
v  621.3220 10.0000 198.1826
v  621.6505 0.0000 196.8656
v  621.4863 5.0000 197.5241
v  621.6505 10.0000 196.8656
v  621.9351 0.0000 195.4487
v  621.7928 5.0000 196.1571
v  621.9351 10.0000 195.4487
v  622.1760 0.0000 193.9318
v  622.0555 5.0000 194.6902
v  622.1760 10.0000 193.9318
v  622.3730 0.0000 192.3152
v  622.2745 5.0000 193.1235
v  622.3730 10.0000 192.3152
v  622.5262 0.0000 190.5986
v  622.4496 5.0000 191.4569
v  622.5262 10.0000 190.5986
v  622.6357 0.0000 188.7821
v  622.5810 5.0000 189.6904
v  622.6357 10.0000 188.7821
v  622.7014 0.0000 186.8658
v  622.6686 5.0000 187.8240
v  622.7014 10.0000 186.8658
v  622.7233 0.0000 184.8496
v  622.7124 5.0000 185.8577
v  622.7233 10.0000 184.8496
v  622.6815 0.0000 182.9403
v  622.7025 5.0000 183.8950
v  622.6815 10.0000 182.9403
v  622.5562 0.0000 181.1302
v  622.6189 5.0000 182.0353
v  622.5562 10.0000 181.1302
v  622.3474 0.0000 179.4193
v  622.4518 5.0000 180.2747
v  622.3474 10.0000 179.4193
v  622.0550 0.0000 177.8074
v  622.2012 5.0000 178.6133
v  622.0550 10.0000 177.8074
v  621.6790 0.0000 176.2947
v  621.8670 5.0000 177.0511
v  621.6790 10.0000 176.2947
v  621.2195 0.0000 174.8811
v  621.4493 5.0000 175.5879
v  621.2195 10.0000 174.8811
v  620.6765 0.0000 173.5667
v  620.9481 5.0000 174.2239
v  620.6765 10.0000 173.5667
v  620.0499 0.0000 172.3513
v  620.3632 5.0000 172.9590
v  620.0499 10.0000 172.3513
v  619.3398 0.0000 171.2352
v  619.6949 5.0000 171.7933
v  619.3398 10.0000 171.2352
v  618.5588 0.0000 170.2278
v  618.9493 5.0000 170.7315
v  618.5588 10.0000 170.2278
v  617.7197 0.0000 169.3390
v  618.1393 5.0000 169.7834
v  617.7197 10.0000 169.3390
v  616.8223 0.0000 168.5686
v  617.2710 5.0000 168.9538
v  616.8223 10.0000 168.5686
v  615.8667 0.0000 167.9168
v  616.3445 5.0000 168.2427
v  615.8667 10.0000 167.9168
v  614.8529 0.0000 167.3835
v  615.3598 5.0000 167.6502
v  614.8529 10.0000 167.3835
v  613.7809 0.0000 166.9687
v  614.3169 5.0000 167.1761
v  613.7809 10.0000 166.9687
v  612.6508 0.0000 166.6724
v  613.2158 5.0000 166.8206
v  612.6508 10.0000 166.6724
v  611.4623 0.0000 166.4947
v  612.0565 5.0000 166.5835
v  611.4623 10.0000 166.4947
v  610.2158 0.0000 166.4354
v  610.8391 5.0000 166.4650
v  610.2158 10.0000 166.4354
v  608.7517 0.0000 166.5238
v  609.4838 5.0000 166.4796
v  608.7517 10.0000 166.5238
v  607.3683 0.0000 166.7892
v  608.0601 5.0000 166.6565
v  607.3683 10.0000 166.7892
v  606.0656 0.0000 167.2314
v  606.7170 5.0000 167.0103
v  606.0656 10.0000 167.2314
v  604.8434 0.0000 167.8506
v  605.4545 5.0000 167.5410
v  604.8434 10.0000 167.8506
v  603.7019 0.0000 168.6467
v  604.2726 5.0000 168.2486
v  603.7019 10.0000 168.6467
v  602.6410 0.0000 169.6196
v  603.1714 5.0000 169.1331
v  602.6410 10.0000 169.6196
v  601.6607 0.0000 170.7694
v  602.1509 5.0000 170.1945
v  601.6607 10.0000 170.7694
v  600.7610 0.0000 172.0962
v  601.2109 5.0000 171.4328
v  600.7610 10.0000 172.0962
v  599.9420 0.0000 173.5998
v  600.3516 5.0000 172.8480
v  599.9420 10.0000 173.5998
v  599.1888 0.0000 172.0962
v  599.5654 5.0000 172.8480
v  599.1888 10.0000 172.0962
v  598.3478 0.0000 170.7694
v  598.7683 5.0000 171.4328
v  598.3478 10.0000 170.7694
v  597.4192 0.0000 169.6196
v  597.8835 5.0000 170.1945
v  597.4192 10.0000 169.6196
v  596.4028 0.0000 168.6466
v  596.9110 5.0000 169.1331
v  596.4028 10.0000 168.6466
v  595.2988 0.0000 167.8506
v  595.8508 5.0000 168.2486
v  595.2988 10.0000 167.8506
v  594.1070 0.0000 167.2314
v  594.7029 5.0000 167.5410
v  594.1070 10.0000 167.2314
v  592.8275 0.0000 166.7892
v  593.4672 5.0000 167.0103
v  592.8275 10.0000 166.7892
v  591.4603 0.0000 166.5238
v  592.1439 5.0000 166.6565
v  591.4603 10.0000 166.5238
v  590.0054 0.0000 166.4354
v  590.7328 5.0000 166.4796
v  590.0054 10.0000 166.4354
v  588.6098 0.0000 166.4971
v  589.3076 5.0000 166.4663
v  588.6098 10.0000 166.4971
v  587.2863 0.0000 166.6823
v  587.9481 5.0000 166.5897
v  587.2863 10.0000 166.6823
v  586.0349 0.0000 166.9909
v  586.6606 5.0000 166.8366
v  586.0349 10.0000 166.9909
v  584.8555 0.0000 167.4230
v  585.4451 5.0000 167.2070
v  584.8555 10.0000 167.4230
v  583.7482 0.0000 167.9785
v  584.3018 5.0000 167.7008
v  583.7482 10.0000 167.9785
v  582.7130 0.0000 168.6575
v  583.2306 5.0000 168.3180
v  582.7130 10.0000 168.6575
v  581.7499 0.0000 169.4599
v  582.2314 5.0000 169.0587
v  581.7499 10.0000 169.4599
v  580.8588 0.0000 170.3858
v  581.3043 5.0000 169.9229
v  580.8588 10.0000 170.3858
v  580.0399 0.0000 171.4352
v  580.4493 5.0000 170.9105
v  580.0399 10.0000 171.4352
v  579.3005 0.0000 172.5901
v  579.6702 5.0000 172.0126
v  579.3005 10.0000 172.5901
v  578.6480 0.0000 173.8327
v  578.9742 5.0000 173.2114
v  578.6480 10.0000 173.8327
v  578.0826 0.0000 175.1631
v  578.3653 5.0000 174.4979
v  578.0826 10.0000 175.1631
v  577.6041 0.0000 176.5813
v  577.8434 5.0000 175.8722
v  577.6041 10.0000 176.5813
v  577.2127 0.0000 178.0871
v  577.4084 5.0000 177.3342
v  577.2127 10.0000 178.0871
v  576.9083 0.0000 179.6807
v  577.0605 5.0000 178.8839
v  576.9083 10.0000 179.6807
v  576.6907 0.0000 181.3621
v  576.7995 5.0000 180.5214
v  576.6907 10.0000 181.3621
v  576.5603 0.0000 183.1311
v  576.6255 5.0000 182.2466
v  576.5603 10.0000 183.1311
v  576.5168 0.0000 184.9879
v  576.5385 5.0000 184.0595
v  576.5168 10.0000 184.9879
v  576.6360 0.0000 188.5280
v  576.5764 5.0000 186.7579
v  576.6360 10.0000 188.5280
v  576.9940 0.0000 191.6515
v  576.8150 5.0000 190.0897
v  576.9940 10.0000 191.6515
v  577.5904 0.0000 194.3586
v  577.2922 5.0000 193.0050
v  577.5904 10.0000 194.3586
v  578.4254 0.0000 196.6491
v  578.0079 5.0000 195.5038
v  578.4254 10.0000 196.6491
v  579.4990 0.0000 198.5233
v  578.9622 5.0000 197.5862
v  579.4990 10.0000 198.5233
v  580.8112 0.0000 199.9809
v  580.1551 5.0000 199.2521
v  580.8112 10.0000 199.9809
v  582.3619 0.0000 201.0221
v  581.5865 5.0000 200.5015
v  582.3619 10.0000 201.0221
v  584.1513 0.0000 201.6468
v  583.2566 5.0000 201.3345
v  584.1513 10.0000 201.6468
v  586.1792 0.0000 201.8550
v  585.1652 5.0000 201.7509
v  586.1792 10.0000 201.8550
v  587.6654 0.0000 201.7681
v  586.9223 5.0000 201.8116
v  587.6654 10.0000 201.7681
v  588.9768 0.0000 201.5072
v  588.3211 5.0000 201.6376
v  588.9768 10.0000 201.5072
v  590.1133 0.0000 201.0724
v  589.5450 5.0000 201.2898
v  590.1133 10.0000 201.0724
v  591.0750 0.0000 200.4637
v  590.5942 5.0000 200.7681
v  591.0750 10.0000 200.4637
v  591.8618 0.0000 199.6811
v  591.4684 5.0000 200.0724
v  591.8618 10.0000 199.6811
v  592.4738 0.0000 198.7245
v  592.1678 5.0000 199.2028
v  592.4738 10.0000 198.7245
v  592.9109 0.0000 197.5941
v  592.6924 5.0000 198.1593
v  592.9109 10.0000 197.5941
v  593.1732 0.0000 196.2897
v  593.0421 5.0000 196.9419
v  593.1732 10.0000 196.2897
v  593.2606 0.0000 194.8114
v  593.2169 5.0000 195.5505
v  593.2606 10.0000 194.8114
v  593.1788 0.0000 193.3837
v  593.2197 5.0000 194.0976
v  593.1788 10.0000 193.3837
v  592.9333 0.0000 192.1241
v  593.0560 5.0000 192.7539
v  592.9333 10.0000 192.1241
v  592.5241 0.0000 191.0324
v  592.7287 5.0000 191.5782
v  592.5241 10.0000 191.0324
v  591.9512 0.0000 190.1086
v  592.2377 5.0000 190.5705
v  591.9512 10.0000 190.1086
v  591.2147 0.0000 189.3528
v  591.5830 5.0000 189.7307
v  591.2147 10.0000 189.3528
v  590.3146 0.0000 188.7650
v  590.7646 5.0000 189.0589
v  590.3146 10.0000 188.7650
v  589.2507 0.0000 188.3451
v  589.7827 5.0000 188.5550
v  589.2507 10.0000 188.3451
v  588.0232 0.0000 188.0932
v  588.6370 5.0000 188.2191
v  588.0232 10.0000 188.0932
v  586.6320 0.0000 188.0092
v  587.3276 5.0000 188.0512
v  586.6320 10.0000 188.0092
v  586.6320 5.0000 188.0695
v  586.6915 0.0000 191.5929
v  587.2878 0.0000 191.7181
v  586.9896 5.0000 191.6555
v  587.2878 10.0000 191.7181
v  586.6915 10.0000 191.5929
v  587.8046 0.0000 191.9268
v  587.5461 5.0000 191.8225
v  587.8046 10.0000 191.9268
v  588.2418 0.0000 192.2190
v  588.0232 5.0000 192.0729
v  588.2418 10.0000 192.2190
v  588.5996 0.0000 192.5947
v  588.4207 5.0000 192.4068
v  588.5996 10.0000 192.5947
v  588.8779 0.0000 193.0538
v  588.7388 5.0000 192.8242
v  588.8779 10.0000 193.0538
v  589.0767 0.0000 193.5964
v  588.9773 5.0000 193.3251
v  589.0767 10.0000 193.5964
v  589.1959 0.0000 194.2225
v  589.1363 5.0000 193.9095
v  589.1959 10.0000 194.2225
v  589.2357 0.0000 194.9321
v  589.2158 5.0000 194.5773
v  589.2357 10.0000 194.9321
v  589.1959 0.0000 195.6417
v  589.2158 5.0000 195.2869
v  589.1959 10.0000 195.6417
v  589.0767 0.0000 196.2678
v  589.1363 5.0000 195.9547
v  589.0767 10.0000 196.2678
v  588.8779 0.0000 196.8104
v  588.9772 5.0000 196.5391
v  588.8779 10.0000 196.8104
v  588.5996 0.0000 197.2696
v  588.7388 5.0000 197.0400
v  588.5996 10.0000 197.2696
v  588.2418 0.0000 197.6452
v  588.4207 5.0000 197.4574
v  588.2418 10.0000 197.6452
v  587.8046 0.0000 197.9374
v  588.0232 5.0000 197.7913
v  587.8046 10.0000 197.9374
v  587.2878 0.0000 198.1461
v  587.5461 5.0000 198.0418
v  587.2878 10.0000 198.1461
v  586.6915 0.0000 198.2713
v  586.9896 5.0000 198.2087
v  586.6915 10.0000 198.2713
v  586.0157 0.0000 198.3131
v  586.3536 5.0000 198.2922
v  586.0157 10.0000 198.3131
v  585.3399 0.0000 198.2713
v  585.6778 5.0000 198.2922
v  585.3399 10.0000 198.2713
v  584.7436 0.0000 198.1461
v  585.0417 5.0000 198.2087
v  584.7436 10.0000 198.1461
v  584.2268 0.0000 197.9374
v  584.4852 5.0000 198.0418
v  584.2268 10.0000 197.9374
v  583.7896 0.0000 197.6452
v  584.0082 5.0000 197.7913
v  583.7896 10.0000 197.6452
v  583.4318 0.0000 197.2696
v  583.6107 5.0000 197.4574
v  583.4318 10.0000 197.2696
v  583.1535 0.0000 196.8104
v  583.2926 5.0000 197.0400
v  583.1535 10.0000 196.8104
v  582.9547 0.0000 196.2678
v  583.0541 5.0000 196.5391
v  582.9547 10.0000 196.2678
v  582.8354 0.0000 195.6417
v  582.8951 5.0000 195.9548
v  582.8354 10.0000 195.6417
v  582.7957 0.0000 194.9321
v  582.8156 5.0000 195.2869
v  582.7957 10.0000 194.9321
v  582.8354 0.0000 194.2225
v  582.8156 5.0000 194.5773
v  582.8354 10.0000 194.2225
v  582.9547 0.0000 193.5964
v  582.8951 5.0000 193.9095
v  582.9547 10.0000 193.5964
v  583.1535 0.0000 193.0538
v  583.0541 5.0000 193.3251
v  583.1535 10.0000 193.0538
v  583.4318 0.0000 192.5947
v  583.2926 5.0000 192.8242
v  583.4318 10.0000 192.5947
v  583.7896 0.0000 192.2190
v  583.6107 5.0000 192.4068
v  583.7896 10.0000 192.2190
v  584.2268 0.0000 191.9268
v  584.0082 5.0000 192.0729
v  584.2268 10.0000 191.9268
v  584.7436 0.0000 191.7181
v  584.4852 5.0000 191.8225
v  584.7436 10.0000 191.7181
v  585.3399 0.0000 191.5929
v  585.0417 5.0000 191.6555
v  585.3399 10.0000 191.5929
v  586.0157 0.0000 191.5511
v  585.6778 5.0000 191.5720
v  586.0157 10.0000 191.5511
v  586.3536 5.0000 191.5720
v  599.9420 0.0000 191.0990
v  599.9420 10.0000 191.0990
v  599.9503 0.0000 180.0183
v  598.5629 0.0000 179.5061
v  599.9506 0.0000 178.8214
v  598.5038 0.0000 178.3869
v  599.9352 0.0000 177.7268
v  598.7786 0.0000 176.4122
v  596.7453 0.0000 175.9576
v  613.7803 0.0000 201.3026
v  614.1195 0.0000 200.4678
v  616.0497 0.0000 199.4967
v  616.5342 0.0000 197.8368
v  617.8817 0.0000 196.1643
v  617.2802 0.0000 193.9882
v  618.4933 0.0000 191.8708
v  617.7020 0.0000 189.3783
v  618.7667 0.0000 186.7884
v  617.7874 0.0000 184.0908
v  618.6177 0.0000 181.4905
v  618.2206 0.0000 178.6900
v  616.7993 0.0000 176.9117
v  617.4367 0.0000 174.2707
v  615.5496 0.0000 172.4173
v  614.3242 0.0000 170.4606
v  611.9572 0.0000 169.3204
v  609.4997 0.0000 169.4561
v  607.4791 0.0000 169.6618
v  605.6501 0.0000 170.3640
v  604.0539 0.0000 171.5560
v  603.3775 0.0000 173.1476
v  602.7025 0.0000 174.1819
v  603.0880 0.0000 175.4216
v  596.5939 0.0000 175.6332
v  597.1128 0.0000 174.5108
v  595.9774 0.0000 174.5108
v  596.4152 0.0000 173.3683
v  595.8090 0.0000 172.5680
v  594.7327 0.0000 172.9604
v  594.9688 0.0000 171.7525
v  594.2485 0.0000 171.2068
v  593.4755 0.0000 170.7753
v  592.6498 0.0000 170.4582
v  591.7714 0.0000 170.2554
v  590.2830 0.0000 169.4506
v  587.7023 0.0000 169.3078
v  585.8142 0.0000 170.6452
v  584.3284 0.0000 171.8080
v  583.0649 0.0000 173.3549
v  582.0400 0.0000 175.2465
v  581.2703 0.0000 177.4436
v  581.7737 0.0000 179.5878
v  580.5789 0.0000 181.6821
v  583.0798 0.0000 183.2602
v  581.4426 0.0000 183.9337
v  583.0798 0.0000 184.5381
v  583.0944 0.0000 184.8895
v  581.4943 0.0000 186.0737
v  583.1777 0.0000 186.8164
v  583.2068 0.0000 187.2118
v  583.2407 0.0000 187.6218
v  586.4464 0.0000 190.4247
v  581.1931 0.0000 192.4333
v  584.2388 0.0000 189.4568
v  582.2399 0.0000 190.6130
v  581.8688 0.0000 190.7243
v  581.5508 0.0000 190.8913
v  580.2128 0.0000 191.2483
v  581.0341 0.0000 192.7672
v  580.0936 0.0000 193.4572
v  581.0739 0.0000 194.5044
v  580.4117 0.0000 195.3954
v  581.4052 0.0000 196.1862
v  581.0082 0.0000 197.0627
v  581.7239 0.0000 198.1461
v  582.6775 0.0000 198.2986
v  582.7974 0.0000 199.1464
v  583.8709 0.0000 199.6881
v  584.7449 0.0000 199.3548
v  585.4215 0.0000 200.0216
v  586.6379 0.0000 200.0519
v  587.2149 0.0000 199.3952
v  587.9337 0.0000 199.8397
v  589.2423 0.0000 199.7252
v  589.9446 0.0000 198.7649
v  590.4532 0.0000 198.1214
v  590.8348 0.0000 197.3492
v  591.0892 0.0000 196.4483
v  591.2163 0.0000 195.4187
v  591.2177 0.0000 194.3374
v  591.0961 0.0000 193.3317
v  590.8530 0.0000 192.4517
v  590.4882 0.0000 191.6974
v  590.0018 0.0000 191.0688
v  589.3653 0.0000 190.1217
v  588.0916 0.0000 190.0208
v  587.0533 0.0000 189.5087
v  598.5196 10.0000 179.1472
v  598.4172 10.0000 178.0418
v  598.5629 10.0000 179.5061
v  599.9503 10.0000 180.0183
v  599.8716 10.0000 176.6985
v  599.9020 10.0000 178.5573
v  603.0880 10.0000 175.4216
v  580.2128 10.0000 191.2483
v  581.1931 10.0000 192.4333
v  581.5508 10.0000 190.8913
v  581.8688 10.0000 190.7243
v  582.2399 10.0000 190.6130
v  584.2388 10.0000 189.4568
v  586.4464 10.0000 190.4247
v  583.2407 10.0000 187.6218
v  583.2068 10.0000 187.2118
v  583.1777 10.0000 186.8164
v  581.4943 10.0000 186.0737
v  583.0944 10.0000 184.8895
v  583.0798 10.0000 184.5381
v  581.4426 10.0000 183.9337
v  583.0798 10.0000 183.2602
v  580.5789 10.0000 181.6821
v  581.7737 10.0000 179.5878
v  581.2703 10.0000 177.4436
v  582.0400 10.0000 175.2465
v  583.0649 10.0000 173.3549
v  584.3284 10.0000 171.8080
v  585.8142 10.0000 170.6452
v  587.7023 10.0000 169.3078
v  590.2830 10.0000 169.4506
v  591.7714 10.0000 170.2554
v  592.6498 10.0000 170.4582
v  593.4755 10.0000 170.7753
v  594.2485 10.0000 171.2068
v  594.9688 10.0000 171.7525
v  594.7327 10.0000 172.9604
v  595.8090 10.0000 172.5680
v  596.4152 10.0000 173.3683
v  595.9774 10.0000 174.5108
v  597.1128 10.0000 174.5108
v  596.5939 10.0000 175.6332
v  596.7453 10.0000 175.9576
v  587.0533 10.0000 189.5087
v  588.0916 10.0000 190.0208
v  589.3653 10.0000 190.1217
v  590.0018 10.0000 191.0688
v  590.4882 10.0000 191.6974
v  590.8530 10.0000 192.4517
v  591.0961 10.0000 193.3317
v  591.2177 10.0000 194.3374
v  591.2163 10.0000 195.4187
v  591.0892 10.0000 196.4483
v  590.8348 10.0000 197.3492
v  590.4532 10.0000 198.1214
v  589.9446 10.0000 198.7649
v  589.2423 10.0000 199.7252
v  587.9337 10.0000 199.8397
v  587.2149 10.0000 199.3952
v  586.6379 10.0000 200.0519
v  585.4215 10.0000 200.0216
v  584.7449 10.0000 199.3548
v  583.8709 10.0000 199.6881
v  582.7974 10.0000 199.1464
v  582.6775 10.0000 198.2986
v  581.7239 10.0000 198.1460
v  581.0082 10.0000 197.0627
v  581.4052 10.0000 196.1862
v  580.4117 10.0000 195.3954
v  581.0739 10.0000 194.5044
v  580.0936 10.0000 193.4572
v  581.0341 10.0000 192.7672
v  602.7025 10.0000 174.1819
v  603.3775 10.0000 173.1476
v  604.0539 10.0000 171.5560
v  605.6501 10.0000 170.3640
v  607.4791 10.0000 169.6618
v  609.4997 10.0000 169.4561
v  611.9572 10.0000 169.3204
v  614.3242 10.0000 170.4606
v  615.5496 10.0000 172.4173
v  617.4368 10.0000 174.2707
v  616.7993 10.0000 176.9117
v  618.2206 10.0000 178.6900
v  618.6177 10.0000 181.4905
v  617.7874 10.0000 184.0908
v  618.7667 10.0000 186.7884
v  617.7020 10.0000 189.3783
v  618.4933 10.0000 191.8708
v  617.2802 10.0000 193.9882
v  617.8817 10.0000 196.1643
v  616.5342 10.0000 197.8368
v  616.0497 10.0000 199.4967
v  614.1195 10.0000 200.4678
v  613.7803 10.0000 201.3026
# 777 vertices

vn -0.0011 -0.9997 -0.0241
vn 0.7033 -0.7080 -0.0641
vn 0.9955 0.0000 -0.0949
vn 0.7033 0.7080 -0.0641
vn -0.0011 0.9997 -0.0241
vn 0.7037 -0.7081 -0.0581
vn 0.9962 0.0000 -0.0867
vn 0.7037 0.7081 -0.0581
vn 0.7041 -0.7082 -0.0517
vn 0.9970 0.0000 -0.0780
vn 0.7041 0.7082 -0.0517
vn 0.7045 -0.7083 -0.0448
vn 0.9977 0.0000 -0.0685
vn 0.7045 0.7083 -0.0448
vn 0.7049 -0.7084 -0.0372
vn 0.9983 0.0000 -0.0583
vn 0.7049 0.7084 -0.0372
vn 0.7052 -0.7085 -0.0291
vn 0.9989 0.0000 -0.0472
vn 0.7052 0.7085 -0.0291
vn 0.7053 -0.7086 -0.0202
vn 0.9994 0.0000 -0.0352
vn 0.7053 0.7086 -0.0202
vn 0.7054 -0.7087 -0.0105
vn 0.9998 0.0000 -0.0221
vn 0.7054 0.7087 -0.0105
vn 0.7027 -0.7115 0.0081
vn 1.0000 0.0000 -0.0077
vn 0.7027 0.7115 0.0081
vn 0.6970 -0.7155 0.0471
vn 0.9995 0.0000 0.0308
vn 0.6970 0.7155 0.0471
vn 0.6882 -0.7179 0.1050
vn 0.9946 0.0000 0.1041
vn 0.6882 0.7179 0.1050
vn 0.6694 -0.7212 0.1781
vn 0.9803 0.0000 0.1973
vn 0.6694 0.7212 0.1781
vn 0.6333 -0.7256 0.2691
vn 0.9488 0.0000 0.3160
vn 0.6333 0.7256 0.2691
vn 0.5688 -0.7310 0.3769
vn 0.8860 0.0000 0.4637
vn 0.5688 0.7310 0.3769
vn 0.4654 -0.7361 0.4915
vn 0.7723 0.0000 0.6352
vn 0.4654 0.7361 0.4915
vn 0.3229 -0.7385 0.5919
vn 0.5922 0.0000 0.8058
vn 0.3229 0.7385 0.5919
vn 0.1597 -0.7366 0.6571
vn 0.3570 0.0000 0.9341
vn 0.1597 0.7366 0.6571
vn 0.0184 -0.7268 0.6866
vn 0.1117 0.0000 0.9937
vn 0.0184 0.7268 0.6866
vn -0.0827 -0.7211 0.6878
vn -0.0584 0.0000 0.9983
vn -0.0827 0.7211 0.6878
vn -0.1675 -0.7217 0.6717
vn -0.1799 0.0000 0.9837
vn -0.1675 0.7217 0.6717
vn -0.2514 -0.7218 0.6449
vn -0.3031 0.0000 0.9530
vn -0.2514 0.7218 0.6449
vn -0.3307 -0.7214 0.6085
vn -0.4220 0.0000 0.9066
vn -0.3307 0.7214 0.6085
vn -0.4022 -0.7206 0.5648
vn -0.5312 0.0000 0.8473
vn -0.4022 0.7206 0.5648
vn -0.4640 -0.7195 0.5168
vn -0.6268 0.0000 0.7792
vn -0.4640 0.7195 0.5168
vn -0.5156 -0.7183 0.4671
vn -0.7074 0.0000 0.7068
vn -0.5156 0.7183 0.4671
vn -0.5576 -0.7171 0.4182
vn -0.7731 0.0000 0.6343
vn -0.5576 0.7171 0.4182
vn -0.5905 -0.7151 0.3741
vn -0.8255 0.0000 0.5645
vn -0.5905 0.7151 0.3741
vn -0.6147 -0.7141 0.3349
vn -0.8629 0.0000 0.5053
vn -0.6147 0.7141 0.3349
vn -0.6342 -0.7143 0.2960
vn -0.8924 0.0000 0.4512
vn -0.6342 0.7143 0.2960
vn -0.6516 -0.7143 0.2553
vn -0.9190 0.0000 0.3942
vn -0.6516 0.7143 0.2553
vn -0.6665 -0.7144 0.2132
vn -0.9422 0.0000 0.3349
vn -0.6665 0.7144 0.2132
vn -0.6788 -0.7143 0.1703
vn -0.9617 0.0000 0.2741
vn -0.6788 0.7143 0.1703
vn -0.6883 -0.7143 0.1270
vn -0.9772 0.0000 0.2123
vn -0.6883 0.7143 0.1270
vn -0.6950 -0.7141 0.0839
vn -0.9886 0.0000 0.1504
vn -0.6950 0.7141 0.0839
vn -0.6990 -0.7139 0.0415
vn -0.9960 0.0000 0.0892
vn -0.6990 0.7139 0.0415
vn -0.7037 -0.7104 0.0103
vn -0.9996 0.0000 0.0293
vn -0.7037 0.7104 0.0103
vn -0.5774 -0.5774 0.5774
vn -1.0000 0.0000 -0.0000
vn -0.5774 0.5774 0.5774
vn 0.5774 -0.5774 0.5774
vn 0.0000 0.0000 1.0000
vn 0.5774 0.5774 0.5774
vn 0.7030 -0.7111 0.0124
vn 1.0000 0.0000 -0.0000
vn 0.7030 0.7111 0.0124
vn 0.6953 -0.7167 0.0540
vn 0.9994 0.0000 0.0353
vn 0.6953 0.7167 0.0540
vn 0.6842 -0.7194 0.1198
vn 0.9929 0.0000 0.1193
vn 0.6842 0.7194 0.1198
vn 0.6608 -0.7230 0.2016
vn 0.9743 0.0000 0.2251
vn 0.6608 0.7230 0.2016
vn 0.6170 -0.7274 0.3004
vn 0.9341 0.0000 0.3571
vn 0.6170 0.7274 0.3004
vn 0.5427 -0.7321 0.4116
vn 0.8572 0.0000 0.5150
vn 0.5427 0.7321 0.4116
vn 0.4321 -0.7356 0.5216
vn 0.7272 0.0000 0.6865
vn 0.4321 0.7356 0.5216
vn 0.2916 -0.7360 0.6109
vn 0.5392 0.0000 0.8422
vn 0.2916 0.7360 0.6109
vn 0.1414 -0.7331 0.6652
vn 0.3159 0.0000 0.9488
vn 0.1414 0.7331 0.6652
vn -0.0143 -0.7348 0.6782
vn 0.0974 0.0000 0.9952
vn -0.0143 0.7348 0.6782
vn -0.1932 -0.7431 0.6407
vn -0.1393 0.0000 0.9903
vn -0.1932 0.7431 0.6407
vn -0.3757 -0.7420 0.5552
vn -0.4314 0.0000 0.9021
vn -0.3757 0.7420 0.5552
vn -0.5161 -0.7358 0.4385
vn -0.6769 0.0000 0.7360
vn -0.5161 0.7358 0.4385
vn -0.6048 -0.7285 0.3216
vn -0.8357 0.0000 0.5492
vn -0.6048 0.7285 0.3216
vn -0.6543 -0.7227 0.2227
vn -0.9226 0.0000 0.3858
vn -0.6543 0.7227 0.2227
vn -0.6802 -0.7186 0.1448
vn -0.9664 0.0000 0.2572
vn -0.6802 0.7186 0.1448
vn -0.6932 -0.7158 0.0846
vn -0.9873 0.0000 0.1588
vn -0.6932 0.7158 0.0846
vn -0.6993 -0.7138 0.0378
vn -0.9965 0.0000 0.0833
vn -0.6993 0.7138 0.0378
vn -0.7028 -0.7114 0.0040
vn -0.9997 0.0000 0.0246
vn -0.7028 0.7114 0.0040
vn -0.7036 -0.7104 -0.0194
vn -0.9999 0.0000 -0.0131
vn -0.7036 0.7104 -0.0194
vn -0.7021 -0.7109 -0.0412
vn -0.9991 0.0000 -0.0421
vn -0.7021 0.7109 -0.0412
vn -0.6996 -0.7114 -0.0662
vn -0.9972 0.0000 -0.0751
vn -0.6996 0.7114 -0.0662
vn -0.6956 -0.7121 -0.0949
vn -0.9936 0.0000 -0.1132
vn -0.6956 0.7121 -0.0949
vn -0.6893 -0.7130 -0.1282
vn -0.9876 0.0000 -0.1572
vn -0.6893 0.7130 -0.1282
vn -0.6799 -0.7141 -0.1668
vn -0.9781 0.0000 -0.2084
vn -0.6799 0.7141 -0.1668
vn -0.6659 -0.7154 -0.2117
vn -0.9634 0.0000 -0.2680
vn -0.6659 0.7154 -0.2117
vn -0.6452 -0.7170 -0.2637
vn -0.9413 0.0000 -0.3376
vn -0.6452 0.7170 -0.2637
vn -0.6988 -0.5580 0.4476
vn -0.9083 0.0000 -0.4182
vn -0.6988 0.5580 0.4476
vn 0.4642 -0.5971 0.6542
vn 0.4642 0.5971 0.6542
vn 0.6762 -0.7027 0.2215
vn 0.9439 0.0000 0.3302
vn 0.6762 0.7027 0.2215
vn 0.6870 -0.7013 0.1905
vn 0.9563 0.0000 0.2924
vn 0.6870 0.7013 0.1905
vn 0.6949 -0.7020 0.1563
vn 0.9703 0.0000 0.2420
vn 0.6949 0.7020 0.1563
vn 0.7004 -0.7025 0.1259
vn 0.9804 0.0000 0.1969
vn 0.7004 0.7025 0.1259
vn 0.7042 -0.7031 0.0988
vn 0.9876 0.0000 0.1568
vn 0.7042 0.7031 0.0988
vn 0.7068 -0.7035 0.0746
vn 0.9927 0.0000 0.1210
vn 0.7068 0.7035 0.0746
vn 0.7083 -0.7039 0.0530
vn 0.9960 0.0000 0.0889
vn 0.7083 0.7039 0.0530
vn 0.7092 -0.7042 0.0335
vn 0.9982 0.0000 0.0602
vn 0.7092 0.7042 0.0335
vn 0.7095 -0.7045 0.0160
vn 0.9994 0.0000 0.0343
vn 0.7095 0.7045 0.0160
vn 0.7107 -0.7034 -0.0039
vn 0.9999 0.0000 0.0109
vn 0.7107 0.7034 -0.0039
vn 0.7116 -0.7018 -0.0324
vn 0.9998 0.0000 -0.0219
vn 0.7116 0.7018 -0.0324
vn 0.7097 -0.7013 -0.0678
vn 0.9976 0.0000 -0.0691
vn 0.7097 0.7013 -0.0678
vn 0.7055 -0.7006 -0.1070
vn 0.9926 0.0000 -0.1212
vn 0.7055 0.7006 -0.1070
vn 0.6983 -0.7000 -0.1499
vn 0.9839 0.0000 -0.1785
vn 0.6983 0.7000 -0.1499
vn 0.6873 -0.6992 -0.1968
vn 0.9705 0.0000 -0.2412
vn 0.6873 0.6992 -0.1968
vn 0.6715 -0.6985 -0.2474
vn 0.9510 0.0000 -0.3091
vn 0.6715 0.6985 -0.2474
vn 0.6500 -0.6978 -0.3012
vn 0.9242 0.0000 -0.3818
vn 0.6500 0.6978 -0.3012
vn 0.6218 -0.6971 -0.3571
vn 0.8888 0.0000 -0.4582
vn 0.6218 0.6971 -0.3571
vn 0.5866 -0.6968 -0.4127
vn 0.8437 0.0000 -0.5368
vn 0.5866 0.6968 -0.4127
vn 0.5452 -0.6963 -0.4668
vn 0.7903 0.0000 -0.6127
vn 0.5452 0.6963 -0.4668
vn 0.4959 -0.6955 -0.5199
vn 0.7271 0.0000 -0.6865
vn 0.4959 0.6955 -0.5199
vn 0.4375 -0.6949 -0.5708
vn 0.6513 0.0000 -0.7588
vn 0.4375 0.6949 -0.5708
vn 0.3708 -0.6945 -0.6166
vn 0.5635 0.0000 -0.8261
vn 0.3708 0.6945 -0.6166
vn 0.2978 -0.6944 -0.6551
vn 0.4656 0.0000 -0.8850
vn 0.2978 0.6944 -0.6551
vn 0.2214 -0.6946 -0.6845
vn 0.3609 0.0000 -0.9326
vn 0.2214 0.6946 -0.6845
vn 0.1445 -0.6952 -0.7041
vn 0.2536 0.0000 -0.9673
vn 0.1445 0.6952 -0.7041
vn 0.0703 -0.6959 -0.7147
vn 0.1479 0.0000 -0.9890
vn 0.0703 0.6959 -0.7147
vn -0.0046 -0.6952 -0.7188
vn 0.0475 0.0000 -0.9989
vn -0.0046 0.6952 -0.7188
vn -0.0898 -0.6929 -0.7154
vn -0.0603 0.0000 -0.9982
vn -0.0898 0.6929 -0.7154
vn -0.1845 -0.6919 -0.6980
vn -0.1884 0.0000 -0.9821
vn -0.1845 0.6919 -0.6980
vn -0.2800 -0.6915 -0.6659
vn -0.3215 0.0000 -0.9469
vn -0.2800 0.6915 -0.6659
vn -0.3706 -0.6917 -0.6198
vn -0.4519 0.0000 -0.8921
vn -0.3706 0.6917 -0.6198
vn -0.4512 -0.6924 -0.5630
vn -0.5720 0.0000 -0.8202
vn -0.4512 0.6924 -0.5630
vn -0.5185 -0.6936 -0.5001
vn -0.6759 0.0000 -0.7370
vn -0.5185 0.6936 -0.5001
vn -0.5720 -0.6949 -0.4357
vn -0.7610 0.0000 -0.6488
vn -0.5720 0.6949 -0.4357
vn -0.6129 -0.6963 -0.3735
vn -0.8277 0.0000 -0.5612
vn -0.6129 0.6963 -0.3735
vn 0.0045 -0.9646 -0.2638
vn -0.8782 0.0000 -0.4783
vn 0.0045 0.9646 -0.2638
vn 0.6250 -0.6960 -0.3535
vn 0.8941 0.0000 -0.4479
vn 0.6250 0.6960 -0.3535
vn 0.5847 -0.6945 -0.4193
vn 0.8446 0.0000 -0.5354
vn 0.5847 0.6945 -0.4193
vn 0.5308 -0.6930 -0.4879
vn 0.7780 0.0000 -0.6283
vn 0.5308 0.6930 -0.4879
vn 0.4619 -0.6918 -0.5550
vn 0.6915 0.0000 -0.7224
vn 0.4619 0.6918 -0.5550
vn 0.3790 -0.6911 -0.6154
vn 0.5848 0.0000 -0.8111
vn 0.3790 0.6911 -0.6154
vn 0.2855 -0.6910 -0.6641
vn 0.4610 0.0000 -0.8874
vn 0.2855 0.6910 -0.6641
vn 0.1873 -0.6916 -0.6976
vn 0.3267 0.0000 -0.9451
vn 0.1873 0.6916 -0.6976
vn 0.0908 -0.6927 -0.7155
vn 0.1905 0.0000 -0.9817
vn 0.0908 0.6927 -0.7155
vn 0.0059 -0.6955 -0.7185
vn 0.0607 0.0000 -0.9982
vn 0.0059 0.6955 -0.7185
vn -0.0656 -0.6966 -0.7145
vn -0.0442 0.0000 -0.9990
vn -0.0656 0.6966 -0.7145
vn -0.1359 -0.6957 -0.7053
vn -0.1386 0.0000 -0.9904
vn -0.1359 0.6957 -0.7053
vn -0.2101 -0.6950 -0.6876
vn -0.2394 0.0000 -0.9709
vn -0.2101 0.6950 -0.6876
vn -0.2855 -0.6945 -0.6604
vn -0.3440 0.0000 -0.9390
vn -0.2855 0.6945 -0.6604
vn -0.3593 -0.6943 -0.6235
vn -0.4484 0.0000 -0.8938
vn -0.3593 0.6943 -0.6235
vn -0.4283 -0.6945 -0.5781
vn -0.5485 0.0000 -0.8362
vn -0.4283 0.6945 -0.5781
vn -0.4899 -0.6949 -0.5263
vn -0.6401 0.0000 -0.7683
vn -0.4899 0.6949 -0.5263
vn -0.5427 -0.6956 -0.4707
vn -0.7205 0.0000 -0.6934
vn -0.5427 0.6956 -0.4707
vn -0.5854 -0.6968 -0.4145
vn -0.7883 0.0000 -0.6153
vn -0.5854 0.6968 -0.4145
vn -0.6195 -0.6976 -0.3600
vn -0.8422 0.0000 -0.5392
vn -0.6195 0.6976 -0.3600
vn -0.6470 -0.6980 -0.3067
vn -0.8854 0.0000 -0.4649
vn -0.6470 0.6980 -0.3067
vn -0.6687 -0.6986 -0.2545
vn -0.9203 0.0000 -0.3912
vn -0.6687 0.6986 -0.2545
vn -0.6851 -0.6992 -0.2043
vn -0.9475 0.0000 -0.3197
vn -0.6851 0.6992 -0.2043
vn -0.6969 -0.6998 -0.1570
vn -0.9678 0.0000 -0.2516
vn -0.6969 0.6998 -0.1570
vn -0.7048 -0.7004 -0.1128
vn -0.9822 0.0000 -0.1877
vn -0.7048 0.7004 -0.1128
vn -0.7095 -0.7010 -0.0720
vn -0.9917 0.0000 -0.1283
vn -0.7095 0.7010 -0.0720
vn -0.7118 -0.7015 -0.0346
vn -0.9973 0.0000 -0.0736
vn -0.7118 0.7015 -0.0346
vn -0.7134 -0.7007 0.0037
vn -0.9997 0.0000 -0.0234
vn -0.7134 0.7007 0.0037
vn -0.7140 -0.6982 0.0528
vn -0.9994 0.0000 0.0337
vn -0.7140 0.6982 0.0528
vn -0.7085 -0.6957 0.1183
vn -0.9935 0.0000 0.1138
vn -0.7085 0.6957 0.1183
vn -0.6927 -0.6925 0.2016
vn -0.9766 0.0000 0.2152
vn -0.6927 0.6925 0.2016
vn -0.6578 -0.6884 0.3056
vn -0.9395 0.0000 0.3425
vn -0.6578 0.6884 0.3056
vn -0.5909 -0.6840 0.4278
vn -0.8677 0.0000 0.4971
vn -0.5909 0.6840 0.4278
vn -0.4802 -0.6804 0.5535
vn -0.7432 0.0000 0.6691
vn -0.4802 0.6804 0.5535
vn -0.3281 -0.6795 0.6562
vn -0.5574 0.0000 0.8302
vn -0.3281 0.6795 0.6562
vn -0.1590 -0.6818 0.7141
vn -0.3296 0.0000 0.9441
vn -0.1590 0.6818 0.7141
vn -0.0159 -0.6895 0.7241
vn -0.1021 0.0000 0.9948
vn -0.0159 0.6895 0.7241
vn 0.0917 -0.6919 0.7161
vn 0.0584 0.0000 0.9983
vn 0.0917 0.6919 0.7161
vn 0.2010 -0.6886 0.6967
vn 0.1951 0.0000 0.9808
vn 0.2010 0.6886 0.6967
vn 0.3264 -0.6854 0.6509
vn 0.3573 0.0000 0.9340
vn 0.3264 0.6854 0.6509
vn 0.4554 -0.6834 0.5706
vn 0.5348 0.0000 0.8450
vn 0.4554 0.6834 0.5706
vn 0.5684 -0.6833 0.4583
vn 0.7052 0.0000 0.7090
vn 0.5684 0.6833 0.4583
vn 0.6496 -0.6853 0.3292
vn 0.8424 0.0000 0.5389
vn 0.6496 0.6853 0.3292
vn 0.6963 -0.6884 0.2030
vn 0.9327 0.0000 0.3607
vn 0.6963 0.6884 0.2030
vn 0.7161 -0.6918 0.0927
vn 0.9804 0.0000 0.1971
vn 0.7161 0.6918 0.0927
vn 0.7197 -0.6943 0.0007
vn 0.9983 0.0000 0.0590
vn 0.7197 0.6943 0.0007
vn 0.7161 -0.6922 -0.0899
vn 0.9984 0.0000 -0.0572
vn 0.7161 0.6922 -0.0899
vn 0.6975 -0.6889 -0.1972
vn 0.9815 0.0000 -0.1913
vn 0.6975 0.6889 -0.1972
vn 0.6533 -0.6857 -0.3211
vn 0.9364 0.0000 -0.3510
vn 0.6533 0.6857 -0.3211
vn 0.5750 -0.6835 -0.4497
vn 0.8499 0.0000 -0.5270
vn 0.5750 0.6835 -0.4497
vn 0.4639 -0.6832 -0.5639
vn 0.7162 0.0000 -0.6979
vn 0.4639 0.6832 -0.5639
vn 0.3346 -0.6850 -0.6471
vn 0.5468 0.0000 -0.8373
vn 0.3346 0.6850 -0.6471
vn 0.2069 -0.6881 -0.6955
vn 0.3671 0.0000 -0.9302
vn 0.2069 0.6881 -0.6955
vn 0.0946 -0.6915 -0.7162
vn 0.2010 0.0000 -0.9796
vn 0.0946 0.6915 -0.7162
vn -0.5612 -0.5742 -0.5961
vn 0.0603 0.0000 -0.9982
vn -0.5612 0.5742 -0.5961
vn -0.0924 -0.7238 0.6838
vn -0.1997 -0.7275 0.6564
vn -0.2055 0.0000 0.9787
vn -0.1997 0.7275 0.6564
vn -0.0924 0.7238 0.6838
vn -0.3190 -0.7309 0.6033
vn -0.3745 0.0000 0.9272
vn -0.3190 0.7309 0.6033
vn -0.4381 -0.7328 0.5207
vn -0.5556 0.0000 0.8315
vn -0.4381 0.7328 0.5207
vn -0.5410 -0.7322 0.4138
vn -0.7242 0.0000 0.6896
vn -0.5410 0.7322 0.4138
vn -0.6164 -0.7295 0.2963
vn -0.8552 0.0000 0.5183
vn -0.6164 0.7295 0.2963
vn -0.6630 -0.7259 0.1832
vn -0.9390 0.0000 0.3439
vn -0.6630 0.7259 0.1832
vn -0.6864 -0.7223 0.0842
vn -0.9823 0.0000 0.1871
vn -0.6864 0.7223 0.0842
vn -0.6941 -0.7199 0.0000
vn -0.9984 0.0000 0.0559
vn -0.6941 0.7199 0.0000
vn -0.6864 -0.7223 -0.0842
vn -0.9984 0.0000 -0.0559
vn -0.6864 0.7223 -0.0842
vn -0.6630 -0.7259 -0.1832
vn -0.9823 0.0000 -0.1871
vn -0.6630 0.7259 -0.1832
vn -0.6164 -0.7295 -0.2963
vn -0.9390 0.0000 -0.3440
vn -0.6164 0.7295 -0.2963
vn -0.5410 -0.7322 -0.4138
vn -0.8552 0.0000 -0.5183
vn -0.5410 0.7322 -0.4138
vn -0.4381 -0.7328 -0.5207
vn -0.7241 0.0000 -0.6896
vn -0.4381 0.7328 -0.5207
vn -0.3190 -0.7309 -0.6033
vn -0.5556 0.0000 -0.8315
vn -0.3190 0.7309 -0.6033
vn -0.1997 -0.7275 -0.6564
vn -0.3745 0.0000 -0.9272
vn -0.1997 0.7275 -0.6564
vn -0.0924 -0.7238 -0.6838
vn -0.2055 0.0000 -0.9787
vn -0.0924 0.7238 -0.6838
vn 0.0000 -0.7212 -0.6927
vn -0.0616 0.0000 -0.9981
vn 0.0000 0.7212 -0.6927
vn 0.0924 -0.7238 -0.6838
vn 0.0616 0.0000 -0.9981
vn 0.0924 0.7238 -0.6838
vn 0.1997 -0.7275 -0.6564
vn 0.2055 0.0000 -0.9787
vn 0.1997 0.7275 -0.6564
vn 0.3190 -0.7309 -0.6033
vn 0.3745 0.0000 -0.9272
vn 0.3190 0.7309 -0.6033
vn 0.4381 -0.7328 -0.5207
vn 0.5556 0.0000 -0.8315
vn 0.4381 0.7328 -0.5207
vn 0.5410 -0.7322 -0.4138
vn 0.7241 0.0000 -0.6897
vn 0.5410 0.7322 -0.4138
vn 0.6165 -0.7295 -0.2963
vn 0.8552 0.0000 -0.5183
vn 0.6165 0.7295 -0.2963
vn 0.6630 -0.7259 -0.1832
vn 0.9390 0.0000 -0.3440
vn 0.6630 0.7259 -0.1832
vn 0.6864 -0.7223 -0.0842
vn 0.9823 0.0000 -0.1871
vn 0.6864 0.7223 -0.0842
vn 0.6941 -0.7199 -0.0000
vn 0.9984 0.0000 -0.0559
vn 0.6941 0.7199 -0.0000
vn 0.6864 -0.7223 0.0842
vn 0.9984 0.0000 0.0559
vn 0.6864 0.7223 0.0842
vn 0.6630 -0.7259 0.1832
vn 0.9823 0.0000 0.1871
vn 0.6630 0.7259 0.1832
vn 0.6164 -0.7295 0.2963
vn 0.9390 0.0000 0.3439
vn 0.6164 0.7295 0.2963
vn 0.5410 -0.7322 0.4138
vn 0.8552 0.0000 0.5183
vn 0.5410 0.7322 0.4138
vn 0.4381 -0.7328 0.5207
vn 0.7241 0.0000 0.6897
vn 0.4381 0.7328 0.5207
vn 0.3190 -0.7309 0.6033
vn 0.5556 0.0000 0.8315
vn 0.3190 0.7309 0.6033
vn 0.1997 -0.7275 0.6564
vn 0.3745 0.0000 0.9272
vn 0.1997 0.7275 0.6564
vn 0.0924 -0.7238 0.6838
vn 0.2055 0.0000 0.9787
vn 0.0924 0.7238 0.6838
vn 0.0000 -0.7212 0.6927
vn 0.0616 0.0000 0.9981
vn 0.0000 0.7212 0.6927
vn -0.0616 0.0000 0.9981
vn 0.0000 -1.0000 -0.0000
vn 0.0000 1.0000 -0.0000
# 585 vertex normals

o Number_3
g Number_3
s 1
f 1//1 2//2 3//3 
f 2//2 4//4 3//3 
f 4//4 5//5 3//3 
f 5//5 1//1 3//3 
s 3
f 2//2 6//6 7//7 
f 6//6 8//8 7//7 
f 8//8 4//4 7//7 
f 4//4 2//2 7//7 
s 2
f 6//6 9//9 10//10 
f 9//9 11//11 10//10 
f 11//11 8//8 10//10 
f 8//8 6//6 10//10 
f 9//9 12//12 13//13 
f 12//12 14//14 13//13 
f 14//14 11//11 13//13 
f 11//11 9//9 13//13 
f 12//12 15//15 16//16 
f 15//15 17//17 16//16 
f 17//17 14//14 16//16 
f 14//14 12//12 16//16 
f 15//15 18//18 19//19 
f 18//18 20//20 19//19 
f 20//20 17//17 19//19 
f 17//17 15//15 19//19 
f 18//18 21//21 22//22 
f 21//21 23//23 22//22 
f 23//23 20//20 22//22 
f 20//20 18//18 22//22 
f 21//21 24//24 25//25 
f 24//24 26//26 25//25 
f 26//26 23//23 25//25 
f 23//23 21//21 25//25 
f 24//24 27//27 28//28 
f 27//27 29//29 28//28 
f 29//29 26//26 28//28 
f 26//26 24//24 28//28 
f 27//27 30//30 31//31 
f 30//30 32//32 31//31 
f 32//32 29//29 31//31 
f 29//29 27//27 31//31 
f 30//30 33//33 34//34 
f 33//33 35//35 34//34 
f 35//35 32//32 34//34 
f 32//32 30//30 34//34 
f 33//33 36//36 37//37 
f 36//36 38//38 37//37 
f 38//38 35//35 37//37 
f 35//35 33//33 37//37 
f 36//36 39//39 40//40 
f 39//39 41//41 40//40 
f 41//41 38//38 40//40 
f 38//38 36//36 40//40 
f 39//39 42//42 43//43 
f 42//42 44//44 43//43 
f 44//44 41//41 43//43 
f 41//41 39//39 43//43 
f 42//42 45//45 46//46 
f 45//45 47//47 46//46 
f 47//47 44//44 46//46 
f 44//44 42//42 46//46 
f 45//45 48//48 49//49 
f 48//48 50//50 49//49 
f 50//50 47//47 49//49 
f 47//47 45//45 49//49 
f 48//48 51//51 52//52 
f 51//51 53//53 52//52 
f 53//53 50//50 52//52 
f 50//50 48//48 52//52 
f 51//51 54//54 55//55 
f 54//54 56//56 55//55 
f 56//56 53//53 55//55 
f 53//53 51//51 55//55 
f 54//54 57//57 58//58 
f 57//57 59//59 58//58 
f 59//59 56//56 58//58 
f 56//56 54//54 58//58 
f 57//57 60//60 61//61 
f 60//60 62//62 61//61 
f 62//62 59//59 61//61 
f 59//59 57//57 61//61 
f 60//60 63//63 64//64 
f 63//63 65//65 64//64 
f 65//65 62//62 64//64 
f 62//62 60//60 64//64 
f 63//63 66//66 67//67 
f 66//66 68//68 67//67 
f 68//68 65//65 67//67 
f 65//65 63//63 67//67 
f 66//66 69//69 70//70 
f 69//69 71//71 70//70 
f 71//71 68//68 70//70 
f 68//68 66//66 70//70 
f 69//69 72//72 73//73 
f 72//72 74//74 73//73 
f 74//74 71//71 73//73 
f 71//71 69//69 73//73 
f 72//72 75//75 76//76 
f 75//75 77//77 76//76 
f 77//77 74//74 76//76 
f 74//74 72//72 76//76 
f 75//75 78//78 79//79 
f 78//78 80//80 79//79 
f 80//80 77//77 79//79 
f 77//77 75//75 79//79 
f 78//78 81//81 82//82 
f 81//81 83//83 82//82 
f 83//83 80//80 82//82 
f 80//80 78//78 82//82 
f 81//81 84//84 85//85 
f 84//84 86//86 85//85 
f 86//86 83//83 85//85 
f 83//83 81//81 85//85 
f 84//84 87//87 88//88 
f 87//87 89//89 88//88 
f 89//89 86//86 88//88 
f 86//86 84//84 88//88 
f 87//87 90//90 91//91 
f 90//90 92//92 91//91 
f 92//92 89//89 91//91 
f 89//89 87//87 91//91 
f 90//90 93//93 94//94 
f 93//93 95//95 94//94 
f 95//95 92//92 94//94 
f 92//92 90//90 94//94 
f 93//93 96//96 97//97 
f 96//96 98//98 97//97 
f 98//98 95//95 97//97 
f 95//95 93//93 97//97 
f 96//96 99//99 100//100 
f 99//99 101//101 100//100 
f 101//101 98//98 100//100 
f 98//98 96//96 100//100 
f 99//99 102//102 103//103 
f 102//102 104//104 103//103 
f 104//104 101//101 103//103 
f 101//101 99//99 103//103 
f 102//102 105//105 106//106 
f 105//105 107//107 106//106 
f 107//107 104//104 106//106 
f 104//104 102//102 106//106 
f 105//105 108//108 109//109 
f 108//108 110//110 109//109 
f 110//110 107//107 109//109 
f 107//107 105//105 109//109 
s 4
f 108//108 111//111 112//112 
f 111//111 113//113 112//112 
f 113//113 110//110 112//112 
f 110//110 108//108 112//112 
s 2
f 111//111 114//114 115//115 
f 114//114 116//116 115//115 
f 116//116 113//113 115//115 
f 113//113 111//111 115//115 
s 4
f 114//114 117//117 118//118 
f 117//117 119//119 118//118 
f 119//119 116//116 118//118 
f 116//116 114//114 118//118 
s 2
f 117//117 120//120 121//121 
f 120//120 122//122 121//121 
f 122//122 119//119 121//121 
f 119//119 117//117 121//121 
f 120//120 123//123 124//124 
f 123//123 125//125 124//124 
f 125//125 122//122 124//124 
f 122//122 120//120 124//124 
f 123//123 126//126 127//127 
f 126//126 128//128 127//127 
f 128//128 125//125 127//127 
f 125//125 123//123 127//127 
f 126//126 129//129 130//130 
f 129//129 131//131 130//130 
f 131//131 128//128 130//130 
f 128//128 126//126 130//130 
f 129//129 132//132 133//133 
f 132//132 134//134 133//133 
f 134//134 131//131 133//133 
f 131//131 129//129 133//133 
f 132//132 135//135 136//136 
f 135//135 137//137 136//136 
f 137//137 134//134 136//136 
f 134//134 132//132 136//136 
f 135//135 138//138 139//139 
f 138//138 140//140 139//139 
f 140//140 137//137 139//139 
f 137//137 135//135 139//139 
f 138//138 141//141 142//142 
f 141//141 143//143 142//142 
f 143//143 140//140 142//142 
f 140//140 138//138 142//142 
f 141//141 144//144 145//145 
f 144//144 146//146 145//145 
f 146//146 143//143 145//145 
f 143//143 141//141 145//145 
f 144//144 147//147 148//148 
f 147//147 149//149 148//148 
f 149//149 146//146 148//148 
f 146//146 144//144 148//148 
f 147//147 150//150 151//151 
f 150//150 152//152 151//151 
f 152//152 149//149 151//151 
f 149//149 147//147 151//151 
f 150//150 153//153 154//154 
f 153//153 155//155 154//154 
f 155//155 152//152 154//154 
f 152//152 150//150 154//154 
f 153//153 156//156 157//157 
f 156//156 158//158 157//157 
f 158//158 155//155 157//157 
f 155//155 153//153 157//157 
f 156//156 159//159 160//160 
f 159//159 161//161 160//160 
f 161//161 158//158 160//160 
f 158//158 156//156 160//160 
f 159//159 162//162 163//163 
f 162//162 164//164 163//163 
f 164//164 161//161 163//163 
f 161//161 159//159 163//163 
f 162//162 165//165 166//166 
f 165//165 167//167 166//166 
f 167//167 164//164 166//166 
f 164//164 162//162 166//166 
f 165//165 168//168 169//169 
f 168//168 170//170 169//169 
f 170//170 167//167 169//169 
f 167//167 165//165 169//169 
f 168//168 171//171 172//172 
f 171//171 173//173 172//172 
f 173//173 170//170 172//172 
f 170//170 168//168 172//172 
f 171//171 174//174 175//175 
f 174//174 176//176 175//175 
f 176//176 173//173 175//175 
f 173//173 171//171 175//175 
f 174//174 177//177 178//178 
f 177//177 179//179 178//178 
f 179//179 176//176 178//178 
f 176//176 174//174 178//178 
f 177//177 180//180 181//181 
f 180//180 182//182 181//181 
f 182//182 179//179 181//181 
f 179//179 177//177 181//181 
f 180//180 183//183 184//184 
f 183//183 185//185 184//184 
f 185//185 182//182 184//184 
f 182//182 180//180 184//184 
f 183//183 186//186 187//187 
f 186//186 188//188 187//187 
f 188//188 185//185 187//187 
f 185//185 183//183 187//187 
f 186//186 189//189 190//190 
f 189//189 191//191 190//190 
f 191//191 188//188 190//190 
f 188//188 186//186 190//190 
f 189//189 192//192 193//193 
f 192//192 194//194 193//193 
f 194//194 191//191 193//193 
f 191//191 189//189 193//193 
f 192//192 195//195 196//196 
f 195//195 197//197 196//196 
f 197//197 194//194 196//196 
f 194//194 192//192 196//196 
f 195//195 198//198 199//199 
f 198//198 200//200 199//199 
f 200//200 197//197 199//199 
f 197//197 195//195 199//199 
s 4
f 198//198 201//201 202//115 
f 201//201 203//202 202//115 
f 203//202 200//200 202//115 
f 200//200 198//198 202//115 
s 2
f 201//201 204//203 205//204 
f 204//203 206//205 205//204 
f 206//205 203//202 205//204 
f 203//202 201//201 205//204 
s 4
f 204//203 207//206 208//207 
f 207//206 209//208 208//207 
f 209//208 206//205 208//207 
f 206//205 204//203 208//207 
f 207//206 210//209 211//210 
f 210//209 212//211 211//210 
f 212//211 209//208 211//210 
f 209//208 207//206 211//210 
f 210//209 213//212 214//213 
f 213//212 215//214 214//213 
f 215//214 212//211 214//213 
f 212//211 210//209 214//213 
f 213//212 216//215 217//216 
f 216//215 218//217 217//216 
f 218//217 215//214 217//216 
f 215//214 213//212 217//216 
f 216//215 219//218 220//219 
f 219//218 221//220 220//219 
f 221//220 218//217 220//219 
f 218//217 216//215 220//219 
f 219//218 222//221 223//222 
f 222//221 224//223 223//222 
f 224//223 221//220 223//222 
f 221//220 219//218 223//222 
f 222//221 225//224 226//225 
f 225//224 227//226 226//225 
f 227//226 224//223 226//225 
f 224//223 222//221 226//225 
f 225//224 228//227 229//228 
f 228//227 230//229 229//228 
f 230//229 227//226 229//228 
f 227//226 225//224 229//228 
f 228//227 231//230 232//231 
f 231//230 233//232 232//231 
f 233//232 230//229 232//231 
f 230//229 228//227 232//231 
f 231//230 234//233 235//234 
f 234//233 236//235 235//234 
f 236//235 233//232 235//234 
f 233//232 231//230 235//234 
f 234//233 237//236 238//237 
f 237//236 239//238 238//237 
f 239//238 236//235 238//237 
f 236//235 234//233 238//237 
f 237//236 240//239 241//240 
f 240//239 242//241 241//240 
f 242//241 239//238 241//240 
f 239//238 237//236 241//240 
f 240//239 243//242 244//243 
f 243//242 245//244 244//243 
f 245//244 242//241 244//243 
f 242//241 240//239 244//243 
f 243//242 246//245 247//246 
f 246//245 248//247 247//246 
f 248//247 245//244 247//246 
f 245//244 243//242 247//246 
f 246//245 249//248 250//249 
f 249//248 251//250 250//249 
f 251//250 248//247 250//249 
f 248//247 246//245 250//249 
f 249//248 252//251 253//252 
f 252//251 254//253 253//252 
f 254//253 251//250 253//252 
f 251//250 249//248 253//252 
f 252//251 255//254 256//255 
f 255//254 257//256 256//255 
f 257//256 254//253 256//255 
f 254//253 252//251 256//255 
f 255//254 258//257 259//258 
f 258//257 260//259 259//258 
f 260//259 257//256 259//258 
f 257//256 255//254 259//258 
f 258//257 261//260 262//261 
f 261//260 263//262 262//261 
f 263//262 260//259 262//261 
f 260//259 258//257 262//261 
f 261//260 264//263 265//264 
f 264//263 266//265 265//264 
f 266//265 263//262 265//264 
f 263//262 261//260 265//264 
f 264//263 267//266 268//267 
f 267//266 269//268 268//267 
f 269//268 266//265 268//267 
f 266//265 264//263 268//267 
f 267//266 270//269 271//270 
f 270//269 272//271 271//270 
f 272//271 269//268 271//270 
f 269//268 267//266 271//270 
f 270//269 273//272 274//273 
f 273//272 275//274 274//273 
f 275//274 272//271 274//273 
f 272//271 270//269 274//273 
f 273//272 276//275 277//276 
f 276//275 278//277 277//276 
f 278//277 275//274 277//276 
f 275//274 273//272 277//276 
f 276//275 279//278 280//279 
f 279//278 281//280 280//279 
f 281//280 278//277 280//279 
f 278//277 276//275 280//279 
f 279//278 282//281 283//282 
f 282//281 284//283 283//282 
f 284//283 281//280 283//282 
f 281//280 279//278 283//282 
f 282//281 285//284 286//285 
f 285//284 287//286 286//285 
f 287//286 284//283 286//285 
f 284//283 282//281 286//285 
f 285//284 288//287 289//288 
f 288//287 290//289 289//288 
f 290//289 287//286 289//288 
f 287//286 285//284 289//288 
f 288//287 291//290 292//291 
f 291//290 293//292 292//291 
f 293//292 290//289 292//291 
f 290//289 288//287 292//291 
f 291//290 294//293 295//294 
f 294//293 296//295 295//294 
f 296//295 293//292 295//294 
f 293//292 291//290 295//294 
f 294//293 297//296 298//297 
f 297//296 299//298 298//297 
f 299//298 296//295 298//297 
f 296//295 294//293 298//297 
f 297//296 300//299 301//300 
f 300//299 302//301 301//300 
f 302//301 299//298 301//300 
f 299//298 297//296 301//300 
f 300//299 303//302 304//303 
f 303//302 305//304 304//303 
f 305//304 302//301 304//303 
f 302//301 300//299 304//303 
f 303//302 306//305 307//306 
f 306//305 308//307 307//306 
f 308//307 305//304 307//306 
f 305//304 303//302 307//306 
f 306//305 309//308 310//309 
f 309//308 311//310 310//309 
f 311//310 308//307 310//309 
f 308//307 306//305 310//309 
f 309//308 312//311 313//312 
f 312//311 314//313 313//312 
f 314//313 311//310 313//312 
f 311//310 309//308 313//312 
s 2
f 312//311 315//314 316//315 
f 315//314 317//316 316//315 
f 317//316 314//313 316//315 
f 314//313 312//311 316//315 
f 315//314 318//317 319//318 
f 318//317 320//319 319//318 
f 320//319 317//316 319//318 
f 317//316 315//314 319//318 
f 318//317 321//320 322//321 
f 321//320 323//322 322//321 
f 323//322 320//319 322//321 
f 320//319 318//317 322//321 
f 321//320 324//323 325//324 
f 324//323 326//325 325//324 
f 326//325 323//322 325//324 
f 323//322 321//320 325//324 
f 324//323 327//326 328//327 
f 327//326 329//328 328//327 
f 329//328 326//325 328//327 
f 326//325 324//323 328//327 
f 327//326 330//329 331//330 
f 330//329 332//331 331//330 
f 332//331 329//328 331//330 
f 329//328 327//326 331//330 
f 330//329 333//332 334//333 
f 333//332 335//334 334//333 
f 335//334 332//331 334//333 
f 332//331 330//329 334//333 
f 333//332 336//335 337//336 
f 336//335 338//337 337//336 
f 338//337 335//334 337//336 
f 335//334 333//332 337//336 
f 336//335 339//338 340//339 
f 339//338 341//340 340//339 
f 341//340 338//337 340//339 
f 338//337 336//335 340//339 
f 339//338 342//341 343//342 
f 342//341 344//343 343//342 
f 344//343 341//340 343//342 
f 341//340 339//338 343//342 
f 342//341 345//344 346//345 
f 345//344 347//346 346//345 
f 347//346 344//343 346//345 
f 344//343 342//341 346//345 
f 345//344 348//347 349//348 
f 348//347 350//349 349//348 
f 350//349 347//346 349//348 
f 347//346 345//344 349//348 
f 348//347 351//350 352//351 
f 351//350 353//352 352//351 
f 353//352 350//349 352//351 
f 350//349 348//347 352//351 
f 351//350 354//353 355//354 
f 354//353 356//355 355//354 
f 356//355 353//352 355//354 
f 353//352 351//350 355//354 
f 354//353 357//356 358//357 
f 357//356 359//358 358//357 
f 359//358 356//355 358//357 
f 356//355 354//353 358//357 
f 357//356 360//359 361//360 
f 360//359 362//361 361//360 
f 362//361 359//358 361//360 
f 359//358 357//356 361//360 
f 360//359 363//362 364//363 
f 363//362 365//364 364//363 
f 365//364 362//361 364//363 
f 362//361 360//359 364//363 
f 363//362 366//365 367//366 
f 366//365 368//367 367//366 
f 368//367 365//364 367//366 
f 365//364 363//362 367//366 
f 366//365 369//368 370//369 
f 369//368 371//370 370//369 
f 371//370 368//367 370//369 
f 368//367 366//365 370//369 
f 369//368 372//371 373//372 
f 372//371 374//373 373//372 
f 374//373 371//370 373//372 
f 371//370 369//368 373//372 
f 372//371 375//374 376//375 
f 375//374 377//376 376//375 
f 377//376 374//373 376//375 
f 374//373 372//371 376//375 
f 375//374 378//377 379//378 
f 378//377 380//379 379//378 
f 380//379 377//376 379//378 
f 377//376 375//374 379//378 
f 378//377 381//380 382//381 
f 381//380 383//382 382//381 
f 383//382 380//379 382//381 
f 380//379 378//377 382//381 
f 381//380 384//383 385//384 
f 384//383 386//385 385//384 
f 386//385 383//382 385//384 
f 383//382 381//380 385//384 
f 384//383 387//386 388//387 
f 387//386 389//388 388//387 
f 389//388 386//385 388//387 
f 386//385 384//383 388//387 
f 387//386 390//389 391//390 
f 390//389 392//391 391//390 
f 392//391 389//388 391//390 
f 389//388 387//386 391//390 
f 390//389 393//392 394//393 
f 393//392 395//394 394//393 
f 395//394 392//391 394//393 
f 392//391 390//389 394//393 
f 393//392 396//395 397//396 
f 396//395 398//397 397//396 
f 398//397 395//394 397//396 
f 395//394 393//392 397//396 
f 396//395 399//398 400//399 
f 399//398 401//400 400//399 
f 401//400 398//397 400//399 
f 398//397 396//395 400//399 
f 399//398 402//401 403//402 
f 402//401 404//403 403//402 
f 404//403 401//400 403//402 
f 401//400 399//398 403//402 
f 402//401 405//404 406//405 
f 405//404 407//406 406//405 
f 407//406 404//403 406//405 
f 404//403 402//401 406//405 
f 405//404 408//407 409//408 
f 408//407 410//409 409//408 
f 410//409 407//406 409//408 
f 407//406 405//404 409//408 
f 408//407 411//410 412//411 
f 411//410 413//412 412//411 
f 413//412 410//409 412//411 
f 410//409 408//407 412//411 
f 411//410 414//413 415//414 
f 414//413 416//415 415//414 
f 416//415 413//412 415//414 
f 413//412 411//410 415//414 
f 414//413 417//416 418//417 
f 417//416 419//418 418//417 
f 419//418 416//415 418//417 
f 416//415 414//413 418//417 
f 417//416 420//419 421//420 
f 420//419 422//421 421//420 
f 422//421 419//418 421//420 
f 419//418 417//416 421//420 
f 420//419 423//422 424//423 
f 423//422 425//424 424//423 
f 425//424 422//421 424//423 
f 422//421 420//419 424//423 
f 423//422 426//425 427//426 
f 426//425 428//427 427//426 
f 428//427 425//424 427//426 
f 425//424 423//422 427//426 
f 426//425 429//428 430//429 
f 429//428 431//430 430//429 
f 431//430 428//427 430//429 
f 428//427 426//425 430//429 
f 429//428 432//431 433//432 
f 432//431 434//433 433//432 
f 434//433 431//430 433//432 
f 431//430 429//428 433//432 
f 432//431 435//434 436//435 
f 435//434 437//436 436//435 
f 437//436 434//433 436//435 
f 434//433 432//431 436//435 
f 435//434 438//437 439//438 
f 438//437 440//439 439//438 
f 440//439 437//436 439//438 
f 437//436 435//434 439//438 
f 438//437 441//440 442//441 
f 441//440 443//442 442//441 
f 443//442 440//439 442//441 
f 440//439 438//437 442//441 
f 441//440 444//443 445//444 
f 444//443 446//445 445//444 
f 446//445 443//442 445//444 
f 443//442 441//440 445//444 
f 444//443 447//446 448//447 
f 447//446 449//448 448//447 
f 449//448 446//445 448//447 
f 446//445 444//443 448//447 
f 447//446 450//449 451//450 
f 450//449 452//451 451//450 
f 452//451 449//448 451//450 
f 449//448 447//446 451//450 
f 450//449 453//452 454//453 
f 453//452 455//454 454//453 
f 455//454 452//451 454//453 
f 452//451 450//449 454//453 
f 453//452 456//455 457//456 
f 456//455 458//457 457//456 
f 458//457 455//454 457//456 
f 455//454 453//452 457//456 
f 456//455 459//458 460//459 
f 459//458 461//460 460//459 
f 461//460 458//457 460//459 
f 458//457 456//455 460//459 
f 459//458 462//461 463//462 
f 462//461 464//463 463//462 
f 464//463 461//460 463//462 
f 461//460 459//458 463//462 
f 462//461 465//464 466//465 
f 465//464 467//466 466//465 
f 467//466 464//463 466//465 
f 464//463 462//461 466//465 
f 465//464 468//467 469//468 
f 468//467 470//469 469//468 
f 470//469 467//466 469//468 
f 467//466 465//464 469//468 
f 468//467 471//470 472//471 
f 471//470 473//472 472//471 
f 473//472 470//469 472//471 
f 470//469 468//467 472//471 
f 471//470 474//473 475//474 
f 474//473 476//475 475//474 
f 476//475 473//472 475//474 
f 473//472 471//470 475//474 
s 4
f 474//473 1//1 477//112 
f 1//1 5//5 477//112 
f 5//5 476//475 477//112 
f 476//475 474//473 477//112 
s 1
f 478//476 479//477 480//478 
f 479//477 481//479 480//478 
f 481//479 482//480 480//478 
f 482//480 478//476 480//478 
s 3
f 479//477 483//481 484//482 
f 483//481 485//483 484//482 
f 485//483 481//479 484//482 
f 481//479 479//477 484//482 
s 2
f 483//481 486//484 487//485 
f 486//484 488//486 487//485 
f 488//486 485//483 487//485 
f 485//483 483//481 487//485 
f 486//484 489//487 490//488 
f 489//487 491//489 490//488 
f 491//489 488//486 490//488 
f 488//486 486//484 490//488 
f 489//487 492//490 493//491 
f 492//490 494//492 493//491 
f 494//492 491//489 493//491 
f 491//489 489//487 493//491 
f 492//490 495//493 496//494 
f 495//493 497//495 496//494 
f 497//495 494//492 496//494 
f 494//492 492//490 496//494 
f 495//493 498//496 499//497 
f 498//496 500//498 499//497 
f 500//498 497//495 499//497 
f 497//495 495//493 499//497 
f 498//496 501//499 502//500 
f 501//499 503//501 502//500 
f 503//501 500//498 502//500 
f 500//498 498//496 502//500 
f 501//499 504//502 505//503 
f 504//502 506//504 505//503 
f 506//504 503//501 505//503 
f 503//501 501//499 505//503 
f 504//502 507//505 508//506 
f 507//505 509//507 508//506 
f 509//507 506//504 508//506 
f 506//504 504//502 508//506 
f 507//505 510//508 511//509 
f 510//508 512//510 511//509 
f 512//510 509//507 511//509 
f 509//507 507//505 511//509 
f 510//508 513//511 514//512 
f 513//511 515//513 514//512 
f 515//513 512//510 514//512 
f 512//510 510//508 514//512 
f 513//511 516//514 517//515 
f 516//514 518//516 517//515 
f 518//516 515//513 517//515 
f 515//513 513//511 517//515 
f 516//514 519//517 520//518 
f 519//517 521//519 520//518 
f 521//519 518//516 520//518 
f 518//516 516//514 520//518 
f 519//517 522//520 523//521 
f 522//520 524//522 523//521 
f 524//522 521//519 523//521 
f 521//519 519//517 523//521 
f 522//520 525//523 526//524 
f 525//523 527//525 526//524 
f 527//525 524//522 526//524 
f 524//522 522//520 526//524 
f 525//523 528//526 529//527 
f 528//526 530//528 529//527 
f 530//528 527//525 529//527 
f 527//525 525//523 529//527 
f 528//526 531//529 532//530 
f 531//529 533//531 532//530 
f 533//531 530//528 532//530 
f 530//528 528//526 532//530 
f 531//529 534//532 535//533 
f 534//532 536//534 535//533 
f 536//534 533//531 535//533 
f 533//531 531//529 535//533 
f 534//532 537//535 538//536 
f 537//535 539//537 538//536 
f 539//537 536//534 538//536 
f 536//534 534//532 538//536 
f 537//535 540//538 541//539 
f 540//538 542//540 541//539 
f 542//540 539//537 541//539 
f 539//537 537//535 541//539 
f 540//538 543//541 544//542 
f 543//541 545//543 544//542 
f 545//543 542//540 544//542 
f 542//540 540//538 544//542 
f 543//541 546//544 547//545 
f 546//544 548//546 547//545 
f 548//546 545//543 547//545 
f 545//543 543//541 547//545 
f 546//544 549//547 550//548 
f 549//547 551//549 550//548 
f 551//549 548//546 550//548 
f 548//546 546//544 550//548 
f 549//547 552//550 553//551 
f 552//550 554//552 553//551 
f 554//552 551//549 553//551 
f 551//549 549//547 553//551 
f 552//550 555//553 556//554 
f 555//553 557//555 556//554 
f 557//555 554//552 556//554 
f 554//552 552//550 556//554 
f 555//553 558//556 559//557 
f 558//556 560//558 559//557 
f 560//558 557//555 559//557 
f 557//555 555//553 559//557 
f 558//556 561//559 562//560 
f 561//559 563//561 562//560 
f 563//561 560//558 562//560 
f 560//558 558//556 562//560 
f 561//559 564//562 565//563 
f 564//562 566//564 565//563 
f 566//564 563//561 565//563 
f 563//561 561//559 565//563 
f 564//562 567//565 568//566 
f 567//565 569//567 568//566 
f 569//567 566//564 568//566 
f 566//564 564//562 568//566 
f 567//565 570//568 571//569 
f 570//568 572//570 571//569 
f 572//570 569//567 571//569 
f 569//567 567//565 571//569 
f 570//568 573//571 574//572 
f 573//571 575//573 574//572 
f 575//573 572//570 574//572 
f 572//570 570//568 574//572 
f 573//571 576//574 577//575 
f 576//574 578//576 577//575 
f 578//576 575//573 577//575 
f 575//573 573//571 577//575 
f 576//574 579//577 580//578 
f 579//577 581//579 580//578 
f 581//579 578//576 580//578 
f 578//576 576//574 580//578 
f 579//577 582//580 583//581 
f 582//580 584//582 583//581 
f 584//582 581//579 583//581 
f 581//579 579//577 583//581 
s 3
f 582//580 478//476 585//583 
f 478//476 482//480 585//583 
f 482//480 584//582 585//583 
f 584//582 582//580 585//583 
s 16
f 111//111 108//108 586//584 
f 108//108 117//117 586//584 
f 117//117 114//114 586//584 
f 114//114 111//111 586//584 
f 113//113 116//116 587//585 
f 116//116 119//119 587//585 
f 119//119 110//110 587//585 
f 110//110 113//113 587//585 
f 108//108 105//105 588//584 
f 105//105 120//120 588//584 
f 120//120 117//117 588//584 
f 117//117 108//108 588//584 
f 105//105 102//102 589//584 
f 102//102 120//120 589//584 
f 120//120 105//105 589//584 
f 102//102 99//99 590//584 
f 99//99 123//123 590//584 
f 123//123 120//120 590//584 
f 120//120 102//102 590//584 
f 99//99 96//96 591//584 
f 96//96 123//123 591//584 
f 123//123 99//99 591//584 
f 96//96 93//93 592//584 
f 93//93 126//126 592//584 
f 126//126 123//123 592//584 
f 123//123 96//96 592//584 
f 93//93 90//90 593//584 
f 90//90 312//311 593//584 
f 312//311 126//126 593//584 
f 126//126 93//93 593//584 
f 90//90 87//87 594//584 
f 87//87 312//311 594//584 
f 312//311 90//90 594//584 
f 201//201 198//198 595//584 
f 198//198 195//195 595//584 
f 195//195 201//201 595//584 
f 195//195 192//192 596//584 
f 192//192 201//201 596//584 
f 201//201 195//195 596//584 
f 192//192 189//189 597//584 
f 189//189 204//203 597//584 
f 204//203 201//201 597//584 
f 201//201 192//192 597//584 
f 189//189 186//186 598//584 
f 186//186 207//206 598//584 
f 207//206 204//203 598//584 
f 204//203 189//189 598//584 
f 186//186 183//183 599//584 
f 183//183 213//212 599//584 
f 213//212 210//209 599//584 
f 210//209 207//206 599//584 
f 207//206 186//186 599//584 
f 183//183 180//180 600//584 
f 180//180 216//215 600//584 
f 216//215 213//212 600//584 
f 213//212 183//183 600//584 
f 180//180 177//177 601//584 
f 177//177 222//221 601//584 
f 222//221 219//218 601//584 
f 219//218 216//215 601//584 
f 216//215 180//180 601//584 
f 177//177 174//174 602//584 
f 174//174 225//224 602//584 
f 225//224 222//221 602//584 
f 222//221 177//177 602//584 
f 174//174 171//171 603//584 
f 171//171 231//230 603//584 
f 231//230 228//227 603//584 
f 228//227 225//224 603//584 
f 225//224 174//174 603//584 
f 171//171 168//168 604//584 
f 168//168 234//233 604//584 
f 234//233 231//230 604//584 
f 231//230 171//171 604//584 
f 168//168 165//165 605//584 
f 165//165 240//239 605//584 
f 240//239 237//236 605//584 
f 237//236 234//233 605//584 
f 234//233 168//168 605//584 
f 165//165 162//162 606//584 
f 162//162 246//245 606//584 
f 246//245 243//242 606//584 
f 243//242 240//239 606//584 
f 240//239 165//165 606//584 
f 162//162 159//159 607//584 
f 159//159 249//248 607//584 
f 249//248 246//245 607//584 
f 246//245 162//162 607//584 
f 159//159 156//156 608//584 
f 156//156 258//257 608//584 
f 258//257 255//254 608//584 
f 255//254 252//251 608//584 
f 252//251 249//248 608//584 
f 249//248 159//159 608//584 
f 156//156 153//153 609//584 
f 153//153 264//263 609//584 
f 264//263 261//260 609//584 
f 261//260 258//257 609//584 
f 258//257 156//156 609//584 
f 153//153 150//150 610//584 
f 150//150 273//272 610//584 
f 273//272 270//269 610//584 
f 270//269 267//266 610//584 
f 267//266 264//263 610//584 
f 264//263 153//153 610//584 
f 150//150 147//147 611//584 
f 147//147 282//281 611//584 
f 282//281 279//278 611//584 
f 279//278 276//275 611//584 
f 276//275 273//272 611//584 
f 273//272 150//150 611//584 
f 147//147 144//144 612//584 
f 144//144 288//287 612//584 
f 288//287 285//284 612//584 
f 285//284 282//281 612//584 
f 282//281 147//147 612//584 
f 144//144 141//141 613//584 
f 141//141 294//293 613//584 
f 294//293 291//290 613//584 
f 291//290 288//287 613//584 
f 288//287 144//144 613//584 
f 141//141 138//138 614//584 
f 138//138 300//299 614//584 
f 300//299 297//296 614//584 
f 297//296 294//293 614//584 
f 294//293 141//141 614//584 
f 138//138 135//135 615//584 
f 135//135 306//305 615//584 
f 306//305 303//302 615//584 
f 303//302 300//299 615//584 
f 300//299 138//138 615//584 
f 135//135 132//132 616//584 
f 132//132 309//308 616//584 
f 309//308 306//305 616//584 
f 306//305 135//135 616//584 
f 132//132 129//129 617//584 
f 129//129 312//311 617//584 
f 312//311 309//308 617//584 
f 309//308 132//132 617//584 
f 129//129 126//126 618//584 
f 126//126 312//311 618//584 
f 312//311 129//129 618//584 
f 87//87 84//84 619//584 
f 84//84 312//311 619//584 
f 312//311 87//87 619//584 
f 84//84 81//81 620//584 
f 81//81 315//314 620//584 
f 315//314 312//311 620//584 
f 312//311 84//84 620//584 
f 81//81 78//78 621//584 
f 78//78 315//314 621//584 
f 315//314 81//81 621//584 
f 78//78 75//75 622//584 
f 75//75 318//317 622//584 
f 318//317 315//314 622//584 
f 315//314 78//78 622//584 
f 75//75 72//72 623//584 
f 72//72 321//320 623//584 
f 321//320 318//317 623//584 
f 318//317 75//75 623//584 
f 72//72 69//69 624//584 
f 69//69 321//320 624//584 
f 321//320 72//72 624//584 
f 69//69 66//66 625//584 
f 66//66 324//323 625//584 
f 324//323 321//320 625//584 
f 321//320 69//69 625//584 
f 66//66 63//63 626//584 
f 63//63 327//326 626//584 
f 327//326 324//323 626//584 
f 324//323 66//66 626//584 
f 63//63 60//60 627//584 
f 60//60 330//329 627//584 
f 330//329 327//326 627//584 
f 327//326 63//63 627//584 
f 60//60 57//57 628//584 
f 57//57 333//332 628//584 
f 333//332 330//329 628//584 
f 330//329 60//60 628//584 
f 57//57 54//54 629//584 
f 54//54 336//335 629//584 
f 336//335 333//332 629//584 
f 333//332 57//57 629//584 
f 54//54 51//51 630//584 
f 51//51 342//341 630//584 
f 342//341 339//338 630//584 
f 339//338 336//335 630//584 
f 336//335 54//54 630//584 
f 51//51 48//48 631//584 
f 48//48 351//350 631//584 
f 351//350 348//347 631//584 
f 348//347 345//344 631//584 
f 345//344 342//341 631//584 
f 342//341 51//51 631//584 
f 48//48 45//45 632//584 
f 45//45 357//356 632//584 
f 357//356 354//353 632//584 
f 354//353 351//350 632//584 
f 351//350 48//48 632//584 
f 45//45 42//42 633//584 
f 42//42 363//362 633//584 
f 363//362 360//359 633//584 
f 360//359 357//356 633//584 
f 357//356 45//45 633//584 
f 42//42 39//39 634//584 
f 39//39 369//368 634//584 
f 369//368 366//365 634//584 
f 366//365 363//362 634//584 
f 363//362 42//42 634//584 
f 39//39 36//36 635//584 
f 36//36 375//374 635//584 
f 375//374 372//371 635//584 
f 372//371 369//368 635//584 
f 369//368 39//39 635//584 
f 36//36 33//33 636//584 
f 33//33 381//380 636//584 
f 381//380 378//377 636//584 
f 378//377 375//374 636//584 
f 375//374 36//36 636//584 
f 33//33 30//30 637//584 
f 30//30 384//383 637//584 
f 384//383 381//380 637//584 
f 381//380 33//33 637//584 
f 30//30 27//27 638//584 
f 27//27 390//389 638//584 
f 390//389 387//386 638//584 
f 387//386 384//383 638//584 
f 384//383 30//30 638//584 
f 27//27 24//24 639//584 
f 24//24 390//389 639//584 
f 390//389 27//27 639//584 
f 24//24 21//21 640//584 
f 21//21 393//392 640//584 
f 393//392 390//389 640//584 
f 390//389 24//24 640//584 
f 21//21 18//18 641//584 
f 18//18 393//392 641//584 
f 393//392 21//21 641//584 
f 18//18 15//15 642//584 
f 15//15 393//392 642//584 
f 393//392 18//18 642//584 
f 15//15 12//12 643//584 
f 12//12 396//395 643//584 
f 396//395 393//392 643//584 
f 393//392 15//15 643//584 
f 12//12 9//9 644//584 
f 9//9 396//395 644//584 
f 396//395 12//12 644//584 
f 9//9 6//6 645//584 
f 6//6 396//395 645//584 
f 396//395 9//9 645//584 
f 6//6 2//2 646//584 
f 2//2 396//395 646//584 
f 396//395 6//6 646//584 
f 1//1 478//476 647//584 
f 478//476 582//580 647//584 
f 582//580 1//1 647//584 
f 567//565 564//562 648//584 
f 564//562 399//398 648//584 
f 582//580 579//577 649//584 
f 579//577 396//395 649//584 
f 396//395 2//2 649//584 
f 2//2 1//1 649//584 
f 1//1 582//580 649//584 
f 579//577 576//574 650//584 
f 576//574 396//395 650//584 
f 396//395 579//577 650//584 
f 576//574 573//571 651//584 
f 573//571 396//395 651//584 
f 396//395 576//574 651//584 
f 573//571 570//568 652//584 
f 570//568 396//395 652//584 
f 396//395 573//571 652//584 
f 570//568 567//565 653//584 
f 567//565 648//584 399//398 653//584 
f 399//398 396//395 653//584 
f 396//395 570//568 653//584 
f 564//562 561//559 654//584 
f 561//559 399//398 654//584 
f 399//398 564//562 654//584 
f 561//559 558//556 655//584 
f 558//556 402//401 655//584 
f 402//401 399//398 655//584 
f 399//398 561//559 655//584 
f 558//556 555//553 656//584 
f 555//553 402//401 656//584 
f 402//401 558//556 656//584 
f 555//553 552//550 657//584 
f 552//550 405//404 657//584 
f 405//404 402//401 657//584 
f 402//401 555//553 657//584 
f 552//550 549//547 658//584 
f 549//547 405//404 658//584 
f 405//404 552//550 658//584 
f 549//547 546//544 659//584 
f 546//544 408//407 659//584 
f 408//407 405//404 659//584 
f 405//404 549//547 659//584 
f 546//544 543//541 660//584 
f 543//541 411//410 660//584 
f 411//410 408//407 660//584 
f 408//407 546//544 660//584 
f 543//541 540//538 661//584 
f 540//538 411//410 661//584 
f 411//410 543//541 661//584 
f 540//538 537//535 662//584 
f 537//535 414//413 662//584 
f 414//413 411//410 662//584 
f 411//410 540//538 662//584 
f 537//535 534//532 663//584 
f 534//532 417//416 663//584 
f 417//416 414//413 663//584 
f 414//413 537//535 663//584 
f 534//532 531//529 664//584 
f 531//529 417//416 664//584 
f 417//416 534//532 664//584 
f 531//529 528//526 665//584 
f 528//526 420//419 665//584 
f 420//419 417//416 665//584 
f 417//416 531//529 665//584 
f 528//526 525//523 666//584 
f 525//523 423//422 666//584 
f 423//422 420//419 666//584 
f 420//419 528//526 666//584 
f 525//523 522//520 667//584 
f 522//520 423//422 667//584 
f 423//422 525//523 667//584 
f 522//520 519//517 668//584 
f 519//517 426//425 668//584 
f 426//425 423//422 668//584 
f 423//422 522//520 668//584 
f 519//517 516//514 669//584 
f 516//514 432//431 669//584 
f 432//431 429//428 669//584 
f 429//428 426//425 669//584 
f 426//425 519//517 669//584 
f 516//514 513//511 670//584 
f 513//511 435//434 670//584 
f 435//434 432//431 670//584 
f 432//431 516//514 670//584 
f 513//511 510//508 671//584 
f 510//508 438//437 671//584 
f 438//437 435//434 671//584 
f 435//434 513//511 671//584 
f 510//508 507//505 672//584 
f 507//505 441//440 672//584 
f 441//440 438//437 672//584 
f 438//437 510//508 672//584 
f 507//505 504//502 673//584 
f 504//502 444//443 673//584 
f 444//443 441//440 673//584 
f 441//440 507//505 673//584 
f 504//502 501//499 674//584 
f 501//499 447//446 674//584 
f 447//446 444//443 674//584 
f 444//443 504//502 674//584 
f 501//499 498//496 675//584 
f 498//496 450//449 675//584 
f 450//449 447//446 675//584 
f 447//446 501//499 675//584 
f 498//496 495//493 676//584 
f 495//493 453//452 676//584 
f 453//452 450//449 676//584 
f 450//449 498//496 676//584 
f 495//493 492//490 677//584 
f 492//490 456//455 677//584 
f 456//455 453//452 677//584 
f 453//452 495//493 677//584 
f 492//490 489//487 678//584 
f 489//487 459//458 678//584 
f 459//458 456//455 678//584 
f 456//455 492//490 678//584 
f 489//487 486//484 679//584 
f 486//484 462//461 679//584 
f 462//461 459//458 679//584 
f 459//458 489//487 679//584 
f 486//484 483//481 680//584 
f 483//481 468//467 680//584 
f 468//467 465//464 680//584 
f 465//464 462//461 680//584 
f 462//461 486//484 680//584 
f 483//481 479//477 681//584 
f 479//477 471//470 681//584 
f 471//470 468//467 681//584 
f 468//467 483//481 681//584 
f 479//477 478//476 682//584 
f 478//476 1//1 682//584 
f 1//1 474//473 682//584 
f 474//473 471//470 682//584 
f 471//470 479//477 682//584 
f 122//122 101//101 683//585 
f 101//101 104//104 683//585 
f 104//104 122//122 683//585 
f 125//125 95//95 684//585 
f 95//95 98//98 684//585 
f 98//98 125//125 684//585 
f 104//104 107//107 685//585 
f 107//107 122//122 685//585 
f 122//122 104//104 685//585 
f 107//107 110//110 686//585 
f 110//110 119//119 686//585 
f 119//119 122//122 686//585 
f 122//122 107//107 686//585 
f 125//125 128//128 687//585 
f 128//128 314//313 687//585 
f 314//313 92//92 687//585 
f 92//92 95//95 687//585 
f 95//95 125//125 687//585 
f 98//98 101//101 688//585 
f 101//101 122//122 688//585 
f 122//122 125//125 688//585 
f 125//125 98//98 688//585 
f 128//128 131//131 689//585 
f 131//131 314//313 689//585 
f 314//313 128//128 689//585 
f 398//397 401//400 690//585 
f 401//400 691//585 569//567 690//585 
f 569//567 572//570 690//585 
f 572//570 398//397 690//585 
f 572//570 575//573 692//585 
f 575//573 398//397 692//585 
f 398//397 572//570 692//585 
f 575//573 578//576 693//585 
f 578//576 398//397 693//585 
f 398//397 575//573 693//585 
f 578//576 581//579 694//585 
f 581//579 398//397 694//585 
f 398//397 578//576 694//585 
f 581//579 584//582 695//585 
f 584//582 5//5 695//585 
f 5//5 4//4 695//585 
f 4//4 398//397 695//585 
f 398//397 581//579 695//585 
f 584//582 482//480 696//585 
f 482//480 5//5 696//585 
f 5//5 584//582 696//585 
f 4//4 8//8 697//585 
f 8//8 398//397 697//585 
f 398//397 4//4 697//585 
f 8//8 11//11 698//585 
f 11//11 398//397 698//585 
f 398//397 8//8 698//585 
f 11//11 14//14 699//585 
f 14//14 398//397 699//585 
f 398//397 11//11 699//585 
f 14//14 17//17 700//585 
f 17//17 395//394 700//585 
f 395//394 398//397 700//585 
f 398//397 14//14 700//585 
f 17//17 20//20 701//585 
f 20//20 395//394 701//585 
f 395//394 17//17 701//585 
f 20//20 23//23 702//585 
f 23//23 395//394 702//585 
f 395//394 20//20 702//585 
f 23//23 26//26 703//585 
f 26//26 392//391 703//585 
f 392//391 395//394 703//585 
f 395//394 23//23 703//585 
f 26//26 29//29 704//585 
f 29//29 392//391 704//585 
f 392//391 26//26 704//585 
f 29//29 32//32 705//585 
f 32//32 386//385 705//585 
f 386//385 389//388 705//585 
f 389//388 392//391 705//585 
f 392//391 29//29 705//585 
f 32//32 35//35 706//585 
f 35//35 383//382 706//585 
f 383//382 386//385 706//585 
f 386//385 32//32 706//585 
f 35//35 38//38 707//585 
f 38//38 377//376 707//585 
f 377//376 380//379 707//585 
f 380//379 383//382 707//585 
f 383//382 35//35 707//585 
f 38//38 41//41 708//585 
f 41//41 371//370 708//585 
f 371//370 374//373 708//585 
f 374//373 377//376 708//585 
f 377//376 38//38 708//585 
f 41//41 44//44 709//585 
f 44//44 365//364 709//585 
f 365//364 368//367 709//585 
f 368//367 371//370 709//585 
f 371//370 41//41 709//585 
f 44//44 47//47 710//585 
f 47//47 359//358 710//585 
f 359//358 362//361 710//585 
f 362//361 365//364 710//585 
f 365//364 44//44 710//585 
f 47//47 50//50 711//585 
f 50//50 353//352 711//585 
f 353//352 356//355 711//585 
f 356//355 359//358 711//585 
f 359//358 47//47 711//585 
f 50//50 53//53 712//585 
f 53//53 344//343 712//585 
f 344//343 347//346 712//585 
f 347//346 350//349 712//585 
f 350//349 353//352 712//585 
f 353//352 50//50 712//585 
f 53//53 56//56 713//585 
f 56//56 338//337 713//585 
f 338//337 341//340 713//585 
f 341//340 344//343 713//585 
f 344//343 53//53 713//585 
f 56//56 59//59 714//585 
f 59//59 335//334 714//585 
f 335//334 338//337 714//585 
f 338//337 56//56 714//585 
f 59//59 62//62 715//585 
f 62//62 332//331 715//585 
f 332//331 335//334 715//585 
f 335//334 59//59 715//585 
f 62//62 65//65 716//585 
f 65//65 329//328 716//585 
f 329//328 332//331 716//585 
f 332//331 62//62 716//585 
f 65//65 68//68 717//585 
f 68//68 326//325 717//585 
f 326//325 329//328 717//585 
f 329//328 65//65 717//585 
f 68//68 71//71 718//585 
f 71//71 323//322 718//585 
f 323//322 326//325 718//585 
f 326//325 68//68 718//585 
f 71//71 74//74 719//585 
f 74//74 323//322 719//585 
f 323//322 71//71 719//585 
f 74//74 77//77 720//585 
f 77//77 320//319 720//585 
f 320//319 323//322 720//585 
f 323//322 74//74 720//585 
f 77//77 80//80 721//585 
f 80//80 317//316 721//585 
f 317//316 320//319 721//585 
f 320//319 77//77 721//585 
f 80//80 83//83 722//585 
f 83//83 317//316 722//585 
f 317//316 80//80 722//585 
f 83//83 86//86 723//585 
f 86//86 314//313 723//585 
f 314//313 317//316 723//585 
f 317//316 83//83 723//585 
f 86//86 89//89 724//585 
f 89//89 314//313 724//585 
f 314//313 86//86 724//585 
f 89//89 92//92 725//585 
f 92//92 314//313 725//585 
f 314//313 89//89 725//585 
f 482//480 481//479 726//585 
f 481//479 473//472 726//585 
f 473//472 476//475 726//585 
f 476//475 5//5 726//585 
f 5//5 482//480 726//585 
f 481//479 485//483 727//585 
f 485//483 470//469 727//585 
f 470//469 473//472 727//585 
f 473//472 481//479 727//585 
f 485//483 488//486 728//585 
f 488//486 464//463 728//585 
f 464//463 467//466 728//585 
f 467//466 470//469 728//585 
f 470//469 485//483 728//585 
f 488//486 491//489 729//585 
f 491//489 461//460 729//585 
f 461//460 464//463 729//585 
f 464//463 488//486 729//585 
f 491//489 494//492 730//585 
f 494//492 458//457 730//585 
f 458//457 461//460 730//585 
f 461//460 491//489 730//585 
f 494//492 497//495 731//585 
f 497//495 455//454 731//585 
f 455//454 458//457 731//585 
f 458//457 494//492 731//585 
f 497//495 500//498 732//585 
f 500//498 452//451 732//585 
f 452//451 455//454 732//585 
f 455//454 497//495 732//585 
f 500//498 503//501 733//585 
f 503//501 449//448 733//585 
f 449//448 452//451 733//585 
f 452//451 500//498 733//585 
f 503//501 506//504 734//585 
f 506//504 446//445 734//585 
f 446//445 449//448 734//585 
f 449//448 503//501 734//585 
f 506//504 509//507 735//585 
f 509//507 443//442 735//585 
f 443//442 446//445 735//585 
f 446//445 506//504 735//585 
f 509//507 512//510 736//585 
f 512//510 440//439 736//585 
f 440//439 443//442 736//585 
f 443//442 509//507 736//585 
f 512//510 515//513 737//585 
f 515//513 437//436 737//585 
f 437//436 440//439 737//585 
f 440//439 512//510 737//585 
f 515//513 518//516 738//585 
f 518//516 434//433 738//585 
f 434//433 437//436 738//585 
f 437//436 515//513 738//585 
f 518//516 521//519 739//585 
f 521//519 428//427 739//585 
f 428//427 431//430 739//585 
f 431//430 434//433 739//585 
f 434//433 518//516 739//585 
f 521//519 524//522 740//585 
f 524//522 425//424 740//585 
f 425//424 428//427 740//585 
f 428//427 521//519 740//585 
f 524//522 527//525 741//585 
f 527//525 425//424 741//585 
f 425//424 524//522 741//585 
f 527//525 530//528 742//585 
f 530//528 422//421 742//585 
f 422//421 425//424 742//585 
f 425//424 527//525 742//585 
f 530//528 533//531 743//585 
f 533//531 419//418 743//585 
f 419//418 422//421 743//585 
f 422//421 530//528 743//585 
f 533//531 536//534 744//585 
f 536//534 419//418 744//585 
f 419//418 533//531 744//585 
f 536//534 539//537 745//585 
f 539//537 416//415 745//585 
f 416//415 419//418 745//585 
f 419//418 536//534 745//585 
f 539//537 542//540 746//585 
f 542//540 413//412 746//585 
f 413//412 416//415 746//585 
f 416//415 539//537 746//585 
f 542//540 545//543 747//585 
f 545//543 413//412 747//585 
f 413//412 542//540 747//585 
f 545//543 548//546 748//585 
f 548//546 410//409 748//585 
f 410//409 413//412 748//585 
f 413//412 545//543 748//585 
f 548//546 551//549 749//585 
f 551//549 407//406 749//585 
f 407//406 410//409 749//585 
f 410//409 548//546 749//585 
f 551//549 554//552 750//585 
f 554//552 407//406 750//585 
f 407//406 551//549 750//585 
f 554//552 557//555 751//585 
f 557//555 404//403 751//585 
f 404//403 407//406 751//585 
f 407//406 554//552 751//585 
f 557//555 560//558 752//585 
f 560//558 404//403 752//585 
f 404//403 557//555 752//585 
f 560//558 563//561 753//585 
f 563//561 401//400 753//585 
f 401//400 404//403 753//585 
f 404//403 560//558 753//585 
f 563//561 566//564 754//585 
f 566//564 401//400 754//585 
f 401//400 563//561 754//585 
f 566//564 569//567 691//585 
f 401//400 566//564 691//585 
f 131//131 134//134 755//585 
f 134//134 311//310 755//585 
f 311//310 314//313 755//585 
f 314//313 131//131 755//585 
f 134//134 137//137 756//585 
f 137//137 308//307 756//585 
f 308//307 311//310 756//585 
f 311//310 134//134 756//585 
f 137//137 140//140 757//585 
f 140//140 302//301 757//585 
f 302//301 305//304 757//585 
f 305//304 308//307 757//585 
f 308//307 137//137 757//585 
f 140//140 143//143 758//585 
f 143//143 296//295 758//585 
f 296//295 299//298 758//585 
f 299//298 302//301 758//585 
f 302//301 140//140 758//585 
f 143//143 146//146 759//585 
f 146//146 290//289 759//585 
f 290//289 293//292 759//585 
f 293//292 296//295 759//585 
f 296//295 143//143 759//585 
f 146//146 149//149 760//585 
f 149//149 284//283 760//585 
f 284//283 287//286 760//585 
f 287//286 290//289 760//585 
f 290//289 146//146 760//585 
f 149//149 152//152 761//585 
f 152//152 275//274 761//585 
f 275//274 278//277 761//585 
f 278//277 281//280 761//585 
f 281//280 284//283 761//585 
f 284//283 149//149 761//585 
f 152//152 155//155 762//585 
f 155//155 266//265 762//585 
f 266//265 269//268 762//585 
f 269//268 272//271 762//585 
f 272//271 275//274 762//585 
f 275//274 152//152 762//585 
f 155//155 158//158 763//585 
f 158//158 260//259 763//585 
f 260//259 263//262 763//585 
f 263//262 266//265 763//585 
f 266//265 155//155 763//585 
f 158//158 161//161 764//585 
f 161//161 251//250 764//585 
f 251//250 254//253 764//585 
f 254//253 257//256 764//585 
f 257//256 260//259 764//585 
f 260//259 158//158 764//585 
f 161//161 164//164 765//585 
f 164//164 248//247 765//585 
f 248//247 251//250 765//585 
f 251//250 161//161 765//585 
f 164//164 167//167 766//585 
f 167//167 242//241 766//585 
f 242//241 245//244 766//585 
f 245//244 248//247 766//585 
f 248//247 164//164 766//585 
f 167//167 170//170 767//585 
f 170//170 236//235 767//585 
f 236//235 239//238 767//585 
f 239//238 242//241 767//585 
f 242//241 167//167 767//585 
f 170//170 173//173 768//585 
f 173//173 233//232 768//585 
f 233//232 236//235 768//585 
f 236//235 170//170 768//585 
f 173//173 176//176 769//585 
f 176//176 227//226 769//585 
f 227//226 230//229 769//585 
f 230//229 233//232 769//585 
f 233//232 173//173 769//585 
f 176//176 179//179 770//585 
f 179//179 224//223 770//585 
f 224//223 227//226 770//585 
f 227//226 176//176 770//585 
f 179//179 182//182 771//585 
f 182//182 218//217 771//585 
f 218//217 221//220 771//585 
f 221//220 224//223 771//585 
f 224//223 179//179 771//585 
f 182//182 185//185 772//585 
f 185//185 215//214 772//585 
f 215//214 218//217 772//585 
f 218//217 182//182 772//585 
f 185//185 188//188 773//585 
f 188//188 209//208 773//585 
f 209//208 212//211 773//585 
f 212//211 215//214 773//585 
f 215//214 185//185 773//585 
f 188//188 191//191 774//585 
f 191//191 206//205 774//585 
f 206//205 209//208 774//585 
f 209//208 188//188 774//585 
f 191//191 194//194 775//585 
f 194//194 203//202 775//585 
f 203//202 206//205 775//585 
f 206//205 191//191 775//585 
f 194//194 197//197 776//585 
f 197//197 203//202 776//585 
f 203//202 194//194 776//585 
f 197//197 200//200 777//585 
f 200//200 203//202 777//585 
f 203//202 197//197 777//585 
# 2 polygons - 1550 triangles

