# 3ds Max Wavefront OBJ Exporter v0.97b - (c)2007 guruware
# File Created: 07.12.2021 20:36:10

#
# object Number_6
#

v  819.6322 0.0000 118.4019
v  820.7874 0.0000 117.3286
v  820.2098 5.0000 117.8652
v  820.7874 10.0000 117.3286
v  819.6322 10.0000 118.4019
v  822.0412 0.0000 116.3984
v  821.4143 5.0000 116.8635
v  822.0412 10.0000 116.3984
v  823.3936 0.0000 115.6113
v  822.7174 5.0000 116.0048
v  823.3936 10.0000 115.6113
v  824.8445 0.0000 114.9673
v  824.1191 5.0000 115.2893
v  824.8445 10.0000 114.9673
v  826.3940 0.0000 114.4664
v  825.6193 5.0000 114.7168
v  826.3940 10.0000 114.4664
v  828.0421 0.0000 114.1086
v  827.2181 5.0000 114.2875
v  828.0421 10.0000 114.1086
v  829.7888 0.0000 113.8939
v  828.9155 5.0000 114.0013
v  829.7888 10.0000 113.8939
v  831.6340 0.0000 113.8224
v  830.7114 5.0000 113.8582
v  831.6340 10.0000 113.8224
v  834.4380 0.0000 113.9777
v  833.0361 5.0000 113.9000
v  834.4380 10.0000 113.9777
v  836.9122 0.0000 114.4435
v  835.6751 5.0000 114.2106
v  836.9122 10.0000 114.4435
v  839.0565 0.0000 115.2199
v  837.9843 5.0000 114.8317
v  839.0565 10.0000 115.2199
v  840.8708 0.0000 116.3069
v  839.9636 5.0000 115.7634
v  840.8708 10.0000 116.3069
v  842.3553 0.0000 117.7045
v  841.6131 5.0000 117.0057
v  842.3553 10.0000 117.7045
v  843.5099 0.0000 119.4126
v  842.9326 5.0000 118.5585
v  843.5099 10.0000 119.4126
v  844.3346 0.0000 121.4313
v  843.9222 5.0000 120.4220
v  844.3346 10.0000 121.4313
v  844.8295 0.0000 123.7606
v  844.5820 5.0000 122.5959
v  844.8295 10.0000 123.7606
v  844.9944 0.0000 126.4004
v  844.9119 5.0000 125.0805
v  844.9944 10.0000 126.4004
v  844.8560 0.0000 128.9642
v  844.9252 5.0000 127.6823
v  844.8560 10.0000 128.9642
v  844.4407 0.0000 131.2263
v  844.6483 5.0000 130.0953
v  844.4407 10.0000 131.2263
v  843.7486 0.0000 133.1869
v  844.0947 5.0000 132.2066
v  843.7486 10.0000 133.1869
v  842.7797 0.0000 134.8458
v  843.2642 5.0000 134.0164
v  842.7797 10.0000 134.8458
v  841.5339 0.0000 136.2031
v  842.1568 5.0000 135.5245
v  841.5339 10.0000 136.2031
v  840.0113 0.0000 137.2588
v  840.7726 5.0000 136.7310
v  840.0113 10.0000 137.2588
v  838.2118 0.0000 138.0129
v  839.1115 5.0000 137.6358
v  838.2118 10.0000 138.0129
v  836.1355 0.0000 138.4653
v  837.1736 5.0000 138.2391
v  836.1355 10.0000 138.4653
v  833.7823 0.0000 138.6161
v  834.9589 5.0000 138.5407
v  833.7823 10.0000 138.6161
v  832.4904 0.0000 138.6002
v  833.1364 5.0000 138.6082
v  832.4904 10.0000 138.6002
v  831.3505 0.0000 138.5525
v  831.9205 5.0000 138.5764
v  831.3505 10.0000 138.5525
v  830.3625 0.0000 138.4730
v  830.8565 5.0000 138.5128
v  830.3625 10.0000 138.4730
v  829.5266 0.0000 138.3617
v  829.9446 5.0000 138.4174
v  829.5266 10.0000 138.3617
v  828.8427 0.0000 138.2186
v  829.1846 5.0000 138.2902
v  828.8427 10.0000 138.2186
v  828.3107 0.0000 138.0437
v  828.5767 5.0000 138.1311
v  828.3107 10.0000 138.0437
v  827.9307 0.0000 137.8370
v  828.1207 5.0000 137.9403
v  827.9307 10.0000 137.8370
v  827.7027 0.0000 137.5985
v  827.8167 5.0000 137.7177
v  827.7027 10.0000 137.5985
v  827.6267 0.0000 137.3281
v  827.6647 5.0000 137.4633
v  827.6267 10.0000 137.3281
v  828.2983 0.0000 136.9710
v  827.9625 5.0000 137.1496
v  828.2983 10.0000 136.9710
v  828.8908 0.0000 136.5423
v  828.5945 5.0000 136.7566
v  828.8908 10.0000 136.5423
v  829.4044 0.0000 136.0421
v  829.1476 5.0000 136.2922
v  829.4044 10.0000 136.0421
v  829.8389 0.0000 135.4705
v  829.6216 5.0000 135.7563
v  829.8389 10.0000 135.4705
v  830.1945 0.0000 134.8273
v  830.0167 5.0000 135.1489
v  830.1945 10.0000 134.8273
v  830.4710 0.0000 134.1127
v  830.3327 5.0000 134.4700
v  830.4710 10.0000 134.1127
v  830.6685 0.0000 133.3265
v  830.5698 5.0000 133.7196
v  830.6685 10.0000 133.3265
v  830.7870 0.0000 132.4689
v  830.7278 5.0000 132.8977
v  830.7870 10.0000 132.4689
v  830.8265 0.0000 131.5397
v  830.8068 5.0000 132.0043
v  830.8265 10.0000 131.5397
v  830.7368 0.0000 129.8825
v  830.7817 5.0000 130.7111
v  830.7368 10.0000 129.8825
v  830.4677 0.0000 128.4202
v  830.6022 5.0000 129.1513
v  830.4677 10.0000 128.4202
v  830.0190 0.0000 127.1528
v  830.2433 5.0000 127.7865
v  830.0190 10.0000 127.1528
v  829.3910 0.0000 126.0805
v  829.7050 5.0000 126.6166
v  829.3910 10.0000 126.0805
v  828.5834 0.0000 125.2031
v  828.9872 5.0000 125.6418
v  828.5834 10.0000 125.2031
v  827.5965 0.0000 124.5207
v  828.0900 5.0000 124.8619
v  827.5965 10.0000 124.5207
v  826.4301 0.0000 124.0332
v  827.0133 5.0000 124.2769
v  826.4301 10.0000 124.0332
v  825.0842 0.0000 123.7408
v  825.7572 5.0000 123.8870
v  825.0842 10.0000 123.7408
v  823.5590 0.0000 123.6433
v  824.3216 5.0000 123.6920
v  823.5590 10.0000 123.6433
v  821.8066 0.0000 123.7554
v  822.6828 5.0000 123.6993
v  821.8066 10.0000 123.7554
v  820.2605 0.0000 124.0917
v  821.0336 5.0000 123.9236
v  820.2605 10.0000 124.0917
v  818.9205 0.0000 124.6523
v  819.5905 5.0000 124.3720
v  818.9205 10.0000 124.6523
v  817.7866 0.0000 125.4371
v  818.3536 5.0000 125.0447
v  817.7866 10.0000 125.4371
v  816.8589 0.0000 126.4462
v  817.3228 5.0000 125.9416
v  816.8589 10.0000 126.4462
v  816.1374 0.0000 127.6794
v  816.4982 5.0000 127.0628
v  816.1374 10.0000 127.6794
v  815.6220 0.0000 129.1369
v  815.8797 5.0000 128.4082
v  815.6220 10.0000 129.1369
v  815.3127 0.0000 130.8186
v  815.4674 5.0000 129.9778
v  815.3127 10.0000 130.8186
v  815.2097 0.0000 132.7246
v  815.2612 5.0000 131.7716
v  815.2097 10.0000 132.7246
v  815.2687 0.0000 133.6767
v  815.2392 5.0000 133.2006
v  815.2687 10.0000 133.6767
v  815.4456 0.0000 134.6087
v  815.3571 5.0000 134.1427
v  815.4456 10.0000 134.6087
v  815.7405 0.0000 135.5207
v  815.5930 5.0000 135.0647
v  815.7405 10.0000 135.5207
v  816.1533 0.0000 136.4127
v  815.9469 5.0000 135.9667
v  816.1533 10.0000 136.4127
v  816.6841 0.0000 137.2846
v  816.4187 5.0000 136.8486
v  816.6841 10.0000 137.2846
v  817.3329 0.0000 138.1365
v  817.0085 5.0000 137.7105
v  817.3329 10.0000 138.1365
v  818.0995 0.0000 138.9684
v  817.7162 5.0000 138.5524
v  818.0995 10.0000 138.9684
v  818.9842 0.0000 139.7802
v  818.5419 5.0000 139.3743
v  818.9842 10.0000 139.7802
v  819.9868 0.0000 140.5720
v  819.4855 5.0000 140.1761
v  819.9868 10.0000 140.5720
v  821.0917 0.0000 141.3104
v  820.5392 5.0000 140.9412
v  821.0917 10.0000 141.3104
v  822.2831 0.0000 141.9619
v  821.6874 5.0000 141.6361
v  822.2831 10.0000 141.9619
v  823.5612 0.0000 142.5265
v  822.9222 5.0000 142.2442
v  823.5612 10.0000 142.5265
v  824.9258 0.0000 143.0043
v  824.2435 5.0000 142.7654
v  824.9258 10.0000 143.0043
v  826.3771 0.0000 143.3951
v  825.6514 5.0000 143.1997
v  826.3771 10.0000 143.3951
v  827.9149 0.0000 143.6992
v  827.1459 5.0000 143.5472
v  827.9149 10.0000 143.6992
v  829.5392 0.0000 143.9164
v  828.7271 5.0000 143.8078
v  829.5392 10.0000 143.9164
v  831.2502 0.0000 144.0466
v  830.3948 5.0000 143.9815
v  831.2502 10.0000 144.0466
v  833.0478 0.0000 144.0901
v  832.1490 5.0000 144.0684
v  833.0478 10.0000 144.0901
v  835.4580 0.0000 144.0273
v  834.2529 5.0000 144.0587
v  835.4580 10.0000 144.0273
v  837.7166 0.0000 143.8390
v  836.5873 5.0000 143.9332
v  837.7166 10.0000 143.8390
v  839.8237 0.0000 143.5252
v  838.7702 5.0000 143.6821
v  839.8237 10.0000 143.5252
v  841.7792 0.0000 143.0858
v  840.8015 5.0000 143.3055
v  841.7792 10.0000 143.0858
v  843.5832 0.0000 142.5209
v  842.6812 5.0000 142.8034
v  843.5832 10.0000 142.5209
v  845.2356 0.0000 141.8305
v  844.4094 5.0000 142.1757
v  845.2356 10.0000 141.8305
v  846.7365 0.0000 141.0146
v  845.9860 5.0000 141.4225
v  846.7365 10.0000 141.0146
v  848.0858 0.0000 140.0731
v  847.4111 5.0000 140.5438
v  848.0858 10.0000 140.0731
v  849.2835 0.0000 139.0060
v  848.6846 5.0000 139.5396
v  849.2835 10.0000 139.0060
v  850.3431 0.0000 137.8454
v  849.8133 5.0000 138.4257
v  850.3431 10.0000 137.8454
v  851.2781 0.0000 136.6231
v  850.8106 5.0000 137.2343
v  851.2781 10.0000 136.6231
v  852.0884 0.0000 135.3391
v  851.6832 5.0000 135.9811
v  852.0884 10.0000 135.3391
v  852.7740 0.0000 133.9935
v  852.4312 5.0000 134.6663
v  852.7740 10.0000 133.9935
v  853.3350 0.0000 132.5861
v  853.0545 5.0000 133.2898
v  853.3350 10.0000 132.5861
v  853.7713 0.0000 131.1171
v  853.5532 5.0000 131.8516
v  853.7713 10.0000 131.1171
v  854.0829 0.0000 129.5864
v  853.9271 5.0000 130.3518
v  854.0829 10.0000 129.5864
v  854.2700 0.0000 127.9941
v  854.1765 5.0000 128.7902
v  854.2700 10.0000 127.9941
v  854.3323 0.0000 126.3400
v  854.3011 5.0000 127.1670
v  854.3323 10.0000 126.3400
v  854.0757 0.0000 122.5640
v  854.2040 5.0000 124.4520
v  854.0757 10.0000 122.5640
v  853.3060 0.0000 119.2322
v  853.6909 5.0000 120.8981
v  853.3060 10.0000 119.2322
v  852.0233 0.0000 116.3447
v  852.6647 5.0000 117.7885
v  852.0233 10.0000 116.3447
v  850.2274 0.0000 113.9014
v  851.1253 5.0000 115.1230
v  850.2274 10.0000 113.9014
v  847.9183 0.0000 111.9023
v  849.0728 5.0000 112.9019
v  847.9183 10.0000 111.9023
v  845.0961 0.0000 110.3475
v  846.5072 5.0000 111.1249
v  845.0961 10.0000 110.3475
v  841.7609 0.0000 109.2369
v  843.4285 5.0000 109.7922
v  841.7609 10.0000 109.2369
v  837.9125 0.0000 108.5706
v  839.8367 5.0000 108.9037
v  837.9125 10.0000 108.5706
v  833.5509 0.0000 108.3484
v  835.7317 5.0000 108.4595
v  833.5509 10.0000 108.3484
v  831.4949 0.0000 108.3945
v  832.5229 5.0000 108.3715
v  831.4949 10.0000 108.3945
v  829.5686 0.0000 108.5328
v  830.5317 5.0000 108.4637
v  829.5686 10.0000 108.5328
v  827.7720 0.0000 108.7632
v  828.6703 5.0000 108.6480
v  827.7720 10.0000 108.7632
v  826.1052 0.0000 109.0858
v  826.9387 5.0000 108.9245
v  826.1052 10.0000 109.0858
v  824.5682 0.0000 109.5006
v  825.3367 5.0000 109.2932
v  824.5682 10.0000 109.5006
v  823.1609 0.0000 110.0076
v  823.8646 5.0000 109.7541
v  823.1609 10.0000 110.0076
v  821.8834 0.0000 110.6068
v  822.5222 5.0000 110.3072
v  821.8834 10.0000 110.6068
v  820.7357 0.0000 111.2981
v  821.3095 5.0000 110.9524
v  820.7357 10.0000 111.2981
v  819.7177 0.0000 112.0816
v  820.2266 5.0000 111.6898
v  819.7177 10.0000 112.0816
v  819.6799 0.0000 110.8625
v  819.6988 5.0000 111.4721
v  819.6799 10.0000 110.8625
v  819.5668 0.0000 109.6271
v  819.6234 5.0000 110.2448
v  819.5668 10.0000 109.6271
v  819.3782 0.0000 108.3753
v  819.4725 5.0000 109.0012
v  819.3782 10.0000 108.3753
v  819.1141 0.0000 107.1070
v  819.2462 5.0000 107.7411
v  819.1141 10.0000 107.1070
v  818.7747 0.0000 105.8224
v  818.9444 5.0000 106.4647
v  818.7747 10.0000 105.8224
v  818.3598 0.0000 104.5214
v  818.5673 5.0000 105.1719
v  818.3598 10.0000 104.5214
v  817.8694 0.0000 103.2039
v  818.1146 5.0000 103.8627
v  817.8694 10.0000 103.2039
v  817.3036 0.0000 101.8701
v  817.5865 5.0000 102.5370
v  817.3036 10.0000 101.8701
v  816.6625 0.0000 100.5199
v  816.9830 5.0000 101.1950
v  816.6625 10.0000 100.5199
v  815.9695 0.0000 99.2123
v  816.3160 5.0000 99.8661
v  815.9695 10.0000 99.2123
v  815.2484 0.0000 98.0063
v  815.6089 5.0000 98.6093
v  815.2484 10.0000 98.0063
v  814.4991 0.0000 96.9019
v  814.8738 5.0000 97.4541
v  814.4991 10.0000 96.9019
v  813.7219 0.0000 95.8991
v  814.1105 5.0000 96.4005
v  813.7219 10.0000 95.8991
v  812.9164 0.0000 94.9980
v  813.3192 5.0000 95.4486
v  812.9164 10.0000 94.9980
v  812.0829 0.0000 94.1985
v  812.4997 5.0000 94.5982
v  812.0829 10.0000 94.1985
v  811.2213 0.0000 93.5006
v  811.6521 5.0000 93.8495
v  811.2213 10.0000 93.5006
v  810.3316 0.0000 92.9043
v  810.7764 5.0000 93.2024
v  810.3316 10.0000 92.9043
v  809.4138 0.0000 92.4096
v  809.8727 5.0000 92.6569
v  809.4138 10.0000 92.4096
v  801.5248 0.0000 97.7301
v  805.4693 5.0000 95.0698
v  801.5248 10.0000 97.7301
v  802.2582 0.0000 97.8487
v  801.8915 5.0000 97.7894
v  802.2582 10.0000 97.8487
v  803.0181 0.0000 98.0972
v  802.6381 5.0000 97.9730
v  803.0181 10.0000 98.0972
v  803.8047 0.0000 98.4757
v  803.4114 5.0000 98.2865
v  803.8047 10.0000 98.4757
v  804.6179 0.0000 98.9840
v  804.2112 5.0000 98.7299
v  804.6179 10.0000 98.9840
v  805.4576 0.0000 99.6223
v  805.0377 5.0000 99.3032
v  805.4576 10.0000 99.6223
v  806.3240 0.0000 100.3905
v  805.8908 5.0000 100.0064
v  806.3240 10.0000 100.3905
v  807.2170 0.0000 101.2886
v  806.7706 5.0000 100.8395
v  807.2170 10.0000 101.2886
v  808.1367 0.0000 102.3166
v  807.6769 5.0000 101.8026
v  808.1367 10.0000 102.3166
v  809.0829 0.0000 103.4745
v  808.6098 5.0000 102.8955
v  809.0829 10.0000 103.4745
v  809.9937 0.0000 104.7608
v  809.5383 5.0000 104.1176
v  809.9937 10.0000 104.7608
v  810.8066 0.0000 106.1739
v  810.4001 5.0000 105.4673
v  810.8066 10.0000 106.1739
v  811.5219 0.0000 107.7139
v  811.1642 5.0000 106.9439
v  811.5219 10.0000 107.7139
v  812.1393 0.0000 109.3808
v  811.8306 5.0000 108.5474
v  812.1393 10.0000 109.3808
v  812.6591 0.0000 111.1746
v  812.3992 5.0000 110.2777
v  812.6591 10.0000 111.1746
v  813.0811 0.0000 113.0952
v  812.8701 5.0000 112.1349
v  813.0811 10.0000 113.0952
v  813.4053 0.0000 115.1427
v  813.2432 5.0000 114.1190
v  813.4053 10.0000 115.1427
v  813.6319 0.0000 117.3171
v  813.5186 5.0000 116.2299
v  813.6319 10.0000 117.3171
v  813.7607 0.0000 119.6183
v  813.6963 5.0000 118.4677
v  813.7607 10.0000 119.6183
v  818.5756 0.0000 119.6183
v  816.1682 5.0000 119.6183
v  818.5756 10.0000 119.6183
v  819.1039 5.0000 119.0101
v  823.8718 0.0000 127.5494
v  824.4830 0.0000 127.6757
v  824.1774 5.0000 127.6125
v  824.4830 10.0000 127.6757
v  823.8718 10.0000 127.5494
v  825.0127 0.0000 127.8863
v  824.7479 5.0000 127.7810
v  825.0127 10.0000 127.8863
v  825.4609 0.0000 128.1810
v  825.2368 5.0000 128.0337
v  825.4609 10.0000 128.1810
v  825.8276 0.0000 128.5601
v  825.6443 5.0000 128.3706
v  825.8276 10.0000 128.5601
v  826.1129 0.0000 129.0233
v  825.9702 5.0000 128.7917
v  826.1129 10.0000 129.0233
v  826.3166 0.0000 129.5708
v  826.2147 5.0000 129.2970
v  826.3166 10.0000 129.5708
v  826.4388 0.0000 130.2025
v  826.3777 5.0000 129.8866
v  826.4388 10.0000 130.2025
v  826.4796 0.0000 130.9184
v  826.4592 5.0000 130.5604
v  826.4796 10.0000 130.9184
v  826.4388 0.0000 131.6216
v  826.4592 5.0000 131.2700
v  826.4388 10.0000 131.6216
v  826.3166 0.0000 132.2422
v  826.3777 5.0000 131.9319
v  826.3166 10.0000 132.2422
v  826.1129 0.0000 132.7799
v  826.2147 5.0000 132.5110
v  826.1129 10.0000 132.7799
v  825.8276 0.0000 133.2350
v  825.9702 5.0000 133.0075
v  825.8276 10.0000 133.2350
v  825.4609 0.0000 133.6073
v  825.6443 5.0000 133.4211
v  825.4609 10.0000 133.6073
v  825.0127 0.0000 133.8969
v  825.2368 5.0000 133.7521
v  825.0127 10.0000 133.8969
v  824.4830 0.0000 134.1037
v  824.7479 5.0000 134.0003
v  824.4830 10.0000 134.1037
v  823.8718 0.0000 134.2278
v  824.1774 5.0000 134.1658
v  823.8718 10.0000 134.2278
v  823.1791 0.0000 134.2692
v  823.5255 5.0000 134.2485
v  823.1791 10.0000 134.2692
v  822.4865 0.0000 134.2278
v  822.8328 5.0000 134.2485
v  822.4865 10.0000 134.2278
v  821.8752 0.0000 134.1037
v  822.1808 5.0000 134.1658
v  821.8752 10.0000 134.1037
v  821.3455 0.0000 133.8969
v  821.6104 5.0000 134.0003
v  821.3455 10.0000 133.8969
v  820.8973 0.0000 133.6073
v  821.1214 5.0000 133.7521
v  820.8973 10.0000 133.6073
v  820.5306 0.0000 133.2350
v  820.7139 5.0000 133.4211
v  820.5306 10.0000 133.2350
v  820.2454 0.0000 132.7799
v  820.3880 5.0000 133.0075
v  820.2454 10.0000 132.7799
v  820.0416 0.0000 132.2422
v  820.1435 5.0000 132.5110
v  820.0416 10.0000 132.2422
v  819.9194 0.0000 131.6216
v  819.9805 5.0000 131.9319
v  819.9194 10.0000 131.6216
v  819.8787 0.0000 130.9184
v  819.8990 5.0000 131.2700
v  819.8787 10.0000 130.9184
v  819.9194 0.0000 130.2025
v  819.8990 5.0000 130.5604
v  819.9194 10.0000 130.2025
v  820.0416 0.0000 129.5708
v  819.9805 5.0000 129.8866
v  820.0416 10.0000 129.5708
v  820.2454 0.0000 129.0233
v  820.1435 5.0000 129.2970
v  820.2454 10.0000 129.0233
v  820.5306 0.0000 128.5601
v  820.3880 5.0000 128.7917
v  820.5306 10.0000 128.5601
v  820.8973 0.0000 128.1810
v  820.7139 5.0000 128.3706
v  820.8973 10.0000 128.1810
v  821.3455 0.0000 127.8863
v  821.1214 5.0000 128.0337
v  821.3455 10.0000 127.8863
v  821.8752 0.0000 127.6757
v  821.6104 5.0000 127.7810
v  821.8752 10.0000 127.6757
v  822.4865 0.0000 127.5494
v  822.1808 5.0000 127.6125
v  822.4865 10.0000 127.5494
v  823.1791 0.0000 127.5072
v  822.8328 5.0000 127.5283
v  823.1791 10.0000 127.5072
v  823.5255 5.0000 127.5283
v  825.3619 0.0000 138.1315
v  825.7075 0.0000 135.1096
v  821.4720 10.0000 113.8473
v  826.0334 0.0000 134.9441
v  826.3051 0.0000 134.7235
v  826.5224 0.0000 134.4477
v  826.6854 0.0000 134.1167
v  826.7940 0.0000 133.7307
v  829.1604 0.0000 134.2641
v  828.6204 0.0000 130.6358
v  828.4900 0.0000 129.5190
v  828.2290 0.0000 128.5418
v  827.8376 0.0000 127.7042
v  827.3157 0.0000 127.0062
v  826.6168 0.0000 125.9649
v  825.2525 0.0000 125.8340
v  824.2495 0.0000 125.6523
v  823.5366 0.0000 126.2333
v  822.7578 0.0000 125.6138
v  821.6072 0.0000 125.7681
v  820.6004 0.0000 126.0765
v  819.7375 0.0000 126.5392
v  819.0184 0.0000 127.1561
v  818.4431 0.0000 127.9272
v  818.0116 0.0000 128.8526
v  818.5276 0.0000 129.6367
v  817.6832 0.0000 130.2691
v  817.5801 0.0000 131.5208
v  817.6099 0.0000 132.5663
v  817.3483 0.0000 133.7656
v  818.1674 0.0000 134.4871
v  818.3196 0.0000 135.7352
v  819.3319 0.0000 136.8778
v  820.5479 0.0000 137.0882
v  821.3600 0.0000 137.5535
v  822.2601 0.0000 137.9423
v  823.2238 0.0000 138.2463
v  826.8531 0.0000 139.4799
v  826.8860 0.0000 140.5700
v  827.8613 0.0000 140.8392
v  828.7614 0.0000 140.0932
v  829.3358 0.0000 141.1126
v  830.6256 0.0000 141.2471
v  832.0347 0.0000 141.3224
v  833.1069 0.0000 140.4355
v  835.2281 0.0000 141.8076
v  837.9719 0.0000 140.9606
v  840.6818 0.0000 140.8807
v  843.4201 0.0000 139.7656
v  845.6838 0.0000 138.2285
v  847.4866 0.0000 136.3015
v  848.8660 0.0000 134.0738
v  850.5433 0.0000 131.2456
v  850.5071 0.0000 127.8570
v  849.5580 0.0000 124.7662
v  849.1365 0.0000 121.7470
v  848.2935 0.0000 119.1052
v  847.2068 0.0000 115.8531
v  844.0601 0.0000 114.0653
v  841.6960 0.0000 112.7778
v  838.9105 0.0000 111.8677
v  835.7034 0.0000 111.3350
v  832.7795 0.0000 111.1358
v  830.6216 0.0000 111.1609
v  828.7929 0.0000 111.3246
v  826.5764 0.0000 111.1849
v  824.7419 0.0000 112.2355
v  822.8036 0.0000 112.4982
v  821.4720 0.0000 113.8473
v  817.8065 0.0000 114.8093
v  817.9417 0.0000 116.9577
v  816.9409 0.0000 111.3682
v  816.5715 0.0000 109.1330
v  815.9819 0.0000 106.9091
v  814.6394 0.0000 105.4033
v  814.5272 0.0000 103.3057
v  813.3914 0.0000 101.1947
v  811.7418 0.0000 100.1748
v  810.8937 0.0000 99.1015
v  810.4525 0.0000 97.3549
v  809.0835 0.0000 96.1232
v  807.4552 0.0000 95.9800
v  805.9454 0.0000 96.6231
v  805.4122 0.0000 96.3275
v  804.8967 0.0000 96.1185
v  804.3989 0.0000 95.9961
v  816.4001 0.0000 118.7389
v  815.5565 0.0000 116.9539
v  804.3989 10.0000 95.9961
v  816.8642 10.0000 117.0476
v  822.8036 10.0000 112.4982
v  824.7419 10.0000 112.2355
v  826.5764 10.0000 111.1849
v  828.7929 10.0000 111.3246
v  830.6216 10.0000 111.1609
v  832.7795 10.0000 111.1358
v  835.7034 10.0000 111.3350
v  838.9105 10.0000 111.8677
v  841.6960 10.0000 112.7778
v  844.0601 10.0000 114.0653
v  847.2068 10.0000 115.8531
v  848.2935 10.0000 119.1052
v  849.1365 10.0000 121.7470
v  849.5580 10.0000 124.7662
v  850.5071 10.0000 127.8570
v  850.5433 10.0000 131.2456
v  848.8660 10.0000 134.0738
v  847.4866 10.0000 136.3015
v  845.6838 10.0000 138.2285
v  843.4201 10.0000 139.7656
v  840.6818 10.0000 140.8807
v  837.9719 10.0000 140.9606
v  835.2281 10.0000 141.8076
v  833.1069 10.0000 140.4355
v  832.0347 10.0000 141.3224
v  830.6256 10.0000 141.2471
v  829.3358 10.0000 141.1126
v  828.7614 10.0000 140.0932
v  827.8613 10.0000 140.8392
v  826.8860 10.0000 140.5700
v  826.8531 10.0000 139.4799
v  825.3619 10.0000 138.1315
v  823.2238 10.0000 138.2463
v  822.2601 10.0000 137.9423
v  821.3600 10.0000 137.5535
v  820.5479 10.0000 137.0882
v  819.3319 10.0000 136.8778
v  818.3196 10.0000 135.7352
v  818.1674 10.0000 134.4871
v  817.3483 10.0000 133.7656
v  817.6099 10.0000 132.5663
v  817.5801 10.0000 131.5208
v  817.6832 10.0000 130.2691
v  818.5276 10.0000 129.6367
v  818.0116 10.0000 128.8526
v  818.4431 10.0000 127.9272
v  819.0184 10.0000 127.1561
v  819.7375 10.0000 126.5392
v  820.6004 10.0000 126.0765
v  821.6072 10.0000 125.7681
v  822.7578 10.0000 125.6138
v  823.5366 10.0000 126.2333
v  824.2495 10.0000 125.6523
v  825.2525 10.0000 125.8340
v  826.6168 10.0000 125.9649
v  827.3157 10.0000 127.0062
v  827.8376 10.0000 127.7042
v  828.2290 10.0000 128.5418
v  828.4900 10.0000 129.5190
v  828.6204 10.0000 130.6358
v  829.1604 10.0000 134.2641
v  826.7940 10.0000 133.7307
v  826.6854 10.0000 134.1167
v  826.5224 10.0000 134.4477
v  826.3051 10.0000 134.7235
v  826.0334 10.0000 134.9441
v  825.7075 10.0000 135.1096
v  816.4001 10.0000 118.7389
v  818.9879 10.0000 115.2378
v  804.8967 10.0000 96.1185
v  805.4122 10.0000 96.3275
v  805.9454 10.0000 96.6231
v  807.4552 10.0000 95.9800
v  809.0835 10.0000 96.1232
v  810.4525 10.0000 97.3549
v  810.8937 10.0000 99.1015
v  811.7418 10.0000 100.1748
v  813.3914 10.0000 101.1947
v  814.5272 10.0000 103.3057
v  814.6394 10.0000 105.4033
v  815.9819 10.0000 106.9091
v  816.5715 10.0000 109.1330
v  816.9409 10.0000 111.3682
v  815.4014 10.0000 113.4398
# 747 vertices

vn 0.4993 -0.7193 0.4829
vn 0.4438 -0.7197 0.5339
vn 0.6807 0.0000 0.7326
vn 0.4438 0.7197 0.5339
vn 0.4993 0.7193 0.4829
vn 0.3820 -0.7198 0.5796
vn 0.5958 0.0000 0.8031
vn 0.3820 0.7198 0.5796
vn 0.3160 -0.7196 0.6183
vn 0.5030 0.0000 0.8643
vn 0.3160 0.7196 0.6183
vn 0.2482 -0.7191 0.6491
vn 0.4057 0.0000 0.9140
vn 0.2482 0.7191 0.6491
vn 0.1810 -0.7184 0.6717
vn 0.3076 0.0000 0.9515
vn 0.1810 0.7184 0.6717
vn 0.1165 -0.7175 0.6867
vn 0.2121 0.0000 0.9772
vn 0.1165 0.7175 0.6867
vn 0.0561 -0.7166 0.6952
vn 0.1220 0.0000 0.9925
vn 0.0561 0.7166 0.6952
vn -0.0058 -0.7178 0.6962
vn 0.0387 0.0000 0.9992
vn -0.0058 0.7178 0.6962
vn -0.0833 -0.7221 0.6867
vn -0.0553 0.0000 0.9985
vn -0.0833 0.7221 0.6867
vn -0.1814 -0.7257 0.6637
vn -0.1850 0.0000 0.9827
vn -0.1814 0.7257 0.6637
vn -0.2936 -0.7294 0.6179
vn -0.3405 0.0000 0.9403
vn -0.2936 0.7294 0.6179
vn -0.4109 -0.7321 0.5433
vn -0.5139 0.0000 0.8578
vn -0.4109 0.7321 0.5433
vn -0.5182 -0.7328 0.4409
vn -0.6855 0.0000 0.7281
vn -0.5182 0.7328 0.4409
vn -0.6017 -0.7311 0.3218
vn -0.8285 0.0000 0.5600
vn -0.6017 0.7311 0.3218
vn -0.6555 -0.7277 0.2018
vn -0.9257 0.0000 0.3782
vn -0.6555 0.7277 0.2018
vn -0.6834 -0.7240 0.0934
vn -0.9782 0.0000 0.2078
vn -0.6834 0.7240 0.0934
vn -0.6935 -0.7204 0.0029
vn -0.9981 0.0000 0.0624
vn -0.6935 0.7204 0.0029
vn -0.6874 -0.7217 -0.0813
vn -0.9985 0.0000 -0.0539
vn -0.6874 0.7217 -0.0813
vn -0.6652 -0.7253 -0.1773
vn -0.9836 0.0000 -0.1805
vn -0.6652 0.7253 -0.1773
vn -0.6210 -0.7290 -0.2878
vn -0.9430 0.0000 -0.3329
vn -0.6210 0.7290 -0.2878
vn -0.5483 -0.7319 -0.4045
vn -0.8635 0.0000 -0.5043
vn -0.5483 0.7319 -0.4045
vn -0.4472 -0.7329 -0.5127
vn -0.7367 0.0000 -0.6762
vn -0.4472 0.7329 -0.5127
vn -0.3279 -0.7314 -0.5980
vn -0.5698 0.0000 -0.8218
vn -0.3279 0.7314 -0.5980
vn -0.2063 -0.7282 -0.6536
vn -0.3865 0.0000 -0.9223
vn -0.2063 0.7282 -0.6536
vn -0.0957 -0.7244 -0.6827
vn -0.2129 0.0000 -0.9771
vn -0.0957 0.7244 -0.6827
vn -0.0180 -0.7158 -0.6981
vn -0.0640 0.0000 -0.9980
vn -0.0180 0.7158 -0.6981
vn 0.0190 -0.7104 -0.7035
vn 0.0123 0.0000 -0.9999
vn 0.0190 0.7104 -0.7035
vn 0.0429 -0.7115 -0.7014
vn 0.0418 0.0000 -0.9991
vn 0.0429 0.7115 -0.7014
vn 0.0744 -0.7130 -0.6972
vn 0.0802 0.0000 -0.9968
vn 0.0744 0.7130 -0.6972
vn 0.1177 -0.7155 -0.6886
vn 0.1320 0.0000 -0.9913
vn 0.1177 0.7155 -0.6886
vn 0.1798 -0.7199 -0.6704
vn 0.2048 0.0000 -0.9788
vn 0.1798 0.7199 -0.6704
vn 0.2720 -0.7280 -0.6293
vn 0.3123 0.0000 -0.9500
vn 0.2720 0.7280 -0.6293
vn 0.4063 -0.7435 -0.5311
vn 0.4779 0.0000 -0.8784
vn 0.4063 0.7435 -0.5311
vn 0.5585 -0.7658 -0.3186
vn 0.7229 0.0000 -0.6910
vn 0.5585 0.7658 -0.3186
vn 0.4394 -0.8784 0.1878
vn 0.9627 0.0000 -0.2706
vn 0.4394 0.8784 0.1878
vn 0.3820 -0.6920 0.6126
vn 0.4696 0.0000 0.8829
vn 0.3820 0.6920 0.6126
vn 0.4652 -0.6911 0.5532
vn 0.5861 0.0000 0.8102
vn 0.4652 0.6911 0.5532
vn 0.5416 -0.6908 0.4791
vn 0.6977 0.0000 0.7164
vn 0.5416 0.6908 0.4791
vn 0.6055 -0.6912 0.3945
vn 0.7961 0.0000 0.6052
vn 0.6055 0.6912 0.3945
vn 0.6539 -0.6922 0.3055
vn 0.8752 0.0000 0.4838
vn 0.6539 0.6922 0.3055
vn 0.6866 -0.6935 0.2182
vn 0.9326 0.0000 0.3609
vn 0.6866 0.6935 0.2182
vn 0.7058 -0.6951 0.1370
vn 0.9699 0.0000 0.2437
vn 0.7058 0.6951 0.1370
vn 0.7146 -0.6966 0.0644
vn 0.9906 0.0000 0.1369
vn 0.7146 0.6966 0.0644
vn 0.7176 -0.6964 -0.0042
vn 0.9991 0.0000 0.0425
vn 0.7176 0.6964 -0.0042
vn 0.7159 -0.6930 -0.0849
vn 0.9985 0.0000 -0.0541
vn 0.7159 0.6930 -0.0849
vn 0.6995 -0.6897 -0.1869
vn 0.9835 0.0000 -0.1810
vn 0.6995 0.6897 -0.1869
vn 0.6595 -0.6864 -0.3065
vn 0.9427 0.0000 -0.3337
vn 0.6595 0.6864 -0.3065
vn 0.5866 -0.6838 -0.4339
vn 0.8629 0.0000 -0.5054
vn 0.5866 0.6838 -0.4339
vn 0.4794 -0.6830 -0.5511
vn 0.7358 0.0000 -0.6772
vn 0.4794 0.6830 -0.5511
vn 0.3498 -0.6844 -0.6398
vn 0.5687 0.0000 -0.8225
vn 0.3498 0.6844 -0.6398
vn 0.2181 -0.6872 -0.6929
vn 0.3856 0.0000 -0.9227
vn 0.2181 0.6872 -0.6929
vn 0.1001 -0.6906 -0.7163
vn 0.2124 0.0000 -0.9772
vn 0.1001 0.6906 -0.7163
vn -0.0000 -0.6930 -0.7209
vn 0.0638 0.0000 -0.9980
vn -0.0000 0.6930 -0.7209
vn -0.1002 -0.6906 -0.7163
vn -0.0639 0.0000 -0.9980
vn -0.1002 0.6906 -0.7163
vn -0.2183 -0.6872 -0.6929
vn -0.2126 0.0000 -0.9771
vn -0.2183 0.6872 -0.6929
vn -0.3501 -0.6843 -0.6396
vn -0.3859 0.0000 -0.9225
vn -0.3501 0.6843 -0.6396
vn -0.4796 -0.6830 -0.5509
vn -0.5691 0.0000 -0.8222
vn -0.4796 0.6830 -0.5509
vn -0.5868 -0.6838 -0.4336
vn -0.7362 0.0000 -0.6768
vn -0.5868 0.6838 -0.4336
vn -0.6596 -0.6864 -0.3062
vn -0.8631 0.0000 -0.5050
vn -0.6596 0.6864 -0.3062
vn -0.6995 -0.6898 -0.1867
vn -0.9428 0.0000 -0.3334
vn -0.6995 0.6898 -0.1867
vn -0.7159 -0.6930 -0.0848
vn -0.9835 0.0000 -0.1808
vn -0.7159 0.6930 -0.0848
vn -0.7197 -0.6943 0.0028
vn -0.9985 0.0000 -0.0540
vn -0.7197 0.6943 0.0028
vn -0.7151 -0.6932 0.0897
vn -0.9981 0.0000 0.0618
vn -0.7151 0.6932 0.0897
vn -0.6982 -0.6933 0.1784
vn -0.9825 0.0000 0.1865
vn -0.6982 0.6933 0.1784
vn -0.6706 -0.6938 0.2625
vn -0.9515 0.0000 0.3077
vn -0.6706 0.6938 0.2625
vn -0.6347 -0.6946 0.3387
vn -0.9075 0.0000 0.4200
vn -0.6347 0.6946 0.3387
vn -0.5934 -0.6956 0.4050
vn -0.8542 0.0000 0.5200
vn -0.5934 0.6956 0.4050
vn -0.5497 -0.6967 0.4609
vn -0.7956 0.0000 0.6059
vn -0.5497 0.6967 0.4609
vn -0.5059 -0.6978 0.5070
vn -0.7353 0.0000 0.6777
vn -0.5059 0.6978 0.5070
vn -0.4638 -0.6989 0.5445
vn -0.6761 0.0000 0.7368
vn -0.4638 0.6989 0.5445
vn -0.4210 -0.6983 0.5789
vn -0.6198 0.0000 0.7848
vn -0.4210 0.6983 0.5789
vn -0.3715 -0.6973 0.6131
vn -0.5556 0.0000 0.8314
vn -0.3715 0.6973 0.6131
vn -0.3169 -0.6977 0.6425
vn -0.4798 0.0000 0.8774
vn -0.3169 0.6977 0.6425
vn -0.2631 -0.6983 0.6657
vn -0.4041 0.0000 0.9147
vn -0.2631 0.6983 0.6657
vn -0.2113 -0.6989 0.6833
vn -0.3304 0.0000 0.9438
vn -0.2113 0.6989 0.6833
vn -0.1623 -0.6995 0.6959
vn -0.2601 0.0000 0.9656
vn -0.1623 0.6995 0.6959
vn -0.1166 -0.7002 0.7044
vn -0.1939 0.0000 0.9810
vn -0.1166 0.7002 0.7044
vn -0.0744 -0.7008 0.7095
vn -0.1325 0.0000 0.9912
vn -0.0744 0.7008 0.7095
vn -0.0357 -0.7013 0.7120
vn -0.0759 0.0000 0.9971
vn -0.0357 0.7013 0.7120
vn 0.0007 -0.7015 0.7127
vn -0.0242 0.0000 0.9997
vn 0.0007 0.7015 0.7127
vn 0.0389 -0.7007 0.7124
vn 0.0260 0.0000 0.9997
vn 0.0389 0.7007 0.7124
vn 0.0823 -0.6999 0.7095
vn 0.0831 0.0000 0.9965
vn 0.0823 0.6999 0.7095
vn 0.1311 -0.6990 0.7030
vn 0.1473 0.0000 0.9891
vn 0.1311 0.6990 0.7030
vn 0.1857 -0.6979 0.6917
vn 0.2192 0.0000 0.9757
vn 0.1857 0.6979 0.6917
vn 0.2457 -0.6969 0.6738
vn 0.2988 0.0000 0.9543
vn 0.2457 0.6969 0.6738
vn 0.3104 -0.6958 0.6477
vn 0.3855 0.0000 0.9227
vn 0.3104 0.6958 0.6477
vn 0.3781 -0.6948 0.6118
vn 0.4776 0.0000 0.8786
vn 0.3781 0.6948 0.6118
vn 0.4462 -0.6940 0.5650
vn 0.5722 0.0000 0.8201
vn 0.4462 0.6940 0.5650
vn 0.5048 -0.6957 0.5110
vn 0.6652 0.0000 0.7467
vn 0.5048 0.6957 0.5110
vn 0.5497 -0.6975 0.4597
vn 0.7385 0.0000 0.6742
vn 0.5497 0.6975 0.4597
vn 0.5885 -0.6971 0.4095
vn 0.7943 0.0000 0.6076
vn 0.5885 0.6971 0.4095
vn 0.6234 -0.6969 0.3545
vn 0.8457 0.0000 0.5337
vn 0.6234 0.6969 0.3545
vn 0.6533 -0.6969 0.2959
vn 0.8910 0.0000 0.4540
vn 0.6533 0.6969 0.2959
vn 0.6774 -0.6971 0.2351
vn 0.9289 0.0000 0.3703
vn 0.6774 0.6971 0.2351
vn 0.6954 -0.6974 0.1737
vn 0.9586 0.0000 0.2847
vn 0.6954 0.6974 0.1737
vn 0.7073 -0.6978 0.1133
vn 0.9799 0.0000 0.1995
vn 0.7073 0.6978 0.1133
vn 0.7137 -0.6983 0.0553
vn 0.9932 0.0000 0.1166
vn 0.7137 0.6983 0.0553
vn 0.7185 -0.6954 -0.0108
vn 0.9993 0.0000 0.0377
vn 0.7185 0.6954 -0.0108
vn 0.7163 -0.6896 -0.1064
vn 0.9977 0.0000 -0.0678
vn 0.7163 0.6896 -0.1064
vn 0.6898 -0.6863 -0.2306
vn 0.9743 0.0000 -0.2251
vn 0.6898 0.6863 -0.2306
vn 0.6312 -0.6837 -0.3664
vn 0.9139 0.0000 -0.4060
vn 0.6312 0.6837 -0.3664
vn 0.5367 -0.6829 -0.4956
vn 0.8057 0.0000 -0.5923
vn 0.5367 0.6829 -0.4956
vn 0.4169 -0.6843 -0.5983
vn 0.6545 0.0000 -0.7560
vn 0.4169 0.6843 -0.5983
vn 0.2912 -0.6872 -0.6655
vn 0.4825 0.0000 -0.8759
vn 0.2912 0.6872 -0.6655
vn 0.1764 -0.6906 -0.7014
vn 0.3159 0.0000 -0.9488
vn 0.1764 0.6906 -0.7014
vn 0.0799 -0.6938 -0.7157
vn 0.1706 0.0000 -0.9853
vn 0.0799 0.6938 -0.7157
vn 0.0102 -0.6990 -0.7151
vn 0.0509 0.0000 -0.9987
vn 0.0102 0.6990 -0.7151
vn -0.0335 -0.7016 -0.7118
vn -0.0224 0.0000 -0.9997
vn -0.0335 0.7016 -0.7118
vn -0.0709 -0.7009 -0.7098
vn -0.0716 0.0000 -0.9974
vn -0.0709 0.7009 -0.7098
vn -0.1133 -0.7000 -0.7051
vn -0.1272 0.0000 -0.9919
vn -0.1133 0.7000 -0.7051
vn -0.1612 -0.6991 -0.6967
vn -0.1900 0.0000 -0.9818
vn -0.1612 0.6991 -0.6967
vn -0.2148 -0.6980 -0.6831
vn -0.2605 0.0000 -0.9655
vn -0.2148 0.6980 -0.6831
vn -0.2741 -0.6968 -0.6628
vn -0.3389 0.0000 -0.9408
vn -0.2741 0.6968 -0.6628
vn -0.3383 -0.6956 -0.6338
vn -0.4246 0.0000 -0.9054
vn -0.3383 0.6956 -0.6338
vn -0.4057 -0.6945 -0.5942
vn -0.5160 0.0000 -0.8566
vn -0.4057 0.6945 -0.5942
vn 0.1108 -0.9659 -0.2341
vn -0.6099 0.0000 -0.7925
vn 0.1108 0.9659 -0.2341
vn 0.7124 -0.7004 -0.0436
vn 0.9995 0.0000 -0.0309
vn 0.7124 0.7004 -0.0436
vn 0.7084 -0.7006 -0.0857
vn 0.9958 0.0000 -0.0912
vn 0.7084 0.7006 -0.0857
vn 0.7021 -0.7009 -0.1259
vn 0.9888 0.0000 -0.1490
vn 0.7021 0.7009 -0.1259
vn 0.6939 -0.7012 -0.1638
vn 0.9790 0.0000 -0.2038
vn 0.6939 0.7012 -0.1638
vn 0.6842 -0.7015 -0.1994
vn 0.9668 0.0000 -0.2555
vn 0.6842 0.7015 -0.1994
vn 0.6734 -0.7018 -0.2325
vn 0.9527 0.0000 -0.3038
vn 0.6734 0.7018 -0.2325
vn 0.6616 -0.7021 -0.2633
vn 0.9372 0.0000 -0.3488
vn 0.6616 0.7021 -0.2633
vn 0.6493 -0.7024 -0.2917
vn 0.9206 0.0000 -0.3905
vn 0.6493 0.7024 -0.2917
vn 0.6363 -0.7022 -0.3195
vn 0.9033 0.0000 -0.4290
vn 0.6363 0.7022 -0.3195
vn 0.6210 -0.7014 -0.3499
vn 0.8836 0.0000 -0.4683
vn 0.6210 0.7014 -0.3499
vn 0.6016 -0.7007 -0.3835
vn 0.8583 0.0000 -0.5132
vn 0.6016 0.7007 -0.3835
vn 0.5780 -0.7000 -0.4194
vn 0.8275 0.0000 -0.5614
vn 0.5780 0.7000 -0.4194
vn 0.5493 -0.6993 -0.4574
vn 0.7904 0.0000 -0.6127
vn 0.5493 0.6993 -0.4574
vn 0.5148 -0.6986 -0.4970
vn 0.7456 0.0000 -0.6664
vn 0.5148 0.6986 -0.4970
vn 0.4738 -0.6978 -0.5372
vn 0.6922 0.0000 -0.7217
vn 0.4738 0.6978 -0.5372
vn 0.4257 -0.6971 -0.5770
vn 0.6294 0.0000 -0.7771
vn 0.4257 0.6971 -0.5770
vn 0.3704 -0.6965 -0.6146
vn 0.5567 0.0000 -0.8307
vn 0.3704 0.6965 -0.6146
vn -0.0393 -0.6071 -0.7937
vn 0.4744 0.0000 -0.8803
vn -0.0393 0.6071 -0.7937
vn -0.8181 -0.5461 0.1799
vn -0.5591 0.0000 -0.8291
vn -0.8181 0.5461 0.1799
vn -0.1625 -0.7250 0.6693
vn -0.1597 0.0000 0.9872
vn -0.1625 0.7250 0.6693
vn -0.2580 -0.7223 0.6417
vn -0.3108 0.0000 0.9505
vn -0.2580 0.7223 0.6417
vn -0.3350 -0.7197 0.6081
vn -0.4336 0.0000 0.9011
vn -0.3350 0.7197 0.6081
vn -0.3958 -0.7175 0.5732
vn -0.5301 0.0000 0.8479
vn -0.3958 0.7175 0.5732
vn -0.4433 -0.7157 0.5397
vn -0.6051 0.0000 0.7962
vn -0.4433 0.7157 0.5397
vn -0.4805 -0.7142 0.5088
vn -0.6634 0.0000 0.7482
vn -0.4805 0.7142 0.5088
vn -0.5100 -0.7131 0.4810
vn -0.7091 0.0000 0.7051
vn -0.5100 0.7131 0.4810
vn -0.5335 -0.7122 0.4563
vn -0.7453 0.0000 0.6667
vn -0.5335 0.7122 0.4563
vn -0.5563 -0.7150 0.4235
vn -0.7743 0.0000 0.6328
vn -0.5563 0.7150 0.4235
vn -0.5865 -0.7178 0.3751
vn -0.8162 0.0000 0.5778
vn -0.5865 0.7178 0.3751
vn -0.6188 -0.7171 0.3209
vn -0.8668 0.0000 0.4987
vn -0.6188 0.7171 0.3209
vn -0.6442 -0.7162 0.2684
vn -0.9070 0.0000 0.4212
vn -0.6442 0.7162 0.2684
vn -0.6636 -0.7154 0.2187
vn -0.9377 0.0000 0.3474
vn -0.6636 0.7154 0.2187
vn -0.6780 -0.7146 0.1725
vn -0.9605 0.0000 0.2783
vn -0.6780 0.7146 0.1725
vn -0.6881 -0.7138 0.1300
vn -0.9767 0.0000 0.2146
vn -0.6881 0.7138 0.1300
vn -0.6951 -0.7131 0.0912
vn -0.9877 0.0000 0.1564
vn -0.6951 0.7131 0.0912
vn -0.6994 -0.7125 0.0560
vn -0.9946 0.0000 0.1036
vn -0.6994 0.7125 0.0560
vn -0.5595 -0.5803 0.5917
vn -0.9984 0.0000 0.0559
vn -0.5595 0.5803 0.5917
vn 0.3240 -0.6246 0.7106
vn 0.0000 0.0000 1.0000
vn 0.3240 0.6246 0.7106
vn 0.7550 0.0000 0.6558
vn -0.0910 -0.7236 0.6842
vn -0.1970 -0.7273 0.6575
vn -0.2024 0.0000 0.9793
vn -0.1970 0.7273 0.6575
vn -0.0910 0.7236 0.6842
vn -0.3153 -0.7307 0.6055
vn -0.3694 0.0000 0.9293
vn -0.3153 0.7307 0.6055
vn -0.4342 -0.7327 0.5241
vn -0.5495 0.0000 0.8355
vn -0.4342 0.7327 0.5241
vn -0.5378 -0.7323 0.4177
vn -0.7187 0.0000 0.6954
vn -0.5378 0.7323 0.4177
vn -0.6144 -0.7298 0.2999
vn -0.8515 0.0000 0.5243
vn -0.6144 0.7298 0.2999
vn -0.6619 -0.7261 0.1858
vn -0.9372 0.0000 0.3488
vn -0.6619 0.7261 0.1858
vn -0.6860 -0.7225 0.0855
vn -0.9818 0.0000 0.1900
vn -0.6860 0.7225 0.0855
vn -0.6937 -0.7202 -0.0004
vn -0.9984 0.0000 0.0568
vn -0.6937 0.7202 -0.0004
vn -0.6856 -0.7228 -0.0870
vn -0.9983 0.0000 -0.0578
vn -0.6856 0.7228 -0.0870
vn -0.6608 -0.7264 -0.1888
vn -0.9811 0.0000 -0.1933
vn -0.6608 0.7264 -0.1888
vn -0.6121 -0.7300 -0.3040
vn -0.9351 0.0000 -0.3543
vn -0.6121 0.7300 -0.3040
vn -0.5341 -0.7324 -0.4222
vn -0.8473 0.0000 -0.5311
vn -0.5341 0.7324 -0.4222
vn -0.4297 -0.7326 -0.5279
vn -0.7124 0.0000 -0.7017
vn -0.4297 0.7326 -0.5279
vn -0.3111 -0.7304 -0.6080
vn -0.5427 0.0000 -0.8399
vn -0.3111 0.7304 -0.6080
vn -0.1939 -0.7270 -0.6587
vn -0.3637 0.0000 -0.9315
vn -0.1939 0.7270 -0.6587
vn -0.0895 -0.7233 -0.6847
vn -0.1990 0.0000 -0.9800
vn -0.0895 0.7233 -0.6847
vn -0.0000 -0.7208 -0.6932
vn -0.0596 0.0000 -0.9982
vn -0.0000 0.7208 -0.6932
vn 0.0895 -0.7233 -0.6847
vn 0.0596 0.0000 -0.9982
vn 0.0895 0.7233 -0.6847
vn 0.1939 -0.7270 -0.6587
vn 0.1990 0.0000 -0.9800
vn 0.1939 0.7270 -0.6587
vn 0.3111 -0.7304 -0.6080
vn 0.3637 0.0000 -0.9315
vn 0.3111 0.7304 -0.6080
vn 0.4297 -0.7326 -0.5279
vn 0.5427 0.0000 -0.8400
vn 0.4297 0.7326 -0.5279
vn 0.5341 -0.7324 -0.4222
vn 0.7124 0.0000 -0.7017
vn 0.5341 0.7324 -0.4222
vn 0.6121 -0.7300 -0.3040
vn 0.8473 0.0000 -0.5311
vn 0.6121 0.7300 -0.3040
vn 0.6608 -0.7264 -0.1888
vn 0.9351 0.0000 -0.3543
vn 0.6608 0.7264 -0.1888
vn 0.6856 -0.7228 -0.0870
vn 0.9811 0.0000 -0.1933
vn 0.6856 0.7228 -0.0870
vn 0.6937 -0.7202 -0.0004
vn 0.9983 0.0000 -0.0578
vn 0.6937 0.7202 -0.0004
vn 0.6860 -0.7225 0.0855
vn 0.9984 0.0000 0.0568
vn 0.6860 0.7225 0.0855
vn 0.6619 -0.7261 0.1858
vn 0.9818 0.0000 0.1900
vn 0.6619 0.7261 0.1858
vn 0.6144 -0.7298 0.2999
vn 0.9372 0.0000 0.3488
vn 0.6144 0.7298 0.2999
vn 0.5378 -0.7323 0.4177
vn 0.8515 0.0000 0.5243
vn 0.5378 0.7323 0.4177
vn 0.4342 -0.7327 0.5241
vn 0.7187 0.0000 0.6953
vn 0.4342 0.7327 0.5241
vn 0.3153 -0.7307 0.6055
vn 0.5495 0.0000 0.8355
vn 0.3153 0.7307 0.6055
vn 0.1970 -0.7273 0.6575
vn 0.3694 0.0000 0.9293
vn 0.1970 0.7273 0.6575
vn 0.0910 -0.7236 0.6842
vn 0.2024 0.0000 0.9793
vn 0.0910 0.7236 0.6842
vn -0.0000 -0.7210 0.6929
vn 0.0607 0.0000 0.9982
vn -0.0000 0.7210 0.6929
vn -0.0607 0.0000 0.9982
vn 0.0000 -1.0000 -0.0000
vn 0.0000 1.0000 -0.0000
# 575 vertex normals

o Number_6
g Number_6
s 1
f 1//1 2//2 3//3 
f 2//2 4//4 3//3 
f 4//4 5//5 3//3 
f 5//5 1//1 3//3 
s 3
f 2//2 6//6 7//7 
f 6//6 8//8 7//7 
f 8//8 4//4 7//7 
f 4//4 2//2 7//7 
s 2
f 6//6 9//9 10//10 
f 9//9 11//11 10//10 
f 11//11 8//8 10//10 
f 8//8 6//6 10//10 
f 9//9 12//12 13//13 
f 12//12 14//14 13//13 
f 14//14 11//11 13//13 
f 11//11 9//9 13//13 
f 12//12 15//15 16//16 
f 15//15 17//17 16//16 
f 17//17 14//14 16//16 
f 14//14 12//12 16//16 
f 15//15 18//18 19//19 
f 18//18 20//20 19//19 
f 20//20 17//17 19//19 
f 17//17 15//15 19//19 
f 18//18 21//21 22//22 
f 21//21 23//23 22//22 
f 23//23 20//20 22//22 
f 20//20 18//18 22//22 
f 21//21 24//24 25//25 
f 24//24 26//26 25//25 
f 26//26 23//23 25//25 
f 23//23 21//21 25//25 
f 24//24 27//27 28//28 
f 27//27 29//29 28//28 
f 29//29 26//26 28//28 
f 26//26 24//24 28//28 
f 27//27 30//30 31//31 
f 30//30 32//32 31//31 
f 32//32 29//29 31//31 
f 29//29 27//27 31//31 
f 30//30 33//33 34//34 
f 33//33 35//35 34//34 
f 35//35 32//32 34//34 
f 32//32 30//30 34//34 
f 33//33 36//36 37//37 
f 36//36 38//38 37//37 
f 38//38 35//35 37//37 
f 35//35 33//33 37//37 
f 36//36 39//39 40//40 
f 39//39 41//41 40//40 
f 41//41 38//38 40//40 
f 38//38 36//36 40//40 
f 39//39 42//42 43//43 
f 42//42 44//44 43//43 
f 44//44 41//41 43//43 
f 41//41 39//39 43//43 
f 42//42 45//45 46//46 
f 45//45 47//47 46//46 
f 47//47 44//44 46//46 
f 44//44 42//42 46//46 
f 45//45 48//48 49//49 
f 48//48 50//50 49//49 
f 50//50 47//47 49//49 
f 47//47 45//45 49//49 
f 48//48 51//51 52//52 
f 51//51 53//53 52//52 
f 53//53 50//50 52//52 
f 50//50 48//48 52//52 
f 51//51 54//54 55//55 
f 54//54 56//56 55//55 
f 56//56 53//53 55//55 
f 53//53 51//51 55//55 
f 54//54 57//57 58//58 
f 57//57 59//59 58//58 
f 59//59 56//56 58//58 
f 56//56 54//54 58//58 
f 57//57 60//60 61//61 
f 60//60 62//62 61//61 
f 62//62 59//59 61//61 
f 59//59 57//57 61//61 
f 60//60 63//63 64//64 
f 63//63 65//65 64//64 
f 65//65 62//62 64//64 
f 62//62 60//60 64//64 
f 63//63 66//66 67//67 
f 66//66 68//68 67//67 
f 68//68 65//65 67//67 
f 65//65 63//63 67//67 
f 66//66 69//69 70//70 
f 69//69 71//71 70//70 
f 71//71 68//68 70//70 
f 68//68 66//66 70//70 
f 69//69 72//72 73//73 
f 72//72 74//74 73//73 
f 74//74 71//71 73//73 
f 71//71 69//69 73//73 
f 72//72 75//75 76//76 
f 75//75 77//77 76//76 
f 77//77 74//74 76//76 
f 74//74 72//72 76//76 
f 75//75 78//78 79//79 
f 78//78 80//80 79//79 
f 80//80 77//77 79//79 
f 77//77 75//75 79//79 
f 78//78 81//81 82//82 
f 81//81 83//83 82//82 
f 83//83 80//80 82//82 
f 80//80 78//78 82//82 
f 81//81 84//84 85//85 
f 84//84 86//86 85//85 
f 86//86 83//83 85//85 
f 83//83 81//81 85//85 
f 84//84 87//87 88//88 
f 87//87 89//89 88//88 
f 89//89 86//86 88//88 
f 86//86 84//84 88//88 
f 87//87 90//90 91//91 
f 90//90 92//92 91//91 
f 92//92 89//89 91//91 
f 89//89 87//87 91//91 
f 90//90 93//93 94//94 
f 93//93 95//95 94//94 
f 95//95 92//92 94//94 
f 92//92 90//90 94//94 
f 93//93 96//96 97//97 
f 96//96 98//98 97//97 
f 98//98 95//95 97//97 
f 95//95 93//93 97//97 
f 96//96 99//99 100//100 
f 99//99 101//101 100//100 
f 101//101 98//98 100//100 
f 98//98 96//96 100//100 
f 99//99 102//102 103//103 
f 102//102 104//104 103//103 
f 104//104 101//101 103//103 
f 101//101 99//99 103//103 
f 102//102 105//105 106//106 
f 105//105 107//107 106//106 
f 107//107 104//104 106//106 
f 104//104 102//102 106//106 
s 4
f 105//105 108//108 109//109 
f 108//108 110//110 109//109 
f 110//110 107//107 109//109 
f 107//107 105//105 109//109 
f 108//108 111//111 112//112 
f 111//111 113//113 112//112 
f 113//113 110//110 112//112 
f 110//110 108//108 112//112 
f 111//111 114//114 115//115 
f 114//114 116//116 115//115 
f 116//116 113//113 115//115 
f 113//113 111//111 115//115 
f 114//114 117//117 118//118 
f 117//117 119//119 118//118 
f 119//119 116//116 118//118 
f 116//116 114//114 118//118 
f 117//117 120//120 121//121 
f 120//120 122//122 121//121 
f 122//122 119//119 121//121 
f 119//119 117//117 121//121 
f 120//120 123//123 124//124 
f 123//123 125//125 124//124 
f 125//125 122//122 124//124 
f 122//122 120//120 124//124 
f 123//123 126//126 127//127 
f 126//126 128//128 127//127 
f 128//128 125//125 127//127 
f 125//125 123//123 127//127 
f 126//126 129//129 130//130 
f 129//129 131//131 130//130 
f 131//131 128//128 130//130 
f 128//128 126//126 130//130 
f 129//129 132//132 133//133 
f 132//132 134//134 133//133 
f 134//134 131//131 133//133 
f 131//131 129//129 133//133 
f 132//132 135//135 136//136 
f 135//135 137//137 136//136 
f 137//137 134//134 136//136 
f 134//134 132//132 136//136 
f 135//135 138//138 139//139 
f 138//138 140//140 139//139 
f 140//140 137//137 139//139 
f 137//137 135//135 139//139 
f 138//138 141//141 142//142 
f 141//141 143//143 142//142 
f 143//143 140//140 142//142 
f 140//140 138//138 142//142 
f 141//141 144//144 145//145 
f 144//144 146//146 145//145 
f 146//146 143//143 145//145 
f 143//143 141//141 145//145 
f 144//144 147//147 148//148 
f 147//147 149//149 148//148 
f 149//149 146//146 148//148 
f 146//146 144//144 148//148 
f 147//147 150//150 151//151 
f 150//150 152//152 151//151 
f 152//152 149//149 151//151 
f 149//149 147//147 151//151 
f 150//150 153//153 154//154 
f 153//153 155//155 154//154 
f 155//155 152//152 154//154 
f 152//152 150//150 154//154 
f 153//153 156//156 157//157 
f 156//156 158//158 157//157 
f 158//158 155//155 157//157 
f 155//155 153//153 157//157 
f 156//156 159//159 160//160 
f 159//159 161//161 160//160 
f 161//161 158//158 160//160 
f 158//158 156//156 160//160 
f 159//159 162//162 163//163 
f 162//162 164//164 163//163 
f 164//164 161//161 163//163 
f 161//161 159//159 163//163 
f 162//162 165//165 166//166 
f 165//165 167//167 166//166 
f 167//167 164//164 166//166 
f 164//164 162//162 166//166 
f 165//165 168//168 169//169 
f 168//168 170//170 169//169 
f 170//170 167//167 169//169 
f 167//167 165//165 169//169 
f 168//168 171//171 172//172 
f 171//171 173//173 172//172 
f 173//173 170//170 172//172 
f 170//170 168//168 172//172 
f 171//171 174//174 175//175 
f 174//174 176//176 175//175 
f 176//176 173//173 175//175 
f 173//173 171//171 175//175 
f 174//174 177//177 178//178 
f 177//177 179//179 178//178 
f 179//179 176//176 178//178 
f 176//176 174//174 178//178 
f 177//177 180//180 181//181 
f 180//180 182//182 181//181 
f 182//182 179//179 181//181 
f 179//179 177//177 181//181 
f 180//180 183//183 184//184 
f 183//183 185//185 184//184 
f 185//185 182//182 184//184 
f 182//182 180//180 184//184 
f 183//183 186//186 187//187 
f 186//186 188//188 187//187 
f 188//188 185//185 187//187 
f 185//185 183//183 187//187 
f 186//186 189//189 190//190 
f 189//189 191//191 190//190 
f 191//191 188//188 190//190 
f 188//188 186//186 190//190 
f 189//189 192//192 193//193 
f 192//192 194//194 193//193 
f 194//194 191//191 193//193 
f 191//191 189//189 193//193 
f 192//192 195//195 196//196 
f 195//195 197//197 196//196 
f 197//197 194//194 196//196 
f 194//194 192//192 196//196 
f 195//195 198//198 199//199 
f 198//198 200//200 199//199 
f 200//200 197//197 199//199 
f 197//197 195//195 199//199 
f 198//198 201//201 202//202 
f 201//201 203//203 202//202 
f 203//203 200//200 202//202 
f 200//200 198//198 202//202 
f 201//201 204//204 205//205 
f 204//204 206//206 205//205 
f 206//206 203//203 205//205 
f 203//203 201//201 205//205 
f 204//204 207//207 208//208 
f 207//207 209//209 208//208 
f 209//209 206//206 208//208 
f 206//206 204//204 208//208 
f 207//207 210//210 211//211 
f 210//210 212//212 211//211 
f 212//212 209//209 211//211 
f 209//209 207//207 211//211 
f 210//210 213//213 214//214 
f 213//213 215//215 214//214 
f 215//215 212//212 214//214 
f 212//212 210//210 214//214 
f 213//213 216//216 217//217 
f 216//216 218//218 217//217 
f 218//218 215//215 217//217 
f 215//215 213//213 217//217 
f 216//216 219//219 220//220 
f 219//219 221//221 220//220 
f 221//221 218//218 220//220 
f 218//218 216//216 220//220 
f 219//219 222//222 223//223 
f 222//222 224//224 223//223 
f 224//224 221//221 223//223 
f 221//221 219//219 223//223 
f 222//222 225//225 226//226 
f 225//225 227//227 226//226 
f 227//227 224//224 226//226 
f 224//224 222//222 226//226 
f 225//225 228//228 229//229 
f 228//228 230//230 229//229 
f 230//230 227//227 229//229 
f 227//227 225//225 229//229 
f 228//228 231//231 232//232 
f 231//231 233//233 232//232 
f 233//233 230//230 232//232 
f 230//230 228//228 232//232 
f 231//231 234//234 235//235 
f 234//234 236//236 235//235 
f 236//236 233//233 235//235 
f 233//233 231//231 235//235 
f 234//234 237//237 238//238 
f 237//237 239//239 238//238 
f 239//239 236//236 238//238 
f 236//236 234//234 238//238 
f 237//237 240//240 241//241 
f 240//240 242//242 241//241 
f 242//242 239//239 241//241 
f 239//239 237//237 241//241 
f 240//240 243//243 244//244 
f 243//243 245//245 244//244 
f 245//245 242//242 244//244 
f 242//242 240//240 244//244 
f 243//243 246//246 247//247 
f 246//246 248//248 247//247 
f 248//248 245//245 247//247 
f 245//245 243//243 247//247 
f 246//246 249//249 250//250 
f 249//249 251//251 250//250 
f 251//251 248//248 250//250 
f 248//248 246//246 250//250 
f 249//249 252//252 253//253 
f 252//252 254//254 253//253 
f 254//254 251//251 253//253 
f 251//251 249//249 253//253 
f 252//252 255//255 256//256 
f 255//255 257//257 256//256 
f 257//257 254//254 256//256 
f 254//254 252//252 256//256 
f 255//255 258//258 259//259 
f 258//258 260//260 259//259 
f 260//260 257//257 259//259 
f 257//257 255//255 259//259 
f 258//258 261//261 262//262 
f 261//261 263//263 262//262 
f 263//263 260//260 262//262 
f 260//260 258//258 262//262 
f 261//261 264//264 265//265 
f 264//264 266//266 265//265 
f 266//266 263//263 265//265 
f 263//263 261//261 265//265 
f 264//264 267//267 268//268 
f 267//267 269//269 268//268 
f 269//269 266//266 268//268 
f 266//266 264//264 268//268 
f 267//267 270//270 271//271 
f 270//270 272//272 271//271 
f 272//272 269//269 271//271 
f 269//269 267//267 271//271 
f 270//270 273//273 274//274 
f 273//273 275//275 274//274 
f 275//275 272//272 274//274 
f 272//272 270//270 274//274 
f 273//273 276//276 277//277 
f 276//276 278//278 277//277 
f 278//278 275//275 277//277 
f 275//275 273//273 277//277 
f 276//276 279//279 280//280 
f 279//279 281//281 280//280 
f 281//281 278//278 280//280 
f 278//278 276//276 280//280 
f 279//279 282//282 283//283 
f 282//282 284//284 283//283 
f 284//284 281//281 283//283 
f 281//281 279//279 283//283 
f 282//282 285//285 286//286 
f 285//285 287//287 286//286 
f 287//287 284//284 286//286 
f 284//284 282//282 286//286 
f 285//285 288//288 289//289 
f 288//288 290//290 289//289 
f 290//290 287//287 289//289 
f 287//287 285//285 289//289 
f 288//288 291//291 292//292 
f 291//291 293//293 292//292 
f 293//293 290//290 292//292 
f 290//290 288//288 292//292 
f 291//291 294//294 295//295 
f 294//294 296//296 295//295 
f 296//296 293//293 295//295 
f 293//293 291//291 295//295 
f 294//294 297//297 298//298 
f 297//297 299//299 298//298 
f 299//299 296//296 298//298 
f 296//296 294//294 298//298 
f 297//297 300//300 301//301 
f 300//300 302//302 301//301 
f 302//302 299//299 301//301 
f 299//299 297//297 301//301 
f 300//300 303//303 304//304 
f 303//303 305//305 304//304 
f 305//305 302//302 304//304 
f 302//302 300//300 304//304 
f 303//303 306//306 307//307 
f 306//306 308//308 307//307 
f 308//308 305//305 307//307 
f 305//305 303//303 307//307 
f 306//306 309//309 310//310 
f 309//309 311//311 310//310 
f 311//311 308//308 310//310 
f 308//308 306//306 310//310 
f 309//309 312//312 313//313 
f 312//312 314//314 313//313 
f 314//314 311//311 313//313 
f 311//311 309//309 313//313 
f 312//312 315//315 316//316 
f 315//315 317//317 316//316 
f 317//317 314//314 316//316 
f 314//314 312//312 316//316 
f 315//315 318//318 319//319 
f 318//318 320//320 319//319 
f 320//320 317//317 319//319 
f 317//317 315//315 319//319 
f 318//318 321//321 322//322 
f 321//321 323//323 322//322 
f 323//323 320//320 322//322 
f 320//320 318//318 322//322 
f 321//321 324//324 325//325 
f 324//324 326//326 325//325 
f 326//326 323//323 325//325 
f 323//323 321//321 325//325 
f 324//324 327//327 328//328 
f 327//327 329//329 328//328 
f 329//329 326//326 328//328 
f 326//326 324//324 328//328 
f 327//327 330//330 331//331 
f 330//330 332//332 331//331 
f 332//332 329//329 331//331 
f 329//329 327//327 331//331 
f 330//330 333//333 334//334 
f 333//333 335//335 334//334 
f 335//335 332//332 334//334 
f 332//332 330//330 334//334 
f 333//333 336//336 337//337 
f 336//336 338//338 337//337 
f 338//338 335//335 337//337 
f 335//335 333//333 337//337 
f 336//336 339//339 340//340 
f 339//339 341//341 340//340 
f 341//341 338//338 340//340 
f 338//338 336//336 340//340 
f 339//339 342//342 343//343 
f 342//342 344//344 343//343 
f 344//344 341//341 343//343 
f 341//341 339//339 343//343 
f 342//342 345//345 346//346 
f 345//345 347//347 346//346 
f 347//347 344//344 346//346 
f 344//344 342//342 346//346 
f 345//345 348//348 349//349 
f 348//348 350//350 349//349 
f 350//350 347//347 349//349 
f 347//347 345//345 349//349 
s 2
f 348//348 351//351 352//352 
f 351//351 353//353 352//352 
f 353//353 350//350 352//352 
f 350//350 348//348 352//352 
f 351//351 354//354 355//355 
f 354//354 356//356 355//355 
f 356//356 353//353 355//355 
f 353//353 351//351 355//355 
f 354//354 357//357 358//358 
f 357//357 359//359 358//358 
f 359//359 356//356 358//358 
f 356//356 354//354 358//358 
f 357//357 360//360 361//361 
f 360//360 362//362 361//361 
f 362//362 359//359 361//361 
f 359//359 357//357 361//361 
f 360//360 363//363 364//364 
f 363//363 365//365 364//364 
f 365//365 362//362 364//364 
f 362//362 360//360 364//364 
f 363//363 366//366 367//367 
f 366//366 368//368 367//367 
f 368//368 365//365 367//367 
f 365//365 363//363 367//367 
f 366//366 369//369 370//370 
f 369//369 371//371 370//370 
f 371//371 368//368 370//370 
f 368//368 366//366 370//370 
f 369//369 372//372 373//373 
f 372//372 374//374 373//373 
f 374//374 371//371 373//373 
f 371//371 369//369 373//373 
f 372//372 375//375 376//376 
f 375//375 377//377 376//376 
f 377//377 374//374 376//376 
f 374//374 372//372 376//376 
f 375//375 378//378 379//379 
f 378//378 380//380 379//379 
f 380//380 377//377 379//379 
f 377//377 375//375 379//379 
f 378//378 381//381 382//382 
f 381//381 383//383 382//382 
f 383//383 380//380 382//382 
f 380//380 378//378 382//382 
f 381//381 384//384 385//385 
f 384//384 386//386 385//385 
f 386//386 383//383 385//385 
f 383//383 381//381 385//385 
f 384//384 387//387 388//388 
f 387//387 389//389 388//388 
f 389//389 386//386 388//388 
f 386//386 384//384 388//388 
f 387//387 390//390 391//391 
f 390//390 392//392 391//391 
f 392//392 389//389 391//391 
f 389//389 387//387 391//391 
f 390//390 393//393 394//394 
f 393//393 395//395 394//394 
f 395//395 392//392 394//394 
f 392//392 390//390 394//394 
f 393//393 396//396 397//397 
f 396//396 398//398 397//397 
f 398//398 395//395 397//397 
f 395//395 393//393 397//397 
f 396//396 399//399 400//400 
f 399//399 401//401 400//400 
f 401//401 398//398 400//400 
f 398//398 396//396 400//400 
f 399//399 402//402 403//403 
f 402//402 404//404 403//403 
f 404//404 401//401 403//403 
f 401//401 399//399 403//403 
s 4
f 402//402 405//405 406//406 
f 405//405 407//407 406//406 
f 407//407 404//404 406//406 
f 404//404 402//402 406//406 
s 2
f 405//405 408//408 409//409 
f 408//408 410//410 409//409 
f 410//410 407//407 409//409 
f 407//407 405//405 409//409 
f 408//408 411//411 412//412 
f 411//411 413//413 412//412 
f 413//413 410//410 412//412 
f 410//410 408//408 412//412 
f 411//411 414//414 415//415 
f 414//414 416//416 415//415 
f 416//416 413//413 415//415 
f 413//413 411//411 415//415 
f 414//414 417//417 418//418 
f 417//417 419//419 418//418 
f 419//419 416//416 418//418 
f 416//416 414//414 418//418 
f 417//417 420//420 421//421 
f 420//420 422//422 421//421 
f 422//422 419//419 421//421 
f 419//419 417//417 421//421 
f 420//420 423//423 424//424 
f 423//423 425//425 424//424 
f 425//425 422//422 424//424 
f 422//422 420//420 424//424 
f 423//423 426//426 427//427 
f 426//426 428//428 427//427 
f 428//428 425//425 427//427 
f 425//425 423//423 427//427 
f 426//426 429//429 430//430 
f 429//429 431//431 430//430 
f 431//431 428//428 430//430 
f 428//428 426//426 430//430 
f 429//429 432//432 433//433 
f 432//432 434//434 433//433 
f 434//434 431//431 433//433 
f 431//431 429//429 433//433 
f 432//432 435//435 436//436 
f 435//435 437//437 436//436 
f 437//437 434//434 436//436 
f 434//434 432//432 436//436 
f 435//435 438//438 439//439 
f 438//438 440//440 439//439 
f 440//440 437//437 439//439 
f 437//437 435//435 439//439 
f 438//438 441//441 442//442 
f 441//441 443//443 442//442 
f 443//443 440//440 442//442 
f 440//440 438//438 442//442 
f 441//441 444//444 445//445 
f 444//444 446//446 445//445 
f 446//446 443//443 445//445 
f 443//443 441//441 445//445 
f 444//444 447//447 448//448 
f 447//447 449//449 448//448 
f 449//449 446//446 448//448 
f 446//446 444//444 448//448 
f 447//447 450//450 451//451 
f 450//450 452//452 451//451 
f 452//452 449//449 451//451 
f 449//449 447//447 451//451 
f 450//450 453//453 454//454 
f 453//453 455//455 454//454 
f 455//455 452//452 454//454 
f 452//452 450//450 454//454 
f 453//453 456//456 457//457 
f 456//456 458//458 457//457 
f 458//458 455//455 457//457 
f 455//455 453//453 457//457 
f 456//456 459//459 460//460 
f 459//459 461//461 460//460 
f 461//461 458//458 460//460 
f 458//458 456//456 460//460 
s 4
f 459//459 462//462 463//463 
f 462//462 464//464 463//463 
f 464//464 461//461 463//463 
f 461//461 459//459 463//463 
s 3
f 462//462 1//1 465//465 
f 1//1 5//5 465//465 
f 5//5 464//464 465//465 
f 464//464 462//462 465//465 
s 1
f 466//466 467//467 468//468 
f 467//467 469//469 468//468 
f 469//469 470//470 468//468 
f 470//470 466//466 468//468 
s 3
f 467//467 471//471 472//472 
f 471//471 473//473 472//472 
f 473//473 469//469 472//472 
f 469//469 467//467 472//472 
s 2
f 471//471 474//474 475//475 
f 474//474 476//476 475//475 
f 476//476 473//473 475//475 
f 473//473 471//471 475//475 
f 474//474 477//477 478//478 
f 477//477 479//479 478//478 
f 479//479 476//476 478//478 
f 476//476 474//474 478//478 
f 477//477 480//480 481//481 
f 480//480 482//482 481//481 
f 482//482 479//479 481//481 
f 479//479 477//477 481//481 
f 480//480 483//483 484//484 
f 483//483 485//485 484//484 
f 485//485 482//482 484//484 
f 482//482 480//480 484//484 
f 483//483 486//486 487//487 
f 486//486 488//488 487//487 
f 488//488 485//485 487//487 
f 485//485 483//483 487//487 
f 486//486 489//489 490//490 
f 489//489 491//491 490//490 
f 491//491 488//488 490//490 
f 488//488 486//486 490//490 
f 489//489 492//492 493//493 
f 492//492 494//494 493//493 
f 494//494 491//491 493//493 
f 491//491 489//489 493//493 
f 492//492 495//495 496//496 
f 495//495 497//497 496//496 
f 497//497 494//494 496//496 
f 494//494 492//492 496//496 
f 495//495 498//498 499//499 
f 498//498 500//500 499//499 
f 500//500 497//497 499//499 
f 497//497 495//495 499//499 
f 498//498 501//501 502//502 
f 501//501 503//503 502//502 
f 503//503 500//500 502//502 
f 500//500 498//498 502//502 
f 501//501 504//504 505//505 
f 504//504 506//506 505//505 
f 506//506 503//503 505//505 
f 503//503 501//501 505//505 
f 504//504 507//507 508//508 
f 507//507 509//509 508//508 
f 509//509 506//506 508//508 
f 506//506 504//504 508//508 
f 507//507 510//510 511//511 
f 510//510 512//512 511//511 
f 512//512 509//509 511//511 
f 509//509 507//507 511//511 
f 510//510 513//513 514//514 
f 513//513 515//515 514//514 
f 515//515 512//512 514//514 
f 512//512 510//510 514//514 
f 513//513 516//516 517//517 
f 516//516 518//518 517//517 
f 518//518 515//515 517//517 
f 515//515 513//513 517//517 
f 516//516 519//519 520//520 
f 519//519 521//521 520//520 
f 521//521 518//518 520//520 
f 518//518 516//516 520//520 
f 519//519 522//522 523//523 
f 522//522 524//524 523//523 
f 524//524 521//521 523//523 
f 521//521 519//519 523//523 
f 522//522 525//525 526//526 
f 525//525 527//527 526//526 
f 527//527 524//524 526//526 
f 524//524 522//522 526//526 
f 525//525 528//528 529//529 
f 528//528 530//530 529//529 
f 530//530 527//527 529//529 
f 527//527 525//525 529//529 
f 528//528 531//531 532//532 
f 531//531 533//533 532//532 
f 533//533 530//530 532//532 
f 530//530 528//528 532//532 
f 531//531 534//534 535//535 
f 534//534 536//536 535//535 
f 536//536 533//533 535//535 
f 533//533 531//531 535//535 
f 534//534 537//537 538//538 
f 537//537 539//539 538//538 
f 539//539 536//536 538//538 
f 536//536 534//534 538//538 
f 537//537 540//540 541//541 
f 540//540 542//542 541//541 
f 542//542 539//539 541//541 
f 539//539 537//537 541//541 
f 540//540 543//543 544//544 
f 543//543 545//545 544//544 
f 545//545 542//542 544//544 
f 542//542 540//540 544//544 
f 543//543 546//546 547//547 
f 546//546 548//548 547//547 
f 548//548 545//545 547//547 
f 545//545 543//543 547//547 
f 546//546 549//549 550//550 
f 549//549 551//551 550//550 
f 551//551 548//548 550//550 
f 548//548 546//546 550//550 
f 549//549 552//552 553//553 
f 552//552 554//554 553//553 
f 554//554 551//551 553//553 
f 551//551 549//549 553//553 
f 552//552 555//555 556//556 
f 555//555 557//557 556//556 
f 557//557 554//554 556//556 
f 554//554 552//552 556//556 
f 555//555 558//558 559//559 
f 558//558 560//560 559//559 
f 560//560 557//557 559//559 
f 557//557 555//555 559//559 
f 558//558 561//561 562//562 
f 561//561 563//563 562//562 
f 563//563 560//560 562//562 
f 560//560 558//558 562//562 
f 561//561 564//564 565//565 
f 564//564 566//566 565//565 
f 566//566 563//563 565//565 
f 563//563 561//561 565//565 
f 564//564 567//567 568//568 
f 567//567 569//569 568//568 
f 569//569 566//566 568//568 
f 566//566 564//564 568//568 
f 567//567 570//570 571//571 
f 570//570 572//572 571//571 
f 572//572 569//569 571//571 
f 569//569 567//567 571//571 
s 3
f 570//570 466//466 573//573 
f 466//466 470//470 573//573 
f 470//470 572//572 573//573 
f 572//572 570//570 573//573 
s 16
f 105//105 574//574 510//510 575//574 
f 510//510 507//507 575//574 
f 507//507 105//105 575//574 
f 347//347 350//350 576//575 
f 350//350 8//8 576//575 
f 8//8 11//11 576//575 
f 11//11 347//347 576//575 
f 507//507 504//504 577//574 
f 504//504 105//105 577//574 
f 105//105 507//507 577//574 
f 504//504 501//501 578//574 
f 501//501 105//105 578//574 
f 105//105 504//504 578//574 
f 501//501 498//498 579//574 
f 498//498 105//105 579//574 
f 105//105 501//501 579//574 
f 498//498 495//495 580//574 
f 495//495 105//105 580//574 
f 105//105 498//498 580//574 
f 495//495 492//492 581//574 
f 492//492 105//105 581//574 
f 105//105 495//495 581//574 
f 492//492 489//489 582//574 
f 489//489 132//132 582//574 
f 132//132 129//129 582//574 
f 129//129 126//126 582//574 
f 126//126 123//123 582//574 
f 123//123 120//120 582//574 
f 120//120 117//117 582//574 
f 117//117 114//114 582//574 
f 114//114 111//111 582//574 
f 111//111 108//108 582//574 
f 108//108 105//105 582//574 
f 105//105 492//492 582//574 
f 489//489 486//486 583//574 
f 486//486 135//135 583//574 
f 135//135 132//132 583//574 
f 132//132 489//489 583//574 
f 486//486 483//483 584//574 
f 483//483 138//138 584//574 
f 138//138 135//135 584//574 
f 135//135 486//486 584//574 
f 483//483 480//480 585//574 
f 480//480 141//141 585//574 
f 141//141 138//138 585//574 
f 138//138 483//483 585//574 
f 480//480 477//477 586//574 
f 477//477 144//144 586//574 
f 144//144 141//141 586//574 
f 141//141 480//480 586//574 
f 477//477 474//474 587//574 
f 474//474 147//147 587//574 
f 147//147 144//144 587//574 
f 144//144 477//477 587//574 
f 474//474 471//471 588//574 
f 471//471 153//153 588//574 
f 153//153 150//150 588//574 
f 150//150 147//147 588//574 
f 147//147 474//474 588//574 
f 471//471 467//467 589//574 
f 467//467 156//156 589//574 
f 156//156 153//153 589//574 
f 153//153 471//471 589//574 
f 467//467 466//466 590//574 
f 466//466 159//159 590//574 
f 159//159 156//156 590//574 
f 156//156 467//467 590//574 
f 466//466 570//570 591//574 
f 570//570 159//159 591//574 
f 159//159 466//466 591//574 
f 570//570 567//567 592//574 
f 567//567 162//162 592//574 
f 162//162 159//159 592//574 
f 159//159 570//570 592//574 
f 567//567 564//564 593//574 
f 564//564 165//165 593//574 
f 165//165 162//162 593//574 
f 162//162 567//567 593//574 
f 564//564 561//561 594//574 
f 561//561 168//168 594//574 
f 168//168 165//165 594//574 
f 165//165 564//564 594//574 
f 561//561 558//558 595//574 
f 558//558 171//171 595//574 
f 171//171 168//168 595//574 
f 168//168 561//561 595//574 
f 558//558 555//555 596//574 
f 555//555 174//174 596//574 
f 174//174 171//171 596//574 
f 171//171 558//558 596//574 
f 555//555 552//552 597//574 
f 552//552 177//177 597//574 
f 177//177 174//174 597//574 
f 174//174 555//555 597//574 
f 552//552 549//549 598//574 
f 549//549 180//180 598//574 
f 180//180 177//177 598//574 
f 177//177 552//552 598//574 
f 549//549 546//546 599//574 
f 546//546 180//180 599//574 
f 180//180 549//549 599//574 
f 546//546 543//543 600//574 
f 543//543 183//183 600//574 
f 183//183 180//180 600//574 
f 180//180 546//546 600//574 
f 543//543 540//540 601//574 
f 540//540 186//186 601//574 
f 186//186 183//183 601//574 
f 183//183 543//543 601//574 
f 540//540 537//537 602//574 
f 537//537 189//189 602//574 
f 189//189 186//186 602//574 
f 186//186 540//540 602//574 
f 537//537 534//534 603//574 
f 534//534 195//195 603//574 
f 195//195 192//192 603//574 
f 192//192 189//189 603//574 
f 189//189 537//537 603//574 
f 534//534 531//531 604//574 
f 531//531 198//198 604//574 
f 198//198 195//195 604//574 
f 195//195 534//534 604//574 
f 531//531 528//528 605//574 
f 528//528 204//204 605//574 
f 204//204 201//201 605//574 
f 201//201 198//198 605//574 
f 198//198 531//531 605//574 
f 528//528 525//525 606//574 
f 525//525 210//210 606//574 
f 210//210 207//207 606//574 
f 207//207 204//204 606//574 
f 204//204 528//528 606//574 
f 525//525 522//522 607//574 
f 522//522 213//213 607//574 
f 213//213 210//210 607//574 
f 210//210 525//525 607//574 
f 522//522 519//519 608//574 
f 519//519 216//216 608//574 
f 216//216 213//213 608//574 
f 213//213 522//522 608//574 
f 519//519 516//516 609//574 
f 516//516 219//219 609//574 
f 219//219 216//216 609//574 
f 216//216 519//519 609//574 
f 516//516 513//513 610//574 
f 513//513 222//222 610//574 
f 222//222 219//219 610//574 
f 219//219 516//516 610//574 
f 513//513 510//510 574//574 
f 105//105 102//102 574//574 
f 102//102 225//225 574//574 
f 225//225 222//222 574//574 
f 222//222 513//513 574//574 
f 102//102 99//99 611//574 
f 99//99 225//225 611//574 
f 225//225 102//102 611//574 
f 99//99 96//96 612//574 
f 96//96 228//228 612//574 
f 228//228 225//225 612//574 
f 225//225 99//99 612//574 
f 96//96 93//93 613//574 
f 93//93 231//231 613//574 
f 231//231 228//228 613//574 
f 228//228 96//96 613//574 
f 93//93 90//90 614//574 
f 90//90 231//231 614//574 
f 231//231 93//93 614//574 
f 90//90 87//87 615//574 
f 87//87 234//234 615//574 
f 234//234 231//231 615//574 
f 231//231 90//90 615//574 
f 87//87 84//84 616//574 
f 84//84 237//237 616//574 
f 237//237 234//234 616//574 
f 234//234 87//87 616//574 
f 84//84 81//81 617//574 
f 81//81 240//240 617//574 
f 240//240 237//237 617//574 
f 237//237 84//84 617//574 
f 81//81 78//78 618//574 
f 78//78 240//240 618//574 
f 240//240 81//81 618//574 
f 78//78 75//75 619//574 
f 75//75 246//246 619//574 
f 246//246 243//243 619//574 
f 243//243 240//240 619//574 
f 240//240 78//78 619//574 
f 75//75 72//72 620//574 
f 72//72 249//249 620//574 
f 249//249 246//246 620//574 
f 246//246 75//75 620//574 
f 72//72 69//69 621//574 
f 69//69 255//255 621//574 
f 255//255 252//252 621//574 
f 252//252 249//249 621//574 
f 249//249 72//72 621//574 
f 69//69 66//66 622//574 
f 66//66 261//261 622//574 
f 261//261 258//258 622//574 
f 258//258 255//255 622//574 
f 255//255 69//69 622//574 
f 66//66 63//63 623//574 
f 63//63 267//267 623//574 
f 267//267 264//264 623//574 
f 264//264 261//261 623//574 
f 261//261 66//66 623//574 
f 63//63 60//60 624//574 
f 60//60 273//273 624//574 
f 273//273 270//270 624//574 
f 270//270 267//267 624//574 
f 267//267 63//63 624//574 
f 60//60 57//57 625//574 
f 57//57 279//279 625//574 
f 279//279 276//276 625//574 
f 276//276 273//273 625//574 
f 273//273 60//60 625//574 
f 57//57 54//54 626//574 
f 54//54 288//288 626//574 
f 288//288 285//285 626//574 
f 285//285 282//282 626//574 
f 282//282 279//279 626//574 
f 279//279 57//57 626//574 
f 54//54 51//51 627//574 
f 51//51 294//294 627//574 
f 294//294 291//291 627//574 
f 291//291 288//288 627//574 
f 288//288 54//54 627//574 
f 51//51 48//48 628//574 
f 48//48 297//297 628//574 
f 297//297 294//294 628//574 
f 294//294 51//51 628//574 
f 48//48 45//45 629//574 
f 45//45 300//300 629//574 
f 300//300 297//297 629//574 
f 297//297 48//48 629//574 
f 45//45 42//42 630//574 
f 42//42 303//303 630//574 
f 303//303 300//300 630//574 
f 300//300 45//45 630//574 
f 42//42 39//39 631//574 
f 39//39 309//309 631//574 
f 309//309 306//306 631//574 
f 306//306 303//303 631//574 
f 303//303 42//42 631//574 
f 39//39 36//36 632//574 
f 36//36 312//312 632//574 
f 312//312 309//309 632//574 
f 309//309 39//39 632//574 
f 36//36 33//33 633//574 
f 33//33 315//315 633//574 
f 315//315 312//312 633//574 
f 312//312 36//36 633//574 
f 33//33 30//30 634//574 
f 30//30 318//318 634//574 
f 318//318 315//315 634//574 
f 315//315 33//33 634//574 
f 30//30 27//27 635//574 
f 27//27 321//321 635//574 
f 321//321 318//318 635//574 
f 318//318 30//30 635//574 
f 27//27 24//24 636//574 
f 24//24 324//324 636//574 
f 324//324 321//321 636//574 
f 321//321 27//27 636//574 
f 24//24 21//21 637//574 
f 21//21 327//327 637//574 
f 327//327 324//324 637//574 
f 324//324 24//24 637//574 
f 21//21 18//18 638//574 
f 18//18 330//330 638//574 
f 330//330 327//327 638//574 
f 327//327 21//21 638//574 
f 18//18 15//15 639//574 
f 15//15 336//336 639//574 
f 336//336 333//333 639//574 
f 333//333 330//330 639//574 
f 330//330 18//18 639//574 
f 15//15 12//12 640//574 
f 12//12 339//339 640//574 
f 339//339 336//336 640//574 
f 336//336 15//15 640//574 
f 12//12 9//9 641//574 
f 9//9 345//345 641//574 
f 345//345 342//342 641//574 
f 342//342 339//339 641//574 
f 339//339 12//12 641//574 
f 9//9 6//6 642//574 
f 6//6 348//348 642//574 
f 348//348 345//345 642//574 
f 345//345 9//9 642//574 
f 6//6 2//2 643//574 
f 2//2 453//453 643//574 
f 453//453 450//450 643//574 
f 450//450 348//348 643//574 
f 348//348 6//6 643//574 
f 2//2 1//1 644//574 
f 1//1 453//453 644//574 
f 453//453 2//2 644//574 
f 450//450 447//447 645//574 
f 447//447 354//354 645//574 
f 354//354 351//351 645//574 
f 351//351 348//348 645//574 
f 348//348 450//450 645//574 
f 447//447 444//444 646//574 
f 444//444 360//360 646//574 
f 360//360 357//357 646//574 
f 357//357 354//354 646//574 
f 354//354 447//447 646//574 
f 444//444 441//441 647//574 
f 441//441 366//366 647//574 
f 366//366 363//363 647//574 
f 363//363 360//360 647//574 
f 360//360 444//444 647//574 
f 441//441 438//438 648//574 
f 438//438 369//369 648//574 
f 369//369 366//366 648//574 
f 366//366 441//441 648//574 
f 438//438 435//435 649//574 
f 435//435 375//375 649//574 
f 375//375 372//372 649//574 
f 372//372 369//369 649//574 
f 369//369 438//438 649//574 
f 435//435 432//432 650//574 
f 432//432 381//381 650//574 
f 381//381 378//378 650//574 
f 378//378 375//375 650//574 
f 375//375 435//435 650//574 
f 432//432 429//429 651//574 
f 429//429 384//384 651//574 
f 384//384 381//381 651//574 
f 381//381 432//432 651//574 
f 429//429 426//426 652//574 
f 426//426 387//387 652//574 
f 387//387 384//384 652//574 
f 384//384 429//429 652//574 
f 426//426 423//423 653//574 
f 423//423 393//393 653//574 
f 393//393 390//390 653//574 
f 390//390 387//387 653//574 
f 387//387 426//426 653//574 
f 423//423 420//420 654//574 
f 420//420 399//399 654//574 
f 399//399 396//396 654//574 
f 396//396 393//393 654//574 
f 393//393 423//423 654//574 
f 420//420 417//417 655//574 
f 417//417 402//402 655//574 
f 402//402 399//399 655//574 
f 399//399 420//420 655//574 
f 417//417 414//414 656//574 
f 414//414 402//402 656//574 
f 402//402 417//417 656//574 
f 414//414 411//411 657//574 
f 411//411 402//402 657//574 
f 402//402 414//414 657//574 
f 411//411 408//408 658//574 
f 408//408 402//402 658//574 
f 402//402 411//411 658//574 
f 408//408 405//405 659//574 
f 405//405 402//402 659//574 
f 402//402 408//408 659//574 
f 1//1 462//462 660//574 
f 462//462 459//459 660//574 
f 459//459 456//456 660//574 
f 456//456 1//1 660//574 
f 456//456 453//453 661//574 
f 453//453 1//1 661//574 
f 1//1 456//456 661//574 
f 404//404 407//407 662//575 
f 407//407 410//410 662//575 
f 410//410 404//404 662//575 
f 455//455 458//458 663//575 
f 458//458 5//5 663//575 
f 5//5 4//4 663//575 
f 4//4 455//455 663//575 
f 11//11 14//14 664//575 
f 14//14 341//341 664//575 
f 341//341 344//344 664//575 
f 344//344 347//347 664//575 
f 347//347 11//11 664//575 
f 14//14 17//17 665//575 
f 17//17 338//338 665//575 
f 338//338 341//341 665//575 
f 341//341 14//14 665//575 
f 17//17 20//20 666//575 
f 20//20 332//332 666//575 
f 332//332 335//335 666//575 
f 335//335 338//338 666//575 
f 338//338 17//17 666//575 
f 20//20 23//23 667//575 
f 23//23 329//329 667//575 
f 329//329 332//332 667//575 
f 332//332 20//20 667//575 
f 23//23 26//26 668//575 
f 26//26 326//326 668//575 
f 326//326 329//329 668//575 
f 329//329 23//23 668//575 
f 26//26 29//29 669//575 
f 29//29 323//323 669//575 
f 323//323 326//326 669//575 
f 326//326 26//26 669//575 
f 29//29 32//32 670//575 
f 32//32 320//320 670//575 
f 320//320 323//323 670//575 
f 323//323 29//29 670//575 
f 32//32 35//35 671//575 
f 35//35 317//317 671//575 
f 317//317 320//320 671//575 
f 320//320 32//32 671//575 
f 35//35 38//38 672//575 
f 38//38 314//314 672//575 
f 314//314 317//317 672//575 
f 317//317 35//35 672//575 
f 38//38 41//41 673//575 
f 41//41 311//311 673//575 
f 311//311 314//314 673//575 
f 314//314 38//38 673//575 
f 41//41 44//44 674//575 
f 44//44 305//305 674//575 
f 305//305 308//308 674//575 
f 308//308 311//311 674//575 
f 311//311 41//41 674//575 
f 44//44 47//47 675//575 
f 47//47 302//302 675//575 
f 302//302 305//305 675//575 
f 305//305 44//44 675//575 
f 47//47 50//50 676//575 
f 50//50 299//299 676//575 
f 299//299 302//302 676//575 
f 302//302 47//47 676//575 
f 50//50 53//53 677//575 
f 53//53 296//296 677//575 
f 296//296 299//299 677//575 
f 299//299 50//50 677//575 
f 53//53 56//56 678//575 
f 56//56 290//290 678//575 
f 290//290 293//293 678//575 
f 293//293 296//296 678//575 
f 296//296 53//53 678//575 
f 56//56 59//59 679//575 
f 59//59 281//281 679//575 
f 281//281 284//284 679//575 
f 284//284 287//287 679//575 
f 287//287 290//290 679//575 
f 290//290 56//56 679//575 
f 59//59 62//62 680//575 
f 62//62 275//275 680//575 
f 275//275 278//278 680//575 
f 278//278 281//281 680//575 
f 281//281 59//59 680//575 
f 62//62 65//65 681//575 
f 65//65 269//269 681//575 
f 269//269 272//272 681//575 
f 272//272 275//275 681//575 
f 275//275 62//62 681//575 
f 65//65 68//68 682//575 
f 68//68 263//263 682//575 
f 263//263 266//266 682//575 
f 266//266 269//269 682//575 
f 269//269 65//65 682//575 
f 68//68 71//71 683//575 
f 71//71 257//257 683//575 
f 257//257 260//260 683//575 
f 260//260 263//263 683//575 
f 263//263 68//68 683//575 
f 71//71 74//74 684//575 
f 74//74 251//251 684//575 
f 251//251 254//254 684//575 
f 254//254 257//257 684//575 
f 257//257 71//71 684//575 
f 74//74 77//77 685//575 
f 77//77 248//248 685//575 
f 248//248 251//251 685//575 
f 251//251 74//74 685//575 
f 77//77 80//80 686//575 
f 80//80 242//242 686//575 
f 242//242 245//245 686//575 
f 245//245 248//248 686//575 
f 248//248 77//77 686//575 
f 80//80 83//83 687//575 
f 83//83 242//242 687//575 
f 242//242 80//80 687//575 
f 83//83 86//86 688//575 
f 86//86 239//239 688//575 
f 239//239 242//242 688//575 
f 242//242 83//83 688//575 
f 86//86 89//89 689//575 
f 89//89 236//236 689//575 
f 236//236 239//239 689//575 
f 239//239 86//86 689//575 
f 89//89 92//92 690//575 
f 92//92 233//233 690//575 
f 233//233 236//236 690//575 
f 236//236 89//89 690//575 
f 92//92 95//95 691//575 
f 95//95 233//233 691//575 
f 233//233 92//92 691//575 
f 95//95 98//98 692//575 
f 98//98 230//230 692//575 
f 230//230 233//233 692//575 
f 233//233 95//95 692//575 
f 98//98 101//101 693//575 
f 101//101 227//227 693//575 
f 227//227 230//230 693//575 
f 230//230 98//98 693//575 
f 101//101 104//104 694//575 
f 104//104 227//227 694//575 
f 227//227 101//101 694//575 
f 104//104 107//107 695//575 
f 512//512 515//515 695//575 
f 515//515 224//224 695//575 
f 224//224 227//227 695//575 
f 227//227 104//104 695//575 
f 515//515 518//518 696//575 
f 518//518 221//221 696//575 
f 221//221 224//224 696//575 
f 224//224 515//515 696//575 
f 518//518 521//521 697//575 
f 521//521 218//218 697//575 
f 218//218 221//221 697//575 
f 221//221 518//518 697//575 
f 521//521 524//524 698//575 
f 524//524 215//215 698//575 
f 215//215 218//218 698//575 
f 218//218 521//521 698//575 
f 524//524 527//527 699//575 
f 527//527 212//212 699//575 
f 212//212 215//215 699//575 
f 215//215 524//524 699//575 
f 527//527 530//530 700//575 
f 530//530 206//206 700//575 
f 206//206 209//209 700//575 
f 209//209 212//212 700//575 
f 212//212 527//527 700//575 
f 530//530 533//533 701//575 
f 533//533 200//200 701//575 
f 200//200 203//203 701//575 
f 203//203 206//206 701//575 
f 206//206 530//530 701//575 
f 533//533 536//536 702//575 
f 536//536 197//197 702//575 
f 197//197 200//200 702//575 
f 200//200 533//533 702//575 
f 536//536 539//539 703//575 
f 539//539 191//191 703//575 
f 191//191 194//194 703//575 
f 194//194 197//197 703//575 
f 197//197 536//536 703//575 
f 539//539 542//542 704//575 
f 542//542 188//188 704//575 
f 188//188 191//191 704//575 
f 191//191 539//539 704//575 
f 542//542 545//545 705//575 
f 545//545 185//185 705//575 
f 185//185 188//188 705//575 
f 188//188 542//542 705//575 
f 545//545 548//548 706//575 
f 548//548 182//182 706//575 
f 182//182 185//185 706//575 
f 185//185 545//545 706//575 
f 548//548 551//551 707//575 
f 551//551 182//182 707//575 
f 182//182 548//548 707//575 
f 551//551 554//554 708//575 
f 554//554 179//179 708//575 
f 179//179 182//182 708//575 
f 182//182 551//551 708//575 
f 554//554 557//557 709//575 
f 557//557 176//176 709//575 
f 176//176 179//179 709//575 
f 179//179 554//554 709//575 
f 557//557 560//560 710//575 
f 560//560 173//173 710//575 
f 173//173 176//176 710//575 
f 176//176 557//557 710//575 
f 560//560 563//563 711//575 
f 563//563 170//170 711//575 
f 170//170 173//173 711//575 
f 173//173 560//560 711//575 
f 563//563 566//566 712//575 
f 566//566 167//167 712//575 
f 167//167 170//170 712//575 
f 170//170 563//563 712//575 
f 566//566 569//569 713//575 
f 569//569 164//164 713//575 
f 164//164 167//167 713//575 
f 167//167 566//566 713//575 
f 569//569 572//572 714//575 
f 572//572 161//161 714//575 
f 161//161 164//164 714//575 
f 164//164 569//569 714//575 
f 572//572 470//470 715//575 
f 470//470 161//161 715//575 
f 161//161 572//572 715//575 
f 470//470 469//469 716//575 
f 469//469 158//158 716//575 
f 158//158 161//161 716//575 
f 161//161 470//470 716//575 
f 469//469 473//473 717//575 
f 473//473 155//155 717//575 
f 155//155 158//158 717//575 
f 158//158 469//469 717//575 
f 473//473 476//476 718//575 
f 476//476 149//149 718//575 
f 149//149 152//152 718//575 
f 152//152 155//155 718//575 
f 155//155 473//473 718//575 
f 476//476 479//479 719//575 
f 479//479 146//146 719//575 
f 146//146 149//149 719//575 
f 149//149 476//476 719//575 
f 479//479 482//482 720//575 
f 482//482 143//143 720//575 
f 143//143 146//146 720//575 
f 146//146 479//479 720//575 
f 482//482 485//485 721//575 
f 485//485 140//140 721//575 
f 140//140 143//143 721//575 
f 143//143 482//482 721//575 
f 485//485 488//488 722//575 
f 488//488 137//137 722//575 
f 137//137 140//140 722//575 
f 140//140 485//485 722//575 
f 488//488 491//491 723//575 
f 491//491 134//134 723//575 
f 134//134 137//137 723//575 
f 137//137 488//488 723//575 
f 491//491 494//494 724//575 
f 494//494 107//107 724//575 
f 107//107 110//110 724//575 
f 110//110 113//113 724//575 
f 113//113 116//116 724//575 
f 116//116 119//119 724//575 
f 119//119 122//122 724//575 
f 122//122 125//125 724//575 
f 125//125 128//128 724//575 
f 128//128 131//131 724//575 
f 131//131 134//134 724//575 
f 134//134 491//491 724//575 
f 494//494 497//497 725//575 
f 497//497 107//107 725//575 
f 107//107 494//494 725//575 
f 497//497 500//500 726//575 
f 500//500 107//107 726//575 
f 107//107 497//497 726//575 
f 500//500 503//503 727//575 
f 503//503 107//107 727//575 
f 107//107 500//500 727//575 
f 503//503 506//506 728//575 
f 506//506 107//107 728//575 
f 107//107 503//503 728//575 
f 506//506 509//509 729//575 
f 509//509 107//107 729//575 
f 107//107 506//506 729//575 
f 509//509 512//512 730//575 
f 512//512 695//575 107//107 730//575 
f 107//107 509//509 730//575 
f 458//458 461//461 731//575 
f 461//461 464//464 731//575 
f 464//464 5//5 731//575 
f 5//5 458//458 731//575 
f 4//4 8//8 732//575 
f 8//8 350//350 732//575 
f 350//350 455//455 732//575 
f 455//455 4//4 732//575 
f 410//410 413//413 733//575 
f 413//413 404//404 733//575 
f 404//404 410//410 733//575 
f 413//413 416//416 734//575 
f 416//416 404//404 734//575 
f 404//404 413//413 734//575 
f 416//416 419//419 735//575 
f 419//419 404//404 735//575 
f 404//404 416//416 735//575 
f 419//419 422//422 736//575 
f 422//422 401//401 736//575 
f 401//401 404//404 736//575 
f 404//404 419//419 736//575 
f 422//422 425//425 737//575 
f 425//425 395//395 737//575 
f 395//395 398//398 737//575 
f 398//398 401//401 737//575 
f 401//401 422//422 737//575 
f 425//425 428//428 738//575 
f 428//428 389//389 738//575 
f 389//389 392//392 738//575 
f 392//392 395//395 738//575 
f 395//395 425//425 738//575 
f 428//428 431//431 739//575 
f 431//431 386//386 739//575 
f 386//386 389//389 739//575 
f 389//389 428//428 739//575 
f 431//431 434//434 740//575 
f 434//434 383//383 740//575 
f 383//383 386//386 740//575 
f 386//386 431//431 740//575 
f 434//434 437//437 741//575 
f 437//437 377//377 741//575 
f 377//377 380//380 741//575 
f 380//380 383//383 741//575 
f 383//383 434//434 741//575 
f 437//437 440//440 742//575 
f 440//440 371//371 742//575 
f 371//371 374//374 742//575 
f 374//374 377//377 742//575 
f 377//377 437//437 742//575 
f 440//440 443//443 743//575 
f 443//443 368//368 743//575 
f 368//368 371//371 743//575 
f 371//371 440//440 743//575 
f 443//443 446//446 744//575 
f 446//446 362//362 744//575 
f 362//362 365//365 744//575 
f 365//365 368//368 744//575 
f 368//368 443//443 744//575 
f 446//446 449//449 745//575 
f 449//449 356//356 745//575 
f 356//356 359//359 745//575 
f 359//359 362//362 745//575 
f 362//362 446//446 745//575 
f 449//449 452//452 746//575 
f 452//452 350//350 746//575 
f 350//350 353//353 746//575 
f 353//353 356//356 746//575 
f 356//356 449//449 746//575 
f 452//452 455//455 747//575 
f 455//455 350//350 747//575 
f 350//350 452//452 747//575 
# 2 polygons - 1490 triangles

