# 3ds Max Wavefront OBJ Exporter v0.97b - (c)2007 guruware
# File Created: 25.01.2021 00:21:33

#
# object Ngo_Nguu
#

v  135.5362 10.0000 -25.0287
v  134.9956 10.0000 -25.1405
v  135.1758 6.6667 -25.1032
v  134.9956 0.0000 -25.1405
v  135.5362 0.0000 -25.0287
v  135.3560 3.3333 -25.0660
v  136.0322 10.0000 -24.8800
v  135.7015 6.6667 -24.9791
v  136.0322 0.0000 -24.8800
v  135.8668 3.3333 -24.9296
v  136.4834 10.0000 -24.6944
v  136.1826 6.6667 -24.8181
v  136.4834 0.0000 -24.6944
v  136.3330 3.3333 -24.7563
v  136.8901 10.0000 -24.4719
v  136.6190 6.6667 -24.6202
v  136.8901 0.0000 -24.4719
v  136.7545 3.3333 -24.5461
v  137.2520 10.0000 -24.2125
v  137.0107 6.6667 -24.3854
v  137.2520 0.0000 -24.2125
v  137.1314 3.3333 -24.2990
v  137.5693 10.0000 -23.9162
v  137.3578 6.6667 -24.1138
v  137.5693 0.0000 -23.9162
v  137.4636 3.3333 -24.0150
v  137.8420 10.0000 -23.5831
v  137.6602 6.6667 -23.8052
v  137.8420 0.0000 -23.5831
v  137.7511 3.3333 -23.6941
v  138.0700 10.0000 -23.2130
v  137.9180 6.6667 -23.4597
v  138.0700 0.0000 -23.2130
v  137.9940 3.3333 -23.3363
v  138.2533 10.0000 -22.8060
v  138.1311 6.6667 -23.0773
v  138.2533 0.0000 -22.8060
v  138.1922 3.3333 -22.9417
v  142.7688 10.0000 -11.6116
v  139.7585 6.6667 -19.0746
v  142.7688 0.0000 -11.6116
v  141.2636 3.3333 -15.3431
v  143.4379 10.0000 -10.2436
v  142.9918 6.6667 -11.1556
v  143.4379 0.0000 -10.2436
v  143.2149 3.3333 -10.6996
v  144.2423 10.0000 -9.0366
v  143.7060 6.6667 -9.8413
v  144.2423 0.0000 -9.0366
v  143.9742 3.3333 -9.4390
v  145.1818 10.0000 -7.9905
v  144.5555 6.6667 -8.6879
v  145.1818 0.0000 -7.9905
v  144.8686 3.3333 -8.3392
v  146.2566 10.0000 -7.1054
v  145.5401 6.6667 -7.6955
v  146.2566 0.0000 -7.1054
v  145.8983 3.3333 -7.4004
v  147.4666 10.0000 -6.3812
v  146.6599 6.6667 -6.8640
v  147.4666 0.0000 -6.3812
v  147.0633 3.3333 -6.6226
v  148.8118 10.0000 -5.8179
v  147.9150 6.6667 -6.1934
v  148.8118 0.0000 -5.8179
v  148.3634 3.3333 -6.0057
v  150.2923 10.0000 -5.4156
v  149.3053 6.6667 -5.6838
v  150.2923 0.0000 -5.4156
v  149.7988 3.3333 -5.5497
v  151.9079 10.0000 -5.1742
v  150.8308 6.6667 -5.3351
v  151.9079 0.0000 -5.1742
v  151.3694 3.3333 -5.2546
v  153.6588 10.0000 -5.0937
v  152.4916 6.6667 -5.1473
v  153.6588 0.0000 -5.0937
v  153.0752 3.3333 -5.1205
v  154.8550 10.0000 -5.1326
v  154.0576 6.6667 -5.1067
v  154.8550 0.0000 -5.1326
v  154.4563 3.3333 -5.1196
v  156.0095 10.0000 -5.2495
v  155.2398 6.6667 -5.1716
v  156.0095 0.0000 -5.2495
v  155.6247 3.3333 -5.2105
v  157.1224 10.0000 -5.4442
v  156.3805 6.6667 -5.3144
v  157.1224 0.0000 -5.4442
v  156.7514 3.3333 -5.3793
v  158.1936 10.0000 -5.7168
v  157.4795 6.6667 -5.5351
v  158.1936 0.0000 -5.7168
v  157.8365 3.3333 -5.6259
v  159.2232 10.0000 -6.0673
v  158.5368 6.6667 -5.8336
v  159.2232 0.0000 -6.0673
v  158.8800 3.3333 -5.9505
v  160.2111 10.0000 -6.4957
v  159.5525 6.6667 -6.2101
v  160.2111 0.0000 -6.4957
v  159.8818 3.3333 -6.3529
v  161.1574 10.0000 -7.0020
v  160.5266 6.6667 -6.6645
v  161.1574 0.0000 -7.0020
v  160.8420 3.3333 -6.8332
v  162.0621 10.0000 -7.5862
v  161.4590 6.6667 -7.1967
v  162.0621 0.0000 -7.5862
v  161.7605 3.3333 -7.3915
v  162.9250 10.0000 -8.2482
v  162.3497 6.6667 -7.8069
v  162.9250 0.0000 -8.2482
v  162.6374 3.3333 -8.0276
v  163.7204 10.0000 -8.9904
v  163.1902 6.6667 -8.4956
v  163.7204 0.0000 -8.9904
v  163.4553 3.3333 -8.7430
v  164.4222 10.0000 -9.8149
v  163.9543 6.6667 -9.2652
v  164.4222 0.0000 -9.8149
v  164.1883 3.3333 -9.5401
v  165.0305 10.0000 -10.7216
v  164.6250 6.6667 -10.1171
v  165.0305 0.0000 -10.7216
v  164.8277 3.3333 -10.4194
v  165.5451 10.0000 -11.7107
v  165.2020 6.6667 -11.0513
v  165.5451 0.0000 -11.7107
v  165.3736 3.3333 -11.3810
v  165.9662 10.0000 -12.7821
v  165.6855 6.6667 -12.0678
v  165.9662 0.0000 -12.7821
v  165.8258 3.3333 -12.4250
v  166.2937 10.0000 -13.9357
v  166.0754 6.6667 -13.1666
v  166.2937 0.0000 -13.9357
v  166.1845 3.3333 -13.5512
v  166.5276 10.0000 -15.1717
v  166.3717 6.6667 -14.3477
v  166.5276 0.0000 -15.1717
v  166.4497 3.3333 -14.7597
v  166.6680 10.0000 -16.4900
v  166.5744 6.6667 -15.6111
v  166.6680 0.0000 -16.4900
v  166.6212 3.3333 -16.0506
v  166.7148 10.0000 -17.8905
v  166.6836 6.6667 -16.9568
v  166.7148 0.0000 -17.8905
v  166.6992 3.3333 -17.4237
v  166.7148 10.0000 -43.3660
v  166.7148 6.6667 -26.3824
v  166.7148 0.0000 -43.3660
v  166.7148 3.3333 -34.8742
v  166.5812 10.0000 -45.7746
v  166.6703 6.6667 -44.1689
v  166.5812 0.0000 -45.7746
v  166.6257 3.3333 -44.9717
v  166.1802 10.0000 -47.8998
v  166.4475 6.6667 -46.4830
v  166.1802 0.0000 -47.8998
v  166.3139 3.3333 -47.1914
v  165.5121 10.0000 -49.7417
v  165.9575 6.6667 -48.5138
v  165.5121 0.0000 -49.7417
v  165.7348 3.3333 -49.1277
v  164.5766 10.0000 -51.3002
v  165.2002 6.6667 -50.2612
v  164.5766 0.0000 -51.3002
v  164.8884 3.3333 -50.7807
v  163.3739 10.0000 -52.5753
v  164.1757 6.6667 -51.7252
v  163.3739 0.0000 -52.5753
v  163.7748 3.3333 -52.1502
v  161.9039 10.0000 -53.5670
v  162.8839 6.6667 -52.9059
v  161.9039 0.0000 -53.5670
v  162.3939 3.3333 -53.2365
v  160.1666 10.0000 -54.2755
v  161.3248 6.6667 -53.8032
v  160.1666 0.0000 -54.2755
v  160.7457 3.3333 -54.0393
v  158.1620 10.0000 -54.7005
v  159.4984 6.6667 -54.4171
v  158.1620 0.0000 -54.7005
v  158.8302 3.3333 -54.5588
v  155.8902 10.0000 -54.8422
v  157.4047 6.6667 -54.7477
v  155.8902 0.0000 -54.8422
v  156.6474 3.3333 -54.7950
v  155.0256 10.0000 -54.8109
v  155.6020 6.6667 -54.8317
v  155.0256 0.0000 -54.8109
v  155.3138 3.3333 -54.8213
v  154.1952 10.0000 -54.7169
v  154.7488 6.6667 -54.7795
v  154.1952 0.0000 -54.7169
v  154.4720 3.3333 -54.7482
v  153.3989 10.0000 -54.5603
v  153.9298 6.6667 -54.6647
v  153.3989 0.0000 -54.5603
v  153.6643 3.3333 -54.6125
v  152.6367 10.0000 -54.3410
v  153.1448 6.6667 -54.4872
v  152.6367 0.0000 -54.3410
v  152.8907 3.3333 -54.4141
v  151.9085 10.0000 -54.0592
v  152.3940 6.6667 -54.2471
v  151.9085 0.0000 -54.0592
v  152.1512 3.3333 -54.1531
v  151.2145 10.0000 -53.7146
v  151.6772 6.6667 -53.9443
v  151.2145 0.0000 -53.7146
v  151.4459 3.3333 -53.8295
v  150.5546 10.0000 -53.3075
v  150.9945 6.6667 -53.5789
v  150.5546 0.0000 -53.3075
v  150.7746 3.3333 -53.4432
v  149.9288 10.0000 -52.8377
v  150.3460 6.6667 -53.1509
v  149.9288 0.0000 -52.8377
v  150.1374 3.3333 -52.9943
v  149.3370 10.0000 -52.3052
v  149.7315 6.6667 -52.6602
v  149.3370 0.0000 -52.3052
v  149.5343 3.3333 -52.4827
v  148.7943 10.0000 -51.7219
v  149.1561 6.6667 -52.1108
v  148.7943 0.0000 -51.7219
v  148.9752 3.3333 -51.9163
v  148.3154 10.0000 -51.0995
v  148.6347 6.6667 -51.5144
v  148.3154 0.0000 -51.0995
v  148.4750 3.3333 -51.3069
v  147.9003 10.0000 -50.4379
v  148.1770 6.6667 -50.8790
v  147.9003 0.0000 -50.4379
v  148.0387 3.3333 -50.6584
v  147.5492 10.0000 -49.7373
v  147.7833 6.6667 -50.2044
v  147.5492 0.0000 -49.7373
v  147.6662 3.3333 -49.9708
v  147.2618 10.0000 -48.9976
v  147.4534 6.6667 -49.4907
v  147.2618 0.0000 -48.9976
v  147.3576 3.3333 -49.2442
v  147.0383 10.0000 -48.2187
v  147.1873 6.6667 -48.7380
v  147.0383 0.0000 -48.2187
v  147.1128 3.3333 -48.4784
v  146.8787 10.0000 -47.4008
v  146.9851 6.6667 -47.9461
v  146.8787 0.0000 -47.4008
v  146.9319 3.3333 -47.6735
v  146.7829 10.0000 -46.5438
v  146.8468 6.6667 -47.1152
v  146.7829 0.0000 -46.5438
v  146.8148 3.3333 -46.8295
v  146.7510 10.0000 -45.6477
v  146.7723 6.6667 -46.2451
v  146.7510 0.0000 -45.6477
v  146.7616 3.3333 -45.9464
v  146.8762 10.0000 -43.7929
v  146.7927 6.6667 -45.0294
v  146.8762 0.0000 -43.7929
v  146.8345 3.3333 -44.4112
v  147.2519 10.0000 -42.1564
v  147.0014 6.6667 -43.2474
v  147.2519 0.0000 -42.1564
v  147.1266 3.3333 -42.7019
v  147.8780 10.0000 -40.7381
v  147.4606 6.6667 -41.6836
v  147.8780 0.0000 -40.7381
v  147.6693 3.3333 -41.2108
v  148.7545 10.0000 -39.5379
v  148.1702 6.6667 -40.3380
v  148.7545 0.0000 -39.5379
v  148.4623 3.3333 -39.9380
v  149.8815 10.0000 -38.5560
v  149.1302 6.6667 -39.2106
v  149.8815 0.0000 -38.5560
v  149.5059 3.3333 -38.8833
v  151.2590 10.0000 -37.7923
v  150.3407 6.6667 -38.3014
v  151.2590 0.0000 -37.7923
v  150.7998 3.3333 -38.0469
v  152.8868 10.0000 -37.2468
v  151.8016 6.6667 -37.6104
v  152.8868 0.0000 -37.2468
v  152.3442 3.3333 -37.4286
v  154.7651 10.0000 -36.9195
v  153.5129 6.6667 -37.1377
v  154.7651 0.0000 -36.9195
v  154.1390 3.3333 -37.0286
v  156.8939 10.0000 -36.8104
v  155.4747 6.6667 -36.8831
v  156.8939 0.0000 -36.8104
v  156.1843 3.3333 -36.8467
v  156.8939 10.0000 -17.4453
v  156.8939 6.6667 -30.3553
v  156.8939 0.0000 -17.4453
v  156.8939 3.3333 -23.9003
v  156.8490 10.0000 -16.3059
v  156.8789 6.6667 -17.0655
v  156.8490 0.0000 -16.3059
v  156.8639 3.3333 -16.6857
v  156.7141 10.0000 -15.3006
v  156.8040 6.6667 -15.9708
v  156.7141 0.0000 -15.3006
v  156.7591 3.3333 -15.6357
v  156.4894 10.0000 -14.4294
v  156.6392 6.6667 -15.0102
v  156.4894 0.0000 -14.4294
v  156.5643 3.3333 -14.7198
v  156.1749 10.0000 -13.6921
v  156.3846 6.6667 -14.1836
v  156.1749 0.0000 -13.6921
v  156.2797 3.3333 -13.9379
v  155.7704 10.0000 -13.0889
v  156.0400 6.6667 -13.4911
v  155.7704 0.0000 -13.0889
v  155.9052 3.3333 -13.2900
v  155.2761 10.0000 -12.6198
v  155.6056 6.6667 -12.9326
v  155.2761 0.0000 -12.6198
v  155.4409 3.3333 -12.7762
v  154.6919 10.0000 -12.2847
v  155.0813 6.6667 -12.5081
v  154.6919 0.0000 -12.2847
v  154.8866 3.3333 -12.3964
v  154.0178 10.0000 -12.0836
v  154.4672 6.6667 -12.2177
v  154.0178 0.0000 -12.0836
v  154.2425 3.3333 -12.1507
v  153.2538 10.0000 -12.0166
v  153.7631 6.6667 -12.0613
v  153.2538 0.0000 -12.0166
v  153.5085 3.3333 -12.0390
v  152.7546 10.0000 -12.0377
v  153.0874 6.6667 -12.0236
v  152.7546 0.0000 -12.0377
v  152.9210 3.3333 -12.0307
v  152.2899 10.0000 -12.1010
v  152.5997 6.6667 -12.0588
v  152.2899 0.0000 -12.1010
v  152.4448 3.3333 -12.0799
v  151.8598 10.0000 -12.2064
v  152.1465 6.6667 -12.1361
v  151.8598 0.0000 -12.2064
v  152.0031 3.3333 -12.1713
v  151.4642 10.0000 -12.3540
v  151.7279 6.6667 -12.2556
v  151.4642 0.0000 -12.3540
v  151.5961 3.3333 -12.3048
v  151.1032 10.0000 -12.5438
v  151.3439 6.6667 -12.4173
v  151.1032 0.0000 -12.5438
v  151.2235 3.3333 -12.4805
v  150.7768 10.0000 -12.7758
v  150.9944 6.6667 -12.6211
v  150.7768 0.0000 -12.7758
v  150.8856 3.3333 -12.6984
v  150.4849 10.0000 -13.0499
v  150.6795 6.6667 -12.8671
v  150.4849 0.0000 -13.0499
v  150.5822 3.3333 -12.9585
v  150.2276 10.0000 -13.3662
v  150.3992 6.6667 -13.1553
v  150.2276 0.0000 -13.3662
v  150.3134 3.3333 -13.2608
v  150.0049 10.0000 -13.7247
v  150.1534 6.6667 -13.4857
v  150.0049 0.0000 -13.7247
v  150.0792 3.3333 -13.6052
v  149.7814 10.0000 -14.1750
v  149.9304 6.6667 -13.8748
v  149.7814 0.0000 -14.1750
v  149.8559 3.3333 -14.0249
v  149.5218 10.0000 -14.7666
v  149.6949 6.6667 -14.3722
v  149.5218 0.0000 -14.7666
v  149.6083 3.3333 -14.5694
v  149.2261 10.0000 -15.4996
v  149.4232 6.6667 -15.0109
v  149.2261 0.0000 -15.4996
v  149.3246 3.3333 -15.2553
v  148.8942 10.0000 -16.3740
v  149.1154 6.6667 -15.7911
v  148.8942 0.0000 -16.3740
v  149.0048 3.3333 -16.0825
v  148.5262 10.0000 -17.3897
v  148.7715 6.6667 -16.7126
v  148.5262 0.0000 -17.3897
v  148.6489 3.3333 -17.0511
v  148.1221 10.0000 -18.5468
v  148.3915 6.6667 -17.7754
v  148.1221 0.0000 -18.5468
v  148.2568 3.3333 -18.1611
v  147.6819 10.0000 -19.8453
v  147.9754 6.6667 -18.9797
v  147.6819 0.0000 -19.8453
v  147.8286 3.3333 -19.4125
v  147.2056 10.0000 -21.2852
v  147.5231 6.6667 -20.3253
v  147.2056 0.0000 -21.2852
v  147.3643 3.3333 -20.8052
v  146.6931 10.0000 -22.8664
v  147.0348 6.6667 -21.8122
v  146.6931 0.0000 -22.8664
v  146.8640 3.3333 -22.3393
v  146.2316 10.0000 -24.2295
v  146.5393 6.6667 -23.3208
v  146.2316 0.0000 -24.2295
v  146.3854 3.3333 -23.7751
v  145.7581 10.0000 -25.4957
v  146.0738 6.6667 -24.6515
v  145.7581 0.0000 -25.4957
v  145.9160 3.3333 -25.0736
v  145.2728 10.0000 -26.6650
v  145.5964 6.6667 -25.8854
v  145.2728 0.0000 -26.6650
v  145.4346 3.3333 -26.2752
v  144.7756 10.0000 -27.7373
v  145.1071 6.6667 -27.0224
v  144.7756 0.0000 -27.7373
v  144.9413 3.3333 -27.3799
v  144.2664 10.0000 -28.7128
v  144.6059 6.6667 -28.0625
v  144.2664 0.0000 -28.7128
v  144.4361 3.3333 -28.3877
v  143.7454 10.0000 -29.5914
v  144.0928 6.6667 -29.0057
v  143.7454 0.0000 -29.5914
v  143.9191 3.3333 -29.2986
v  143.2125 10.0000 -30.3731
v  143.5678 6.6667 -29.8520
v  143.2125 0.0000 -30.3731
v  143.3901 3.3333 -30.1126
v  142.6677 10.0000 -31.0579
v  143.0309 6.6667 -30.6014
v  142.6677 0.0000 -31.0579
v  142.8493 3.3333 -30.8297
v  142.1110 10.0000 -31.6458
v  142.4821 6.6667 -31.2539
v  142.1110 0.0000 -31.6458
v  142.2965 3.3333 -31.4499
v  141.5170 10.0000 -32.1553
v  141.9130 6.6667 -31.8157
v  141.5170 0.0000 -32.1553
v  141.7150 3.3333 -31.9855
v  140.8605 10.0000 -32.6049
v  141.2982 6.6667 -32.3052
v  140.8605 0.0000 -32.6049
v  141.0793 3.3333 -32.4550
v  140.1414 10.0000 -32.9945
v  140.6208 6.6667 -32.7347
v  140.1414 0.0000 -32.9945
v  140.3811 3.3333 -32.8646
v  139.3597 10.0000 -33.3241
v  139.8808 6.6667 -33.1044
v  139.3597 0.0000 -33.3241
v  139.6203 3.3333 -33.2143
v  138.5154 10.0000 -33.5939
v  139.0783 6.6667 -33.4141
v  138.5154 0.0000 -33.5939
v  138.7969 3.3333 -33.5040
v  137.6086 10.0000 -33.8037
v  138.2132 6.6667 -33.6638
v  137.6086 0.0000 -33.8037
v  137.9109 3.3333 -33.7337
v  136.6392 10.0000 -33.9535
v  137.2855 6.6667 -33.8536
v  136.6392 0.0000 -33.9535
v  136.9623 3.3333 -33.9036
v  135.6072 10.0000 -34.0434
v  136.2952 6.6667 -33.9835
v  135.6072 0.0000 -34.0434
v  135.9512 3.3333 -34.0135
v  134.5126 10.0000 -34.0734
v  135.2423 6.6667 -34.0534
v  134.5126 0.0000 -34.0734
v  134.8775 3.3333 -34.0634
v  133.5491 10.0000 -25.3795
v  134.1914 6.6667 -31.1754
v  133.5491 0.0000 -25.3795
v  133.8703 3.3333 -28.2775
v  134.0313 6.6667 -25.2998
v  134.5134 3.3333 -25.2202
v  157.7426 10.0000 -49.4954
v  156.9674 10.0000 -49.6415
v  157.2258 6.6667 -49.5928
v  156.9674 0.0000 -49.6415
v  157.7426 0.0000 -49.4954
v  157.4842 3.3333 -49.5441
v  158.4144 10.0000 -49.2520
v  157.9666 6.6667 -49.4143
v  158.4144 0.0000 -49.2520
v  158.1905 3.3333 -49.3331
v  158.9829 10.0000 -48.9111
v  158.6039 6.6667 -49.1383
v  158.9829 0.0000 -48.9111
v  158.7934 3.3333 -49.0247
v  159.4480 10.0000 -48.4728
v  159.1379 6.6667 -48.7650
v  159.4480 0.0000 -48.4728
v  159.2930 3.3333 -48.6189
v  159.8098 10.0000 -47.9371
v  159.5686 6.6667 -48.2943
v  159.8098 0.0000 -47.9371
v  159.6892 3.3333 -48.1157
v  160.0681 10.0000 -47.3041
v  159.8959 6.6667 -47.7261
v  160.0681 0.0000 -47.3041
v  159.9820 3.3333 -47.5151
v  160.2232 10.0000 -46.5736
v  160.1198 6.6667 -47.0606
v  160.2232 0.0000 -46.5736
v  160.1715 3.3333 -46.8171
v  160.2749 10.0000 -45.7458
v  160.2404 6.6667 -46.2977
v  160.2749 0.0000 -45.7458
v  160.2576 3.3333 -46.0217
v  160.2232 10.0000 -44.9179
v  160.2576 6.6667 -45.4698
v  160.2232 0.0000 -44.9179
v  160.2404 3.3333 -45.1939
v  160.0681 10.0000 -44.1875
v  160.1715 6.6667 -44.6744
v  160.0681 0.0000 -44.1875
v  160.1198 3.3333 -44.4310
v  159.8098 10.0000 -43.5544
v  159.9820 6.6667 -43.9765
v  159.8098 0.0000 -43.5544
v  159.8959 3.3333 -43.7654
v  159.4480 10.0000 -43.0187
v  159.6892 6.6667 -43.3759
v  159.4480 0.0000 -43.0187
v  159.5686 3.3333 -43.1973
v  158.9829 10.0000 -42.5805
v  159.2930 6.6667 -42.8727
v  158.9829 0.0000 -42.5805
v  159.1379 3.3333 -42.7266
v  158.4144 10.0000 -42.2396
v  158.7934 6.6667 -42.4669
v  158.4144 0.0000 -42.2396
v  158.6039 3.3333 -42.3532
v  157.7426 10.0000 -41.9961
v  158.1905 6.6667 -42.1584
v  157.7426 0.0000 -41.9961
v  157.9666 3.3333 -42.0773
v  156.9674 10.0000 -41.8500
v  157.4842 6.6667 -41.9474
v  156.9674 0.0000 -41.8500
v  157.2258 3.3333 -41.8987
v  156.0889 10.0000 -41.8013
v  156.6746 6.6667 -41.8338
v  156.0889 0.0000 -41.8013
v  156.3817 3.3333 -41.8176
v  155.2104 10.0000 -41.8500
v  155.7961 6.6667 -41.8176
v  155.2104 0.0000 -41.8500
v  155.5032 3.3333 -41.8338
v  154.4352 10.0000 -41.9961
v  154.9520 6.6667 -41.8987
v  154.4352 0.0000 -41.9961
v  154.6936 3.3333 -41.9474
v  153.7634 10.0000 -42.2396
v  154.2112 6.6667 -42.0773
v  153.7634 0.0000 -42.2396
v  153.9873 3.3333 -42.1584
v  153.1949 10.0000 -42.5805
v  153.5739 6.6667 -42.3532
v  153.1949 0.0000 -42.5805
v  153.3844 3.3333 -42.4668
v  152.7298 10.0000 -43.0187
v  153.0399 6.6667 -42.7266
v  152.7298 0.0000 -43.0187
v  152.8848 3.3333 -42.8727
v  152.3681 10.0000 -43.5544
v  152.6092 6.6667 -43.1973
v  152.3681 0.0000 -43.5544
v  152.4886 3.3333 -43.3759
v  152.1096 10.0000 -44.1875
v  152.2819 6.6667 -43.7654
v  152.1096 0.0000 -44.1875
v  152.1958 3.3333 -43.9765
v  151.9546 10.0000 -44.9179
v  152.0580 6.6667 -44.4310
v  151.9546 0.0000 -44.9179
v  152.0063 3.3333 -44.6744
v  151.9029 10.0000 -45.7458
v  151.9374 6.6667 -45.1939
v  151.9029 0.0000 -45.7458
v  151.9202 3.3333 -45.4698
v  151.9546 10.0000 -46.5736
v  151.9202 6.6667 -46.0217
v  151.9546 0.0000 -46.5736
v  151.9374 3.3333 -46.2977
v  152.1096 10.0000 -47.3041
v  152.0063 6.6667 -46.8171
v  152.1096 0.0000 -47.3041
v  152.0580 3.3333 -47.0606
v  152.3680 10.0000 -47.9371
v  152.1958 6.6667 -47.5151
v  152.3680 0.0000 -47.9371
v  152.2819 3.3333 -47.7261
v  152.7298 10.0000 -48.4728
v  152.4886 6.6667 -48.1157
v  152.7298 0.0000 -48.4728
v  152.6092 3.3333 -48.2943
v  153.1949 10.0000 -48.9111
v  152.8848 6.6667 -48.6189
v  153.1949 0.0000 -48.9111
v  153.0399 3.3333 -48.7650
v  153.7634 10.0000 -49.2520
v  153.3844 6.6667 -49.0247
v  153.7634 0.0000 -49.2520
v  153.5739 3.3333 -49.1383
v  154.4352 10.0000 -49.4954
v  153.9873 6.6667 -49.3331
v  154.4352 0.0000 -49.4954
v  154.2112 3.3333 -49.4143
v  155.2104 10.0000 -49.6415
v  154.6936 6.6667 -49.5441
v  155.2104 0.0000 -49.6415
v  154.9520 3.3333 -49.5928
v  156.0889 10.0000 -49.6902
v  155.5032 6.6667 -49.6578
v  156.0889 0.0000 -49.6902
v  155.7961 3.3333 -49.6740
v  156.3817 6.6667 -49.6740
v  156.6746 3.3333 -49.6578
v  156.6501 0.0000 -40.1539
v  156.0644 0.0000 -40.1539
v  155.6231 0.0000 -38.5266
v  154.8036 0.0000 -40.2552
v  154.0291 0.0000 -38.7208
v  153.6951 0.0000 -40.4942
v  152.6364 0.0000 -39.0929
v  152.7391 0.0000 -40.8708
v  151.4451 0.0000 -39.6429
v  151.9354 0.0000 -41.3851
v  150.4553 0.0000 -40.3709
v  151.2841 0.0000 -42.0370
v  149.6669 0.0000 -41.2768
v  150.7852 0.0000 -42.8266
v  149.0798 0.0000 -42.3606
v  148.7459 0.0000 -43.3789
v  150.3135 0.0000 -44.2994
v  150.2446 0.0000 -44.8189
v  148.5101 0.0000 -45.0621
v  148.4789 0.0000 -45.9791
v  150.2135 0.0000 -46.2877
v  148.5387 0.0000 -46.8394
v  148.6239 0.0000 -47.3977
v  150.3675 0.0000 -47.3655
v  148.8033 0.0000 -48.1735
v  148.9735 0.0000 -48.6797
v  150.6756 0.0000 -48.3262
v  149.2725 0.0000 -49.3708
v  149.5279 0.0000 -49.8248
v  151.1377 0.0000 -49.1698
v  149.9465 0.0000 -50.4314
v  150.2870 0.0000 -50.8333
v  151.7539 0.0000 -49.8964
v  150.8202 0.0000 -51.3513
v  151.2261 0.0000 -51.6854
v  152.5043 0.0000 -50.4902
v  151.8441 0.0000 -52.0914
v  152.2955 0.0000 -52.3419
v  153.3690 0.0000 -50.9355
v  152.9935 0.0000 -52.6319
v  153.4902 0.0000 -52.7989
v  154.0098 0.0000 -52.9242
v  154.6136 0.0000 -51.2846
v  154.8104 0.0000 -53.0564
v  155.4416 0.0000 -51.3809
v  155.6682 0.0000 -53.1144
v  156.3155 0.0000 -51.3913
v  157.0065 0.0000 -53.0614
v  157.6240 0.0000 -51.2792
v  158.1064 0.0000 -51.1493
v  158.9143 0.0000 -52.7426
v  159.1880 0.0000 -50.8128
v  160.3511 0.0000 -52.2512
v  160.1116 0.0000 -50.3170
v  161.5752 0.0000 -51.5384
v  160.8772 0.0000 -49.6617
v  162.5867 0.0000 -50.6042
v  161.4848 0.0000 -48.8471
v  163.3856 0.0000 -49.4486
v  161.9344 0.0000 -47.8731
v  163.9718 0.0000 -48.0717
v  162.2261 0.0000 -46.7397
v  164.3454 0.0000 -46.4734
v  164.5236 0.0000 -44.9621
v  164.5681 0.0000 -35.6674
v  164.5526 0.0000 -26.7088
v  164.4902 0.0000 -25.8025
v  164.3654 0.0000 -24.9511
v  164.1783 0.0000 -24.1545
v  163.9287 0.0000 -23.4129
v  163.6168 0.0000 -22.7260
v  163.2425 0.0000 -22.0941
v  162.8058 0.0000 -21.5170
v  162.3068 0.0000 -20.9948
v  161.1410 0.0000 -32.9706
v  161.0721 0.0000 -32.4512
v  160.9343 0.0000 -31.9967
v  160.7276 0.0000 -31.6071
v  160.4520 0.0000 -31.2825
v  160.1075 0.0000 -31.0228
v  159.6940 0.0000 -30.8280
v  159.2117 0.0000 -30.6981
v  158.9288 0.0000 -28.9695
v  158.9043 0.0000 -20.8346
v  158.8893 0.0000 -13.9998
v  158.8294 0.0000 -13.2849
v  158.7095 0.0000 -12.6594
v  158.5298 0.0000 -12.1232
v  160.3873 0.0000 -9.8422
v  158.0024 0.0000 -11.4558
v  159.6633 0.0000 -9.2257
v  159.0463 0.0000 -8.8622
v  158.4016 0.0000 -8.5507
v  156.7566 0.0000 -10.5920
v  157.5643 0.0000 -8.1346
v  156.8640 0.0000 -7.9269
v  155.6968 0.0000 -10.1162
v  155.9413 0.0000 -7.6595
v  154.9064 0.0000 -9.8726
v  154.9608 0.0000 -7.4886
v  154.1772 0.0000 -7.4367
v  153.6435 0.0000 -9.7313
v  152.9402 0.0000 -7.4282
v  152.6388 0.0000 -9.7428
v  151.6516 0.0000 -7.5425
v  151.7789 0.0000 -9.8514
v  151.4806 0.0000 -9.9076
v  150.3213 0.0000 -7.8133
v  150.7119 0.0000 -10.1261
v  149.2475 0.0000 -8.1844
v  150.0113 0.0000 -10.4263
v  148.2755 0.0000 -8.6768
v  149.3789 0.0000 -10.8083
v  147.4051 0.0000 -9.2906
v  148.8145 0.0000 -11.2721
v  146.6363 0.0000 -10.0257
v  148.3183 0.0000 -11.8176
v  145.9693 0.0000 -10.8822
v  147.8902 0.0000 -12.4449
v  145.4039 0.0000 -11.8600
v  147.5184 0.0000 -13.1704
v  147.3573 0.0000 -13.5177
v  143.5146 0.0000 -16.3947
v  145.6671 0.0000 -17.6907
v  145.4579 0.0000 -18.2265
v  145.2246 0.0000 -18.8566
v  144.9672 0.0000 -19.5809
v  144.6858 0.0000 -20.3994
v  144.3803 0.0000 -21.3122
v  144.0507 0.0000 -22.3192
v  143.7260 0.0000 -23.3006
v  143.4143 0.0000 -24.1771
v  143.0947 0.0000 -24.9889
v  140.5320 0.0000 -24.2280
v  142.7061 0.0000 -25.8718
v  140.2292 0.0000 -24.8445
v  140.0623 0.0000 -25.0789
v  142.2038 0.0000 -26.7888
v  139.6959 0.0000 -25.6139
v  141.7546 0.0000 -27.5056
v  141.4033 0.0000 -28.0590
v  139.1182 0.0000 -26.3525
v  140.9234 0.0000 -28.6343
v  140.5562 0.0000 -29.0586
v  138.4948 0.0000 -26.9374
v  140.0371 0.0000 -29.4985
v  139.6203 0.0000 -29.8182
v  139.1618 0.0000 -30.0979
v  137.5523 0.0000 -27.5230
v  138.5111 0.0000 -30.3995
v  137.9691 0.0000 -30.5993
v  136.6946 0.0000 -27.8342
v  137.2201 0.0000 -30.8087
v  136.5947 0.0000 -30.9286
v  135.7237 0.0000 -28.0409
v  135.7473 0.0000 -31.0458
v  135.0385 0.0000 -31.0858
v  134.3524 0.0000 -28.1978
v  134.3524 10.0000 -28.1978
v  158.9288 10.0000 -28.9695
v  156.6501 10.0000 -40.1539
v  156.0644 10.0000 -40.1539
v  155.6231 10.0000 -38.5266
v  154.8036 10.0000 -40.2552
v  154.0291 10.0000 -38.7208
v  153.6951 10.0000 -40.4942
v  152.6364 10.0000 -39.0929
v  152.7391 10.0000 -40.8708
v  151.4451 10.0000 -39.6429
v  151.9354 10.0000 -41.3851
v  150.4553 10.0000 -40.3709
v  151.2841 10.0000 -42.0370
v  149.6669 10.0000 -41.2768
v  150.7852 10.0000 -42.8266
v  149.0798 10.0000 -42.3606
v  148.7459 10.0000 -43.3789
v  150.3135 10.0000 -44.2994
v  150.2446 10.0000 -44.8189
v  148.5101 10.0000 -45.0621
v  148.4789 10.0000 -45.9791
v  150.2135 10.0000 -46.2877
v  148.5388 10.0000 -46.8394
v  148.6239 10.0000 -47.3977
v  150.3675 10.0000 -47.3655
v  148.8033 10.0000 -48.1735
v  148.9735 10.0000 -48.6797
v  150.6756 10.0000 -48.3262
v  149.2725 10.0000 -49.3708
v  149.5279 10.0000 -49.8248
v  151.1378 10.0000 -49.1698
v  149.9465 10.0000 -50.4314
v  150.2870 10.0000 -50.8333
v  151.7539 10.0000 -49.8964
v  150.8202 10.0000 -51.3513
v  151.2261 10.0000 -51.6854
v  152.5043 10.0000 -50.4902
v  151.8441 10.0000 -52.0914
v  152.2955 10.0000 -52.3419
v  153.3690 10.0000 -50.9355
v  152.9935 10.0000 -52.6319
v  153.4902 10.0000 -52.7989
v  154.0098 10.0000 -52.9242
v  154.6136 10.0000 -51.2846
v  154.8104 10.0000 -53.0564
v  155.4416 10.0000 -51.3809
v  155.6682 10.0000 -53.1144
v  156.3155 10.0000 -51.3913
v  157.0065 10.0000 -53.0614
v  157.6240 10.0000 -51.2792
v  158.1064 10.0000 -51.1493
v  158.9143 10.0000 -52.7426
v  159.1880 10.0000 -50.8128
v  160.3511 10.0000 -52.2512
v  160.1116 10.0000 -50.3170
v  161.5752 10.0000 -51.5384
v  160.8772 10.0000 -49.6617
v  162.5867 10.0000 -50.6042
v  161.4848 10.0000 -48.8471
v  163.3856 10.0000 -49.4486
v  161.9344 10.0000 -47.8731
v  163.9718 10.0000 -48.0717
v  162.2261 10.0000 -46.7397
v  164.3454 10.0000 -46.4734
v  164.5236 10.0000 -44.9621
v  164.5681 10.0000 -35.6674
v  164.5526 10.0000 -26.7088
v  164.4902 10.0000 -25.8025
v  164.3654 10.0000 -24.9511
v  164.1783 10.0000 -24.1545
v  163.9287 10.0000 -23.4129
v  163.6168 10.0000 -22.7260
v  163.2425 10.0000 -22.0941
v  162.8058 10.0000 -21.5170
v  162.3068 10.0000 -20.9948
v  161.1410 10.0000 -32.9706
v  161.0721 10.0000 -32.4512
v  160.9343 10.0000 -31.9967
v  160.7276 10.0000 -31.6071
v  160.4520 10.0000 -31.2825
v  160.1075 10.0000 -31.0228
v  159.6940 10.0000 -30.8280
v  159.2117 10.0000 -30.6981
v  158.9043 10.0000 -20.8346
v  158.8893 10.0000 -13.9998
v  158.8294 10.0000 -13.2849
v  158.7095 10.0000 -12.6594
v  158.5298 10.0000 -12.1232
v  160.3873 10.0000 -9.8422
v  158.0024 10.0000 -11.4558
v  159.6633 10.0000 -9.2257
v  159.0463 10.0000 -8.8622
v  158.4016 10.0000 -8.5507
v  156.7566 10.0000 -10.5920
v  157.5643 10.0000 -8.1346
v  156.8640 10.0000 -7.9269
v  155.6968 10.0000 -10.1162
v  155.9413 10.0000 -7.6595
v  154.9064 10.0000 -9.8726
v  154.9608 10.0000 -7.4886
v  154.1772 10.0000 -7.4367
v  153.6435 10.0000 -9.7313
v  152.9402 10.0000 -7.4282
v  152.6388 10.0000 -9.7428
v  151.6516 10.0000 -7.5425
v  151.7789 10.0000 -9.8514
v  151.4806 10.0000 -9.9076
v  150.3213 10.0000 -7.8133
v  150.7119 10.0000 -10.1261
v  149.2475 10.0000 -8.1844
v  150.0113 10.0000 -10.4263
v  148.2755 10.0000 -8.6768
v  149.3789 10.0000 -10.8083
v  147.4051 10.0000 -9.2906
v  148.8145 10.0000 -11.2721
v  146.6363 10.0000 -10.0257
v  148.3183 10.0000 -11.8176
v  145.9693 10.0000 -10.8822
v  147.8902 10.0000 -12.4449
v  145.4039 10.0000 -11.8600
v  147.5184 10.0000 -13.1704
v  147.3573 10.0000 -13.5177
v  143.5146 10.0000 -16.3947
v  145.6671 10.0000 -17.6907
v  145.4579 10.0000 -18.2265
v  145.2246 10.0000 -18.8566
v  144.9672 10.0000 -19.5809
v  144.6858 10.0000 -20.3994
v  144.3803 10.0000 -21.3122
v  144.0507 10.0000 -22.3192
v  143.7260 10.0000 -23.3006
v  143.4143 10.0000 -24.1771
v  143.0947 10.0000 -24.9889
v  140.5320 10.0000 -24.2280
v  142.7061 10.0000 -25.8718
v  140.2292 10.0000 -24.8445
v  140.0623 10.0000 -25.0789
v  142.2038 10.0000 -26.7888
v  139.6959 10.0000 -25.6139
v  141.7546 10.0000 -27.5056
v  141.4033 10.0000 -28.0590
v  139.1182 10.0000 -26.3525
v  140.9234 10.0000 -28.6343
v  140.5562 10.0000 -29.0586
v  138.4948 10.0000 -26.9374
v  140.0371 10.0000 -29.4985
v  139.6203 10.0000 -29.8182
v  139.1618 10.0000 -30.0979
v  137.5523 10.0000 -27.5230
v  138.5111 10.0000 -30.3995
v  137.9691 10.0000 -30.5993
v  136.6946 10.0000 -27.8342
v  137.2201 10.0000 -30.8087
v  136.5947 10.0000 -30.9286
v  135.7237 10.0000 -28.0409
v  135.7473 10.0000 -31.0458
v  135.0385 10.0000 -31.0858
# 948 vertices

vn -0.1708 0.7171 0.6757
vn -0.1284 0.7117 0.6907
vn -0.2025 -0.0000 0.9793
vn -0.1284 -0.7117 0.6907
vn -0.1708 -0.7171 0.6757
vn -0.2325 0.7184 0.6556
vn -0.2872 0.0000 0.9579
vn -0.2325 -0.7184 0.6556
vn -0.2872 -0.0000 0.9579
vn -0.2991 0.7197 0.6265
vn -0.3804 -0.0000 0.9248
vn -0.2991 -0.7197 0.6265
vn -0.3804 0.0000 0.9248
vn -0.3688 0.7210 0.5867
vn -0.4800 -0.0000 0.8773
vn -0.3688 -0.7210 0.5867
vn -0.4800 0.0000 0.8773
vn -0.4386 0.7219 0.5352
vn -0.5825 0.0000 0.8128
vn -0.4386 -0.7219 0.5352
vn -0.5825 -0.0000 0.8128
vn -0.5046 0.7225 0.4727
vn -0.6825 0.0000 0.7309
vn -0.5046 -0.7225 0.4727
vn -0.6825 -0.0000 0.7309
vn -0.5631 0.7225 0.4012
vn -0.7739 -0.0000 0.6333
vn -0.5631 -0.7225 0.4012
vn -0.7739 0.0000 0.6333
vn -0.6113 0.7219 0.3243
vn -0.8514 0.0000 0.5245
vn -0.6113 -0.7219 0.3243
vn -0.8514 -0.0000 0.5245
vn -0.6462 0.7116 0.2757
vn -0.9118 -0.0000 0.4107
vn -0.6462 -0.7116 0.2757
vn -0.9118 0.0000 0.4107
vn -0.6531 0.6991 0.2910
vn -0.9274 -0.0000 0.3741
vn -0.6531 -0.6991 0.2910
vn -0.9274 0.0000 0.3741
vn -0.6256 0.6925 0.3593
vn -0.8983 -0.0000 0.4394
vn -0.6256 -0.6925 0.3593
vn -0.8983 0.0000 0.4394
vn -0.5709 0.6913 0.4429
vn -0.8322 -0.0000 0.5545
vn -0.5709 -0.6913 0.4429
vn -0.8322 0.0000 0.5545
vn -0.5003 0.6906 0.5222
vn -0.7440 -0.0000 0.6682
vn -0.5003 -0.6906 0.5222
vn -0.7440 0.0000 0.6682
vn -0.4167 0.6907 0.5910
vn -0.6357 0.0000 0.7719
vn -0.4167 -0.6907 0.5910
vn -0.6357 -0.0000 0.7719
vn -0.3259 0.6914 0.6448
vn -0.5136 -0.0000 0.8581
vn -0.3259 -0.6914 0.6448
vn -0.5136 0.0000 0.8581
vn -0.2344 0.6926 0.6821
vn -0.3862 -0.0000 0.9224
vn -0.2344 -0.6926 0.6821
vn -0.3862 0.0000 0.9224
vn -0.1478 0.6942 0.7045
vn -0.2623 -0.0000 0.9650
vn -0.1478 -0.6942 0.7045
vn -0.2623 0.0000 0.9650
vn -0.0696 0.6958 0.7149
vn -0.1478 -0.0000 0.9890
vn -0.0696 -0.6958 0.7149
vn -0.1478 0.0000 0.9890
vn -0.0048 0.6984 0.7157
vn -0.0459 -0.0000 0.9989
vn -0.0048 -0.6984 0.7157
vn -0.0459 0.0000 0.9989
vn 0.0476 0.6995 0.7130
vn 0.0325 -0.0000 0.9995
vn 0.0476 -0.6995 0.7130
vn 0.0977 0.6991 0.7084
vn 0.1007 0.0000 0.9949
vn 0.0977 -0.6991 0.7084
vn 0.1007 -0.0000 0.9949
vn 0.1500 0.6987 0.6996
vn 0.1724 0.0000 0.9850
vn 0.1500 -0.6987 0.6996
vn 0.1724 -0.0000 0.9850
vn 0.2038 0.6983 0.6862
vn 0.2466 0.0000 0.9691
vn 0.2038 -0.6983 0.6862
vn 0.2466 -0.0000 0.9691
vn 0.2580 0.6981 0.6679
vn 0.3223 0.0000 0.9466
vn 0.2580 -0.6981 0.6679
vn 0.3223 -0.0000 0.9466
vn 0.3116 0.6980 0.6448
vn 0.3978 0.0000 0.9175
vn 0.3116 -0.6980 0.6448
vn 0.3978 -0.0000 0.9175
vn 0.3635 0.6980 0.6170
vn 0.4718 0.0000 0.8817
vn 0.3635 -0.6980 0.6170
vn 0.4718 -0.0000 0.8817
vn 0.4125 0.6981 0.5853
vn 0.5425 0.0000 0.8401
vn 0.4125 -0.6981 0.5853
vn 0.5425 -0.0000 0.8401
vn 0.4637 0.6964 0.5477
vn 0.6087 0.0000 0.7934
vn 0.4637 -0.6964 0.5477
vn 0.5203 0.6944 0.4971
vn 0.6822 0.0000 0.7311
vn 0.5203 -0.6944 0.4971
vn 0.6822 -0.0000 0.7311
vn 0.5737 0.6945 0.4343
vn 0.7615 0.0000 0.6482
vn 0.5737 -0.6945 0.4343
vn 0.7615 -0.0000 0.6482
vn 0.6186 0.6948 0.3669
vn 0.8305 0.0000 0.5571
vn 0.6186 -0.6948 0.3669
vn 0.8305 -0.0000 0.5571
vn 0.6540 0.6955 0.2977
vn 0.8871 0.0000 0.4616
vn 0.6540 -0.6955 0.2977
vn 0.8871 -0.0000 0.4616
vn 0.6801 0.6963 0.2296
vn 0.9307 0.0000 0.3658
vn 0.6801 -0.6963 0.2296
vn 0.9307 -0.0000 0.3658
vn 0.6977 0.6972 0.1647
vn 0.9620 -0.0000 0.2731
vn 0.6977 -0.6972 0.1647
vn 0.7083 0.6981 0.1046
vn 0.9826 0.0000 0.1860
vn 0.7083 -0.6981 0.1046
vn 0.7134 0.6990 0.0498
vn 0.9944 0.0000 0.1059
vn 0.7134 -0.6990 0.0498
vn 0.7107 0.7034 0.0119
vn 0.9994 0.0000 0.0334
vn 0.7107 -0.7034 0.0119
vn 0.7130 0.7009 -0.0198
vn 1.0000 0.0000 -0.0000
vn 0.7130 -0.7009 -0.0198
vn 0.7160 0.6927 -0.0870
vn 0.9985 -0.0000 -0.0554
vn 0.7160 -0.6927 -0.0870
vn 0.6987 0.6894 -0.1913
vn 0.9827 0.0000 -0.1854
vn 0.6987 -0.6894 -0.1913
vn 0.9827 -0.0000 -0.1854
vn 0.6569 0.6861 -0.3127
vn 0.9401 0.0000 -0.3410
vn 0.6569 -0.6861 -0.3127
vn 0.9401 -0.0000 -0.3410
vn 0.5817 0.6837 -0.4407
vn 0.8574 0.0000 -0.5146
vn 0.5817 -0.6837 -0.4407
vn 0.8574 -0.0000 -0.5146
vn 0.4728 0.6831 -0.5567
vn 0.7275 0.0000 -0.6862
vn 0.4728 -0.6831 -0.5567
vn 0.7275 -0.0000 -0.6862
vn 0.3433 0.6846 -0.6430
vn 0.5593 -0.0000 -0.8290
vn 0.3433 -0.6846 -0.6430
vn 0.2132 0.6876 -0.6941
vn 0.3776 -0.0000 -0.9260
vn 0.2132 -0.6876 -0.6941
vn 0.3776 0.0000 -0.9260
vn 0.0977 0.6910 -0.7162
vn 0.2074 0.0000 -0.9783
vn 0.0977 -0.6910 -0.7162
vn 0.2074 -0.0000 -0.9783
vn 0.0094 0.6962 -0.7178
vn 0.0622 -0.0000 -0.9981
vn 0.0094 -0.6962 -0.7178
vn 0.0622 0.0000 -0.9981
vn -0.0532 0.6986 -0.7135
vn -0.0362 -0.0000 -0.9993
vn -0.0532 -0.6986 -0.7135
vn -0.0362 0.0000 -0.9993
vn -0.1094 0.6980 -0.7076
vn -0.1124 -0.0000 -0.9937
vn -0.1094 -0.6980 -0.7076
vn -0.1124 0.0000 -0.9937
vn -0.1683 0.6976 -0.6965
vn -0.1930 0.0000 -0.9812
vn -0.1683 -0.6976 -0.6965
vn -0.1930 -0.0000 -0.9812
vn -0.2287 0.6972 -0.6794
vn -0.2764 -0.0000 -0.9610
vn -0.2287 -0.6972 -0.6794
vn -0.2764 0.0000 -0.9610
vn -0.2892 0.6970 -0.6562
vn -0.3610 -0.0000 -0.9326
vn -0.2892 -0.6970 -0.6562
vn -0.3610 0.0000 -0.9326
vn -0.3481 0.6969 -0.6270
vn -0.4447 -0.0000 -0.8957
vn -0.3481 -0.6969 -0.6270
vn -0.4447 0.0000 -0.8957
vn -0.4039 0.6970 -0.5925
vn -0.5251 -0.0000 -0.8511
vn -0.4039 -0.6970 -0.5925
vn -0.5251 0.0000 -0.8511
vn -0.4554 0.6973 -0.5536
vn -0.6004 -0.0000 -0.7997
vn -0.4554 -0.6973 -0.5536
vn -0.6004 0.0000 -0.7997
vn -0.5026 0.6973 -0.5111
vn -0.6689 -0.0000 -0.7434
vn -0.5026 -0.6973 -0.5111
vn -0.6689 0.0000 -0.7434
vn -0.5474 0.6967 -0.4635
vn -0.7321 -0.0000 -0.6812
vn -0.5474 -0.6967 -0.4635
vn -0.7321 0.0000 -0.6812
vn -0.5889 0.6965 -0.4099
vn -0.7926 -0.0000 -0.6098
vn -0.5889 -0.6965 -0.4099
vn -0.7926 0.0000 -0.6098
vn -0.6254 0.6965 -0.3519
vn -0.8471 -0.0000 -0.5315
vn -0.6254 -0.6965 -0.3519
vn -0.8471 0.0000 -0.5315
vn -0.6558 0.6967 -0.2909
vn -0.8940 -0.0000 -0.4481
vn -0.6558 -0.6967 -0.2909
vn -0.8940 0.0000 -0.4481
vn -0.6795 0.6970 -0.2289
vn -0.9321 -0.0000 -0.3621
vn -0.6795 -0.6970 -0.2289
vn -0.6967 0.6975 -0.1676
vn -0.9612 0.0000 -0.2758
vn -0.6967 -0.6975 -0.1676
vn -0.9612 -0.0000 -0.2758
vn -0.7078 0.6981 -0.1084
vn -0.9815 -0.0000 -0.1916
vn -0.7078 -0.6981 -0.1084
vn -0.9815 0.0000 -0.1916
vn -0.7135 0.6987 -0.0525
vn -0.9938 -0.0000 -0.1111
vn -0.7135 -0.6987 -0.0525
vn -0.7182 0.6957 0.0114
vn -0.9994 -0.0000 -0.0356
vn -0.7182 -0.6957 0.0114
vn -0.9994 0.0000 -0.0356
vn -0.7163 0.6897 0.1057
vn -0.9977 0.0000 0.0674
vn -0.7163 -0.6897 0.1057
vn -0.9977 -0.0000 0.0674
vn -0.6902 0.6864 0.2292
vn -0.9747 -0.0000 0.2237
vn -0.6902 -0.6864 0.2292
vn -0.9747 0.0000 0.2237
vn -0.6321 0.6837 0.3647
vn -0.9148 -0.0000 0.4038
vn -0.6321 -0.6837 0.3647
vn -0.9148 0.0000 0.4038
vn -0.5383 0.6829 0.4939
vn -0.8075 -0.0000 0.5898
vn -0.5383 -0.6829 0.4939
vn -0.8075 0.0000 0.5898
vn -0.4187 0.6842 0.5971
vn -0.6569 0.0000 0.7540
vn -0.4187 -0.6842 0.5971
vn -0.2928 0.6871 0.6649
vn -0.4849 0.0000 0.8746
vn -0.2928 -0.6871 0.6649
vn -0.4849 -0.0000 0.8746
vn -0.1775 0.6905 0.7012
vn -0.3177 0.0000 0.9482
vn -0.1775 -0.6905 0.7012
vn -0.0804 0.6937 0.7157
vn -0.1717 0.0000 0.9852
vn -0.0804 -0.6937 0.7157
vn -0.1717 -0.0000 0.9852
vn -0.3183 0.8985 0.3024
vn -0.0512 -0.0000 0.9987
vn -0.3183 -0.8985 0.3024
vn -0.0512 0.0000 0.9987
vn -0.7025 0.7116 -0.0138
vn -1.0000 -0.0000 0.0000
vn -0.7025 -0.7116 -0.0138
vn -1.0000 0.0000 -0.0000
vn -0.6936 0.7178 -0.0601
vn -0.9992 -0.0000 -0.0394
vn -0.6936 -0.7178 -0.0601
vn -0.9992 0.0000 -0.0394
vn -0.6803 0.7207 -0.1329
vn -0.9911 -0.0000 -0.1329
vn -0.6803 -0.7207 -0.1329
vn -0.9911 0.0000 -0.1329
vn -0.6526 0.7245 -0.2220
vn -0.9683 0.0000 -0.2497
vn -0.6526 -0.7245 -0.2220
vn -0.9683 -0.0000 -0.2497
vn -0.6019 0.7288 -0.3265
vn -0.9198 0.0000 -0.3925
vn -0.6019 -0.7288 -0.3265
vn -0.9198 -0.0000 -0.3925
vn -0.5200 0.7328 -0.4389
vn -0.8306 -0.0000 -0.5569
vn -0.5200 -0.7328 -0.4389
vn -0.8306 0.0000 -0.5569
vn -0.4050 0.7349 -0.5440
vn -0.6884 -0.0000 -0.7253
vn -0.4050 -0.7349 -0.5440
vn -0.6884 0.0000 -0.7253
vn -0.2678 0.7340 -0.6241
vn -0.4976 -0.0000 -0.8674
vn -0.2678 -0.7340 -0.6241
vn -0.4976 0.0000 -0.8674
vn -0.1281 0.7306 -0.6707
vn -0.2858 -0.0000 -0.9583
vn -0.1281 -0.7306 -0.6707
vn -0.2858 0.0000 -0.9583
vn -0.0157 0.7220 -0.6917
vn -0.0874 -0.0000 -0.9962
vn -0.0157 -0.7220 -0.6917
vn -0.0874 0.0000 -0.9962
vn 0.0617 0.7177 -0.6936
vn 0.0422 0.0000 -0.9991
vn 0.0617 -0.7177 -0.6936
vn 0.0422 -0.0000 -0.9991
vn 0.1298 0.7191 -0.6827
vn 0.1349 0.0000 -0.9909
vn 0.1298 -0.7191 -0.6827
vn 0.1349 -0.0000 -0.9909
vn 0.2041 0.7205 -0.6628
vn 0.2381 -0.0000 -0.9712
vn 0.2041 -0.7205 -0.6628
vn 0.2381 0.0000 -0.9712
vn 0.2827 0.7217 -0.6319
vn 0.3496 0.0000 -0.9369
vn 0.2827 -0.7217 -0.6319
vn 0.3496 -0.0000 -0.9369
vn 0.3619 0.7225 -0.5891
vn 0.4653 0.0000 -0.8851
vn 0.3619 -0.7225 -0.5891
vn 0.4653 -0.0000 -0.8851
vn 0.4378 0.7228 -0.5348
vn 0.5793 0.0000 -0.8151
vn 0.4378 -0.7228 -0.5348
vn 0.5793 -0.0000 -0.8151
vn 0.5060 0.7225 -0.4712
vn 0.6846 0.0000 -0.7289
vn 0.5060 -0.7225 -0.4712
vn 0.6846 -0.0000 -0.7289
vn 0.5636 0.7217 -0.4019
vn 0.7758 -0.0000 -0.6310
vn 0.5636 -0.7217 -0.4019
vn 0.7758 0.0000 -0.6310
vn 0.6081 0.7180 -0.3388
vn 0.8494 0.0000 -0.5277
vn 0.6081 -0.7180 -0.3388
vn 0.6357 0.7125 -0.2971
vn 0.8957 0.0000 -0.4446
vn 0.6357 -0.7125 -0.2971
vn 0.8957 -0.0000 -0.4446
vn 0.6486 0.7105 -0.2731
vn 0.9157 0.0000 -0.4018
vn 0.6486 -0.7105 -0.2731
vn 0.9157 -0.0000 -0.4018
vn 0.6563 0.7094 -0.2569
vn 0.9274 -0.0000 -0.3742
vn 0.6563 -0.7094 -0.2569
vn 0.9274 0.0000 -0.3742
vn 0.6614 0.7088 -0.2453
vn 0.9349 0.0000 -0.3548
vn 0.6614 -0.7088 -0.2453
vn 0.6650 0.7084 -0.2366
vn 0.9402 0.0000 -0.3406
vn 0.6650 -0.7084 -0.2366
vn 0.9402 -0.0000 -0.3406
vn 0.6677 0.7081 -0.2298
vn 0.9441 -0.0000 -0.3297
vn 0.6677 -0.7081 -0.2298
vn 0.6697 0.7079 -0.2243
vn 0.9471 0.0000 -0.3211
vn 0.6697 -0.7079 -0.2243
vn 0.9471 -0.0000 -0.3211
vn 0.6713 0.7078 -0.2198
vn 0.9494 0.0000 -0.3141
vn 0.6713 -0.7078 -0.2198
vn 0.9494 -0.0000 -0.3141
vn 0.6726 0.7056 -0.2229
vn 0.9513 0.0000 -0.3083
vn 0.6726 -0.7056 -0.2229
vn 0.9513 -0.0000 -0.3083
vn 0.6694 0.7036 -0.2384
vn 0.9472 0.0000 -0.3207
vn 0.6694 -0.7036 -0.2384
vn 0.9472 -0.0000 -0.3207
vn 0.6615 0.7031 -0.2609
vn 0.9367 0.0000 -0.3502
vn 0.6615 -0.7031 -0.2609
vn 0.9367 -0.0000 -0.3502
vn 0.6516 0.7026 -0.2861
vn 0.9236 0.0000 -0.3834
vn 0.6516 -0.7026 -0.2861
vn 0.9236 -0.0000 -0.3834
vn 0.6390 0.7019 -0.3147
vn 0.9072 0.0000 -0.4206
vn 0.6390 -0.7019 -0.3147
vn 0.9072 -0.0000 -0.4206
vn 0.6230 0.7011 -0.3470
vn 0.8865 0.0000 -0.4627
vn 0.6230 -0.7011 -0.3470
vn 0.8865 -0.0000 -0.4627
vn 0.6024 0.7001 -0.3834
vn 0.8601 0.0000 -0.5101
vn 0.6024 -0.7001 -0.3834
vn 0.8601 -0.0000 -0.5101
vn 0.5757 0.6989 -0.4244
vn 0.8263 0.0000 -0.5633
vn 0.5757 -0.6989 -0.4244
vn 0.5410 0.6975 -0.4698
vn 0.7825 -0.0000 -0.6226
vn 0.5410 -0.6975 -0.4698
vn 0.7825 0.0000 -0.6226
vn 0.4954 0.6956 -0.5203
vn 0.7261 0.0000 -0.6876
vn 0.4954 -0.6956 -0.5203
vn 0.7261 -0.0000 -0.6876
vn 0.4378 0.6951 -0.5703
vn 0.6511 0.0000 -0.7590
vn 0.4378 -0.6951 -0.5703
vn 0.6511 -0.0000 -0.7590
vn 0.3746 0.6956 -0.6131
vn 0.5650 0.0000 -0.8251
vn 0.3746 -0.6956 -0.6131
vn 0.3108 0.6963 -0.6470
vn 0.4764 0.0000 -0.8792
vn 0.3108 -0.6963 -0.6470
vn 0.4764 -0.0000 -0.8792
vn 0.2486 0.6971 -0.6724
vn 0.3886 0.0000 -0.9214
vn 0.2486 -0.6971 -0.6724
vn 0.3886 -0.0000 -0.9214
vn 0.1898 0.6980 -0.6905
vn 0.3043 -0.0000 -0.9526
vn 0.1898 -0.6980 -0.6905
vn 0.3043 0.0000 -0.9526
vn 0.1353 0.6989 -0.7023
vn 0.2254 -0.0000 -0.9743
vn 0.1353 -0.6989 -0.7023
vn 0.2254 0.0000 -0.9743
vn 0.0856 0.6997 -0.7093
vn 0.1528 -0.0000 -0.9883
vn 0.0856 -0.6997 -0.7093
vn 0.1528 0.0000 -0.9883
vn 0.0408 0.7005 -0.7125
vn 0.0868 -0.0000 -0.9962
vn 0.0408 -0.7005 -0.7125
vn 0.0868 0.0000 -0.9962
vn -0.5342 0.5818 -0.6133
vn 0.0274 -0.0000 -0.9996
vn -0.5342 -0.5818 -0.6133
vn 0.0274 0.0000 -0.9996
vn -0.6492 0.5802 0.4918
vn -0.9939 -0.0000 -0.1101
vn -0.6492 -0.5802 0.4918
vn -0.9939 0.0000 -0.1101
vn -0.1630 -0.0000 0.9866
vn -0.1630 0.0000 0.9866
vn -0.1815 0.7257 0.6636
vn -0.0834 0.7221 0.6867
vn -0.1852 0.0000 0.9827
vn -0.0834 -0.7221 0.6867
vn -0.1815 -0.7257 0.6636
vn -0.1852 -0.0000 0.9827
vn -0.2938 0.7294 0.6178
vn -0.3407 0.0000 0.9402
vn -0.2938 -0.7294 0.6178
vn -0.3407 -0.0000 0.9402
vn -0.4111 0.7321 0.5431
vn -0.5143 0.0000 0.8576
vn -0.4111 -0.7321 0.5431
vn -0.5143 -0.0000 0.8576
vn -0.5184 0.7328 0.4407
vn -0.6858 0.0000 0.7278
vn -0.5184 -0.7328 0.4407
vn -0.6018 0.7311 0.3216
vn -0.8287 -0.0000 0.5597
vn -0.6018 -0.7311 0.3216
vn -0.8287 0.0000 0.5597
vn -0.6556 0.7277 0.2016
vn -0.9258 -0.0000 0.3779
vn -0.6556 -0.7277 0.2016
vn -0.6835 0.7240 0.0933
vn -0.9782 -0.0000 0.2076
vn -0.6835 -0.7240 0.0933
vn -0.9782 0.0000 0.2076
vn -0.6925 0.7214 0.0000
vn -0.9981 -0.0000 0.0623
vn -0.6925 -0.7214 0.0000
vn -0.6835 0.7240 -0.0933
vn -0.9981 -0.0000 -0.0623
vn -0.6835 -0.7240 -0.0933
vn -0.9981 0.0000 -0.0623
vn -0.6556 0.7277 -0.2016
vn -0.9782 -0.0000 -0.2076
vn -0.6556 -0.7277 -0.2016
vn -0.9782 0.0000 -0.2076
vn -0.6018 0.7311 -0.3216
vn -0.9258 -0.0000 -0.3779
vn -0.6018 -0.7311 -0.3216
vn -0.9258 0.0000 -0.3779
vn -0.5184 0.7328 -0.4407
vn -0.8287 0.0000 -0.5597
vn -0.5184 -0.7328 -0.4407
vn -0.4111 0.7321 -0.5431
vn -0.6858 -0.0000 -0.7278
vn -0.4111 -0.7321 -0.5431
vn -0.2938 0.7294 -0.6178
vn -0.5143 -0.0000 -0.8576
vn -0.2938 -0.7294 -0.6178
vn -0.5143 0.0000 -0.8576
vn -0.1815 0.7257 -0.6636
vn -0.3407 -0.0000 -0.9402
vn -0.1815 -0.7257 -0.6636
vn -0.3407 0.0000 -0.9402
vn -0.0834 0.7221 -0.6867
vn -0.1852 -0.0000 -0.9827
vn -0.0834 -0.7221 -0.6867
vn -0.1852 0.0000 -0.9827
vn 0.0000 0.7198 -0.6942
vn -0.0553 -0.0000 -0.9985
vn 0.0000 -0.7198 -0.6942
vn -0.0553 0.0000 -0.9985
vn 0.0834 0.7221 -0.6867
vn 0.0553 -0.0000 -0.9985
vn 0.0834 -0.7221 -0.6867
vn 0.0553 0.0000 -0.9985
vn 0.1815 0.7257 -0.6636
vn 0.1852 -0.0000 -0.9827
vn 0.1815 -0.7257 -0.6636
vn 0.1852 0.0000 -0.9827
vn 0.2938 0.7294 -0.6178
vn 0.3407 0.0000 -0.9402
vn 0.2938 -0.7294 -0.6178
vn 0.4111 0.7321 -0.5431
vn 0.5143 0.0000 -0.8576
vn 0.4111 -0.7321 -0.5431
vn 0.5143 -0.0000 -0.8576
vn 0.5184 0.7328 -0.4407
vn 0.6858 -0.0000 -0.7278
vn 0.5184 -0.7328 -0.4407
vn 0.6858 0.0000 -0.7278
vn 0.6018 0.7310 -0.3216
vn 0.8287 0.0000 -0.5597
vn 0.6018 -0.7310 -0.3216
vn 0.8287 -0.0000 -0.5597
vn 0.6556 0.7277 -0.2016
vn 0.9258 -0.0000 -0.3779
vn 0.6556 -0.7277 -0.2016
vn 0.6835 0.7240 -0.0933
vn 0.9782 0.0000 -0.2076
vn 0.6835 -0.7240 -0.0933
vn 0.9782 -0.0000 -0.2076
vn 0.6925 0.7214 0.0000
vn 0.9981 0.0000 -0.0623
vn 0.6925 -0.7214 0.0000
vn 0.9981 -0.0000 -0.0623
vn 0.6835 0.7240 0.0933
vn 0.9981 0.0000 0.0623
vn 0.6835 -0.7240 0.0933
vn 0.9981 -0.0000 0.0623
vn 0.6556 0.7277 0.2016
vn 0.9782 -0.0000 0.2076
vn 0.6556 -0.7277 0.2016
vn 0.6018 0.7311 0.3216
vn 0.9258 0.0000 0.3779
vn 0.6018 -0.7311 0.3216
vn 0.9258 -0.0000 0.3779
vn 0.5184 0.7328 0.4407
vn 0.8287 0.0000 0.5597
vn 0.5184 -0.7328 0.4407
vn 0.8287 -0.0000 0.5597
vn 0.4111 0.7321 0.5431
vn 0.6858 -0.0000 0.7278
vn 0.4111 -0.7321 0.5431
vn 0.2938 0.7294 0.6178
vn 0.5143 0.0000 0.8576
vn 0.2938 -0.7294 0.6178
vn 0.5143 -0.0000 0.8576
vn 0.1815 0.7257 0.6636
vn 0.3407 0.0000 0.9402
vn 0.1815 -0.7257 0.6636
vn 0.3407 -0.0000 0.9402
vn 0.0834 0.7221 0.6867
vn 0.1852 0.0000 0.9827
vn 0.0834 -0.7221 0.6867
vn 0.1852 -0.0000 0.9827
vn -0.0000 0.7198 0.6942
vn 0.0553 0.0000 0.9985
vn -0.0000 -0.7198 0.6942
vn 0.0553 -0.0000 0.9985
vn -0.0553 0.0000 0.9985
vn 0.0000 -1.0000 -0.0000
vn 0.0000 1.0000 -0.0000
# 605 vertex normals

o Ngo_Nguu
g Ngo_Nguu
s 1
f 1//1 2//2 3//3 
f 4//4 5//5 6//3 
s 3
f 7//6 1//1 8//7 
f 5//5 9//8 10//9 
s 2
f 11//10 7//6 12//11 
f 9//8 13//12 14//13 
f 15//14 11//10 16//15 
f 13//12 17//16 18//17 
f 19//18 15//14 20//19 
f 17//16 21//20 22//21 
f 23//22 19//18 24//23 
f 21//20 25//24 26//25 
f 27//26 23//22 28//27 
f 25//24 29//28 30//29 
f 31//30 27//26 32//31 
f 29//28 33//32 34//33 
f 35//34 31//30 36//35 
f 33//32 37//36 38//37 
f 39//38 35//34 40//39 
f 37//36 41//40 42//41 
f 43//42 39//38 44//43 
f 41//40 45//44 46//45 
f 47//46 43//42 48//47 
f 45//44 49//48 50//49 
f 51//50 47//46 52//51 
f 49//48 53//52 54//53 
f 55//54 51//50 56//55 
f 53//52 57//56 58//57 
f 59//58 55//54 60//59 
f 57//56 61//60 62//61 
f 63//62 59//58 64//63 
f 61//60 65//64 66//65 
f 67//66 63//62 68//67 
f 65//64 69//68 70//69 
f 71//70 67//66 72//71 
f 69//68 73//72 74//73 
f 75//74 71//70 76//75 
f 73//72 77//76 78//77 
f 79//78 75//74 80//79 
f 77//76 81//80 82//79 
f 83//81 79//78 84//82 
f 81//80 85//83 86//84 
f 87//85 83//81 88//86 
f 85//83 89//87 90//88 
f 91//89 87//85 92//90 
f 89//87 93//91 94//92 
f 95//93 91//89 96//94 
f 93//91 97//95 98//96 
f 99//97 95//93 100//98 
f 97//95 101//99 102//100 
f 103//101 99//97 104//102 
f 101//99 105//103 106//104 
f 107//105 103//101 108//106 
f 105//103 109//107 110//108 
f 111//109 107//105 112//110 
f 109//107 113//111 114//110 
f 115//112 111//109 116//113 
f 113//111 117//114 118//115 
f 119//116 115//112 120//117 
f 117//114 121//118 122//119 
f 123//120 119//116 124//121 
f 121//118 125//122 126//123 
f 127//124 123//120 128//125 
f 125//122 129//126 130//127 
f 131//128 127//124 132//129 
f 129//126 133//130 134//131 
f 135//132 131//128 136//133 
f 133//130 137//134 138//133 
f 139//135 135//132 140//136 
f 137//134 141//137 142//136 
f 143//138 139//135 144//139 
f 141//137 145//140 146//139 
f 147//141 143//138 148//142 
f 145//140 149//143 150//142 
s 4
f 151//144 147//141 152//145 
f 149//143 153//146 154//145 
s 2
f 155//147 151//144 156//148 
f 153//146 157//149 158//148 
f 159//150 155//147 160//151 
f 157//149 161//152 162//153 
f 163//154 159//150 164//155 
f 161//152 165//156 166//157 
f 167//158 163//154 168//159 
f 165//156 169//160 170//161 
f 171//162 167//158 172//163 
f 169//160 173//164 174//165 
f 175//166 171//162 176//167 
f 173//164 177//168 178//167 
f 179//169 175//166 180//170 
f 177//168 181//171 182//172 
f 183//173 179//169 184//174 
f 181//171 185//175 186//176 
f 187//177 183//173 188//178 
f 185//175 189//179 190//180 
f 191//181 187//177 192//182 
f 189//179 193//183 194//184 
f 195//185 191//181 196//186 
f 193//183 197//187 198//188 
f 199//189 195//185 200//190 
f 197//187 201//191 202//192 
f 203//193 199//189 204//194 
f 201//191 205//195 206//196 
f 207//197 203//193 208//198 
f 205//195 209//199 210//200 
f 211//201 207//197 212//202 
f 209//199 213//203 214//204 
f 215//205 211//201 216//206 
f 213//203 217//207 218//208 
f 219//209 215//205 220//210 
f 217//207 221//211 222//212 
f 223//213 219//209 224//214 
f 221//211 225//215 226//216 
f 227//217 223//213 228//218 
f 225//215 229//219 230//220 
f 231//221 227//217 232//222 
f 229//219 233//223 234//224 
f 235//225 231//221 236//226 
f 233//223 237//227 238//228 
f 239//229 235//225 240//230 
f 237//227 241//231 242//232 
f 243//233 239//229 244//234 
f 241//231 245//235 246//234 
f 247//236 243//233 248//237 
f 245//235 249//238 250//239 
f 251//240 247//236 252//241 
f 249//238 253//242 254//243 
f 255//244 251//240 256//245 
f 253//242 257//246 258//245 
f 259//247 255//244 260//248 
f 257//246 261//249 262//250 
f 263//251 259//247 264//252 
f 261//249 265//253 266//254 
f 267//255 263//251 268//256 
f 265//253 269//257 270//258 
f 271//259 267//255 272//260 
f 269//257 273//261 274//262 
f 275//263 271//259 276//264 
f 273//261 277//265 278//266 
f 279//267 275//263 280//268 
f 277//265 281//269 282//268 
f 283//270 279//267 284//271 
f 281//269 285//272 286//273 
f 287//274 283//270 288//275 
f 285//272 289//276 290//275 
f 291//277 287//274 292//278 
f 289//276 293//279 294//280 
f 295//281 291//277 296//282 
f 293//279 297//283 298//284 
s 4
f 299//285 295//281 300//286 
f 297//283 301//287 302//288 
s 2
f 303//289 299//285 304//290 
f 301//287 305//291 306//292 
f 307//293 303//289 308//294 
f 305//291 309//295 310//296 
f 311//297 307//293 312//298 
f 309//295 313//299 314//300 
f 315//301 311//297 316//302 
f 313//299 317//303 318//304 
f 319//305 315//301 320//306 
f 317//303 321//307 322//308 
f 323//309 319//305 324//310 
f 321//307 325//311 326//312 
f 327//313 323//309 328//314 
f 325//311 329//315 330//316 
f 331//317 327//313 332//318 
f 329//315 333//319 334//320 
f 335//321 331//317 336//322 
f 333//319 337//323 338//324 
f 339//325 335//321 340//326 
f 337//323 341//327 342//328 
f 343//329 339//325 344//330 
f 341//327 345//331 346//332 
f 347//333 343//329 348//334 
f 345//331 349//335 350//336 
f 351//337 347//333 352//338 
f 349//335 353//339 354//340 
f 355//341 351//337 356//342 
f 353//339 357//343 358//344 
f 359//345 355//341 360//346 
f 357//343 361//347 362//348 
f 363//349 359//345 364//350 
f 361//347 365//351 366//352 
f 367//353 363//349 368//354 
f 365//351 369//355 370//356 
f 371//357 367//353 372//358 
f 369//355 373//359 374//358 
f 375//360 371//357 376//361 
f 373//359 377//362 378//363 
f 379//364 375//360 380//365 
f 377//362 381//366 382//367 
f 383//368 379//364 384//369 
f 381//366 385//370 386//371 
f 387//372 383//368 388//373 
f 385//370 389//374 390//373 
f 391//375 387//372 392//376 
f 389//374 393//377 394//378 
f 395//379 391//375 396//380 
f 393//377 397//381 398//380 
f 399//382 395//379 400//383 
f 397//381 401//384 402//385 
f 403//386 399//382 404//387 
f 401//384 405//388 406//389 
f 407//390 403//386 408//391 
f 405//388 409//392 410//393 
f 411//394 407//390 412//395 
f 409//392 413//396 414//397 
f 415//398 411//394 416//399 
f 413//396 417//400 418//401 
f 419//402 415//398 420//403 
f 417//400 421//404 422//405 
f 423//406 419//402 424//407 
f 421//404 425//408 426//409 
f 427//410 423//406 428//411 
f 425//408 429//412 430//413 
f 431//414 427//410 432//415 
f 429//412 433//416 434//417 
f 435//418 431//414 436//419 
f 433//416 437//420 438//419 
f 439//421 435//418 440//422 
f 437//420 441//423 442//424 
f 443//425 439//421 444//426 
f 441//423 445//427 446//428 
f 447//429 443//425 448//430 
f 445//427 449//431 450//432 
f 451//433 447//429 452//434 
f 449//431 453//435 454//434 
f 455//436 451//433 456//437 
f 453//435 457//438 458//439 
f 459//440 455//436 460//441 
f 457//438 461//442 462//443 
f 463//444 459//440 464//445 
f 461//442 465//446 466//447 
f 467//448 463//444 468//449 
f 465//446 469//450 470//451 
f 471//452 467//448 472//453 
f 469//450 473//454 474//455 
f 475//456 471//452 476//457 
f 473//454 477//458 478//459 
f 479//460 475//456 480//461 
f 477//458 481//462 482//463 
s 4
f 483//464 479//460 484//465 
f 481//462 485//466 486//467 
s 2
f 2//2 483//464 487//468 
f 485//466 4//4 488//469 
s 1
f 489//470 490//471 491//472 
f 492//473 493//474 494//475 
s 3
f 495//476 489//470 496//477 
f 493//474 497//478 498//479 
s 2
f 499//480 495//476 500//481 
f 497//478 501//482 502//483 
f 503//484 499//480 504//485 
f 501//482 505//486 506//485 
f 507//487 503//484 508//488 
f 505//486 509//489 510//490 
f 511//491 507//487 512//492 
f 509//489 513//493 514//492 
f 515//494 511//491 516//495 
f 513//493 517//496 518//497 
f 519//498 515//494 520//499 
f 517//496 521//500 522//499 
f 523//501 519//498 524//502 
f 521//500 525//503 526//504 
f 527//505 523//501 528//506 
f 525//503 529//507 530//508 
f 531//509 527//505 532//510 
f 529//507 533//511 534//512 
f 535//513 531//509 536//514 
f 533//511 537//515 538//514 
f 539//516 535//513 540//517 
f 537//515 541//518 542//517 
f 543//519 539//516 544//520 
f 541//518 545//521 546//522 
f 547//523 543//519 548//524 
f 545//521 549//525 550//526 
f 551//527 547//523 552//528 
f 549//525 553//529 554//530 
f 555//531 551//527 556//532 
f 553//529 557//533 558//534 
f 559//535 555//531 560//536 
f 557//533 561//537 562//538 
f 563//539 559//535 564//540 
f 561//537 565//541 566//542 
f 567//543 563//539 568//544 
f 565//541 569//545 570//544 
f 571//546 567//543 572//547 
f 569//545 573//548 574//549 
f 575//550 571//546 576//551 
f 573//548 577//552 578//553 
f 579//554 575//550 580//555 
f 577//552 581//556 582//557 
f 583//558 579//554 584//559 
f 581//556 585//560 586//559 
f 587//561 583//558 588//562 
f 585//560 589//563 590//564 
f 591//565 587//561 592//566 
f 589//563 593//567 594//568 
f 595//569 591//565 596//570 
f 593//567 597//571 598//572 
f 599//573 595//569 600//574 
f 597//571 601//575 602//574 
f 603//576 599//573 604//577 
f 601//575 605//578 606//579 
f 607//580 603//576 608//581 
f 605//578 609//582 610//583 
f 611//584 607//580 612//585 
f 609//582 613//586 614//585 
f 615//587 611//584 616//588 
f 613//586 617//589 618//590 
f 619//591 615//587 620//592 
f 617//589 621//593 622//594 
f 623//595 619//591 624//596 
f 621//593 625//597 626//598 
f 627//599 623//595 628//600 
f 625//597 629//601 630//602 
s 3
f 490//471 627//599 631//603 
f 629//601 492//473 632//603 
s 16
f 557//533 553//529 633//604 
f 561//537 557//533 634//604 
f 561//537 634//604 297//283 635//604 
f 565//541 561//537 636//604 
f 565//541 636//604 293//279 637//604 
f 569//545 565//541 638//604 
f 569//545 638//604 289//276 639//604 
f 573//548 569//545 640//604 
f 573//548 640//604 285//272 641//604 
f 577//552 573//548 642//604 
f 577//552 642//604 281//269 643//604 
f 581//556 577//552 644//604 
f 581//556 644//604 277//265 645//604 
f 585//560 581//556 646//604 
f 585//560 646//604 273//261 647//604 
f 585//560 647//604 269//257 648//604 
f 589//563 585//560 649//604 
f 593//567 589//563 650//604 
f 593//567 650//604 265//253 651//604 
f 593//567 651//604 261//249 652//604 
f 597//571 593//567 653//604 
f 597//571 653//604 257//246 654//604 
f 597//571 654//604 253//242 655//604 
f 601//575 597//571 656//604 
f 601//575 656//604 249//238 657//604 
f 601//575 657//604 245//235 658//604 
f 605//578 601//575 659//604 
f 605//578 659//604 241//231 660//604 
f 605//578 660//604 237//227 661//604 
f 609//582 605//578 662//604 
f 609//582 662//604 233//223 663//604 
f 609//582 663//604 229//219 664//604 
f 613//586 609//582 665//604 
f 613//586 665//604 225//215 666//604 
f 613//586 666//604 221//211 667//604 
f 617//589 613//586 668//604 
f 617//589 668//604 217//207 669//604 
f 617//589 669//604 213//203 670//604 
f 621//593 617//589 671//604 
f 621//593 671//604 209//199 672//604 
f 621//593 672//604 205//195 673//604 
f 621//593 673//604 201//191 674//604 
f 625//597 621//593 675//604 
f 625//597 675//604 197//187 676//604 
f 629//601 625//597 677//604 
f 629//601 677//604 193//183 678//604 
f 492//473 629//601 679//604 
f 492//473 679//604 189//179 680//604 
f 493//474 492//473 681//604 
f 497//478 493//474 682//604 
f 497//478 682//604 185//175 683//604 
f 501//482 497//478 684//604 
f 501//482 684//604 181//171 685//604 
f 505//486 501//482 686//604 
f 505//486 686//604 177//168 687//604 
f 509//489 505//486 688//604 
f 509//489 688//604 173//164 689//604 
f 513//493 509//489 690//604 
f 513//493 690//604 169//160 691//604 
f 517//496 513//493 692//604 
f 517//496 692//604 165//156 693//604 
f 521//500 517//496 694//604 
f 521//500 694//604 161//152 695//604 
f 521//500 695//604 157//149 696//604 
f 521//500 696//604 153//146 697//604 
f 521//500 697//604 149//143 698//604 
f 521//500 698//604 145//140 699//604 
f 521//500 699//604 141//137 700//604 
f 521//500 700//604 137//134 701//604 
f 521//500 701//604 133//130 702//604 
f 521//500 702//604 129//126 703//604 
f 521//500 703//604 125//122 704//604 
f 521//500 704//604 121//118 705//604 
f 521//500 705//604 117//114 706//604 
f 525//503 521//500 707//604 
f 529//507 525//503 708//604 
f 533//511 529//507 709//604 
f 537//515 533//511 710//604 
f 541//518 537//515 711//604 
f 545//521 541//518 712//604 
f 549//525 545//521 713//604 
f 553//529 549//525 714//604 
f 297//283 633//604 553//529 715//604 
f 301//287 297//283 716//604 
f 305//291 301//287 717//604 
f 309//295 305//291 718//604 
f 313//299 309//295 719//604 
f 317//303 313//299 720//604 
f 317//303 720//604 113//111 721//604 
f 321//307 317//303 722//604 
f 321//307 722//604 109//107 723//604 
f 321//307 723//604 105//103 724//604 
f 321//307 724//604 101//99 725//604 
f 325//311 321//307 726//604 
f 325//311 726//604 97//95 727//604 
f 325//311 727//604 93//91 728//604 
f 329//315 325//311 729//604 
f 329//315 729//604 89//87 730//604 
f 333//319 329//315 731//604 
f 333//319 731//604 85//83 732//604 
f 333//319 732//604 81//80 733//604 
f 337//323 333//319 734//604 
f 337//323 734//604 77//76 735//604 
f 341//327 337//323 736//604 
f 341//327 736//604 73//72 737//604 
f 345//331 341//327 738//604 
f 349//335 345//331 739//604 
f 349//335 739//604 69//68 740//604 
f 353//339 349//335 741//604 
f 353//339 741//604 65//64 742//604 
f 357//343 353//339 743//604 
f 357//343 743//604 61//60 744//604 
f 361//347 357//343 745//604 
f 361//347 745//604 57//56 746//604 
f 365//351 361//347 747//604 
f 365//351 747//604 53//52 748//604 
f 369//355 365//351 749//604 
f 369//355 749//604 49//48 750//604 
f 373//359 369//355 751//604 
f 373//359 751//604 45//44 752//604 
f 377//362 373//359 753//604 
f 381//366 377//362 754//604 
f 381//366 754//604 41//40 755//604 
f 385//370 381//366 756//604 
f 389//374 385//370 757//604 
f 393//377 389//374 758//604 
f 397//381 393//377 759//604 
f 401//384 397//381 760//604 
f 405//388 401//384 761//604 
f 409//392 405//388 762//604 
f 413//396 409//392 763//604 
f 417//400 413//396 764//604 
f 421//404 417//400 765//604 
f 421//404 765//604 37//36 766//604 
f 425//408 421//404 767//604 
f 425//408 767//604 33//32 768//604 
f 425//408 768//604 29//28 769//604 
f 429//412 425//408 770//604 
f 429//412 770//604 25//24 771//604 
f 433//416 429//412 772//604 
f 437//420 433//416 773//604 
f 437//420 773//604 21//20 774//604 
f 441//423 437//420 775//604 
f 445//427 441//423 776//604 
f 445//427 776//604 17//16 777//604 
f 449//431 445//427 778//604 
f 453//435 449//431 779//604 
f 457//438 453//435 780//604 
f 457//438 780//604 13//12 781//604 
f 461//442 457//438 782//604 
f 465//446 461//442 783//604 
f 465//446 783//604 9//8 784//604 
f 469//450 465//446 785//604 
f 473//454 469//450 786//604 
f 473//454 786//604 5//5 787//604 
f 477//458 473//454 788//604 
f 481//462 477//458 789//604 
f 481//462 789//604 4//4 790//604 
f 479//460 483//464 791//605 
f 295//281 792//605 551//527 793//605 
f 295//281 793//605 555//531 794//605 
f 291//277 295//281 795//605 
f 291//277 795//605 559//535 796//605 
f 287//274 291//277 797//605 
f 287//274 797//605 563//539 798//605 
f 283//270 287//274 799//605 
f 283//270 799//605 567//543 800//605 
f 279//267 283//270 801//605 
f 279//267 801//605 571//546 802//605 
f 275//263 279//267 803//605 
f 275//263 803//605 575//550 804//605 
f 271//259 275//263 805//605 
f 271//259 805//605 579//554 806//605 
f 267//255 271//259 807//605 
f 263//251 267//255 808//605 
f 263//251 808//605 583//558 809//605 
f 263//251 809//605 587//561 810//605 
f 259//247 263//251 811//605 
f 255//244 259//247 812//605 
f 255//244 812//605 591//565 813//605 
f 251//240 255//244 814//605 
f 247//236 251//240 815//605 
f 247//236 815//605 595//569 816//605 
f 243//233 247//236 817//605 
f 239//229 243//233 818//605 
f 239//229 818//605 599//573 819//605 
f 235//225 239//229 820//605 
f 231//221 235//225 821//605 
f 231//221 821//605 603//576 822//605 
f 227//217 231//221 823//605 
f 223//213 227//217 824//605 
f 223//213 824//605 607//580 825//605 
f 219//209 223//213 826//605 
f 215//205 219//209 827//605 
f 215//205 827//605 611//584 828//605 
f 211//201 215//205 829//605 
f 207//197 211//201 830//605 
f 207//197 830//605 615//587 831//605 
f 203//193 207//197 832//605 
f 199//189 203//193 833//605 
f 195//185 199//189 834//605 
f 195//185 834//605 619//591 835//605 
f 191//181 195//185 836//605 
f 191//181 836//605 623//595 837//605 
f 187//177 191//181 838//605 
f 187//177 838//605 627//599 839//605 
f 183//173 187//177 840//605 
f 183//173 840//605 490//471 841//605 
f 183//173 841//605 489//470 842//605 
f 179//169 183//173 843//605 
f 179//169 843//605 495//476 844//605 
f 175//166 179//169 845//605 
f 175//166 845//605 499//480 846//605 
f 171//162 175//166 847//605 
f 171//162 847//605 503//484 848//605 
f 167//158 171//162 849//605 
f 167//158 849//605 507//487 850//605 
f 163//154 167//158 851//605 
f 163//154 851//605 511//491 852//605 
f 159//150 163//154 853//605 
f 159//150 853//605 515//494 854//605 
f 155//147 159//150 855//605 
f 151//144 155//147 856//605 
f 147//141 151//144 857//605 
f 143//138 147//141 858//605 
f 139//135 143//138 859//605 
f 135//132 139//135 860//605 
f 131//128 135//132 861//605 
f 127//124 131//128 862//605 
f 123//120 127//124 863//605 
f 119//116 123//120 864//605 
f 115//112 119//116 865//605 
f 111//109 115//112 866//605 
f 111//109 866//605 519//498 867//605 
f 111//109 867//605 523//501 868//605 
f 111//109 868//605 527//505 869//605 
f 111//109 869//605 531//509 870//605 
f 111//109 870//605 535//513 871//605 
f 111//109 871//605 539//516 872//605 
f 111//109 872//605 543//519 873//605 
f 111//109 873//605 547//523 874//605 
f 111//109 874//605 551//527 792//605 
f 111//109 792//605 295//281 875//605 
f 111//109 875//605 299//285 876//605 
f 111//109 876//605 303//289 877//605 
f 111//109 877//605 307//293 878//605 
f 111//109 878//605 311//297 879//605 
f 107//105 111//109 880//605 
f 107//105 880//605 315//301 881//605 
f 103//101 107//105 882//605 
f 99//97 103//101 883//605 
f 95//93 99//97 884//605 
f 95//93 884//605 319//305 885//605 
f 91//89 95//93 886//605 
f 87//85 91//89 887//605 
f 87//85 887//605 323//309 888//605 
f 83//81 87//85 889//605 
f 83//81 889//605 327//313 890//605 
f 79//78 83//81 891//605 
f 75//74 79//78 892//605 
f 75//74 892//605 331//317 893//605 
f 71//70 75//74 894//605 
f 71//70 894//605 335//321 895//605 
f 67//66 71//70 896//605 
f 67//66 896//605 339//325 897//605 
f 67//66 897//605 343//329 898//605 
f 63//62 67//66 899//605 
f 63//62 899//605 347//333 900//605 
f 59//58 63//62 901//605 
f 59//58 901//605 351//337 902//605 
f 55//54 59//58 903//605 
f 55//54 903//605 355//341 904//605 
f 51//50 55//54 905//605 
f 51//50 905//605 359//345 906//605 
f 47//46 51//50 907//605 
f 47//46 907//605 363//349 908//605 
f 43//42 47//46 909//605 
f 43//42 909//605 367//353 910//605 
f 39//38 43//42 911//605 
f 39//38 911//605 371//357 912//605 
f 39//38 912//605 375//360 913//605 
f 35//34 39//38 914//605 
f 35//34 914//605 379//364 915//605 
f 35//34 915//605 383//368 916//605 
f 35//34 916//605 387//372 917//605 
f 35//34 917//605 391//375 918//605 
f 35//34 918//605 395//379 919//605 
f 35//34 919//605 399//382 920//605 
f 35//34 920//605 403//386 921//605 
f 35//34 921//605 407//390 922//605 
f 35//34 922//605 411//394 923//605 
f 35//34 923//605 415//398 924//605 
f 31//30 35//34 925//605 
f 31//30 925//605 419//402 926//605 
f 27//26 31//30 927//605 
f 23//22 27//26 928//605 
f 23//22 928//605 423//406 929//605 
f 19//18 23//22 930//605 
f 19//18 930//605 427//410 931//605 
f 19//18 931//605 431//414 932//605 
f 15//14 19//18 933//605 
f 15//14 933//605 435//418 934//605 
f 15//14 934//605 439//421 935//605 
f 11//10 15//14 936//605 
f 11//10 936//605 443//425 937//605 
f 11//10 937//605 447//429 938//605 
f 11//10 938//605 451//433 939//605 
f 7//6 11//10 940//605 
f 7//6 940//605 455//436 941//605 
f 7//6 941//605 459//440 942//605 
f 1//1 7//6 943//605 
f 1//1 943//605 463//444 944//605 
f 1//1 944//605 467//448 945//605 
f 2//2 1//1 946//605 
f 2//2 946//605 471//452 947//605 
f 479//460 791//605 2//2 948//605 
s 1
f 3//3 2//2 4//4 
f 1//1 3//3 4//4 6//3 
f 6//3 5//5 1//1 
s 3
f 8//7 1//1 5//5 
f 7//6 8//7 5//5 10//9 
f 10//9 9//8 7//6 
s 2
f 12//11 7//6 9//8 
f 11//10 12//11 9//8 14//13 
f 14//13 13//12 11//10 
f 16//15 11//10 13//12 
f 15//14 16//15 13//12 18//17 
f 18//17 17//16 15//14 
f 20//19 15//14 17//16 
f 19//18 20//19 17//16 22//21 
f 22//21 21//20 19//18 
f 24//23 19//18 21//20 
f 23//22 24//23 21//20 26//25 
f 26//25 25//24 23//22 
f 28//27 23//22 25//24 
f 27//26 28//27 25//24 30//29 
f 30//29 29//28 27//26 
f 32//31 27//26 29//28 
f 31//30 32//31 29//28 34//33 
f 34//33 33//32 31//30 
f 36//35 31//30 33//32 
f 35//34 36//35 33//32 38//37 
f 38//37 37//36 35//34 
f 40//39 35//34 37//36 
f 39//38 40//39 37//36 42//41 
f 42//41 41//40 39//38 
f 44//43 39//38 41//40 
f 43//42 44//43 41//40 46//45 
f 46//45 45//44 43//42 
f 48//47 43//42 45//44 
f 47//46 48//47 45//44 50//49 
f 50//49 49//48 47//46 
f 52//51 47//46 49//48 
f 51//50 52//51 49//48 54//53 
f 54//53 53//52 51//50 
f 56//55 51//50 53//52 
f 55//54 56//55 53//52 58//57 
f 58//57 57//56 55//54 
f 60//59 55//54 57//56 
f 59//58 60//59 57//56 62//61 
f 62//61 61//60 59//58 
f 64//63 59//58 61//60 
f 63//62 64//63 61//60 66//65 
f 66//65 65//64 63//62 
f 68//67 63//62 65//64 
f 67//66 68//67 65//64 70//69 
f 70//69 69//68 67//66 
f 72//71 67//66 69//68 
f 71//70 72//71 69//68 74//73 
f 74//73 73//72 71//70 
f 76//75 71//70 73//72 
f 75//74 76//75 73//72 78//77 
f 78//77 77//76 75//74 
f 80//79 75//74 77//76 
f 79//78 80//79 77//76 82//79 
f 82//79 81//80 79//78 
f 84//82 79//78 81//80 
f 83//81 84//82 81//80 86//84 
f 86//84 85//83 83//81 
f 88//86 83//81 85//83 
f 87//85 88//86 85//83 90//88 
f 90//88 89//87 87//85 
f 92//90 87//85 89//87 
f 91//89 92//90 89//87 94//92 
f 94//92 93//91 91//89 
f 96//94 91//89 93//91 
f 95//93 96//94 93//91 98//96 
f 98//96 97//95 95//93 
f 100//98 95//93 97//95 
f 99//97 100//98 97//95 102//100 
f 102//100 101//99 99//97 
f 104//102 99//97 101//99 
f 103//101 104//102 101//99 106//104 
f 106//104 105//103 103//101 
f 108//106 103//101 105//103 
f 107//105 108//106 105//103 110//108 
f 110//108 109//107 107//105 
f 112//110 107//105 109//107 
f 111//109 112//110 109//107 114//110 
f 114//110 113//111 111//109 
f 116//113 111//109 113//111 
f 115//112 116//113 113//111 118//115 
f 118//115 117//114 115//112 
f 120//117 115//112 117//114 
f 119//116 120//117 117//114 122//119 
f 122//119 121//118 119//116 
f 124//121 119//116 121//118 
f 123//120 124//121 121//118 126//123 
f 126//123 125//122 123//120 
f 128//125 123//120 125//122 
f 127//124 128//125 125//122 130//127 
f 130//127 129//126 127//124 
f 132//129 127//124 129//126 
f 131//128 132//129 129//126 134//131 
f 134//131 133//130 131//128 
f 136//133 131//128 133//130 
f 135//132 136//133 133//130 138//133 
f 138//133 137//134 135//132 
f 140//136 135//132 137//134 
f 139//135 140//136 137//134 142//136 
f 142//136 141//137 139//135 
f 144//139 139//135 141//137 
f 143//138 144//139 141//137 146//139 
f 146//139 145//140 143//138 
f 148//142 143//138 145//140 
f 147//141 148//142 145//140 150//142 
f 150//142 149//143 147//141 
s 4
f 152//145 147//141 149//143 
f 151//144 152//145 149//143 154//145 
f 154//145 153//146 151//144 
s 2
f 156//148 151//144 153//146 
f 155//147 156//148 153//146 158//148 
f 158//148 157//149 155//147 
f 160//151 155//147 157//149 
f 159//150 160//151 157//149 162//153 
f 162//153 161//152 159//150 
f 164//155 159//150 161//152 
f 163//154 164//155 161//152 166//157 
f 166//157 165//156 163//154 
f 168//159 163//154 165//156 
f 167//158 168//159 165//156 170//161 
f 170//161 169//160 167//158 
f 172//163 167//158 169//160 
f 171//162 172//163 169//160 174//165 
f 174//165 173//164 171//162 
f 176//167 171//162 173//164 
f 175//166 176//167 173//164 178//167 
f 178//167 177//168 175//166 
f 180//170 175//166 177//168 
f 179//169 180//170 177//168 182//172 
f 182//172 181//171 179//169 
f 184//174 179//169 181//171 
f 183//173 184//174 181//171 186//176 
f 186//176 185//175 183//173 
f 188//178 183//173 185//175 
f 187//177 188//178 185//175 190//180 
f 190//180 189//179 187//177 
f 192//182 187//177 189//179 
f 191//181 192//182 189//179 194//184 
f 194//184 193//183 191//181 
f 196//186 191//181 193//183 
f 195//185 196//186 193//183 198//188 
f 198//188 197//187 195//185 
f 200//190 195//185 197//187 
f 199//189 200//190 197//187 202//192 
f 202//192 201//191 199//189 
f 204//194 199//189 201//191 
f 203//193 204//194 201//191 206//196 
f 206//196 205//195 203//193 
f 208//198 203//193 205//195 
f 207//197 208//198 205//195 210//200 
f 210//200 209//199 207//197 
f 212//202 207//197 209//199 
f 211//201 212//202 209//199 214//204 
f 214//204 213//203 211//201 
f 216//206 211//201 213//203 
f 215//205 216//206 213//203 218//208 
f 218//208 217//207 215//205 
f 220//210 215//205 217//207 
f 219//209 220//210 217//207 222//212 
f 222//212 221//211 219//209 
f 224//214 219//209 221//211 
f 223//213 224//214 221//211 226//216 
f 226//216 225//215 223//213 
f 228//218 223//213 225//215 
f 227//217 228//218 225//215 230//220 
f 230//220 229//219 227//217 
f 232//222 227//217 229//219 
f 231//221 232//222 229//219 234//224 
f 234//224 233//223 231//221 
f 236//226 231//221 233//223 
f 235//225 236//226 233//223 238//228 
f 238//228 237//227 235//225 
f 240//230 235//225 237//227 
f 239//229 240//230 237//227 242//232 
f 242//232 241//231 239//229 
f 244//234 239//229 241//231 
f 243//233 244//234 241//231 246//234 
f 246//234 245//235 243//233 
f 248//237 243//233 245//235 
f 247//236 248//237 245//235 250//239 
f 250//239 249//238 247//236 
f 252//241 247//236 249//238 
f 251//240 252//241 249//238 254//243 
f 254//243 253//242 251//240 
f 256//245 251//240 253//242 
f 255//244 256//245 253//242 258//245 
f 258//245 257//246 255//244 
f 260//248 255//244 257//246 
f 259//247 260//248 257//246 262//250 
f 262//250 261//249 259//247 
f 264//252 259//247 261//249 
f 263//251 264//252 261//249 266//254 
f 266//254 265//253 263//251 
f 268//256 263//251 265//253 
f 267//255 268//256 265//253 270//258 
f 270//258 269//257 267//255 
f 272//260 267//255 269//257 
f 271//259 272//260 269//257 274//262 
f 274//262 273//261 271//259 
f 276//264 271//259 273//261 
f 275//263 276//264 273//261 278//266 
f 278//266 277//265 275//263 
f 280//268 275//263 277//265 
f 279//267 280//268 277//265 282//268 
f 282//268 281//269 279//267 
f 284//271 279//267 281//269 
f 283//270 284//271 281//269 286//273 
f 286//273 285//272 283//270 
f 288//275 283//270 285//272 
f 287//274 288//275 285//272 290//275 
f 290//275 289//276 287//274 
f 292//278 287//274 289//276 
f 291//277 292//278 289//276 294//280 
f 294//280 293//279 291//277 
f 296//282 291//277 293//279 
f 295//281 296//282 293//279 298//284 
f 298//284 297//283 295//281 
s 4
f 300//286 295//281 297//283 
f 299//285 300//286 297//283 302//288 
f 302//288 301//287 299//285 
s 2
f 304//290 299//285 301//287 
f 303//289 304//290 301//287 306//292 
f 306//292 305//291 303//289 
f 308//294 303//289 305//291 
f 307//293 308//294 305//291 310//296 
f 310//296 309//295 307//293 
f 312//298 307//293 309//295 
f 311//297 312//298 309//295 314//300 
f 314//300 313//299 311//297 
f 316//302 311//297 313//299 
f 315//301 316//302 313//299 318//304 
f 318//304 317//303 315//301 
f 320//306 315//301 317//303 
f 319//305 320//306 317//303 322//308 
f 322//308 321//307 319//305 
f 324//310 319//305 321//307 
f 323//309 324//310 321//307 326//312 
f 326//312 325//311 323//309 
f 328//314 323//309 325//311 
f 327//313 328//314 325//311 330//316 
f 330//316 329//315 327//313 
f 332//318 327//313 329//315 
f 331//317 332//318 329//315 334//320 
f 334//320 333//319 331//317 
f 336//322 331//317 333//319 
f 335//321 336//322 333//319 338//324 
f 338//324 337//323 335//321 
f 340//326 335//321 337//323 
f 339//325 340//326 337//323 342//328 
f 342//328 341//327 339//325 
f 344//330 339//325 341//327 
f 343//329 344//330 341//327 346//332 
f 346//332 345//331 343//329 
f 348//334 343//329 345//331 
f 347//333 348//334 345//331 350//336 
f 350//336 349//335 347//333 
f 352//338 347//333 349//335 
f 351//337 352//338 349//335 354//340 
f 354//340 353//339 351//337 
f 356//342 351//337 353//339 
f 355//341 356//342 353//339 358//344 
f 358//344 357//343 355//341 
f 360//346 355//341 357//343 
f 359//345 360//346 357//343 362//348 
f 362//348 361//347 359//345 
f 364//350 359//345 361//347 
f 363//349 364//350 361//347 366//352 
f 366//352 365//351 363//349 
f 368//354 363//349 365//351 
f 367//353 368//354 365//351 370//356 
f 370//356 369//355 367//353 
f 372//358 367//353 369//355 
f 371//357 372//358 369//355 374//358 
f 374//358 373//359 371//357 
f 376//361 371//357 373//359 
f 375//360 376//361 373//359 378//363 
f 378//363 377//362 375//360 
f 380//365 375//360 377//362 
f 379//364 380//365 377//362 382//367 
f 382//367 381//366 379//364 
f 384//369 379//364 381//366 
f 383//368 384//369 381//366 386//371 
f 386//371 385//370 383//368 
f 388//373 383//368 385//370 
f 387//372 388//373 385//370 390//373 
f 390//373 389//374 387//372 
f 392//376 387//372 389//374 
f 391//375 392//376 389//374 394//378 
f 394//378 393//377 391//375 
f 396//380 391//375 393//377 
f 395//379 396//380 393//377 398//380 
f 398//380 397//381 395//379 
f 400//383 395//379 397//381 
f 399//382 400//383 397//381 402//385 
f 402//385 401//384 399//382 
f 404//387 399//382 401//384 
f 403//386 404//387 401//384 406//389 
f 406//389 405//388 403//386 
f 408//391 403//386 405//388 
f 407//390 408//391 405//388 410//393 
f 410//393 409//392 407//390 
f 412//395 407//390 409//392 
f 411//394 412//395 409//392 414//397 
f 414//397 413//396 411//394 
f 416//399 411//394 413//396 
f 415//398 416//399 413//396 418//401 
f 418//401 417//400 415//398 
f 420//403 415//398 417//400 
f 419//402 420//403 417//400 422//405 
f 422//405 421//404 419//402 
f 424//407 419//402 421//404 
f 423//406 424//407 421//404 426//409 
f 426//409 425//408 423//406 
f 428//411 423//406 425//408 
f 427//410 428//411 425//408 430//413 
f 430//413 429//412 427//410 
f 432//415 427//410 429//412 
f 431//414 432//415 429//412 434//417 
f 434//417 433//416 431//414 
f 436//419 431//414 433//416 
f 435//418 436//419 433//416 438//419 
f 438//419 437//420 435//418 
f 440//422 435//418 437//420 
f 439//421 440//422 437//420 442//424 
f 442//424 441//423 439//421 
f 444//426 439//421 441//423 
f 443//425 444//426 441//423 446//428 
f 446//428 445//427 443//425 
f 448//430 443//425 445//427 
f 447//429 448//430 445//427 450//432 
f 450//432 449//431 447//429 
f 452//434 447//429 449//431 
f 451//433 452//434 449//431 454//434 
f 454//434 453//435 451//433 
f 456//437 451//433 453//435 
f 455//436 456//437 453//435 458//439 
f 458//439 457//438 455//436 
f 460//441 455//436 457//438 
f 459//440 460//441 457//438 462//443 
f 462//443 461//442 459//440 
f 464//445 459//440 461//442 
f 463//444 464//445 461//442 466//447 
f 466//447 465//446 463//444 
f 468//449 463//444 465//446 
f 467//448 468//449 465//446 470//451 
f 470//451 469//450 467//448 
f 472//453 467//448 469//450 
f 471//452 472//453 469//450 474//455 
f 474//455 473//454 471//452 
f 476//457 471//452 473//454 
f 475//456 476//457 473//454 478//459 
f 478//459 477//458 475//456 
f 480//461 475//456 477//458 
f 479//460 480//461 477//458 482//463 
f 482//463 481//462 479//460 
s 4
f 484//465 479//460 481//462 
f 483//464 484//465 481//462 486//467 
f 486//467 485//466 483//464 
s 2
f 487//468 483//464 485//466 
f 2//2 487//468 485//466 488//469 
f 488//469 4//4 2//2 
s 1
f 491//472 490//471 492//473 
f 489//470 491//472 492//473 494//475 
f 494//475 493//474 489//470 
s 3
f 496//477 489//470 493//474 
f 495//476 496//477 493//474 498//479 
f 498//479 497//478 495//476 
s 2
f 500//481 495//476 497//478 
f 499//480 500//481 497//478 502//483 
f 502//483 501//482 499//480 
f 504//485 499//480 501//482 
f 503//484 504//485 501//482 506//485 
f 506//485 505//486 503//484 
f 508//488 503//484 505//486 
f 507//487 508//488 505//486 510//490 
f 510//490 509//489 507//487 
f 512//492 507//487 509//489 
f 511//491 512//492 509//489 514//492 
f 514//492 513//493 511//491 
f 516//495 511//491 513//493 
f 515//494 516//495 513//493 518//497 
f 518//497 517//496 515//494 
f 520//499 515//494 517//496 
f 519//498 520//499 517//496 522//499 
f 522//499 521//500 519//498 
f 524//502 519//498 521//500 
f 523//501 524//502 521//500 526//504 
f 526//504 525//503 523//501 
f 528//506 523//501 525//503 
f 527//505 528//506 525//503 530//508 
f 530//508 529//507 527//505 
f 532//510 527//505 529//507 
f 531//509 532//510 529//507 534//512 
f 534//512 533//511 531//509 
f 536//514 531//509 533//511 
f 535//513 536//514 533//511 538//514 
f 538//514 537//515 535//513 
f 540//517 535//513 537//515 
f 539//516 540//517 537//515 542//517 
f 542//517 541//518 539//516 
f 544//520 539//516 541//518 
f 543//519 544//520 541//518 546//522 
f 546//522 545//521 543//519 
f 548//524 543//519 545//521 
f 547//523 548//524 545//521 550//526 
f 550//526 549//525 547//523 
f 552//528 547//523 549//525 
f 551//527 552//528 549//525 554//530 
f 554//530 553//529 551//527 
f 556//532 551//527 553//529 
f 555//531 556//532 553//529 558//534 
f 558//534 557//533 555//531 
f 560//536 555//531 557//533 
f 559//535 560//536 557//533 562//538 
f 562//538 561//537 559//535 
f 564//540 559//535 561//537 
f 563//539 564//540 561//537 566//542 
f 566//542 565//541 563//539 
f 568//544 563//539 565//541 
f 567//543 568//544 565//541 570//544 
f 570//544 569//545 567//543 
f 572//547 567//543 569//545 
f 571//546 572//547 569//545 574//549 
f 574//549 573//548 571//546 
f 576//551 571//546 573//548 
f 575//550 576//551 573//548 578//553 
f 578//553 577//552 575//550 
f 580//555 575//550 577//552 
f 579//554 580//555 577//552 582//557 
f 582//557 581//556 579//554 
f 584//559 579//554 581//556 
f 583//558 584//559 581//556 586//559 
f 586//559 585//560 583//558 
f 588//562 583//558 585//560 
f 587//561 588//562 585//560 590//564 
f 590//564 589//563 587//561 
f 592//566 587//561 589//563 
f 591//565 592//566 589//563 594//568 
f 594//568 593//567 591//565 
f 596//570 591//565 593//567 
f 595//569 596//570 593//567 598//572 
f 598//572 597//571 595//569 
f 600//574 595//569 597//571 
f 599//573 600//574 597//571 602//574 
f 602//574 601//575 599//573 
f 604//577 599//573 601//575 
f 603//576 604//577 601//575 606//579 
f 606//579 605//578 603//576 
f 608//581 603//576 605//578 
f 607//580 608//581 605//578 610//583 
f 610//583 609//582 607//580 
f 612//585 607//580 609//582 
f 611//584 612//585 609//582 614//585 
f 614//585 613//586 611//584 
f 616//588 611//584 613//586 
f 615//587 616//588 613//586 618//590 
f 618//590 617//589 615//587 
f 620//592 615//587 617//589 
f 619//591 620//592 617//589 622//594 
f 622//594 621//593 619//591 
f 624//596 619//591 621//593 
f 623//595 624//596 621//593 626//598 
f 626//598 625//597 623//595 
f 628//600 623//595 625//597 
f 627//599 628//600 625//597 630//602 
f 630//602 629//601 627//599 
s 3
f 631//603 627//599 629//601 
f 490//471 631//603 629//601 632//603 
f 632//603 492//473 490//471 
s 16
f 557//533 633//604 297//283 634//604 
f 635//604 297//283 293//279 
f 561//537 635//604 293//279 636//604 
f 637//604 293//279 289//276 
f 565//541 637//604 289//276 638//604 
f 639//604 289//276 285//272 
f 569//545 639//604 285//272 640//604 
f 641//604 285//272 281//269 
f 573//548 641//604 281//269 642//604 
f 643//604 281//269 277//265 
f 577//552 643//604 277//265 644//604 
f 645//604 277//265 273//261 
f 581//556 645//604 273//261 646//604 
f 647//604 273//261 269//257 
f 648//604 269//257 265//253 
f 585//560 648//604 265//253 649//604 
f 589//563 649//604 265//253 650//604 
f 651//604 265//253 261//249 
f 652//604 261//249 257//246 
f 593//567 652//604 257//246 653//604 
f 654//604 257//246 253//242 
f 655//604 253//242 249//238 
f 597//571 655//604 249//238 656//604 
f 657//604 249//238 245//235 
f 658//604 245//235 241//231 
f 601//575 658//604 241//231 659//604 
f 660//604 241//231 237//227 
f 661//604 237//227 233//223 
f 605//578 661//604 233//223 662//604 
f 663//604 233//223 229//219 
f 664//604 229//219 225//215 
f 609//582 664//604 225//215 665//604 
f 666//604 225//215 221//211 
f 667//604 221//211 217//207 
f 613//586 667//604 217//207 668//604 
f 669//604 217//207 213//203 
f 670//604 213//203 209//199 
f 617//589 670//604 209//199 671//604 
f 672//604 209//199 205//195 
f 673//604 205//195 201//191 
f 674//604 201//191 197//187 
f 621//593 674//604 197//187 675//604 
f 676//604 197//187 193//183 
f 625//597 676//604 193//183 677//604 
f 678//604 193//183 189//179 
f 629//601 678//604 189//179 679//604 
f 680//604 189//179 185//175 
f 492//473 680//604 185//175 681//604 
f 493//474 681//604 185//175 682//604 
f 683//604 185//175 181//171 
f 497//478 683//604 181//171 684//604 
f 685//604 181//171 177//168 
f 501//482 685//604 177//168 686//604 
f 687//604 177//168 173//164 
f 505//486 687//604 173//164 688//604 
f 689//604 173//164 169//160 
f 509//489 689//604 169//160 690//604 
f 691//604 169//160 165//156 
f 513//493 691//604 165//156 692//604 
f 693//604 165//156 161//152 
f 517//496 693//604 161//152 694//604 
f 695//604 161//152 157//149 
f 696//604 157//149 153//146 
f 697//604 153//146 149//143 
f 698//604 149//143 145//140 
f 699//604 145//140 141//137 
f 700//604 141//137 137//134 
f 701//604 137//134 133//130 
f 702//604 133//130 129//126 
f 703//604 129//126 125//122 
f 704//604 125//122 121//118 
f 705//604 121//118 117//114 
f 706//604 117//114 113//111 
f 521//500 706//604 113//111 707//604 
f 525//503 707//604 113//111 708//604 
f 529//507 708//604 113//111 709//604 
f 533//511 709//604 113//111 710//604 
f 537//515 710//604 113//111 711//604 
f 541//518 711//604 113//111 712//604 
f 545//521 712//604 113//111 713//604 
f 549//525 713//604 113//111 714//604 
f 553//529 714//604 113//111 715//604 
f 297//283 715//604 113//111 716//604 
f 301//287 716//604 113//111 717//604 
f 305//291 717//604 113//111 718//604 
f 309//295 718//604 113//111 719//604 
f 313//299 719//604 113//111 720//604 
f 721//604 113//111 109//107 
f 317//303 721//604 109//107 722//604 
f 723//604 109//107 105//103 
f 724//604 105//103 101//99 
f 725//604 101//99 97//95 
f 321//307 725//604 97//95 726//604 
f 727//604 97//95 93//91 
f 728//604 93//91 89//87 
f 325//311 728//604 89//87 729//604 
f 730//604 89//87 85//83 
f 329//315 730//604 85//83 731//604 
f 732//604 85//83 81//80 
f 733//604 81//80 77//76 
f 333//319 733//604 77//76 734//604 
f 735//604 77//76 73//72 
f 337//323 735//604 73//72 736//604 
f 737//604 73//72 69//68 
f 341//327 737//604 69//68 738//604 
f 345//331 738//604 69//68 739//604 
f 740//604 69//68 65//64 
f 349//335 740//604 65//64 741//604 
f 742//604 65//64 61//60 
f 353//339 742//604 61//60 743//604 
f 744//604 61//60 57//56 
f 357//343 744//604 57//56 745//604 
f 746//604 57//56 53//52 
f 361//347 746//604 53//52 747//604 
f 748//604 53//52 49//48 
f 365//351 748//604 49//48 749//604 
f 750//604 49//48 45//44 
f 369//355 750//604 45//44 751//604 
f 752//604 45//44 41//40 
f 373//359 752//604 41//40 753//604 
f 377//362 753//604 41//40 754//604 
f 755//604 41//40 37//36 
f 381//366 755//604 37//36 756//604 
f 385//370 756//604 37//36 757//604 
f 389//374 757//604 37//36 758//604 
f 393//377 758//604 37//36 759//604 
f 397//381 759//604 37//36 760//604 
f 401//384 760//604 37//36 761//604 
f 405//388 761//604 37//36 762//604 
f 409//392 762//604 37//36 763//604 
f 413//396 763//604 37//36 764//604 
f 417//400 764//604 37//36 765//604 
f 766//604 37//36 33//32 
f 421//404 766//604 33//32 767//604 
f 768//604 33//32 29//28 
f 769//604 29//28 25//24 
f 425//408 769//604 25//24 770//604 
f 771//604 25//24 21//20 
f 429//412 771//604 21//20 772//604 
f 433//416 772//604 21//20 773//604 
f 774//604 21//20 17//16 
f 437//420 774//604 17//16 775//604 
f 441//423 775//604 17//16 776//604 
f 777//604 17//16 13//12 
f 445//427 777//604 13//12 778//604 
f 449//431 778//604 13//12 779//604 
f 453//435 779//604 13//12 780//604 
f 781//604 13//12 9//8 
f 457//438 781//604 9//8 782//604 
f 461//442 782//604 9//8 783//604 
f 784//604 9//8 5//5 
f 465//446 784//604 5//5 785//604 
f 469//450 785//604 5//5 786//604 
f 787//604 5//5 4//4 
f 473//454 787//604 4//4 788//604 
f 477//458 788//604 4//4 789//604 
f 790//604 4//4 485//466 
f 481//462 790//604 485//466 
f 791//605 483//464 2//2 
f 793//605 551//527 555//531 
f 794//605 555//531 559//535 
f 295//281 794//605 559//535 795//605 
f 796//605 559//535 563//539 
f 291//277 796//605 563//539 797//605 
f 798//605 563//539 567//543 
f 287//274 798//605 567//543 799//605 
f 800//605 567//543 571//546 
f 283//270 800//605 571//546 801//605 
f 802//605 571//546 575//550 
f 279//267 802//605 575//550 803//605 
f 804//605 575//550 579//554 
f 275//263 804//605 579//554 805//605 
f 806//605 579//554 583//558 
f 271//259 806//605 583//558 807//605 
f 267//255 807//605 583//558 808//605 
f 809//605 583//558 587//561 
f 810//605 587//561 591//565 
f 263//251 810//605 591//565 811//605 
f 259//247 811//605 591//565 812//605 
f 813//605 591//565 595//569 
f 255//244 813//605 595//569 814//605 
f 251//240 814//605 595//569 815//605 
f 816//605 595//569 599//573 
f 247//236 816//605 599//573 817//605 
f 243//233 817//605 599//573 818//605 
f 819//605 599//573 603//576 
f 239//229 819//605 603//576 820//605 
f 235//225 820//605 603//576 821//605 
f 822//605 603//576 607//580 
f 231//221 822//605 607//580 823//605 
f 227//217 823//605 607//580 824//605 
f 825//605 607//580 611//584 
f 223//213 825//605 611//584 826//605 
f 219//209 826//605 611//584 827//605 
f 828//605 611//584 615//587 
f 215//205 828//605 615//587 829//605 
f 211//201 829//605 615//587 830//605 
f 831//605 615//587 619//591 
f 207//197 831//605 619//591 832//605 
f 203//193 832//605 619//591 833//605 
f 199//189 833//605 619//591 834//605 
f 835//605 619//591 623//595 
f 195//185 835//605 623//595 836//605 
f 837//605 623//595 627//599 
f 191//181 837//605 627//599 838//605 
f 839//605 627//599 490//471 
f 187//177 839//605 490//471 840//605 
f 841//605 490//471 489//470 
f 842//605 489//470 495//476 
f 183//173 842//605 495//476 843//605 
f 844//605 495//476 499//480 
f 179//169 844//605 499//480 845//605 
f 846//605 499//480 503//484 
f 175//166 846//605 503//484 847//605 
f 848//605 503//484 507//487 
f 171//162 848//605 507//487 849//605 
f 850//605 507//487 511//491 
f 167//158 850//605 511//491 851//605 
f 852//605 511//491 515//494 
f 163//154 852//605 515//494 853//605 
f 854//605 515//494 519//498 
f 159//150 854//605 519//498 855//605 
f 155//147 855//605 519//498 856//605 
f 151//144 856//605 519//498 857//605 
f 147//141 857//605 519//498 858//605 
f 143//138 858//605 519//498 859//605 
f 139//135 859//605 519//498 860//605 
f 135//132 860//605 519//498 861//605 
f 131//128 861//605 519//498 862//605 
f 127//124 862//605 519//498 863//605 
f 123//120 863//605 519//498 864//605 
f 119//116 864//605 519//498 865//605 
f 115//112 865//605 519//498 866//605 
f 867//605 519//498 523//501 
f 868//605 523//501 527//505 
f 869//605 527//505 531//509 
f 870//605 531//509 535//513 
f 871//605 535//513 539//516 
f 872//605 539//516 543//519 
f 873//605 543//519 547//523 
f 874//605 547//523 551//527 
f 875//605 295//281 299//285 
f 876//605 299//285 303//289 
f 877//605 303//289 307//293 
f 878//605 307//293 311//297 
f 879//605 311//297 315//301 
f 111//109 879//605 315//301 880//605 
f 881//605 315//301 319//305 
f 107//105 881//605 319//305 882//605 
f 103//101 882//605 319//305 883//605 
f 99//97 883//605 319//305 884//605 
f 885//605 319//305 323//309 
f 95//93 885//605 323//309 886//605 
f 91//89 886//605 323//309 887//605 
f 888//605 323//309 327//313 
f 87//85 888//605 327//313 889//605 
f 890//605 327//313 331//317 
f 83//81 890//605 331//317 891//605 
f 79//78 891//605 331//317 892//605 
f 893//605 331//317 335//321 
f 75//74 893//605 335//321 894//605 
f 895//605 335//321 339//325 
f 71//70 895//605 339//325 896//605 
f 897//605 339//325 343//329 
f 898//605 343//329 347//333 
f 67//66 898//605 347//333 899//605 
f 900//605 347//333 351//337 
f 63//62 900//605 351//337 901//605 
f 902//605 351//337 355//341 
f 59//58 902//605 355//341 903//605 
f 904//605 355//341 359//345 
f 55//54 904//605 359//345 905//605 
f 906//605 359//345 363//349 
f 51//50 906//605 363//349 907//605 
f 908//605 363//349 367//353 
f 47//46 908//605 367//353 909//605 
f 910//605 367//353 371//357 
f 43//42 910//605 371//357 911//605 
f 912//605 371//357 375//360 
f 913//605 375//360 379//364 
f 39//38 913//605 379//364 914//605 
f 915//605 379//364 383//368 
f 916//605 383//368 387//372 
f 917//605 387//372 391//375 
f 918//605 391//375 395//379 
f 919//605 395//379 399//382 
f 920//605 399//382 403//386 
f 921//605 403//386 407//390 
f 922//605 407//390 411//394 
f 923//605 411//394 415//398 
f 924//605 415//398 419//402 
f 35//34 924//605 419//402 925//605 
f 926//605 419//402 423//406 
f 31//30 926//605 423//406 927//605 
f 27//26 927//605 423//406 928//605 
f 929//605 423//406 427//410 
f 23//22 929//605 427//410 930//605 
f 931//605 427//410 431//414 
f 932//605 431//414 435//418 
f 19//18 932//605 435//418 933//605 
f 934//605 435//418 439//421 
f 935//605 439//421 443//425 
f 15//14 935//605 443//425 936//605 
f 937//605 443//425 447//429 
f 938//605 447//429 451//433 
f 939//605 451//433 455//436 
f 11//10 939//605 455//436 940//605 
f 941//605 455//436 459//440 
f 942//605 459//440 463//444 
f 7//6 942//605 463//444 943//605 
f 944//605 463//444 467//448 
f 945//605 467//448 471//452 
f 1//1 945//605 471//452 946//605 
f 947//605 471//452 475//456 
f 2//2 947//605 475//456 948//605 
f 479//460 948//605 475//456 
# 474 polygons - 948 triangles

