# 3ds Max Wavefront OBJ Exporter v0.97b - (c)2007 guruware
# File Created: 25.01.2021 00:22:33

#
# object Jo_Jaan
#

v  192.1104 10.0000 -12.3751
v  191.9915 10.0000 -13.2015
v  192.0312 6.6667 -12.9260
v  191.9915 0.0000 -13.2015
v  192.1104 0.0000 -12.3751
v  192.0708 3.3333 -12.6505
v  192.3070 10.0000 -11.5897
v  192.1759 6.6667 -12.1133
v  192.3070 0.0000 -11.5897
v  192.2415 3.3333 -11.8515
v  192.5815 10.0000 -10.8455
v  192.3985 6.6667 -11.3416
v  192.5815 0.0000 -10.8455
v  192.4900 3.3333 -11.0936
v  192.9337 10.0000 -10.1422
v  192.6989 6.6667 -10.6111
v  192.9337 0.0000 -10.1422
v  192.8163 3.3333 -10.3767
v  193.3637 10.0000 -9.4801
v  193.0770 6.6667 -9.9215
v  193.3637 0.0000 -9.4801
v  193.2204 3.3333 -9.7008
v  193.8715 10.0000 -8.8590
v  193.5330 6.6667 -9.2731
v  193.8715 0.0000 -8.8590
v  193.7023 3.3333 -9.0660
v  194.4572 10.0000 -8.2789
v  194.0667 6.6667 -8.6656
v  194.4572 0.0000 -8.2789
v  194.2619 3.3333 -8.4723
v  195.1206 10.0000 -7.7399
v  194.6783 6.6667 -8.0993
v  195.1206 0.0000 -7.7399
v  194.8994 3.3333 -7.9196
v  195.8618 10.0000 -7.2420
v  195.3676 6.6667 -7.5740
v  195.8618 0.0000 -7.2420
v  195.6147 3.3333 -7.4080
v  196.6578 10.0000 -6.7911
v  196.1271 6.6667 -7.0917
v  196.6578 0.0000 -6.7911
v  196.3925 3.3333 -6.9414
v  197.4857 10.0000 -6.3933
v  196.9338 6.6667 -6.6585
v  197.4857 0.0000 -6.3933
v  197.2097 3.3333 -6.5259
v  198.3454 10.0000 -6.0485
v  197.7722 6.6667 -6.2784
v  198.3454 0.0000 -6.0485
v  198.0588 3.3333 -6.1634
v  199.2369 10.0000 -5.7567
v  198.6426 6.6667 -5.9512
v  199.2369 0.0000 -5.7567
v  198.9397 3.3333 -5.8540
v  200.1603 10.0000 -5.5180
v  199.5447 6.6667 -5.6772
v  200.1603 0.0000 -5.5180
v  199.8525 3.3333 -5.5976
v  201.1155 10.0000 -5.3324
v  200.4787 6.6667 -5.4562
v  201.1155 0.0000 -5.3324
v  200.7971 3.3333 -5.3943
v  202.1025 10.0000 -5.1998
v  201.4445 6.6667 -5.2882
v  202.1025 0.0000 -5.1998
v  201.7735 3.3333 -5.2440
v  203.1214 10.0000 -5.1202
v  202.4421 6.6667 -5.1733
v  203.1214 0.0000 -5.1202
v  202.7818 3.3333 -5.1467
v  204.1721 10.0000 -5.0937
v  203.4716 6.6667 -5.1114
v  204.1721 0.0000 -5.0937
v  203.8218 3.3333 -5.1025
v  207.0558 10.0000 -5.2702
v  205.1333 6.6667 -5.1525
v  207.0558 0.0000 -5.2702
v  206.0946 3.3333 -5.2114
v  209.6003 10.0000 -5.7998
v  207.9040 6.6667 -5.4467
v  209.6003 0.0000 -5.7998
v  208.7521 3.3333 -5.6233
v  211.8055 10.0000 -6.6824
v  210.3354 6.6667 -6.0940
v  211.8055 0.0000 -6.6824
v  211.0704 3.3333 -6.3882
v  213.6715 10.0000 -7.9181
v  212.4275 6.6667 -7.0943
v  213.6715 0.0000 -7.9181
v  213.0495 3.3333 -7.5062
v  215.1982 10.0000 -9.5069
v  214.1804 6.6667 -8.4477
v  215.1982 0.0000 -9.5069
v  214.6893 3.3333 -8.9773
v  216.3856 10.0000 -11.4486
v  215.5940 6.6667 -10.1541
v  216.3856 0.0000 -11.4486
v  215.9898 3.3333 -10.8014
v  217.2337 10.0000 -13.7435
v  216.6683 6.6667 -12.2136
v  217.2337 0.0000 -13.7435
v  216.9510 3.3333 -12.9785
v  217.7426 10.0000 -16.3914
v  217.4034 6.6667 -14.6261
v  217.7426 0.0000 -16.3914
v  217.5730 3.3333 -15.5088
v  217.9123 10.0000 -19.3924
v  217.7992 6.6667 -17.3917
v  217.9123 0.0000 -19.3924
v  217.8557 3.3333 -18.3920
v  217.9123 10.0000 -37.4795
v  217.9123 6.6667 -25.4214
v  217.9123 0.0000 -37.4795
v  217.9123 3.3333 -31.4505
v  217.6489 10.0000 -41.1235
v  217.8245 6.6667 -38.6942
v  217.6489 0.0000 -41.1235
v  217.7367 3.3333 -39.9089
v  216.8588 10.0000 -44.3388
v  217.3856 6.6667 -42.1953
v  216.8588 0.0000 -44.3388
v  217.1222 3.3333 -43.2671
v  215.5420 10.0000 -47.1254
v  216.4199 6.6667 -45.2677
v  215.5420 0.0000 -47.1254
v  215.9810 3.3333 -46.1966
v  213.6985 10.0000 -49.4833
v  214.9275 6.6667 -47.9114
v  213.6985 0.0000 -49.4833
v  214.3130 3.3333 -48.6974
v  211.3282 10.0000 -51.4125
v  212.9084 6.6667 -50.1264
v  211.3282 0.0000 -51.4125
v  212.1183 3.3333 -50.7695
v  208.4313 10.0000 -52.9130
v  210.3626 6.6667 -51.9127
v  208.4313 0.0000 -52.9130
v  209.3969 3.3333 -52.4128
v  205.0076 10.0000 -53.9848
v  207.2900 6.6667 -53.2702
v  205.0076 0.0000 -53.9848
v  206.1488 3.3333 -53.6275
v  201.0571 10.0000 -54.6278
v  203.6908 6.6667 -54.1991
v  201.0571 0.0000 -54.6278
v  202.3739 3.3333 -54.4135
v  196.5800 10.0000 -54.8422
v  199.5648 6.6667 -54.6993
v  196.5800 0.0000 -54.8422
v  198.0724 3.3333 -54.7707
v  193.2994 10.0000 -54.7281
v  195.4865 6.6667 -54.8042
v  193.2994 0.0000 -54.7281
v  194.3929 3.3333 -54.7661
v  190.2598 10.0000 -54.3858
v  192.2862 6.6667 -54.6140
v  190.2598 0.0000 -54.3858
v  191.2730 3.3333 -54.4999
v  187.4612 10.0000 -53.8153
v  189.3270 6.6667 -54.1956
v  187.4612 0.0000 -53.8153
v  188.3941 3.3333 -54.0054
v  184.9036 10.0000 -53.0165
v  186.6087 6.6667 -53.5490
v  184.9036 0.0000 -53.0165
v  185.7562 3.3333 -53.2828
v  182.5871 10.0000 -51.9896
v  184.1314 6.6667 -52.6742
v  182.5871 0.0000 -51.9896
v  183.3592 3.3333 -52.3319
v  180.5115 10.0000 -50.7345
v  181.8952 6.6667 -51.5712
v  180.5115 0.0000 -50.7345
v  181.2033 3.3333 -51.1529
v  178.6769 10.0000 -49.2512
v  179.8999 6.6667 -50.2400
v  178.6769 0.0000 -49.2512
v  179.2884 3.3333 -49.7456
v  177.0833 10.0000 -47.5396
v  178.1457 6.6667 -48.6806
v  177.0833 0.0000 -47.5396
v  177.6145 3.3333 -48.1101
v  175.7307 10.0000 -45.5999
v  176.6324 6.6667 -46.8930
v  175.7307 0.0000 -45.5999
v  176.1816 3.3333 -46.2465
v  181.3858 10.0000 -41.6403
v  177.6157 6.6667 -44.2800
v  181.3858 0.0000 -41.6403
v  179.5007 3.3333 -42.9602
v  182.4430 10.0000 -43.1946
v  181.7382 6.6667 -42.1584
v  182.4430 0.0000 -43.1946
v  182.0906 3.3333 -42.6765
v  183.6369 10.0000 -44.5661
v  182.8410 6.6667 -43.6518
v  183.6369 0.0000 -44.5661
v  183.2389 3.3333 -44.1090
v  184.9674 10.0000 -45.7547
v  184.0804 6.6667 -44.9623
v  184.9674 0.0000 -45.7547
v  184.5239 3.3333 -45.3585
v  186.4346 10.0000 -46.7605
v  185.4565 6.6667 -46.0900
v  186.4346 0.0000 -46.7605
v  185.9455 3.3333 -46.4252
v  188.0384 10.0000 -47.5833
v  186.9692 6.6667 -47.0348
v  188.0384 0.0000 -47.5833
v  187.5038 3.3333 -47.3091
v  189.7789 10.0000 -48.2234
v  188.6186 6.6667 -47.7967
v  189.7789 0.0000 -48.2234
v  189.1988 3.3333 -48.0100
v  191.6561 10.0000 -48.6805
v  190.4046 6.6667 -48.3757
v  191.6561 0.0000 -48.6805
v  191.0303 3.3333 -48.5281
v  193.6698 10.0000 -48.9548
v  192.3273 6.6667 -48.7719
v  193.6698 0.0000 -48.9548
v  192.9986 3.3333 -48.8634
v  195.8203 10.0000 -49.0462
v  194.3867 6.6667 -48.9853
v  195.8203 0.0000 -49.0462
v  195.1035 3.3333 -49.0158
v  198.3957 10.0000 -48.9069
v  196.6788 6.6667 -48.9998
v  198.3957 0.0000 -48.9069
v  197.5372 3.3333 -48.9533
v  200.6681 10.0000 -48.4887
v  199.1532 6.6667 -48.7675
v  200.6681 0.0000 -48.4887
v  199.9106 3.3333 -48.6281
v  202.6376 10.0000 -47.7918
v  201.3246 6.6667 -48.2564
v  202.6376 0.0000 -47.7918
v  201.9811 3.3333 -48.0241
v  204.3040 10.0000 -46.8161
v  203.1930 6.6667 -47.4666
v  204.3040 0.0000 -46.8161
v  203.7485 3.3333 -47.1413
v  205.6674 10.0000 -45.5617
v  204.7585 6.6667 -46.3980
v  205.6674 0.0000 -45.5617
v  205.2130 3.3333 -45.9798
v  206.7279 10.0000 -44.0285
v  206.0209 6.6667 -45.0506
v  206.7279 0.0000 -44.0285
v  206.3744 3.3333 -44.5395
v  207.4854 10.0000 -42.2165
v  206.9804 6.6667 -43.4245
v  207.4854 0.0000 -42.2165
v  207.2329 3.3333 -42.8205
v  207.9399 10.0000 -40.1257
v  207.6369 6.6667 -41.5196
v  207.9399 0.0000 -40.1257
v  207.7884 3.3333 -40.8227
v  208.0914 10.0000 -37.7562
v  207.9904 6.6667 -39.3359
v  208.0914 0.0000 -37.7562
v  208.0409 3.3333 -38.5461
v  208.0914 10.0000 -16.7359
v  208.0914 6.6667 -30.7494
v  208.0914 0.0000 -16.7359
v  208.0914 3.3333 -23.7427
v  208.0424 10.0000 -15.5765
v  208.0750 6.6667 -16.3494
v  208.0424 0.0000 -15.5765
v  208.0587 3.3333 -15.9629
v  207.8953 10.0000 -14.5535
v  207.9934 6.6667 -15.2355
v  207.8953 0.0000 -14.5535
v  207.9444 3.3333 -14.8945
v  207.6503 10.0000 -13.6668
v  207.8137 6.6667 -14.2579
v  207.6503 0.0000 -13.6668
v  207.7320 3.3333 -13.9624
v  207.3073 10.0000 -12.9166
v  207.5359 6.6667 -13.4168
v  207.3073 0.0000 -12.9166
v  207.4216 3.3333 -13.1667
v  206.8662 10.0000 -12.3028
v  207.1602 6.6667 -12.7120
v  206.8662 0.0000 -12.3028
v  207.0132 3.3333 -12.5074
v  206.3271 10.0000 -11.8254
v  206.6865 6.6667 -12.1437
v  206.3271 0.0000 -11.8254
v  206.5068 3.3333 -11.9846
v  205.6900 10.0000 -11.4844
v  206.1147 6.6667 -11.7118
v  205.6900 0.0000 -11.4844
v  205.9024 3.3333 -11.5981
v  204.9549 10.0000 -11.2798
v  205.4450 6.6667 -11.4162
v  204.9549 0.0000 -11.2798
v  205.1999 3.3333 -11.3480
v  204.1218 10.0000 -11.2116
v  204.6772 6.6667 -11.2571
v  204.1218 0.0000 -11.2116
v  204.3995 3.3333 -11.2344
v  203.4473 10.0000 -11.2466
v  203.8969 6.6667 -11.2233
v  203.4473 0.0000 -11.2466
v  203.6721 3.3333 -11.2350
v  202.8459 10.0000 -11.3516
v  203.2468 6.6667 -11.2816
v  202.8459 0.0000 -11.3516
v  203.0464 3.3333 -11.3166
v  202.3178 10.0000 -11.5266
v  202.6699 6.6667 -11.4100
v  202.3178 0.0000 -11.5266
v  202.4939 3.3333 -11.4683
v  201.8628 10.0000 -11.7716
v  202.1661 6.6667 -11.6083
v  201.8628 0.0000 -11.7716
v  202.0145 3.3333 -11.6900
v  201.4810 10.0000 -12.0867
v  201.7355 6.6667 -11.8766
v  201.4810 0.0000 -12.0867
v  201.6083 3.3333 -11.9816
v  201.1724 10.0000 -12.4717
v  201.3781 6.6667 -12.2150
v  201.1724 0.0000 -12.4717
v  201.2752 3.3333 -12.3433
v  200.9369 10.0000 -12.9267
v  201.0939 6.6667 -12.6233
v  200.9369 0.0000 -12.9267
v  201.0154 3.3333 -12.7750
v  200.7746 10.0000 -13.4517
v  200.8828 6.6667 -13.1017
v  200.7746 0.0000 -13.4517
v  200.8287 3.3333 -13.2767
v  200.6855 10.0000 -14.0467
v  200.7449 6.6667 -13.6500
v  200.6855 0.0000 -14.0467
v  200.7152 3.3333 -13.8484
v  199.2365 10.0000 -30.7176
v  200.2025 6.6667 -19.6037
v  199.2365 0.0000 -30.7176
v  199.7195 3.3333 -25.1606
v  198.9937 10.0000 -32.4356
v  199.1555 6.6667 -31.2902
v  198.9937 0.0000 -32.4356
v  199.0746 3.3333 -31.8629
v  198.5596 10.0000 -33.9515
v  198.8490 6.6667 -32.9409
v  198.5596 0.0000 -33.9515
v  198.7043 3.3333 -33.4462
v  197.9339 10.0000 -35.2652
v  198.3510 6.6667 -34.3894
v  197.9339 0.0000 -35.2652
v  198.1425 3.3333 -34.8273
v  197.1169 10.0000 -36.3769
v  197.6616 6.6667 -35.6358
v  197.1169 0.0000 -36.3769
v  197.3893 3.3333 -36.0063
v  196.1084 10.0000 -37.2864
v  196.7807 6.6667 -36.6801
v  196.1084 0.0000 -37.2864
v  196.4446 3.3333 -36.9832
v  194.9085 10.0000 -37.9938
v  195.7085 6.6667 -37.5222
v  194.9085 0.0000 -37.9938
v  195.3085 3.3333 -37.7580
v  193.5172 10.0000 -38.4991
v  194.4447 6.6667 -38.1622
v  193.5172 0.0000 -38.4991
v  193.9810 3.3333 -38.3307
v  191.9344 10.0000 -38.8023
v  192.9896 6.6667 -38.6002
v  191.9344 0.0000 -38.8023
v  192.4620 3.3333 -38.7012
v  190.1602 10.0000 -38.9033
v  191.3430 6.6667 -38.8360
v  190.1602 0.0000 -38.9033
v  190.7516 3.3333 -38.8697
v  189.3947 10.0000 -38.8766
v  189.9050 6.6667 -38.8944
v  189.3947 0.0000 -38.8766
v  189.6498 3.3333 -38.8855
v  188.6477 10.0000 -38.7965
v  189.1457 6.6667 -38.8499
v  188.6477 0.0000 -38.7965
v  188.8967 3.3333 -38.8232
v  187.9193 10.0000 -38.6630
v  188.4049 6.6667 -38.7520
v  187.9193 0.0000 -38.6630
v  188.1621 3.3333 -38.7075
v  187.2095 10.0000 -38.4760
v  187.6827 6.6667 -38.6006
v  187.2095 0.0000 -38.4760
v  187.4461 3.3333 -38.5383
v  186.5183 10.0000 -38.2356
v  186.9791 6.6667 -38.3959
v  186.5183 0.0000 -38.2356
v  186.7487 3.3333 -38.3158
v  185.8457 10.0000 -37.9418
v  186.2941 6.6667 -38.1377
v  185.8457 0.0000 -37.9418
v  186.0699 3.3333 -38.0398
v  185.1916 10.0000 -37.5946
v  185.6276 6.6667 -37.8261
v  185.1916 0.0000 -37.5946
v  185.4096 3.3333 -37.7104
v  184.5560 10.0000 -37.1940
v  184.9797 6.6667 -37.4611
v  184.5560 0.0000 -37.1940
v  184.7679 3.3333 -37.3275
v  183.9391 10.0000 -36.7399
v  184.3504 6.6667 -37.0426
v  183.9391 0.0000 -36.7399
v  184.1447 3.3333 -36.8913
v  183.3652 10.0000 -36.2317
v  183.7478 6.6667 -36.5705
v  183.3652 0.0000 -36.2317
v  183.5565 3.3333 -36.4011
v  182.8588 10.0000 -35.6686
v  183.1964 6.6667 -36.0440
v  182.8588 0.0000 -35.6686
v  183.0276 3.3333 -35.8563
v  182.4200 10.0000 -35.0506
v  182.7125 6.6667 -35.4626
v  182.4200 0.0000 -35.0506
v  182.5663 3.3333 -35.2566
v  182.0486 10.0000 -34.3776
v  182.2962 6.6667 -34.8263
v  182.0486 0.0000 -34.3776
v  182.1724 3.3333 -34.6019
v  181.7448 10.0000 -33.6498
v  181.9473 6.6667 -34.1350
v  181.7448 0.0000 -33.6498
v  181.8461 3.3333 -33.8924
v  181.5085 10.0000 -32.8670
v  181.6660 6.6667 -33.3889
v  181.5085 0.0000 -32.8670
v  181.5872 3.3333 -33.1279
v  181.3397 10.0000 -32.0294
v  181.4522 6.6667 -32.5878
v  181.3397 0.0000 -32.0294
v  181.3960 3.3333 -32.3086
v  181.2384 10.0000 -31.1368
v  181.3059 6.6667 -31.7318
v  181.2384 0.0000 -31.1368
v  181.2722 3.3333 -31.4343
v  181.2047 10.0000 -30.1893
v  181.2272 6.6667 -30.8210
v  181.2047 0.0000 -30.1893
v  181.2159 3.3333 -30.5051
v  181.3259 10.0000 -28.4365
v  181.2451 6.6667 -29.6050
v  181.3259 0.0000 -28.4365
v  181.2855 3.3333 -29.0207
v  181.6896 10.0000 -26.8898
v  181.4471 6.6667 -27.9209
v  181.6896 0.0000 -26.8898
v  181.5684 3.3333 -27.4054
v  182.2959 10.0000 -25.5494
v  181.8917 6.6667 -26.4430
v  182.2959 0.0000 -25.5494
v  182.0938 3.3333 -25.9962
v  183.1446 10.0000 -24.4152
v  182.5788 6.6667 -25.1714
v  183.1446 0.0000 -24.4152
v  182.8617 3.3333 -24.7933
v  184.2358 10.0000 -23.4873
v  183.5083 6.6667 -24.1059
v  184.2358 0.0000 -23.4873
v  183.8721 3.3333 -23.7966
v  185.5695 10.0000 -22.7655
v  184.6804 6.6667 -23.2467
v  185.5695 0.0000 -22.7655
v  185.1249 3.3333 -23.0061
v  187.1457 10.0000 -22.2500
v  186.0949 6.6667 -22.5936
v  187.1457 0.0000 -22.2500
v  186.6203 3.3333 -22.4218
v  188.9644 10.0000 -21.9406
v  187.7519 6.6667 -22.1468
v  188.9644 0.0000 -21.9406
v  188.3581 3.3333 -22.0437
v  191.0255 10.0000 -21.8375
v  189.6514 6.6667 -21.9063
v  191.0255 0.0000 -21.8375
v  190.3385 3.3333 -21.8719
v  191.3475 6.6667 -18.9588
v  191.6695 3.3333 -16.0801
v  191.6192 10.0000 -33.8811
v  190.8645 10.0000 -34.0253
v  191.1161 6.6667 -33.9772
v  190.8645 0.0000 -34.0253
v  191.6192 0.0000 -33.8811
v  191.3677 3.3333 -33.9292
v  192.2733 10.0000 -33.6407
v  191.8372 6.6667 -33.8010
v  192.2733 0.0000 -33.6407
v  192.0553 3.3333 -33.7208
v  192.8267 10.0000 -33.3042
v  192.4578 6.6667 -33.5285
v  192.8267 0.0000 -33.3042
v  192.6422 3.3333 -33.4164
v  193.2795 10.0000 -32.8715
v  192.9776 6.6667 -33.1600
v  193.2795 0.0000 -32.8715
v  193.1286 3.3333 -33.0157
v  193.6317 10.0000 -32.3427
v  193.3969 6.6667 -32.6952
v  193.6317 0.0000 -32.3427
v  193.5143 3.3333 -32.5189
v  193.8833 10.0000 -31.7177
v  193.7156 6.6667 -32.1343
v  193.8833 0.0000 -31.7177
v  193.7994 3.3333 -31.9260
v  194.0342 10.0000 -30.9965
v  193.9336 6.6667 -31.4773
v  194.0342 0.0000 -30.9965
v  193.9839 3.3333 -31.2369
v  194.0845 10.0000 -30.1792
v  194.0510 6.6667 -30.7241
v  194.0845 0.0000 -30.1792
v  194.0677 3.3333 -30.4517
v  194.0342 10.0000 -29.3746
v  194.0677 6.6667 -29.9110
v  194.0342 0.0000 -29.3746
v  194.0510 3.3333 -29.6428
v  193.8833 10.0000 -28.6647
v  193.9839 6.6667 -29.1380
v  193.8833 0.0000 -28.6647
v  193.9336 3.3333 -28.9013
v  193.6317 10.0000 -28.0494
v  193.7994 6.6667 -28.4596
v  193.6317 0.0000 -28.0494
v  193.7156 3.3333 -28.2545
v  193.2795 10.0000 -27.5287
v  193.5143 6.6667 -27.8758
v  193.2795 0.0000 -27.5287
v  193.3969 3.3333 -27.7023
v  192.8267 10.0000 -27.1028
v  193.1286 6.6667 -27.3867
v  192.8267 0.0000 -27.1028
v  192.9776 3.3333 -27.2448
v  192.2733 10.0000 -26.7714
v  192.6422 6.6667 -26.9923
v  192.2733 0.0000 -26.7714
v  192.4578 3.3333 -26.8819
v  191.6192 10.0000 -26.5348
v  192.0553 6.6667 -26.6926
v  191.6192 0.0000 -26.5348
v  191.8372 3.3333 -26.6137
v  190.8645 10.0000 -26.3928
v  191.3677 6.6667 -26.4875
v  190.8645 0.0000 -26.3928
v  191.1161 3.3333 -26.4401
v  190.0092 10.0000 -26.3455
v  190.5795 6.6667 -26.3770
v  190.0092 0.0000 -26.3455
v  190.2943 3.3333 -26.3612
v  189.1413 10.0000 -26.3928
v  189.7199 6.6667 -26.3612
v  189.1413 0.0000 -26.3928
v  189.4306 3.3333 -26.3770
v  188.3754 10.0000 -26.5348
v  188.8860 6.6667 -26.4401
v  188.3754 0.0000 -26.5348
v  188.6307 3.3333 -26.4875
v  187.7117 10.0000 -26.7714
v  188.1542 6.6667 -26.6137
v  187.7117 0.0000 -26.7714
v  187.9329 3.3333 -26.6926
v  187.1500 10.0000 -27.1028
v  187.5245 6.6667 -26.8819
v  187.1500 0.0000 -27.1028
v  187.3372 3.3333 -26.9923
v  186.6905 10.0000 -27.5287
v  186.9969 6.6667 -27.2448
v  186.6905 0.0000 -27.5287
v  186.8437 3.3333 -27.3867
v  186.3331 10.0000 -28.0494
v  186.5714 6.6667 -27.7023
v  186.3331 0.0000 -28.0494
v  186.4523 3.3333 -27.8758
v  186.0778 10.0000 -28.6647
v  186.2480 6.6667 -28.2545
v  186.0778 0.0000 -28.6647
v  186.1629 3.3333 -28.4596
v  185.9247 10.0000 -29.3746
v  186.0268 6.6667 -28.9013
v  185.9247 0.0000 -29.3746
v  185.9757 3.3333 -29.1380
v  185.8736 10.0000 -30.1792
v  185.9076 6.6667 -29.6428
v  185.8736 0.0000 -30.1792
v  185.8906 3.3333 -29.9110
v  185.9247 10.0000 -30.9965
v  185.8906 6.6667 -30.4517
v  185.9247 0.0000 -30.9965
v  185.9076 3.3333 -30.7241
v  186.0778 10.0000 -31.7177
v  185.9757 6.6667 -31.2369
v  186.0778 0.0000 -31.7177
v  186.0268 3.3333 -31.4773
v  186.3331 10.0000 -32.3427
v  186.1629 6.6667 -31.9260
v  186.3331 0.0000 -32.3427
v  186.2480 3.3333 -32.1343
v  186.6905 10.0000 -32.8715
v  186.4522 6.6667 -32.5189
v  186.6905 0.0000 -32.8715
v  186.5714 3.3333 -32.6952
v  187.1500 10.0000 -33.3042
v  186.8437 6.6667 -33.0157
v  187.1500 0.0000 -33.3042
v  186.9969 3.3333 -33.1600
v  187.7117 10.0000 -33.6407
v  187.3372 6.6667 -33.4164
v  187.7117 0.0000 -33.6407
v  187.5245 3.3333 -33.5285
v  188.3754 10.0000 -33.8811
v  187.9329 6.6667 -33.7208
v  188.3754 0.0000 -33.8811
v  188.1542 3.3333 -33.8010
v  189.1413 10.0000 -34.0253
v  188.6307 6.6667 -33.9292
v  189.1413 0.0000 -34.0253
v  188.8860 3.3333 -33.9772
v  190.0092 10.0000 -34.0734
v  189.4306 6.6667 -34.0413
v  190.0092 0.0000 -34.0734
v  189.7199 3.3333 -34.0574
v  190.2943 6.6667 -34.0574
v  190.5795 3.3333 -34.0413
v  198.0021 0.0000 -24.9812
v  195.7851 0.0000 -30.6311
v  197.4215 0.0000 -31.3832
v  195.6371 0.0000 -31.7166
v  197.1455 0.0000 -32.7016
v  195.3582 0.0000 -32.6706
v  196.7084 0.0000 -33.8531
v  194.9484 0.0000 -33.4931
v  196.1101 0.0000 -34.8379
v  194.4077 0.0000 -34.1842
v  195.3507 0.0000 -35.6558
v  194.6145 0.0000 -36.1948
v  193.3362 0.0000 -34.9796
v  193.5663 0.0000 -36.7112
v  192.4699 0.0000 -35.3403
v  192.3569 0.0000 -37.0608
v  191.4727 0.0000 -35.5696
v  190.9361 0.0000 -35.6337
v  190.7013 0.0000 -37.2597
v  189.8547 0.0000 -37.2845
v  189.5151 0.0000 -35.6584
v  189.0612 0.0000 -37.2328
v  188.5694 0.0000 -37.1616
v  188.4787 0.0000 -35.5231
v  187.8348 0.0000 -37.0067
v  187.3678 0.0000 -36.8642
v  187.5351 0.0000 -35.2525
v  186.6919 0.0000 -36.6061
v  186.2496 0.0000 -36.3924
v  186.6844 0.0000 -34.8465
v  185.6325 0.0000 -36.0309
v  185.2151 0.0000 -35.7460
v  185.9265 0.0000 -34.3052
v  184.6649 0.0000 -35.2810
v  184.3048 0.0000 -34.9239
v  185.2942 0.0000 -33.6276
v  183.8706 0.0000 -34.3539
v  183.6006 0.0000 -33.9236
v  183.3755 0.0000 -33.4567
v  184.7186 0.0000 -32.5700
v  183.1104 0.0000 -32.7448
v  182.9753 0.0000 -32.2047
v  184.4474 0.0000 -31.5812
v  182.8342 0.0000 -31.3876
v  184.3456 0.0000 -30.7709
v  182.7722 0.0000 -30.5018
v  184.3343 0.0000 -29.9144
v  182.8184 0.0000 -29.3335
v  184.4428 0.0000 -28.8253
v  183.0311 0.0000 -27.9970
v  184.7002 0.0000 -27.8680
v  183.4395 0.0000 -26.8295
v  185.1065 0.0000 -27.0425
v  184.0437 0.0000 -25.8311
v  185.6617 0.0000 -26.3489
v  184.8435 0.0000 -25.0017
v  186.3658 0.0000 -25.7872
v  185.8390 0.0000 -24.3414
v  187.2189 0.0000 -25.3572
v  187.0302 0.0000 -23.8501
v  188.2208 0.0000 -25.0592
v  188.4171 0.0000 -23.5278
v  189.3716 0.0000 -24.8930
v  189.9461 0.0000 -24.8930
v  190.2848 0.0000 -23.3903
v  191.1698 0.0000 -24.9217
v  191.6394 0.0000 -25.0479
v  192.0418 0.0000 -25.2372
v  192.3773 0.0000 -25.4897
v  192.0989 0.0000 -20.8559
v  192.4605 0.0000 -17.7018
v  192.5656 0.0000 -17.1645
v  192.7227 0.0000 -16.6546
v  192.9315 0.0000 -16.1721
v  193.1923 0.0000 -15.7170
v  193.5049 0.0000 -15.2893
v  193.8694 0.0000 -14.8889
v  194.2858 0.0000 -14.5159
v  194.7540 0.0000 -14.1702
v  194.2577 0.0000 -20.9400
v  194.4589 0.0000 -21.3187
v  194.5931 0.0000 -21.7604
v  194.6602 0.0000 -22.2653
v  196.8773 0.0000 -17.1560
v  199.1073 0.0000 -11.5801
v  199.1911 0.0000 -11.2068
v  199.3237 0.0000 -10.8801
v  197.8973 0.0000 -8.8349
v  198.4386 0.0000 -8.5520
v  200.0463 0.0000 -10.3172
v  199.1040 0.0000 -8.1761
v  200.5631 0.0000 -9.9689
v  199.8150 0.0000 -7.8590
v  200.4200 0.0000 -7.6821
v  201.4470 0.0000 -9.6054
v  201.1978 0.0000 -7.4590
v  202.0931 0.0000 -9.4036
v  202.0213 0.0000 -7.2946
v  202.7986 0.0000 -9.2660
v  202.8904 0.0000 -7.1889
v  203.5802 0.0000 -7.1535
v  203.9137 0.0000 -9.1840
v  205.1165 0.0000 -7.1918
v  205.3775 0.0000 -9.2539
v  205.9002 0.0000 -9.3448
v  207.4487 0.0000 -7.5181
v  207.2058 0.0000 -9.7032
v  209.2443 0.0000 -8.1026
v  208.3329 0.0000 -10.2702
v  208.6597 0.0000 -10.6340
v  210.9281 0.0000 -9.1724
v  209.5430 0.0000 -11.5005
v  212.1733 0.0000 -10.3639
v  210.2479 0.0000 -12.5757
v  213.1597 0.0000 -11.8363
v  210.7744 0.0000 -13.8595
v  213.8872 0.0000 -13.5895
v  211.1225 0.0000 -15.3519
v  214.3559 0.0000 -15.6236
v  214.5821 0.0000 -17.5065
v  214.6386 0.0000 -24.5359
v  211.3650 0.0000 -30.6572
v  211.3145 0.0000 -38.4538
v  214.5004 0.0000 -39.5763
v  214.1492 0.0000 -41.8627
v  210.7614 0.0000 -42.2270
v  213.2954 0.0000 -44.5603
v  209.9184 0.0000 -44.4568
v  211.9895 0.0000 -46.8791
v  208.6980 0.0000 -46.3578
v  210.2314 0.0000 -48.8192
v  207.0999 0.0000 -47.9301
v  208.0212 0.0000 -50.3805
v  205.1243 0.0000 -49.1736
v  205.3588 0.0000 -51.5632
v  202.7711 0.0000 -50.0884
v  202.2443 0.0000 -52.3671
v  200.0403 0.0000 -50.6745
v  198.6776 0.0000 -52.7923
v  196.9320 0.0000 -50.9318
v  195.3567 0.0000 -50.9478
v  194.5164 0.0000 -52.8417
v  192.8751 0.0000 -50.7878
v  191.7384 0.0000 -52.5981
v  190.5649 0.0000 -50.4299
v  189.1667 0.0000 -52.1415
v  188.4262 0.0000 -49.8740
v  186.8011 0.0000 -51.4717
v  186.4589 0.0000 -49.1201
v  184.6418 0.0000 -50.5889
v  184.6630 0.0000 -48.1683
v  182.6886 0.0000 -49.4929
v  183.0386 0.0000 -47.0184
v  180.9417 0.0000 -48.1839
v  181.5856 0.0000 -45.6706
v  179.4011 0.0000 -46.6618
v  178.4190 0.0000 -45.4447
v  179.8532 0.0000 -43.4783
v  179.8532 10.0000 -43.4783
v  196.8773 10.0000 -17.1560
v  198.0021 10.0000 -24.9812
v  195.7851 10.0000 -30.6311
v  197.4215 10.0000 -31.3832
v  195.6371 10.0000 -31.7166
v  197.1455 10.0000 -32.7016
v  195.3582 10.0000 -32.6706
v  196.7084 10.0000 -33.8531
v  194.9484 10.0000 -33.4931
v  196.1101 10.0000 -34.8379
v  194.4077 10.0000 -34.1842
v  195.3507 10.0000 -35.6558
v  194.6145 10.0000 -36.1948
v  193.3362 10.0000 -34.9796
v  193.5663 10.0000 -36.7112
v  192.4699 10.0000 -35.3403
v  192.3569 10.0000 -37.0608
v  191.4727 10.0000 -35.5696
v  190.9361 10.0000 -35.6337
v  190.7013 10.0000 -37.2597
v  189.8547 10.0000 -37.2845
v  189.5151 10.0000 -35.6585
v  189.0612 10.0000 -37.2328
v  188.5694 10.0000 -37.1616
v  188.4787 10.0000 -35.5231
v  187.8348 10.0000 -37.0067
v  187.3678 10.0000 -36.8642
v  187.5351 10.0000 -35.2525
v  186.6919 10.0000 -36.6061
v  186.2496 10.0000 -36.3924
v  186.6844 10.0000 -34.8465
v  185.6325 10.0000 -36.0309
v  185.2151 10.0000 -35.7460
v  185.9265 10.0000 -34.3052
v  184.6649 10.0000 -35.2810
v  184.3049 10.0000 -34.9239
v  185.2942 10.0000 -33.6276
v  183.8706 10.0000 -34.3539
v  183.6006 10.0000 -33.9236
v  183.3755 10.0000 -33.4567
v  184.7186 10.0000 -32.5700
v  183.1104 10.0000 -32.7448
v  182.9753 10.0000 -32.2047
v  184.4474 10.0000 -31.5812
v  182.8342 10.0000 -31.3876
v  184.3456 10.0000 -30.7709
v  182.7722 10.0000 -30.5018
v  184.3343 10.0000 -29.9144
v  182.8184 10.0000 -29.3335
v  184.4428 10.0000 -28.8253
v  183.0311 10.0000 -27.9970
v  184.7002 10.0000 -27.8680
v  183.4395 10.0000 -26.8295
v  185.1065 10.0000 -27.0425
v  184.0437 10.0000 -25.8311
v  185.6617 10.0000 -26.3489
v  184.8435 10.0000 -25.0017
v  186.3658 10.0000 -25.7872
v  185.8390 10.0000 -24.3414
v  187.2189 10.0000 -25.3572
v  187.0302 10.0000 -23.8501
v  188.2208 10.0000 -25.0592
v  188.4171 10.0000 -23.5278
v  189.3716 10.0000 -24.8930
v  189.9461 10.0000 -24.8930
v  190.2848 10.0000 -23.3903
v  191.1698 10.0000 -24.9217
v  191.6394 10.0000 -25.0479
v  192.0418 10.0000 -25.2372
v  192.3773 10.0000 -25.4897
v  192.0989 10.0000 -20.8559
v  192.4605 10.0000 -17.7018
v  192.5656 10.0000 -17.1645
v  192.7227 10.0000 -16.6546
v  192.9315 10.0000 -16.1721
v  193.1923 10.0000 -15.7170
v  193.5049 10.0000 -15.2893
v  193.8694 10.0000 -14.8889
v  194.2858 10.0000 -14.5159
v  194.7540 10.0000 -14.1702
v  194.2577 10.0000 -20.9400
v  194.4589 10.0000 -21.3187
v  194.5931 10.0000 -21.7604
v  194.6602 10.0000 -22.2653
v  199.1073 10.0000 -11.5801
v  199.1911 10.0000 -11.2068
v  199.3237 10.0000 -10.8801
v  197.8973 10.0000 -8.8349
v  198.4386 10.0000 -8.5520
v  200.0463 10.0000 -10.3172
v  199.1040 10.0000 -8.1761
v  200.5631 10.0000 -9.9689
v  199.8150 10.0000 -7.8590
v  200.4200 10.0000 -7.6821
v  201.4470 10.0000 -9.6054
v  201.1978 10.0000 -7.4590
v  202.0931 10.0000 -9.4036
v  202.0213 10.0000 -7.2946
v  202.7986 10.0000 -9.2660
v  202.8904 10.0000 -7.1889
v  203.5802 10.0000 -7.1535
v  203.9137 10.0000 -9.1840
v  205.1165 10.0000 -7.1918
v  205.3775 10.0000 -9.2539
v  205.9002 10.0000 -9.3448
v  207.4487 10.0000 -7.5181
v  207.2058 10.0000 -9.7032
v  209.2443 10.0000 -8.1026
v  208.3329 10.0000 -10.2702
v  208.6597 10.0000 -10.6340
v  210.9281 10.0000 -9.1724
v  209.5430 10.0000 -11.5005
v  212.1733 10.0000 -10.3639
v  210.2479 10.0000 -12.5757
v  213.1597 10.0000 -11.8363
v  210.7744 10.0000 -13.8595
v  213.8872 10.0000 -13.5895
v  211.1225 10.0000 -15.3519
v  214.3559 10.0000 -15.6236
v  214.5821 10.0000 -17.5065
v  214.6386 10.0000 -24.5359
v  211.3650 10.0000 -30.6572
v  211.3145 10.0000 -38.4538
v  214.5004 10.0000 -39.5763
v  214.1492 10.0000 -41.8627
v  210.7614 10.0000 -42.2270
v  213.2954 10.0000 -44.5603
v  209.9184 10.0000 -44.4568
v  211.9895 10.0000 -46.8791
v  208.6980 10.0000 -46.3578
v  210.2314 10.0000 -48.8192
v  207.0999 10.0000 -47.9301
v  208.0212 10.0000 -50.3805
v  205.1243 10.0000 -49.1736
v  205.3588 10.0000 -51.5632
v  202.7711 10.0000 -50.0884
v  202.2443 10.0000 -52.3671
v  200.0403 10.0000 -50.6745
v  198.6776 10.0000 -52.7923
v  196.9320 10.0000 -50.9318
v  195.3567 10.0000 -50.9477
v  194.5164 10.0000 -52.8417
v  192.8751 10.0000 -50.7878
v  191.7384 10.0000 -52.5981
v  190.5649 10.0000 -50.4299
v  189.1667 10.0000 -52.1415
v  188.4262 10.0000 -49.8740
v  186.8011 10.0000 -51.4717
v  186.4589 10.0000 -49.1201
v  184.6418 10.0000 -50.5889
v  184.6630 10.0000 -48.1683
v  182.6886 10.0000 -49.4929
v  183.0386 10.0000 -47.0184
v  180.9417 10.0000 -48.1839
v  181.5856 10.0000 -45.6706
v  179.4011 10.0000 -46.6618
v  178.4190 10.0000 -45.4447
# 948 vertices

vn -0.7048 0.6958 0.1385
vn -0.7049 0.7036 0.0901
vn -0.9898 -0.0000 0.1423
vn -0.7049 -0.7036 0.0901
vn -0.7048 -0.6958 0.1385
vn -0.9898 0.0000 0.1423
vn -0.6869 0.6952 0.2120
vn -0.9701 -0.0000 0.2429
vn -0.6869 -0.6952 0.2120
vn -0.9701 0.0000 0.2429
vn -0.6599 0.6948 0.2859
vn -0.9383 -0.0000 0.3460
vn -0.6599 -0.6948 0.2859
vn -0.9383 0.0000 0.3460
vn -0.6241 0.6948 0.3575
vn -0.8941 -0.0000 0.4478
vn -0.6241 -0.6948 0.3575
vn -0.8941 0.0000 0.4478
vn -0.5807 0.6950 0.4240
vn -0.8387 -0.0000 0.5447
vn -0.5807 -0.6950 0.4240
vn -0.5317 0.6955 0.4833
vn -0.7742 -0.0000 0.6330
vn -0.5317 -0.6955 0.4833
vn -0.4795 0.6962 0.5342
vn -0.7037 0.0000 0.7105
vn -0.4795 -0.6962 0.5342
vn -0.4264 0.6970 0.5765
vn -0.6306 -0.0000 0.7761
vn -0.4264 -0.6970 0.5765
vn -0.3761 0.6986 0.6087
vn -0.5576 0.0000 0.8301
vn -0.3761 -0.6986 0.6087
vn -0.5576 -0.0000 0.8301
vn -0.3310 0.6996 0.6332
vn -0.4928 0.0000 0.8701
vn -0.3310 -0.6996 0.6332
vn -0.2879 0.6997 0.6539
vn -0.4331 -0.0000 0.9013
vn -0.2879 -0.6997 0.6539
vn -0.4331 0.0000 0.9013
vn -0.2442 0.6998 0.6713
vn -0.3722 -0.0000 0.9281
vn -0.2442 -0.6998 0.6713
vn -0.3722 0.0000 0.9281
vn -0.2005 0.7001 0.6854
vn -0.3110 0.0000 0.9504
vn -0.2005 -0.7001 0.6854
vn -0.3110 -0.0000 0.9504
vn -0.1575 0.7003 0.6962
vn -0.2503 -0.0000 0.9682
vn -0.1575 -0.7003 0.6962
vn -0.2503 0.0000 0.9682
vn -0.1156 0.7006 0.7041
vn -0.1908 -0.0000 0.9816
vn -0.1156 -0.7006 0.7041
vn -0.1908 0.0000 0.9816
vn -0.0753 0.7009 0.7093
vn -0.1332 -0.0000 0.9911
vn -0.0753 -0.7009 0.7093
vn -0.0368 0.7012 0.7120
vn -0.0779 -0.0000 0.9970
vn -0.0368 -0.7012 0.7120
vn -0.0779 0.0000 0.9970
vn 0.0129 0.6975 0.7165
vn -0.0252 -0.0000 0.9997
vn 0.0129 -0.6975 0.7165
vn -0.0252 0.0000 0.9997
vn 0.0959 0.6913 0.7162
vn 0.0611 0.0000 0.9981
vn 0.0959 -0.6913 0.7162
vn 0.2096 0.6879 0.6949
vn 0.2038 -0.0000 0.9790
vn 0.2096 -0.6879 0.6949
vn 0.2038 0.0000 0.9790
vn 0.3383 0.6849 0.6454
vn 0.3716 -0.0000 0.9284
vn 0.3383 -0.6849 0.6454
vn 0.4677 0.6832 0.5608
vn 0.5521 0.0000 0.8338
vn 0.4677 -0.6832 0.5608
vn 0.5521 -0.0000 0.8338
vn 0.5779 0.6836 0.4459
vn 0.7210 -0.0000 0.6929
vn 0.5779 -0.6836 0.4459
vn 0.7210 0.0000 0.6929
vn 0.6548 0.6859 0.3175
vn 0.8531 -0.0000 0.5217
vn 0.6548 -0.6859 0.3175
vn 0.8531 0.0000 0.5217
vn 0.6980 0.6891 0.1946
vn 0.9380 -0.0000 0.3467
vn 0.6980 -0.6891 0.1946
vn 0.9380 0.0000 0.3467
vn 0.7160 0.6924 0.0886
vn 0.9820 0.0000 0.1887
vn 0.7160 -0.6924 0.0886
vn 0.9820 -0.0000 0.1887
vn 0.7131 0.7008 0.0201
vn 0.9984 0.0000 0.0564
vn 0.7131 -0.7008 0.0201
vn 0.7146 0.6991 -0.0258
vn 1.0000 0.0000 -0.0000
vn 0.7146 -0.6991 -0.0258
vn 0.7163 0.6886 -0.1131
vn 0.9974 -0.0000 -0.0721
vn 0.7163 -0.6886 -0.1131
vn 0.9974 0.0000 -0.0721
vn 0.6863 0.6853 -0.2437
vn 0.9711 -0.0000 -0.2386
vn 0.6863 -0.6853 -0.2437
vn 0.9711 0.0000 -0.2386
vn 0.6217 0.6830 -0.3833
vn 0.9041 0.0000 -0.4272
vn 0.6217 -0.6830 -0.3833
vn 0.5217 0.6828 -0.5115
vn 0.7878 -0.0000 -0.6159
vn 0.5217 -0.6828 -0.5115
vn 0.7878 0.0000 -0.6159
vn 0.3997 0.6848 -0.6094
vn 0.6313 0.0000 -0.7756
vn 0.3997 -0.6848 -0.6094
vn 0.2763 0.6880 -0.6710
vn 0.4599 -0.0000 -0.8880
vn 0.2763 -0.6880 -0.6710
vn 0.1664 0.6915 -0.7030
vn 0.2988 0.0000 -0.9543
vn 0.1664 -0.6915 -0.7030
vn 0.2988 -0.0000 -0.9543
vn 0.0751 0.6946 -0.7155
vn 0.1607 -0.0000 -0.9870
vn 0.0751 -0.6946 -0.7155
vn 0.1607 0.0000 -0.9870
vn 0.0047 0.6979 -0.7162
vn 0.0478 -0.0000 -0.9989
vn 0.0047 -0.6979 -0.7162
vn 0.0478 0.0000 -0.9989
vn -0.0525 0.6985 -0.7137
vn -0.0348 -0.0000 -0.9994
vn -0.0525 -0.6985 -0.7137
vn -0.0348 0.0000 -0.9994
vn -0.1118 0.6972 -0.7081
vn -0.1119 -0.0000 -0.9937
vn -0.1118 -0.6972 -0.7081
vn -0.1119 0.0000 -0.9937
vn -0.1790 0.6959 -0.6955
vn -0.1997 -0.0000 -0.9798
vn -0.1790 -0.6959 -0.6955
vn -0.1997 0.0000 -0.9798
vn -0.2535 0.6944 -0.6734
vn -0.2981 -0.0000 -0.9545
vn -0.2535 -0.6944 -0.6734
vn -0.2981 0.0000 -0.9545
vn -0.3332 0.6931 -0.6392
vn -0.4053 -0.0000 -0.9142
vn -0.3332 -0.6931 -0.6392
vn -0.4053 0.0000 -0.9142
vn -0.4146 0.6921 -0.5908
vn -0.5175 -0.0000 -0.8557
vn -0.4146 -0.6921 -0.5908
vn -0.5175 0.0000 -0.8557
vn -0.4926 0.6916 -0.5283
vn -0.6287 -0.0000 -0.7776
vn -0.4926 -0.6916 -0.5283
vn -0.6287 0.0000 -0.7776
vn -0.5619 0.6916 -0.4538
vn -0.7319 0.0000 -0.6814
vn -0.5619 -0.6916 -0.4538
vn -0.8039 0.5775 0.1426
vn -0.8203 -0.0000 -0.5720
vn -0.8039 -0.5775 0.1426
vn 0.1473 0.5766 0.8036
vn -0.5736 0.0000 0.8192
vn 0.1473 -0.5766 0.8036
vn 0.5490 0.7207 0.4233
vn 0.8269 0.0000 0.5624
vn 0.5490 -0.7207 0.4233
vn 0.8269 -0.0000 0.5624
vn 0.4928 0.7215 0.4865
vn 0.7543 0.0000 0.6566
vn 0.4928 -0.7215 0.4865
vn 0.7543 -0.0000 0.6566
vn 0.4271 0.7218 0.5446
vn 0.6662 0.0000 0.7458
vn 0.4271 -0.7218 0.5446
vn 0.6662 -0.0000 0.7458
vn 0.3544 0.7217 0.5946
vn 0.5654 0.0000 0.8248
vn 0.3544 -0.7217 0.5946
vn 0.5654 -0.0000 0.8248
vn 0.2782 0.7211 0.6346
vn 0.4565 0.0000 0.8897
vn 0.2782 -0.7211 0.6346
vn 0.4565 -0.0000 0.8897
vn 0.2022 0.7201 0.6638
vn 0.3451 0.0000 0.9386
vn 0.2022 -0.7201 0.6638
vn 0.3451 -0.0000 0.9386
vn 0.1293 0.7189 0.6829
vn 0.2366 0.0000 0.9716
vn 0.1293 -0.7189 0.6829
vn 0.2366 -0.0000 0.9716
vn 0.0618 0.7177 0.6936
vn 0.1350 0.0000 0.9909
vn 0.0618 -0.7177 0.6936
vn 0.1350 -0.0000 0.9909
vn -0.0040 0.7181 0.6959
vn 0.0425 0.0000 0.9991
vn -0.0040 -0.7181 0.6959
vn 0.0425 -0.0000 0.9991
vn -0.0815 0.7218 0.6873
vn -0.0540 0.0000 0.9985
vn -0.0815 -0.7218 0.6873
vn -0.0540 -0.0000 0.9985
vn -0.1777 0.7253 0.6651
vn -0.1810 0.0000 0.9835
vn -0.1777 -0.7253 0.6651
vn -0.1810 -0.0000 0.9835
vn -0.2884 0.7290 0.6208
vn -0.3336 -0.0000 0.9427
vn -0.2884 -0.7290 0.6208
vn -0.3336 0.0000 0.9427
vn -0.4051 0.7320 0.5478
vn -0.5053 0.0000 0.8630
vn -0.4051 -0.7320 0.5478
vn -0.5132 0.7329 0.4466
vn -0.6771 0.0000 0.7359
vn -0.5132 -0.7329 0.4466
vn -0.6771 -0.0000 0.7359
vn -0.5983 0.7314 0.3273
vn -0.8224 0.0000 0.5688
vn -0.5983 -0.7314 0.3273
vn -0.8224 -0.0000 0.5688
vn -0.6538 0.7281 0.2058
vn -0.9226 0.0000 0.3857
vn -0.6538 -0.7281 0.2058
vn -0.9226 -0.0000 0.3857
vn -0.6827 0.7244 0.0955
vn -0.9772 0.0000 0.2124
vn -0.6827 -0.7244 0.0955
vn -0.9772 -0.0000 0.2124
vn -0.6994 0.7144 0.0223
vn -0.9980 0.0000 0.0638
vn -0.6994 -0.7144 0.0223
vn -0.9980 -0.0000 0.0638
vn -0.7021 0.7119 -0.0148
vn -1.0000 0.0000 -0.0000
vn -0.7021 -0.7119 -0.0148
vn -0.6925 0.7186 -0.0642
vn -0.9991 0.0000 -0.0422
vn -0.6925 -0.7186 -0.0642
vn -0.9991 -0.0000 -0.0422
vn -0.6776 0.7217 -0.1417
vn -0.9898 -0.0000 -0.1423
vn -0.6776 -0.7217 -0.1417
vn -0.6467 0.7255 -0.2355
vn -0.9639 -0.0000 -0.2664
vn -0.6467 -0.7255 -0.2355
vn -0.9639 0.0000 -0.2664
vn -0.5914 0.7296 -0.3434
vn -0.9094 -0.0000 -0.4159
vn -0.5914 -0.7296 -0.3434
vn -0.5048 0.7330 -0.4559
vn -0.8121 -0.0000 -0.5835
vn -0.5048 -0.7330 -0.4559
vn -0.8121 0.0000 -0.5835
vn -0.3878 0.7343 -0.5572
vn -0.6630 -0.0000 -0.7486
vn -0.3878 -0.7343 -0.5572
vn -0.6630 0.0000 -0.7486
vn -0.2534 0.7327 -0.6317
vn -0.4719 -0.0000 -0.8817
vn -0.2534 -0.7327 -0.6317
vn -0.4719 0.0000 -0.8817
vn -0.1202 0.7291 -0.6738
vn -0.2681 -0.0000 -0.9634
vn -0.1202 -0.7291 -0.6738
vn -0.2681 0.0000 -0.9634
vn -0.0103 0.7224 -0.6914
vn -0.0816 -0.0000 -0.9967
vn -0.0103 -0.7224 -0.6914
vn -0.0816 0.0000 -0.9967
vn 0.0777 0.7210 -0.6886
vn 0.0518 -0.0000 -0.9987
vn 0.0777 -0.7210 -0.6886
vn 0.0518 0.0000 -0.9987
vn 0.1683 0.7240 -0.6689
vn 0.1720 -0.0000 -0.9851
vn 0.1683 -0.7240 -0.6689
vn 0.1720 0.0000 -0.9851
vn 0.2717 0.7272 -0.6304
vn 0.3145 -0.0000 -0.9492
vn 0.2717 -0.7272 -0.6304
vn 0.3145 0.0000 -0.9492
vn 0.3814 0.7298 -0.5674
vn 0.4741 0.0000 -0.8805
vn 0.3814 -0.7298 -0.5674
vn 0.4741 -0.0000 -0.8805
vn 0.4860 0.7309 -0.4792
vn 0.6364 0.0000 -0.7714
vn 0.4860 -0.7309 -0.4792
vn 0.6364 -0.0000 -0.7714
vn 0.5729 0.7301 -0.3726
vn 0.7802 0.0000 -0.6255
vn 0.5729 -0.7301 -0.3726
vn 0.6348 0.7276 -0.2600
vn 0.8881 0.0000 -0.4596
vn 0.6348 -0.7276 -0.2600
vn 0.8881 -0.0000 -0.4596
vn 0.6720 0.7245 -0.1533
vn 0.9554 0.0000 -0.2953
vn 0.6720 -0.7245 -0.1533
vn 0.9554 -0.0000 -0.2953
vn 0.6952 0.7141 -0.0822
vn 0.9890 -0.0000 -0.1481
vn 0.6952 -0.7141 -0.0822
vn 0.9890 0.0000 -0.1481
vn 0.7085 0.7011 -0.0808
vn 0.9962 0.0000 -0.0866
vn 0.7085 -0.7011 -0.0808
vn 0.7062 0.6918 -0.1503
vn 0.9902 0.0000 -0.1399
vn 0.7062 -0.6918 -0.1503
vn 0.9902 -0.0000 -0.1399
vn 0.6779 0.6890 -0.2565
vn 0.9613 0.0000 -0.2753
vn 0.6779 -0.6890 -0.2565
vn 0.6240 0.6864 -0.3733
vn 0.9029 0.0000 -0.4299
vn 0.6241 -0.6864 -0.3733
vn 0.9029 -0.0000 -0.4299
vn 0.5403 0.6850 -0.4888
vn 0.8058 0.0000 -0.5922
vn 0.5403 -0.6850 -0.4888
vn 0.4310 0.6852 -0.5871
vn 0.6697 -0.0000 -0.7426
vn 0.4310 -0.6852 -0.5871
vn 0.6697 0.0000 -0.7426
vn 0.3099 0.6870 -0.6573
vn 0.5079 0.0000 -0.8614
vn 0.3099 -0.6870 -0.6573
vn 0.5079 -0.0000 -0.8614
vn 0.1923 0.6897 -0.6981
vn 0.3414 -0.0000 -0.9399
vn 0.1923 -0.6897 -0.6981
vn 0.3414 0.0000 -0.9399
vn 0.0886 0.6925 -0.7159
vn 0.1881 0.0000 -0.9821
vn 0.0886 -0.6925 -0.7159
vn 0.0079 0.6969 -0.7171
vn 0.0569 -0.0000 -0.9984
vn 0.0079 -0.6969 -0.7171
vn 0.0569 0.0000 -0.9984
vn -0.0506 0.6991 -0.7132
vn -0.0349 -0.0000 -0.9994
vn -0.0506 -0.6991 -0.7132
vn -0.0349 0.0000 -0.9994
vn -0.1027 0.6988 -0.7079
vn -0.1067 -0.0000 -0.9943
vn -0.1027 -0.6988 -0.7079
vn -0.1067 0.0000 -0.9943
vn -0.1557 0.6986 -0.6983
vn -0.1803 -0.0000 -0.9836
vn -0.1557 -0.6986 -0.6983
vn -0.1803 0.0000 -0.9836
vn -0.2088 0.6985 -0.6844
vn -0.2547 -0.0000 -0.9670
vn -0.2088 -0.6985 -0.6844
vn -0.2547 0.0000 -0.9670
vn -0.2609 0.6985 -0.6663
vn -0.3285 -0.0000 -0.9445
vn -0.2609 -0.6985 -0.6663
vn -0.3285 0.0000 -0.9445
vn -0.3111 0.6986 -0.6443
vn -0.4003 -0.0000 -0.9164
vn -0.3111 -0.6986 -0.6443
vn -0.4003 0.0000 -0.9164
vn -0.3587 0.6988 -0.6189
vn -0.4689 -0.0000 -0.8833
vn -0.3587 -0.6988 -0.6189
vn -0.4689 0.0000 -0.8833
vn -0.4028 0.6991 -0.5908
vn -0.5333 -0.0000 -0.8459
vn -0.4028 -0.6991 -0.5908
vn -0.4506 0.6971 -0.5577
vn -0.5927 -0.0000 -0.8054
vn -0.4506 -0.6971 -0.5577
vn -0.5927 0.0000 -0.8054
vn -0.5068 0.6945 -0.5107
vn -0.5068 -0.6945 -0.5107
vn -0.5618 0.6944 -0.4496
vn -0.7436 -0.0000 -0.6687
vn -0.5618 -0.6944 -0.4496
vn -0.7436 0.0000 -0.6687
vn -0.6092 0.6946 -0.3827
vn -0.8153 -0.0000 -0.5790
vn -0.6092 -0.6946 -0.3827
vn -0.8153 0.0000 -0.5790
vn -0.6474 0.6951 -0.3126
vn -0.8755 -0.0000 -0.4831
vn -0.6474 -0.6951 -0.3126
vn -0.8755 0.0000 -0.4831
vn -0.6761 0.6958 -0.2425
vn -0.9228 -0.0000 -0.3852
vn -0.6761 -0.6958 -0.2425
vn -0.9228 0.0000 -0.3852
vn -0.6958 0.6966 -0.1747
vn -0.9573 -0.0000 -0.2890
vn -0.6958 -0.6966 -0.1747
vn -0.9573 0.0000 -0.2890
vn -0.7078 0.6976 -0.1113
vn -0.9803 -0.0000 -0.1975
vn -0.7078 -0.6976 -0.1113
vn -0.9803 0.0000 -0.1975
vn -0.7136 0.6985 -0.0531
vn -0.9936 0.0000 -0.1127
vn -0.7136 -0.6985 -0.0531
vn -0.7184 0.6955 0.0120
vn -0.9994 -0.0000 -0.0356
vn -0.7184 -0.6955 0.0120
vn -0.7163 0.6893 0.1083
vn -0.9976 -0.0000 0.0690
vn -0.7163 -0.6893 0.1083
vn -0.9976 0.0000 0.0690
vn -0.6889 0.6860 0.2343
vn -0.9734 -0.0000 0.2289
vn -0.6889 -0.6860 0.2343
vn -0.9734 0.0000 0.2289
vn -0.6285 0.6835 0.3713
vn -0.9111 0.0000 0.4121
vn -0.6285 -0.6835 0.3713
vn -0.9111 -0.0000 0.4121
vn -0.5324 0.6828 0.5003
vn -0.8007 -0.0000 0.5991
vn -0.5324 -0.6828 0.5003
vn -0.8007 0.0000 0.5991
vn -0.4119 0.6844 0.6016
vn -0.6478 -0.0000 0.7618
vn -0.4119 -0.6844 0.6016
vn -0.2869 0.6874 0.6672
vn -0.4759 0.0000 0.8795
vn -0.2869 -0.6874 0.6672
vn -0.4759 -0.0000 0.8795
vn -0.1735 0.6909 0.7019
vn -0.3109 0.0000 0.9505
vn -0.1735 -0.6909 0.7019
vn -0.3109 -0.0000 0.9505
vn -0.0785 0.6940 0.7157
vn -0.1677 0.0000 0.9858
vn -0.0785 -0.6940 0.7157
vn -0.1677 -0.0000 0.9858
vn -0.3189 0.8851 0.3391
vn -0.0500 0.0000 0.9988
vn -0.3189 -0.8851 0.3391
vn -0.0500 -0.0000 0.9988
vn -0.9938 0.0000 0.1112
vn -0.9938 -0.0000 0.1112
vn -0.1838 0.7259 0.6627
vn -0.0845 0.7223 0.6864
vn -0.1877 0.0000 0.9822
vn -0.0845 -0.7223 0.6864
vn -0.1838 -0.7259 0.6627
vn -0.1877 -0.0000 0.9822
vn -0.2970 0.7296 0.6160
vn -0.3450 0.0000 0.9386
vn -0.2970 -0.7296 0.6160
vn -0.3450 -0.0000 0.9386
vn -0.4146 0.7322 0.5403
vn -0.5196 0.0000 0.8544
vn -0.4146 -0.7322 0.5403
vn -0.5214 0.7327 0.4373
vn -0.6909 -0.0000 0.7230
vn -0.5214 -0.7327 0.4373
vn -0.6909 0.0000 0.7230
vn -0.6038 0.7309 0.3183
vn -0.8323 -0.0000 0.5543
vn -0.6038 -0.7309 0.3183
vn -0.8323 0.0000 0.5543
vn -0.6566 0.7275 0.1992
vn -0.9277 0.0000 0.3734
vn -0.6566 -0.7275 0.1992
vn -0.6839 0.7238 0.0921
vn -0.9788 0.0000 0.2049
vn -0.6839 -0.7238 0.0921
vn -0.6926 0.7213 -0.0003
vn -0.9981 -0.0000 0.0614
vn -0.6926 -0.7213 -0.0003
vn -0.9981 0.0000 0.0614
vn -0.6834 0.7240 -0.0935
vn -0.9981 -0.0000 -0.0624
vn -0.6834 -0.7240 -0.0935
vn -0.9981 0.0000 -0.0624
vn -0.6555 0.7277 -0.2019
vn -0.9781 0.0000 -0.2080
vn -0.6555 -0.7277 -0.2019
vn -0.6016 0.7311 -0.3220
vn -0.9256 -0.0000 -0.3784
vn -0.6016 -0.7311 -0.3220
vn -0.9256 0.0000 -0.3784
vn -0.5181 0.7328 -0.4411
vn -0.8283 -0.0000 -0.5603
vn -0.5181 -0.7328 -0.4411
vn -0.4107 0.7321 -0.5434
vn -0.6852 0.0000 -0.7284
vn -0.4107 -0.7321 -0.5434
vn -0.2934 0.7294 -0.6180
vn -0.5137 -0.0000 -0.8580
vn -0.2934 -0.7294 -0.6180
vn -0.5137 0.0000 -0.8580
vn -0.1812 0.7257 -0.6637
vn -0.3402 -0.0000 -0.9403
vn -0.1812 -0.7257 -0.6637
vn -0.3402 0.0000 -0.9403
vn -0.0832 0.7221 -0.6868
vn -0.1849 -0.0000 -0.9828
vn -0.0832 -0.7221 -0.6868
vn -0.1849 0.0000 -0.9828
vn -0.0003 0.7197 -0.6943
vn -0.0553 -0.0000 -0.9985
vn -0.0003 -0.7197 -0.6943
vn 0.0821 0.7219 -0.6871
vn 0.0544 -0.0000 -0.9985
vn 0.0821 -0.7219 -0.6871
vn 0.1789 0.7254 -0.6646
vn 0.1823 -0.0000 -0.9832
vn 0.1789 -0.7254 -0.6646
vn 0.1823 0.0000 -0.9832
vn 0.2901 0.7292 -0.6198
vn 0.3358 -0.0000 -0.9419
vn 0.2901 -0.7292 -0.6198
vn 0.3358 0.0000 -0.9419
vn 0.4070 0.7320 -0.5464
vn 0.5081 -0.0000 -0.8613
vn 0.4070 -0.7320 -0.5464
vn 0.5081 0.0000 -0.8613
vn 0.5149 0.7329 -0.4447
vn 0.6798 0.0000 -0.7334
vn 0.5149 -0.7329 -0.4447
vn 0.6798 -0.0000 -0.7334
vn 0.5994 0.7313 -0.3255
vn 0.8244 0.0000 -0.5660
vn 0.5994 -0.7313 -0.3255
vn 0.8244 -0.0000 -0.5660
vn 0.6544 0.7280 -0.2045
vn 0.9237 0.0000 -0.3832
vn 0.6544 -0.7280 -0.2045
vn 0.9237 -0.0000 -0.3832
vn 0.6830 0.7243 -0.0948
vn 0.9775 0.0000 -0.2109
vn 0.6830 -0.7243 -0.0948
vn 0.9775 -0.0000 -0.2109
vn 0.6924 0.7215 -0.0003
vn 0.9980 0.0000 -0.0633
vn 0.6924 -0.7215 -0.0003
vn 0.9980 -0.0000 -0.0633
vn 0.6834 0.7240 0.0934
vn 0.9981 0.0000 0.0624
vn 0.6834 -0.7240 0.0934
vn 0.9981 -0.0000 0.0624
vn 0.6555 0.7277 0.2017
vn 0.9782 0.0000 0.2078
vn 0.6555 -0.7277 0.2017
vn 0.9782 -0.0000 0.2078
vn 0.6017 0.7311 0.3217
vn 0.9257 0.0000 0.3781
vn 0.6017 -0.7311 0.3217
vn 0.9257 -0.0000 0.3781
vn 0.5183 0.7328 0.4409
vn 0.8285 -0.0000 0.5599
vn 0.5183 -0.7328 0.4409
vn 0.4109 0.7321 0.5433
vn 0.6855 0.0000 0.7280
vn 0.4109 -0.7321 0.5433
vn 0.2936 0.7294 0.6179
vn 0.5140 0.0000 0.8578
vn 0.2936 -0.7294 0.6179
vn 0.5140 -0.0000 0.8578
vn 0.1814 0.7257 0.6637
vn 0.3405 0.0000 0.9402
vn 0.1814 -0.7257 0.6637
vn 0.3405 -0.0000 0.9402
vn 0.0833 0.7221 0.6867
vn 0.1851 0.0000 0.9827
vn 0.0833 -0.7221 0.6867
vn 0.1851 -0.0000 0.9827
vn -0.0003 0.7199 0.6941
vn 0.0553 0.0000 0.9985
vn -0.0003 -0.7199 0.6941
vn 0.0553 -0.0000 0.9985
vn -0.0561 0.0000 0.9984
vn -0.0561 -0.0000 0.9984
vn 0.0000 -1.0000 -0.0000
vn 0.0000 1.0000 -0.0000
# 593 vertex normals

o Jo_Jaan
g Jo_Jaan
s 1
f 1//1 2//2 3//3 
f 4//4 5//5 6//6 
s 3
f 7//7 1//1 8//8 
f 5//5 9//9 10//10 
s 2
f 11//11 7//7 12//12 
f 9//9 13//13 14//14 
f 15//15 11//11 16//16 
f 13//13 17//17 18//18 
f 19//19 15//15 20//20 
f 17//17 21//21 22//20 
f 23//22 19//19 24//23 
f 21//21 25//24 26//23 
f 27//25 23//22 28//26 
f 25//24 29//27 30//26 
f 31//28 27//25 32//29 
f 29//27 33//30 34//29 
f 35//31 31//28 36//32 
f 33//30 37//33 38//34 
f 39//35 35//31 40//36 
f 37//33 41//37 42//36 
f 43//38 39//35 44//39 
f 41//37 45//40 46//41 
f 47//42 43//38 48//43 
f 45//40 49//44 50//45 
f 51//46 47//42 52//47 
f 49//44 53//48 54//49 
f 55//50 51//46 56//51 
f 53//48 57//52 58//53 
f 59//54 55//50 60//55 
f 57//52 61//56 62//57 
f 63//58 59//54 64//59 
f 61//56 65//60 66//59 
f 67//61 63//58 68//62 
f 65//60 69//63 70//64 
f 71//65 67//61 72//66 
f 69//63 73//67 74//68 
f 75//69 71//65 76//70 
f 73//67 77//71 78//70 
f 79//72 75//69 80//73 
f 77//71 81//74 82//75 
f 83//76 79//72 84//77 
f 81//74 85//78 86//77 
f 87//79 83//76 88//80 
f 85//78 89//81 90//82 
f 91//83 87//79 92//84 
f 89//81 93//85 94//86 
f 95//87 91//83 96//88 
f 93//85 97//89 98//90 
f 99//91 95//87 100//92 
f 97//89 101//93 102//94 
f 103//95 99//91 104//96 
f 101//93 105//97 106//98 
f 107//99 103//95 108//100 
f 105//97 109//101 110//100 
s 4
f 111//102 107//99 112//103 
f 109//101 113//104 114//103 
s 2
f 115//105 111//102 116//106 
f 113//104 117//107 118//108 
f 119//109 115//105 120//110 
f 117//107 121//111 122//112 
f 123//113 119//109 124//114 
f 121//111 125//115 126//114 
f 127//116 123//113 128//117 
f 125//115 129//118 130//119 
f 131//120 127//116 132//121 
f 129//118 133//122 134//121 
f 135//123 131//120 136//124 
f 133//122 137//125 138//124 
f 139//126 135//123 140//127 
f 137//125 141//128 142//129 
f 143//130 139//126 144//131 
f 141//128 145//132 146//133 
f 147//134 143//130 148//135 
f 145//132 149//136 150//137 
f 151//138 147//134 152//139 
f 149//136 153//140 154//141 
f 155//142 151//138 156//143 
f 153//140 157//144 158//145 
f 159//146 155//142 160//147 
f 157//144 161//148 162//149 
f 163//150 159//146 164//151 
f 161//148 165//152 166//153 
f 167//154 163//150 168//155 
f 165//152 169//156 170//157 
f 171//158 167//154 172//159 
f 169//156 173//160 174//161 
f 175//162 171//158 176//163 
f 173//160 177//164 178//165 
f 179//166 175//162 180//167 
f 177//164 181//168 182//167 
f 183//169 179//166 184//170 
f 181//168 185//171 186//170 
s 4
f 187//172 183//169 188//173 
f 185//171 189//174 190//173 
s 2
f 191//175 187//172 192//176 
f 189//174 193//177 194//178 
f 195//179 191//175 196//180 
f 193//177 197//181 198//182 
f 199//183 195//179 200//184 
f 197//181 201//185 202//186 
f 203//187 199//183 204//188 
f 201//185 205//189 206//190 
f 207//191 203//187 208//192 
f 205//189 209//193 210//194 
f 211//195 207//191 212//196 
f 209//193 213//197 214//198 
f 215//199 211//195 216//200 
f 213//197 217//201 218//202 
f 219//203 215//199 220//204 
f 217//201 221//205 222//206 
f 223//207 219//203 224//208 
f 221//205 225//209 226//210 
f 227//211 223//207 228//212 
f 225//209 229//213 230//214 
f 231//215 227//211 232//216 
f 229//213 233//217 234//218 
f 235//219 231//215 236//220 
f 233//217 237//221 238//222 
f 239//223 235//219 240//224 
f 237//221 241//225 242//224 
f 243//226 239//223 244//227 
f 241//225 245//228 246//229 
f 247//230 243//226 248//231 
f 245//228 249//232 250//233 
f 251//234 247//230 252//235 
f 249//232 253//236 254//237 
f 255//238 251//234 256//239 
f 253//236 257//240 258//241 
f 259//242 255//238 260//243 
f 257//240 261//244 262//245 
s 4
f 263//246 259//242 264//247 
f 261//244 265//248 266//247 
s 2
f 267//249 263//246 268//250 
f 265//248 269//251 270//252 
f 271//253 267//249 272//254 
f 269//251 273//255 274//254 
f 275//256 271//253 276//257 
f 273//255 277//258 278//259 
f 279//260 275//256 280//261 
f 277//258 281//262 282//261 
f 283//263 279//260 284//264 
f 281//262 285//265 286//266 
f 287//267 283//263 288//268 
f 285//265 289//269 290//270 
f 291//271 287//267 292//272 
f 289//269 293//273 294//274 
f 295//275 291//271 296//276 
f 293//273 297//277 298//278 
f 299//279 295//275 300//280 
f 297//277 301//281 302//282 
f 303//283 299//279 304//284 
f 301//281 305//285 306//286 
f 307//287 303//283 308//288 
f 305//285 309//289 310//290 
f 311//291 307//287 312//292 
f 309//289 313//293 314//294 
f 315//295 311//291 316//296 
f 313//293 317//297 318//298 
f 319//299 315//295 320//300 
f 317//297 321//301 322//302 
f 323//303 319//299 324//304 
f 321//301 325//305 326//304 
f 327//306 323//303 328//307 
f 325//305 329//308 330//309 
f 331//310 327//306 332//311 
f 329//308 333//312 334//313 
f 335//314 331//310 336//315 
f 333//312 337//316 338//317 
s 4
f 339//318 335//314 340//319 
f 337//316 341//320 342//319 
s 2
f 343//321 339//318 344//322 
f 341//320 345//323 346//324 
f 347//325 343//321 348//326 
f 345//323 349//327 350//326 
f 351//328 347//325 352//329 
f 349//327 353//330 354//331 
f 355//332 351//328 356//333 
f 353//330 357//334 358//333 
f 359//335 355//332 360//336 
f 357//334 361//337 362//338 
f 363//339 359//335 364//340 
f 361//337 365//341 366//342 
f 367//343 363//339 368//344 
f 365//341 369//345 370//346 
f 371//347 367//343 372//348 
f 369//345 373//349 374//348 
f 375//350 371//347 376//351 
f 373//349 377//352 378//353 
f 379//354 375//350 380//355 
f 377//352 381//356 382//357 
f 383//358 379//354 384//359 
f 381//356 385//360 386//361 
f 387//362 383//358 388//363 
f 385//360 389//364 390//365 
f 391//366 387//362 392//367 
f 389//364 393//368 394//369 
f 395//370 391//366 396//371 
f 393//368 397//372 398//373 
f 399//374 395//370 400//375 
f 397//372 401//376 402//377 
f 403//378 399//374 404//379 
f 401//376 405//380 406//381 
f 407//382 403//378 408//383 
f 405//380 409//384 410//383 
f 411//385 407//382 412//386 
f 409//384 413//387 414//388 
f 415//389 411//385 416//268 
f 413//387 417//390 418//270 
f 419//391 415//389 420//392 
f 417//390 421//393 422//394 
f 423//395 419//391 424//396 
f 421//393 425//397 426//398 
f 427//399 423//395 428//400 
f 425//397 429//401 430//402 
f 431//403 427//399 432//404 
f 429//401 433//405 434//406 
f 435//407 431//403 436//408 
f 433//405 437//409 438//410 
f 439//411 435//407 440//412 
f 437//409 441//413 442//414 
f 443//415 439//411 444//416 
f 441//413 445//417 446//416 
f 447//418 443//415 448//419 
f 445//417 449//420 450//419 
f 451//421 447//418 452//422 
f 449//420 453//423 454//424 
f 455//425 451//421 456//426 
f 453//423 457//427 458//428 
f 459//429 455//425 460//430 
f 457//427 461//431 462//432 
f 463//433 459//429 464//434 
f 461//431 465//435 466//436 
f 467//437 463//433 468//438 
f 465//435 469//439 470//438 
f 471//440 467//437 472//441 
f 469//439 473//442 474//443 
f 475//444 471//440 476//445 
f 473//442 477//446 478//447 
f 479//448 475//444 480//449 
f 477//446 481//450 482//451 
f 483//452 479//448 484//453 
f 481//450 485//454 486//455 
s 4
f 2//2 483//452 487//456 
f 485//454 4//4 488//457 
s 1
f 489//458 490//459 491//460 
f 492//461 493//462 494//463 
s 3
f 495//464 489//458 496//465 
f 493//462 497//466 498//467 
s 2
f 499//468 495//464 500//469 
f 497//466 501//470 502//469 
f 503//471 499//468 504//472 
f 501//470 505//473 506//474 
f 507//475 503//471 508//476 
f 505//473 509//477 510//478 
f 511//479 507//475 512//480 
f 509//477 513//481 514//480 
f 515//482 511//479 516//483 
f 513//481 517//484 518//483 
f 519//485 515//482 520//486 
f 517//484 521//487 522//488 
f 523//489 519//485 524//490 
f 521//487 525//491 526//492 
f 527//493 523//489 528//494 
f 525//491 529//495 530//494 
f 531//496 527//493 532//497 
f 529//495 533//498 534//499 
f 535//500 531//496 536//501 
f 533//498 537//502 538//501 
f 539//503 535//500 540//504 
f 537//502 541//505 542//504 
f 543//506 539//503 544//507 
f 541//505 545//508 546//509 
f 547//510 543//506 548//511 
f 545//508 549//512 550//513 
f 551//514 547//510 552//515 
f 549//512 553//516 554//517 
f 555//518 551//514 556//519 
f 553//516 557//520 558//519 
f 559//521 555//518 560//522 
f 557//520 561//523 562//522 
f 563//524 559//521 564//525 
f 561//523 565//526 566//527 
f 567//528 563//524 568//529 
f 565//526 569//530 570//531 
f 571//532 567//528 572//533 
f 569//530 573//534 574//535 
f 575//536 571//532 576//537 
f 573//534 577//538 578//539 
f 579//540 575//536 580//541 
f 577//538 581//542 582//543 
f 583//544 579//540 584//545 
f 581//542 585//546 586//547 
f 587//548 583//544 588//549 
f 585//546 589//550 590//551 
f 591//552 587//548 592//553 
f 589//550 593//554 594//555 
f 595//556 591//552 596//557 
f 593//554 597//558 598//559 
f 599//560 595//556 600//561 
f 597//558 601//562 602//563 
f 603//564 599//560 604//565 
f 601//562 605//566 606//567 
f 607//568 603//564 608//569 
f 605//566 609//570 610//569 
f 611//571 607//568 612//572 
f 609//570 613//573 614//572 
f 615//574 611//571 616//575 
f 613//573 617//576 618//577 
f 619//578 615//574 620//579 
f 617//576 621//580 622//581 
f 623//582 619//578 624//583 
f 621//580 625//584 626//585 
f 627//586 623//582 628//587 
f 625//584 629//588 630//589 
s 3
f 490//459 627//586 631//590 
f 629//588 492//461 632//591 
s 16
f 341//320 337//316 633//592 
f 341//320 633//592 521//487 634//592 
f 345//323 341//320 635//592 
f 345//323 635//592 517//484 636//592 
f 349//327 345//323 637//592 
f 349//327 637//592 513//481 638//592 
f 353//330 349//327 639//592 
f 353//330 639//592 509//477 640//592 
f 357//334 353//330 641//592 
f 357//334 641//592 505//473 642//592 
f 361//337 357//334 643//592 
f 365//341 361//337 644//592 
f 365//341 644//592 501//470 645//592 
f 369//345 365//341 646//592 
f 369//345 646//592 497//466 647//592 
f 373//349 369//345 648//592 
f 373//349 648//592 493//462 649//592 
f 373//349 649//592 492//461 650//592 
f 377//352 373//349 651//592 
f 381//356 377//352 652//592 
f 381//356 652//592 629//588 653//592 
f 385//360 381//356 654//592 
f 389//364 385//360 655//592 
f 389//364 655//592 625//584 656//592 
f 393//368 389//364 657//592 
f 397//372 393//368 658//592 
f 397//372 658//592 621//580 659//592 
f 401//376 397//372 660//592 
f 405//380 401//376 661//592 
f 405//380 661//592 617//576 662//592 
f 409//384 405//380 663//592 
f 413//387 409//384 664//592 
f 413//387 664//592 613//573 665//592 
f 417//390 413//387 666//592 
f 421//393 417//390 667//592 
f 421//393 667//592 609//570 668//592 
f 425//397 421//393 669//592 
f 429//401 425//397 670//592 
f 433//405 429//401 671//592 
f 433//405 671//592 605//566 672//592 
f 437//409 433//405 673//592 
f 441//413 437//409 674//592 
f 441//413 674//592 601//562 675//592 
f 445//417 441//413 676//592 
f 445//417 676//592 597//558 677//592 
f 449//420 445//417 678//592 
f 449//420 678//592 593//554 679//592 
f 453//423 449//420 680//592 
f 453//423 680//592 589//550 681//592 
f 457//427 453//423 682//592 
f 457//427 682//592 585//546 683//592 
f 461//431 457//427 684//592 
f 461//431 684//592 581//542 685//592 
f 465//435 461//431 686//592 
f 465//435 686//592 577//538 687//592 
f 469//439 465//435 688//592 
f 469//439 688//592 573//534 689//592 
f 473//442 469//439 690//592 
f 473//442 690//592 569//530 691//592 
f 477//446 473//442 692//592 
f 477//446 692//592 565//526 693//592 
f 481//450 477//446 694//592 
f 481//450 694//592 561//523 695//592 
f 481//450 695//592 557//520 696//592 
f 485//454 481//450 697//592 
f 485//454 697//592 553//516 698//592 
f 485//454 698//592 549//512 699//592 
f 485//454 699//592 545//508 700//592 
f 485//454 700//592 541//505 701//592 
f 4//4 485//454 702//592 
f 5//5 4//4 703//592 
f 9//9 5//5 704//592 
f 13//13 9//9 705//592 
f 17//17 13//13 706//592 
f 21//21 17//17 707//592 
f 25//24 21//21 708//592 
f 29//27 25//24 709//592 
f 33//30 29//27 710//592 
f 37//33 33//30 711//592 
f 37//33 711//592 537//502 712//592 
f 37//33 712//592 533//498 713//592 
f 37//33 713//592 529//495 714//592 
f 37//33 714//592 525//491 715//592 
f 37//33 715//592 521//487 716//592 
f 37//33 716//592 337//316 717//592 
f 37//33 717//592 333//312 718//592 
f 37//33 718//592 329//308 719//592 
f 41//37 37//33 720//592 
f 45//40 41//37 721//592 
f 45//40 721//592 325//305 722//592 
f 49//44 45//40 723//592 
f 49//44 723//592 321//301 724//592 
f 53//48 49//44 725//592 
f 57//52 53//48 726//592 
f 57//52 726//592 317//297 727//592 
f 61//56 57//52 728//592 
f 61//56 728//592 313//293 729//592 
f 65//60 61//56 730//592 
f 65//60 730//592 309//289 731//592 
f 69//63 65//60 732//592 
f 73//67 69//63 733//592 
f 73//67 733//592 305//285 734//592 
f 77//71 73//67 735//592 
f 77//71 735//592 301//281 736//592 
f 77//71 736//592 297//277 737//592 
f 81//74 77//71 738//592 
f 81//74 738//592 293//273 739//592 
f 85//78 81//74 740//592 
f 85//78 740//592 289//269 741//592 
f 85//78 741//592 285//265 742//592 
f 89//81 85//78 743//592 
f 89//81 743//592 281//262 744//592 
f 93//85 89//81 745//592 
f 93//85 745//592 277//258 746//592 
f 97//89 93//85 747//592 
f 97//89 747//592 273//255 748//592 
f 101//93 97//89 749//592 
f 101//93 749//592 269//251 750//592 
f 105//97 101//93 751//592 
f 109//101 105//97 752//592 
f 113//104 109//101 753//592 
f 113//104 753//592 265//248 754//592 
f 113//104 754//592 261//244 755//592 
f 117//107 113//104 756//592 
f 121//111 117//107 757//592 
f 121//111 757//592 257//240 758//592 
f 125//115 121//111 759//592 
f 125//115 759//592 253//236 760//592 
f 129//118 125//115 761//592 
f 129//118 761//592 249//232 762//592 
f 133//122 129//118 763//592 
f 133//122 763//592 245//228 764//592 
f 137//125 133//122 765//592 
f 137//125 765//592 241//225 766//592 
f 141//128 137//125 767//592 
f 141//128 767//592 237//221 768//592 
f 145//132 141//128 769//592 
f 145//132 769//592 233//217 770//592 
f 149//136 145//132 771//592 
f 149//136 771//592 229//213 772//592 
f 149//136 772//592 225//209 773//592 
f 153//140 149//136 774//592 
f 153//140 774//592 221//205 775//592 
f 157//144 153//140 776//592 
f 157//144 776//592 217//201 777//592 
f 161//148 157//144 778//592 
f 161//148 778//592 213//197 779//592 
f 165//152 161//148 780//592 
f 165//152 780//592 209//193 781//592 
f 169//156 165//152 782//592 
f 169//156 782//592 205//189 783//592 
f 173//160 169//156 784//592 
f 173//160 784//592 201//185 785//592 
f 177//164 173//160 786//592 
f 177//164 786//592 197//181 787//592 
f 181//168 177//164 788//592 
f 185//171 181//168 789//592 
f 185//171 789//592 193//177 790//592 
f 183//169 187//172 791//593 
f 519//485 792//593 335//314 793//593 
f 515//482 519//485 794//593 
f 515//482 794//593 339//318 795//593 
f 511//479 515//482 796//593 
f 511//479 796//593 343//321 797//593 
f 507//475 511//479 798//593 
f 507//475 798//593 347//325 799//593 
f 503//471 507//475 800//593 
f 503//471 800//593 351//328 801//593 
f 499//468 503//471 802//593 
f 499//468 802//593 355//332 803//593 
f 499//468 803//593 359//335 804//593 
f 495//464 499//468 805//593 
f 495//464 805//593 363//339 806//593 
f 489//458 495//464 807//593 
f 489//458 807//593 367//343 808//593 
f 490//459 489//458 809//593 
f 627//586 490//459 810//593 
f 627//586 810//593 371//347 811//593 
f 627//586 811//593 375//350 812//593 
f 623//582 627//586 813//593 
f 623//582 813//593 379//354 814//593 
f 623//582 814//593 383//358 815//593 
f 619//578 623//582 816//593 
f 619//578 816//593 387//362 817//593 
f 619//578 817//593 391//366 818//593 
f 615//574 619//578 819//593 
f 615//574 819//593 395//370 820//593 
f 615//574 820//593 399//374 821//593 
f 611//571 615//574 822//593 
f 611//571 822//593 403//378 823//593 
f 611//571 823//593 407//382 824//593 
f 607//568 611//571 825//593 
f 607//568 825//593 411//385 826//593 
f 607//568 826//593 415//389 827//593 
f 603//564 607//568 828//593 
f 603//564 828//593 419//391 829//593 
f 603//564 829//593 423//395 830//593 
f 603//564 830//593 427//399 831//593 
f 599//560 603//564 832//593 
f 599//560 832//593 431//403 833//593 
f 599//560 833//593 435//407 834//593 
f 595//556 599//560 835//593 
f 595//556 835//593 439//411 836//593 
f 591//552 595//556 837//593 
f 591//552 837//593 443//415 838//593 
f 587//548 591//552 839//593 
f 587//548 839//593 447//418 840//593 
f 583//544 587//548 841//593 
f 583//544 841//593 451//421 842//593 
f 579//540 583//544 843//593 
f 579//540 843//593 455//425 844//593 
f 575//536 579//540 845//593 
f 575//536 845//593 459//429 846//593 
f 571//532 575//536 847//593 
f 571//532 847//593 463//433 848//593 
f 567//528 571//532 849//593 
f 567//528 849//593 467//437 850//593 
f 563//524 567//528 851//593 
f 563//524 851//593 471//440 852//593 
f 559//521 563//524 853//593 
f 559//521 853//593 475//444 854//593 
f 555//518 559//521 855//593 
f 551//514 555//518 856//593 
f 551//514 856//593 479//448 857//593 
f 547//510 551//514 858//593 
f 543//506 547//510 859//593 
f 539//503 543//506 860//593 
f 535//500 539//503 861//593 
f 535//500 861//593 483//452 862//593 
f 535//500 862//593 2//2 863//593 
f 535//500 863//593 1//1 864//593 
f 535//500 864//593 7//7 865//593 
f 535//500 865//593 11//11 866//593 
f 535//500 866//593 15//15 867//593 
f 535//500 867//593 19//19 868//593 
f 535//500 868//593 23//22 869//593 
f 535//500 869//593 27//25 870//593 
f 535//500 870//593 31//28 871//593 
f 531//496 535//500 872//593 
f 527//493 531//496 873//593 
f 523//489 527//493 874//593 
f 519//485 523//489 875//593 
f 331//310 335//314 876//593 
f 327//306 331//310 877//593 
f 323//303 327//306 878//593 
f 323//303 878//593 35//31 879//593 
f 323//303 879//593 39//35 880//593 
f 319//299 323//303 881//593 
f 319//299 881//593 43//38 882//593 
f 315//295 319//299 883//593 
f 315//295 883//593 47//42 884//593 
f 315//295 884//593 51//46 885//593 
f 311//291 315//295 886//593 
f 311//291 886//593 55//50 887//593 
f 307//287 311//291 888//593 
f 307//287 888//593 59//54 889//593 
f 303//283 307//287 890//593 
f 303//283 890//593 63//58 891//593 
f 303//283 891//593 67//61 892//593 
f 299//279 303//283 893//593 
f 299//279 893//593 71//65 894//593 
f 295//275 299//279 895//593 
f 291//271 295//275 896//593 
f 291//271 896//593 75//69 897//593 
f 287//267 291//271 898//593 
f 287//267 898//593 79//72 899//593 
f 283//263 287//267 900//593 
f 279//260 283//263 901//593 
f 279//260 901//593 83//76 902//593 
f 275//256 279//260 903//593 
f 275//256 903//593 87//79 904//593 
f 271//253 275//256 905//593 
f 271//253 905//593 91//83 906//593 
f 267//249 271//253 907//593 
f 267//249 907//593 95//87 908//593 
f 263//246 267//249 909//593 
f 263//246 909//593 99//91 910//593 
f 263//246 910//593 103//95 911//593 
f 263//246 911//593 107//99 912//593 
f 259//242 263//246 913//593 
f 255//238 259//242 914//593 
f 255//238 914//593 111//102 915//593 
f 255//238 915//593 115//105 916//593 
f 251//234 255//238 917//593 
f 251//234 917//593 119//109 918//593 
f 247//230 251//234 919//593 
f 247//230 919//593 123//113 920//593 
f 243//226 247//230 921//593 
f 243//226 921//593 127//116 922//593 
f 239//223 243//226 923//593 
f 239//223 923//593 131//120 924//593 
f 235//219 239//223 925//593 
f 235//219 925//593 135//123 926//593 
f 231//215 235//219 927//593 
f 231//215 927//593 139//126 928//593 
f 227//211 231//215 929//593 
f 227//211 929//593 143//130 930//593 
f 223//207 227//211 931//593 
f 219//203 223//207 932//593 
f 219//203 932//593 147//134 933//593 
f 215//199 219//203 934//593 
f 215//199 934//593 151//138 935//593 
f 211//195 215//199 936//593 
f 211//195 936//593 155//142 937//593 
f 207//191 211//195 938//593 
f 207//191 938//593 159//146 939//593 
f 203//187 207//191 940//593 
f 203//187 940//593 163//150 941//593 
f 199//183 203//187 942//593 
f 199//183 942//593 167//154 943//593 
f 195//179 199//183 944//593 
f 195//179 944//593 171//158 945//593 
f 191//175 195//179 946//593 
f 191//175 946//593 175//162 947//593 
f 183//169 791//593 191//175 948//593 
s 1
f 3//3 2//2 4//4 
f 1//1 3//3 4//4 6//6 
f 6//6 5//5 1//1 
s 3
f 8//8 1//1 5//5 
f 7//7 8//8 5//5 10//10 
f 10//10 9//9 7//7 
s 2
f 12//12 7//7 9//9 
f 11//11 12//12 9//9 14//14 
f 14//14 13//13 11//11 
f 16//16 11//11 13//13 
f 15//15 16//16 13//13 18//18 
f 18//18 17//17 15//15 
f 20//20 15//15 17//17 
f 19//19 20//20 17//17 22//20 
f 22//20 21//21 19//19 
f 24//23 19//19 21//21 
f 23//22 24//23 21//21 26//23 
f 26//23 25//24 23//22 
f 28//26 23//22 25//24 
f 27//25 28//26 25//24 30//26 
f 30//26 29//27 27//25 
f 32//29 27//25 29//27 
f 31//28 32//29 29//27 34//29 
f 34//29 33//30 31//28 
f 36//32 31//28 33//30 
f 35//31 36//32 33//30 38//34 
f 38//34 37//33 35//31 
f 40//36 35//31 37//33 
f 39//35 40//36 37//33 42//36 
f 42//36 41//37 39//35 
f 44//39 39//35 41//37 
f 43//38 44//39 41//37 46//41 
f 46//41 45//40 43//38 
f 48//43 43//38 45//40 
f 47//42 48//43 45//40 50//45 
f 50//45 49//44 47//42 
f 52//47 47//42 49//44 
f 51//46 52//47 49//44 54//49 
f 54//49 53//48 51//46 
f 56//51 51//46 53//48 
f 55//50 56//51 53//48 58//53 
f 58//53 57//52 55//50 
f 60//55 55//50 57//52 
f 59//54 60//55 57//52 62//57 
f 62//57 61//56 59//54 
f 64//59 59//54 61//56 
f 63//58 64//59 61//56 66//59 
f 66//59 65//60 63//58 
f 68//62 63//58 65//60 
f 67//61 68//62 65//60 70//64 
f 70//64 69//63 67//61 
f 72//66 67//61 69//63 
f 71//65 72//66 69//63 74//68 
f 74//68 73//67 71//65 
f 76//70 71//65 73//67 
f 75//69 76//70 73//67 78//70 
f 78//70 77//71 75//69 
f 80//73 75//69 77//71 
f 79//72 80//73 77//71 82//75 
f 82//75 81//74 79//72 
f 84//77 79//72 81//74 
f 83//76 84//77 81//74 86//77 
f 86//77 85//78 83//76 
f 88//80 83//76 85//78 
f 87//79 88//80 85//78 90//82 
f 90//82 89//81 87//79 
f 92//84 87//79 89//81 
f 91//83 92//84 89//81 94//86 
f 94//86 93//85 91//83 
f 96//88 91//83 93//85 
f 95//87 96//88 93//85 98//90 
f 98//90 97//89 95//87 
f 100//92 95//87 97//89 
f 99//91 100//92 97//89 102//94 
f 102//94 101//93 99//91 
f 104//96 99//91 101//93 
f 103//95 104//96 101//93 106//98 
f 106//98 105//97 103//95 
f 108//100 103//95 105//97 
f 107//99 108//100 105//97 110//100 
f 110//100 109//101 107//99 
s 4
f 112//103 107//99 109//101 
f 111//102 112//103 109//101 114//103 
f 114//103 113//104 111//102 
s 2
f 116//106 111//102 113//104 
f 115//105 116//106 113//104 118//108 
f 118//108 117//107 115//105 
f 120//110 115//105 117//107 
f 119//109 120//110 117//107 122//112 
f 122//112 121//111 119//109 
f 124//114 119//109 121//111 
f 123//113 124//114 121//111 126//114 
f 126//114 125//115 123//113 
f 128//117 123//113 125//115 
f 127//116 128//117 125//115 130//119 
f 130//119 129//118 127//116 
f 132//121 127//116 129//118 
f 131//120 132//121 129//118 134//121 
f 134//121 133//122 131//120 
f 136//124 131//120 133//122 
f 135//123 136//124 133//122 138//124 
f 138//124 137//125 135//123 
f 140//127 135//123 137//125 
f 139//126 140//127 137//125 142//129 
f 142//129 141//128 139//126 
f 144//131 139//126 141//128 
f 143//130 144//131 141//128 146//133 
f 146//133 145//132 143//130 
f 148//135 143//130 145//132 
f 147//134 148//135 145//132 150//137 
f 150//137 149//136 147//134 
f 152//139 147//134 149//136 
f 151//138 152//139 149//136 154//141 
f 154//141 153//140 151//138 
f 156//143 151//138 153//140 
f 155//142 156//143 153//140 158//145 
f 158//145 157//144 155//142 
f 160//147 155//142 157//144 
f 159//146 160//147 157//144 162//149 
f 162//149 161//148 159//146 
f 164//151 159//146 161//148 
f 163//150 164//151 161//148 166//153 
f 166//153 165//152 163//150 
f 168//155 163//150 165//152 
f 167//154 168//155 165//152 170//157 
f 170//157 169//156 167//154 
f 172//159 167//154 169//156 
f 171//158 172//159 169//156 174//161 
f 174//161 173//160 171//158 
f 176//163 171//158 173//160 
f 175//162 176//163 173//160 178//165 
f 178//165 177//164 175//162 
f 180//167 175//162 177//164 
f 179//166 180//167 177//164 182//167 
f 182//167 181//168 179//166 
f 184//170 179//166 181//168 
f 183//169 184//170 181//168 186//170 
f 186//170 185//171 183//169 
s 4
f 188//173 183//169 185//171 
f 187//172 188//173 185//171 190//173 
f 190//173 189//174 187//172 
s 2
f 192//176 187//172 189//174 
f 191//175 192//176 189//174 194//178 
f 194//178 193//177 191//175 
f 196//180 191//175 193//177 
f 195//179 196//180 193//177 198//182 
f 198//182 197//181 195//179 
f 200//184 195//179 197//181 
f 199//183 200//184 197//181 202//186 
f 202//186 201//185 199//183 
f 204//188 199//183 201//185 
f 203//187 204//188 201//185 206//190 
f 206//190 205//189 203//187 
f 208//192 203//187 205//189 
f 207//191 208//192 205//189 210//194 
f 210//194 209//193 207//191 
f 212//196 207//191 209//193 
f 211//195 212//196 209//193 214//198 
f 214//198 213//197 211//195 
f 216//200 211//195 213//197 
f 215//199 216//200 213//197 218//202 
f 218//202 217//201 215//199 
f 220//204 215//199 217//201 
f 219//203 220//204 217//201 222//206 
f 222//206 221//205 219//203 
f 224//208 219//203 221//205 
f 223//207 224//208 221//205 226//210 
f 226//210 225//209 223//207 
f 228//212 223//207 225//209 
f 227//211 228//212 225//209 230//214 
f 230//214 229//213 227//211 
f 232//216 227//211 229//213 
f 231//215 232//216 229//213 234//218 
f 234//218 233//217 231//215 
f 236//220 231//215 233//217 
f 235//219 236//220 233//217 238//222 
f 238//222 237//221 235//219 
f 240//224 235//219 237//221 
f 239//223 240//224 237//221 242//224 
f 242//224 241//225 239//223 
f 244//227 239//223 241//225 
f 243//226 244//227 241//225 246//229 
f 246//229 245//228 243//226 
f 248//231 243//226 245//228 
f 247//230 248//231 245//228 250//233 
f 250//233 249//232 247//230 
f 252//235 247//230 249//232 
f 251//234 252//235 249//232 254//237 
f 254//237 253//236 251//234 
f 256//239 251//234 253//236 
f 255//238 256//239 253//236 258//241 
f 258//241 257//240 255//238 
f 260//243 255//238 257//240 
f 259//242 260//243 257//240 262//245 
f 262//245 261//244 259//242 
s 4
f 264//247 259//242 261//244 
f 263//246 264//247 261//244 266//247 
f 266//247 265//248 263//246 
s 2
f 268//250 263//246 265//248 
f 267//249 268//250 265//248 270//252 
f 270//252 269//251 267//249 
f 272//254 267//249 269//251 
f 271//253 272//254 269//251 274//254 
f 274//254 273//255 271//253 
f 276//257 271//253 273//255 
f 275//256 276//257 273//255 278//259 
f 278//259 277//258 275//256 
f 280//261 275//256 277//258 
f 279//260 280//261 277//258 282//261 
f 282//261 281//262 279//260 
f 284//264 279//260 281//262 
f 283//263 284//264 281//262 286//266 
f 286//266 285//265 283//263 
f 288//268 283//263 285//265 
f 287//267 288//268 285//265 290//270 
f 290//270 289//269 287//267 
f 292//272 287//267 289//269 
f 291//271 292//272 289//269 294//274 
f 294//274 293//273 291//271 
f 296//276 291//271 293//273 
f 295//275 296//276 293//273 298//278 
f 298//278 297//277 295//275 
f 300//280 295//275 297//277 
f 299//279 300//280 297//277 302//282 
f 302//282 301//281 299//279 
f 304//284 299//279 301//281 
f 303//283 304//284 301//281 306//286 
f 306//286 305//285 303//283 
f 308//288 303//283 305//285 
f 307//287 308//288 305//285 310//290 
f 310//290 309//289 307//287 
f 312//292 307//287 309//289 
f 311//291 312//292 309//289 314//294 
f 314//294 313//293 311//291 
f 316//296 311//291 313//293 
f 315//295 316//296 313//293 318//298 
f 318//298 317//297 315//295 
f 320//300 315//295 317//297 
f 319//299 320//300 317//297 322//302 
f 322//302 321//301 319//299 
f 324//304 319//299 321//301 
f 323//303 324//304 321//301 326//304 
f 326//304 325//305 323//303 
f 328//307 323//303 325//305 
f 327//306 328//307 325//305 330//309 
f 330//309 329//308 327//306 
f 332//311 327//306 329//308 
f 331//310 332//311 329//308 334//313 
f 334//313 333//312 331//310 
f 336//315 331//310 333//312 
f 335//314 336//315 333//312 338//317 
f 338//317 337//316 335//314 
s 4
f 340//319 335//314 337//316 
f 339//318 340//319 337//316 342//319 
f 342//319 341//320 339//318 
s 2
f 344//322 339//318 341//320 
f 343//321 344//322 341//320 346//324 
f 346//324 345//323 343//321 
f 348//326 343//321 345//323 
f 347//325 348//326 345//323 350//326 
f 350//326 349//327 347//325 
f 352//329 347//325 349//327 
f 351//328 352//329 349//327 354//331 
f 354//331 353//330 351//328 
f 356//333 351//328 353//330 
f 355//332 356//333 353//330 358//333 
f 358//333 357//334 355//332 
f 360//336 355//332 357//334 
f 359//335 360//336 357//334 362//338 
f 362//338 361//337 359//335 
f 364//340 359//335 361//337 
f 363//339 364//340 361//337 366//342 
f 366//342 365//341 363//339 
f 368//344 363//339 365//341 
f 367//343 368//344 365//341 370//346 
f 370//346 369//345 367//343 
f 372//348 367//343 369//345 
f 371//347 372//348 369//345 374//348 
f 374//348 373//349 371//347 
f 376//351 371//347 373//349 
f 375//350 376//351 373//349 378//353 
f 378//353 377//352 375//350 
f 380//355 375//350 377//352 
f 379//354 380//355 377//352 382//357 
f 382//357 381//356 379//354 
f 384//359 379//354 381//356 
f 383//358 384//359 381//356 386//361 
f 386//361 385//360 383//358 
f 388//363 383//358 385//360 
f 387//362 388//363 385//360 390//365 
f 390//365 389//364 387//362 
f 392//367 387//362 389//364 
f 391//366 392//367 389//364 394//369 
f 394//369 393//368 391//366 
f 396//371 391//366 393//368 
f 395//370 396//371 393//368 398//373 
f 398//373 397//372 395//370 
f 400//375 395//370 397//372 
f 399//374 400//375 397//372 402//377 
f 402//377 401//376 399//374 
f 404//379 399//374 401//376 
f 403//378 404//379 401//376 406//381 
f 406//381 405//380 403//378 
f 408//383 403//378 405//380 
f 407//382 408//383 405//380 410//383 
f 410//383 409//384 407//382 
f 412//386 407//382 409//384 
f 411//385 412//386 409//384 414//388 
f 414//388 413//387 411//385 
f 416//268 411//385 413//387 
f 415//389 416//268 413//387 418//270 
f 418//270 417//390 415//389 
f 420//392 415//389 417//390 
f 419//391 420//392 417//390 422//394 
f 422//394 421//393 419//391 
f 424//396 419//391 421//393 
f 423//395 424//396 421//393 426//398 
f 426//398 425//397 423//395 
f 428//400 423//395 425//397 
f 427//399 428//400 425//397 430//402 
f 430//402 429//401 427//399 
f 432//404 427//399 429//401 
f 431//403 432//404 429//401 434//406 
f 434//406 433//405 431//403 
f 436//408 431//403 433//405 
f 435//407 436//408 433//405 438//410 
f 438//410 437//409 435//407 
f 440//412 435//407 437//409 
f 439//411 440//412 437//409 442//414 
f 442//414 441//413 439//411 
f 444//416 439//411 441//413 
f 443//415 444//416 441//413 446//416 
f 446//416 445//417 443//415 
f 448//419 443//415 445//417 
f 447//418 448//419 445//417 450//419 
f 450//419 449//420 447//418 
f 452//422 447//418 449//420 
f 451//421 452//422 449//420 454//424 
f 454//424 453//423 451//421 
f 456//426 451//421 453//423 
f 455//425 456//426 453//423 458//428 
f 458//428 457//427 455//425 
f 460//430 455//425 457//427 
f 459//429 460//430 457//427 462//432 
f 462//432 461//431 459//429 
f 464//434 459//429 461//431 
f 463//433 464//434 461//431 466//436 
f 466//436 465//435 463//433 
f 468//438 463//433 465//435 
f 467//437 468//438 465//435 470//438 
f 470//438 469//439 467//437 
f 472//441 467//437 469//439 
f 471//440 472//441 469//439 474//443 
f 474//443 473//442 471//440 
f 476//445 471//440 473//442 
f 475//444 476//445 473//442 478//447 
f 478//447 477//446 475//444 
f 480//449 475//444 477//446 
f 479//448 480//449 477//446 482//451 
f 482//451 481//450 479//448 
f 484//453 479//448 481//450 
f 483//452 484//453 481//450 486//455 
f 486//455 485//454 483//452 
s 4
f 487//456 483//452 485//454 
f 2//2 487//456 485//454 488//457 
f 488//457 4//4 2//2 
s 1
f 491//460 490//459 492//461 
f 489//458 491//460 492//461 494//463 
f 494//463 493//462 489//458 
s 3
f 496//465 489//458 493//462 
f 495//464 496//465 493//462 498//467 
f 498//467 497//466 495//464 
s 2
f 500//469 495//464 497//466 
f 499//468 500//469 497//466 502//469 
f 502//469 501//470 499//468 
f 504//472 499//468 501//470 
f 503//471 504//472 501//470 506//474 
f 506//474 505//473 503//471 
f 508//476 503//471 505//473 
f 507//475 508//476 505//473 510//478 
f 510//478 509//477 507//475 
f 512//480 507//475 509//477 
f 511//479 512//480 509//477 514//480 
f 514//480 513//481 511//479 
f 516//483 511//479 513//481 
f 515//482 516//483 513//481 518//483 
f 518//483 517//484 515//482 
f 520//486 515//482 517//484 
f 519//485 520//486 517//484 522//488 
f 522//488 521//487 519//485 
f 524//490 519//485 521//487 
f 523//489 524//490 521//487 526//492 
f 526//492 525//491 523//489 
f 528//494 523//489 525//491 
f 527//493 528//494 525//491 530//494 
f 530//494 529//495 527//493 
f 532//497 527//493 529//495 
f 531//496 532//497 529//495 534//499 
f 534//499 533//498 531//496 
f 536//501 531//496 533//498 
f 535//500 536//501 533//498 538//501 
f 538//501 537//502 535//500 
f 540//504 535//500 537//502 
f 539//503 540//504 537//502 542//504 
f 542//504 541//505 539//503 
f 544//507 539//503 541//505 
f 543//506 544//507 541//505 546//509 
f 546//509 545//508 543//506 
f 548//511 543//506 545//508 
f 547//510 548//511 545//508 550//513 
f 550//513 549//512 547//510 
f 552//515 547//510 549//512 
f 551//514 552//515 549//512 554//517 
f 554//517 553//516 551//514 
f 556//519 551//514 553//516 
f 555//518 556//519 553//516 558//519 
f 558//519 557//520 555//518 
f 560//522 555//518 557//520 
f 559//521 560//522 557//520 562//522 
f 562//522 561//523 559//521 
f 564//525 559//521 561//523 
f 563//524 564//525 561//523 566//527 
f 566//527 565//526 563//524 
f 568//529 563//524 565//526 
f 567//528 568//529 565//526 570//531 
f 570//531 569//530 567//528 
f 572//533 567//528 569//530 
f 571//532 572//533 569//530 574//535 
f 574//535 573//534 571//532 
f 576//537 571//532 573//534 
f 575//536 576//537 573//534 578//539 
f 578//539 577//538 575//536 
f 580//541 575//536 577//538 
f 579//540 580//541 577//538 582//543 
f 582//543 581//542 579//540 
f 584//545 579//540 581//542 
f 583//544 584//545 581//542 586//547 
f 586//547 585//546 583//544 
f 588//549 583//544 585//546 
f 587//548 588//549 585//546 590//551 
f 590//551 589//550 587//548 
f 592//553 587//548 589//550 
f 591//552 592//553 589//550 594//555 
f 594//555 593//554 591//552 
f 596//557 591//552 593//554 
f 595//556 596//557 593//554 598//559 
f 598//559 597//558 595//556 
f 600//561 595//556 597//558 
f 599//560 600//561 597//558 602//563 
f 602//563 601//562 599//560 
f 604//565 599//560 601//562 
f 603//564 604//565 601//562 606//567 
f 606//567 605//566 603//564 
f 608//569 603//564 605//566 
f 607//568 608//569 605//566 610//569 
f 610//569 609//570 607//568 
f 612//572 607//568 609//570 
f 611//571 612//572 609//570 614//572 
f 614//572 613//573 611//571 
f 616//575 611//571 613//573 
f 615//574 616//575 613//573 618//577 
f 618//577 617//576 615//574 
f 620//579 615//574 617//576 
f 619//578 620//579 617//576 622//581 
f 622//581 621//580 619//578 
f 624//583 619//578 621//580 
f 623//582 624//583 621//580 626//585 
f 626//585 625//584 623//582 
f 628//587 623//582 625//584 
f 627//586 628//587 625//584 630//589 
f 630//589 629//588 627//586 
s 3
f 631//590 627//586 629//588 
f 490//459 631//590 629//588 632//591 
f 632//591 492//461 490//459 
s 16
f 633//592 337//316 716//592 521//487 
f 634//592 521//487 517//484 
f 341//320 634//592 517//484 635//592 
f 636//592 517//484 513//481 
f 345//323 636//592 513//481 637//592 
f 638//592 513//481 509//477 
f 349//327 638//592 509//477 639//592 
f 640//592 509//477 505//473 
f 353//330 640//592 505//473 641//592 
f 642//592 505//473 501//470 
f 357//334 642//592 501//470 643//592 
f 361//337 643//592 501//470 644//592 
f 645//592 501//470 497//466 
f 365//341 645//592 497//466 646//592 
f 647//592 497//466 493//462 
f 369//345 647//592 493//462 648//592 
f 649//592 493//462 492//461 
f 650//592 492//461 629//588 
f 373//349 650//592 629//588 651//592 
f 377//352 651//592 629//588 652//592 
f 653//592 629//588 625//584 
f 381//356 653//592 625//584 654//592 
f 385//360 654//592 625//584 655//592 
f 656//592 625//584 621//580 
f 389//364 656//592 621//580 657//592 
f 393//368 657//592 621//580 658//592 
f 659//592 621//580 617//576 
f 397//372 659//592 617//576 660//592 
f 401//376 660//592 617//576 661//592 
f 662//592 617//576 613//573 
f 405//380 662//592 613//573 663//592 
f 409//384 663//592 613//573 664//592 
f 665//592 613//573 609//570 
f 413//387 665//592 609//570 666//592 
f 417//390 666//592 609//570 667//592 
f 668//592 609//570 605//566 
f 421//393 668//592 605//566 669//592 
f 425//397 669//592 605//566 670//592 
f 429//401 670//592 605//566 671//592 
f 672//592 605//566 601//562 
f 433//405 672//592 601//562 673//592 
f 437//409 673//592 601//562 674//592 
f 675//592 601//562 597//558 
f 441//413 675//592 597//558 676//592 
f 677//592 597//558 593//554 
f 445//417 677//592 593//554 678//592 
f 679//592 593//554 589//550 
f 449//420 679//592 589//550 680//592 
f 681//592 589//550 585//546 
f 453//423 681//592 585//546 682//592 
f 683//592 585//546 581//542 
f 457//427 683//592 581//542 684//592 
f 685//592 581//542 577//538 
f 461//431 685//592 577//538 686//592 
f 687//592 577//538 573//534 
f 465//435 687//592 573//534 688//592 
f 689//592 573//534 569//530 
f 469//439 689//592 569//530 690//592 
f 691//592 569//530 565//526 
f 473//442 691//592 565//526 692//592 
f 693//592 565//526 561//523 
f 477//446 693//592 561//523 694//592 
f 695//592 561//523 557//520 
f 696//592 557//520 553//516 
f 481//450 696//592 553//516 697//592 
f 698//592 553//516 549//512 
f 699//592 549//512 545//508 
f 700//592 545//508 541//505 
f 701//592 541//505 537//502 
f 485//454 701//592 537//502 702//592 
f 4//4 702//592 537//502 703//592 
f 5//5 703//592 537//502 704//592 
f 9//9 704//592 537//502 705//592 
f 13//13 705//592 537//502 706//592 
f 17//17 706//592 537//502 707//592 
f 21//21 707//592 537//502 708//592 
f 25//24 708//592 537//502 709//592 
f 29//27 709//592 537//502 710//592 
f 33//30 710//592 537//502 711//592 
f 712//592 537//502 533//498 
f 713//592 533//498 529//495 
f 714//592 529//495 525//491 
f 715//592 525//491 521//487 
f 717//592 337//316 333//312 
f 718//592 333//312 329//308 
f 719//592 329//308 325//305 
f 37//33 719//592 325//305 720//592 
f 41//37 720//592 325//305 721//592 
f 722//592 325//305 321//301 
f 45//40 722//592 321//301 723//592 
f 724//592 321//301 317//297 
f 49//44 724//592 317//297 725//592 
f 53//48 725//592 317//297 726//592 
f 727//592 317//297 313//293 
f 57//52 727//592 313//293 728//592 
f 729//592 313//293 309//289 
f 61//56 729//592 309//289 730//592 
f 731//592 309//289 305//285 
f 65//60 731//592 305//285 732//592 
f 69//63 732//592 305//285 733//592 
f 734//592 305//285 301//281 
f 73//67 734//592 301//281 735//592 
f 736//592 301//281 297//277 
f 737//592 297//277 293//273 
f 77//71 737//592 293//273 738//592 
f 739//592 293//273 289//269 
f 81//74 739//592 289//269 740//592 
f 741//592 289//269 285//265 
f 742//592 285//265 281//262 
f 85//78 742//592 281//262 743//592 
f 744//592 281//262 277//258 
f 89//81 744//592 277//258 745//592 
f 746//592 277//258 273//255 
f 93//85 746//592 273//255 747//592 
f 748//592 273//255 269//251 
f 97//89 748//592 269//251 749//592 
f 750//592 269//251 265//248 
f 101//93 750//592 265//248 751//592 
f 105//97 751//592 265//248 752//592 
f 109//101 752//592 265//248 753//592 
f 754//592 265//248 261//244 
f 755//592 261//244 257//240 
f 113//104 755//592 257//240 756//592 
f 117//107 756//592 257//240 757//592 
f 758//592 257//240 253//236 
f 121//111 758//592 253//236 759//592 
f 760//592 253//236 249//232 
f 125//115 760//592 249//232 761//592 
f 762//592 249//232 245//228 
f 129//118 762//592 245//228 763//592 
f 764//592 245//228 241//225 
f 133//122 764//592 241//225 765//592 
f 766//592 241//225 237//221 
f 137//125 766//592 237//221 767//592 
f 768//592 237//221 233//217 
f 141//128 768//592 233//217 769//592 
f 770//592 233//217 229//213 
f 145//132 770//592 229//213 771//592 
f 772//592 229//213 225//209 
f 773//592 225//209 221//205 
f 149//136 773//592 221//205 774//592 
f 775//592 221//205 217//201 
f 153//140 775//592 217//201 776//592 
f 777//592 217//201 213//197 
f 157//144 777//592 213//197 778//592 
f 779//592 213//197 209//193 
f 161//148 779//592 209//193 780//592 
f 781//592 209//193 205//189 
f 165//152 781//592 205//189 782//592 
f 783//592 205//189 201//185 
f 169//156 783//592 201//185 784//592 
f 785//592 201//185 197//181 
f 173//160 785//592 197//181 786//592 
f 787//592 197//181 193//177 
f 177//164 787//592 193//177 788//592 
f 181//168 788//592 193//177 789//592 
f 790//592 193//177 189//174 
f 185//171 790//592 189//174 
f 791//593 187//172 191//175 
f 793//593 335//314 339//318 
f 519//485 793//593 339//318 794//593 
f 795//593 339//318 343//321 
f 515//482 795//593 343//321 796//593 
f 797//593 343//321 347//325 
f 511//479 797//593 347//325 798//593 
f 799//593 347//325 351//328 
f 507//475 799//593 351//328 800//593 
f 801//593 351//328 355//332 
f 503//471 801//593 355//332 802//593 
f 803//593 355//332 359//335 
f 804//593 359//335 363//339 
f 499//468 804//593 363//339 805//593 
f 806//593 363//339 367//343 
f 495//464 806//593 367//343 807//593 
f 808//593 367//343 371//347 
f 489//458 808//593 371//347 809//593 
f 490//459 809//593 371//347 810//593 
f 811//593 371//347 375//350 
f 812//593 375//350 379//354 
f 627//586 812//593 379//354 813//593 
f 814//593 379//354 383//358 
f 815//593 383//358 387//362 
f 623//582 815//593 387//362 816//593 
f 817//593 387//362 391//366 
f 818//593 391//366 395//370 
f 619//578 818//593 395//370 819//593 
f 820//593 395//370 399//374 
f 821//593 399//374 403//378 
f 615//574 821//593 403//378 822//593 
f 823//593 403//378 407//382 
f 824//593 407//382 411//385 
f 611//571 824//593 411//385 825//593 
f 826//593 411//385 415//389 
f 827//593 415//389 419//391 
f 607//568 827//593 419//391 828//593 
f 829//593 419//391 423//395 
f 830//593 423//395 427//399 
f 831//593 427//399 431//403 
f 603//564 831//593 431//403 832//593 
f 833//593 431//403 435//407 
f 834//593 435//407 439//411 
f 599//560 834//593 439//411 835//593 
f 836//593 439//411 443//415 
f 595//556 836//593 443//415 837//593 
f 838//593 443//415 447//418 
f 591//552 838//593 447//418 839//593 
f 840//593 447//418 451//421 
f 587//548 840//593 451//421 841//593 
f 842//593 451//421 455//425 
f 583//544 842//593 455//425 843//593 
f 844//593 455//425 459//429 
f 579//540 844//593 459//429 845//593 
f 846//593 459//429 463//433 
f 575//536 846//593 463//433 847//593 
f 848//593 463//433 467//437 
f 571//532 848//593 467//437 849//593 
f 850//593 467//437 471//440 
f 567//528 850//593 471//440 851//593 
f 852//593 471//440 475//444 
f 563//524 852//593 475//444 853//593 
f 854//593 475//444 479//448 
f 559//521 854//593 479//448 855//593 
f 555//518 855//593 479//448 856//593 
f 857//593 479//448 483//452 
f 551//514 857//593 483//452 858//593 
f 547//510 858//593 483//452 859//593 
f 543//506 859//593 483//452 860//593 
f 539//503 860//593 483//452 861//593 
f 862//593 483//452 2//2 
f 863//593 2//2 1//1 
f 864//593 1//1 7//7 
f 865//593 7//7 11//11 
f 866//593 11//11 15//15 
f 867//593 15//15 19//19 
f 868//593 19//19 23//22 
f 869//593 23//22 27//25 
f 870//593 27//25 31//28 
f 871//593 31//28 35//31 
f 535//500 871//593 35//31 872//593 
f 531//496 872//593 35//31 873//593 
f 527//493 873//593 35//31 874//593 
f 523//489 874//593 35//31 875//593 
f 519//485 875//593 35//31 792//593 
f 335//314 792//593 35//31 876//593 
f 331//310 876//593 35//31 877//593 
f 327//306 877//593 35//31 878//593 
f 879//593 35//31 39//35 
f 880//593 39//35 43//38 
f 323//303 880//593 43//38 881//593 
f 882//593 43//38 47//42 
f 319//299 882//593 47//42 883//593 
f 884//593 47//42 51//46 
f 885//593 51//46 55//50 
f 315//295 885//593 55//50 886//593 
f 887//593 55//50 59//54 
f 311//291 887//593 59//54 888//593 
f 889//593 59//54 63//58 
f 307//287 889//593 63//58 890//593 
f 891//593 63//58 67//61 
f 892//593 67//61 71//65 
f 303//283 892//593 71//65 893//593 
f 894//593 71//65 75//69 
f 299//279 894//593 75//69 895//593 
f 295//275 895//593 75//69 896//593 
f 897//593 75//69 79//72 
f 291//271 897//593 79//72 898//593 
f 899//593 79//72 83//76 
f 287//267 899//593 83//76 900//593 
f 283//263 900//593 83//76 901//593 
f 902//593 83//76 87//79 
f 279//260 902//593 87//79 903//593 
f 904//593 87//79 91//83 
f 275//256 904//593 91//83 905//593 
f 906//593 91//83 95//87 
f 271//253 906//593 95//87 907//593 
f 908//593 95//87 99//91 
f 267//249 908//593 99//91 909//593 
f 910//593 99//91 103//95 
f 911//593 103//95 107//99 
f 912//593 107//99 111//102 
f 263//246 912//593 111//102 913//593 
f 259//242 913//593 111//102 914//593 
f 915//593 111//102 115//105 
f 916//593 115//105 119//109 
f 255//238 916//593 119//109 917//593 
f 918//593 119//109 123//113 
f 251//234 918//593 123//113 919//593 
f 920//593 123//113 127//116 
f 247//230 920//593 127//116 921//593 
f 922//593 127//116 131//120 
f 243//226 922//593 131//120 923//593 
f 924//593 131//120 135//123 
f 239//223 924//593 135//123 925//593 
f 926//593 135//123 139//126 
f 235//219 926//593 139//126 927//593 
f 928//593 139//126 143//130 
f 231//215 928//593 143//130 929//593 
f 930//593 143//130 147//134 
f 227//211 930//593 147//134 931//593 
f 223//207 931//593 147//134 932//593 
f 933//593 147//134 151//138 
f 219//203 933//593 151//138 934//593 
f 935//593 151//138 155//142 
f 215//199 935//593 155//142 936//593 
f 937//593 155//142 159//146 
f 211//195 937//593 159//146 938//593 
f 939//593 159//146 163//150 
f 207//191 939//593 163//150 940//593 
f 941//593 163//150 167//154 
f 203//187 941//593 167//154 942//593 
f 943//593 167//154 171//158 
f 199//183 943//593 171//158 944//593 
f 945//593 171//158 175//162 
f 195//179 945//593 175//162 946//593 
f 947//593 175//162 179//166 
f 191//175 947//593 179//166 948//593 
f 183//169 948//593 179//166 
# 474 polygons - 948 triangles

